<?xml version="1.0" encoding="utf-8"?>
<!-- Generator: Adobe Illustrator 18.0.0, SVG Export Plug-In . SVG Version: 6.00 Build 0)  -->
<!DOCTYPE svg PUBLIC "-//W3C//DTD SVG 1.1//EN" "http://www.w3.org/Graphics/SVG/1.1/DTD/svg11.dtd">
<svg version="1.1" id="background" xmlns="http://www.w3.org/2000/svg" xmlns:xlink="http://www.w3.org/1999/xlink" x="0px" y="0px"
	 width="9451.45px" height="623.52px" viewBox="0 0 9451.45 623.52" enable-background="new 0 0 9451.45 623.52"
	 xml:space="preserve">
<circle opacity="0.01" stroke="#B87332" stroke-width="1.2756" stroke-linecap="round" stroke-miterlimit="10" cx="6183.43" cy="135.75" r="14.58"/>
<path opacity="0.01" stroke="#B87332" stroke-width="1.2756" stroke-linecap="round" stroke-miterlimit="10" d="M6126.31,211.58
	c-0.64,0-1.26,0.07-1.87,0.16c-0.07,0-0.14-0.01-0.21-0.01c-5.63,0-10.19,4.56-10.19,10.19c0,1.63,0.39,3.17,1.07,4.53
	c1.4,4.87,5.88,8.44,11.2,8.44c6.44,0,11.66-5.22,11.66-11.66C6137.97,216.8,6132.75,211.58,6126.31,211.58z"/>
<circle opacity="0.01" stroke="#9163AA" stroke-width="0.9921" stroke-linecap="round" stroke-miterlimit="10" cx="6479.67" cy="197.84" r="0.06"/>
<circle opacity="0.01" stroke="#9163AA" stroke-width="0.9921" stroke-linecap="round" stroke-miterlimit="10" cx="6449.69" cy="223.55" r="0.47"/>
<circle opacity="0.01" stroke="#B87332" stroke-width="1.2756" stroke-linecap="round" stroke-miterlimit="10" cx="6483.9" cy="191.58" r="24.4"/>
<circle opacity="0.01" stroke="#B87332" stroke-width="1.2756" stroke-linecap="round" stroke-miterlimit="10" cx="6298.09" cy="152.93" r="29.43"/>
<circle opacity="0.01" stroke="#B87332" stroke-width="1.2756" stroke-linecap="round" stroke-miterlimit="10" cx="6266.9" cy="220.66" r="14.58"/>
<path opacity="0.01" stroke="#B87332" stroke-width="1.2756" stroke-linecap="round" stroke-miterlimit="10" d="M6449.22,215.42
	c-3.01,0-5.48,2.28-5.79,5.21c-0.85,0.53-1.41,1.47-1.41,2.54c0,1.67,1.35,3.01,3.02,3.01c0.31,0,0.6-0.06,0.88-0.15
	c0.94,0.65,2.08,1.04,3.31,1.04c3.22,0,5.83-2.61,5.83-5.83C6455.05,218.03,6452.44,215.42,6449.22,215.42z"/>
<path opacity="0.01" stroke="#B87332" stroke-width="1.2756" stroke-linecap="round" stroke-miterlimit="10" d="M6643.52,186.08
	c-2.86-0.44-5.54,1.27-6.42,3.93c-0.78,0.47-1.37,1.26-1.52,2.23c-0.27,1.74,0.92,3.36,2.65,3.63c0.07,0.01,0.13,0,0.19,0.01
	c0.55,0.58,1.23,1.05,2,1.36c0.45,0.28,0.96,0.47,1.51,0.56c0.88,0.14,1.73-0.02,2.46-0.39c2.04-0.65,3.65-2.4,4-4.66
	C6648.89,189.56,6646.71,186.58,6643.52,186.08z"/>
<circle opacity="0.01" stroke="#B87332" stroke-width="1.2756" stroke-linecap="round" stroke-miterlimit="10" cx="6590.99" cy="226.33" r="5.11"/>
<circle opacity="0.01" stroke="#9163AA" stroke-width="0.9896" stroke-linecap="round" stroke-miterlimit="10" cx="6550.71" cy="295.46" r="7.29"/>
<path opacity="0.01" stroke="#9163AA" stroke-width="0.9896" stroke-linecap="round" stroke-miterlimit="10" d="M6199.13,245.14
	c0-2.64-2.14-4.78-4.78-4.78c-2.64,0-4.78,2.14-4.78,4.78c0,2.46,1.88,4.47,4.27,4.73c0.5,0.4,1.13,0.65,1.82,0.65
	c1.61,0,2.91-1.31,2.91-2.92c0-0.08-0.02-0.15-0.02-0.23C6198.91,246.71,6199.13,245.96,6199.13,245.14z"/>
</svg>
