<?xml version="1.0" encoding="utf-8"?>
<!-- Generator: Adobe Illustrator 23.0.1, SVG Export Plug-In . SVG Version: 6.00 Build 0)  -->
<svg version="1.1" id="background" xmlns="http://www.w3.org/2000/svg" xmlns:xlink="http://www.w3.org/1999/xlink" x="0px" y="0px"
	 width="9451.5px" height="623.5px" viewBox="0 0 9451.5 623.5" style="enable-background:new 0 0 9451.5 623.5;"
	 xml:space="preserve">
<style type="text/css">
	.st0{opacity:0.01;}
</style>
<g class="st0">
	<g>
		<path d="M7481.1,432.9l0.2-0.3c1.5-2.3,2.1-5,1.5-7.7l-0.7-3.3l1.1-0.2l1.9-2.9l-2-1.4l-1-0.6l-2-1.3l-2,2.9l0.2,1.1l-3.3,0.7
			c-2.7,0.5-5,2.1-6.5,4.4l-0.2,0.3c-1.1,1.6-1.7,3.5-1.9,5.4c0,0.2-0.1,0.4-0.2,0.6l-0.6,0.9c-0.1,0.2-0.3,0.4-0.5,0.5
			c-1.7,1-3.2,2.3-4.2,3.9l-7.2,10.8c-0.9,1.3-1.2,3-0.9,4.5l0,0.2l4.3,2.9l1,0.6l4.3,2.8l0.2,0c1.6-0.3,2.9-1.2,3.8-2.6l7.2-10.8
			c1.1-1.6,1.7-3.5,1.9-5.4c0-0.2,0.1-0.4,0.2-0.6l0.6-0.9c0.1-0.2,0.3-0.4,0.5-0.5C7478.6,435.7,7480,434.5,7481.1,432.9z"/>
		<polygon points="7485.2,418.5 7483.2,417.1 7482.2,416.5 7480.2,415.1 7478.3,418 7483.3,421.3 		"/>
	</g>
	<g>
		<path d="M7707.3,531.2l-0.2-0.3c-1.6-2.5-4.2-4.4-7.1-5l-3.6-0.8l0.3-1.2l-2.1-3.3l-2.3,1.4l-1.1,0.7l-2.3,1.4l2.1,3.3l1.2,0.3
			l-0.8,3.7c-0.7,2.9-0.1,6,1.5,8.6l0.2,0.3c1.1,1.8,2.8,3.3,4.6,4.4c0.2,0.1,0.4,0.3,0.5,0.5l0.6,1c0.1,0.2,0.2,0.5,0.3,0.7
			c0.3,2.1,0.9,4.2,2,6l7.7,12.2c0.9,1.5,2.4,2.5,4.2,2.9l0.2,0l4.8-3l1.1-0.7l4.8-3l0-0.2c0.4-1.7,0.1-3.5-0.9-5l-7.7-12.2
			c-1.1-1.8-2.8-3.3-4.6-4.4c-0.2-0.1-0.4-0.3-0.5-0.5l-0.6-1c-0.1-0.2-0.2-0.5-0.3-0.7C7709.1,535.1,7708.5,533,7707.3,531.2z"/>
		<polygon points="7694.6,520.6 7692.3,522 7691.2,522.7 7688.9,524.1 7691,527.3 7696.6,523.8 		"/>
	</g>
	<g>
		<path d="M7797.9,547.2l-0.3-0.1c-2.2-1-4.7-1.1-6.9-0.3l-2.8,1l-0.4-1l-2.8-1.3l-0.9,2l-0.4,0.9l-0.9,2l2.8,1.3l1-0.3l1,2.8
			c0.8,2.3,2.5,4.1,4.7,5.1l0.3,0.1c1.6,0.7,3.3,1,5,0.9c0.2,0,0.4,0,0.6,0.1l0.9,0.4c0.2,0.1,0.4,0.2,0.5,0.4
			c1.1,1.3,2.4,2.4,4,3.2l10.4,4.8c1.3,0.6,2.7,0.6,4,0.2l0.1-0.1l1.9-4.1l0.4-0.9l1.9-4.1l-0.1-0.2c-0.5-1.3-1.5-2.4-2.8-3
			l-10.4-4.8c-1.5-0.7-3.3-1-5-0.9c-0.2,0-0.4,0-0.6-0.1l-0.9-0.4c-0.2-0.1-0.4-0.2-0.5-0.4C7800.8,549,7799.5,547.9,7797.9,547.2z"
			/>
		<polygon points="7784.8,545.6 7783.9,547.5 7783.5,548.5 7782.6,550.4 7785.3,551.7 7787.5,546.8 		"/>
		<g>
			<path d="M7817.5,564.1l-0.5-0.6l0.7-0.1L7817.5,564.1z"/>
			<circle cx="7807.1" cy="563.9" r="0.1"/>
			<circle cx="7807.4" cy="563" r="0.2"/>
			<circle cx="7811.5" cy="563" r="0.2"/>
			<circle cx="7817.7" cy="562.8" r="0.2"/>
			<circle cx="7814.5" cy="566.9" r="0.3"/>
			<circle cx="7808.8" cy="564.4" r="0.3"/>
			<circle cx="7813.1" cy="557" r="0.3"/>
			<circle cx="7815.7" cy="565.7" r="0.3"/>
			<circle cx="7812.2" cy="563.3" r="0.4"/>
			<circle cx="7818.3" cy="561.6" r="0.4"/>
			<circle cx="7808.6" cy="563.1" r="0.1"/>
			<circle cx="7809.5" cy="561.8" r="0.2"/>
			<circle cx="7808.5" cy="562.2" r="0.2"/>
			<circle cx="7813" cy="561.7" r="0.2"/>
			<circle cx="7813.8" cy="564.8" r="0.3"/>
			<circle cx="7812.2" cy="559.3" r="0.3"/>
			<circle cx="7806.2" cy="562.4" r="0.3"/>
			<circle cx="7810.8" cy="559.4" r="0.3"/>
			<path d="M7810.7,563.5l0.2-0.6l0.4,0.4L7810.7,563.5z"/>
			<circle cx="7810.9" cy="564.4" r="0.1"/>
			<circle cx="7813.8" cy="564.2" r="0.2"/>
			<circle cx="7805.4" cy="561.3" r="0.2"/>
			<circle cx="7814" cy="565.9" r="0.2"/>
			<circle cx="7815.9" cy="562" r="0.3"/>
			<circle cx="7808.7" cy="557.4" r="0.3"/>
			<circle cx="7808.3" cy="560.5" r="0.3"/>
			<circle cx="7813.1" cy="560.6" r="0.3"/>
			<circle cx="7816.5" cy="559.4" r="0.4"/>
			<circle cx="7815.1" cy="559" r="0.4"/>
			<circle cx="7809.9" cy="564.7" r="0.1"/>
			<circle cx="7815.6" cy="564.8" r="0.2"/>
			<circle cx="7811.1" cy="561.4" r="0.2"/>
			<circle cx="7806.6" cy="560.2" r="0.2"/>
			<circle cx="7807" cy="561.7" r="0.3"/>
			<circle cx="7810.9" cy="556.4" r="0.3"/>
			<circle cx="7814.1" cy="557.5" r="0.3"/>
			<circle cx="7818.1" cy="564.3" r="0.3"/>
			<circle cx="7812.3" cy="565.4" r="0.4"/>
			<circle cx="7817.2" cy="565.7" r="0.1"/>
			<circle cx="7814.9" cy="560.5" r="0.1"/>
		</g>
	</g>
	<g>
		<g>
			<path d="M8103.2,505.5l0.2-0.2c2-1.8,3.2-4.4,3.4-7.1l0.2-3.4l1.1,0.1l2.6-2.4l-1.6-1.8l-0.8-0.9l-1.6-1.8l-2.6,2.4l-0.1,1.1
				l-3.4-0.2c-2.7-0.1-5.4,0.8-7.4,2.6l-0.2,0.2c-1.4,1.3-2.5,3-3.2,4.8c-0.1,0.2-0.2,0.4-0.4,0.5l-0.8,0.7
				c-0.2,0.2-0.4,0.3-0.6,0.3c-1.9,0.5-3.6,1.4-5.1,2.7l-9.6,8.7c-1.2,1.1-1.9,2.6-2,4.2l0,0.2l3.4,3.8l0.8,0.9l3.4,3.8l0.2,0
				c1.6,0.1,3.1-0.5,4.3-1.5l9.6-8.7c1.4-1.3,2.5-3,3.2-4.8c0.1-0.2,0.2-0.4,0.4-0.5l0.8-0.7c0.2-0.2,0.4-0.3,0.6-0.3
				C8100,507.7,8101.7,506.8,8103.2,505.5z"/>
			<polygon points="8110.7,492.5 8109.1,490.8 8108.3,489.9 8106.7,488.1 8104.1,490.4 8108.2,494.8 			"/>
		</g>
		<g>
			<circle cx="8082.8" cy="515.3" r="0.1"/>
			<circle cx="8084.6" cy="517.3" r="0.2"/>
			<circle cx="8087.4" cy="512" r="0.2"/>
			<circle cx="8084.4" cy="512.8" r="0.2"/>
			<circle cx="8082.9" cy="513.6" r="0.3"/>
			<circle cx="8083.9" cy="515.8" r="0.3"/>
			<circle cx="8082.1" cy="516.4" r="0.3"/>
			<circle cx="8087.8" cy="514.9" r="0.3"/>
			<circle cx="8080.5" cy="515.9" r="0.4"/>
			<circle cx="8079.7" cy="521.4" r="0.4"/>
			<path d="M8081.6,511.5c0.1-0.1,0.2,0,0.2,0c0.1,0.1,0,0.1,0,0.2c-0.1,0.1-0.1,0-0.2,0C8081.5,511.7,8081.5,511.6,8081.6,511.5z"
				/>
			<circle cx="8083.3" cy="512.8" r="0.2"/>
			<circle cx="8080.9" cy="509.8" r="0.2"/>
			<circle cx="8084.6" cy="511.8" r="0.2"/>
			<circle cx="8078.4" cy="512.7" r="0.3"/>
			<path d="M8081.2,516.3l0.7-0.1l-0.2,0.6L8081.2,516.3z"/>
			<path d="M8086,514c0.1-0.1,0.1-0.1,0.2,0s0.1,0.2,0,0.2s-0.1,0-0.2,0C8086,514.2,8086,514.1,8086,514z"/>
			<circle cx="8083.1" cy="514.4" r="0.2"/>
			<circle cx="8082" cy="514.1" r="0.2"/>
			<circle cx="8085.9" cy="512.8" r="0.2"/>
			<circle cx="8080.7" cy="513.6" r="0.3"/>
			<circle cx="8088.7" cy="510.9" r="0.3"/>
			<circle cx="8081.8" cy="518.8" r="0.3"/>
			<circle cx="8078.7" cy="518" r="0.3"/>
			<circle cx="8076" cy="515.9" r="0.4"/>
			<circle cx="8084.6" cy="519.2" r="0.4"/>
			<circle cx="8083.4" cy="510.2" r="0.1"/>
			<path d="M8086.3,511.6c0.1,0,0.2,0.1,0.2,0.2s-0.1,0.2-0.2,0.2s-0.2-0.1-0.2-0.2S8086.2,511.6,8086.3,511.6z"/>
			<circle cx="8085.7" cy="510.2" r="0.2"/>
			<circle cx="8081.7" cy="515.5" r="0.2"/>
			<circle cx="8080.8" cy="518" r="0.3"/>
			<circle cx="8078.1" cy="516" r="0.3"/>
			<circle cx="8083.8" cy="511.8" r="0.1"/>
			<circle cx="8084" cy="513.6" r="0.2"/>
			<path d="M8086.3,510.8c0.1-0.1,0.1,0,0.2,0s0.1,0.1,0,0.2s-0.1,0-0.2,0C8086.2,511,8086.2,510.9,8086.3,510.8z"/>
		</g>
	</g>
	<g>
		<g>
			<g>
				<path d="M7567.1,534.5l0.2,0.1c2.6,1,5.6,0.9,8.2-0.3l3.2-1.5l0.5,1.1l3.4,1.3l0.9-2.4l0.4-1.1l0.9-2.4l-3.4-1.3l-1.1,0.5
					l-1.5-3.2c-1.2-2.6-3.3-4.6-6-5.6l-0.2-0.1c-1.9-0.7-3.9-1.1-5.9-0.8c-0.3,0-0.5,0-0.8-0.1l-1-0.4c-0.3-0.1-0.5-0.3-0.7-0.5
					c-1.3-1.6-3.1-2.6-4.9-3.3l-12.5-4.7c-1.5-0.6-3.3-0.5-4.8,0.2l0,0c-0.1,0-0.2,0.1-0.2,0.3l-1.8,4.8l-0.4,1.1l-1.8,4.8
					c0,0.1,0,0.2,0,0.3l0,0c0.7,1.5,1.9,2.7,3.5,3.3l12.5,4.7c1.9,0.7,3.9,1.1,5.9,0.8c0.3,0,0.5,0,0.8,0.1l1,0.4
					c0.3,0.1,0.5,0.3,0.7,0.5C7563.4,532.7,7565.2,533.8,7567.1,534.5z"/>
				<polygon points="7582.5,535.2 7583.4,532.8 7583.9,531.7 7584.8,529.3 7581.4,528.1 7579.2,534 				"/>
			</g>
			<circle cx="7569.5" cy="530.8" r="0.1"/>
			<path d="M7543.2,521.4c0.1,0,0.1,0.1,0.1,0.2c0,0.1-0.1,0.1-0.2,0.1c-0.1,0-0.1-0.1-0.1-0.2
				C7543,521.4,7543.1,521.3,7543.2,521.4z"/>
			<circle cx="7564.4" cy="527.3" r="0.2"/>
			<circle cx="7569.3" cy="531.6" r="0.2"/>
			<circle cx="7565" cy="524.1" r="0.3"/>
			<circle cx="7573.1" cy="527.7" r="0.3"/>
			<circle cx="7557.6" cy="517.6" r="0.3"/>
			<circle cx="7553.3" cy="521.8" r="0.3"/>
			<path d="M7551.2,519c0.2,0.1,0.3,0.3,0.2,0.5s-0.3,0.3-0.5,0.2c-0.2-0.1-0.3-0.3-0.2-0.5C7550.8,519.1,7551,519,7551.2,519z"/>
			<circle cx="7562.9" cy="523.1" r="0.4"/>
			<circle cx="7567" cy="526.1" r="0.1"/>
			<path d="M7561.4,526.3c0.1,0,0.1,0.1,0.1,0.2c0,0.1-0.1,0.1-0.2,0.1c-0.1,0-0.1-0.1-0.1-0.2S7561.3,526.3,7561.4,526.3z"/>
			<circle cx="7560.4" cy="520.8" r="0.2"/>
			<circle cx="7542.9" cy="521.5" r="0.2"/>
			<circle cx="7557.8" cy="527.5" r="0.3"/>
			<circle cx="7563.5" cy="522.1" r="0.3"/>
			<circle cx="7549.6" cy="518.1" r="0.3"/>
			<circle cx="7552.8" cy="526.1" r="0.3"/>
			<path d="M7567.8,529.6c0.2,0.1,0.3,0.3,0.2,0.5c-0.1,0.2-0.3,0.3-0.5,0.2c-0.2-0.1-0.3-0.3-0.2-0.5
				C7567.4,529.7,7567.6,529.6,7567.8,529.6z"/>
			<circle cx="7543.6" cy="515.7" r="0.4"/>
			<circle cx="7569.3" cy="522.3" r="0.1"/>
			<circle cx="7551" cy="523.5" r="0.2"/>
			<circle cx="7546" cy="521.7" r="0.2"/>
			<circle cx="7571.4" cy="533.1" r="0.2"/>
			<path d="M7559.9,528.2c0.1,0,0.2,0.2,0.1,0.3c0,0.1-0.2,0.2-0.3,0.2s-0.2-0.2-0.1-0.3C7559.6,528.2,7559.8,528.1,7559.9,528.2z"
				/>
			<circle cx="7555.5" cy="525.4" r="0.3"/>
			<circle cx="7572.5" cy="532" r="0.3"/>
			<circle cx="7557.4" cy="525.9" r="0.3"/>
			<circle cx="7558.9" cy="521.3" r="0.4"/>
			<circle cx="7561.5" cy="521.7" r="0.4"/>
			<circle cx="7563.9" cy="522" r="0.1"/>
			<circle cx="7573.4" cy="525.6" r="0.2"/>
			<circle cx="7574.9" cy="528.7" r="0.2"/>
			<circle cx="7555.2" cy="520.6" r="0.2"/>
			<path d="M7560,526.4c0.1,0,0.2,0.2,0.1,0.3c0,0.1-0.2,0.2-0.3,0.2s-0.2-0.2-0.1-0.3C7559.7,526.5,7559.8,526.4,7560,526.4z"/>
			<circle cx="7553.1" cy="520.9" r="0.3"/>
			<circle cx="7543.5" cy="523.5" r="0.3"/>
			<circle cx="7565.4" cy="524.3" r="0.3"/>
			<circle cx="7570.8" cy="528" r="0.4"/>
			<circle cx="7561.2" cy="519.5" r="0.4"/>
			<circle cx="7549.6" cy="524.2" r="0.1"/>
			<circle cx="7571.4" cy="531.3" r="0.2"/>
			<path d="M7564.5,529.9c0.1,0,0.2,0.2,0.1,0.3s-0.1,0.2-0.3,0.1c-0.1,0-0.2-0.2-0.1-0.3C7564.3,529.9,7564.4,529.9,7564.5,529.9z"
				/>
			<circle cx="7545" cy="514" r="0.2"/>
			<circle cx="7551" cy="518.4" r="0.3"/>
			<circle cx="7547.1" cy="516" r="0.3"/>
			<circle cx="7554.4" cy="522" r="0.3"/>
			<circle cx="7550" cy="513.7" r="0.3"/>
			<path d="M7562.2,521.6c0.2,0.1,0.3,0.3,0.2,0.5c-0.1,0.2-0.3,0.3-0.5,0.2c-0.2-0.1-0.3-0.3-0.2-0.5
				C7561.8,521.6,7562,521.5,7562.2,521.6z"/>
			<circle cx="7571.6" cy="524.7" r="0.4"/>
			<circle cx="7570.4" cy="525.9" r="0.1"/>
			<circle cx="7546.5" cy="512.9" r="0.2"/>
			<circle cx="7557.7" cy="524.8" r="0.2"/>
			<circle cx="7569.5" cy="527.7" r="0.2"/>
			<circle cx="7556.2" cy="515.5" r="0.3"/>
			<circle cx="7553.4" cy="518.5" r="0.3"/>
			<circle cx="7543.8" cy="518.4" r="0.3"/>
			<circle cx="7556.4" cy="521.6" r="0.3"/>
			<path d="M7549.4,516.4c0.2,0.1,0.3,0.3,0.2,0.5s-0.3,0.3-0.5,0.2c-0.2-0.1-0.3-0.3-0.2-0.5C7549,516.5,7549.2,516.4,7549.4,516.4
				z"/>
			<circle cx="7547.1" cy="517.9" r="0.4"/>
			<circle cx="7540.7" cy="516.7" r="0.1"/>
			<circle cx="7567.5" cy="524" r="0.2"/>
			<circle cx="7549.5" cy="522" r="0.2"/>
			<circle cx="7546.4" cy="519.7" r="0.2"/>
			<circle cx="7570.5" cy="530.1" r="0.3"/>
			<circle cx="7572.6" cy="529.9" r="0.3"/>
			<circle cx="7560.8" cy="522" r="0.3"/>
			<circle cx="7566.4" cy="522.8" r="0.3"/>
			<circle cx="7556.3" cy="520.8" r="0.4"/>
			<circle cx="7546.7" cy="521.5" r="0.4"/>
			<circle cx="7562" cy="520.4" r="0.1"/>
			<path d="M7570.4,532.4c0.1,0,0.1,0.1,0.1,0.2c0,0.1-0.1,0.1-0.2,0.1c-0.1,0-0.1-0.1-0.1-0.2S7570.3,532.4,7570.4,532.4z"/>
			<circle cx="7564.1" cy="531.5" r="0.2"/>
			<circle cx="7567.6" cy="529.2" r="0.2"/>
			<circle cx="7554.7" cy="520.4" r="0.3"/>
			<circle cx="7545.8" cy="521.7" r="0.3"/>
			<circle cx="7561.4" cy="517.4" r="0.3"/>
			<circle cx="7543.4" cy="515.4" r="0.3"/>
			<path d="M7542.5,515.6c0.2,0.1,0.3,0.3,0.2,0.5c-0.1,0.2-0.3,0.3-0.5,0.2s-0.3-0.3-0.2-0.5
				C7542.1,515.7,7542.3,515.6,7542.5,515.6z"/>
			<circle cx="7543.6" cy="519.8" r="0.4"/>
			<circle cx="7542" cy="520.7" r="0.1"/>
			<circle cx="7570.7" cy="530.1" r="0.2"/>
			<path d="M7558.1,520.9c0.1,0,0.2,0.2,0.1,0.3c0,0.1-0.1,0.2-0.3,0.1c-0.1,0-0.2-0.2-0.1-0.3
				C7557.9,520.9,7558,520.9,7558.1,520.9z"/>
			<circle cx="7562.6" cy="519.1" r="0.2"/>
			<path d="M7569.2,530.6c0.1,0,0.2,0.2,0.1,0.3c0,0.1-0.2,0.2-0.3,0.2s-0.2-0.2-0.1-0.3C7568.9,530.6,7569,530.6,7569.2,530.6z"/>
			<path d="M7562.9,527.8c0.1,0,0.2,0.2,0.2,0.3c0,0.1-0.2,0.2-0.4,0.2c-0.1,0-0.2-0.2-0.2-0.3
				C7562.6,527.8,7562.8,527.7,7562.9,527.8z"/>
			<circle cx="7555.3" cy="523.8" r="0.3"/>
			<path d="M7541.2,522.1c0.2,0.1,0.3,0.3,0.2,0.4c-0.1,0.2-0.3,0.3-0.4,0.2s-0.3-0.3-0.2-0.4C7540.9,522.1,7541.1,522,7541.2,522.1
				z"/>
			<circle cx="7571.8" cy="529.1" r="0.4"/>
			<circle cx="7547.4" cy="519.2" r="0.4"/>
			<circle cx="7559.8" cy="520.1" r="0.1"/>
			<circle cx="7558.9" cy="521" r="0.2"/>
			<circle cx="7554.7" cy="520" r="0.2"/>
			<circle cx="7547" cy="515.7" r="0.2"/>
			<circle cx="7559.8" cy="522.3" r="0.3"/>
			<circle cx="7564.4" cy="528" r="0.3"/>
			<circle cx="7556.1" cy="524.9" r="0.3"/>
			<circle cx="7546.9" cy="522.2" r="0.3"/>
			<circle cx="7554.4" cy="520" r="0.4"/>
			<circle cx="7558.3" cy="516.2" r="0.4"/>
			<path d="M7558.3,517.8c0.1,0,0.1,0.1,0.1,0.2c0,0.1-0.1,0.1-0.2,0.1c-0.1,0-0.1-0.1-0.1-0.2
				C7558.1,517.8,7558.2,517.8,7558.3,517.8z"/>
			<path d="M7556.5,518.8c0.1,0,0.1,0.1,0.1,0.2c0,0.1-0.1,0.1-0.2,0.1c-0.1,0-0.1-0.1-0.1-0.2
				C7556.3,518.9,7556.4,518.8,7556.5,518.8z"/>
			<path d="M7550.8,518.2c0.1,0,0.2,0.2,0.1,0.3c0,0.1-0.1,0.2-0.3,0.1s-0.2-0.2-0.1-0.3C7550.5,518.2,7550.7,518.2,7550.8,518.2z"
				/>
			<circle cx="7570.6" cy="523.4" r="0.2"/>
			<circle cx="7562.5" cy="523.7" r="0.3"/>
			<circle cx="7574.9" cy="531.7" r="0.3"/>
			<circle cx="7554.5" cy="519.8" r="0.3"/>
			<path d="M7567,528.1c0.2,0.1,0.3,0.3,0.2,0.4c-0.1,0.2-0.3,0.3-0.4,0.2c-0.2-0.1-0.3-0.3-0.2-0.4
				C7566.7,528.2,7566.8,528.1,7567,528.1z"/>
			<circle cx="7568.9" cy="525" r="0.4"/>
			<circle cx="7575.4" cy="532.6" r="0.4"/>
			<circle cx="7569" cy="530.1" r="0.1"/>
			<circle cx="7564.5" cy="523.6" r="0.2"/>
			<circle cx="7548.6" cy="520.7" r="0.2"/>
			<circle cx="7558" cy="520.2" r="0.2"/>
			<circle cx="7565.5" cy="531" r="0.3"/>
			<circle cx="7556.7" cy="525.9" r="0.3"/>
			<circle cx="7544.6" cy="520.3" r="0.3"/>
			<circle cx="7566.5" cy="523.6" r="0.3"/>
			<circle cx="7551.3" cy="523.5" r="0.4"/>
			<circle cx="7566" cy="520.8" r="0.4"/>
			<circle cx="7569.5" cy="523.5" r="0.1"/>
			<circle cx="7547.9" cy="520.6" r="0.2"/>
			<circle cx="7549.4" cy="517" r="0.2"/>
			<circle cx="7548.8" cy="522" r="0.2"/>
			<circle cx="7543.5" cy="513.3" r="0.3"/>
			<circle cx="7566.5" cy="532.3" r="0.3"/>
			<path d="M7555,521.5c0.2,0.1,0.2,0.2,0.2,0.4s-0.2,0.2-0.4,0.2c-0.2-0.1-0.2-0.2-0.2-0.4C7554.7,521.6,7554.8,521.5,7555,521.5z"
				/>
			<circle cx="7554.8" cy="523.8" r="0.3"/>
			<circle cx="7558.3" cy="524.8" r="0.4"/>
			<circle cx="7565" cy="522.8" r="0.4"/>
			<circle cx="7565.2" cy="523.8" r="0.1"/>
			<circle cx="7553.6" cy="526.3" r="0.2"/>
			<circle cx="7557.7" cy="523.1" r="0.2"/>
			<circle cx="7549" cy="518.5" r="0.2"/>
			<circle cx="7562.3" cy="527.8" r="0.3"/>
			<circle cx="7556.8" cy="523.2" r="0.3"/>
			<circle cx="7573.5" cy="531.2" r="0.3"/>
			<circle cx="7569.2" cy="528" r="0.3"/>
			<circle cx="7568.9" cy="526.5" r="0.4"/>
			<circle cx="7544.5" cy="524.4" r="0.4"/>
			<path d="M7567.2,522.7c0.1,0,0.1,0.1,0.1,0.2c0,0.1-0.1,0.1-0.2,0.1c-0.1,0-0.1-0.1-0.1-0.2
				C7567.1,522.7,7567.1,522.6,7567.2,522.7z"/>
			<circle cx="7555.8" cy="519.5" r="0.2"/>
			<circle cx="7550" cy="521.9" r="0.2"/>
			<circle cx="7568.3" cy="529" r="0.2"/>
			<circle cx="7549.3" cy="524" r="0.3"/>
			<circle cx="7553.2" cy="517.8" r="0.3"/>
			<circle cx="7566.8" cy="529.9" r="0.3"/>
			<circle cx="7565.1" cy="522.1" r="0.3"/>
			<circle cx="7549.6" cy="521" r="0.4"/>
			<circle cx="7550.7" cy="516.8" r="0.4"/>
			<circle cx="7553.4" cy="522.5" r="0.1"/>
			<circle cx="7571.6" cy="529.9" r="0.2"/>
			<circle cx="7558.7" cy="519.9" r="0.2"/>
			<circle cx="7549.6" cy="517.2" r="0.2"/>
			<circle cx="7553" cy="517.7" r="0.3"/>
			<circle cx="7554.6" cy="526.2" r="0.3"/>
			<circle cx="7554.1" cy="518.6" r="0.3"/>
			<circle cx="7562.1" cy="527.3" r="0.3"/>
			<path d="M7560,520.4c0.2,0.1,0.3,0.3,0.2,0.5s-0.3,0.3-0.5,0.2c-0.2-0.1-0.3-0.3-0.2-0.5C7559.6,520.4,7559.9,520.3,7560,520.4z"
				/>
			<circle cx="7556.7" cy="524.6" r="0.4"/>
			<circle cx="7559.1" cy="527.4" r="0.1"/>
			<circle cx="7561.6" cy="528.6" r="0.2"/>
			<circle cx="7547.4" cy="521.8" r="0.2"/>
			<circle cx="7545.1" cy="521.3" r="0.2"/>
			<circle cx="7558.1" cy="528" r="0.3"/>
			<circle cx="7554.6" cy="518.6" r="0.3"/>
			<circle cx="7571.9" cy="526" r="0.3"/>
			<circle cx="7551" cy="518.8" r="0.3"/>
			<circle cx="7551.5" cy="515.2" r="0.4"/>
			<circle cx="7553.6" cy="526.4" r="0.4"/>
			<circle cx="7565.7" cy="528.7" r="0.1"/>
			<circle cx="7557.7" cy="527.5" r="0.2"/>
			<circle cx="7553" cy="515.8" r="0.2"/>
			<circle cx="7561.7" cy="527.2" r="0.2"/>
			<circle cx="7545.3" cy="516.3" r="0.3"/>
			<circle cx="7558.3" cy="521.8" r="0.3"/>
			<circle cx="7556.8" cy="522.5" r="0.3"/>
			<circle cx="7554.8" cy="524.8" r="0.3"/>
			<circle cx="7558.1" cy="528.2" r="0.4"/>
			<circle cx="7564.8" cy="526" r="0.4"/>
			<circle cx="7573" cy="525.4" r="0.1"/>
			<circle cx="7569.3" cy="530.1" r="0.2"/>
			<circle cx="7547.6" cy="513.6" r="0.2"/>
			<circle cx="7550.2" cy="523.8" r="0.2"/>
			<circle cx="7573.5" cy="530.3" r="0.3"/>
			<circle cx="7555.5" cy="521.9" r="0.3"/>
			<circle cx="7568.8" cy="533.3" r="0.3"/>
			<path d="M7549.1,521.9c0.2,0.1,0.3,0.3,0.2,0.4c-0.1,0.2-0.3,0.3-0.4,0.2s-0.3-0.3-0.2-0.4C7548.8,522,7549,521.9,7549.1,521.9z"
				/>
			<circle cx="7567.7" cy="523.9" r="0.4"/>
			<circle cx="7547.8" cy="524" r="0.4"/>
			<circle cx="7563.1" cy="528.4" r="0.1"/>
			<circle cx="7560.3" cy="524.6" r="0.2"/>
			<circle cx="7540.9" cy="519.7" r="0.2"/>
			<circle cx="7547.1" cy="525.7" r="0.2"/>
			<circle cx="7544.2" cy="518.9" r="0.3"/>
			<circle cx="7562.5" cy="528.7" r="0.3"/>
			<circle cx="7563" cy="523.8" r="0.1"/>
			<circle cx="7539.4" cy="520.1" r="0.2"/>
			<circle cx="7559.3" cy="519.5" r="0.2"/>
			<circle cx="7572.5" cy="531.5" r="0.2"/>
			<circle cx="7561.9" cy="529.8" r="0.3"/>
			<circle cx="7573.4" cy="533.1" r="0.3"/>
			<circle cx="7569.4" cy="524.7" r="0.3"/>
			<circle cx="7547.9" cy="514.9" r="0.3"/>
			<path d="M7555.5,522.4c0.2,0.1,0.3,0.3,0.2,0.5c-0.1,0.2-0.3,0.3-0.5,0.2c-0.2-0.1-0.3-0.3-0.2-0.5
				C7555.1,522.4,7555.3,522.3,7555.5,522.4z"/>
			<circle cx="7547.3" cy="518.5" r="0.4"/>
			<circle cx="7554.4" cy="520.7" r="0.1"/>
			<circle cx="7564" cy="522.8" r="0.2"/>
			<circle cx="7559.4" cy="521.9" r="0.2"/>
			<circle cx="7559.6" cy="522.1" r="0.2"/>
			<circle cx="7566.1" cy="529.4" r="0.3"/>
			<circle cx="7542.5" cy="521.8" r="0.3"/>
			<circle cx="7540.7" cy="520.3" r="0.3"/>
			<circle cx="7557.8" cy="520" r="0.3"/>
			<circle cx="7549.4" cy="521.4" r="0.4"/>
			<circle cx="7558.1" cy="524.9" r="0.4"/>
			<circle cx="7541.9" cy="518.3" r="0.1"/>
			<circle cx="7569.4" cy="521.9" r="0.2"/>
			<circle cx="7562.9" cy="530.3" r="0.2"/>
			<circle cx="7571.4" cy="524.8" r="0.2"/>
			<circle cx="7544" cy="511.6" r="0.3"/>
			<circle cx="7546.6" cy="517.8" r="0.3"/>
			<circle cx="7542.5" cy="520.3" r="0.3"/>
			<circle cx="7564.3" cy="519.6" r="0.3"/>
			<circle cx="7544.1" cy="519" r="0.4"/>
			<path d="M7540.3,522c0.2,0.1,0.3,0.3,0.2,0.5c-0.1,0.2-0.3,0.3-0.5,0.2s-0.3-0.3-0.2-0.5C7539.9,522,7540.1,522,7540.3,522z"/>
			<circle cx="7568.4" cy="523.9" r="0.1"/>
			<circle cx="7571.6" cy="525.3" r="0.2"/>
			<circle cx="7566.9" cy="524" r="0.2"/>
			<circle cx="7569.4" cy="532.4" r="0.2"/>
			<path d="M7546,524.1c0.1,0,0.2,0.2,0.1,0.3c0,0.1-0.2,0.2-0.3,0.2s-0.2-0.2-0.1-0.3C7545.7,524.1,7545.8,524,7546,524.1z"/>
			<circle cx="7556.1" cy="525.9" r="0.3"/>
			<path d="M7570.5,523.1c0.1,0.1,0.2,0.2,0.2,0.4c0,0.2-0.2,0.2-0.4,0.2c-0.2-0.1-0.2-0.2-0.2-0.4
				C7570.2,523.1,7570.3,523,7570.5,523.1z"/>
			<circle cx="7553" cy="517.5" r="0.3"/>
			<circle cx="7560" cy="522.5" r="0.4"/>
			<g>
				<circle cx="7565.7" cy="525.5" r="0.4"/>
			</g>
			<g>
				<path d="M7552.3,519.5l0.1,0.7l-0.6-0.2L7552.3,519.5z"/>
				<path d="M7552.6,519.5l-0.4,0.7l-0.4-0.6L7552.6,519.5z"/>
				<path d="M7560.5,524.7l0.7,0.6l-0.8,0.3L7560.5,524.7z"/>
				<path d="M7550,521l-0.8,0.6l-0.2-0.9L7550,521z"/>
				<path d="M7559.5,522.6l0.6,0.9l-1,0.1L7559.5,522.6z"/>
				<path d="M7557.8,523.4l-0.3,1.2l-0.9-0.7L7557.8,523.4z"/>
				<path d="M7554.2,520.7l0.8,1.1l-1.2,0.2L7554.2,520.7z"/>
				<path d="M7557.2,520.1l-0.1,1.5l-1.1-0.7L7557.2,520.1z"/>
				<path d="M7552,521.7l-0.5,1.5l-1-1L7552,521.7z"/>
				<path d="M7550.8,518.7l-0.9,1.4l-0.8-1.3L7550.8,518.7z"/>
			</g>
			<circle cx="7555.1" cy="516.8" r="0.1"/>
			<circle cx="7546.1" cy="515.4" r="0.2"/>
			<circle cx="7564" cy="529" r="0.2"/>
			<path d="M7547.3,514.1c0.1,0,0.2,0.2,0.1,0.3c0,0.1-0.2,0.2-0.3,0.1c-0.1,0-0.2-0.2-0.1-0.3
				C7547,514.2,7547.1,514.1,7547.3,514.1z"/>
			<circle cx="7564" cy="527.5" r="0.3"/>
			<circle cx="7569.1" cy="523" r="0.3"/>
			<circle cx="7570.7" cy="532.7" r="0.3"/>
			<circle cx="7566.8" cy="530.1" r="0.3"/>
			<circle cx="7570.2" cy="530.1" r="0.4"/>
			<circle cx="7539.9" cy="518.7" r="0.4"/>
			<circle cx="7546.9" cy="515.5" r="0.1"/>
			<circle cx="7563.1" cy="526.8" r="0.2"/>
			<circle cx="7548" cy="517.6" r="0.2"/>
			<circle cx="7549.3" cy="514.5" r="0.2"/>
			<circle cx="7570.3" cy="529.9" r="0.3"/>
			<circle cx="7575.1" cy="533.4" r="0.3"/>
			<circle cx="7571.6" cy="533.4" r="0.3"/>
			<circle cx="7567.8" cy="522.7" r="0.3"/>
			<circle cx="7570.2" cy="524.1" r="0.4"/>
			<circle cx="7541.9" cy="514.9" r="0.4"/>
			<circle cx="7573.9" cy="525" r="0.1"/>
			<circle cx="7554.4" cy="517" r="0.2"/>
			<path d="M7558.5,517.4c0.1,0,0.2,0.2,0.1,0.3c0,0.1-0.1,0.2-0.3,0.1s-0.2-0.2-0.1-0.3C7558.3,517.4,7558.4,517.4,7558.5,517.4z"
				/>
			<circle cx="7572" cy="526.9" r="0.2"/>
			<circle cx="7553.4" cy="525.2" r="0.3"/>
			<circle cx="7544.4" cy="514.7" r="0.3"/>
			<circle cx="7556.6" cy="521.3" r="0.3"/>
			<circle cx="7563.8" cy="525" r="0.3"/>
			<circle cx="7560.6" cy="526.7" r="0.4"/>
			<circle cx="7552" cy="518.4" r="0.4"/>
			<circle cx="7553.3" cy="527.7" r="0.1"/>
			<circle cx="7563.6" cy="526.4" r="0.2"/>
			<circle cx="7544" cy="513.4" r="0.2"/>
			<circle cx="7545.5" cy="516.5" r="0.2"/>
			<circle cx="7551.3" cy="527.3" r="0.3"/>
			<circle cx="7542.8" cy="512.5" r="0.3"/>
			<circle cx="7551" cy="521.8" r="0.3"/>
			<circle cx="7556.2" cy="528" r="0.3"/>
			<circle cx="7548.9" cy="525.7" r="0.4"/>
			<circle cx="7543.9" cy="521.7" r="0.4"/>
			<path d="M7548.9,523.8c0.1,0,0.1,0.1,0.1,0.2c0,0.1-0.1,0.1-0.2,0.1c-0.1,0-0.1-0.1-0.1-0.2
				C7548.8,523.8,7548.9,523.8,7548.9,523.8z"/>
			<path d="M7573.7,531.7c0.1,0,0.1,0.1,0.1,0.2c0,0.1-0.1,0.1-0.2,0.1c-0.1,0-0.1-0.1-0.1-0.2
				C7573.5,531.7,7573.6,531.6,7573.7,531.7z"/>
			<circle cx="7547" cy="516.6" r="0.2"/>
			<circle cx="7556" cy="526" r="0.2"/>
			<circle cx="7547.4" cy="520.8" r="0.3"/>
			<circle cx="7554.6" cy="527.4" r="0.3"/>
			<circle cx="7554.9" cy="526.3" r="0.3"/>
			<circle cx="7552.5" cy="523.7" r="0.3"/>
			<circle cx="7550.3" cy="518.6" r="0.4"/>
			<circle cx="7556.2" cy="518.7" r="0.4"/>
			<circle cx="7552.1" cy="517.1" r="0.1"/>
			<circle cx="7575.7" cy="527.7" r="0.2"/>
			<circle cx="7562.4" cy="526" r="0.2"/>
			<circle cx="7543.4" cy="513.4" r="0.2"/>
			<circle cx="7572.4" cy="533.3" r="0.3"/>
			<circle cx="7546.3" cy="514.4" r="0.3"/>
			<circle cx="7572.6" cy="531.4" r="0.3"/>
			<circle cx="7549.3" cy="516" r="0.3"/>
			<circle cx="7558.8" cy="525.7" r="0.4"/>
			<circle cx="7575.4" cy="530.4" r="0.4"/>
			<circle cx="7556" cy="526.8" r="0.1"/>
			<circle cx="7543.5" cy="513.6" r="0.2"/>
			<circle cx="7548.5" cy="518" r="0.2"/>
			<circle cx="7569.1" cy="533.7" r="0.2"/>
			<circle cx="7567.6" cy="521.3" r="0.3"/>
			<path d="M7563,521c0.1,0,0.2,0.2,0.2,0.3c0,0.1-0.2,0.2-0.4,0.2c-0.1,0-0.2-0.2-0.2-0.3S7562.9,521,7563,521z"/>
			<circle cx="7552.6" cy="514.2" r="0.3"/>
			<circle cx="7545.4" cy="518.7" r="0.3"/>
			<circle cx="7561.6" cy="525" r="0.4"/>
			<circle cx="7565.5" cy="528.6" r="0.4"/>
			<circle cx="7575.2" cy="525.5" r="0.1"/>
			<circle cx="7572.3" cy="526" r="0.2"/>
			<circle cx="7565.8" cy="527.4" r="0.2"/>
			<circle cx="7550" cy="516.5" r="0.2"/>
			<circle cx="7546.8" cy="516.8" r="0.3"/>
			<circle cx="7568" cy="525.2" r="0.3"/>
			<circle cx="7570.3" cy="526" r="0.3"/>
			<circle cx="7569.1" cy="529.1" r="0.3"/>
			<circle cx="7577.7" cy="530.6" r="0.4"/>
			<circle cx="7545.6" cy="523.9" r="0.4"/>
			<circle cx="7547.8" cy="516.6" r="0.1"/>
			<circle cx="7552" cy="517.2" r="0.2"/>
			<circle cx="7552.2" cy="518.9" r="0.2"/>
			<circle cx="7551.8" cy="522.9" r="0.2"/>
			<circle cx="7566.8" cy="530.6" r="0.3"/>
			<circle cx="7546.9" cy="521.8" r="0.3"/>
			<circle cx="7552.3" cy="524.3" r="0.3"/>
			<circle cx="7545.6" cy="512" r="0.3"/>
			<circle cx="7554.2" cy="517.4" r="0.4"/>
			<circle cx="7550.7" cy="513.8" r="0.4"/>
			<path d="M7571.5,524.5c0.1,0,0.1,0.1,0.1,0.2c0,0.1-0.1,0.1-0.2,0.1c-0.1,0-0.1-0.1-0.1-0.2
				C7571.3,524.5,7571.4,524.5,7571.5,524.5z"/>
			<circle cx="7564.6" cy="521.1" r="0.2"/>
			<circle cx="7570.9" cy="525.1" r="0.2"/>
			<circle cx="7556.9" cy="521.1" r="0.2"/>
			<circle cx="7572.5" cy="529.7" r="0.3"/>
			<circle cx="7556" cy="517.1" r="0.3"/>
			<circle cx="7546.6" cy="522.1" r="0.3"/>
			<circle cx="7551.3" cy="520" r="0.3"/>
			<circle cx="7573.8" cy="528.6" r="0.4"/>
			<circle cx="7560" cy="518" r="0.4"/>
			<circle cx="7570" cy="530.9" r="0.1"/>
			<circle cx="7544.4" cy="521.9" r="0.2"/>
			<path d="M7549.9,517.6c0.1,0,0.2,0.2,0.1,0.3c0,0.1-0.1,0.2-0.3,0.1s-0.2-0.2-0.1-0.3C7549.7,517.6,7549.8,517.5,7549.9,517.6z"
				/>
			<circle cx="7556.1" cy="520.6" r="0.2"/>
			<path d="M7561.5,523.2c0.1,0,0.2,0.2,0.1,0.3c0,0.1-0.2,0.2-0.3,0.2s-0.2-0.2-0.1-0.3C7561.2,523.3,7561.4,523.2,7561.5,523.2z"
				/>
			<circle cx="7551.1" cy="518.3" r="0.3"/>
			<circle cx="7546.4" cy="525" r="0.3"/>
			<circle cx="7569.3" cy="525" r="0.3"/>
			<path d="M7554.8,514.9c0.2,0.1,0.3,0.3,0.2,0.5s-0.3,0.3-0.5,0.2s-0.3-0.3-0.2-0.5C7554.4,515,7554.6,514.9,7554.8,514.9z"/>
			<circle cx="7564.3" cy="527.3" r="0.4"/>
			<circle cx="7544.3" cy="518.9" r="0.1"/>
			<circle cx="7544" cy="518" r="0.2"/>
			<circle cx="7541.5" cy="517.2" r="0.2"/>
			<circle cx="7543.1" cy="517.4" r="0.2"/>
			<circle cx="7563.3" cy="527.5" r="0.3"/>
			<circle cx="7559.9" cy="524" r="0.3"/>
			<circle cx="7552" cy="525.9" r="0.3"/>
			<circle cx="7570.8" cy="527.1" r="0.3"/>
			<circle cx="7556.5" cy="525.8" r="0.4"/>
			<circle cx="7550.6" cy="525.6" r="0.4"/>
			<circle cx="7557.8" cy="525" r="0.1"/>
			<circle cx="7557.7" cy="523.7" r="0.2"/>
			<circle cx="7561.8" cy="526.5" r="0.2"/>
			<circle cx="7554.9" cy="524.5" r="0.2"/>
			<circle cx="7567.2" cy="527.7" r="0.3"/>
			<circle cx="7556.1" cy="518.3" r="0.3"/>
			<circle cx="7545.8" cy="522.5" r="0.3"/>
			<path d="M7548.1,516.5c0.2,0.1,0.3,0.3,0.2,0.4c-0.1,0.2-0.3,0.3-0.4,0.2c-0.2-0.1-0.3-0.3-0.2-0.4
				C7547.8,516.6,7548,516.5,7548.1,516.5z"/>
			<circle cx="7545.7" cy="520.8" r="0.4"/>
			<circle cx="7542.3" cy="519.1" r="0.4"/>
			<circle cx="7548.8" cy="513.1" r="0.1"/>
			<circle cx="7574.1" cy="526.2" r="0.2"/>
			<path d="M7565.1,527.6c0.1,0,0.2,0.2,0.1,0.3s-0.1,0.2-0.3,0.1c-0.1,0-0.2-0.2-0.1-0.3C7564.9,527.7,7565,527.6,7565.1,527.6z"/>
			<circle cx="7563.1" cy="520.5" r="0.2"/>
			<circle cx="7552.7" cy="525.2" r="0.3"/>
			<circle cx="7546.4" cy="515" r="0.3"/>
			<circle cx="7560.8" cy="521" r="0.3"/>
			<circle cx="7568.9" cy="530.9" r="0.3"/>
			<path d="M7547.2,523c0.2,0.1,0.3,0.3,0.2,0.5c-0.1,0.2-0.3,0.3-0.5,0.2s-0.3-0.3-0.2-0.5C7546.8,523,7547,522.9,7547.2,523z"/>
			<circle cx="7552.5" cy="521.4" r="0.4"/>
			<circle cx="7567" cy="523.5" r="0.1"/>
			<path d="M7544.4,522.5c0.1,0,0.1,0.1,0.1,0.2c0,0.1-0.1,0.1-0.2,0.1c-0.1,0-0.1-0.1-0.1-0.2
				C7544.2,522.5,7544.3,522.5,7544.4,522.5z"/>
			<circle cx="7576.9" cy="531.8" r="0.2"/>
			<circle cx="7573.1" cy="525.6" r="0.2"/>
			<circle cx="7552.8" cy="515.6" r="0.3"/>
			<path d="M7567.5,528.6c0.1,0,0.2,0.2,0.2,0.3c0,0.1-0.2,0.2-0.4,0.2s-0.2-0.2-0.2-0.3C7567.2,528.6,7567.4,528.5,7567.5,528.6z"
				/>
			<circle cx="7544.8" cy="519.9" r="0.3"/>
			<circle cx="7567.3" cy="532.2" r="0.3"/>
			<path d="M7558.5,525c0.2,0.1,0.3,0.3,0.2,0.5s-0.3,0.3-0.5,0.2s-0.3-0.3-0.2-0.4C7558.1,525,7558.3,524.9,7558.5,525z"/>
			<circle cx="7540.6" cy="518.6" r="0.4"/>
			<circle cx="7566.5" cy="523.2" r="0.1"/>
			<circle cx="7551.2" cy="522.1" r="0.2"/>
			<circle cx="7557.8" cy="519.3" r="0.2"/>
			<circle cx="7576.5" cy="531.7" r="0.2"/>
			<circle cx="7559.5" cy="525.9" r="0.3"/>
			<path d="M7551,522.4c0.1,0,0.2,0.2,0.2,0.3c0,0.1-0.2,0.2-0.4,0.2s-0.2-0.2-0.2-0.3C7550.7,522.4,7550.9,522.4,7551,522.4z"/>
			<circle cx="7548.1" cy="522.9" r="0.3"/>
			<circle cx="7569.3" cy="523.2" r="0.3"/>
			<circle cx="7558.9" cy="523.2" r="0.1"/>
			<circle cx="7562" cy="522" r="0.2"/>
			<circle cx="7557.9" cy="522.4" r="0.2"/>
			<circle cx="7555.1" cy="519.6" r="0.1"/>
			<circle cx="7559.2" cy="524.1" r="0.2"/>
			<circle cx="7554.9" cy="524.4" r="0.2"/>
			<circle cx="7554.6" cy="518.9" r="0.2"/>
			<circle cx="7553.8" cy="523.4" r="0.3"/>
		</g>
	</g>
</g>
<g class="st0">
	<path d="M7241.4,501.5l-0.4-0.1c-2.9-0.5-6,0.2-8.4,1.9l-3,2.1l-0.7-1l-3.8-0.7l-0.5,2.6l-0.2,1.3l-0.5,2.6l3.8,0.7l1-0.7l2.1,3
		c1.7,2.4,4.3,4.1,7.3,4.6l0.4,0.1c2.1,0.4,4.2,0.1,6.3-0.4c0.2-0.1,0.5-0.1,0.7,0l1.2,0.2c0.3,0,0.5,0.1,0.7,0.3
		c1.7,1.2,3.6,2.2,5.7,2.5l14,2.4c1.7,0.3,3.5-0.1,4.9-1.1l0.2-0.1l1-5.5l0.2-1.3l1-5.5l-0.1-0.2c-1-1.4-2.5-2.4-4.3-2.7l-14-2.4
		c-2.1-0.4-4.2-0.1-6.3,0.4c-0.2,0.1-0.5,0.1-0.7,0l-1.2-0.2c-0.3,0-0.5-0.1-0.7-0.3C7245.4,502.8,7243.5,501.9,7241.4,501.5z"/>
	<polygon points="7225.1,503.8 7224.7,506.4 7224.5,507.6 7224,510.3 7227.7,510.9 7228.8,504.4 	"/>
	<circle cx="7268.7" cy="515.2" r="0.1"/>
	<circle cx="7263.4" cy="510.3" r="0.2"/>
	<circle cx="7265.1" cy="518.6" r="0.2"/>
	<circle cx="7267.4" cy="513.7" r="0.3"/>
	<circle cx="7267.7" cy="509.7" r="0.3"/>
	<circle cx="7269.6" cy="515" r="0.3"/>
	<circle cx="7258.8" cy="511.6" r="0.3"/>
	<circle cx="7265.8" cy="507.4" r="0.4"/>
	<circle cx="7270.5" cy="515.8" r="0.4"/>
	<circle cx="7265.9" cy="515.3" r="0.1"/>
	<circle cx="7256.2" cy="511.5" r="0.2"/>
	<circle cx="7266.8" cy="513.3" r="0.2"/>
	<circle cx="7262.2" cy="518" r="0.2"/>
	<circle cx="7270.5" cy="516.8" r="0.3"/>
	<circle cx="7257" cy="515.5" r="0.1"/>
	<circle cx="7255.1" cy="513.6" r="0.2"/>
	<circle cx="7256.8" cy="511.8" r="0.2"/>
	<circle cx="7262.9" cy="516.2" r="0.2"/>
	<circle cx="7260.5" cy="513.6" r="0.3"/>
	<circle cx="7268.4" cy="510.8" r="0.3"/>
	<circle cx="7263.8" cy="514.3" r="0.3"/>
	<circle cx="7269" cy="512.9" r="0.3"/>
	<path d="M7270.9,512c0.2,0,0.4,0.2,0.4,0.4s-0.2,0.3-0.4,0.3s-0.4-0.2-0.4-0.3S7270.7,512,7270.9,512z"/>
	<circle cx="7265.7" cy="513.3" r="0.4"/>
	<circle cx="7257.6" cy="514.8" r="0.1"/>
	<circle cx="7262.1" cy="507.8" r="0.2"/>
	<circle cx="7259.1" cy="516.5" r="0.2"/>
	<circle cx="7264.2" cy="517.8" r="0.2"/>
	<circle cx="7269.9" cy="516.5" r="0.3"/>
	<circle cx="7256.9" cy="514.2" r="0.3"/>
	<circle cx="7259.5" cy="518.7" r="0.3"/>
	<circle cx="7268" cy="516.4" r="0.3"/>
	<circle cx="7264.8" cy="517" r="0.1"/>
	<circle cx="7255.2" cy="514.9" r="0.2"/>
	<circle cx="7257.8" cy="512.9" r="0.2"/>
	<circle cx="7264" cy="521.3" r="0.1"/>
	<circle cx="7260.3" cy="516.1" r="0.2"/>
	<circle cx="7261.5" cy="514.7" r="0.2"/>
	<circle cx="7255.9" cy="517.6" r="0.2"/>
	<circle cx="7259.5" cy="513.2" r="0.3"/>
	<circle cx="7261.9" cy="513" r="0.3"/>
	<path d="M7265.4,511.5c0.2,0,0.3,0.1,0.3,0.3s-0.1,0.3-0.3,0.3s-0.3-0.1-0.3-0.3S7265.3,511.5,7265.4,511.5z"/>
	<circle cx="7267.7" cy="519.3" r="0.3"/>
	<circle cx="7270.3" cy="518.8" r="0.4"/>
	<circle cx="7258.8" cy="509.3" r="0.4"/>
	<circle cx="7261.4" cy="510.5" r="0.1"/>
	<circle cx="7264.3" cy="514.6" r="0.2"/>
	<path d="M7266.8,518l0.2-0.6l0.4,0.4L7266.8,518z"/>
</g>
<g class="st0">
	<g>
		<g>
			<path d="M7347.4,561.6l0.1-0.1c1.7-1.6,2.6-3.8,2.7-6.1l0.1-2.9l1,0l2.2-2.1l-1.4-1.5l-0.7-0.7l-1.4-1.5l-2.2,2.1l0,1l-2.9-0.1
				c-2.3-0.1-4.6,0.8-6.2,2.4l-0.1,0.1c-1.2,1.1-2.2,2.5-2.7,4.1c-0.1,0.2-0.2,0.4-0.4,0.6l-0.7,0.6c-0.2,0.2-0.4,0.3-0.6,0.3
				c-1.6,0.4-3,1.3-4.2,2.5l-7.9,7.5c-1,0.9-1.5,2.2-1.6,3.6l0,0c0,0.1,0,0.2,0.1,0.3l2.9,3.1l0.7,0.7l2.9,3.1
				c0.1,0.1,0.2,0.1,0.3,0.1l0,0c1.4,0,2.7-0.5,3.7-1.4l7.9-7.5c1.2-1.1,2.2-2.5,2.7-4.1c0.1-0.2,0.2-0.4,0.4-0.6l0.7-0.6
				c0.2-0.2,0.4-0.3,0.6-0.3C7344.8,563.7,7346.2,562.8,7347.4,561.6z"/>
			<polygon points="7353.4,550.5 7352,549 7351.3,548.3 7349.9,546.8 7347.8,548.8 7351.3,552.5 			"/>
		</g>
		<circle cx="7328.9" cy="573.8" r="0.3"/>
		<circle cx="7341.6" cy="557.1" r="0.1"/>
		<circle cx="7332.5" cy="563.6" r="0.2"/>
		<circle cx="7339.1" cy="559.8" r="0.2"/>
		<circle cx="7329.4" cy="568" r="0.2"/>
		<circle cx="7340.2" cy="561.2" r="0.3"/>
		<circle cx="7338.1" cy="566.3" r="0.3"/>
		<circle cx="7331.4" cy="561" r="0.3"/>
		<circle cx="7337.3" cy="559.4" r="0.3"/>
		<circle cx="7327.8" cy="573.7" r="0.4"/>
		<circle cx="7332.7" cy="561.8" r="0.4"/>
		<circle cx="7327.4" cy="567" r="0.1"/>
		<circle cx="7343.4" cy="562.3" r="0.2"/>
		<circle cx="7338.4" cy="562.9" r="0.2"/>
		<circle cx="7335.9" cy="561.6" r="0.2"/>
		<circle cx="7336" cy="562.5" r="0.3"/>
		<circle cx="7337" cy="566.7" r="0.3"/>
		<circle cx="7335" cy="565.9" r="0.3"/>
		<circle cx="7335.6" cy="568.3" r="0.3"/>
		<circle cx="7324.3" cy="570.1" r="0.4"/>
		<circle cx="7328.8" cy="576.7" r="0.4"/>
		<circle cx="7333.9" cy="567.1" r="0.1"/>
		<circle cx="7331" cy="570.4" r="0.2"/>
		<circle cx="7333.4" cy="570.8" r="0.2"/>
		<circle cx="7336.9" cy="559.6" r="0.2"/>
		<circle cx="7341.6" cy="561.7" r="0.3"/>
		<circle cx="7334.6" cy="564.5" r="0.3"/>
		<circle cx="7335.7" cy="567.2" r="0.3"/>
		<circle cx="7326.3" cy="568.8" r="0.3"/>
		<circle cx="7332.1" cy="563.8" r="0.4"/>
		<circle cx="7331.5" cy="565.6" r="0.4"/>
		<circle cx="7327.8" cy="570.2" r="0.1"/>
		<circle cx="7329.4" cy="566.3" r="0.2"/>
		<circle cx="7325.6" cy="571.2" r="0.2"/>
		<circle cx="7341.5" cy="558.5" r="0.2"/>
		<circle cx="7334.9" cy="560.3" r="0.3"/>
		<circle cx="7329.3" cy="565.9" r="0.3"/>
		<circle cx="7339.4" cy="565.3" r="0.3"/>
		<circle cx="7324.6" cy="572.5" r="0.3"/>
		<circle cx="7334.4" cy="570.8" r="0.4"/>
		<circle cx="7337.3" cy="561.3" r="0.4"/>
		<circle cx="7334.1" cy="558.8" r="0.1"/>
		<circle cx="7332.4" cy="566.8" r="0.2"/>
		<circle cx="7330.2" cy="564" r="0.2"/>
		<circle cx="7333.1" cy="560.1" r="0.2"/>
		<circle cx="7327.8" cy="568.7" r="0.3"/>
		<circle cx="7330.6" cy="574" r="0.3"/>
		<circle cx="7327.2" cy="575.1" r="0.3"/>
		<circle cx="7331" cy="562.4" r="0.3"/>
		<circle cx="7338.6" cy="557.5" r="0.4"/>
		<circle cx="7331.1" cy="572.3" r="0.4"/>
		<circle cx="7333.1" cy="573.9" r="0.1"/>
		<circle cx="7337.4" cy="565.4" r="0.2"/>
		<circle cx="7325.1" cy="567" r="0.2"/>
		<circle cx="7332.8" cy="565.2" r="0.2"/>
		<circle cx="7344.1" cy="559" r="0.3"/>
		<circle cx="7339.4" cy="561.4" r="0.3"/>
		<circle cx="7337.1" cy="563.3" r="0.3"/>
		<circle cx="7325.6" cy="575" r="0.3"/>
		<circle cx="7329.1" cy="570.7" r="0.4"/>
		<circle cx="7329.4" cy="565.5" r="0.4"/>
		<circle cx="7326" cy="570.1" r="0.1"/>
		<path d="M7328.4,573.5l0.4,0.5l-0.6,0.1L7328.4,573.5z"/>
		<path d="M7335.7,565.9l0.5,0.6l-0.7,0.2L7335.7,565.9z"/>
		<path d="M7326.2,567.6l0.8-0.3l-0.1,0.8L7326.2,567.6z"/>
		<path d="M7339,563l0.7,0.7l-0.9,0.3L7339,563z"/>
		<path d="M7330.8,567.5l1.1-0.1l-0.4,0.9L7330.8,567.5z"/>
		<circle cx="7339.6" cy="556.6" r="0.1"/>
		<circle cx="7335.7" cy="569.7" r="0.2"/>
		<circle cx="7338.9" cy="566.2" r="0.2"/>
		<circle cx="7338.1" cy="556.3" r="0.2"/>
		<circle cx="7337.1" cy="566.1" r="0.3"/>
		<circle cx="7330.2" cy="571.1" r="0.3"/>
		<circle cx="7324.3" cy="569.1" r="0.3"/>
		<circle cx="7332.5" cy="573" r="0.3"/>
		<circle cx="7335.5" cy="559.4" r="0.4"/>
		<circle cx="7340.9" cy="564.4" r="0.4"/>
		<circle cx="7333.6" cy="561.3" r="0.1"/>
		<circle cx="7322.8" cy="569.5" r="0.2"/>
		<circle cx="7337.3" cy="558" r="0.2"/>
		<circle cx="7329.2" cy="569.4" r="0.2"/>
		<circle cx="7341.5" cy="560.5" r="0.3"/>
		<circle cx="7337.7" cy="564.7" r="0.3"/>
		<circle cx="7323.5" cy="572.8" r="0.3"/>
		<circle cx="7327.6" cy="568.9" r="0.3"/>
		<circle cx="7327.4" cy="576.4" r="0.4"/>
		<circle cx="7332.3" cy="570.5" r="0.4"/>
		<circle cx="7342.5" cy="561.8" r="0.1"/>
		<circle cx="7326.5" cy="565.6" r="0.2"/>
		<circle cx="7325.3" cy="574.1" r="0.2"/>
		<circle cx="7338.3" cy="560.3" r="0.2"/>
		<circle cx="7331.8" cy="574.7" r="0.3"/>
		<circle cx="7335.9" cy="564.6" r="0.3"/>
		<circle cx="7327.8" cy="572.2" r="0.3"/>
		<circle cx="7343.2" cy="557.8" r="0.3"/>
		<circle cx="7345.7" cy="558.2" r="0.4"/>
		<circle cx="7345.1" cy="561.1" r="0.4"/>
		<circle cx="7334.4" cy="572.6" r="0.1"/>
		<circle cx="7336.9" cy="556.8" r="0.2"/>
		<circle cx="7329.8" cy="565.6" r="0.2"/>
		<circle cx="7339.3" cy="563.5" r="0.2"/>
		<circle cx="7325.9" cy="568.7" r="0.3"/>
		<circle cx="7340" cy="558.7" r="0.3"/>
		<circle cx="7338.4" cy="568.3" r="0.3"/>
		<circle cx="7330.5" cy="572.6" r="0.3"/>
		<circle cx="7334.1" cy="570.4" r="0.4"/>
		<circle cx="7346.6" cy="559.8" r="0.4"/>
		<circle cx="7334.1" cy="566.3" r="0.1"/>
		<circle cx="7330" cy="567.9" r="0.2"/>
		<circle cx="7343.5" cy="560.8" r="0.2"/>
		<circle cx="7327.6" cy="566.4" r="0.2"/>
		<circle cx="7327" cy="570.6" r="0.3"/>
		<circle cx="7331.5" cy="566.6" r="0.3"/>
		<circle cx="7323.5" cy="571.2" r="0.3"/>
		<circle cx="7342.7" cy="559.5" r="0.4"/>
		<circle cx="7331.3" cy="568.8" r="0.4"/>
		<circle cx="7337" cy="569" r="0.1"/>
		<circle cx="7335.7" cy="570.9" r="0.2"/>
		<circle cx="7337" cy="567.9" r="0.2"/>
		<circle cx="7335" cy="563.2" r="0.2"/>
		<circle cx="7345" cy="557.5" r="0.3"/>
		<circle cx="7334.1" cy="564.7" r="0.3"/>
		<circle cx="7329.2" cy="564" r="0.3"/>
		<circle cx="7333.4" cy="568.8" r="0.3"/>
		<circle cx="7326.5" cy="572.3" r="0.4"/>
		<circle cx="7334.6" cy="568.4" r="0.4"/>
		<circle cx="7345" cy="559.6" r="0.1"/>
		<circle cx="7327.8" cy="564.6" r="0.2"/>
		<circle cx="7333.6" cy="563.7" r="0.1"/>
		<circle cx="7334.5" cy="562.2" r="0.1"/>
		<circle cx="7334.8" cy="560.3" r="0.1"/>
		<circle cx="7334.7" cy="560.4" r="0.2"/>
		<circle cx="7334.8" cy="560.4" r="0.2"/>
		<g>
			<path d="M7334.6,560.2l1.3,0.4l-0.9,0.8L7334.6,560.2z"/>
			<circle cx="7335" cy="560.6" r="0.1"/>
			<circle cx="7335" cy="560.6" r="0.2"/>
			<circle cx="7335" cy="560.6" r="0.2"/>
			<circle cx="7335" cy="560.6" r="0.1"/>
		</g>
	</g>
</g>
<g class="st0">
	<g>
		<g>
			<path d="M7044.9,585.3l0.1-0.1c1.9-1.3,3.2-3.4,3.5-5.7l0.5-2.8l1,0.2l2.4-1.7l-1.2-1.7l-0.6-0.8l-1.2-1.7l-2.4,1.7l-0.2,1
				l-2.8-0.5c-2.3-0.4-4.6,0.2-6.5,1.5l-0.1,0.1c-1.3,1-2.5,2.2-3.2,3.7c-0.1,0.2-0.2,0.4-0.4,0.5l-0.8,0.5
				c-0.2,0.1-0.4,0.2-0.6,0.2c-1.6,0.2-3.2,0.9-4.5,1.8l-8.9,6.4c-1.1,0.8-1.9,2-2.1,3.3l0,0c0,0.1,0,0.2,0.1,0.3l2.5,3.4l0.6,0.8
				l2.5,3.4c0,0.1,0.1,0.1,0.2,0.2l0,0c1.3,0.2,2.7-0.1,3.8-0.9l8.9-6.4c1.3-1,2.5-2.2,3.2-3.7c0.1-0.2,0.2-0.4,0.4-0.5l0.8-0.5
				c0.2-0.1,0.4-0.2,0.6-0.2C7042,587,7043.6,586.3,7044.9,585.3z"/>
			<polygon points="7052.5,575.1 7051.3,573.5 7050.7,572.6 7049.5,571 7047.1,572.7 7050.1,576.8 			"/>
		</g>
		<circle cx="7019.1" cy="591.9" r="0.1"/>
		<circle cx="7024.6" cy="593.2" r="0.2"/>
		<circle cx="7020.5" cy="589.3" r="0.2"/>
		<circle cx="7026.2" cy="593" r="0.2"/>
		<circle cx="7043.3" cy="580" r="0.3"/>
		<circle cx="7031.8" cy="588.8" r="0.3"/>
		<circle cx="7037.1" cy="584.3" r="0.3"/>
		<circle cx="7034.3" cy="587.4" r="0.3"/>
		<circle cx="7027.3" cy="593.9" r="0.4"/>
		<circle cx="7019.8" cy="590" r="0.4"/>
		<circle cx="7036.4" cy="586.5" r="0.1"/>
		<circle cx="7029.1" cy="594.6" r="0.2"/>
		<circle cx="7027.7" cy="588.8" r="0.2"/>
		<circle cx="7027" cy="586" r="0.2"/>
		<circle cx="7025.6" cy="593.3" r="0.3"/>
		<circle cx="7032.4" cy="591.2" r="0.3"/>
		<circle cx="7033.3" cy="583.9" r="0.3"/>
		<circle cx="7031.6" cy="591.6" r="0.3"/>
		<circle cx="7037.8" cy="585.9" r="0.4"/>
		<circle cx="7029.9" cy="587.7" r="0.4"/>
		<circle cx="7030.9" cy="581.2" r="0.1"/>
		<circle cx="7032" cy="589.4" r="0.2"/>
		<circle cx="7021.8" cy="588" r="0.2"/>
		<circle cx="7028.4" cy="583.3" r="0.2"/>
		<circle cx="7027.3" cy="590" r="0.3"/>
		<circle cx="7029.4" cy="582.5" r="0.3"/>
		<circle cx="7033.3" cy="582.1" r="0.3"/>
		<circle cx="7030.7" cy="585.2" r="0.3"/>
		<circle cx="7023.2" cy="597.1" r="0.4"/>
		<circle cx="7036.4" cy="586.8" r="0.4"/>
		<circle cx="7032.8" cy="584.9" r="0.1"/>
		<circle cx="7025.6" cy="586.7" r="0.2"/>
		<circle cx="7024.5" cy="593.7" r="0.2"/>
		<circle cx="7027" cy="592.1" r="0.2"/>
		<circle cx="7034.3" cy="582.6" r="0.3"/>
		<circle cx="7027.8" cy="585.6" r="0.3"/>
		<circle cx="7021.9" cy="592.7" r="0.3"/>
		<circle cx="7029.5" cy="591.7" r="0.3"/>
		<circle cx="7028" cy="590.4" r="0.4"/>
		<circle cx="7034.9" cy="585.8" r="0.4"/>
		<circle cx="7035.1" cy="579.7" r="0.1"/>
		<circle cx="7032.9" cy="583.3" r="0.2"/>
		<circle cx="7030.3" cy="586.6" r="0.2"/>
		<circle cx="7032" cy="583.2" r="0.2"/>
		<circle cx="7035.4" cy="581.7" r="0.3"/>
		<circle cx="7035.8" cy="583.8" r="0.3"/>
		<circle cx="7029.3" cy="591.2" r="0.3"/>
		<circle cx="7034" cy="587.5" r="0.3"/>
		<circle cx="7021.8" cy="591.6" r="0.4"/>
		<circle cx="7041.9" cy="583.2" r="0.4"/>
		<circle cx="7025.1" cy="585.2" r="0.1"/>
		<circle cx="7023.7" cy="590.1" r="0.2"/>
		<circle cx="7036.7" cy="584" r="0.2"/>
		<circle cx="7025.4" cy="586.7" r="0.2"/>
		<circle cx="7024.1" cy="592.3" r="0.3"/>
		<circle cx="7023.1" cy="596.2" r="0.3"/>
		<circle cx="7036.1" cy="588.2" r="0.3"/>
		<circle cx="7030.3" cy="589.6" r="0.3"/>
		<circle cx="7034" cy="591.1" r="0.4"/>
		<circle cx="7040.3" cy="579.7" r="0.4"/>
		<circle cx="7022.9" cy="589.5" r="0.1"/>
		<circle cx="7023.9" cy="594.3" r="0.2"/>
		<circle cx="7041.2" cy="585.1" r="0.2"/>
		<circle cx="7033.2" cy="580.8" r="0.2"/>
		<circle cx="7041.6" cy="581.4" r="0.3"/>
		<circle cx="7028.8" cy="589.1" r="0.3"/>
		<circle cx="7023.6" cy="590.9" r="0.3"/>
		<circle cx="7027.2" cy="591.9" r="0.3"/>
		<circle cx="7024.6" cy="591.5" r="0.4"/>
		<circle cx="7031.4" cy="582.4" r="0.4"/>
		<circle cx="7029.2" cy="584.8" r="0.1"/>
		<path d="M7023,593.9l0.6,0.3l-0.5,0.3L7023,593.9z"/>
		<path d="M7024.9,589.1l0.4,0.7l-0.7,0L7024.9,589.1z"/>
		<path d="M7029,592.3l0.9,0.2l-0.5,0.6L7029,592.3z"/>
		<path d="M7035.3,583.3l0.5,0.9l-0.9,0L7035.3,583.3z"/>
		<path d="M7032.6,586.7l1.1-0.2l-0.3,1L7032.6,586.7z"/>
		<circle cx="7026" cy="591.1" r="0.1"/>
		<circle cx="7025.9" cy="591.5" r="0.2"/>
		<circle cx="7023.3" cy="588.1" r="0.2"/>
		<circle cx="7027.1" cy="587.4" r="0.2"/>
		<circle cx="7023" cy="586.8" r="0.3"/>
		<circle cx="7027.6" cy="593.1" r="0.3"/>
		<circle cx="7029.8" cy="582.5" r="0.3"/>
		<circle cx="7020" cy="593.6" r="0.3"/>
		<circle cx="7031.7" cy="592.8" r="0.4"/>
		<circle cx="7033.3" cy="588.8" r="0.4"/>
		<circle cx="7042.9" cy="584.5" r="0.1"/>
		<circle cx="7026.8" cy="591.1" r="0.2"/>
		<circle cx="7031.3" cy="584" r="0.2"/>
		<circle cx="7026.7" cy="584.3" r="0.2"/>
		<circle cx="7027.1" cy="587.1" r="0.3"/>
		<circle cx="7028.6" cy="585.5" r="0.3"/>
		<circle cx="7022" cy="595.6" r="0.3"/>
		<circle cx="7023.9" cy="596.8" r="0.3"/>
		<circle cx="7032.5" cy="585.4" r="0.4"/>
		<circle cx="7043.8" cy="582" r="0.4"/>
		<circle cx="7033.6" cy="588.1" r="0.1"/>
		<circle cx="7028.4" cy="582.9" r="0.2"/>
		<circle cx="7032" cy="587.3" r="0.2"/>
		<circle cx="7021.5" cy="589.1" r="0.2"/>
		<circle cx="7034.7" cy="582.7" r="0.3"/>
		<circle cx="7039.6" cy="585.3" r="0.3"/>
		<circle cx="7026.2" cy="596.7" r="0.3"/>
		<circle cx="7036.1" cy="580.4" r="0.3"/>
		<circle cx="7045.8" cy="579.9" r="0.4"/>
		<circle cx="7028" cy="588.8" r="0.4"/>
		<circle cx="7031.6" cy="581" r="0.1"/>
		<circle cx="7033.9" cy="586" r="0.2"/>
		<circle cx="7041.5" cy="578.3" r="0.2"/>
		<circle cx="7021.8" cy="593.3" r="0.2"/>
		<circle cx="7031.3" cy="586.5" r="0.3"/>
		<circle cx="7034.9" cy="589.3" r="0.3"/>
		<circle cx="7026.9" cy="590.1" r="0.3"/>
		<circle cx="7030.7" cy="590.7" r="0.3"/>
		<circle cx="7025" cy="593.1" r="0.4"/>
		<circle cx="7039.9" cy="583.3" r="0.4"/>
		<circle cx="7033.8" cy="581" r="0.1"/>
		<circle cx="7036.9" cy="581.5" r="0.2"/>
		<circle cx="7029.2" cy="585.7" r="0.2"/>
		<circle cx="7036.2" cy="584" r="0.2"/>
		<circle cx="7034" cy="580.6" r="0.3"/>
		<circle cx="7039.6" cy="581.3" r="0.3"/>
		<circle cx="7020.9" cy="591" r="0.3"/>
		<circle cx="7024.6" cy="588.5" r="0.3"/>
		<circle cx="7038" cy="580.7" r="0.4"/>
		<circle cx="7020.6" cy="592.1" r="0.4"/>
		<circle cx="7024.9" cy="596.2" r="0.1"/>
		<circle cx="7026.9" cy="585.4" r="0.2"/>
		<circle cx="7029.1" cy="592.2" r="0.2"/>
		<circle cx="7029.8" cy="583.8" r="0.2"/>
		<circle cx="7034" cy="582.9" r="0.3"/>
		<circle cx="7033" cy="587" r="0.3"/>
		<circle cx="7024.9" cy="597.8" r="0.3"/>
		<circle cx="7028.3" cy="591.5" r="0.3"/>
		<circle cx="7019.3" cy="591.3" r="0.4"/>
		<circle cx="7025.8" cy="589.2" r="0.4"/>
		<circle cx="7024.1" cy="587.1" r="0.1"/>
		<circle cx="7038.2" cy="582.3" r="0.2"/>
		<circle cx="7037.6" cy="583.4" r="0.2"/>
		<circle cx="7027.3" cy="591.1" r="0.2"/>
		<circle cx="7025.3" cy="595.1" r="0.3"/>
		<circle cx="7025.2" cy="594.5" r="0.3"/>
		<circle cx="7029.5" cy="593.4" r="0.3"/>
		<circle cx="7020.3" cy="593.8" r="0.3"/>
		<circle cx="7027.6" cy="595.3" r="0.4"/>
		<circle cx="7022.4" cy="592" r="0.4"/>
		<circle cx="7037" cy="586.7" r="0.1"/>
		<circle cx="7021.8" cy="590.5" r="0.2"/>
		<circle cx="7028.8" cy="587.3" r="0.1"/>
		<circle cx="7028.4" cy="588.1" r="0.2"/>
		<circle cx="7031.7" cy="588" r="0.1"/>
		<circle cx="7038.1" cy="584.3" r="0.2"/>
		<circle cx="7038" cy="579.6" r="0.2"/>
		<circle cx="7036.6" cy="582.5" r="0.2"/>
	</g>
</g>
<g class="st0">
	<path d="M7904,557.7l0.1,0c1.6-0.7,2.8-2,3.4-3.7l0.8-2l0.7,0.3l2-0.9l-0.6-1.4l-0.3-0.7l-0.6-1.4l-2,0.9l-0.3,0.7l-2-0.8
		c-1.6-0.6-3.4-0.5-5,0.2l-0.1,0c-1.1,0.5-2.2,1.2-2.9,2.2c-0.1,0.1-0.2,0.3-0.4,0.3l-0.6,0.3c-0.2,0.1-0.3,0.1-0.5,0.1
		c-1.2-0.1-2.5,0.2-3.6,0.7l-7.5,3.4c-0.9,0.4-1.6,1.2-2,2.1l0,0c0,0.1,0,0.1,0,0.2l1.3,2.9l0.3,0.7l1.3,2.9c0,0.1,0.1,0.1,0.1,0.1
		l0,0c1,0.4,2,0.3,2.9-0.1l7.4-3.4c1.1-0.5,2.2-1.2,2.9-2.2c0.1-0.1,0.2-0.3,0.4-0.3l0.6-0.3c0.2-0.1,0.3-0.1,0.5-0.1
		C7901.7,558.5,7902.9,558.2,7904,557.7z"/>
	<polygon points="7911,551.3 7910.4,549.9 7910.1,549.2 7909.5,547.8 7907.5,548.7 7909.1,552.2 	"/>
</g>
<g class="st0">
	<path d="M7201.1,558.5l0.2,0c2.1-0.1,4.2-1.1,5.6-2.7l1.8-2l0.7,0.6l2.8-0.1l-0.1-1.9l0-0.9l-0.1-1.9l-2.8,0.1l-0.6,0.7l-2-1.8
		c-1.6-1.4-3.7-2.2-5.8-2.1l-0.1,0c-1.5,0.1-3.1,0.4-4.3,1.3c-0.2,0.1-0.4,0.2-0.6,0.2l-0.9,0c-0.2,0-0.4,0-0.6-0.1
		c-1.4-0.7-2.9-0.9-4.4-0.8l-10.1,0.5c-1.3,0.1-2.4,0.6-3.3,1.6l0,0c-0.1,0.1-0.1,0.2-0.1,0.2l0.2,3.9l0,0.9l0.2,3.9
		c0,0.1,0,0.2,0.1,0.2l0,0c0.9,0.8,2.2,1.3,3.4,1.2l10.1-0.5c1.5-0.1,3.1-0.4,4.3-1.3c0.2-0.1,0.4-0.2,0.6-0.2l0.9,0
		c0.2,0,0.4,0,0.6,0.1C7198,558.4,7199.5,558.5,7201.1,558.5z"/>
	<polygon points="7212,554.3 7211.9,552.4 7211.9,551.5 7211.8,549.5 7209.1,549.7 7209.3,554.4 	"/>
</g>
<g class="st0">
	<path d="M7466.1,541.1l0.1-0.2c1.2-2,1.6-4.3,1.1-6.6l-0.7-2.8l1-0.2l1.6-2.5l-1.8-1.1l-0.9-0.5l-1.8-1.1l-1.6,2.5l0.2,1l-2.8,0.7
		c-2.3,0.5-4.2,1.9-5.5,3.9l-0.1,0.1c-0.9,1.4-1.5,3-1.6,4.6c0,0.2-0.1,0.5-0.2,0.7l-0.5,0.8c-0.1,0.2-0.3,0.4-0.5,0.5
		c-1.5,0.8-2.6,2-3.5,3.4l-5.8,9.3c-0.7,1.2-1,2.5-0.6,3.9l0,0c0,0.1,0.1,0.2,0.2,0.2l3.6,2.2l0.9,0.5l3.6,2.2c0.1,0,0.2,0.1,0.3,0
		l0,0c1.3-0.3,2.5-1.1,3.2-2.3l5.8-9.3c0.9-1.4,1.5-3,1.6-4.6c0-0.2,0.1-0.5,0.2-0.7l0.5-0.8c0.1-0.2,0.3-0.4,0.5-0.5
		C7464.1,543.8,7465.2,542.5,7466.1,541.1z"/>
	<polygon points="7469.1,528.8 7467.4,527.7 7466.5,527.2 7464.8,526.1 7463.2,528.6 7467.6,531.3 	"/>
</g>
<g class="st0">
	<path d="M8049.2,582.7l0.1,0c1.7-0.6,3-1.8,3.8-3.4l0.9-2l0.7,0.3l2.1-0.8l-0.5-1.5l-0.3-0.7l-0.5-1.5l-2.1,0.8l-0.3,0.7l-2-0.9
		c-1.6-0.8-3.4-0.8-5.1-0.2l-0.1,0c-1.2,0.4-2.3,1.1-3.1,2c-0.1,0.1-0.3,0.2-0.4,0.3l-0.7,0.2c-0.2,0.1-0.4,0.1-0.5,0
		c-1.2-0.2-2.5,0-3.7,0.4l-7.8,2.8c-1,0.3-1.8,1.1-2.2,2l0,0c0,0.1,0,0.1,0,0.2l1.1,3l0.3,0.7l1.1,3c0,0.1,0.1,0.1,0.1,0.2l0,0
		c0.9,0.4,2,0.5,3,0.1l7.8-2.8c1.2-0.4,2.3-1.1,3.1-2c0.1-0.1,0.3-0.2,0.4-0.3l0.7-0.2c0.2-0.1,0.4-0.1,0.5,0
		C8046.8,583.3,8048.1,583.1,8049.2,582.7z"/>
	<polygon points="8056.9,576.8 8056.3,575.3 8056.1,574.6 8055.5,573.1 8053.5,573.9 8054.8,577.5 	"/>
</g>
<g class="st0">
	<path d="M7664.5,462.8l0.2-0.1c2.4-1.8,3.9-4.4,4.3-7.3l0.5-3.6l1.2,0.2l3-2.3l-1.6-2.1l-0.8-1l-1.6-2.1l-3,2.3l-0.2,1.2l-3.6-0.5
		c-2.9-0.4-5.9,0.4-8.2,2.1l-0.2,0.1c-1.7,1.3-3.1,2.8-4,4.8c-0.1,0.3-0.3,0.5-0.5,0.7l-0.9,0.7c-0.2,0.2-0.5,0.3-0.8,0.3
		c-2.1,0.2-4,1.2-5.7,2.5l-11.1,8.3c-1.4,1-2.3,2.6-2.5,4.3l0,0c0,0.1,0,0.2,0.1,0.3l3.2,4.3l0.8,1l3.2,4.3c0.1,0.1,0.2,0.2,0.3,0.2
		l0,0c1.7,0.2,3.4-0.2,4.8-1.2l11.1-8.3c1.7-1.3,3.1-2.8,4-4.8c0.1-0.3,0.3-0.5,0.5-0.7l0.9-0.7c0.2-0.2,0.5-0.3,0.8-0.3
		C7660.9,465.1,7662.8,464.1,7664.5,462.8z"/>
	<polygon points="7673.7,449.7 7672.1,447.6 7671.4,446.6 7669.8,444.5 7666.9,446.7 7670.8,451.9 	"/>
</g>
<g class="st0">
	<path d="M7842.8,484.4l0.1-0.1c1.4-1,2.4-2.5,2.7-4.2l0.4-2.1l0.7,0.1l1.9-1.3l-0.9-1.3l-0.4-0.6l-0.9-1.3l-1.9,1.3l-0.1,0.7
		l-2.1-0.4c-1.7-0.3-3.5,0.1-4.9,1l-0.1,0.1c-1,0.7-1.9,1.6-2.5,2.7c-0.1,0.1-0.2,0.3-0.3,0.4l-0.6,0.4c-0.1,0.1-0.3,0.2-0.5,0.2
		c-1.2,0.1-2.4,0.6-3.4,1.3l-6.8,4.6c-0.8,0.6-1.4,1.5-1.6,2.5l0,0c0,0.1,0,0.1,0,0.2l1.8,2.6l0.4,0.6l1.8,2.6
		c0,0.1,0.1,0.1,0.2,0.1l0,0c1,0.2,2,0,2.9-0.6l6.8-4.6c1-0.7,1.9-1.6,2.5-2.7c0.1-0.1,0.2-0.3,0.3-0.4l0.6-0.4
		c0.1-0.1,0.3-0.2,0.5-0.2C7840.7,485.7,7841.8,485.1,7842.8,484.4z"/>
	<polygon points="7848.6,476.9 7847.8,475.6 7847.3,475 7846.5,473.7 7844.7,475 7846.8,478.1 	"/>
</g>
<g class="st0">
	<path d="M7974,446.7l-0.1-0.1c-1.6-1.1-3.6-1.5-5.5-1.1l-2.4,0.5l-0.1-0.8l-2.1-1.4l-1,1.4l-0.5,0.7l-1,1.4l2.1,1.4l0.8-0.1
		l0.5,2.4c0.4,1.9,1.5,3.6,3.1,4.7l0.1,0.1c1.1,0.8,2.4,1.4,3.8,1.5c0.2,0,0.4,0.1,0.5,0.2l0.6,0.4c0.2,0.1,0.3,0.3,0.4,0.4
		c0.6,1.2,1.6,2.2,2.7,3l7.5,5.1c0.9,0.6,2.1,0.9,3.2,0.7l0,0c0.1,0,0.1-0.1,0.2-0.1l2-2.9l0.5-0.7l2-2.9c0-0.1,0.1-0.1,0-0.2l0,0
		c-0.2-1.1-0.9-2.1-1.8-2.7l-7.5-5.1c-1.1-0.8-2.4-1.4-3.8-1.5c-0.2,0-0.4-0.1-0.5-0.2l-0.6-0.4c-0.2-0.1-0.3-0.3-0.4-0.4
		C7976.2,448.5,7975.2,447.5,7974,446.7z"/>
	<polygon points="7963.9,443.7 7962.9,445.1 7962.5,445.8 7961.5,447.3 7963.5,448.6 7965.9,445.1 	"/>
</g>
<g class="st0">
	<path d="M7921.6,533l0.1,0.1c1.6,0.8,3.4,0.9,5,0.3l2-0.7l0.2,0.7l2,1l0.7-1.4l0.3-0.7l0.7-1.4l-2-1l-0.7,0.2l-0.7-2
		c-0.6-1.6-1.8-3-3.3-3.8l-0.1,0c-1.1-0.5-2.3-0.9-3.6-0.8c-0.2,0-0.3,0-0.5-0.1l-0.6-0.3c-0.2-0.1-0.3-0.2-0.4-0.3
		c-0.7-1-1.7-1.8-2.8-2.3l-7.4-3.6c-0.9-0.4-2-0.5-2.9-0.2l0,0c-0.1,0-0.1,0.1-0.2,0.1l-1.4,2.8l-0.3,0.7l-1.4,2.8
		c0,0.1,0,0.1,0,0.2l0,0c0.3,1,1,1.8,1.9,2.2l7.3,3.6c1.1,0.5,2.3,0.9,3.6,0.8c0.2,0,0.3,0,0.5,0.1l0.6,0.3c0.2,0.1,0.3,0.2,0.4,0.3
		C7919.5,531.7,7920.5,532.4,7921.6,533z"/>
	<polygon points="7931,534.3 7931.7,532.9 7932,532.2 7932.7,530.8 7930.8,529.9 7929.1,533.3 	"/>
</g>
<g class="st0">
	<path d="M8239,544.6l0.1,0c1.8,0.4,3.8,0,5.3-1l2-1.3l0.4,0.7l2.4,0.5l0.3-1.7l0.2-0.8l0.3-1.7l-2.4-0.5l-0.7,0.4l-1.3-2
		c-1-1.6-2.7-2.7-4.5-3.1l-0.1,0c-1.3-0.3-2.7-0.3-4,0.1c-0.2,0.1-0.4,0.1-0.5,0l-0.7-0.2c-0.2,0-0.4-0.1-0.5-0.3
		c-1-0.9-2.3-1.4-3.6-1.7l-8.7-1.8c-1.1-0.2-2.2,0-3.1,0.6l0,0c-0.1,0-0.1,0.1-0.1,0.2l-0.7,3.4l-0.2,0.8l-0.7,3.4
		c0,0.1,0,0.2,0,0.2l0,0c0.6,0.9,1.5,1.6,2.6,1.8l8.7,1.8c1.3,0.3,2.7,0.3,4-0.1c0.2-0.1,0.4-0.1,0.5,0l0.7,0.2
		c0.2,0,0.4,0.1,0.5,0.3C8236.4,543.8,8237.7,544.3,8239,544.6z"/>
	<polygon points="8249.3,543.5 8249.6,541.8 8249.8,541 8250.1,539.4 8247.8,538.9 8247,543 	"/>
</g>
<g class="st0">
	<path d="M8179.6,462.2l0.1,0c1.8-0.1,3.4-0.9,4.6-2.2l1.5-1.6l0.5,0.5l2.3-0.1l-0.1-1.6l0-0.8l-0.1-1.6l-2.3,0.1l-0.5,0.5l-1.6-1.5
		c-1.3-1.2-3-1.8-4.8-1.7l-0.1,0c-1.2,0.1-2.5,0.4-3.5,1c-0.1,0.1-0.3,0.1-0.5,0.2l-0.7,0c-0.2,0-0.4,0-0.5-0.1
		c-1.1-0.6-2.4-0.7-3.6-0.7l-8.3,0.4c-1,0-2,0.5-2.7,1.3l0,0c0,0-0.1,0.1-0.1,0.2l0.2,3.2l0,0.8l0.2,3.2c0,0.1,0,0.1,0.1,0.2l0,0
		c0.8,0.7,1.8,1,2.8,1l8.2-0.4c1.3-0.1,2.5-0.4,3.5-1c0.1-0.1,0.3-0.1,0.5-0.2l0.7,0c0.2,0,0.4,0,0.5,0.1
		C8177.1,462.1,8178.4,462.2,8179.6,462.2z"/>
	<polygon points="8188.6,458.7 8188.5,457.2 8188.5,456.4 8188.4,454.9 8186.2,455 8186.4,458.9 	"/>
</g>
<g class="st0">
	<path d="M7381.5,470.3l0.2,0c2.3-0.1,4.4-1.1,5.9-2.8l1.9-2.1l0.7,0.6l2.9-0.1l-0.1-2l0-1l-0.1-2l-2.9,0.1l-0.6,0.7l-2.1-1.9
		c-1.7-1.5-3.9-2.3-6.1-2.2l-0.2,0c-1.6,0.1-3.2,0.5-4.6,1.3c-0.2,0.1-0.4,0.2-0.6,0.2l-0.9,0c-0.2,0-0.5,0-0.6-0.1
		c-1.4-0.7-3.1-0.9-4.7-0.9l-10.6,0.5c-1.3,0.1-2.5,0.7-3.4,1.6l0,0c-0.1,0.1-0.1,0.2-0.1,0.3l0.2,4.1l0,1l0.2,4.1
		c0,0.1,0,0.2,0.1,0.2l0,0c1,0.9,2.3,1.3,3.6,1.3l10.6-0.5c1.6-0.1,3.2-0.5,4.6-1.3c0.2-0.1,0.4-0.2,0.6-0.2l0.9,0
		c0.2,0,0.5,0,0.6,0.1C7378.2,470.1,7379.9,470.4,7381.5,470.3z"/>
	<polygon points="7393,465.9 7392.9,463.9 7392.8,462.9 7392.7,460.9 7389.9,461 7390.1,466 	"/>
</g>
</svg>
