<?xml version="1.0" encoding="UTF-8" standalone="no"?>
<!-- Generator: Adobe Illustrator 23.0.1, SVG Export Plug-In . SVG Version: 6.00 Build 0)  -->

<svg
   version="1.1"
   id="AR_x5F_layer"
   x="0px"
   y="0px"
   width="9693.1px"
   height="623.5px"
   viewBox="0 0 9693.1 623.5"
   style="enable-background:new 0 0 9693.1 623.5;"
   xml:space="preserve"
   sodipodi:docname="-1_water_structure_mask-01-Simplified.svg"
   inkscape:version="1.1.1 (c3084ef, 2021-09-22)"
   xmlns:inkscape="http://www.inkscape.org/namespaces/inkscape"
   xmlns:sodipodi="http://sodipodi.sourceforge.net/DTD/sodipodi-0.dtd"
   xmlns="http://www.w3.org/2000/svg"
   xmlns:svg="http://www.w3.org/2000/svg"><defs
   id="defs853">
	
		

	
		
</defs><sodipodi:namedview
   id="namedview851"
   pagecolor="#505050"
   bordercolor="#eeeeee"
   borderopacity="1"
   inkscape:pageshadow="0"
   inkscape:pageopacity="0"
   inkscape:pagecheckerboard="0"
   showgrid="false"
   inkscape:zoom="0.40761728"
   inkscape:cx="931.02039"
   inkscape:cy="598.60072"
   inkscape:window-width="1312"
   inkscape:window-height="762"
   inkscape:window-x="94"
   inkscape:window-y="25"
   inkscape:window-maximized="0"
   inkscape:current-layer="AR_x5F_layer" />
<style
   type="text/css"
   id="style824">
	.st0{opacity:0.75;}
</style><path
   style="fill:#000000"
   d="m 2868.7155,489.99716 c 0.8432,-1.13233 0.7697,-1.98068 -0.2982,-3.44112 -1.8997,-2.59809 -1.7967,-9.04735 0.1931,-12.08415 0.8857,-1.35176 3.3167,-2.96899 5.4023,-3.59384 3.2127,-0.96255 4.3797,-0.84906 7.6396,0.74293 6.1917,3.02374 7.5718,10.09505 3.1735,16.26067 -1.929,2.70407 -9.2447,4.03491 -12.5262,2.2787 -1.4529,-0.77758 -2.3605,-0.7406 -3.3482,0.13645 -1.1053,0.98155 -1.1488,0.92635 -0.2359,-0.29964 z"
   id="path1027" /><path
   style="fill:#000000"
   d="m 2860.2225,502.4433 c -1.2224,-0.85619 -2.2225,-2.36145 -2.2225,-3.34502 0,-2.29876 3.0908,-5.09828 5.6287,-5.09828 1.0842,0 2.6021,-0.5625 3.3731,-1.25 1.1853,-1.05697 1.2054,-0.98963 0.1306,0.43608 -0.9347,1.23977 -0.9891,2.21322 -0.2054,3.67756 1.2811,2.39371 0.4958,4.8397 -1.9789,6.16414 -2.2987,1.2302 -2.0996,1.25482 -4.7256,-0.58448 z"
   id="path1025" /><path
   style="fill:#000000"
   d="m 2887.5649,504.07166 c -3.2847,-3.62954 1.0761,-9.4045 5.3674,-7.10791 4.2334,2.26566 2.7856,9.03625 -1.9323,9.03625 -0.9295,0 -2.4753,-0.86775 -3.4351,-1.92834 z"
   id="path1023" /><path
   style="fill:#000000"
   d="m 2765.24,510.15395 c -0.3052,-4.01908 1.1457,-6.15395 4.1824,-6.15395 2.7776,0 4.5776,1.8 4.5776,4.57756 0,2.70167 -1.6156,4.04882 -5.5,4.58618 -2.7922,0.38627 -3.018,0.1778 -3.26,-3.00979 z"
   id="path1021" /><path
   style="fill:#000000"
   d="m 2747.7658,536.08203 c -2.7835,-2.48706 -3.2658,-3.59126 -3.2658,-7.47727 0,-3.64958 0.5533,-5.11255 2.7728,-7.33203 2.3396,-2.33947 3.6142,-2.77449 8.1575,-2.78402 3.8611,-0.008 6.0475,-0.56351 7.7272,-1.96288 l 2.3425,-1.95159 -2.1973,2.38245 c -2.1673,2.34979 -2.1717,2.41855 -0.3222,5.01599 2.4449,3.43351 2.9835,9.96159 1.0195,12.35608 -4.3489,5.30203 -11.4091,6.06452 -16.2342,1.75327 z"
   id="path1019" /><path
   style="fill:#000000"
   d="M 2773.5714,539.42857 C 2772.7071,538.56429 2772,537.02143 2772,536 c 0,-1.98538 2.4944,-5 4.1372,-5 2.676,0 4.8628,2.24844 4.8628,5 0,4.39412 -4.4221,6.43507 -7.4286,3.42857 z"
   id="path997" /><path
   class="st0"
   d="M1443.5,555.8c-0.6,0.2-1.1,0.6-1.5,1l-4.7-5.5c0.8-0.8,1.6-1.6,2.2-2.7c1.4-2.5,1.8-5.4,1.1-8.2  c-0.1-0.5-0.3-1-0.5-1.4l8.2-3.4l-0.4-0.9l-8.3,3.4c-1.8-3.5-5.5-5.7-9.5-5.7c-0.9,0-1.9,0.1-2.8,0.4c-2.8,0.7-5.1,2.5-6.6,5  c-1.4,2.5-1.8,5.4-1.1,8.2c1.3,4.7,5.5,8,10.4,8c0.9,0,1.9-0.1,2.8-0.4c1.3-0.3,2.5-1,3.6-1.7l4.8,5.7c-1,1.4-1.3,3.2-0.6,4.8  c1.1,2.5,4,3.8,6.5,2.7s3.8-4,2.7-6.5S1446,554.8,1443.5,555.8z"
   id="path836" /><path
   class="st0"
   d="M1579.3,526.6c-6-0.3-11,4.4-11.2,10.4c-0.1,1.4,0.2,2.7,0.6,4l-6.8,2.9c-1-1.3-2.7-2.1-4.4-2  c-2.8,0.3-4.8,2.7-4.5,5.4c0.3,2.8,2.7,4.8,5.4,4.5c2.8-0.3,4.8-2.7,4.5-5.4c-0.1-0.6-0.2-1.2-0.5-1.7l6.7-2.8  c1.6,3.6,5.2,6.2,9.4,6.3c0.2,0,0.3,0,0.4,0c0.4,0,0.7,0,1.1,0l0.8,8.9l1-0.1l-0.8-8.9c4.8-0.9,8.5-5.1,8.7-10.2  c0.1-2.9-0.9-5.6-2.9-7.8C1584.9,528,1582.2,526.7,1579.3,526.6z"
   id="path838" /><path
   style="fill:#000000;stroke-width:0.47894"
   d="m 126.10352,602.16211 5.91992,8.14062 5.91992,8.14258 0.19336,0.80469 0.19336,0.80469 -0.36719,1.22461 -0.36523,1.22265 -6.65625,-1.95703 -6.65625,-1.95703 -0.56641,-2.23437 -0.56641,-2.23243 -0.59961,-0.7207 -0.59765,-0.72266 1.78515,-4.93359 1.78516,-4.93359 0.28906,-0.32422 z"
   id="path1210" /><path
   style="fill:#000000;stroke-width:0.47894"
   d="m 105.50977,570.63477 1.1875,0.30273 1.1875,0.30078 0.34961,2.04688 0.3496,2.04882 1.00391,1.625 1.00391,1.625 1.41015,1.18555 1.41016,1.1875 1.62109,0.58594 1.62305,0.58594 -1.45117,1.22265 -1.45117,1.22071 -1.125,2.41406 -1.12305,2.41406 -0.002,1.91602 -0.002,1.91601 0.51172,1.8457 0.51367,1.84571 1.82227,1.98633 1.82422,1.98632 -1.32031,3.5918 -1.32032,3.5918 -2.52148,0.31445 -2.52149,0.31445 -1.96875,1.36329 -1.9707,1.36132 -1.57422,3.11329 -1.57617,3.11328 -11.355468,2.24414 -11.353516,2.24609 h -0.958984 l -0.957031,0.002 -0.958985,-0.99023 -0.957031,-0.99023 -1.916016,-0.88672 -1.916015,-0.88672 -2.699219,-0.0117 -2.699219,-0.01 -2.568359,1.34961 -2.568359,1.35156 -2.746094,-1.4707 L 55,618.13672 l -0.0078,-0.92578 -0.0078,-0.92578 -1.007813,-2.08008 -1.005859,-2.08008 -1.748047,-1.30273 -1.746094,-1.30079 -0.351562,-0.48242 -0.351562,-0.48047 -0.0078,-12.01757 -0.0078,-12.01758 1.695313,-1.20703 1.695313,-1.20508 1.189453,-1.61328 1.191406,-1.61524 0.269531,-1.68554 0.269531,-1.6875 h 3.472657 3.472656 l 2.375,-1.47852 2.376953,-1.47656 1.533203,0.72656 1.53125,0.72461 0.01172,1.4707 0.0098,1.46875 0.900391,1.98242 0.898438,1.98047 -0.607422,0.65235 -0.607422,0.65429 -0.541016,1.62891 -0.542969,1.62695 0.01172,1.72461 0.0098,1.72461 0.878906,1.93555 0.878906,1.93555 1.527344,1.28515 1.525391,1.28516 1.77539,0.45312 1.773438,0.45508 3.162109,0.55469 3.160157,0.55273 1.99414,-0.53515 1.994141,-0.53711 1.693359,-1.48828 1.695313,-1.48829 0.74414,-1.43945 0.744141,-1.4414 0.02539,-2.7461 0.02734,-2.74609 -1.269531,-2.16406 -1.267578,-2.16407 0.771484,-1.83984 0.769531,-1.8418 0.002,-2.99219 0.002,-2.99414 h 0.443359 0.441406 l 1.533204,0.80079 1.533203,0.80273 2.873047,-0.002 h 2.873042 l 1.91602,-0.96289 z"
   id="path1208" /><path
   style="fill:#000000;stroke-width:0.47894"
   d="m 230.98438,562.97852 1.67773,1.29687 1.67578,1.29883 1.62695,0.53711 1.62891,0.53906 1.72461,-0.002 h 1.72461 v 4.22461 4.22461 l 1.25976,1.90625 1.26172,1.9082 -0.54297,0.73828 -0.54296,0.74023 -1.71094,0.32032 -1.71094,0.31836 -2.1875,1.38672 -2.18555,1.38671 -0.875,1.48243 -0.875,1.48046 -1.21289,-0.006 -1.21484,-0.006 -1.0625,-1.64063 -1.0625,-1.64258 -2.16602,-1.26953 -2.16601,-1.26953 -2.51953,-0.0762 -2.51758,-0.0762 0.16016,-2.95508 0.1582,-2.95703 -1.0918,-2.3125 -1.0918,-2.3125 -0.18554,-0.35938 -0.1836,-0.35937 h 1.54102 1.54102 l 1.9375,-0.58008 1.93945,-0.58203 1.94726,-1.91016 1.94922,-1.91211 1.67578,-0.77929 z"
   id="path1206" /><path
   style="fill:#000000;stroke-width:0.47894"
   d="m 198.83398,545.94141 0.67383,2.3125 0.67383,2.31054 0.95117,1.21875 0.95117,1.2168 1.75977,1.07617 1.75977,1.07422 0.95703,0.002 h 0.95703 l -0.1582,2.79883 -0.15821,2.79688 0.75195,1.79687 0.75,1.79688 -0.45898,0.85937 -0.46094,0.85742 -1.80859,0.33203 -1.80859,0.33008 -1.91602,1.11524 -1.91602,1.11523 -1.09179,1.48242 v 0.002 l -1.0918,1.48437 -1.78125,-0.0352 -1.78125,-0.0352 -1.41016,-1.69336 -1.41015,-1.69531 -1.10352,-0.50391 -1.10547,-0.50195 v -1.08985 -1.08984 l -0.47851,-1.25977 -0.47852,-1.25976 1.13086,-1.52539 1.13086,-1.52539 0.54492,-1.62696 0.54492,-1.6289 v -0.93945 -0.93946 l 3.44141,-4.31445 z"
   id="path1204" /><path
   style="fill:#000000;stroke-width:0.47894"
   d="m 225.75781,514.03906 0.80274,2.25977 0.80273,2.25976 1.14063,1.07032 1.13867,1.07031 -1.125,2.2207 -1.125,2.22266 0.0117,1.95312 0.01,1.95508 0.88672,1.91602 0.88672,1.91601 1.37891,1.28711 1.37695,1.28516 1.34766,0.50976 1.34765,0.50977 h 1.38086 1.38086 l -0.48047,1.38086 -0.48047,1.37891 0.14649,2.57226 0.14648,2.57031 -1.84765,0.83985 -1.84961,0.83789 -0.0664,-0.0195 -0.0684,-0.0195 -2.07227,-1.52929 -2.07226,-1.53125 -3.45703,-0.17383 -3.45703,-0.17383 -1.84766,0.77149 -1.84766,0.77148 -0.0723,-0.125 -0.0703,-0.12695 -0.90625,-2.08203 -0.90821,-2.08399 -1.46289,-1.11719 -1.46484,-1.11718 -1.31445,-0.5 -1.31641,-0.5 v -2.42188 -2.42187 l -1.1875,-2.34571 -1.1875,-2.3457 -0.46484,-0.28711 -0.46485,-0.28711 1.17383,-1.72851 1.17188,-1.72852 0.51171,-1.90039 0.51172,-1.90234 -0.14062,-1.64844 -0.14258,-1.64844 0.63477,-0.39258 0.63281,-0.39062 2.46875,0.94336 2.46875,0.94336 2.53711,-0.25586 2.53711,-0.25586 2.0332,-1.19336 z"
   id="path1202" /><path
   style="fill:#000000;stroke-width:0.47894"
   d="m 251.73828,510.50195 2.19727,0.83789 2.19922,0.83985 2.86914,-0.25977 2.87109,-0.25976 0.002,1.50976 0.004,1.51172 0.51172,1.8457 0.51367,1.84766 1.91602,2.08008 1.91796,2.08008 2.07618,0.79296 2.07812,0.79297 0.49219,2.94336 0.49219,2.94532 0.32421,2.30664 0.32618,2.30664 -1.20118,1.28515 -1.20117,1.28516 -0.77343,1.5332 -0.77344,1.53321 v 2.73437 2.73633 l 1.20703,2.05859 1.20703,2.06055 0.69531,0.38867 0.69727,0.39063 -0.29102,1.7832 -0.28906,1.78516 -1.01367,0.006 -1.01563,0.008 -1.19726,0.63867 -1.19727,0.64062 -1.58593,-0.94335 -1.58594,-0.94336 -1.75,-0.39454 -1.75,-0.39453 -2.32813,0.5 -2.33008,0.49805 -1.70898,1.50195 -1.71094,1.50196 -0.63867,1.53125 h -0.002 l -0.64063,1.53125 -0.52929,0.32812 -0.53125,0.32617 0.3125,-3.04882 0.3125,-3.04883 -0.6875,-2.23243 -0.6875,-2.23437 1.73632,-1.11914 1.73633,-1.11914 1.07813,-2.13672 1.07812,-2.13672 v -2.26367 -2.26172 l -0.50976,-1.34766 -0.50977,-1.34765 -1.28711,-1.37891 -1.28516,-1.37695 -1.91601,-0.88672 -1.91602,-0.88672 -1.11523,-0.0117 -1.11524,-0.01 0.39454,-1.55664 0.39453,-1.55664 -0.0566,-2.00977 -0.0547,-2.01172 -0.99219,-1.9043 -0.99414,-1.90429 0.76758,-0.63477 0.76953,-0.63476 1.11524,-2.39649 1.11718,-2.39453 0.004,-1.24414 0.006,-1.24414 1.875,-0.8457 z"
   id="path1200" /><path
   style="fill:#000000;stroke-width:0.47894"
   d="m 211.48242,456.43945 10.4707,0.75391 10.46876,0.75195 2.01171,0.25586 2.01172,0.25391 0.3125,0.98633 0.3125,0.98437 1.7461,1.9375 1.74804,1.9375 1.91407,0.87305 1.91601,0.87305 1.74219,0.01 1.74219,0.0117 1.20507,3.23242 1.20508,3.23242 -0.88867,0.96485 -0.88867,0.96484 -0.74219,1.77344 -0.74023,1.77539 v 2.54687 2.54883 l 1.07812,1.97852 1.07617,1.98047 1.37891,1.94921 1.37695,1.94922 -1.9375,1.9375 -1.9375,1.9375 -0.75781,2.22266 -0.75586,2.22461 v 1.50977 1.50976 l -1.09961,0.58789 -1.09961,0.58789 -2.13281,-1.21875 -2.13477,-1.2207 -3.00781,-0.006 -3.00781,-0.006 -1.67383,0.69922 -1.67187,0.69922 -0.70704,-0.27149 -0.70703,-0.27148 v -1.79688 -1.79687 l -1.39062,-2.75977 -1.39258,-2.75976 0.49023,-1.4043 0.48829,-1.4043 -0.20508,-2.84179 -0.20508,-2.83985 -1.43164,-1.77148 -1.43359,-1.76953 -1.81055,-0.93946 -1.8125,-0.9414 h -2.47656 -2.47852 l -2.0293,1.03711 -2.03125,1.03515 -1.26953,1.91797 -1.26758,1.91797 -0.22461,2.32813 -0.22265,2.32617 0.54687,1.66211 0.54883,1.66211 -1.2207,2.35156 -1.2207,2.35156 -0.28711,2.62891 -0.28711,2.62695 -0.75196,0.59961 -0.7539,0.59961 -0.50586,-0.0586 -0.50781,-0.0586 -1.67579,-0.92383 -1.67578,-0.92382 -3.71289,0.14843 -3.71094,0.14649 v -1.13672 -1.13477 l -1.27734,-2.34961 -1.2793,-2.34765 -2.11718,-1.40235 -2.11914,-1.40429 -0.39454,-0.14453 -0.39648,-0.14453 -1.23437,-10.01954 -1.23633,-10.01953 0.11914,-0.0742 0.11719,-0.0742 2.2539,-0.83399 2.25195,-0.83398 1.51954,-1.73047 1.51757,-1.73047 0.65821,-1.57617 0.66015,-1.57618 V 461.85156 460 l 0.29102,-0.29102 0.29101,-0.29101 1.93946,1.2832 1.9414,1.28516 3.4961,0.17578 3.49804,0.17578 2.17188,-1.05078 2.17188,-1.05078 1.625,-1.89844 z"
   id="path1198" /><path
   style="fill:#000000;stroke-width:0.47894"
   d="m 270.30469,450.88281 0.8125,1.96875 0.81445,1.97071 v 0.36718 0.36719 l -4.65625,7.41016 -4.6582,7.41015 -0.25196,-0.043 -0.25,-0.043 -1.43945,-0.41797 -1.43945,-0.41993 -1.375,-3.87304 -1.37695,-3.87305 0.72656,-1.77148 0.72461,-1.77149 0.42578,-1.11718 0.42773,-1.11915 5.75782,-2.52148 z"
   id="path1196" /><path
   style="fill:#000000;stroke-width:0.47894"
   d="m 243.28125,418.99219 -1.8125,0.93945 -1.8125,0.94141 -1.44727,1.78906 -1.44921,1.78906 -0.18555,3.28711 -0.18555,3.28906 1.10156,1.95704 1.09961,1.95898 1.22657,0.83398 1.22656,0.83399 1.43555,0.5625 1.4375,0.56055 1.91601,0.0273 1.91602,0.0254 1.93554,-0.87891 1.93555,-0.8789 1.25586,-1.49414 1.25586,-1.49219 0.57422,-1.74414 0.57617,-1.74414 -0.22266,-2.32813 -0.22461,-2.32617 -1.26953,-1.91797 -1.26757,-1.91992 -2.03126,-1.03516 -2.02929,-1.03515 h -2.47852 z"
   id="path1194" /><path
   style="fill:#000000;stroke-width:0.47894"
   d="m 401.47852,416.84766 0.0312,0.0625 0.0312,0.0625 5.55664,7.73632 5.55664,7.73829 -0.26368,1.96093 -0.26171,1.96289 -0.29688,-0.0293 -0.29492,-0.0312 -6.54492,-1.94727 -6.54297,-1.94726 -0.28125,-1.50391 -0.2832,-1.50391 -0.9336,-1.74023 -0.93164,-1.74219 1.25195,-4.31445 1.25391,-4.3125 1.47656,-0.22656 z"
   id="path1192" /><path
   style="fill:#000000;stroke-width:0.47894"
   d="m 380.90039,384.6875 0.52149,0.33594 0.52343,0.33789 0.25,2.28711 0.25196,2.28515 1.33398,1.92383 1.33398,1.92578 1.83399,1.09571 1.83594,1.09375 -1.19141,1.12109 -1.19141,1.11914 -0.96289,1.98828 -0.96289,1.98633 v 3.05078 3.05078 l 0.9961,2.05664 0.99414,2.05469 1.40039,1.17773 1.40039,1.17774 v 0.31641 0.31445 l -1.00196,3.29492 -1,3.29297 -1.7539,0.30664 -1.75195,0.30664 -2.04688,1.16992 -2.04687,1.17188 -1.17579,1.77734 -1.17578,1.77735 -0.29297,1.46289 -0.29101,1.46289 -12.29102,2.00586 -12.28906,2.00781 -0.76562,-0.006 -0.76368,-0.004 -0.91211,-1.00976 -0.9121,-1.00782 -1.91602,-0.98828 -1.91602,-0.98632 -2.87304,-0.0371 -2.87305,-0.0371 -2.10742,1.05078 -2.10938,1.05078 -2.9707,-1.75781 -2.97266,-1.75782 -1.06836,-2.32812 -1.06835,-2.33008 -2.11329,-1.48828 -2.11328,-1.49023 V 411.64844 401 l 2.01563,-1.11328 2.01367,-1.11524 1.41797,-2.01757 1.41601,-2.01953 0.22266,-2.67774 0.22266,-2.67969 0.77539,0.34375 0.77734,0.34375 3.35156,0.20117 3.35352,0.19922 2.34961,-1.26172 2.35156,-1.26171 0.56445,0.62695 0.5625,0.625 0.54493,1.91602 0.54296,1.91601 1.125,1.19531 1.12696,1.19532 -0.95313,1.61328 -0.95117,1.61328 v 2.73242 2.73047 l 1.11523,1.98633 1.11719,1.98632 1.8418,1.48047 1.8418,1.48047 1.65625,0.69141 1.65429,0.69336 2.05078,-0.0117 2.05079,-0.01 1.93554,-0.8789 1.93555,-0.88086 1.2793,-1.51953 1.27929,-1.51953 0.49414,-1.78125 0.49414,-1.78125 0.004,-1.33204 0.002,-1.33203 -0.74218,-1.78125 -0.74414,-1.78125 -1.21094,-1.26367 -1.21094,-1.26562 0.56641,-0.34961 0.56836,-0.35157 1.14257,-2.45507 1.14258,-2.45703 0.006,-1.55665 0.004,-1.55664 0.59961,0.0176 0.59961,0.0176 1.19726,0.68359 1.19727,0.6836 3.25586,0.0176 3.25586,0.0176 1.5332,-0.77539 1.5332,-0.77343 0.96485,-0.88086 z"
   id="path1190" /><path
   style="fill:#000000;stroke-width:0.47894"
   d="m 364.4707,343.13867 2.57227,0.9961 2.57226,0.99414 0.0176,1.4375 0.0195,1.43554 0.92383,2.03516 0.92383,2.03711 h -0.95898 -0.95704 l -1.29296,0.67187 -1.29297,0.67383 -1.02344,1.12305 -1.02149,1.12305 -0.82421,1.63086 -0.82618,1.63281 0.19336,3.02734 0.19336,3.02735 1.08008,1.46289 1.08008,1.46093 -1.625,1.89844 -1.62305,1.89648 -0.55664,1.85547 -0.55469,1.85547 v 1.47852 1.47656 l -2.03515,-0.92383 -2.03711,-0.92383 h -2.63281 -2.63477 l -1.97656,0.89844 -1.97656,0.89649 -0.32618,0.52929 -0.32617,0.5293 h -0.4414 -0.44141 l -0.29297,-1.31836 -0.29102,-1.31641 -0.48437,-1.59375 -0.48633,-1.59375 -2.55078,-2.85937 -2.54883,-2.85742 1.20703,-2.32813 1.20704,-2.32812 0.31445,-4.4375 0.31445,-4.43555 1.4375,-0.45898 1.4375,-0.45899 1.44922,-1.08008 1.45117,-1.08007 0.90039,-1.67383 0.90235,-1.67188 1.70117,0.47071 1.70312,0.46875 2.05274,-0.28125 2.05468,-0.28125 1.89258,-0.96485 1.89258,-0.9668 1.27149,-1.59374 z"
   id="path1188" /><path
   style="fill:#000000;stroke-width:0.47894"
   d="m 446.22461,328.05273 1.57227,1.17383 1.57421,1.17578 1.86329,0.59766 1.86523,0.59766 2.51172,-0.25977 2.51172,-0.25781 1.43164,-0.74219 1.43359,-0.74023 0.21094,2.54296 0.21094,2.54493 1.0625,2.03906 1.0625,2.03906 -1.01563,2.09766 -1.01562,2.09961 0.19531,3.23828 0.19726,3.24023 0.63282,1.46485 0.63086,1.46679 -2.30274,3.61329 -2.30469,3.61328 -3.18164,-0.22657 -3.18359,-0.22851 -3.08398,1.5332 -3.08594,1.5332 -1.19727,0.63282 -1.19726,0.63086 -1.3418,1.87109 -1.3418,1.86914 -0.2832,2.75195 -0.28516,2.75391 -0.76757,-0.33203 -0.76954,-0.33008 -2.64843,-0.22266 -2.65039,-0.22265 -1.83789,0.76758 -1.83985,0.76953 -0.30078,-0.0332 -0.30078,-0.0312 -4.28125,-1.30273 -4.28125,-1.30273 -1.10547,-2.13868 -1.10547,-2.13672 -1.67773,-1.48828 -1.67578,-1.48632 v -3.79297 -3.79102 l 1.55468,-0.83984 1.55664,-0.83789 1.17969,-1.72266 1.17774,-1.7207 0.19336,-3.04492 0.19336,-3.04297 -1.01172,-1.94336 -1.01368,-1.94336 v -0.22461 -0.22461 h 0.60743 0.60742 l 1.75,-1.18945 1.75,-1.18946 2.01367,0.71094 2.01367,0.70898 h 1.20117 1.20118 l 1.95898,-0.58593 1.95898,-0.58789 1.74805,-1.74805 1.74805,-1.74805 0.61523,-2.40234 0.61524,-2.40039 3.73828,-0.80859 z"
   id="path1186" /><path
   style="fill:#000000;stroke-width:0.47894"
   d="m 380.14453,327.16797 h 0.65625 0.6543 l 0.91211,1.02539 0.91211,1.02539 1.91601,0.87891 1.91602,0.88086 h 2.15625 2.1543 l 1.91601,-0.8711 1.91602,-0.87304 0.66992,-0.81055 0.66992,-0.8086 1.01953,0.95704 1.01953,0.95703 2.14063,1.13281 2.14258,1.13281 0.15625,0.80664 0.15625,0.80664 -1.22071,1.45118 -1.22265,1.45117 -0.53711,1.99414 -0.53516,1.99414 0.30469,1.90625 0.30469,1.90625 0.88476,1.70703 0.88672,1.70508 0.54297,2.01367 0.54492,2.01367 1.18359,1.4082 1.1836,1.40821 v 4.08984 4.08985 l -0.98828,0.3125 -0.99024,0.31445 -1.66797,1.46679 -1.66992,1.46485 -0.77734,1.48633 -0.77735,1.48437 -0.27539,3.11328 -0.27539,3.11328 -0.95898,-0.12695 -0.95703,-0.12695 -2.39453,-0.2793 -2.39453,-0.2793 -2.1543,0.80469 -2.15625,0.80469 -0.95703,0.21289 -0.95899,0.21094 -0.54492,-0.3711 -0.54687,-0.36914 -0.60743,-2.04101 -0.60937,-2.03907 -1.63477,-1.9082 -1.63281,-1.91015 1.08789,-1.52735 1.08789,-1.5293 0.19727,-2.71679 0.19531,-2.7168 -0.98242,-2.22265 -0.98438,-2.22461 h 0.95508 0.95508 l 1.29297,-0.67383 1.29297,-0.67188 1.02148,-1.12304 1.02149,-1.12305 0.77539,-1.5332 0.77343,-1.53321 v -2.38672 -2.38867 l -0.50976,-1.34765 -0.50977,-1.34766 -1.28515,-1.36133 -1.28711,-1.35937 -1.25196,-0.6543 -1.2539,-0.6543 -0.22852,-3.58594 -0.23047,-3.58398 -0.80273,-1.22656 z"
   id="path1184" /><path
   style="fill:#000000;stroke-width:0.47894"
   d="m 327.60547,319.02539 1.95703,2.22461 1.95703,2.22266 1.93555,0.8789 1.93359,0.87891 1.52344,0.01 1.52344,0.0117 1.0332,1.44922 1.0332,1.45117 -0.52148,1.49414 -0.52149,1.4961 v 2.32226 2.32422 h -0.78125 -0.78125 l -1.61718,1 -1.61719,0.99805 -1.19336,2.03711 -1.19336,2.03516 v 1.7539 1.75391 h -1.08789 -1.08789 l -3.94141,-3.96094 -3.93945,-3.96094 v -1.03711 -1.03711 l -0.51172,-1.34765 -0.50976,-1.34766 -0.9668,-1.0332 -0.9668,-1.03125 0.47266,-0.88477 0.47265,-0.88281 0.32422,-2.16797 0.32618,-2.16992 1.3789,-0.79102 1.37891,-0.79101 1.33593,-1.93164 1.33594,-1.93164 0.65821,-0.0176 z"
   id="path1182" /><path
   style="fill:#000000;stroke-width:0.47894"
   d="m 360.98242,302.02148 0.0137,0.58204 0.0137,0.58203 1.51171,1.7207 1.51172,1.72266 1.87305,0.95507 1.875,0.95704 2.38086,0.28125 2.38281,0.2832 0.45117,0.8418 0.44922,0.83984 -0.53125,1.52344 -0.53125,1.52343 0.22657,3.50782 0.2246,3.50586 -0.42773,0.76562 -0.42773,0.76367 h -1.32813 -1.32812 l -2.16016,0.73633 -2.16016,0.73633 -1.85351,1.89844 -1.85352,1.89843 h -0.53125 -0.53125 l -1.40625,-1.48046 -1.4082,-1.48047 -1.91406,-0.98633 -1.91602,-0.98633 -2.63477,-0.0469 -2.63281,-0.0488 -0.64258,-0.86133 -0.64257,-0.86133 0.72265,-1.5332 0.72266,-1.53321 0.32812,-1.7832 0.33008,-1.7832 -0.60547,-2.52734 -0.60547,-2.52735 0.19532,-0.19336 0.19726,-0.19336 2.64844,-0.10351 2.64844,-0.10352 1.90039,-0.97656 1.90039,-0.97656 1.25391,-1.36133 1.25195,-1.36133 0.52929,-0.95703 z"
   id="path1180" /><path
   style="fill:#000000;stroke-width:0.47894"
   d="m 343.05664,274.86328 -2.56055,0.57227 -2.5625,0.57422 -1.83984,1.83984 -1.83984,1.83984 -0.50782,1.82813 -0.50781,1.82617 -0.002,1.69531 -0.004,1.69532 1.07813,2.13671 1.07812,2.13672 2.1543,1.44336 2.1543,1.44336 0.0254,3.58594 0.0234,3.58594 0.21485,1.14843 0.21679,1.14844 -2.17187,0.10352 -2.17188,0.10351 -0.96484,0.30664 -0.9668,0.30664 -1.64453,-1.69726 -1.64453,-1.69922 -2.54883,-0.74023 -2.54687,-0.74024 -2.36914,0.56836 -2.3711,0.56836 -0.26562,0.43164 -0.26563,0.43164 h -0.39843 -0.39649 l -0.32812,-1.79687 -0.33008,-1.79688 -1.13281,-1.95312 -1.13477,-1.95508 -2.0625,-0.99805 -2.0625,-0.99805 -1.19727,-0.51367 -1.19726,-0.51367 -1.23438,-0.99609 -1.23437,-0.9961 -1.87891,-0.43554 -1.8789,-0.43555 -1.67578,0.29297 -1.67579,0.29297 -1.79687,0.90234 -1.79492,0.90234 -1.21094,1.83008 -1.21094,1.83203 -0.29297,2.4668 -0.29297,2.4668 0.81641,2.13672 0.81641,2.13671 1.6914,1.48438 1.69141,1.48437 0.041,3.11133 0.041,3.11133 -1.52344,0.92774 -1.52343,0.92578 -1.28907,1.8125 -1.29101,1.81054 -2.1836,-1.125 -2.18164,-1.125 -2.74218,0.23242 -2.74219,0.23243 -1.66406,1.02929 -1.66407,1.02735 -1.10156,1.77343 -1.10156,1.77149 -0.24024,3.09766 -0.23828,3.09961 -3.82226,1.59765 -3.82227,1.59766 -2.07031,0.91601 -2.07031,0.91602 0.50781,0.94726 0.50781,0.94727 -0.74023,0.41406 -0.74024,0.41602 1.50586,4.28125 1.50586,4.28125 0.11914,0.1289 0.1211,0.13086 9.28711,-3.2207 9.28906,-3.2207 4.33008,-0.0234 4.33203,-0.0215 1.27929,-0.83985 1.2793,-0.83789 h 0.19531 0.19532 l 0.22461,2.33594 0.2246,2.33398 1.07422,1.74024 1.07618,1.74219 2.10156,1.23046 2.10156,1.23243 4.10547,0.0293 4.10547,0.0312 3.53711,3.8086 3.53711,3.80664 -0.22266,0.58007 -0.22266,0.58204 0.47657,4.19922 0.47656,4.19726 0.98047,1.58594 0.97851,1.58398 -1.19726,2.57227 -1.19531,2.57031 -0.006,2.53125 -0.006,2.53125 -0.92578,-0.49609 -0.92579,-0.49414 -3.02539,0.004 -3.02343,0.004 -2.49414,1.42969 -2.49219,1.42968 -1.33789,2.27735 -1.33985,2.27734 0.002,3.35352 0.002,3.35156 1.1543,2.01953 1.15429,2.01953 1.83789,1.47461 1.83789,1.47656 -0.0234,10.875 -0.0215,10.87305 -2.01367,0.99024 -2.01367,0.99023 -1.53711,2.01562 -1.53711,2.01368 -0.29492,1.78515 -0.29688,1.78516 -0.20117,0.63672 -0.20117,0.63476 -1.20898,-1.4375 -1.20899,-1.43554 -2.05664,-0.9961 -2.05469,-0.99414 h -2.81054 -2.81055 l -2.06836,1 -2.06836,1.00196 -1.45117,1.75195 -1.45117,1.7539 -0.63282,2.14844 -0.63085,2.15039 -13.55665,5.88672 -13.55664,5.88672 -1.82031,-1.20508 -1.81836,-1.20508 -2.25,-0.5039 -2.24804,-0.50391 -2.4961,0.51758 -2.49414,0.51953 -1.62109,1.18945 -1.62305,1.19141 -0.75586,0.99023 -0.75586,0.99219 -11.45508,-0.7832 -11.45703,-0.7832 -1.4375,-0.22071 -1.43555,-0.22265 -1.73632,-2.33789 -1.73438,-2.33594 1.86328,-0.5586 1.86133,-0.55859 1.63867,-1.4375 1.63672,-1.4375 0.81446,-2.13672 0.8164,-2.13672 -0.28711,-2.42382 -0.28711,-2.42383 -1.01758,-1.64844 -1.01757,-1.64844 -2.17383,-1.27148 -2.17188,-1.27344 h -2.69726 -2.69727 l -1.19531,0.61719 -1.19531,0.61718 -1.35938,1.25782 -1.35937,1.25976 -0.75196,1.4375 -0.7539,1.43555 -0.002,2.74219 -0.002,2.74023 1.46094,2.35156 1.46289,2.35157 -2.10938,0.23828 -2.10937,0.23828 -1.90234,1.25781 -1.90235,1.25977 -1.24219,1.8789 -1.24218,1.87696 -0.26172,1.93945 -0.25977,1.93945 -1.5,0.28125 -1.5,0.28321 -1.34179,-0.51172 -1.34375,-0.50977 h -2.74805 -2.74805 l -2.36914,1.12891 -2.36914,1.13086 -2.06445,0.57422 -2.06641,0.57422 -1.96094,1.76757 -1.96093,1.76758 -0.8711,1.91602 -0.87304,1.91601 -0.01,2.66016 -0.0117,2.66016 1.23242,2.47265 1.23242,2.47461 1.97461,1.45117 1.97657,1.45313 h 0.57031 0.57227 l 0.24804,1.07812 0.2461,1.07813 1.3164,8.85937 1.31641,8.86133 -2.15625,3.36328 -2.15625,3.36328 -0.61133,1.85157 -0.61133,1.85156 0.27344,2.30273 0.27148,2.30274 0.80079,1.58398 0.80078,1.58203 1.02148,1.12305 1.02148,1.125 1.91602,1.01367 1.91406,1.01367 h 3.11328 l 3.11329,0.002 1.55664,-0.83399 1.55664,-0.83594 0.002,0.85157 0.002,0.84961 0.87305,1.4375 0.87305,1.4375 0.76367,2.24804 0.76172,2.24805 -0.75586,0.625 -0.75586,0.625 -0.8711,1.91602 -0.87109,1.91601 v 2.63477 2.63476 l 0.94336,2.07813 0.94336,2.07812 -1.97266,3.31836 -1.9707,3.31836 -0.42578,0.26367 -0.42773,0.26367 -3.70313,-0.006 -3.70508,-0.008 -1.67578,0.51953 -1.67578,0.51954 -1.32813,0.93164 -1.32812,0.93164 -0.93359,1.83203 -0.93555,1.83203 -0.29297,1.83984 -0.29102,1.83985 0.6875,1.99023 0.68555,1.99024 -1.96289,-1.02344 -1.96484,-1.02539 h -2.64453 -2.64454 l -1.69336,1 -1.69335,1 -5.79493,-2.1211 -5.79492,-2.11914 -0.60742,-1.46679 -0.60742,-1.46485 -1.17188,-1.39453 -1.17382,-1.39453 -1.97461,-1.03906 -1.97461,-1.03907 h -3.11328 -3.11329 l -1.98828,1.04688 -1.99023,1.04492 -1.41406,1.71875 -1.41602,1.7168 -0.54688,1.82422 -0.54687,1.82422 v 1.67773 1.67578 l -3.33789,-0.23828 -3.33789,-0.23828 -2.64453,1.29297 -2.64453,1.29492 -0.90039,-0.28711 -0.90235,-0.28516 -0.24219,-2.15039 -0.24218,-2.15234 -1.25977,-1.90234 -1.25781,-1.90235 -1.97852,-1.31054 -1.97851,-1.3086 -3.185549,-0.17969 -3.185547,-0.18164 -1.65625,0.69532 -1.65625,0.69336 -1.625,1.37109 -1.625,1.36914 -0.878906,1.93555 -0.878907,1.93554 -0.01172,1.79688 -0.0098,1.79687 -0.359375,-0.0156 -0.359375,-0.0156 -0.902344,-0.68359 -0.902344,-0.68359 -2.488281,-0.55664 -2.486328,-0.55665 -2.6875,0.78126 -2.6875,0.78124 -1.675781,1.58008 -1.675781,1.58203 -1.167969,-0.61328 -1.167969,-0.61133 -0.205078,-2.8457 -0.207031,-2.8457 -1.292969,-1.95508 -1.292969,-1.95508 -1.998047,-1.32226 -1.996094,-1.32032 h -3.90039 -3.902344 l -1.996094,1.32032 -1.996093,1.32226 -1.300782,1.9668 -1.302734,1.9668 -0.1875,2.95898 -0.189453,2.95703 -2.94336,-0.18164 -2.943359,-0.18164 -2.626953,1.38086 -2.626953,1.37891 -1.416016,2.29101 -1.416015,2.29102 -0.201172,2.78711 -0.203125,2.78515 0.546875,1.65821 0.548828,1.65625 1.568359,1.86718 1.56836,1.86524 -0.519532,11.45898 -0.517578,11.46094 -0.654297,0.2168 -0.652343,0.21875 -1.923829,1.73242 -1.923828,1.73437 -1.115234,2.51368 -1.115234,2.51562 h -0.496094 -0.494141 l -1.982422,-1.3125 -1.982421,-1.31055 -3.439454,-0.17382 -3.4375,-0.17383 -2.060546,1.05078 -2.058594,1.04883 -1.384766,1.51367 -1.384766,1.51172 -0.7031245,2.36328 -0.703125,2.36133 v 1.34961 1.34961 l -2.0351563,0.0117 -2.0351562,0.01 -1.9160156,0.87891 -1.9160156,0.8789 -1.36132818,1.375 -1.36132812,1.37696 -0.6992187,1.35351 -0.6992188,1.35156 -0.265625,2.25 -0.265625,2.25 0.5292969,1.96094 0.5292969,1.96094 1.3867187,1.91406 1.38476562,1.91406 2.08789068,1.0586 0.00195,0.002 2.0878906,1.05859 3.6660156,-0.14648 3.6660159,-0.14648 2.058593,-1.49024 2.060547,-1.49219 1.080079,-2.09961 1.082031,-2.09765 0.236328,-0.82617 0.238281,-0.82618 9.201172,-4.60742 9.201172,-4.60547 2.193359,1.11329 2.191407,1.11328 3.113281,0.01 3.113281,0.008 2.283203,-1.34375 2.285156,-1.34179 2.486329,1.34179 2.488281,1.34375 0.765625,2.1543 0.765625,2.15625 0.832031,1.26758 0.830078,1.26758 1.962891,1.36133 1.964843,1.35937 3.445313,0.17383 3.445313,0.17578 1.876953,-0.95898 1.878906,-0.95899 1.375,-1.36523 1.375,-1.36524 0.818359,-1.91015 0.816406,-1.91016 12.529297,-2.43555 12.531251,-2.43554 0.76172,0.84179 0.76172,0.84375 2.20508,1.03516 2.20507,1.03711 3.41993,-0.17383 3.41992,-0.17187 1.99609,-1.32227 1.99805,-1.32031 14.0039,4.14258 14.00196,4.14062 1.4375,2.19922 1.4375,2.19726 2.63281,1.37891 2.63477,1.38086 2.9746,-0.23047 2.97266,-0.22851 2.17774,-1.27539 2.17578,-1.2754 1.42968,-2.49414 1.42969,-2.49218 -0.006,-2.87305 -0.006,-2.875 -0.87304,-1.91602 -0.8711,-1.91601 -1.9414,-1.75 -1.94336,-1.75195 -2.57813,-0.57618 -2.58008,-0.57812 -0.87109,-2.10742 -0.87109,-2.10743 -1.96094,-1.67773 -1.96094,-1.67773 -1.89453,-0.51172 -1.89649,-0.50977 -2.40234,0.15821 -2.40234,0.1582 -6.06446,-8.33203 -6.06445,-8.33399 0.041,-3.64062 0.041,-3.64063 -1.36718,-2.32617 -1.36719,-2.32617 -2.34571,-1.45703 -2.34375,-1.45899 v -0.32422 -0.32226 l 1.26172,-1.16211 1.26367,-1.16016 0.96094,-2.14062 0.96094,-2.13867 v -2.49219 -2.49414 l 1.16016,0.4414 1.16015,0.44141 h 2.05664 2.05664 l 2.65039,-1.33789 2.65235,-1.33789 2.44336,1.19727 2.44531,1.19726 v 2.55469 2.55469 l 0.9375,1.83593 0.93555,1.83789 1.47265,1.23828 1.47266,1.23829 1.78125,0.49609 1.78125,0.49414 h 0.95703 0.95899 l 1.83007,-0.50781 1.83008,-0.50781 1.80274,-1.62891 1.80273,-1.62891 1.60547,1.65625 1.60547,1.65821 0.86718,0.27539 0.86915,0.27539 v 2.57031 2.57031 l 0.49023,1.29297 0.49023,1.29102 -1.99218,1.70703 -1.99219,1.70508 -0.88281,1.94336 -0.88282,1.9414 -0.01,1.8125 -0.01,1.81055 0.74024,1.77539 0.74218,1.77344 1.05469,1.13086 1.05469,1.13086 1.77539,0.9121 1.77734,0.91016 h 2.32032 2.31836 l 2.36914,-1.14844 2.36914,-1.14843 1.91601,-0.60157 1.91602,-0.59961 1.0957,-0.71289 1.09766,-0.71484 1.28906,-2.19922 1.29102,-2.20117 v -2.68555 -2.68554 l 1.42773,0.86914 1.42969,0.86914 1.96484,0.29492 1.9668,0.29492 2.11914,-0.56836 2.12109,-0.5664 2.03711,-2.11719 2.03516,-2.11719 v -0.62891 -0.6289 l 2.51367,0.0391 2.51367,0.0391 v 3.11328 3.11329 l 0.79297,1.5371 0.79102,1.53907 -2.06641,1.21093 -2.06836,1.21094 -1.01758,1.64844 -1.01758,1.64844 -0.2871,2.42382 -0.28711,2.42383 0.81445,2.13672 0.81641,2.13672 1.60351,1.4082 1.60547,1.40821 1.7832,0.58984 1.78321,0.58789 2.36132,-0.2793 2.36133,-0.28125 1.64844,-1.01757 1.64648,-1.01758 1.21289,-2.07031 1.21094,-2.06836 0.0996,-2.08008 0.0996,-2.08008 -0.37109,-1.75586 -0.37305,-1.75391 1.39453,-0.30664 1.39453,-0.30664 1.94336,-1.66406 1.94532,-1.66406 0.29882,-0.94336 0.30078,-0.94531 h 1.4043 1.4043 v 0.46289 0.46093 l 1.50781,1.71875 1.50781,1.7168 1.40235,0.72461 1.40234,0.72656 1.96094,0.33399 1.96094,0.33593 0.70507,2.14844 0.70313,2.14844 0.89844,1.2832 0.89843,1.28321 1.60547,0.99218 1.60547,0.99219 2.10156,0.28711 2.10352,0.28906 2.05469,-0.55273 2.05664,-0.55469 1.8457,-1.8457 1.8457,-1.84571 0.57422,-2.5625 0.57227,-2.56054 -0.57617,-2.14453 -0.57813,-2.14453 -2.04297,-2.04297 -2.04297,-2.04297 -1.5,-0.30078 -1.5,-0.30078 v -2.25391 -2.25391 l -1.20312,-2.35547 -1.20313,-2.35546 0.50977,-0.97461 0.50976,-0.97461 2.49024,-0.875 2.48828,-0.875 1.93945,-2.06641 1.94141,-2.06836 3.35156,-0.10742 3.35156,-0.10938 1.28321,0.8418 1.2832,0.83984 -0.52148,0.97461 -0.51953,0.97266 0.18945,2.99219 0.19141,2.99219 1.13476,1.65625 1.13477,1.65625 1.48047,1.01171 1.47851,1.01172 2.15625,0.29297 2.1543,0.29492 2.21679,0.48047 2.21875,0.48242 2.0918,-0.55664 2.09375,-0.55859 1.60742,-1.2168 1.60938,-1.21679 0.89453,-1.97266 0.89648,-1.9707 v -2.15625 -2.1543 l -0.8789,-1.93555 -0.88086,-1.93554 -1.54102,-1.29688 -1.54101,-1.29883 -1.15235,-0.28906 -1.15039,-0.28906 0.55664,-1.02735 0.55664,-1.02734 0.27149,-3.06445 0.27344,-3.0625 0.80859,-0.50977 0.81055,-0.50781 0.86718,0.76953 0.86524,0.77148 1.98828,0.5879 1.98633,0.58789 2.16406,-0.32422 2.16406,-0.32422 3.51172,-2.50195 3.51172,-2.5 1.07617,-2.12696 1.07813,-2.1289 -0.01,-2.17383 -0.0117,-2.17188 -0.8789,-1.93554 -0.87891,-1.9375 -1.51953,-1.27735 -1.51953,-1.27929 -1.78125,-0.49415 -1.78125,-0.49609 -1.33203,-0.002 -1.33204,-0.004 -1.77539,0.74219 -1.77343,0.74023 -0.99805,0.9375 -0.99805,0.93946 -1.16406,-1.2461 -1.16406,-1.24609 -1.31641,-0.68555 -1.3164,-0.68554 v -2.15821 -2.1582 l -0.66211,-1.54102 -0.66211,-1.54101 -0.9961,-1.03711 -0.99414,-1.03711 -0.95703,-0.67188 -0.95898,-0.66992 -0.96094,-6.17969 -0.96289,-6.18164 1.03125,-1.09765 1.03125,-1.09571 0.98828,-1.73437 0.99023,-1.73437 5.75782,-2.03321 5.75586,-2.0332 2.44922,0.23633 2.44726,0.23437 1.74414,-0.57422 1.74414,-0.57617 1.44727,-1.2168 1.44531,-1.21679 0.98828,-1.9375 0.98828,-1.9375 -0.19922,-2.74805 -0.19922,-2.74805 -1.23242,-1.86328 -1.23047,-1.86133 -2.26562,-1.17578 -2.26563,-1.17382 -1.42187,-1.30469 -1.42188,-1.30664 -1.75781,-0.48828 -1.75781,-0.48829 -1.67773,0.008 -1.67579,0.008 -1.93554,0.88086 -1.93555,0.87891 -1.2832,1.52734 -1.28516,1.52539 -0.52539,1.95117 -0.52539,1.95117 0.1543,2.16407 0.15234,2.1621 -1.9082,0.66797 -1.91016,0.66797 -2.16211,-1.15039 -2.16015,-1.15234 -1.91602,-0.28125 -1.91602,-0.28125 -1.79492,0.41015 -1.79687,0.41016 v -2.03711 -2.03711 l -1.31641,-2.59375 -1.31836,-2.59375 1.58399,-1.375 1.58203,-1.375 0.99218,-1.94726 0.99414,-1.94727 0.0274,-2.91016 0.0273,-2.91015 -0.92773,-1.89844 -0.92578,-1.89844 5.26758,-8.44922 5.26757,-8.44921 2.14453,-0.33789 2.14454,-0.3379 1.75976,-0.89843 1.76172,-0.89844 1.48047,-1.79688 1.48242,-1.79687 0.47852,-1.44922 0.47851,-1.45117 9.8457,-4.25781 9.84376,-4.25977 2.00976,0.60547 2.01172,0.60547 2.56445,-0.0195 2.56446,-0.0195 2.19921,-1.13282 2.19922,-1.13086 2.7793,0.97266 2.77734,0.97461 0.0117,0.95703 0.01,0.95899 0.87305,1.91601 0.87304,1.91602 1.95508,1.76367 1.95703,1.76367 1.83008,0.50781 1.83008,0.50782 2.05078,0.004 2.05078,0.004 1.75391,-0.73438 1.75586,-0.73242 1.54492,-1.17969 1.54687,-1.17968 1.20117,-2.53907 1.20118,-2.53906 12.96093,-2.08984 12.96289,-2.08985 0.84766,0.76758 0.84766,0.76758 2.14648,0.97461 2.14649,0.97265 1.96484,0.0117 1.96289,0.01 1.62891,-0.55273 1.62695,-0.55274 1.25586,-0.87305 1.25586,-0.87304 14.24414,4.21484 14.24609,4.21484 1.65039,2.27735 1.65235,2.27539 2.48437,1.15625 2.48242,1.15625 2.39454,-0.006 2.39453,-0.006 2.15429,-0.97852 2.15625,-0.97656 1.67578,0.28516 1.67579,0.28711 1.31836,0.26172 1.3164,0.25976 v 0.59375 0.59571 l 1.77344,2.0664 1.76953,2.06641 1.94141,0.88281 1.94336,0.88281 2.66015,0.01 2.65821,0.0117 2.36914,-1.13086 2.36914,-1.12891 1.95898,-0.54297 1.95703,-0.54297 1.92969,-1.39843 1.92969,-1.39649 1.10937,-2.29297 1.10938,-2.29297 -0.0273,-2.91796 -0.0273,-2.91797 -0.97461,-1.89844 -0.97461,-1.89648 -1.36133,-1.26172 -1.35937,-1.26172 -1.54883,-0.78125 -1.54883,-0.78125 -2.04883,-0.28125 -2.04882,-0.28125 -1.91016,0.52344 -1.91016,0.52148 -1.67578,1.07422 -1.67773,1.07226 -1.67578,0.50977 -1.67579,0.51172 -5.26757,-2.35156 -5.26758,-2.35157 -1.23242,-0.87304 -1.23047,-0.875 -2.22071,-0.56055 -2.2207,-0.55859 -0.50195,-1.51758 -0.5,-1.51758 -1.43555,-1.74024 -1.43359,-1.74023 -2.13672,-1.03516 -2.13672,-1.0332 -3.29688,0.01 -3.29687,0.01 -5.33398,-7.39062 -5.33594,-7.38867 0.4707,-1.24024 0.47266,-1.23828 -0.006,-2.48437 -0.004,-2.48243 -1.1582,-2.48437 -1.15625,-2.48438 -1.83203,-1.21093 -1.83203,-1.21289 -1.55664,-0.54102 -1.55665,-0.54297 v -1.12109 -1.12305 l 0.5293,-0.32617 0.5293,-0.32813 0.89648,-1.97656 0.89844,-1.97656 0.01,-2.72852 0.0117,-2.73047 1.66016,0.69532 1.66016,0.69336 h 2.56836 2.56836 l 2.35546,-1.20508 2.35743,-1.20703 2.27343,0.53515 2.2754,0.53516 0.0117,2.4668 0.01,2.46679 0.89453,1.97266 0.89649,1.9707 1.60742,1.2168 1.60937,1.21875 2.10938,0.56055 2.10742,0.56054 2.20117,-0.55273 2.20117,-0.55274 1.53711,-1.16992 1.53516,-1.16992 0.49414,0.92383 0.49414,0.92383 1.61523,0.99804 1.61719,1 0.29688,2.16602 0.29687,2.16406 0.77735,1.50195 0.77539,1.5 -0.77539,0.43555 -0.7754,0.4336 -0.99218,1.04882 -0.99024,1.05078 -0.75586,1.4375 -0.7539,1.43555 -0.006,2.69531 -0.004,2.69532 1.26953,2.16796 1.26953,2.16797 2.4961,1.24414 2.49609,1.24415 h 1.50977 1.51172 l 1.62695,-0.54493 1.6289,-0.54687 1.43555,-1.03711 1.4375,-1.03711 2.22852,-1.28516 2.22851,-1.2832 1.24414,-2.49609 1.24219,-2.4961 v -1.46484 -1.4668 l -0.44531,-1.55273 -0.44531,-1.55274 h 0.36328 0.36133 l 1.16015,1.24219 1.16211,1.24219 1.43555,0.75 1.4375,0.74804 2.63476,0.0195 2.63282,0.0176 2.03515,-1.06054 2.03516,-1.0625 1.31836,-1.99219 1.3164,-1.99023 v -4.38086 -4.38086 l -1.3164,-1.99024 -1.31836,-1.99219 -1.97266,-1.00585 -1.97265,-1.00586 -2.22657,-0.11329 -2.22851,-0.11328 -1.31055,-1.30859 -1.30859,-1.31055 -2.03321,-0.92382 -2.03125,-0.92188 -0.95898,-0.0215 -0.95703,-0.0195 2.00586,-0.9121 2.00586,-0.91016 1.4414,-1.99219 1.44336,-1.99219 0.32422,-2.16406 0.32422,-2.16211 -0.5625,-1.88281 -0.56445,-1.88281 2.96679,-3.33789 2.9668,-3.33985 h 0.34961 0.34961 l 0.29102,1.42383 0.2832,1.42188 1.82226,1.82226 1.82227,1.82227 2.02539,0.60742 2.02344,0.60547 v 3.11328 3.11328 l 0.9414,1.8457 0.94141,1.84571 1.97461,1.68945 1.97266,1.68945 2.36718,0.56836 2.36524,0.56641 1.75976,-0.33008 1.76172,-0.33008 1.69727,-0.87109 1.69922,-0.8711 1.19726,-1.28515 1.19727,-1.28711 1.43554,-0.60352 1.4375,-0.60351 1.51954,-1.28125 1.51953,-1.28125 0.99414,-2.05664 0.99609,-2.05664 -0.0117,-2.8418 -0.01,-2.8418 -0.88672,-1.91601 -0.88672,-1.91602 -1.37891,-1.29101 -1.37695,-1.29297 -1.7793,-0.74219 -1.78125,-0.74414 h -2.66406 -2.66601 l -1.71094,0.71484 -1.71289,0.71485 -0.42774,-0.26368 -0.42773,-0.26562 v -0.74414 -0.74414 l -1.05664,-1.88281 -1.0586,-1.88086 -2.29492,-1.41211 -2.29492,-1.41211 v -1.17578 -1.17383 l -1.69922,-4.21875 -1.70117,-4.2168 -0.39844,-0.40039 -0.39843,-0.39844 1.25976,-2.23633 1.25977,-2.23437 v -3.21289 -3.21094 l 1.84179,-1.03515 1.83985,-1.03516 1.17578,0.53516 1.17383,0.53515 2.9707,-0.01 2.9707,-0.0117 2.08789,-0.94727 2.08789,-0.94726 h 0.12891 0.12891 l 0.20898,2.8789 0.20898,2.87891 1.41016,2.0293 1.41016,2.03125 -0.86914,1.67773 -0.86719,1.67578 0.16406,2.93555 0.16406,2.9375 1.13477,1.65625 1.13477,1.65625 1.64453,1.12695 1.64453,1.12695 2.80273,0.20313 2.80274,0.20312 2.21289,-1.07226 2.21289,-1.07031 1.26562,-1.91407 1.26758,-1.91406 0.16406,-2.9375 0.16407,-2.9375 -0.86719,-1.67578 -0.86914,-1.67773 1.40039,-2.01563 1.40039,-2.01758 0.21875,-2.63476 0.21875,-2.63477 1.53906,-0.50781 1.53711,-0.50781 2.26953,1.26757 2.26758,1.26758 3.79883,-0.2207 3.79687,-0.21875 v 1.05859 1.05664 l 0.73828,2.09375 0.74024,2.09571 1.53516,1.61523 1.5371,1.61719 1.91407,0.88867 1.91601,0.88867 h 2.63477 2.63281 l 1.91602,-0.87109 1.91601,-0.87305 1.76953,-1.96289 1.77149,-1.96484 0.55664,-2.0625 0.55469,-2.0625 -0.27344,-2.32422 -0.27344,-2.32422 -1.23633,-2.10937 -1.23633,-2.10938 -2.49218,-1.45898 -2.49219,-1.46094 -3.6582,0.18359 -3.65821,0.1836 -0.2832,-2.07422 -0.28516,-2.07422 -0.94531,-1.85547 -0.94726,-1.85352 -1.45703,-1.22656 -1.45704,-1.22656 v -0.21875 -0.21875 l 1.07618,-0.27539 1.07812,-0.27539 1.81055,-1.49805 1.80859,-1.5 1.04688,-1.99023 1.04492,-1.98828 0.0195,-3.1504 0.0176,-3.15234 -1.44922,-2.34375 -1.45117,-2.3457 -2.20899,-1.36524 -2.20898,-1.36718 -3.68555,-0.22461 -3.68555,-0.22461 -2.50781,0.72851 -2.50781,0.73047 -1.81836,1.76563 -1.82031,1.76562 -0.66016,1.58399 -0.66016,1.58203 v 2.90429 2.9043 l 0.65821,1.57617 0.6582,1.57617 1.49609,1.70508 1.4961,1.70508 v 0.83984 0.8418 l -1.87891,2.03906 -1.8789,2.03907 -0.51172,1.8457 -0.51367,1.8457 -0.004,0.79297 -0.006,0.79492 -2.16211,0.73633 -2.16016,0.73633 -1.65429,-0.69141 -1.65625,-0.6914 h -2.66406 -2.66407 l -1.5957,0.66601 -1.59766,0.66797 -0.47656,-0.30859 -0.47656,-0.30664 -0.33399,-2.15625 -0.33203,-2.15625 -0.86914,-1.64453 -0.86914,-1.64649 1.35156,-1.86523 1.35157,-1.86719 0.30468,-2.0293 0.30469,-2.03125 -0.54101,-2.00781 -0.54102,-2.00781 -1.48828,-1.69336 -1.48633,-1.69531 -1.3418,-0.69336 -1.34179,-0.69532 h -2.33203 -2.33008 l -2.8418,0.5 -2.8418,0.5 -1.31054,0.51368 -1.3125,0.51562 -1.65625,1.83203 -1.6543,1.83203 -0.54492,2.01953 -0.54297,2.01954 0.30859,1.7207 0.3086,1.71875 0.92968,1.81641 0.92969,1.81445 -0.72851,1.41015 -0.72852,1.40821 -0.29883,2.1875 -0.30078,2.18554 -1.32812,0.6875 -1.33008,0.6875 -1.69922,-0.70898 -1.70117,-0.71094 h -2.61719 -2.61914 l -1.17773,0.44727 -1.17579,0.44726 -0.32617,-2.59961 -0.32422,-2.59961 -1.52148,-2.25781 -1.52344,-2.25781 -2.38086,-1.21875 -2.38281,-1.2168 -2.88672,0.041 -2.88477,0.0391 -1.91601,0.99024 -1.91602,0.99218 -1.03125,1.12305 -1.02929,1.125 -1.66602,3.11328 -1.66406,3.11328 -6.16406,2.23242 -6.16602,2.23438 -1.91406,-0.23438 -1.91602,-0.23242 -2.08593,0.75 -2.08594,0.75196 -1.36524,-0.97266 -1.36523,-0.97266 -1.33789,-0.4707 -1.33789,-0.4707 -0.0625,-2.78907 -0.0645,-2.78906 -0.60351,-1.13086 -0.60547,-1.1289 0.59375,-0.19727 0.5957,-0.19922 1.59766,-1.4043 1.59961,-1.40234 0.81055,-2.125 0.81054,-2.125 -0.22851,-2.39062 -0.23047,-2.39258 -1.26953,-1.91797 -1.26953,-1.91797 -2.0293,-1.03516 -2.03125,-1.0371 h -2.48242 -2.48438 l -2.31055,1.19921 -2.30859,1.19727 -1.80664,0.33203 -1.80664,0.33008 -1.73633,1.52539 -1.73828,1.52539 -0.64648,1.54883 -0.64844,1.54883 0.008,2.76953 0.008,2.76953 0.41016,0.64844 0.41016,0.64843 -1.22071,1.86524 -1.22265,1.86719 h -1.03907 -1.04101 l -1.44141,-2.31836 -1.4414,-2.31836 -2.55664,-1.27344 -2.55469,-1.27539 h -2.48828 -2.49024 l -0.30273,-0.78906 -0.30274,-0.78907 0.78907,-2.06836 0.79101,-2.0664 -0.20508,-2.81836 -0.20312,-2.81641 1.66211,-0.91211 1.66211,-0.91015 1.45508,-1.81446 1.45312,-1.81445 0.19336,-3.01953 0.19141,-3.02148 -0.82422,-1.63086 -0.82617,-1.63282 -1.02149,-1.12304 -1.02148,-1.12305 -1.4375,-0.75586 -1.43555,-0.75586 h -2.87305 -2.875 l -1.43554,0.75586 -1.4375,0.75586 -1.02149,1.12305 -1.02148,1.12304 -0.77344,1.53321 -0.77539,1.5332 v 2.0625 2.0625 l -1.95508,0.60937 -1.95508,0.61133 -1.22851,0.80469 -1.22852,0.80469 -1.32031,1.82422 -1.32227,1.82421 -1.04492,-1.68945 -1.04297,-1.6914 -1.99414,-1.16016 -1.99414,-1.16016 -1.19726,-0.29492 -1.19727,-0.29492 -0.0703,-2.29883 -0.0684,-2.29883 -0.74414,-1.43945 -0.74414,-1.4375 -1.69532,-1.48828 -1.69335,-1.48828 -2.03907,-0.54883 z"
   id="path1067" /><path
   style="fill:#000000;stroke-width:0.478377"
   d="m 945.18245,500.5596 c -3.61727,-1.96231 -5.54809,-7.10426 -4.20062,-11.18663 0.31553,-0.95595 1.30929,-2.51796 2.20834,-3.47111 2.24364,-2.37866 2.12191,-3.27867 -0.6176,-4.56624 -1.23874,-0.5822 -3.05303,-1.85922 -4.03176,-2.83783 l -1.77951,-1.77929 -0.4956,1.4215 c -1.34774,3.86565 -4.55819,6.16267 -8.61333,6.16267 -1.30898,0 -2.986,-0.22896 -3.72672,-0.50878 -1.69622,-0.6408 -3.83763,-2.64804 -4.81559,-4.51387 -0.96889,-1.84854 -0.97039,-6.279 -0.003,-8.13192 2.23191,-4.27381 7.64398,-6.19042 12.15669,-4.30513 2.48271,1.03722 3.03586,0.92201 3.03586,-0.6323 0,-4.2861 4.16046,-10.05148 8.72131,-12.08559 5.46842,-2.43889 12.65849,-1.09145 16.77146,3.14301 3.04554,3.1355 3.93015,5.56416 3.92315,10.77075 -0.005,3.8026 -0.18404,4.87936 -1.09627,6.59713 -1.38211,2.60261 -4.15608,5.38852 -6.44839,6.47615 -2.30911,1.09561 -2.40919,2.72141 -0.27789,4.51455 1.93957,1.63184 2.80557,3.76612 2.80465,6.91213 -9.6e-4,3.10085 -1.07182,5.32621 -3.49468,7.26204 -1.5559,1.24313 -2.28718,1.47516 -5.02327,1.59378 -2.50114,0.10845 -3.59535,-0.0744 -4.99748,-0.83502 z"
   id="path1236" /><path
   style="fill:#000000;stroke-width:0.478377"
   d="m 692.6939,423.5578 c 0.95112,-0.48516 2.54457,-1.03504 3.541,-1.22195 1.55605,-0.29188 1.77139,-0.48313 1.52609,-1.35539 -0.70836,-2.51883 -0.75296,-5.03502 -0.13034,-7.35367 l 0.67436,-2.51132 h -1.14131 c -2.67002,0 -6.44129,-2.44538 -8.2515,-5.35046 l -0.80039,-1.2845 -1.65063,2.21803 c -1.90486,2.55966 -5.14908,4.41652 -8.3458,4.77679 -1.97842,0.22297 -2.14526,0.33904 -1.8086,1.25834 0.20398,0.55699 0.37086,2.41188 0.37086,4.12197 0,1.71009 -0.16688,3.56498 -0.37086,4.12198 -0.33575,0.91683 -0.17,1.03535 1.7507,1.25181 2.99155,0.33715 6.30202,2.07227 8.0113,4.19898 l 1.45894,1.81524 1.71844,-1.90186 c 0.94513,-1.04603 2.49662,-2.29882 3.44774,-2.78399 z"
   id="path1234" /><path
   style="fill:#000000;stroke-width:0.478377"
   d="m 813.26287,521.79674 c 1.44718,-0.37557 3.43437,-0.92634 4.41597,-1.22392 0.98161,-0.29759 2.75764,-0.56181 3.94674,-0.58716 1.1891,-0.0254 2.16206,-0.20691 2.16212,-0.40347 2.7e-4,-0.79446 3.68926,-4.37548 5.12763,-4.97757 0.84671,-0.35442 2.49447,-0.6444 3.6617,-0.6444 h 2.12223 l -0.95744,-2.51132 c -1.76153,-4.62038 -0.2221,-10.56566 3.4186,-13.20265 1.69377,-1.2268 1.73963,-1.33438 1.15411,-2.70751 -0.33536,-0.78647 -0.61946,-2.01652 -0.63132,-2.73344 -0.0199,-1.20392 -0.14036,-1.28298 -1.5764,-1.03489 -0.85516,0.14773 -1.78706,0.3367 -2.0709,0.41994 -1.06679,0.31281 -5.10547,-0.73266 -6.40532,-1.65812 -1.18675,-0.84493 -1.3858,-0.87019 -1.63992,-0.20806 -0.15907,0.41449 -0.28922,1.20142 -0.28922,1.74874 0,0.54733 -0.54393,1.92317 -1.20873,3.05742 -2.72962,4.65717 -9.21697,6.16214 -13.95143,3.23653 l -2.3017,-1.42231 -2.15283,1.20864 c -1.72358,0.96765 -2.8427,1.21576 -5.61274,1.24436 -1.90295,0.0197 -3.59333,0.16912 -3.7564,0.33216 -0.16307,0.16305 0.0732,1.40922 0.52495,2.76927 1.0243,3.08348 0.78104,6.76821 -0.62487,9.46518 l -1.0303,1.97644 0.97417,2.27236 c 1.17948,2.75127 1.51663,2.98952 4.26271,3.01227 2.45628,0.0203 5.54076,1.28158 6.9181,2.82878 0.65056,0.7308 1.23696,0.95746 1.91362,0.73964 0.5366,-0.17273 2.15969,-0.62134 3.60687,-0.99691 z"
   id="path1232" /><path
   style="fill:#000000;stroke-width:0.478377"
   d="m 781.52659,579.9159 c -0.15811,-1.41603 -0.43089,-6.4059 -0.60619,-11.08858 l -0.31871,-8.51399 -1.72928,-0.94205 c -2.30249,-1.25432 -6.42231,-4.26804 -6.877,-5.03065 -0.4701,-0.78846 -3.29017,-1.05676 -14.7451,-1.40287 l -9.36787,-0.28304 -1.27731,1.9299 c -0.73333,1.10799 -2.3467,2.54311 -3.78832,3.36978 -2.11093,1.21045 -3.02801,1.44059 -5.75564,1.44437 -3.62771,0.005 -5.55687,-0.63927 -7.94671,-2.65398 -1.86786,-1.57466 -3.86699,-5.51967 -3.87382,-7.64446 -0.003,-0.79942 -0.43524,-2.29791 -0.96149,-3.32999 -1.25488,-2.46107 -1.28495,-7.36341 -0.0617,-10.05591 3.34689,-7.36674 13.19254,-9.1285 18.93377,-3.38798 1.89486,1.89462 2.60708,3.29844 3.31804,6.54002 l 0.26934,1.22804 11.57441,0.52874 11.57441,0.52874 2.08636,-2.32024 c 2.67025,-2.96959 5.17614,-3.96612 9.4247,-3.74797 2.66857,0.13702 3.1275,0.0489 2.88776,-0.55461 -1.22525,-3.08434 -0.41267,-8.92391 1.54232,-11.08389 0.7045,-0.77836 0.72137,-1.10285 0.14765,-2.84098 -0.35622,-1.07925 -0.87477,-2.02243 -1.15233,-2.09598 -3.71117,-0.9833 -4.74256,-1.40567 -5.9849,-2.45089 l -1.45689,-1.22574 -2.06456,0.99931 c -4.07404,1.97196 -9.13576,0.92773 -12.1518,-2.50693 -1.96512,-2.23787 -2.4668,-4.25311 -2.49731,-10.03163 -0.0195,-3.69768 0.16701,-5.06231 0.8827,-6.45769 1.79715,-3.50388 4.95941,-5.35687 9.14189,-5.35687 2.82193,0 4.79938,0.87615 7.23053,3.20361 1.73295,1.65903 1.74106,1.66119 3.27296,0.86911 0.84463,-0.43673 2.83159,-0.84105 4.41545,-0.8985 3.35331,-0.12162 4.45797,-1.022 3.69988,-3.01568 -0.9306,-2.44737 -0.52994,-6.60197 0.89861,-9.31816 1.02875,-1.956 1.26618,-2.89843 1.00648,-3.99494 -0.18694,-0.78927 -0.46226,-1.98032 -0.61182,-2.64676 -0.21642,-0.96432 -0.73636,-1.33592 -2.54656,-1.82001 -1.73473,-0.46391 -2.93932,-1.2833 -5.07508,-3.45218 -3.25899,-3.30951 -4.17534,-3.48985 -7.14198,-1.40553 -1.12597,0.79109 -3.23127,1.68417 -4.67846,1.98463 -3.48504,0.72354 -7.36947,-0.34409 -10.04481,-2.76079 l -1.87233,-1.69133 -8.63078,2.45747 c -4.74692,1.35161 -8.81438,2.34401 -9.0388,2.20533 -0.54868,-0.33906 -2.68383,-8.35933 -2.32179,-8.72133 0.15716,-0.15713 4.30985,-1.43922 9.2282,-2.84908 4.91836,-1.40987 8.98962,-2.6225 9.04725,-2.69473 0.0576,-0.0722 0.24116,-1.34328 0.40786,-2.82455 l 0.3031,-2.69323 -5.68927,-4.60158 c -4.91053,-3.97172 -6.7442,-5.17416 -6.7442,-4.42255 0,0.0985 0.32292,1.09419 0.71761,2.21271 0.39468,1.11852 0.71641,2.49094 0.71494,3.04981 -0.009,3.30767 -2.42907,7.20281 -5.45043,8.7714 -1.92078,0.9972 -6.3093,0.9972 -8.23009,0 -2.12192,-1.10163 -4.37239,-3.84455 -4.96756,-6.05456 -0.28135,-1.04472 -0.74339,-2.04275 -1.02676,-2.21786 -0.94216,-0.58222 -2.30821,-4.2395 -2.30821,-6.17971 0,-2.21657 1.30556,-5.33815 2.78187,-6.65141 0.56341,-0.50119 1.01631,-1.14696 1.00645,-1.43505 -0.01,-0.28808 -1.22005,-1.22053 -2.6893,-2.0721 l -2.67137,-1.5483 -1.39891,1.17696 c -2.11319,1.77791 -4.89807,2.37474 -7.92275,1.69793 -1.37834,-0.30842 -2.6301,-0.76141 -2.78167,-1.00663 -0.6906,-1.11726 -1.17595,-0.22827 -1.17595,2.1539 0,1.42988 -0.22369,3.18805 -0.49709,3.90707 -0.4435,1.16634 -0.31762,1.49204 1.16753,3.02081 2.04775,2.10789 2.67841,3.70581 2.67841,6.78637 0,4.45357 -2.77489,7.9827 -7.09063,9.01791 -5.90462,1.41632 -11.52501,-2.91131 -11.55674,-8.89853 -0.01,-1.81863 -0.16258,-2.05822 -1.84533,-2.89068 l -1.83482,-0.90768 -1.84553,2.12128 c -2.60035,2.98891 -5.28119,4.07682 -9.33201,3.78702 -3.16915,-0.22672 -3.21565,-0.21244 -4.48465,1.37776 -2.68421,3.36359 -7.51455,4.4492 -11.58096,2.6028 -6.33293,-2.87554 -6.94333,-12.70696 -1.01282,-16.31308 1.32393,-0.80502 1.43818,-1.09625 1.53604,-3.91535 0.0582,-1.6751 0.34592,-3.49439 0.63949,-4.04287 0.49638,-0.92739 0.38405,-1.01776 -1.60385,-1.29019 -1.17569,-0.16113 -2.95893,-0.71191 -3.96275,-1.22396 -1.83789,-0.9375 -5.34792,-4.42053 -5.34792,-5.30678 0,-0.26234 -0.48438,-0.47531 -1.07641,-0.47329 -0.74812,0.002 -1.40116,0.57239 -2.14117,1.86831 -0.58561,1.02554 -2.03092,2.47687 -3.21178,3.22516 -1.18086,0.7483 -2.15489,1.73724 -2.1645,2.19765 -0.01,0.46041 0.82969,1.68416 1.8651,2.71944 3.1065,3.10612 3.68022,6.89099 1.65924,10.94607 -1.90315,3.81864 -4.30177,5.0282 -10.1987,5.14295 -5.39547,0.10499 -7.82333,-0.39291 -10.01983,-2.05485 -1.67402,-1.26663 -3.38776,-4.39069 -3.40587,-6.20874 -0.0102,-1.02951 -0.0583,-1.0382 -1.98428,-0.35876 -1.08558,0.38296 -2.64638,0.69157 -3.46845,0.6858 -1.91158,-0.0135 -5.25549,-1.52716 -6.63954,-3.00559 -0.59094,-0.63122 -1.86754,-1.40676 -2.83689,-1.72339 -3.14703,-1.02797 -6.12592,-5.35264 -6.12592,-8.89343 0,-6.50592 7.11475,-11.16282 13.18191,-8.62811 l 1.67474,0.69966 2.25675,-2.25429 c 1.24121,-1.23987 2.609,-2.46956 3.03954,-2.73265 0.48621,-0.29711 0.88042,-1.38705 1.0405,-2.87682 0.24724,-2.30084 0.19344,-2.44061 -1.32139,-3.43349 -2.97098,-1.94729 -4.48875,-7.32564 -3.1038,-10.99865 0.68867,-1.82638 3.22206,-4.4255 5.09817,-5.23042 3.28715,-1.4103 7.95106,-0.54241 10.43574,1.94196 0.6711,0.67102 1.83157,1.53616 2.57883,1.92253 1.96062,1.01375 3.75937,3.34539 4.3677,5.66167 0.65232,2.48375 2.24648,3.92672 3.32013,3.00526 3.0454,-2.61371 9.35624,-1.97985 12.31464,1.23688 1.00049,1.08786 1.22988,1.1316 3.62931,0.69211 l 2.56132,-0.46916 -0.69163,-2.35904 c -0.52061,-1.77576 -0.5774,-2.93662 -0.22969,-4.69495 0.25406,-1.28476 0.28511,-2.33592 0.069,-2.33592 -0.89369,0 -3.98666,-3.23617 -4.79648,-5.01854 -1.65025,-3.63215 -0.72274,-8.05485 2.27671,-10.85608 1.80207,-1.683 3.53751,-2.30259 6.44942,-2.30259 4.6896,0 8.12963,2.95396 9.10703,7.82021 0.45359,2.25831 0.70936,2.70418 1.55337,2.70793 1.70773,0.008 5.76775,2.6697 7.18067,4.7083 l 1.3402,1.93367 1.50722,-2.00777 c 0.99387,-1.32392 2.50059,-2.49142 4.42369,-3.42773 2.68879,-1.3091 2.92125,-1.54742 2.97785,-3.05282 0.18908,-5.02887 4.02861,-8.68179 9.12532,-8.68179 2.9119,0 4.64735,0.61959 6.44942,2.30259 4.18924,3.91242 4.08372,10.42235 -0.23033,14.20967 -1.60708,1.41086 -1.63573,1.50325 -1.62993,5.25772 0.003,2.10189 -0.15401,4.25538 -0.34946,4.78552 -0.31366,0.85076 -0.0626,1.03343 2.13859,1.55625 2.82314,0.67053 5.32872,2.4715 7.02786,5.05149 1.40727,2.13681 2.99653,2.31042 4.8548,0.53031 1.11193,-1.06517 1.24821,-1.50477 1.03974,-3.35405 -0.37147,-3.29522 0.88932,-5.95352 4.17246,-8.7974 1.53296,-1.32786 3.55679,-2.73581 4.49738,-3.12876 3.65734,-1.52795 8.44304,-0.4002 10.95165,2.58075 3.07154,3.64986 2.89763,8.82167 -0.42013,12.49357 -1.59536,1.76566 -1.63965,1.90967 -0.98259,3.19499 0.37844,0.7403 0.8366,2.03582 1.01814,2.87894 0.18154,0.84312 0.69649,1.64923 1.14433,1.79135 0.44785,0.14212 1.50008,0.88473 2.33831,1.65024 1.4156,1.29278 1.66148,1.35695 3.45539,0.90166 2.44475,-0.62047 5.4032,0.074 8.54195,2.00501 3.047,1.8746 4.55857,4.56614 4.55528,8.11125 -0.003,3.14611 -0.87778,5.04605 -3.30457,7.17654 -1.98009,1.73832 -2.08155,1.48144 1.85905,4.70706 2.14369,1.75473 2.4355,1.85726 4.30567,1.51272 5.83948,-1.0758 11.70772,2.703 13.23147,8.52028 0.61589,2.3513 1.22413,2.51005 2.88767,0.75369 1.87785,-1.98265 4.6313,-3.00351 8.13292,-3.01534 l 3.10964,-0.0105 v -3.7072 c 0,-3.06738 0.20642,-4.07484 1.19602,-5.83742 3.12313,-5.56262 10.07775,-7.71831 15.68041,-4.86041 1.75019,0.89277 4.26282,3.32215 5.23795,5.06439 0.38249,0.68338 1.14078,0.70431 7.33558,0.20248 l 6.90898,-0.5597 3.49671,-2.30121 c 3.89971,-2.56644 6.47268,-3.20937 9.53938,-2.3837 1.82286,0.49079 2.06217,0.4385 3.31484,-0.72419 2.4081,-2.23515 3.97906,-2.80187 7.80863,-2.81695 4.02824,-0.0159 6.05564,0.74232 8.57772,3.20781 2.12738,2.07965 2.9684,3.89703 3.24885,7.02051 0.37271,4.15087 -0.5063,6.58574 -3.39275,9.39795 -3.84891,3.74991 -8.90493,4.58016 -13.50918,2.21832 l -1.78283,-0.91453 -3.56561,2.4433 c -3.52984,2.41877 -3.60259,2.44329 -7.25052,2.44329 -3.12984,0 -3.94353,-0.17719 -5.40186,-1.17634 -1.90643,-1.30613 -4.19302,-4.51225 -4.19302,-5.87919 0,-0.79626 -0.2989,-0.85665 -2.99005,-0.60412 -7.98503,0.74929 -7.65759,0.64973 -9.20969,2.80038 -2.14182,2.96779 -5.86138,4.71616 -9.6323,4.52766 l -2.93495,-0.14672 0.24626,2.70306 c 0.34337,3.7691 -0.12588,5.70767 -2.08695,8.62143 -1.50193,2.23159 -1.66035,2.75265 -1.38835,4.56629 0.25384,1.69248 0.4885,2.04772 1.35414,2.04992 2.32455,0.006 4.87728,1.14214 6.97598,3.10499 2.08599,1.95095 2.28353,2.03286 3.40527,1.41206 1.42569,-0.78902 6.0943,-0.89596 7.97697,-0.18272 0.74072,0.28061 1.83115,0.96391 2.42318,1.51843 l 1.07642,1.00821 v -1.53379 c 0,-0.84358 0.3332,-2.33115 0.74044,-3.3057 1.62153,-3.8804 4.79833,-5.85093 9.43259,-5.85093 2.53861,0 3.39884,0.23069 5.25922,1.41036 2.12167,1.34536 4.18244,4.28036 4.18244,5.95674 0,1.13797 0.64544,1.23896 2.90257,0.45418 3.9078,-1.35871 9.15898,-0.0376 11.99303,3.01733 2.27371,2.45088 3.01954,4.44187 3.01783,8.05613 -0.002,3.94509 -1.04682,6.32821 -3.90816,8.91294 -1.75894,1.5889 -1.82151,1.74262 -1.25224,3.07663 2.11449,4.95503 -0.85688,12.38646 -5.8648,14.66794 -0.60713,0.27659 -0.95428,0.79352 -0.8439,1.25662 0.12764,0.53555 -0.80731,1.46081 -2.92841,2.89804 -2.30116,1.55923 -3.11592,2.39538 -3.11592,3.19771 0,3.73303 -3.67631,7.53441 -8.25253,8.53329 -0.81355,0.17758 -1.31561,0.60094 -1.31561,1.10938 0,0.45221 3.17542,4.00246 7.0565,7.88945 4.27748,4.284 7.10319,7.48883 7.17504,8.13771 0.71453,6.45276 0.65483,7.77611 -0.44719,9.91348 -3.13501,6.08031 -11.69246,7.0841 -16.35944,1.91895 -2.71094,-3.00031 -3.34827,-7.58381 -1.5393,-11.07018 0.63847,-1.23049 0.60811,-1.26186 -4.19934,-4.33807 l -4.84247,-3.09862 -3.68967,0.21662 c -3.07933,0.18079 -4.03831,0.0479 -5.79727,-0.80351 -1.15917,-0.56108 -2.47497,-1.42604 -2.92399,-1.92214 -0.79944,-0.88327 -0.8611,-0.88223 -2.9687,0.0499 -1.63913,0.72498 -2.94143,0.91441 -5.46207,0.79449 -3.62402,-0.17242 -4.10689,0.15922 -3.30444,2.26956 0.6968,1.83248 0.56005,7.03477 -0.23491,8.93715 -0.38495,0.92119 -1.28211,2.36672 -1.9937,3.21229 l -1.2938,1.5374 1.76636,10.35945 c 0.9715,5.6977 1.76102,10.51348 1.7545,10.70174 -0.007,0.18825 -1.08828,0.48506 -2.4039,0.65956 -1.55315,0.206 -2.39204,0.5473 -2.39204,0.97317 0,0.42039 -0.55828,0.65712 -1.55482,0.6593 -0.85515,0.002 -2.97962,0.13797 -4.72104,0.30246 l -3.16622,0.29905 z"
   id="path1105" />
</svg>
