<?xml version="1.0" encoding="UTF-8" standalone="no"?>
<!-- Generator: Adobe Illustrator 18.0.0, SVG Export Plug-In . SVG Version: 6.00 Build 0)  -->

<svg
   version="1.1"
   x="0px"
   y="0px"
   width="9451.45px"
   height="623.52px"
   viewBox="0 0 9451.45 623.52"
   enable-background="new 0 0 9451.45 623.52"
   xml:space="preserve"
   id="svg860"
   sodipodi:docname="08_global sea surface temp_mask-01.svg"
   inkscape:version="1.1.1 (c3084ef, 2021-09-22)"
   xmlns:inkscape="http://www.inkscape.org/namespaces/inkscape"
   xmlns:sodipodi="http://sodipodi.sourceforge.net/DTD/sodipodi-0.dtd"
   xmlns="http://www.w3.org/2000/svg"
   xmlns:svg="http://www.w3.org/2000/svg"><defs
   id="defs864" /><sodipodi:namedview
   id="namedview862"
   pagecolor="#505050"
   bordercolor="#eeeeee"
   borderopacity="1"
   inkscape:pageshadow="0"
   inkscape:pageopacity="0"
   inkscape:pagecheckerboard="0"
   showgrid="false"
   inkscape:zoom="0.75110169"
   inkscape:cx="1117.6915"
   inkscape:cy="412.72707"
   inkscape:window-width="1312"
   inkscape:window-height="762"
   inkscape:window-x="0"
   inkscape:window-y="25"
   inkscape:window-maximized="0"
   inkscape:current-layer="svg860" />

<path
   opacity="0.75"
   d="M1701.89,435.58c0.04-0.2,0.06-0.41,0.06-0.62c0-1.76-1.43-3.19-3.19-3.19h-5.69   c-0.42,0-0.83,0.08-1.2,0.23h-3.36c-0.58-0.59-1.39-0.96-2.27-0.96h-4.45c-0.52-0.35-1.14-0.55-1.81-0.55h-4.95   c-0.4-0.18-0.85-0.28-1.31-0.28h-5.69c-0.71,0-1.36,0.24-1.89,0.63h-4.37c-0.56,0-1.08,0.14-1.53,0.38h-4.72   c-0.91,0-1.72,0.39-2.3,1h-2.63c-0.54-0.4-1.21-0.64-1.89-0.64h-3.28c-0.45-1.21-1.61-2.08-2.98-2.08h-5.69   c-1.08,0-2.03,0.54-2.6,1.36h-3.65c-0.78,0-1.49,0.29-2.05,0.76h-2.52c-0.58-0.58-1.38-0.95-2.26-0.95h-5.69   c-0.56,0-1.08,0.16-1.54,0.41h-4.72c-0.9,0-1.7,0.38-2.28,0.98h-2.86c-0.49-0.31-1.07-0.48-1.69-0.48h-5.69   c-0.58,0-1.13,0.16-1.6,0.43h-4.66c-0.1,0-0.19,0-0.28,0.01c-0.09-0.01-0.19-0.01-0.28-0.01h-3.46c-0.54-1-1.58-1.7-2.8-1.7h-5.69   c-1.03,0-1.94,0.5-2.52,1.26h-3.38c-0.3-0.09-0.61-0.14-0.93-0.14h-4.17c-0.57-0.47-1.29-0.76-2.09-0.76h-5.69   c-1.2,0-2.25,0.65-2.81,1.61h-1.76c-0.58-0.58-1.37-0.93-2.25-0.93h-3.15c-0.01-0.05-0.03-0.1-0.05-0.15   c0.08-0.27,0.13-0.56,0.13-0.85c0-1.76-1.43-3.19-3.19-3.19h-5.69c-1.76,0-3.19,1.43-3.19,3.19c0,0.24,0.03,0.48,0.08,0.71h-3.15   c-0.42,0-0.83,0.08-1.2,0.23h-5.06c-0.92,0-1.75,0.39-2.34,1.02h-1.49c-0.5-1.17-1.65-1.99-3-1.99h-5.69   c-0.52,0-1.01,0.12-1.44,0.34h-4.66c-0.23-0.05-0.47-0.08-0.72-0.08h-3c-0.01-0.26-0.04-0.51-0.11-0.76   c-0.07-0.4-0.21-0.77-0.42-1.1c0.33-0.51,0.53-1.12,0.53-1.77c0-1.8-1.46-3.26-3.26-3.26h-3.32c-0.03-0.06-0.06-0.11-0.09-0.17   c0.22-0.43,0.35-0.91,0.35-1.42c0-0.51-0.13-0.99-0.35-1.42c0.22-0.43,0.35-0.91,0.35-1.42c0-0.97-0.44-1.82-1.12-2.41   c0.68-0.59,1.12-1.44,1.12-2.41c0-1.76-1.43-3.19-3.19-3.19h-5.69c-1.76,0-3.19,1.43-3.19,3.19c0,0.97,0.44,1.82,1.12,2.41   c-0.68,0.59-1.12,1.44-1.12,2.41c0,0.51,0.13,0.99,0.35,1.42c-0.22,0.43-0.35,0.91-0.35,1.42c0,0.51,0.13,0.99,0.35,1.42   c-0.22,0.43-0.35,0.91-0.35,1.42s0.13,0.99,0.35,1.42c-0.22,0.43-0.35,0.91-0.35,1.42c0,0.51,0.13,0.99,0.35,1.42   c-0.22,0.43-0.35,0.91-0.35,1.42c0,0.19,0.02,0.38,0.06,0.57h-0.55c0.07-0.26,0.11-0.53,0.11-0.81c0-0.89-0.36-1.7-0.94-2.29   c0.58-0.59,0.94-1.4,0.94-2.29c0-1.8-1.46-3.26-3.26-3.26h-5.69c-1.8,0-3.26,1.46-3.26,3.26c0,0.89,0.36,1.7,0.94,2.29   c-0.58,0.59-0.94,1.4-0.94,2.29c0,0.08,0.02,0.15,0.02,0.23h-2.6c-0.31-0.1-0.65-0.16-0.99-0.16h-3.22   c-0.08-0.22-0.18-0.42-0.31-0.61c0.33-0.51,0.53-1.11,0.53-1.76c0-1.8-1.46-3.26-3.26-3.26h-3.07c0-0.05,0-0.09-0.01-0.14   c0.01-0.09,0.01-0.18,0.01-0.28c0-0.7-0.23-1.34-0.61-1.86c0.38-0.52,0.61-1.16,0.61-1.86c0-0.19-0.02-0.38-0.06-0.57   c0.03-0.19,0.06-0.37,0.06-0.57c0-1.76-1.43-3.19-3.19-3.19h-5.69c-1.76,0-3.19,1.43-3.19,3.19c0,0.19,0.02,0.38,0.06,0.57   c-0.03,0.19-0.06,0.37-0.06,0.57c0,0.7,0.23,1.34,0.61,1.86c-0.38,0.52-0.61,1.16-0.61,1.86c0,0.09,0,0.18,0.01,0.28   c-0.01,0.09-0.01,0.18-0.01,0.28c0,0.24,0.03,0.48,0.09,0.71c-0.05,0.23-0.09,0.46-0.09,0.71c0,0.15,0.02,0.29,0.04,0.44   c-0.02,0.14-0.04,0.29-0.04,0.44c0,0.09,0,0.18,0.01,0.28c-0.01,0.09-0.01,0.18-0.01,0.28c0,0.41,0.08,0.79,0.22,1.15   c-0.14,0.36-0.22,0.74-0.22,1.15c0,0.04,0,0.95,0,0.95l0.05,0.17c0.04,0.2,0.1,0.39,0.17,0.58c-0.06,0.16-0.12,0.33-0.16,0.51   h-0.51c0.04-0.21,0.07-0.43,0.07-0.65c0-0.23-0.02-0.45-0.07-0.67c0,0-0.02-0.07-0.02-0.1c0.02-0.13,0.02-0.26,0.02-0.4   c0-0.25-0.04-0.49-0.09-0.72c0.09-0.3,0.16-0.62,0.16-0.96c0-0.23-0.02-0.46-0.07-0.68v-0.02l-0.02-0.07   c0.02-0.13,0.02-0.26,0.02-0.39c0-0.25-0.04-0.49-0.09-0.72c0.09-0.3,0.16-0.62,0.16-0.96c0-0.23-0.02-0.45-0.07-0.68   c0,0-0.02-0.08-0.02-0.09c0.02-0.13,0.02-0.26,0.02-0.39c0-0.25-0.04-0.49-0.09-0.72c0.09-0.3,0.16-0.62,0.16-0.96   c0-0.23-0.02-0.45-0.07-0.67c0,0-0.02-0.07-0.02-0.1c0.02-0.13,0.02-0.26,0.02-0.4c0-0.25-0.04-0.49-0.09-0.72   c0.09-0.3,0.16-0.62,0.16-0.96c0-0.23-0.02-0.45-0.07-0.67c0,0-0.02-0.08-0.03-0.14c0.01-0.12,0.04-0.23,0.04-0.35   c0-0.25-0.04-0.49-0.09-0.72c0.09-0.3,0.16-0.62,0.16-0.96c0-0.23-0.02-0.45-0.07-0.68c0,0-0.02-0.09-0.03-0.14   c0.01-0.12,0.04-0.23,0.04-0.35c0-0.25-0.04-0.49-0.09-0.72c0.09-0.3,0.16-0.62,0.16-0.96c0-0.23-0.02-0.45-0.07-0.67   c0,0-0.02-0.08-0.03-0.14c0.01-0.12,0.04-0.23,0.04-0.35c0-0.25-0.04-0.49-0.09-0.72c0.09-0.3,0.16-0.62,0.16-0.96   c0-0.27-0.04-0.53-0.11-0.79c0.01-0.12,0.04-0.24,0.04-0.37c0-0.25-0.04-0.49-0.09-0.72c0.09-0.3,0.16-0.62,0.16-0.96   c0-0.32-0.05-0.63-0.14-0.93c-0.03-0.15-0.08-0.29-0.13-0.43c0.09-0.24,0.15-0.48,0.18-0.74c0.06-0.24,0.09-0.49,0.09-0.74   c0-0.31-0.05-0.62-0.14-0.92c-0.04-0.19-0.1-0.38-0.17-0.55c0.19-0.42,0.31-0.88,0.31-1.37c0-0.32-0.05-0.63-0.14-0.93   c-0.04-0.19-0.1-0.37-0.17-0.55c0.19-0.42,0.31-0.88,0.31-1.37c0-0.47-0.1-0.91-0.28-1.32c0.09-0.25,0.17-0.51,0.2-0.78   c0.06-0.24,0.09-0.49,0.09-0.74c0-0.51-0.13-0.99-0.34-1.42c0.21-0.43,0.34-0.91,0.34-1.42s-0.13-0.99-0.34-1.42   c0.21-0.43,0.34-0.91,0.34-1.42c0-0.51-0.13-0.99-0.34-1.42c0.21-0.43,0.34-0.91,0.34-1.42c0-0.66-0.2-1.27-0.54-1.79   c0.34-0.51,0.54-1.13,0.54-1.79c0-1.8-1.46-3.26-3.26-3.26h-5.69c-1.8,0-3.26,1.46-3.26,3.26c0,0.66,0.2,1.27,0.54,1.79   c-0.34,0.51-0.54,1.13-0.54,1.79c0,0.43,0.09,0.83,0.24,1.2h-0.65c-0.06-0.23-0.14-0.44-0.24-0.64c0.21-0.43,0.34-0.91,0.34-1.42   c0-0.72-0.24-1.38-0.64-1.92c0.4-0.54,0.64-1.2,0.64-1.92c0-1.8-1.46-3.26-3.26-3.26h-5.69c-1.8,0-3.26,1.46-3.26,3.26   c0,0.72,0.24,1.38,0.64,1.92c-0.4,0.54-0.64,1.2-0.64,1.92c0,0.51,0.13,0.99,0.34,1.42c-0.21,0.43-0.34,0.91-0.34,1.42   c0,0.51,0.13,0.99,0.34,1.42c-0.21,0.43-0.34,0.91-0.34,1.42s0.13,0.99,0.34,1.42c-0.21,0.43-0.34,0.91-0.34,1.42   c0,0.51,0.13,0.99,0.34,1.42c-0.21,0.43-0.34,0.91-0.34,1.42c0,0.36,0.07,0.71,0.19,1.04c-0.07,0.26-0.11,0.52-0.11,0.8   c0,0.09,0.02,0.17,0.03,0.25c-0.06,0.24-0.1,0.49-0.1,0.75c0,0.44,0.09,0.86,0.25,1.24c-0.1,0.3-0.17,0.6-0.18,0.93   c-0.05,0.22-0.07,0.44-0.07,0.67c0,0.44,0.09,0.86,0.25,1.24c-0.1,0.3-0.17,0.6-0.18,0.93c-0.05,0.22-0.07,0.44-0.07,0.67   c0,0.28,0.05,0.55,0.12,0.82c-0.02,0.15-0.05,0.3-0.05,0.46c0,0.17,0.02,0.34,0.05,0.5c-0.02,0.13-0.05,0.26-0.05,0.4   c-0.05,0.22-0.07,0.44-0.07,0.67c0,0.44,0.09,0.86,0.25,1.24c-0.1,0.3-0.17,0.6-0.18,0.93c-0.05,0.22-0.07,0.44-0.07,0.67   c0,0.42,0.09,0.84,0.25,1.24c-0.1,0.3-0.17,0.61-0.18,0.94c-0.05,0.22-0.07,0.44-0.07,0.67c0,0.36,0.07,0.71,0.18,1.05   c-0.07,0.25-0.11,0.52-0.11,0.79c0,0.07,0,0.14,0.01,0.2c0,0.01,0,0.01,0,0.02h-0.52c-0.05-0.19-0.12-0.36-0.2-0.53   c0.21-0.43,0.34-0.91,0.34-1.42s-0.13-0.99-0.34-1.42c0.21-0.43,0.34-0.91,0.34-1.42c0-0.51-0.13-0.99-0.34-1.42   c0.21-0.43,0.34-0.91,0.34-1.42c0-0.51-0.13-0.99-0.34-1.42c0.21-0.43,0.34-0.91,0.34-1.42s-0.13-0.99-0.34-1.42   c0.21-0.43,0.34-0.91,0.34-1.42c0-0.51-0.13-0.99-0.34-1.42c0.21-0.43,0.34-0.91,0.34-1.42c0-0.51-0.13-0.99-0.34-1.42   c0.21-0.43,0.34-0.91,0.34-1.42c0-0.75-0.26-1.43-0.69-1.98c0.42-0.55,0.69-1.23,0.69-1.98c0-1.8-1.46-3.26-3.26-3.26h-5.69   c-1.8,0-3.26,1.46-3.26,3.26c0,0.75,0.26,1.43,0.69,1.98c-0.23,0.3-0.41,0.65-0.53,1.02h-3.16c-1.8,0-3.26,1.46-3.26,3.26   c0,0.61,0.18,1.17,0.47,1.65c-0.29,0.49-0.47,1.05-0.47,1.65c0,0.25,0.03,0.5,0.09,0.74c0.03,0.28,0.1,0.54,0.2,0.79   c-0.18,0.4-0.28,0.85-0.28,1.31c0,0.25,0.03,0.5,0.09,0.74c0.03,0.28,0.1,0.54,0.2,0.79c-0.18,0.4-0.28,0.85-0.28,1.31   c0,0.25,0.03,0.5,0.09,0.74c0.01,0.12,0.04,0.24,0.07,0.36c-0.05,0.23-0.09,0.47-0.09,0.71c0,0.09,0.02,0.18,0.03,0.28   c-0.06,0.24-0.1,0.5-0.1,0.76c0,0.25,0.03,0.5,0.09,0.74c0,0.04,0.02,0.08,0.02,0.12c-0.02,0.13-0.04,0.25-0.04,0.39   c0,0.22,0.02,0.44,0.07,0.64c-0.01,0.06-0.03,0.11-0.04,0.17c-0.06,0.26-0.1,0.52-0.1,0.79c0,0.25,0.03,0.5,0.09,0.74   c0.02,0.24,0.08,0.48,0.16,0.7c0,0.01-0.01,0.02-0.01,0.03h-0.58c-0.17-1.63-1.55-2.92-3.22-2.92h-3.01c0-0.05,0.02-0.1,0.02-0.15   c0-0.54-0.15-1.05-0.38-1.5c0.19-0.41,0.31-0.87,0.31-1.35c0-1.76-1.43-3.19-3.19-3.19h-5.69c-0.62,0-1.2,0.19-1.69,0.5h-4.56   c-1.8,0-3.26,1.46-3.26,3.26c0,0.7,0.23,1.35,0.6,1.88c-0.25,0.35-0.43,0.76-0.53,1.19h-0.44c0.03-0.18,0.06-0.36,0.06-0.55   c0-0.27-0.03-0.54-0.1-0.81c-0.03-0.24-0.11-0.47-0.19-0.7c0.19-0.41,0.3-0.86,0.3-1.34c0-0.39-0.08-0.75-0.2-1.09   c0.08-0.27,0.13-0.56,0.13-0.86c0-0.06-0.01-0.11-0.02-0.17c0.05-0.23,0.09-0.47,0.09-0.72c0-0.68-0.21-1.31-0.56-1.83   c0.35-0.52,0.56-1.15,0.56-1.83c0-1.8-1.46-3.26-3.26-3.26h-3.1c0.01-0.1,0.03-0.2,0.03-0.31c0-0.27-0.04-0.53-0.11-0.78   c0.06-0.25,0.11-0.51,0.11-0.78c0-0.22-0.02-0.44-0.07-0.65c0.04-0.21,0.07-0.42,0.07-0.65c0-0.51-0.13-0.99-0.35-1.42   c0.22-0.43,0.35-0.91,0.35-1.42s-0.13-0.99-0.35-1.42c0.22-0.43,0.35-0.91,0.35-1.42c0-0.85-0.34-1.63-0.89-2.2   c0.55-0.57,0.89-1.35,0.89-2.2c0-1.76-1.43-3.19-3.19-3.19h-5.69c-1.76,0-3.19,1.43-3.19,3.19c0,0.85,0.34,1.63,0.89,2.2   c-0.55,0.57-0.89,1.35-0.89,2.2c0,0.51,0.13,0.99,0.35,1.42c-0.22,0.43-0.35,0.91-0.35,1.42s0.13,0.99,0.35,1.42   c-0.22,0.43-0.35,0.91-0.35,1.42c0,0.22,0.02,0.44,0.07,0.65c-0.04,0.21-0.07,0.42-0.07,0.65c0,0.27,0.04,0.53,0.11,0.78   c-0.06,0.25-0.11,0.51-0.11,0.78c0,0.51,0.13,0.99,0.35,1.42c-0.22,0.43-0.35,0.91-0.35,1.42c0,0.1,0,0.2,0.01,0.3   c-0.01,0.1-0.01,0.2-0.01,0.3c0,0.22,0.02,0.43,0.06,0.63c-0.04,0.2-0.06,0.41-0.06,0.63c0,0.17,0.02,0.33,0.05,0.49   c-0.03,0.16-0.05,0.32-0.05,0.49c0,0.1,0,0.2,0.01,0.3c-0.01,0.1-0.01,0.2-0.01,0.3c0,0.4,0.08,0.77,0.21,1.12   c-0.13,0.35-0.21,0.73-0.21,1.12c0,0.06,0,0.13,0.01,0.19l-0.01,0.02l0,0.74l0.03,0.11c0.02,0.11,0.05,0.22,0.08,0.33   c-0.11,0.33-0.18,0.67-0.18,1.03c0,0.22,0.02,0.45,0.07,0.67l0,0.7l0.03,0.11c0.03,0.23,0.1,0.45,0.18,0.66   c-0.13,0.35-0.21,0.72-0.21,1.12c0,0.04,0,0.07,0,0.11c-0.05,0.22-0.07,0.45-0.07,0.67c0,0.41,0.08,0.79,0.22,1.15   c-0.09,0.29-0.15,0.59-0.15,0.91c0,0.04,0,0.07,0,0.11c-0.05,0.22-0.07,0.45-0.07,0.67c0,0.41,0.08,0.79,0.22,1.15   c-0.09,0.29-0.15,0.59-0.15,0.91c0,0.04,0,0.08,0,0.11c-0.05,0.22-0.07,0.45-0.07,0.67c0,0.4,0.07,0.79,0.21,1.14   c-0.02,0.05-0.02,0.11-0.04,0.16h-3.17c-1.76,0-3.19,1.43-3.19,3.19c0,0.08,0.02,0.15,0.02,0.22h-0.79   c0.2-0.41,0.32-0.87,0.32-1.36c0-1.76-1.43-3.19-3.19-3.19h-3.03c-0.02-0.21-0.06-0.41-0.12-0.61c0.05-0.23,0.09-0.47,0.09-0.72   c0-1.06-0.53-2-1.33-2.58c0.8-0.58,1.33-1.52,1.33-2.58c0-1.76-1.43-3.19-3.19-3.19h-5.69c-1.76,0-3.19,1.43-3.19,3.19   c0,1.06,0.53,2,1.33,2.58c-0.55,0.4-0.96,0.97-1.17,1.63h-3.23c-1.76,0-3.19,1.43-3.19,3.19c0,0.67,0.21,1.28,0.56,1.8   c-0.35,0.51-0.56,1.13-0.56,1.8c0,0.51,0.13,0.99,0.35,1.42c-0.14,0.28-0.24,0.58-0.3,0.9h-0.48c-0.05-0.35-0.15-0.67-0.3-0.98   c0.21-0.43,0.34-0.91,0.34-1.42c0-0.51-0.13-0.99-0.34-1.42c0.21-0.43,0.34-0.91,0.34-1.42s-0.13-0.99-0.34-1.42   c0.21-0.43,0.34-0.91,0.34-1.42c0-0.51-0.13-0.99-0.34-1.42c0.21-0.43,0.34-0.91,0.34-1.42c0-0.51-0.13-0.99-0.34-1.42   c0.21-0.43,0.34-0.91,0.34-1.42c0-1.07-0.53-2.02-1.33-2.61c0.8-0.59,1.33-1.54,1.33-2.61c0-1.8-1.46-3.26-3.26-3.26h-3.02   c-0.02-0.23-0.06-0.46-0.12-0.67c0.05-0.22,0.07-0.44,0.07-0.67c0-0.09,0-0.18-0.01-0.27c0.01-0.09,0.01-0.18,0.01-0.27   c0-0.02,0-0.04,0-0.05c0.05-0.22,0.07-0.44,0.07-0.67c0-0.32-0.06-0.62-0.14-0.91c0.05-0.22,0.07-0.44,0.07-0.67   c0-0.09,0-0.18-0.01-0.27c0.01-0.09,0.01-0.18,0.01-0.27c0-0.02,0-0.03,0-0.05c0.05-0.22,0.07-0.44,0.07-0.67   c0-0.31-0.06-0.6-0.14-0.88c0.04-0.21,0.07-0.42,0.07-0.65c0-0.1,0-0.2-0.01-0.3c0.01-0.1,0.01-0.2,0.01-0.29c0-0.02,0-0.04,0-0.05   c0.05-0.22,0.07-0.44,0.07-0.67c0-0.42-0.09-0.81-0.23-1.18c0.09-0.3,0.16-0.61,0.16-0.94c0-0.02,0-0.03,0-0.05   c0.05-0.22,0.07-0.44,0.07-0.67c0-0.51-0.13-0.99-0.34-1.42c0.01-0.03,0.03-0.05,0.04-0.08c0.2-0.42,0.3-0.88,0.3-1.35   c0-0.71-0.24-1.36-0.62-1.9c0.39-0.54,0.62-1.19,0.62-1.9c0-1.8-1.46-3.26-3.26-3.26h-5.69c-1.8,0-3.26,1.46-3.26,3.26   c0,0.27,0.04,0.54,0.11,0.79h-3.11c-1.76,0-3.19,1.43-3.19,3.19c0,1.04,0.51,1.97,1.29,2.55c-0.78,0.58-1.29,1.5-1.29,2.55   c0,0.51,0.13,0.99,0.35,1.42c-0.22,0.43-0.35,0.91-0.35,1.42c0,0.3,0.04,0.59,0.12,0.87c-0.08,0.28-0.12,0.57-0.12,0.87   c0,0.19,0.02,0.37,0.06,0.56c-0.03,0.18-0.06,0.37-0.06,0.56c0,0.51,0.13,0.99,0.35,1.42c-0.22,0.43-0.35,0.91-0.35,1.42   c0,0.06,0,0.12,0.01,0.18h-3.07c-1.8,0-3.26,1.46-3.26,3.26c0,0.27,0.04,0.53,0.11,0.78c-0.01,0.12-0.04,0.23-0.04,0.35   c0,0.59,0.17,1.13,0.45,1.6c-0.32,0.51-0.52,1.11-0.52,1.75c0,0.32,0.06,0.62,0.15,0.91c-0.05,0.22-0.08,0.45-0.08,0.68   c0,0.12,0.02,0.24,0.04,0.36c-0.01,0.07-0.03,0.13-0.03,0.2c-0.05,0.23-0.08,0.46-0.08,0.69c0,0.32,0.06,0.62,0.15,0.91   c-0.05,0.22-0.08,0.45-0.08,0.68c0,0.11,0,0.21,0.02,0.31c-0.01,0.09-0.01,0.17-0.01,0.26c-0.05,0.22-0.07,0.45-0.07,0.68   c0,0.32,0.06,0.62,0.15,0.92c-0.05,0.22-0.08,0.45-0.08,0.68c0,0.1,0,0.2,0.01,0.3l-0.01,0.05v0.22c-0.05,0.22-0.07,0.44-0.07,0.67   c0,0.32,0.06,0.62,0.15,0.92c-0.05,0.22-0.08,0.45-0.08,0.68c0,0.11,0,0.21,0.02,0.31c-0.01,0.08-0.01,0.17-0.01,0.26   c-0.05,0.22-0.07,0.45-0.07,0.68c0,0.31,0.06,0.61,0.14,0.89c-0.02,0.08-0.04,0.16-0.05,0.24l-0.02,0.07v0.39   c0,0.11,0,0.21,0.02,0.31c-0.01,0.09-0.01,0.17-0.01,0.26c-0.05,0.22-0.07,0.45-0.07,0.68c0,0.31,0.06,0.61,0.14,0.89   c-0.02,0.08-0.04,0.16-0.05,0.24l-0.02,0.08v0.38h-0.49c-0.05-0.36-0.15-0.69-0.31-1c0.22-0.43,0.35-0.91,0.35-1.42   s-0.13-0.99-0.35-1.42c0.22-0.43,0.35-0.91,0.35-1.42c0-0.45-0.09-0.87-0.26-1.26c0.17-0.39,0.26-0.81,0.26-1.26   c0-1.76-1.43-3.19-3.19-3.19h-3.17c0.1-0.32,0.17-0.65,0.17-1c0-0.51-0.13-0.99-0.34-1.42c0.21-0.43,0.34-0.91,0.34-1.42   c0-0.51-0.13-0.99-0.34-1.42c0.21-0.43,0.34-0.91,0.34-1.42c0-0.51-0.13-0.99-0.34-1.42c0.21-0.43,0.34-0.91,0.34-1.42   s-0.13-0.99-0.34-1.42c0.21-0.43,0.34-0.91,0.34-1.42s-0.13-0.99-0.34-1.42c0.21-0.43,0.34-0.91,0.34-1.42   c0-0.51-0.13-0.99-0.34-1.42c0.21-0.43,0.34-0.91,0.34-1.42s-0.13-0.99-0.34-1.42c0.21-0.43,0.34-0.91,0.34-1.42   c0-0.51-0.13-0.99-0.34-1.42c0.21-0.43,0.34-0.91,0.34-1.42c0-0.51-0.13-0.99-0.34-1.42c0.21-0.43,0.34-0.91,0.34-1.42   c0-0.51-0.13-0.99-0.34-1.42c0.21-0.43,0.34-0.91,0.34-1.42c0-0.51-0.13-0.99-0.34-1.42c0.21-0.43,0.34-0.91,0.34-1.42   s-0.13-0.99-0.34-1.42c0.21-0.43,0.34-0.91,0.34-1.42c0-0.51-0.13-0.99-0.34-1.42c0.21-0.43,0.34-0.91,0.34-1.42   c0-0.7-0.23-1.35-0.61-1.89c0.38-0.53,0.61-1.18,0.61-1.89c0-1.8-1.46-3.26-3.26-3.26h-5.69c-1.8,0-3.26,1.46-3.26,3.26   c0,0.7,0.23,1.35,0.61,1.89c-0.38,0.53-0.61,1.18-0.61,1.89c0,0.51,0.13,0.99,0.34,1.42c-0.21,0.43-0.34,0.91-0.34,1.42   c0,0.51,0.13,0.99,0.34,1.42c-0.21,0.43-0.34,0.91-0.34,1.42s0.13,0.99,0.34,1.42c-0.21,0.43-0.34,0.91-0.34,1.42   c0,0.51,0.13,0.99,0.34,1.42c-0.21,0.43-0.34,0.91-0.34,1.42c0,0.15,0.02,0.29,0.04,0.44h-3.04c-1.72,0-3.13,1.37-3.19,3.07   c-0.05,0.22-0.07,0.45-0.07,0.68c0,0.81,0.31,1.54,0.8,2.11c-0.49,0.57-0.8,1.3-0.8,2.11c0,0.25,0.03,0.5,0.09,0.74   c0.03,0.27,0.1,0.53,0.2,0.78c-0.18,0.4-0.28,0.85-0.28,1.32c0,0.25,0.03,0.5,0.09,0.74c0.03,0.27,0.1,0.53,0.2,0.78   c-0.18,0.4-0.29,0.85-0.29,1.32c0,0.25,0.03,0.5,0.09,0.74c0.03,0.27,0.1,0.53,0.2,0.78c-0.18,0.4-0.28,0.85-0.28,1.32   c0,0.25,0.03,0.5,0.09,0.74c0.03,0.27,0.1,0.53,0.2,0.78c-0.18,0.4-0.28,0.85-0.28,1.32c0,0.25,0.03,0.5,0.09,0.74   c0.03,0.27,0.1,0.53,0.2,0.78c-0.1,0.23-0.18,0.48-0.23,0.73h-3.06c-1.76,0-3.19,1.43-3.19,3.19c0,0.49,0.12,0.95,0.32,1.36h-1.28   c-0.08-0.11-0.17-0.22-0.26-0.32c0.52-0.58,0.85-1.34,0.85-2.18c0-1.8-1.46-3.26-3.26-3.26h-3.35c-0.02-0.05-0.05-0.09-0.07-0.13   c0.22-0.43,0.35-0.91,0.35-1.42c0-0.7-0.23-1.33-0.61-1.86c0.38-0.52,0.61-1.16,0.61-1.86c0-1.76-1.43-3.19-3.19-3.19h-5.69   c-1.76,0-3.19,1.43-3.19,3.19c0,0.7,0.23,1.33,0.61,1.86c-0.38,0.52-0.61,1.16-0.61,1.86c0,0.51,0.13,0.99,0.35,1.42   c-0.22,0.43-0.35,0.91-0.35,1.42c0,0.51,0.13,0.99,0.35,1.42c-0.22,0.43-0.35,0.91-0.35,1.42c0,0.51,0.13,0.99,0.35,1.42   c-0.22,0.43-0.35,0.91-0.35,1.42c0,0.24,0.03,0.47,0.08,0.7c-0.05,0.23-0.08,0.46-0.08,0.7c0,0.19,0.02,0.38,0.06,0.57   c-0.01,0.05-0.01,0.1-0.02,0.15h-3.11c-1.8,0-3.26,1.46-3.26,3.26c0,0.81,0.3,1.53,0.79,2.1c-0.42,0.5-0.7,1.12-0.76,1.8h-0.44   c-0.06-0.23-0.14-0.45-0.24-0.65c0.21-0.43,0.34-0.91,0.34-1.42c0-0.5-0.12-0.99-0.34-1.43c0.21-0.43,0.34-0.91,0.34-1.42   c0-0.51-0.13-0.99-0.34-1.42c0.21-0.43,0.34-0.91,0.34-1.42c0-0.92-0.38-1.74-1-2.34c0.61-0.59,1-1.42,1-2.34   c0-1.8-1.46-3.26-3.26-3.26h-5.69c-1.8,0-3.26,1.46-3.26,3.26c0,0.92,0.38,1.74,1,2.34c-0.61,0.59-1,1.42-1,2.34   c0,0.23,0.03,0.45,0.07,0.67h-0.49c0.06-0.25,0.11-0.52,0.11-0.79c0-1.8-1.46-3.26-3.26-3.26h-3.39c-0.14-0.27-0.31-0.52-0.53-0.74   c0.57-0.59,0.92-1.38,0.92-2.26c0-1.8-1.46-3.26-3.26-3.26h-4.42c-0.52-0.36-1.16-0.57-1.84-0.57h-5.69c-1.8,0-3.26,1.46-3.26,3.26   c0,0.57,0.16,1.1,0.42,1.57c-0.26,0.47-0.42,1-0.42,1.57c0,0.51,0.13,0.99,0.34,1.42c-0.21,0.43-0.34,0.91-0.34,1.42   s0.13,0.99,0.34,1.42c-0.2,0.41-0.32,0.86-0.33,1.34h-0.33c0-0.05,0.02-0.11,0.02-0.16c0-0.28-0.05-0.54-0.11-0.8   c0.02-0.13,0.04-0.26,0.04-0.4c0-0.24-0.03-0.48-0.08-0.7c0.09-0.3,0.15-0.61,0.15-0.94c0-0.51-0.13-0.99-0.34-1.42   c0.21-0.43,0.34-0.91,0.34-1.42c0-0.52-0.14-1.01-0.36-1.45c0.22-0.44,0.36-0.93,0.36-1.45c0-1.8-1.46-3.26-3.26-3.26h-3.22   c-0.03-0.09-0.08-0.18-0.12-0.26c0.21-0.43,0.34-0.91,0.34-1.42c0-0.37-0.08-0.73-0.19-1.06c0.07-0.26,0.12-0.54,0.12-0.82   c0-0.08-0.02-0.15-0.02-0.22c0.06-0.24,0.09-0.49,0.09-0.74c0-0.51-0.13-0.99-0.34-1.42c0.21-0.43,0.34-0.91,0.34-1.42   s-0.13-0.99-0.34-1.42c0.21-0.43,0.34-0.91,0.34-1.42s-0.13-0.99-0.34-1.42c0.21-0.43,0.34-0.91,0.34-1.42   c0-0.51-0.13-0.99-0.34-1.42c0.21-0.43,0.34-0.91,0.34-1.42c0-0.51-0.13-0.99-0.34-1.42c0.21-0.43,0.34-0.91,0.34-1.42   c0-0.51-0.13-0.99-0.34-1.42c0.21-0.43,0.34-0.91,0.34-1.42c0-1.09-0.55-2.06-1.37-2.65c0.83-0.59,1.37-1.56,1.37-2.65   c0-1.8-1.46-3.26-3.26-3.26h-5.69c-1.8,0-3.26,1.46-3.26,3.26c0,1.09,0.55,2.06,1.37,2.65c-0.83,0.59-1.37,1.56-1.37,2.65   c0,0.51,0.13,0.99,0.34,1.42c-0.21,0.43-0.34,0.91-0.34,1.42c0,0.51,0.13,0.99,0.34,1.42c-0.21,0.43-0.34,0.91-0.34,1.42   c0,0.51,0.13,0.99,0.34,1.42c-0.21,0.43-0.34,0.91-0.34,1.42c0,0.02,0,0.03,0,0.05h-0.35c0.02-0.14,0.04-0.27,0.04-0.41   c0-0.59-0.17-1.14-0.44-1.61c0.28-0.48,0.44-1.02,0.44-1.61c0-1.8-1.46-3.26-3.26-3.26h-3.2c0.04-0.14,0.08-0.28,0.1-0.42   c0.07-0.26,0.1-0.54,0.1-0.81c0-0.48-0.11-0.93-0.3-1.34c0.14-0.36,0.23-0.75,0.23-1.16c0-0.22-0.02-0.44-0.07-0.65   c0.08-0.28,0.14-0.58,0.14-0.89c0-0.29-0.05-0.56-0.12-0.82c0.02-0.16,0.05-0.31,0.05-0.48c0-0.6-0.17-1.15-0.46-1.62   c0.29-0.48,0.46-1.03,0.46-1.62c0-1.76-1.43-3.19-3.19-3.19h-5.69c-1.76,0-3.19,1.43-3.19,3.19c0,0.6,0.17,1.15,0.46,1.62   c-0.29,0.48-0.46,1.03-0.46,1.62c0,0.16,0.02,0.32,0.05,0.48c-0.07,0.26-0.12,0.54-0.12,0.82c0,0.31,0.06,0.6,0.14,0.89   c-0.04,0.21-0.07,0.43-0.07,0.65c0,0.41,0.08,0.8,0.23,1.16c-0.19,0.41-0.3,0.86-0.3,1.34c0,0.28,0.04,0.55,0.1,0.81   c0.04,0.24,0.11,0.47,0.19,0.69c-0.19,0.41-0.3,0.86-0.3,1.34c0,0.28,0.04,0.55,0.1,0.81c0.04,0.24,0.11,0.47,0.19,0.69   c-0.19,0.41-0.3,0.86-0.3,1.34c0,0.28,0.04,0.55,0.1,0.81c0.02,0.17,0.07,0.33,0.12,0.48c-0.08,0.28-0.15,0.57-0.15,0.87   c-0.05,0.22-0.07,0.45-0.07,0.68c0,0.25,0.04,0.5,0.09,0.74h-3.09c-1.76,0-3.19,1.43-3.19,3.19c0,0.52,0.13,1,0.35,1.43   c-0.22,0.43-0.35,0.91-0.35,1.43c0,0.51,0.13,0.99,0.35,1.42c-0.22,0.43-0.35,0.91-0.35,1.42c0,0.51,0.13,0.99,0.35,1.42   c-0.22,0.43-0.35,0.91-0.35,1.42c0,0.07,0.02,0.14,0.02,0.21h-0.59c-0.04-0.13-0.09-0.25-0.15-0.36c0.21-0.43,0.34-0.91,0.34-1.42   s-0.13-0.99-0.34-1.42c0.21-0.43,0.34-0.91,0.34-1.42c0-0.23-0.02-0.45-0.07-0.67c0-0.01,0-0.03,0-0.04c0-0.33-0.07-0.65-0.16-0.95   c0.14-0.37,0.23-0.76,0.23-1.18c0-0.51-0.13-0.99-0.34-1.42c0.21-0.43,0.34-0.91,0.34-1.42c0-0.92-0.39-1.75-1.01-2.35   c0.62-0.59,1.01-1.42,1.01-2.35c0-1.8-1.46-3.26-3.26-3.26h-3.02c-0.01-0.22-0.05-0.44-0.11-0.65c0.03-0.18,0.06-0.36,0.06-0.55   c0-0.2-0.02-0.4-0.06-0.59c0.08-0.28,0.13-0.56,0.13-0.86c0-0.29-0.05-0.58-0.13-0.85c0.03-0.18,0.06-0.36,0.06-0.55   c0-0.2-0.02-0.4-0.06-0.59c0.08-0.28,0.13-0.56,0.13-0.86c0-0.3-0.05-0.58-0.13-0.85c0.03-0.18,0.06-0.36,0.06-0.55   c0-0.2-0.02-0.4-0.06-0.59c0.08-0.28,0.13-0.56,0.13-0.86c0-0.3-0.05-0.58-0.13-0.85c0.03-0.18,0.06-0.36,0.06-0.55   c0-0.2-0.02-0.4-0.06-0.59c0.08-0.28,0.13-0.56,0.13-0.86c0-0.29-0.05-0.58-0.13-0.85c0.03-0.18,0.06-0.36,0.06-0.55   c0-0.2-0.02-0.4-0.06-0.59c0.08-0.28,0.13-0.56,0.13-0.86c0-0.51-0.13-0.99-0.34-1.42c0.21-0.43,0.34-0.91,0.34-1.42   c0-0.27-0.03-0.54-0.1-0.8c-0.03-0.25-0.11-0.48-0.19-0.7c0.19-0.41,0.3-0.86,0.3-1.34c0-0.51-0.13-0.99-0.34-1.42   c0.21-0.43,0.34-0.91,0.34-1.42c0-0.51-0.13-0.99-0.34-1.42c0.21-0.43,0.34-0.91,0.34-1.42s-0.13-0.99-0.34-1.42   c0.21-0.43,0.34-0.91,0.34-1.42c0-0.51-0.13-0.99-0.34-1.42c0.21-0.43,0.34-0.91,0.34-1.42c0-0.51-0.13-0.99-0.34-1.42   c0.21-0.43,0.34-0.91,0.34-1.42c0-0.51-0.13-0.99-0.34-1.42c0.21-0.43,0.34-0.91,0.34-1.42c0-0.51-0.13-0.99-0.34-1.42   c0.21-0.43,0.34-0.91,0.34-1.42c0-0.47-0.1-0.91-0.28-1.31c0.18-0.4,0.28-0.85,0.28-1.31c0-1.8-1.46-3.26-3.26-3.26h-5.69   c-1.8,0-3.26,1.46-3.26,3.26c0,0.47,0.1,0.91,0.28,1.31c-0.18,0.4-0.28,0.85-0.28,1.31c0,0.51,0.13,0.99,0.34,1.42   c-0.21,0.43-0.34,0.91-0.34,1.42c0,0.51,0.13,0.99,0.34,1.42c-0.21,0.43-0.34,0.91-0.34,1.42c0,0.51,0.13,0.99,0.34,1.42   c-0.21,0.43-0.34,0.91-0.34,1.42c0,0.51,0.13,0.99,0.34,1.42c-0.21,0.43-0.34,0.91-0.34,1.42c0,0.51,0.13,0.99,0.34,1.42   c-0.21,0.43-0.34,0.91-0.34,1.42s0.13,0.99,0.34,1.42c-0.21,0.43-0.34,0.91-0.34,1.42c0,0.51,0.13,0.99,0.34,1.42   c-0.21,0.43-0.34,0.91-0.34,1.42c0,0.48,0.11,0.93,0.3,1.34c-0.09,0.22-0.16,0.46-0.19,0.7c-0.07,0.26-0.1,0.53-0.1,0.8   c0,0.51,0.13,0.99,0.34,1.42c-0.21,0.43-0.34,0.91-0.34,1.42c0,0.3,0.05,0.58,0.13,0.86c-0.04,0.19-0.06,0.39-0.06,0.59   c0,0.19,0.02,0.37,0.06,0.55c-0.07,0.27-0.13,0.55-0.13,0.85c0,0.3,0.05,0.58,0.13,0.86c-0.04,0.19-0.06,0.39-0.06,0.59   c0,0.19,0.02,0.37,0.06,0.55c-0.07,0.27-0.13,0.55-0.13,0.85c0,0.3,0.05,0.58,0.13,0.86c-0.04,0.19-0.06,0.39-0.06,0.59   c0,0.04,0.01,0.09,0.01,0.13h-3.08c-1.76,0-3.19,1.43-3.19,3.19c0,1,0.47,1.88,1.19,2.47c-0.67,0.54-1.1,1.33-1.17,2.24h-3.09   c-1.8,0-3.26,1.46-3.26,3.26c0,0.73,0.25,1.39,0.65,1.93c-0.4,0.54-0.65,1.21-0.65,1.93c0,0.28,0.04,0.57,0.11,0.84   c-0.02,0.14-0.04,0.27-0.04,0.41c0,0.23,0.03,0.46,0.08,0.68c-0.09,0.29-0.15,0.59-0.15,0.91c0,0.29,0.04,0.57,0.11,0.84   c0.03,0.19,0.08,0.36,0.14,0.54c-0.08,0.23-0.14,0.48-0.17,0.73c-0.06,0.24-0.08,0.48-0.08,0.73c0,0.29,0.04,0.57,0.11,0.84   c0.03,0.18,0.08,0.36,0.14,0.54c-0.01,0.03-0.03,0.06-0.04,0.09h-0.64c-0.01-0.06-0.01-0.13-0.02-0.19   c0.01-0.07,0.03-0.13,0.04-0.19c0.06-0.25,0.1-0.52,0.1-0.78c0-0.27-0.03-0.54-0.1-0.79c0.02-0.14,0.03-0.28,0.03-0.42   c0-0.24-0.03-0.47-0.08-0.7c0.09-0.3,0.15-0.61,0.15-0.93c0-0.27-0.03-0.54-0.1-0.79c0.02-0.14,0.03-0.28,0.03-0.42   c0-0.24-0.03-0.47-0.08-0.7c0.09-0.3,0.15-0.61,0.15-0.93c0-0.27-0.03-0.54-0.1-0.79c0.02-0.14,0.03-0.28,0.03-0.42   c0-0.24-0.03-0.47-0.08-0.7c0.09-0.3,0.15-0.61,0.15-0.93c0-0.27-0.03-0.54-0.1-0.79c0.02-0.14,0.03-0.28,0.03-0.42   c0-0.24-0.03-0.47-0.08-0.7c0.09-0.3,0.15-0.61,0.15-0.93c0-0.38-0.08-0.73-0.19-1.07c0.07-0.27,0.12-0.54,0.12-0.83   c0-0.07-0.02-0.14-0.02-0.21c0.06-0.24,0.09-0.48,0.09-0.74c0-0.51-0.13-0.99-0.34-1.42c0.21-0.43,0.34-0.91,0.34-1.42   c0-0.55-0.15-1.06-0.39-1.52c0.24-0.46,0.39-0.97,0.39-1.52c0-1.8-1.46-3.26-3.26-3.26h-3.08c-0.02-0.46-0.14-0.88-0.33-1.27   c0.22-0.43,0.35-0.91,0.35-1.42c0-0.51-0.13-0.99-0.35-1.42c0.22-0.43,0.35-0.91,0.35-1.42c0-0.51-0.13-0.99-0.35-1.42   c0.22-0.43,0.35-0.91,0.35-1.42c0-0.7-0.23-1.34-0.61-1.86c0.38-0.52,0.61-1.16,0.61-1.86c0-1.76-1.43-3.19-3.19-3.19h-5.69   c-1.76,0-3.19,1.43-3.19,3.19c0,0.7,0.23,1.34,0.61,1.86c-0.35,0.49-0.56,1.07-0.59,1.71h-3.08c-1.8,0-3.26,1.46-3.26,3.26   c0,0.27,0.04,0.53,0.11,0.78c-0.01,0.12-0.04,0.23-0.04,0.35c0,0.57,0.16,1.11,0.43,1.57c-0.31,0.5-0.5,1.09-0.5,1.72   c0,0.31,0.06,0.62,0.15,0.91h-3.15c-1.72,0-3.13,1.37-3.19,3.07c-0.05,0.22-0.07,0.45-0.07,0.68c0,0.54,0.15,1.05,0.38,1.5   c-0.19,0.41-0.31,0.87-0.31,1.35c0,0.33,0.06,0.64,0.16,0.94c-0.08,0.27-0.15,0.55-0.16,0.84c-0.05,0.22-0.07,0.45-0.07,0.68   c0,0.37,0.08,0.72,0.19,1.05c-0.07,0.26-0.12,0.53-0.12,0.82c0,0.07,0,0.13,0.01,0.2c0,0.03,0,0.06,0,0.09   c-0.05,0.22-0.07,0.45-0.07,0.68c0,0.37,0.08,0.72,0.19,1.05c-0.07,0.26-0.12,0.53-0.12,0.82c0,0.07,0,0.13,0.01,0.2   c0,0.03,0,0.06,0,0.09c-0.05,0.22-0.07,0.45-0.07,0.68c0,0.37,0.08,0.72,0.19,1.05c-0.07,0.26-0.12,0.53-0.12,0.82   c0,0.07,0,0.13,0.01,0.2c0,0.03,0,0.06,0,0.09c-0.01,0.05-0.01,0.1-0.02,0.15h-0.37c0-0.05,0.01-0.1,0.01-0.15   c0-0.23-0.02-0.45-0.07-0.67c0-0.32-0.07-0.62-0.16-0.91c0.04-0.13,0.08-0.26,0.11-0.4c0.08-0.28,0.12-0.57,0.12-0.86   c0-0.48-0.11-0.94-0.3-1.35c0.15-0.37,0.23-0.76,0.23-1.18c0-0.07-0.02-0.14-0.02-0.22c0.06-0.24,0.09-0.48,0.09-0.74   c0-0.91-0.38-1.73-0.98-2.33c0.56-0.58,0.91-1.36,0.91-2.23c0-1.76-1.43-3.19-3.19-3.19h-3.09c-0.01-0.09-0.01-0.18-0.03-0.27   c0.03-0.17,0.05-0.34,0.05-0.52c0-0.32-0.06-0.61-0.15-0.9c0.09-0.29,0.15-0.59,0.15-0.9c0-0.51-0.13-0.99-0.35-1.42   c0.22-0.43,0.35-0.91,0.35-1.42c0-0.51-0.13-0.99-0.35-1.42c0.22-0.43,0.35-0.91,0.35-1.42s-0.13-0.99-0.35-1.42   c0.22-0.43,0.35-0.91,0.35-1.42c0-0.51-0.13-0.99-0.35-1.42c0.22-0.43,0.35-0.91,0.35-1.42c0-1.21-0.69-2.25-1.68-2.79   c1-0.54,1.68-1.58,1.68-2.79c0-1.76-1.43-3.19-3.19-3.19h-3.02c-0.02-0.45-0.14-0.87-0.32-1.25c0.21-0.43,0.34-0.91,0.34-1.42   c0-0.85-0.33-1.61-0.86-2.19c0.53-0.58,0.86-1.34,0.86-2.19c0-1.8-1.46-3.26-3.26-3.26h-3.05c0.03-0.18,0.05-0.35,0.05-0.54   c0-0.51-0.13-0.99-0.34-1.42c0.21-0.43,0.34-0.91,0.34-1.42c0-0.51-0.13-0.99-0.34-1.42c0.21-0.43,0.34-0.91,0.34-1.42   c0-0.51-0.13-0.99-0.34-1.42c0.21-0.43,0.34-0.91,0.34-1.42c0-0.51-0.13-0.99-0.34-1.42c0.21-0.43,0.34-0.91,0.34-1.42   c0-0.51-0.13-0.99-0.34-1.42c0.21-0.43,0.34-0.91,0.34-1.42c0-0.51-0.13-0.99-0.34-1.42c0.21-0.43,0.34-0.91,0.34-1.42   c0-0.51-0.13-0.99-0.34-1.42c0.21-0.43,0.34-0.91,0.34-1.42c0-0.51-0.13-0.99-0.34-1.42c0.21-0.43,0.34-0.91,0.34-1.42   c0-0.51-0.13-0.99-0.34-1.42c0.21-0.43,0.34-0.91,0.34-1.42c0-0.51-0.13-0.99-0.34-1.42c0.21-0.43,0.34-0.91,0.34-1.42   c0-0.51-0.13-0.99-0.34-1.42c0.21-0.43,0.34-0.91,0.34-1.42s-0.13-0.99-0.34-1.42c0.21-0.43,0.34-0.91,0.34-1.42   s-0.13-0.99-0.34-1.42c0.21-0.43,0.34-0.91,0.34-1.42c0-0.51-0.13-0.99-0.34-1.42c0.21-0.43,0.34-0.91,0.34-1.42   c0-0.51-0.13-0.99-0.34-1.42c0.21-0.43,0.34-0.91,0.34-1.42c0-0.51-0.13-0.99-0.34-1.42c0.21-0.43,0.34-0.91,0.34-1.42   c0-0.51-0.13-0.99-0.34-1.42c0.21-0.43,0.34-0.91,0.34-1.42s-0.13-0.99-0.34-1.42c0.21-0.43,0.34-0.91,0.34-1.42   c0-0.94-0.4-1.77-1.03-2.37c0.63-0.59,1.03-1.43,1.03-2.37c0-1.8-1.46-3.26-3.26-3.26h-5.69c-1.8,0-3.26,1.46-3.26,3.26   c0,0.94,0.4,1.77,1.03,2.37c-0.63,0.59-1.03,1.43-1.03,2.37c0,0.51,0.13,0.99,0.34,1.42c-0.21,0.43-0.34,0.91-0.34,1.42   s0.13,0.99,0.34,1.42c-0.21,0.43-0.34,0.91-0.34,1.42c0,0.51,0.13,0.99,0.34,1.42c-0.21,0.43-0.34,0.91-0.34,1.42   c0,0.51,0.13,0.99,0.34,1.42c-0.21,0.43-0.34,0.91-0.34,1.42c0,0.51,0.13,0.99,0.34,1.42c-0.21,0.43-0.34,0.91-0.34,1.42   c0,0.51,0.13,0.99,0.34,1.42c-0.21,0.43-0.34,0.91-0.34,1.42s0.13,0.99,0.34,1.42c-0.21,0.43-0.34,0.91-0.34,1.42   s0.13,0.99,0.34,1.42c-0.21,0.43-0.34,0.91-0.34,1.42c0,0.51,0.13,0.99,0.34,1.42c-0.21,0.43-0.34,0.91-0.34,1.42   c0,0.51,0.13,0.99,0.34,1.42c-0.21,0.43-0.34,0.91-0.34,1.42c0,0.51,0.13,0.99,0.34,1.42c-0.21,0.43-0.34,0.91-0.34,1.42   c0,0.51,0.13,0.99,0.34,1.42c-0.21,0.43-0.34,0.91-0.34,1.42c0,0.51,0.13,0.99,0.34,1.42c-0.21,0.43-0.34,0.91-0.34,1.42   c0,0.51,0.13,0.99,0.34,1.42c-0.21,0.43-0.34,0.91-0.34,1.42c0,0.51,0.13,0.99,0.34,1.42c-0.21,0.43-0.34,0.91-0.34,1.42   c0,0.41,0.09,0.81,0.23,1.17h-3.23c-1.76,0-3.19,1.43-3.19,3.19c0,0.86,0.34,1.63,0.89,2.2c-0.55,0.57-0.89,1.35-0.89,2.2   c0,0.51,0.13,0.99,0.35,1.42c-0.22,0.43-0.35,0.91-0.35,1.42c0,0.51,0.13,0.99,0.35,1.42c-0.22,0.43-0.35,0.91-0.35,1.42   c0,0.51,0.13,0.99,0.35,1.42c-0.22,0.43-0.35,0.91-0.35,1.42c0,0.51,0.13,0.99,0.35,1.42c-0.22,0.43-0.35,0.91-0.35,1.42   c0,0.51,0.13,0.99,0.35,1.42c-0.22,0.43-0.35,0.91-0.35,1.42c0,0.51,0.13,0.99,0.35,1.42c-0.22,0.43-0.35,0.91-0.35,1.42   c0,0.51,0.13,0.99,0.35,1.42c-0.22,0.43-0.35,0.91-0.35,1.42c0,0.22,0.02,0.43,0.06,0.64c-0.04,0.21-0.06,0.42-0.06,0.64   c0,0.27,0.04,0.53,0.11,0.78c-0.06,0.25-0.11,0.51-0.11,0.78c0,0.4,0.08,0.78,0.22,1.13c-0.13,0.35-0.22,0.73-0.22,1.13   c0,0.1,0,0.19,0.01,0.29c-0.01,0.1-0.01,0.19-0.01,0.29c0,0.32,0.06,0.63,0.15,0.93c-0.09,0.3-0.15,0.6-0.15,0.93   c0,0.07,0,0.14,0.01,0.21c0,0.07-0.01,0.14-0.01,0.21c0,0.1,0,0.19,0.01,0.29c-0.01,0.1-0.01,0.19-0.01,0.29   c0,0.4,0.08,0.78,0.22,1.13c-0.13,0.35-0.22,0.73-0.22,1.13c0,0.06,0,0.11,0,0.17c0,0.06,0,0.37,0,0.41c0,0.4,0.08,0.78,0.22,1.13   c-0.14,0.35-0.22,0.73-0.22,1.13c0,0.06,0,0.11,0,0.17c0,0.06,0,0.37,0,0.41c0,0.4,0.08,0.78,0.22,1.13   c-0.14,0.35-0.22,0.73-0.22,1.13c0,0.06,0,0.11,0,0.17c0,0.06,0,0.37,0,0.41c0,0.4,0.08,0.79,0.22,1.14   c-0.18,0.41-0.29,0.83-0.29,1.28c0,0.25,0.03,0.49,0.08,0.73c0.03,0.29,0.11,0.56,0.2,0.82c-0.14,0.35-0.22,0.74-0.22,1.14   c0,0.06,0,0.11,0,0.17c0,0.06,0,0.37,0,0.41c0,0.28,0.05,0.55,0.12,0.8c-0.11,0.33-0.19,0.67-0.19,1.04c0,0.08,0.02,0.16,0.02,0.24   h-0.49c0.03-0.14,0.06-0.28,0.07-0.42l0.01-0.04v-0.4c0-0.51-0.13-0.99-0.35-1.42c0.22-0.43,0.35-0.91,0.35-1.42   c0-0.18-0.02-0.36-0.05-0.54c0.03-0.18,0.05-0.35,0.05-0.54c0-0.31-0.06-0.6-0.14-0.89c0.08-0.28,0.14-0.58,0.14-0.89   c0-0.51-0.13-0.99-0.35-1.42c0.22-0.43,0.35-0.91,0.35-1.42c0-0.62-0.18-1.19-0.49-1.67c0.3-0.49,0.49-1.06,0.49-1.67   c0-1.76-1.43-3.19-3.19-3.19h-3.2c0.12-0.34,0.2-0.7,0.2-1.08c0-0.23-0.03-0.47-0.08-0.7c-0.02-0.3-0.09-0.58-0.19-0.86   c0.17-0.4,0.27-0.83,0.27-1.29c0-0.24-0.03-0.47-0.08-0.7c-0.02-0.3-0.09-0.58-0.19-0.85c0.17-0.4,0.27-0.83,0.27-1.29   c0-0.24-0.03-0.47-0.08-0.7c-0.02-0.3-0.09-0.58-0.19-0.86c0.17-0.4,0.27-0.83,0.27-1.29c0-0.24-0.03-0.47-0.08-0.7   c-0.02-0.3-0.09-0.58-0.19-0.86c0.17-0.4,0.27-0.83,0.27-1.29c0-0.24-0.03-0.47-0.08-0.7c-0.02-0.3-0.09-0.58-0.19-0.85   c0.17-0.4,0.27-0.83,0.27-1.29c0-0.25-0.03-0.49-0.08-0.72c-0.02-0.29-0.1-0.57-0.19-0.83c0.17-0.4,0.27-0.83,0.27-1.29   c0-0.25-0.03-0.49-0.08-0.72c-0.02-0.29-0.1-0.57-0.19-0.83c0.17-0.4,0.27-0.83,0.27-1.29c0-0.25-0.03-0.49-0.08-0.72   c-0.02-0.29-0.1-0.57-0.19-0.83c0.17-0.4,0.27-0.83,0.27-1.29c0-0.3-0.05-0.58-0.13-0.85c0.03-0.18,0.06-0.37,0.06-0.56   c0-0.36-0.07-0.7-0.18-1.02c0.16-0.39,0.25-0.81,0.25-1.26c0-1.8-1.46-3.26-3.26-3.26h-3.22c-0.05-0.16-0.11-0.32-0.18-0.46   c0.14-0.28,0.25-0.58,0.3-0.91l0.04-0.12l0-0.78l-0.03-0.11c-0.1-0.69-0.43-1.29-0.9-1.76c0.58-0.58,0.94-1.38,0.94-2.26   c0-1.76-1.43-3.19-3.19-3.19h-3.08c0.05-0.22,0.08-0.45,0.08-0.69c0-0.51-0.13-0.99-0.34-1.42c0.22-0.44,0.34-0.92,0.34-1.43   c0-0.51-0.13-0.99-0.34-1.41c0.22-0.44,0.34-0.92,0.34-1.43c0-0.51-0.13-0.98-0.33-1.41c0.21-0.44,0.33-0.92,0.33-1.44   c0-0.51-0.13-0.99-0.34-1.42c0.21-0.43,0.34-0.91,0.34-1.42c0-0.36-0.07-0.7-0.18-1.02c0.06-0.25,0.11-0.51,0.11-0.79   c0-0.09-0.02-0.18-0.03-0.28c0.06-0.24,0.1-0.5,0.1-0.76c0-0.51-0.13-0.99-0.34-1.42c0.21-0.43,0.34-0.91,0.34-1.42   c0-1.07-0.53-2.02-1.33-2.61c0.8-0.59,1.33-1.54,1.33-2.61c0-1.8-1.46-3.26-3.26-3.26h-5.69c-1.8,0-3.26,1.46-3.26,3.26   c0,1.07,0.53,2.02,1.33,2.61c-0.8,0.59-1.33,1.54-1.33,2.61c0,0.51,0.13,0.99,0.34,1.42c-0.21,0.43-0.34,0.91-0.34,1.42   c0,0.26,0.04,0.51,0.1,0.76c-0.01,0.09-0.03,0.18-0.03,0.28c0,0.27,0.05,0.53,0.11,0.79c-0.11,0.32-0.18,0.66-0.18,1.02   c0,0.24,0.03,0.47,0.08,0.69h-3.07c-0.94,0-1.78,0.42-2.36,1.07h-3.89c-1.8,0-3.26,1.46-3.26,3.26c0,0.08,0.02,0.15,0.02,0.22   h-3.02c-1.76,0-3.19,1.43-3.19,3.19c0,0.56,0.16,1.09,0.42,1.55c-0.26,0.46-0.42,0.98-0.42,1.55c0,0.51,0.13,0.99,0.35,1.42   c-0.22,0.43-0.35,0.91-0.35,1.42c0,0.39,0.08,0.76,0.21,1.11H1011c-1.76,0-3.19,1.43-3.19,3.19c0,0.79,0.3,1.5,0.78,2.06   c-0.48,0.56-0.78,1.27-0.78,2.06c0,0.51,0.13,0.99,0.35,1.42c-0.22,0.43-0.35,0.91-0.35,1.42c0,0.17,0.02,0.33,0.05,0.5   c-0.03,0.16-0.05,0.33-0.05,0.5c0,0.32,0.06,0.63,0.15,0.92c-0.09,0.29-0.15,0.6-0.15,0.92c0,0.51,0.13,0.98,0.34,1.41   c-0.18,0.36-0.3,0.75-0.33,1.18l-0.01,0.04v0.42c0,0.47,0.11,0.92,0.29,1.32c-0.15,0.33-0.26,0.7-0.29,1.08l-0.01,0.03v0.41   c0,0.47,0.11,0.92,0.29,1.32c-0.15,0.33-0.26,0.7-0.29,1.08l-0.01,0.03c0,0,0,0.49,0,0.52c-0.05,0.22-0.07,0.45-0.07,0.68   c0,0.27,0.04,0.53,0.11,0.78c-0.01,0.12-0.04,0.23-0.04,0.35c0,0.12,0.01,0.24,0.02,0.36c0,0.03-0.01,0.07-0.01,0.1l-0.01,0.04   v0.42c0,0.45,0.1,0.88,0.26,1.27c-0.21,0.43-0.33,0.89-0.33,1.38c0,0.41,0.08,0.82,0.23,1.2c0.03,0.09,0.07,0.17,0.11,0.26   c-0.21,0.44-0.34,0.9-0.34,1.39c0,0.41,0.08,0.82,0.23,1.2c0,0.01,0.01,0.02,0.01,0.02h-0.71c0.09-0.3,0.16-0.62,0.16-0.95   c0-0.48-0.11-0.95-0.31-1.38c-0.01-0.02-0.02-0.03-0.03-0.05c0.21-0.43,0.34-0.91,0.34-1.41c0-0.25-0.03-0.49-0.08-0.72   c0.01-0.08,0.01-0.17,0.01-0.25c0-0.28-0.05-0.55-0.12-0.82c0.11-0.33,0.19-0.68,0.19-1.05c0-0.51-0.13-0.99-0.34-1.42   c0.21-0.43,0.34-0.91,0.34-1.42s-0.13-0.99-0.34-1.42c0.21-0.43,0.34-0.91,0.34-1.42s-0.13-0.99-0.34-1.42   c0.21-0.43,0.34-0.91,0.34-1.42c0-0.51-0.13-0.99-0.34-1.42c0.21-0.43,0.34-0.91,0.34-1.42c0-0.51-0.13-0.99-0.34-1.42   c0.21-0.43,0.34-0.91,0.34-1.42s-0.13-0.99-0.34-1.42c0.21-0.43,0.34-0.91,0.34-1.42c0-0.51-0.13-0.99-0.34-1.42   c0.21-0.43,0.34-0.91,0.34-1.42c0-0.72-0.24-1.37-0.63-1.91c0.39-0.54,0.63-1.19,0.63-1.91c0-1.8-1.46-3.26-3.26-3.26h-3.06   c-0.05-0.29-0.15-0.56-0.28-0.82c0.21-0.43,0.34-0.91,0.34-1.42c0-0.51-0.13-0.99-0.34-1.42c0.21-0.43,0.34-0.91,0.34-1.42   s-0.13-0.99-0.34-1.42c0.21-0.43,0.34-0.91,0.34-1.42c0-0.51-0.13-0.99-0.34-1.42c0.21-0.43,0.34-0.91,0.34-1.42   c0-1.09-0.55-2.06-1.38-2.65c0.83-0.59,1.38-1.56,1.38-2.65c0-1.8-1.46-3.26-3.26-3.26h-5.69c-0.23,0-0.46,0.02-0.67,0.07h-5.58   c-1.76,0-3.19,1.43-3.19,3.19c0,1,0.48,1.89,1.2,2.47c-0.73,0.59-1.2,1.47-1.2,2.47c0,0.51,0.13,0.99,0.35,1.42   c-0.22,0.43-0.35,0.91-0.35,1.42c0,0.51,0.13,0.99,0.35,1.42c-0.22,0.43-0.35,0.91-0.35,1.42c0,0.51,0.13,0.99,0.35,1.42   c-0.22,0.43-0.35,0.91-0.35,1.42c0,0.51,0.13,0.99,0.35,1.42c-0.22,0.43-0.35,0.91-0.35,1.42c0,0.51,0.13,0.99,0.35,1.42   c-0.22,0.43-0.35,0.91-0.35,1.42c0,0.43,0.09,0.85,0.25,1.22c-0.16,0.38-0.25,0.79-0.25,1.22c0,0.07,0,0.13,0.01,0.2   c0,0.07-0.01,0.13-0.01,0.2c0,0.13,0.02,0.26,0.04,0.39h-3.11c-1.76,0-3.19,1.43-3.19,3.19c0,0.72,0.25,1.38,0.65,1.91   c-0.4,0.53-0.65,1.19-0.65,1.91c0,0.51,0.13,0.99,0.35,1.42c-0.22,0.43-0.35,0.91-0.35,1.42c0,0.51,0.13,0.99,0.35,1.42   c-0.22,0.43-0.35,0.91-0.35,1.42c0,0.51,0.13,0.99,0.35,1.42c-0.22,0.43-0.35,0.91-0.35,1.42c0,0.51,0.13,0.99,0.35,1.42   c-0.22,0.43-0.35,0.91-0.35,1.42c0,0.22,0.02,0.44,0.07,0.65c-0.04,0.21-0.07,0.43-0.07,0.65c0,0.27,0.04,0.53,0.11,0.78   c-0.06,0.25-0.11,0.51-0.11,0.78c0,0.13,0.02,0.25,0.04,0.38h-3.11c-1.76,0-3.19,1.43-3.19,3.19c0,0.84,0.33,1.59,0.86,2.16   c-0.53,0.57-0.86,1.33-0.86,2.16c0,0.51,0.13,0.99,0.35,1.42c-0.22,0.43-0.35,0.91-0.35,1.42s0.13,0.99,0.35,1.42   c-0.22,0.43-0.35,0.91-0.35,1.42c0,0.51,0.13,0.99,0.35,1.42c-0.22,0.43-0.35,0.91-0.35,1.42c0,0.51,0.13,0.99,0.35,1.42   c-0.22,0.43-0.35,0.91-0.35,1.42s0.13,0.99,0.35,1.42c-0.22,0.43-0.35,0.91-0.35,1.42c0,0.33,0.07,0.65,0.16,0.95h-0.72   c0.11-0.32,0.18-0.67,0.18-1.03c0-0.3-0.04-0.59-0.12-0.88c-0.04-0.21-0.1-0.41-0.18-0.61c0.19-0.41,0.31-0.87,0.31-1.36   c0-0.3-0.04-0.59-0.12-0.88c-0.04-0.21-0.1-0.41-0.18-0.61c0.19-0.41,0.31-0.87,0.31-1.36c0-0.3-0.04-0.59-0.12-0.88   c-0.04-0.21-0.1-0.41-0.18-0.61c0.19-0.41,0.31-0.87,0.31-1.36c0-0.3-0.04-0.59-0.12-0.88c-0.04-0.21-0.1-0.41-0.18-0.61   c0.19-0.41,0.31-0.87,0.31-1.36c0-0.24-0.03-0.48-0.08-0.71c0-0.04,0.01-0.08,0.01-0.12c0-0.31-0.06-0.6-0.14-0.89   c0.13-0.35,0.21-0.73,0.21-1.12c0-0.51-0.13-0.99-0.34-1.42c0.21-0.43,0.34-0.91,0.34-1.42s-0.13-0.99-0.34-1.42   c0.21-0.43,0.34-0.91,0.34-1.42c0-0.57-0.16-1.09-0.41-1.56c0.25-0.46,0.41-0.99,0.41-1.56c0-1.8-1.46-3.26-3.26-3.26h-3.07l0-0.6   l-0.06-0.18c-0.08-0.39-0.23-0.75-0.44-1.08c0.31-0.49,0.5-1.08,0.5-1.7c0-0.19-0.02-0.38-0.06-0.57c0.03-0.19,0.06-0.37,0.06-0.57   c0-1.76-1.43-3.19-3.19-3.19h-5.69c-1.76,0-3.19,1.43-3.19,3.19c0,0.19,0.02,0.38,0.06,0.57c-0.03,0.19-0.06,0.37-0.06,0.57   c0,0.63,0.19,1.21,0.5,1.7c-0.21,0.33-0.36,0.69-0.44,1.08l-0.06,0.19l0,0.87l0.05,0.17c0.05,0.29,0.16,0.57,0.29,0.83   c-0.13,0.26-0.24,0.54-0.29,0.83l-0.05,0.17l0,0.63h-3.07c-1.76,0-3.19,1.43-3.19,3.19c0,1.16,0.63,2.17,1.56,2.73   c-0.93,0.56-1.56,1.57-1.56,2.73c0,0.51,0.13,0.99,0.35,1.42c-0.22,0.43-0.35,0.91-0.35,1.42c0,0.51,0.13,0.99,0.35,1.42   c-0.22,0.43-0.35,0.91-0.35,1.42c0,0.51,0.13,0.99,0.35,1.42c-0.22,0.43-0.35,0.91-0.35,1.42s0.13,0.99,0.35,1.42   c-0.11,0.21-0.19,0.44-0.25,0.67h-0.57c0-0.01,0-0.03-0.01-0.04c-0.02-0.14-0.06-0.27-0.09-0.4c0.07-0.27,0.13-0.55,0.13-0.84   c0-0.04,0-0.08,0-0.12c0.05-0.22,0.07-0.45,0.07-0.68c0-0.25-0.04-0.49-0.09-0.73c0-0.06,0.02-0.13,0.02-0.19   c0-0.19-0.02-0.38-0.06-0.56c0.03-0.18,0.06-0.37,0.06-0.56c0-0.03-0.01-0.07-0.01-0.1c0.05-0.23,0.08-0.46,0.08-0.7   c0-0.4-0.08-0.78-0.22-1.14c0.09-0.29,0.15-0.59,0.15-0.9c0-0.03-0.01-0.07-0.01-0.1c0.05-0.23,0.08-0.46,0.08-0.7   c0-0.4-0.08-0.78-0.22-1.14c0.09-0.29,0.15-0.59,0.15-0.9c0-0.03-0.01-0.06-0.01-0.1c0.05-0.23,0.08-0.46,0.08-0.7   c0-0.5-0.12-0.98-0.33-1.4c0.04-0.1,0.09-0.21,0.12-0.32c0.14-0.36,0.21-0.74,0.21-1.13c0-0.51-0.13-0.99-0.34-1.42   c0.21-0.43,0.34-0.91,0.34-1.42c0-0.51-0.13-0.99-0.34-1.42c0.21-0.43,0.34-0.91,0.34-1.42c0-0.51-0.13-0.99-0.34-1.42   c0.21-0.43,0.34-0.91,0.34-1.42c0-0.51-0.13-0.99-0.34-1.42c0.21-0.43,0.34-0.91,0.34-1.42c0-0.51-0.13-0.99-0.34-1.42   c0.21-0.43,0.34-0.91,0.34-1.42c0-0.51-0.13-0.99-0.34-1.42c0.21-0.43,0.34-0.91,0.34-1.42c0-0.51-0.13-0.99-0.34-1.42   c0.21-0.43,0.34-0.91,0.34-1.42c0-0.51-0.13-0.99-0.34-1.42c0.21-0.43,0.34-0.91,0.34-1.42c0-0.51-0.13-0.99-0.34-1.42   c0.21-0.43,0.34-0.91,0.34-1.42c0-0.51-0.13-0.99-0.34-1.42c0.21-0.43,0.34-0.91,0.34-1.42c0-1.15-0.6-2.16-1.5-2.74   c0.9-0.58,1.5-1.59,1.5-2.74c0-1.8-1.46-3.26-3.26-3.26h-5.69c-1.8,0-3.26,1.46-3.26,3.26c0,1.15,0.6,2.16,1.5,2.74   c-0.9,0.58-1.5,1.59-1.5,2.74c0,0.51,0.13,0.99,0.34,1.42c-0.21,0.43-0.34,0.91-0.34,1.42c0,0.51,0.13,0.99,0.34,1.42   c-0.21,0.43-0.34,0.91-0.34,1.42c0,0.51,0.13,0.99,0.34,1.42c-0.21,0.43-0.34,0.91-0.34,1.42c0,0.51,0.13,0.99,0.34,1.42   c-0.21,0.43-0.34,0.91-0.34,1.42c0,0.51,0.13,0.99,0.34,1.42c-0.21,0.43-0.34,0.91-0.34,1.42c0,0.51,0.13,0.99,0.34,1.42   c-0.11,0.23-0.21,0.47-0.26,0.72h-0.45c0.04-0.21,0.07-0.43,0.07-0.65c0-0.27-0.04-0.52-0.1-0.77c0.01-0.1,0.03-0.2,0.03-0.31   c0-0.27-0.04-0.52-0.1-0.77c0.1-0.32,0.17-0.65,0.17-1c0-0.27-0.04-0.52-0.1-0.77c0.01-0.1,0.03-0.2,0.03-0.31   c0-0.27-0.04-0.52-0.1-0.77c0.1-0.32,0.17-0.65,0.17-1c0-0.27-0.04-0.52-0.1-0.77c0.01-0.1,0.03-0.2,0.03-0.31   c0-0.27-0.04-0.52-0.1-0.77c0.1-0.32,0.17-0.65,0.17-1c0-0.27-0.04-0.52-0.1-0.77c0.01-0.1,0.03-0.2,0.03-0.31   c0-0.27-0.04-0.52-0.1-0.77c0.1-0.32,0.17-0.65,0.17-1c0-0.37-0.07-0.71-0.19-1.04c0.07-0.26,0.12-0.53,0.12-0.81   c0-0.08-0.02-0.16-0.02-0.25c0.06-0.24,0.1-0.49,0.1-0.75c0-0.51-0.13-0.99-0.34-1.42c0.21-0.43,0.34-0.91,0.34-1.42   c0-0.51-0.13-0.99-0.34-1.42c0.21-0.43,0.34-0.91,0.34-1.42s-0.13-0.99-0.34-1.42c0.21-0.43,0.34-0.91,0.34-1.42   c0-0.51-0.13-0.99-0.34-1.42c0.21-0.43,0.34-0.91,0.34-1.42c0-0.51-0.13-0.99-0.34-1.42c0.21-0.43,0.34-0.91,0.34-1.42   s-0.13-0.99-0.34-1.42c0.21-0.43,0.34-0.91,0.34-1.42c0-0.51-0.13-0.99-0.34-1.42c0.21-0.43,0.34-0.91,0.34-1.42   s-0.13-0.99-0.34-1.42c0.21-0.43,0.34-0.91,0.34-1.42c0-0.51-0.13-0.99-0.34-1.42c0.21-0.43,0.34-0.91,0.34-1.42   c0-0.51-0.13-0.99-0.34-1.42c0.21-0.43,0.34-0.91,0.34-1.42c0-0.92-0.39-1.75-1.01-2.35c0.62-0.59,1.01-1.42,1.01-2.35   c0-1.8-1.46-3.26-3.26-3.26h-5.69c-1.8,0-3.26,1.46-3.26,3.26c0,0.92,0.39,1.75,1.01,2.35c-0.62,0.59-1.01,1.42-1.01,2.35   c0,0.51,0.13,0.99,0.34,1.42c-0.21,0.43-0.34,0.91-0.34,1.42c0,0.51,0.13,0.99,0.34,1.42c-0.21,0.43-0.34,0.91-0.34,1.42   c0,0.22,0.02,0.44,0.07,0.65h-3.06c-1.76,0-3.19,1.43-3.19,3.19c0,0.51,0.13,0.98,0.34,1.4c-0.21,0.43-0.34,0.9-0.34,1.4   c0,0.51,0.13,0.99,0.35,1.42c-0.22,0.43-0.35,0.91-0.35,1.42c0,0.51,0.13,0.99,0.35,1.42c-0.22,0.43-0.35,0.91-0.35,1.42   s0.13,0.99,0.35,1.42c-0.22,0.43-0.35,0.91-0.35,1.42c0,0.51,0.13,0.99,0.35,1.42c-0.22,0.43-0.35,0.91-0.35,1.42   c0,0.51,0.13,0.99,0.35,1.42c-0.22,0.43-0.35,0.91-0.35,1.42c0,0.51,0.13,0.99,0.35,1.42c-0.22,0.43-0.35,0.91-0.35,1.42   c0,0.51,0.13,0.99,0.35,1.42c-0.22,0.43-0.35,0.91-0.35,1.42c0,0.51,0.13,0.99,0.35,1.42c-0.22,0.43-0.35,0.91-0.35,1.42   c0,0.51,0.13,0.99,0.35,1.42c-0.22,0.43-0.35,0.91-0.35,1.42c0,0.51,0.13,0.99,0.35,1.42c-0.22,0.43-0.35,0.91-0.35,1.42   c0,0.07,0.02,0.13,0.02,0.19h-0.48c-0.02-0.93-0.44-1.75-1.09-2.32c0.67-0.58,1.09-1.43,1.09-2.39c0-1.76-1.43-3.19-3.19-3.19   h-5.69c-1.76,0-3.19,1.43-3.19,3.19c0,0.95,0.43,1.8,1.09,2.39c-0.67,0.58-1.09,1.43-1.09,2.39c0,0.51,0.13,0.99,0.35,1.42   c-0.22,0.43-0.35,0.91-0.35,1.42c0,0.51,0.13,0.99,0.35,1.42c-0.22,0.43-0.35,0.91-0.35,1.42c0,0.16,0.02,0.31,0.05,0.46   c-0.02,0.15-0.05,0.3-0.05,0.46c0,0.34,0.07,0.66,0.16,0.96c-0.1,0.31-0.16,0.62-0.16,0.96c0,0.16,0.02,0.32,0.05,0.47   c-0.02,0.16-0.05,0.31-0.05,0.47c0,0.33,0.07,0.65,0.16,0.95c-0.09,0.3-0.16,0.62-0.16,0.95c0,0.16,0.02,0.32,0.05,0.47   c-0.02,0.16-0.05,0.31-0.05,0.47c0,0.11,0.02,0.22,0.03,0.34c-0.06,0.25-0.1,0.51-0.1,0.78c0,0.24,0.03,0.47,0.08,0.7   c0,0.03-0.01,0.06-0.01,0.09c0,0.16,0.02,0.32,0.05,0.47c-0.02,0.16-0.05,0.31-0.05,0.47c0,0.19,0.02,0.37,0.06,0.56   c-0.03,0.18-0.06,0.37-0.06,0.56c0,0.09,0.02,0.17,0.03,0.25c-0.06,0.24-0.1,0.49-0.1,0.74c0,0.23,0.02,0.46,0.07,0.68   c0,0.02,0,0.04,0,0.06c0,0.33,0.06,0.63,0.15,0.93c-0.15,0.37-0.22,0.77-0.22,1.17c0,0.23,0.02,0.45,0.07,0.67   c0,0.02,0,0.05,0,0.07c0,0.33,0.06,0.64,0.16,0.94c-0.15,0.37-0.23,0.77-0.23,1.17c0,0.23,0.02,0.45,0.07,0.67   c0,0.02,0,0.05,0,0.07c0,0.33,0.06,0.64,0.16,0.94c-0.15,0.37-0.23,0.77-0.23,1.17c0,0.13,0.02,0.25,0.04,0.37h-0.44   c0.06-0.24,0.09-0.48,0.09-0.74c0-0.51-0.13-0.99-0.34-1.42c0.21-0.43,0.34-0.91,0.34-1.42c0-0.51-0.13-0.99-0.34-1.42   c0.21-0.43,0.34-0.91,0.34-1.42c0-0.51-0.13-0.99-0.34-1.42c0.21-0.43,0.34-0.91,0.34-1.42c0-0.51-0.13-0.99-0.34-1.42   c0.21-0.43,0.34-0.91,0.34-1.42c0-0.51-0.13-0.99-0.34-1.42c0.21-0.43,0.34-0.91,0.34-1.42c0-0.51-0.13-0.99-0.34-1.42   c0.21-0.43,0.34-0.91,0.34-1.42c0-0.51-0.13-0.99-0.34-1.42c0.21-0.43,0.34-0.91,0.34-1.42c0-0.51-0.13-0.99-0.34-1.42   c0.21-0.43,0.34-0.91,0.34-1.42c0-0.51-0.13-0.99-0.34-1.42c0.21-0.43,0.34-0.91,0.34-1.42s-0.13-0.99-0.34-1.42   c0.21-0.43,0.34-0.91,0.34-1.42c0-0.51-0.13-0.99-0.34-1.42c0.21-0.43,0.34-0.91,0.34-1.42c0-1.06-0.52-1.99-1.3-2.59   c0.78-0.6,1.3-1.53,1.3-2.59c0-1.8-1.46-3.26-3.26-3.26h-4.42c-0.52-0.36-1.16-0.57-1.84-0.57h-5.69c-1.8,0-3.26,1.46-3.26,3.26   c0,0.61,0.18,1.18,0.48,1.67c-0.3,0.49-0.48,1.06-0.48,1.67c0,0.51,0.13,0.99,0.34,1.42c-0.21,0.43-0.34,0.91-0.34,1.42   c0,0.51,0.13,0.99,0.34,1.42c-0.21,0.43-0.34,0.91-0.34,1.42s0.13,0.99,0.34,1.42c-0.21,0.43-0.34,0.91-0.34,1.42   s0.13,0.99,0.34,1.42c-0.21,0.43-0.34,0.91-0.34,1.42c0,0.07,0.02,0.15,0.02,0.22h-0.36c-0.04-0.38-0.13-0.74-0.29-1.07   c0.16-0.38,0.25-0.8,0.25-1.25c0,0,0-0.01,0-0.01c0.05-0.22,0.07-0.44,0.07-0.67c0-0.91-0.38-1.73-0.98-2.33   c0.56-0.58,0.91-1.36,0.91-2.23c0-1.76-1.43-3.19-3.19-3.19h-5.69c-1.76,0-3.19,1.43-3.19,3.19c0,0.87,0.35,1.65,0.91,2.23   c-0.53,0.52-0.86,1.21-0.95,1.98h-3.03c-1.76,0-3.19,1.43-3.19,3.19c0,0.3,0.05,0.58,0.13,0.85c-0.08,0.27-0.13,0.56-0.13,0.85   c0,0.65,0.2,1.25,0.53,1.75c-0.33,0.5-0.53,1.1-0.53,1.75c0,0.07,0,0.14,0.01,0.21c0,0.07-0.01,0.14-0.01,0.21   c0,0.43,0.09,0.84,0.24,1.21c-0.15,0.37-0.24,0.78-0.24,1.21c0,0.07,0,0.14,0.01,0.21c0,0.07-0.01,0.14-0.01,0.21   c0,0.11,0.01,0.21,0.02,0.32c-0.01,0.1-0.02,0.21-0.02,0.32c0,0.31,0.06,0.61,0.14,0.9c-0.08,0.29-0.14,0.58-0.14,0.9   c0,0.07,0,0.14,0.01,0.21c0,0.07-0.01,0.14-0.01,0.21c0,0.43,0.09,0.84,0.24,1.21c-0.09,0.23-0.15,0.47-0.19,0.71h-0.51   c0-0.05,0.02-0.1,0.02-0.15c0-1.76-1.43-3.19-3.19-3.19h-5.69c-1.22,0-2.27,0.7-2.81,1.71h-3.45c-1.76,0-3.19,1.43-3.19,3.19   c0,1.15,0.62,2.15,1.54,2.72c-0.92,0.56-1.54,1.56-1.54,2.72c0,0.51,0.13,0.99,0.35,1.42c-0.22,0.43-0.35,0.91-0.35,1.42   c0,0.51,0.13,0.99,0.35,1.42c-0.22,0.43-0.35,0.91-0.35,1.42c0,0.51,0.13,0.99,0.35,1.42c-0.11,0.22-0.2,0.45-0.26,0.7h-0.68   c-0.05-0.18-0.12-0.36-0.21-0.53c0.22-0.43,0.35-0.91,0.35-1.42s-0.13-0.99-0.35-1.42c0.22-0.43,0.35-0.91,0.35-1.42   c0-1.03-0.49-1.93-1.25-2.51c0.75-0.58,1.25-1.49,1.25-2.51c0-1.76-1.43-3.19-3.19-3.19h-5.69c-1.76,0-3.19,1.43-3.19,3.19   c0,1.03,0.49,1.93,1.25,2.51c-0.75,0.58-1.25,1.49-1.25,2.51c0,0.51,0.13,0.99,0.35,1.42c-0.22,0.43-0.35,0.91-0.35,1.42   s0.13,0.99,0.35,1.42c-0.22,0.43-0.35,0.91-0.35,1.42c0,0.51,0.13,0.99,0.35,1.42c-0.22,0.43-0.35,0.91-0.35,1.42   c0,0.51,0.13,0.99,0.35,1.42c-0.18,0.36-0.29,0.75-0.32,1.17h-0.48c-0.01-0.49-0.14-0.96-0.35-1.37c0.22-0.43,0.35-0.91,0.35-1.42   c0-0.97-0.44-1.83-1.13-2.41c0.68-0.59,1.13-1.44,1.13-2.41c0-1.76-1.43-3.19-3.19-3.19h-5.69c-1.76,0-3.19,1.43-3.19,3.19   c0,0.97,0.44,1.83,1.13,2.41c-0.68,0.59-1.13,1.44-1.13,2.41c0,0.51,0.13,0.99,0.35,1.42c-0.22,0.43-0.35,0.91-0.35,1.42   c0,0.51,0.13,0.99,0.35,1.42c-0.22,0.43-0.35,0.91-0.35,1.42c0,0.51,0.13,0.99,0.35,1.42c-0.22,0.43-0.35,0.91-0.35,1.42   c0,0.43,0.09,0.83,0.24,1.2c-0.19,0.42-0.31,0.88-0.31,1.37c0,0.31,0.05,0.62,0.14,0.92c0.04,0.19,0.1,0.38,0.17,0.56   c-0.19,0.42-0.31,0.88-0.31,1.37c0,0.31,0.05,0.62,0.14,0.92c0.04,0.19,0.1,0.38,0.17,0.55c-0.19,0.42-0.31,0.88-0.31,1.37   c0,0.31,0.05,0.62,0.14,0.92c0.04,0.19,0.1,0.38,0.17,0.56c-0.19,0.42-0.31,0.88-0.31,1.37c0,0.31,0.05,0.62,0.14,0.92   c0.04,0.19,0.1,0.38,0.17,0.56c-0.19,0.42-0.31,0.88-0.31,1.37c0,0.31,0.05,0.62,0.14,0.92c0.04,0.19,0.1,0.38,0.17,0.55   c-0.19,0.42-0.31,0.88-0.31,1.37c0,0.32,0.05,0.63,0.14,0.93c0.04,0.19,0.1,0.37,0.17,0.55c-0.19,0.42-0.31,0.88-0.31,1.37   c0,0.31,0.05,0.62,0.14,0.92c0.04,0.19,0.1,0.38,0.17,0.56c-0.19,0.42-0.31,0.88-0.31,1.37c0,0.31,0.05,0.62,0.14,0.92   c0.04,0.19,0.1,0.38,0.17,0.55c-0.19,0.42-0.31,0.88-0.31,1.37c0,0.32,0.05,0.63,0.14,0.93c0.04,0.19,0.1,0.37,0.17,0.55   c-0.19,0.42-0.31,0.88-0.31,1.37c0,0.31,0.05,0.62,0.14,0.92c0,0.02,0.01,0.04,0.02,0.06c-0.05,0.23-0.08,0.46-0.08,0.71   c0,0.19,0.02,0.37,0.05,0.54c-0.03,0.18-0.05,0.36-0.05,0.54c0,0.31,0.06,0.6,0.14,0.88c-0.08,0.28-0.14,0.57-0.14,0.88   c0,0.19,0.02,0.37,0.05,0.54c-0.03,0.18-0.05,0.36-0.05,0.54c0,0.31,0.06,0.6,0.14,0.88c-0.08,0.28-0.14,0.57-0.14,0.88   c0,0.2,0.02,0.39,0.06,0.58c-0.03,0.19-0.06,0.38-0.06,0.58c0,0.29,0.05,0.57,0.13,0.84c-0.07,0.27-0.13,0.55-0.13,0.84   c0,0.51,0.13,0.99,0.35,1.42c-0.22,0.43-0.35,0.91-0.35,1.42c0,0.52,0.14,1,0.35,1.43c-0.22,0.43-0.35,0.91-0.35,1.43   c0,1.76,1.43,3.19,3.19,3.19h3.07c-0.05,0.22-0.08,0.45-0.08,0.69c0,0.51,0.13,0.99,0.34,1.42c-0.21,0.43-0.34,0.91-0.34,1.42   c0,0.51,0.13,0.99,0.34,1.42c-0.21,0.43-0.34,0.91-0.34,1.42c0,0.51,0.13,0.99,0.34,1.42c-0.21,0.43-0.34,0.91-0.34,1.42   c0,0.51,0.13,0.99,0.34,1.42c-0.21,0.43-0.34,0.91-0.34,1.42c0,0.51,0.13,0.99,0.34,1.42c-0.21,0.43-0.34,0.91-0.34,1.42   s0.13,0.99,0.34,1.42c-0.21,0.43-0.34,0.91-0.34,1.42s0.13,0.99,0.34,1.42c-0.21,0.43-0.34,0.91-0.34,1.42   c0,0.51,0.13,0.99,0.34,1.42c-0.21,0.43-0.34,0.91-0.34,1.42c0,0.53,0.14,1.03,0.37,1.48c-0.23,0.45-0.37,0.94-0.37,1.48   c0,1.8,1.46,3.26,3.26,3.26h5.69c1.8,0,3.26-1.46,3.26-3.26c0-0.53-0.14-1.03-0.37-1.48c0.23-0.45,0.37-0.94,0.37-1.48   c0-0.51-0.13-0.99-0.34-1.42c0.21-0.43,0.34-0.91,0.34-1.42c0-0.51-0.13-0.99-0.34-1.42c0.21-0.43,0.34-0.91,0.34-1.42   s-0.13-0.99-0.34-1.42c0.21-0.43,0.34-0.91,0.34-1.42s-0.13-0.99-0.34-1.42c0.21-0.43,0.34-0.91,0.34-1.42   c0-0.51-0.13-0.99-0.34-1.42c0.21-0.43,0.34-0.91,0.34-1.42c0-0.51-0.13-0.99-0.34-1.42c0.21-0.43,0.34-0.91,0.34-1.42   c0-0.51-0.13-0.99-0.34-1.42c0.21-0.43,0.34-0.91,0.34-1.42c0-0.51-0.13-0.99-0.34-1.42c0.21-0.43,0.34-0.91,0.34-1.42   c0-0.51-0.13-0.99-0.34-1.42c0.21-0.43,0.34-0.91,0.34-1.42c0-0.51-0.13-0.99-0.34-1.42c0.21-0.43,0.34-0.91,0.34-1.42   c0-0.42-0.09-0.83-0.24-1.2c0.1-0.31,0.17-0.63,0.17-0.97c0,0,0-0.01,0-0.01c0.05-0.22,0.07-0.44,0.07-0.67   c0-0.4-0.08-0.78-0.22-1.14c0.09-0.29,0.15-0.59,0.15-0.9c0-0.04-0.01-0.07-0.01-0.11c0.05-0.23,0.08-0.46,0.08-0.7   c0-0.4-0.08-0.78-0.22-1.14c0.09-0.29,0.15-0.59,0.15-0.9c0-0.04-0.01-0.07-0.01-0.11c0.05-0.23,0.08-0.46,0.08-0.7   c0-0.4-0.08-0.78-0.22-1.13c0.04-0.14,0.07-0.28,0.1-0.42h1.9c0.51,0.35,1.13,0.55,1.79,0.55h5.69c0.78,0,1.5-0.28,2.05-0.75h1.92   c0.55,1.01,1.62,1.71,2.85,1.71h5.69c1.08,0,2.02-0.53,2.62-1.34h3.47c0.24,0.05,0.48,0.08,0.73,0.08h5.23   c0.32,0.11,0.67,0.17,1.02,0.17h5.69c0.9,0,1.71-0.37,2.29-0.97h2.27c0.58,0.58,1.38,0.95,2.26,0.95h5.33   c0.3,0.09,0.61,0.14,0.93,0.14h5.69c0.95,0,1.81-0.42,2.4-1.09h3.06c0.42,0.2,0.88,0.31,1.37,0.31c0,0,5.76,0,5.8,0   c0.15,0.02,0.3,0.03,0.46,0.03h5.28c0.31,0.1,0.64,0.15,0.98,0.15h4.42c0.52,0.36,1.16,0.57,1.84,0.57h5.69   c0.72,0,1.39-0.24,1.93-0.63h4.33c0.32,0,0.62-0.04,0.92-0.13h5.34c0.43,0,0.85-0.09,1.23-0.25h5.03c0.1,0,0.2,0,0.3-0.01   c0.09,0.01,0.18,0.01,0.27,0.01h4.7c0.46,0.25,0.99,0.4,1.56,0.4h5.69c0.56,0,1.09-0.14,1.55-0.39h3.99   c0.39,0.17,0.83,0.27,1.29,0.27h5.68c0.19,0.04,0.38,0.05,0.58,0.05h4.58c0.49,0.3,1.06,0.48,1.68,0.48h5.69   c0.92,0,1.75-0.39,2.34-1.02h3.55c0.3,0.09,0.62,0.14,0.94,0.14h4.32c0.54,0.41,1.21,0.66,1.94,0.66h5.69c0.9,0,1.72-0.38,2.3-0.98   h2.98c0.46,0.26,0.99,0.41,1.55,0.41h4.46c0.52,0.34,1.14,0.54,1.8,0.54h5.69c0.31,0,0.62-0.05,0.91-0.13h5.34   c0.36,0,0.71-0.06,1.04-0.17h4.97c0.26,0.07,0.54,0.11,0.82,0.11h5.69c0.52,0,1.02-0.13,1.46-0.35h3.65c0.5,0.32,1.08,0.5,1.72,0.5   h5.69c0.79,0,1.52-0.29,2.08-0.77h2.31c0.59,0.69,1.46,1.14,2.44,1.14h5.69c0.4,0,0.79-0.08,1.15-0.21h5.11   c0.19,0,0.37-0.02,0.55-0.05c0.01,0,5.71,0,5.71,0c0.48,0,0.94-0.11,1.36-0.31h4.9c0.1,0,0.21-0.01,0.31-0.02   c0.09,0.01,0.17,0.01,0.26,0.01h5.69c0.42,0,0.82-0.08,1.19-0.22h4.22c0.43,0.21,0.92,0.33,1.42,0.33h5.5   c0.25,0.06,0.5,0.09,0.76,0.09h5.69c0.86,0,1.64-0.33,2.22-0.88h2.51c0.56,0.49,1.29,0.79,2.09,0.79h5.51   c0.24,0.06,0.49,0.09,0.75,0.09h3.97c0.59,0.58,1.4,0.95,2.29,0.95h5.69c0.92,0,1.75-0.39,2.34-1h2.94c0.46,0.25,0.98,0.4,1.54,0.4   h5.69c0.32,0,0.64-0.05,0.93-0.14h5.33c0.61,0,1.19-0.17,1.69-0.49h3.97c0.36,0.14,0.76,0.22,1.17,0.22h5.69   c0.11,0,0.21-0.01,0.31-0.02c0.08,0.01,0.17,0.01,0.25,0.01h4.91c0.41,0.19,0.86,0.3,1.34,0.3h5.69c0.89,0,1.69-0.37,2.27-0.95   h2.79c0.51,0.33,1.11,0.52,1.76,0.52h5.69c0.55,0,1.07-0.14,1.53-0.38h2.13c0.03,0.44,0.14,0.86,0.33,1.24   c-0.22,0.43-0.35,0.91-0.35,1.42c0,0.51,0.13,0.99,0.35,1.42c-0.22,0.43-0.35,0.91-0.35,1.42c0,0.55,0.15,1.05,0.39,1.5   c-0.24,0.45-0.39,0.96-0.39,1.5c0,1.76,1.43,3.19,3.19,3.19h5.69c1.76,0,3.19-1.43,3.19-3.19c0-0.55-0.15-1.05-0.39-1.5   c0.24-0.45,0.39-0.96,0.39-1.5c0-0.51-0.13-0.99-0.35-1.42c0.05-0.09,0.09-0.18,0.13-0.28h3.29c1.8,0,3.26-1.46,3.26-3.26   c0-0.08-0.02-0.15-0.02-0.22h0.68c0.01,0.02,0.01,0.03,0.02,0.05c-0.12,0.26-0.21,0.53-0.26,0.82l-0.04,0.13l0,0.79l0.04,0.12   c0.05,0.33,0.16,0.64,0.31,0.93c-0.22,0.43-0.35,0.91-0.35,1.42c0,0.51,0.13,0.99,0.35,1.42c-0.22,0.43-0.35,0.91-0.35,1.42   c0,0.62,0.18,1.19,0.49,1.68c-0.31,0.49-0.49,1.06-0.49,1.68c0,1.76,1.43,3.19,3.19,3.19h3.45c0.54,1.01,1.59,1.71,2.81,1.71h5.69   c1.76,0,3.19-1.43,3.19-3.19c0-0.51-0.13-0.98-0.34-1.41c0.21-0.43,0.34-0.9,0.34-1.41c0-0.51-0.13-0.99-0.35-1.42   c0.22-0.43,0.35-0.91,0.35-1.42c0-0.51-0.13-0.99-0.35-1.42c0.22-0.43,0.35-0.91,0.35-1.42c0-0.51-0.13-0.99-0.35-1.42   c0.16-0.32,0.27-0.67,0.31-1.03h0.74c-0.16,0.38-0.25,0.79-0.25,1.23c0,0.51,0.13,0.99,0.35,1.42c-0.22,0.43-0.35,0.91-0.35,1.42   c0,0.51,0.13,0.99,0.35,1.42c-0.22,0.43-0.35,0.91-0.35,1.42c0,0.51,0.13,0.99,0.35,1.42c-0.22,0.43-0.35,0.91-0.35,1.42   c0,0.51,0.13,0.99,0.35,1.42c-0.22,0.43-0.35,0.91-0.35,1.42c0,0.53,0.14,1.02,0.37,1.45c-0.23,0.44-0.37,0.93-0.37,1.45   c0,1.76,1.43,3.19,3.19,3.19h3c0,0.01,0,0.02,0,0.03c0,0.26,0.04,0.5,0.09,0.74c-0.01,0.07-0.02,0.15-0.02,0.22   c0,0.32,0.06,0.63,0.15,0.92c-0.14,0.36-0.22,0.75-0.22,1.16c0,0.23,0.02,0.46,0.07,0.68c0,0.03,0,0.06,0,0.09   c0,0.51,0.13,0.99,0.35,1.42c-0.22,0.43-0.35,0.91-0.35,1.42c0,0.51,0.13,0.99,0.35,1.42c-0.22,0.43-0.35,0.91-0.35,1.42   c0,0.59,0.17,1.13,0.45,1.61c-0.28,0.47-0.45,1.02-0.45,1.61c0,1.76,1.43,3.19,3.19,3.19h5.69c1.76,0,3.19-1.43,3.19-3.19   c0-0.59-0.17-1.13-0.45-1.61c0.28-0.47,0.45-1.02,0.45-1.61c0-0.51-0.13-0.99-0.35-1.42c0.22-0.43,0.35-0.91,0.35-1.42   c0-0.51-0.13-0.99-0.35-1.42c0.22-0.43,0.35-0.91,0.35-1.42c0-0.03,0-0.06,0-0.09c0.05-0.22,0.07-0.45,0.07-0.68   c0-0.41-0.08-0.8-0.22-1.16c0.09-0.29,0.15-0.6,0.15-0.92c0-0.08-0.02-0.15-0.02-0.22c0.02-0.07,0.03-0.13,0.04-0.2h3.05   c1.76,0,3.19-1.43,3.19-3.19c0-0.52-0.13-1-0.35-1.43c0.22-0.43,0.35-0.91,0.35-1.43c0-0.51-0.13-0.99-0.35-1.42   c0.22-0.43,0.35-0.91,0.35-1.42c0-0.51-0.13-0.99-0.35-1.42c0.22-0.43,0.35-0.91,0.35-1.42s-0.13-0.99-0.35-1.42   c0.22-0.43,0.35-0.91,0.35-1.42c0-0.51-0.13-0.99-0.35-1.42c0.22-0.43,0.35-0.91,0.35-1.42c0-0.05-0.01-0.09-0.01-0.14h3.08   c1.26,0,2.34-0.73,2.89-1.78h0.85c0.08,0.31,0.2,0.6,0.36,0.87c-0.29,0.48-0.46,1.03-0.46,1.63c0,1.76,1.43,3.19,3.19,3.19h5.69   c1.76,0,3.19-1.43,3.19-3.19c0-0.6-0.18-1.15-0.46-1.63c0.29-0.48,0.46-1.03,0.46-1.63c0-0.29-0.05-0.57-0.13-0.84h2.2   c0.46,0.26,0.99,0.41,1.56,0.41h3.12c-0.03,0.18-0.05,0.36-0.05,0.54c0,0.14,0.02,0.28,0.04,0.41c-0.02,0.14-0.04,0.27-0.04,0.41   c0,0.35,0.07,0.69,0.18,1.01c-0.11,0.32-0.18,0.65-0.18,1.01c0,0.14,0.02,0.28,0.04,0.41c-0.02,0.14-0.04,0.27-0.04,0.41   c0,0.35,0.07,0.69,0.18,1.01c-0.11,0.32-0.18,0.65-0.18,1.01c0,0.14,0.02,0.28,0.04,0.41c-0.02,0.14-0.04,0.27-0.04,0.41   c0,0.3,0.06,0.59,0.14,0.87c-0.08,0.28-0.14,0.57-0.14,0.87c0,0.19,0.02,0.38,0.06,0.57c-0.03,0.19-0.06,0.37-0.06,0.57   c0,1.76,1.43,3.19,3.19,3.19h4.45c0.51,0.36,1.14,0.57,1.81,0.57h3.11c-0.02,0.13-0.04,0.26-0.04,0.39c0,0.51,0.13,0.99,0.35,1.42   c-0.22,0.43-0.35,0.91-0.35,1.42c0,0.48,0.11,0.93,0.3,1.34c-0.19,0.41-0.3,0.86-0.3,1.34c0,1.76,1.43,3.19,3.19,3.19h5.69   c1.76,0,3.19-1.43,3.19-3.19c0-0.48-0.11-0.93-0.3-1.34c0.19-0.41,0.3-0.86,0.3-1.34c0-0.51-0.13-0.99-0.35-1.42   c0.22-0.43,0.35-0.91,0.35-1.42c0-0.29-0.05-0.56-0.12-0.82c0.11-0.33,0.19-0.68,0.19-1.06c0-0.26-0.04-0.5-0.09-0.74   c0.01-0.08,0.02-0.15,0.02-0.22c0-0.22-0.02-0.44-0.07-0.65c0.08-0.28,0.14-0.57,0.14-0.88c0-0.29-0.05-0.56-0.12-0.83   c0.03-0.16,0.05-0.32,0.05-0.49c0-0.22-0.02-0.44-0.07-0.65c0.08-0.28,0.14-0.57,0.14-0.88c0-0.25-0.04-0.49-0.09-0.73   c0-0.06,0.02-0.12,0.02-0.19c0-0.07,0-0.13-0.01-0.2c0-0.07,0.01-0.13,0.01-0.2c0-0.22-0.02-0.44-0.07-0.65   c0.08-0.28,0.14-0.57,0.14-0.88c0-0.25-0.04-0.5-0.09-0.73c0-0.07,0.02-0.13,0.02-0.2c0-0.06,0-0.13-0.01-0.19   c0-0.06,0.01-0.13,0.01-0.19c0-0.22-0.02-0.44-0.07-0.65c0.08-0.29,0.14-0.58,0.14-0.88c0-0.24-0.03-0.46-0.08-0.68h3.07   c0.9,0,1.72-0.38,2.3-0.98h2.18c0.58,0.64,1.42,1.04,2.35,1.04c0,0,1.57,0,3.07,0v0.05l0.04,0.15c0.04,0.23,0.11,0.46,0.19,0.67   c-0.14,0.36-0.23,0.75-0.23,1.16c0,0.09,0,0.18,0.01,0.26c-0.01,0.09-0.01,0.17-0.01,0.26c0,0.4,0.08,0.78,0.22,1.14   c-0.14,0.35-0.22,0.74-0.22,1.14c0,1.76,1.43,3.19,3.19,3.19h3.25c-0.16,0.38-0.25,0.8-0.25,1.24c0,0.51,0.13,0.99,0.34,1.42   c-0.21,0.43-0.34,0.91-0.34,1.42c0,0.51,0.13,0.99,0.34,1.42c-0.21,0.43-0.34,0.91-0.34,1.42c0,0.54,0.14,1.04,0.37,1.48   c-0.23,0.45-0.37,0.95-0.37,1.48c0,1.8,1.46,3.26,3.26,3.26h5.69c1.8,0,3.26-1.46,3.26-3.26c0-0.54-0.14-1.04-0.37-1.48   c0.23-0.45,0.37-0.95,0.37-1.48c0-0.51-0.13-0.99-0.34-1.42c0.21-0.43,0.34-0.91,0.34-1.42c0-0.51-0.13-0.99-0.34-1.42   c0.21-0.43,0.34-0.91,0.34-1.42c0-0.41-0.08-0.8-0.23-1.17h3.22c1.8,0,3.26-1.46,3.26-3.26c0-0.58-0.17-1.13-0.44-1.6   c0.25-0.44,0.4-0.93,0.42-1.47h0.36c-0.01,0.12-0.04,0.23-0.04,0.35c0,0.51,0.13,0.99,0.34,1.42c-0.21,0.43-0.34,0.91-0.34,1.42   c0,0.51,0.13,0.99,0.34,1.42c-0.21,0.43-0.34,0.91-0.34,1.42c0,0.49,0.11,0.94,0.31,1.36c-0.19,0.41-0.31,0.87-0.31,1.36   c0,1.8,1.46,3.26,3.26,3.26h5.69c1.8,0,3.26-1.46,3.26-3.26c0-0.49-0.11-0.94-0.31-1.36c0.07-0.16,0.13-0.33,0.18-0.5h0.59   c-0.05,0.23-0.08,0.46-0.08,0.7c0,0.15,0.02,0.3,0.04,0.44c-0.02,0.15-0.04,0.29-0.04,0.44c0,0.34,0.07,0.67,0.17,0.98   c-0.1,0.31-0.17,0.64-0.17,0.98c0,0.1,0,0.2,0.01,0.3c-0.01,0.1-0.01,0.2-0.01,0.3c0,0.3,0.05,0.58,0.13,0.85   c-0.08,0.27-0.13,0.56-0.13,0.85c0,1.76,1.43,3.19,3.19,3.19h5.69c1.76,0,3.19-1.43,3.19-3.19c0-0.3-0.05-0.58-0.13-0.85   c0.08-0.27,0.13-0.56,0.13-0.85c0-0.1,0-0.2-0.01-0.3c0.01-0.1,0.01-0.2,0.01-0.3c0-0.34-0.07-0.67-0.17-0.98   c0.1-0.31,0.17-0.64,0.17-0.98c0-0.15-0.02-0.3-0.04-0.44c0.02-0.15,0.04-0.29,0.04-0.44c0-0.34-0.07-0.67-0.17-0.98   c0.1-0.31,0.17-0.64,0.17-0.98c0-0.15-0.02-0.3-0.04-0.44c0.02-0.15,0.04-0.29,0.04-0.44c0-0.34-0.07-0.67-0.17-0.98   c0.1-0.31,0.17-0.63,0.17-0.98c0-0.15-0.02-0.3-0.04-0.44c0.02-0.15,0.04-0.29,0.04-0.44c0-0.34-0.07-0.67-0.17-0.98   c0.1-0.31,0.17-0.64,0.17-0.98c0-0.15-0.02-0.3-0.04-0.44c0.02-0.15,0.04-0.29,0.04-0.44c0-0.34-0.07-0.67-0.17-0.98   c0.02-0.07,0.05-0.15,0.07-0.22h2.33c0.43,0.21,0.9,0.33,1.41,0.33h5.69c0.57,0,1.1-0.16,1.56-0.42h4.7c0.59,0,1.13-0.17,1.61-0.45   h2.95c0.58,0.58,1.38,0.95,2.27,0.95h3.12c0.01,0.03,0,0.07,0.01,0.11c-0.02,0.1-0.04,0.19-0.05,0.29l-0.01,0.05v0.38   c0,0.26,0.04,0.5,0.1,0.74c-0.06,0.24-0.1,0.49-0.1,0.74c0,0.21,0.02,0.41,0.06,0.6c-0.04,0.2-0.06,0.4-0.06,0.6   c0,0.28,0.05,0.55,0.12,0.82c-0.07,0.26-0.12,0.53-0.12,0.82c0,0.21,0.02,0.41,0.06,0.61c-0.04,0.2-0.06,0.4-0.06,0.61   c0,0.22,0.02,0.43,0.06,0.64c-0.04,0.21-0.06,0.42-0.06,0.64c0,0.27,0.04,0.53,0.11,0.78c-0.06,0.25-0.11,0.51-0.11,0.78   c0,0.54,0.15,1.05,0.39,1.5c-0.24,0.45-0.39,0.95-0.39,1.5c0,1.76,1.43,3.19,3.19,3.19h5.69c1.76,0,3.19-1.43,3.19-3.19   c0-0.54-0.15-1.05-0.39-1.5c0.24-0.45,0.39-0.95,0.39-1.5c0-0.27-0.04-0.53-0.11-0.78c0.06-0.25,0.11-0.51,0.11-0.78   c0-0.22-0.02-0.43-0.06-0.64c0.04-0.21,0.06-0.42,0.06-0.64c0-0.21-0.02-0.41-0.06-0.61c0.03-0.17,0.05-0.36,0.05-0.54h3.08   c1.8,0,3.26-1.46,3.26-3.26c0-0.53-0.14-1.03-0.37-1.47c0.2-0.39,0.32-0.82,0.35-1.28h0.44c0.05,0.37,0.15,0.72,0.31,1.04   c-0.22,0.43-0.35,0.91-0.35,1.42c0,0.57,0.16,1.1,0.43,1.57c-0.27,0.47-0.43,1-0.43,1.57c0,1.76,1.43,3.19,3.19,3.19h3.05   c0.03,0.19,0.08,0.36,0.14,0.54c-0.08,0.27-0.13,0.55-0.13,0.85c0,0.06,0.02,0.12,0.02,0.19c-0.05,0.24-0.09,0.48-0.09,0.73   c0,0.38,0.08,0.73,0.2,1.07c-0.07,0.27-0.12,0.54-0.12,0.84c0,0.07,0.02,0.14,0.02,0.2c-0.05,0.24-0.09,0.48-0.09,0.73   c0,0.51,0.13,0.99,0.34,1.42c-0.21,0.43-0.34,0.91-0.34,1.42c0,0.51,0.13,0.99,0.34,1.42c-0.21,0.43-0.34,0.91-0.34,1.42   c0,0.51,0.13,0.99,0.34,1.42c-0.21,0.43-0.34,0.91-0.34,1.42c0,0.51,0.13,0.99,0.34,1.42c-0.21,0.43-0.34,0.91-0.34,1.42   c0,0.44,0.09,0.86,0.25,1.24c-0.16,0.38-0.25,0.8-0.25,1.24c0,1.8,1.46,3.26,3.26,3.26h5.69c1.8,0,3.26-1.46,3.26-3.26   c0-0.44-0.09-0.86-0.25-1.24c0.16-0.38,0.25-0.8,0.25-1.24c0-0.51-0.13-0.99-0.34-1.42c0.21-0.43,0.34-0.91,0.34-1.42   c0-0.51-0.13-0.99-0.34-1.42c0.21-0.43,0.34-0.91,0.34-1.42c0-0.51-0.13-0.99-0.34-1.42c0.21-0.43,0.34-0.91,0.34-1.42   c0-0.51-0.13-0.99-0.34-1.42c0.21-0.43,0.34-0.91,0.34-1.42c0-0.25-0.04-0.5-0.09-0.73c0-0.07,0.02-0.13,0.02-0.2   c0-0.29-0.05-0.57-0.12-0.84c0.12-0.34,0.2-0.69,0.2-1.07c0-0.25-0.03-0.49-0.09-0.73c0-0.06,0.02-0.12,0.02-0.19   c0-0.3-0.05-0.58-0.13-0.85c0.12-0.34,0.2-0.7,0.2-1.08c0-0.25-0.03-0.49-0.09-0.73c0-0.06,0.02-0.12,0.02-0.18   c0-0.3-0.05-0.58-0.13-0.85c0.12-0.34,0.2-0.7,0.2-1.08c0-0.25-0.03-0.49-0.09-0.73c0-0.06,0.02-0.12,0.02-0.18   c0-0.3-0.05-0.58-0.13-0.85c0.12-0.34,0.2-0.7,0.2-1.08c0-0.25-0.03-0.49-0.09-0.73c0-0.06,0.02-0.12,0.02-0.18   c0-0.3-0.05-0.58-0.13-0.85c0.12-0.34,0.2-0.7,0.2-1.08c0-0.01,0-0.02,0-0.03h1.42c0.57,0.52,1.32,0.84,2.15,0.84h5.69   c0.16,0,0.32-0.01,0.48-0.04c0.02,0,1.68,0,3.22,0c-0.03,0.15-0.06,0.29-0.06,0.45c-0.05,0.22-0.07,0.45-0.07,0.68   c0,0.53,0.14,1.03,0.37,1.48c-0.19,0.41-0.3,0.85-0.3,1.33c0,0.51,0.13,0.99,0.35,1.42c-0.22,0.43-0.35,0.91-0.35,1.42   c0,0.52,0.14,1.01,0.36,1.44c-0.22,0.43-0.36,0.92-0.36,1.44c0,1.76,1.43,3.19,3.19,3.19h5.69c1.76,0,3.19-1.43,3.19-3.19   c0-0.52-0.14-1.01-0.36-1.44c0.22-0.43,0.36-0.92,0.36-1.44c0-0.51-0.13-0.99-0.35-1.42c0.22-0.43,0.35-0.91,0.35-1.42   c0-0.48-0.11-0.92-0.3-1.33c0.23-0.45,0.37-0.94,0.37-1.48c0-0.05-0.01-0.1-0.02-0.15h0.41c0.01,0.41,0.1,0.8,0.26,1.16   c-0.17,0.39-0.27,0.82-0.27,1.27c0,0.05,0,0.1,0,0.15c0,0.05,0,0.1,0,0.15c0,0.45,0.1,0.88,0.27,1.27   c-0.17,0.39-0.27,0.82-0.27,1.27c0,0.05,0,0.1,0,0.15c0,0.05,0,0.1,0,0.15c0,0.51,0.13,0.99,0.35,1.42   c-0.22,0.43-0.35,0.91-0.35,1.42c0,0.51,0.13,0.99,0.35,1.42c-0.22,0.43-0.35,0.91-0.35,1.42s0.13,0.99,0.35,1.42   c-0.22,0.43-0.35,0.91-0.35,1.42c0,0.51,0.13,0.99,0.35,1.42c-0.22,0.43-0.35,0.91-0.35,1.42c0,0.51,0.13,0.99,0.35,1.42   c-0.22,0.43-0.35,0.91-0.35,1.42s0.13,0.99,0.35,1.42c-0.22,0.43-0.35,0.91-0.35,1.42c0,0.57,0.16,1.09,0.42,1.55   c-0.26,0.46-0.42,0.99-0.42,1.55c0,1.76,1.43,3.19,3.19,3.19h5.69c1.76,0,3.19-1.43,3.19-3.19c0-0.57-0.16-1.09-0.42-1.55   c0.26-0.46,0.42-0.99,0.42-1.55c0-0.51-0.13-0.99-0.35-1.42c0.22-0.43,0.35-0.91,0.35-1.42c0-0.36-0.07-0.7-0.18-1.03h0.6   c-0.01,0.12-0.04,0.24-0.04,0.37c0,0.51,0.13,0.99,0.34,1.42c-0.21,0.43-0.34,0.91-0.34,1.42s0.13,0.99,0.34,1.42   c-0.21,0.43-0.34,0.91-0.34,1.42c0,0.51,0.13,0.99,0.34,1.42c-0.21,0.43-0.34,0.91-0.34,1.42c0,0.47,0.1,0.91,0.28,1.32   c-0.18,0.4-0.28,0.85-0.28,1.32c0,1.8,1.46,3.26,3.26,3.26h5.69c1.8,0,3.26-1.46,3.26-3.26c0-0.47-0.1-0.91-0.28-1.32   c0.18-0.4,0.28-0.85,0.28-1.32c0-0.51-0.13-0.99-0.34-1.42c0.21-0.43,0.34-0.91,0.34-1.42c0-0.51-0.13-0.99-0.34-1.42   c0.21-0.43,0.34-0.91,0.34-1.42s-0.13-0.99-0.34-1.42c0.21-0.43,0.34-0.91,0.34-1.42c0-0.51-0.13-0.99-0.34-1.42   c0.21-0.43,0.34-0.91,0.34-1.42c0-0.51-0.13-0.99-0.34-1.42c0.21-0.43,0.34-0.91,0.34-1.42c0-0.38-0.08-0.74-0.2-1.08   c0.07-0.27,0.13-0.55,0.13-0.84c0-0.07-0.02-0.13-0.02-0.19c0.04-0.19,0.07-0.4,0.08-0.6h0.35c0.03,0.26,0.08,0.52,0.17,0.76   c-0.08,0.27-0.13,0.55-0.13,0.85c0,0.05,0,0.11,0,0.16c0,0.03,0,0.05,0,0.08c-0.05,0.22-0.07,0.44-0.07,0.67   c0,0.38,0.08,0.74,0.2,1.09c-0.08,0.27-0.13,0.55-0.13,0.85c0,0.05,0,0.11,0,0.16c0,0.03,0,0.05,0,0.08   c-0.05,0.22-0.07,0.44-0.07,0.67c0,0.38,0.08,0.74,0.2,1.09c-0.08,0.27-0.13,0.55-0.13,0.85c0,0.06,0.01,0.12,0.02,0.18   c-0.05,0.23-0.09,0.48-0.09,0.73c0,0.34,0.07,0.66,0.16,0.96c-0.05,0.23-0.09,0.48-0.09,0.73c0,0.13,0.02,0.25,0.04,0.37   c-0.06,0.25-0.11,0.52-0.11,0.79c0,0.51,0.13,0.99,0.34,1.42c-0.21,0.43-0.34,0.91-0.34,1.42c0,0.51,0.13,0.99,0.34,1.42   c-0.21,0.43-0.34,0.91-0.34,1.42c0,0.51,0.13,0.99,0.34,1.42c-0.21,0.43-0.34,0.91-0.34,1.42s0.13,0.99,0.34,1.42   c-0.21,0.43-0.34,0.91-0.34,1.42c0,0.51,0.13,0.99,0.34,1.42c-0.21,0.43-0.34,0.91-0.34,1.42c0,0.51,0.13,0.99,0.34,1.42   c-0.21,0.43-0.34,0.91-0.34,1.42c0,0.51,0.13,0.98,0.34,1.41c-0.21,0.43-0.34,0.9-0.34,1.41c0,1.8,1.46,3.26,3.26,3.26h5.69   c1.8,0,3.26-1.46,3.26-3.26c0-0.51-0.13-0.98-0.34-1.41c0.21-0.43,0.34-0.9,0.34-1.41c0-0.51-0.13-0.99-0.34-1.42   c0.21-0.43,0.34-0.91,0.34-1.42c0-0.51-0.13-0.99-0.34-1.42c0.21-0.43,0.34-0.91,0.34-1.42c0-0.51-0.13-0.99-0.34-1.42   c0.21-0.43,0.34-0.91,0.34-1.42s-0.13-0.99-0.34-1.42c0.21-0.43,0.34-0.91,0.34-1.42c0-0.51-0.13-0.99-0.34-1.42   c0.21-0.43,0.34-0.91,0.34-1.42c0-0.51-0.13-0.99-0.34-1.42c0.21-0.43,0.34-0.91,0.34-1.42c0-0.27-0.04-0.53-0.11-0.79   c0.01-0.12,0.04-0.24,0.04-0.37c0-0.25-0.04-0.49-0.09-0.73c0.1-0.31,0.16-0.62,0.16-0.96c0-0.25-0.03-0.49-0.09-0.73   c0-0.06,0.02-0.12,0.02-0.18c0-0.3-0.05-0.58-0.13-0.85c0.12-0.34,0.2-0.7,0.2-1.09c0-0.23-0.02-0.45-0.07-0.67   c0-0.03,0-0.05,0-0.08c0-0.05,0-0.11,0-0.16c0-0.3-0.05-0.58-0.13-0.85c0.12-0.34,0.2-0.7,0.2-1.09c0-0.22-0.02-0.45-0.07-0.67   c0-0.03,0-0.05,0-0.08c0-0.05,0-0.11,0-0.16c0-0.3-0.05-0.58-0.13-0.85c0.12-0.34,0.2-0.7,0.2-1.09c0-0.23-0.02-0.45-0.07-0.67   c0-0.02,0-0.17,0-0.23c0-0.3-0.05-0.58-0.13-0.85c0.08-0.22,0.13-0.45,0.16-0.69h3.04c1.8,0,3.26-1.46,3.26-3.26   c0-0.51-0.13-0.99-0.34-1.42c0.21-0.43,0.34-0.91,0.34-1.42s-0.13-0.99-0.34-1.42c0.21-0.42,0.33-0.88,0.34-1.38h0.49   c-0.06,0.22-0.1,0.45-0.1,0.68c-0.05,0.22-0.07,0.45-0.07,0.68c0,0.49,0.12,0.95,0.31,1.37c-0.07,0.18-0.13,0.36-0.17,0.55   c-0.09,0.3-0.14,0.61-0.14,0.92c0,0.51,0.13,0.99,0.34,1.42c-0.21,0.43-0.34,0.91-0.34,1.42c0,0.46,0.1,0.89,0.27,1.29   c-0.17,0.4-0.27,0.83-0.27,1.29c0,1.8,1.46,3.26,3.26,3.26h3.03c-0.02,0.14-0.03,0.28-0.03,0.42c0,0.31,0.06,0.61,0.14,0.89   c-0.04,0.21-0.07,0.43-0.07,0.66c0,0.09,0.02,0.18,0.03,0.27c-0.06,0.24-0.1,0.5-0.1,0.76c0,0.36,0.06,0.71,0.18,1.04   c-0.06,0.25-0.11,0.5-0.11,0.77c0,0.19,0.02,0.37,0.06,0.55c-0.03,0.18-0.06,0.36-0.06,0.55c0,0.3,0.06,0.59,0.14,0.87   c-0.08,0.28-0.14,0.57-0.14,0.87c0,0.19,0.02,0.37,0.06,0.55c-0.03,0.18-0.06,0.36-0.06,0.55c0,0.3,0.06,0.59,0.14,0.87   c-0.08,0.28-0.14,0.56-0.14,0.87c0,0.19,0.02,0.37,0.06,0.55c-0.03,0.18-0.06,0.36-0.06,0.55c0,0.3,0.06,0.59,0.14,0.87   c-0.08,0.28-0.14,0.57-0.14,0.87c0,0.19,0.02,0.37,0.06,0.55c-0.03,0.18-0.06,0.36-0.06,0.55c0,0.3,0.06,0.59,0.14,0.87   c-0.08,0.28-0.14,0.57-0.14,0.87c0,0.18,0.02,0.35,0.05,0.51c-0.03,0.17-0.05,0.34-0.05,0.51c0,0.32,0.06,0.62,0.15,0.91   c-0.09,0.29-0.15,0.59-0.15,0.91c0,0.49,0.12,0.95,0.32,1.37c-0.2,0.42-0.32,0.88-0.32,1.37c0,1.76,1.43,3.19,3.19,3.19h3.02   c-0.01,0.08-0.02,0.15-0.02,0.22c0,1.8,1.46,3.26,3.26,3.26h5.69c1.8,0,3.26-1.46,3.26-3.26c0-0.44-0.09-0.85-0.25-1.23   c0.16-0.38,0.25-0.8,0.25-1.23c0-0.51-0.13-0.99-0.34-1.42c0.21-0.43,0.34-0.91,0.34-1.42c0-0.51-0.13-0.99-0.34-1.42   c0.21-0.43,0.34-0.91,0.34-1.42c0-0.51-0.13-0.98-0.34-1.41c0.02-0.04,0.04-0.07,0.05-0.11c0.19-0.42,0.28-0.86,0.28-1.32   c0-0.51-0.13-0.99-0.34-1.42c0.21-0.43,0.34-0.91,0.34-1.42c0-0.51-0.13-0.99-0.34-1.42c0.02-0.04,0.04-0.07,0.05-0.11   c0.03-0.07,0.04-0.15,0.07-0.22h0.56c0.01,0.1,0.01,0.2,0.03,0.3c0,0.06,0,0.12,0.01,0.18c0,0.07-0.01,0.13-0.01,0.2   c0,0.27,0.04,0.53,0.11,0.78c-0.11,0.32-0.18,0.66-0.18,1.01c0,0.23,0.02,0.45,0.07,0.67c0,0.08,0,0.16,0.01,0.24   c-0.01,0.08-0.01,0.17-0.01,0.25c0,0.25,0.04,0.49,0.09,0.73c-0.1,0.31-0.16,0.62-0.16,0.96c0,0.23,0.02,0.45,0.07,0.67   c0,0.34,0.07,0.66,0.17,0.96c-0.15,0.38-0.24,0.78-0.24,1.21c0,0.23,0.02,0.45,0.07,0.67c0,0.34,0.07,0.66,0.17,0.96   c-0.15,0.38-0.24,0.78-0.24,1.21c0,0.23,0.02,0.45,0.07,0.67c0,0.34,0.07,0.66,0.17,0.96c-0.15,0.38-0.24,0.78-0.24,1.21   c0,0.23,0.02,0.45,0.07,0.67c0,0.34,0.07,0.66,0.17,0.96c-0.15,0.38-0.24,0.78-0.24,1.21c0,0.23,0.02,0.45,0.07,0.67   c0.01,0.33,0.08,0.63,0.18,0.93c-0.16,0.38-0.25,0.8-0.25,1.24c0,0.51,0.13,0.99,0.34,1.42c-0.21,0.43-0.34,0.91-0.34,1.42   c0,0.51,0.13,0.99,0.34,1.42c-0.21,0.43-0.34,0.91-0.34,1.42c0,0.52,0.13,1,0.35,1.43c-0.21,0.43-0.35,0.92-0.35,1.43   c0,1.8,1.46,3.26,3.26,3.26h5.69c1.8,0,3.26-1.46,3.26-3.26c0-0.52-0.13-1-0.35-1.43c0.16-0.33,0.27-0.69,0.31-1.07   c1.48,0,3.04,0,3.04,0c1.76,0,3.19-1.43,3.19-3.19c0-0.05-0.01-0.1-0.02-0.15h3.08c1.8,0,3.26-1.46,3.26-3.26   c0-0.61-0.18-1.18-0.47-1.67c0.29-0.49,0.47-1.06,0.47-1.67c0-0.28-0.05-0.54-0.11-0.8h0.63c0.05,0.17,0.11,0.34,0.18,0.5   c-0.2,0.42-0.32,0.87-0.32,1.36c0,1.76,1.43,3.19,3.19,3.19h3.09c-0.01,0.08-0.02,0.15-0.02,0.23c0,0.28,0.05,0.55,0.12,0.82   c-0.11,0.33-0.19,0.68-0.19,1.05c0,0.51,0.13,0.99,0.34,1.42c-0.21,0.43-0.34,0.91-0.34,1.42c0,0.51,0.13,0.99,0.34,1.42   c-0.21,0.43-0.34,0.91-0.34,1.42c0,0.51,0.13,0.99,0.34,1.42c-0.21,0.43-0.34,0.91-0.34,1.42c0,0.51,0.13,0.99,0.34,1.42   c-0.21,0.43-0.34,0.91-0.34,1.42c0,0.51,0.13,0.99,0.34,1.42c-0.21,0.43-0.34,0.91-0.34,1.42s0.13,0.99,0.34,1.42   c-0.21,0.43-0.34,0.91-0.34,1.42c0,0.59,0.17,1.14,0.45,1.62c-0.28,0.48-0.45,1.03-0.45,1.62c0,1.8,1.46,3.26,3.26,3.26h5.69   c1.8,0,3.26-1.46,3.26-3.26c0-0.59-0.17-1.14-0.45-1.62c0.28-0.48,0.45-1.03,0.45-1.62c0-0.51-0.13-0.99-0.34-1.42   c0.21-0.43,0.34-0.91,0.34-1.42s-0.13-0.99-0.34-1.42c0.21-0.43,0.34-0.91,0.34-1.42c0-0.51-0.13-0.99-0.34-1.42   c0.21-0.43,0.34-0.91,0.34-1.42c0-0.51-0.13-0.99-0.34-1.42c0.21-0.43,0.34-0.91,0.34-1.42c0-0.51-0.13-0.99-0.34-1.42   c0.21-0.43,0.34-0.91,0.34-1.42c0-0.51-0.13-0.99-0.34-1.42c0.21-0.43,0.34-0.91,0.34-1.42c0-0.37-0.08-0.72-0.19-1.05   c0.07-0.26,0.12-0.53,0.12-0.82c0-0.08-0.02-0.15-0.02-0.23c0.06-0.24,0.09-0.49,0.09-0.74c0-0.41-0.08-0.8-0.22-1.16   c0.09-0.29,0.15-0.6,0.15-0.92c0-0.03,0-0.05,0-0.08c0.05-0.22,0.07-0.45,0.07-0.68c0-0.41-0.08-0.8-0.22-1.16   c0.09-0.29,0.15-0.6,0.15-0.92c0-0.03,0-0.05,0-0.08c0.05-0.22,0.07-0.45,0.07-0.68c0-0.29-0.05-0.56-0.12-0.82   c0.02-0.16,0.05-0.31,0.05-0.48c0-0.13-0.02-0.26-0.04-0.39c0.02-0.13,0.04-0.26,0.04-0.39c0-0.03,0-0.05,0-0.08   c0.05-0.22,0.07-0.45,0.07-0.68c0-0.33-0.06-0.63-0.15-0.93c0.02-0.08,0.04-0.16,0.05-0.24l0.03-0.1c0,0,0-0.87,0-0.89   c0.05-0.22,0.07-0.45,0.07-0.68c0-0.32-0.06-0.63-0.15-0.93c0.02-0.07,0.04-0.14,0.05-0.22l0.03-0.11c0,0,0-0.09,0-0.21h0.47   c-0.06,0.24-0.09,0.49-0.09,0.74c0,0.28,0.04,0.56,0.11,0.82c0.01,0.04,0.02,0.07,0.03,0.1c-0.04,0.2-0.06,0.4-0.06,0.61   c0,0.16,0.02,0.32,0.05,0.47c-0.07,0.27-0.12,0.55-0.12,0.83c0,0.28,0.04,0.56,0.11,0.82c0.01,0.04,0.02,0.07,0.03,0.1   c-0.04,0.2-0.06,0.4-0.06,0.61c0,0.16,0.02,0.32,0.05,0.47c-0.07,0.27-0.12,0.55-0.12,0.83c0,0.28,0.04,0.56,0.11,0.82   c0.01,0.03,0.02,0.07,0.02,0.1c-0.04,0.2-0.06,0.4-0.06,0.61c0,0.15,0.02,0.29,0.04,0.43c-0.08,0.27-0.11,0.56-0.11,0.85   c0,0.27,0.03,0.54,0.1,0.8c0.01,0.05,0.02,0.09,0.03,0.14c-0.04,0.2-0.06,0.41-0.06,0.62c0,0.2,0.02,0.38,0.06,0.57   c-0.03,0.19-0.06,0.38-0.06,0.57c0,0.08,0,0.17,0.01,0.25c-0.01,0.08-0.01,0.17-0.01,0.25c0,0.21,0.02,0.41,0.06,0.6   c-0.04,0.2-0.06,0.4-0.06,0.6c0,0.22,0.02,0.43,0.06,0.64c-0.04,0.21-0.06,0.42-0.06,0.64c0,0.06,0,0.12,0,0.18   c0,0.06,0,0.12,0,0.18c0,0.21,0.02,0.41,0.06,0.6c-0.04,0.2-0.06,0.4-0.06,0.6c0,0.29,0.05,0.56,0.12,0.82   c-0.07,0.26-0.12,0.53-0.12,0.82c0,0.21,0.02,0.41,0.06,0.6c-0.04,0.2-0.06,0.4-0.06,0.6c0,0.29,0.05,0.56,0.12,0.82   c-0.07,0.26-0.12,0.54-0.12,0.82c0,0.21,0.02,0.41,0.06,0.6c-0.04,0.2-0.06,0.4-0.06,0.6c0,0.29,0.05,0.56,0.12,0.82   c-0.07,0.26-0.12,0.54-0.12,0.82c0,0.21,0.02,0.41,0.06,0.6c-0.04,0.2-0.06,0.4-0.06,0.6c0,0.29,0.05,0.56,0.12,0.82   c-0.07,0.26-0.12,0.53-0.12,0.82c0,0.21,0.02,0.41,0.06,0.6c-0.04,0.2-0.06,0.4-0.06,0.6c0,0.29,0.05,0.56,0.12,0.82   c-0.07,0.26-0.12,0.54-0.12,0.82c0,0.21,0.02,0.41,0.06,0.6c-0.04,0.2-0.06,0.4-0.06,0.6c0,0.29,0.05,0.56,0.12,0.82   c-0.07,0.26-0.12,0.54-0.12,0.82c0,0.23,0.03,0.46,0.08,0.67c-0.05,0.22-0.08,0.44-0.08,0.67c0,0.26,0.04,0.51,0.1,0.75   c-0.06,0.24-0.1,0.49-0.1,0.75c0,0.51,0.13,0.99,0.35,1.42c-0.22,0.43-0.35,0.91-0.35,1.42c0,0.51,0.13,0.99,0.35,1.42   c-0.22,0.43-0.35,0.91-0.35,1.42c0,0.51,0.13,0.99,0.35,1.42c-0.22,0.43-0.35,0.91-0.35,1.42c0,0.51,0.13,0.99,0.35,1.42   c-0.22,0.43-0.35,0.91-0.35,1.42c0,0.56,0.16,1.07,0.41,1.53c-0.25,0.46-0.41,0.97-0.41,1.53c0,1.76,1.43,3.19,3.19,3.19h3.13   c0.02,0.12,0.06,0.23,0.09,0.35c-0.14,0.37-0.23,0.76-0.23,1.17c0,0.23,0.02,0.45,0.07,0.67l0,0.43l0.04,0.15   c0.02,0.14,0.07,0.28,0.11,0.42c-0.14,0.37-0.23,0.76-0.23,1.17c0,0.22,0.02,0.45,0.07,0.67c0,0.01,0,0.03,0,0.04   c0,0.33,0.07,0.65,0.16,0.95c-0.14,0.37-0.23,0.77-0.23,1.19c0,0.23,0.02,0.46,0.07,0.68c0,0.01,0,0.02,0,0.03   c0,0.33,0.07,0.65,0.16,0.95c-0.14,0.37-0.23,0.77-0.23,1.19c0,0.23,0.02,0.46,0.07,0.68c0,0.01,0,0.02,0,0.03   c0,0.42,0.09,0.82,0.24,1.19c-0.19,0.41-0.31,0.87-0.31,1.36c0,0.23,0.02,0.46,0.07,0.68c0.06,1.71,1.47,3.07,3.19,3.07h5.69   c1.72,0,3.13-1.37,3.19-3.07c0.05-0.22,0.07-0.45,0.07-0.68c0-0.49-0.11-0.94-0.31-1.36c0.15-0.37,0.24-0.77,0.24-1.19   c0-0.01,0-0.02,0-0.03c0.05-0.22,0.07-0.45,0.07-0.68c0-0.42-0.09-0.82-0.23-1.19c0.1-0.3,0.16-0.62,0.16-0.95   c0-0.01,0-0.02,0-0.03c0.05-0.22,0.07-0.45,0.07-0.68c0-0.42-0.09-0.82-0.23-1.19c0.09-0.3,0.16-0.62,0.16-0.95   c0-0.01,0-0.03,0-0.04c0.05-0.22,0.07-0.44,0.07-0.67c0-0.42-0.09-0.81-0.23-1.17c0.04-0.14,0.09-0.28,0.11-0.42l0.05-0.15   c0,0,0-0.42,0-0.43c0.05-0.22,0.07-0.44,0.07-0.67c0-0.42-0.09-0.81-0.23-1.18c0.04-0.12,0.08-0.24,0.1-0.37l0.05-0.17   c0,0,0-0.46,0-0.46c0.05-0.22,0.07-0.44,0.07-0.67c0-0.41-0.09-0.81-0.23-1.17c0.04-0.14,0.09-0.28,0.11-0.42l0.05-0.15   c0,0,0-0.42,0-0.43c0.05-0.22,0.07-0.44,0.07-0.67c0-0.41-0.09-0.81-0.23-1.17c0.04-0.14,0.09-0.28,0.11-0.42l0.05-0.15   c0,0,0-0.42,0-0.43c0.05-0.22,0.07-0.44,0.07-0.67c0-0.42-0.09-0.81-0.23-1.18c0.04-0.12,0.08-0.24,0.1-0.37l0.05-0.17   c0,0,0-0.46,0-0.46c0.05-0.22,0.07-0.44,0.07-0.67c0-0.41-0.09-0.81-0.23-1.17c0.05-0.15,0.09-0.31,0.12-0.47l0.04-0.14   c0,0,0-0.39,0-0.4c0.05-0.22,0.07-0.44,0.07-0.67c0-0.42-0.09-0.81-0.23-1.18c0.04-0.12,0.08-0.24,0.1-0.37l0.05-0.17   c0,0,0-0.46,0-0.46c0.05-0.22,0.07-0.44,0.07-0.67c0-0.42-0.09-0.81-0.23-1.18c0.04-0.12,0.08-0.24,0.1-0.37l0.05-0.17   c0,0,0-0.46,0-0.46c0.05-0.22,0.07-0.44,0.07-0.67c0-0.42-0.09-0.81-0.23-1.18c0.04-0.12,0.08-0.24,0.1-0.37l0.05-0.17   c0,0,0-0.46,0-0.46c0.05-0.22,0.07-0.44,0.07-0.67c0-0.41-0.09-0.81-0.23-1.17c0.04-0.14,0.09-0.28,0.11-0.42l0.05-0.15   c0,0,0-0.42,0-0.43c0.03-0.13,0.03-0.27,0.04-0.41h3.03c1.8,0,3.26-1.46,3.26-3.26c0-0.55-0.15-1.07-0.4-1.53   c0.15-0.28,0.27-0.58,0.33-0.9h0.42c-0.03,0.17-0.04,0.33-0.04,0.5c0,0.28,0.05,0.54,0.11,0.8c-0.02,0.14-0.04,0.27-0.04,0.41   c0,0.04,0,0.19,0,0.23c0,0.19,0.02,0.38,0.05,0.56c-0.02,0.12-0.04,0.25-0.04,0.37c-0.05,0.23-0.08,0.46-0.08,0.69   c0,0.26,0.04,0.51,0.1,0.75c-0.01,0.08-0.02,0.16-0.02,0.25c0,0.04,0,0.19,0,0.23c0,0.19,0.02,0.38,0.05,0.56   c-0.03,0.18-0.05,0.37-0.05,0.56c0,0.26,0.04,0.51,0.1,0.75c-0.06,0.24-0.1,0.49-0.1,0.75c0,0.04,0,0.19,0,0.23   c0,0.19,0.02,0.38,0.05,0.56c-0.03,0.18-0.05,0.37-0.05,0.56c0,0.26,0.04,0.51,0.1,0.75c-0.04,0.15-0.07,0.3-0.09,0.46l-0.01,0.05   v0.38c0,0.2,0.02,0.4,0.06,0.6c-0.04,0.19-0.06,0.39-0.06,0.6c0,0.26,0.04,0.51,0.1,0.75c-0.06,0.24-0.1,0.49-0.1,0.75   c0,0.23,0.02,0.45,0.07,0.67c-0.05,0.22-0.07,0.44-0.07,0.67c0,0.29,0.05,0.56,0.12,0.82c-0.07,0.26-0.12,0.54-0.12,0.82   c0,0.19,0.02,0.38,0.06,0.57c-0.03,0.19-0.06,0.37-0.06,0.57c0,1.76,1.43,3.19,3.19,3.19h3.03c0.04,0.41,0.14,0.79,0.31,1.14   c-0.21,0.43-0.34,0.91-0.34,1.42s0.13,0.99,0.34,1.42c-0.21,0.43-0.34,0.91-0.34,1.42c0,0.51,0.13,0.99,0.34,1.42   c-0.21,0.43-0.34,0.91-0.34,1.42c0,0.51,0.13,0.99,0.34,1.42c-0.21,0.43-0.34,0.91-0.34,1.42s0.13,0.99,0.34,1.42   c-0.21,0.43-0.34,0.91-0.34,1.42c0,0.51,0.13,0.99,0.34,1.42c-0.21,0.43-0.34,0.91-0.34,1.42c0,0.51,0.13,0.99,0.34,1.42   c-0.21,0.43-0.34,0.91-0.34,1.42s0.13,0.99,0.34,1.42c-0.21,0.43-0.34,0.91-0.34,1.42c0,0.51,0.13,0.99,0.34,1.42   c-0.21,0.43-0.34,0.91-0.34,1.42c0,0.51,0.13,0.99,0.34,1.42c-0.21,0.43-0.34,0.91-0.34,1.42s0.13,0.99,0.34,1.42   c-0.21,0.43-0.34,0.91-0.34,1.42c0,0.51,0.13,0.99,0.34,1.42c-0.21,0.43-0.34,0.91-0.34,1.42c0,0.51,0.13,0.99,0.34,1.42   c-0.21,0.43-0.34,0.91-0.34,1.42s0.13,0.99,0.34,1.42c-0.21,0.43-0.34,0.91-0.34,1.42c0,0.5,0.12,0.97,0.32,1.39   c-0.2,0.42-0.32,0.89-0.32,1.39c0,1.8,1.46,3.26,3.26,3.26h5.69c1.8,0,3.26-1.46,3.26-3.26c0-0.5-0.12-0.97-0.32-1.39   c0.2-0.42,0.32-0.89,0.32-1.39c0-0.51-0.13-0.99-0.34-1.42c0.21-0.43,0.34-0.91,0.34-1.42s-0.13-0.99-0.34-1.42   c0.21-0.43,0.34-0.91,0.34-1.42c0-0.51-0.13-0.99-0.34-1.42c0.21-0.43,0.34-0.91,0.34-1.42c0-0.51-0.13-0.99-0.34-1.42   c0.21-0.43,0.34-0.91,0.34-1.42s-0.13-0.99-0.34-1.42c0.21-0.43,0.34-0.91,0.34-1.42c0-0.51-0.13-0.99-0.34-1.42   c0.21-0.43,0.34-0.91,0.34-1.42c0-0.51-0.13-0.99-0.34-1.42c0.21-0.43,0.34-0.91,0.34-1.42s-0.13-0.99-0.34-1.42   c0.21-0.43,0.34-0.91,0.34-1.42c0-0.51-0.13-0.99-0.34-1.42h3.34c0.94,0,1.78-0.42,2.36-1.07h1.47c0.05,0.14,0.11,0.27,0.18,0.39   c-0.23,0.44-0.37,0.93-0.37,1.47c0,1.76,1.43,3.19,3.19,3.19h3.12c0.05,0.36,0.17,0.7,0.34,1.02c-0.24,0.45-0.38,0.94-0.38,1.48   c0,1.76,1.43,3.19,3.19,3.19h3.01c0.02,0.46,0.13,0.9,0.33,1.29c-0.21,0.43-0.34,0.91-0.34,1.42c0,0.58,0.17,1.12,0.44,1.6   c-0.27,0.47-0.44,1.02-0.44,1.6c0,1.8,1.46,3.26,3.26,3.26h5.69c1.8,0,3.26-1.46,3.26-3.26c0-0.58-0.17-1.12-0.44-1.6   c0.27-0.47,0.44-1.02,0.44-1.6c0-0.51-0.13-0.99-0.34-1.42c0.21-0.43,0.34-0.91,0.34-1.42c0-0.51-0.13-0.99-0.34-1.42   c0.21-0.43,0.34-0.91,0.34-1.42s-0.13-0.99-0.34-1.42c0.21-0.43,0.34-0.91,0.34-1.42c0-0.51-0.13-0.99-0.34-1.42   c0.21-0.43,0.34-0.91,0.34-1.42s-0.13-0.99-0.34-1.42c0.21-0.43,0.34-0.91,0.34-1.42c0-0.51-0.13-0.99-0.34-1.42   c0.21-0.43,0.34-0.91,0.34-1.42c0-0.51-0.13-0.99-0.34-1.42c0.21-0.43,0.34-0.91,0.34-1.42s-0.13-0.99-0.34-1.42   c0.21-0.43,0.34-0.91,0.34-1.42c0-0.51-0.13-0.99-0.34-1.42c0.11-0.23,0.2-0.47,0.26-0.72h0.47c0,0.02,0,0.04,0,0.06   c-0.01,0.11-0.02,0.23-0.02,0.34c0,0.37,0.08,0.72,0.19,1.05c-0.12,0.33-0.19,0.68-0.19,1.05c0,0.13,0.02,0.25,0.04,0.37   c-0.01,0.12-0.04,0.25-0.04,0.37c0,0.51,0.13,0.99,0.35,1.42c-0.22,0.43-0.35,0.91-0.35,1.42c0,0.51,0.13,0.99,0.35,1.42   c-0.22,0.43-0.35,0.91-0.35,1.42c0,0.48,0.11,0.93,0.3,1.33c-0.19,0.41-0.3,0.86-0.3,1.33c0,1.76,1.43,3.19,3.19,3.19h3.1   c-0.01,0.1-0.03,0.19-0.03,0.28c0,0.1,0.02,0.2,0.03,0.3c-0.06,0.25-0.1,0.5-0.1,0.76c0,0.35,0.07,0.69,0.18,1.01   c-0.06,0.25-0.11,0.51-0.11,0.77c0,0.1,0.02,0.2,0.03,0.3c-0.06,0.25-0.1,0.5-0.1,0.77c0,0.35,0.07,0.69,0.18,1.01   c-0.06,0.25-0.11,0.51-0.11,0.77c0,0.11,0.02,0.21,0.03,0.31c-0.06,0.25-0.1,0.5-0.1,0.77c0,0.34,0.07,0.66,0.16,0.97   c-0.06,0.24-0.09,0.48-0.09,0.74c0,1.76,1.43,3.19,3.19,3.19h5.69c1.76,0,3.19-1.43,3.19-3.19c0-0.25-0.04-0.5-0.09-0.74   c0.1-0.31,0.16-0.63,0.16-0.97c0-0.27-0.04-0.52-0.1-0.77c0.01-0.1,0.03-0.2,0.03-0.31c0-0.27-0.04-0.52-0.11-0.77   c0.11-0.32,0.18-0.65,0.18-1.01c0-0.26-0.04-0.52-0.1-0.77c0.01-0.1,0.03-0.2,0.03-0.3c0-0.27-0.04-0.52-0.11-0.77   c0.11-0.32,0.18-0.65,0.18-1.01c0-0.26-0.04-0.52-0.1-0.76c0.01-0.1,0.03-0.19,0.03-0.3c0-0.27-0.04-0.52-0.11-0.77   c0.11-0.32,0.18-0.65,0.18-1.01c0-0.26-0.04-0.52-0.1-0.77c0.01-0.1,0.03-0.2,0.03-0.3c0-0.27-0.04-0.52-0.11-0.77   c0.11-0.32,0.18-0.65,0.18-1.01c0-0.26-0.04-0.52-0.1-0.77c0.01-0.1,0.03-0.2,0.03-0.3c0-0.27-0.04-0.52-0.11-0.77   c0.11-0.32,0.18-0.65,0.18-1.01c0-0.24-0.03-0.47-0.08-0.7l0.01-0.03l0-0.74l-0.03-0.1c-0.01-0.1-0.04-0.18-0.07-0.28   c0.1-0.31,0.17-0.64,0.17-0.99c0-0.24-0.03-0.48-0.08-0.71c0-0.04,0.01-0.08,0.01-0.12c0-0.04,0-0.2,0-0.24   c0-0.27-0.04-0.52-0.11-0.77c0.11-0.32,0.18-0.65,0.18-1.01c0-0.24-0.03-0.48-0.08-0.71c0-0.04,0.01-0.08,0.01-0.12   c0-0.04,0-0.2,0-0.24c0-0.27-0.04-0.52-0.11-0.77c0.07-0.21,0.11-0.42,0.14-0.65h0.42c0,0.04,0,0.08,0.01,0.12   c-0.01,0.09-0.01,0.19-0.01,0.29c0,0.4,0.08,0.78,0.22,1.14c-0.14,0.35-0.22,0.73-0.22,1.14c0,0.1,0,0.19,0.01,0.29   c-0.01,0.09-0.01,0.19-0.01,0.29c0,0.48,0.11,0.92,0.3,1.33c-0.16,0.34-0.26,0.7-0.29,1.09l-0.01,0.04v0.39   c0,0.51,0.13,0.99,0.35,1.42c-0.22,0.43-0.35,0.91-0.35,1.42c0,0.59,0.17,1.14,0.45,1.61c-0.28,0.48-0.45,1.02-0.45,1.61   c0,1.76,1.43,3.19,3.19,3.19h3.84c0.59,0.69,1.45,1.14,2.42,1.14h3.08c0.01,0.3,0.06,0.59,0.15,0.87c-0.09,0.3-0.16,0.61-0.16,0.94   c0,0.06,0,0.13,0.01,0.19c0,0.06-0.01,0.13-0.01,0.19c0,0.05,0,0.1,0,0.15c0,0.05,0,0.1,0,0.15c0,0.4,0.08,0.78,0.22,1.14   c-0.14,0.35-0.22,0.74-0.22,1.14c0,0.04,0,0.22,0,0.27c0,0.51,0.13,0.99,0.35,1.42c-0.22,0.43-0.35,0.91-0.35,1.42   c0,0.46,0.1,0.89,0.28,1.29c-0.18,0.39-0.28,0.83-0.28,1.29c0,1.76,1.43,3.19,3.19,3.19h3.1c-0.06,0.25-0.1,0.51-0.1,0.76   c0,0.42,0.08,0.83,0.24,1.22c0.02,0.05,0.04,0.1,0.06,0.15c-0.07,0.18-0.13,0.36-0.17,0.56c-0.09,0.3-0.14,0.61-0.14,0.92   c0,0.42,0.08,0.83,0.24,1.22c0.02,0.05,0.04,0.1,0.06,0.15c-0.07,0.18-0.13,0.36-0.17,0.56c-0.09,0.3-0.14,0.61-0.14,0.92   c0,0.42,0.08,0.83,0.24,1.22c0.02,0.05,0.05,0.1,0.07,0.15c-0.07,0.18-0.13,0.36-0.17,0.55c-0.09,0.3-0.14,0.61-0.14,0.92   c0,0.42,0.08,0.83,0.24,1.22c0.02,0.05,0.04,0.1,0.07,0.15c-0.08,0.2-0.15,0.41-0.19,0.62c-0.08,0.28-0.12,0.58-0.12,0.87   c0,0.47,0.11,0.93,0.31,1.35c-0.15,0.37-0.24,0.77-0.24,1.19c0,0.03,0,0.72,0,0.72l0.01,0.04c0.03,0.31,0.11,0.6,0.22,0.88   c-0.15,0.37-0.24,0.77-0.24,1.2c0,0.08,0,0.16,0.01,0.24c-0.01,0.08-0.01,0.16-0.01,0.24c0,0.42,0.09,0.82,0.23,1.18   c-0.15,0.37-0.23,0.77-0.23,1.18c0,0.08,0,0.16,0.01,0.24c-0.01,0.08-0.01,0.16-0.01,0.24c0,0.37,0.08,0.72,0.19,1.05   c-0.12,0.33-0.19,0.68-0.19,1.05c0,0.13,0.02,0.25,0.04,0.37c-0.01,0.12-0.04,0.24-0.04,0.37c0,0.51,0.13,0.99,0.35,1.42   c-0.22,0.43-0.35,0.91-0.35,1.42s0.13,0.99,0.35,1.42c-0.22,0.43-0.35,0.91-0.35,1.42s0.13,0.99,0.35,1.42   c-0.22,0.43-0.35,0.91-0.35,1.42c0,0.51,0.13,0.99,0.35,1.42c-0.22,0.43-0.35,0.91-0.35,1.42c0,0.51,0.13,0.99,0.35,1.42   c-0.22,0.43-0.35,0.91-0.35,1.42s0.13,0.99,0.35,1.42c-0.22,0.43-0.35,0.91-0.35,1.42c0,0.51,0.13,0.99,0.35,1.42   c-0.22,0.43-0.35,0.91-0.35,1.42c0,0.51,0.13,0.99,0.35,1.42c-0.22,0.43-0.35,0.91-0.35,1.42s0.13,0.99,0.35,1.42   c-0.22,0.43-0.35,0.91-0.35,1.42c0,0.51,0.13,0.99,0.35,1.42c-0.22,0.43-0.35,0.91-0.35,1.42s0.13,0.99,0.35,1.42   c-0.22,0.43-0.35,0.91-0.35,1.42c0,0.51,0.13,0.99,0.35,1.42c-0.22,0.43-0.35,0.91-0.35,1.42c0,0.51,0.13,0.99,0.35,1.42   c-0.22,0.43-0.35,0.91-0.35,1.42s0.13,0.99,0.35,1.42c-0.22,0.43-0.35,0.91-0.35,1.42s0.13,0.99,0.35,1.42   c-0.22,0.43-0.35,0.91-0.35,1.42c0,0.51,0.13,0.99,0.35,1.42c-0.22,0.43-0.35,0.91-0.35,1.42c0,0.51,0.13,0.99,0.35,1.42   c-0.22,0.43-0.35,0.91-0.35,1.42c0,0.48,0.11,0.93,0.3,1.33c-0.19,0.41-0.3,0.86-0.3,1.33c0,1.76,1.43,3.19,3.19,3.19h5.69   c1.76,0,3.19-1.43,3.19-3.19c0-0.48-0.11-0.93-0.3-1.33c0.19-0.41,0.3-0.86,0.3-1.33c0-0.51-0.13-0.99-0.35-1.42   c0.22-0.43,0.35-0.91,0.35-1.42c0-0.51-0.13-0.99-0.35-1.42c0.22-0.43,0.35-0.91,0.35-1.42c0-0.51-0.13-0.99-0.35-1.42   c0.22-0.43,0.35-0.91,0.35-1.42s-0.13-0.99-0.35-1.42c0.22-0.43,0.35-0.91,0.35-1.42s-0.13-0.99-0.35-1.42   c0.22-0.43,0.35-0.91,0.35-1.42c0-0.51-0.13-0.99-0.35-1.42c0.22-0.43,0.35-0.91,0.35-1.42c0-0.51-0.13-0.99-0.35-1.42   c0.22-0.43,0.35-0.91,0.35-1.42s-0.13-0.99-0.35-1.42c0.22-0.43,0.35-0.91,0.35-1.42c0-0.51-0.13-0.99-0.35-1.42   c0.22-0.43,0.35-0.91,0.35-1.42s-0.13-0.99-0.35-1.42c0.22-0.43,0.35-0.91,0.35-1.42c0-0.51-0.13-0.99-0.35-1.42   c0.22-0.43,0.35-0.91,0.35-1.42c0-0.14-0.02-0.27-0.04-0.4h3.11c1.76,0,3.19-1.43,3.19-3.19c0-0.51-0.13-0.98-0.34-1.4   c0.21-0.43,0.34-0.9,0.34-1.4c0-0.51-0.13-0.99-0.35-1.42c0.22-0.43,0.35-0.91,0.35-1.42c0-0.51-0.13-0.99-0.35-1.42   c0.22-0.43,0.35-0.91,0.35-1.42c0-0.3-0.06-0.59-0.14-0.87c0.08-0.28,0.14-0.57,0.14-0.87c0-0.19-0.02-0.37-0.06-0.55   c0.03-0.18,0.06-0.36,0.06-0.55c0-0.28-0.05-0.55-0.12-0.8c0.07-0.26,0.12-0.53,0.12-0.8c0-0.21-0.02-0.42-0.06-0.62   c0.04-0.2,0.06-0.41,0.06-0.62c0-0.28-0.05-0.55-0.12-0.8c0.07-0.26,0.12-0.53,0.12-0.8c0-0.21-0.02-0.42-0.06-0.62   c0.04-0.2,0.06-0.41,0.06-0.62c0-0.28-0.05-0.55-0.12-0.8c0.07-0.26,0.12-0.53,0.12-0.8c0-0.21-0.02-0.42-0.06-0.62   c0.04-0.2,0.06-0.41,0.06-0.62c0-0.28-0.05-0.55-0.12-0.8c0.07-0.26,0.12-0.52,0.12-0.8c0-0.21-0.02-0.42-0.06-0.62   c0.04-0.2,0.06-0.41,0.06-0.62c0-0.28-0.05-0.55-0.12-0.81c0.07-0.26,0.12-0.53,0.12-0.81c0-0.21-0.02-0.42-0.06-0.62   c0.04-0.2,0.06-0.41,0.06-0.62c0-0.28-0.05-0.55-0.12-0.8c0.07-0.26,0.12-0.52,0.12-0.8c0-0.21-0.02-0.42-0.06-0.62   c0.04-0.2,0.06-0.41,0.06-0.62c0-0.28-0.05-0.55-0.12-0.8c0.07-0.26,0.12-0.52,0.12-0.8c0-0.21-0.02-0.42-0.06-0.62   c0.04-0.2,0.06-0.41,0.06-0.62c0-0.28-0.05-0.55-0.12-0.81c0.07-0.26,0.12-0.53,0.12-0.81c0-0.21-0.02-0.42-0.06-0.62   c0.04-0.2,0.06-0.41,0.06-0.62c0-0.28-0.05-0.55-0.12-0.8c0.07-0.26,0.12-0.52,0.12-0.8c0-0.21-0.02-0.42-0.06-0.62   c0.04-0.2,0.06-0.41,0.06-0.62c0-0.28-0.05-0.55-0.12-0.81c0.07-0.26,0.12-0.53,0.12-0.81c0-0.21-0.02-0.42-0.06-0.62   c0.04-0.2,0.06-0.41,0.06-0.62c0-0.28-0.05-0.55-0.12-0.81c0.07-0.26,0.12-0.53,0.12-0.81c0-0.21-0.02-0.42-0.06-0.62   c0.04-0.2,0.06-0.41,0.06-0.62c0-0.28-0.05-0.55-0.12-0.8c0.07-0.26,0.12-0.52,0.12-0.8c0-0.21-0.02-0.42-0.06-0.62   c0.04-0.2,0.06-0.41,0.06-0.62c0-0.28-0.05-0.55-0.12-0.81c0.07-0.26,0.12-0.53,0.12-0.81c0-0.21-0.02-0.42-0.06-0.62   c0.04-0.2,0.06-0.41,0.06-0.62c0-0.1,0-0.2-0.01-0.3c0.01-0.1,0.01-0.2,0.01-0.3c0-0.17-0.02-0.34-0.05-0.5   c0.03-0.17,0.05-0.33,0.05-0.5c0-0.21-0.02-0.42-0.06-0.62c0.04-0.2,0.06-0.41,0.06-0.62c0-0.09,0-0.18-0.01-0.28   c0.01-0.09,0.01-0.18,0.01-0.28c0-0.18-0.02-0.36-0.05-0.53c0.03-0.17,0.05-0.35,0.05-0.53c0-0.21-0.02-0.42-0.06-0.62   c0.04-0.2,0.06-0.41,0.06-0.62c0-0.09,0-0.18-0.01-0.27c0.01-0.09,0.01-0.19,0.01-0.28c0-0.18-0.02-0.35-0.05-0.53   c0.03-0.17,0.05-0.35,0.05-0.53c0-0.21-0.02-0.42-0.06-0.62c0.04-0.2,0.06-0.41,0.06-0.62c0-0.09,0-0.19-0.01-0.28   c0.01-0.09,0.01-0.18,0.01-0.28c0-0.18-0.02-0.35-0.05-0.53c0.03-0.17,0.05-0.35,0.05-0.53c0-0.21-0.02-0.42-0.06-0.62   c0.04-0.2,0.06-0.41,0.06-0.62c0-0.09,0-0.18-0.01-0.28c0.01-0.09,0.01-0.18,0.01-0.28c0-0.18-0.02-0.36-0.05-0.53   c0.03-0.17,0.05-0.35,0.05-0.53c0-0.21-0.02-0.42-0.06-0.62c0.04-0.2,0.06-0.41,0.06-0.62c0-0.09,0-0.18-0.01-0.27   c0.01-0.09,0.01-0.19,0.01-0.28c0-0.18-0.02-0.35-0.05-0.53c0.03-0.17,0.05-0.35,0.05-0.53c0-0.21-0.02-0.42-0.06-0.62   c0.04-0.2,0.06-0.41,0.06-0.62c0-0.09,0-0.19-0.01-0.28c0.01-0.09,0.01-0.18,0.01-0.28c0-0.18-0.02-0.35-0.05-0.53   c0.03-0.17,0.05-0.35,0.05-0.53c0-0.21-0.02-0.42-0.06-0.62c0.04-0.2,0.06-0.41,0.06-0.62c0-0.09,0-0.19-0.01-0.28   c0.01-0.09,0.01-0.18,0.01-0.28c0-0.18-0.02-0.36-0.05-0.53c0.03-0.17,0.05-0.35,0.05-0.53c0-0.21-0.02-0.42-0.06-0.62   c0.04-0.2,0.06-0.41,0.06-0.62c0-0.09,0-0.19-0.01-0.28c0.01-0.09,0.01-0.18,0.01-0.28c0-0.18-0.02-0.36-0.05-0.53   c0.03-0.17,0.05-0.35,0.05-0.53c0-0.21-0.02-0.42-0.06-0.62c0.04-0.2,0.06-0.41,0.06-0.62c0-0.09,0-0.19-0.01-0.28   c0.01-0.09,0.01-0.18,0.01-0.28c0-0.18-0.02-0.35-0.05-0.53c0.03-0.17,0.05-0.35,0.05-0.53c0-0.21-0.02-0.42-0.06-0.62   c0.04-0.2,0.06-0.41,0.06-0.62c0-0.09,0-0.19-0.01-0.28c0.01-0.09,0.01-0.18,0.01-0.28c0-0.18-0.02-0.36-0.05-0.53   c0.03-0.17,0.05-0.35,0.05-0.53c0-0.21-0.02-0.42-0.06-0.62c0.04-0.2,0.06-0.41,0.06-0.62c0-0.09,0-0.19-0.01-0.28   c0.01-0.09,0.01-0.18,0.01-0.28c0-0.18-0.02-0.36-0.05-0.53c0.03-0.17,0.05-0.35,0.05-0.53c0-0.21-0.02-0.42-0.06-0.62   c0.04-0.2,0.06-0.41,0.06-0.62c0-0.09,0-0.19-0.01-0.28c0.01-0.09,0.01-0.18,0.01-0.28c0-0.18-0.02-0.35-0.05-0.53   c0.03-0.17,0.05-0.35,0.05-0.53c0-0.21-0.02-0.42-0.06-0.62c0.04-0.2,0.06-0.41,0.06-0.62c0-0.09,0-0.19-0.01-0.28   c0.01-0.09,0.01-0.18,0.01-0.28c0-0.18-0.02-0.36-0.05-0.53c0.03-0.17,0.05-0.35,0.05-0.53c0-0.21-0.02-0.42-0.06-0.62   c0.04-0.2,0.06-0.41,0.06-0.62c0-0.09,0-0.19-0.01-0.28c0.01-0.09,0.01-0.18,0.01-0.28c0-0.18-0.02-0.36-0.05-0.53   c0.03-0.17,0.05-0.35,0.05-0.53c0-0.21-0.02-0.42-0.06-0.62c0.04-0.2,0.06-0.41,0.06-0.62c0-0.09,0-0.19-0.01-0.28   c0.01-0.09,0.01-0.18,0.01-0.28c0-0.18-0.02-0.35-0.05-0.53c0.03-0.17,0.05-0.35,0.05-0.53c0-0.21-0.02-0.42-0.06-0.62   c0.04-0.2,0.06-0.41,0.06-0.62c0-0.09,0-0.19-0.01-0.28c0.01-0.09,0.01-0.18,0.01-0.28c0-0.18-0.02-0.36-0.05-0.53   c0.03-0.17,0.05-0.35,0.05-0.53c0-0.21-0.02-0.42-0.06-0.62c0.04-0.2,0.06-0.41,0.06-0.62c0-0.09,0-0.19-0.01-0.28   c0.01-0.09,0.01-0.18,0.01-0.28c0-0.19-0.02-0.37-0.05-0.55c0.03-0.17,0.05-0.33,0.05-0.51c0-0.21-0.02-0.42-0.06-0.62   c0.04-0.2,0.06-0.41,0.06-0.62c0-0.09,0-0.19-0.01-0.28c0.01-0.09,0.01-0.18,0.01-0.28c0-0.18-0.02-0.35-0.05-0.53   c0.03-0.17,0.05-0.35,0.05-0.53c0-0.21-0.02-0.42-0.06-0.62c0.04-0.2,0.06-0.41,0.06-0.62c0-0.09,0-0.19-0.01-0.28   c0.01-0.09,0.01-0.18,0.01-0.28c0-0.18-0.02-0.35-0.05-0.53c0.03-0.17,0.05-0.35,0.05-0.53c0-0.21-0.02-0.42-0.06-0.62   c0.04-0.2,0.06-0.41,0.06-0.62c0-0.09,0-0.19-0.01-0.28c0.01-0.09,0.01-0.18,0.01-0.27c0-0.18-0.02-0.36-0.05-0.53   c0.03-0.17,0.05-0.35,0.05-0.53c0-0.21-0.02-0.42-0.06-0.62c0.04-0.2,0.06-0.41,0.06-0.62c0-0.09,0-0.19-0.01-0.28   c0.01-0.09,0.01-0.18,0.01-0.28c0-0.18-0.02-0.35-0.05-0.53c0.03-0.17,0.05-0.35,0.05-0.53c0-0.21-0.02-0.42-0.06-0.62   c0.04-0.2,0.06-0.41,0.06-0.62c0-0.09,0-0.19-0.01-0.28c0.01-0.09,0.01-0.18,0.01-0.28c0-0.18-0.02-0.35-0.05-0.53   c0.03-0.17,0.05-0.35,0.05-0.53c0-0.21-0.02-0.42-0.06-0.62c0.04-0.2,0.06-0.41,0.06-0.62c0-0.09,0-0.19-0.01-0.28   c0.01-0.09,0.01-0.18,0.01-0.27c0-0.18-0.02-0.36-0.05-0.53c0.03-0.17,0.05-0.35,0.05-0.53c0-0.21-0.02-0.42-0.06-0.62   c0.04-0.2,0.06-0.41,0.06-0.62c0-0.09,0-0.19-0.01-0.28c0.01-0.09,0.01-0.18,0.01-0.28c0-0.18-0.02-0.35-0.05-0.53   c0.03-0.17,0.05-0.35,0.05-0.53c0-0.21-0.02-0.42-0.06-0.62c0.04-0.2,0.06-0.41,0.06-0.62c0-0.09,0-0.18-0.01-0.27   c0.01-0.09,0.01-0.19,0.01-0.28c0-0.19-0.02-0.37-0.05-0.55c0.03-0.17,0.05-0.33,0.05-0.5c0-0.21-0.02-0.42-0.06-0.62   c0.04-0.2,0.06-0.41,0.06-0.62c0-0.09,0-0.19-0.01-0.28c0.01-0.09,0.01-0.18,0.01-0.28c0-0.19-0.02-0.37-0.05-0.55   c0.03-0.17,0.05-0.33,0.05-0.51c0-0.21-0.02-0.42-0.06-0.62c0.04-0.2,0.06-0.41,0.06-0.62c0-0.09,0-0.18-0.01-0.28   c0.01-0.09,0.01-0.18,0.01-0.28c0-0.19-0.02-0.37-0.05-0.55c0.03-0.17,0.05-0.33,0.05-0.51c0-0.21-0.02-0.42-0.06-0.62   c0.04-0.2,0.06-0.41,0.06-0.62c0-0.09,0-0.18-0.01-0.27c0.01-0.09,0.01-0.19,0.01-0.28c0-0.19-0.02-0.37-0.05-0.55   c0.03-0.17,0.05-0.33,0.05-0.5c0-0.21-0.02-0.42-0.06-0.62c0.04-0.2,0.06-0.41,0.06-0.62c0-0.09,0-0.19-0.01-0.28   c0.01-0.09,0.01-0.18,0.01-0.27c0-0.19-0.02-0.37-0.05-0.55c0.03-0.17,0.05-0.33,0.05-0.51c0-0.21-0.02-0.42-0.06-0.62   c0.04-0.2,0.06-0.41,0.06-0.62c0-0.09,0-0.18-0.01-0.28c0.01-0.09,0.01-0.18,0.01-0.28c0-0.19-0.02-0.37-0.05-0.55   c0.03-0.17,0.05-0.33,0.05-0.51c0-0.21-0.02-0.42-0.06-0.62c0.04-0.2,0.06-0.41,0.06-0.62c0-0.09,0-0.18-0.01-0.27   c0.01-0.09,0.01-0.19,0.01-0.28c0-0.19-0.02-0.37-0.05-0.55c0.03-0.17,0.05-0.33,0.05-0.5c0-0.21-0.02-0.42-0.06-0.62   c0.04-0.2,0.06-0.41,0.06-0.62c0-0.09,0-0.19-0.01-0.28c0.01-0.09,0.01-0.18,0.01-0.28c0-0.18-0.02-0.36-0.05-0.53   c0.03-0.17,0.05-0.35,0.05-0.53c0-0.21-0.02-0.42-0.06-0.62c0.04-0.2,0.06-0.41,0.06-0.62c0-0.09,0-0.19-0.01-0.28   c0.01-0.09,0.01-0.18,0.01-0.28c0-0.18-0.02-0.36-0.05-0.53c0.03-0.17,0.05-0.35,0.05-0.53   C1701.96,435.99,1701.93,435.78,1701.89,435.58z"
   id="path857" />
</svg>
