<?xml version="1.0" encoding="UTF-8" standalone="no"?>
<!-- Created with Inkscape (http://www.inkscape.org/) -->

<svg
   version="1.1"
   id="svg824"
   xml:space="preserve"
   width="630.19104"
   height="762.34082"
   viewBox="0 0 630.19106 762.34082"
   sodipodi:docname="0_human_dna_mask_specialcase.svg"
   inkscape:version="1.1.1 (c3084ef, 2021-09-22)"
   xmlns:inkscape="http://www.inkscape.org/namespaces/inkscape"
   xmlns:sodipodi="http://sodipodi.sourceforge.net/DTD/sodipodi-0.dtd"
   xmlns="http://www.w3.org/2000/svg"
   xmlns:svg="http://www.w3.org/2000/svg"><defs
     id="defs828"><clipPath
       clipPathUnits="userSpaceOnUse"
       id="clipPath840"><path
         d="M 0,0 H 9451.443 V 623.509 H 0 Z"
         id="path838" /></clipPath><clipPath
       clipPathUnits="userSpaceOnUse"
       id="clipPath1220"><path
         d="M 0,0 H 9451.443 V 623.509 H 0 Z"
         id="path1218" /></clipPath><clipPath
       clipPathUnits="userSpaceOnUse"
       id="clipPath1228"><path
         d="m 577.742,340.937 h 21.492 v -7.886 h -21.492 z"
         id="path1226" /></clipPath><clipPath
       clipPathUnits="userSpaceOnUse"
       id="clipPath1232"><path
         d="m 577.742,333.052 h 21.492 v 7.885 h -21.492 z"
         id="path1230" /></clipPath><clipPath
       clipPathUnits="userSpaceOnUse"
       id="clipPath1252"><path
         d="m 577.742,314.199 h 26.749 v -7.887 h -26.749 z"
         id="path1250" /></clipPath><clipPath
       clipPathUnits="userSpaceOnUse"
       id="clipPath1256"><path
         d="m 577.742,306.314 h 26.749 v 7.885 h -26.749 z"
         id="path1254" /></clipPath><clipPath
       clipPathUnits="userSpaceOnUse"
       id="clipPath1276"><path
         d="m 577.742,287.462 h 26.963 v -7.886 h -26.963 z"
         id="path1274" /></clipPath><clipPath
       clipPathUnits="userSpaceOnUse"
       id="clipPath1280"><path
         d="m 577.742,279.577 h 26.957 v 7.885 h -26.957 z"
         id="path1278" /></clipPath><clipPath
       clipPathUnits="userSpaceOnUse"
       id="clipPath1300"><path
         d="m 577.742,260.723 h 25.566 v -7.885 h -25.566 z"
         id="path1298" /></clipPath><clipPath
       clipPathUnits="userSpaceOnUse"
       id="clipPath1304"><path
         d="m 577.742,252.838 h 25.566 v 7.885 h -25.566 z"
         id="path1302" /></clipPath><clipPath
       clipPathUnits="userSpaceOnUse"
       id="clipPath1340"><path
         d="M 0,0 H 9451.443 V 623.509 H 0 Z"
         id="path1338" /></clipPath><clipPath
       clipPathUnits="userSpaceOnUse"
       id="clipPath1348"><path
         d="M 577.742,235.276 H 611.2 V 220.39 h -33.458 z"
         id="path1346" /></clipPath><clipPath
       clipPathUnits="userSpaceOnUse"
       id="clipPath1352"><path
         d="M 577.742,220.39 H 611.2 v 14.887 h -33.458 z"
         id="path1350" /></clipPath><clipPath
       clipPathUnits="userSpaceOnUse"
       id="clipPath1384"><path
         d="M 0,0 H 9451.443 V 623.509 H 0 Z"
         id="path1382" /></clipPath></defs><sodipodi:namedview
     id="namedview826"
     pagecolor="#505050"
     bordercolor="#eeeeee"
     borderopacity="1"
     inkscape:pageshadow="0"
     inkscape:pageopacity="0"
     inkscape:pagecheckerboard="0"
     showgrid="false"
     inkscape:zoom="0.37964954"
     inkscape:cx="98.775307"
     inkscape:cy="471.48747"
     inkscape:window-width="1312"
     inkscape:window-height="762"
     inkscape:window-x="0"
     inkscape:window-y="25"
     inkscape:window-maximized="0"
     inkscape:current-layer="g830" /><g
     id="g830"
     inkscape:groupmode="layer"
     inkscape:label="0_human_dna_legend"
     transform="matrix(1.3333333,0,0,-1.3333333,-740.51238,782.70761)"><path
       style="fill:#120000;stroke:none;stroke-width:0.75px;stroke-linecap:butt;stroke-linejoin:miter;stroke-opacity:1;fill-opacity:1"
       d="m 660.7356,15.2751 -7.0109,15.8868 -4.09009,37.302194 -14.70024,25.174883 -10.19873,19.490903 -5.21268,17.45116 -0.90655,11.55855 2.03974,12.01183 10.42537,21.07737 22.43719,23.5704 30.29789,24.81491 1.8851,4.9289 6.57218,8.78471 3.62621,13.37167 -0.67991,34.9023 -3.17294,22.66384 1.13319,33.76912 10.42537,25.61013 13.5983,14.27822 26.74333,12.46511 15.63805,4.07949 31.70512,5.51351 2.74391,4.68522 9.39409,-2.71222 -1.00847,6.33844 8.53747,2.52856 2.11453,7.44353 7.02579,1.8131 5.47768,1.54837 -3.66457,6.38397 5.65657,4.35603 5.90198,26.01351 16.54461,41.70147 19.49089,28.32979 19.03763,19.94418 25.83677,17.90443 22.21056,9.74545 23.5704,5.21268 25.26716,1.65649 4.5085,-15.3761 38.0915,-74.1639 -18.0067,-17.72997 -24.93025,-21.98392 -17.22451,-12.69175 -35.12894,-19.4909 -39.88836,-14.95813 -55.07312,-10.42537 -9.50812,-1.63996 -4.77011,-22.83698 -12.91838,-37.62198 -6.11923,-15.4114 -12.01184,-20.17082 -14.95813,-20.62409 -62.98231,-53.17973 6.19202,-57.99556 -3.7584,-37.40628 L 704.54298,89.631649 687.57057,53.040814 660.7356,15.2751"
       id="path2980"
       sodipodi:nodetypes="ccccccccccccccccccccccccccccccccccccccccccccccccccccccccccc" /></g></svg>
