<?xml version="1.0" encoding="UTF-8" standalone="no"?>
<svg
   width="9602px"
   height="624px"
   viewBox="0 0 9602 624"
   version="1.1"
   id="svg1187"
   sodipodi:docname="0_human_dna_mask_specialcase_resized.svg"
   inkscape:version="1.1.1 (c3084ef, 2021-09-22)"
   xmlns:inkscape="http://www.inkscape.org/namespaces/inkscape"
   xmlns:sodipodi="http://sodipodi.sourceforge.net/DTD/sodipodi-0.dtd"
   xmlns="http://www.w3.org/2000/svg"
   xmlns:svg="http://www.w3.org/2000/svg">
  <defs
     id="defs1191" />
  <sodipodi:namedview
     id="namedview1189"
     pagecolor="#505050"
     bordercolor="#eeeeee"
     borderopacity="1"
     inkscape:pageshadow="0"
     inkscape:pageopacity="0"
     inkscape:pagecheckerboard="0"
     showgrid="false"
     inkscape:zoom="0.44616686"
     inkscape:cx="787.82185"
     inkscape:cy="428.09096"
     inkscape:window-width="1312"
     inkscape:window-height="762"
     inkscape:window-x="0"
     inkscape:window-y="25"
     inkscape:window-maximized="0"
     inkscape:current-layer="svg1187" />
  <path
     style="fill:#000000;stroke:#000000;stroke-width:1px;stroke-linecap:butt;stroke-linejoin:miter;stroke-opacity:1;fill-opacity:1"
     d="m 672.99609,608.71094 12.90565,-17.73203 13.97341,-21.44196 16.1417,-32.52432 6.26394,-16.86446 5.7821,-22.64656 3.13197,-18.55091 2.16829,-27.94682 -1.44553,-27.94682 -2.40921,-20.23735 -1.90685,-7.56971 11.78461,-7.60831 12.28697,-8.43223 12.7688,-10.11868 11.80512,-11.32328 11.08236,-10.60052 13.49157,-16.38262 8.67316,-12.52788 10.11867,-18.30999 9.155,-22.16472 7.70946,-22.16472 5.7821,-24.33301 0.86562,-6.01451 22.26279,-3.62232 33.488,-5.7821 22.88748,-6.74579 31.0788,-12.76881 25.77853,-13.49156 21.6829,-14.69618 21.9238,-18.79183 16.6235,-16.38262 7.1336,-6.71488 -4.25,-8.8125 -34.4336,-65.410159 -4.5781,-15.386719 -8.44224,-0.28501 -24.33301,3.131972 -13.97341,3.613813 -14.45525,5.059338 -11.56421,5.782101 -14.93709,8.673152 -11.32328,9.636835 -13.00973,11.805123 -9.87776,12.286965 -6.74578,9.636839 -8.19131,13.97341 -5.7821,12.04604 -6.74578,16.38262 -5.54119,16.86446 -3.37289,11.32328 -2.01361,10.69406 -3.76849,26.8896 -33.06745,5.52056 -18.2487,3.15259 -23.1284,5.30026 -30.83787,12.76881 -15.65986,14.45525 -3.13197,4.09565 -4.5775,9.155 -3.13197,9.63683 -1.2046,8.67315 -0.72276,8.67316 -0.24093,16.62354 0.96369,12.52788 1.2046,12.52789 3.78659,19.78499 2.74218,13.8789 3.4375,16.25 -13.96875,8.91016 -15.03027,10.32024 -16.1417,13.25065 -11.32328,10.35959 -12.04604,11.32329 -8.43223,11.80512 -5.05934,8.19131 -3.61381,12.28696 -0.96369,8.67316 0.72277,10.35959 4.09565,15.17802 7.70947,15.90078 10.11868,17.3463 13.42864,22.01671 12.78515,19.60156 -10.57812,14.55078 z"
     id="drawnpath" />
</svg>
