<?xml version="1.0" encoding="UTF-8" standalone="no"?>
<!-- Generator: Adobe Illustrator 23.0.1, SVG Export Plug-In . SVG Version: 6.00 Build 0)  -->

<svg
   version="1.1"
   id="AR_x5F_layer"
   x="0px"
   y="0px"
   width="9451.5px"
   height="623.5px"
   viewBox="0 0 9451.5 623.5"
   style="enable-background:new 0 0 9451.5 623.5;"
   xml:space="preserve"
   sodipodi:docname="12 Vermont Acid rain Layer 4 mask-01.svg"
   inkscape:version="1.1.1 (c3084ef, 2021-09-22)"
   xmlns:inkscape="http://www.inkscape.org/namespaces/inkscape"
   xmlns:sodipodi="http://sodipodi.sourceforge.net/DTD/sodipodi-0.dtd"
   xmlns="http://www.w3.org/2000/svg"
   xmlns:svg="http://www.w3.org/2000/svg"><defs
   id="defs3531" /><sodipodi:namedview
   id="namedview3529"
   pagecolor="#505050"
   bordercolor="#eeeeee"
   borderopacity="1"
   inkscape:pageshadow="0"
   inkscape:pageopacity="0"
   inkscape:pagecheckerboard="0"
   showgrid="false"
   inkscape:zoom="0.56528629"
   inkscape:cx="2539.4212"
   inkscape:cy="-30.073257"
   inkscape:window-width="1296"
   inkscape:window-height="762"
   inkscape:window-x="0"
   inkscape:window-y="25"
   inkscape:window-maximized="0"
   inkscape:current-layer="AR_x5F_layer" />
<style
   type="text/css"
   id="style2">
	.st0{opacity:1;}
	.st1{fill:#231F20;}
</style>
<path
   style="fill:#cb0000;fill-opacity:0.2834008"
   d="m 2264.2389,338.02194 c -2.9395,-1.3342 -5.1107,-3.33376 -7,-6.44643 -2.391,-3.93905 -3.1835,-4.5191 -6.2389,-4.56586 -7.8424,-0.12004 -15.872,-6.28702 -17.956,-13.7907 -1.4501,-5.22142 -1.3187,-7.10742 0.956,-13.71895 1.582,-4.59806 2,-8.41747 2,-18.27318 0,-12.43356 -0,-12.4588 -2.25,-11.85711 -1.2375,0.33164 -3.1645,0.60913 -4.2822,0.61664 -1.7747,0.0119 -2.0419,0.68219 -2.1085,5.2896 -0.2295,15.87943 -17.5655,24.87686 -30.2407,15.695 -2.2256,-1.61219 -4.7522,-4.00827 -5.6147,-5.32462 -2.7122,-4.13939 -2.9833,-11.60701 -0.6993,-19.26534 1.9735,-6.6173 2.0681,-9.79367 2.4689,-82.88653 0.4067,-74.18556 0.4661,-76.11744 2.4839,-80.679 3.8527,-8.7097 15.0033,-11.14671 21.7974,-4.76394 2.156,2.02537 2.4006,2.04294 6.9484,0.49892 5.4575,-1.85289 10.2984,-1.28095 14.0349,1.65821 2.3057,1.81366 2.719,1.85288 4.8451,0.45982 5.9351,-3.88878 14.0846,-2.92096 19.0506,2.26238 2.6953,2.81333 2.8515,2.84788 6.3221,1.39776 2.8747,-1.20112 4.4165,-1.27082 8.023,-0.3627 2.4554,0.61828 4.5435,0.99138 4.6403,0.82912 0.097,-0.16227 0.7078,-1.53356 1.3579,-3.04733 1.6468,-3.83429 6.8328,-6.73945 12.0386,-6.74396 7.0388,-0.006 12.7183,3.99513 13.7915,9.71616 0.4897,2.61037 1.0159,3.25371 2.2653,2.77003 6.0951,-2.35943 14.3832,-0.0817 17.6072,4.83875 1.5948,2.4339 1.7636,2.46763 5.1879,1.03683 3.8411,-1.60491 8.1027,-1.13986 12.3903,1.35208 2.3352,1.35722 2.8576,1.30396 6,-0.61172 5.9728,-3.64119 15.2382,-2.63455 18.9852,2.06266 1.4125,1.7707 1.9415,1.82792 6.2485,0.67596 3.5818,-0.95797 5.7049,-0.99169 8.8912,-0.14121 3.8702,1.03302 4.4489,0.91665 7.6737,-1.543 2.8426,-2.16811 4.5524,-2.66028 9.2423,-2.66028 6.6473,0 10.4944,2.18476 12.9012,7.32662 1.2877,2.75097 1.8539,3.10204 4,2.48036 4.2469,-1.23022 9.8479,-0.59967 13.1295,1.47809 3.1282,1.98064 3.1459,1.98063 7.6375,-0.006 3.2132,-1.42136 5.6086,-1.81451 8.3675,-1.37334 3.8655,0.61812 3.8655,0.61812 3.9194,-9.6437 0.03,-5.644 0.4227,-13.77771 0.8734,-18.0749 0.6925,-6.6031 1.2575,-8.27038 3.6484,-10.76595 3.6169,-3.775223 9.4368,-5.414903 14.5831,-4.108618 3.292,0.835573 3.8417,0.739958 3.8449,-0.668682 0.01,-2.446116 3.5527,-7.806917 6.4002,-9.672669 7.0127,-4.594877 19.2255,0.04317 21.5172,8.171549 0.478,1.695226 1.3696,2.717621 2.1923,2.513665 5.595,-1.387166 8.0878,-1.237248 12.1535,0.730923 4.2464,2.055682 4.5117,2.069042 7.8144,0.393532 3.1691,-1.607746 9.4351,-2.192118 12.8857,-1.201723 1.1419,0.327767 1.6233,-1.087291 2.1729,-6.386929 0.7433,-7.16744 2.3934,-10.684902 6.1747,-13.162474 2.4208,-1.58619 9.8315,-2.258169 13.1854,-1.19561 1.5195,0.481384 2.4064,-0.07828 3.6915,-2.329283 2.9037,-5.086172 7.4012,-7.195532 14.3085,-6.71079 5.8056,0.407428 6.065,0.3204 8.0052,-2.686396 2.9145,-4.516622 7.9764,-6.834472 13.6054,-6.229905 4.6106,0.495194 4.6106,0.495194 5.127,-13.03798 0.4312,-11.2988 0.8359,-13.961026 2.4512,-16.124589 3.7233,-4.986908 6.8892,-6.584686 13.1805,-6.651977 5.8914,-0.06301 5.8914,-0.06301 6.3408,-7.728702 0.5416,-9.2391 2.2425,-12.262274 8.4415,-15.004389 4.7776,-2.113368 9.6385,-1.90789 14.2593,0.602765 2.0887,1.134811 2.865,1.04204 5.8072,-0.693889 2.6964,-1.590874 4.441,-1.880105 8.4656,-1.403452 2.7881,0.330211 6.1384,1.300879 7.445,2.15704 2.1645,1.41821 2.6646,1.404336 5.6235,-0.155987 4.2972,-2.266039 12.6581,-2.280393 16.0963,-0.02763 2.4383,1.597636 2.8463,1.6097 5.074,0.150027 3.8546,-2.525627 12.7564,-3.056896 16.2859,-0.971962 2.7369,1.616687 3.173,1.625849 6.0705,0.127503 5.7895,-2.993883 14.7596,-1.33792 19.2229,3.548734 2.6174,2.865776 2.9069,2.944552 6.6739,1.815955 2.8983,-0.868351 4.9711,-0.894454 7.8524,-0.09889 3.68,1.016111 4.0732,0.907284 6.5605,-1.815955 4.5882,-5.023532 14.6806,-6.606768 19.2422,-3.01862 2.5081,1.97287 2.6959,1.983023 5.2864,0.285714 3.5431,-2.321555 12.1785,-2.350393 15.6857,-0.05238 2.4898,1.631378 2.7664,1.612741 6.2087,-0.418232 2.9107,-1.717387 4.5765,-2.010372 8.6721,-1.525312 2.7881,0.33021 6.1384,1.300878 7.445,2.157039 2.1645,1.41821 2.6646,1.404337 5.6235,-0.155987 4.2972,-2.266039 12.6581,-2.280392 16.0963,-0.02763 2.5198,1.651047 2.7847,1.650089 5.3325,-0.01929 3.7019,-2.425608 14.3582,-2.463128 17.0175,-0.05992 1.8141,1.639413 2.0041,1.639413 3.6458,0 2.4183,-2.414846 13.2576,-2.375654 16.977,0.06138 2.3953,1.569442 2.9817,1.603705 5.4655,0.319307 5.2914,-2.736283 9.6559,-2.95035 14.6962,-0.720802 4.4593,1.97258 4.8419,1.992129 7.8524,0.401222 1.8207,-0.962179 5.5712,-1.697509 8.8316,-1.731533 4.6066,-0.04807 6.1314,0.376679 8.1484,2.269702 5.1057,4.791883 4.9817,1.723619 5.6623,140.17116 0.5756,117.10805 0.7943,129.88276 2.2855,133.5 3.6552,8.86649 0.8061,18.49277 -7.0993,23.98662 -3.6301,2.52266 -5.2992,3.01338 -10.25,3.01338 -3.6129,0 -5.9139,0.42545 -5.9139,1.09345 0,0.6014 0.9,3.70934 2,6.90655 1.1,3.19721 1.9901,6.98015 1.978,8.40655 -0.059,7.02329 -7.7622,16.39953 -14.5128,17.66596 -10.518,1.97319 -18.6468,-1.82514 -22.6689,-10.59254 -1.9434,-4.23638 -2.701,-4.98018 -5.0726,-4.98018 -3.8533,0 -9.6827,-2.5879 -13.0114,-5.77626 -2.2539,-2.15887 -3.8289,-2.7022 -8.2253,-2.83747 -11.104,-0.34167 -18.9509,-8.38762 -18.9066,-19.38627 0.013,-3.21241 0.7286,-6.83111 1.7208,-8.70034 0.9898,-1.8647 1.6988,-5.44018 1.6988,-8.56723 0,-5.36689 0,-5.36689 -3.9364,-4.79966 -3.5686,0.51424 -4.2007,1.08107 -6.7649,6.06723 -2.3577,4.58466 -3.7296,5.95767 -8.2429,8.25 -2.9779,1.5125 -6.8599,2.75 -8.6267,2.75 -2.5461,0 -3.3357,0.49185 -3.8076,2.37178 -1.5259,6.07978 -13.0405,12.47102 -20.3354,11.28723 -3.2861,-0.53327 -3.2861,-0.53327 -3.2507,6.65386 0.021,4.33549 0.6025,8.17906 1.4646,9.68713 2.1035,3.6796 1.8695,12.35544 -0.4561,16.91405 -9.2266,18.08553 -36.0439,12.20307 -36.0439,-7.90633 0,-2.78958 0.675,-6.68746 1.5,-8.66196 1.0843,-2.59508 1.5001,-7.36683 1.5002,-17.21788 2e-4,-13.62788 2e-4,-13.62788 -5.497,-13.62788 -5.4973,0 -5.4973,0 -5.5002,5.62788 -0,3.09533 0.672,7.24337 1.497,9.21788 4.102,9.81736 -0.077,20.16427 -10,24.75838 -11.4049,5.28029 -23.7477,-0.89116 -26.5047,-13.25245 -1.0593,-4.74977 -0.9575,-6.0511 0.9056,-11.57014 1.1545,-3.42015 2.0991,-8.26297 2.0991,-10.76182 0,-4.54337 0,-4.54337 -3.75,-3.95082 -2.3213,0.36681 -5.5604,-0.0251 -8.5021,-1.02855 -4.4186,-1.50732 -5.0914,-1.50059 -9.5864,0.0959 -3.7939,1.34747 -5.7841,1.51249 -9.2479,0.76683 -3.8409,-0.82685 -4.8435,-0.66184 -7.7268,1.27161 -6.5288,4.37798 -16.4664,4.03963 -22.5793,-0.76877 -3.1367,-2.46734 -6.0716,-7.94148 -6.9984,-13.05335 -0.6136,-3.38463 -0.9476,-3.67476 -4.6352,-4.02643 -4.4414,-0.42355 -5.0027,0.75028 -2.4739,5.17388 1.6921,2.95998 1.945,12.69544 0.4334,16.6849 -2.5633,6.76524 -9.9368,11.3151 -18.3373,11.3151 -5.4836,0 -5.4836,0 -3.4201,4.66494 6.8651,15.51981 -8.7756,31.96061 -24.6411,25.90152 -4.8244,-1.84245 -10.1374,-7.13435 -11.1289,-11.0848 -0.4753,-1.89395 -1.2779,-2.48169 -3.3887,-2.48169 -1.5212,0 -4.677,-0.67431 -7.0129,-1.49846 -3.7733,-1.33127 -4.7395,-1.33127 -8.6607,0 -6.1411,2.08498 -9.183,1.88396 -14.8974,-0.98447 -7.2354,-3.63202 -9.9606,-8.16192 -9.891,-16.44133 0.03,-3.61666 0.3895,-7.47574 0.798,-8.57574 0.6881,-1.85269 0.3238,-2 -4.9469,-2 -5.6897,0 -5.6897,0 -5.1234,15 0.3892,10.30911 1.0589,16.16268 2.1416,18.71788 3.6433,8.59806 0.8445,18.59036 -6.5838,23.5062 -3.2089,2.12353 -5.5813,2.80281 -10.7303,3.07235 -5.882,0.3079 -7.0819,0.0361 -10.8881,-2.46655 -2.624,-1.7253 -5.0746,-4.4589 -6.3392,-7.07124 -1.4797,-3.05656 -2.6715,-4.26021 -4.2224,-4.26422 -13.6755,-0.0353 -23.5319,-14.79379 -18.2779,-27.36841 0.949,-2.27138 1.4981,-9.02908 1.75,-21.53987 0.3671,-18.23013 0.3671,-18.23013 -5.8833,-18.40814 -6.2503,-0.178 -6.2503,-0.178 -6.25,8.4628 3e-4,6.47235 0.4968,9.73475 1.9784,13 2.1792,4.80245 2.6067,12.18158 0.9584,16.5441 -3.5075,9.28331 -16.1948,14.78911 -25.2185,10.94389 -4.396,-1.87321 -10.5869,-8.34127 -11.5482,-12.06516 -0.7002,-2.71232 -1.2999,-3.12697 -5.2303,-3.61597 -2.4417,-0.30378 -5.7894,-1.23848 -7.4394,-2.0771 -4.5386,-2.30676 -16.9112,-1.75475 -19.7981,0.8833 -5.4136,4.94716 -14.598,6.74428 -21.3868,4.18481 -3.6588,-1.37942 -8.8632,-6.43352 -10.3695,-10.06996 C 2362.8933,276.32811 2362.2565,276 2358.3787,276 2354,276 2354,276 2354,281.04966 c 0,2.77731 0.6107,6.26481 1.3572,7.75 6.5235,12.97971 -2.6758,28.1042 -17.1393,28.17838 -5.8714,0.0301 -10.0492,-1.93118 -14.4114,-6.7655 -4.0813,-4.52295 -5.3749,-9.04877 -4.4712,-15.64225 0.5607,-4.09099 0.4821,-4.25804 -1.7996,-3.82187 -3.4701,0.66336 -9.1959,-1.51119 -13.1725,-5.00272 -4.009,-3.51988 -5.8213,-6.72876 -6.7749,-11.9957 -0.5592,-3.08902 -1.0972,-3.75 -3.0518,-3.75 -1.3051,0 -3.0847,-0.27314 -3.9547,-0.60699 -1.4089,-0.54063 -1.5818,1.51286 -1.5818,18.78466 0,16.82819 0.2644,20.14388 2,25.08201 2.3057,6.56003 2.3887,7.80017 0.8846,13.21777 -2.9945,10.78623 -16.7038,16.51105 -27.6457,11.54449 z"
   id="path17132" />
</svg>
