<?xml version="1.0" encoding="UTF-8" standalone="no"?>
<!-- Generator: Adobe Illustrator 23.0.1, SVG Export Plug-In . SVG Version: 6.00 Build 0)  -->

<svg
   version="1.1"
   id="AR_x5F_layer"
   x="0px"
   y="0px"
   width="9451.5px"
   height="623.5px"
   viewBox="0 0 9451.5 623.5"
   style="enable-background:new 0 0 9451.5 623.5;"
   xml:space="preserve"
   sodipodi:docname="12 Vermont Acid rain Layer 4 mask-01.svg"
   inkscape:version="1.1.1 (c3084ef, 2021-09-22)"
   xmlns:inkscape="http://www.inkscape.org/namespaces/inkscape"
   xmlns:sodipodi="http://sodipodi.sourceforge.net/DTD/sodipodi-0.dtd"
   xmlns="http://www.w3.org/2000/svg"
   xmlns:svg="http://www.w3.org/2000/svg"><defs
   id="defs3531" /><sodipodi:namedview
   id="namedview3529"
   pagecolor="#505050"
   bordercolor="#eeeeee"
   borderopacity="1"
   inkscape:pageshadow="0"
   inkscape:pageopacity="0"
   inkscape:pagecheckerboard="0"
   showgrid="false"
   inkscape:zoom="0.77373405"
   inkscape:cx="2769.6855"
   inkscape:cy="241.68511"
   inkscape:window-width="1335"
   inkscape:window-height="762"
   inkscape:window-x="0"
   inkscape:window-y="25"
   inkscape:window-maximized="0"
   inkscape:current-layer="multiple" />
<style
   type="text/css"
   id="style2">
	.st0{opacity:1;}
	.st1{fill:#231F20;}
</style>

<g
   id="multiple"><g
     id="acidic"><path
       style="fill:#cb0000;fill-opacity:0.283401"
       d="m 2264.2389,338.02194 c -2.9395,-1.3342 -5.1107,-3.33376 -7,-6.44643 -2.391,-3.93905 -3.1835,-4.5191 -6.2389,-4.56586 -7.8424,-0.12004 -15.872,-6.28702 -17.956,-13.7907 -1.4501,-5.22142 -1.3187,-7.10742 0.956,-13.71895 1.582,-4.59806 2,-8.41747 2,-18.27318 0,-12.43356 0,-12.4588 -2.25,-11.85711 -1.2375,0.33164 -3.1645,0.60913 -4.2822,0.61664 -1.7747,0.0119 -2.0419,0.68219 -2.1085,5.2896 -0.2295,15.87943 -17.5655,24.87686 -30.2407,15.695 -2.2256,-1.61219 -4.7522,-4.00827 -5.6147,-5.32462 -2.7122,-4.13939 -2.9833,-11.60701 -0.6993,-19.26534 1.9735,-6.6173 2.0681,-9.79367 2.4689,-82.88653 0.4067,-74.18556 3.5166,-59.3396 2.4839,-80.679 -0.4604,-9.512636 -5.5877,-107.2379842 1.2064,-100.8552142 130.7088,0.2816116 335.6033,1.6143401 423.9055,3.6029782 5.8914,-0.06301 -0.4494,7.665692 0,0 43.0525,-0.5645317 254.992,-2.0598864 313.9714,0.3820716 5.1057,4.7918834 3.4564,-20.3926266 4.137,118.0549144 0.5756,117.10805 0.7943,129.88276 2.2855,133.5 3.6552,8.86649 0.8061,18.49277 -7.0993,23.98662 -3.6301,2.52266 -5.2992,3.01338 -10.25,3.01338 -3.6129,0 -5.9139,0.42545 -5.9139,1.09345 0,0.6014 0.9,3.70934 2,6.90655 1.1,3.19721 1.9901,6.98015 1.978,8.40655 -0.059,7.02329 -7.7622,16.39953 -14.5128,17.66596 -10.518,1.97319 -18.6468,-1.82514 -22.6689,-10.59254 -1.9434,-4.23638 -2.701,-4.98018 -5.0726,-4.98018 -3.8533,0 -9.6827,-2.5879 -13.0114,-5.77626 -2.2539,-2.15887 -3.8289,-2.7022 -8.2253,-2.83747 -11.104,-0.34167 -18.9509,-8.38762 -18.9066,-19.38627 0.013,-3.21241 0.7286,-6.83111 1.7208,-8.70034 0.9898,-1.8647 1.6988,-5.44018 1.6988,-8.56723 0,-5.36689 0,-5.36689 -3.9364,-4.79966 -3.5686,0.51424 -4.2007,1.08107 -6.7649,6.06723 -2.3577,4.58466 -3.7296,5.95767 -8.2429,8.25 -2.9779,1.5125 -6.8599,2.75 -8.6267,2.75 -2.5461,0 -3.3357,0.49185 -3.8076,2.37178 -1.5259,6.07978 -13.0405,12.47102 -20.3354,11.28723 -3.2861,-0.53327 -3.2861,-0.53327 -3.2507,6.65386 0.021,4.33549 0.6025,8.17906 1.4646,9.68713 2.1035,3.6796 1.8695,12.35544 -0.4561,16.91405 -9.2266,18.08553 -36.0439,12.20307 -36.0439,-7.90633 0,-2.78958 0.675,-6.68746 1.5,-8.66196 1.0843,-2.59508 1.5001,-7.36683 1.5002,-17.21788 2e-4,-13.62788 2e-4,-13.62788 -5.497,-13.62788 -5.4973,0 -5.4973,0 -5.5002,5.62788 0,3.09533 0.672,7.24337 1.497,9.21788 4.102,9.81736 -0.077,20.16427 -10,24.75838 -11.4049,5.28029 -23.7477,-0.89116 -26.5047,-13.25245 -1.0593,-4.74977 -0.9575,-6.0511 0.9056,-11.57014 1.1545,-3.42015 2.0991,-8.26297 2.0991,-10.76182 0,-4.54337 0,-4.54337 -3.75,-3.95082 -2.3213,0.36681 -5.5604,-0.0251 -8.5021,-1.02855 -4.4186,-1.50732 -5.0914,-1.50059 -9.5864,0.0959 -3.7939,1.34747 -5.7841,1.51249 -9.2479,0.76683 -3.8409,-0.82685 -4.8435,-0.66184 -7.7268,1.27161 -6.5288,4.37798 -16.4664,4.03963 -22.5793,-0.76877 -3.1367,-2.46734 -6.0716,-7.94148 -6.9984,-13.05335 -0.6136,-3.38463 -0.9476,-3.67476 -4.6352,-4.02643 -4.4414,-0.42355 -5.0027,0.75028 -2.4739,5.17388 1.6921,2.95998 1.945,12.69544 0.4334,16.6849 -2.5633,6.76524 -9.9368,11.3151 -18.3373,11.3151 -5.4836,0 -5.4836,0 -3.4201,4.66494 6.8651,15.51981 -8.7756,31.96061 -24.6411,25.90152 -4.8244,-1.84245 -10.1374,-7.13435 -11.1289,-11.0848 -0.4753,-1.89395 -1.2779,-2.48169 -3.3887,-2.48169 -1.5212,0 -4.677,-0.67431 -7.0129,-1.49846 -3.7733,-1.33127 -4.7395,-1.33127 -8.6607,0 -6.1411,2.08498 -9.183,1.88396 -14.8974,-0.98447 -7.2354,-3.63202 -9.9606,-8.16192 -9.891,-16.44133 0.03,-3.61666 0.3895,-7.47574 0.798,-8.57574 0.6881,-1.85269 0.3238,-2 -4.9469,-2 -5.6897,0 -5.6897,0 -5.1234,15 0.3892,10.30911 1.0589,16.16268 2.1416,18.71788 3.6433,8.59806 0.8445,18.59036 -6.5838,23.5062 -3.2089,2.12353 -5.5813,2.80281 -10.7303,3.07235 -5.882,0.3079 -7.0819,0.0361 -10.8881,-2.46655 -2.624,-1.7253 -5.0746,-4.4589 -6.3392,-7.07124 -1.4797,-3.05656 -2.6715,-4.26021 -4.2224,-4.26422 -13.6755,-0.0353 -23.5319,-14.79379 -18.2779,-27.36841 0.949,-2.27138 1.4981,-9.02908 1.75,-21.53987 0.3671,-18.23013 0.3671,-18.23013 -5.8833,-18.40814 -6.2503,-0.178 -6.2503,-0.178 -6.25,8.4628 3e-4,6.47235 0.4968,9.73475 1.9784,13 2.1792,4.80245 2.6067,12.18158 0.9584,16.5441 -3.5075,9.28331 -16.1948,14.78911 -25.2185,10.94389 -4.396,-1.87321 -10.5869,-8.34127 -11.5482,-12.06516 -0.7002,-2.71232 -1.2999,-3.12697 -5.2303,-3.61597 -2.4417,-0.30378 -5.7894,-1.23848 -7.4394,-2.0771 -4.5386,-2.30676 -16.9112,-1.75475 -19.7981,0.8833 -5.4136,4.94716 -14.598,6.74428 -21.3868,4.18481 -3.6588,-1.37942 -8.8632,-6.43352 -10.3695,-10.06996 C 2362.8933,276.32811 2362.2565,276 2358.3787,276 2354,276 2354,276 2354,281.04966 c 0,2.77731 0.6107,6.26481 1.3572,7.75 6.5235,12.97971 -2.6758,28.1042 -17.1393,28.17838 -5.8714,0.0301 -10.0492,-1.93118 -14.4114,-6.7655 -4.0813,-4.52295 -5.3749,-9.04877 -4.4712,-15.64225 0.5607,-4.09099 0.4821,-4.25804 -1.7996,-3.82187 -3.4701,0.66336 -9.1959,-1.51119 -13.1725,-5.00272 -4.009,-3.51988 -5.8213,-6.72876 -6.7749,-11.9957 -0.5592,-3.08902 -1.0972,-3.75 -3.0518,-3.75 -1.3051,0 -3.0847,-0.27314 -3.9547,-0.60699 -1.4089,-0.54063 -1.5818,1.51286 -1.5818,18.78466 0,16.82819 0.2644,20.14388 2,25.08201 2.3057,6.56003 2.3887,7.80017 0.8846,13.21777 -2.9945,10.78623 -16.7038,16.51105 -27.6457,11.54449 z"
       id="path17132"
       sodipodi:nodetypes="sssssscsssssssccccsssssssssssssssssssssssssssscsssssssssssssssssssssssssssssssssssssssssssssssssssssssssssss" /></g><g
     id="healthy"><rect
       style="opacity:0.93;fill:#d55353;fill-opacity:0.221239;stroke-opacity:0.0846774"
       id="rect2440"
       width="719.7002"
       height="34.5"
       x="2205.2253"
       y="304.14804" /></g></g></svg>
