<?xml version="1.0" encoding="UTF-8" standalone="no"?>
<!-- Generator: Adobe Illustrator 18.0.0, SVG Export Plug-In . SVG Version: 6.00 Build 0)  -->

<svg
   version="1.1"
   id="AR_x5F_layer"
   x="0px"
   y="0px"
   width="9451.45px"
   height="623.52px"
   viewBox="0 0 9451.45 623.52"
   enable-background="new 0 0 9451.45 623.52"
   xml:space="preserve"
   sodipodi:docname="13 Subsaharan_mask-01.svg"
   inkscape:version="1.1.1 (c3084ef, 2021-09-22)"
   xmlns:inkscape="http://www.inkscape.org/namespaces/inkscape"
   xmlns:sodipodi="http://sodipodi.sourceforge.net/DTD/sodipodi-0.dtd"
   xmlns="http://www.w3.org/2000/svg"
   xmlns:svg="http://www.w3.org/2000/svg"><defs
   id="defs3538" /><sodipodi:namedview
   id="namedview3536"
   pagecolor="#505050"
   bordercolor="#eeeeee"
   borderopacity="1"
   inkscape:pageshadow="0"
   inkscape:pageopacity="0"
   inkscape:pagecheckerboard="0"
   showgrid="false"
   inkscape:zoom="1.1059102"
   inkscape:cx="2055.7727"
   inkscape:cy="192.60153"
   inkscape:window-width="1296"
   inkscape:window-height="762"
   inkscape:window-x="0"
   inkscape:window-y="25"
   inkscape:window-maximized="0"
   inkscape:current-layer="AR_x5F_layer" />
<path
   style="fill:#ca0000;fill-opacity:0.2834008"
   d="m 1862.3241,245.00891 c -12.4899,-3.27384 -14.1756,-4.62136 -19.5316,-15.61308 -4.8285,-9.90925 -11.584,-18.26857 -14.8213,-18.34002 -1.3908,-0.0307 -7.6908,1.28636 -14,2.92679 -6.3091,1.64043 -12.5962,2.98043 -13.9712,2.97777 -5.1429,-0.01 -9.5935,-5.98316 -8.5606,-11.48928 0.7287,-3.88382 3.4438,-6.44122 17.4706,-16.45584 5.5495,-3.96209 10.09,-7.34436 10.09,-7.51614 0,-0.65766 -24.0939,-18.58803 -36.7163,-27.32377 -13.2162,-9.14677 -13.2162,-9.14677 -30.1888,-8.50596 -21.1863,0.79989 -22.0949,0.44559 -22.0949,-8.61551 0,-5.20601 0.3486,-6.24859 2.9633,-8.86332 1.6298,-1.62981 5.2298,-3.77832 8,-4.77446 2.7702,-0.99615 5.0367,-2.10254 5.0367,-2.45865 0,-0.3561 -0.9,-1.46195 -2,-2.45744 -1.1,-0.99549 -2,-2.12827 -2,-2.51731 0,-0.38903 2.4913,-1.00013 5.5362,-1.358 6.5951,-0.77512 19.8359,-4.28197 23.7645,-6.29405 1.9486,-0.998 5.4474,-1.35168 11.5,-1.16247 8.3818,0.26203 9.0461,0.11459 18.1993,-4.03912 5.225,-2.3711 13.3784,-6.520128 18.1187,-9.220068 C 1824.3414,90.934224 1828.961,89 1830.843,89 c 2.4108,0 3.439,-0.644587 4.5954,-2.880884 4.3269,-8.367341 11.8348,-10.129237 23.4831,-5.510892 7.9374,3.146992 9.2119,4.20765 12.9556,10.781986 3.5313,6.201149 14.9691,17.67332 22.2734,22.34025 5.1465,3.28823 20.2509,11.26954 21.3273,11.26954 0.2872,0 0.5222,-1.69987 0.5222,-3.77749 0,-8.01139 6.2279,-11.96262 20.3137,-12.88789 5.5203,-0.36261 12.0038,-0.13635 15.9914,0.55805 6.7067,1.16793 6.7067,1.16793 20.902,-5.96177 17.7347,-8.907321 22.7175,-12.289779 35.8186,-24.314512 11.2877,-10.360344 12.6823,-11.046469 24.7838,-12.19363 5.3684,-0.508894 8.2896,-1.360342 11,-3.206198 5.457,-3.71629 9.6087,-5.21656 14.4359,-5.21656 5.3442,0 8.254,1.953036 9.7747,6.560912 1.3857,4.198721 0.8165,4.477543 12.8834,-6.310912 8.1092,-7.25 8.1092,-7.25 15.4878,-7.25 9.6964,0 10.0374,0.48107 13.6452,19.25 0.6079,3.1625 1.5669,5.75 2.1311,5.75 0.5642,0 3.9723,-2.7 7.5737,-6 5.84,-5.351279 7.0043,-6 10.7685,-6 5.8071,0 9.4902,2.964367 9.4902,7.638322 0,4.304935 -0.8755,6.02661 -7.5571,14.861678 -4.1661,5.508774 -6.172,9.556387 -9.4158,19 -2.2671,6.6 -5.2947,15.40679 -6.728,19.57064 -2.7695,8.04567 -2.6682,10.68015 0.5705,14.83617 1.8756,2.40681 1.8756,2.40681 8.9996,-3.16733 4.7069,-3.68294 9.3924,-6.32902 13.8099,-7.79908 5.9915,-1.99384 7.1892,-2.09596 11.531,-0.98319 4.8138,1.23373 4.8853,1.21587 11.0675,-2.76476 14.6099,-9.40712 19.7246,-10.25756 33.3638,-5.54753 7.0949,2.4501 8.4767,2.59975 18.7588,2.03162 13.5008,-0.74597 28.3609,-3.21914 35.0998,-5.84169 3.6657,-1.42653 10.204,-2.32004 24.5,-3.34811 10.725,-0.77127 21.1055,-1.80541 23.0677,-2.29809 4.9601,-1.24542 9.3916,-0.39309 11.9136,2.2914 1.6974,1.80687 2.0744,3.27362 1.8285,7.11484 -0.2712,4.23562 -0.735,5.12448 -3.7214,7.13118 -6.3432,4.26233 -12.6248,5.60404 -26.6489,5.69201 -13.0605,0.0819 -13.0605,0.0819 -19.6951,7.01629 -9.0768,9.48702 -8.2447,10.34515 5.7888,5.96972 7.1492,-2.22899 9.7464,-2.54701 18.3757,-2.25 9.4093,0.32387 10.2247,0.52113 12.7976,3.09591 2.0811,2.08252 2.7481,3.72088 2.7481,6.75 0,5.13322 -3.3825,8.68544 -9.4934,9.96986 -6.6825,1.40457 6.3428,0.42798 28.6755,-2.14997 9.9752,-1.15147 19.3045,-1.80049 20.7318,-1.44225 3.5052,0.87975 5.6315,5.37954 5.6315,11.91771 0,3.88503 -0.4897,5.8252 -1.75,6.93315 -2.6786,2.35481 -9.2044,5.41166 -15.3945,7.21119 -5.5844,1.62341 -5.5844,1.62341 -6.2113,6.84186 -0.3447,2.87015 -0.6307,7.07847 -0.6355,9.35182 -0.01,4.6959 1.065,5.32914 9.0863,5.35298 3.2392,0.01 5.1047,0.57683 6.3223,1.92227 0.95,1.04975 3.1573,2.49128 4.905,3.2034 4.533,1.84697 5.6098,3.68527 5.6459,9.63798 0.052,8.58003 -1.2076,9.25497 -17.2182,9.22614 -7.2875,-0.0131 -15.05,-0.49867 -17.25,-1.07901 -2.2,-0.58034 -10.525,-1.42223 -18.5,-1.87088 -11.7485,-0.66092 -16.4193,-1.39911 -24.6143,-3.89009 -11.5185,-3.50115 -9.5384,-3.7565 -29.2683,3.77432 -7.3605,2.80944 -17.971,6.44467 -23.5789,8.0783 -22.4622,6.54339 -19.4457,6.27993 -77.0385,6.72831 -32.6696,0.25434 -57.4113,0.009 -64.5,-0.64076 -102.9966,-9.43428 -102.3347,-9.35683 -137.5,-16.08957 -28.0619,-5.37272 -78.4806,-13.33948 -79.2912,-12.52894 -0.2736,0.27367 0.2971,2.57845 1.2684,5.12172 2.1168,5.54277 3.945,6.46394 17.6728,8.9048 5.3075,0.9437 11.045,2.56417 12.75,3.60104 2.7078,1.64674 3.1,2.43927 3.1,6.26506 0,2.91677 -0.6923,5.26001 -2.0726,7.0147 -2.0136,2.55987 -2.3765,2.63329 -12.75,2.5798 -7.0819,-0.0365 -13.0938,-0.68846 -17.8533,-1.93603 z"
   id="path16893" />
</svg>
