<?xml version="1.0" encoding="UTF-8" standalone="no"?>
<!-- Generator: Adobe Illustrator 18.0.0, SVG Export Plug-In . SVG Version: 6.00 Build 0)  -->

<svg
   version="1.1"
   id="ARlayer"
   x="0px"
   y="0px"
   width="9451.45px"
   height="623.52px"
   viewBox="0 0 9451.45 623.52"
   enable-background="new 0 0 9451.45 623.52"
   xml:space="preserve"
   sodipodi:docname="15 Black carbon annual data_mask-01.svg"
   inkscape:version="1.1.1 (c3084ef, 2021-09-22)"
   xmlns:inkscape="http://www.inkscape.org/namespaces/inkscape"
   xmlns:sodipodi="http://sodipodi.sourceforge.net/DTD/sodipodi-0.dtd"
   xmlns:xlink="http://www.w3.org/1999/xlink"
   xmlns="http://www.w3.org/2000/svg"
   xmlns:svg="http://www.w3.org/2000/svg">


<g
   id="_x31_L_x5F_Copper_x5F_Front"
   transform="translate(-0.839417,0.640744)"
   style="fill:#000000;fill-opacity:0.25884956;stroke:none;stroke-opacity:1" /><path
   fill="none"
   stroke="#b87332"
   stroke-width="1.802"
   stroke-linecap="round"
   stroke-linejoin="round"
   stroke-miterlimit="10"
   d="m 2946.98,186.69 0.2819,375.13612 -504.322,0.65386 0.055,-229.79787 13.3054,3.71789 13.63,12.1 13.63,13.83 13.63,30.33 13.63,8.09 13.63,-16.83 13.63,-31.61 13.63,-11.91 13.63,0.43 13.63,13.61 13.63,29.73 13.63,-10.43 13.63,2.84 13.63,0.18 13.63,-2.41 13.63,29.42 13.63,1.85 13.63,1.81 13.63,-16.26 13.63,-15.96 13.63,-16.62 13.63,-29.67 13.63,-5.57 13.63,-8.92 13.63,-5.99 13.63,-1.51 13.63,-35.89 13.63,-24.92 13.63,-13.33 13.63,-22.5 13.63,18.89 13.63,11.26 13.63,11.08 13.63,13.48 13.63,-25.21 13.63,-33 13.63,-20.1"
   id="path1441"
   sodipodi:nodetypes="ccccccccccccccccccccccccccccccccccccccccc"
   style="fill:#000000;fill-opacity:0.25884956;stroke:none;stroke-opacity:1" /></svg>
