<?xml version="1.0" encoding="UTF-8" standalone="no"?>
<!-- Generator: Adobe Illustrator 18.0.0, SVG Export Plug-In . SVG Version: 6.00 Build 0)  -->

<svg
   version="1.1"
   id="ARlayer"
   x="0px"
   y="0px"
   width="9451.45px"
   height="623.52px"
   viewBox="0 0 9451.45 623.52"
   enable-background="new 0 0 9451.45 623.52"
   xml:space="preserve"
   sodipodi:docname="15 Black carbon annual data_mask-01.svg"
   inkscape:version="1.1.1 (c3084ef, 2021-09-22)"
   xmlns:inkscape="http://www.inkscape.org/namespaces/inkscape"
   xmlns:sodipodi="http://sodipodi.sourceforge.net/DTD/sodipodi-0.dtd"
   xmlns:xlink="http://www.w3.org/1999/xlink"
   xmlns="http://www.w3.org/2000/svg"
   xmlns:svg="http://www.w3.org/2000/svg"><defs
   id="defs33"><clipPath
     id="SVGID_2_"><use
       xlink:href="#SVGID_1_"
       overflow="visible"
       id="use831"
       x="0"
       y="0"
       width="100%"
       height="100%" /></clipPath><clipPath
     id="clipPath2600"><use
       xlink:href="#SVGID_1_"
       overflow="visible"
       id="use2598"
       x="0"
       y="0"
       width="100%"
       height="100%" /></clipPath><clipPath
     id="clipPath2604"><use
       xlink:href="#SVGID_1_"
       overflow="visible"
       id="use2602"
       x="0"
       y="0"
       width="100%"
       height="100%" /></clipPath><clipPath
     id="clipPath2608"><use
       xlink:href="#SVGID_1_"
       overflow="visible"
       id="use2606"
       x="0"
       y="0"
       width="100%"
       height="100%" /></clipPath><clipPath
     id="clipPath2612"><use
       xlink:href="#SVGID_1_"
       overflow="visible"
       id="use2610"
       x="0"
       y="0"
       width="100%"
       height="100%" /></clipPath><clipPath
     id="clipPath2616"><use
       xlink:href="#SVGID_1_"
       overflow="visible"
       id="use2614"
       x="0"
       y="0"
       width="100%"
       height="100%" /></clipPath><clipPath
     id="clipPath2620"><use
       xlink:href="#SVGID_1_"
       overflow="visible"
       id="use2618"
       x="0"
       y="0"
       width="100%"
       height="100%" /></clipPath><clipPath
     id="clipPath2624"><use
       xlink:href="#SVGID_1_"
       overflow="visible"
       id="use2622"
       x="0"
       y="0"
       width="100%"
       height="100%" /></clipPath><clipPath
     id="clipPath2628"><use
       xlink:href="#SVGID_1_"
       overflow="visible"
       id="use2626"
       x="0"
       y="0"
       width="100%"
       height="100%" /></clipPath><clipPath
     id="clipPath2632"><use
       xlink:href="#SVGID_1_"
       overflow="visible"
       id="use2630"
       x="0"
       y="0"
       width="100%"
       height="100%" /></clipPath><clipPath
     id="clipPath2636"><use
       xlink:href="#SVGID_1_"
       overflow="visible"
       id="use2634"
       x="0"
       y="0"
       width="100%"
       height="100%" /></clipPath><clipPath
     id="clipPath2640"><use
       xlink:href="#SVGID_1_"
       overflow="visible"
       id="use2638"
       x="0"
       y="0"
       width="100%"
       height="100%" /></clipPath><clipPath
     id="clipPath2644"><use
       xlink:href="#SVGID_1_"
       overflow="visible"
       id="use2642"
       x="0"
       y="0"
       width="100%"
       height="100%" /></clipPath><clipPath
     id="clipPath2648"><use
       xlink:href="#SVGID_1_"
       overflow="visible"
       id="use2646"
       x="0"
       y="0"
       width="100%"
       height="100%" /></clipPath><clipPath
     id="clipPath2652"><use
       xlink:href="#SVGID_1_"
       overflow="visible"
       id="use2650"
       x="0"
       y="0"
       width="100%"
       height="100%" /></clipPath><clipPath
     id="clipPath2656"><use
       xlink:href="#SVGID_1_"
       overflow="visible"
       id="use2654"
       x="0"
       y="0"
       width="100%"
       height="100%" /></clipPath><clipPath
     id="clipPath2660"><use
       xlink:href="#SVGID_1_"
       overflow="visible"
       id="use2658"
       x="0"
       y="0"
       width="100%"
       height="100%" /></clipPath><clipPath
     id="clipPath2664"><use
       xlink:href="#SVGID_1_"
       overflow="visible"
       id="use2662"
       x="0"
       y="0"
       width="100%"
       height="100%" /></clipPath><clipPath
     id="clipPath2668"><use
       xlink:href="#SVGID_1_"
       overflow="visible"
       id="use2666"
       x="0"
       y="0"
       width="100%"
       height="100%" /></clipPath><clipPath
     id="clipPath2672"><use
       xlink:href="#SVGID_1_"
       overflow="visible"
       id="use2670"
       x="0"
       y="0"
       width="100%"
       height="100%" /></clipPath><clipPath
     id="SVGID_4_"><use
       xlink:href="#SVGID_3_"
       overflow="visible"
       id="use1325"
       x="0"
       y="0"
       width="100%"
       height="100%" /></clipPath><clipPath
     id="clipPath2678"><use
       xlink:href="#SVGID_3_"
       overflow="visible"
       id="use2676"
       x="0"
       y="0"
       width="100%"
       height="100%" /></clipPath><clipPath
     id="clipPath2682"><use
       xlink:href="#SVGID_3_"
       overflow="visible"
       id="use2680"
       x="0"
       y="0"
       width="100%"
       height="100%" /></clipPath><clipPath
     id="clipPath2686"><use
       xlink:href="#SVGID_3_"
       overflow="visible"
       id="use2684"
       x="0"
       y="0"
       width="100%"
       height="100%" /></clipPath><clipPath
     id="clipPath2690"><use
       xlink:href="#SVGID_3_"
       overflow="visible"
       id="use2688"
       x="0"
       y="0"
       width="100%"
       height="100%" /></clipPath><clipPath
     id="clipPath2694"><use
       xlink:href="#SVGID_3_"
       overflow="visible"
       id="use2692"
       x="0"
       y="0"
       width="100%"
       height="100%" /></clipPath><polygon
     id="SVGID_1_"
     points="3125.93,237.13 3109.64,235.6 3093.35,237.07 3077.06,220.63 3060.77,213.14 3044.48,211.62 3028.18,210.09 3011.89,210.06 2995.6,203.3 2979.31,198.05 2963.02,192.8 2946.73,186.77 2933.12,206.8 2919.51,239.71 2905.9,264.84 2892.29,251.4 2878.67,240.34 2865.06,229.12 2851.45,210.29 2837.84,232.72 2824.23,246.01 2810.62,270.85 2797.01,306.63 2783.39,308.13 2769.78,314.1 2756.17,322.99 2742.56,328.54 2728.95,358.12 2715.34,374.7 2701.73,390.61 2696.89,396.37 2697.6,401.41 2704.19,398.09 2710.77,394.03 2717.35,425.65 2723.93,443.64 2730.51,426.17 2737.1,398.71 2743.68,381.03 2750.26,395.07 2756.84,422.95 2763.42,387.27 2770.01,386.44 2776.59,397.15 2783.17,411.61 2789.75,422.32 2796.34,440.63 2802.92,427.21 2809.5,436.26 2816.08,426.48 2822.66,370.11 2829.25,365.32 2835.83,355.34 2842.41,361.37 2848.99,403.5 2855.57,398.19 2862.16,440.32 2868.74,439.07 2875.32,442.61 2881.9,441.56 2888.48,415.77 2895.07,389.66 2901.65,391.22 2908.23,377.6 2914.81,363.55 2921.4,360.74 2927.98,366.99 2934.56,366.05 2941.14,367.82 2947.72,366.78 2954.31,362.51 2960.89,356.38 2967.47,352.32 2974.05,349.3 2980.63,349.82 2987.22,347.12 2993.8,345.35 3000.38,343.48 3006.96,342.96 3013.54,344.52 3020.13,344.73 3026.71,343.69 3033.29,346.08 3039.87,346.49 3046.46,349.51 3053.04,344.1 3059.62,344.83 3066.2,351.8 3072.78,350.76 3079.37,350.55 3085.95,350.34 3092.53,345.45 3099.11,342.65 3105.69,341.19 3112.28,334.32 3118.86,322.99 3125.44,313.1 3132.02,303.27 3138.6,291.18 3145.19,275.18 3151.77,260.05 3158.35,239.19 3159.16,235.66 3158.51,234.97 3142.22,239.41 " /><path
     id="SVGID_3_"
     d="m 2696.55,396.33 -8.78,10.47 -13.61,-1.81 -6.37,-0.87 3.14,-15.04 6.58,-44.6 6.58,16.88 6.58,-6.67 z m -183.58,-2.03 -6.58,-17.51 -6.58,0.1 -6.58,2.19 -2.12,-0.64 6.11,13.6 13.61,8.08 9.97,-12.3 -1.24,-4.99 z m 131.64,-42.83 -6.58,11.25 -6.58,-3.86 -5.33,17.2 7.21,0.09 13.61,-2.41 8.01,17.29 -3.76,-18.21 z m -38.5,21.67 -13.61,10.42 -13.61,-29.7 -13.61,-13.59 -13.61,-0.43 -13.61,11.9 -13.61,31.58 -3.65,4.5 5.34,21.38 6.58,16.36 6.58,-0.42 6.58,-16.36 6.58,-22.09 6.58,2.81 6.58,3.86 6.58,2.81 6.58,-10.94 6.58,12.61 6.58,-8.23 6.58,21.26 6.58,25.32 6.58,-4.17 6.58,-3.02 6.58,-48.88 1.26,-4.06 -6.4,-0.08 z m -136.11,-25.2 -13.61,-12.09 -13.61,-3.72 v 102.49 l 4.38,-3.74 6.58,-47.83 6.58,-9.59 6.58,39.81 6.58,-33.04 6.58,34.08 6.58,-37.2 4.47,1.34 -7.5,-16.69 z" /></defs><sodipodi:namedview
   id="namedview31"
   pagecolor="#505050"
   bordercolor="#eeeeee"
   borderopacity="1"
   inkscape:pageshadow="0"
   inkscape:pageopacity="0"
   inkscape:pagecheckerboard="0"
   showgrid="false"
   inkscape:zoom="0.55973871"
   inkscape:cx="2516.3527"
   inkscape:cy="546.68365"
   inkscape:window-width="1296"
   inkscape:window-height="762"
   inkscape:window-x="0"
   inkscape:window-y="25"
   inkscape:window-maximized="0"
   inkscape:current-layer="ARlayer" />



<g
   id="background"
   transform="translate(-0.839417,0.640744)" /><g
   id="_x31_L_x5F_Copper_x5F_Front"
   transform="translate(-0.839417,0.640744)"
   style="fill:#000000;fill-opacity:0.25884956;stroke:none;stroke-opacity:1"><g
     id="g1445"
     style="fill:#000000;fill-opacity:0.25884956;stroke:none;stroke-opacity:1"><g
       id="g1443"
       style="fill:#000000;fill-opacity:0.25884956;stroke:none;stroke-opacity:1"><path
         fill="none"
         stroke="#b87332"
         stroke-width="1.802"
         stroke-linecap="round"
         stroke-linejoin="round"
         stroke-miterlimit="10"
         d="m 2946.98,186.69 0.2819,375.13612 -504.322,0.65386 0.055,-229.79787 13.3054,3.71789 13.63,12.1 13.63,13.83 13.63,30.33 13.63,8.09 13.63,-16.83 13.63,-31.61 13.63,-11.91 13.63,0.43 13.63,13.61 13.63,29.73 13.63,-10.43 13.63,2.84 13.63,0.18 13.63,-2.41 13.63,29.42 13.63,1.85 13.63,1.81 13.63,-16.26 13.63,-15.96 13.63,-16.62 13.63,-29.67 13.63,-5.57 13.63,-8.92 13.63,-5.99 13.63,-1.51 13.63,-35.89 13.63,-24.92 13.63,-13.33 13.63,-22.5 13.63,18.89 13.63,11.26 13.63,11.08 13.63,13.48 13.63,-25.21 13.63,-33 13.63,-20.1"
         id="path1441"
         sodipodi:nodetypes="ccccccccccccccccccccccccccccccccccccccccc"
         style="fill:#000000;fill-opacity:0.25884956;stroke:none;stroke-opacity:1" /></g></g></g></svg>
