<?xml version="1.0" encoding="UTF-8" standalone="no"?>
<!-- Generator: Adobe Illustrator 18.0.0, SVG Export Plug-In . SVG Version: 6.00 Build 0)  -->

<svg
   version="1.1"
   id="_x31_L_x5F_Print_x5F_Back"
   x="0px"
   y="0px"
   width="9451.45px"
   height="623.52px"
   viewBox="0 0 9451.45 623.52"
   enable-background="new 0 0 9451.45 623.52"
   xml:space="preserve"
   sodipodi:docname="16 glacier data_mask_1-01.svg"
   inkscape:version="1.1.1 (c3084ef, 2021-09-22)"
   xmlns:inkscape="http://www.inkscape.org/namespaces/inkscape"
   xmlns:sodipodi="http://sodipodi.sourceforge.net/DTD/sodipodi-0.dtd"
   xmlns="http://www.w3.org/2000/svg"
   xmlns:svg="http://www.w3.org/2000/svg"><defs
   id="defs125"><path
     id="SVGID_1_"
     opacity="0.75"
     d="m 3501.41,368.83 -16.32,-20.98 -16.32,-6.77 -16.32,-0.78 -16.32,-7.02 -16.32,-9.74 -16.32,-18.51 -16.32,-13.49 -16.32,-9.01 -16.32,-8.26 -16.32,-6.02 -16.32,-6.03 -16.32,-7.52 -16.32,-5.27 -16.32,-8.26 -16.32,0.71 -16.32,-3.78 -16.32,-6.02 -16.32,-3.03 -16.32,-3.77 -16.32,-8.27 -16.32,-5.27 -16.32,-4.43 -16.32,7.35 -16.32,-2.28 -16.32,2.95 -16.32,0.71 -16.32,-0.79 -16.32,-0.79 -16.32,-15 -16.32,-3.02 -16.32,-3.78 -16.32,-3.78 -16.32,-2.28 -16.32,-1.53 v 3.74 l 16.32,6.05 16.32,5.28 16.32,5.27 16.32,6.78 16.32,0.04 16.32,1.53 16.32,1.53 16.32,7.52 16.32,16.5 16.32,-1.48 16.32,1.54 16.32,2.28 16.32,-4.45 16.32,17.24 16.32,-1.46 16.32,6.02 16.32,7.51 16.32,13.5 16.32,11.26 16.32,7.51 16.32,6.77 16.32,5.28 h 16.32 l 16.32,9 16.32,15 16.32,0.79 16.32,10.51 16.32,-0.71 16.32,-3.7 16.32,12 16.32,8.26 16.32,0.04 16.32,-2.95 16.32,10.51" /><path
     id="SVGID_3_"
     opacity="0.75"
     d="m 2946.43,185.81 16.32,2.29 16.32,0.04 16.32,0.03 16.32,3.03 16.32,0.04 16.32,-0.71 16.32,3.03 16.32,1.54 16.32,0.78 16.32,2.28 16.32,0.79 16.32,0.78 16.32,0.04 16.32,0.04 16.32,1.54 16.32,0.04 16.32,1.53 16.32,1.54 16.32,2.27 16.32,2.29 16.32,1.53 16.32,0.78 16.32,0.79 16.32,0.04 16.32,1.54 16.32,-1.46 16.32,0.78 16.32,-0.7 16.32,2.27 16.32,0.79 16.32,0.79 16.32,0.04 16.32,1.53 16.32,0.04 16.32,1.54 16.32,1.53 16.32,-0.71 16.32,3.02 16.32,3.03 16.32,3.03 16.32,5.28 16.32,3.02 16.32,3.77 v 50.86 l -16.32,-0.78 -16.32,-6.77 -16.32,-3.78 -16.32,-3.78 -16.32,-2.28 -16.32,-4.52 -16.32,-3.78 -16.32,-1.53 -16.32,-2.28 -16.32,-5.28 -16.32,-3.77 -16.32,0.72 -16.32,-2.28 -16.32,-1.54 -16.32,-3.77 -16.32,-1.53 -16.32,-2.28 -16.32,-3.77 -16.32,-1.53 -16.32,-1.54 -16.32,-2.28 -16.32,-2.28 -16.32,-2.28 -16.32,-3.03 -16.32,-3.02 -16.32,-3.03 -16.32,-4.53 -16.32,-5.28 -16.32,-3.02 -16.32,-3.02 -16.32,-2.29 -16.32,-3.02 -16.32,-0.79 -16.32,-3.02 -16.32,-0.79 -16.32,-0.79 -16.32,-1.53 -16.32,-1.54 -16.32,-1.53 -16.32,-3.03 -16.32,-0.78 -16.32,-0.04 -16.32,-0.04 z" /><path
     id="SVGID_5_"
     opacity="0.75"
     d="m 2946.43,188.06 16.32,3.81 16.32,3.02 16.32,4.53 16.32,3.03 16.32,3.02 16.32,-0.7 16.32,2.28 16.32,5.28 16.32,12.76 16.32,-2.22 16.32,0.04 16.32,1.53 16.32,-2.21 16.32,10.51 16.32,0.79 16.32,3.77 16.32,7.51 16.32,8.27 16.32,7.51 16.32,4.53 16.32,5.27 16.32,4.53 16.32,5.28 16.32,11.26 16.32,1.53 16.32,5.27 16.32,0.79 16.32,-0.71 16.32,8.27 16.32,4.53 16.32,-0.71 16.32,-2.2 16.32,8.25 16.32,11.26 h 16.32 l 16.32,9.01 16.32,19.48 16.32,24.73 16.32,6.02 16.32,17.99 16.32,11.26 16.32,6.02 16.32,3.03 V 292.13 l -16.32,-0.78 -16.32,-6.77 -16.32,-3.78 -16.32,-3.78 -16.32,-2.28 -16.32,-4.52 -16.32,-3.78 -16.32,-1.53 -16.32,-2.28 -16.32,-5.28 -16.32,-3.77 -16.32,0.72 -16.32,-2.28 -16.32,-1.54 -16.32,-3.77 -16.32,-1.53 -16.32,-2.28 -16.32,-3.77 -16.32,-1.53 -16.32,-1.54 -16.32,-2.28 -16.32,-2.28 -16.32,-2.28 -16.32,-3.03 -16.32,-3.02 -16.32,-3.03 -16.32,-4.53 -16.32,-5.28 -16.32,-3.02 -16.32,-3.02 -16.32,-2.29 -16.32,-3.02 -16.32,-0.79 -16.32,-3.02 -16.32,-0.79 -16.32,-0.79 -16.32,-1.53 -16.32,-1.54 -16.32,-1.53 -16.32,-3.03 -16.32,-0.78 -16.32,-0.04 -16.32,-0.04 z" /><path
     id="SVGID_7_"
     opacity="0.75"
     d="m 2946.43,185.44 16.32,2.28 16.32,-1.47 16.32,2.28 16.32,3.78 16.32,-4.45 16.32,0.04 16.32,0.25 16.32,3.7 16.32,-5.28 16.32,0.72 16.32,0.79 16.32,2.28 16.32,-1.46 16.32,-0.71 16.32,-1.85 16.32,1.18 16.32,5.27 16.32,0.04 16.32,-2.21 16.32,-2.2 16.32,-0.71 16.32,4.53 16.32,-5.2 16.32,0.04 16.32,0.04 16.32,-1.46 16.32,1.74 16.32,2.21 16.32,-0.79 16.32,-2.26 16.32,3.77 16.32,2.28 16.32,0.04 16.32,3.03 16.32,6.76 16.32,3.78 16.32,4.53 16.32,-1.46 16.32,8.26 16.32,2.28 16.32,1.53 16.32,4.52 16.32,0.8 v 14.95 l -16.32,-3.77 -16.32,-3.02 -16.32,-5.28 -16.32,-3.03 -16.32,-3.03 -16.32,-3.02 -16.32,0.71 -16.32,-1.53 -16.32,-1.54 -16.32,-0.04 -16.32,-1.53 -16.32,-0.04 -16.32,-0.79 -16.32,-0.79 -16.32,-2.27 -16.32,0.7 -16.32,-0.78 -16.32,1.45 -16.32,-1.54 -16.32,-0.04 -16.32,-0.79 -16.32,-0.78 -16.32,-1.53 -16.32,-2.29 -16.32,-2.27 -16.32,-1.54 -16.32,-1.53 -16.32,-0.04 -16.32,-1.54 -16.32,-0.04 -16.32,-0.04 -16.32,-0.78 -16.32,-0.79 -16.32,-2.28 -16.32,-0.78 -16.32,-1.54 -16.32,-3.03 -16.32,0.71 -16.32,-0.04 -16.32,-3.03 -16.32,-0.03 -16.32,-0.04 -16.32,-2.29 z" /><path
     id="SVGID_9_"
     opacity="0.75"
     d="m 3647.61,383.3 -16.2,-9.68 -16.21,-4.4 -16.2,-6.81 -16.2,4.41 -16.21,3.67 -16.2,5.16 -16.2,-5.97 -16.2,-0.04 -16.2,-1.53 v 0.74 l 16.2,16.37 16.2,14.15 16.2,25.28 16.2,34.93 16.21,10.43 16.2,26.03 16.97,16.5 15.67,4.35 15.98,4.79 V 383.3 Z" /></defs><sodipodi:namedview
   id="namedview123"
   pagecolor="#505050"
   bordercolor="#eeeeee"
   borderopacity="1"
   inkscape:pageshadow="0"
   inkscape:pageopacity="0"
   inkscape:pagecheckerboard="0"
   showgrid="false"
   inkscape:zoom="19.092718"
   inkscape:cx="2951.6227"
   inkscape:cy="198.13837"
   inkscape:window-width="1440"
   inkscape:window-height="762"
   inkscape:window-x="0"
   inkscape:window-y="25"
   inkscape:window-maximized="1"
   inkscape:current-layer="_x31_L_x5F_Print_x5F_Back" />












<path
   style="fill:#000000;fill-opacity:0.429719;stroke:none;stroke-width:1px;stroke-linecap:butt;stroke-linejoin:miter;stroke-opacity:1"
   d="m 2947.7732,190.00671 v 0 l 65.28,23.38 48.96,3.1 16.42,7.52 16.22,16.5 16.42,-1.48 32.54,3.82 16.32,-4.45 16.32,17.24 16.32,-1.46 32.64,13.53 32.64,24.76 48.96,19.56 h 16.42 l 16.32,9 16.22,15 16.42,0.79 16.22,10.51 16.42,-0.71 16.32,-3.7 32.54,20.26 16.42,0.04 16.22,-2.95 16.32,9.76 32.88,30.54 16.08,26.42 16.32,33.79 16.21,10.43 16.2,26.03 16.55,16.67 32.0599,8.96628 v -338.566 H 2945.667 l 0.01,5.71514 z"
   id="path2140"
   sodipodi:nodetypes="cccccccccccccccccccccccccccccccccccc" /></svg>
