<?xml version="1.0" encoding="UTF-8" standalone="no"?>
<!-- Generator: Adobe Illustrator 23.0.1, SVG Export Plug-In . SVG Version: 6.00 Build 0)  -->

<svg
   version="1.1"
   id="Baseline"
   x="0px"
   y="0px"
   width="9451.5px"
   height="623.5px"
   viewBox="0 0 9451.5 623.5"
   style="enable-background:new 0 0 9451.5 623.5;"
   xml:space="preserve"
   sodipodi:docname="17 Aral sea river dynamics_mask-01.svg"
   inkscape:version="1.1.1 (c3084ef, 2021-09-22)"
   xmlns:inkscape="http://www.inkscape.org/namespaces/inkscape"
   xmlns:sodipodi="http://sodipodi.sourceforge.net/DTD/sodipodi-0.dtd"
   xmlns="http://www.w3.org/2000/svg"
   xmlns:svg="http://www.w3.org/2000/svg"><defs
   id="defs3779" /><sodipodi:namedview
   id="namedview3777"
   pagecolor="#505050"
   bordercolor="#eeeeee"
   borderopacity="1"
   inkscape:pageshadow="0"
   inkscape:pageopacity="0"
   inkscape:pagecheckerboard="0"
   showgrid="false"
   inkscape:zoom="0.62777843"
   inkscape:cx="4120.0842"
   inkscape:cy="473.09685"
   inkscape:window-width="1296"
   inkscape:window-height="762"
   inkscape:window-x="0"
   inkscape:window-y="25"
   inkscape:window-maximized="0"
   inkscape:current-layer="Baseline" />
<style
   type="text/css"
   id="style3540">
	.st0{opacity:0.75;}
	.st1{fill:none;stroke:#000000;stroke-miterlimit:10;}
	.st2{fill:none;stroke:#000000;stroke-width:0.5;stroke-linecap:round;stroke-linejoin:round;stroke-miterlimit:10;}
</style>




<path
   id="path16403"
   style="fill:#c90000;fill-opacity:0.25101215"
   d="m 3744.1133,387.55859 c -26.3755,0.0408 -52.7517,-0.0211 -79.1264,0.20892 -6.6571,0.11613 -13.3336,0.0633 -19.9642,0.73667 -2.3836,0.22228 -4.9223,1.00317 -6.3803,3.03531 -1.9071,2.26546 -2.8332,5.47131 -1.8879,8.34351 0.2166,1.47669 0.2778,3.07022 0.3356,4.44324 0.1615,4.15459 -0.2149,8.57822 0.8161,12.7304 0.083,0.4986 0.4405,0.91601 0.1673,1.42651 -0.6484,3.65601 -0.5869,7.39046 -0.6686,11.09028 -0.01,3.74087 0.01,7.51089 0.6113,11.21052 0.1659,0.53917 -0.4068,0.98371 -0.4824,1.52013 -0.7692,2.32255 -0.6678,4.95488 0.2826,7.20764 0.1563,0.45252 -0.3297,0.92762 -0.3809,1.41406 -0.6534,2.01231 -0.2352,4.18388 0.6602,6.05078 -1.3579,2.36847 -1.3198,5.33701 -0.4918,7.87457 0.3464,0.50599 0.2149,0.97773 -0.038,1.48818 -0.8091,2.3358 -0.7011,4.97593 0.2997,7.23686 -1.0898,2.48789 -1.1415,5.44273 -0.016,7.92774 -1.7246,3.63377 -0.6383,8.3767 2.5371,10.85937 0.4555,1.91277 0.3539,3.91045 0.4707,5.86524 0.083,2.89487 0.1594,5.9597 0.056,8.91997 0.048,0.64205 -0.1264,1.17185 -0.8089,1.32986 -2.3002,1.22139 -4.7506,2.17892 -6.9504,3.57634 -2.64,-2.12653 -6.4368,-2.58235 -9.5996,-1.48242 -3.2616,1.21663 -5.6362,4.59856 -5.3731,8.11523 0.2357,4.79954 4.9398,8.69698 9.676,8.33096 1.8801,-0.10467 3.7247,-0.82237 5.1678,-2.03408 2.2904,1.34103 5.0408,1.35571 7.6078,1.63875 8.3329,0.68941 16.7077,0.5949 25.0461,1.21028 14.6656,1.01246 29.1926,2.85136 43.7898,4.61138 24.8885,3.07306 49.77,6.28476 74.6243,9.52687 24.9335,3.28542 49.8161,6.72907 74.5813,11.08416 31.3046,5.46899 62.4401,11.84689 93.6219,17.9657 25.5477,5.02416 51.1084,10.01293 76.805,14.22067 19.7598,3.19734 39.6473,5.68643 59.6309,6.93975 20.8013,1.35695 41.6455,1.83105 62.48,2.38346 15.3019,0.35032 30.617,0.29632 45.9076,-0.42799 21.9145,-0.88671 43.8604,-2.14433 65.5577,-5.48566 21.6592,-3.2555 43.0769,-7.88814 64.4854,-12.47141 26.7833,-5.77893 53.5045,-11.75146 80.4172,-16.83176 16.7746,-3.16074 33.7342,-5.8206 50.6969,-7.34077 5.7708,-0.51523 11.5429,-0.92783 17.2538,-1.22848 16.6288,-0.89938 33.2748,-1.061 49.9517,-1.17809 30.956,-0.10801 61.9126,-0.0436 92.8679,0.18868 12.9561,0.0826 25.9104,0.32758 38.866,0.45153 3.9163,0.0107 7.8523,0.0606 11.7468,-0.39756 2.4287,-0.28546 4.9976,-1.55353 5.8861,-3.97314 1.0719,-2.29354 1.6473,-5.1671 0.2387,-7.45148 -0.832,-1.5211 -2.4003,-2.42291 -3.4945,-3.70052 -0.3602,-1.68375 -0.093,-3.42744 -0.1252,-5.13666 0.01,-0.7139 0.018,-1.43045 0.1154,-2.13873 2.2863,-0.34878 4.4738,-0.36873 6.7647,-0.52804 3.0512,-0.21268 6.1723,-0.3846 9.079,-1.40946 1.7477,-0.67834 3.1009,-2.12119 3.7945,-3.84729 1.1307,-2.3836 0.8136,-5.29714 -0.6558,-7.46521 -1.217,-2.13077 -3.2799,-3.90839 -5.7891,-4.1875 -3.7331,-0.59646 -7.4946,-0.0754 -11.2476,-0.14724 -0.5941,0.009 -1.1878,-0.0174 -1.7817,-0.0305 -0.1049,-5.37497 -0.3318,-10.75742 -0.1026,-16.13087 0,-0.70399 0.1726,-1.45096 0.8507,-1.79686 2.0355,-1.70976 3.1777,-4.30742 3.2805,-6.94317 0.3531,-3.96899 0.1958,-7.961 0.1758,-11.93994 -0.049,-2.82421 -0.1621,-5.98544 -2.1555,-8.20283 -1.5093,-1.69992 -3.7549,-2.49789 -5.972,-2.68712 -6.0074,-0.89439 -12.0769,-1.25114 -18.1271,-1.72973 -24.2473,-1.7514 -48.5253,-3.0511 -72.7878,-4.57596 -40.1362,-2.46326 -80.2459,-4.97381 -120.3185,-8.22066 -54.7247,-4.43136 -109.3469,-10.29233 -163.9496,-16.20855 -80.4622,-8.77525 -160.8902,-17.86294 -241.3539,-26.62423 -40.3515,-4.35588 -80.7097,-8.69084 -121.1556,-12.07831 -28.4597,-2.35009 -56.9835,-3.98105 -85.5365,-4.55517 -33.4886,-0.7345 -66.9886,-0.55337 -100.4826,-0.57613 z m 233.3418,149.15235 c -0.4431,0.639 -1.2226,0.62478 -1.9219,0.65429 -0.2656,-0.10568 -1.5113,-0.81259 -0.7746,-0.78613 0.8988,0.0439 1.7977,0.0879 2.6965,0.13184 z m 374.5664,0.77148 c 0.6084,0.75869 -0.05,0.89409 -0.751,1.00799 -0.7679,0.19721 -1.5358,0.39441 -2.3037,0.59162 -0.1043,-0.57257 -0.2366,-1.15114 0.2383,-1.59961 0.9388,0 1.8776,0 2.8164,0 z m 6.4336,0.22852 c -0.4431,0.639 -1.2226,0.62478 -1.9219,0.65429 -0.2656,-0.10568 -1.5113,-0.81259 -0.7746,-0.78613 0.8988,0.0439 1.7977,0.0879 2.6965,0.13184 z m -371.7578,8.64453 c 0.4038,0.3246 -0.1571,0.38795 -0.4119,0.31063 -0.6221,-0.0418 -1.3981,-2.7e-4 -1.9319,-0.0899 0.7804,-0.0704 1.5672,-0.16569 2.3438,-0.2207 z m 13.8203,10.99414 c -1.1927,0.20247 -2.3854,0.40495 -3.5781,0.60742 -0.2631,-0.70465 -0.019,-1.13839 0.7201,-1.27734 0.5395,-0.11476 1.1822,-0.78798 1.6537,-0.53436 0.4014,0.40142 0.8029,0.80285 1.2043,1.20428 z m -6.7617,-0.93164 c 0.326,0.40437 -0.4759,0.22271 -0.6704,0.24191 -0.5684,-0.0298 -1.2219,-0.0148 -1.7417,-0.07 0.7785,-0.0512 1.6687,-0.26053 2.4121,-0.17187 z m 333,5 c 0.326,0.40437 -0.4759,0.22271 -0.6704,0.24191 -0.5684,-0.0298 -1.2219,-0.0148 -1.7417,-0.07 0.7785,-0.0512 1.6687,-0.26053 2.4121,-0.17187 z" />
</svg>
