<?xml version="1.0" encoding="UTF-8" standalone="no"?>
<!-- Generator: Adobe Illustrator 18.0.0, SVG Export Plug-In . SVG Version: 6.00 Build 0)  -->

<svg
   version="1.1"
   id="Baseline"
   x="0px"
   y="0px"
   width="9451.45px"
   height="623.52px"
   viewBox="0 0 9451.45 623.52"
   enable-background="new 0 0 9451.45 623.52"
   xml:space="preserve"
   sodipodi:docname="19 Aral sea breast milk analytes_mask-01.svg"
   inkscape:version="1.1.1 (c3084ef, 2021-09-22)"
   xmlns:inkscape="http://www.inkscape.org/namespaces/inkscape"
   xmlns:sodipodi="http://sodipodi.sourceforge.net/DTD/sodipodi-0.dtd"
   xmlns="http://www.w3.org/2000/svg"
   xmlns:svg="http://www.w3.org/2000/svg"><defs
   id="defs2653">
</defs><sodipodi:namedview
   id="namedview2651"
   pagecolor="#505050"
   bordercolor="#eeeeee"
   borderopacity="1"
   inkscape:pageshadow="0"
   inkscape:pageopacity="0"
   inkscape:pagecheckerboard="0"
   showgrid="false"
   inkscape:zoom="0.54773827"
   inkscape:cx="4052.1178"
   inkscape:cy="162.48636"
   inkscape:window-width="1440"
   inkscape:window-height="762"
   inkscape:window-x="0"
   inkscape:window-y="25"
   inkscape:window-maximized="0"
   inkscape:current-layer="multiple" />

<g
   id="multiple"><g
     id="PCB-TEQ"><path
       style="fill:#e50000;stroke:none;stroke-width:1px;stroke-linecap:butt;stroke-linejoin:miter;stroke-opacity:1;fill-opacity:0.09716599"
       d="m 3621.22,368.25 -47.6866,0.36279 v 29.48902 l 1684.8955,1.34041 V 367.27238 L 5136.44,363.83 Z"
       id="path939" /></g><g
     id="hexachlorobenzene"><path
       style="fill:#e50000;stroke:none;stroke-width:1px;stroke-linecap:butt;stroke-linejoin:miter;stroke-opacity:1;fill-opacity:0.09716599"
       d="m 3637.3,359.12 118.7615,-7.55518 1030.6984,9.2815 420.91,-5.52631 50.8615,0.99875 -0.1025,43.12346 -1684.8955,-1.34041 0.2939,-41.78305 z"
       id="path942" /></g><g
     id="total_polycholinated_biphenyl"><path
       style="fill:#e50000;stroke:none;stroke-width:1px;stroke-linecap:butt;stroke-linejoin:miter;stroke-opacity:1;fill-opacity:0.09716599"
       d="m 3665.85,340.41 142.58,-22.33 890.98,4.76 148.08,29.01 71.72,-23.73 192.3,5.59 146.3423,1.32924 0.5766,64.40298 -1684.8955,-1.34041 0.5203,-58.53501 z"
       id="path933" /></g><g
     id="DDT_dichlorodiphenyltrichloroethane"><path
       style="fill:#e50000;stroke:none;stroke-width:1px;stroke-linecap:butt;stroke-linejoin:miter;stroke-opacity:1;fill-opacity:0.09716599"
       d="m 3610.6101,332.57999 346.4099,5.39001 658.9,-49.58 162.03,48 412.03,5.99 68.0986,0.12971 0.3503,56.93251 -1684.8955,-1.34041 0.5203,-64.87359 z"
       id="path947" /></g><g
     id="DDE_dichlorodiphenyldichloroethylene"><path
       style="fill:#e50000;stroke:none;stroke-width:1px;stroke-linecap:butt;stroke-linejoin:miter;stroke-opacity:1;fill-opacity:0.09716599"
       d="m 3644.43,180.99 99.58,36.05 279.62,1.93 624.77,-179.34 204.37,192.49 68.37,14.41 197.86,-204.680002 143.5873,0.805218 -4.1584,356.787004 -1684.8955,-1.34041 1.5069,-220.81607 z"
       id="path950" /></g><g
     id="beta_hexachlorocyclohexane"><path
       style="fill:#e50000;stroke:none;stroke-width:1px;stroke-linecap:butt;stroke-linejoin:miter;stroke-opacity:1;fill-opacity:0.09716599"
       d="m 3600.22,156.99001 188.4,-49.76001 199.26,0.08 675.4,108.03 146.5198,-127.390003 102.3101,80.900013 245.3999,-140.52001 105.3213,0.691753 -4.4022,370.420467 -1684.8955,-1.34041 2.2679,-241.67484 z"
       id="path935" /></g></g></svg>
