<?xml version="1.0" encoding="UTF-8" standalone="no"?>
<!--?xml version="1.0" encoding="UTF-8" standalone="no"?-->

<!-- Generator: Adobe Illustrator 18.0.0, SVG Export Plug-In . SVG Version: 6.00 Build 0)  -->

<svg
   version="1.1"
   x="0px"
   y="0px"
   width="9451.45px"
   height="623.52px"
   viewBox="0 0 9451.45 623.52"
   enable-background="new 0 0 9451.45 623.52"
   xml:space="preserve"
   id="svg1152"
   sodipodi:docname="21 Cotton production_mask-01.svg"
   inkscape:version="1.1.1 (c3084ef, 2021-09-22)"
   xmlns:inkscape="http://www.inkscape.org/namespaces/inkscape"
   xmlns:sodipodi="http://sodipodi.sourceforge.net/DTD/sodipodi-0.dtd"
   xmlns="http://www.w3.org/2000/svg"
   xmlns:svg="http://www.w3.org/2000/svg"><defs
   id="defs1156" /><sodipodi:namedview
   id="namedview1154"
   pagecolor="#505050"
   bordercolor="#eeeeee"
   borderopacity="1"
   inkscape:pageshadow="0"
   inkscape:pageopacity="0"
   inkscape:pagecheckerboard="0"
   showgrid="false"
   inkscape:zoom="0.10531277"
   inkscape:cx="2122.2498"
   inkscape:cy="740.65094"
   inkscape:window-width="1440"
   inkscape:window-height="762"
   inkscape:window-x="0"
   inkscape:window-y="25"
   inkscape:window-maximized="0"
   inkscape:current-layer="svg1152" />
<g
   id="multiple">
	<g
   id="china"><path
     style="fill:#000000;stroke-width:0.320378"
     d="m 3919.5539,91.260569 -3.6838,-0.03348 -1.4956,-0.252471 -1.4957,-0.252473 -1.8678,-0.540463 -1.8677,-0.54046 -2.2259,-0.944557 -2.2258,-0.944557 -2.5791,-1.719787 -2.579,-1.719787 -2.4266,-2.513098 -2.4266,-2.513098 -1.3771,-2.043738 -1.377,-2.043738 -1.0696,-2.315701 -1.0696,-2.315703 -0.6414,-2.369593 -0.6414,-2.36959 -0.3559,-2.883871 -0.3559,-2.883871 0.2129,-2.403226 0.2129,-2.403225 0.4364,-2.082796 0.4363,-2.082795 0.648,-1.867393 0.6479,-1.867393 1.4674,-2.78404 1.4674,-2.78404 1.9101,-2.315338 1.9101,-2.315339 2.1413,-1.766811 2.1413,-1.766812 2.1219,-1.26098 2.1218,-1.26098 2.3783,-0.942649 2.3782,-0.942649 2.5626,-0.591779 2.5626,-0.591779 h 4.1642 4.1643 l 2.5626,0.587311 2.5626,0.587311 2.6203,1.077619 2.6203,1.07762 1.7041,1.026422 1.7041,1.026422 1.4415,1.118945 1.4415,1.118946 1.6338,1.572251 1.6338,1.57225 0.428,-1.033572 0.428,-1.033573 1.5842,-2.427573 1.5842,-2.427573 1.8542,-1.814855 1.8541,-1.814854 1.4318,-0.985416 1.4318,-0.985415 2.2777,-1.143506 2.2778,-1.143506 2.4822,-0.669807 2.4822,-0.669808 4.1643,-0.0029 4.1642,-0.0029 2.8213,0.850053 2.8213,0.850053 1.6633,0.841501 1.6633,0.841501 1.7618,1.208811 1.7618,1.208811 1.9579,2.031238 1.958,2.031239 0.962,1.441935 0.9619,1.441936 0.84,1.663844 0.84,1.663845 0.8471,2.822176 0.8472,2.822177 0.018,4.005376 0.018,4.005376 -0.5765,2.243011 -0.5765,2.243011 -1.2137,2.618971 -1.2137,2.618974 -1.0426,1.515852 -1.0426,1.515853 -1.8913,1.89187 -1.8913,1.891874 -2.3473,1.532876 -2.3474,1.53288 -2.3588,0.878729 -2.3588,0.878728 -2.3506,0.453633 -2.3505,0.453629 -2.4544,-0.0042 -2.4543,-0.0042 -2.9267,-0.60419 -2.9266,-0.60419 -2.6791,-1.264177 -2.6791,-1.26418 -1.9219,-1.471508 -1.922,-1.471511 -0.2121,0.540325 -0.2121,0.540322 -1.0234,2.639415 -1.0235,2.639415 -1.8618,2.827029 -1.8619,2.82703 -2.8537,2.704523 -2.8538,2.704523 -2.5375,1.481011 -2.5375,1.481012 -2.2381,0.882673 -2.2382,0.882676 -2.8871,0.596083 -2.8871,0.596083 -3.6837,-0.03348 z"
     id="path2066" /><path
     style="fill:#000000;stroke-width:0.320378"
     d="m 3868.1415,134.06459 -3.2033,0.14127 -1.8214,-0.28923 -1.8214,-0.28922 -2.0225,-0.52081 -2.0226,-0.5208 -2.6181,-1.22334 -2.6181,-1.22335 -1.5461,-1.05404 -1.5461,-1.05404 -2.198,-2.10245 -2.1979,-2.10246 -1.4125,-1.97272 -1.4125,-1.97272 -1.2709,-2.71293 -1.2709,-2.71293 -0.702,-2.84446 -0.7019,-2.84445 v -4.00538 -4.00537 l 0.6892,-2.790713 0.6892,-2.790709 0.9707,-2.141492 0.9706,-2.141495 0.9789,-1.5914 0.9789,-1.591403 -0.099,-0.0618 -0.099,-0.06179 -1.9219,-0.578991 -1.922,-0.578995 -2.3151,-1.062463 -2.315,-1.062463 -2.3927,-1.654595 -2.3927,-1.654598 -2.5016,-2.615322 -2.5017,-2.615325 -1.2078,-1.82963 -1.2077,-1.829627 -1.2724,-2.656394 -1.2724,-2.656391 -0.8448,-3.204301 -0.8448,-3.204301 V 55.574511 50.76806 l 0.8444,-3.196776 0.8445,-3.196776 1.5722,-3.211826 1.5722,-3.211826 1.5848,-2.082795 1.5848,-2.082796 2.3819,-2.258669 2.3819,-2.258669 2.4458,-1.524887 2.4458,-1.524888 2.7857,-1.136087 2.7857,-1.136088 2.9236,-0.603565 2.9236,-0.603566 3.5683,-0.0042 3.5683,-0.0042 2.6492,0.50271 2.6492,0.50271 2.5494,0.930717 2.5494,0.930717 2.1017,1.155622 2.1017,1.155622 1.9445,1.484123 1.9444,1.484124 1.8694,1.934892 1.8693,1.934891 1.7642,2.644106 1.7643,2.644106 1.1153,2.64299 1.1154,2.642991 0.6751,2.723656 0.6752,2.723656 0.021,4.646236 0.021,4.646236 -0.597,2.563441 -0.5971,2.56344 -1.1269,2.825386 -1.127,2.825389 -1.9974,2.988488 -1.9974,2.988488 2.2514,0.883612 2.2515,0.883608 2.7513,1.841958 2.7512,1.841953 1.9427,2.034754 1.9426,2.03475 1.3772,2.038833 1.3772,2.038829 0.889,1.966547 0.889,1.966543 0.6477,2.10438 0.6476,2.104377 0.3683,3.085653 0.3683,3.08565 -0.3391,3.04237 -0.3392,3.04237 -0.8297,2.66223 -0.8298,2.66222 -1.2525,2.34684 -1.2526,2.34683 -1.4034,1.81876 -1.4034,1.81875 -1.8804,1.77928 -1.8805,1.77927 -1.5461,1.05679 -1.5461,1.05679 -2.6522,1.24329 -2.6523,1.24328 -2.6886,0.64882 -2.6887,0.64883 -3.2033,0.14126 z"
     id="path1780" /></g><g
   id="brazil"><path
     style="fill:#000000;stroke-width:0.320206"
     d="m 4116.1002,86.92224 -2.0845,0.129041 -1.6038,-0.766834 -1.6039,-0.766832 -1.0248,-1.166621 -1.0249,-1.166621 -0.4942,-1.663195 -0.4942,-1.663195 v -0.684088 -0.684088 l 0.5017,-1.688305 0.5016,-1.688306 1.3956,-1.394841 1.3957,-1.39484 1.8347,-0.533083 1.8348,-0.533083 1.3937,0.190923 1.3937,0.190922 1.2458,0.635175 1.2457,0.635175 1.1176,1.304907 1.1176,1.304907 0.4021,1.435429 0.4021,1.435428 -0.1772,1.716316 -0.1773,1.716315 -0.4979,0.962398 -0.498,0.962397 -1.0042,1.003666 -1.0042,1.003666 -1.0045,0.519113 -1.0044,0.519114 z"
     id="path2090" /><path
     style="fill:#000000;stroke-width:0.320206"
     d="m 4148.9279,87.649695 -1.6014,0.0068 -1.396,-0.690572 -1.3959,-0.690572 -0.95,-1.309903 -0.9501,-1.309901 -2.4783,0.109976 -2.4783,0.109975 -1.5035,-0.706371 -1.5036,-0.706372 -0.8483,-1.004186 -0.8483,-1.004185 -0.584,-1.280466 -0.584,-1.280465 -0.01,-1.403384 -0.01,-1.403384 0.3717,-1.240001 0.3717,-1.240002 1.1041,-1.289081 1.104,-1.289081 1.3268,-0.686881 1.3269,-0.68688 h 2.0819 2.0819 l 1.2812,0.668605 1.2812,0.668604 0.8755,0.921634 0.8755,0.921634 0.6127,1.258812 0.6126,1.258812 1.3153,-0.09491 1.3153,-0.09491 1.2002,0.384277 1.2003,0.384276 1.0439,0.779217 1.0439,0.779216 0.5986,1.181892 0.5985,1.181891 0.2278,1.054509 0.2278,1.054509 -0.3692,1.538209 -0.3692,1.538209 -0.998,1.209992 -0.9979,1.209991 -1.3038,0.59186 -1.3039,0.591859 -1.6015,0.0068 z"
     id="path2088" /><path
     style="fill:#000000;stroke-width:0.320206"
     d="m 4134.316,95.830875 -1.4029,0.170131 -1.2944,-0.605182 -1.2944,-0.605182 -0.8677,-1.030573 -0.8676,-1.030573 -0.1992,-0.792979 -0.1991,-0.792978 0.1483,-1.542324 0.1482,-1.542323 0.7186,-1.008495 0.7185,-1.008495 1.2414,-0.632985 1.2415,-0.632986 h 1.3042 1.3042 l 1.0457,0.436647 1.0456,0.436647 0.8574,1.018432 0.8575,1.018432 0.3482,1.292697 0.3483,1.292697 -0.2142,1.013591 -0.2143,1.013591 -0.6222,1.024242 -0.6222,1.024242 -1.0633,0.656798 -1.0633,0.656797 z"
     id="path1818" /></g><g
   id="india"><path
     style="fill:#000000"
     d="m 4421,63.672145 -7.5,0.344698 -5.0757,-2.01328 -5.0757,-2.01328 -3.9561,-3.38634 -3.9562,-3.386339 -2.8801,-5.29163 -2.88,-5.29163 -0.4613,-7.188135 -0.4614,-7.188134 1.7075,-5.140578 1.7074,-5.140578 4.8957,-5.356664 4.8957,-5.3566636 5.2701,-2.3221875 5.2701,-2.3221874 7.5,-0.0063 7.5,-0.0063 5.7235,2.7567858 5.7235,2.7567859 3.4699,4.0537848 3.4699,4.053785 2.242,4.636125 2.242,4.636125 0.015,7.5 0.015,7.5 -2.0879,4.622405 -2.088,4.622405 -3.7992,4.205278 -3.7993,4.205279 -5.0634,2.58604 -5.0635,2.58604 -7.5,0.344698 z"
     id="path1581" /><path
     style="fill:#000000"
     d="m 4356.2824,70 h 0.3253 l 3.3156,-3.420868 3.3156,-3.420867 -4.3694,0.558454 -4.3695,0.558454 -0.4124,0.358187 -0.4125,0.358188 1.141,2.504226 1.141,2.504226 z"
     id="path1579" /><path
     style="fill:#000000"
     d="m 4383,117.43057 -5.5,0.47696 -3.7655,-0.94136 -3.7656,-0.94137 -3.8026,-1.93998 -3.8027,-1.93999 -3.6252,-4.01268 -3.6253,-4.01268 -1.6412,-3.17382 -1.6413,-3.173834 -3.1653,3.062864 -3.1653,3.06287 -5,2.27959 -5,2.27959 -7,-0.0469 -7,-0.0469 -5,-2.59217 -5,-2.59218 -3.1422,-3.339288 -3.1422,-3.339292 -2.2912,-4.5 -2.2913,-4.5 -0.045,-7 -0.045,-7 2.084,-4.550805 2.084,-4.550806 3.2128,-3.659109 3.2127,-3.659109 5.1816,-2.506467 5.1816,-2.506468 4.7492,-0.283618 4.7492,-0.283618 h -0.014 -0.014 l -1.4411,-4 -1.441,-4 -0.034,-6 -0.034,-6 2.3333,-5 2.3333,-5 4.1155,-3.710046 4.1156,-3.710047 5.7084,-1.659464 5.7083,-1.659464 4.8935,0.579557 4.8935,0.579558 4.5684,2.281587 4.5684,2.281588 3.3375,3.899074 3.3375,3.899074 1.6599,4.997699 1.66,4.997699 -0.5168,5.699443 -0.5168,5.699443 -1.7197,3.412149 -1.7198,3.41215 -3.5168,3.672242 -3.5168,3.672242 4.377,-1.008116 4.377,-1.008115 4.6881,0.53142 4.688,0.53142 5.0914,2.190259 5.0914,2.190258 4.3785,4.869993 4.3786,4.869993 1.592,4.672341 1.592,4.672341 V 88 93.643722 l -1.5751,4.622669 -1.5751,4.622669 -3.9605,4.49932 -3.9604,4.49932 -5.2145,2.53295 -5.2144,2.53295 z"
     id="path1557" /></g><g
   id="pakistan"><path
     style="fill:#000000"
     d="m 4372.5,189 h -2.6538 l -2.9231,-2.92308 L 4364,183.15385 V 180.5 177.84615 l 2.9231,-2.92307 2.9231,-2.92308 h 2.5211 2.5212 l 2.5568,2.25 2.5568,2.25 0.616,3.20994 0.6159,3.20993 -3.0401,3.04007 -3.0401,3.04006 z"
     id="path2112" /><path
     style="fill:#000000"
     d="m 4356,213.9538 -1.5,-0.0339 -2.669,-1.44944 -2.669,-1.44945 -1.111,-3.36647 -1.111,-3.36648 0.9669,-2.54312 0.9669,-2.54313 2.1904,-1.53428 2.1905,-1.53428 -3.6337,-1.51826 -3.6337,-1.51827 -1.0491,-2.75934 -1.0491,-2.75933 0.5809,-2.31447 0.5809,-2.31447 1.9745,-1.97457 L 4349,179 h 3.9274 3.9274 l 2.0726,2.63486 2.0726,2.63486 V 187 v 2.73028 l -2.0726,2.63486 -2.0726,2.63486 -1.6774,0.10045 -1.6774,0.10045 3.9033,0.91578 3.9034,0.91578 1.769,-1.60098 1.7691,-1.60097 4.0497,-0.54318 4.0497,-0.54318 3.5279,3.52793 L 4380,199.8 v 2.64966 2.64966 l -1.5103,2.9207 -1.5104,2.92069 -1.9239,1.02965 L 4373.1315,213 H 4370 h -3.1315 l -1.8446,-0.98721 -1.8446,-0.9872 -2.8397,1.48104 -2.8396,1.48105 z"
     id="path1856" /></g><g
   id="us"><path
     style="fill:#000000"
     d="m 4468.9343,168.91405 -2.4343,-0.086 -2.8807,-0.86251 -2.8807,-0.86252 -2.4643,-2.30153 -2.4643,-2.30153 -1.405,-2.70034 -1.405,-2.70034 v -2.79966 -2.79966 l -3.0167,-2 -3.0168,-2 -1.9803,-4.06572 -1.9804,-4.06573 v -2.47239 -2.47238 l 2.25,-4.46189 2.25,-4.46189 4.4619,-2.25 4.4619,-2.25 h 2.1253 2.1254 l 4.1363,-3.93476 4.1362,-3.93475 4.3502,-0.65235 4.3501,-0.65234 3.5347,1.4769 3.5348,1.4769 2.2376,2.3602 2.2377,2.3602 0.8792,2.25 0.8792,2.25 h 4.6247 4.6248 l 3.3411,3.34105 3.341,3.34106 0.6782,2.70215 0.6782,2.70215 -1.4048,3.69089 -1.4047,3.6909 -3.3624,2.2659 -3.3624,2.2659 h -2.9017 -2.9018 l -2.8897,-1.49429 -2.8896,-1.49429 -1.5514,-2.21498 -1.5515,-2.21498 -1.1244,1.12439 -1.1243,1.12439 1.7345,4.54174 1.7345,4.54174 -0.6223,3.29314 -0.6223,3.29314 -1.8994,3.11349 -1.8994,3.11349 -4.4134,2.13651 -4.4134,2.13651 z"
     id="path1930" /></g><g
   id="turkey"><path
     style="fill:#000000;stroke-width:0.325866"
     d="m 4454.2885,255.06202 -0.9817,0.16183 -0.6544,-0.27793 -0.6545,-0.27793 -0.6172,-0.68067 -0.6172,-0.68067 v -1.33426 -1.33427 l 0.8626,-0.85555 0.8627,-0.85556 h 1.3088 1.3089 l 0.8924,0.88506 0.8924,0.88506 v 1.29808 1.29809 l -0.8106,0.80344 -0.8106,0.80344 z"
     id="path2158" /><path
     style="fill:#000000;stroke-width:0.325866"
     d="m 4447.7679,258.16112 h -1.1215 l -0.6782,-0.85507 -0.6782,-0.85507 v -0.8686 -0.86861 l 0.6672,-0.71024 0.6672,-0.71023 h 1.2775 1.2776 l 0.5094,0.72125 0.5094,0.72125 v 1.06362 1.06361 l -0.6545,0.64905 -0.6544,0.64904 z"
     id="path2156" /><path
     style="fill:#000000;stroke-width:0.325866"
     d="m 4453.3796,261.08181 h -0.7452 l -0.7273,-0.50518 -0.7272,-0.50519 v -1.05539 -1.0554 l 0.409,-0.53105 0.409,-0.53104 0.8323,-0.19837 0.8322,-0.19837 0.8856,0.69094 0.8857,0.69094 v 0.95001 0.95001 l -0.6544,0.64905 -0.6544,0.64904 z"
     id="path2154" /><path
     style="fill:#000000;stroke-width:0.325866"
     d="m 4448.1378,265.59949 -0.3937,-0.0256 -0.4908,-0.17795 -0.4908,-0.17794 -0.7193,-0.6485 -0.7192,-0.64849 -0.2014,-0.90912 -0.2013,-0.90912 0.515,-0.98763 0.5149,-0.98763 0.6296,-0.33415 0.6295,-0.33414 h 1.0283 1.0284 l 0.9564,0.9486 0.9565,0.9486 v 0.85239 0.85238 l -0.4663,0.89427 -0.4663,0.89427 -0.8579,0.3877 -0.858,0.3877 z"
     id="path1968" /></g><g
   id="others"><path
     style="fill:#000000;stroke-width:0.320325"
     d="m 4562.2272,267.09865 -2.5718,0.15208 -1.9212,-0.44411 -1.9212,-0.4441 -1.7272,-0.68636 -1.7272,-0.68636 -1.6349,-1.08949 -1.6349,-1.08949 -1.3413,-1.38045 -1.3413,-1.38046 -1.1262,-1.88046 -1.1262,-1.88047 -0.1121,-0.33666 -0.1121,-0.33666 -1.9913,1.35326 -1.9912,1.35326 -2.1534,0.82042 -2.1533,0.82041 -2.7909,0.16739 -2.7909,0.16739 -2.0121,-0.38897 -2.0121,-0.38898 -2.4015,-1.14184 -2.4016,-1.14184 -2.275,-2.30474 -2.2749,-2.30473 -1.0002,-2.05646 -1.0001,-2.05646 -0.4872,-1.90991 -0.4873,-1.9099 -0.01,-2.25593 -0.01,-2.25592 -1.6278,-0.96135 -1.6277,-0.96134 -1.825,-1.94705 -1.825,-1.94704 -0.8508,-1.45287 -0.8508,-1.45286 -0.8656,-2.52839 -0.8657,-2.52838 -0.014,-3.36471 -0.014,-3.36471 0.5756,-1.92269 0.5755,-1.92269 1.1634,-2.22339 1.1633,-2.22339 2.1187,-2.12033 2.1187,-2.12032 2.5694,-1.3378 2.5695,-1.3378 2.0448,-0.48238 2.0447,-0.48238 h 2.4015 2.4016 l 2.0813,0.48945 2.0813,0.48946 2.274,1.1228 2.2741,1.12281 1.8223,1.62546 1.8224,1.62546 1.2368,1.82273 1.2368,1.82273 0.8118,1.93019 0.8118,1.9302 0.381,2.1898 0.3811,2.1898 -0.2112,2.80022 -0.2113,2.80022 1.9249,1.83748 1.925,1.83749 1.0267,1.63875 1.0268,1.63875 0.082,0.11595 0.082,0.11596 1.3784,-1.10912 1.3784,-1.10913 0.9883,-0.5671 0.9883,-0.5671 -2.6041,-2.60556 -2.6041,-2.60556 -1.0337,-1.98231 -1.0337,-1.98231 -0.6326,-2.47512 -0.6325,-2.47511 v -2.14062 -2.14062 l 0.6325,-2.47512 0.6326,-2.47512 1.0346,-1.98231 1.0347,-1.98231 2.4154,-2.40917 2.4153,-2.40917 2.4015,-1.17634 2.4015,-1.17635 2.6991,-0.54087 2.6992,-0.54088 2.1705,0.20189 2.1706,0.20189 2.4949,0.79242 2.495,0.79242 1.7611,1.17023 1.7611,1.17024 1.375,1.32095 1.375,1.32095 1.2465,1.92269 1.2464,1.92269 0.881,2.56359 0.881,2.56359 -0.01,3.36471 -0.01,3.3647 -0.8464,2.56359 -0.8465,2.56359 -1.2981,1.97991 -1.2981,1.97991 -1.7598,1.60958 -1.7598,1.60958 -1.272,0.71546 -1.272,0.71546 0.012,0.18133 0.012,0.18133 1.4436,1.12156 1.4435,1.12157 1.2429,1.60225 1.2429,1.60224 1.0062,2.03005 1.0062,2.03006 0.4523,2.13577 0.4523,2.13578 v 1.92269 1.92269 l -0.4523,2.13577 -0.4523,2.13578 -1.0062,2.03005 -1.0062,2.03006 -1.2796,1.66035 -1.2797,1.66036 -1.659,1.268 -1.6591,1.26801 -1.601,0.80117 -1.601,0.80117 -1.751,0.51992 -1.751,0.51992 -2.5717,0.15208 z"
     id="path2006" /></g><g
   id="uzbekistan"><path
     style="fill:#000000;stroke-width:0.323125"
     d="m 4590.4993,332.23514 -1.442,0.13477 -0.9841,-0.44683 -0.9841,-0.44684 -0.5743,-0.87758 -0.5743,-0.87757 -0.1686,-1.0401 -0.1685,-1.0401 0.4966,-1.19004 0.4966,-1.19003 1.0689,-0.67175 1.0689,-0.67174 1.5945,0.13804 1.5946,0.13804 1.0695,1.16854 1.0695,1.16854 v 1.62617 1.62616 l -1.0606,1.15878 -1.0605,1.15877 z"
     id="path2204" /><path
     style="fill:#000000;stroke-width:0.323125"
     d="m 4606.8177,332.65373 -0.3229,-0.026 -0.9302,-0.27888 -0.9303,-0.27888 -0.7557,-0.71088 -0.7557,-0.71087 -0.3643,-1.1052 -0.3642,-1.10519 0.2063,-1.10108 0.2062,-1.10107 0.8051,-0.95793 0.805,-0.95794 1.1407,-0.37695 1.1406,-0.37694 1.0997,0.20656 1.0997,0.20656 0.9567,0.80605 0.9567,0.80605 0.3764,1.14216 0.3765,1.14216 -0.2063,1.10108 -0.2063,1.10107 -0.8152,0.97006 -0.8152,0.97006 -1.1902,0.33099 -1.1902,0.33099 z"
     id="path2202" /><path
     style="fill:#000000;stroke-width:0.323125"
     d="m 4584.4718,342.0395 -0.9041,-0.0205 -0.682,-0.2759 -0.6819,-0.2759 -0.682,-0.86807 -0.6819,-0.86808 -0.1985,-1.05958 -0.1986,-1.05959 0.5065,-0.98073 0.5065,-0.98073 0.8573,-0.67521 0.8573,-0.67522 h 1.1027 1.1027 l 0.9331,0.48315 0.9331,0.48316 0.504,0.72045 0.504,0.72046 v 1.47278 1.47278 l -0.504,0.72046 -0.504,0.72045 -0.9331,0.48316 -0.9331,0.48315 z"
     id="path2200" /><path
     style="fill:#000000;stroke-width:0.323125"
     d="m 4593.8138,343.01733 -0.5586,-0.0127 -0.9848,-0.42949 -0.9847,-0.42949 -0.872,-1.03766 -0.872,-1.03767 v -1.44624 -1.44625 l 0.5,-0.96825 0.5001,-0.96824 1.0338,-0.63116 1.0338,-0.63116 1.5226,-10e-4 1.5226,-0.001 1.1217,0.98616 1.1218,0.98616 0.368,1.11663 0.3681,1.11662 -0.2271,1.04972 -0.227,1.04971 -0.6015,0.85239 -0.6015,0.85239 -1.3024,0.52178 -1.3024,0.52175 z"
     id="path2044" /></g>
</g>

</svg>
