<?xml version="1.0" encoding="UTF-8" standalone="no"?>
<!-- Generator: Adobe Illustrator 18.0.0, SVG Export Plug-In . SVG Version: 6.00 Build 0)  -->

<svg
   version="1.1"
   x="0px"
   y="0px"
   width="9451.45px"
   height="623.52px"
   viewBox="0 0 9451.45 623.52"
   enable-background="new 0 0 9451.45 623.52"
   xml:space="preserve"
   id="svg1152"
   sodipodi:docname="21 Cotton production_mask-01.svg"
   inkscape:version="1.1.1 (c3084ef, 2021-09-22)"
   xmlns:inkscape="http://www.inkscape.org/namespaces/inkscape"
   xmlns:sodipodi="http://sodipodi.sourceforge.net/DTD/sodipodi-0.dtd"
   xmlns="http://www.w3.org/2000/svg"
   xmlns:svg="http://www.w3.org/2000/svg"><defs
   id="defs1156">
			
		
			
			
			
		
				
			
					
				
				
				
				
				
				
				
				
				
				
				
				
				
			
			
			
			
		
				
			
					
				
				
			
					
				
				
				
				
				
				
				
			
			
		
				
				
				
				
				
				
				
				
				
			
			
		
				
			
			
		
				
			
			
			
			
		
				
			
					
				
				
			
					
					
					
					
					
					
					
					
					
				
				
			
					
				
			
			
			
		
				
			
					
				
				
			
					
					
					
					
					
					
					
					
					
				
				
			
					
				
			
			
			
		
				
			
					
				
				
			
					
					
					
					
					
				
				
			
					
				
			
			
			
		
				
			
				
			
					
				
				
			
					
				
					
					
					
					
					
					
					
					
					
				
			
			
			
		
				
			
					
					
					
					
					
				
				
			
					
				
				
			
					
				
		
		
		
		
		
		
		
		
		
		
		
		
		
		
		
		
		
		
		
	</defs><sodipodi:namedview
   id="namedview1154"
   pagecolor="#505050"
   bordercolor="#eeeeee"
   borderopacity="1"
   inkscape:pageshadow="0"
   inkscape:pageopacity="0"
   inkscape:pagecheckerboard="0"
   showgrid="false"
   inkscape:zoom="2.151366"
   inkscape:cx="4540.6034"
   inkscape:cy="260.29973"
   inkscape:window-width="1440"
   inkscape:window-height="762"
   inkscape:window-x="0"
   inkscape:window-y="25"
   inkscape:window-maximized="0"
   inkscape:current-layer="svg1152" />
<g
   id="multiple">
	<g
   id="china"><path
     id="circle824"
     style="opacity:0.75"
     d="m 3994.19,48.57 a 26.16,26.16 0 0 1 -26.16,26.16 26.16,26.16 0 0 1 -26.16,-26.16 26.16,26.16 0 0 1 26.16,-26.16 26.16,26.16 0 0 1 26.16,26.16 z" /><path
     id="NA-1"
     d="M 3883.75,55.59 A 33.029999,33.029999 0 0 1 3850.72,88.619999 33.029999,33.029999 0 0 1 3817.69,55.59 33.029999,33.029999 0 0 1 3850.72,22.560001 33.029999,33.029999 0 0 1 3883.75,55.59 Z"
     style="opacity:0.75" /><path
     id="SVGID_11_"
     d="M 3951.47,59.66 A 31.77,31.77 0 0 1 3919.7,91.43 31.77,31.77 0 0 1 3887.93,59.66 31.77,31.77 0 0 1 3919.7,27.889999 31.77,31.77 0 0 1 3951.47,59.66 Z" /><path
     id="circle904"
     d="m 3896.4535,104.7901 a 29.450001,29.450001 0 0 1 -29.45,29.45 29.450001,29.450001 0 0 1 -29.45,-29.45 29.450001,29.450001 0 0 1 29.45,-29.450002 29.450001,29.450001 0 0 1 29.45,29.450002 z"
     style="opacity:0.75" /></g><g
   id="brazil"><path
     id="SVGID_27_"
     d="m 4147.27,76.239998 a 7.79,7.79 0 0 1 -7.79,7.79 7.79,7.79 0 0 1 -7.79,-7.79 7.79,7.79 0 0 1 7.79,-7.79 7.79,7.79 0 0 1 7.79,7.79 z"
     style="opacity:0.75" /><path
     id="circle11062"
     d="m 4139.45,90.300003 a 5.6799998,5.6799998 0 0 1 -5.68,5.68 5.6799998,5.6799998 0 0 1 -5.68,-5.68 5.6799998,5.6799998 0 0 1 5.68,-5.68 5.6799998,5.6799998 0 0 1 5.68,5.68 z"
     style="opacity:0.75" /><path
     id="NA-10"
     style="opacity:0.75"
     d="m 4123.6099,79.230003 a 7.9200001,7.9200001 0 0 1 -7.92,7.92 7.9200001,7.9200001 0 0 1 -7.92,-7.92 7.9200001,7.9200001 0 0 1 7.92,-7.92 7.9200001,7.9200001 0 0 1 7.92,7.92 z" /><path
     id="circle1106"
     d="m 4155.8143,80.97159 a 6.8299999,6.8299999 0 0 1 -6.83,6.83 6.8299999,6.8299999 0 0 1 -6.83,-6.83 6.8299999,6.8299999 0 0 1 6.83,-6.83 6.8299999,6.8299999 0 0 1 6.83,6.83 z"
     style="opacity:0.75" /></g><g
   id="india"><path
     id="SVGID_25_"
     d="m 4410.5499,88.019997 a 30.190001,30.190001 0 0 1 -30.19,30.190003 30.190001,30.190001 0 0 1 -30.19,-30.190003 30.190001,30.190001 0 0 1 30.19,-30.190001 30.190001,30.190001 0 0 1 30.19,30.190001 z"
     style="opacity:0.75" /><path
     id="NA-3"
     d="m 4381.22,37.540001 a 26.99,26.99 0 0 1 -26.99,26.99 26.99,26.99 0 0 1 -26.99,-26.99 26.99,26.99 0 0 1 26.99,-26.99 26.99,26.99 0 0 1 26.99,26.99 z"
     style="opacity:0.75" /><path
     id="circle1127"
     style="opacity:0.75"
     d="m 4451.04,33.009998 a 31.33,31.33 0 0 1 -31.33,31.33 31.33,31.33 0 0 1 -31.33,-31.33 31.33,31.33 0 0 1 31.33,-31.3299996 31.33,31.33 0 0 1 31.33,31.3299996 z" /><path
     id="circle1054"
     d="m 4357.896,80.150183 a 29.030001,29.030001 0 0 1 -29.03,29.029997 29.030001,29.030001 0 0 1 -29.03,-29.029997 29.030001,29.030001 0 0 1 29.03,-29.03 29.030001,29.030001 0 0 1 29.03,29.03 z"
     style="opacity:0.75" /></g><g
   id="pakistan"><path
     id="NA-4"
     d="m 4362.1099,187.24001 a 8.9399996,8.9399996 0 0 1 -8.94,8.94 8.9399996,8.9399996 0 0 1 -8.94,-8.94 8.9399996,8.9399996 0 0 1 8.94,-8.94 8.9399996,8.9399996 0 0 1 8.94,8.94 z"
     style="opacity:0.75" /><path
     id="SVGID_13_"
     d="m 4381.2198,203.63 a 10.63,10.63 0 0 1 -10.63,10.63 10.63,10.63 0 0 1 -10.63,-10.63 10.63,10.63 0 0 1 10.63,-10.63 10.63,10.63 0 0 1 10.63,10.63 z"
     style="opacity:0.75" /><path
     id="circle1134"
     style="opacity:0.75"
     d="m 4382.1099,180.67999 a 8.71,8.71 0 0 1 -8.71,8.71 8.71,8.71 0 0 1 -8.71,-8.71 8.71,8.71 0 0 1 8.71,-8.71 8.71,8.71 0 0 1 8.71,8.71 z" /><path
     id="circle942"
     d="m 4365.9162,205.35064 a 9.25,9.25 0 0 1 -9.25,9.25 9.25,9.25 0 0 1 -9.25,-9.25 9.25,9.25 0 0 1 9.25,-9.25 9.25,9.25 0 0 1 9.25,9.25 z"
     style="opacity:0.75" /></g><g
   id="us"><path
     id="NA-5"
     d="m 4444.17,130.78 c 3.72,-8 13.23,-11.47 21.23,-7.75 8,3.72 11.48,13.23 7.75,21.24 -3.72,8 -13.23,11.47 -21.24,7.75 -7.99,-3.73 -11.45,-13.24 -7.74,-21.24 z"
     style="opacity:0.75" /><path
     id="SVGID_5_"
     d="m 4508.1799,136.64 a 12.51,12.51 0 0 1 -12.51,12.51 12.51,12.51 0 0 1 -12.51,-12.51 12.51,12.51 0 0 1 12.51,-12.51 12.51,12.51 0 0 1 12.51,12.51 z"
     style="opacity:0.75" /><path
     id="circle1136"
     style="opacity:0.75"
     d="m 4491.7199,128.5 a 16.07,16.07 0 0 1 -16.07,16.07 16.07,16.07 0 0 1 -16.07,-16.07 16.07,16.07 0 0 1 16.07,-16.07 16.07,16.07 0 0 1 16.07,16.07 z" /><path
     id="circle862"
     d="m 4485.0241,153.73311 a 16.42,16.42 0 0 1 -16.42,16.42 16.42,16.42 0 0 1 -16.42,-16.42 16.42,16.42 0 0 1 16.42,-16.42 16.42,16.42 0 0 1 16.42,16.42 z"
     style="opacity:0.75" /></g><g
   id="turkey"><path
     id="NA-8"
     d="m 4450.4298,255.67999 a 2.6300001,2.6300001 0 0 1 -2.63,2.63 2.6300001,2.6300001 0 0 1 -2.63,-2.63 2.6300001,2.6300001 0 0 1 2.63,-2.63 2.6300001,2.6300001 0 0 1 2.63,2.63 z"
     style="opacity:0.75" /><path
     id="SVGID_1_"
     d="m 4455.59,258.88 a 2.3199999,2.3199999 0 0 1 -2.32,2.32 2.3199999,2.3199999 0 0 1 -2.32,-2.32 2.3199999,2.3199999 0 0 1 2.32,-2.32 2.3199999,2.3199999 0 0 1 2.32,2.32 z"
     style="opacity:0.75" /><path
     id="circle1138"
     style="opacity:0.75"
     d="m 4457.0698,252 a 3.25,3.25 0 0 1 -3.25,3.25 3.25,3.25 0 0 1 -3.25,-3.25 3.25,3.25 0 0 1 3.25,-3.25 3.25,3.25 0 0 1 3.25,3.25 z" /><path
     d="m 4445.2585,261.13779 c 0.73,-1.58 2.61,-2.27 4.19,-1.53 1.58,0.74 2.26,2.61 1.53,4.19 -0.74,1.58 -2.61,2.27 -4.19,1.53 -1.57,-0.73 -2.27,-2.61 -1.53,-4.19 z"
     id="path836"
     style="opacity:0.75" /></g><g
   id="others"><path
     id="NA-7"
     d="m 4542.28,222.95 a 19.57,19.57 0 0 1 -19.57,19.57 19.57,19.57 0 0 1 -19.57,-19.57 19.57,19.57 0 0 1 19.57,-19.57 19.57,19.57 0 0 1 19.57,19.57 z"
     style="opacity:0.75" /><path
     id="SVGID_17_"
     d="m 4582.5498,215.05 a 19.25,19.25 0 0 1 -19.25,19.25 19.25,19.25 0 0 1 -19.25,-19.25 19.25,19.25 0 0 1 19.25,-19.25 19.25,19.25 0 0 1 19.25,19.25 z"
     style="opacity:0.75" /><path
     id="circle1140"
     style="opacity:0.75"
     d="m 4580.4101,248.2 a 19.059999,19.059999 0 0 1 -19.06,19.06 19.059999,19.059999 0 0 1 -19.06,-19.06 19.059999,19.059999 0 0 1 19.06,-19.06 19.059999,19.059999 0 0 1 19.06,19.06 z" /><path
     d="m 4515.2621,234.74788 c 4.2,-9.03 14.92,-12.94 23.94,-8.74 9.03,4.2 12.94,14.92 8.74,23.95 -4.2,9.02 -14.92,12.94 -23.95,8.74 -9.02,-4.2 -12.92,-14.92 -8.73,-23.95 z"
     id="path981"
     style="opacity:0.75" /></g><g
   id="uzbekistan"><path
     id="NA-9"
     d="m 4598.59,338.39999 a 4.6300001,4.6300001 0 0 1 -4.63,4.63 4.6300001,4.6300001 0 0 1 -4.63,-4.63 4.6300001,4.6300001 0 0 1 4.63,-4.63 4.6300001,4.6300001 0 0 1 4.63,4.63 z"
     style="opacity:0.75" /><path
     id="SVGID_21_"
     d="m 4594.28,328.14999 a 4.3200002,4.3200002 0 0 1 -4.32,4.32 4.3200002,4.3200002 0 0 1 -4.32,-4.32 4.3200002,4.3200002 0 0 1 4.32,-4.32 4.3200002,4.3200002 0 0 1 4.32,4.32 z"
     style="opacity:0.75" /><path
     id="circle1142"
     style="opacity:0.75"
     d="m 4611.5,328.14999 a 4.52,4.52 0 0 1 -4.52,4.52 4.52,4.52 0 0 1 -4.52,-4.52 4.52,4.52 0 0 1 4.52,-4.52 4.52,4.52 0 0 1 4.52,4.52 z" /><path
     id="circle1038"
     d="m 4588.48,338.16135 a 3.99,3.99 0 0 1 -3.99,3.99 3.99,3.99 0 0 1 -3.99,-3.99 3.99,3.99 0 0 1 3.99,-3.99 3.99,3.99 0 0 1 3.99,3.99 z"
     style="opacity:0.75" /></g>
</g>
<g
   id="Layer_2">
</g>
</svg>
