<?xml version="1.0" encoding="UTF-8" standalone="no"?>
<!-- Generator: Adobe Illustrator 18.0.0, SVG Export Plug-In . SVG Version: 6.00 Build 0)  -->

<svg
   version="1.1"
   id="AR_x5F_layer"
   x="0px"
   y="0px"
   width="9451.45px"
   height="623.52px"
   viewBox="0 0 9451.45 623.52"
   enable-background="new 0 0 9451.45 623.52"
   xml:space="preserve"
   sodipodi:docname="23 Marathawada drought Groundwater_mask-01.svg"
   inkscape:version="1.1.1 (c3084ef, 2021-09-22)"
   xmlns:inkscape="http://www.inkscape.org/namespaces/inkscape"
   xmlns:sodipodi="http://sodipodi.sourceforge.net/DTD/sodipodi-0.dtd"
   xmlns="http://www.w3.org/2000/svg"
   xmlns:svg="http://www.w3.org/2000/svg"><path
   id="path1414"
   style="fill:#000000;fill-opacity:1;stroke:#000000;stroke-width:1px;stroke-linecap:butt;stroke-linejoin:miter;stroke-opacity:1"
   d="m 4907.582,319.17773 c -0.1849,32.17287 0.01,64.34848 0.6985,96.51478 0.5137,24.17657 1.0702,48.35328 1.2396,72.5354 0.1337,17.02135 0.1228,34.04347 0.042,51.06506 27.37,-0.0706 54.7408,-0.0505 82.1097,-0.33548 6.69,-0.12455 13.3929,-0.10024 20.0659,-0.64205 2.4,-0.15246 4.6562,-1.04271 7.0119,-1.44239 0.3065,-0.058 1.0713,-0.18255 1.5507,-0.25118 8.5869,-1.14086 17.2467,-1.58494 25.886,-2.14103 18.955,-1.08653 37.9751,-1.84927 56.9754,-2.5824 3.3277,-0.12153 6.9348,-0.11751 10.2441,-0.0234 4.9983,0.15465 9.8823,0.48559 14.8705,0.95804 6.978,0.66157 14.1108,1.59415 21.0593,2.66192 2.364,0.37344 4.8555,0.75744 7.2181,1.1628 18.5729,3.12231 36.919,7.07213 55.2819,11.24662 30.6717,7.01585 61.2553,14.68304 91.8994,21.91927 36.0066,8.4938 72.1529,16.53125 108.6903,22.41662 26.4123,4.23837 53.0547,7.37617 79.8176,8.01753 16.9517,0.39668 33.9668,-0.2985 50.7362,-2.91353 16.3632,-2.47476 32.3924,-6.77509 48.1128,-11.89007 11.4459,-3.68953 22.7869,-7.6954 34.2475,-11.34092 9.5611,-3.03802 19.3863,-5.86829 29.2784,-8.15972 5.9405,-1.38673 11.9377,-2.60294 17.9923,-3.63054 5.8637,-1.00525 11.7997,-1.87899 17.7934,-2.26731 2.9872,-0.2093 5.9501,-0.32371 8.8898,-0.36415 6.0799,-0.0808 12.0596,0.15939 18.1341,0.64623 10.0677,0.8134 20.2083,2.33472 30.1818,4.24263 5.9319,1.13332 12.0331,2.45604 17.9901,3.85363 8.0899,1.90088 16.101,3.9759 24.143,6.15419 27.817,7.5247 55.4144,16.17744 83.5993,22.39524 20.9923,4.58674 42.4424,7.89605 63.989,7.20458 9.3593,-0.29453 18.6482,-1.58755 27.9175,-2.83475 23.638,-3.34533 47.1277,-7.6519 70.5718,-12.14316 26.5964,-5.11802 53.1057,-10.66496 79.5779,-16.3901 36.9611,-7.89598 74.131,-14.95952 111.4241,-21.22825 27.945,-4.75303 55.975,-9.0074 83.9014,-13.86198 3.6334,-0.63535 7.2636,-1.28717 10.8935,-1.94271 1.5974,-8.4415 1.7525,-17.06487 1.8802,-25.62929 0.1191,-18.8991 -0.7886,-37.78348 -1.6749,-56.65643 -0.9011,-18.97432 -2.0169,-37.93997 -2.6213,-56.92717 -0.095,-3.28708 -0.1649,-6.65984 -0.2285,-9.98047 -29.6434,-1.84821 -59.3533,-2.87686 -88.9758,-4.67759 -24.7931,-1.36551 -49.5856,-2.78252 -74.3797,-4.10366 -32.9968,2.15169 -65.9935,4.30338 -98.9902,6.45508 -8.2018,2.0548 -16.4051,4.10371 -24.6075,6.15625 -17.5623,-9.12619 -35.1092,-18.27785 -52.6873,-27.37205 -19.677,-8.59317 -39.3553,-17.1832 -59.0314,-25.77834 -20.466,2.82751 -40.9319,5.65555 -61.3985,8.47851 -26.4374,11.35023 -52.9015,22.63894 -79.3204,34.03119 -9.8971,4.3301 -19.7942,8.6602 -29.6913,12.9903 -15.2625,-0.74307 -30.5293,-1.41316 -45.7883,-2.22043 -19.5774,-1.39488 -39.1544,-2.81145 -58.7335,-4.17215 -26.5503,-0.009 -53.1012,0.0277 -79.6509,-0.0267 -16.1811,-0.71633 -32.3674,-1.37495 -48.5447,-2.13821 -11.2142,-2.11796 -22.4462,-4.16551 -33.6453,-6.34791 -13.1315,-5.08843 -26.237,-10.2456 -39.3902,-15.27539 -19.7277,-7.04211 -39.4502,-14.10277 -59.1865,-21.11805 -14.4548,-3.61023 -28.9039,-7.24226 -43.3653,-10.82422 -14.5885,-0.72834 -29.1769,-1.45931 -43.7656,-2.18555 -11.5738,2.87869 -23.1344,5.82691 -34.7209,8.64339 -10.6982,0.69741 -21.3931,1.47153 -32.0947,2.10078 -15.3118,-0.0148 -30.6243,0.0405 -45.9357,-0.0404 -30.2149,-0.70858 -60.4317,-1.38721 -90.6452,-2.12559 -24.3828,-2.16218 -48.7703,-4.27717 -73.1491,-6.4812 -37.8937,-4.54166 -75.787,-9.08668 -113.6809,-13.62622 -0,0.74739 -0.01,1.49479 -0.012,2.24218 z" /><defs
   id="defs13" /><sodipodi:namedview
   id="namedview11"
   pagecolor="#505050"
   bordercolor="#eeeeee"
   borderopacity="1"
   inkscape:pageshadow="0"
   inkscape:pageopacity="0"
   inkscape:pagecheckerboard="0"
   showgrid="false"
   inkscape:zoom="0.56477015"
   inkscape:cx="5440.2663"
   inkscape:cy="446.19922"
   inkscape:window-width="1440"
   inkscape:window-height="762"
   inkscape:window-x="0"
   inkscape:window-y="25"
   inkscape:window-maximized="1"
   inkscape:current-layer="AR_x5F_layer" />




</svg>
