<?xml version="1.0" encoding="UTF-8" standalone="no"?>
<!-- Generator: Adobe Illustrator 23.0.1, SVG Export Plug-In . SVG Version: 6.00 Build 0)  -->

<svg
   version="1.1"
   id="Baseline"
   x="0px"
   y="0px"
   width="9451.5px"
   height="623.5px"
   viewBox="0 0 9451.5 623.5"
   style="enable-background:new 0 0 9451.5 623.5;"
   xml:space="preserve"
   sodipodi:docname="24 Marathwada Rainfall_mask-01-wOffsetSimplified.svg"
   inkscape:version="1.1.1 (c3084ef, 2021-09-22)"
   xmlns:inkscape="http://www.inkscape.org/namespaces/inkscape"
   xmlns:sodipodi="http://sodipodi.sourceforge.net/DTD/sodipodi-0.dtd"
   xmlns="http://www.w3.org/2000/svg"
   xmlns:svg="http://www.w3.org/2000/svg"><defs
   id="defs2650" /><sodipodi:namedview
   id="namedview2648"
   pagecolor="#505050"
   bordercolor="#eeeeee"
   borderopacity="1"
   inkscape:pageshadow="0"
   inkscape:pageopacity="0"
   inkscape:pagecheckerboard="0"
   showgrid="false"
   inkscape:zoom="0.89693168"
   inkscape:cx="4698.2397"
   inkscape:cy="267.57891"
   inkscape:window-width="1439"
   inkscape:window-height="762"
   inkscape:window-x="0"
   inkscape:window-y="25"
   inkscape:window-maximized="0"
   inkscape:current-layer="multiple" />
<style
   type="text/css"
   id="style913">
	.st0{opacity:0.75;}
	.st1{opacity:0.75;enable-background:new    ;}
</style><g
   id="multiple"><g
     id="total"><path
       style="fill:#d90000;fill-opacity:0.17004049"
       d="m 4447,425.31233 c -2.4956,-3.65269 -2.5014,-3.716 -3.2744,-36.23571 -0.4259,-17.91714 -0.8624,-34.53975 -0.9701,-36.93912 -0.1573,-3.50259 0.2636,-4.73456 2.1351,-6.25 1.282,-1.03813 3.2295,-1.8875 4.3278,-1.8875 1.9853,0 1.9948,-0.60926 1.6556,-105.75 -0.1877,-58.1625 0.017,-106.3157 0.4558,-107.00711 0.4384,-0.69141 2.1916,-1.97825 3.896,-2.85964 2.5507,-1.31903 3.7715,-1.40104 6.9004,-0.46359 6.9676,2.08756 6.9137,1.77454 6.2077,36.0269 l -0.6297,30.55344 3.3039,1.22202 3.3039,1.22201 -0.6844,-23.80101 c -0.6642,-23.09762 -0.6232,-23.87885 1.3873,-26.43483 3.8026,-4.83428 13.0526,-4.18768 15.8881,1.11063 0.6118,1.14314 0.6345,10.51903 0.062,25.73965 -1.4186,37.73055 -1.2447,95.73846 0.2847,95.02551 0.6875,-0.32048 2.0375,-0.86047 3,-1.19997 1.6344,-0.57649 1.75,-3.8459 1.75,-49.48032 v -48.86304 l 3.9602,-2.02033 c 4.8026,-2.45013 6.3623,-2.51037 9.6261,-0.37182 4.4076,2.88796 5.1174,5.76563 4.4881,18.1941 l -0.5744,11.34259 3.1695,1.32275 c 3.3904,1.41493 5.3305,4.10501 5.3305,7.39113 0,1.11681 0.8353,2.47762 1.8563,3.02403 1.7503,0.93672 1.8871,0.28087 2.395,-11.48011 0.5728,-13.26284 1.8457,-17.1326 5.9924,-18.21698 1.9873,-0.51968 2.0266,-1.0299 1.5195,-19.72079 -0.2992,-11.02682 -0.1258,-19.89288 0.4078,-20.84629 1.2438,-2.22262 6.1201,-4.65893 9.3248,-4.65893 1.4273,0 3.6996,1.10454 5.0496,2.45454 l 2.4546,2.45455 v 40.43196 40.43195 l 3.0783,0.45181 3.0784,0.4518 -0.2612,-34.82925 -0.2611,-34.82926 2.3084,-2.45718 c 4.5282,-4.82006 11.8391,-3.8758 15.7079,2.02879 1.4531,2.21769 1.5192,3.36454 0.5095,8.84449 -0.6381,3.46302 -1.1602,11.02955 -1.1602,16.81452 0,10.42523 0.022,10.52235 2.5,10.99603 2.2079,0.42206 2.5,0.13456 2.5,-2.46034 0,-1.91421 1.0188,-3.95701 2.9231,-5.86133 4.0889,-4.08893 9.1152,-4.03867 13.2867,0.13286 3.0107,3.01068 3.0461,3.16485 2.3895,10.41002 l -0.6664,7.35409 3.1783,1.58556 3.1784,1.58557 -0.509,-69.70832 -0.509,-69.708313 2.9125,-2.912468 c 2.5591,-2.559098 3.422,-2.844115 7.1126,-2.349108 2.8276,0.379267 4.9363,1.419169 6.4529,3.182292 2.4183,2.811408 2.4316,3.434361 0.7444,34.746129 l -0.471,8.741388 3.408,1.42395 c 5.8547,2.44624 5.8824,2.64873 5.3677,39.27682 L 4627.3305,175 h 5.8802 c 4.8342,0 6.2971,0.41689 8.2237,2.34352 l 2.3435,2.34351 -0.5388,21.77186 -0.5388,21.77185 2.0841,-1.11537 c 3.8405,-2.05533 8.1496,-1.33525 11.3878,1.90298 2.818,2.81804 2.9758,3.36556 2.3774,8.25 -0.3526,2.87741 -0.8779,8.66221 -1.1675,12.85513 l -0.5265,7.62347 2.8222,0.70444 c 1.5522,0.38744 3.5468,1.35716 4.4324,2.15494 1.2469,1.12329 2.2324,1.21392 4.3686,0.40172 l 2.7585,-1.04879 -0.3686,-31.56022 -0.3687,-31.56021 2.9413,-2.53604 c 2.5062,-2.16077 3.616,-2.45601 7.5,-1.99516 l 4.5587,0.54088 -0.3433,-4.87642 c -0.292,-4.14812 0.037,-5.25695 2.2046,-7.42426 3.0113,-3.01131 9.8144,-3.5139 13.4162,-0.99113 l 2.2225,1.55671 v 34.44329 c 0,29.06679 0.2214,34.4433 1.4182,34.4433 0.78,0 2.0626,0.24728 2.8502,0.54951 1.202,0.46126 1.3558,-1.03342 0.9574,-9.30645 l -0.4746,-9.85596 3.2011,-2.69355 c 4.4505,-3.74482 9.2481,-3.64704 13.1634,0.26829 l 2.9618,2.96184 -0.6893,13.05696 -0.6893,13.05696 2.8832,-1.49581 2.8831,-1.4958 -0.2731,-26.273 c -0.1502,-14.45014 0.1106,-27.62299 0.5795,-29.27299 0.4951,-1.74214 2.2189,-3.83857 4.1113,-5 l 3.2586,-2 -0.501,-14.89662 -0.5011,-14.89663 2.8534,-2.85337 c 3.7492,-3.74927 9.0343,-3.91719 12.5526,-0.39883 l 2.4546,2.45454 v 51.54546 c 0,30.63611 0.3725,51.54545 0.9182,51.54545 0.505,0 1.63,0.27314 2.5,0.60699 1.1061,0.42446 1.5818,0.0258 1.5818,-1.32569 0,-2.23306 3.6432,-5.92005 6.355,-6.43147 1.7647,-0.33279 1.8621,-2.18727 2,-38.06433 0.1655,-43.03755 -0.4443,-40.24452 9.2087,-42.17822 l 5.7517,-1.15219 -0.2253,-19.5447 -0.2253,-19.54469 3.8713,-2.68285 c 4.403,-3.05122 6.2152,-3.2765 10.1189,-1.25785 2.603,1.34606 5.1374,5.21903 5.1513,7.87205 0,0.66162 1.2815,1.92822 2.8401,2.81467 2.7283,1.55172 2.8582,1.97977 3.4885,11.5 0.3601,5.43855 0.6571,30.04161 0.6599,54.67346 0,43.96712 0.04,44.76628 1.9395,43.75 4.764,-2.54965 11.2803,-0.23119 13.1466,4.67751 0.6107,1.60649 0.5874,7.03233 -0.065,15.06414 -0.5607,6.90431 -0.9062,12.66427 -0.7678,12.79992 0.1384,0.13565 1.5254,0.002 3.0822,-0.29704 l 2.8307,-0.54369 -0.2834,-29.99527 -0.2833,-29.99528 2.7585,-2.37274 c 3.9641,-3.40977 8.9807,-3.19279 12.7238,0.55035 2.5921,2.59202 2.9231,3.61413 2.9231,9.02475 0,5.40603 0.2565,6.19977 2.25,6.96216 4.7173,1.80405 6.0769,4.5489 5.4852,11.07384 -0.3,3.30889 -0.175,6.01617 0.2779,6.01617 0.4528,0 1.5351,0.27314 2.4051,0.60699 1.3573,0.52082 1.5818,-0.47647 1.5818,-7.025 V 237.95 l 3.0677,-0.61355 c 1.6873,-0.33744 3.7342,-1.63069 4.5488,-2.87387 0.8146,-1.24318 2.8091,-2.81043 4.4323,-3.48277 2.7583,-1.14253 2.9512,-1.57911 2.9512,-6.67805 0,-4.69655 0.4067,-5.86231 2.9231,-8.37868 4.0091,-4.00911 9.1214,-4.03245 13.094,-0.0598 l 2.8633,2.86328 -0.4652,14.88672 c -0.2559,8.1877 -0.6465,17.24922 -0.868,20.13672 -0.4166,5.43088 -0.021,5.8856 3.8106,4.3788 1.7712,-0.69653 1.8505,-2.60225 1.7,-40.83757 -0.1782,-45.27256 0.3283,-54.67734 3.0939,-57.44291 2.2252,-2.22521 6.9048,-2.38758 10.7974,-0.37466 2.5392,1.31309 2.9924,1.30174 4.1592,-0.10417 3.6543,-4.40315 11.7381,-3.50103 14.3783,1.60455 1.141,2.20637 1.3194,5.27689 0.8337,14.34153 l -0.6182,11.53407 4.1301,-0.55396 c 8.5662,-1.14896 14.3029,4.47267 12.0785,11.83621 -1.1142,3.68843 -2.5843,42.86811 -1.6085,42.86811 0.332,0 1.7618,-0.52769 3.1774,-1.17265 l 2.5736,-1.17264 -0.087,-42.07722 -0.087,-42.07721 2.616,-2.25014 c 4.2344,-3.64232 12.1608,-2.58523 14.6367,1.95199 0.9407,1.72397 1.1838,9.29093 0.9733,30.29787 l -0.2805,28 h 6.1031 6.1032 l -0.1858,-7.66589 c -0.2857,-11.78775 1.8875,-14.19402 13.8875,-15.37647 7.1016,-0.69978 7.2024,-0.67594 10.3182,2.43986 2.8843,2.88426 3.0982,3.54064 2.5659,7.87452 -0.3193,2.60039 -0.8706,11.97718 -1.2249,20.83731 l -0.6443,16.10934 2.5304,0.48371 c 2.4044,0.45963 2.5644,0.2052 3.2142,-5.10933 0.7268,-5.94361 3.4543,-10.09305 6.6346,-10.09305 1.5425,0 1.7013,-0.65244 1.1963,-4.9164 -0.7969,-6.72808 0.1818,-9.81215 3.8147,-12.02143 1.6964,-1.03168 3.5989,-2.93022 4.2277,-4.21898 0.6288,-1.28875 2.5565,-3.01819 4.2838,-3.84319 3.0594,-1.46123 3.1266,-1.63686 2.6008,-6.79555 -0.6172,-6.05608 0.7159,-9.41248 4.4064,-11.09399 3.9415,-1.79588 8.8126,-1.35386 10.9381,0.99256 1.755,1.9374 1.9444,4.39113 2.405,31.1572 l 0.5,29.05418 6.25,2.24795 6.25,2.24794 v -27.22863 -27.22864 l 6.8443,-4.67651 c 6.9809,-4.7698 9.7261,-5.51196 13.3046,-3.59681 1.5928,0.85245 2.4419,0.69562 4.0339,-0.74512 1.4004,-1.26738 3.5897,-1.82632 7.1668,-1.82971 4.4199,-0.004 5.4924,-0.40711 7.5617,-2.84096 1.3263,-1.55985 3.4857,-3.24455 4.7988,-3.74378 l 2.3874,-0.90768 -0.6913,-12.44067 -0.6912,-12.44066 3.0656,-3.06556 c 1.8646,-1.86458 4.0946,-3.06556 5.6921,-3.06556 3.0391,0 8.1676,2.42075 8.735,4.12316 0.2943,0.88299 1.2703,0.87419 4.0291,-0.0363 3.0185,-0.99619 4.1212,-0.93885 6.452,0.33552 6.6153,3.61697 6.6679,3.73221 6.0041,13.13877 -0.5562,7.88086 -0.4619,8.55582 1.0994,7.86778 0.9392,-0.41393 3.3302,-0.94584 5.3133,-1.18203 3.0083,-0.35829 3.9609,0.0222 5.75,2.29669 2.092,2.65948 2.1444,3.51563 2.1444,35.01804 v 32.2919 l 3.165,1.57891 c 2.6732,1.33358 3.4113,1.36858 4.75,0.22524 0.8717,-0.74452 2.3725,-1.63295 3.335,-1.97429 1.1385,-0.40376 1.75,-1.6662 1.75,-3.61304 0,-4.26176 3.3755,-7.07034 8.4974,-7.07034 2.2662,0 4.9734,0.6238 6.0161,1.38623 1.6306,1.19233 2.3748,1.15779 5.3206,-0.24694 l 3.4248,-1.63318 -0.4623,-23.26914 c -0.5177,-26.05641 -0.4518,-26.36117 6.1301,-28.33317 3.4191,-1.02436 4.3156,-0.8956 7.9375,1.14001 l 4.083,2.29481 -0.6332,39.67231 -0.6333,39.67232 2.4097,0.64472 c 1.3253,0.3546 2.7681,0.65087 3.2063,0.65838 0.4382,0.008 0.4829,-13.16429 0.099,-29.27066 l -0.6974,-29.28431 3.2274,-2.71569 c 3.4443,-2.8982 7.7313,-3.50465 11.2943,-1.59776 l 2.0889,1.11794 -0.705,-17.58956 c -0.7682,-19.1675 -0.4939,-20.61775 4.3758,-23.13596 4.2145,-2.1794 7.7586,-1.86268 10.5654,0.9442 l 2.4546,2.45454 v 40.54546 c 0,22.3 0.2038,40.54545 0.4529,40.54545 0.2492,0 1.5764,-0.51188 2.9496,-1.13752 2.3815,-1.08509 2.4693,-1.42897 1.9061,-7.46047 -0.683,-7.3146 0.6743,-10.32387 5.5717,-12.35243 l 3.0352,-1.25723 -0.6069,-11.32399 -0.6068,-11.324 3.0722,-3.07218 c 3.2017,-3.20173 5.8458,-3.72871 10.8268,-2.15784 1.5945,0.50288 4.402,1.1747 6.2388,1.49292 l 3.3397,0.57859 -0.3054,-28.60897 -0.3054,-28.60898 2.7715,-2.38395 c 2.9744,-2.55849 8.3123,-3.17556 11.7154,-1.35431 4.2399,2.26914 4.7616,5.36051 3.8761,22.97036 -0.4563,9.075 -0.8525,38.67833 -0.8805,65.78518 l -0.051,49.28519 2.1464,-1.14873 c 1.1805,-0.63181 4.1055,-0.92792 6.5,-0.65803 l 4.3536,0.49072 v -17.81207 c 0,-9.79663 0.4459,-18.98495 0.9909,-20.41848 0.545,-1.43353 2.3622,-3.37533 4.0381,-4.3151 l 3.0472,-1.70868 -0.1601,-56.80571 -0.1601,-56.80571 2.2819,-2.42898 c 2.7442,-2.92109 7.9218,-4.08672 10.9511,-2.46546 1.8295,0.9791 2.5624,0.8513 4.3553,-0.75945 1.1856,-1.06517 3.0118,-2.240958 4.0583,-2.612865 2.9417,-1.0455 8.1685,1.141525 9.45,3.954155 0.8199,1.79932 1.1474,18.63268 1.1474,58.97107 0,40.65015 0.3103,56.45295 1.1084,56.45295 0.6097,0 2.9778,-2.03595 5.2625,-4.52433 5.624,-6.12531 9.9715,-6.92855 14.6886,-2.71384 3.6274,3.24109 3.9229,5.202 2.4153,16.02637 l -0.7366,5.28821 2.5608,-1.1668 c 2.5591,-1.166 2.5611,-1.17699 2.8809,-16.12883 0.3118,-14.57501 0.3848,-15.01437 2.8201,-16.98499 2.067,-1.67255 3.4371,-1.92633 7.9099,-1.46512 l 5.4098,0.55782 -0.6166,-38.89175 -0.6166,-38.89175 3.0335,-2.5525 c 3.6683,-3.08665 8.6687,-3.3536 12.0192,-0.64163 l 2.3608,1.91085 0.2839,39.18314 c 0.2649,36.57424 0.3981,39.13502 2,38.46055 3.6408,-1.53301 5.8407,-1.47365 9.2161,0.24869 4.1755,2.13058 6.2151,7.04912 4.8692,11.74202 -0.4781,1.66688 -0.8595,5.95866 -0.8476,9.53729 0.021,6.34734 0.1007,6.54331 3.25,8.0066 2.1812,1.01345 3.5387,2.55419 4.1852,4.75 0.5262,1.7875 1.4603,3.25 2.0757,3.25 2.6264,0 5.762,5.01 6.2384,9.96737 0.266,2.76795 0.8395,5.03263 1.2745,5.03263 0.4351,0 1.5737,0.30035 2.5304,0.66745 1.6348,0.62735 1.7046,-0.97404 1.1615,-26.65664 l -0.5779,-27.32409 2.9662,-2.96618 c 2.6768,-2.6768 3.4495,-2.91974 7.9203,-2.49015 l 4.9541,0.47602 v -13.77164 -13.77165 l 3.368,-2.08156 c 4.1831,-2.58529 5.6993,-2.59803 10.6169,-0.0893 l 3.9052,1.9923 -0.5913,33.2577 -0.5913,33.2577 3.3056,1.22328 3.3056,1.22327 -0.6668,-25.94916 -0.6668,-25.94917 2.9051,-3.25138 c 2.3839,-2.66803 3.6412,-3.25139 7.0075,-3.25139 5.408,0 9.51,3.80978 9.3135,8.64998 -0.074,1.81751 -0.4265,15.9515 -0.7839,31.40885 l -0.6497,28.10429 2.3612,0.63206 c 1.2987,0.34763 2.6499,0.63821 3.0028,0.64572 0.3529,0.008 0.3978,-14.17286 0.1,-31.51193 l -0.542,-31.52558 2.3246,-2.47442 c 4.2929,-4.56957 15.6179,-2.61525 16.0841,2.77558 0.059,0.6875 0.016,21.6125 -0.096,46.5 -0.1749,38.7397 0,45.25 1.2308,45.25 1.1989,0 1.5434,-4.81164 2.0943,-29.25 0.3625,-16.0875 0.66,-36.5013 0.6611,-45.364 v -16.114 l 3.8038,-2.636 c 4.7728,-3.30759 9.0883,-3.39215 12.4845,-0.24463 3.7624,3.48687 4.5427,8.99336 1.8001,12.70291 l -2.1652,2.92863 0.119,115.21407 c 0.1177,113.97028 0.097,115.2315 -1.8753,116.82894 -1.6207,1.31241 -5.8031,1.73943 -22.3306,2.27997 -11.185,0.36581 -257.9363,0.6562 -548.3363,0.64532 L 4449.5,428.97141 Z"
       id="path920" /></g><g
     id="drought"><path
       style="fill:#d90000;stroke:none;stroke-width:1px;stroke-linecap:butt;stroke-linejoin:miter;stroke-opacity:1;fill-opacity:0.17004049"
       d="m 4447,425.31233 -3.5283,-175.69503 h 79.4236 l -0.4371,-40.91181 72.8571,-0.37947 v 8.34822 l 79.3081,-1.51786 0.3795,30.73663 72.8572,-0.37947 0.3794,-21.62947 78.3305,0.60756 0.1979,41.57252 71.6632,-0.59389 0.1979,-45.53181 h 80.3736 v 11.6799 l 75.4244,-0.39593 v 3.95928 l 74.8305,-0.19796 v -11.6799 l 75.4245,0.19796 0.1979,11.87787 74.6326,-0.39593 -0.5939,-30.28855 78.5919,0.59389 0.5939,20.78626 74.0387,-0.19796 v 2.57353 l 73.2468,-0.19796 43.7216,-0.27113 -0.4237,198.74252 z"
       id="path923" /></g></g></svg>
