<?xml version="1.0" encoding="UTF-8" standalone="no"?>
<!-- Generator: Adobe Illustrator 18.0.0, SVG Export Plug-In . SVG Version: 6.00 Build 0)  -->

<svg
   version="1.1"
   id="Baseline"
   x="0px"
   y="0px"
   width="9451.45px"
   height="623.52px"
   viewBox="0 0 9451.45 623.52"
   enable-background="new 0 0 9451.45 623.52"
   xml:space="preserve"
   sodipodi:docname="30 River Interlinking_mask-01.svg"
   inkscape:version="1.1.1 (c3084ef, 2021-09-22)"
   xmlns:inkscape="http://www.inkscape.org/namespaces/inkscape"
   xmlns:sodipodi="http://sodipodi.sourceforge.net/DTD/sodipodi-0.dtd"
   xmlns="http://www.w3.org/2000/svg"
   xmlns:svg="http://www.w3.org/2000/svg"><defs
   id="defs1467" /><sodipodi:namedview
   id="namedview1465"
   pagecolor="#505050"
   bordercolor="#eeeeee"
   borderopacity="1"
   inkscape:pageshadow="0"
   inkscape:pageopacity="0"
   inkscape:pagecheckerboard="0"
   showgrid="false"
   inkscape:zoom="0.67153563"
   inkscape:cx="5818.7531"
   inkscape:cy="416.9548"
   inkscape:window-width="1312"
   inkscape:window-height="762"
   inkscape:window-x="0"
   inkscape:window-y="25"
   inkscape:window-maximized="0"
   inkscape:current-layer="Baseline" />












<path
   style="fill:#000000"
   d="m 5756.8848,433.00781 c -0.2897,-0.012 -0.5795,-0.006 -0.8692,0.002 -1.5638,-0.0145 -2.8002,1.27531 -3.1269,2.73632 -0.7181,3.09592 -0.6166,6.30605 -0.752,9.46289 -0.207,13.5292 -0.1119,27.06147 -0.1347,40.5918 0.035,9.10881 -0.059,18.221 0.2363,27.32617 0.1568,2.31871 0.078,4.73914 0.9492,6.93164 0.5298,1.37643 2.0383,2.0883 3.457,1.93946 1.4929,0.11719 2.9081,-0.88989 3.3282,-2.32032 0.7884,-2.61318 0.6985,-5.38754 0.8418,-8.08789 0.2505,-10.75221 0.1561,-21.5074 0.1855,-32.26172 -0.026,-11.63546 0.066,-23.27428 -0.1562,-34.9082 -0.128,-2.91912 -0.052,-5.89149 -0.7559,-8.74609 -0.3381,-1.47204 -1.6362,-2.72438 -3.2031,-2.66602 z"
   id="path1840" /><path
   style="fill:#000000"
   d="m 5799.082,433.00391 c -1.4847,-0.0922 -3.0733,0.67894 -3.5644,2.15234 -0.6929,2.16293 -0.4436,4.48089 -0.5156,6.71875 0.028,3.20986 -0.028,6.46081 0.6035,9.62109 0.3333,1.73202 2.2967,2.41478 3.8711,2.33008 1.5403,0.0757 2.9484,-0.98527 3.4062,-2.43945 0.8476,-2.70318 0.7484,-5.58144 0.916,-8.38086 0.019,-2.48815 0.3511,-5.01718 -0.1347,-7.47852 -0.3162,-1.51888 -1.7881,-2.57111 -3.3164,-2.51367 -0.4214,-0.0203 -0.8439,-0.0134 -1.2657,-0.01 z"
   id="path1838" /><path
   style="fill:#000000"
   d="m 5741.7773,433.00391 c -1.5493,-0.0339 -2.7011,1.33377 -2.9375,2.77343 -0.6302,3.22929 -0.5387,6.54552 -0.6699,9.82032 -0.2272,14.41405 -0.1408,28.83076 -0.1699,43.24609 0.021,15.6013 -0.055,31.20233 0.1406,46.80273 0.103,3.65514 0.049,7.33484 0.5723,10.96094 0.1737,1.46043 0.9799,3.10489 2.582,3.34375 1.3717,0.27391 2.9535,-0.2946 3.4981,-1.6582 0.816,-2.00112 0.7441,-4.2263 0.8925,-6.34961 0.3627,-10.11411 0.2512,-20.2385 0.3047,-30.35742 -0.01,-20.21725 0.064,-40.43354 -0.084,-60.65039 -0.087,-4.62292 -0.031,-9.26407 -0.5156,-13.86719 -0.1651,-1.51768 -0.6369,-3.37923 -2.2656,-3.91211 -0.4363,-0.1379 -0.8921,-0.17169 -1.3477,-0.15234 z"
   id="path1836" /><path
   style="fill:#000000"
   d="m 5712.7773,433.00391 c -1.5134,-0.0189 -2.6079,1.3462 -2.83,2.74804 -0.6326,3.33581 -0.5558,6.75645 -0.6973,10.13672 -0.2953,16.23377 -0.2046,32.47135 -0.2461,48.70703 0.013,27.58433 -0.054,55.16788 0.084,82.75196 0.08,6.76621 0.035,13.54287 0.4922,20.29687 0.2069,1.65341 0.2,3.65751 1.6054,4.79688 1.3899,1.04954 3.7664,0.63377 4.4707,-1.04883 0.8316,-1.96747 0.7528,-4.16824 0.9239,-6.26367 0.3947,-10.26875 0.3288,-20.54961 0.3887,-30.82422 0.042,-32.37196 0.055,-64.74332 -0.014,-97.11524 -0.065,-9.0142 -0.011,-18.03608 -0.4141,-27.04297 -0.178,-1.97951 -0.1,-4.09998 -1.0703,-5.89453 -0.5904,-0.9114 -1.6269,-1.33877 -2.6934,-1.24804 z"
   id="path1834" /><path
   style="fill:#000000"
   d="m 5828.4082,433.00195 c -1.7905,-0.0486 -3.8865,0.82985 -4.3184,2.73243 -0.4774,1.75193 0.7911,3.58368 2.5079,4.00195 1.9432,0.51966 4.4338,0.37585 5.7714,-1.32031 1.2148,-1.53112 0.5859,-4.01529 -1.1816,-4.82618 -0.8461,-0.45697 -1.8292,-0.59145 -2.7793,-0.58789 z"
   id="path1832" /><path
   style="fill:#000000"
   d="m 5813.9355,433.00195 c -1.7731,-0.082 -3.5418,1.16027 -3.832,2.95508 -0.4122,1.79711 0.2796,4.00511 2.1133,4.71094 1.8982,0.77857 4.5359,0.23834 5.4102,-1.7832 0.8365,-1.91197 0.3154,-4.6197 -1.7422,-5.51172 -0.6112,-0.2711 -1.2834,-0.38239 -1.9493,-0.3711 z"
   id="path1830" /><path
   style="fill:#000000"
   d="m 5784.9316,433.00195 c -1.4973,-0.10592 -2.921,0.92395 -3.2929,2.37696 -0.6505,2.45296 -0.5156,5.02863 -0.6016,7.54492 -0.035,6.7965 -0.1019,13.59596 0.076,20.39062 0.1381,1.82516 0.028,3.84103 1.082,5.42774 1.0102,1.4183 3.1146,1.55749 4.5957,0.88086 1.6939,-0.89446 1.8681,-3.0199 2.0117,-4.7168 0.2966,-5.66399 0.1611,-11.34013 0.1914,-17.00977 -0.059,-3.75815 0.093,-7.53887 -0.3574,-11.27734 -0.1405,-1.52858 -0.9821,-3.23217 -2.6328,-3.52539 -0.3538,-0.0759 -0.7115,-0.0962 -1.0723,-0.0918 z"
   id="path1828" /><path
   style="fill:#000000"
   d="m 5770.9316,433.00195 c -1.5293,-0.11085 -2.9317,1.01385 -3.2656,2.49219 -0.6494,2.69491 -0.5191,5.50146 -0.6172,8.25391 -0.062,9.1081 -0.096,18.21859 0.033,27.32617 0.116,2.2995 3e-4,4.67745 0.7403,6.88672 0.4831,1.4116 2.0028,2.20866 3.4472,2.02929 1.5443,0.0505 2.8372,-1.20681 3.1192,-2.67773 0.6154,-2.90353 0.4808,-5.89997 0.5742,-8.85156 0.039,-8.97751 0.094,-17.95698 -0.055,-26.9336 -0.1184,-2.19566 -0,-4.47943 -0.7695,-6.57422 -0.4958,-1.30815 -1.8371,-2.05305 -3.2071,-1.95117 z"
   id="path1826" /><path
   style="fill:#000000"
   d="m 5727.2559,433.00195 c -1.5528,-0.0644 -2.7972,1.22578 -3.1055,2.67578 -0.737,3.16916 -0.6807,6.4543 -0.8399,9.6875 -0.3611,15.49835 -0.2535,31.00258 -0.3066,46.50391 0.014,27.67978 -0.057,55.35956 0.086,83.03906 0.09,7.01241 0.043,14.03652 0.5391,21.03516 0.2278,1.8292 0.2305,3.94785 1.6289,5.33008 1.0452,0.88392 2.6419,0.93081 3.8574,0.40625 1.6643,-0.8262 1.9185,-2.89419 2.1328,-4.54297 0.5557,-5.61122 0.5007,-11.26022 0.6133,-16.89258 0.1879,-21.74748 0.1188,-43.49608 0.1387,-65.24414 -0.02,-20.26219 0.047,-40.52558 -0.1445,-60.78711 -0.1095,-5.47136 -0.064,-10.95838 -0.6153,-16.4082 -0.2106,-1.66067 -0.5009,-3.75338 -2.2148,-4.5293 -0.5431,-0.27197 -1.1734,-0.28555 -1.7695,-0.27344 z"
   id="path1824" /><path
   style="fill:#000000"
   d="m 5842.4199,420.00195 c -1.6434,-0.0726 -3.5248,0.60962 -4.125,2.27539 -0.6853,1.83737 -0.2575,4.37994 1.6914,5.25391 1.441,0.62308 3.1342,0.59658 4.625,0.16797 1.6591,-0.50266 2.5457,-2.30285 2.3828,-3.95703 0.034,-1.66267 -1.1512,-3.24756 -2.8027,-3.56641 -0.5785,-0.1467 -1.1778,-0.16823 -1.7715,-0.17383 z"
   id="path1822" /><path
   style="fill:#000000"
   d="m 5870.6211,411.00977 c -1.5606,-0.0218 -2.9617,1.14444 -3.2598,2.66992 -0.521,2.47094 -0.3094,5.02243 -0.3515,7.53125 0.1077,1.89772 -0.1328,4.06952 1.1211,5.65429 1.0772,1.28306 3.0326,1.35534 4.5214,0.86719 1.6639,-0.59791 2.1776,-2.51229 2.2481,-4.10742 0.1256,-2.98405 0.1866,-5.98679 -0.072,-8.96484 -0.114,-1.5389 -0.9869,-3.21411 -2.6172,-3.53125 -0.5171,-0.13289 -1.059,-0.13964 -1.5898,-0.11914 z"
   id="path1820" /><path
   style="fill:#000000"
   d="m 5856.6211,411.00977 c -1.5606,-0.0218 -2.9617,1.14444 -3.2598,2.66992 -0.521,2.47094 -0.3094,5.02243 -0.3515,7.53125 0.1077,1.89772 -0.1328,4.06952 1.1211,5.65429 1.0772,1.28306 3.0326,1.35534 4.5214,0.86719 1.6639,-0.59791 2.1776,-2.51229 2.2481,-4.10742 0.1256,-2.98405 0.1866,-5.98679 -0.072,-8.96484 -0.114,-1.5389 -0.9869,-3.21411 -2.6172,-3.53125 -0.5171,-0.13289 -1.059,-0.13964 -1.5898,-0.11914 z"
   id="path1818" /><path
   style="fill:#000000"
   d="m 5886.3301,405.11133 c -1.6026,0.0463 -3.4299,0.58782 -4.1309,2.17578 -0.8876,1.99772 -0.7688,4.25401 -0.9238,6.39258 -0.1284,3.66603 -0.3185,7.35917 0.1016,11.01172 0.3629,2.25996 2.8804,3.45018 4.9863,3.29882 1.5509,0.0248 2.9181,-1.16591 3.2051,-2.67187 0.5621,-2.6229 0.3618,-5.33458 0.4296,-8 -0.045,-3.03467 0.1237,-6.09014 -0.2578,-9.10742 -0.1428,-1.46178 -1.1592,-2.9463 -2.7168,-3.08008 -0.2292,-0.0126 -0.464,-0.0386 -0.6933,-0.0195 z"
   id="path1816" /><path
   style="fill:#000000"
   d="m 5899.6074,400.00977 c -1.5446,-0.011 -2.8444,1.21416 -3.1406,2.69335 -0.5803,2.89995 -0.3902,5.88364 -0.4609,8.82422 0.036,4.14064 -0.1196,8.29377 0.2285,12.42383 0.1166,1.54616 0.7328,3.35926 2.3691,3.85938 1.5866,0.46873 3.6814,0.17598 4.5039,-1.4375 0.9146,-1.88035 0.7415,-4.05486 0.8516,-6.08985 0.038,-5.07554 0.1232,-10.15668 -0.1016,-15.22851 -0.1186,-1.68408 -0.3199,-3.78237 -1.9941,-4.66407 -0.6859,-0.37322 -1.4916,-0.41633 -2.2559,-0.38085 z"
   id="path1814" /><path
   style="fill:#000000"
   d="m 5914.4297,398.50195 c -1.5328,-0.103 -3.0014,0.95028 -3.3731,2.44532 -0.7192,2.60042 -0.5799,5.34178 -0.7285,8.01367 -0.094,4.78649 -0.3149,9.57597 -0.1855,14.36328 0.057,1.59335 0.3192,3.5926 1.9668,4.32226 1.2766,0.50582 2.7311,0.17815 3.9844,-0.25 1.6845,-0.75907 2.1296,-2.75154 2.2265,-4.42382 0.2871,-4.48474 0.1401,-8.98511 0.1719,-13.47657 -0.083,-2.7784 0.1111,-5.60549 -0.4863,-8.33789 -0.2962,-1.50134 -1.6598,-2.6981 -3.2129,-2.65039 -0.1209,8e-5 -0.2426,-0.0147 -0.3633,-0.006 z"
   id="path1812" /><path
   style="fill:#000000"
   d="m 5928.9297,396.00195 c -1.5152,-0.11011 -2.9647,0.92611 -3.3379,2.40039 -0.6657,2.59336 -0.488,5.30826 -0.5703,7.96289 -0.01,5.38737 -0.1002,10.7802 0.123,16.16407 0.1365,1.73885 0.1902,3.88911 1.8067,4.95703 1.1472,0.68699 2.6764,0.67369 3.8789,0.13476 1.6931,-0.90987 1.8834,-3.03693 2.0019,-4.74804 0.2638,-5.2357 0.1391,-10.48398 0.1563,-15.72461 -0.089,-2.87307 0.1104,-5.80106 -0.541,-8.6211 -0.3365,-1.46861 -1.7152,-2.60063 -3.2403,-2.52148 -0.092,0.003 -0.1852,-0.0149 -0.2773,-0.004 z"
   id="path1810" /><path
   style="fill:#000000"
   d="m 5942.9316,387.00195 c -1.5399,-0.11654 -2.9595,1.00335 -3.3007,2.49024 -0.6358,2.60377 -0.4996,5.31813 -0.5918,7.97851 -0.037,7.662 -0.099,15.32576 0.062,22.98633 0.1335,2.03254 -0.011,4.21427 0.9648,6.07031 0.9239,1.57312 3.1246,1.81953 4.668,1.11524 1.6814,-0.86144 1.8966,-2.95387 2.0312,-4.63281 0.3316,-5.32906 0.1891,-10.67503 0.2344,-16.01172 -0.049,-5.0979 0.1003,-10.20618 -0.2578,-15.29493 -0.1253,-1.64956 -0.4649,-3.67236 -2.1563,-4.42773 -0.5252,-0.21493 -1.0899,-0.2871 -1.6543,-0.27344 z"
   id="path1808" /><path
   style="fill:#000000"
   d="m 5957.4199,385.50195 c -1.543,-0.10742 -2.9453,1.01927 -3.3047,2.49805 -0.6813,2.68913 -0.5863,5.49893 -0.7148,8.25195 -0.1793,8.91989 -0.388,17.8458 -0.1152,26.76563 0.049,1.25754 0.049,2.70397 1.0878,3.59961 1.4475,1.3339 3.7775,1.83003 5.5743,0.94726 1.6963,-1.06165 1.7245,-3.27847 1.8574,-5.05664 0.1966,-6.32774 -0.025,-12.65947 -0.082,-18.98828 -0.1132,-4.57243 -0.043,-9.16166 -0.5,-13.7168 -0.1593,-1.59194 -0.6625,-3.51944 -2.3555,-4.09765 -0.4596,-0.17728 -0.9596,-0.20464 -1.4473,-0.20313 z"
   id="path1806" /><path
   style="fill:#000000"
   d="m 5971.9102,352.00195 c -1.5241,-0.10259 -2.8269,1.10196 -3.129,2.54883 -0.6482,2.81292 -0.5453,5.73169 -0.6679,8.59961 -0.1776,13.18186 -0.094,26.36611 -0.1035,39.54883 0.066,6.75703 -0.081,13.52524 0.3711,20.27148 0.1807,1.66695 0.3281,3.73767 1.957,4.65821 1.5367,0.78714 3.8105,0.38728 4.5527,-1.31446 0.8695,-2.03271 0.7538,-4.31115 0.9082,-6.47656 0.2676,-9.11151 0.1647,-18.22925 0.1992,-27.34375 -0.028,-10.38835 0.07,-20.77948 -0.1582,-31.16602 -0.1363,-2.41653 -0.034,-4.90927 -0.7734,-7.24023 -0.4346,-1.34568 -1.7486,-2.20739 -3.1562,-2.08594 z"
   id="path1804" /><path
   style="fill:#000000"
   d="m 5985.3496,336.16211 c -1.6236,0.1509 -2.4939,1.78972 -2.6855,3.25 -0.5583,3.74079 -0.4773,7.54032 -0.5743,11.3125 -0.1436,15.88258 -0.075,31.76731 -0.08,47.65039 0.058,7.80618 -0.067,15.61977 0.3418,23.41797 0.1858,1.74163 0.1353,3.71408 1.2968,5.14062 1.0725,1.27268 3.0339,1.07973 4.3868,0.4043 1.6968,-1.0298 1.838,-3.21816 2.0312,-4.99609 0.4438,-6.21546 0.3548,-12.45402 0.4082,-18.68164 0.029,-17.02141 0.063,-34.04327 -0.043,-51.06446 -0.1007,-4.19892 -0.01,-8.42347 -0.5703,-12.59375 -0.187,-1.56022 -0.9817,-3.32462 -2.6718,-3.67773 -0.5997,-0.12588 -1.2272,-0.24624 -1.8399,-0.16211 z"
   id="path1802" /><path
   style="fill:#000000"
   d="m 6000.7773,302.00391 c -1.5439,-0.0318 -2.6823,1.33921 -2.916,2.77148 -0.6199,3.17297 -0.5399,6.43043 -0.6699,9.64844 -0.2364,13.87622 -0.163,27.75508 -0.1894,41.63281 0.019,18.56295 -0.059,37.12715 0.123,55.68945 0.099,4.20202 0.045,8.42421 0.5645,12.60157 0.1736,1.46157 0.8088,3.2009 2.416,3.55468 1.4076,0.37836 3.1088,-0.18762 3.6718,-1.61328 0.813,-2.03031 0.7437,-4.27782 0.8926,-6.42773 0.3505,-9.61923 0.2678,-19.24895 0.3145,-28.87305 0.016,-22.42952 0.052,-44.85973 -0.055,-67.28906 -0.085,-5.70174 -0.011,-11.41761 -0.4961,-17.10352 -0.1808,-1.58951 -0.43,-3.58392 -2.0664,-4.33593 -0.4917,-0.23247 -1.0514,-0.27626 -1.5899,-0.25586 z"
   id="path1774" />

























</svg>
