<?xml version="1.0" encoding="UTF-8" standalone="no"?>
<!-- Generator: Adobe Illustrator 23.0.1, SVG Export Plug-In . SVG Version: 6.00 Build 0)  -->

<svg
   version="1.1"
   id="Baseline"
   x="0px"
   y="0px"
   width="9451.5px"
   height="623.5px"
   viewBox="0 0 9451.5 623.5"
   style="enable-background:new 0 0 9451.5 623.5;"
   xml:space="preserve"
   sodipodi:docname="35 Cola Cola Water Usage_mask-01-wOffset.svg"
   inkscape:version="1.1.1 (3bf5ae0d25, 2021-09-20)"
   xmlns:inkscape="http://www.inkscape.org/namespaces/inkscape"
   xmlns:sodipodi="http://sodipodi.sourceforge.net/DTD/sodipodi-0.dtd"
   xmlns="http://www.w3.org/2000/svg"
   xmlns:svg="http://www.w3.org/2000/svg"><path
   id="path2243"
   style="fill:#000000"
   d="m 5351.9082,8.0039062 c -2.4913,0.1665977 -4.3964,2.0723378 -5.9612,3.8382968 -3.0996,3.630998 -5.1604,8.073414 -6.2088,12.715945 -1.2543,4.842824 -1.9996,9.793171 -2.7362,14.734821 -0.3954,1.885566 -0.5492,3.992229 -1.8423,5.519844 -1.4049,1.263745 -3.0275,2.463335 -3.689,4.316093 -0.8815,2.134593 0.021,4.579895 1.6336,6.102924 0.2747,0.352503 1.0865,0.682021 0.3605,0.975201 -3.2398,2.722721 -2.8332,8.670496 0.9486,10.719663 2.8212,1.463831 6.2541,0.757356 8.9353,-0.690948 2.8764,-1.437614 5.0786,-3.825259 7.5654,-5.800199 2.8083,2.228354 5.211,4.942316 8.1576,6.996149 1.5699,1.136367 3.6292,1.580744 5.4977,0.986193 2.7273,-0.82619 5.5822,-0.207622 8.3539,-0.02137 3.3534,0.319549 6.8712,0.894598 10.1079,-0.376987 3.529,-1.37082 6.7661,-3.369858 10.1328,-5.081863 0.5767,-0.44185 0.9677,0.571406 1.4553,0.828028 2.1124,1.889675 4.1681,4.202867 7.1053,4.705007 3.628,0.613654 7.3273,0.237811 10.986,0.435815 1.3634,0.06115 2.746,0.08724 4.0882,0.316138 1.7631,1.251129 4.0501,0.636724 5.967,0.135992 2.9035,-0.879082 5.8395,-1.669417 8.8399,-2.138914 1.8054,-0.354348 3.5142,-1.051885 5.1736,-1.819343 0.4358,-0.138483 0.6855,0.455597 1.0898,0.53125 3.7422,1.638355 7.7718,2.481481 11.7505,3.331776 1.9977,0.420436 4.3263,0.670979 6.0269,-0.710683 2.3691,-1.616474 3.4184,-4.5989 3.2181,-7.382988 -0.1758,-2.993227 -1.5157,-6.242802 -4.3216,-7.646308 -0.6785,-0.330352 -1.4339,-0.494008 -2.1797,-0.529297 -1.4726,-0.715727 -2.2343,-2.28885 -3.6092,-3.148509 -1.5771,-1.214845 -3.4145,-2.004592 -5.2744,-2.671736 -1.578,-0.583962 -1.7928,-2.4555 -2.1987,-3.842062 -0.6522,-2.263309 -1.2174,-4.846592 -3.1892,-6.353318 -1.7294,-1.213454 -4.2168,-1.343113 -6.0031,-0.163297 -2.7641,1.745349 -5.0418,4.210834 -6.8411,6.922998 -0.7033,1.062498 -1.2477,2.363814 -1.3199,3.568424 -0.3797,1.039805 -1.0211,2.002962 -1.8554,2.732421 -1.4857,0.30632 -2.6814,1.358204 -3.8008,2.324219 -1.0556,-1.615733 -3.0096,-2.439404 -4.9063,-2.279297 -1.2886,0.04125 -2.5477,0.365539 -3.832,0.445313 -0.6735,-2.973115 -2.1053,-5.967071 -4.6855,-7.728516 -0.5541,-0.359092 -1.1697,-0.630534 -1.8223,-0.74414 -1.1928,-1.831272 -1.2456,-4.175803 -2.5692,-5.948535 -1.3157,-2.16201 -3.9684,-3.389361 -6.4648,-2.902891 -1.7304,0.157663 -3.1837,1.224794 -4.2654,2.523979 -2.123,2.41362 -3.5994,5.291546 -5.1147,8.100884 -1.4211,2.180686 -2.7597,4.44974 -4.5219,6.377351 -1.0742,1.214179 -2.7453,1.854132 -4.3492,1.497962 -2.5548,-0.484407 -4.9216,-1.671163 -7.1785,-2.922494 -1.081,-0.583644 -2.0026,-1.559813 -2.1278,-2.831799 -1.3957,-6.557518 -3.1867,-13.03814 -4.1637,-19.678652 -0.5152,-2.752168 -1.5148,-5.373466 -2.5172,-7.975804 -0.459,-1.252997 -0.7493,-2.557949 -0.8521,-3.884644 -0.5775,-2.602859 -2.5207,-4.8417725 -4.9107,-5.9725449 -0.6561,-0.2836077 -1.3635,-0.4640582 -2.082,-0.4355469 z" /><defs
   id="defs815" /><sodipodi:namedview
   id="namedview813"
   pagecolor="#505050"
   bordercolor="#eeeeee"
   borderopacity="1"
   inkscape:pageshadow="0"
   inkscape:pageopacity="0"
   inkscape:pagecheckerboard="0"
   showgrid="false"
   inkscape:zoom="2.6382493"
   inkscape:cx="5358.2881"
   inkscape:cy="27.480344"
   inkscape:window-width="1366"
   inkscape:window-height="705"
   inkscape:window-x="-8"
   inkscape:window-y="-8"
   inkscape:window-maximized="1"
   inkscape:current-layer="Baseline" />
<style
   type="text/css"
   id="style2">
	.st0{opacity:0.75;}
	.st1{fill:#020202;}
	.st2{fill:none;stroke:#000000;stroke-width:0.75;stroke-linecap:round;stroke-linejoin:round;stroke-miterlimit:10;}
	.st3{fill:none;stroke:#000000;stroke-miterlimit:10;}
	.st4{fill:none;stroke:#000000;stroke-width:0.5;stroke-miterlimit:10;}
</style>

</svg>
