<?xml version="1.0" encoding="UTF-8" standalone="no"?>
<!-- Generator: Adobe Illustrator 18.0.0, SVG Export Plug-In . SVG Version: 6.00 Build 0)  -->

<svg
   version="1.1"
   id="Baseline"
   x="0px"
   y="0px"
   width="9451.45px"
   height="623.52px"
   viewBox="0 0 9451.45 623.52"
   enable-background="new 0 0 9451.45 623.52"
   xml:space="preserve"
   sodipodi:docname="35 Cola Cola Water Usage_mask-01-wOffset.svg"
   inkscape:version="1.1.1 (c3084ef, 2021-09-22)"
   xmlns:inkscape="http://www.inkscape.org/namespaces/inkscape"
   xmlns:sodipodi="http://sodipodi.sourceforge.net/DTD/sodipodi-0.dtd"
   xmlns="http://www.w3.org/2000/svg"
   xmlns:svg="http://www.w3.org/2000/svg"><defs
   id="defs2225" /><sodipodi:namedview
   id="namedview2223"
   pagecolor="#505050"
   bordercolor="#eeeeee"
   borderopacity="1"
   inkscape:pageshadow="0"
   inkscape:pageopacity="0"
   inkscape:pagecheckerboard="0"
   showgrid="false"
   inkscape:zoom="2.5363738"
   inkscape:cx="5383.4731"
   inkscape:cy="67.813349"
   inkscape:window-width="1312"
   inkscape:window-height="762"
   inkscape:window-x="0"
   inkscape:window-y="25"
   inkscape:window-maximized="0"
   inkscape:current-layer="g1092" />
<g
   id="g1092">
	
		
	<path
   id="path950"
   style="fill:#000000;fill-opacity:0.43141595;stroke:none"
   d="M 5352.7305 15.160156 L 5349.1289 19.029297 L 5345.5293 28.640625 L 5341.9297 51.240234 L 5338.291 51.699219 L 5338.1895 62.072266 L 5338.1465 62.089844 L 5338.1191 69.373047 L 5453.4551 69.449219 L 5453.5 63.710938 L 5453.4844 63.707031 L 5453.5 60.599609 L 5450.3496 60.458984 C 5450.3497 60.455877 5450.3496 60.452344 5450.3496 60.449219 C 5450.3496 60.209219 5450.1499 60.019531 5449.9199 60.019531 C 5449.819 60.019531 5449.7271 60.054503 5449.6543 60.111328 L 5446.2988 55.630859 L 5442.6992 54.230469 L 5439.0996 54.230469 L 5435.5 43.199219 L 5431.9004 47.990234 L 5428.2988 55.419922 L 5424.6992 57.269531 L 5421.0996 59.740234 L 5417.5 62.990234 L 5413.9004 57.039062 L 5410.3105 58.279297 L 5406.709 57.5 L 5403.1094 49.429688 L 5399.5098 49.429688 L 5395.9102 40.109375 L 5392.3105 45.689453 L 5388.709 51.410156 L 5385.1094 56.039062 L 5381.5098 61.919922 L 5377.9102 58.960938 L 5374.3105 61.589844 L 5370.709 57.699219 L 5367.1094 55.669922 L 5363.5098 58.75 L 5359.9102 43.410156 L 5356.3105 26.660156 L 5352.7305 15.160156 z " />
	
	
	
	
	
	
	
	
	
</g>




















































</svg>
