<?xml version="1.0" encoding="UTF-8" standalone="no"?>
<!-- Generator: Adobe Illustrator 18.0.0, SVG Export Plug-In . SVG Version: 6.00 Build 0)  -->

<svg
   version="1.1"
   id="Baseline"
   x="0px"
   y="0px"
   width="9451.45px"
   height="623.52px"
   viewBox="0 0 9451.45 623.52"
   enable-background="new 0 0 9451.45 623.52"
   xml:space="preserve"
   sodipodi:docname="36 Rhine River temp_mask-01-wOffset.svg"
   inkscape:version="1.1.1 (c3084ef, 2021-09-22)"
   xmlns:inkscape="http://www.inkscape.org/namespaces/inkscape"
   xmlns:sodipodi="http://sodipodi.sourceforge.net/DTD/sodipodi-0.dtd"
   xmlns="http://www.w3.org/2000/svg"
   xmlns:svg="http://www.w3.org/2000/svg"><defs
   id="defs3199" /><sodipodi:namedview
   id="namedview3197"
   pagecolor="#505050"
   bordercolor="#eeeeee"
   borderopacity="1"
   inkscape:pageshadow="0"
   inkscape:pageopacity="0"
   inkscape:pagecheckerboard="0"
   showgrid="false"
   inkscape:zoom="4.0083999"
   inkscape:cx="5645.2701"
   inkscape:cy="288.1449"
   inkscape:window-width="1312"
   inkscape:window-height="762"
   inkscape:window-x="0"
   inkscape:window-y="25"
   inkscape:window-maximized="0"
   inkscape:current-layer="Baseline" />




































<path
   id="path4401"
   style="fill:#1a1a1a;stroke:none;stroke-width:0.2;stroke-linecap:butt;stroke-linejoin:miter;stroke-miterlimit:4;stroke-dasharray:none;stroke-opacity:1;fill-opacity:0.53097343"
   d="m 5607.541,268.37863 v 2.52708 l -2.6775,0.0374 c 0,0 -4.8608,-0.009 -7.291,-0.0234 -0.03,-0.78971 -0.058,-1.57948 -0.09,-2.36914 h -1.8907 c -0.087,2.42969 -0.1743,4.85934 -0.2597,7.28906 -4.4701,-0.0135 -8.9401,-0.026 -13.4102,-0.0391 0.054,0.99278 0.1056,1.98567 0.1582,2.97852 h -8.4082 v 2.24804 c -0.9863,-0.0254 -1.9726,-0.0507 -2.959,-0.0762 l -0,23.13911 c 34.3145,0.10417 68.6318,0.17341 102.9463,0.27758 -0.025,-6.52083 -0.05,-13.76695 -0.074,-20.28778 -1.4232,0.0963 -2.8464,0.19271 -4.2696,0.28906 v -2.5293 c -3.8333,-0.0333 -7.6666,-0.0656 -11.5,-0.0996 v -2.59961 h -14.9179 c 0.054,-1.93365 0.1115,-3.86721 0.1679,-5.80079 -4.8437,0.0298 -9.6874,0.0614 -14.5312,0.0899 v -2.04883 h -17.0195 c 0.017,-1.00717 0.032,-2.01435 0.051,-3.02148 -1.3323,0.0129 -2.7232,-0.0259 -4.0195,0.0195 z"
   sodipodi:nodetypes="cccccccccccccccccccccccccsc" /></svg>
