<?xml version="1.0" encoding="UTF-8" standalone="no"?>
<!-- Generator: Adobe Illustrator 18.0.0, SVG Export Plug-In . SVG Version: 6.00 Build 0)  -->

<svg
   version="1.1"
   id="background"
   x="0px"
   y="0px"
   width="9451.45px"
   height="623.52px"
   viewBox="0 0 9451.45 623.52"
   enable-background="new 0 0 9451.45 623.52"
   xml:space="preserve"
   sodipodi:docname="37_Microcystic bloom_mask.svg"
   inkscape:version="1.1.1 (c3084ef, 2021-09-22)"
   xmlns:inkscape="http://www.inkscape.org/namespaces/inkscape"
   xmlns:sodipodi="http://sodipodi.sourceforge.net/DTD/sodipodi-0.dtd"
   xmlns="http://www.w3.org/2000/svg"
   xmlns:svg="http://www.w3.org/2000/svg"><defs
   id="defs1427" /><sodipodi:namedview
   id="namedview1425"
   pagecolor="#505050"
   bordercolor="#eeeeee"
   borderopacity="1"
   inkscape:pageshadow="0"
   inkscape:pageopacity="0"
   inkscape:pagecheckerboard="0"
   showgrid="false"
   inkscape:zoom="2.8473154"
   inkscape:cx="5551.3695"
   inkscape:cy="311.52151"
   inkscape:window-width="1312"
   inkscape:window-height="762"
   inkscape:window-x="0"
   inkscape:window-y="25"
   inkscape:window-maximized="0"
   inkscape:current-layer="g1422" />
<g
   id="g1422">
	<path
   style="fill:#000000;stroke-width:0.160083"
   d="m 5596.9883,351.99219 c 0.027,-0.0185 0.037,0.0463 0,0.27343 -0.3246,0.58658 -0.081,-0.21787 0,-0.27343 z"
   id="path2333" /><path
   style="fill:#000000;stroke-width:0.160083"
   d="m 5597.3008,351.63281 c 0.016,-0.005 0.021,0.0182 0,0.0977 -0.1901,0.1925 -0.047,-0.0822 0,-0.0977 z"
   id="path2331" /><path
   style="fill:#000000;stroke-width:0.160083"
   d="m 5585.4688,350.44922 c 0.1873,-0.0326 -0.1195,0.1026 0,0 z"
   id="path2329" /><path
   style="fill:#000000;stroke-width:0.160083"
   d="m 5588.3574,347.56055 c 0.3112,0.12276 -0.037,0.80227 0.2031,1.10547 0.4445,0.46729 -0.1838,0.72964 -0.4707,1.05859 -0.3883,0.23648 -0.456,0.9591 -0.9941,0.68359 -0.2997,-0.0637 -1.1015,0.085 -1.0684,-0.0293 0.7837,-0.26405 1.3599,-0.9403 1.8633,-1.56055 0.3574,-0.30677 0.1121,-1.20438 0.4668,-1.25781 z"
   id="path2327" /><path
   style="fill:#000000;stroke-width:0.160083"
   d="m 5597.4961,340.88672 c 0.038,0.0651 0.075,0.13021 0.1133,0.19531 0.4284,0.34421 -0.3181,0.62115 -0.5196,0.95508 -0.3491,0.54842 -0.5288,0.18273 -1.0429,0.043 -0.5982,-0.24396 -1.1963,-0.5512 -1.8594,-0.54883 -0.5241,-0.74257 0.4994,0.20938 0.8984,0.0801 0.8634,0.10921 1.8318,0.0222 2.4102,-0.72461 z"
   id="path2325" /><path
   style="fill:#000000;stroke-width:0.160083"
   d="m 5605.9062,339.98633 c -0.7488,-0.0808 -1.4854,0.22499 -1.8867,0.87695 -0.6929,0.51043 -1.2686,1.28291 -1.1269,2.1875 -0.1189,0.80445 0.2968,1.5516 0.9453,1.99805 0.4893,0.70762 1.3375,1.02227 2.1719,0.89648 1.1454,0.07 2.0948,-0.79182 2.6504,-1.70312 0.3178,-0.72458 0.1457,-1.54287 0.1308,-2.3086 -0.1734,-0.94093 -1.1762,-1.28678 -1.8867,-1.75976 -0.3096,-0.14175 -0.6579,-0.21715 -0.9981,-0.1875 z"
   id="path2323" /><path
   style="fill:#000000;stroke-width:0.160083"
   d="m 5577.6562,335.00586 c -0.9098,0.0122 -1.413,0.85956 -1.9941,1.42969 -0.1753,0.30283 -0.4651,0.79257 -0.3398,0.9707 -0.2593,0.46098 -1.114,0.71746 -1.0547,1.38281 -0.023,0.75974 -0.1899,1.67445 0.2715,2.3125 0.6251,0.6514 1.2237,1.64753 2.2812,1.4668 0.8556,0.0693 1.8354,-0.0173 2.3809,-0.77148 0.5034,-0.37293 0.894,-0.91424 1.0078,-1.5254 0.3587,-0.50187 0.6817,-1.01899 1.0508,-1.51171 0.4378,-0.86646 -0.1026,-1.7306 -0.5567,-2.45313 -0.2969,-0.81697 -1.1379,-1.3285 -1.9961,-1.19141 -0.3492,-0.0495 -0.6956,-0.13619 -1.0508,-0.10937 z"
   id="path2321" /><path
   style="fill:#000000;stroke-width:0.160083"
   d="m 5601.0723,329.58594 c -1.0347,-0.0748 -1.7241,0.80036 -2.3828,1.45508 -0.2989,0.35481 -0.3086,0.99966 -0.3145,1.30273 -0.6166,-0.7485 -1.7261,-0.74568 -2.5859,-0.59961 -0.4099,0.0902 -0.7349,0.82493 -1.1446,0.46289 -0.5702,-0.26656 -1.1497,-0.76568 -1.7168,-0.85937 -0.6029,0.32331 -1.1506,0.81554 -1.75,1.09765 -1.0981,-0.2388 -1.8886,0.76015 -2.6679,1.35547 -0.7478,0.73737 -0.6482,1.95643 -0.2676,2.84961 0.3668,0.62429 0.867,1.15614 1.2168,1.79297 1.0783,-0.17917 2.3919,0.30574 3.2558,-0.57813 -0.1401,0.66254 -0.2043,1.4158 0.1446,2.03125 -0.7858,-0.47585 -1.6779,-0.44125 -2.5391,-0.27343 -0.3807,0.1042 -0.6774,0.5888 -0.9765,0.66015 -0.551,-0.57186 -1.3634,-0.5411 -2.0704,-0.3789 -0.4538,0.0446 -0.115,-0.752 -0.3984,-1.0293 -0.5239,-0.92903 -1.4553,-1.9192 -2.6289,-1.77148 -0.6782,-0.0157 -1.4042,0.0594 -1.875,0.61132 -0.9395,0.61805 -1.3832,1.8372 -1.2539,2.91993 0.1945,0.80069 0.8919,1.3207 1.3555,1.96679 0.487,0.53411 1.2423,0.48675 1.8984,0.45313 0.2262,0.44776 0.8782,1.12679 0.8418,1.43359 -0.5376,0.12756 -1.3529,-0.27674 -1.6856,0.2461 -0.4172,0.66861 -1.0175,1.243 -1.248,2.01171 -0.5549,-0.11856 -1.1163,0.0453 -1.6836,-0.0254 -0.9096,0.0427 -1.3851,0.92607 -2,1.46875 -0.3193,0.22779 -0.3271,0.99956 -0.4551,1.05078 -0.1662,-0.35224 -1.0128,-0.40918 -0.7656,-0.82226 0.1492,-0.98341 0.2182,-2.30026 -0.7441,-2.91406 -0.5287,-0.66978 -1.3151,-1.23397 -2.211,-1.00977 -0.7124,-0.13323 -1.5021,0.17876 -1.9629,0.7793 -0.7105,0.45731 -1.1227,1.28822 -0.955,2.12695 -0.1082,0.8514 0.2614,1.69296 0.9785,2.16406 -0.4467,0.35264 -0.8656,0.8001 -0.9785,1.375 -0.6042,-0.52571 -1.1149,-1.38911 -1.9493,-1.49609 -0.8767,0 -2.016,-0.14344 -2.5722,0.75 -0.5081,0.4673 -1.1048,0.99131 -1.1035,1.74414 -0.6482,-0.5515 -1.436,-0.99114 -2.3106,-0.93555 -0.4571,0.0483 -0.7543,0.0338 -1.0176,-0.39648 -0.5658,-0.71104 -1.443,-1.17161 -2.3633,-1.01953 -0.5298,-0.0893 -1.1742,0.29733 -1.5078,0.43359 -0.1082,-0.75183 -0.4305,-1.55425 -0.9746,-2.05859 -0.9234,-0.25034 -1.9163,-0.97202 -2.8652,-0.36719 -0.8709,0.17636 -1.8062,0.69903 -1.8516,1.69531 -0.011,0.87784 -0.7313,-0.3577 -1.0801,0.35742 -0.5545,0.36198 -1.1096,0.72391 -1.664,1.08594 0.097,-0.99232 -0.6669,-1.75004 -1.502,-2.125 -0.6086,-0.53091 -1.4731,-0.67071 -2.2011,-0.31836 -0.886,0.0825 -1.6951,0.67573 -1.8614,1.57617 -0.171,0.70657 -0.425,0.52668 -0.8144,0.0957 -0.3552,-0.42359 -0.825,-0.36684 -1.3203,-0.34571 -0.8838,-0.1786 -1.7824,0.16136 -2.3028,0.89649 -0.449,-0.70237 -1.0062,-1.44126 -1.8925,-1.56836 -0.899,-0.43328 -1.9142,-0.0518 -2.6094,0.57617 -0.4186,0.13036 -0.6542,0.77863 -1.1192,0.44336 -0.7617,-0.35737 -1.7707,-0.39876 -2.3574,0.30078 -0.7453,0.32745 -1.5322,0.94937 -1.4297,1.85547 -0.4917,0.40438 -1.1227,0.0578 -1.4668,-0.38476 -0.7847,-0.42715 -1.6996,-1.0474 -2.6132,-0.58399 -0.6056,0.11154 -1.2536,0.30181 -1.6387,0.81641 -0.6592,-0.13477 -1.2935,0.13664 -1.9629,0.043 -0.5297,0.0833 -1.2571,-0.26231 -1.502,0.39257 -0.3118,0.77324 -0.7603,0.47715 -1.1601,-0.0605 -0.4451,-0.40368 -0.793,-1.01771 -1.2891,-1.29883 -0.9784,0.0958 -2.2788,-0.31297 -2.9101,0.67383 -0.6342,0.75539 -1.3904,1.39256 -2.1192,2.05273 0.1039,1.02109 -0.319,2.35017 0.6973,3.02344 0.5337,0.57026 1.1643,1.33936 2.0293,1.12305 0.6688,0.0934 1.2994,-0.0953 1.959,0.0351 0.4469,-0.11156 0.9691,0.0692 1.3672,-0.0488 0.3423,-0.17013 0.7777,-1.11903 1.0898,-0.77734 0.4626,0.76148 1.3755,0.94174 2.1934,0.81055 0.5334,-0.24485 0.9921,0.41716 1.4433,0.12304 0.7798,-0.37329 1.8605,0.19492 2.5352,-0.48632 0.4971,0.24582 1.1918,0.55313 1.8242,0.36132 0.4483,-0.0327 0.9283,-0.41269 1.3223,-0.13086 0.6857,0.309 1.4438,0.005 2.1582,0.16797 0.2865,-0.47735 0.8478,0.14842 1.3125,-0.0371 0.6896,0.0561 1.4553,-0.096 1.9082,-0.66015 0.463,0.10595 0.7751,0.69504 1.3281,0.6914 0.6283,0.13325 1.2823,-0.21821 1.8809,-0.17578 0.7713,0.33285 1.6187,0.003 2.4199,0.19727 0.2022,-0.30797 0.762,0.0762 1.1367,-0.0488 0.7858,-0.14127 1.6038,0.3182 2.334,-0.17188 0.4397,-0.0893 0.9277,0.33024 1.4297,0.2168 0.5971,-0.008 1.0419,-0.51546 1.6445,-0.31836 0.4326,-0.11294 0.804,-0.1851 1.2402,-0.0391 0.7882,-0.0243 1.5874,0.0396 2.3731,-0.0645 0.5723,-0.30514 1.1666,0.16124 1.789,0.0547 0.7466,-0.13646 1.5902,0.31646 2.2188,-0.26171 0.5285,0.22353 1.1324,-0.0559 1.5898,0.35156 0.8594,0.35982 1.8297,0.14775 2.7188,0.17383 0.613,-0.13883 1.3088,0.25755 1.9414,-0.0254 0.3827,-0.16717 0.8377,-0.44232 1.1699,-0.0195 0.879,0.69748 2.2113,0.55092 3.082,-0.0508 0.6548,0.25981 1.3796,0.14036 2.0332,0.10742 0.4971,-0.37328 1.1891,-0.3954 1.6856,-0.0215 0.9716,0.43442 1.8972,-0.41773 2.9004,-0.2793 0.5605,0.0918 1.0714,0.62206 1.6992,0.41602 0.841,-0.30261 1.9935,-0.38277 2.3145,-1.39844 0.1654,-0.14557 0.522,0.65388 0.8378,0.76953 1.1219,0.46551 2.3574,0.12326 3.5332,0.23828 0.6772,0.0374 1.3504,-0.12514 1.7833,-0.67968 0.4059,-0.0168 0.7677,0.77391 1.1542,1.06445 0.3473,0.49911 1.0579,0.13842 1.5801,0.25781 0.5836,-0.0509 1.1358,-0.096 1.7149,0.0254 0.709,0.0381 1.3967,-0.26355 1.9238,-0.71093 0.5713,0.11865 1.1788,0.008 1.7383,0.01 0.4519,-0.24742 0.827,-0.50263 1.2929,-0.16406 0.7592,0.0919 1.5642,0.10264 2.3125,-0.0937 0.8143,-0.33424 1.1209,-1.23332 1.7188,-1.82031 0.2484,-0.22244 0.4301,-0.96919 0.6641,-0.36719 0.3182,0.86144 1.1564,1.53859 2.1093,1.3418 0.4094,0.0842 0.9073,-0.1364 1.127,0.32031 0.4339,0.46586 0.9531,0.98045 1.6406,0.80664 0.8115,0.11075 1.8549,-0.0909 2.3574,-0.87695 0.8613,-0.28923 1.8675,-0.17181 2.6895,-0.65821 0.5235,-0.21558 0.8921,-0.59787 0.9609,-1.17383 0.3814,-0.8358 0.3241,-1.75752 0.027,-2.60351 -0.2224,-1.07628 -1.3312,-1.43181 -2.2617,-1.64453 -0.8914,-0.14944 -1.7689,0.18506 -2.6153,0.41601 0.098,-0.85615 -0.4339,-1.63563 -1.2051,-1.96289 -0.8115,-0.70567 -1.9995,-0.79856 -2.9804,-0.46484 -0.567,0.35477 -0.9769,0.91871 -1.4532,1.38672 -0.3301,0.56218 -10e-5,-0.56345 -0.1757,-0.82813 -0.2218,-0.90444 -1.2347,-1.12465 -1.8399,-1.6914 -0.1249,-0.16063 0.7286,-0.32551 0.8281,-0.66993 0.3825,-0.18701 0.6567,-0.99142 1.0625,-0.44531 0.9876,0.94736 2.6198,0.87646 3.586,-0.0625 0.3064,-0.4368 1.2682,-0.43698 1.0547,-1.10156 -0.098,-0.92702 0.2496,-2.05982 -0.4864,-2.79883 0.4502,-0.36128 0.9307,-0.81226 1.3067,-1.2832 0.4632,-0.721 0.3545,-1.67024 0.1601,-2.46289 -0.2503,-0.65729 -0.8107,-1.17636 -1.3281,-1.60352 0.348,-0.42245 0.3749,-1.07793 0.3887,-1.52929 1.4114,-0.63955 2.4896,-2.22354 2.1465,-3.79688 -0.233,-0.82722 -0.9904,-1.37335 -1.6153,-1.91211 -0.4646,-0.42804 -1.045,-0.13152 -1.6054,-0.25195 z"
   id="path2319" /><path
   style="fill:#000000;stroke-width:0.160083"
   d="m 5567.1719,324.78125 c -0.1247,-0.009 -0.2501,-0.008 -0.375,0.006 -0.7768,0.0213 -1.7384,-0.10657 -2.2285,0.66211 -0.6821,0.52543 -1.0996,1.37906 -0.8985,2.23828 -0.1451,0.8343 0.1433,1.69164 0.834,2.19336 0.7164,0.87858 1.8995,0.72638 2.9004,0.66602 0.8762,-0.12307 1.5061,-0.89568 1.9043,-1.62305 0.2341,-0.77009 0.1518,-1.61822 0.035,-2.40625 -0.323,-0.76578 -1.0135,-1.40722 -1.8008,-1.67969 -0.1225,-0.0273 -0.2464,-0.0472 -0.3711,-0.0566 z"
   id="path2317" /><path
   style="fill:#000000;stroke-width:0.160083"
   d="m 5578.7637,323.5 c -1.196,-0.0163 -2.7383,0.51937 -2.9571,1.86328 -0.4109,0.75506 -0.4839,1.71576 0.1,2.40039 0.6362,1.59226 2.8904,2.29672 4.2188,1.13281 0.6394,-0.38898 1.5146,-0.9513 1.2949,-1.81054 0.095,-0.86569 0.073,-1.98056 -0.7363,-2.58399 -0.4522,-0.59753 -1.1295,-1.12052 -1.9199,-1.00195 z"
   id="path2315" /><path
   style="fill:#000000;stroke-width:0.160083"
   d="m 5606.5684,315.66211 c -0.6531,0.003 -1.4196,0.008 -1.8301,0.61133 -0.3007,0.40831 -0.7412,-0.21775 -1.1778,-0.11133 -0.9652,-0.0433 -2.1338,-0.1379 -2.7675,0.76172 -0.9713,0.67498 -0.8229,2.00474 -0.7539,3.0332 0.2412,0.90354 1.0029,1.70504 1.9179,1.9375 1.0319,0.0827 2.265,0.22681 3.0039,-0.67578 0.733,0.51322 1.7227,0.49785 2.5567,0.29687 0.7318,-0.38715 1.3634,-1.0139 1.7832,-1.72265 0.4035,-1.07686 0.2663,-2.49401 -0.7422,-3.20703 -0.4668,-0.60606 -1.2101,-1.01958 -1.9902,-0.92383 z"
   id="path2313" /><path
   style="fill:#000000;stroke-width:0.160083"
   d="m 5580.8867,291.16797 c -0.1061,0.0957 -0.2122,0.1914 -0.3183,0.28711 -0.711,0.6505 -1.7842,1.33941 -1.5332,2.46484 -0.092,0.865 0.1087,1.80456 0.8574,2.32813 0.4494,0.69944 1.3253,1.1785 2.1445,0.83593 0.8806,0.0345 1.8012,-0.32496 2.1758,-1.17187 0.3794,-0.5136 0.7579,-1.0284 1.1387,-1.54102 -0.6636,-1.09457 -1.0424,-2.56233 -2.3926,-3.03906 -0.6611,-0.27583 -1.3847,-0.0428 -2.0723,-0.16406 z"
   id="path2241" />
	
	
	
	
	
	
	
	
	
	
	
	
	
	
	
	
	
		
	
</g>
</svg>
