<?xml version="1.0" encoding="UTF-8" standalone="no"?>
<!-- Generator: Adobe Illustrator 18.0.0, SVG Export Plug-In . SVG Version: 6.00 Build 0)  -->

<svg
   version="1.1"
   id="Baseline"
   x="0px"
   y="0px"
   width="9451.45px"
   height="623.52px"
   viewBox="0 0 9451.45 623.52"
   enable-background="new 0 0 9451.45 623.52"
   xml:space="preserve"
   sodipodi:docname="38 Chaohu Eutrophication_mask-01.svg"
   inkscape:version="1.1.1 (c3084ef, 2021-09-22)"
   xmlns:inkscape="http://www.inkscape.org/namespaces/inkscape"
   xmlns:sodipodi="http://sodipodi.sourceforge.net/DTD/sodipodi-0.dtd"
   xmlns="http://www.w3.org/2000/svg"
   xmlns:svg="http://www.w3.org/2000/svg"><defs
   id="defs2431" /><sodipodi:namedview
   id="namedview2429"
   pagecolor="#505050"
   bordercolor="#eeeeee"
   borderopacity="1"
   inkscape:pageshadow="0"
   inkscape:pageopacity="0"
   inkscape:pagecheckerboard="0"
   showgrid="false"
   inkscape:zoom="4.9649999"
   inkscape:cx="5538.8722"
   inkscape:cy="309.96979"
   inkscape:window-width="1312"
   inkscape:window-height="762"
   inkscape:window-x="0"
   inkscape:window-y="25"
   inkscape:window-maximized="0"
   inkscape:current-layer="Baseline" />
<path
   style="fill:#000000"
   d="M 5566.75,352.001 5565,352 v -19.94098 -21.16587 l 0.9765,-0.01 1.0376,-0.01 0.9287,0.0545 v 0 l 0.2786,21.82345 0.2786,19.2512 -1.75,-10e-4 z"
   id="path928" /><path
   style="fill:#000000"
   d="M 5562.607,352 H 5561 V 335.5 319 h 1 1 v 14.91821 14.91822 l 0.03,3.14829 v 0 z"
   id="path926" /><path
   style="fill:#000000"
   d="M 5557.25,352.001 5556,352 v -23.2 -23.2 0 l 1.8613,10e-4 0.3347,24.14961 0.304,22.25103 -1.25,-0.001 z"
   id="path924" /><path
   style="fill:#000000"
   d="M 5552.6166,352 H 5551 v -32 -32 h 1 1 l 0.014,29.75 0.014,29.75 0.019,4.51435 v 0 L 5552.6173,352 Z"
   id="path922" /><path
   style="fill:#000000"
   d="M 5547.6166,352 H 5546 V 322.5 293 h 1 1 l 0.014,27.25 0.014,27.25 4e-4,4.49609 v 0 l -0.4111,0.004 z"
   id="path920" /><path
   style="fill:#000000"
   d="M 5542.607,352 H 5541 V 326.5 301 h 1 1 v 23.91821 23.91822 l 0.041,3.17048 v 0 z"
   id="path918" /><path
   style="fill:#000000"
   d="m 5538,352 h -2 v -35 -35 h 1 1 v 31 31 h 1 1 v 4 4 z"
   id="path916" /><path
   style="fill:#000000"
   d="m 5533,352 h -2 v -35 -35 h 1 1 v 29 29 h 1 1 v 6 6 z"
   id="path914" /><path
   style="fill:#000000"
   d="M 5528.1359,352 H 5526 v -35 -35 h 1.5 1.5 v 30.36043 30.36043 l -0.037,4.90876 0.01,4.39246 z"
   id="path912" /><path
   style="fill:#000000"
   d="M 5523.1601,352 H 5521 v -35 -35 h 1.5 1.5 v 10.25 10.25 l 0.658,24.75 -0.1048,24.75 z"
   id="path910" /><path
   style="fill:#000000"
   d="M 5517.1548,352 H 5517 v -35 -35 h 1 1 v 20.75 20.75 l -0.083,14.45046 L 5518.803,352 Z"
   id="path4290" />




























</svg>
