<?xml version="1.0" encoding="UTF-8" standalone="no"?>
<!-- Generator: Adobe Illustrator 18.0.0, SVG Export Plug-In . SVG Version: 6.00 Build 0)  -->

<svg
   version="1.1"
   id="AR_x5F_layer"
   x="0px"
   y="0px"
   width="9451.45px"
   height="623.52px"
   viewBox="0 0 9451.45 623.52"
   enable-background="new 0 0 9451.45 623.52"
   xml:space="preserve"
   sodipodi:docname="43 Guiyu PDBE in sediment_mask-01.svg"
   inkscape:version="1.1.1 (3bf5ae0d25, 2021-09-20)"
   xmlns:inkscape="http://www.inkscape.org/namespaces/inkscape"
   xmlns:sodipodi="http://sodipodi.sourceforge.net/DTD/sodipodi-0.dtd"
   xmlns="http://www.w3.org/2000/svg"
   xmlns:svg="http://www.w3.org/2000/svg"><defs
   id="defs15" /><sodipodi:namedview
   id="namedview13"
   pagecolor="#505050"
   bordercolor="#eeeeee"
   borderopacity="1"
   inkscape:pageshadow="0"
   inkscape:pageopacity="0"
   inkscape:pagecheckerboard="0"
   showgrid="false"
   inkscape:zoom="1.3191316"
   inkscape:cx="5832.2459"
   inkscape:cy="311.18957"
   inkscape:window-width="1366"
   inkscape:window-height="705"
   inkscape:window-x="-8"
   inkscape:window-y="-8"
   inkscape:window-maximized="1"
   inkscape:current-layer="AR_x5F_layer" />
<path
   id="path998"
   style="fill:#000000"
   d="m 5755.1387,262.14844 c -8.2222,0.0737 -16.4574,-0.0189 -24.6641,0.56303 -2.2761,0.25763 -4.7156,0.31313 -6.7383,1.50923 -1.4073,0.81882 -1.8333,2.77008 -0.9804,4.13672 1.2604,2.0451 3.2872,3.44525 4.9167,5.17354 2.0284,1.88735 3.2433,4.45633 3.9271,7.10668 0.5118,1.82807 0.8756,3.61738 1.2236,5.42624 1.5307,8.45555 2.6191,16.9181 3.8316,25.43001 1.8091,12.80408 3.5608,25.61984 5.7865,38.35963 0.2918,1.2181 0.3421,2.5675 1.0234,3.64124 0.4336,0.26637 0.7688,0.97624 1.2756,0.91857 0.5966,-0.23664 1.3553,-0.29545 1.8561,-0.63866 0.8217,-1.81332 0.9386,-3.83911 1.3553,-5.76567 2.9545,-16.8966 5.6609,-33.8367 8.308,-50.78439 2.7795,25.68097 5.0688,51.45913 7.6723,77.17777 0.8119,7.61516 1.5005,15.24901 2.6465,22.82315 0.2398,1.27211 0.3383,2.83655 1.5255,3.59816 0.6069,0.1056 1.2609,0.59451 1.7897,0.0575 1.2347,-0.45768 1.3873,-1.91574 1.4704,-3.05699 1.8866,-18.42469 3.584,-36.86879 5.3301,-55.30748 1.4176,-14.65255 2.6467,-29.30562 4.325,-43.93437 0.3374,-2.94035 0.7219,-5.87625 1.2131,-8.7952 0.171,-0.94108 0.3841,-2.13672 0.6293,-3.16902 0.5844,-2.82809 1.675,-5.57637 3.4839,-7.85102 0.7202,-0.95887 1.6274,-2.14499 2.4246,-3.18935 1.3738,-1.71162 2.5841,-3.61306 4.3069,-5.00081 1.016,-0.66989 2.2553,-0.006 3.3116,0.22134 2.0164,0.67778 4.1421,1.09526 6.0544,2.04357 0.6883,0.43637 0.5383,1.43814 0.7087,2.13533 0.6638,6.21864 1.0738,12.50386 1.6194,18.78476 2.8409,34.49869 5.3813,69.02205 8.3946,103.50557 0.4984,5.28809 0.8835,10.59091 1.5643,15.85894 0.321,1.37228 1.0378,2.63261 1.515,3.96067 0.3154,0.7711 0.6309,1.5422 0.9463,2.3133 0.5184,-2.11611 1.1663,-4.21065 1.6057,-6.33991 3.3889,-41.88491 6.6839,-83.7849 10.1941,-125.65238 0.2653,-2.54877 0.336,-5.04062 0.7686,-7.5624 1.0954,-4.17087 4.1482,-7.55896 7.5996,-10.0039 2.5204,-1.7589 5.4562,-2.9613 8.5361,-3.2025 0.6872,-0.0377 0.9048,-0.89086 1.3755,-1.30321 0.454,-0.56776 0.9079,-1.13552 1.3618,-1.70328 -1.5294,-0.39689 -3.0135,-1.0843 -4.6253,-0.99639 -12.6989,-0.27801 -25.4028,-0.29065 -38.1043,-0.37469 -16.9214,-0.0747 -33.843,-0.12654 -50.7645,-0.11329 z" />
</svg>
