<?xml version="1.0" encoding="UTF-8" standalone="no"?>
<!-- Generator: Adobe Illustrator 18.0.0, SVG Export Plug-In . SVG Version: 6.00 Build 0)  -->

<svg
   version="1.1"
   id="AR_x5F_layer"
   x="0px"
   y="0px"
   width="9451.45px"
   height="623.52px"
   viewBox="0 0 9451.45 623.52"
   enable-background="new 0 0 9451.45 623.52"
   xml:space="preserve"
   sodipodi:docname="45b_mask-01.svg"
   inkscape:version="1.1.1 (c3084ef, 2021-09-22)"
   xmlns:inkscape="http://www.inkscape.org/namespaces/inkscape"
   xmlns:sodipodi="http://sodipodi.sourceforge.net/DTD/sodipodi-0.dtd"
   xmlns="http://www.w3.org/2000/svg"
   xmlns:svg="http://www.w3.org/2000/svg"><defs
   id="defs3131">
	
		
	
		
	
		
	
		
	
		
	
		
	
		
	
		
	
		
	
		
	
		
	
		
	
		
	
		
	
		
	
		
	
		
	
		
	
		
	
		
	
		
	
		
	
		
	
		
	
		
	
		
	
		
	
		
	
		
	
		
	
		
	
		
	
		
	
		
	
		
	
		
	
		
	
		
	
		
	
		
	
		
	
		
	
		
	
		
	
		
	
		
	
		
	
		
	
		
	
		
	
		
	
		
	
		
	
		
	
		
	
		
	
		
	
		
	
		
	
		
	
		
	
		
</defs><sodipodi:namedview
   id="namedview3129"
   pagecolor="#505050"
   bordercolor="#eeeeee"
   borderopacity="1"
   inkscape:pageshadow="0"
   inkscape:pageopacity="0"
   inkscape:pagecheckerboard="0"
   showgrid="false"
   inkscape:zoom="2.2707401"
   inkscape:cx="5948.5012"
   inkscape:cy="201.25597"
   inkscape:window-width="1312"
   inkscape:window-height="762"
   inkscape:window-x="0"
   inkscape:window-y="25"
   inkscape:window-maximized="0"
   inkscape:current-layer="AR_x5F_layer" />
<path
   style="fill:#000000;fill-opacity:1;stroke:none"
   d="m 5946.8906,160.66992 v 78.13086 h 9.8203 v -7.79101 h -2.8906 l -0.5605,-24.25 h -2.9004 l -0.5703,-46.08985 z"
   id="path5887" /><path
   style="fill:#000000;fill-opacity:1;stroke:none"
   d="m 5894.002,160.52148 v 0.0996 0.0996 78.62696 h 3.5371 3.4687 3.4395 v -13.22657 h -3.4395 v -36.24023 h -3.4687 v -29.35938 z"
   id="path5885" /><path
   style="fill:#000000;fill-opacity:1;stroke:none"
   d="m 5867.4609,159.14062 v 79.66016 h 9.8985 v -6.6914 l -3.4492,0.041 v -28.2207 l -3.5508,-0.39063 v -44.39844 z"
   id="path5883" /><path
   style="fill:#000000;fill-opacity:1;stroke:none"
   d="m 5995.4102,158.80078 v 80 h 9.8203 v -2.88086 h -2.9004 l -0.5606,-31.90039 -3.459,-0.0762 v -45.14258 z"
   id="path5881" /><path
   style="fill:#000000;fill-opacity:1;stroke:none"
   d="m 5983.9316,156.78125 v 0.0996 0.0996 82.36719 h 3.459 0.078 3.4589 3.4414 v -14.18555 h -3.4414 V 188.9707 h -3.4589 c -10e-5,-10.72981 -10e-5,-21.45963 0,-32.18945 z"
   id="path5879" /><path
   style="fill:#000000;fill-opacity:1;stroke:none"
   d="m 5908.3691,155.9707 v 82.83008 h 9.9004 v -7.12109 l -3.4492,-0.46875 v -32.23047 l -3.5,-0.0195 -0.051,-42.99024 z"
   id="path5877" /><path
   style="fill:#000000;fill-opacity:1;stroke:none"
   d="m 5854.2207,155.11133 v 0.0996 0.0996 84.03711 h 3.4707 v 0.0117 c 1.179,-2e-5 2.3581,-10e-6 3.5371,0 v -0.0117 h 3.4395 v -13.22657 h -3.4395 v -35.98047 c -1.1568,0 -2.3138,10e-6 -3.4707,0 v -35.02929 z"
   id="path5875" /><path
   style="fill:#000000;fill-opacity:1;stroke:none"
   d="m 5933.2422,148.29102 v 0.0996 0.0996 90.85743 h 3.5371 3.459 3.4394 v -13.02539 h -3.4394 V 190.8418 h -3.459 v -42.55078 z"
   id="rect824" />












































































</svg>
