<?xml version="1.0" encoding="UTF-8" standalone="no"?>
<svg
   width="9451px"
   height="623px"
   viewBox="0 0 9451 623"
   version="1.1"
   id="svg2741"
   sodipodi:docname="46_mask-01-Simplified.svg"
   inkscape:version="1.1.1 (c3084ef, 2021-09-22)"
   xmlns:inkscape="http://www.inkscape.org/namespaces/inkscape"
   xmlns:sodipodi="http://sodipodi.sourceforge.net/DTD/sodipodi-0.dtd"
   xmlns="http://www.w3.org/2000/svg"
   xmlns:svg="http://www.w3.org/2000/svg">
   <path
      style="fill:#000000;stroke:none;stroke-width:1px;stroke-linecap:butt;stroke-linejoin:miter;stroke-opacity:1;fill-opacity:0.38938054"
      d="m 5883.8125,469.98439 -0.029,-15.49592 6.1809,-2.13301 5.8443,25.39626 0.3042,9.49439 h 2.3164 l -0.015,-9.4401 6.1631,-39.38023 7.332,10.12109 7.2813,34.81641 7.332,-39.25 1.4796,0.95588 4.4247,22.74749 0.2481,26.56228 h 2.3125 l -0.036,-26.26368 1.4039,-6.35975 4.7845,24.74059 7.332,-49.32422 6.0175,5.36003 0.131,12.55015 h 2.2695 l 0.012,-7.17999 6.187,25.33622 7.2813,-20.88282 7.332,0.62891 7.2812,27.19531 7.3321,-17.0664 7.3359,6.9414 7.2813,-28.44922 7.3281,-4.43359 h 7.2851 l 7.3321,22.75781 7.2851,-19.625 6.1085,0.62551 0.087,9.42528 h 2.2695 l 0.013,-9.38826 4.979,-0.5923 0.024,1.73837 h 2.3164 l 0.029,-2.33067 6.1233,-2.61074 6.0558,6.31261 0.093,13.86318 h 2.3125 l 0.02,-13.91871 6.1327,-6.25708 7.3321,0.625 6.7844,0.0978 7.8327,-0.72278 7.3282,5.0625 7.289,24.63672 7.3282,10.80078 7.2851,13.88672 7.3281,-50.58203 6.1433,16.10292 0.01,9.2838 h 2.3125 v -29.21875 l -258.2031,2e-5 v 32.83984 z"
      id="path4123" />
</svg>