<?xml version="1.0" encoding="UTF-8" standalone="no"?>
<!-- Generator: Adobe Illustrator 23.0.1, SVG Export Plug-In . SVG Version: 6.00 Build 0)  -->

<svg
   version="1.1"
   id="AR_x5F_layer"
   x="0px"
   y="0px"
   width="9451.5px"
   height="623.5px"
   viewBox="0 0 9451.5 623.5"
   style="enable-background:new 0 0 9451.5 623.5;"
   xml:space="preserve"
   sodipodi:docname="46_mask-01-Simplified.svg"
   inkscape:version="1.1.1 (c3084ef, 2021-09-22)"
   xmlns:inkscape="http://www.inkscape.org/namespaces/inkscape"
   xmlns:sodipodi="http://sodipodi.sourceforge.net/DTD/sodipodi-0.dtd"
   xmlns="http://www.w3.org/2000/svg"
   xmlns:svg="http://www.w3.org/2000/svg"><defs
   id="defs6825" /><sodipodi:namedview
   id="namedview6823"
   pagecolor="#505050"
   bordercolor="#eeeeee"
   borderopacity="1"
   inkscape:pageshadow="0"
   inkscape:pageopacity="0"
   inkscape:pagecheckerboard="0"
   showgrid="false"
   inkscape:zoom="1.8012644"
   inkscape:cx="5983.297"
   inkscape:cy="487.99054"
   inkscape:window-width="1296"
   inkscape:window-height="762"
   inkscape:window-x="0"
   inkscape:window-y="25"
   inkscape:window-maximized="0"
   inkscape:current-layer="AR_x5F_layer" />
<style
   type="text/css"
   id="style6814">
	.st0{opacity:0.75;}
	.st1{stroke:#000000;stroke-width:1.1723;stroke-linecap:round;stroke-linejoin:round;stroke-miterlimit:10;}
</style>
<path
   id="polygon6816"
   class="st1"
   d="m 6138.5254,432.38672 c -18.4733,0.11817 -36.9496,0.16435 -55.4241,0.25484 -66.5722,0.28615 -133.1444,0.57229 -199.7165,0.85844 -1.465,0.32926 -3.1563,0.9871 -3.612,2.58432 -0.6713,1.77856 -0.2628,3.70801 -0.3724,5.55748 0.017,4.55029 -0.034,9.1093 0.025,13.65415 0.3333,1.39719 0.9387,3.09052 2.5177,3.4521 1.1317,0.47505 2.4379,0.53979 3.5459,-0.0335 0.8069,-0.27268 1.6139,-0.54535 2.4209,-0.81803 2.0983,8.93946 4.1966,17.87891 6.2949,26.81836 0.6505,1.27832 1.5741,2.82182 3.1914,2.86524 1.1482,0.20036 2.5101,0.0899 3.2617,-0.92774 0.9666,-0.78692 1.5161,-1.97382 1.5524,-3.21124 1.8653,-11.49534 3.7307,-22.99068 5.596,-34.48602 0.5622,0.83433 1.3274,1.5927 1.3747,2.65265 2.3015,11.00445 4.6031,22.00891 6.9046,33.01336 0.6141,1.30312 1.5124,2.86312 3.1348,2.94141 1.1365,0.23162 2.4911,0.14449 3.2637,-0.84375 0.9909,-0.76608 1.5699,-1.94632 1.6355,-3.1882 0.8988,-4.83961 1.7977,-9.67922 2.6965,-14.51883 1.2754,8.78776 2.5508,17.57552 3.8262,26.36328 0.533,1.3351 1.3275,2.94571 2.9375,3.13086 1.1189,0.29846 2.4776,0.30445 3.3105,-0.63281 1.0322,-0.70147 1.6913,-1.83258 1.8377,-3.06519 3.8093,-14.84871 7.6186,-29.69743 11.4279,-44.54614 3.3548,8.27394 6.694,16.55364 10.0333,24.83398 0.8416,1.18273 2.0215,2.57768 3.6458,2.33919 1.0291,0.0289 2.4354,-0.28982 3.0475,-1.34895 1.1716,-1.33043 1.3649,-3.17396 2.0479,-4.75403 1.6702,-4.78381 3.3405,-9.56763 5.0107,-14.35144 0.4925,0.18963 1.4811,-0.20774 1.5178,0.52109 2.1594,8.0444 4.3189,16.0888 6.4783,24.13321 0.6898,1.27542 1.6912,2.80221 3.3304,2.76514 1.1847,0.17692 2.5253,-0.0559 3.2795,-1.07392 1.3184,-1.26374 1.6617,-3.14348 2.4741,-4.71635 1.1882,-2.74553 2.3763,-5.49106 3.5644,-8.23659 1.1712,1.07638 2.2515,2.28892 3.5362,3.2193 1.1473,0.65237 2.6403,1.24693 3.8773,0.45064 1.2062,-0.52831 2.2707,-1.52992 2.4537,-2.88939 2.2798,-8.86343 4.5526,-17.72847 6.8203,-26.59501 1.6537,-1.01953 3.3073,-2.03906 4.961,-3.05859 1.0827,0 2.1653,0 3.248,0 2.1617,6.69771 4.2616,13.42428 6.4618,20.10396 0.7449,1.23415 1.8522,2.67932 3.4757,2.51323 1.1898,0.14366 2.484,-0.22653 3.1836,-1.25391 1.2033,-1.27229 1.4359,-3.09134 2.1376,-4.63627 0.9977,-2.67918 1.9955,-5.35837 2.9933,-8.03756 1.1188,1.92746 2.1296,3.93513 3.3164,5.81208 0.9595,1.0432 2.3163,2.15527 3.8386,1.70893 1.2885,-0.15718 2.5383,-0.82793 3.1377,-2.01903 2.2692,-3.21082 4.4394,-6.50361 6.7772,-9.65861 0.7267,-0.58777 1.4534,-1.17553 2.1801,-1.76329 1.8628,5.71135 3.6643,11.45157 5.5654,17.1449 0.7356,1.20087 1.7846,2.59208 3.3604,2.5094 1.1232,0.0935 2.4217,-0.0874 3.1113,-1.0918 1.4251,-1.36264 1.5853,-3.43066 2.2716,-5.17929 1.7076,-5.28854 3.4153,-10.57709 5.1229,-15.86563 2.6636,0.30105 5.3396,0.50074 8.0215,0.41421 2.6607,0.0491 5.321,-0.0496 7.9622,-0.38322 0.7253,-0.0224 1.5003,-0.23377 2.1959,-0.14364 1.6212,1.1326 3.2423,2.2652 4.8634,3.39781 2.3448,7.87931 4.6204,15.78258 7.0279,23.6409 1.1745,2.24941 2.7911,4.2349 4.145,6.37731 1.7271,2.55892 3.5722,5.05539 4.8951,7.85844 1.9398,3.65647 3.8235,7.35233 5.7983,10.98427 0.9222,1.05015 2.1671,2.22009 3.6942,1.9034 1.1793,-0.0815 2.4588,-0.53845 2.9883,-1.6862 1.0998,-1.5727 0.9309,-3.57772 1.302,-5.37817 1.3707,-9.52368 2.7414,-19.04737 4.1121,-28.57105 0.7711,2.59611 1.4793,5.21966 2.2896,7.79871 0.7087,1.25586 1.7733,2.73183 3.4037,2.60364 1.2061,0.21054 2.5347,-0.1731 3.2267,-1.23572 0.9098,-0.84735 1.309,-2.1009 1.1581,-3.32288 0,-9.88151 0,-19.76302 0,-29.64453 -0.329,-1.45013 -0.9523,-3.13665 -2.5331,-3.6034 -0.7744,-0.30251 -1.6098,-0.45313 -2.4415,-0.41027 z" />
</svg>
