<?xml version="1.0" encoding="UTF-8" standalone="no"?>
<!-- Generator: Adobe Illustrator 23.0.1, SVG Export Plug-In . SVG Version: 6.00 Build 0)  -->

<svg
   version="1.1"
   id="Baseline"
   x="0px"
   y="0px"
   width="9451.5px"
   height="623.5px"
   viewBox="0 0 9451.5 623.5"
   style="enable-background:new 0 0 9451.5 623.5;"
   xml:space="preserve"
   sodipodi:docname="48_class 1b cities _sewage_mask-01-wOffset.svg"
   inkscape:version="1.1.1 (c3084ef, 2021-09-22)"
   xmlns:inkscape="http://www.inkscape.org/namespaces/inkscape"
   xmlns:sodipodi="http://sodipodi.sourceforge.net/DTD/sodipodi-0.dtd"
   xmlns="http://www.w3.org/2000/svg"
   xmlns:svg="http://www.w3.org/2000/svg"><defs
   id="defs6750" /><sodipodi:namedview
   id="namedview6748"
   pagecolor="#505050"
   bordercolor="#eeeeee"
   borderopacity="1"
   inkscape:pageshadow="0"
   inkscape:pageopacity="0"
   inkscape:pagecheckerboard="0"
   showgrid="false"
   inkscape:zoom="1.0084145"
   inkscape:cx="6539.4736"
   inkscape:cy="356.99606"
   inkscape:window-width="1312"
   inkscape:window-height="762"
   inkscape:window-x="0"
   inkscape:window-y="25"
   inkscape:window-maximized="0"
   inkscape:current-layer="Baseline" />
<style
   type="text/css"
   id="style824">
	.st0{opacity:0.75;}
	.st1{clip-path:url(#SVGID_3_);}
	.st2{clip-path:url(#SVGID_5_);}
	.st3{clip-path:url(#SVGID_10_);enable-background:new    ;}
	.st4{clip-path:url(#SVGID_12_);}
	.st5{clip-path:url(#SVGID_14_);}
	.st6{fill:#020202;}
	.st7{clip-path:url(#SVGID_16_);}
	.st8{clip-path:url(#SVGID_18_);}
	.st9{clip-path:url(#SVGID_22_);}
	.st10{clip-path:url(#SVGID_24_);}
	.st11{clip-path:url(#SVGID_28_);enable-background:new    ;}
	.st12{clip-path:url(#SVGID_30_);}
	.st13{clip-path:url(#SVGID_32_);}
	.st14{clip-path:url(#SVGID_34_);}
	.st15{clip-path:url(#SVGID_36_);}
	.st16{clip-path:url(#SVGID_40_);}
	.st17{clip-path:url(#SVGID_42_);}
	.st18{clip-path:url(#SVGID_46_);enable-background:new    ;}
	.st19{clip-path:url(#SVGID_48_);}
	.st20{clip-path:url(#SVGID_50_);}
	.st21{clip-path:url(#SVGID_52_);}
	.st22{clip-path:url(#SVGID_54_);}
	.st23{clip-path:url(#SVGID_58_);}
	.st24{clip-path:url(#SVGID_60_);}
	.st25{clip-path:url(#SVGID_64_);enable-background:new    ;}
	.st26{clip-path:url(#SVGID_66_);}
	.st27{clip-path:url(#SVGID_68_);}
	.st28{clip-path:url(#SVGID_70_);}
	.st29{clip-path:url(#SVGID_72_);}
	.st30{clip-path:url(#SVGID_76_);}
	.st31{clip-path:url(#SVGID_78_);}
	.st32{clip-path:url(#SVGID_82_);enable-background:new    ;}
	.st33{clip-path:url(#SVGID_84_);}
	.st34{clip-path:url(#SVGID_86_);}
	.st35{clip-path:url(#SVGID_88_);}
	.st36{clip-path:url(#SVGID_90_);}
	.st37{clip-path:url(#SVGID_94_);}
	.st38{clip-path:url(#SVGID_96_);}
	.st39{clip-path:url(#SVGID_100_);enable-background:new    ;}
	.st40{clip-path:url(#SVGID_102_);}
	.st41{clip-path:url(#SVGID_104_);}
	.st42{clip-path:url(#SVGID_106_);}
	.st43{clip-path:url(#SVGID_108_);}
	.st44{clip-path:url(#SVGID_112_);}
	.st45{clip-path:url(#SVGID_114_);}
	.st46{clip-path:url(#SVGID_118_);enable-background:new    ;}
	.st47{clip-path:url(#SVGID_120_);}
	.st48{clip-path:url(#SVGID_122_);}
	.st49{clip-path:url(#SVGID_124_);}
	.st50{clip-path:url(#SVGID_126_);}
	.st51{clip-path:url(#SVGID_130_);}
	.st52{clip-path:url(#SVGID_132_);}
	.st53{clip-path:url(#SVGID_136_);enable-background:new    ;}
	.st54{clip-path:url(#SVGID_138_);}
	.st55{clip-path:url(#SVGID_140_);}
	.st56{clip-path:url(#SVGID_142_);}
	.st57{clip-path:url(#SVGID_144_);}
	.st58{clip-path:url(#SVGID_148_);}
	.st59{clip-path:url(#SVGID_150_);}
	.st60{clip-path:url(#SVGID_154_);enable-background:new    ;}
	.st61{clip-path:url(#SVGID_156_);}
	.st62{clip-path:url(#SVGID_158_);}
	.st63{clip-path:url(#SVGID_160_);}
	.st64{clip-path:url(#SVGID_162_);}
	.st65{clip-path:url(#SVGID_166_);}
	.st66{clip-path:url(#SVGID_168_);}
	.st67{clip-path:url(#SVGID_172_);enable-background:new    ;}
	.st68{clip-path:url(#SVGID_174_);}
	.st69{clip-path:url(#SVGID_176_);}
	.st70{clip-path:url(#SVGID_178_);}
	.st71{clip-path:url(#SVGID_180_);}
	.st72{clip-path:url(#SVGID_184_);}
	.st73{clip-path:url(#SVGID_186_);}
	.st74{clip-path:url(#SVGID_190_);enable-background:new    ;}
	.st75{clip-path:url(#SVGID_192_);}
	.st76{clip-path:url(#SVGID_194_);}
	.st77{clip-path:url(#SVGID_196_);}
	.st78{clip-path:url(#SVGID_198_);}
	.st79{clip-path:url(#SVGID_202_);}
	.st80{clip-path:url(#SVGID_204_);}
	.st81{clip-path:url(#SVGID_208_);enable-background:new    ;}
	.st82{clip-path:url(#SVGID_210_);}
	.st83{clip-path:url(#SVGID_212_);}
	.st84{clip-path:url(#SVGID_214_);}
	.st85{clip-path:url(#SVGID_216_);}
	.st86{clip-path:url(#SVGID_221_);}
	.st87{clip-path:url(#SVGID_223_);}
	.st88{clip-path:url(#SVGID_227_);enable-background:new    ;}
	.st89{clip-path:url(#SVGID_229_);}
	.st90{clip-path:url(#SVGID_231_);}
	.st91{clip-path:url(#SVGID_233_);}
	.st92{clip-path:url(#SVGID_235_);}
	.st93{clip-path:url(#SVGID_239_);}
	.st94{clip-path:url(#SVGID_241_);}
	.st95{clip-path:url(#SVGID_245_);enable-background:new    ;}
	.st96{clip-path:url(#SVGID_247_);}
	.st97{clip-path:url(#SVGID_249_);}
	.st98{clip-path:url(#SVGID_251_);}
	.st99{clip-path:url(#SVGID_253_);}
	.st100{clip-path:url(#SVGID_257_);}
	.st101{clip-path:url(#SVGID_259_);}
	.st102{clip-path:url(#SVGID_263_);enable-background:new    ;}
	.st103{clip-path:url(#SVGID_265_);}
	.st104{clip-path:url(#SVGID_267_);}
	.st105{clip-path:url(#SVGID_269_);}
	.st106{clip-path:url(#SVGID_271_);}
	.st107{clip-path:url(#SVGID_275_);}
	.st108{clip-path:url(#SVGID_277_);}
	.st109{clip-path:url(#SVGID_281_);enable-background:new    ;}
	.st110{clip-path:url(#SVGID_283_);}
	.st111{clip-path:url(#SVGID_285_);}
	.st112{clip-path:url(#SVGID_287_);}
	.st113{clip-path:url(#SVGID_289_);}
	.st114{clip-path:url(#SVGID_293_);}
	.st115{clip-path:url(#SVGID_295_);}
	.st116{clip-path:url(#SVGID_299_);enable-background:new    ;}
	.st117{clip-path:url(#SVGID_301_);}
	.st118{clip-path:url(#SVGID_303_);}
	.st119{clip-path:url(#SVGID_305_);}
	.st120{clip-path:url(#SVGID_307_);}
	.st121{clip-path:url(#SVGID_311_);}
	.st122{clip-path:url(#SVGID_313_);}
	.st123{clip-path:url(#SVGID_317_);enable-background:new    ;}
	.st124{clip-path:url(#SVGID_319_);}
	.st125{clip-path:url(#SVGID_321_);}
	.st126{clip-path:url(#SVGID_323_);}
	.st127{clip-path:url(#SVGID_325_);}
	.st128{clip-path:url(#SVGID_329_);}
	.st129{clip-path:url(#SVGID_331_);}
	.st130{clip-path:url(#SVGID_335_);enable-background:new    ;}
	.st131{clip-path:url(#SVGID_337_);}
	.st132{clip-path:url(#SVGID_339_);}
	.st133{clip-path:url(#SVGID_341_);}
	.st134{clip-path:url(#SVGID_343_);}
	.st135{clip-path:url(#SVGID_347_);}
	.st136{clip-path:url(#SVGID_349_);}
	.st137{clip-path:url(#SVGID_353_);enable-background:new    ;}
	.st138{clip-path:url(#SVGID_355_);}
	.st139{clip-path:url(#SVGID_357_);}
	.st140{clip-path:url(#SVGID_359_);}
	.st141{clip-path:url(#SVGID_361_);}
	.st142{clip-path:url(#SVGID_365_);}
	.st143{clip-path:url(#SVGID_367_);}
	.st144{clip-path:url(#SVGID_371_);enable-background:new    ;}
	.st145{clip-path:url(#SVGID_373_);}
	.st146{clip-path:url(#SVGID_375_);}
	.st147{clip-path:url(#SVGID_377_);}
	.st148{clip-path:url(#SVGID_379_);}
	.st149{clip-path:url(#SVGID_383_);}
	.st150{clip-path:url(#SVGID_385_);}
	.st151{clip-path:url(#SVGID_389_);enable-background:new    ;}
	.st152{clip-path:url(#SVGID_391_);}
	.st153{clip-path:url(#SVGID_393_);}
	.st154{clip-path:url(#SVGID_395_);}
	.st155{clip-path:url(#SVGID_397_);}
	.st156{clip-path:url(#SVGID_401_);}
	.st157{clip-path:url(#SVGID_403_);}
	.st158{clip-path:url(#SVGID_407_);enable-background:new    ;}
	.st159{clip-path:url(#SVGID_409_);}
	.st160{clip-path:url(#SVGID_411_);}
	.st161{clip-path:url(#SVGID_413_);}
	.st162{clip-path:url(#SVGID_415_);}
	.st163{clip-path:url(#SVGID_419_);}
	.st164{clip-path:url(#SVGID_421_);}
	.st165{clip-path:url(#SVGID_425_);enable-background:new    ;}
	.st166{clip-path:url(#SVGID_427_);}
	.st167{clip-path:url(#SVGID_429_);}
	.st168{clip-path:url(#SVGID_431_);}
	.st169{clip-path:url(#SVGID_433_);}
	.st170{clip-path:url(#SVGID_437_);}
	.st171{clip-path:url(#SVGID_439_);}
	.st172{clip-path:url(#SVGID_443_);enable-background:new    ;}
	.st173{clip-path:url(#SVGID_445_);}
	.st174{clip-path:url(#SVGID_447_);}
	.st175{clip-path:url(#SVGID_449_);}
	.st176{clip-path:url(#SVGID_451_);}
	.st177{clip-path:url(#SVGID_455_);}
	.st178{clip-path:url(#SVGID_457_);}
	.st179{clip-path:url(#SVGID_461_);enable-background:new    ;}
	.st180{clip-path:url(#SVGID_463_);}
	.st181{clip-path:url(#SVGID_465_);}
	.st182{clip-path:url(#SVGID_467_);}
	.st183{clip-path:url(#SVGID_469_);}
	.st184{clip-path:url(#SVGID_473_);}
	.st185{clip-path:url(#SVGID_475_);}
	.st186{clip-path:url(#SVGID_479_);enable-background:new    ;}
	.st187{clip-path:url(#SVGID_481_);}
	.st188{clip-path:url(#SVGID_483_);}
	.st189{clip-path:url(#SVGID_485_);}
	.st190{clip-path:url(#SVGID_487_);}
	.st191{clip-path:url(#SVGID_491_);}
	.st192{clip-path:url(#SVGID_493_);}
	.st193{clip-path:url(#SVGID_497_);enable-background:new    ;}
	.st194{clip-path:url(#SVGID_499_);}
	.st195{clip-path:url(#SVGID_501_);}
	.st196{clip-path:url(#SVGID_503_);}
	.st197{clip-path:url(#SVGID_505_);}
	.st198{clip-path:url(#SVGID_509_);}
	.st199{clip-path:url(#SVGID_511_);}
	.st200{clip-path:url(#SVGID_515_);enable-background:new    ;}
	.st201{clip-path:url(#SVGID_517_);}
	.st202{clip-path:url(#SVGID_519_);}
	.st203{clip-path:url(#SVGID_521_);}
	.st204{clip-path:url(#SVGID_523_);}
	.st205{clip-path:url(#SVGID_527_);}
	.st206{clip-path:url(#SVGID_529_);}
	.st207{clip-path:url(#SVGID_533_);enable-background:new    ;}
	.st208{clip-path:url(#SVGID_535_);}
	.st209{clip-path:url(#SVGID_537_);}
	.st210{clip-path:url(#SVGID_539_);}
	.st211{clip-path:url(#SVGID_541_);}
	.st212{clip-path:url(#SVGID_545_);}
	.st213{clip-path:url(#SVGID_547_);}
	.st214{clip-path:url(#SVGID_551_);enable-background:new    ;}
	.st215{clip-path:url(#SVGID_553_);}
	.st216{clip-path:url(#SVGID_555_);}
	.st217{clip-path:url(#SVGID_557_);}
	.st218{clip-path:url(#SVGID_559_);}
	.st219{clip-path:url(#SVGID_563_);}
	.st220{clip-path:url(#SVGID_565_);}
	.st221{clip-path:url(#SVGID_569_);enable-background:new    ;}
	.st222{clip-path:url(#SVGID_571_);}
	.st223{clip-path:url(#SVGID_573_);}
	.st224{clip-path:url(#SVGID_575_);}
	.st225{clip-path:url(#SVGID_577_);}
	.st226{clip-path:url(#SVGID_581_);}
	.st227{clip-path:url(#SVGID_583_);}
	.st228{clip-path:url(#SVGID_587_);enable-background:new    ;}
	.st229{clip-path:url(#SVGID_589_);}
	.st230{clip-path:url(#SVGID_591_);}
	.st231{clip-path:url(#SVGID_593_);}
	.st232{clip-path:url(#SVGID_595_);}
	.st233{clip-path:url(#SVGID_599_);}
	.st234{clip-path:url(#SVGID_601_);}
	.st235{clip-path:url(#SVGID_605_);enable-background:new    ;}
	.st236{clip-path:url(#SVGID_607_);}
	.st237{clip-path:url(#SVGID_609_);}
	.st238{clip-path:url(#SVGID_611_);}
	.st239{clip-path:url(#SVGID_613_);}
	.st240{clip-path:url(#SVGID_617_);}
	.st241{clip-path:url(#SVGID_619_);}
	.st242{clip-path:url(#SVGID_623_);enable-background:new    ;}
	.st243{clip-path:url(#SVGID_625_);}
	.st244{clip-path:url(#SVGID_627_);}
	.st245{clip-path:url(#SVGID_629_);}
	.st246{clip-path:url(#SVGID_631_);}
	.st247{clip-path:url(#SVGID_635_);}
	.st248{clip-path:url(#SVGID_637_);}
	.st249{clip-path:url(#SVGID_641_);enable-background:new    ;}
	.st250{clip-path:url(#SVGID_643_);}
	.st251{clip-path:url(#SVGID_645_);}
	.st252{clip-path:url(#SVGID_647_);}
	.st253{clip-path:url(#SVGID_649_);}
	.st254{clip-path:url(#SVGID_653_);}
	.st255{clip-path:url(#SVGID_655_);}
	.st256{opacity:0.75;enable-background:new    ;}
	.st257{clip-path:url(#SVGID_659_);enable-background:new    ;}
	.st258{clip-path:url(#SVGID_661_);}
	.st259{clip-path:url(#SVGID_663_);}
	.st260{clip-path:url(#SVGID_665_);}
	.st261{clip-path:url(#SVGID_667_);}
	.st262{clip-path:url(#SVGID_671_);}
	.st263{clip-path:url(#SVGID_673_);}
	.st264{clip-path:url(#SVGID_677_);enable-background:new    ;}
	.st265{clip-path:url(#SVGID_679_);}
	.st266{clip-path:url(#SVGID_681_);}
	.st267{clip-path:url(#SVGID_683_);}
	.st268{clip-path:url(#SVGID_685_);}
	.st269{clip-path:url(#SVGID_689_);}
	.st270{clip-path:url(#SVGID_691_);}
	.st271{clip-path:url(#SVGID_695_);enable-background:new    ;}
	.st272{clip-path:url(#SVGID_697_);}
	.st273{clip-path:url(#SVGID_699_);}
	.st274{clip-path:url(#SVGID_701_);}
	.st275{clip-path:url(#SVGID_703_);}
	.st276{clip-path:url(#SVGID_707_);}
	.st277{clip-path:url(#SVGID_709_);}
	.st278{clip-path:url(#SVGID_713_);enable-background:new    ;}
	.st279{clip-path:url(#SVGID_715_);}
	.st280{clip-path:url(#SVGID_717_);}
	.st281{clip-path:url(#SVGID_719_);}
	.st282{clip-path:url(#SVGID_721_);}
	.st283{clip-path:url(#SVGID_725_);}
	.st284{clip-path:url(#SVGID_727_);}
	.st285{clip-path:url(#SVGID_731_);enable-background:new    ;}
	.st286{clip-path:url(#SVGID_733_);}
	.st287{clip-path:url(#SVGID_735_);}
	.st288{clip-path:url(#SVGID_737_);}
	.st289{clip-path:url(#SVGID_739_);}
	.st290{clip-path:url(#SVGID_743_);}
	.st291{clip-path:url(#SVGID_745_);}
	.st292{clip-path:url(#SVGID_749_);enable-background:new    ;}
	.st293{clip-path:url(#SVGID_751_);}
	.st294{clip-path:url(#SVGID_753_);}
	.st295{clip-path:url(#SVGID_755_);}
	.st296{clip-path:url(#SVGID_757_);}
	.st297{clip-path:url(#SVGID_761_);}
	.st298{clip-path:url(#SVGID_763_);}
	.st299{clip-path:url(#SVGID_767_);enable-background:new    ;}
	.st300{clip-path:url(#SVGID_769_);}
	.st301{clip-path:url(#SVGID_771_);}
	.st302{clip-path:url(#SVGID_773_);}
	.st303{clip-path:url(#SVGID_775_);}
	.st304{clip-path:url(#SVGID_779_);}
	.st305{clip-path:url(#SVGID_781_);}
	.st306{clip-path:url(#SVGID_785_);enable-background:new    ;}
	.st307{clip-path:url(#SVGID_787_);}
	.st308{clip-path:url(#SVGID_789_);}
	.st309{clip-path:url(#SVGID_791_);}
	.st310{clip-path:url(#SVGID_793_);}
	.st311{clip-path:url(#SVGID_797_);}
	.st312{clip-path:url(#SVGID_799_);}
	.st313{clip-path:url(#SVGID_803_);enable-background:new    ;}
	.st314{clip-path:url(#SVGID_805_);}
	.st315{clip-path:url(#SVGID_807_);}
	.st316{clip-path:url(#SVGID_809_);}
	.st317{clip-path:url(#SVGID_811_);}
	.st318{clip-path:url(#SVGID_815_);}
	.st319{clip-path:url(#SVGID_817_);}
	.st320{clip-path:url(#SVGID_821_);enable-background:new    ;}
	.st321{clip-path:url(#SVGID_823_);}
	.st322{clip-path:url(#SVGID_825_);}
	.st323{clip-path:url(#SVGID_827_);}
	.st324{clip-path:url(#SVGID_829_);}
	.st325{clip-path:url(#SVGID_833_);}
	.st326{clip-path:url(#SVGID_835_);}
	.st327{clip-path:url(#SVGID_839_);enable-background:new    ;}
	.st328{clip-path:url(#SVGID_841_);}
	.st329{clip-path:url(#SVGID_843_);}
	.st330{clip-path:url(#SVGID_845_);}
	.st331{clip-path:url(#SVGID_847_);}
	.st332{clip-path:url(#SVGID_851_);}
	.st333{clip-path:url(#SVGID_853_);}
	.st334{clip-path:url(#SVGID_857_);enable-background:new    ;}
	.st335{clip-path:url(#SVGID_859_);}
	.st336{clip-path:url(#SVGID_861_);}
	.st337{clip-path:url(#SVGID_863_);}
	.st338{clip-path:url(#SVGID_865_);}
	.st339{clip-path:url(#SVGID_869_);}
	.st340{clip-path:url(#SVGID_871_);}
	.st341{clip-path:url(#SVGID_875_);enable-background:new    ;}
	.st342{clip-path:url(#SVGID_877_);}
	.st343{clip-path:url(#SVGID_879_);}
	.st344{clip-path:url(#SVGID_881_);}
	.st345{clip-path:url(#SVGID_883_);}
	.st346{clip-path:url(#SVGID_887_);}
	.st347{clip-path:url(#SVGID_889_);}
	.st348{clip-path:url(#SVGID_893_);enable-background:new    ;}
	.st349{clip-path:url(#SVGID_895_);}
	.st350{clip-path:url(#SVGID_897_);}
	.st351{clip-path:url(#SVGID_899_);}
	.st352{clip-path:url(#SVGID_901_);}
	.st353{clip-path:url(#SVGID_905_);}
	.st354{clip-path:url(#SVGID_907_);}
	.st355{clip-path:url(#SVGID_911_);enable-background:new    ;}
	.st356{clip-path:url(#SVGID_913_);}
	.st357{clip-path:url(#SVGID_915_);}
	.st358{clip-path:url(#SVGID_917_);}
	.st359{clip-path:url(#SVGID_919_);}
	.st360{fill:none;stroke:#000000;stroke-width:2.7997;stroke-miterlimit:10;}
</style>






















































































































<path
   id="path10292"
   style="fill:#000000"
   d="m 6342.3174,280.01562 c -2.0076,-0.0569 -4.2796,0.90255 -4.9237,2.95219 -0.4855,1.22463 -0.2715,2.57154 -0.4533,3.84078 -1.3936,1.31977 -1.2969,3.39825 -1.4904,5.15954 -0.5798,8.46082 -0.4804,16.94964 -0.4567,25.42522 0.081,6.85568 0.17,13.72338 0.7792,20.55506 0.035,0.74519 0.2573,1.50166 0.3261,2.21956 -1.0209,2.52666 -0.9577,5.31251 -1.1096,7.98934 -0.1072,4.12442 -0.092,8.29621 0.693,12.35955 0.1278,0.46679 0.3343,0.91243 0.036,1.364 -0.801,2.79615 -0.6302,5.74622 -0.7091,8.62343 7e-4,1.21286 -0.01,2.42728 -0.1132,3.63633 -0.7625,0.10317 -1.4926,0.53931 -2.1887,0.69702 -2.0872,-0.97385 -4.4512,-0.80723 -6.6922,-0.83178 -0.075,-3.38368 0.2646,-6.85559 -0.6445,-10.15625 -0.2591,-0.54692 0.2582,-1.13599 0.2741,-1.72294 0.6353,-3.08659 0.3622,-6.30431 -0.2975,-9.363 -0.5062,-2.12914 -1.7177,-4.06754 -3.461,-5.40039 -5.3606,-4.36531 -14.0369,-4.08005 -18.9016,0.91626 -1.8436,1.84361 -2.9186,4.39704 -2.9268,7.00688 -0.1365,3.3703 0.1174,6.7419 0.055,10.11395 0.011,4.52332 0.01,9.12346 -0.097,13.59768 -0.01,-1.81801 -0.8707,-3.80418 -2.6858,-4.45756 -2.0771,-0.85896 -4.3709,-0.42281 -6.552,-0.54049 -1.1193,0 -2.2386,0 -3.3579,0 -0.4615,4.66258 -0.9189,9.32555 -1.3789,13.98828 -16.4981,-0.0869 -33,0.0679 -49.4945,-0.35262 -2.5939,-0.0982 -5.1444,-0.14132 -7.7262,-0.39152 -1.8806,-1.77656 -5.2173,-1.63277 -6.9101,0.33594 -4.7084,0.54496 -9.463,0.43571 -14.1927,0.33706 -1.569,-0.0472 -3.1205,-0.12367 -4.5866,-0.32925 -1.7965,-2.12578 -5.5087,-2.10715 -7.2715,0.0527 -3.7859,0.50709 -7.6371,0.32353 -11.4988,0.35288 -0.3927,-0.1215 -1.3118,0.29265 -1.2726,-0.29664 -0.5652,-7.48877 -1.0264,-14.93515 -1.117,-22.43547 -0.1671,-2.17218 -0.1884,-4.53572 -1.4351,-6.41026 -0.7202,-0.74464 -0.4358,-1.88916 -0.5467,-2.82729 0.034,-1.84245 -0.8703,-3.83902 -2.6865,-4.51324 -1.7883,-0.71492 -3.7689,-0.49472 -5.6484,-0.45363 -1.8741,0.0755 -3.7983,1.18847 -4.3223,3.07575 -0.3663,1.16882 -0.2912,2.40952 -0.3515,3.61728 -1.5693,1.4827 -1.4827,3.82047 -1.6992,5.80664 -0.3689,6.9878 -0.3928,14.00361 0.085,20.98637 0.084,1.05824 0.2304,2.12377 0.5903,3.12691 -2.1394,0.4921 -4.3683,0.25855 -6.5473,0.33008 -0.4484,-0.153 -1.5728,0.37322 -1.4038,-0.4 -0.045,-5.96136 0.253,-11.97183 -0.672,-17.8832 -0.1396,-0.95083 -0.7304,-1.72739 -1.0976,-2.57618 -0.9692,-3.08169 -0.7149,-6.40673 -1.8965,-9.43359 -0.8462,-1.78222 -2.8423,-2.79365 -4.7777,-2.67346 -2.098,-0.0784 -4.5276,-0.18148 -6.1774,1.34924 -1.2091,1.16996 -1.4204,2.93546 -1.4024,4.53125 -0.054,0.69098 -0.7448,1.05177 -0.9082,1.7168 -0.7838,1.97908 -0.7324,4.1577 -0.9014,6.24779 -0.2728,5.83685 -0.2839,11.70624 0.3207,17.52268 -0.055,0.41241 0.3612,1.09417 0.05,1.31351 -1.4177,0.36431 -2.9201,0.29474 -4.334,-0.0488 0.795,-3.27655 0.717,-6.68015 0.7868,-10.0288 0,-3.28567 -0.014,-6.61484 -0.7106,-9.83839 -0.2051,-0.75531 -0.584,-1.47796 -1.1621,-2.00781 -0.2528,-2.0956 0.136,-4.48622 -1.3321,-6.23047 -0.6537,-0.77571 -1.5978,-1.27464 -2.5879,-1.46289 -0.333,-4.08969 -0.087,-8.19843 -0.2451,-12.29565 -0.085,-2.94006 -0.1686,-5.91879 -0.8506,-8.79029 -0.154,-0.72857 -0.7721,-1.2391 -0.9804,-1.91992 -0.2377,-1.73883 0.085,-3.68356 -1.0371,-5.18946 -1.2252,-1.72744 -3.5266,-1.96703 -5.4762,-1.89592 -1.9822,-0.0634 -4.321,0.0949 -5.6215,1.81585 -1.2482,1.56858 -0.7744,3.66208 -1.1481,5.48309 -0.3965,0.69189 -0.9011,1.38836 -1.0005,2.22239 -0.4778,3.20115 -0.5011,6.45344 -0.6468,9.68338 -0.2625,9.66394 -0.242,19.33544 -0.043,29.00043 0.1346,3.68271 0.1792,7.3829 0.6607,11.04039 0.077,0.47376 -0.8595,0.29347 -1.2106,0.45169 -2.3809,0.34241 -4.8134,0.41631 -7.2074,0.17527 -1.2378,-1.89277 -3.9315,-2.31231 -5.8965,-1.39453 -1.9084,-0.86868 -4.4904,-0.53522 -5.7656,1.24609 -3.7557,0.52968 -7.6415,-0.024 -11.3166,1.09606 -0.5977,0.30152 -1.1066,-0.37536 -1.7192,-0.42741 -1.2915,-0.38842 -2.6537,-0.35122 -3.9857,-0.44795 -1.1539,-2.90376 -5.1884,-3.81069 -7.672,-2.07366 -0.7114,0.46439 -1.3024,1.12435 -1.6522,1.90179 -3.7327,0.37968 -7.4922,0.14959 -11.2371,0.2207 -0.7693,0.14917 -1.1943,-0.0648 -1.0316,-0.89872 -0.506,-9.297 -1.0087,-18.53704 -1.1218,-27.84914 -0.09,-2.29934 -0.031,-4.68392 -0.8269,-6.87576 -0.2339,-0.66256 -0.6697,-1.21873 -1.1381,-1.71036 0.012,-1.92639 -0.011,-4.21852 -1.664,-5.53516 -1.8518,-1.44344 -4.3236,-1.1059 -6.5117,-1.08452 -2.0223,0.11243 -3.9895,1.49351 -4.4582,3.52126 -1.0096,3.42336 -0.9314,7.03845 -1.1258,10.57108 -0.3665,9.95211 -0.2279,19.91268 -0.2539,29.86913 -1.6547,0.0185 -3.411,0.26195 -4.7911,1.24219 -1.9069,0.0849 -3.8145,-0.15572 -5.6816,-0.5293 0.8021,-2.71975 0.3412,-5.58337 0.4785,-8.36914 0.032,-0.94008 -0.954,-1.65172 -1.8359,-1.35156 -5.0619,0 -10.1237,0 -15.1856,0 0.1413,3.06966 -0.2674,6.18406 0.3321,9.21875 0.1367,0.54547 0.339,1.08547 0.5293,1.60547 -1.412,2.49689 -0.6357,5.56815 0.64,7.95086 1.7214,3.3013 4.8382,6.07749 8.6255,6.57963 3.7344,0.68886 7.6192,0.89081 11.3614,0.16091 0.5849,-0.0907 1.1357,-0.45386 1.6797,-0.54882 3.3594,0.72886 6.8201,0.7211 10.2385,0.89289 10.1446,0.34178 20.3069,0.33774 30.4456,-0.16615 2.3441,-0.0965 4.6913,-0.31637 6.98,-0.83416 2.7054,0.30749 5.4403,0.30283 8.1601,0.4414 15.7691,0.4328 31.5454,0.50284 47.3191,0.64104 36.1164,0.22597 72.2342,0.21336 108.3508,0.0256 16.5904,-0.11261 33.183,-0.22404 49.7679,-0.68796 2.3808,-0.0817 4.834,-0.21189 7.1482,-0.48262 2.7761,0.45298 5.618,0.4511 8.4289,0.55294 22.0691,0.58125 44.1478,0.61426 66.223,0.71755 36.141,0.0963 72.2838,0.0629 108.4224,-0.40031 8.2045,-0.13678 16.4172,-0.19851 24.609,-0.69387 0.9131,-0.0595 1.8181,-0.36353 2.7185,-0.065 2.8375,0.39535 5.6635,0.38184 8.5031,0.514 18.0029,0.56099 36.0168,0.59023 54.0267,0.67557 24.1037,0.0535 48.2099,0.004 72.3094,-0.48089 5.0363,-0.12301 10.0831,-0.2073 15.1004,-0.67247 0.7328,-0.16086 1.4594,-0.25521 2.1972,-0.0732 4.0215,0.36683 8.0682,0.33106 12.1021,0.46978 18.2257,0.38249 36.456,0.4666 54.6849,0.58395 42.7475,0.21793 85.4968,0.24282 128.2437,-0.0903 10.6139,-0.10101 21.2326,-0.16848 31.8382,-0.61227 1.2133,-0.1301 2.5686,-0.10729 3.53,-0.9723 1.4461,-0.5061 3.0994,-0.0241 4.5453,-0.63096 1.7705,-0.57763 2.789,-2.39978 2.8839,-4.18453 0.076,-1.77284 0.223,-3.61091 -0.2808,-5.33685 -0.5297,-1.88195 -2.4548,-3.00494 -4.3342,-3.04979 -1.145,-0.12153 -2.364,0.0952 -3.4549,-0.28615 -1.3341,-1.22513 -3.2873,-1.10135 -4.9705,-1.28531 -7.9278,-0.50061 -15.8772,-0.45427 -23.8173,-0.51914 -10.8352,-0.0742 -21.6792,0.0401 -32.5044,-0.50221 -0.7458,-0.11874 -1.6469,0.11368 -2.1746,-0.54295 -1.9418,-1.42883 -4.9739,-1.16176 -6.5371,0.71094 -4.4093,0.54474 -8.8664,0.37145 -13.2969,0.29297 -0.7415,0.18345 -0.7312,-0.44375 -0.8886,-0.98047 -0.3055,-0.89771 -0.8551,-1.72885 -1.6231,-2.29493 -0.1095,-1.70176 0.025,-3.61248 -1.1785,-4.99138 -1.3671,-1.6574 -3.7018,-1.71266 -5.6752,-1.64361 -1.8413,-6e-5 -3.8829,0.77004 -4.6521,2.57054 -0.6252,1.27129 -0.4656,2.71931 -0.5938,4.08594 -1.0552,0.73341 -1.6622,1.97366 -1.8515,3.2207 -3.0772,0.18637 -6.1766,0.17355 -9.2471,-0.10595 -0.7553,0.0995 -0.9865,-0.74537 -1.5968,-1.0282 -0.6738,-0.44573 -1.4757,-0.68059 -2.2792,-0.72132 -0.1413,-1.99351 -1.1241,-4.17548 -3.1621,-4.82812 -2.2431,-0.79329 -4.8977,0.71842 -5.4172,3.02943 -0.3719,1.21935 -0.4024,2.50629 -0.3953,3.77135 -4.0033,0 -8.0065,0 -12.0098,0 0.023,-2.28274 0.1115,-4.87529 -1.4713,-6.71555 -1.2355,-1.3401 -3.3907,-1.66245 -4.9877,-0.80203 -1.6651,-1.19999 -4.2613,-0.70484 -5.2829,1.10535 -1.2678,1.87599 -1.2525,4.23771 -1.2424,6.41223 -18.8574,-0.0319 -37.7157,0.0761 -56.5724,-0.0965 -3.4168,-0.073 -6.8635,-0.0359 -10.2401,-0.61248 -0.897,-0.51402 -1.4204,-1.49572 -2.3288,-2.01728 -1.6311,-1.22174 -3.9263,-1.56853 -5.7593,-0.59066 -1.4881,0.68469 -2.4237,2.11598 -3.7576,3.00247 -1.0645,0.53341 -2.3129,0.29395 -3.4082,0.75781 -0.6676,0.22198 -1.3131,0.51486 -1.9063,0.89453 -1.9907,-0.77531 -4.1749,-0.71403 -6.2729,-0.88929 -9.9338,-0.50638 -19.8859,-0.41803 -29.8294,-0.52888 -8.6652,-0.10643 -17.3546,-0.15689 -25.9817,-0.6912 -0.5743,-0.27026 -1.0925,-0.79655 -1.7593,-0.9523 -1.8176,-0.63213 -4.0325,-0.17131 -5.3051,1.31362 -4.8486,0.56175 -9.746,0.43436 -14.6147,0.28113 -1.0567,-0.0843 -2.1958,-0.0553 -3.1939,-0.33191 -1.812,-2.06986 -5.4592,-2.04258 -7.2168,0.084 -4.4094,0.54474 -8.8664,0.37145 -13.2969,0.29297 -0.6706,0.15988 -0.7273,-0.34374 -0.8594,-0.85352 -0.6551,-2.05338 -2.9504,-3.5159 -5.0781,-2.88086 -0.434,0.0663 -0.7255,-0.56558 -1.1769,-0.68677 -1.7035,-0.99726 -4.0707,-0.55816 -5.2401,1.05466 -0.757,0.94271 -1.0976,2.15311 -1.1826,3.34305 -3.6321,0.20306 -7.2744,0.0847 -10.9102,0.0566 -0.471,-0.0161 -0.9421,-0.0432 -1.4101,-0.0996 -0.5596,-2.60793 -2.9614,-4.92546 -5.7403,-4.70899 -1.2953,0.0581 -2.5271,0.80333 -3.2128,1.89844 -1.9346,-0.19105 -3.9407,1.05354 -4.5215,2.92969 -1.7959,0.0181 -3.6613,0.21794 -5.291,0.98437 -2.167,-0.98813 -4.598,-0.92114 -6.9258,-0.97851 -0.017,-2.31022 -1.045,-4.89125 -3.3338,-5.78744 -0.4194,-0.15963 -0.9162,-0.13757 -0.8752,-0.71451 -0.4495,-1.78157 -2.026,-3.20834 -3.8823,-3.3341 -1.713,-0.23226 -3.4747,-0.19266 -5.1783,0.0821 -1.98,0.48151 -3.3688,2.33234 -3.6207,4.30546 -0.4003,1.82694 -0.5629,3.69295 -0.8246,5.5422 -35.8652,-0.0953 -71.731,-0.0727 -107.5957,-0.31055 -7.5538,-0.1007 -15.1572,-0.11245 -22.6644,-0.53816 -0.5069,-0.0526 -1.081,-0.0495 -1.5504,-0.14543 0.5775,-3.64367 0.4664,-7.35113 0.5044,-11.02851 -0.036,-3.40764 -0.042,-6.85524 -0.7232,-10.20587 -0.2118,-0.77437 -0.5804,-1.52947 -1.1953,-2.0625 -0.1553,-1.74049 -0.012,-3.68588 -1.209,-5.11914 -0.6721,-0.84732 -1.6853,-1.38578 -2.7422,-1.56836 -0.3605,-3.78938 -0.2377,-7.60473 -0.3339,-11.40625 -0.065,-3.30666 0.049,-6.61154 0.1685,-9.91467 0.2062,-11.94922 0.04,-23.90125 -0.1371,-35.84974 -0.097,-4.24125 -0.096,-8.49684 -0.5077,-12.72033 -0.2788,-2.1533 -0.4872,-4.64587 -2.3069,-6.11487 -1.6124,-1.27781 -3.7814,-1.0732 -5.7051,-1.06836 z" />
</svg>
