<?xml version="1.0" encoding="UTF-8" standalone="no"?>
<!-- Generator: Adobe Illustrator 23.0.1, SVG Export Plug-In . SVG Version: 6.00 Build 0)  -->

<svg
   version="1.1"
   id="Baseline"
   x="0px"
   y="0px"
   width="9451.5px"
   height="623.5px"
   viewBox="0 0 9451.5 623.5"
   style="enable-background:new 0 0 9451.5 623.5;"
   xml:space="preserve"
   sodipodi:docname="48_class 1 cities _sewage_mask-01-wOffset.svg"
   inkscape:version="1.1.1 (c3084ef, 2021-09-22)"
   xmlns:inkscape="http://www.inkscape.org/namespaces/inkscape"
   xmlns:sodipodi="http://sodipodi.sourceforge.net/DTD/sodipodi-0.dtd"
   xmlns="http://www.w3.org/2000/svg"
   xmlns:svg="http://www.w3.org/2000/svg"><defs
   id="defs6750" /><sodipodi:namedview
   id="namedview6748"
   pagecolor="#505050"
   bordercolor="#eeeeee"
   borderopacity="1"
   inkscape:pageshadow="0"
   inkscape:pageopacity="0"
   inkscape:pagecheckerboard="0"
   showgrid="false"
   inkscape:zoom="1.0084145"
   inkscape:cx="6459.1495"
   inkscape:cy="321.29645"
   inkscape:window-width="1312"
   inkscape:window-height="762"
   inkscape:window-x="0"
   inkscape:window-y="25"
   inkscape:window-maximized="0"
   inkscape:current-layer="Baseline" />
<style
   type="text/css"
   id="style824">
	.st0{opacity:0.75;}
	.st1{clip-path:url(#SVGID_3_);}
	.st2{clip-path:url(#SVGID_5_);}
	.st3{clip-path:url(#SVGID_10_);enable-background:new    ;}
	.st4{clip-path:url(#SVGID_12_);}
	.st5{clip-path:url(#SVGID_14_);}
	.st6{fill:#020202;}
	.st7{clip-path:url(#SVGID_16_);}
	.st8{clip-path:url(#SVGID_18_);}
	.st9{clip-path:url(#SVGID_22_);}
	.st10{clip-path:url(#SVGID_24_);}
	.st11{clip-path:url(#SVGID_28_);enable-background:new    ;}
	.st12{clip-path:url(#SVGID_30_);}
	.st13{clip-path:url(#SVGID_32_);}
	.st14{clip-path:url(#SVGID_34_);}
	.st15{clip-path:url(#SVGID_36_);}
	.st16{clip-path:url(#SVGID_40_);}
	.st17{clip-path:url(#SVGID_42_);}
	.st18{clip-path:url(#SVGID_46_);enable-background:new    ;}
	.st19{clip-path:url(#SVGID_48_);}
	.st20{clip-path:url(#SVGID_50_);}
	.st21{clip-path:url(#SVGID_52_);}
	.st22{clip-path:url(#SVGID_54_);}
	.st23{clip-path:url(#SVGID_58_);}
	.st24{clip-path:url(#SVGID_60_);}
	.st25{clip-path:url(#SVGID_64_);enable-background:new    ;}
	.st26{clip-path:url(#SVGID_66_);}
	.st27{clip-path:url(#SVGID_68_);}
	.st28{clip-path:url(#SVGID_70_);}
	.st29{clip-path:url(#SVGID_72_);}
	.st30{clip-path:url(#SVGID_76_);}
	.st31{clip-path:url(#SVGID_78_);}
	.st32{clip-path:url(#SVGID_82_);enable-background:new    ;}
	.st33{clip-path:url(#SVGID_84_);}
	.st34{clip-path:url(#SVGID_86_);}
	.st35{clip-path:url(#SVGID_88_);}
	.st36{clip-path:url(#SVGID_90_);}
	.st37{clip-path:url(#SVGID_94_);}
	.st38{clip-path:url(#SVGID_96_);}
	.st39{clip-path:url(#SVGID_100_);enable-background:new    ;}
	.st40{clip-path:url(#SVGID_102_);}
	.st41{clip-path:url(#SVGID_104_);}
	.st42{clip-path:url(#SVGID_106_);}
	.st43{clip-path:url(#SVGID_108_);}
	.st44{clip-path:url(#SVGID_112_);}
	.st45{clip-path:url(#SVGID_114_);}
	.st46{clip-path:url(#SVGID_118_);enable-background:new    ;}
	.st47{clip-path:url(#SVGID_120_);}
	.st48{clip-path:url(#SVGID_122_);}
	.st49{clip-path:url(#SVGID_124_);}
	.st50{clip-path:url(#SVGID_126_);}
	.st51{clip-path:url(#SVGID_130_);}
	.st52{clip-path:url(#SVGID_132_);}
	.st53{clip-path:url(#SVGID_136_);enable-background:new    ;}
	.st54{clip-path:url(#SVGID_138_);}
	.st55{clip-path:url(#SVGID_140_);}
	.st56{clip-path:url(#SVGID_142_);}
	.st57{clip-path:url(#SVGID_144_);}
	.st58{clip-path:url(#SVGID_148_);}
	.st59{clip-path:url(#SVGID_150_);}
	.st60{clip-path:url(#SVGID_154_);enable-background:new    ;}
	.st61{clip-path:url(#SVGID_156_);}
	.st62{clip-path:url(#SVGID_158_);}
	.st63{clip-path:url(#SVGID_160_);}
	.st64{clip-path:url(#SVGID_162_);}
	.st65{clip-path:url(#SVGID_166_);}
	.st66{clip-path:url(#SVGID_168_);}
	.st67{clip-path:url(#SVGID_172_);enable-background:new    ;}
	.st68{clip-path:url(#SVGID_174_);}
	.st69{clip-path:url(#SVGID_176_);}
	.st70{clip-path:url(#SVGID_178_);}
	.st71{clip-path:url(#SVGID_180_);}
	.st72{clip-path:url(#SVGID_184_);}
	.st73{clip-path:url(#SVGID_186_);}
	.st74{clip-path:url(#SVGID_190_);enable-background:new    ;}
	.st75{clip-path:url(#SVGID_192_);}
	.st76{clip-path:url(#SVGID_194_);}
	.st77{clip-path:url(#SVGID_196_);}
	.st78{clip-path:url(#SVGID_198_);}
	.st79{clip-path:url(#SVGID_202_);}
	.st80{clip-path:url(#SVGID_204_);}
	.st81{clip-path:url(#SVGID_208_);enable-background:new    ;}
	.st82{clip-path:url(#SVGID_210_);}
	.st83{clip-path:url(#SVGID_212_);}
	.st84{clip-path:url(#SVGID_214_);}
	.st85{clip-path:url(#SVGID_216_);}
	.st86{clip-path:url(#SVGID_221_);}
	.st87{clip-path:url(#SVGID_223_);}
	.st88{clip-path:url(#SVGID_227_);enable-background:new    ;}
	.st89{clip-path:url(#SVGID_229_);}
	.st90{clip-path:url(#SVGID_231_);}
	.st91{clip-path:url(#SVGID_233_);}
	.st92{clip-path:url(#SVGID_235_);}
	.st93{clip-path:url(#SVGID_239_);}
	.st94{clip-path:url(#SVGID_241_);}
	.st95{clip-path:url(#SVGID_245_);enable-background:new    ;}
	.st96{clip-path:url(#SVGID_247_);}
	.st97{clip-path:url(#SVGID_249_);}
	.st98{clip-path:url(#SVGID_251_);}
	.st99{clip-path:url(#SVGID_253_);}
	.st100{clip-path:url(#SVGID_257_);}
	.st101{clip-path:url(#SVGID_259_);}
	.st102{clip-path:url(#SVGID_263_);enable-background:new    ;}
	.st103{clip-path:url(#SVGID_265_);}
	.st104{clip-path:url(#SVGID_267_);}
	.st105{clip-path:url(#SVGID_269_);}
	.st106{clip-path:url(#SVGID_271_);}
	.st107{clip-path:url(#SVGID_275_);}
	.st108{clip-path:url(#SVGID_277_);}
	.st109{clip-path:url(#SVGID_281_);enable-background:new    ;}
	.st110{clip-path:url(#SVGID_283_);}
	.st111{clip-path:url(#SVGID_285_);}
	.st112{clip-path:url(#SVGID_287_);}
	.st113{clip-path:url(#SVGID_289_);}
	.st114{clip-path:url(#SVGID_293_);}
	.st115{clip-path:url(#SVGID_295_);}
	.st116{clip-path:url(#SVGID_299_);enable-background:new    ;}
	.st117{clip-path:url(#SVGID_301_);}
	.st118{clip-path:url(#SVGID_303_);}
	.st119{clip-path:url(#SVGID_305_);}
	.st120{clip-path:url(#SVGID_307_);}
	.st121{clip-path:url(#SVGID_311_);}
	.st122{clip-path:url(#SVGID_313_);}
	.st123{clip-path:url(#SVGID_317_);enable-background:new    ;}
	.st124{clip-path:url(#SVGID_319_);}
	.st125{clip-path:url(#SVGID_321_);}
	.st126{clip-path:url(#SVGID_323_);}
	.st127{clip-path:url(#SVGID_325_);}
	.st128{clip-path:url(#SVGID_329_);}
	.st129{clip-path:url(#SVGID_331_);}
	.st130{clip-path:url(#SVGID_335_);enable-background:new    ;}
	.st131{clip-path:url(#SVGID_337_);}
	.st132{clip-path:url(#SVGID_339_);}
	.st133{clip-path:url(#SVGID_341_);}
	.st134{clip-path:url(#SVGID_343_);}
	.st135{clip-path:url(#SVGID_347_);}
	.st136{clip-path:url(#SVGID_349_);}
	.st137{clip-path:url(#SVGID_353_);enable-background:new    ;}
	.st138{clip-path:url(#SVGID_355_);}
	.st139{clip-path:url(#SVGID_357_);}
	.st140{clip-path:url(#SVGID_359_);}
	.st141{clip-path:url(#SVGID_361_);}
	.st142{clip-path:url(#SVGID_365_);}
	.st143{clip-path:url(#SVGID_367_);}
	.st144{clip-path:url(#SVGID_371_);enable-background:new    ;}
	.st145{clip-path:url(#SVGID_373_);}
	.st146{clip-path:url(#SVGID_375_);}
	.st147{clip-path:url(#SVGID_377_);}
	.st148{clip-path:url(#SVGID_379_);}
	.st149{clip-path:url(#SVGID_383_);}
	.st150{clip-path:url(#SVGID_385_);}
	.st151{clip-path:url(#SVGID_389_);enable-background:new    ;}
	.st152{clip-path:url(#SVGID_391_);}
	.st153{clip-path:url(#SVGID_393_);}
	.st154{clip-path:url(#SVGID_395_);}
	.st155{clip-path:url(#SVGID_397_);}
	.st156{clip-path:url(#SVGID_401_);}
	.st157{clip-path:url(#SVGID_403_);}
	.st158{clip-path:url(#SVGID_407_);enable-background:new    ;}
	.st159{clip-path:url(#SVGID_409_);}
	.st160{clip-path:url(#SVGID_411_);}
	.st161{clip-path:url(#SVGID_413_);}
	.st162{clip-path:url(#SVGID_415_);}
	.st163{clip-path:url(#SVGID_419_);}
	.st164{clip-path:url(#SVGID_421_);}
	.st165{clip-path:url(#SVGID_425_);enable-background:new    ;}
	.st166{clip-path:url(#SVGID_427_);}
	.st167{clip-path:url(#SVGID_429_);}
	.st168{clip-path:url(#SVGID_431_);}
	.st169{clip-path:url(#SVGID_433_);}
	.st170{clip-path:url(#SVGID_437_);}
	.st171{clip-path:url(#SVGID_439_);}
	.st172{clip-path:url(#SVGID_443_);enable-background:new    ;}
	.st173{clip-path:url(#SVGID_445_);}
	.st174{clip-path:url(#SVGID_447_);}
	.st175{clip-path:url(#SVGID_449_);}
	.st176{clip-path:url(#SVGID_451_);}
	.st177{clip-path:url(#SVGID_455_);}
	.st178{clip-path:url(#SVGID_457_);}
	.st179{clip-path:url(#SVGID_461_);enable-background:new    ;}
	.st180{clip-path:url(#SVGID_463_);}
	.st181{clip-path:url(#SVGID_465_);}
	.st182{clip-path:url(#SVGID_467_);}
	.st183{clip-path:url(#SVGID_469_);}
	.st184{clip-path:url(#SVGID_473_);}
	.st185{clip-path:url(#SVGID_475_);}
	.st186{clip-path:url(#SVGID_479_);enable-background:new    ;}
	.st187{clip-path:url(#SVGID_481_);}
	.st188{clip-path:url(#SVGID_483_);}
	.st189{clip-path:url(#SVGID_485_);}
	.st190{clip-path:url(#SVGID_487_);}
	.st191{clip-path:url(#SVGID_491_);}
	.st192{clip-path:url(#SVGID_493_);}
	.st193{clip-path:url(#SVGID_497_);enable-background:new    ;}
	.st194{clip-path:url(#SVGID_499_);}
	.st195{clip-path:url(#SVGID_501_);}
	.st196{clip-path:url(#SVGID_503_);}
	.st197{clip-path:url(#SVGID_505_);}
	.st198{clip-path:url(#SVGID_509_);}
	.st199{clip-path:url(#SVGID_511_);}
	.st200{clip-path:url(#SVGID_515_);enable-background:new    ;}
	.st201{clip-path:url(#SVGID_517_);}
	.st202{clip-path:url(#SVGID_519_);}
	.st203{clip-path:url(#SVGID_521_);}
	.st204{clip-path:url(#SVGID_523_);}
	.st205{clip-path:url(#SVGID_527_);}
	.st206{clip-path:url(#SVGID_529_);}
	.st207{clip-path:url(#SVGID_533_);enable-background:new    ;}
	.st208{clip-path:url(#SVGID_535_);}
	.st209{clip-path:url(#SVGID_537_);}
	.st210{clip-path:url(#SVGID_539_);}
	.st211{clip-path:url(#SVGID_541_);}
	.st212{clip-path:url(#SVGID_545_);}
	.st213{clip-path:url(#SVGID_547_);}
	.st214{clip-path:url(#SVGID_551_);enable-background:new    ;}
	.st215{clip-path:url(#SVGID_553_);}
	.st216{clip-path:url(#SVGID_555_);}
	.st217{clip-path:url(#SVGID_557_);}
	.st218{clip-path:url(#SVGID_559_);}
	.st219{clip-path:url(#SVGID_563_);}
	.st220{clip-path:url(#SVGID_565_);}
	.st221{clip-path:url(#SVGID_569_);enable-background:new    ;}
	.st222{clip-path:url(#SVGID_571_);}
	.st223{clip-path:url(#SVGID_573_);}
	.st224{clip-path:url(#SVGID_575_);}
	.st225{clip-path:url(#SVGID_577_);}
	.st226{clip-path:url(#SVGID_581_);}
	.st227{clip-path:url(#SVGID_583_);}
	.st228{clip-path:url(#SVGID_587_);enable-background:new    ;}
	.st229{clip-path:url(#SVGID_589_);}
	.st230{clip-path:url(#SVGID_591_);}
	.st231{clip-path:url(#SVGID_593_);}
	.st232{clip-path:url(#SVGID_595_);}
	.st233{clip-path:url(#SVGID_599_);}
	.st234{clip-path:url(#SVGID_601_);}
	.st235{clip-path:url(#SVGID_605_);enable-background:new    ;}
	.st236{clip-path:url(#SVGID_607_);}
	.st237{clip-path:url(#SVGID_609_);}
	.st238{clip-path:url(#SVGID_611_);}
	.st239{clip-path:url(#SVGID_613_);}
	.st240{clip-path:url(#SVGID_617_);}
	.st241{clip-path:url(#SVGID_619_);}
	.st242{clip-path:url(#SVGID_623_);enable-background:new    ;}
	.st243{clip-path:url(#SVGID_625_);}
	.st244{clip-path:url(#SVGID_627_);}
	.st245{clip-path:url(#SVGID_629_);}
	.st246{clip-path:url(#SVGID_631_);}
	.st247{clip-path:url(#SVGID_635_);}
	.st248{clip-path:url(#SVGID_637_);}
	.st249{clip-path:url(#SVGID_641_);enable-background:new    ;}
	.st250{clip-path:url(#SVGID_643_);}
	.st251{clip-path:url(#SVGID_645_);}
	.st252{clip-path:url(#SVGID_647_);}
	.st253{clip-path:url(#SVGID_649_);}
	.st254{clip-path:url(#SVGID_653_);}
	.st255{clip-path:url(#SVGID_655_);}
	.st256{opacity:0.75;enable-background:new    ;}
	.st257{clip-path:url(#SVGID_659_);enable-background:new    ;}
	.st258{clip-path:url(#SVGID_661_);}
	.st259{clip-path:url(#SVGID_663_);}
	.st260{clip-path:url(#SVGID_665_);}
	.st261{clip-path:url(#SVGID_667_);}
	.st262{clip-path:url(#SVGID_671_);}
	.st263{clip-path:url(#SVGID_673_);}
	.st264{clip-path:url(#SVGID_677_);enable-background:new    ;}
	.st265{clip-path:url(#SVGID_679_);}
	.st266{clip-path:url(#SVGID_681_);}
	.st267{clip-path:url(#SVGID_683_);}
	.st268{clip-path:url(#SVGID_685_);}
	.st269{clip-path:url(#SVGID_689_);}
	.st270{clip-path:url(#SVGID_691_);}
	.st271{clip-path:url(#SVGID_695_);enable-background:new    ;}
	.st272{clip-path:url(#SVGID_697_);}
	.st273{clip-path:url(#SVGID_699_);}
	.st274{clip-path:url(#SVGID_701_);}
	.st275{clip-path:url(#SVGID_703_);}
	.st276{clip-path:url(#SVGID_707_);}
	.st277{clip-path:url(#SVGID_709_);}
	.st278{clip-path:url(#SVGID_713_);enable-background:new    ;}
	.st279{clip-path:url(#SVGID_715_);}
	.st280{clip-path:url(#SVGID_717_);}
	.st281{clip-path:url(#SVGID_719_);}
	.st282{clip-path:url(#SVGID_721_);}
	.st283{clip-path:url(#SVGID_725_);}
	.st284{clip-path:url(#SVGID_727_);}
	.st285{clip-path:url(#SVGID_731_);enable-background:new    ;}
	.st286{clip-path:url(#SVGID_733_);}
	.st287{clip-path:url(#SVGID_735_);}
	.st288{clip-path:url(#SVGID_737_);}
	.st289{clip-path:url(#SVGID_739_);}
	.st290{clip-path:url(#SVGID_743_);}
	.st291{clip-path:url(#SVGID_745_);}
	.st292{clip-path:url(#SVGID_749_);enable-background:new    ;}
	.st293{clip-path:url(#SVGID_751_);}
	.st294{clip-path:url(#SVGID_753_);}
	.st295{clip-path:url(#SVGID_755_);}
	.st296{clip-path:url(#SVGID_757_);}
	.st297{clip-path:url(#SVGID_761_);}
	.st298{clip-path:url(#SVGID_763_);}
	.st299{clip-path:url(#SVGID_767_);enable-background:new    ;}
	.st300{clip-path:url(#SVGID_769_);}
	.st301{clip-path:url(#SVGID_771_);}
	.st302{clip-path:url(#SVGID_773_);}
	.st303{clip-path:url(#SVGID_775_);}
	.st304{clip-path:url(#SVGID_779_);}
	.st305{clip-path:url(#SVGID_781_);}
	.st306{clip-path:url(#SVGID_785_);enable-background:new    ;}
	.st307{clip-path:url(#SVGID_787_);}
	.st308{clip-path:url(#SVGID_789_);}
	.st309{clip-path:url(#SVGID_791_);}
	.st310{clip-path:url(#SVGID_793_);}
	.st311{clip-path:url(#SVGID_797_);}
	.st312{clip-path:url(#SVGID_799_);}
	.st313{clip-path:url(#SVGID_803_);enable-background:new    ;}
	.st314{clip-path:url(#SVGID_805_);}
	.st315{clip-path:url(#SVGID_807_);}
	.st316{clip-path:url(#SVGID_809_);}
	.st317{clip-path:url(#SVGID_811_);}
	.st318{clip-path:url(#SVGID_815_);}
	.st319{clip-path:url(#SVGID_817_);}
	.st320{clip-path:url(#SVGID_821_);enable-background:new    ;}
	.st321{clip-path:url(#SVGID_823_);}
	.st322{clip-path:url(#SVGID_825_);}
	.st323{clip-path:url(#SVGID_827_);}
	.st324{clip-path:url(#SVGID_829_);}
	.st325{clip-path:url(#SVGID_833_);}
	.st326{clip-path:url(#SVGID_835_);}
	.st327{clip-path:url(#SVGID_839_);enable-background:new    ;}
	.st328{clip-path:url(#SVGID_841_);}
	.st329{clip-path:url(#SVGID_843_);}
	.st330{clip-path:url(#SVGID_845_);}
	.st331{clip-path:url(#SVGID_847_);}
	.st332{clip-path:url(#SVGID_851_);}
	.st333{clip-path:url(#SVGID_853_);}
	.st334{clip-path:url(#SVGID_857_);enable-background:new    ;}
	.st335{clip-path:url(#SVGID_859_);}
	.st336{clip-path:url(#SVGID_861_);}
	.st337{clip-path:url(#SVGID_863_);}
	.st338{clip-path:url(#SVGID_865_);}
	.st339{clip-path:url(#SVGID_869_);}
	.st340{clip-path:url(#SVGID_871_);}
	.st341{clip-path:url(#SVGID_875_);enable-background:new    ;}
	.st342{clip-path:url(#SVGID_877_);}
	.st343{clip-path:url(#SVGID_879_);}
	.st344{clip-path:url(#SVGID_881_);}
	.st345{clip-path:url(#SVGID_883_);}
	.st346{clip-path:url(#SVGID_887_);}
	.st347{clip-path:url(#SVGID_889_);}
	.st348{clip-path:url(#SVGID_893_);enable-background:new    ;}
	.st349{clip-path:url(#SVGID_895_);}
	.st350{clip-path:url(#SVGID_897_);}
	.st351{clip-path:url(#SVGID_899_);}
	.st352{clip-path:url(#SVGID_901_);}
	.st353{clip-path:url(#SVGID_905_);}
	.st354{clip-path:url(#SVGID_907_);}
	.st355{clip-path:url(#SVGID_911_);enable-background:new    ;}
	.st356{clip-path:url(#SVGID_913_);}
	.st357{clip-path:url(#SVGID_915_);}
	.st358{clip-path:url(#SVGID_917_);}
	.st359{clip-path:url(#SVGID_919_);}
	.st360{fill:none;stroke:#000000;stroke-width:2.7997;stroke-miterlimit:10;}
</style>






















































































































<path
   id="path10292"
   style="fill:#000000"
   d="m 6342.3271,279.81641 c -2.2103,-0.0976 -4.6914,1.12252 -5.2318,3.41737 -0.3698,1.13717 -0.1562,2.38002 -0.3775,3.52013 -1.4422,1.48004 -1.2861,3.69757 -1.4912,5.6031 -0.5988,9.43421 -0.4662,18.89533 -0.3868,28.34269 0.09,6.04858 0.2177,12.10939 0.8356,18.1291 0.1032,0.65076 0.3797,1.3141 -1e-4,1.92496 -0.8705,2.70617 -0.7704,5.59388 -0.9084,8.40134 -0.054,3.95722 -0.04,7.9716 0.8435,11.84685 0.212,0.5867 -0.2907,1.1614 -0.3173,1.76784 -0.7371,3.68948 -0.298,7.47979 -0.5851,11.20873 -0.682,0.11541 -1.3405,0.46765 -1.9648,0.6582 -2.034,-0.93567 -4.3232,-0.81478 -6.5059,-0.82813 -0.1343,-3.37682 0.2729,-6.87025 -0.7363,-10.14843 -0.1174,-0.38143 0.276,-0.80038 0.2695,-1.21094 0.7724,-3.3719 0.4347,-6.90962 -0.3652,-10.24219 -0.716,-2.57784 -2.5789,-4.70283 -4.8674,-6.03258 -5.5338,-3.37668 -13.4269,-2.62933 -17.904,2.18342 -1.9767,2.05385 -2.9126,4.94288 -2.7967,7.76607 -0.043,3.82495 0.1428,7.64891 0.081,11.47449 0.01,3.1346 -0.027,6.26909 -0.054,9.40352 -0.4737,-1.62577 -1.984,-2.71953 -3.6097,-2.99684 -2.0343,-0.40283 -4.1202,-0.0993 -6.1771,-0.20433 -0.9461,0 -1.8921,0 -2.8382,0 -0.4615,4.66193 -0.919,9.32425 -1.3789,13.98633 -17.405,-0.0987 -34.816,0.10789 -52.2149,-0.45445 -1.5976,-0.0601 -3.1421,-0.13057 -4.7461,-0.28383 -1.9457,-1.78072 -5.318,-1.63599 -7.0801,0.33789 -2.3937,0.2708 -4.6483,0.36997 -7.0672,0.40342 -3.7799,-0.0206 -7.577,0.0541 -11.3387,-0.3706 -0.5148,-0.19549 -0.8655,-0.7978 -1.4289,-0.99777 -1.9815,-1.08935 -4.7316,-0.71909 -6.2218,1.02745 -4.1214,0.51021 -8.343,0.33373 -12.4492,0.32031 -0.6238,-7.60807 -1.0289,-15.20116 -1.1629,-22.82643 -0.1524,-2.27014 -0.2754,-4.7413 -1.7336,-6.60716 -0.4353,-1.52477 0.046,-3.22799 -0.6953,-4.69727 -0.6417,-1.58219 -2.2373,-2.56688 -3.9008,-2.71573 -1.6761,-0.21857 -3.39,-0.14881 -5.0641,0.0439 -1.9558,0.34584 -3.6319,1.97661 -3.822,3.98776 -0.1748,0.89793 -0.014,1.86074 -0.217,2.73294 -1.6112,1.8062 -1.4784,4.39013 -1.6604,6.64976 -0.3676,6.8937 -0.3404,13.81591 0.1545,20.7018 0.09,0.84754 0.2405,1.68986 0.4824,2.50782 -2.469,0.3808 -4.9641,0.20707 -7.4882,0.25195 -0.061,-6.16536 0.2951,-12.39005 -0.7559,-18.49414 -0.3414,-1.17524 -1.1911,-2.1387 -1.3311,-3.38456 -0.4376,-1.97928 -0.5512,-4.26354 -1.0127,-6.34005 -0.2818,-1.43615 -0.8323,-2.92251 -2.1093,-3.76172 -1.2218,-0.92402 -2.7966,-1.06433 -4.2744,-1.00431 -2.1061,-0.10131 -4.6053,0.13362 -5.9522,1.97892 -0.9421,1.26437 -0.9236,2.90486 -1.0469,4.39258 -0.6194,0.81007 -1.0882,1.72419 -1.2438,2.74269 -0.5379,2.76698 -0.5091,5.60632 -0.6293,8.41323 -0.1169,4.99358 -0.064,10.01326 0.5786,14.97171 0.115,0.43664 -0.6772,0.27209 -0.967,0.39293 -0.9785,0.10246 -2.0852,0.0743 -2.9748,-0.21978 0.8348,-4.29393 0.6996,-8.70214 0.6777,-13.05734 -0.086,-2.3911 -0.1795,-4.8258 -0.8363,-7.13767 -0.2068,-0.60591 -0.577,-1.15247 -1.0133,-1.60577 -0.2299,-2.10889 0.1074,-4.51067 -1.3769,-6.25391 -0.6424,-0.7764 -1.5802,-1.27633 -2.5449,-1.50391 -0.3276,-4.11936 -0.066,-8.4364 -0.2523,-12.63716 -0.1058,-2.92233 -0.1648,-5.90349 -0.9763,-8.73002 -0.3204,-0.73689 -1.0362,-1.32949 -0.9145,-2.20576 -0.05,-1.81517 -0.08,-3.92638 -1.5836,-5.20946 -1.7833,-1.61562 -4.3539,-1.33044 -6.574,-1.32424 -1.9737,0.0319 -4.159,0.96651 -4.8517,2.9543 -0.637,1.497 -0.1698,3.19003 -0.6914,4.70508 -1.2903,1.65726 -1.0686,3.88068 -1.2787,5.84943 -0.5979,10.74998 -0.4899,21.52395 -0.3667,32.28529 0.096,4.56512 0.1698,9.14601 0.7235,13.68169 -2.671,0.58775 -5.4352,0.59593 -8.1504,0.40234 -1.2431,-1.90637 -3.983,-2.32898 -5.9746,-1.42969 -1.9487,-0.85879 -4.5375,-0.49486 -5.8672,1.26953 -3.8442,0.53837 -7.8481,-0.0696 -11.58,1.21094 -1.5771,-0.9084 -3.4477,-0.88812 -5.209,-0.99219 -1.3003,-2.99817 -5.5643,-3.86784 -8.0968,-1.91872 -0.6301,0.44906 -1.1507,1.05411 -1.4892,1.75075 -3.9565,0.38119 -7.9375,0.12049 -11.9023,0.2168 -0.5533,-9.92654 -1.051,-19.82273 -1.1986,-29.76635 -0.094,-2.19095 -0.1064,-4.5256 -1.1733,-6.50045 -0.3397,-0.51377 -0.9024,-0.91694 -0.7621,-1.60737 0,-1.77089 -0.2429,-3.88225 -1.823,-5.02036 -1.8315,-1.37012 -4.2473,-1.12043 -6.3986,-1.06842 -1.9682,0.0682 -3.9223,1.22872 -4.6137,3.12732 -0.9952,2.82395 -1.0295,5.86824 -1.2244,8.82638 -0.4594,10.66311 -0.3204,21.33922 -0.3454,32.00925 -1.6126,0.0573 -3.3044,0.29772 -4.6562,1.24609 -1.7897,0.0594 -3.66,-0.1248 -5.3613,-0.51171 0.7402,-2.76014 0.2811,-5.63728 0.4238,-8.45118 -0.1693,-0.98738 -1.2637,-1.58034 -2.1938,-1.28906 -5.0793,0 -10.1586,0 -15.2379,0 0.1979,3.27974 -0.3428,6.63065 0.4612,9.85296 0.089,0.56392 0.627,1.1204 0.156,1.63923 -1.165,2.81097 -0.102,5.96752 1.4054,8.42905 1.8591,3.09356 5.0343,5.51703 8.6892,5.89866 3.8053,0.64905 7.771,0.84675 11.5519,-0.0465 0.5245,-0.17571 1.0135,-0.56582 1.5752,-0.3149 3.9115,0.73607 7.9132,0.68456 11.8755,0.8606 10.2955,0.28893 20.6102,0.25616 30.8915,-0.38833 1.5306,-0.0976 3.0467,-0.42551 4.5505,-0.64096 4.9246,0.37777 9.8686,0.44772 14.8049,0.58335 24.7967,0.43023 49.5978,0.54149 74.3977,0.6114 31.3723,0.0448 62.7454,0.0176 94.1165,-0.2725 10.694,-0.1338 21.3906,-0.24984 32.0795,-0.60993 1.7907,-0.05 3.5814,-0.28102 5.3597,-0.37996 4.2251,0.57805 8.5025,0.48283 12.7553,0.6431 27.3042,0.56473 54.6157,0.5849 81.9246,0.63388 32.1678,0.0249 64.3374,-0.0519 96.5017,-0.56777 5.6682,-0.11725 11.3447,-0.20463 16.9985,-0.62749 0.8651,-0.20669 1.7282,-0.0979 2.5854,0.0611 4.2859,0.46271 8.6064,0.43282 12.9106,0.58985 18.9394,0.48078 37.8867,0.50301 56.8311,0.54774 23.0252,0.0278 46.0533,-0.0509 69.0727,-0.60025 3.7002,-0.12497 7.4157,-0.19537 11.092,-0.64004 1.1405,-0.25682 2.2785,0.15046 3.4297,0.13847 5.7275,0.3044 11.4666,0.33248 17.2001,0.46688 23.4698,0.37322 46.943,0.45204 70.4152,0.54935 38.4035,0.12462 76.8084,0.0966 115.2105,-0.27918 7.6339,-0.0993 15.2729,-0.1817 22.898,-0.56481 1.1481,-0.0539 2.3193,-0.304 3.2482,-1.00435 1.6334,-0.38855 3.4639,0.081 4.9746,-0.84015 1.5334,-0.81913 2.3445,-2.53124 2.3935,-4.22202 0.1236,-1.6717 0.1397,-3.38875 -0.2065,-5.03325 -0.4869,-1.87411 -2.2337,-3.25682 -4.1556,-3.37823 -1.2561,-0.19083 -2.571,0.0486 -3.797,-0.29228 -1.4564,-1.31915 -3.554,-1.15026 -5.3768,-1.34076 -9.9952,-0.58909 -20.014,-0.44268 -30.0216,-0.53164 -9.122,-0.0559 -18.2552,-0.008 -27.3629,-0.57741 -0.5791,-0.0956 -0.9405,-0.71709 -1.5258,-0.88294 -1.9478,-0.90525 -4.4951,-0.48501 -5.9219,1.16087 -4.3844,0.52046 -8.8158,0.38458 -13.2168,0.26758 -0.6095,0.16484 -0.5236,-0.42599 -0.689,-0.82621 -0.3074,-0.9025 -0.8493,-1.7409 -1.6059,-2.33004 -0.1107,-1.82336 -0.033,-3.93839 -1.4832,-5.29677 -1.6913,-1.65407 -4.2415,-1.5158 -6.4247,-1.38299 -1.9627,0.16241 -3.877,1.50098 -4.2952,3.49617 -0.2741,1.04421 -0.1968,2.13173 -0.291,3.19726 -1.01,0.7329 -1.6082,1.91931 -1.8282,3.12695 -2.5424,0.17937 -5.2887,0.15523 -7.8518,-0.012 -0.5661,-0.0536 -1.1951,-0.0497 -1.7204,-0.18522 -0.77,-0.97665 -1.9735,-1.54766 -3.2012,-1.64844 -0.1752,-2.04393 -1.2763,-4.23079 -3.3652,-4.85547 -2.4408,-0.80914 -5.2683,0.97706 -5.6703,3.50098 -0.2861,1.0802 -0.3199,2.20586 -0.32,3.31738 -3.8704,0 -7.7409,0 -11.6113,0 0.035,-2.33636 0.044,-5.01064 -1.6797,-6.81445 -1.2921,-1.2418 -3.3722,-1.52716 -4.9629,-0.74024 -1.8535,-1.24083 -4.6808,-0.53434 -5.6391,1.51168 -1.1057,1.7921 -1.0703,4.01589 -1.1265,6.00981 -5.2415,0.0768 -10.5014,0.007 -15.75,0.0301 -14.4976,-0.01 -28.9965,0.0602 -43.4929,-0.1463 -2.2734,-0.0421 -4.6772,-0.14629 -6.8274,-0.48344 -0.8325,-0.008 -1.3816,-0.95744 -1.9992,-1.48551 -1.7855,-1.72904 -4.7066,-2.37314 -6.9128,-1.06578 -1.5856,0.74252 -2.4427,2.49502 -4.09,3.11379 -1.6315,0.17231 -3.3049,0.48186 -4.707,1.39062 -2.2428,-0.83631 -4.6856,-0.719 -7.0367,-0.90463 -12.1676,-0.56486 -24.3532,-0.3564 -36.5288,-0.59012 -6.2001,-0.0874 -12.3595,-0.20209 -18.5263,-0.61853 -1.3235,-1.09128 -3.1353,-1.47734 -4.8008,-1.01953 -0.8837,0.24235 -1.7091,0.72104 -2.3183,1.41016 -2.4447,0.27182 -4.7512,0.37559 -7.2215,0.39865 -3.1127,-0.0113 -6.2883,-0.0202 -9.3328,-0.26946 -0.5356,-0.0437 -1.0893,-0.033 -1.4155,-0.52127 -1.9696,-1.73284 -5.3317,-1.57634 -7.0615,0.42528 -4.4594,0.51979 -8.9698,0.39949 -13.4436,0.24701 -0.4558,-0.0124 -0.3057,-0.79746 -0.5935,-1.1142 -0.8554,-1.92471 -3.147,-3.24394 -5.2187,-2.54883 -1.7228,-1.75128 -4.9748,-1.6599 -6.4336,0.38672 -0.7481,0.92967 -1.1223,2.11388 -1.2246,3.29102 -3.7908,0.20545 -7.5918,0.0949 -11.3848,0.0254 -0.7224,0.17088 -0.685,-0.53787 -0.9178,-1.019 -0.9817,-2.48607 -3.7754,-4.34358 -6.467,-3.61967 -0.9823,0.27175 -1.8593,0.90702 -2.4277,1.75195 -1.9414,-0.14496 -3.9031,1.10684 -4.5703,2.93945 -1.7504,0.0332 -3.5496,0.23017 -5.1446,0.9629 -2.1089,-0.93821 -4.4607,-0.89838 -6.7207,-0.95899 -0.076,-2.36716 -1.2178,-4.987 -3.5948,-5.82068 -0.5565,-6e-4 -0.6036,-0.42967 -0.7216,-0.87073 -0.5951,-1.75255 -2.2504,-3.1038 -4.1266,-3.16083 -1.8148,-0.21012 -3.696,-0.21187 -5.4749,0.22333 -2.0235,0.68252 -3.2584,2.74249 -3.4591,4.79462 -0.323,1.62902 -0.4857,3.28393 -0.7108,4.92804 -36.4406,-0.10003 -72.8819,-0.0682 -109.3218,-0.33308 -7.373,-0.11081 -14.7712,-0.0967 -22.0962,-0.6259 0.6137,-4.02389 0.44,-8.1134 0.4714,-12.17031 -0.053,-3.07873 -0.099,-6.20123 -0.797,-9.21199 -0.1775,-0.74128 -0.6908,-1.35602 -1.115,-1.93172 -0.1389,-1.857 -0.079,-3.99933 -1.545,-5.38945 -0.6397,-0.66691 -1.5057,-1.08997 -2.4031,-1.28286 -0.3938,-4.36628 -0.2383,-8.75742 -0.345,-13.13547 0.019,-4.84417 0.2835,-9.68376 0.2571,-14.52894 0.064,-12.04209 -0.088,-24.08521 -0.3616,-36.12402 -0.1556,-3.19185 -0.171,-6.4431 -1.0095,-9.54751 -0.5215,-1.85004 -2.0851,-3.38227 -4.0215,-3.64062 -1.1633,-0.20829 -2.3539,-0.12771 -3.5293,-0.13086 z" />
</svg>
