<?xml version="1.0" encoding="UTF-8" standalone="no"?>
<!--?xml version="1.0" encoding="UTF-8" standalone="no"?-->

<!-- Generator: Adobe Illustrator 18.0.0, SVG Export Plug-In . SVG Version: 6.00 Build 0)  -->

<svg
   version="1.1"
   id="background"
   x="0px"
   y="0px"
   width="9451.45px"
   height="623.52px"
   viewBox="0 0 9451.45 623.52"
   enable-background="new 0 0 9451.45 623.52"
   xml:space="preserve"
   sodipodi:docname="52 Xenoestrogen in infertile men_mask-01.svg"
   inkscape:version="1.1.1 (c3084ef, 2021-09-22)"
   xmlns:inkscape="http://www.inkscape.org/namespaces/inkscape"
   xmlns:sodipodi="http://sodipodi.sourceforge.net/DTD/sodipodi-0.dtd"
   xmlns="http://www.w3.org/2000/svg"
   xmlns:svg="http://www.w3.org/2000/svg"><defs
   id="defs1645" /><sodipodi:namedview
   id="namedview1643"
   pagecolor="#505050"
   bordercolor="#eeeeee"
   borderopacity="1"
   inkscape:pageshadow="0"
   inkscape:pageopacity="0"
   inkscape:pagecheckerboard="0"
   showgrid="false"
   inkscape:zoom="0.88644866"
   inkscape:cx="6506.299"
   inkscape:cy="153.42118"
   inkscape:window-width="1312"
   inkscape:window-height="762"
   inkscape:window-x="0"
   inkscape:window-y="25"
   inkscape:window-maximized="0"
   inkscape:current-layer="multiple" /><g
   id="multiple"><g
     id="UD"><path
       style="fill:#000000;stroke:#000000;stroke-width:1px;stroke-linecap:butt;stroke-linejoin:miter;stroke-opacity:1;fill-opacity:0.61946905"
       d="m 6171.8,147.1 -1.7,-2.2 -2.4,-5 -0.6,-2.8 -0.1,-2 0.6,-3.9 1.5,-3.6 2.4,-3.2 1.4,-1.4 2.2,-1.5 4.8,-1.9 2.6,-0.3 3.5,0.2 5.2,1.6 2.9,2.1 1.2,1.3 1.8,2.6 1.2646,2.59645 1.0354,3.50355 0.3,3.1 -0.2,2.6 -1.9,4.6 -1.5,2 -1.8,1.9 -1.8764,1.43997 -2.3236,1.66003 -3.3,1.1 -3.5834,0.29737 -3.1964,-0.41692 -3.8217,-1.2855 -2.9879,-1.73716 z"
       id="path948" /></g><g
     id="UV"><path
       style="fill:#000000;stroke:#000000;stroke-width:0.912547px;stroke-linecap:butt;stroke-linejoin:miter;stroke-opacity:1;fill-opacity:0.61946905"
       d="m 6187.5635,235.34917 0.3754,-1.75581 0.6481,-1.17476 0.7697,-1.09375 1.1343,-0.81019 1.4583,-0.52661 1.7014,-0.24306 1.3773,0.24306 1.1748,0.40509 1.3987,0.94082 1.0038,1.27756 0.7167,1.50846 0.2159,1.47742 -0.1448,1.46672 -0.386,1.25442 -0.4727,0.90705 -0.9746,1.10003 -0.8878,0.60792 -1.0518,0.48247 -1.3951,0.41224 -1.5769,-0.13241 -1.2834,-0.27983 -1.5728,-0.86845 -0.8781,-0.76231 -0.772,-1.31232 -0.4439,-1.33162 -0.1061,-1.19653 z"
       id="path950" /></g><g
     id="FEUD"><path
       style="fill:#000000;stroke:#000000;stroke-width:0.912547px;stroke-linecap:butt;stroke-linejoin:miter;stroke-opacity:1;fill-opacity:0.61946905"
       d="m 6142.4837,220.20088 -0.4563,1.27757 -0.73,1.18631 -1.8251,2.0076 -3.1499,1.97545 -2.9849,0.98325 -2.2566,0.0799 -2.4363,-0.18971 -1.7773,-0.43934 -1.6375,-0.69894 -1.3679,-0.82873 -1.298,-0.95854 -0.9486,-0.94856 -1.0384,-1.27806 -0.689,-1.34795 -0.639,-1.55763 -0.3296,-1.15824 -0.4356,-1.84577 0.1162,-2.74722 0.4792,-2.25657 0.8288,-1.93706 0.9885,-1.48773 1.0883,-1.22814 1.2981,-1.14824 1.5875,-0.99849 1.5177,-0.69893 1.9271,-0.55916 1.6575,-0.23963 2.2466,0.04 1.8272,0.31951 1.7673,0.60908 1.6275,0.80876 1.3479,1.00847 1.2681,1.23812 0.9985,1.30801 0.7389,1.26807 0.6191,1.50771 0.4193,1.76731 0.1697,1.38789 0.06,1.55763 -0.1698,1.318 -0.2197,1.46777 -0.1898,1.43631"
       id="path952" /></g><g
     id="C2"><path
       style="fill:#000000;stroke:#000000;stroke-width:1px;stroke-linecap:butt;stroke-linejoin:miter;stroke-opacity:1;fill-opacity:0.61946905"
       d="m 6317.4,128.3 4,3.9 3,4.2 2.2,4.7 1.3,5 0.4,2.6 0.1,3.9 -0.2308,3.90495 -0.5557,3.60032 -1.0149,2.87542 -1.2806,3.18954 -1.474,2.53713 -2.368,3.16538 -2.8029,3.33452 -3.2862,2.2955 -2.078,1.30482 -2.6821,1.32897 -3.7937,1.44979 -3.1653,0.82155 -3.6728,0.43494 h -3.4312 l -3.6487,-0.36245 -2.4646,-0.65241 -2.5371,-0.79738 -3.3346,-1.3773 -2.5371,-1.184 -2.1264,-1.06318 L 6278,176.1 l -2.2,-2 -2.5054,-3.07297 L 6272,169.5 l -1.6,-2.5 -1.3,-2.6 -1.0005,-3.06241 -0.8995,-2.63759 -0.7,-5.9 0.4,-6 0.7,-2.9 1,-2.9 2.8,-5.5 3.9,-4.8 4.6,-4 5.8,-3.3 6.8,-1.7 3.5,-0.3 h 3.5 l 6.8,1.1 3.3,1 2.7,1.4 2.6761,1.81175 z"
       id="path954" /></g><g
     id="FE"><path
       style="fill:#000000;stroke:#000000;stroke-width:1px;stroke-linecap:butt;stroke-linejoin:miter;stroke-opacity:1;fill-opacity:0.61946905"
       d="m 6282.6,222.5 -0.4,1.7 -1.4,3.3 -2,2.9 -2.7,2.4 -1.5,0.9 -2.2,1.1 -4.7,1 -4.9,-0.3 -4.5,-1.7 -2,-1.4 -1.8,-1.6 -1.4656,-2.13422 -1.1344,-1.76578 -0.8869,-2.668 -0.6131,-1.932 -0.039,-2.79519 -0.061,-1.90481 0.5,-2.3 1,-2.9 1.9516,-2.64299 1.7484,-2.25701 2.4,-1.8 1.9,-1.1 2.3628,-0.61343 1.7372,-0.38657 2.1097,-0.13505 1.8903,0.0351 1.9055,0.18058 1.3585,0.33626 1.3047,0.41696 1.3719,0.57837 1.5065,0.83393 1.2912,0.88774 1.2913,1.18364 1.1836,1.29124 1.0357,1.3854 0.8474,1.39885 0.6187,1.37195 0.4708,1.4123 0.4573,1.77546 0.2286,1.3854 0.054,1.58716 -0.094,1.3047 -0.054,0.86083 z"
       id="path956" /></g><g
     id="C1"><path
       style="fill:#000000;stroke:#000000;stroke-width:1px;stroke-linecap:butt;stroke-linejoin:miter;stroke-opacity:1;fill-opacity:0.61946905"
       d="m 6457.5,183.3 0.9,-2.3 1.1,-2.3 2.1,-3.1 2.899,-3.03687 2.201,-2.26313 3,-2.2 2.6,-1.3 5.4,-1.7 5.7,-0.4 5.7,0.8 5.6,2.1 5.2,3.6 4.3,4.7 3,5.5 0.9,3.1 0.6,3.5 -0.3,7 -2.1,6.7 -3.8,6 -2.4,2.5 -2.3,1.8 -5.2,2.8 -5.6,1.5 -5.9,0.3 -2.9,-0.4 -3.3,-0.8 -6.2,-2.8 -3.7,-2.5 -2.6165,-2.23849 -2.3572,-3.20345 -1.5715,-3.32433 -1.3298,-3.56611 -0.3626,-3.92875 -0.2418,-4.8354 0.4231,-3.20345 z"
       id="path958" /></g><g
     id="NFE"><path
       style="fill:#000000;stroke:#000000;stroke-width:1px;stroke-linecap:butt;stroke-linejoin:miter;stroke-opacity:1;fill-opacity:0.61946905"
       d="m 6455.6,218.6 0.2,1.8 -0.4,2.2 -0.9411,1.98236 -1.5589,1.51764 -1.4101,1.04539 -1.7002,0.79936 -1.5353,0.34258 -2.0555,-0.0761 -1.751,-0.38064 -1.3069,-0.45678 -1.341,-0.87378 -1.1966,-1.05484 -0.8882,-1.18001 -0.7359,-1.47184 -0.4061,-1.80173 v -1.78905 l 0.2792,-1.87786 0.5709,-1.58603 1.0785,-1.45915 1.1801,-1.26883 1.4337,-0.85012 1.4592,-0.57097 1.7383,-0.44409 h 1.2688 l 1.2942,0.0888 1.548,0.44409 1.4464,0.6471 1.0151,0.77399 1.3323,1.40839 0.7105,1.16732 0.3426,0.83743 0.2538,0.88818 0.075,1.1992"
       id="path960" /></g><g
     id="RV"><path
       style="fill:#000000;stroke:#000000;stroke-width:1px;stroke-linecap:butt;stroke-linejoin:miter;stroke-opacity:1;fill-opacity:0.61946905"
       d="m 6554.8,286.6 -2.7019,-0.86225 -3.2636,-0.14425 -2.0832,0.38472 -1.3984,0.81712 -1.2888,0.97719 -1.331,1.36469 -0.6234,1.00245 -0.7329,1.51633 -0.3454,1.2299 -0.1011,0.95191 v 0.9098 l 0.1432,1.19621 0.2612,1.28045 0.278,0.94348 0.6234,1.48263 1.0024,1.13724 0.6571,0.64865 1.0361,0.85082 0.8172,0.48017 1.1204,0.60653 1.4573,0.52229 1.1541,0.059 2.0193,-0.0551 1.3,-0.2 1.2,-0.4 2.1,-1.5 1.3582,-1.60206 0.7418,-1.59794 0.6,-2.5 0.023,-2.03474 -0.1937,-1.78589 -0.4718,-1.36469 -0.6065,-1.28045 -1.0951,-1.49947 -0.9856,-0.91822 z"
       id="path962" /></g><g
     id="RD"><path
       style="fill:#000000;stroke:#000000;stroke-width:1px;stroke-linecap:butt;stroke-linejoin:miter;stroke-opacity:1;fill-opacity:0.61946905"
       d="m 6641.6,199.8 2.1719,-0.37812 2.0281,-0.72188 1.8,-1.3 0.9,-1 0.9604,-1.56025 0.419,-0.95126 0.23,-1.36793 0.048,-0.86555 -0.024,-0.9987 -0.1089,-0.78686 -0.23,-1.0774 -0.3511,-1.04713 -0.5266,-1.12581 -0.5084,-0.6537 -0.4963,-0.59317 -0.8353,-0.81713 -0.5387,-0.38132 -0.8837,-0.56896 -0.9563,-0.45396 -1.0532,-0.33896 -1.0774,-0.19974 -1.3922,-0.0303 -1.3195,0.18763 -1.3134,0.39949 -1.1137,0.52659 -1.0411,0.63554 -0.8534,0.72633 -0.7869,0.88976 -0.6416,0.93818 -0.5145,0.93818 -0.3813,1.25292 -0.2119,1.01687 -0.097,1.0895 0.079,0.9866 0.1997,1.15608 0.2603,0.81107 0.4599,0.56335 0.3148,0.94379 0.4903,0.70818 0.6356,0.81107 0.805,0.68396 1.1379,0.82318 1.2892,0.64159 1.2711,0.3208 0.8535,0.12106 z"
       id="path964" /></g><g
     id="FERD"><path
       style="fill:#000000;stroke:#000000;stroke-width:1px;stroke-linecap:butt;stroke-linejoin:miter;stroke-opacity:1;fill-opacity:0.61946905"
       d="m 6585.4,230.9 -1.1125,-1.63016 -0.485,-1.55796 -0.2352,-1.41098 0.2205,-2.14587 0.6761,-1.64615 1.1023,-1.44038 1.3338,-0.9685 1.9,-0.9 2.0427,-0.43904 1.8519,0.20577 1.705,0.6614 1.0141,0.91126 1.411,1.30809 0.8671,1.73434 0.3822,1.74903 v 1.9401 l -0.4262,1.80782 -0.9113,1.61675 -1.4551,1.38158 -1.6314,0.85247 -2.2635,0.38214 -2.2928,-0.16167 -1.264,-0.44094 -0.9848,-0.54381 -1.1023,-0.79368 z"
       id="path966" /></g></g>
</svg>
