<?xml version="1.0" encoding="UTF-8" standalone="no"?>
<!-- Generator: Adobe Illustrator 18.0.0, SVG Export Plug-In . SVG Version: 6.00 Build 0)  -->

<svg
   version="1.1"
   id="background"
   x="0px"
   y="0px"
   width="9451.45px"
   height="623.52px"
   viewBox="0 0 9451.45 623.52"
   enable-background="new 0 0 9451.45 623.52"
   xml:space="preserve"
   sodipodi:docname="52 Xenoestrogen in infertile men_legend-01.svg"
   inkscape:version="1.1.1 (c3084ef, 2021-09-22)"
   xmlns:inkscape="http://www.inkscape.org/namespaces/inkscape"
   xmlns:sodipodi="http://sodipodi.sourceforge.net/DTD/sodipodi-0.dtd"
   xmlns="http://www.w3.org/2000/svg"
   xmlns:svg="http://www.w3.org/2000/svg"><defs
   id="defs1645" /><sodipodi:namedview
   id="namedview1643"
   pagecolor="#505050"
   bordercolor="#eeeeee"
   borderopacity="1"
   inkscape:pageshadow="0"
   inkscape:pageopacity="0"
   inkscape:pagecheckerboard="0"
   showgrid="false"
   inkscape:zoom="0.81125395"
   inkscape:cx="6324.1602"
   inkscape:cy="161.47841"
   inkscape:window-width="1312"
   inkscape:window-height="762"
   inkscape:window-x="0"
   inkscape:window-y="25"
   inkscape:window-maximized="0"
   inkscape:current-layer="background" />































































<g
   id="multiple"><path
     id="urban"
     style="fill:#000000"
     d="m 6182.4824,119.29492 c -3.497,0.10041 -6.8907,1.47072 -9.5564,3.72049 -4.1475,3.33565 -6.4446,8.82292 -5.8073,14.11916 0.3973,3.73793 2.1666,7.2465 4.7075,9.98652 -0.6576,2.13108 -2.0027,3.96775 -3.1208,5.87574 -5.5509,8.7407 -11.4439,17.25801 -17.2041,25.86082 -5.5348,8.13336 -10.9178,16.33854 -16.701,24.30554 -1.5344,1.9835 -2.9678,4.12919 -4.9885,5.6556 -1.1972,0.80182 -2.6871,0.19012 -4.0172,0.33577 -4.9992,0.0497 -10.057,2.74754 -12.3521,7.28275 -1.5799,3.07391 -1.8289,6.89635 -0.4126,10.07458 1.5937,3.12953 3.9404,5.90382 6.8019,7.94471 2.486,1.69465 5.6595,1.68336 8.5373,1.40278 3.9221,-0.53163 7.9429,-2.63521 9.6815,-6.34325 0.2293,-0.44425 0.3196,-0.94865 0.5705,-1.38136 9.9793,2.90324 19.8507,6.16286 29.7457,9.33821 5.7201,1.89014 11.4972,3.63424 17.1044,5.84527 0.8579,0.39288 1.8429,0.70361 2.5171,1.36534 -0.1051,2.17272 0.8449,4.45686 2.7868,5.56532 1.8421,0.96522 3.9749,2.01009 6.0961,1.41574 2.115,-0.67698 3.1375,-2.90206 3.7747,-4.85783 0.7402,-2.2503 0.047,-4.8079 -1.6271,-6.45993 -0.5733,-0.83085 -0.6461,-1.9243 -0.9202,-2.88342 -1.3425,-6.50124 -2.1629,-13.0966 -3.0938,-19.64023 -2.9287,-21.88208 -5.6223,-43.82763 -8.5204,-65.69238 -0.2605,-0.69768 0.7308,-0.51666 1.1289,-0.71875 3.4253,-0.87196 6.2175,-3.30806 8.4623,-5.94012 2.1326,-2.54517 3.8188,-5.71536 3.6634,-9.12509 -0.1133,-4.28971 -1.7093,-8.53652 -4.3993,-11.87444 -3.054,-3.74791 -8.1501,-5.34791 -12.8573,-5.17754 z" /><circle
     fill="none"
     stroke="#D87992"
     stroke-width="0.9921"
     stroke-miterlimit="10"
     cx="6298.24"
     cy="151.56"
     r="0"
     id="circle866" /><circle
     fill="none"
     stroke="#D87992"
     stroke-width="0.9921"
     stroke-miterlimit="10"
     cx="6483.6"
     cy="191.82"
     r="0"
     id="circle874" /><path
     id="control"
     style="fill:#000000"
     d="m 6296.0059,121.40039 c -4.6848,0.15484 -9.4738,1.10157 -13.4766,3.65234 -7.0742,4.14504 -12.7058,10.90769 -14.9312,18.85347 -2.2411,7.67155 -1.1378,16.19632 2.8494,23.10798 1.931,3.46815 4.5999,6.45401 7.5134,9.12449 0.9506,1.00939 2.0092,1.98282 2.6133,3.25195 -2.62,6.39509 -5.3262,12.7139 -8.1152,19.04091 -0.8003,1.59952 -1.418,3.3876 -2.7344,4.64855 -1.0944,0.63885 -2.4455,0.33156 -3.6558,0.42414 -2.8553,-0.0397 -5.7989,0.51881 -8.1736,2.18505 -3.4601,2.15625 -6.108,5.60681 -7.1163,9.5737 -1.6753,6.12304 0.4167,13.21355 5.4781,17.14398 5.1269,4.02993 12.6754,4.55884 18.3372,1.33496 4.196,-2.28282 7.2217,-6.53678 8.0141,-11.2465 0.089,-0.54077 0.8976,-0.43541 1.3086,-0.60216 2.7557,-0.45011 5.52,-0.47855 8.2568,-0.56058 13.0391,-0.22135 26.0806,0.007 39.12,0.0964 27.948,0.28161 55.8984,0.46935 83.8412,1.10098 6.9298,0.20376 13.869,0.32809 20.8065,0.89419 1.0723,0.10093 2.148,0.20202 3.2051,0.41368 0.4188,1.82002 2.2854,2.69288 3.9525,3.05714 2.563,0.63087 5.3375,1.23165 7.8932,0.23192 2.7897,-0.96461 4.7074,-3.7699 4.7617,-6.69726 0.1489,-1.24327 -0.3924,-2.46751 -0.1973,-3.69531 0.8164,-1.4431 2.2846,-2.366 3.5094,-3.43848 1.5918,-1.20393 3.0443,-2.6567 4.8547,-3.52972 0.755,-0.10488 1.3758,0.57718 1.9958,0.92033 3.6335,2.69664 7.8022,4.7525 12.2837,5.53357 7.7041,1.47165 16.0235,-0.78964 21.8713,-6.03033 7.1064,-6.24146 10.2801,-16.54655 8.0423,-25.71826 -1.982,-8.26521 -8.4032,-15.17073 -16.3286,-18.1137 -7.1176,-2.73747 -15.4921,-2.15049 -22.0497,1.78896 -4.1781,2.65134 -7.7484,6.30588 -10.2342,10.58928 -0.9047,1.42889 -1.2772,3.10078 -2.0443,4.59036 -0.2073,0.66869 -0.7599,0.65957 -1.331,0.44877 -18.551,-3.78732 -37.1413,-7.78872 -55.7118,-11.72577 -22.9601,-4.9054 -45.9458,-9.78913 -68.8803,-14.8515 -0.9102,-0.21513 -1.8271,-0.40445 -2.7331,-0.63539 -0.5935,-2.58184 -0.2335,-5.26898 -0.5376,-7.88846 -0.5579,-6.88147 -3.6346,-13.53309 -8.6117,-18.33221 -2.9231,-2.83626 -6.3477,-5.1917 -10.0925,-6.80271 -4.2858,-1.69731 -8.968,-2.25573 -13.5531,-2.13873 z" /><path
     id="rural"
     style="fill:#000000"
     d="m 6641.7695,184.22461 c -3.7005,0.0592 -6.8099,3.01094 -7.9648,6.37891 -0.4585,1.31519 -0.4697,2.82172 0.049,4.09375 -2.2269,2.2878 -4.9303,4.03823 -7.4841,5.93325 -7.6855,5.41883 -15.4262,10.7614 -23.2308,16.00705 -2.4194,1.53955 -4.7629,3.26492 -7.4192,4.37792 -0.4923,0.26345 -0.7542,-0.48832 -1.1811,-0.62826 -2.1591,-1.64455 -5.3697,-1.94513 -7.6223,-0.31496 -2.7569,1.87953 -3.5858,5.71109 -2.4668,8.75 0.2005,0.72482 0.6635,1.38056 0.9076,2.05844 -0.6226,2.46342 -1.9374,4.68324 -3.0527,6.9484 -4.8698,9.19174 -10.1433,18.25193 -15.2802,27.34598 -4.062,7.14476 -8.124,14.28952 -12.186,21.43429 -2.724,-0.20974 -5.5574,-0.97091 -8.2363,-0.0899 -2.3303,0.90903 -4.1633,2.94639 -5.045,5.26563 -1.125,3.00663 -0.087,6.46038 2.068,8.73636 2.2153,2.52593 5.7895,4.12064 9.1342,3.16568 3.3924,-0.86623 5.7175,-4.16238 6.0216,-7.55984 0.2259,-1.27572 -0.1121,-2.56739 0.023,-3.83819 0.6592,-2.01866 2.1187,-3.6465 3.3478,-5.34079 5.8779,-7.42073 12.1824,-14.51763 18.3518,-21.67615 14.5102,-16.63397 28.9806,-33.30231 43.6592,-49.7883 4.5819,-5.07021 9.0844,-10.22671 13.9869,-14.99337 0.4271,-0.40031 0.8619,-0.79366 1.3198,-1.15853 2.7538,1.10244 6.0176,0.077 8.1147,-1.89071 2.7146,-2.58551 2.8798,-7.20273 0.5825,-10.11124 -1.476,-1.98123 -3.9188,-3.19875 -6.3965,-3.10547 z" /></g>
</svg>
