<?xml version="1.0" encoding="UTF-8" standalone="no"?>
<!--?xml version="1.0" encoding="UTF-8" standalone="no"?-->

<!-- Generator: Adobe Illustrator 18.0.0, SVG Export Plug-In . SVG Version: 6.00 Build 0)  -->

<svg
   version="1.1"
   id="background"
   x="0px"
   y="0px"
   width="9451.45px"
   height="623.52px"
   viewBox="0 0 9451.45 623.52"
   enable-background="new 0 0 9451.45 623.52"
   xml:space="preserve"
   sodipodi:docname="52 Xenoestrogen in infertile men_mask-01.svg"
   inkscape:version="1.1.1 (c3084ef, 2021-09-22)"
   xmlns:inkscape="http://www.inkscape.org/namespaces/inkscape"
   xmlns:sodipodi="http://sodipodi.sourceforge.net/DTD/sodipodi-0.dtd"
   xmlns="http://www.w3.org/2000/svg"
   xmlns:svg="http://www.w3.org/2000/svg"><defs
   id="defs1645" /><sodipodi:namedview
   id="namedview1643"
   pagecolor="#505050"
   bordercolor="#eeeeee"
   borderopacity="1"
   inkscape:pageshadow="0"
   inkscape:pageopacity="0"
   inkscape:pagecheckerboard="0"
   showgrid="false"
   inkscape:zoom="0.81125395"
   inkscape:cx="6324.1603"
   inkscape:cy="161.47841"
   inkscape:window-width="1312"
   inkscape:window-height="762"
   inkscape:window-x="0"
   inkscape:window-y="25"
   inkscape:window-maximized="0"
   inkscape:current-layer="multiple" /><g
   id="multiple"><g
     id="urban"><polygon
       style="fill:#000000"
       points="6182.5,119.3,6179.9,119.6,6175.1,121.5,6172.9,123,6171.5,124.4,6169.1,127.6,6167.6,131.2,6167,135.1,6167.1,137.1,6167.7,139.9,6170.1,144.9,6171.8,147.1,6170.4,150.1,6168.7,153,6160.2,166,6151.5,178.9,6143.2,191.1,6134.8,203.2,6132.5,206.2,6129.8,208.8,6127.9,209.2,6125.8,209.2,6123.9,209.3,6120.3,210.3,6117,212.2,6114.4,214.8,6113.4,216.4,6112.5,218.9,6112.3,224,6113,226.5,6114.4,228.8,6117.8,232.8,6119.8,234.5,6121.8,235.4,6126.2,236,6128.4,235.9,6131.3,235.2,6135.3,233,6137.3,230.8,6138.1,229.5,6138.3,228.8,6138.6,228.1,6153.5,232.7,6168.4,237.5,6177,240.3,6185.5,243.3,6186.8,243.9,6188,244.7,6188.1,246.3,6189.5,249.2,6190.8,250.2,6192.2,251,6195.3,251.8,6196.9,251.7,6198.3,250.9,6200.1,248.3,6200.6,246.8,6200.9,245.1,6200.1,241.7,6199,240.3,6198.4,239,6198.1,237.5,6196.4,227.7,6195,217.8,6190.7,185,6186.5,152.1,6186.8,151.6,6187.6,151.4,6190.1,150.5,6194.3,147.4,6196.1,145.5,6197.6,143.5,6199.5,138.9,6199.7,136.3,6199.4,133.2,6197.1,127.1,6195.3,124.5,6194.1,123.2,6191.2,121.1,6186,119.5,6182.5,119.3,6182.5,119.3"
       id="polygon923" /></g><g
     id="control"><polygon
       style="fill:#000000"
       points="6296,121.4,6292.5,121.7,6285.7,123.4,6282.5,125.1,6279.9,126.7,6275.3,130.7,6271.4,135.5,6268.6,141,6267.6,143.9,6266.9,146.8,6266.5,152.8,6267.2,158.7,6269.1,164.4,6270.4,167,6272,169.5,6275.8,174.1,6278,176.1,6279.4,177.7,6280.6,179.4,6276.6,188.9,6272.5,198.4,6271.3,200.9,6269.7,203.1,6267.9,203.5,6266.1,203.5,6263.9,203.6,6259.8,204.6,6257.9,205.7,6255.5,207.5,6251.8,212.4,6250.8,215.3,6250.3,217.6,6250.4,222.3,6251.9,226.9,6254.5,230.8,6256.3,232.4,6258.3,233.8,6262.8,235.5,6267.7,235.8,6272.4,234.8,6274.6,233.7,6276.1,232.8,6278.8,230.4,6280.8,227.5,6282.2,224.2,6282.6,222.5,6283.1,222.1,6283.9,221.9,6288.1,221.5,6292.2,221.3,6311.7,221.3,6331.3,221.4,6373.2,221.8,6415.1,222.5,6425.5,222.8,6435.9,223.4,6437.5,223.6,6439.1,223.8,6439.7,225,6441.8,226.5,6443.1,226.9,6445.1,227.3,6449,227.6,6451,227.1,6452.9,226.1,6455.4,222.6,6455.8,220.4,6455.6,218.6,6455.6,216.7,6457.2,214.9,6459.1,213.3,6461.4,211.4,6463.9,209.8,6465,210.1,6465.9,210.7,6468.7,212.6,6474.9,215.4,6478.2,216.2,6481.1,216.6,6487,216.3,6492.6,214.8,6497.8,212,6500.1,210.2,6502.5,207.7,6506.3,201.7,6508.4,195,6508.7,188,6508.1,184.5,6507.2,181.4,6504.2,175.9,6499.9,171.2,6494.7,167.6,6491.8,166.4,6489.1,165.5,6483.4,164.7,6477.7,165.1,6472.3,166.8,6469.7,168.1,6466.7,170.3,6461.6,175.6,6459.5,178.7,6458.4,181,6457.5,183.3,6456.9,183.9,6456.1,183.8,6428.3,178,6400.4,172,6366,164.7,6331.5,157.2,6330.2,156.9,6328.8,156.6,6328.4,152.6,6328.3,148.7,6327.9,146.1,6326.6,141.1,6324.4,136.4,6321.4,132.2,6319.7,130.3,6317.4,128.3,6312.3,124.9,6309.6,123.5,6306.3,122.5,6299.5,121.4,6296,121.4,6296,121.4"
       id="polygon926" /></g><g
     id="rural"><polygon
       style="fill:#000000"
       points="6641.8,184.2,6640.4,184.4,6637.9,185.4,6635,188.2,6633.8,190.6,6633.5,192.7,6633.9,194.7,6630.2,197.8,6626.4,200.6,6614.8,208.7,6603.1,216.6,6599.5,219,6595.7,221,6595.1,220.9,6594.5,220.4,6592.8,219.4,6588.8,219.2,6586.9,220.1,6586,220.9,6584.6,222.9,6584,226.4,6584.4,228.8,6584.9,229.9,6585.4,230.9,6584,234.4,6582.3,237.8,6574.8,251.5,6567,265.2,6560.9,275.9,6554.8,286.6,6552.8,286.4,6548.6,286.1,6546.6,286.5,6545,287.4,6542.4,290.1,6541.6,291.8,6541.1,294.1,6542.2,298.6,6543.6,300.5,6545.5,302.2,6549,303.8,6551.5,303.9,6552.8,303.7,6554,303.3,6556.1,301.8,6558.2,298.6,6558.8,296.1,6558.8,294.2,6558.8,292.3,6560.3,289.5,6562.2,286.9,6571.2,276,6580.5,265.3,6602.3,240.3,6624.2,215.5,6631,207.9,6638.1,200.5,6638.8,199.9,6639.5,199.3,6641.6,199.8,6645.8,198.7,6647.6,197.4,6648.5,196.4,6649.6,193.9,6649.7,191.1,6648.9,188.5,6648.2,187.3,6646.9,186,6643.6,184.4,6641.8,184.2,6641.8,184.2"
       id="polygon917" /></g></g>
</svg>
