<?xml version="1.0" encoding="UTF-8" standalone="no"?>
<!-- Generator: Adobe Illustrator 23.0.1, SVG Export Plug-In . SVG Version: 6.00 Build 0)  -->

<svg
   version="1.1"
   id="AR_x5F_layer"
   x="0px"
   y="0px"
   width="9451.5px"
   height="623.5px"
   viewBox="0 0 9451.5 623.5"
   style="enable-background:new 0 0 9451.5 623.5;"
   xml:space="preserve"
   sodipodi:docname="53 Bottled water consumption_mask-01-Simplified.svg"
   inkscape:version="1.1.1 (c3084ef, 2021-09-22)"
   xmlns:inkscape="http://www.inkscape.org/namespaces/inkscape"
   xmlns:sodipodi="http://sodipodi.sourceforge.net/DTD/sodipodi-0.dtd"
   xmlns="http://www.w3.org/2000/svg"
   xmlns:svg="http://www.w3.org/2000/svg"><defs
   id="defs11" /><sodipodi:namedview
   id="namedview9"
   pagecolor="#505050"
   bordercolor="#eeeeee"
   borderopacity="1"
   inkscape:pageshadow="0"
   inkscape:pageopacity="0"
   inkscape:pagecheckerboard="0"
   showgrid="false"
   inkscape:zoom="0.46801899"
   inkscape:cx="6458.0713"
   inkscape:cy="425.19643"
   inkscape:window-width="1440"
   inkscape:window-height="762"
   inkscape:window-x="0"
   inkscape:window-y="25"
   inkscape:window-maximized="1"
   inkscape:current-layer="AR_x5F_layer" />
<g
   id="g57"><path
     id="path4"
     class="st0"
     d="m 7159.7871,125.01953 c -28.9668,1.63346 -57.9336,3.26693 -86.9004,4.90039 -1.9961,0.004 -3.6296,1.4227 -5.2558,2.43946 -28.8307,18.80004 -57.6615,37.60033 -86.4922,56.40039 -29.2128,2.1455 -58.4301,4.26384 -87.6407,6.42578 -27.87,2.87118 -55.7444,5.71439 -83.6113,8.60351 -2.0974,0.57633 -4.0296,1.62391 -6.0547,2.40625 -28.9825,12.21758 -57.9529,24.4661 -86.9433,36.66407 l -88.586,33.33203 c -25.3674,-1.68818 -50.7334,-3.40738 -76.1015,-5.07618 -32.2515,-0.62343 -64.5026,-1.28409 -96.7539,-1.89257 -1.5944,0.13041 -3.1425,0.62507 -4.7207,0.89062 -27.9,5.74137 -55.8016,11.50789 -83.7012,17.23438 -16.3124,5.41811 -32.6137,10.88785 -48.9219,16.32617 -12.7115,-5.65457 -25.4089,-11.3437 -38.1289,-16.97656 -1.9728,-0.74801 -4.1189,-0.47994 -6.1816,-0.66407 -50.0799,-2.2135 -100.1593,-4.43828 -150.2364,-6.71484 -6.8339,-0.29109 -13.6672,-0.65083 -20.5019,-0.89844 -3.1833,0.0661 -5.9966,2.9196 -5.9551,6.11328 -0.1144,2.98315 2.2323,5.80248 5.1953,6.20703 0.2015,0.0141 0.404,0.0161 0.6055,0.0293 V 623.5 h 1061.4004 l 71.3617,-3.12856 2.5602,-98.71003 -36.7001,3.77256 c 0,0 -2.0763,-388.03554 -2.1699,-390.08256 0.01,-3.14073 -35.6865,-10.1736 -38.8,-10.32211 -0.254,-0.0172 -0.5109,-0.0149 -0.7656,-0.01 z"
     sodipodi:nodetypes="cccccccccccccccccccccccccccccc" /></g><style
   type="text/css"
   id="style2">
	.st0{opacity:0.75;enable-background:new    ;}
	.st1{opacity:0.75;}
</style>


</svg>
