<?xml version="1.0" encoding="UTF-8" standalone="no"?>
<!-- Generator: Adobe Illustrator 23.0.1, SVG Export Plug-In . SVG Version: 6.00 Build 0)  -->

<svg
   version="1.1"
   id="background"
   x="0px"
   y="0px"
   width="9451.5px"
   height="623.5px"
   viewBox="0 0 9451.5 623.5"
   style="enable-background:new 0 0 9451.5 623.5;"
   xml:space="preserve"
   sodipodi:docname="54_ Platic bottled water_mask-01-simplified.svg"
   inkscape:version="1.1.1 (c3084ef, 2021-09-22)"
   xmlns:inkscape="http://www.inkscape.org/namespaces/inkscape"
   xmlns:sodipodi="http://sodipodi.sourceforge.net/DTD/sodipodi-0.dtd"
   xmlns="http://www.w3.org/2000/svg"
   xmlns:svg="http://www.w3.org/2000/svg">
   <defs
   id="defs1803">
   </defs>
   <sodipodi:namedview
   id="namedview1801"
   pagecolor="#505050"
   bordercolor="#eeeeee"
   borderopacity="1"
   inkscape:pageshadow="0"
   inkscape:pageopacity="0"
   inkscape:pagecheckerboard="0"
   showgrid="false"
   inkscape:zoom="1.7059513"
   inkscape:cx="7660.5352"
   inkscape:cy="517.01359"
   inkscape:window-width="1296"
   inkscape:window-height="762"
   inkscape:window-x="0"
   inkscape:window-y="25"
   inkscape:window-maximized="0"
   inkscape:current-layer="g78" />
   <style
   type="text/css"
   id="style2">
      .st0{opacity:0.75;}
   </style>
   <g
   id="multiple"><g
     id="NA-1"
     style="opacity:0.75">
      <path
   id="path4"
   d="M 7480.1992 415.09961 L 7480.123 415.21484 L 7480.0996 415.19922 L 7478.0996 418.09961 L 7478.3008 419.19922 L 7475 419.90039 C 7472.3 420.40039 7470 422.00078 7468.5 424.30078 L 7468.3008 424.59961 C 7467.2008 426.19961 7466.6004 428.1 7466.4004 430 C 7466.4004 430.2 7466.2992 430.39961 7466.1992 430.59961 L 7465.5996 431.5 C 7465.4996 431.7 7465.2996 431.9 7465.0996 432 C 7463.3996 433 7461.9004 434.30039 7460.9004 435.90039 L 7453.6992 446.69922 C 7452.7992 447.99922 7452.5008 449.69922 7452.8008 451.19922 L 7452.8008 451.40039 L 7457.0996 454.30078 L 7458.0996 454.90039 L 7462.4004 457.69922 L 7462.5996 457.69922 C 7464.1996 457.39922 7465.5004 456.49961 7466.4004 455.09961 L 7473.5996 444.30078 C 7474.6996 442.70078 7475.3 440.80039 7475.5 438.90039 C 7475.5 438.70039 7475.5992 438.50078 7475.6992 438.30078 L 7476.3008 437.40039 C 7476.4008 437.20039 7476.6008 437.00039 7476.8008 436.90039 C 7478.6008 435.70039 7479.9996 434.50039 7481.0996 432.90039 L 7481.3008 432.59961 C 7482.8008 430.29961 7483.4008 427.60039 7482.8008 424.90039 L 7482.0996 421.59961 L 7483.1992 421.40039 L 7483.2754 421.2832 L 7483.3008 421.30078 L 7485.1992 418.5 L 7483.1992 417.09961 L 7482.1992 416.5 L 7480.1992 415.09961 z " />
   </g><g
     id="NA-2"
     style="opacity:0.75">
      <path
   id="path10"
   d="M 7694.5996 520.59961 L 7692.3008 522 L 7691.1992 522.69922 L 7688.9004 524.09961 L 7691 527.40039 L 7692.1992 527.69922 L 7691.4004 531.40039 C 7690.7004 534.30039 7691.3004 537.4 7692.9004 540 L 7693.0996 540.30078 C 7694.1996 542.10078 7695.8992 543.59922 7697.6992 544.69922 C 7697.8992 544.79922 7698.0992 544.99922 7698.1992 545.19922 L 7698.8008 546.19922 C 7698.9008 546.39922 7698.9996 546.70039 7699.0996 546.90039 C 7699.3996 549.00039 7699.9996 551.10039 7701.0996 552.90039 L 7708.8008 565.09961 C 7709.7008 566.59961 7711.2 567.6 7713 568 L 7713.1992 568 L 7718 565 L 7719.0996 564.30078 L 7723.9004 561.30078 L 7723.9004 561.09961 C 7724.3004 559.39961 7724 557.59961 7723 556.09961 L 7715.3008 543.90039 C 7714.2008 542.10039 7712.4992 540.6 7710.6992 539.5 C 7710.4992 539.4 7710.2992 539.2 7710.1992 539 L 7709.5996 538 C 7709.4996 537.8 7709.4008 537.50078 7709.3008 537.30078 C 7709.1008 535.10078 7708.5008 532.99922 7707.3008 531.19922 L 7707.0996 530.90039 C 7705.4996 528.40039 7702.9 526.50039 7700 525.90039 L 7696.4004 525.09961 L 7696.6992 523.90039 L 7694.5996 520.59961 z " />
   </g><g
     id="BM"
     style="opacity:0.75">
      <path
   id="path16"
   d="M 7784.6992 545.5 L 7783.8008 547.5 L 7783.4004 548.40039 L 7782.5 550.40039 L 7785.3008 551.69922 L 7786.3008 551.40039 L 7787.3008 554.19922 C 7788.1008 556.49922 7789.8 558.30078 7792 559.30078 L 7792.3008 559.40039 C 7793.9008 560.10039 7795.6008 560.40078 7797.3008 560.30078 C 7797.5008 560.30078 7797.7004 560.30039 7797.9004 560.40039 L 7798.8008 560.80078 C 7799.0008 560.90078 7799.2008 560.99922 7799.3008 561.19922 C 7800.4008 562.49922 7801.7008 563.60039 7803.3008 564.40039 L 7813.6992 569.19922 C 7814.9992 569.79922 7816.3992 569.80039 7817.6992 569.40039 L 7817.8008 569.30078 L 7819.6992 565.19922 L 7820.0996 564.30078 L 7822 560.19922 L 7821.9004 560 C 7821.4004 558.7 7820.3996 557.6 7819.0996 557 L 7808.6992 552.19922 C 7807.1992 551.49922 7805.3992 551.20078 7803.6992 551.30078 C 7803.4992 551.30078 7803.2996 551.29922 7803.0996 551.19922 L 7802.1992 550.80078 C 7801.9992 550.70078 7801.7992 550.60039 7801.6992 550.40039 C 7800.7992 549.00039 7799.5004 547.89922 7797.9004 547.19922 L 7797.5996 547.09961 C 7795.3996 546.09961 7792.8992 546.00078 7790.6992 546.80078 L 7787.9004 547.80078 L 7787.5 546.80078 L 7784.6992 545.5 z " />
   </g><g
     id="ACI"
     style="opacity:0.75">
      <path
   id="path106"
   d="M 8106.6992 488 L 8104.0996 490.40039 L 8104 491.5 L 8100.5996 491.30078 C 8097.8996 491.20078 8095.1992 492.10039 8093.1992 493.90039 L 8093 494.09961 C 8091.6 495.39961 8090.5008 497.10039 8089.8008 498.90039 C 8089.7008 499.10039 8089.6004 499.30039 8089.4004 499.40039 L 8088.5996 500.09961 C 8088.3996 500.29961 8088.2 500.40039 8088 500.40039 C 8086.1 500.90039 8084.4004 501.79961 8082.9004 503.09961 L 8073.3008 511.80078 C 8072.1008 512.90078 8071.4008 514.4 8071.3008 516 L 8071.3008 516.19922 L 8074.6992 520 L 8075.5 520.90039 L 8078.9004 524.69922 L 8079.0996 524.69922 C 8080.6996 524.79922 8082.2004 524.19922 8083.4004 523.19922 L 8093 514.5 C 8094.4 513.2 8095.4992 511.49922 8096.1992 509.69922 C 8096.2992 509.49922 8096.3996 509.29922 8096.5996 509.19922 L 8097.4004 508.5 C 8097.6004 508.3 8097.8 508.19922 8098 508.19922 C 8100 507.69922 8101.6992 506.8 8103.1992 505.5 L 8103.4004 505.30078 C 8105.4004 503.50078 8106.6008 500.89922 8106.8008 498.19922 L 8107 494.80078 L 8108.0996 494.90039 L 8110.6992 492.5 L 8109.0996 490.69922 L 8108.3008 489.80078 L 8106.6992 488 z " />
   </g><g
     id="NPLOO"
     style="opacity:0.75">
      <path
   id="path186"
   d="M 7544.4004 509.41211 C 7543.5754 509.44961 7542.75 509.65 7542 510 C 7541.9 510 7541.8008 510.10078 7541.8008 510.30078 L 7540 515.09961 L 7539.5996 516.19922 L 7537.8008 521 L 7537.8008 521.30078 C 7538.5008 522.80078 7539.7008 523.99961 7541.3008 524.59961 L 7553.8008 529.30078 C 7555.7008 530.00078 7557.6992 530.39961 7559.6992 530.09961 C 7559.9992 530.09961 7560.2 530.09922 7560.5 530.19922 L 7561.5 530.59961 C 7561.8 530.69961 7561.9992 530.89961 7562.1992 531.09961 C 7563.3992 532.69961 7565.1996 533.8 7567.0996 534.5 L 7567.3008 534.59961 C 7569.9008 535.59961 7572.9 535.50078 7575.5 534.30078 L 7578.6992 532.80078 L 7579.1992 533.90039 L 7579.2324 533.91211 L 7579.1992 534 L 7582.5 535.19922 L 7582.5117 535.16602 L 7582.5996 535.19922 L 7583.5 532.80078 L 7583.9004 531.69922 L 7584.8008 529.30078 L 7581.4004 528 L 7580.3008 528.5 L 7578.8008 525.30078 C 7577.6008 522.70078 7575.5008 520.69922 7572.8008 519.69922 L 7572.5996 519.59961 C 7570.6996 518.89961 7568.6992 518.50078 7566.6992 518.80078 C 7566.3992 518.80078 7566.2004 518.79922 7565.9004 518.69922 L 7564.9004 518.30078 C 7564.6004 518.20078 7564.3992 518.00078 7564.1992 517.80078 C 7562.8992 516.20078 7561.1008 515.2 7559.3008 514.5 L 7546.8008 509.80078 C 7546.0508 509.50078 7545.2254 509.37461 7544.4004 509.41211 z " />
      
         
   </g><g
     class="st0"
     id="EOO">
      <path
   id="path1026"
   d="M 7238.8008 501.24609 C 7236.593 501.31172 7234.3996 502.02578 7232.5996 503.30078 L 7229.5996 505.40039 L 7228.9004 504.40039 L 7225.0996 503.69922 L 7224.5996 506.30078 L 7224.4004 507.59961 L 7223.9004 510.19922 L 7224.0156 510.2207 L 7224 510.30078 L 7227.6992 510.90039 L 7228.6992 510.19922 L 7230.8008 513.19922 C 7232.5008 515.59922 7235.0996 517.30078 7238.0996 517.80078 L 7238.5 517.90039 C 7240.6 518.30039 7242.7008 518 7244.8008 517.5 C 7245.0008 517.4 7245.3 517.4 7245.5 517.5 L 7246.6992 517.69922 C 7246.9992 517.69922 7247.2004 517.8 7247.4004 518 C 7249.1004 519.2 7250.9996 520.2 7253.0996 520.5 L 7267.0996 522.90039 C 7268.7996 523.20039 7270.6 522.80078 7272 521.80078 L 7272.1992 521.69922 L 7273.1992 516.19922 L 7273.4004 514.90039 L 7274.4004 509.40039 L 7274.3008 509.19922 C 7273.3008 507.79922 7271.8 506.8 7270 506.5 L 7256 504.09961 C 7253.9 503.69961 7251.7992 504 7249.6992 504.5 C 7249.4992 504.6 7249.2 504.6 7249 504.5 L 7247.8008 504.30078 C 7247.5008 504.30078 7247.2996 504.2 7247.0996 504 C 7245.3996 502.8 7243.5004 501.9 7241.4004 501.5 L 7241 501.40039 C 7240.275 501.27539 7239.5367 501.22422 7238.8008 501.24609 z " />
      
      
   </g><g
     class="st0"
     id="ABI"><path
   id="path1128"
   d="M 7350 546.69922 L 7347.8008 548.80078 L 7347.8008 549.80078 L 7344.9004 549.69922 C 7342.6004 549.59922 7340.2992 550.49961 7338.6992 552.09961 L 7338.5996 552.19922 C 7337.3996 553.29922 7336.4004 554.70078 7335.9004 556.30078 C 7335.8004 556.50078 7335.7 556.70039 7335.5 556.90039 L 7334.8008 557.5 C 7334.6008 557.7 7334.3992 557.80078 7334.1992 557.80078 C 7332.5992 558.20078 7331.2 559.10078 7330 560.30078 L 7322.0996 567.80078 C 7321.0996 568.70078 7320.6 570.00039 7320.5 571.40039 C 7320.5 571.50039 7320.4996 571.59922 7320.5996 571.69922 L 7323.5 574.80078 L 7324.1992 575.5 L 7327.0996 578.59961 C 7327.1996 578.69961 7327.3004 578.69922 7327.4004 578.69922 C 7328.8004 578.69922 7330.0996 578.20078 7331.0996 577.30078 L 7339 569.80078 C 7340.2 568.70078 7341.1992 567.29922 7341.6992 565.69922 C 7341.7992 565.49922 7341.8996 565.29961 7342.0996 565.09961 L 7342.8008 564.5 C 7343.0008 564.3 7343.2004 564.19922 7343.4004 564.19922 C 7344.8004 563.69922 7346.2004 562.79961 7347.4004 561.59961 L 7347.5 561.5 C 7349.2 559.9 7350.0992 557.70039 7350.1992 555.40039 L 7350.3008 552.5 L 7351.3008 552.5 L 7353.4004 550.5 L 7353.3984 550.49805 L 7353.5 550.40039 L 7352.0996 548.90039 L 7351.4004 548.19922 L 7350 546.69922 z " />
      
   </g><g
     class="st0"
     id="MSPB">
      <path
   id="path1734"
   d="M 7909.5 547.80078 L 7907.5 548.69922 L 7907.5391 548.7832 L 7907.5 548.80078 L 7907.1992 549.5 L 7905.1992 548.69922 C 7903.5992 548.09922 7901.7992 548.20039 7900.1992 548.90039 L 7900.0996 548.90039 C 7898.9996 549.40039 7897.8992 550.09961 7897.1992 551.09961 C 7897.0992 551.19961 7897.0008 551.40039 7896.8008 551.40039 L 7896.1992 551.69922 C 7895.9992 551.79922 7895.8992 551.80078 7895.6992 551.80078 C 7894.4992 551.70078 7893.1996 552 7892.0996 552.5 L 7884.5996 555.90039 C 7883.6996 556.30039 7882.9996 557.1 7882.5996 558 L 7882.5996 558.19922 L 7883.9004 561.09961 L 7884.1992 561.80078 L 7885.5 564.69922 C 7885.5 564.79922 7885.5996 564.80078 7885.5996 564.80078 C 7886.5996 565.20078 7887.6 565.09922 7888.5 564.69922 L 7895.9004 561.30078 C 7897.0004 560.80078 7898.1008 560.09961 7898.8008 559.09961 C 7898.9008 558.99961 7898.9992 558.80078 7899.1992 558.80078 L 7899.8008 558.5 C 7900.0008 558.4 7900.1008 558.40039 7900.3008 558.40039 C 7901.7008 558.50039 7902.9 558.19922 7904 557.69922 L 7904.0996 557.69922 C 7905.6996 556.99922 7906.9 555.7 7907.5 554 L 7908.3008 552 L 7909 552.30078 L 7911 551.40039 L 7910.9648 551.31836 L 7911 551.30078 L 7910.4004 549.90039 L 7910.0996 549.19922 L 7909.5 547.80078 z " />
      
   </g><g
     class="st0"
     id="AJI">
      <path
   id="path1740"
   d="M 7201.1934 546.49219 C 7201.0622 546.49148 7200.932 546.49375 7200.8008 546.5 L 7200.6992 546.5 C 7199.1992 546.6 7197.6004 546.90078 7196.4004 547.80078 C 7196.2004 547.90078 7196.0008 548 7195.8008 548 L 7194.9004 548 C 7194.7004 548 7194.5008 548.00039 7194.3008 547.90039 C 7192.9008 547.20039 7191.4004 546.99961 7189.9004 547.09961 L 7179.8008 547.59961 C 7178.5008 547.69961 7177.4 548.19922 7176.5 549.19922 C 7176.4 549.29922 7176.4004 549.40039 7176.4004 549.40039 L 7176.5996 553.30078 L 7176.5996 554.19922 L 7176.8008 558.09961 C 7176.8008 558.19961 7176.8004 558.30078 7176.9004 558.30078 C 7177.8004 559.10078 7179.1008 559.6 7180.3008 559.5 L 7190.4004 559 C 7191.9004 558.9 7193.4992 558.59922 7194.6992 557.69922 C 7194.8992 557.59922 7195.1008 557.5 7195.3008 557.5 L 7196.1992 557.5 C 7196.3992 557.5 7196.6008 557.49961 7196.8008 557.59961 C 7198.0008 558.39961 7199.4996 558.5 7201.0996 558.5 L 7201.3008 558.5 C 7203.4008 558.4 7205.5004 557.40078 7206.9004 555.80078 L 7208.6992 553.80078 L 7209.2969 554.3125 L 7209.3008 554.40039 L 7209.3965 554.39648 L 7209.4004 554.40039 L 7212.1992 554.30078 L 7212.0996 552.40039 L 7212.0996 551.5 L 7212 549.59961 L 7211.8066 549.60742 L 7211.8008 549.5 L 7209.0996 549.69922 L 7209.1035 549.81055 L 7208.5996 550.40039 L 7206.5996 548.59961 C 7205.0996 547.28711 7203.1603 546.50281 7201.1934 546.49219 z " />
      
   </g><g
     class="st0"
     id="EPMCM">
      <path
   id="path1746"
   d="M 7464.6992 526.09961 L 7463.0996 528.59961 L 7463.3008 529.59961 L 7460.5 530.30078 C 7458.2 530.80078 7456.3 532.19922 7455 534.19922 L 7454.9004 534.30078 C 7454.0004 535.70078 7453.4008 537.30039 7453.3008 538.90039 C 7453.3008 539.10039 7453.1996 539.39961 7453.0996 539.59961 L 7452.5996 540.40039 C 7452.4996 540.60039 7452.2996 540.80039 7452.0996 540.90039 C 7450.5996 541.70039 7449.4996 542.90078 7448.5996 544.30078 L 7442.8008 553.59961 C 7442.1008 554.79961 7441.7992 556.1 7442.1992 557.5 C 7442.1992 557.6 7442.3004 557.69922 7442.4004 557.69922 L 7446 559.90039 L 7446.9004 560.40039 L 7450.5 562.59961 C 7450.6 562.59961 7450.7008 562.69961 7450.8008 562.59961 C 7452.1008 562.29961 7453.3 561.50078 7454 560.30078 L 7459.8008 551 C 7460.7008 549.6 7461.3004 548.00039 7461.4004 546.40039 C 7461.4004 546.20039 7461.4996 545.89922 7461.5996 545.69922 L 7462.0996 544.90039 C 7462.1996 544.70039 7462.3996 544.50039 7462.5996 544.40039 C 7464.0996 543.80039 7465.1996 542.49961 7466.0996 541.09961 L 7466.1992 540.90039 C 7467.3992 538.90039 7467.8008 536.60078 7467.3008 534.30078 L 7466.5996 531.5 L 7467.5996 531.30078 L 7469.1992 528.80078 L 7467.4004 527.69922 L 7466.5 527.19922 L 7464.8008 526.09961 L 7464.7715 526.14453 L 7464.6992 526.09961 z " />
      
   </g><g
     class="st0"
     id="BNDI">
      <path
   id="path1752"
   d="M 8048.5879 573.07422 C 8047.7254 573.04922 8046.85 573.2 8046 573.5 L 8045.9004 573.5 C 8044.7004 573.9 8043.6008 574.6 8042.8008 575.5 C 8042.7008 575.6 8042.5004 575.70078 8042.4004 575.80078 L 8041.6992 576 C 8041.4992 576.1 8041.2992 576.1 8041.1992 576 C 8039.9992 575.8 8038.7 576.00039 8037.5 576.40039 L 8029.6992 579.19922 C 8028.6992 579.49922 8027.9 580.29922 8027.5 581.19922 L 8027.5 581.40039 L 8028.5996 584.40039 L 8028.9004 585.09961 L 8030 588.09961 C 8030 588.19961 8030.0996 588.20078 8030.0996 588.30078 C 8030.9996 588.70078 8032.0996 588.80039 8033.0996 588.40039 L 8040.9004 585.59961 C 8042.1004 585.19961 8043.2 584.49961 8044 583.59961 C 8044.1 583.49961 8044.3004 583.40078 8044.4004 583.30078 L 8045.0996 583.09961 C 8045.2996 582.99961 8045.4996 582.99961 8045.5996 583.09961 C 8046.7996 583.29961 8048.0992 583.09922 8049.1992 582.69922 L 8049.3008 582.69922 C 8051.0008 582.09922 8052.2996 580.90078 8053.0996 579.30078 L 8054 577.30078 L 8054.6992 577.59961 L 8056.0957 577.06836 L 8056.9004 576.80078 L 8056.3008 575.30078 L 8056.0996 574.59961 L 8055.5 573.09961 L 8053.4004 573.90039 L 8053.0996 574.59961 L 8051.0996 573.69922 C 8050.2996 573.29922 8049.4504 573.09922 8048.5879 573.07422 z " />
      
   </g><g
     class="st0"
     id="AMI">
      <path
   id="path1758"
   d="M 7669.6992 444.5 L 7666.6992 446.80078 L 7666.5 448 L 7662.9004 447.5 C 7660.0004 447.1 7656.9992 447.89961 7654.6992 449.59961 L 7654.5 449.69922 C 7652.8 450.99922 7651.4 452.5 7650.5 454.5 C 7650.4 454.8 7650.2 454.99922 7650 455.19922 L 7649.0996 455.90039 C 7648.8996 456.10039 7648.6008 456.19922 7648.3008 456.19922 C 7646.2008 456.39922 7644.2996 457.39922 7642.5996 458.69922 L 7631.5 467 C 7630.1 468 7629.2 469.60078 7629 471.30078 C 7629 471.40078 7628.9996 471.49961 7629.0996 471.59961 L 7632.3008 475.90039 L 7633.0996 476.90039 L 7636.3008 481.19922 C 7636.4008 481.29922 7636.4996 481.40039 7636.5996 481.40039 C 7638.2996 481.60039 7640.0004 481.19922 7641.4004 480.19922 L 7652.5 471.90039 C 7654.2 470.60039 7655.6 469.09961 7656.5 467.09961 C 7656.6 466.79961 7656.8 466.60039 7657 466.40039 L 7657.9004 465.69922 C 7658.1004 465.49922 7658.3992 465.40039 7658.6992 465.40039 C 7660.8992 465.10039 7662.8 464.10078 7664.5 462.80078 L 7664.6992 462.69922 C 7667.0992 460.89922 7668.6 458.30039 7669 455.40039 L 7669.5 451.80078 L 7670.6992 452 L 7673.6992 449.69922 L 7672.0996 447.59961 L 7671.4004 446.59961 L 7669.8008 444.5 L 7669.7363 444.54883 L 7669.6992 444.5 z " />
      
   </g><g
     class="st0"
     id="DNK">
      <path
   id="path1764"
   d="M 7846.4004 473.59961 L 7844.5 474.90039 L 7844.4004 475.59961 L 7842.3008 475.19922 C 7840.6008 474.89922 7838.8004 475.29922 7837.4004 476.19922 L 7837.3008 476.30078 C 7836.3008 477.00078 7835.4008 477.9 7834.8008 479 C 7834.7008 479.1 7834.6 479.30039 7834.5 479.40039 L 7833.9004 479.80078 C 7833.8004 479.90078 7833.6004 480 7833.4004 480 C 7832.2004 480.1 7831 480.60078 7830 481.30078 L 7823.1992 485.90039 C 7822.3992 486.50039 7821.7996 487.40039 7821.5996 488.40039 L 7821.5996 488.59961 L 7823.4004 491.19922 L 7823.8008 491.80078 L 7825.5996 494.40039 C 7825.5996 494.50039 7825.7008 494.5 7825.8008 494.5 C 7826.8008 494.7 7827.7992 494.50039 7828.6992 493.90039 L 7835.5 489.30078 C 7836.5 488.60078 7837.4 487.69961 7838 486.59961 C 7838.1 486.49961 7838.2008 486.29922 7838.3008 486.19922 L 7838.9004 485.80078 C 7839.0004 485.70078 7839.2004 485.59961 7839.4004 485.59961 C 7840.7004 485.69961 7841.8008 485.10039 7842.8008 484.40039 L 7842.9004 484.30078 C 7844.3004 483.30078 7845.2996 481.79961 7845.5996 480.09961 L 7846 478 L 7846.6992 478.09961 L 7846.7695 478.05273 L 7846.8008 478.09961 L 7848.5996 476.90039 L 7848.5566 476.83008 L 7848.5996 476.80078 L 7848.0566 476.01758 L 7847.8008 475.59961 L 7847.627 475.39062 L 7847.3008 474.90039 L 7846.7461 474.09961 L 7846.5 473.69922 L 7846.4805 473.71484 L 7846.4004 473.59961 z " />
      
   </g><g
     class="st0"
     id="EFNU">
      <path
   id="path1770"
   d="M 7963.9004 443.69922 L 7963.8184 443.8125 L 7963.8008 443.80078 L 7962.8008 445.19922 L 7962.3008 445.90039 L 7961.3008 447.30078 L 7963.4004 448.69922 L 7964.1992 448.59961 L 7964.6992 451 C 7965.0992 452.9 7966.2008 454.59922 7967.8008 455.69922 L 7967.9004 455.80078 C 7969.0004 456.60078 7970.2992 457.20078 7971.6992 457.30078 C 7971.8992 457.30078 7972.0992 457.4 7972.1992 457.5 L 7972.8008 457.90039 C 7973.0008 458.00039 7973.0992 458.20078 7973.1992 458.30078 C 7973.7992 459.50078 7974.8004 460.50078 7975.9004 461.30078 L 7983.4004 466.40039 C 7984.3004 467.00039 7985.4996 467.29961 7986.5996 467.09961 C 7986.6996 467.09961 7986.7008 467 7986.8008 467 L 7988.8008 464.09961 L 7989.3008 463.40039 L 7991.3008 460.5 C 7991.3008 460.4 7991.4008 460.40078 7991.3008 460.30078 C 7991.1008 459.20078 7990.4 458.19961 7989.5 457.59961 L 7982 452.5 C 7980.9 451.7 7979.5992 451.1 7978.1992 451 C 7977.9992 451 7977.7992 450.90078 7977.6992 450.80078 L 7977.0996 450.40039 C 7976.8996 450.30039 7976.7992 450.1 7976.6992 450 C 7976.1992 448.5 7975.2 447.49922 7974 446.69922 L 7973.9004 446.59961 C 7972.3004 445.49961 7970.3004 445.1 7968.4004 445.5 L 7966 446 L 7965.9004 445.19922 L 7965.8535 445.16797 L 7965.9004 445.09961 L 7963.9004 443.69922 z " />
      
   </g><g
     class="st0"
     id="MRJB">
      <path
   id="path1776"
   d="M 7908.6758 516.52539 C 7908.3031 516.53066 7907.9371 516.58672 7907.5996 516.69922 C 7907.4996 516.69922 7907.5004 516.80078 7907.4004 516.80078 L 7906 519.59961 L 7905.6992 520.30078 L 7904.3008 523.09961 L 7904.3008 523.30078 C 7904.6008 524.30078 7905.2992 525.1 7906.1992 525.5 L 7913.5 529.09961 C 7914.6 529.59961 7915.7996 530.00039 7917.0996 529.90039 C 7917.2996 529.90039 7917.3996 529.9 7917.5996 530 L 7918.1992 530.30078 C 7918.3992 530.40078 7918.4996 530.49961 7918.5996 530.59961 C 7919.4996 531.69961 7920.4996 532.4 7921.5996 533 L 7921.6992 533.09961 C 7923.2992 533.89961 7925.0992 534.00039 7926.6992 533.40039 L 7928.6992 532.69922 L 7928.9004 533.40039 L 7930.9004 534.40039 L 7930.9609 534.2793 L 7931 534.30078 L 7931.6992 532.90039 L 7932 532.19922 L 7932.6992 530.80078 L 7930.8008 529.90039 L 7930.7598 529.98047 L 7930.5996 529.90039 L 7929.9004 530.09961 L 7929.1992 528.09961 C 7928.5992 526.49961 7927.4004 525.10078 7925.9004 524.30078 L 7925.8008 524.30078 C 7924.7008 523.80078 7923.4992 523.4 7922.1992 523.5 C 7921.9992 523.5 7921.8992 523.50039 7921.6992 523.40039 L 7921.0996 523.09961 C 7920.8996 522.99961 7920.7992 522.90078 7920.6992 522.80078 C 7919.9992 521.80078 7919.0004 521 7917.9004 520.5 L 7910.5 516.90039 C 7909.9375 516.65039 7909.2969 516.5166 7908.6758 516.52539 z " />
      
   </g><g
     class="st0"
     id="NPLBL">
      <path
   id="path1782"
   d="M 8222.1777 530.125 C 8221.3621 530.125 8220.5754 530.35078 8219.9004 530.80078 C 8219.8004 530.80078 8219.8008 530.9 8219.8008 531 L 8219.0996 534.40039 L 8218.9004 535.19922 L 8218.1992 538.59961 L 8218.1992 538.80078 C 8218.7992 539.70078 8219.7008 540.39961 8220.8008 540.59961 L 8229.5 542.40039 C 8230.8 542.70039 8232.2 542.70078 8233.5 542.30078 C 8233.7 542.20078 8233.9 542.20078 8234 542.30078 L 8234.6992 542.5 C 8234.8992 542.5 8235.0992 542.60078 8235.1992 542.80078 C 8236.3992 543.80078 8237.7 544.29961 8239 544.59961 L 8239.0996 544.59961 C 8240.8996 544.99961 8242.9004 544.59961 8244.4004 543.59961 L 8246.4004 542.30078 L 8246.8008 543 L 8249.1992 543.5 L 8249.2031 543.47852 L 8249.3008 543.5 L 8249.5996 541.80078 L 8249.8008 541 L 8250.0996 539.40039 L 8249.9863 539.375 L 8250 539.30078 L 8247.5996 538.80078 L 8246.9004 539.19922 L 8245.5996 537.19922 C 8244.5996 535.59922 8242.8996 534.49961 8241.0996 534.09961 L 8241 534.09961 C 8239.7 533.79961 8238.3 533.79922 8237 534.19922 C 8236.8 534.29922 8236.6 534.29922 8236.5 534.19922 L 8235.8008 534 C 8235.6008 534 8235.4008 533.89922 8235.3008 533.69922 C 8234.3008 532.79922 8232.9992 532.3 8231.6992 532 L 8223 530.19922 C 8222.725 530.14922 8222.4496 530.125 8222.1777 530.125 z " />
      
   </g><g
     class="st0"
     id="SPOO">
      <path
   id="path1788"
   d="M 8179.5371 452.18945 C 8179.4255 452.19026 8179.3117 452.19297 8179.1992 452.19922 L 8179.0996 452.19922 C 8177.8996 452.29922 8176.5996 452.59922 8175.5996 453.19922 C 8175.4996 453.29922 8175.2996 453.30039 8175.0996 453.40039 L 8174.4004 453.40039 C 8174.2004 453.40039 8174.0004 453.40078 8173.9004 453.30078 C 8172.8004 452.70078 8171.5008 452.59961 8170.3008 452.59961 L 8162 453 C 8161 453 8160.0008 453.50078 8159.3008 454.30078 C 8159.3008 454.30078 8159.1992 454.4 8159.1992 454.5 L 8159.4004 457.69922 L 8159.4004 458.5 L 8159.5996 461.69922 C 8159.5996 461.79922 8159.5992 461.80039 8159.6992 461.90039 C 8160.4992 462.60039 8161.5 462.90039 8162.5 462.90039 L 8170.6992 462.5 C 8171.9992 462.4 8173.1992 462.1 8174.1992 461.5 C 8174.2992 461.4 8174.4992 461.40078 8174.6992 461.30078 L 8175.4004 461.30078 C 8175.6004 461.30078 8175.8004 461.30039 8175.9004 461.40039 C 8177.1004 462.10039 8178.3996 462.19922 8179.5996 462.19922 L 8179.6992 462.19922 C 8181.4992 462.09922 8183.1008 461.3 8184.3008 460 L 8185.8008 458.40039 L 8186.3008 458.90039 L 8186.4004 458.89648 L 8186.4004 458.90039 L 8186.4902 458.89258 L 8188.5996 458.80078 L 8188.5938 458.69922 L 8188.5996 458.69922 L 8188.5 457.19922 L 8188.5 456.40039 L 8188.4004 454.80078 L 8186.0996 454.90039 L 8185.5996 455.40039 L 8184 453.90039 C 8182.7812 452.77539 8181.2118 452.17737 8179.5371 452.18945 z " />
      
   </g><g
     class="st0"
     id="WBO">
      <path
   id="path1794"
   d="M 7381.6133 457.5918 C 7381.4759 457.59106 7381.3367 457.59336 7381.1992 457.59961 L 7381 457.59961 C 7379.4 457.69961 7377.8004 458.10039 7376.4004 458.90039 C 7376.2004 459.00039 7376.0008 459.09961 7375.8008 459.09961 L 7374.9004 459.09961 C 7374.7004 459.09961 7374.4008 459.1 7374.3008 459 C 7372.9008 458.3 7371.1996 458.09961 7369.5996 458.09961 L 7359 458.59961 C 7357.7 458.69961 7356.4996 459.29922 7355.5996 460.19922 C 7355.4996 460.29922 7355.5 460.4 7355.5 460.5 L 7355.6992 464.59961 L 7355.6992 465.59961 L 7355.9004 469.69922 C 7355.9004 469.79922 7355.9 469.90039 7356 469.90039 C 7357 470.80039 7358.2996 471.19922 7359.5996 471.19922 L 7370.1992 470.69922 C 7371.7992 470.59922 7373.4008 470.20039 7374.8008 469.40039 C 7375.0008 469.30039 7375.2004 469.19922 7375.4004 469.19922 L 7376.3008 469.19922 C 7376.5008 469.19922 7376.8004 469.20078 7376.9004 469.30078 C 7378.2004 470.10078 7379.9 470.40078 7381.5 470.30078 L 7381.6992 470.30078 C 7383.9992 470.20078 7386.0996 469.2 7387.5996 467.5 L 7389.5 465.40039 L 7390.0957 465.91211 L 7390.0996 466 L 7390.1953 465.99609 L 7390.1992 466 L 7393.0996 465.90039 L 7393 463.90039 L 7393 462.90039 L 7392.9004 460.90039 L 7392.6992 460.9082 L 7392.6992 460.90039 L 7389.9004 461 L 7389.9043 461.11133 L 7389.4004 461.69922 L 7387.3008 459.80078 C 7385.707 458.39453 7383.674 457.60278 7381.6133 457.5918 z " />
      
   </g></g>
</svg>
