<?xml version="1.0" encoding="UTF-8" standalone="no"?>
<!-- Generator: Adobe Illustrator 18.0.0, SVG Export Plug-In . SVG Version: 6.00 Build 0)  -->

<svg
   version="1.1"
   id="background"
   x="0px"
   y="0px"
   width="9451.45px"
   height="623.52px"
   viewBox="0 0 9451.45 623.52"
   enable-background="new 0 0 9451.45 623.52"
   xml:space="preserve"
   sodipodi:docname="54_ Platic bottled water_mask-01-simplified_specialcase.svg"
   inkscape:version="1.1.1 (c3084ef, 2021-09-22)"
   xmlns:inkscape="http://www.inkscape.org/namespaces/inkscape"
   xmlns:sodipodi="http://sodipodi.sourceforge.net/DTD/sodipodi-0.dtd"
   xmlns="http://www.w3.org/2000/svg"
   xmlns:svg="http://www.w3.org/2000/svg"><defs
   id="defs4421">
	
	
<clipPath
   id="clip1"><path
     d="M 7098.3828,149.06641 H 7130 v 7.875 h -31.6172 z m 0,0"
     id="path1276" /></clipPath><clipPath
   id="clip2"><path
     d="M 7098.3828,163 H 7138 v 7 h -39.6172 z m 0,0"
     id="path1279" /></clipPath><clipPath
   id="clip3"><path
     d="m 7098.3828,176 h 25.1055 v 7.51953 h -25.1055 z m 0,0"
     id="path1282" /></clipPath><clipPath
   id="clip4"><path
     d="M 7098.3828,203 H 7129 v 6 h -30.6172 z m 0,0"
     id="path1285" /></clipPath><clipPath
   id="clip5"><path
     d="m 7084.6562,149.23828 h 6.6485 v 6.64453 h -6.6485 z m 0,0"
     id="path1288" /></clipPath><clipPath
   id="clip6"><rect
     x="0"
     y="0"
     width="9451"
     height="623"
     id="rect1299" /></clipPath><mask
   id="mask0"><g
     filter="url(#alpha)"
     id="g1296"><rect
       x="0"
       y="0"
       width="9451"
       height="623"
       style="fill:#000000;fill-opacity:0.392197;stroke:none"
       id="rect1294" /></g></mask><filter
   id="alpha"
   filterUnits="objectBoundingBox"
   x="0"
   y="0"
   width="1"
   height="1"><feColorMatrix
     type="matrix"
     in="SourceGraphic"
     values="0 0 0 0 1 0 0 0 0 1 0 0 0 0 1 0 0 0 1 0"
     id="feColorMatrix1291" /></filter><clipPath
   id="clipPath7076"><rect
     x="0"
     y="0"
     width="9451"
     height="623"
     id="rect7074" /></clipPath><clipPath
   id="clip7"><path
     d="m 7084.6562,189.10547 h 6.6485 V 195.75 h -6.6485 z m 0,0"
     id="path1305" /></clipPath><clipPath
   id="clip8"><rect
     x="0"
     y="0"
     width="9451"
     height="623"
     id="rect1313" /></clipPath><mask
   id="mask1"><g
     filter="url(#alpha)"
     id="g1310"><rect
       x="0"
       y="0"
       width="9451"
       height="623"
       style="fill:#000000;fill-opacity:0.392197;stroke:none"
       id="rect1308" /></g></mask><filter
   id="filter7087"
   filterUnits="objectBoundingBox"
   x="0"
   y="0"
   width="1"
   height="1"><feColorMatrix
     type="matrix"
     in="SourceGraphic"
     values="0 0 0 0 1 0 0 0 0 1 0 0 0 0 1 0 0 0 1 0"
     id="feColorMatrix7085" /></filter><clipPath
   id="clipPath7091"><rect
     x="0"
     y="0"
     width="9451"
     height="623"
     id="rect7089" /></clipPath><clipPath
   id="clip9"><path
     d="M 7267.0391,262 H 7285 v 6 h -17.9609 z m 0,0"
     id="path1319" /></clipPath><clipPath
   id="clip10"><path
     d="m 7267.0391,270 h 46.0859 v 6 h -46.0859 z m 0,0"
     id="path1322" /></clipPath><clipPath
   id="clip11"><path
     d="m 7342.8906,331 h 30.8672 v 8 h -30.8672 z m 0,0"
     id="path1325" /></clipPath><clipPath
   id="clip12"><path
     d="m 7343,339 h 30.7578 v 7 H 7343 Z m 0,0"
     id="path1328" /></clipPath><clipPath
   id="clip13"><path
     d="m 7565,272 h 49.1797 v 6 H 7565 Z m 0,0"
     id="path1331" /></clipPath><clipPath
   id="clip14"><path
     d="M 7432.1875,486 H 7451 v 7 h -18.8125 z m 0,0"
     id="path1334" /></clipPath><clipPath
   id="clip15"><path
     d="M 7432.1875,495 H 7457 v 6 h -24.8125 z m 0,0"
     id="path1337" /></clipPath><clipPath
   id="clip16"><path
     d="M 7696.5703,456.07422 H 7725 V 464 h -28.4297 z m 0,0"
     id="path1340" /></clipPath><clipPath
   id="clip17"><path
     d="m 7696.5703,465 h 43.6602 v 7 h -43.6602 z m 0,0"
     id="path1343" /></clipPath><clipPath
   id="clip18"><path
     d="m 7047,352 h 43.5352 v 7.96484 H 7047 Z m 0,0"
     id="path1346" /></clipPath><clipPath
   id="clip19"><path
     d="m 7824,486 h 70.3633 v 7 H 7824 Z m 0,0"
     id="path1349" /></clipPath><clipPath
   id="clip20"><path
     d="m 7343,246 h 49.1289 v 7 H 7343 Z m 0,0"
     id="path1352" /></clipPath><clipPath
   id="clip21"><path
     d="m 7455,332 h 35.832 v 7 H 7455 Z m 0,0"
     id="path1355" /></clipPath><clipPath
   id="clip22"><path
     d="m 7164.6992,334 h 42.961 v 8 h -42.961 z m 0,0"
     id="path1358" /></clipPath><clipPath
   id="clip23"><path
     d="m 7650.793,238 h 40.7304 v 7 h -40.7304 z m 0,0"
     id="path1361" /></clipPath><clipPath
   id="clip24"><path
     d="m 7464,414 h 46.7305 v 7 H 7464 Z m 0,0"
     id="path1364" /></clipPath><clipPath
   id="clip25"><path
     d="m 7464,422 h 20 v 7.60156 h -20 z m 0,0"
     id="path1367" /></clipPath><clipPath
   id="clip26"><path
     d="m 7548,460 h 62.8633 v 7 H 7548 Z m 0,0"
     id="path1370" /></clipPath><clipPath
   id="clip27"><path
     d="m 7491,502 h 58.9414 v 7 H 7491 Z m 0,0"
     id="path1373" /></clipPath><clipPath
   id="clip28"><path
     d="m 7637,528 h 53.2734 v 7 H 7637 Z m 0,0"
     id="path1376" /></clipPath><clipPath
   id="clip29"><path
     d="m 7603.0156,390 h 48.2071 v 7 h -48.2071 z m 0,0"
     id="path1379" /></clipPath><clipPath
   id="clip30"><path
     d="M 7603.0156,398 H 7631 v 7 h -27.9844 z m 0,0"
     id="path1382" /></clipPath><clipPath
   id="clip31"><path
     d="m 7762,403.13672 h 46 V 411 h -46 z m 0,0"
     id="path1385" /></clipPath><clipPath
   id="clip32"><path
     d="m 7762,412 h 46.0273 v 6 H 7762 Z m 0,0"
     id="path1388" /></clipPath></defs><sodipodi:namedview
   id="namedview4419"
   pagecolor="#505050"
   bordercolor="#eeeeee"
   borderopacity="1"
   inkscape:pageshadow="0"
   inkscape:pageopacity="0"
   inkscape:pagecheckerboard="0"
   showgrid="false"
   inkscape:zoom="0.89006031"
   inkscape:cx="7136.0333"
   inkscape:cy="339.30285"
   inkscape:window-width="1440"
   inkscape:window-height="762"
   inkscape:window-x="0"
   inkscape:window-y="25"
   inkscape:window-maximized="1"
   inkscape:current-layer="background" /><g
   id="multiple"
   transform="translate(-394.55934,-65.71485)"><g
     id="NA-1"
     style="opacity:0.75"
     transform="translate(382.8948,-164.51949)">
      <path
   id="path4"
   d="m 7480.1992,415.09961 -0.076,0.11523 -0.023,-0.0156 -2,2.90039 0.2012,1.09961 -3.3008,0.70117 c -2.7,0.5 -5,2.10039 -6.5,4.40039 l -0.1992,0.29883 c -1.1,1.6 -1.7004,3.50039 -1.9004,5.40039 0,0.2 -0.1012,0.39961 -0.2012,0.59961 l -0.5996,0.90039 c -0.1,0.2 -0.3,0.4 -0.5,0.5 -1.7,1 -3.1992,2.30039 -4.1992,3.90039 l -7.2012,10.79883 c -0.9,1.3 -1.1984,3 -0.8984,4.5 v 0.20117 l 4.2988,2.90039 1,0.59961 4.3008,2.79883 h 0.1992 c 1.6,-0.3 2.9008,-1.19961 3.8008,-2.59961 l 7.1992,-10.79883 c 1.1,-1.6 1.7004,-3.50039 1.9004,-5.40039 0,-0.2 0.099,-0.39961 0.1992,-0.59961 l 0.6016,-0.90039 c 0.1,-0.2 0.3,-0.4 0.5,-0.5 1.8,-1.2 3.1988,-2.4 4.2988,-4 l 0.2012,-0.30078 c 1.5,-2.3 2.1,-4.99922 1.5,-7.69922 l -0.7012,-3.30078 1.0996,-0.19922 0.076,-0.11719 0.025,0.0176 1.8984,-2.80078 -2,-1.40039 -1,-0.59961 z" />
   </g><g
     id="NA-2"
     style="opacity:0.75">
      <path
   id="path10"
   d="m 7694.5996,520.59961 -2.2988,1.40039 -1.1016,0.69922 -2.2988,1.40039 2.0996,3.30078 1.1992,0.29883 -0.7988,3.70117 c -0.7,2.9 -0.1,5.99961 1.5,8.59961 l 0.1992,0.30078 c 1.1,1.8 2.7996,3.29844 4.5996,4.39844 0.2,0.1 0.4,0.3 0.5,0.5 l 0.6016,1 c 0.1,0.2 0.1988,0.50117 0.2988,0.70117 0.3,2.1 0.9,4.2 2,6 l 7.7012,12.19922 c 0.9,1.5 2.3992,2.50039 4.1992,2.90039 h 0.1992 l 4.8008,-3 1.0996,-0.69922 4.8008,-3 v -0.20117 c 0.4,-1.7 0.1,-3.5 -0.9004,-5 l -7.6992,-12.19922 c -1.1,-1.8 -2.8016,-3.30039 -4.6016,-4.40039 -0.2,-0.1 -0.4,-0.3 -0.5,-0.5 l -0.5996,-1 c -0.1,-0.2 -0.1988,-0.49922 -0.2988,-0.69922 -0.2,-2.2 -0.8,-4.30156 -2,-6.10156 l -0.2012,-0.29883 c -1.6,-2.5 -4.1996,-4.4 -7.0996,-5 l -3.5996,-0.80078 0.2988,-1.19922 z" />
   </g><g
     id="BM"
     style="opacity:0.75">
      <path
   id="path16"
   d="m 7784.6992,545.5 -0.8984,2 -0.4004,0.90039 -0.9004,2 2.8008,1.29883 1,-0.29883 1,2.79883 c 0.8,2.3 2.4992,4.10156 4.6992,5.10156 l 0.3008,0.0996 c 1.6,0.7 3.3,1.00039 5,0.90039 0.2,0 0.3996,-3.9e-4 0.5996,0.0996 l 0.9004,0.40039 c 0.2,0.1 0.4,0.19844 0.5,0.39844 1.1,1.3 2.4,2.40117 4,3.20117 l 10.3984,4.79883 c 1.3,0.6 2.7,0.60117 4,0.20117 l 0.1016,-0.0996 1.8984,-4.10156 0.4004,-0.89844 1.9004,-4.10156 -0.1,-0.19922 c -0.5,-1.3 -1.5008,-2.4 -2.8008,-3 l -10.4004,-4.80078 c -1.5,-0.7 -3.3,-0.99844 -5,-0.89844 -0.2,0 -0.3996,-0.002 -0.5996,-0.10156 l -0.9004,-0.39844 c -0.2,-0.1 -0.4,-0.20039 -0.5,-0.40039 -0.9,-1.4 -2.1988,-2.50117 -3.7988,-3.20117 l -0.3008,-0.0996 c -2.2,-1 -4.7004,-1.09883 -6.9004,-0.29883 l -2.7988,1 -0.4004,-1 z" />
   </g><g
     id="ACI"
     style="opacity:0.75">
      <path
   id="path106"
   d="m 8106.6992,488 -2.5996,2.40039 -0.1,1.09961 -3.4004,-0.19922 c -2.7,-0.1 -5.4004,0.79961 -7.4004,2.59961 L 8093,494.09961 c -1.4,1.3 -2.4992,3.00078 -3.1992,4.80078 -0.1,0.2 -0.2004,0.4 -0.4004,0.5 l -0.8008,0.69922 c -0.2,0.2 -0.3996,0.30078 -0.5996,0.30078 -1.9,0.5 -3.5996,1.39922 -5.0996,2.69922 l -9.5996,8.70117 c -1.2,1.1 -1.9,2.59922 -2,4.19922 v 0.19922 l 3.3984,3.80078 0.8008,0.90039 3.4004,3.79883 h 0.1992 c 1.6,0.1 3.1008,-0.5 4.3008,-1.5 L 8093,514.5 c 1.4,-1.3 2.4992,-3.00078 3.1992,-4.80078 0.1,-0.2 0.2004,-0.4 0.4004,-0.5 l 0.8008,-0.69922 c 0.2,-0.2 0.3996,-0.30078 0.5996,-0.30078 2,-0.5 3.6992,-1.39922 5.1992,-2.69922 l 0.2012,-0.19922 c 2,-1.8 3.2004,-4.40156 3.4004,-7.10156 l 0.1992,-3.39844 1.0996,0.0996 2.5996,-2.40039 -1.5996,-1.80078 -0.7988,-0.89844 z" />
   </g><g
     id="NPLOO"
     style="opacity:0.75"
     transform="translate(382.8948,-164.51949)">
      <path
   id="path186"
   d="m 7544.4004,509.41211 c -0.825,0.0375 -1.6504,0.23789 -2.4004,0.58789 -0.1,0 -0.1992,0.10078 -0.1992,0.30078 l -1.8008,4.79883 -0.4004,1.09961 -1.7988,4.80078 v 0.30078 c 0.7,1.5 1.9,2.69883 3.5,3.29883 l 12.5,4.70117 c 1.9,0.7 3.8984,1.09883 5.8984,0.79883 0.3,0 0.5008,-3.9e-4 0.8008,0.0996 l 1,0.40039 c 0.3,0.1 0.4992,0.3 0.6992,0.5 1.2,1.6 3.0004,2.70039 4.9004,3.40039 l 0.2012,0.0996 c 2.6,1 5.5992,0.90117 8.1992,-0.29883 l 3.1992,-1.5 0.5,1.09961 0.033,0.0117 -0.033,0.0879 3.3008,1.19922 0.012,-0.0332 0.088,0.0332 0.9004,-2.39844 0.4004,-1.10156 0.9004,-2.39844 -3.4004,-1.30078 -1.0996,0.5 -1.5,-3.19922 c -1.2,-2.6 -3.3,-4.60156 -6,-5.60156 l -0.2012,-0.0996 c -1.9,-0.7 -3.9004,-1.09883 -5.9004,-0.79883 -0.3,0 -0.4988,-0.002 -0.7988,-0.10156 l -1,-0.39844 c -0.3,-0.1 -0.5012,-0.3 -0.7012,-0.5 -1.3,-1.6 -3.0984,-2.60078 -4.8984,-3.30078 l -12.5,-4.69922 c -0.75,-0.3 -1.5754,-0.42617 -2.4004,-0.38867 z" />
      
         
   </g><g
     class="st0"
     id="EOO"
     transform="translate(382.8948,-164.51949)">
      <path
   id="path1026"
   d="m 7238.8008,501.24609 c -2.2078,0.0656 -4.4012,0.77969 -6.2012,2.05469 l -3,2.09961 -0.6992,-1 -3.8008,-0.70117 -0.5,2.60156 -0.1992,1.29883 -0.5,2.59961 0.1152,0.0215 -0.016,0.0801 3.6992,0.59961 1,-0.70117 2.1016,3 c 1.7,2.4 4.2988,4.10156 7.2988,4.60156 l 0.4004,0.0996 c 2.1,0.4 4.2008,0.0996 6.3008,-0.40039 0.2,-0.1 0.4992,-0.1 0.6992,0 l 1.1992,0.19922 c 0.3,0 0.5012,0.10078 0.7012,0.30078 1.7,1.2 3.5992,2.2 5.6992,2.5 l 14,2.40039 c 1.7,0.3 3.5004,-0.0996 4.9004,-1.09961 l 0.1992,-0.10156 1,-5.5 0.2012,-1.29883 1,-5.5 -0.1,-0.20117 c -1,-1.4 -2.5008,-2.39922 -4.3008,-2.69922 l -14,-2.40039 c -2.1,-0.4 -4.2008,-0.0996 -6.3008,0.40039 -0.2,0.1 -0.4992,0.1 -0.6992,0 l -1.1992,-0.19922 c -0.3,0 -0.5012,-0.10078 -0.7012,-0.30078 -1.7,-1.2 -3.5992,-2.1 -5.6992,-2.5 L 7241,501.40039 c -0.725,-0.125 -1.4633,-0.17617 -2.1992,-0.1543 z" />
      
      
   </g><g
     class="st0"
     id="ABI"
     transform="translate(382.8948,-164.51949)"><path
   id="path1128"
   d="m 7350,546.69922 -2.1992,2.10156 v 1 l -2.9004,-0.10156 c -2.3,-0.1 -4.6012,0.80039 -6.2012,2.40039 l -0.1,0.0996 c -1.2,1.1 -2.1992,2.50156 -2.6992,4.10156 -0.1,0.2 -0.2004,0.39961 -0.4004,0.59961 l -0.6992,0.59961 c -0.2,0.2 -0.4016,0.30078 -0.6016,0.30078 -1.6,0.4 -2.9992,1.3 -4.1992,2.5 l -7.9004,7.5 c -1,0.9 -1.4996,2.19961 -1.5996,3.59961 0,0.1 -4e-4,0.19883 0.1,0.29883 l 2.9004,3.10156 0.6992,0.69922 2.9004,3.09961 c 0.1,0.1 0.2008,0.0996 0.3008,0.0996 1.4,0 2.6992,-0.49844 3.6992,-1.39844 l 7.9004,-7.5 c 1.2,-1.1 2.1992,-2.50156 2.6992,-4.10156 0.1,-0.2 0.2004,-0.39961 0.4004,-0.59961 l 0.7012,-0.59961 c 0.2,-0.2 0.3996,-0.30078 0.5996,-0.30078 1.4,-0.5 2.8,-1.39961 4,-2.59961 l 0.1,-0.0996 c 1.7,-1.6 2.5992,-3.79961 2.6992,-6.09961 l 0.1016,-2.90039 h 1 l 2.0996,-2 v -0.002 l 0.1016,-0.0977 -1.4004,-1.5 -0.6992,-0.70117 z" />
      
   </g><g
     class="st0"
     id="MSPB">
      <path
   id="path1734"
   d="m 7909.5,547.80078 -2,0.89844 0.039,0.084 -0.039,0.0176 -0.3008,0.69922 -2,-0.80078 c -1.6,-0.6 -3.4,-0.49883 -5,0.20117 h -0.1 c -1.1,0.5 -2.2004,1.19922 -2.9004,2.19922 -0.1,0.1 -0.1984,0.30078 -0.3984,0.30078 l -0.6016,0.29883 c -0.2,0.1 -0.3,0.10156 -0.5,0.10156 -1.2,-0.1 -2.4996,0.19922 -3.5996,0.69922 l -7.5,3.40039 c -0.9,0.4 -1.6,1.19961 -2,2.09961 v 0.19922 l 1.3008,2.90039 0.2988,0.70117 1.3008,2.89844 c 0,0.1 0.1,0.10156 0.1,0.10156 1,0.4 2.0004,0.29844 2.9004,-0.10156 l 7.4004,-3.39844 c 1.1,-0.5 2.2004,-1.20117 2.9004,-2.20117 0.1,-0.1 0.1984,-0.29883 0.3984,-0.29883 l 0.6016,-0.30078 c 0.2,-0.1 0.3,-0.0996 0.5,-0.0996 1.4,0.1 2.5992,-0.20117 3.6992,-0.70117 h 0.1 c 1.6,-0.7 2.8004,-1.99922 3.4004,-3.69922 l 0.8008,-2 0.6992,0.30078 2,-0.90039 -0.035,-0.082 0.035,-0.0176 -0.5996,-1.40039 -0.3008,-0.70117 z" />
      
   </g><g
     class="st0"
     id="AJI"
     transform="translate(382.8948,-164.51949)">
      <path
   id="path1740"
   d="m 7201.1934,546.49219 c -0.1312,-7.1e-4 -0.2614,0.002 -0.3926,0.008 h -0.1016 c -1.5,0.1 -3.0988,0.40078 -4.2988,1.30078 -0.2,0.1 -0.3996,0.19922 -0.5996,0.19922 h -0.9004 c -0.2,0 -0.3996,3.9e-4 -0.5996,-0.0996 -1.4,-0.7 -2.9004,-0.90078 -4.4004,-0.80078 l -10.0996,0.5 c -1.3,0.1 -2.4008,0.59961 -3.3008,1.59961 -0.1,0.1 -0.1,0.20117 -0.1,0.20117 l 0.1992,3.90039 v 0.89844 l 0.2012,3.90039 c 0,0.1 -4e-4,0.20117 0.1,0.20117 0.9,0.8 2.2004,1.29922 3.4004,1.19922 l 10.0996,-0.5 c 1.5,-0.1 3.0988,-0.40078 4.2988,-1.30078 0.2,-0.1 0.4016,-0.19922 0.6016,-0.19922 h 0.8984 c 0.2,0 0.4016,-3.9e-4 0.6016,0.0996 1.2,0.8 2.6988,0.90039 4.2988,0.90039 h 0.2012 c 2.1,-0.1 4.1996,-1.09922 5.5996,-2.69922 l 1.7988,-2 0.5977,0.51172 v 0.0879 l 0.096,-0.004 v 0.004 l 2.7988,-0.0996 -0.1,-1.90039 V 551.5 l -0.1,-1.90039 -0.1934,0.008 -0.01,-0.10742 -2.7012,0.19922 v 0.11133 l -0.5039,0.58984 -2,-1.80078 c -1.5,-1.3125 -3.4393,-2.0968 -5.4062,-2.10742 z" />
      
   </g><g
     class="st0"
     id="EPMCM"
     transform="translate(382.8948,-164.51949)">
      <path
   id="path1746"
   d="m 7464.6992,526.09961 -1.5996,2.5 0.2012,1 -2.8008,0.70117 c -2.3,0.5 -4.2,1.89844 -5.5,3.89844 l -0.1,0.10156 c -0.9,1.4 -1.4996,2.99961 -1.5996,4.59961 0,0.2 -0.1012,0.49922 -0.2012,0.69922 l -0.5,0.80078 c -0.1,0.2 -0.3,0.4 -0.5,0.5 -1.5,0.8 -2.6,2.00039 -3.5,3.40039 l -5.7988,9.29883 c -0.7,1.2 -1.0016,2.50039 -0.6016,3.90039 0,0.1 0.1012,0.19922 0.2012,0.19922 l 3.5996,2.20117 0.9004,0.5 3.5996,2.19922 c 0.1,0 0.2008,0.1 0.3008,0 1.3,-0.3 2.4992,-1.09883 3.1992,-2.29883 L 7459.8008,551 c 0.9,-1.4 1.4996,-2.99961 1.5996,-4.59961 0,-0.2 0.099,-0.50117 0.1992,-0.70117 l 0.5,-0.79883 c 0.1,-0.2 0.3,-0.4 0.5,-0.5 1.5,-0.6 2.6,-1.90078 3.5,-3.30078 l 0.1,-0.19922 c 1.2,-2 1.6016,-4.29961 1.1016,-6.59961 L 7466.6,531.5 l 1,-0.19922 1.5996,-2.5 -1.7988,-1.10156 -0.9004,-0.5 -1.6992,-1.09961 -0.029,0.0449 z" />
      
   </g><g
     class="st0"
     id="BNDI">
      <path
   id="path1752"
   d="M 8048.5879,573.07422 C 8047.7254,573.04922 8046.85,573.2 8046,573.5 h -0.1 c -1.2,0.4 -2.2996,1.1 -3.0996,2 -0.1,0.1 -0.3004,0.20078 -0.4004,0.30078 L 8041.6992,576 c -0.2,0.1 -0.4,0.1 -0.5,0 -1.2,-0.2 -2.4992,3.9e-4 -3.6992,0.40039 l -7.8008,2.79883 c -1,0.3 -1.7992,1.1 -2.1992,2 v 0.20117 l 1.0996,3 0.3008,0.69922 1.0996,3 c 0,0.1 0.1,0.10117 0.1,0.20117 0.9,0.4 2,0.49961 3,0.0996 l 7.8008,-2.80078 c 1.2,-0.4 2.2996,-1.1 3.0996,-2 0.1,-0.1 0.3004,-0.19883 0.4004,-0.29883 l 0.6992,-0.20117 c 0.2,-0.1 0.4,-0.1 0.5,0 1.2,0.2 2.4996,-3.9e-4 3.5996,-0.40039 h 0.1016 c 1.7,-0.6 2.9988,-1.79844 3.7988,-3.39844 l 0.9004,-2 0.6992,0.29883 1.3965,-0.53125 0.8047,-0.26758 -0.5996,-1.5 -0.2012,-0.70117 -0.5996,-1.5 -2.0996,0.80078 -0.3008,0.69922 -2,-0.90039 c -0.8,-0.4 -1.6492,-0.6 -2.5117,-0.625 z" />
      
   </g><g
     class="st0"
     id="AMI"
     transform="translate(382.8948,-164.51949)">
      <path
   id="path1758"
   d="m 7669.6992,444.5 -3,2.30078 L 7666.5,448 l -3.5996,-0.5 c -2.9,-0.4 -5.9012,0.39961 -8.2012,2.09961 l -0.1992,0.0996 c -1.7,1.3 -3.1,2.80078 -4,4.80078 -0.1,0.3 -0.3,0.49922 -0.5,0.69922 l -0.9004,0.70117 c -0.2,0.2 -0.4988,0.29883 -0.7988,0.29883 -2.1,0.2 -4.0012,1.2 -5.7012,2.5 L 7631.5,467 c -1.4,1 -2.3,2.60078 -2.5,4.30078 0,0.1 -4e-4,0.19883 0.1,0.29883 l 3.2012,4.30078 0.7988,1 3.2012,4.29883 c 0.1,0.1 0.1988,0.20117 0.2988,0.20117 1.7,0.2 3.4008,-0.20117 4.8008,-1.20117 l 11.0996,-8.29883 c 1.7,-1.3 3.1,-2.80078 4,-4.80078 0.1,-0.3 0.3,-0.49922 0.5,-0.69922 l 0.9004,-0.70117 c 0.2,-0.2 0.4988,-0.29883 0.7988,-0.29883 2.2,-0.3 4.1008,-1.29961 5.8008,-2.59961 l 0.1992,-0.10156 c 2.4,-1.8 3.9008,-4.39883 4.3008,-7.29883 l 0.5,-3.59961 1.1992,0.19922 3,-2.30078 -1.5996,-2.09961 -0.6992,-1 -1.5996,-2.09961 -0.065,0.0488 z" />
      
   </g><g
     class="st0"
     id="DNK">
      <path
   id="path1764"
   d="m 7846.4004,473.59961 -1.9004,1.30078 -0.1,0.69922 -2.0996,-0.40039 c -1.7,-0.3 -3.5004,0.1 -4.9004,1 l -0.1,0.10156 c -1,0.7 -1.9,1.59922 -2.5,2.69922 -0.1,0.1 -0.2008,0.30039 -0.3008,0.40039 l -0.5996,0.40039 c -0.1,0.1 -0.3,0.19922 -0.5,0.19922 -1.2,0.1 -2.4004,0.60078 -3.4004,1.30078 l -6.8008,4.59961 c -0.8,0.6 -1.3996,1.5 -1.5996,2.5 v 0.19922 l 1.8008,2.59961 0.4004,0.60156 1.7988,2.59961 c 0,0.1 0.1012,0.0996 0.2012,0.0996 1,0.2 1.9984,3.9e-4 2.8984,-0.59961 l 6.8008,-4.59961 c 1,-0.7 1.9,-1.60117 2.5,-2.70117 0.1,-0.1 0.2008,-0.30039 0.3008,-0.40039 l 0.5996,-0.39844 c 0.1,-0.1 0.3,-0.20117 0.5,-0.20117 1.3,0.1 2.4004,-0.49922 3.4004,-1.19922 l 0.1,-0.0996 c 1.4,-1 2.3992,-2.50117 2.6992,-4.20117 L 7846,478 l 0.6992,0.0996 0.07,-0.0469 0.031,0.0469 1.7988,-1.19922 -0.043,-0.0703 0.043,-0.0293 -0.543,-0.7832 -0.2558,-0.41797 -0.1738,-0.20899 -0.3262,-0.49023 -0.5547,-0.80078 -0.2461,-0.40039 -0.02,0.0156 z" />
      
   </g><g
     class="st0"
     id="EFNU">
      <path
   id="path1770"
   d="m 7963.9004,443.69922 -0.082,0.11328 -0.018,-0.0117 -1,1.39844 -0.5,0.70117 -1,1.40039 2.0996,1.39844 0.7988,-0.0996 0.5,2.40039 c 0.4,1.9 1.5016,3.59922 3.1016,4.69922 l 0.1,0.10156 c 1.1,0.8 2.3988,1.4 3.7988,1.5 0.2,0 0.4,0.0992 0.5,0.19922 l 0.6016,0.40039 c 0.2,0.1 0.2984,0.30039 0.3984,0.40039 0.6,1.2 1.6012,2.2 2.7012,3 l 7.5,5.09961 c 0.9,0.6 2.0992,0.89922 3.1992,0.69922 0.1,0 0.1012,-0.0996 0.2012,-0.0996 l 2,-2.90039 0.5,-0.69922 2,-2.90039 c 0,-0.1 0.1,-0.0992 0,-0.19922 -0.2,-1.1 -0.9008,-2.10117 -1.8008,-2.70117 L 7982,452.5 c -1.1,-0.8 -2.4008,-1.4 -3.8008,-1.5 -0.2,0 -0.4,-0.0992 -0.5,-0.19922 l -0.5996,-0.40039 c -0.2,-0.1 -0.3004,-0.30039 -0.4004,-0.40039 -0.5,-1.5 -1.4992,-2.50078 -2.6992,-3.30078 l -0.1,-0.0996 c -1.6,-1.1 -3.6,-1.49961 -5.5,-1.09961 L 7966,446 l -0.1,-0.80078 -0.047,-0.0312 0.047,-0.0684 z" />
      
   </g><g
     class="st0"
     id="MRJB">
      <path
   id="path1776"
   d="m 7908.6758,516.52539 c -0.3727,0.005 -0.7387,0.0613 -1.0762,0.17383 -0.1,0 -0.099,0.10156 -0.1992,0.10156 l -1.4004,2.79883 -0.3008,0.70117 -1.3984,2.79883 v 0.20117 c 0.3,1 0.9984,1.79922 1.8984,2.19922 l 7.3008,3.59961 c 1.1,0.5 2.2996,0.90078 3.5996,0.80078 0.2,0 0.3,-3.9e-4 0.5,0.0996 l 0.5996,0.30078 c 0.2,0.1 0.3004,0.19883 0.4004,0.29883 0.9,1.1 1.9,1.80039 3,2.40039 l 0.1,0.0996 c 1.6,0.8 3.4,0.90078 5,0.30078 l 2,-0.70117 0.2012,0.70117 2,1 0.06,-0.12109 0.039,0.0215 0.6992,-1.40039 0.3008,-0.70117 0.6992,-1.39844 -1.8984,-0.90039 -0.041,0.0801 -0.1602,-0.0801 -0.6992,0.19922 -0.7012,-2 c -0.6,-1.6 -1.7988,-2.99883 -3.2988,-3.79883 h -0.1 c -1.1,-0.5 -2.3016,-0.90078 -3.6016,-0.80078 -0.2,0 -0.3,3.9e-4 -0.5,-0.0996 l -0.5996,-0.30078 c -0.2,-0.1 -0.3004,-0.19883 -0.4004,-0.29883 -0.7,-1 -1.6988,-1.80078 -2.7988,-2.30078 l -7.4004,-3.59961 c -0.5625,-0.25 -1.2031,-0.38379 -1.8242,-0.375 z" />
      
   </g><g
     class="st0"
     id="NPLBL">
      <path
   id="path1782"
   d="m 8222.1777,530.125 c -0.8156,0 -1.6023,0.22578 -2.2773,0.67578 -0.1,0 -0.1,0.0992 -0.1,0.19922 l -0.7012,3.40039 -0.1992,0.79883 -0.7012,3.40039 v 0.20117 c 0.6,0.9 1.5016,1.59883 2.6016,1.79883 l 8.6992,1.80078 c 1.3,0.3 2.7,0.30039 4,-0.0996 0.2,-0.1 0.4,-0.1 0.5,0 l 0.6992,0.19922 c 0.2,0 0.4,0.10078 0.5,0.30078 1.2,1 2.5008,1.49883 3.8008,1.79883 h 0.1 c 1.8,0.4 3.8008,0 5.3008,-1 l 2,-1.29883 0.4004,0.69922 2.3984,0.5 0,-0.0215 0.098,0.0215 0.2988,-1.69922 0.2012,-0.80078 0.2988,-1.59961 -0.1133,-0.0254 0.014,-0.0742 -2.4004,-0.5 -0.6992,0.39844 -1.3008,-2 c -1,-1.6 -2.7,-2.69961 -4.5,-3.09961 h -0.1 c -1.3,-0.3 -2.7,-0.30039 -4,0.0996 -0.2,0.1 -0.4,0.1 -0.5,0 L 8235.8008,534 c -0.2,0 -0.4,-0.10078 -0.5,-0.30078 -1,-0.9 -2.3016,-1.39922 -3.6016,-1.69922 L 8223,530.19922 c -0.275,-0.05 -0.5504,-0.0742 -0.8223,-0.0742 z" />
      
   </g><g
     class="st0"
     id="SPOO">
      <path
   id="path1788"
   d="m 8179.5371,452.18945 c -0.1116,8.1e-4 -0.2254,0.004 -0.3379,0.01 h -0.1 c -1.2,0.1 -2.5,0.4 -3.5,1 -0.1,0.1 -0.3,0.10117 -0.5,0.20117 h -0.6992 c -0.2,0 -0.4,3.9e-4 -0.5,-0.0996 -1.1,-0.6 -2.3996,-0.70117 -3.5996,-0.70117 L 8162,453 c -1,0 -1.9992,0.50078 -2.6992,1.30078 0,0 -0.1016,0.0992 -0.1016,0.19922 l 0.2012,3.19922 V 458.5 l 0.1992,3.19922 c 0,0.1 -4e-4,0.10117 0.1,0.20117 0.8,0.7 1.8008,1 2.8008,1 l 8.1992,-0.40039 c 1.3,-0.1 2.5,-0.4 3.5,-1 0.1,-0.1 0.3,-0.0992 0.5,-0.19922 h 0.7012 c 0.2,0 0.4,-3.9e-4 0.5,0.0996 1.2,0.7 2.4992,0.79883 3.6992,0.79883 h 0.1 c 1.8,-0.1 3.4016,-0.89922 4.6016,-2.19922 l 1.5,-1.59961 0.5,0.5 0.1,-0.004 v 0.004 l 0.09,-0.008 2.1094,-0.0918 -0.01,-0.10156 h 0.01 l -0.1,-1.5 v -0.79883 l -0.1,-1.59961 -2.3008,0.0996 -0.5,0.5 -1.5996,-1.5 c -1.2188,-1.125 -2.7882,-1.72302 -4.4629,-1.71094 z" />
      
   </g><g
     class="st0"
     id="WBO"
     transform="translate(382.8948,-164.51949)">
      <path
   id="path1794"
   d="m 7381.6133,457.5918 c -0.1374,-7.4e-4 -0.2766,0.002 -0.4141,0.008 H 7381 c -1.6,0.1 -3.1996,0.50078 -4.5996,1.30078 -0.2,0.1 -0.3996,0.19922 -0.5996,0.19922 h -0.9004 c -0.2,0 -0.4996,3.9e-4 -0.5996,-0.0996 -1.4,-0.7 -3.1012,-0.90039 -4.7012,-0.90039 l -10.5996,0.5 c -1.3,0.1 -2.5004,0.69961 -3.4004,1.59961 -0.1,0.1 -0.1,0.20078 -0.1,0.30078 l 0.1992,4.09961 v 1 l 0.2012,4.09961 c 0,0.1 -4e-4,0.20117 0.1,0.20117 1,0.9 2.2996,1.29883 3.5996,1.29883 l 10.5996,-0.5 c 1.6,-0.1 3.2016,-0.49883 4.6016,-1.29883 0.2,-0.1 0.3996,-0.20117 0.5996,-0.20117 h 0.9004 c 0.2,0 0.4996,0.002 0.5996,0.10156 1.3,0.8 2.9996,1.1 4.5996,1 h 0.1992 c 2.3,-0.1 4.4004,-1.10078 5.9004,-2.80078 l 1.9004,-2.09961 0.5957,0.51172 v 0.0879 l 0.096,-0.004 v 0.004 l 2.9004,-0.0996 -0.1,-2 v -1 l -0.1,-2 -0.2012,0.008 v -0.008 l -2.7988,0.0996 v 0.11133 l -0.5039,0.58789 -2.0996,-1.89844 c -1.5938,-1.40625 -3.6268,-2.198 -5.6875,-2.20898 z" />
      
   </g></g>
</svg>
