<?xml version="1.0" encoding="UTF-8" standalone="no"?>
<!-- Generator: Adobe Illustrator 18.0.0, SVG Export Plug-In . SVG Version: 6.00 Build 0)  -->

<svg
   version="1.1"
   id="background"
   x="0px"
   y="0px"
   width="9451.45px"
   height="623.52px"
   viewBox="0 0 9451.45 623.52"
   enable-background="new 0 0 9451.45 623.52"
   xml:space="preserve"
   sodipodi:docname="54_ Platic bottled water_mask-01-simplified_specialcase.svg"
   inkscape:version="1.1.1 (c3084ef, 2021-09-22)"
   xmlns:inkscape="http://www.inkscape.org/namespaces/inkscape"
   xmlns:sodipodi="http://sodipodi.sourceforge.net/DTD/sodipodi-0.dtd"
   xmlns="http://www.w3.org/2000/svg"
   xmlns:svg="http://www.w3.org/2000/svg"><defs
   id="defs863"><clipPath
     id="clip32"><path
       d="m 7762,412 h 46.0273 v 6 H 7762 Z m 0,0"
       id="path1388" /></clipPath><clipPath
     id="clip31"><path
       d="m 7762,403.13672 h 46 V 411 h -46 z m 0,0"
       id="path1385" /></clipPath><clipPath
     id="clip30"><path
       d="M 7603.0156,398 H 7631 v 7 h -27.9844 z m 0,0"
       id="path1382" /></clipPath><clipPath
     id="clip29"><path
       d="m 7603.0156,390 h 48.2071 v 7 h -48.2071 z m 0,0"
       id="path1379" /></clipPath><clipPath
     id="clip28"><path
       d="m 7637,528 h 53.2734 v 7 H 7637 Z m 0,0"
       id="path1376" /></clipPath><clipPath
     id="clip27"><path
       d="m 7491,502 h 58.9414 v 7 H 7491 Z m 0,0"
       id="path1373" /></clipPath><clipPath
     id="clip26"><path
       d="m 7548,460 h 62.8633 v 7 H 7548 Z m 0,0"
       id="path1370" /></clipPath><clipPath
     id="clip25"><path
       d="m 7464,422 h 20 v 7.60156 h -20 z m 0,0"
       id="path1367" /></clipPath><clipPath
     id="clip24"><path
       d="m 7464,414 h 46.7305 v 7 H 7464 Z m 0,0"
       id="path1364" /></clipPath><clipPath
     id="clip23"><path
       d="m 7650.793,238 h 40.7304 v 7 h -40.7304 z m 0,0"
       id="path1361" /></clipPath><clipPath
     id="clip22"><path
       d="m 7164.6992,334 h 42.961 v 8 h -42.961 z m 0,0"
       id="path1358" /></clipPath><clipPath
     id="clip21"><path
       d="m 7455,332 h 35.832 v 7 H 7455 Z m 0,0"
       id="path1355" /></clipPath><clipPath
     id="clip20"><path
       d="m 7343,246 h 49.1289 v 7 H 7343 Z m 0,0"
       id="path1352" /></clipPath><clipPath
     id="clip19"><path
       d="m 7824,486 h 70.3633 v 7 H 7824 Z m 0,0"
       id="path1349" /></clipPath><clipPath
     id="clip18"><path
       d="m 7047,352 h 43.5352 v 7.96484 H 7047 Z m 0,0"
       id="path1346" /></clipPath><clipPath
     id="clip17"><path
       d="m 7696.5703,465 h 43.6602 v 7 h -43.6602 z m 0,0"
       id="path1343" /></clipPath><clipPath
     id="clip16"><path
       d="M 7696.5703,456.07422 H 7725 V 464 h -28.4297 z m 0,0"
       id="path1340" /></clipPath><clipPath
     id="clip15"><path
       d="M 7432.1875,495 H 7457 v 6 h -24.8125 z m 0,0"
       id="path1337" /></clipPath><clipPath
     id="clip14"><path
       d="M 7432.1875,486 H 7451 v 7 h -18.8125 z m 0,0"
       id="path1334" /></clipPath><clipPath
     id="clip13"><path
       d="m 7565,272 h 49.1797 v 6 H 7565 Z m 0,0"
       id="path1331" /></clipPath><clipPath
     id="clip12"><path
       d="m 7343,339 h 30.7578 v 7 H 7343 Z m 0,0"
       id="path1328" /></clipPath><clipPath
     id="clip11"><path
       d="m 7342.8906,331 h 30.8672 v 8 h -30.8672 z m 0,0"
       id="path1325" /></clipPath><clipPath
     id="clip10"><path
       d="m 7267.0391,270 h 46.0859 v 6 h -46.0859 z m 0,0"
       id="path1322" /></clipPath><clipPath
     id="clip9"><path
       d="M 7267.0391,262 H 7285 v 6 h -17.9609 z m 0,0"
       id="path1319" /></clipPath><clipPath
     id="clip7"><path
       d="m 7084.6562,189.10547 h 6.6485 V 195.75 h -6.6485 z m 0,0"
       id="path1305" /></clipPath><clipPath
     id="clip8"><rect
       x="0"
       y="0"
       width="9451"
       height="623"
       id="rect1313" /></clipPath><mask
     id="mask1"><g
       filter="url(#alpha)"
       id="g1310"><rect
         x="0"
         y="0"
         width="9451"
         height="623"
         style="fill:#000000;fill-opacity:0.392197;stroke:none"
         id="rect1308" /></g></mask><filter
     id="alpha"
     filterUnits="objectBoundingBox"
     x="0"
     y="0"
     width="1"
     height="1"><feColorMatrix
       type="matrix"
       in="SourceGraphic"
       values="0 0 0 0 1 0 0 0 0 1 0 0 0 0 1 0 0 0 1 0"
       id="feColorMatrix1291" /></filter><clipPath
     id="clipPath5350"><rect
       x="0"
       y="0"
       width="9451"
       height="623"
       id="rect5348" /></clipPath><clipPath
     id="clip5"><path
       d="m 7084.6562,149.23828 h 6.6485 v 6.64453 h -6.6485 z m 0,0"
       id="path1288" /></clipPath><clipPath
     id="clip6"><rect
       x="0"
       y="0"
       width="9451"
       height="623"
       id="rect1299" /></clipPath><mask
     id="mask0"><g
       filter="url(#alpha)"
       id="g1296"><rect
         x="0"
         y="0"
         width="9451"
         height="623"
         style="fill:#000000;fill-opacity:0.392197;stroke:none"
         id="rect1294" /></g></mask><filter
     id="filter5361"
     filterUnits="objectBoundingBox"
     x="0"
     y="0"
     width="1"
     height="1"><feColorMatrix
       type="matrix"
       in="SourceGraphic"
       values="0 0 0 0 1 0 0 0 0 1 0 0 0 0 1 0 0 0 1 0"
       id="feColorMatrix5359" /></filter><clipPath
     id="clipPath5365"><rect
       x="0"
       y="0"
       width="9451"
       height="623"
       id="rect5363" /></clipPath><clipPath
     id="clip4"><path
       d="M 7098.3828,203 H 7129 v 6 h -30.6172 z m 0,0"
       id="path1285" /></clipPath><clipPath
     id="clip3"><path
       d="m 7098.3828,176 h 25.1055 v 7.51953 h -25.1055 z m 0,0"
       id="path1282" /></clipPath><clipPath
     id="clip2"><path
       d="M 7098.3828,163 H 7138 v 7 h -39.6172 z m 0,0"
       id="path1279" /></clipPath><clipPath
     id="clip1"><path
       d="M 7098.3828,149.06641 H 7130 v 7.875 h -31.6172 z m 0,0"
       id="path1276" /></clipPath></defs>
   <sodipodi:namedview
   id="namedview4419"
   pagecolor="#505050"
   bordercolor="#eeeeee"
   borderopacity="1"
   inkscape:pageshadow="0"
   inkscape:pageopacity="0"
   inkscape:pagecheckerboard="0"
   showgrid="false"
   inkscape:zoom="0.89006031"
   inkscape:cx="7136.0333"
   inkscape:cy="339.30285"
   inkscape:window-width="1440"
   inkscape:window-height="762"
   inkscape:window-x="0"
   inkscape:window-y="25"
   inkscape:window-maximized="1"
   inkscape:current-layer="background" /><g
   id="multiple"><g
     id="BCI"><path
       style="fill:#0e0e0e;fill-opacity:1;fill-rule:nonzero;stroke:none"
       d="m 7039.4846,340.85338 c -0.8099,0.57943 -1.6198,1.15885 -2.4297,1.73828 -0.037,0.63944 -0.1251,1.20627 -0.8794,0.84122 -2.1597,-0.39782 -4.4389,-0.8099 -6.5484,0.059 -2.4201,0.93705 -4.4987,2.80572 -5.6065,5.16035 -0.809,0.92193 -2.0066,1.07911 -3.1424,1.31028 -2.5128,0.83543 -4.4692,2.69422 -6.64,4.1374 -1.9412,1.42706 -3.9631,2.75208 -5.8482,4.25015 -0.7334,0.84719 -1.942,2.28471 -1.2135,3.40166 1.7952,2.48719 3.5414,5.01745 5.3742,7.47276 1.8319,0.49205 3.5932,-0.46307 4.9855,-1.57787 2.9344,-2.13532 5.9479,-4.16707 8.8242,-6.37848 1.4047,-0.91766 1.7844,-2.71508 3.0417,-3.7029 1.2333,-0.8757 2.9598,-0.58997 4.215,-1.52765 2.7274,-1.3685 4.7702,-4.06547 5.0761,-7.13384 0.1276,-0.76678 0.2552,-1.53356 0.3828,-2.30034 0.572,0.14474 1.1331,0.24248 1.5545,-0.26352 0.611,-0.4388 1.2307,-0.8731 1.8362,-1.3147 -0.9961,-1.38916 -1.9903,-2.77965 -2.9821,-4.17182 z"
       id="path3543" /></g><g
     id="NA-1"
     style="opacity:0.75">
      <path
   id="path4"
   d="M 7468.54 184.866 L 7468.46 184.981 L 7468.44 184.965 L 7466.44 187.866 L 7466.64 188.965 L 7463.34 189.667 C 7460.64 190.167 7458.34 191.767 7456.84 194.067 L 7456.64 194.366 C 7455.54 195.966 7454.94 197.866 7454.74 199.766 C 7454.74 199.966 7454.64 200.166 7454.54 200.366 L 7453.94 201.266 C 7453.84 201.466 7453.64 201.666 7453.44 201.766 C 7451.74 202.766 7450.24 204.067 7449.24 205.667 L 7442.04 216.465 C 7441.14 217.765 7440.84 219.465 7441.14 220.965 L 7441.14 221.167 L 7445.44 224.067 L 7446.44 224.667 L 7450.74 227.465 L 7450.94 227.465 C 7452.54 227.165 7453.84 226.266 7454.74 224.866 L 7461.94 214.067 C 7463.04 212.467 7463.64 210.567 7463.84 208.667 C 7463.84 208.467 7463.94 208.267 7464.04 208.067 L 7464.64 207.167 C 7464.74 206.967 7464.94 206.767 7465.14 206.667 C 7466.94 205.467 7468.34 204.267 7469.44 202.667 L 7469.64 202.366 C 7471.14 200.066 7471.74 197.367 7471.14 194.667 L 7470.44 191.366 L 7471.54 191.167 L 7471.61 191.049 L 7471.64 191.067 L 7473.54 188.266 L 7471.54 186.866 L 7470.54 186.266 Z" />
   </g><g
     id="NA-2"
     style="opacity:0.75">
      <path
   id="path10"
   d="M 7300.04 454.885 L 7297.74 456.285 L 7296.64 456.984 L 7294.34 458.385 L 7296.44 461.686 L 7297.64 461.984 L 7296.84 465.686 C 7296.14 468.586 7296.74 471.685 7298.34 474.285 L 7298.54 474.586 C 7299.64 476.386 7301.34 477.884 7303.14 478.984 C 7303.34 479.084 7303.54 479.284 7303.64 479.484 L 7304.24 480.484 C 7304.34 480.684 7304.44 480.986 7304.54 481.186 C 7304.84 483.286 7305.44 485.386 7306.54 487.186 L 7314.24 499.385 C 7315.14 500.885 7316.64 501.885 7318.44 502.285 L 7318.64 502.285 L 7323.44 499.285 L 7324.54 498.586 L 7329.34 495.586 L 7329.34 495.385 C 7329.74 493.685 7329.44 491.885 7328.44 490.385 L 7320.74 478.186 C 7319.64 476.386 7317.94 474.885 7316.14 473.785 C 7315.94 473.685 7315.74 473.485 7315.64 473.285 L 7315.04 472.285 C 7314.94 472.085 7314.84 471.786 7314.74 471.586 C 7314.54 469.386 7313.94 467.284 7312.74 465.484 L 7312.54 465.186 C 7310.94 462.686 7308.34 460.786 7305.44 460.186 L 7301.84 459.385 L 7302.14 458.186 Z" />
   </g><g
     id="BM"
     style="opacity:0.75">
      <path
   id="path16"
   d="M 7390.14 479.785 L 7389.24 481.785 L 7388.84 482.686 L 7387.94 484.686 L 7390.74 485.984 L 7391.74 485.686 L 7392.74 488.484 C 7393.54 490.784 7395.24 492.586 7397.44 493.586 L 7397.74 493.686 C 7399.34 494.386 7401.04 494.686 7402.74 494.586 C 7402.94 494.586 7403.14 494.586 7403.34 494.686 L 7404.24 495.086 C 7404.44 495.186 7404.64 495.284 7404.74 495.484 C 7405.84 496.784 7407.14 497.886 7408.74 498.686 L 7419.14 503.484 C 7420.44 504.084 7421.84 504.086 7423.14 503.686 L 7423.24 503.586 L 7425.14 499.484 L 7425.54 498.586 L 7427.44 494.484 L 7427.34 494.285 C 7426.84 492.985 7425.84 491.885 7424.54 491.285 L 7414.14 486.484 C 7412.64 485.784 7410.84 485.486 7409.14 485.586 C 7408.94 485.586 7408.74 485.584 7408.54 485.484 L 7407.64 485.086 C 7407.44 484.986 7407.24 484.886 7407.14 484.686 C 7406.24 483.286 7404.94 482.184 7403.34 481.484 L 7403.04 481.385 C 7400.84 480.385 7398.34 480.286 7396.14 481.086 L 7393.34 482.086 L 7392.94 481.086 Z" />
   </g><g
     id="ACI"
     style="opacity:0.75">
      <path
   id="path106"
   d="M 7712.14 422.285 L 7709.54 424.686 L 7709.44 425.785 L 7706.04 425.586 C 7703.34 425.486 7700.64 426.386 7698.64 428.186 L 7698.44 428.385 C 7697.04 429.685 7695.94 431.386 7695.24 433.186 C 7695.14 433.386 7695.04 433.586 7694.84 433.686 L 7694.04 434.385 C 7693.84 434.585 7693.64 434.686 7693.44 434.686 C 7691.54 435.186 7689.84 436.085 7688.34 437.385 L 7678.74 446.086 C 7677.54 447.186 7676.84 448.685 7676.74 450.285 L 7676.74 450.484 L 7680.14 454.285 L 7680.94 455.186 L 7684.34 458.984 L 7684.54 458.984 C 7686.14 459.084 7687.64 458.484 7688.84 457.484 L 7698.44 448.785 C 7699.84 447.485 7700.94 445.784 7701.64 443.984 C 7701.74 443.784 7701.84 443.584 7702.04 443.484 L 7702.84 442.785 C 7703.04 442.585 7703.24 442.484 7703.44 442.484 C 7705.44 441.984 7707.14 441.085 7708.64 439.785 L 7708.84 439.586 C 7710.84 437.786 7712.04 435.184 7712.24 432.484 L 7712.44 429.086 L 7713.54 429.186 L 7716.14 426.785 L 7714.54 424.984 L 7713.74 424.086 Z" />
   </g><g
     id="NPLOO"
     style="opacity:0.75">
      <path
   id="path186"
   d="M 7532.74 279.178 C 7531.91 279.216 7531.09 279.416 7530.34 279.766 C 7530.24 279.766 7530.14 279.867 7530.14 280.067 L 7528.34 284.866 L 7527.94 285.965 L 7526.14 290.766 L 7526.14 291.067 C 7526.84 292.567 7528.04 293.766 7529.64 294.366 L 7542.14 299.067 C 7544.04 299.767 7546.04 300.166 7548.04 299.866 C 7548.34 299.866 7548.54 299.865 7548.84 299.965 L 7549.84 300.366 C 7550.14 300.466 7550.34 300.666 7550.54 300.866 C 7551.74 302.466 7553.54 303.566 7555.44 304.266 L 7555.64 304.366 C 7558.24 305.366 7561.24 305.267 7563.84 304.067 L 7567.04 302.567 L 7567.54 303.667 L 7567.57 303.678 L 7567.54 303.766 L 7570.84 304.965 L 7570.85 304.932 L 7570.94 304.965 L 7571.84 302.567 L 7572.24 301.465 L 7573.14 299.067 L 7569.74 297.766 L 7568.64 298.266 L 7567.14 295.067 C 7565.94 292.467 7563.84 290.465 7561.14 289.465 L 7560.94 289.366 C 7559.04 288.666 7557.04 288.267 7555.04 288.567 C 7554.74 288.567 7554.54 288.565 7554.24 288.465 L 7553.24 288.067 C 7552.94 287.967 7552.74 287.767 7552.54 287.567 C 7551.24 285.967 7549.44 284.966 7547.64 284.266 L 7535.14 279.567 C 7534.39 279.267 7533.56 279.141 7532.74 279.178 Z" />
      
         
   </g><g
     class="st0"
     id="EOO">
      <path
   id="path1026"
   d="M 7227.14 271.012 C 7224.93 271.078 7222.74 271.792 7220.94 273.067 L 7217.94 275.167 L 7217.24 274.167 L 7213.44 273.465 L 7212.94 276.067 L 7212.74 277.366 L 7212.24 279.965 L 7212.35 279.987 L 7212.34 280.067 L 7216.03 280.667 L 7217.03 279.965 L 7219.14 282.965 C 7220.84 285.365 7223.44 287.067 7226.44 287.567 L 7226.84 287.667 C 7228.94 288.067 7231.04 287.766 7233.14 287.266 C 7233.34 287.166 7233.64 287.166 7233.84 287.266 L 7235.03 287.465 C 7235.33 287.465 7235.54 287.566 7235.74 287.766 C 7237.44 288.966 7239.34 289.966 7241.44 290.266 L 7255.44 292.667 C 7257.14 292.967 7258.94 292.567 7260.34 291.567 L 7260.53 291.465 L 7261.53 285.965 L 7261.74 284.667 L 7262.74 279.167 L 7262.64 278.965 C 7261.64 277.565 7260.14 276.566 7258.34 276.266 L 7244.34 273.866 C 7242.24 273.466 7240.13 273.766 7238.03 274.266 C 7237.83 274.366 7237.54 274.366 7237.34 274.266 L 7236.14 274.067 C 7235.84 274.067 7235.63 273.966 7235.43 273.766 C 7233.73 272.566 7231.84 271.666 7229.74 271.266 L 7229.34 271.167 C 7228.61 271.042 7227.87 270.99 7227.14 271.012 Z" />
      
      
   </g><g
     class="st0"
     id="ABI"><path
   id="path1128"
   d="M 7338.34 316.465 L 7336.14 318.567 L 7336.14 319.567 L 7333.24 319.465 C 7330.94 319.365 7328.64 320.266 7327.04 321.866 L 7326.94 321.965 C 7325.74 323.065 7324.74 324.467 7324.24 326.067 C 7324.14 326.267 7324.04 326.467 7323.84 326.667 L 7323.14 327.266 C 7322.94 327.466 7322.73 327.567 7322.53 327.567 C 7320.93 327.967 7319.54 328.867 7318.34 330.067 L 7310.44 337.567 C 7309.44 338.467 7308.94 339.767 7308.84 341.167 C 7308.84 341.267 7308.84 341.365 7308.94 341.465 L 7311.84 344.567 L 7312.54 345.266 L 7315.44 348.366 C 7315.54 348.466 7315.64 348.465 7315.74 348.465 C 7317.14 348.465 7318.44 347.967 7319.44 347.067 L 7327.34 339.567 C 7328.54 338.467 7329.54 337.065 7330.04 335.465 C 7330.14 335.265 7330.24 335.066 7330.44 334.866 L 7331.14 334.266 C 7331.34 334.066 7331.54 333.965 7331.74 333.965 C 7333.14 333.465 7334.54 332.566 7335.74 331.366 L 7335.84 331.266 C 7337.54 329.666 7338.44 327.467 7338.54 325.167 L 7338.64 322.266 L 7339.64 322.266 L 7341.74 320.266 L 7341.74 320.264 L 7341.84 320.166 L 7340.44 318.666 L 7339.74 317.965 Z" />
      
   </g><g
     class="st0"
     id="MSPB">
      <path
   id="path1734"
   d="M 7514.94 482.086 L 7512.94 482.984 L 7512.98 483.068 L 7512.94 483.086 L 7512.64 483.785 L 7510.64 482.984 C 7509.04 482.384 7507.24 482.486 7505.64 483.186 L 7505.54 483.186 C 7504.44 483.686 7503.34 484.385 7502.64 485.385 C 7502.54 485.485 7502.44 485.686 7502.24 485.686 L 7501.64 485.984 C 7501.44 486.084 7501.34 486.086 7501.14 486.086 C 7499.94 485.986 7498.64 486.285 7497.54 486.785 L 7490.04 490.186 C 7489.14 490.586 7488.44 491.385 7488.04 492.285 L 7488.04 492.484 L 7489.34 495.385 L 7489.64 496.086 L 7490.94 498.984 C 7490.94 499.084 7491.04 499.086 7491.04 499.086 C 7492.04 499.486 7493.04 499.384 7493.94 498.984 L 7501.34 495.586 C 7502.44 495.086 7503.54 494.385 7504.24 493.385 C 7504.34 493.285 7504.44 493.086 7504.64 493.086 L 7505.24 492.785 C 7505.44 492.685 7505.54 492.686 7505.74 492.686 C 7507.14 492.786 7508.34 492.484 7509.44 491.984 L 7509.54 491.984 C 7511.14 491.284 7512.34 489.985 7512.94 488.285 L 7513.74 486.285 L 7514.44 486.586 L 7516.44 485.686 L 7516.41 485.604 L 7516.44 485.586 L 7515.84 484.186 L 7515.54 483.484 Z" />
      
   </g><g
     class="st0"
     id="AJI">
      <path
   id="path1740"
   d="M 7189.53 316.258 C 7189.4 316.258 7189.27 316.26 7189.14 316.266 L 7189.04 316.266 C 7187.54 316.366 7185.94 316.667 7184.74 317.567 C 7184.54 317.667 7184.34 317.766 7184.14 317.766 L 7183.24 317.766 C 7183.04 317.766 7182.84 317.767 7182.64 317.667 C 7181.24 316.967 7179.74 316.766 7178.24 316.866 L 7168.14 317.366 C 7166.84 317.466 7165.74 317.966 7164.84 318.966 C 7164.74 319.066 7164.74 319.167 7164.74 319.167 L 7164.94 323.067 L 7164.94 323.966 L 7165.14 327.866 C 7165.14 327.966 7165.14 328.067 7165.24 328.067 C 7166.14 328.867 7167.44 329.366 7168.64 329.266 L 7178.74 328.766 C 7180.24 328.666 7181.84 328.366 7183.04 327.466 C 7183.24 327.366 7183.44 327.266 7183.64 327.266 L 7184.54 327.266 C 7184.74 327.266 7184.94 327.266 7185.14 327.366 C 7186.34 328.166 7187.84 328.266 7189.44 328.266 L 7189.64 328.266 C 7191.74 328.166 7193.84 327.167 7195.24 325.567 L 7197.04 323.567 L 7197.63 324.079 L 7197.63 324.167 L 7197.73 324.163 L 7197.73 324.167 L 7200.53 324.067 L 7200.43 322.167 L 7200.43 321.266 L 7200.33 319.366 L 7200.13 319.374 L 7200.12 319.266 L 7197.42 319.466 L 7197.42 319.577 L 7196.92 320.167 L 7194.92 318.366 C 7193.42 317.053 7191.48 316.269 7189.51 316.259 Z" />
      
   </g><g
     class="st0"
     id="EPMCM">
      <path
   id="path1746"
   d="M 7453.04 295.866 L 7451.44 298.366 L 7451.64 299.366 L 7448.84 300.067 C 7446.54 300.567 7444.64 301.965 7443.34 303.965 L 7443.24 304.067 C 7442.34 305.467 7441.74 307.067 7441.64 308.667 C 7441.64 308.867 7441.54 309.166 7441.44 309.366 L 7440.94 310.167 C 7440.84 310.367 7440.64 310.567 7440.44 310.667 C 7438.94 311.467 7437.84 312.667 7436.94 314.067 L 7431.14 323.366 C 7430.44 324.566 7430.13 325.866 7430.53 327.266 C 7430.53 327.366 7430.64 327.465 7430.74 327.465 L 7434.34 329.667 L 7435.24 330.167 L 7438.84 332.366 C 7438.94 332.366 7439.04 332.466 7439.14 332.366 C 7440.44 332.066 7441.64 331.267 7442.34 330.067 L 7448.14 320.766 C 7449.04 319.366 7449.64 317.767 7449.74 316.167 C 7449.74 315.967 7449.84 315.665 7449.94 315.465 L 7450.44 314.667 C 7450.54 314.467 7450.74 314.267 7450.94 314.167 C 7452.44 313.567 7453.54 312.266 7454.44 310.866 L 7454.54 310.667 C 7455.74 308.667 7456.14 306.367 7455.64 304.067 L 7454.94 301.266 L 7455.94 301.067 L 7457.54 298.567 L 7455.74 297.465 L 7454.84 296.965 L 7453.14 295.866 L 7453.11 295.911 Z" />
      
   </g><g
     class="st0"
     id="BNDI">
      <path
   id="path1752"
   d="M 7654.03 507.359 C 7653.17 507.334 7652.29 507.485 7651.44 507.785 L 7651.34 507.785 C 7650.14 508.185 7649.04 508.885 7648.24 509.785 C 7648.14 509.885 7647.94 509.986 7647.84 510.086 L 7647.14 510.285 C 7646.94 510.385 7646.74 510.385 7646.64 510.285 C 7645.44 510.085 7644.14 510.286 7642.94 510.686 L 7635.14 513.484 C 7634.14 513.784 7633.34 514.584 7632.94 515.484 L 7632.94 515.686 L 7634.04 518.686 L 7634.34 519.385 L 7635.44 522.385 C 7635.44 522.485 7635.54 522.486 7635.54 522.586 C 7636.44 522.986 7637.54 523.086 7638.54 522.686 L 7646.34 519.885 C 7647.54 519.485 7648.64 518.785 7649.44 517.885 C 7649.54 517.785 7649.74 517.686 7649.84 517.586 L 7650.54 517.385 C 7650.74 517.285 7650.94 517.285 7651.04 517.385 C 7652.24 517.585 7653.54 517.384 7654.64 516.984 L 7654.74 516.984 C 7656.44 516.384 7657.74 515.186 7658.54 513.586 L 7659.44 511.586 L 7660.14 511.885 L 7661.54 511.354 L 7662.34 511.086 L 7661.74 509.586 L 7661.54 508.885 L 7660.94 507.385 L 7658.84 508.186 L 7658.54 508.885 L 7656.54 507.984 C 7655.74 507.584 7654.89 507.384 7654.03 507.359 Z" />
      
   </g><g
     class="st0"
     id="AMI">
      <path
   id="path1758"
   d="M 7658.04 214.266 L 7655.04 216.567 L 7654.84 217.766 L 7651.24 217.266 C 7648.34 216.866 7645.34 217.666 7643.04 219.366 L 7642.84 219.465 C 7641.14 220.765 7639.74 222.266 7638.84 224.266 C 7638.74 224.566 7638.54 224.765 7638.34 224.965 L 7637.44 225.667 C 7637.24 225.867 7636.94 225.965 7636.64 225.965 C 7634.54 226.165 7632.64 227.165 7630.94 228.465 L 7619.84 236.766 C 7618.44 237.766 7617.54 239.367 7617.34 241.067 C 7617.34 241.167 7617.34 241.266 7617.44 241.366 L 7620.64 245.667 L 7621.44 246.667 L 7624.64 250.965 C 7624.74 251.065 7624.84 251.167 7624.94 251.167 C 7626.64 251.367 7628.34 250.965 7629.74 249.965 L 7640.84 241.667 C 7642.54 240.367 7643.94 238.866 7644.84 236.866 C 7644.94 236.566 7645.14 236.367 7645.34 236.167 L 7646.24 235.465 C 7646.44 235.265 7646.74 235.167 7647.04 235.167 C 7649.24 234.867 7651.14 233.867 7652.84 232.567 L 7653.04 232.465 C 7655.44 230.665 7656.94 228.067 7657.34 225.167 L 7657.84 221.567 L 7659.04 221.766 L 7662.04 219.465 L 7660.44 217.366 L 7659.74 216.366 L 7658.14 214.266 L 7658.07 214.315 Z" />
      
   </g><g
     class="st0"
     id="DNK">
      <path
   id="path1764"
   d="M 7451.84 407.885 L 7449.94 409.186 L 7449.84 409.885 L 7447.74 409.484 C 7446.04 409.184 7444.24 409.584 7442.84 410.484 L 7442.74 410.586 C 7441.74 411.286 7440.84 412.185 7440.24 413.285 C 7440.14 413.385 7440.04 413.586 7439.94 413.686 L 7439.34 414.086 C 7439.24 414.186 7439.04 414.285 7438.84 414.285 C 7437.64 414.385 7436.44 414.886 7435.44 415.586 L 7428.64 420.186 C 7427.84 420.786 7427.24 421.686 7427.04 422.686 L 7427.04 422.885 L 7428.84 425.484 L 7429.24 426.086 L 7431.04 428.686 C 7431.04 428.786 7431.14 428.785 7431.24 428.785 C 7432.24 428.985 7433.24 428.786 7434.14 428.186 L 7440.94 423.586 C 7441.94 422.886 7442.84 421.985 7443.44 420.885 C 7443.54 420.785 7443.64 420.584 7443.74 420.484 L 7444.34 420.086 C 7444.44 419.986 7444.64 419.885 7444.84 419.885 C 7446.14 419.985 7447.24 419.386 7448.24 418.686 L 7448.34 418.586 C 7449.74 417.586 7450.74 416.085 7451.04 414.385 L 7451.44 412.285 L 7452.14 412.385 L 7452.21 412.338 L 7452.24 412.385 L 7454.04 411.186 L 7454 411.115 L 7454.04 411.086 L 7453.5 410.303 L 7453.24 409.885 L 7453.07 409.676 L 7452.74 409.186 L 7452.19 408.385 L 7451.94 407.984 L 7451.92 408 Z" />
      
   </g><g
     class="st0"
     id="EFNU">
      <path
   id="path1770"
   d="M 7569.34 377.984 L 7569.26 378.098 L 7569.24 378.086 L 7568.24 379.484 L 7567.74 380.186 L 7566.74 381.586 L 7568.84 382.984 L 7569.64 382.885 L 7570.14 385.285 C 7570.54 387.185 7571.64 388.884 7573.24 389.984 L 7573.34 390.086 C 7574.44 390.886 7575.74 391.486 7577.14 391.586 C 7577.34 391.586 7577.54 391.685 7577.64 391.785 L 7578.24 392.186 C 7578.44 392.286 7578.54 392.486 7578.64 392.586 C 7579.24 393.786 7580.24 394.786 7581.34 395.586 L 7588.84 400.686 C 7589.74 401.286 7590.94 401.585 7592.04 401.385 C 7592.14 401.385 7592.14 401.285 7592.24 401.285 L 7594.24 398.385 L 7594.74 397.686 L 7596.74 394.785 C 7596.74 394.685 7596.84 394.686 7596.74 394.586 C 7596.54 393.486 7595.84 392.485 7594.94 391.885 L 7587.44 386.785 C 7586.34 385.985 7585.04 385.385 7583.64 385.285 C 7583.44 385.285 7583.24 385.186 7583.14 385.086 L 7582.54 384.686 C 7582.34 384.586 7582.24 384.385 7582.14 384.285 C 7581.64 382.785 7580.64 381.784 7579.44 380.984 L 7579.34 380.885 C 7577.74 379.785 7575.74 379.385 7573.84 379.785 L 7571.44 380.285 L 7571.34 379.484 L 7571.29 379.453 L 7571.34 379.385 Z" />
      
   </g><g
     class="st0"
     id="MRJB">
      <path
   id="path1776"
   d="M 7514.12 450.811 C 7513.74 450.816 7513.38 450.872 7513.04 450.984 C 7512.94 450.984 7512.94 451.086 7512.84 451.086 L 7511.44 453.885 L 7511.14 454.586 L 7509.74 457.385 L 7509.74 457.586 C 7510.04 458.586 7510.74 459.385 7511.64 459.785 L 7518.94 463.385 C 7520.04 463.885 7521.24 464.286 7522.54 464.186 C 7522.74 464.186 7522.84 464.185 7523.04 464.285 L 7523.64 464.586 C 7523.84 464.686 7523.94 464.785 7524.04 464.885 C 7524.94 465.985 7525.94 466.685 7527.04 467.285 L 7527.14 467.385 C 7528.74 468.185 7530.54 468.286 7532.14 467.686 L 7534.14 466.984 L 7534.34 467.686 L 7536.34 468.686 L 7536.4 468.564 L 7536.44 468.586 L 7537.14 467.186 L 7537.44 466.484 L 7538.14 465.086 L 7536.24 464.186 L 7536.2 464.266 L 7536.04 464.186 L 7535.34 464.385 L 7534.64 462.385 C 7534.04 460.785 7532.84 459.386 7531.34 458.586 L 7531.24 458.586 C 7530.14 458.086 7528.94 457.685 7527.64 457.785 C 7527.44 457.785 7527.34 457.786 7527.14 457.686 L 7526.54 457.385 C 7526.34 457.285 7526.24 457.186 7526.14 457.086 C 7525.44 456.086 7524.44 455.285 7523.34 454.785 L 7515.94 451.186 C 7515.38 450.936 7514.74 450.802 7514.12 450.811 Z" />
      
   </g><g
     class="st0"
     id="NPLBL">
      <path
   id="path1782"
   d="M 7827.62 464.41 C 7826.8 464.41 7826.02 464.636 7825.34 465.086 C 7825.24 465.086 7825.24 465.185 7825.24 465.285 L 7824.54 468.686 L 7824.34 469.484 L 7823.64 472.885 L 7823.64 473.086 C 7824.24 473.986 7825.14 474.685 7826.24 474.885 L 7834.94 476.686 C 7836.24 476.986 7837.64 476.986 7838.94 476.586 C 7839.14 476.486 7839.34 476.486 7839.44 476.586 L 7840.14 476.785 C 7840.34 476.785 7840.54 476.886 7840.64 477.086 C 7841.84 478.086 7843.14 478.585 7844.44 478.885 L 7844.54 478.885 C 7846.34 479.285 7848.34 478.885 7849.84 477.885 L 7851.84 476.586 L 7852.24 477.285 L 7854.64 477.785 L 7854.64 477.764 L 7854.74 477.785 L 7855.04 476.086 L 7855.24 475.285 L 7855.54 473.686 L 7855.42 473.66 L 7855.44 473.586 L 7853.04 473.086 L 7852.34 473.484 L 7851.04 471.484 C 7850.04 469.884 7848.34 468.785 7846.54 468.385 L 7846.44 468.385 C 7845.14 468.085 7843.74 468.084 7842.44 468.484 C 7842.24 468.584 7842.04 468.584 7841.94 468.484 L 7841.24 468.285 C 7841.04 468.285 7840.84 468.184 7840.74 467.984 C 7839.74 467.084 7838.44 466.585 7837.14 466.285 L 7828.44 464.484 C 7828.17 464.434 7827.89 464.41 7827.62 464.41 Z" />
      
   </g><g
     class="st0"
     id="SPOO">
      <path
   id="path1788"
   d="M 7784.98 386.475 C 7784.87 386.475 7784.75 386.479 7784.64 386.485 L 7784.54 386.485 C 7783.34 386.585 7782.04 386.885 7781.04 387.485 C 7780.94 387.585 7780.74 387.586 7780.54 387.686 L 7779.84 387.686 C 7779.64 387.686 7779.44 387.686 7779.34 387.586 C 7778.24 386.986 7776.94 386.885 7775.74 386.885 L 7767.44 387.285 C 7766.44 387.285 7765.44 387.786 7764.74 388.586 C 7764.74 388.586 7764.64 388.685 7764.64 388.785 L 7764.84 391.984 L 7764.84 392.785 L 7765.04 395.984 C 7765.04 396.084 7765.04 396.086 7765.14 396.186 C 7765.94 396.886 7766.94 397.186 7767.94 397.186 L 7776.14 396.785 C 7777.44 396.685 7778.64 396.385 7779.64 395.785 C 7779.74 395.685 7779.94 395.686 7780.14 395.586 L 7780.84 395.586 C 7781.04 395.586 7781.24 395.586 7781.34 395.686 C 7782.54 396.386 7783.84 396.484 7785.04 396.484 L 7785.14 396.484 C 7786.94 396.384 7788.54 395.585 7789.74 394.285 L 7791.24 392.686 L 7791.74 393.186 L 7791.84 393.182 L 7791.84 393.186 L 7791.93 393.178 L 7794.04 393.086 L 7794.03 392.984 L 7794.04 392.984 L 7793.94 391.484 L 7793.94 390.685 L 7793.84 389.086 L 7791.54 389.185 L 7791.04 389.685 L 7789.44 388.185 C 7788.22 387.06 7786.65 386.462 7784.98 386.474 Z" />
      
   </g><g
     class="st0"
     id="WBO">
      <path
   id="path1794"
   d="M 7369.95 227.358 C 7369.81 227.357 7369.67 227.36 7369.54 227.366 L 7369.34 227.366 C 7367.74 227.466 7366.14 227.867 7364.74 228.667 C 7364.54 228.767 7364.34 228.866 7364.14 228.866 L 7363.24 228.866 C 7363.04 228.866 7362.74 228.866 7362.64 228.766 C 7361.24 228.066 7359.54 227.866 7357.94 227.866 L 7347.34 228.366 C 7346.04 228.466 7344.84 229.066 7343.94 229.966 C 7343.84 230.066 7343.84 230.166 7343.84 230.266 L 7344.03 234.366 L 7344.03 235.366 L 7344.24 239.466 C 7344.24 239.566 7344.24 239.667 7344.34 239.667 C 7345.34 240.567 7346.64 240.966 7347.94 240.966 L 7358.54 240.466 C 7360.14 240.366 7361.74 239.967 7363.14 239.167 C 7363.34 239.067 7363.54 238.966 7363.74 238.966 L 7364.64 238.966 C 7364.84 238.966 7365.14 238.968 7365.24 239.067 C 7366.54 239.867 7368.24 240.167 7369.84 240.067 L 7370.04 240.067 C 7372.34 239.967 7374.44 238.966 7375.94 237.266 L 7377.84 235.167 L 7378.43 235.679 L 7378.43 235.766 L 7378.53 235.762 L 7378.53 235.766 L 7381.43 235.667 L 7381.33 233.667 L 7381.33 232.667 L 7381.23 230.667 L 7381.03 230.675 L 7381.03 230.667 L 7378.23 230.766 L 7378.23 230.878 L 7377.72 231.466 L 7375.62 229.567 C 7374.03 228.161 7372 227.369 7369.94 227.358 Z" />
      
   </g></g>
</svg>
