<?xml version="1.0" encoding="UTF-8" standalone="no"?>
<!-- Generator: Adobe Illustrator 18.0.0, SVG Export Plug-In . SVG Version: 6.00 Build 0)  -->

<svg
   version="1.1"
   id="Layer_9"
   x="0px"
   y="0px"
   width="9451.45px"
   height="623.52px"
   viewBox="0 0 9451.45 623.52"
   enable-background="new 0 0 9451.45 623.52"
   xml:space="preserve"
   sodipodi:docname="55_mask-rasterised-01.svg"
   inkscape:version="1.1.1 (c3084ef, 2021-09-22)"
   xmlns:inkscape="http://www.inkscape.org/namespaces/inkscape"
   xmlns:sodipodi="http://sodipodi.sourceforge.net/DTD/sodipodi-0.dtd"
   xmlns="http://www.w3.org/2000/svg"
   xmlns:svg="http://www.w3.org/2000/svg"><defs
   id="defs7" /><sodipodi:namedview
   id="namedview5"
   pagecolor="#505050"
   bordercolor="#eeeeee"
   borderopacity="1"
   inkscape:pageshadow="0"
   inkscape:pageopacity="0"
   inkscape:pagecheckerboard="0"
   showgrid="false"
   inkscape:zoom="4.4379309"
   inkscape:cx="6225.0857"
   inkscape:cy="520.51284"
   inkscape:window-width="1440"
   inkscape:window-height="762"
   inkscape:window-x="0"
   inkscape:window-y="25"
   inkscape:window-maximized="1"
   inkscape:current-layer="Layer_9" />
<path
   id="path117"
   style="fill:#000000;stroke-width:0.238747"
   d="M 6248.8867 457.70508 C 6247.6152 457.62887 6246.1626 458.10514 6245.6953 459.40234 C 6245.1008 461.11549 6245.3548 462.9789 6245.2773 464.76172 C 6245.2633 467.15663 6245.4203 469.68085 6244.2617 471.87109 C 6242.3463 475.79974 6239.9986 479.49773 6237.8242 483.28516 C 6236.6326 485.30218 6235.4225 487.37572 6234.0957 489.36133 C 6232.812 489.81999 6231.663 490.99965 6231.8086 492.44727 C 6231.9189 493.15785 6231.9521 493.87372 6231.6211 494.53906 C 6229.5921 499.83803 6227.2722 505.02099 6225.0801 510.25391 C 6223.5116 513.88524 6222.0166 517.55221 6220.2832 521.10938 C 6219.2857 521.56088 6218.6836 522.56315 6218.2871 523.51367 C 6216.9366 524.50569 6215.3794 525.48525 6214.0039 526.25781 C 6213.9279 524.6637 6214.2878 522.77527 6213.0703 521.51172 C 6212.0168 520.61209 6210.483 520.76247 6209.2422 521.11914 C 6207.8092 521.68746 6207.4647 523.36065 6207.4805 524.74219 C 6207.4285 526.15934 6207.4208 527.57843 6207.3828 528.99609 C 6206.0146 528.94899 6205.0928 530.26662 6204.9512 531.51562 C 6204.8712 532.08149 6204.8051 532.66838 6204.2969 533.0293 C 6203.0383 534.32474 6201.7022 535.54437 6200.3789 536.77344 C 6200.3249 532.83473 6200.4666 528.88923 6200.2539 524.95508 C 6200.2229 523.61053 6199.5162 522.05402 6198.0449 521.85938 C 6196.687 521.63141 6195.0017 522.0446 6194.4648 523.45703 C 6193.8731 525.21949 6194.1333 527.12847 6194.0254 528.95703 C 6193.9924 529.76964 6194.0385 530.63659 6193.9395 531.41797 C 6192.4945 531.56054 6191.5773 532.95784 6191.5254 534.32617 C 6191.3619 536.51074 6191.4234 538.70465 6191.3398 540.89258 C 6190.4355 541.05001 6189.3183 541.20904 6188.3809 541.35156 C 6187.9446 541.27566 6186.9209 541.89202 6187.0059 541.19922 C 6186.9069 537.381 6187.0964 533.55224 6186.8398 529.74023 C 6186.7868 528.38259 6185.8895 526.93348 6184.4316 526.83789 C 6183.1107 526.68087 6181.5508 527.05187 6180.959 528.375 C 6180.2656 530.22868 6180.5187 532.26153 6180.418 534.20117 C 6180.387 536.55533 6180.3873 538.91018 6180.3203 541.26367 C 6179.7859 541.6314 6179.3548 541.23947 6178.8887 540.95703 C 6177.3221 540.0103 6175.6019 539.32322 6174.0918 538.28906 C 6173.5146 537.63332 6173.7017 536.62918 6173.6055 535.81836 C 6173.5036 532.88631 6173.7401 529.93341 6173.3867 527.01562 C 6173.2065 525.66056 6171.9736 524.54111 6170.582 524.66992 C 6169.3444 524.60062 6167.9554 525.08958 6167.4844 526.33203 C 6166.8708 528.02029 6167.1064 529.87217 6167.0117 531.63672 C 6166.9927 532.87876 6166.9795 534.12169 6166.9395 535.36328 C 6164.6959 535.0985 6162.4466 534.88108 6160.1934 534.71875 C 6160.1194 532.70222 6160.3299 530.65643 6159.9941 528.66016 C 6159.7581 527.27038 6158.3306 526.37219 6156.9668 526.58398 C 6155.675 526.50678 6154.2954 527.18551 6153.9199 528.49219 C 6153.4478 530.38623 6153.7219 532.36591 6153.5273 534.29297 C 6151.2104 534.48294 6148.8734 534.40407 6146.5508 534.3457 C 6146.5658 533.00476 6146.6427 531.34165 6145.3574 530.51953 C 6144.2859 529.92867 6142.9536 530.10263 6141.8281 530.43555 C 6140.5342 530.97491 6140.1913 532.48466 6140.2285 533.75391 C 6140.457 534.4671 6139.8682 534.40068 6139.3691 534.37891 C 6137.3603 534.36891 6135.3291 534.52097 6133.334 534.25195 C 6133.0037 532.04939 6133.2252 529.80313 6133.1426 527.58203 C 6133.0646 525.99843 6133.3172 524.08963 6132.0449 522.89844 C 6131.0304 522.06603 6129.539 522.16719 6128.377 522.5957 C 6126.8725 523.25228 6126.6774 525.07842 6126.6543 526.52344 C 6126.5541 529.21736 6126.5896 531.9149 6126.5039 534.60938 C 6125.8742 534.75972 6125.2631 534.97547 6124.6543 535.19336 C 6123.1005 533.85168 6121.6124 532.41829 6120.2168 530.91211 C 6119.232 529.81017 6119.6209 528.21603 6119.5215 526.87109 C 6119.4385 525.18564 6119.7354 523.40345 6119.1055 521.79883 C 6118.5857 520.57619 6117.1416 520.20022 6115.9277 520.41797 C 6114.5314 520.40507 6113.3362 521.58036 6113.2793 522.96484 C 6113.1575 523.53831 6113.2793 524.25819 6113.123 524.75781 C 6111.4738 525.04829 6110.3404 526.76553 6110.5625 528.39648 C 6109.3006 530.41849 6107.764 532.25587 6106.3594 534.17969 C 6106.3994 532.85632 6106.1523 531.22312 6104.7832 530.63867 C 6103.7267 530.2211 6102.5023 530.35411 6101.4238 530.62891 C 6100.0396 531.06462 6099.5387 532.62766 6099.582 533.95117 C 6099.553 534.45385 6099.5532 534.92723 6099.5312 535.40234 C 6097.2688 535.31454 6095.0005 535.42124 6092.7402 535.28906 C 6092.6147 533.64045 6093.027 531.83758 6092.2012 530.32227 C 6091.8133 529.75351 6091.2115 529.3401 6090.5273 529.22852 C 6090.2488 524.30388 6090.3795 519.36613 6090.3398 514.43555 C 6090.2988 508.3347 6090.4304 502.22799 6090.1855 496.13086 C 6090.0865 494.5779 6090.0013 492.57976 6088.3965 491.80273 C 6086.969 491.20019 6084.942 491.61389 6084.3164 493.17383 C 6083.5971 495.02588 6083.7664 497.07369 6083.6426 499.02344 C 6083.4475 508.8082 6083.6327 518.59731 6083.3828 528.38086 C 6083.2389 530.51411 6083.3206 532.74258 6082.5352 534.76367 C 6082.1264 535.51851 6081.0739 535.24836 6080.3613 535.3457 C 6075.4776 535.3731 6070.5953 535.14828 6065.7305 534.72852 C 6065.6315 531.04566 6065.8185 527.35302 6065.5781 523.67578 C 6065.5291 522.32475 6064.5936 520.92491 6063.1504 520.86328 C 6061.8846 520.73747 6060.4327 521.15583 6059.8848 522.41211 C 6059.2337 524.23772 6059.478 526.22409 6059.3809 528.12695 C 6059.3559 530.11041 6059.3458 532.09502 6059.3008 534.07812 C 6057.5098 533.70601 6055.7352 533.25408 6053.9336 532.93359 C 6052.5624 531.16786 6051.164 529.39953 6050.0352 527.4668 C 6049.7696 526.44207 6049.7577 525.23957 6048.875 524.49023 C 6047.5947 523.18473 6045.2492 523.20397 6044.0879 524.6582 C 6043.4429 525.35889 6043.1698 526.37334 6043.1445 527.26367 C 6042.3804 528.54639 6041.4045 529.69723 6040.4355 530.83008 C 6039.9879 530.63346 6038.9387 531.01773 6038.9434 530.38477 C 6038.8182 527.80936 6039.0723 525.21052 6038.7285 522.65039 C 6038.5442 521.25685 6037.203 520.19999 6035.8027 520.38477 C 6034.5238 520.30657 6033.1212 520.91995 6032.7227 522.2207 C 6032.1873 524.08303 6032.4281 526.06175 6032.3242 527.97656 C 6032.2892 528.86334 6032.334 529.79262 6032.248 530.6543 C 6029.9006 531.71314 6027.7566 533.15792 6025.5352 534.44922 C 6025.4532 530.70742 6025.6312 526.95664 6025.3809 523.2207 C 6025.3139 521.91043 6024.5929 520.47941 6023.2031 520.21289 C 6021.7941 519.97514 6020.0054 520.23524 6019.3535 521.6875 C 6018.6 523.4397 6018.836 525.42002 6018.7363 527.2832 C 6018.6573 531.09855 6018.7482 534.91864 6018.5586 538.73047 C 6017.6554 539.42948 6017.4088 540.62565 6017.4492 541.71094 C 6016.2609 542.72914 6016.0118 544.53649 6016.6094 545.93164 C 6016.5734 546.59373 6015.9164 546.37312 6015.459 546.56055 C 6014.219 546.86298 6013.57 548.19939 6013.7539 549.40625 C 6013.8089 550.77409 6015.1404 551.64732 6016.418 551.66406 C 6019.8742 551.90166 6023.3443 551.75711 6026.8066 551.81836 C 6089.1949 551.94759 6151.5843 551.94471 6213.9727 551.93164 C 6234.3587 551.91484 6254.7451 551.9348 6275.1309 551.8418 C 6276.7971 551.8302 6278.8464 551.97259 6279.9707 550.48047 C 6281.1623 548.84607 6281.0211 546.69368 6281.1523 544.77148 C 6281.2573 538.79212 6281.2289 532.8099 6281.1699 526.83008 C 6281.0709 525.21612 6281.2733 523.44922 6280.4473 521.99219 C 6279.6283 520.64596 6277.6727 520.5801 6276.4277 521.30859 C 6274.9841 522.2595 6275.0642 524.19282 6274.9766 525.72656 C 6274.8694 529.46325 6274.8955 533.20173 6274.8477 536.93945 C 6272.0669 531.07174 6269.2399 525.0756 6266.5117 519.12305 C 6266.1221 518.07568 6265.4683 517.07408 6265.3359 515.95703 C 6265.581 514.75201 6265.359 513.31666 6264.2227 512.63477 C 6263.7389 512.45219 6263.5014 512.06264 6263.4434 511.55859 C 6259.9079 499.56626 6256.3342 487.6004 6252.9062 475.57812 C 6252.4069 473.59082 6251.6396 471.60136 6251.8516 469.51758 C 6251.8366 466.47562 6251.931 463.42389 6251.709 460.38867 C 6251.64 459.02798 6250.5879 457.71624 6249.1602 457.71094 C 6249.0698 457.70597 6248.9792 457.69527 6248.8887 457.70508 L 6248.8867 457.70508 z " />
</svg>
