<?xml version="1.0" encoding="UTF-8" standalone="no"?>
<!-- Generator: Adobe Illustrator 18.0.0, SVG Export Plug-In . SVG Version: 6.00 Build 0)  -->

<svg
   version="1.1"
   id="Layer_8"
   x="0px"
   y="0px"
   width="9451.45px"
   height="623.52px"
   viewBox="0 0 9451.45 623.52"
   enable-background="new 0 0 9451.45 623.52"
   xml:space="preserve"
   sodipodi:docname="58 Area of hypoxia in Gulf of mexico_mask-01.svg"
   inkscape:version="1.1.1 (c3084ef, 2021-09-22)"
   xmlns:inkscape="http://www.inkscape.org/namespaces/inkscape"
   xmlns:sodipodi="http://sodipodi.sourceforge.net/DTD/sodipodi-0.dtd"
   xmlns="http://www.w3.org/2000/svg"
   xmlns:svg="http://www.w3.org/2000/svg"><defs
   id="defs6899" /><sodipodi:namedview
   id="namedview6897"
   pagecolor="#505050"
   bordercolor="#eeeeee"
   borderopacity="1"
   inkscape:pageshadow="0"
   inkscape:pageopacity="0"
   inkscape:pagecheckerboard="0"
   showgrid="false"
   inkscape:zoom="0.68068661"
   inkscape:cx="6955.4769"
   inkscape:cy="185.10721"
   inkscape:window-width="1440"
   inkscape:window-height="762"
   inkscape:window-x="0"
   inkscape:window-y="25"
   inkscape:window-maximized="0"
   inkscape:current-layer="Layer_8" />
<path
   style="fill:#c50000;fill-opacity:0.3319838"
   d="m 6730.6956,400.75 c -1.1068,-0.82024 -4.9687,-13.11127 -11.233,-35.75 -5.2505,-18.975 -9.7658,-35.23391 -10.0341,-36.13092 -0.2682,-0.897 -1.7615,-1.88569 -3.3185,-2.19707 -3.4981,-0.69963 -8.6932,-4.9654 -10.6459,-8.74147 -1.8941,-3.66269 -1.8666,-11.63504 0.053,-15.31529 2.2412,-4.2975 0.67,-5.44573 -7.3121,-5.3438 -4.7193,0.0603 -8.0438,-0.513 -11.2269,-1.93591 -2.9117,-1.3016 -5.2265,-1.74635 -6.5,-1.24882 -4.6817,1.82909 -13.1311,0.97509 -18.5953,-1.87946 -16.0453,-8.38213 -18.6366,-29.70226 -5.0261,-41.35231 7.3449,-6.28696 18.9433,-7.80983 27.2916,-3.58338 3.7508,1.89889 5.1304,2.11937 8.4094,1.3439 8.3746,-1.98053 19.7816,2.76517 24.7718,10.30583 5.9119,8.93343 6.0157,18.87063 0.2854,27.31475 -3.0353,4.47277 -1.9787,6.76395 3.1194,6.76395 5.0716,0 11.3238,3.31709 14.1657,7.51553 4.527,6.6879 3.7733,15.50697 -1.8788,21.98447 -1.6768,1.92164 -1.3887,3.28312 7.352,34.75 9.0972,32.75 9.0972,32.75 15.8621,32.75 3.7208,0 6.7777,-0.3375 6.7932,-0.75 0.016,-0.4125 3.1199,-21.225 6.8985,-46.25 4.4179,-29.2583 6.4991,-45.63584 5.8302,-45.88054 -2.4705,-0.90384 -9.0754,-7.81316 -11.0423,-11.55125 -2.9649,-5.63473 -2.9586,-15.51337 0.014,-21.16289 2.5783,-4.90115 7.8976,-9.77994 12.4557,-11.42437 3.3162,-1.19637 3.3162,-1.19637 2.9864,-9.20539 -0.3007,-7.30203 -0.054,-8.56935 2.7951,-14.35669 5.4321,-11.03403 14.7428,-16.84497 27.0347,-16.87273 9.0787,-0.0205 15.4191,2.51255 21.7148,8.67533 3.0179,2.95425 4.3518,3.72153 4.6974,2.70215 0.5844,-1.7239 3.5878,-12.19581 3.5878,-12.50966 0,-0.12267 -2.3625,-1.55834 -5.25,-3.19037 -10.7287,-6.06388 -18.6325,-17.34807 -21.3796,-30.52328 -5.6658,-27.17313 16.4061,-53.74882 44.5897,-53.68844 10.1106,0.0217 21.3883,4.11536 28.6458,10.39814 3.8941,3.37114 3.8941,3.37114 9.6725,-2.45557 12.8512,-12.95869 32.1669,-17.34766 48.6861,-11.06263 3.0055,1.1435 5.7637,1.74814 6.1292,1.34364 0.3656,-0.4045 1.2027,-2.41915 1.8603,-4.477 1.5524,-4.85844 8.5435,-14.31296 14.1353,-19.116207 6.6679,-5.727605 17.4088,-10.498531 26.6764,-11.849303 6.7689,-0.986574 9.2672,-0.902537 16.7237,0.562541 4.8213,0.947309 8.8646,1.592362 8.9851,1.43345 0.1205,-0.158912 1.5255,-2.762911 3.1223,-5.786664 3.827,-7.247049 14.4127,-17.716926 21.9032,-21.663562 9.3652,-4.934372 16.727,-6.731395 27.5489,-6.724722 42.4267,0.02616 69.386,43.789127 50.7126,82.321407 -4.0044,8.26292 -15.852,20.41353 -23.9935,24.60727 -3.7352,1.92399 -6.7835,4.44417 -8.75,7.2342 -3.0858,4.37781 -3.4259,6.09296 -2.4239,12.22314 0.5721,3.5 0.5721,3.5 5.592,-1.35248 7.1979,-6.95782 14.2902,-9.94228 24.8481,-10.45615 8.5341,-0.41537 8.5341,-0.41537 10.3864,-4.89373 2.0546,-4.96751 11.4029,-15.63791 15.6034,-17.81008 2.702,-1.39725 2.702,-1.39725 2.2127,-10.75203 -0.7195,-13.75473 2.7036,-24.01909 11.2085,-33.61014 1.7682,-1.99396 4.0004,-5.65039 4.9606,-8.12539 5.9675,-15.381933 21.7645,-29.204645 38.2974,-33.51091 7.379,-1.921986 20.2848,-1.903704 27.7445,0.0393 14.8547,3.869158 28.8973,14.874408 35.6917,27.97161 3.3353,6.429371 6.8606,17.66466 6.8606,21.86492 0,1.06491 1.4511,2.33742 3.75,3.28838 2.0625,0.85319 6.3321,3.305 9.488,5.44848 3.1558,2.14347 7.991,4.75334 10.7448,5.79971 15.2228,5.78418 27.464,19.16849 29.6641,32.4342 0.6762,4.07725 0.858,4.21752 6.473,4.99508 3.5157,0.48684 3.7339,0.32252 7.5776,-5.70649 6.6876,-10.48998 17.0483,-17.42226 29.4551,-19.70831 6.6397,-1.22341 6.6397,-1.22341 3.8264,-5.81969 -13.369,-21.84191 -9.3489,-51.823189 9.4726,-70.644667 19.2423,-19.242309 48.2551,-22.844767 72.168,-8.960956 10.9677,6.367852 21.3562,19.762122 25.9897,33.509343 2.7709,8.221231 2.6112,25.20994 -0.3248,34.54153 -6.6066,20.9981 -25.2558,36.79183 -47.7707,40.45623 -3.1827,0.51799 -6.048,1.20314 -6.3674,1.52255 -0.3194,0.31941 -4.8993,53.94033 -10.1776,119.1576 -8.7805,108.49218 -9.7564,118.69359 -11.4739,119.94947 -2.922,2.13659 -7.2282,1.70922 -8.9288,-0.88612 -1.0417,-1.58984 -3.7185,-22.6899 -9.0388,-71.25 -4.1574,-37.9452 -7.8228,-70.86995 -8.1453,-73.16612 -0.5866,-4.17486 -0.5866,-4.17486 -5.349,-0.75336 -6.2901,4.51898 -12.1817,6.49619 -19.519,6.55058 -10.2074,0.0757 -16.5969,-2.39228 -24.1005,-9.30885 -3.087,-2.84554 -4.5356,-3.63966 -4.8865,-2.67896 -0.2745,0.751 -2.4668,9.91545 -4.872,20.36545 -4.373,19 -4.373,19 -1.0394,22.72479 1.8335,2.04863 3.6076,4.97363 3.9425,6.5 0.3349,1.52636 0.7755,3.32012 0.979,3.98611 0.7828,2.56103 -2.3945,11.53087 -5.0758,14.32946 C 7296.1198,328.87835 7276,320.85867 7276,304.5 c 0,-5.23993 2.7684,-11.38605 6.4237,-14.26132 2.4795,-1.95038 2.4795,-1.95038 -3.9428,-38.73185 -3.5322,-20.22982 -6.5479,-36.87612 -6.7016,-36.99178 -0.1536,-0.11567 -3.5367,-0.73229 -7.518,-1.37028 -5.7569,-0.92253 -13.9173,-3.82143 -19.3465,-6.87268 -0.3218,-0.18088 -3.2015,14.26364 -6.3993,32.09893 -5.8142,32.42781 -5.8142,32.42781 -2.0079,35.76982 11.7119,10.28313 9.2557,27.76541 -4.9252,35.05657 -5.8706,3.01839 -15.0948,2.22596 -20.8118,-1.7879 -12.0245,-8.44221 -12.1437,-26.96932 -0.2233,-34.68945 2.0073,-1.29999 3.4329,-3.04893 3.4399,-4.22006 0.01,-1.1 -1.9901,-21.21099 -4.4372,-44.6911 -3.686,-35.36794 -4.8045,-43.38735 -6.52,-46.75 -2.963,-5.80807 -4.0519,-5.09972 -3.371,2.19284 1.0688,11.44508 -3.232,23.24445 -11.7586,32.26007 -7.1612,7.5719 -19.3376,13.43656 -27.9799,13.47632 -2.5795,0.0119 -2.5795,0.0119 0.5,6.22708 9.9179,20.01683 -4.4965,43.13947 -26.9205,43.18411 -12.9893,0.0259 -24.7268,-8.08672 -28.8244,-19.92247 -1.3301,-3.84169 -1.3301,-3.84169 -4.151,6.25872 -2.8208,10.10042 -2.8208,10.10042 0.8313,14.36707 7.9476,9.28499 7.3483,21.23441 -1.4838,29.58603 -4.2734,4.04095 -8.0334,5.453 -14.5219,5.45366 -11.789,10e-4 -20.6672,-9.13104 -20.6784,-21.27008 -0.01,-6.82623 3.5088,-13.58471 8.7502,-16.82403 3.0223,-1.86789 3.3781,-2.51549 2.932,-5.33703 -0.2791,-1.76615 -2.857,-20.85766 -5.7285,-42.42557 -2.8715,-21.56791 -5.4463,-39.43973 -5.7217,-39.71516 -0.2754,-0.27542 -3.3896,0.6661 -6.9205,2.09227 -3.5308,1.42617 -9.3861,3.05218 -13.0116,3.61337 -6.592,1.02034 -6.592,1.02034 -14.8303,70.73281 -8.2383,69.71247 -8.2383,69.71247 -6.0659,73.39441 6.1517,10.42637 -6.2384,21.60135 -16.136,14.55358 -4.6643,-3.32127 -5.8013,-10.97099 -2.2438,-15.09601 1.2256,-1.42121 0.8097,-6.80527 -3.1289,-40.5 -5.9972,-51.30694 -4.9662,-46.726 -9.1262,-40.54881 -11.6837,17.34939 -36.6459,18.87582 -50.8227,3.10779 -4.9842,-5.54359 -7.6289,-12.16175 -8.03,-20.09466 -0.2631,-5.20232 -0.2713,-5.21403 -4.7337,-6.76827 -9.3867,-3.26935 -19.0359,-10.97219 -22.0606,-17.61063 -0.6131,-1.34547 -1.5359,-2.44631 -2.0507,-2.44631 -0.5148,0 -2.9743,1.79415 -5.4655,3.98699 -8.9065,7.83982 -20.6988,11.68694 -32.7312,10.67819 -5.5868,-0.46838 -8.8924,-1.50885 -16.0415,-5.0492 -9.0047,-4.45925 -9.0047,-4.45925 -10.7417,1.21238 -3.5134,11.4722 -3.5452,11.25906 2.5875,17.39168 4.357,4.35703 5.8722,6.73835 7.2052,11.32365 3.9534,13.59932 -1.8364,27.02174 -14.2826,33.1111 -10.437,5.10636 -22.8258,3.23616 -31.3576,-4.73369 -1.7198,-1.6066 -3.2469,-2.9211 -3.3935,-2.9211 -0.1465,0 -0.5608,1.84129 -0.9207,4.09177 -1.4643,9.15699 -8.9274,17.93329 -17.1114,20.12218 -2.8215,0.75464 -4.5047,1.77407 -4.5296,2.74345 -0.022,0.84843 -3.3313,23.3257 -7.3543,49.94949 -6.1212,40.50887 -7.6143,48.62603 -9.1514,49.75 -2.5028,1.83007 -29.3092,1.90866 -31.759,0.0931 z m 662.8483,-135.59527 c 2.4508,-30.4399 4.4561,-55.53786 4.4561,-55.77325 0,-0.23539 -2.1822,1.29696 -4.8494,3.40522 -2.6671,2.10827 -7.3845,4.93123 -10.4829,6.27326 -4.6806,2.02729 -5.6361,2.86293 -5.6483,4.94004 -0.012,2.07514 10.6408,100.30417 11.1406,102.72494 0.2763,1.33817 0.8122,-4.79004 5.3839,-61.57021 z M 7019.9629,239 c 2.7343,-23.375 5.1998,-44.0831 5.4789,-46.01801 0.5076,-3.51801 0.5076,-3.51801 -5.953,-5.83504 -6.2802,-2.25232 -6.6007,-2.27052 -11.4747,-0.65163 -2.7578,0.91598 -5.0141,1.88668 -5.0141,2.15712 0,0.27044 2.475,21.4533 5.5,47.07302 3.025,25.61972 5.5613,47.29979 5.6362,48.17793 0.2253,2.64134 0.6317,-0.49089 5.8267,-44.90339 z m 279.0241,16.25 c 1.8336,-8.1125 3.5012,-15.425 3.7058,-16.25 0.2292,-0.9244 -1.2073,-2.39321 -3.7436,-3.8277 -2.2635,-1.28023 -5.9517,-3.98023 -8.196,-6 -3.8675,-3.48058 -4.0504,-3.54178 -3.505,-1.1723 0.3165,1.375 2.0737,11.3875 3.9049,22.25 1.8311,10.8625 3.5928,19.75 3.9147,19.75 0.322,0 2.0856,-6.6375 3.9192,-14.75 z m -206.0108,-13.86711 c 0.013,-0.0644 -1.8348,-1.34705 -4.1063,-2.85029 -4.1301,-2.73318 -4.1301,-2.73318 -3.5505,0.61711 0.3188,1.84266 0.8519,5.60029 1.1847,8.35029 1.2631,10.43768 1.5481,10.57725 4.0835,2 1.3007,-4.4 2.3755,-8.0527 2.3886,-8.11711 z M 7228.4322,223 c 2.0169,-11.23842 3.0964,-19.63921 2.5479,-19.82858 -0.5233,-0.18071 -3.0734,-1.40279 -5.6668,-2.71572 -2.5933,-1.31293 -4.9007,-2.2016 -5.1275,-1.97483 -0.2268,0.22678 0.6249,10.64009 1.8926,23.1407 1.2677,12.50061 2.4285,22.31215 2.5796,21.80341 0.151,-0.50874 1.8494,-9.69998 3.7742,-20.42498 z m -236.5617,-20.51301 c -1.1884,-10.83445 -1.4572,-11.75957 -3.6605,-12.59724 -3.21,-1.22043 -4.21,-0.3866 -4.21,3.51034 0,1.80512 -0.6339,5.38827 -1.4086,7.96255 -1.4009,4.65463 -1.394,4.68818 1.25,6.06966 1.4622,0.76403 3.9758,2.77463 5.5857,4.46799 1.6099,1.69337 3.1069,2.89908 3.3266,2.67936 0.2197,-0.21972 -0.1777,-5.66141 -0.8832,-12.09266 z"
   id="path7070" />
</svg>
