<?xml version="1.0" encoding="UTF-8" standalone="no"?>
<!-- Generator: Adobe Illustrator 18.0.0, SVG Export Plug-In . SVG Version: 6.00 Build 0)  -->

<svg
   version="1.1"
   id="Layer_8"
   x="0px"
   y="0px"
   width="9451.45px"
   height="623.52px"
   viewBox="0 0 9451.45 623.52"
   enable-background="new 0 0 9451.45 623.52"
   xml:space="preserve"
   sodipodi:docname="58 Area of hypoxia in Gulf of mexico_mask-01.svg"
   inkscape:version="1.1.1 (c3084ef, 2021-09-22)"
   xmlns:inkscape="http://www.inkscape.org/namespaces/inkscape"
   xmlns:sodipodi="http://sodipodi.sourceforge.net/DTD/sodipodi-0.dtd"
   xmlns="http://www.w3.org/2000/svg"
   xmlns:svg="http://www.w3.org/2000/svg"><defs
   id="defs6899" /><sodipodi:namedview
   id="namedview6897"
   pagecolor="#505050"
   bordercolor="#eeeeee"
   borderopacity="1"
   inkscape:pageshadow="0"
   inkscape:pageopacity="0"
   inkscape:pagecheckerboard="0"
   showgrid="false"
   inkscape:zoom="0.22667627"
   inkscape:cx="8318.0299"
   inkscape:cy="149.99365"
   inkscape:window-width="1440"
   inkscape:window-height="762"
   inkscape:window-x="638"
   inkscape:window-y="68"
   inkscape:window-maximized="0"
   inkscape:current-layer="Layer_8" />
<path
   style="fill:#c50000;fill-opacity:0.331984"
   d="m 6730.6956,400.75 -78.8881,3.28563 c -4.6817,1.82909 5.5395,-108.97382 0.075,-111.82837 -16.0453,-8.38213 -18.6366,-29.70226 -5.0261,-41.35231 7.3449,-6.28696 18.9433,-7.80983 27.2916,-3.58338 3.7508,1.89889 5.1304,2.11937 8.4094,1.3439 8.3746,-1.98053 19.7816,2.76517 24.7718,10.30583 5.9119,8.93343 6.0157,18.87063 0.2854,27.31475 -3.0353,4.47277 -1.9787,6.76395 3.1194,6.76395 5.0716,0 11.3238,3.31709 14.1657,7.51553 4.527,6.6879 3.7733,15.50697 -1.8788,21.98447 -1.6768,1.92164 -1.3887,3.28312 7.352,34.75 9.0972,32.75 9.0972,32.75 15.8621,32.75 3.7208,0 6.7777,-0.3375 6.7932,-0.75 0.016,-0.4125 3.1199,-21.225 6.8985,-46.25 4.4179,-29.2583 6.4991,-45.63584 5.8302,-45.88054 -2.4705,-0.90384 -9.0754,-7.81316 -11.0423,-11.55125 -2.9649,-5.63473 -2.9586,-15.51337 0.014,-21.16289 2.5783,-4.90115 7.8976,-9.77994 12.4557,-11.42437 3.3162,-1.19637 3.3162,-1.19637 2.9864,-9.20539 -0.3007,-7.30203 -0.054,-8.56935 2.7951,-14.35669 5.4321,-11.03403 14.7428,-16.84497 27.0347,-16.87273 9.0787,-0.0205 15.4191,2.51255 21.7148,8.67533 3.0179,2.95425 4.3518,3.72153 4.6974,2.70215 0.5844,-1.7239 3.5878,-12.19581 3.5878,-12.50966 0,-0.12267 -2.3625,-1.55834 -5.25,-3.19037 -10.7287,-6.06388 -18.6325,-17.34807 -21.3796,-30.52328 -5.6658,-27.17313 16.4061,-53.74882 44.5897,-53.68844 10.1106,0.0217 21.3883,4.11536 28.6458,10.39814 3.8941,3.37114 3.8941,3.37114 9.6725,-2.45557 12.8512,-12.95869 32.1669,-17.34766 48.6861,-11.06263 3.0055,1.1435 5.7637,1.74814 6.1292,1.34364 0.3656,-0.4045 1.2027,-2.41915 1.8603,-4.477 1.5524,-4.85844 8.5435,-14.31296 14.1353,-19.116207 6.6679,-5.727605 17.4088,-10.498531 26.6764,-11.849303 6.7689,-0.986574 9.2672,-0.902537 16.7237,0.562541 4.8213,0.947309 8.8646,1.592362 8.9851,1.43345 0.1205,-0.158912 1.5255,-2.762911 3.1223,-5.786664 3.827,-7.247049 14.4127,-17.716926 21.9032,-21.663562 9.3652,-4.934372 16.727,-6.731395 27.5489,-6.724722 42.4267,0.02616 69.386,43.789127 50.7126,82.321407 -4.0044,8.26292 -15.852,20.41353 -23.9935,24.60727 -3.7352,1.92399 -6.7835,4.44417 -8.75,7.2342 -3.0858,4.37781 -3.4259,6.09296 -2.4239,12.22314 0.5721,3.5 0.5721,3.5 5.592,-1.35248 7.1979,-6.95782 14.2902,-9.94228 24.8481,-10.45615 8.5341,-0.41537 8.5341,-0.41537 10.3864,-4.89373 2.0546,-4.96751 11.4029,-15.63791 15.6034,-17.81008 2.702,-1.39725 2.702,-1.39725 2.2127,-10.75203 -0.7195,-13.75473 2.7036,-24.01909 11.2085,-33.61014 1.7682,-1.99396 4.0004,-5.65039 4.9606,-8.12539 5.9675,-15.381933 21.7645,-29.204645 38.2974,-33.51091 7.379,-1.921986 20.2848,-1.903704 27.7445,0.0393 14.8547,3.869158 28.8973,14.874408 35.6917,27.97161 3.3353,6.429371 6.8606,17.66466 6.8606,21.86492 0,1.06491 1.4511,2.33742 3.75,3.28838 2.0625,0.85319 6.3321,3.305 9.488,5.44848 3.1558,2.14347 7.991,4.75334 10.7448,5.79971 15.2228,5.78418 27.464,19.16849 29.6641,32.4342 0.6762,4.07725 0.858,4.21752 6.473,4.99508 3.5157,0.48684 3.7339,0.32252 7.5776,-5.70649 6.6876,-10.48998 17.0483,-17.42226 29.4551,-19.70831 6.6397,-1.22341 6.6397,-1.22341 3.8264,-5.81969 -13.369,-21.84191 -9.3489,-51.823189 9.4726,-70.644667 19.2423,-19.242309 48.2551,-22.844767 72.168,-8.960956 10.9677,6.367852 21.3562,19.762122 25.9897,33.509343 2.7709,8.221231 2.6112,25.20994 -0.3248,34.54153 -6.6066,20.9981 -25.2558,36.79183 -47.7707,40.45623 -3.1827,0.51799 -6.048,1.20314 -6.3674,1.52255 l -1.9889,243.547 c -217.4463,-1.62015 -462.3645,-4.65687 -682.4624,-4.31732 z"
   id="path7070"
   sodipodi:nodetypes="ccsssssssssssssssssssssssssssssssssssssssssssssssssssssssssssssssssscccc" />
</svg>
