<?xml version="1.0" encoding="UTF-8" standalone="no"?>
<!-- Generator: Adobe Illustrator 18.0.0, SVG Export Plug-In . SVG Version: 6.00 Build 0)  -->

<svg
   version="1.1"
   id="AR_x5F_layer"
   x="0px"
   y="0px"
   width="9451.45px"
   height="623.52px"
   viewBox="0 0 9451.45 623.51"
   enable-background="new 0 0 9451.45 623.51"
   xml:space="preserve"
   sodipodi:docname="6 Baseline water stress_mask-01.svg"
   inkscape:version="1.1.1 (c3084ef, 2021-09-22)"
   xmlns:inkscape="http://www.inkscape.org/namespaces/inkscape"
   xmlns:sodipodi="http://sodipodi.sourceforge.net/DTD/sodipodi-0.dtd"
   xmlns="http://www.w3.org/2000/svg"
   xmlns:svg="http://www.w3.org/2000/svg">


<g
   id="multiple">
	<path
   id="narmada"
   style="opacity:0.75;fill:#333333"
   d="m 2183.23,527.03998 a 26.780001,26.780001 0 0 1 -26.78,26.78 26.780001,26.780001 0 0 1 -26.78,-26.78 26.780001,26.780001 0 0 1 26.78,-26.78 26.780001,26.780001 0 0 1 26.78,26.78 z" />
	<path
   id="indus"
   style="opacity:0.75;fill:#333333"
   d="m 1896.94,529.47998 a 26.780001,26.780001 0 0 1 -26.78,26.78 26.780001,26.780001 0 0 1 -26.78,-26.78 26.780001,26.780001 0 0 1 26.78,-26.78 26.780001,26.780001 0 0 1 26.78,26.78 z" />
	<path
   id="yangtze"
   style="opacity:0.75;fill:#333333"
   d="m 1437.4699,366.09 a 26.780001,26.780001 0 0 1 -26.78,26.78 26.780001,26.780001 0 0 1 -26.78,-26.78 26.780001,26.780001 0 0 1 26.78,-26.78 26.780001,26.780001 0 0 1 26.78,26.78 z" />
	<path
   id="mississippi"
   style="opacity:0.75;fill:#333333"
   d="m 1171.76,412.29999 a 26.780001,26.780001 0 0 1 -26.78,26.78 26.780001,26.780001 0 0 1 -26.78,-26.78 26.780001,26.780001 0 0 1 26.78,-26.78 26.780001,26.780001 0 0 1 26.78,26.78 z" />
	<path
   id="sirdaryo"
   style="opacity:0.75;fill:#333333"
   d="m 980.30002,487.62 a 26.780001,26.780001 0 0 1 -26.78,26.78 26.780001,26.780001 0 0 1 -26.78,-26.78 26.780001,26.780001 0 0 1 26.78,-26.78001 26.780001,26.780001 0 0 1 26.78,26.78001 z" />
	<path
   id="niger"
   style="opacity:0.75;fill:#333333"
   d="m 2450.6101,579.94 a 26.780001,26.780001 0 0 1 -26.78,26.78 26.780001,26.780001 0 0 1 -26.78,-26.78 26.780001,26.780001 0 0 1 26.78,-26.78 26.780001,26.780001 0 0 1 26.78,26.78 z" />
	<path
   id="amazonas"
   style="opacity:0.75;fill:#333333"
   d="m 2340.23,570.03998 a 26.780001,26.780001 0 0 1 -26.78,26.78 26.780001,26.780001 0 0 1 -26.78,-26.78 26.780001,26.780001 0 0 1 26.78,-26.78 26.780001,26.780001 0 0 1 26.78,26.78 z" />
	<path
   id="tigris"
   style="opacity:0.75;fill:#333333"
   d="m 1992.39,507.47 a 26.780001,26.780001 0 0 1 -26.78,26.78 26.780001,26.780001 0 0 1 -26.78,-26.78 26.780001,26.780001 0 0 1 26.78,-26.78 26.780001,26.780001 0 0 1 26.78,26.78 z" />
	<path
   id="colorado"
   style="opacity:0.75;fill:#333333"
   d="m 1736.66,474.47 a 26.780001,26.780001 0 0 1 -26.78,26.78 26.780001,26.780001 0 0 1 -26.78,-26.78 26.780001,26.780001 0 0 1 26.78,-26.78 26.780001,26.780001 0 0 1 26.78,26.78 z" />
	<path
   id="amudaryo"
   style="opacity:0.75;fill:#333333"
   d="m 1576.2101,309.44 a 26.780001,26.780001 0 0 1 -26.78,26.78 26.780001,26.780001 0 0 1 -26.78,-26.78 26.780001,26.780001 0 0 1 26.78,-26.78 26.780001,26.780001 0 0 1 26.78,26.78 z" />
	<path
   id="nile"
   style="opacity:0.75;fill:#333333"
   d="m 1287.52,338.92001 a 26.780001,26.780001 0 0 1 -26.78,26.78 26.780001,26.780001 0 0 1 -26.78,-26.78 26.780001,26.780001 0 0 1 26.78,-26.78 26.780001,26.780001 0 0 1 26.78,26.78 z" />
	<path
   id="ob"
   style="opacity:0.75;fill:#333333"
   d="m 1200.2,285.37 a 26.780001,26.780001 0 0 1 -26.78,26.78 26.780001,26.780001 0 0 1 -26.78,-26.78 26.780001,26.780001 0 0 1 26.78,-26.78001 26.780001,26.780001 0 0 1 26.78,26.78001 z" />
	<path
   id="huang"
   style="opacity:0.75;fill:#333333"
   d="m 923.92002,389.13 a 26.780001,26.780001 0 0 1 -26.78001,26.78001 26.780001,26.780001 0 0 1 -26.78,-26.78001 26.780001,26.780001 0 0 1 26.78,-26.78 26.780001,26.780001 0 0 1 26.78001,26.78 z" />
	<path
   id="rhine"
   style="opacity:0.75;fill:#333333"
   d="m 1066.8,467.70999 a 26.780001,26.780001 0 0 1 -26.78,26.78 26.780001,26.780001 0 0 1 -26.78,-26.78 26.780001,26.780001 0 0 1 26.78,-26.78 26.780001,26.780001 0 0 1 26.78,26.78 z" />
	<path
   id="ganges"
   style="opacity:0.75;fill:#333333"
   d="m 706.13999,361.10001 a 26.780001,26.780001 0 0 1 -26.78,26.78 26.780001,26.780001 0 0 1 -26.78001,-26.78 26.780001,26.780001 0 0 1 26.78001,-26.78 26.780001,26.780001 0 0 1 26.78,26.78 z" />
	<path
   id="godavari"
   style="opacity:0.75;fill:#333333"
   d="m 807.04001,330.59 a 26.780001,26.780001 0 0 1 -26.78,26.78 26.780001,26.780001 0 0 1 -26.78,-26.78 26.780001,26.780001 0 0 1 26.78,-26.78 26.780001,26.780001 0 0 1 26.78,26.78 z" />
</g>
</svg>
