<?xml version="1.0" encoding="UTF-8" standalone="no"?>
<!--?xml version="1.0" encoding="UTF-8" standalone="no"?-->

<!-- Generator: Adobe Illustrator 18.0.0, SVG Export Plug-In . SVG Version: 6.00 Build 0)  -->

<svg
   version="1.1"
   id="AR_x5F_layer"
   x="0px"
   y="0px"
   width="9451.45px"
   height="623.52px"
   viewBox="0 0 9451.45 623.51"
   enable-background="new 0 0 9451.45 623.51"
   xml:space="preserve"
   sodipodi:docname="6 Baseline water stress_mask-01_specialcase.svg"
   inkscape:version="1.1.1 (c3084ef, 2021-09-22)"
   xmlns:inkscape="http://www.inkscape.org/namespaces/inkscape"
   xmlns:sodipodi="http://sodipodi.sourceforge.net/DTD/sodipodi-0.dtd"
   xmlns="http://www.w3.org/2000/svg"
   xmlns:svg="http://www.w3.org/2000/svg">
   <sodipodi:namedview
   id="namedview842"
   pagecolor="#505050"
   bordercolor="#eeeeee"
   borderopacity="1"
   inkscape:pageshadow="0"
   inkscape:pageopacity="0"
   inkscape:pagecheckerboard="0"
   showgrid="false"
   inkscape:zoom="0.28339333"
   inkscape:cx="1166.2236"
   inkscape:cy="416.38242"
   inkscape:window-width="1440"
   inkscape:window-height="762"
   inkscape:window-x="0"
   inkscape:window-y="25"
   inkscape:window-maximized="1"
   inkscape:current-layer="AR_x5F_layer" />


<g
   id="multiple"><g
     id="ganges"
     style="fill:#000000;fill-opacity:0.387168"><path
       style="fill:#000000;fill-opacity:0.387168;stroke:#000000;stroke-linecap:butt;stroke-linejoin:miter;stroke-opacity:1;stroke-width:1.0"
       d="M 551.317 233.923 L 549.165 233.948 L 546.495 234.352 L 542.769 235.252 L 540.099 236.339 L 538.112 237.364 L 536.094 238.606 L 534.448 239.878 L 533.113 240.996 L 531.716 242.424 L 530.66 243.635 L 529.574 245.032 L 528.642 246.492 L 527.587 248.354 L 526.748 250.093 L 526.252 251.242 L 525.786 252.639 L 525.351 254.316 L 524.948 256.085 L 524.73 257.42 L 524.637 258.538 L 524.537 260.703 L 524.575 261.829 L 524.668 263.381 L 524.793 264.592 L 525.072 266.083 L 525.289 267.169 L 525.631 268.442 L 526.097 269.839 L 526.438 270.709 L 527.028 271.951 L 527.463 272.944 L 528.115 274.124 L 528.891 275.49 L 529.822 276.67 L 530.257 277.322 L 531.064 278.253 L 532.151 279.495 L 533.144 280.333 L 533.952 281.11 L 534.635 281.637 L 535.411 282.258 L 536.404 282.941 L 537.491 283.686 L 538.112 283.935 L 538.888 284.401 L 539.82 284.897 L 540.844 285.363 L 542.055 285.798 L 543.08 286.201 L 544.353 286.605 L 545.129 286.791 L 546.215 287.009 L 547.613 287.288 L 549.041 287.412 L 550.127 287.443 L 551.317 287.483 L 552.363 287.443 L 553.698 287.381 L 554.971 287.288 L 556.306 287.04 L 557.827 286.76 L 558.759 286.419 L 559.845 286.108 L 561.211 285.611 L 562.886 284.926 L 564.486 284.053 L 565.577 283.471 L 567.323 282.308 L 568.56 281.362 L 570.597 279.398 L 572.415 277.288 L 573.797 275.324 L 574.743 273.724 L 575.616 271.978 L 576.489 269.941 L 577.216 267.613 L 577.653 265.285 L 578.017 263.103 L 578.097 260.703 L 577.944 259.175 L 577.726 256.774 L 577.216 254.519 L 576.343 251.318 L 575.543 249.354 L 574.67 247.536 L 573.579 245.717 L 571.833 243.389 L 570.378 241.862 L 568.923 240.261 L 567.105 238.879 L 564.559 237.424 L 561.504 235.824 L 559.539 235.169 L 557.066 234.442 L 554.811 234.078 Z"
       id="path1062" /></g><g
     id="godavari"
     style="fill:#000000;fill-opacity:0.387168"><path
       style="fill:#000000;fill-opacity:0.387168;stroke:#000000;stroke-linecap:butt;stroke-linejoin:miter;stroke-opacity:1;stroke-width:1.0"
       d="M 652.217 203.413 L 650.065 203.438 L 647.395 203.842 L 643.669 204.742 L 640.999 205.829 L 639.012 206.854 L 636.994 208.096 L 635.348 209.368 L 634.013 210.486 L 632.616 211.914 L 631.56 213.125 L 630.474 214.522 L 629.542 215.982 L 628.487 217.844 L 627.648 219.583 L 627.152 220.732 L 626.686 222.129 L 626.251 223.806 L 625.848 225.575 L 625.63 226.91 L 625.537 228.028 L 625.437 230.193 L 625.475 231.319 L 625.568 232.871 L 625.693 234.082 L 625.972 235.573 L 626.189 236.659 L 626.531 237.932 L 626.997 239.329 L 627.338 240.199 L 627.928 241.441 L 628.363 242.434 L 629.015 243.614 L 629.791 244.98 L 630.722 246.16 L 631.157 246.812 L 631.964 247.743 L 633.051 248.985 L 634.044 249.823 L 634.852 250.6 L 635.535 251.127 L 636.311 251.748 L 637.304 252.431 L 638.391 253.176 L 639.012 253.425 L 639.788 253.891 L 640.72 254.387 L 641.744 254.853 L 642.955 255.288 L 643.98 255.691 L 645.253 256.095 L 646.029 256.281 L 647.115 256.499 L 648.513 256.778 L 649.941 256.902 L 651.027 256.933 L 652.217 256.973 L 653.263 256.933 L 654.598 256.871 L 655.871 256.778 L 657.206 256.53 L 658.727 256.25 L 659.659 255.909 L 660.745 255.598 L 662.111 255.101 L 663.786 254.416 L 665.386 253.543 L 666.477 252.961 L 668.223 251.798 L 669.46 250.852 L 671.497 248.888 L 673.315 246.778 L 674.697 244.814 L 675.643 243.214 L 676.516 241.468 L 677.389 239.431 L 678.116 237.103 L 678.553 234.775 L 678.917 232.593 L 678.997 230.193 L 678.844 228.665 L 678.626 226.264 L 678.116 224.009 L 677.243 220.808 L 676.443 218.844 L 675.57 217.026 L 674.479 215.207 L 672.733 212.879 L 671.278 211.352 L 669.823 209.751 L 668.005 208.369 L 665.459 206.914 L 662.404 205.314 L 660.439 204.659 L 657.966 203.932 L 655.711 203.568 Z"
       id="path1064" /></g><g
     id="huang"
     style="fill:#000000;fill-opacity:0.387168"><path
       style="fill:#000000;fill-opacity:0.387168;stroke:#000000;stroke-linecap:butt;stroke-linejoin:miter;stroke-opacity:1;stroke-width:1.0"
       d="M 769.097 261.953 L 766.945 261.978 L 764.275 262.382 L 760.549 263.282 L 757.879 264.369 L 755.892 265.394 L 753.874 266.636 L 752.228 267.908 L 750.893 269.026 L 749.496 270.454 L 748.44 271.665 L 747.354 273.062 L 746.422 274.522 L 745.367 276.384 L 744.528 278.123 L 744.032 279.272 L 743.566 280.669 L 743.131 282.346 L 742.728 284.115 L 742.51 285.45 L 742.417 286.568 L 742.317 288.733 L 742.355 289.859 L 742.448 291.411 L 742.573 292.622 L 742.852 294.113 L 743.069 295.199 L 743.411 296.472 L 743.877 297.869 L 744.218 298.739 L 744.808 299.981 L 745.243 300.974 L 745.895 302.154 L 746.671 303.52 L 747.602 304.7 L 748.037 305.352 L 748.844 306.283 L 749.931 307.525 L 750.924 308.363 L 751.732 309.14 L 752.415 309.667 L 753.191 310.288 L 754.184 310.971 L 755.271 311.716 L 755.892 311.965 L 756.668 312.431 L 757.6 312.927 L 758.624 313.393 L 759.835 313.828 L 760.86 314.231 L 762.133 314.635 L 762.909 314.821 L 763.995 315.039 L 765.393 315.318 L 766.821 315.442 L 767.907 315.473 L 769.097 315.513 L 770.143 315.473 L 771.478 315.411 L 772.751 315.318 L 774.086 315.07 L 775.607 314.79 L 776.539 314.449 L 777.625 314.138 L 778.991 313.641 L 780.666 312.956 L 782.266 312.083 L 783.357 311.501 L 785.103 310.338 L 786.34 309.392 L 788.377 307.428 L 790.195 305.318 L 791.577 303.354 L 792.523 301.754 L 793.396 300.008 L 794.269 297.971 L 794.996 295.643 L 795.433 293.315 L 795.797 291.133 L 795.877 288.733 L 795.724 287.205 L 795.506 284.804 L 794.996 282.549 L 794.123 279.348 L 793.323 277.384 L 792.45 275.566 L 791.359 273.747 L 789.613 271.419 L 788.158 269.892 L 786.703 268.291 L 784.885 266.909 L 782.339 265.454 L 779.284 263.854 L 777.319 263.199 L 774.846 262.472 L 772.591 262.108 Z"
       id="path1066" /></g><g
     id="sirdaryo"
     style="fill:#000000;fill-opacity:0.387168"><path
       style="fill:#000000;fill-opacity:0.387168;stroke:#000000;stroke-linecap:butt;stroke-linejoin:miter;stroke-opacity:1;stroke-width:1.0"
       d="M 825.477 360.443 L 823.325 360.468 L 820.655 360.872 L 816.929 361.772 L 814.259 362.859 L 812.272 363.884 L 810.254 365.126 L 808.608 366.398 L 807.273 367.516 L 805.876 368.944 L 804.82 370.155 L 803.734 371.552 L 802.802 373.012 L 801.747 374.874 L 800.908 376.613 L 800.412 377.762 L 799.946 379.159 L 799.511 380.836 L 799.108 382.605 L 798.89 383.94 L 798.797 385.058 L 798.697 387.223 L 798.735 388.349 L 798.828 389.901 L 798.953 391.112 L 799.232 392.603 L 799.449 393.689 L 799.791 394.962 L 800.257 396.359 L 800.598 397.229 L 801.188 398.471 L 801.623 399.464 L 802.275 400.644 L 803.051 402.01 L 803.982 403.19 L 804.417 403.842 L 805.224 404.773 L 806.311 406.015 L 807.304 406.853 L 808.112 407.63 L 808.795 408.157 L 809.571 408.778 L 810.564 409.461 L 811.651 410.206 L 812.272 410.455 L 813.048 410.921 L 813.98 411.417 L 815.004 411.883 L 816.215 412.318 L 817.24 412.721 L 818.513 413.125 L 819.289 413.311 L 820.375 413.529 L 821.773 413.808 L 823.201 413.932 L 824.287 413.963 L 825.477 414.003 L 826.523 413.963 L 827.858 413.901 L 829.131 413.808 L 830.466 413.56 L 831.987 413.28 L 832.919 412.939 L 834.005 412.628 L 835.371 412.131 L 837.046 411.446 L 838.646 410.573 L 839.737 409.991 L 841.483 408.828 L 842.72 407.882 L 844.757 405.918 L 846.575 403.808 L 847.957 401.844 L 848.903 400.244 L 849.776 398.498 L 850.649 396.461 L 851.376 394.133 L 851.813 391.805 L 852.177 389.623 L 852.257 387.223 L 852.104 385.695 L 851.886 383.294 L 851.376 381.039 L 850.503 377.838 L 849.703 375.874 L 848.83 374.056 L 847.739 372.237 L 845.993 369.909 L 844.538 368.382 L 843.083 366.781 L 841.265 365.399 L 838.719 363.944 L 835.664 362.344 L 833.699 361.689 L 831.226 360.962 L 828.971 360.598 Z"
       id="path1068" /></g><g
     id="rhine"
     style="fill:#000000;fill-opacity:0.387168"><path
       style="fill:#000000;fill-opacity:0.387168;stroke:#000000;stroke-linecap:butt;stroke-linejoin:miter;stroke-opacity:1;stroke-width:1.0"
       d="M 911.977 340.533 L 909.825 340.558 L 907.155 340.962 L 903.429 341.862 L 900.759 342.949 L 898.772 343.974 L 896.754 345.216 L 895.108 346.488 L 893.773 347.606 L 892.376 349.034 L 891.32 350.245 L 890.234 351.642 L 889.302 353.102 L 888.247 354.964 L 887.408 356.703 L 886.912 357.852 L 886.446 359.249 L 886.011 360.926 L 885.608 362.695 L 885.39 364.03 L 885.297 365.148 L 885.197 367.313 L 885.235 368.439 L 885.328 369.991 L 885.452 371.202 L 885.732 372.693 L 885.949 373.779 L 886.291 375.052 L 886.756 376.449 L 887.098 377.319 L 887.688 378.561 L 888.122 379.554 L 888.774 380.734 L 889.551 382.1 L 890.482 383.28 L 890.917 383.932 L 891.724 384.863 L 892.811 386.105 L 893.804 386.943 L 894.611 387.72 L 895.294 388.247 L 896.071 388.868 L 897.064 389.551 L 898.151 390.296 L 898.772 390.545 L 899.548 391.011 L 900.479 391.507 L 901.504 391.973 L 902.715 392.408 L 903.739 392.811 L 905.012 393.215 L 905.788 393.401 L 906.875 393.619 L 908.272 393.898 L 909.7 394.022 L 910.787 394.053 L 911.977 394.093 L 913.022 394.053 L 914.358 393.991 L 915.63 393.898 L 916.965 393.65 L 918.487 393.37 L 919.418 393.029 L 920.505 392.718 L 921.871 392.221 L 923.545 391.536 L 925.146 390.663 L 926.237 390.081 L 927.983 388.918 L 929.219 387.972 L 931.256 386.008 L 933.075 383.898 L 934.457 381.934 L 935.403 380.334 L 936.276 378.588 L 937.149 376.551 L 937.876 374.223 L 938.313 371.895 L 938.676 369.713 L 938.757 367.313 L 938.604 365.785 L 938.386 363.384 L 937.877 361.129 L 937.004 357.928 L 936.204 355.964 L 935.331 354.146 L 934.239 352.327 L 932.494 349.999 L 931.039 348.472 L 929.584 346.871 L 927.765 345.489 L 925.219 344.034 L 922.164 342.434 L 920.2 341.779 L 917.726 341.052 L 915.471 340.688 Z"
       id="path1070" /></g><g
     id="mississippi"
     style="fill:#000000;fill-opacity:0.387168"><path
       style="fill:#000000;fill-opacity:0.387168;stroke:#000000;stroke-linecap:butt;stroke-linejoin:miter;stroke-opacity:1;stroke-width:1.0"
       d="M 1016.94 285.123 L 1014.78 285.148 L 1012.11 285.552 L 1008.39 286.452 L 1005.72 287.539 L 1003.73 288.564 L 1001.71 289.806 L 1000.07 291.078 L 998.733 292.196 L 997.336 293.624 L 996.281 294.835 L 995.194 296.232 L 994.263 297.692 L 993.207 299.554 L 992.369 301.293 L 991.872 302.442 L 991.406 303.839 L 990.972 305.516 L 990.568 307.285 L 990.351 308.62 L 990.258 309.738 L 990.157 311.903 L 990.195 313.029 L 990.288 314.581 L 990.413 315.792 L 990.692 317.283 L 990.909 318.369 L 991.251 319.642 L 991.716 321.039 L 992.058 321.909 L 992.648 323.151 L 993.083 324.144 L 993.735 325.324 L 994.511 326.69 L 995.442 327.87 L 995.877 328.522 L 996.684 329.453 L 997.771 330.695 L 998.764 331.533 L 999.571 332.31 L 1000.25 332.837 L 1001.03 333.458 L 1002.02 334.141 L 1003.11 334.886 L 1003.73 335.135 L 1004.51 335.601 L 1005.44 336.097 L 1006.46 336.563 L 1007.67 336.998 L 1008.7 337.401 L 1009.97 337.805 L 1010.75 337.991 L 1011.84 338.209 L 1013.23 338.488 L 1014.66 338.612 L 1015.75 338.643 L 1016.94 338.683 L 1017.98 338.643 L 1019.32 338.581 L 1020.59 338.488 L 1021.93 338.24 L 1023.45 337.96 L 1024.38 337.619 L 1025.47 337.308 L 1026.83 336.811 L 1028.51 336.126 L 1030.11 335.253 L 1031.2 334.671 L 1032.94 333.508 L 1034.18 332.562 L 1036.22 330.598 L 1038.04 328.488 L 1039.42 326.524 L 1040.36 324.924 L 1041.24 323.178 L 1042.11 321.141 L 1042.84 318.813 L 1043.27 316.485 L 1043.64 314.303 L 1043.72 311.903 L 1043.56 310.375 L 1043.35 307.974 L 1042.84 305.719 L 1041.96 302.518 L 1041.16 300.554 L 1040.29 298.736 L 1039.2 296.917 L 1037.45 294.589 L 1036 293.062 L 1034.54 291.461 L 1032.73 290.079 L 1030.18 288.624 L 1027.12 287.024 L 1025.16 286.369 L 1022.69 285.642 L 1020.43 285.278 Z"
       id="path1072" /></g><g
     id="nile"
     style="fill:#000000;fill-opacity:0.387168"><path
       style="fill:#000000;fill-opacity:0.387168;stroke:#000000;stroke-linecap:butt;stroke-linejoin:miter;stroke-opacity:1;stroke-width:1.0"
       d="M 1132.7 211.743 L 1130.54 211.768 L 1127.87 212.172 L 1124.15 213.072 L 1121.48 214.159 L 1119.49 215.184 L 1117.47 216.426 L 1115.83 217.698 L 1114.49 218.816 L 1113.1 220.244 L 1112.04 221.455 L 1110.95 222.852 L 1110.02 224.312 L 1108.97 226.174 L 1108.13 227.913 L 1107.63 229.062 L 1107.17 230.459 L 1106.73 232.136 L 1106.33 233.905 L 1106.11 235.24 L 1106.02 236.358 L 1105.92 238.523 L 1105.96 239.649 L 1106.05 241.201 L 1106.17 242.412 L 1106.45 243.903 L 1106.67 244.989 L 1107.01 246.262 L 1107.48 247.659 L 1107.82 248.529 L 1108.41 249.771 L 1108.84 250.764 L 1109.49 251.944 L 1110.27 253.31 L 1111.2 254.49 L 1111.64 255.142 L 1112.44 256.073 L 1113.53 257.315 L 1114.52 258.153 L 1115.33 258.93 L 1116.01 259.457 L 1116.79 260.078 L 1117.78 260.761 L 1118.87 261.506 L 1119.49 261.755 L 1120.27 262.221 L 1121.2 262.717 L 1122.22 263.183 L 1123.43 263.618 L 1124.46 264.021 L 1125.73 264.425 L 1126.51 264.611 L 1127.6 264.829 L 1128.99 265.108 L 1130.42 265.232 L 1131.51 265.263 L 1132.7 265.303 L 1133.74 265.263 L 1135.08 265.201 L 1136.35 265.108 L 1137.69 264.86 L 1139.21 264.58 L 1140.14 264.239 L 1141.22 263.928 L 1142.59 263.431 L 1144.27 262.746 L 1145.87 261.873 L 1146.96 261.291 L 1148.7 260.128 L 1149.94 259.182 L 1151.98 257.218 L 1153.79 255.108 L 1155.18 253.144 L 1156.12 251.544 L 1157 249.798 L 1157.87 247.761 L 1158.6 245.433 L 1159.03 243.105 L 1159.4 240.923 L 1159.48 238.523 L 1159.32 236.995 L 1159.11 234.594 L 1158.6 232.339 L 1157.72 229.138 L 1156.92 227.174 L 1156.05 225.356 L 1154.96 223.537 L 1153.21 221.209 L 1151.76 219.682 L 1150.3 218.081 L 1148.49 216.699 L 1145.94 215.244 L 1142.88 213.644 L 1140.92 212.989 L 1138.45 212.262 L 1136.19 211.898 Z"
       id="path1074" /></g><g
     id="ob"
     style="fill:#000000;fill-opacity:0.387168"><path
       style="fill:#000000;fill-opacity:0.387168;stroke:#000000;stroke-linecap:butt;stroke-linejoin:miter;stroke-opacity:1;stroke-width:1.0"
       d="M 1045.38 158.193 L 1043.22 158.218 L 1040.55 158.622 L 1036.83 159.522 L 1034.16 160.609 L 1032.17 161.634 L 1030.15 162.876 L 1028.51 164.148 L 1027.17 165.266 L 1025.78 166.694 L 1024.72 167.905 L 1023.63 169.302 L 1022.7 170.762 L 1021.65 172.624 L 1020.81 174.363 L 1020.31 175.512 L 1019.85 176.909 L 1019.41 178.586 L 1019.01 180.355 L 1018.79 181.69 L 1018.7 182.808 L 1018.6 184.973 L 1018.63 186.099 L 1018.73 187.651 L 1018.85 188.862 L 1019.13 190.353 L 1019.35 191.439 L 1019.69 192.712 L 1020.16 194.109 L 1020.5 194.979 L 1021.09 196.221 L 1021.52 197.214 L 1022.17 198.394 L 1022.95 199.76 L 1023.88 200.94 L 1024.32 201.592 L 1025.12 202.523 L 1026.21 203.765 L 1027.2 204.603 L 1028.01 205.38 L 1028.69 205.907 L 1029.47 206.528 L 1030.46 207.211 L 1031.55 207.956 L 1032.17 208.205 L 1032.95 208.671 L 1033.88 209.167 L 1034.9 209.633 L 1036.11 210.068 L 1037.14 210.471 L 1038.41 210.875 L 1039.19 211.061 L 1040.27 211.279 L 1041.67 211.558 L 1043.1 211.682 L 1044.19 211.713 L 1045.38 211.753 L 1046.42 211.713 L 1047.76 211.651 L 1049.03 211.558 L 1050.37 211.31 L 1051.89 211.03 L 1052.82 210.689 L 1053.9 210.378 L 1055.27 209.881 L 1056.95 209.196 L 1058.55 208.323 L 1059.64 207.741 L 1061.38 206.578 L 1062.62 205.632 L 1064.66 203.668 L 1066.47 201.558 L 1067.86 199.594 L 1068.8 197.994 L 1069.68 196.248 L 1070.55 194.211 L 1071.28 191.883 L 1071.71 189.555 L 1072.08 187.373 L 1072.16 184.973 L 1072 183.445 L 1071.79 181.044 L 1071.28 178.789 L 1070.4 175.588 L 1069.6 173.624 L 1068.73 171.806 L 1067.64 169.987 L 1065.89 167.659 L 1064.44 166.132 L 1062.98 164.531 L 1061.16 163.149 L 1058.62 161.694 L 1055.56 160.094 L 1053.6 159.439 L 1051.13 158.712 L 1048.87 158.348 Z"
       id="path1076" /></g><g
     id="yangtze"
     style="fill:#000000;fill-opacity:0.387168"><path
       style="fill:#000000;fill-opacity:0.387168;stroke:#000000;stroke-linecap:butt;stroke-linejoin:miter;stroke-opacity:1;stroke-width:1.0"
       d="M 1282.65 238.913 L 1280.49 238.938 L 1277.82 239.342 L 1274.1 240.242 L 1271.43 241.329 L 1269.44 242.354 L 1267.42 243.596 L 1265.78 244.868 L 1264.44 245.986 L 1263.05 247.414 L 1261.99 248.625 L 1260.9 250.022 L 1259.97 251.482 L 1258.92 253.344 L 1258.08 255.083 L 1257.58 256.232 L 1257.12 257.629 L 1256.68 259.306 L 1256.28 261.075 L 1256.06 262.41 L 1255.97 263.528 L 1255.87 265.693 L 1255.9 266.819 L 1256 268.371 L 1256.12 269.582 L 1256.4 271.073 L 1256.62 272.159 L 1256.96 273.432 L 1257.43 274.829 L 1257.77 275.699 L 1258.36 276.941 L 1258.79 277.934 L 1259.44 279.114 L 1260.22 280.48 L 1261.15 281.66 L 1261.59 282.312 L 1262.39 283.243 L 1263.48 284.485 L 1264.47 285.323 L 1265.28 286.1 L 1265.96 286.627 L 1266.74 287.248 L 1267.73 287.931 L 1268.82 288.676 L 1269.44 288.925 L 1270.22 289.391 L 1271.15 289.887 L 1272.17 290.353 L 1273.38 290.788 L 1274.41 291.191 L 1275.68 291.595 L 1276.46 291.781 L 1277.54 291.999 L 1278.94 292.278 L 1280.37 292.402 L 1281.46 292.433 L 1282.65 292.473 L 1283.69 292.433 L 1285.03 292.371 L 1286.3 292.278 L 1287.64 292.03 L 1289.16 291.75 L 1290.09 291.409 L 1291.17 291.098 L 1292.54 290.601 L 1294.21 289.916 L 1295.82 289.043 L 1296.91 288.461 L 1298.65 287.298 L 1299.89 286.352 L 1301.93 284.388 L 1303.74 282.278 L 1305.13 280.314 L 1306.07 278.714 L 1306.95 276.968 L 1307.82 274.931 L 1308.55 272.603 L 1308.98 270.275 L 1309.35 268.093 L 1309.43 265.693 L 1309.27 264.165 L 1309.06 261.764 L 1308.55 259.509 L 1307.67 256.308 L 1306.87 254.344 L 1306 252.526 L 1304.91 250.707 L 1303.16 248.379 L 1301.71 246.852 L 1300.25 245.251 L 1298.43 243.869 L 1295.89 242.414 L 1292.83 240.814 L 1290.87 240.159 L 1288.4 239.432 L 1286.14 239.068 Z"
       id="path1078" /></g><g
     id="amudaryo"
     style="fill:#000000;fill-opacity:0.387168"><path
       style="fill:#000000;fill-opacity:0.387168;stroke:#000000;stroke-linecap:butt;stroke-linejoin:miter;stroke-opacity:1;stroke-width:1.0"
       d="M 1421.39 182.263 L 1419.23 182.288 L 1416.56 182.692 L 1412.84 183.592 L 1410.17 184.679 L 1408.18 185.704 L 1406.16 186.946 L 1404.52 188.218 L 1403.18 189.336 L 1401.79 190.764 L 1400.73 191.975 L 1399.64 193.372 L 1398.71 194.832 L 1397.66 196.694 L 1396.82 198.433 L 1396.32 199.582 L 1395.86 200.979 L 1395.42 202.656 L 1395.02 204.425 L 1394.8 205.76 L 1394.71 206.878 L 1394.61 209.043 L 1394.64 210.169 L 1394.74 211.721 L 1394.86 212.932 L 1395.14 214.423 L 1395.36 215.509 L 1395.7 216.782 L 1396.17 218.179 L 1396.51 219.049 L 1397.1 220.291 L 1397.53 221.284 L 1398.18 222.464 L 1398.96 223.83 L 1399.89 225.01 L 1400.33 225.662 L 1401.13 226.593 L 1402.22 227.835 L 1403.21 228.673 L 1404.02 229.45 L 1404.7 229.977 L 1405.48 230.598 L 1406.47 231.281 L 1407.56 232.026 L 1408.18 232.275 L 1408.96 232.741 L 1409.89 233.237 L 1410.91 233.703 L 1412.12 234.138 L 1413.15 234.541 L 1414.42 234.945 L 1415.2 235.131 L 1416.29 235.349 L 1417.68 235.628 L 1419.11 235.752 L 1420.2 235.783 L 1421.39 235.823 L 1422.43 235.783 L 1423.77 235.721 L 1425.04 235.628 L 1426.38 235.38 L 1427.9 235.1 L 1428.83 234.759 L 1429.91 234.448 L 1431.28 233.951 L 1432.96 233.266 L 1434.56 232.393 L 1435.65 231.811 L 1437.39 230.648 L 1438.63 229.702 L 1440.67 227.738 L 1442.48 225.628 L 1443.87 223.664 L 1444.81 222.064 L 1445.69 220.318 L 1446.56 218.281 L 1447.29 215.953 L 1447.72 213.625 L 1448.09 211.443 L 1448.17 209.043 L 1448.01 207.515 L 1447.8 205.114 L 1447.29 202.859 L 1446.41 199.658 L 1445.61 197.694 L 1444.74 195.876 L 1443.65 194.057 L 1441.9 191.729 L 1440.45 190.202 L 1438.99 188.601 L 1437.17 187.219 L 1434.63 185.764 L 1431.57 184.164 L 1429.61 183.509 L 1427.14 182.782 L 1424.88 182.418 Z"
       id="path1080" /></g><g
     id="colorado"
     style="fill:#000000;fill-opacity:0.387168"><path
       style="fill:#000000;fill-opacity:0.387168;stroke:#000000;stroke-linecap:butt;stroke-linejoin:miter;stroke-opacity:1;stroke-width:1.0"
       d="M 679.046 428.676 L 676.894 428.702 L 674.224 429.105 L 670.498 430.006 L 667.828 431.092 L 665.841 432.117 L 663.823 433.359 L 662.177 434.632 L 660.842 435.749 L 659.445 437.178 L 658.389 438.388 L 657.303 439.786 L 656.371 441.245 L 655.316 443.108 L 654.477 444.846 L 653.981 445.995 L 653.515 447.392 L 653.08 449.069 L 652.677 450.838 L 652.459 452.173 L 652.366 453.291 L 652.266 455.456 L 652.304 456.582 L 652.397 458.135 L 652.521 459.345 L 652.801 460.836 L 653.018 461.922 L 653.359 463.195 L 653.825 464.592 L 654.167 465.462 L 654.757 466.704 L 655.191 467.697 L 655.843 468.877 L 656.619 470.243 L 657.551 471.423 L 657.986 472.075 L 658.793 473.006 L 659.879 474.248 L 660.873 475.086 L 661.68 475.863 L 662.363 476.39 L 663.139 477.011 L 664.133 477.694 L 665.22 478.44 L 665.841 478.688 L 666.617 479.154 L 667.548 479.65 L 668.573 480.116 L 669.784 480.551 L 670.808 480.954 L 672.081 481.358 L 672.857 481.544 L 673.944 481.762 L 675.341 482.041 L 676.769 482.165 L 677.856 482.196 L 679.046 482.236 L 680.091 482.196 L 681.426 482.134 L 682.699 482.041 L 684.034 481.793 L 685.556 481.513 L 686.487 481.172 L 687.574 480.861 L 688.94 480.365 L 690.614 479.68 L 692.215 478.807 L 693.306 478.225 L 695.052 477.061 L 696.288 476.115 L 698.325 474.151 L 700.144 472.041 L 701.526 470.077 L 702.472 468.477 L 703.344 466.731 L 704.217 464.694 L 704.945 462.366 L 705.381 460.038 L 705.745 457.856 L 705.826 455.456 L 705.673 453.928 L 705.455 451.527 L 704.946 449.272 L 704.072 446.071 L 703.272 444.107 L 702.399 442.289 L 701.308 440.47 L 699.562 438.142 L 698.108 436.615 L 696.653 435.014 L 694.834 433.632 L 692.288 432.177 L 689.233 430.577 L 687.269 429.922 L 684.795 429.195 L 682.54 428.831 Z"
       id="path1082" /></g><g
     id="indus"
     style="fill:#000000;fill-opacity:0.387168"><path
       style="fill:#000000;fill-opacity:0.387168;stroke:#000000;stroke-linecap:butt;stroke-linejoin:miter;stroke-opacity:1;stroke-width:1.0"
       d="M 839.326 483.686 L 837.174 483.712 L 834.503 484.115 L 830.778 485.016 L 828.108 486.102 L 826.121 487.127 L 824.103 488.369 L 822.457 489.642 L 821.122 490.759 L 819.725 492.188 L 818.669 493.398 L 817.583 494.796 L 816.651 496.255 L 815.596 498.118 L 814.757 499.856 L 814.261 501.005 L 813.795 502.402 L 813.36 504.079 L 812.957 505.848 L 812.739 507.183 L 812.646 508.301 L 812.546 510.466 L 812.584 511.592 L 812.677 513.145 L 812.801 514.355 L 813.08 515.846 L 813.298 516.932 L 813.639 518.205 L 814.105 519.602 L 814.447 520.472 L 815.036 521.714 L 815.471 522.707 L 816.123 523.887 L 816.899 525.253 L 817.831 526.433 L 818.265 527.085 L 819.073 528.016 L 820.159 529.258 L 821.153 530.097 L 821.96 530.873 L 822.643 531.401 L 823.419 532.021 L 824.413 532.705 L 825.499 533.45 L 826.12 533.698 L 826.897 534.164 L 827.828 534.661 L 828.853 535.126 L 830.063 535.561 L 831.088 535.964 L 832.361 536.368 L 833.137 536.554 L 834.224 536.772 L 835.621 537.051 L 837.049 537.175 L 838.136 537.206 L 839.326 537.246 L 840.371 537.206 L 841.706 537.144 L 842.979 537.051 L 844.314 536.803 L 845.836 536.523 L 846.767 536.182 L 847.854 535.871 L 849.22 535.375 L 850.894 534.69 L 852.494 533.817 L 853.586 533.235 L 855.332 532.071 L 856.568 531.125 L 858.605 529.161 L 860.424 527.051 L 861.806 525.087 L 862.751 523.487 L 863.624 521.741 L 864.497 519.704 L 865.225 517.376 L 865.661 515.048 L 866.025 512.866 L 866.106 510.466 L 865.953 508.938 L 865.735 506.537 L 865.225 504.282 L 864.352 501.082 L 863.552 499.117 L 862.679 497.299 L 861.588 495.48 L 859.842 493.152 L 858.387 491.625 L 856.933 490.024 L 855.114 488.642 L 852.568 487.187 L 849.513 485.587 L 847.548 484.932 L 845.075 484.205 L 842.82 483.841 Z"
       id="path1084" /></g><g
     id="tigris"
     style="fill:#000000;fill-opacity:0.387168"><path
       style="fill:#000000;fill-opacity:0.387168;stroke:#000000;stroke-linecap:butt;stroke-linejoin:miter;stroke-opacity:1;stroke-width:1.0"
       d="M 934.776 461.676 L 932.624 461.702 L 929.954 462.105 L 926.228 463.006 L 923.558 464.092 L 921.571 465.117 L 919.553 466.359 L 917.907 467.632 L 916.572 468.749 L 915.175 470.178 L 914.12 471.388 L 913.033 472.786 L 912.102 474.245 L 911.046 476.108 L 910.208 477.846 L 909.711 478.995 L 909.245 480.392 L 908.811 482.069 L 908.407 483.838 L 908.19 485.174 L 908.097 486.291 L 907.996 488.456 L 908.034 489.582 L 908.127 491.135 L 908.252 492.345 L 908.531 493.836 L 908.748 494.922 L 909.09 496.195 L 909.555 497.593 L 909.897 498.462 L 910.487 499.704 L 910.922 500.697 L 911.574 501.877 L 912.35 503.243 L 913.281 504.423 L 913.716 505.075 L 914.523 506.006 L 915.61 507.248 L 916.603 508.087 L 917.41 508.863 L 918.094 509.391 L 918.87 510.012 L 919.863 510.695 L 920.95 511.44 L 921.571 511.688 L 922.347 512.154 L 923.279 512.651 L 924.303 513.116 L 925.514 513.551 L 926.539 513.955 L 927.811 514.358 L 928.588 514.544 L 929.674 514.762 L 931.071 515.041 L 932.5 515.165 L 933.586 515.196 L 934.776 515.236 L 935.822 515.196 L 937.157 515.134 L 938.43 515.041 L 939.765 514.793 L 941.286 514.513 L 942.217 514.172 L 943.304 513.861 L 944.67 513.365 L 946.344 512.68 L 947.945 511.807 L 949.036 511.225 L 950.782 510.061 L 952.019 509.115 L 954.055 507.151 L 955.874 505.041 L 957.256 503.077 L 958.202 501.477 L 959.075 499.731 L 959.948 497.694 L 960.675 495.366 L 961.112 493.039 L 961.475 490.856 L 961.556 488.456 L 961.403 486.928 L 961.185 484.527 L 960.676 482.272 L 959.803 479.072 L 959.003 477.107 L 958.13 475.289 L 957.039 473.47 L 955.293 471.142 L 953.838 469.615 L 952.383 468.014 L 950.564 466.632 L 948.018 465.177 L 944.963 463.577 L 942.999 462.922 L 940.526 462.195 L 938.27 461.831 Z"
       id="path1086" /></g><g
     id="narmada"
     style="fill:#000000;fill-opacity:0.387168"><path
       style="fill:#000000;fill-opacity:0.387168;stroke:#000000;stroke-linecap:butt;stroke-linejoin:miter;stroke-opacity:1;stroke-width:1.0"
       d="M 1125.62 481.246 L 1123.46 481.272 L 1120.79 481.675 L 1117.07 482.576 L 1114.4 483.662 L 1112.41 484.687 L 1110.39 485.929 L 1108.75 487.202 L 1107.41 488.319 L 1106.02 489.747 L 1104.96 490.958 L 1103.87 492.355 L 1102.94 493.815 L 1101.89 495.678 L 1101.05 497.416 L 1100.55 498.565 L 1100.08 499.962 L 1099.65 501.639 L 1099.25 503.408 L 1099.03 504.743 L 1098.94 505.861 L 1098.84 508.026 L 1098.87 509.152 L 1098.97 510.705 L 1099.09 511.915 L 1099.37 513.406 L 1099.59 514.492 L 1099.93 515.765 L 1100.4 517.162 L 1100.74 518.032 L 1101.33 519.274 L 1101.76 520.267 L 1102.41 521.447 L 1103.19 522.813 L 1104.12 523.993 L 1104.56 524.645 L 1105.36 525.576 L 1106.45 526.818 L 1107.44 527.656 L 1108.25 528.433 L 1108.93 528.96 L 1109.71 529.581 L 1110.7 530.264 L 1111.79 531.01 L 1112.41 531.258 L 1113.19 531.724 L 1114.12 532.22 L 1115.14 532.686 L 1116.35 533.121 L 1117.38 533.524 L 1118.65 533.928 L 1119.43 534.114 L 1120.51 534.332 L 1121.91 534.611 L 1123.34 534.735 L 1124.43 534.766 L 1125.62 534.806 L 1126.66 534.766 L 1128 534.704 L 1129.27 534.611 L 1130.6 534.363 L 1132.13 534.083 L 1133.06 533.742 L 1134.14 533.431 L 1135.51 532.935 L 1137.18 532.249 L 1138.78 531.377 L 1139.88 530.795 L 1141.62 529.631 L 1142.86 528.685 L 1144.9 526.721 L 1146.71 524.611 L 1148.1 522.647 L 1149.04 521.047 L 1149.91 519.301 L 1150.79 517.264 L 1151.51 514.936 L 1151.95 512.608 L 1152.32 510.426 L 1152.4 508.026 L 1152.24 506.498 L 1152.02 504.097 L 1151.52 501.842 L 1150.64 498.641 L 1149.84 496.677 L 1148.97 494.859 L 1147.88 493.04 L 1146.13 490.712 L 1144.68 489.185 L 1143.22 487.584 L 1141.4 486.202 L 1138.86 484.747 L 1135.8 483.147 L 1133.84 482.492 L 1131.37 481.765 L 1129.11 481.401 Z"
       id="path1088" /></g><g
     id="amazonas"
     style="fill:#000000;fill-opacity:0.387168"><path
       style="fill:#000000;fill-opacity:0.387168;stroke:#000000;stroke-linecap:butt;stroke-linejoin:miter;stroke-opacity:1;stroke-width:1.0"
       d="M 1282.62 524.246 L 1280.46 524.272 L 1277.79 524.675 L 1274.07 525.576 L 1271.4 526.662 L 1269.41 527.687 L 1267.39 528.929 L 1265.75 530.202 L 1264.41 531.319 L 1263.02 532.748 L 1261.96 533.958 L 1260.87 535.356 L 1259.94 536.815 L 1258.89 538.678 L 1258.05 540.416 L 1257.55 541.565 L 1257.09 542.962 L 1256.65 544.639 L 1256.25 546.408 L 1256.03 547.743 L 1255.94 548.861 L 1255.84 551.026 L 1255.87 552.152 L 1255.97 553.705 L 1256.09 554.915 L 1256.37 556.406 L 1256.59 557.492 L 1256.93 558.765 L 1257.4 560.162 L 1257.74 561.032 L 1258.33 562.274 L 1258.76 563.267 L 1259.41 564.447 L 1260.19 565.813 L 1261.12 566.993 L 1261.56 567.645 L 1262.36 568.576 L 1263.45 569.818 L 1264.44 570.657 L 1265.25 571.433 L 1265.93 571.961 L 1266.71 572.581 L 1267.7 573.265 L 1268.79 574.01 L 1269.41 574.258 L 1270.19 574.724 L 1271.12 575.22 L 1272.14 575.686 L 1273.35 576.121 L 1274.38 576.524 L 1275.65 576.928 L 1276.43 577.114 L 1277.51 577.332 L 1278.91 577.611 L 1280.34 577.735 L 1281.43 577.766 L 1282.62 577.806 L 1283.66 577.766 L 1285 577.704 L 1286.27 577.611 L 1287.6 577.363 L 1289.13 577.083 L 1290.06 576.742 L 1291.14 576.431 L 1292.51 575.935 L 1294.18 575.25 L 1295.78 574.377 L 1296.88 573.795 L 1298.62 572.631 L 1299.86 571.685 L 1301.9 569.721 L 1303.71 567.611 L 1305.1 565.647 L 1306.04 564.047 L 1306.91 562.301 L 1307.79 560.264 L 1308.52 557.936 L 1308.95 555.608 L 1309.32 553.426 L 1309.4 551.026 L 1309.24 549.498 L 1309.02 547.097 L 1308.52 544.842 L 1307.64 541.642 L 1306.84 539.677 L 1305.97 537.859 L 1304.88 536.04 L 1303.13 533.712 L 1301.68 532.185 L 1300.22 530.584 L 1298.4 529.202 L 1295.86 527.747 L 1292.8 526.147 L 1290.84 525.492 L 1288.37 524.765 L 1286.11 524.401 Z"
       id="path1090" /></g><g
     id="niger"
     style="fill:#000000;fill-opacity:0.387168"><path
       style="fill:#000000;fill-opacity:0.387168;stroke:#000000;stroke-linecap:butt;stroke-linejoin:miter;stroke-opacity:1;stroke-width:1.0"
       d="M 1393 534.146 L 1390.84 534.172 L 1388.17 534.575 L 1384.45 535.476 L 1381.78 536.562 L 1379.79 537.587 L 1377.77 538.829 L 1376.13 540.102 L 1374.79 541.219 L 1373.4 542.648 L 1372.34 543.858 L 1371.25 545.256 L 1370.32 546.715 L 1369.27 548.578 L 1368.43 550.316 L 1367.93 551.465 L 1367.47 552.862 L 1367.03 554.539 L 1366.63 556.308 L 1366.41 557.644 L 1366.32 558.761 L 1366.22 560.926 L 1366.25 562.052 L 1366.35 563.605 L 1366.47 564.815 L 1366.75 566.306 L 1366.97 567.392 L 1367.31 568.665 L 1367.78 570.063 L 1368.12 570.932 L 1368.71 572.174 L 1369.14 573.167 L 1369.79 574.347 L 1370.57 575.713 L 1371.5 576.893 L 1371.94 577.545 L 1372.74 578.476 L 1373.83 579.718 L 1374.82 580.557 L 1375.63 581.333 L 1376.31 581.861 L 1377.09 582.482 L 1378.08 583.165 L 1379.17 583.91 L 1379.79 584.158 L 1380.57 584.624 L 1381.5 585.121 L 1382.52 585.586 L 1383.73 586.021 L 1384.76 586.425 L 1386.03 586.828 L 1386.81 587.014 L 1387.89 587.232 L 1389.29 587.511 L 1390.72 587.635 L 1391.81 587.666 L 1393 587.706 L 1394.04 587.666 L 1395.38 587.604 L 1396.65 587.511 L 1397.98 587.263 L 1399.51 586.983 L 1400.44 586.642 L 1401.52 586.331 L 1402.89 585.835 L 1404.56 585.15 L 1406.17 584.277 L 1407.26 583.695 L 1409 582.531 L 1410.24 581.585 L 1412.28 579.621 L 1414.09 577.511 L 1415.48 575.547 L 1416.42 573.947 L 1417.29 572.201 L 1418.17 570.164 L 1418.9 567.836 L 1419.33 565.509 L 1419.7 563.326 L 1419.78 560.926 L 1419.62 559.398 L 1419.41 556.997 L 1418.9 554.742 L 1418.02 551.542 L 1417.22 549.577 L 1416.35 547.759 L 1415.26 545.94 L 1413.51 543.612 L 1412.06 542.085 L 1410.6 540.484 L 1408.78 539.102 L 1406.24 537.647 L 1403.18 536.047 L 1401.22 535.392 L 1398.75 534.665 L 1396.49 534.301 Z"
       id="path1092" /></g></g>
</svg>
