<?xml version="1.0" encoding="UTF-8" standalone="no"?>
<!--?xml version="1.0" encoding="UTF-8" standalone="no"?-->

<!-- Generator: Adobe Illustrator 18.0.0, SVG Export Plug-In . SVG Version: 6.00 Build 0)  -->

<svg
   version="1.1"
   id="AR_x5F_layer"
   x="0px"
   y="0px"
   width="9451.45px"
   height="623.52px"
   viewBox="0 0 9451.45 623.51"
   enable-background="new 0 0 9451.45 623.51"
   xml:space="preserve"
   sodipodi:docname="6 Baseline water stress_mask-01.svg"
   inkscape:version="1.1.1 (c3084ef, 2021-09-22)"
   xmlns:inkscape="http://www.inkscape.org/namespaces/inkscape"
   xmlns:sodipodi="http://sodipodi.sourceforge.net/DTD/sodipodi-0.dtd"
   xmlns="http://www.w3.org/2000/svg"
   xmlns:svg="http://www.w3.org/2000/svg"><defs
   id="defs844" /><sodipodi:namedview
   id="namedview842"
   pagecolor="#505050"
   bordercolor="#eeeeee"
   borderopacity="1"
   inkscape:pageshadow="0"
   inkscape:pageopacity="0"
   inkscape:pagecheckerboard="0"
   showgrid="false"
   inkscape:zoom="0.342948"
   inkscape:cx="1975.5182"
   inkscape:cy="326.58012"
   inkscape:window-width="1312"
   inkscape:window-height="762"
   inkscape:window-x="0"
   inkscape:window-y="25"
   inkscape:window-maximized="0"
   inkscape:current-layer="multiple" />


<g
   id="multiple">
	
	
	
	
	
	
	
	
	
	
	
	
	
	
	
	
<g
   id="ganges"
   style="fill:#000000;fill-opacity:0.38716811"><path
     style="fill:#000000;stroke:#000000;stroke-width:1px;stroke-linecap:butt;stroke-linejoin:miter;stroke-opacity:1;fill-opacity:0.38716811"
     d="m 679.36,334.32002 -2.15224,0.0254 -2.67008,0.40361 -3.7257,0.90038 -2.67008,1.08666 -1.98704,1.02457 -2.01809,1.2419 -1.64552,1.27295 -1.33504,1.11771 -1.39713,1.42818 -1.05562,1.21085 -1.08666,1.39714 -0.93143,1.45923 -1.05561,1.86285 -0.83828,1.73866 -0.49676,1.14876 -0.46571,1.39713 -0.43467,1.67657 -0.40362,1.7697 -0.21733,1.33505 -0.0931,1.1177 -0.10026,2.16504 0.0382,1.126 0.0932,1.55237 0.12419,1.21085 0.27942,1.49028 0.21734,1.08667 0.34152,1.27294 0.46571,1.39714 0.34152,0.86933 0.58991,1.2419 0.43466,0.99352 0.652,1.1798 0.77618,1.36609 0.93143,1.17981 0.43466,0.65199 0.80724,0.93143 1.08666,1.2419 0.99352,0.83828 0.80724,0.77619 0.68304,0.5278 0.77619,0.62095 0.99352,0.68305 1.08666,0.74514 0.62095,0.24838 0.77619,0.46571 0.93142,0.49676 1.02457,0.46571 1.21085,0.43467 1.02457,0.40361 1.27294,0.40362 0.77619,0.18629 1.08666,0.21733 1.39714,0.27943 1.42818,0.12419 1.08667,0.031 1.18976,0.0398 1.04565,-0.0398 1.33505,-0.0621 1.27294,-0.0931 1.33504,-0.24838 1.52133,-0.27943 0.93143,-0.34152 1.08666,-0.31048 1.36609,-0.49676 1.67431,-0.68504 1.60038,-0.87294 1.09117,-0.58196 1.74587,-1.16391 1.23666,-0.94568 2.03685,-1.96411 1.81862,-2.10959 1.38215,-1.96411 0.94568,-1.60038 0.87293,-1.74587 0.87294,-2.03685 0.72744,-2.32783 0.43647,-2.32783 0.36373,-2.18234 0.0805,-2.39997 -0.15322,-1.52824 -0.21823,-2.40057 -0.50922,-2.25508 -0.87293,-3.20077 -0.80019,-1.9641 -0.87294,-1.81862 -1.09117,-1.81862 -1.74587,-2.32783 -1.45489,-1.52763 -1.45489,-1.60038 -1.81862,-1.38215 -2.54606,-1.4549 -3.05528,-1.60038 -1.9641,-0.6547 -2.47332,-0.72745 -2.25509,-0.36372 z"
     id="path1062" /></g><g
   id="godavari"
   style="fill:#000000;fill-opacity:0.38716811"><path
     style="fill:#000000;stroke:#000000;stroke-width:1px;stroke-linecap:butt;stroke-linejoin:miter;stroke-opacity:1;fill-opacity:0.38716811"
     d="m 780.26001,303.81 -2.15224,0.0254 -2.67008,0.40361 -3.7257,0.90038 -2.67008,1.08666 -1.98704,1.02457 -2.01809,1.2419 -1.64552,1.27295 -1.33504,1.11771 -1.39713,1.42818 -1.05562,1.21085 -1.08666,1.39714 -0.93143,1.45923 -1.05561,1.86285 -0.83828,1.73866 -0.49676,1.14876 -0.46571,1.39713 -0.43467,1.67657 -0.40362,1.7697 -0.21733,1.33505 -0.0931,1.1177 -0.10026,2.16504 0.0382,1.126 0.0932,1.55237 0.12419,1.21085 0.27942,1.49028 0.21734,1.08667 0.34152,1.27294 0.46571,1.39714 0.34152,0.86933 0.58991,1.2419 0.43466,0.99352 0.652,1.1798 0.77618,1.36609 0.93143,1.17981 0.43466,0.65199 0.80724,0.93143 1.08666,1.2419 0.99352,0.83828 0.80724,0.77619 0.68304,0.5278 0.77619,0.62095 0.99352,0.68305 1.08666,0.74514 0.62095,0.24838 0.77619,0.46571 0.93142,0.49676 1.02457,0.46571 1.21085,0.43467 1.02457,0.40361 1.27294,0.40362 0.77619,0.18629 1.08666,0.21733 1.39714,0.27943 1.42818,0.12419 1.08667,0.031 1.18976,0.0398 1.04565,-0.0398 1.33505,-0.0621 1.27294,-0.0931 1.33504,-0.24838 1.52133,-0.27943 0.93143,-0.34152 1.08666,-0.31048 1.36609,-0.49676 1.67431,-0.68504 1.60038,-0.87294 1.09117,-0.58196 1.74587,-1.16391 1.23666,-0.94568 2.03685,-1.96411 1.81862,-2.10959 1.38215,-1.96411 0.94568,-1.60038 0.87293,-1.74587 0.87294,-2.03685 0.72744,-2.32783 0.43647,-2.32783 0.36373,-2.18234 0.0805,-2.39997 -0.15322,-1.52824 -0.21823,-2.40057 -0.50922,-2.25508 -0.87293,-3.20077 -0.80019,-1.9641 -0.87294,-1.81862 -1.09117,-1.81862 -1.74587,-2.32783 -1.45489,-1.52763 -1.45489,-1.60038 -1.81862,-1.38215 -2.54606,-1.4549 -3.05528,-1.60038 -1.9641,-0.6547 -2.47332,-0.72745 -2.25509,-0.36372 z"
     id="path1064" /></g><g
   id="huang"
   style="fill:#000000;fill-opacity:0.38716811"><path
     style="fill:#000000;stroke:#000000;stroke-width:1px;stroke-linecap:butt;stroke-linejoin:miter;stroke-opacity:1;fill-opacity:0.38716811"
     d="m 897.14001,362.35 -2.15224,0.0254 -2.67008,0.40361 -3.7257,0.90038 -2.67008,1.08666 -1.98704,1.02457 -2.01809,1.2419 -1.64552,1.27295 -1.33504,1.11771 -1.39713,1.42818 -1.05562,1.21085 -1.08666,1.39714 -0.93143,1.45923 -1.05561,1.86285 -0.83828,1.73866 -0.49676,1.14876 -0.46571,1.39713 -0.43467,1.67657 -0.40362,1.7697 -0.21733,1.33505 -0.0931,1.1177 -0.10026,2.16504 0.0382,1.126 0.0932,1.55237 0.12419,1.21085 0.27942,1.49028 0.21734,1.08667 0.34152,1.27294 0.46571,1.39714 0.34152,0.86933 0.58991,1.2419 0.43466,0.99352 0.652,1.1798 0.77618,1.36609 0.93143,1.17981 0.43466,0.65199 0.80724,0.93143 1.08666,1.2419 0.99352,0.83828 0.80724,0.77619 0.68304,0.5278 0.77619,0.62095 0.99352,0.68305 1.08666,0.74514 0.62095,0.24838 0.77619,0.46571 0.93142,0.49676 1.02457,0.46571 1.21085,0.43467 1.02457,0.40361 1.27294,0.40362 0.77619,0.18629 1.08666,0.21733 1.39714,0.27943 1.42818,0.12419 1.08667,0.031 1.18976,0.0398 1.04565,-0.0398 1.33505,-0.0621 1.27294,-0.0931 1.33504,-0.24838 1.52133,-0.27943 0.93143,-0.34152 1.08666,-0.31048 1.36609,-0.49676 1.67431,-0.68504 1.60038,-0.87294 1.09117,-0.58196 1.74587,-1.16391 1.23666,-0.94568 2.03685,-1.96411 1.81862,-2.10959 1.38215,-1.96411 0.94568,-1.60038 0.87293,-1.74587 0.87294,-2.03685 0.72744,-2.32783 0.43647,-2.32783 0.36373,-2.18234 0.0805,-2.39997 -0.15322,-1.52824 -0.21823,-2.40057 -0.50922,-2.25508 -0.87293,-3.20077 -0.80019,-1.9641 -0.87294,-1.81862 -1.09117,-1.81862 -1.74587,-2.32783 -1.45489,-1.52763 -1.45489,-1.60038 -1.81862,-1.38215 -2.54606,-1.4549 -3.05528,-1.60038 -1.9641,-0.6547 -2.47332,-0.72745 -2.25509,-0.36372 z"
     id="path1066" /></g><g
   id="sirdaryo"
   style="fill:#000000;fill-opacity:0.38716811"><path
     style="fill:#000000;stroke:#000000;stroke-width:1px;stroke-linecap:butt;stroke-linejoin:miter;stroke-opacity:1;fill-opacity:0.38716811"
     d="m 953.52,460.84001 -2.15224,0.0254 -2.67008,0.40361 -3.7257,0.90038 -2.67008,1.08666 -1.98704,1.02457 -2.01809,1.2419 -1.64552,1.27295 -1.33504,1.11771 -1.39713,1.42818 -1.05562,1.21085 -1.08666,1.39714 -0.93143,1.45923 -1.05561,1.86285 -0.83828,1.73866 -0.49676,1.14876 -0.46571,1.39713 -0.43467,1.67657 -0.40362,1.7697 -0.21733,1.33505 -0.0931,1.1177 -0.10026,2.16504 0.0382,1.126 0.0932,1.55237 0.12419,1.21085 0.27942,1.49028 0.21734,1.08667 0.34152,1.27294 0.46571,1.39714 0.34152,0.86933 0.58991,1.2419 0.43466,0.99352 0.652,1.1798 0.77618,1.36609 0.93143,1.17981 0.43466,0.65199 0.80724,0.93143 1.08666,1.2419 0.99352,0.83828 0.80724,0.77619 0.68304,0.5278 0.77619,0.62095 0.99352,0.68305 1.08666,0.74514 0.62095,0.24838 0.77619,0.46571 0.93142,0.49676 1.02457,0.46571 1.21085,0.43467 1.02457,0.40361 1.27294,0.40362 0.77619,0.18629 1.08666,0.21733 1.39714,0.27943 1.42818,0.12419 1.08667,0.031 1.18976,0.0398 1.04565,-0.0398 1.33505,-0.0621 1.27294,-0.0931 1.33504,-0.24838 1.52133,-0.27943 0.93143,-0.34152 1.08666,-0.31048 1.36609,-0.49676 1.67431,-0.68504 1.60038,-0.87294 1.09117,-0.58196 1.74587,-1.16391 1.23666,-0.94568 2.03685,-1.96411 1.81862,-2.10959 1.38215,-1.96411 0.94568,-1.60038 0.87293,-1.74587 0.87294,-2.03685 0.72744,-2.32783 0.43647,-2.32783 0.36373,-2.18234 0.0805,-2.39997 -0.15322,-1.52824 -0.21823,-2.40057 -0.50922,-2.25508 -0.87293,-3.20077 -0.80019,-1.9641 -0.87294,-1.81862 -1.09117,-1.81862 -1.74587,-2.32783 -1.45489,-1.52763 -1.45489,-1.60038 -1.81862,-1.38215 -2.54606,-1.4549 -3.05528,-1.60038 -1.9641,-0.6547 -2.47332,-0.72745 -2.25509,-0.36372 z"
     id="path1068" /></g><g
   id="rhine"
   style="fill:#000000;fill-opacity:0.38716811"><path
     style="fill:#000000;stroke:#000000;stroke-width:1px;stroke-linecap:butt;stroke-linejoin:miter;stroke-opacity:1;fill-opacity:0.38716811"
     d="m 1040.02,440.92999 -2.1522,0.0254 -2.6701,0.40361 -3.7257,0.90038 -2.6701,1.08666 -1.987,1.02457 -2.0181,1.2419 -1.6455,1.27295 -1.3351,1.11771 -1.3971,1.42818 -1.0556,1.21085 -1.0867,1.39714 -0.9314,1.45923 -1.0556,1.86285 -0.8383,1.73866 -0.4968,1.14876 -0.4657,1.39713 -0.4346,1.67657 -0.4037,1.7697 -0.2173,1.33505 -0.093,1.1177 -0.1002,2.16504 0.038,1.126 0.093,1.55237 0.1241,1.21085 0.2795,1.49028 0.2173,1.08667 0.3415,1.27294 0.4657,1.39714 0.3415,0.86933 0.59,1.2419 0.4346,0.99352 0.652,1.1798 0.7762,1.36609 0.9314,1.17981 0.4347,0.65199 0.8072,0.93143 1.0867,1.2419 0.9935,0.83828 0.8072,0.77619 0.6831,0.5278 0.7762,0.62095 0.9935,0.68305 1.0867,0.74514 0.6209,0.24838 0.7762,0.46571 0.9314,0.49676 1.0246,0.46571 1.2108,0.43467 1.0246,0.40361 1.273,0.40362 0.7761,0.18629 1.0867,0.21733 1.3971,0.27943 1.4282,0.12419 1.0867,0.031 1.1898,0.0398 1.0456,-0.0398 1.3351,-0.0621 1.2729,-0.0931 1.335,-0.24838 1.5214,-0.27943 0.9314,-0.34152 1.0867,-0.31048 1.366,-0.49676 1.6744,-0.68504 1.6003,-0.87294 1.0912,-0.58196 1.7459,-1.16391 1.2366,-0.94568 2.0369,-1.96411 1.8186,-2.10959 1.3822,-1.96411 0.9456,-1.60038 0.873,-1.74587 0.8729,-2.03685 0.7274,-2.32783 0.4365,-2.32783 0.3637,-2.18234 0.081,-2.39997 -0.1532,-1.52824 -0.2182,-2.40057 -0.5092,-2.25508 -0.873,-3.20077 -0.8001,-1.9641 -0.873,-1.81862 -1.0912,-1.81862 -1.7458,-2.32783 -1.4549,-1.52763 -1.4549,-1.60038 -1.8186,-1.38215 -2.5461,-1.4549 -3.0553,-1.60038 -1.9641,-0.6547 -2.4733,-0.72745 -2.2551,-0.36372 z"
     id="path1070" /></g><g
   id="mississippi"
   style="fill:#000000;fill-opacity:0.38716811"><path
     style="fill:#000000;stroke:#000000;stroke-width:1px;stroke-linecap:butt;stroke-linejoin:miter;stroke-opacity:1;fill-opacity:0.38716811"
     d="m 1144.9802,385.52003 -2.1522,0.0254 -2.6701,0.4036 -3.7257,0.90039 -2.6701,1.08665 -1.987,1.02457 -2.0181,1.2419 -1.6455,1.27295 -1.3351,1.11771 -1.3971,1.42818 -1.0556,1.21085 -1.0867,1.39714 -0.9314,1.45923 -1.0556,1.86285 -0.8383,1.73866 -0.4968,1.14876 -0.4657,1.39713 -0.4347,1.67657 -0.4036,1.7697 -0.2173,1.33505 -0.093,1.1177 -0.1003,2.16504 0.038,1.126 0.093,1.55237 0.1242,1.21085 0.2794,1.49028 0.2174,1.08667 0.3415,1.27294 0.4657,1.39714 0.3415,0.86933 0.5899,1.2419 0.4347,0.99352 0.652,1.1798 0.7762,1.36609 0.9314,1.17981 0.4347,0.65199 0.8072,0.93143 1.0867,1.2419 0.9935,0.83828 0.8072,0.77619 0.6831,0.5278 0.7762,0.62095 0.9935,0.68305 1.0866,0.74514 0.621,0.24838 0.7762,0.46571 0.9314,0.49676 1.0246,0.46571 1.2108,0.43467 1.0246,0.40361 1.2729,0.40362 0.7762,0.18629 1.0867,0.21733 1.3971,0.27943 1.4282,0.12419 1.0867,0.031 1.1897,0.0398 1.0457,-0.0398 1.335,-0.0621 1.273,-0.0931 1.335,-0.24838 1.5213,-0.27943 0.9315,-0.34152 1.0866,-0.31048 1.3661,-0.49676 1.6743,-0.68504 1.6004,-0.87294 1.0912,-0.58196 1.7459,-1.16391 1.2366,-0.94568 2.0369,-1.96411 1.8186,-2.10959 1.3821,-1.96411 0.9457,-1.60038 0.8729,-1.74587 0.873,-2.03685 0.7274,-2.32783 0.4365,-2.32783 0.3637,-2.18234 0.081,-2.39997 -0.1532,-1.52824 -0.2182,-2.40057 -0.5092,-2.25508 -0.873,-3.20077 -0.8002,-1.9641 -0.8729,-1.81862 -1.0912,-1.81862 -1.7458,-2.32783 -1.4549,-1.52763 -1.4549,-1.60038 -1.8186,-1.38215 -2.5461,-1.4549 -3.0553,-1.60038 -1.9641,-0.6547 -2.4733,-0.72745 -2.2551,-0.36372 z"
     id="path1072" /></g><g
   id="nile"
   style="fill:#000000;fill-opacity:0.38716811"><path
     style="fill:#000000;stroke:#000000;stroke-width:1px;stroke-linecap:butt;stroke-linejoin:miter;stroke-opacity:1;fill-opacity:0.38716811"
     d="m 1260.74,312.14001 -2.1522,0.0254 -2.6701,0.40361 -3.7257,0.90038 -2.67,1.08666 -1.9871,1.02457 -2.0181,1.2419 -1.6455,1.27295 -1.335,1.11771 -1.3972,1.42818 -1.0556,1.21085 -1.0866,1.39714 -0.9315,1.45923 -1.0556,1.86285 -0.8383,1.73866 -0.4967,1.14876 -0.4657,1.39713 -0.4347,1.67657 -0.4036,1.7697 -0.2174,1.33505 -0.093,1.1177 -0.1002,2.16504 0.038,1.126 0.093,1.55237 0.1242,1.21085 0.2794,1.49028 0.2173,1.08667 0.3416,1.27294 0.4657,1.39714 0.3415,0.86933 0.5899,1.2419 0.4347,0.99352 0.652,1.1798 0.7761,1.36609 0.9315,1.17981 0.4346,0.65199 0.8073,0.93143 1.0866,1.2419 0.9935,0.83828 0.8073,0.77619 0.683,0.5278 0.7762,0.62095 0.9935,0.68305 1.0867,0.74514 0.6209,0.24838 0.7762,0.46571 0.9314,0.49676 1.0246,0.46571 1.2109,0.43467 1.0245,0.40361 1.273,0.40362 0.7762,0.18629 1.0866,0.21733 1.3972,0.27943 1.4282,0.12419 1.0866,0.031 1.1898,0.0398 1.0456,-0.0398 1.3351,-0.0621 1.2729,-0.0931 1.3351,-0.24838 1.5213,-0.27943 0.9314,-0.34152 1.0867,-0.31048 1.3661,-0.49676 1.6743,-0.68504 1.6004,-0.87294 1.0911,-0.58196 1.7459,-1.16391 1.2367,-0.94568 2.0368,-1.96411 1.8186,-2.10959 1.3822,-1.96411 0.9457,-1.60038 0.8729,-1.74587 0.8729,-2.03685 0.7275,-2.32783 0.4364,-2.32783 0.3638,-2.18234 0.081,-2.39997 -0.1532,-1.52824 -0.2183,-2.40057 -0.5092,-2.25508 -0.8729,-3.20077 -0.8002,-1.9641 -0.873,-1.81862 -1.0911,-1.81862 -1.7459,-2.32783 -1.4549,-1.52763 -1.4549,-1.60038 -1.8186,-1.38215 -2.5461,-1.4549 -3.0552,-1.60038 -1.9641,-0.6547 -2.4734,-0.72745 -2.255,-0.36372 z"
     id="path1074" /></g><g
   id="ob"
   style="fill:#000000;fill-opacity:0.38716811"><path
     style="fill:#000000;stroke:#000000;stroke-width:1px;stroke-linecap:butt;stroke-linejoin:miter;stroke-opacity:1;fill-opacity:0.38716811"
     d="m 1173.4198,258.59001 -2.1523,0.0254 -2.67,0.40361 -3.7257,0.90038 -2.6701,1.08666 -1.9871,1.02457 -2.018,1.2419 -1.6456,1.27295 -1.335,1.11771 -1.3971,1.42818 -1.0557,1.21085 -1.0866,1.39714 -0.9314,1.45923 -1.0557,1.86285 -0.8382,1.73866 -0.4968,1.14876 -0.4657,1.39713 -0.4347,1.67657 -0.4036,1.7697 -0.2173,1.33505 -0.093,1.1177 -0.1003,2.16504 0.038,1.126 0.093,1.55237 0.1242,1.21085 0.2794,1.49028 0.2174,1.08667 0.3415,1.27294 0.4657,1.39714 0.3415,0.86933 0.5899,1.2419 0.4347,0.99352 0.652,1.1798 0.7762,1.36609 0.9314,1.17981 0.4346,0.65199 0.8073,0.93143 1.0866,1.2419 0.9936,0.83828 0.8072,0.77619 0.683,0.5278 0.7762,0.62095 0.9936,0.68305 1.0866,0.74514 0.621,0.24838 0.7762,0.46571 0.9314,0.49676 1.0246,0.46571 1.2108,0.43467 1.0246,0.40361 1.2729,0.40362 0.7762,0.18629 1.0867,0.21733 1.3971,0.27943 1.4282,0.12419 1.0867,0.031 1.1897,0.0398 1.0457,-0.0398 1.335,-0.0621 1.273,-0.0931 1.335,-0.24838 1.5213,-0.27943 0.9315,-0.34152 1.0866,-0.31048 1.3661,-0.49676 1.6743,-0.68504 1.6004,-0.87294 1.0912,-0.58196 1.7458,-1.16391 1.2367,-0.94568 2.0368,-1.96411 1.8187,-2.10959 1.3821,-1.96411 0.9457,-1.60038 0.8729,-1.74587 0.873,-2.03685 0.7274,-2.32783 0.4365,-2.32783 0.3637,-2.18234 0.081,-2.39997 -0.1532,-1.52824 -0.2182,-2.40057 -0.5093,-2.25508 -0.8729,-3.20077 -0.8002,-1.9641 -0.8729,-1.81862 -1.0912,-1.81862 -1.7459,-2.32783 -1.4549,-1.52763 -1.4548,-1.60038 -1.8187,-1.38215 -2.546,-1.4549 -3.0553,-1.60038 -1.9641,-0.6547 -2.4733,-0.72745 -2.2551,-0.36372 z"
     id="path1076" /></g><g
   id="yangtze"
   style="fill:#000000;fill-opacity:0.38716811"><path
     style="fill:#000000;stroke:#000000;stroke-width:1px;stroke-linecap:butt;stroke-linejoin:miter;stroke-opacity:1;fill-opacity:0.38716811"
     d="m 1410.6897,339.31001 -2.1523,0.0254 -2.67,0.40361 -3.7257,0.90038 -2.6701,1.08666 -1.9871,1.02457 -2.018,1.2419 -1.6456,1.27295 -1.335,1.11771 -1.3971,1.42818 -1.0557,1.21085 -1.0866,1.39714 -0.9314,1.45923 -1.0557,1.86285 -0.8382,1.73866 -0.4968,1.14876 -0.4657,1.39713 -0.4347,1.67657 -0.4036,1.7697 -0.2173,1.33505 -0.093,1.1177 -0.1003,2.16504 0.038,1.126 0.093,1.55237 0.1242,1.21085 0.2794,1.49028 0.2174,1.08667 0.3415,1.27294 0.4657,1.39714 0.3415,0.86933 0.5899,1.2419 0.4347,0.99352 0.652,1.1798 0.7762,1.36609 0.9314,1.17981 0.4346,0.65199 0.8073,0.93143 1.0866,1.2419 0.9936,0.83828 0.8072,0.77619 0.683,0.5278 0.7762,0.62095 0.9936,0.68305 1.0866,0.74514 0.621,0.24838 0.7762,0.46571 0.9314,0.49676 1.0246,0.46571 1.2108,0.43467 1.0246,0.40361 1.2729,0.40362 0.7762,0.18629 1.0867,0.21733 1.3971,0.27943 1.4282,0.12419 1.0867,0.031 1.1897,0.0398 1.0457,-0.0398 1.335,-0.0621 1.273,-0.0931 1.335,-0.24838 1.5213,-0.27943 0.9315,-0.34152 1.0866,-0.31048 1.3661,-0.49676 1.6743,-0.68504 1.6004,-0.87294 1.0912,-0.58196 1.7458,-1.16391 1.2367,-0.94568 2.0368,-1.96411 1.8187,-2.10959 1.3821,-1.96411 0.9457,-1.60038 0.8729,-1.74587 0.873,-2.03685 0.7274,-2.32783 0.4365,-2.32783 0.3637,-2.18234 0.081,-2.39997 -0.1532,-1.52824 -0.2182,-2.40057 -0.5093,-2.25508 -0.8729,-3.20077 -0.8002,-1.9641 -0.8729,-1.81862 -1.0912,-1.81862 -1.7459,-2.32783 -1.4549,-1.52763 -1.4548,-1.60038 -1.8187,-1.38215 -2.546,-1.4549 -3.0553,-1.60038 -1.9641,-0.6547 -2.4733,-0.72745 -2.2551,-0.36372 z"
     id="path1078" /></g><g
   id="amudaryo"
   style="fill:#000000;fill-opacity:0.38716811"><path
     style="fill:#000000;stroke:#000000;stroke-width:1px;stroke-linecap:butt;stroke-linejoin:miter;stroke-opacity:1;fill-opacity:0.38716811"
     d="m 1549.4299,282.66001 -2.1523,0.0254 -2.67,0.40361 -3.7257,0.90038 -2.6701,1.08666 -1.9871,1.02457 -2.018,1.2419 -1.6456,1.27295 -1.335,1.11771 -1.3971,1.42818 -1.0557,1.21085 -1.0866,1.39714 -0.9314,1.45923 -1.0557,1.86285 -0.8382,1.73866 -0.4968,1.14876 -0.4657,1.39713 -0.4347,1.67657 -0.4036,1.7697 -0.2173,1.33505 -0.093,1.1177 -0.1003,2.16504 0.038,1.126 0.093,1.55237 0.1242,1.21085 0.2794,1.49028 0.2174,1.08667 0.3415,1.27294 0.4657,1.39714 0.3415,0.86933 0.5899,1.2419 0.4347,0.99352 0.652,1.1798 0.7762,1.36609 0.9314,1.17981 0.4346,0.65199 0.8073,0.93143 1.0866,1.2419 0.9936,0.83828 0.8072,0.77619 0.683,0.5278 0.7762,0.62095 0.9936,0.68305 1.0866,0.74514 0.621,0.24838 0.7762,0.46571 0.9314,0.49676 1.0246,0.46571 1.2108,0.43467 1.0246,0.40361 1.2729,0.40362 0.7762,0.18629 1.0867,0.21733 1.3971,0.27943 1.4282,0.12419 1.0867,0.031 1.1897,0.0398 1.0457,-0.0398 1.335,-0.0621 1.273,-0.0931 1.335,-0.24838 1.5213,-0.27943 0.9315,-0.34152 1.0866,-0.31048 1.3661,-0.49676 1.6743,-0.68504 1.6004,-0.87294 1.0912,-0.58196 1.7458,-1.16391 1.2367,-0.94568 2.0368,-1.96411 1.8187,-2.10959 1.3821,-1.96411 0.9457,-1.60038 0.8729,-1.74587 0.873,-2.03685 0.7274,-2.32783 0.4365,-2.32783 0.3637,-2.18234 0.081,-2.39997 -0.1532,-1.52824 -0.2182,-2.40057 -0.5093,-2.25508 -0.8729,-3.20077 -0.8002,-1.9641 -0.8729,-1.81862 -1.0912,-1.81862 -1.7459,-2.32783 -1.4549,-1.52763 -1.4548,-1.60038 -1.8187,-1.38215 -2.546,-1.4549 -3.0553,-1.60038 -1.9641,-0.6547 -2.4733,-0.72745 -2.2551,-0.36372 z"
     id="path1080" /></g><g
   id="colorado"
   style="fill:#000000;fill-opacity:0.38716811"><path
     style="fill:#000000;stroke:#000000;stroke-width:1px;stroke-linecap:butt;stroke-linejoin:miter;stroke-opacity:1;fill-opacity:0.38716811"
     d="m 1709.8799,447.68996 -2.1522,0.0254 -2.6701,0.40361 -3.7257,0.90038 -2.6701,1.08666 -1.987,1.02457 -2.0181,1.2419 -1.6455,1.27295 -1.3351,1.11771 -1.3971,1.42818 -1.0556,1.21085 -1.0867,1.39714 -0.9314,1.45923 -1.0556,1.86285 -0.8383,1.73866 -0.4968,1.14876 -0.4657,1.39713 -0.4347,1.67657 -0.4036,1.7697 -0.2173,1.33505 -0.093,1.1177 -0.1003,2.16504 0.038,1.126 0.093,1.55237 0.1242,1.21085 0.2794,1.49028 0.2174,1.08667 0.3415,1.27294 0.4657,1.39714 0.3415,0.86933 0.5899,1.2419 0.4347,0.99352 0.652,1.1798 0.7762,1.36609 0.9314,1.17981 0.4347,0.65199 0.8072,0.93143 1.0867,1.2419 0.9935,0.83828 0.8072,0.77619 0.6831,0.5278 0.7762,0.62095 0.9935,0.68305 1.0866,0.74514 0.621,0.24838 0.7762,0.46571 0.9314,0.49676 1.0246,0.46571 1.2108,0.43467 1.0246,0.40361 1.2729,0.40362 0.7762,0.18629 1.0867,0.21733 1.3971,0.27943 1.4282,0.12419 1.0867,0.031 1.1897,0.0398 1.0457,-0.0398 1.335,-0.0621 1.273,-0.0931 1.335,-0.24838 1.5213,-0.27943 0.9315,-0.34152 1.0866,-0.31048 1.3661,-0.49676 1.6743,-0.68504 1.6004,-0.87294 1.0912,-0.58196 1.7459,-1.16391 1.2366,-0.94568 2.0369,-1.96411 1.8186,-2.10959 1.3821,-1.96411 0.9457,-1.60038 0.8729,-1.74587 0.873,-2.03685 0.7274,-2.32783 0.4365,-2.32783 0.3637,-2.18234 0.081,-2.39997 -0.1532,-1.52824 -0.2182,-2.40057 -0.5092,-2.25508 -0.873,-3.20077 -0.8002,-1.9641 -0.8729,-1.81862 -1.0912,-1.81862 -1.7458,-2.32783 -1.4549,-1.52763 -1.4549,-1.60038 -1.8186,-1.38215 -2.5461,-1.4549 -3.0553,-1.60038 -1.9641,-0.6547 -2.4733,-0.72745 -2.2551,-0.36372 z"
     id="path1082" /></g><g
   id="indus"
   style="fill:#000000;fill-opacity:0.38716811"><path
     style="fill:#000000;stroke:#000000;stroke-width:1px;stroke-linecap:butt;stroke-linejoin:miter;stroke-opacity:1;fill-opacity:0.38716811"
     d="m 1870.1598,502.69999 -2.1522,0.0254 -2.6701,0.40361 -3.7257,0.90038 -2.6701,1.08666 -1.987,1.02457 -2.0181,1.2419 -1.6455,1.27295 -1.3351,1.11771 -1.3971,1.42818 -1.0556,1.21085 -1.0867,1.39714 -0.9314,1.45923 -1.0556,1.86285 -0.8383,1.73866 -0.4968,1.14876 -0.4657,1.39713 -0.4347,1.67657 -0.4036,1.7697 -0.2173,1.33505 -0.093,1.1177 -0.1003,2.16504 0.038,1.126 0.093,1.55237 0.1242,1.21085 0.2794,1.49028 0.2174,1.08667 0.3415,1.27294 0.4657,1.39714 0.3415,0.86933 0.5899,1.2419 0.4347,0.99352 0.652,1.1798 0.7762,1.36609 0.9314,1.17981 0.4347,0.65199 0.8072,0.93143 1.0867,1.2419 0.9935,0.83828 0.8072,0.77619 0.6831,0.5278 0.7762,0.62095 0.9935,0.68305 1.0866,0.74514 0.621,0.24838 0.7762,0.46571 0.9314,0.49676 1.0246,0.46571 1.2108,0.43467 1.0246,0.40361 1.2729,0.40362 0.7762,0.18629 1.0867,0.21733 1.3971,0.27943 1.4282,0.12419 1.0867,0.031 1.1897,0.0398 1.0457,-0.0398 1.335,-0.0621 1.273,-0.0931 1.335,-0.24838 1.5213,-0.27943 0.9315,-0.34152 1.0866,-0.31048 1.3661,-0.49676 1.6743,-0.68504 1.6004,-0.87294 1.0912,-0.58196 1.7459,-1.16391 1.2366,-0.94568 2.0369,-1.96411 1.8186,-2.10959 1.3821,-1.96411 0.9457,-1.60038 0.8729,-1.74587 0.873,-2.03685 0.7274,-2.32783 0.4365,-2.32783 0.3637,-2.18234 0.081,-2.39997 -0.1532,-1.52824 -0.2182,-2.40057 -0.5092,-2.25508 -0.873,-3.20077 -0.8002,-1.9641 -0.8729,-1.81862 -1.0912,-1.81862 -1.7458,-2.32783 -1.4549,-1.52763 -1.4549,-1.60038 -1.8186,-1.38215 -2.5461,-1.4549 -3.0553,-1.60038 -1.9641,-0.6547 -2.4733,-0.72745 -2.2551,-0.36372 z"
     id="path1084" /></g><g
   id="tigris"
   style="fill:#000000;fill-opacity:0.38716811"><path
     style="fill:#000000;stroke:#000000;stroke-width:1px;stroke-linecap:butt;stroke-linejoin:miter;stroke-opacity:1;fill-opacity:0.38716811"
     d="m 1965.6102,480.69003 -2.1522,0.0254 -2.6701,0.40361 -3.7257,0.90038 -2.6701,1.08666 -1.987,1.02457 -2.0181,1.2419 -1.6455,1.27295 -1.3351,1.11771 -1.3971,1.42818 -1.0556,1.21085 -1.0867,1.39714 -0.9314,1.45923 -1.0556,1.86285 -0.8383,1.73866 -0.4968,1.14876 -0.4657,1.39713 -0.4347,1.67657 -0.4036,1.7697 -0.2173,1.33505 -0.093,1.1177 -0.1003,2.16504 0.038,1.126 0.093,1.55237 0.1242,1.21085 0.2794,1.49028 0.2174,1.08667 0.3415,1.27294 0.4657,1.39714 0.3415,0.86933 0.5899,1.2419 0.4347,0.99352 0.652,1.1798 0.7762,1.36609 0.9314,1.17981 0.4347,0.65199 0.8072,0.93143 1.0867,1.2419 0.9935,0.83828 0.8072,0.77619 0.6831,0.5278 0.7762,0.62095 0.9935,0.68305 1.0866,0.74514 0.621,0.24838 0.7762,0.46571 0.9314,0.49676 1.0246,0.46571 1.2108,0.43467 1.0246,0.40361 1.2729,0.40362 0.7762,0.18629 1.0867,0.21733 1.3971,0.27943 1.4282,0.12419 1.0867,0.031 1.1897,0.0398 1.0457,-0.0398 1.335,-0.0621 1.273,-0.0931 1.335,-0.24838 1.5213,-0.27943 0.9315,-0.34152 1.0866,-0.31048 1.3661,-0.49676 1.6743,-0.68504 1.6004,-0.87294 1.0912,-0.58196 1.7459,-1.16391 1.2366,-0.94568 2.0369,-1.96411 1.8186,-2.10959 1.3821,-1.96411 0.9457,-1.60038 0.8729,-1.74587 0.873,-2.03685 0.7274,-2.32783 0.4365,-2.32783 0.3637,-2.18234 0.081,-2.39997 -0.1532,-1.52824 -0.2182,-2.40057 -0.5092,-2.25508 -0.873,-3.20077 -0.8002,-1.9641 -0.8729,-1.81862 -1.0912,-1.81862 -1.7458,-2.32783 -1.4549,-1.52763 -1.4549,-1.60038 -1.8186,-1.38215 -2.5461,-1.4549 -3.0553,-1.60038 -1.9641,-0.6547 -2.4733,-0.72745 -2.2551,-0.36372 z"
     id="path1086" /></g><g
   id="narmada"
   style="fill:#000000;fill-opacity:0.38716811"><path
     style="fill:#000000;stroke:#000000;stroke-width:1px;stroke-linecap:butt;stroke-linejoin:miter;stroke-opacity:1;fill-opacity:0.38716811"
     d="m 2156.4499,500.25994 -2.1522,0.0254 -2.6701,0.40361 -3.7257,0.90038 -2.6701,1.08666 -1.987,1.02457 -2.0181,1.2419 -1.6455,1.27295 -1.3351,1.11771 -1.3971,1.42818 -1.0556,1.21085 -1.0867,1.39714 -0.9314,1.45923 -1.0556,1.86285 -0.8383,1.73866 -0.4968,1.14876 -0.4657,1.39713 -0.4347,1.67657 -0.4036,1.7697 -0.2173,1.33505 -0.093,1.1177 -0.1003,2.16504 0.038,1.126 0.093,1.55237 0.1242,1.21085 0.2794,1.49028 0.2174,1.08667 0.3415,1.27294 0.4657,1.39714 0.3415,0.86933 0.5899,1.2419 0.4347,0.99352 0.652,1.1798 0.7762,1.36609 0.9314,1.17981 0.4347,0.65199 0.8072,0.93143 1.0867,1.2419 0.9935,0.83828 0.8072,0.77619 0.6831,0.5278 0.7762,0.62095 0.9935,0.68305 1.0866,0.74514 0.621,0.24838 0.7762,0.46571 0.9314,0.49676 1.0246,0.46571 1.2108,0.43467 1.0246,0.40361 1.2729,0.40362 0.7762,0.18629 1.0867,0.21733 1.3971,0.27943 1.4282,0.12419 1.0867,0.031 1.1897,0.0398 1.0457,-0.0398 1.335,-0.0621 1.273,-0.0931 1.335,-0.24838 1.5213,-0.27943 0.9315,-0.34152 1.0866,-0.31048 1.3661,-0.49676 1.6743,-0.68504 1.6004,-0.87294 1.0912,-0.58196 1.7459,-1.16391 1.2366,-0.94568 2.0369,-1.96411 1.8186,-2.10959 1.3821,-1.96411 0.9457,-1.60038 0.8729,-1.74587 0.873,-2.03685 0.7274,-2.32783 0.4365,-2.32783 0.3637,-2.18234 0.081,-2.39997 -0.1532,-1.52824 -0.2182,-2.40057 -0.5092,-2.25508 -0.873,-3.20077 -0.8002,-1.9641 -0.8729,-1.81862 -1.0912,-1.81862 -1.7458,-2.32783 -1.4549,-1.52763 -1.4549,-1.60038 -1.8186,-1.38215 -2.5461,-1.4549 -3.0553,-1.60038 -1.9641,-0.6547 -2.4733,-0.72745 -2.2551,-0.36372 z"
     id="path1088" /></g><g
   id="amazonas"
   style="fill:#000000;fill-opacity:0.38716811"><path
     style="fill:#000000;stroke:#000000;stroke-width:1px;stroke-linecap:butt;stroke-linejoin:miter;stroke-opacity:1;fill-opacity:0.38716811"
     d="m 2313.45,543.25998 -2.1522,0.0254 -2.6701,0.40361 -3.7257,0.90038 -2.6701,1.08666 -1.987,1.02457 -2.0181,1.2419 -1.6455,1.27295 -1.3351,1.11771 -1.3971,1.42818 -1.0556,1.21085 -1.0867,1.39714 -0.9314,1.45923 -1.0556,1.86285 -0.8383,1.73866 -0.4968,1.14876 -0.4657,1.39713 -0.4347,1.67657 -0.4036,1.7697 -0.2173,1.33505 -0.093,1.1177 -0.1003,2.16504 0.038,1.126 0.093,1.55237 0.1242,1.21085 0.2794,1.49028 0.2174,1.08667 0.3415,1.27294 0.4657,1.39714 0.3415,0.86933 0.5899,1.2419 0.4347,0.99352 0.652,1.1798 0.7762,1.36609 0.9314,1.17981 0.4347,0.65199 0.8072,0.93143 1.0867,1.2419 0.9935,0.83828 0.8072,0.77619 0.6831,0.5278 0.7762,0.62095 0.9935,0.68305 1.0866,0.74514 0.621,0.24838 0.7762,0.46571 0.9314,0.49676 1.0246,0.46571 1.2108,0.43467 1.0246,0.40361 1.2729,0.40362 0.7762,0.18629 1.0867,0.21733 1.3971,0.27943 1.4282,0.12419 1.0867,0.031 1.1897,0.0398 1.0457,-0.0398 1.335,-0.0621 1.273,-0.0931 1.335,-0.24838 1.5213,-0.27943 0.9315,-0.34152 1.0866,-0.31048 1.3661,-0.49676 1.6743,-0.68504 1.6004,-0.87294 1.0912,-0.58196 1.7459,-1.16391 1.2366,-0.94568 2.0369,-1.96411 1.8186,-2.10959 1.3821,-1.96411 0.9457,-1.60038 0.8729,-1.74587 0.873,-2.03685 0.7274,-2.32783 0.4365,-2.32783 0.3637,-2.18234 0.081,-2.39997 -0.1532,-1.52824 -0.2182,-2.40057 -0.5092,-2.25508 -0.873,-3.20077 -0.8002,-1.9641 -0.8729,-1.81862 -1.0912,-1.81862 -1.7458,-2.32783 -1.4549,-1.52763 -1.4549,-1.60038 -1.8186,-1.38215 -2.5461,-1.4549 -3.0553,-1.60038 -1.9641,-0.6547 -2.4733,-0.72745 -2.2551,-0.36372 z"
     id="path1090" /></g><g
   id="niger"
   style="fill:#000000;fill-opacity:0.38716811"><path
     style="fill:#000000;stroke:#000000;stroke-width:1px;stroke-linecap:butt;stroke-linejoin:miter;stroke-opacity:1;fill-opacity:0.38716811"
     d="m 2423.8303,553.16003 -2.1522,0.0254 -2.6701,0.40361 -3.7257,0.90038 -2.6701,1.08666 -1.987,1.02457 -2.0181,1.2419 -1.6455,1.27295 -1.3351,1.11771 -1.3971,1.42818 -1.0556,1.21085 -1.0867,1.39714 -0.9314,1.45923 -1.0556,1.86285 -0.8383,1.73866 -0.4968,1.14876 -0.4657,1.39713 -0.4347,1.67657 -0.4036,1.7697 -0.2173,1.33505 -0.093,1.1177 -0.1003,2.16504 0.038,1.126 0.093,1.55237 0.1242,1.21085 0.2794,1.49028 0.2174,1.08667 0.3415,1.27294 0.4657,1.39714 0.3415,0.86933 0.5899,1.2419 0.4347,0.99352 0.652,1.1798 0.7762,1.36609 0.9314,1.17981 0.4347,0.65199 0.8072,0.93143 1.0867,1.2419 0.9935,0.83828 0.8072,0.77619 0.6831,0.5278 0.7762,0.62095 0.9935,0.68305 1.0866,0.74514 0.621,0.24838 0.7762,0.46571 0.9314,0.49676 1.0246,0.46571 1.2108,0.43467 1.0246,0.40361 1.2729,0.40362 0.7762,0.18629 1.0867,0.21733 1.3971,0.27943 1.4282,0.12419 1.0867,0.031 1.1897,0.0398 1.0457,-0.0398 1.335,-0.0621 1.273,-0.0931 1.335,-0.24838 1.5213,-0.27943 0.9315,-0.34152 1.0866,-0.31048 1.3661,-0.49676 1.6743,-0.68504 1.6004,-0.87294 1.0912,-0.58196 1.7459,-1.16391 1.2366,-0.94568 2.0369,-1.96411 1.8186,-2.10959 1.3821,-1.96411 0.9457,-1.60038 0.8729,-1.74587 0.873,-2.03685 0.7274,-2.32783 0.4365,-2.32783 0.3637,-2.18234 0.081,-2.39997 -0.1532,-1.52824 -0.2182,-2.40057 -0.5092,-2.25508 -0.873,-3.20077 -0.8002,-1.9641 -0.8729,-1.81862 -1.0912,-1.81862 -1.7458,-2.32783 -1.4549,-1.52763 -1.4549,-1.60038 -1.8186,-1.38215 -2.5461,-1.4549 -3.0553,-1.60038 -1.9641,-0.6547 -2.4733,-0.72745 -2.2551,-0.36372 z"
     id="path1092" /></g></g>
</svg>
