<?xml version="1.0" encoding="UTF-8" standalone="no"?>
<!-- Generator: Adobe Illustrator 18.0.0, SVG Export Plug-In . SVG Version: 6.00 Build 0)  -->

<svg
   version="1.1"
   id="Layer_4"
   x="0px"
   y="0px"
   width="9451.45px"
   height="623.52px"
   viewBox="0 0 9451.45 623.52"
   enable-background="new 0 0 9451.45 623.52"
   xml:space="preserve"
   sodipodi:docname="63 Sound Pollution_mask-01-01.svg"
   inkscape:version="1.1.1 (c3084ef, 2021-09-22)"
   xmlns:inkscape="http://www.inkscape.org/namespaces/inkscape"
   xmlns:sodipodi="http://sodipodi.sourceforge.net/DTD/sodipodi-0.dtd"
   xmlns="http://www.w3.org/2000/svg"
   xmlns:svg="http://www.w3.org/2000/svg"><defs
   id="defs829"><inkscape:path-effect
     effect="fill_between_many"
     method="originald"
     linkedpaths="#path991,0,1"
     id="path-effect1015" /></defs><sodipodi:namedview
   id="namedview827"
   pagecolor="#505050"
   bordercolor="#eeeeee"
   borderopacity="1"
   inkscape:pageshadow="0"
   inkscape:pageopacity="0"
   inkscape:pagecheckerboard="0"
   showgrid="false"
   inkscape:zoom="1.3320903"
   inkscape:cx="6821.9848"
   inkscape:cy="156.89627"
   inkscape:window-width="1312"
   inkscape:window-height="762"
   inkscape:window-x="0"
   inkscape:window-y="25"
   inkscape:window-maximized="0"
   inkscape:current-layer="Layer_4" />
<path
   id="path1017"
   d="m 6765.377,75.095703 c -0.6643,0.08668 -1.4249,0.501072 -2.2989,1.242188 -0.8683,0.736344 -4.2556,2.158396 -7.5293,3.158203 -3.2736,0.999806 -7.0986,2.975343 -8.5,4.390625 -2.9717,3.001221 -4.6679,2.889932 -7.8906,-0.519531 -3.2799,-3.469962 -5.2328,-2.658975 -8.1406,3.382812 -2.7942,5.805781 -6.3321,8.851263 -9.7578,8.402344 -2.8066,-0.367777 -2.9725,1.744686 -0.3887,4.935546 1.7687,2.1843 2.0007,2.22297 4.25,0.70117 4.6364,-3.136919 8.8006,-7.632031 9.4434,-10.193357 C 6734.9228,89.168061 6735.3078,88 6735.4199,88 c 0.112,0 2.067,0.9 4.3438,2 5.366,2.592566 5.7299,2.551739 8.8945,-1 1.4701,-1.65 3.5049,-3 4.5215,-3 1.0165,0 2.7559,-0.5625 3.8652,-1.25 1.6424,-1.017873 2.1768,-0.99332 2.8789,0.134766 0.5432,0.872812 1.7448,1.164893 3.25,0.787109 1.7382,-0.436263 2.7333,-0.05045 3.6504,1.417969 0.8364,1.339438 1.891,1.81727 3.1367,1.421875 1.2704,-0.403211 2.0652,-0.01537 2.4571,1.197265 0.6927,2.142975 5.1481,4.394675 7.164,3.621094 0.7895,-0.302938 1.7043,-1.623061 2.0332,-2.933594 0.7539,-3.003838 2.0328,-2.275395 2.8946,1.648438 0.3651,1.661994 1.9367,4.414126 3.4922,6.117187 2.2716,2.487061 3.3405,2.969641 5.4296,2.445311 2.1582,-0.54166 2.7627,-0.2243 3.5586,1.86914 1.0321,2.71464 2.0129,3.11991 3.6328,1.5 0.6982,-0.69817 1.6064,-0.38023 2.8555,1 1.6485,1.82153 1.6655,2.03592 0.1758,2.14844 -0.9103,0.0687 -2.2168,0.20806 -2.9043,0.31055 -0.6875,0.1025 -1.7583,-0.18843 -2.3789,-0.64649 -0.6206,-0.45807 -2.2589,-0.40228 -3.6406,0.12305 -1.9162,0.72853 -2.8202,2.1572 -3.8106,6.02148 -0.7142,2.78649 -1.6196,5.06641 -2.0117,5.06641 -0.392,0 -1.0264,-2.705 -1.4102,-6.01172 -0.722,-6.2205 -3.297,-10.84805 -5.3359,-9.58789 -0.6391,0.39497 -1.1763,1.92816 -1.1953,3.4082 -0.019,1.48004 -0.9041,4.49141 -1.9668,6.69141 -1.0627,2.2 -1.9478,4.5625 -1.9668,5.25 -0.019,0.6875 -0.9332,2.15 -2.0332,3.25 -1.1,1.1 -2,3.32387 -2,4.94141 0,4.12801 -1.3167,4.4746 -3.8711,1.01953 -2.5702,-3.4763 -5.7068,-3.86281 -6.6719,-0.82227 -0.6448,2.03169 -0.7781,1.98188 -2.666,-1 -2.3308,-3.68125 -3.0915,-3.79001 -8.2383,-1.16601 -3.5462,1.80794 -3.9711,1.83748 -5.0605,0.34765 -0.654,-0.89436 -1.6623,-1.33299 -2.2422,-0.97461 -0.5927,0.3663 -1.5152,-0.66613 -2.1055,-2.35937 -1.2518,-3.59101 -3.4324,-4.63069 -7.0117,-3.3418 -1.7155,0.61776 -3.6221,0.58401 -5.4707,-0.0977 -2.4246,-0.89412 -3.0885,-0.73542 -4.5723,1.0957 -0.9549,1.17846 -2.6043,2.31078 -3.664,2.51562 -1.4573,0.28171 -1.9258,1.21207 -1.9258,3.81836 0,3.44561 3e-4,3.44455 6.3945,3.52735 4.6028,0.0596 6.9779,-0.38992 8.4766,-1.60352 1.9985,-1.61823 2.1549,-1.5651 3.8965,1.29883 1.1116,1.8279 2.3679,2.77105 3.2422,2.43555 2.6114,-1.00209 2.7614,1.51459 0.4023,6.71875 -3.0203,6.6627 -2.8101,6.48541 -4.8047,4.02539 -2.7566,-3.3997 -5.6863,-3.81446 -9.2109,-1.30469 -1.7064,1.215 -4.0691,2.25671 -5.25,2.3164 -2.5599,0.12941 -2.9469,3.386 -0.5801,4.87891 1.1549,0.72852 2.6913,0.27743 5.8535,-1.71875 4.2873,-2.70649 4.2865,-2.7054 6.2793,-0.5664 1.096,1.17645 3.1529,2.57827 4.5703,3.11718 3.1549,1.19948 4.2627,0.16997 6.5586,-6.10156 1.4028,-3.83228 2.0554,-4.5047 4.4082,-4.5332 1.5196,-0.0184 3.0451,0.36604 3.3887,0.85547 0.3436,0.48943 2.0496,1.00168 3.791,1.13867 1.7415,0.13699 4.0753,1.22433 5.1856,2.41601 1.1102,1.19167 2.4091,1.92605 2.8867,1.63086 0.4776,-0.29518 1.1636,0.3952 1.5254,1.53516 0.9521,2.99972 5.8624,2.33767 6.3144,-0.85156 0.4391,-3.09772 3.2625,-2.4896 4.9688,1.07031 1.7844,3.7231 3.883,3.43992 5.6386,-0.76172 0.8043,-1.925 1.6958,-3.5 1.9805,-3.5 0.2848,0 1.9949,1.47416 3.8008,3.27539 3.2833,3.27497 3.2831,3.27497 1.6934,13.75 -1.0121,6.66897 -1.7388,9.38457 -2,7.47461 -0.3388,-2.47728 -0.9329,-3.05786 -3.4102,-3.33594 -1.65,-0.18522 -3.3709,-0.99353 -3.8242,-1.79492 -0.4714,-0.8333 -1.5866,-1.214 -2.6055,-0.89062 -1.3911,0.44152 -2.1537,-0.40994 -3.4785,-3.87891 -0.9332,-2.44358 -2.3963,-5.02196 -3.25,-5.73047 -1.3175,-1.09337 -1.9779,-0.76432 -4.375,2.17188 -2.8243,3.45944 -2.8256,3.45963 -3.8965,0.64453 -0.589,-1.5483 -1.0703,-3.64249 -1.0703,-4.65235 0,-2.29896 -6.1748,-6.06137 -8.8145,-5.37109 -1.1374,0.29746 -2.7236,2.37251 -3.791,4.96094 -1.1378,2.75903 -2.6263,4.64846 -3.9179,4.97265 -1.1457,0.28755 -2.5813,1.84463 -3.1914,3.46094 -1.5202,4.02756 -3.8473,4.70215 -6.209,1.80078 -1.9194,-2.35789 -1.9197,-2.35789 -4.793,0.38281 -2.6355,2.51387 -3.005,2.60826 -4.4746,1.13868 -1.3646,-1.36455 -2.1487,-1.42054 -5.2871,-0.38477 -3.3065,1.09122 -3.6181,1.48772 -3.0332,3.86133 0.7951,3.22631 11.9169,14.14453 14.4082,14.14453 2.0817,0 4.5808,-2.56156 5.5234,-5.66016 0.9625,-3.16362 3.3817,-4.93867 4.7989,-3.52148 0.8452,0.84532 0.7066,1.6055 -0.543,2.98633 -0.922,1.0188 -1.6758,2.61823 -1.6758,3.55469 0,0.93646 -0.6481,1.95213 -1.4395,2.25585 -0.7914,0.30369 -1.743,1.9772 -2.1152,3.71875 -0.3721,1.74155 -1.1217,3.71859 -1.666,4.39454 -1.3672,1.69807 -4.3891,-0.0415 -5.125,-2.95118 -0.9425,-3.72594 -8.0878,-11.20915 -10.002,-10.47461 -2.2362,0.85812 -2.0881,3.39342 0.2715,4.65625 1.058,0.56623 3.1076,3.4505 4.5547,6.40821 1.7435,3.5635 3.7348,5.97223 5.9043,7.14062 3.1042,1.67166 3.4107,1.67227 5.9063,0.0371 1.4477,-0.94858 2.8935,-2.54298 3.2109,-3.54297 0.3174,-0.99999 1.2253,-2.06633 2.0195,-2.37109 0.7942,-0.30476 1.7347,-2.37075 2.0899,-4.5918 0.479,-2.99548 1.114,-4.03906 2.459,-4.03906 0.9972,0 2.0917,-0.45 2.4316,-1 1.0158,-1.64363 2.1118,-1.14837 3.3184,1.5 0.6265,1.375 1.6674,2.5 2.3144,2.5 1.5906,0 8.8672,7.74293 8.8672,9.43555 0,1.71682 2.7237,2.78661 5.1406,2.01953 1.5666,-0.49721 1.8594,-0.0474 1.8594,2.85547 0,5.36962 2.4155,6.59727 8.25,4.19531 1.5432,-0.63531 1.75,-0.0633 1.75,4.83984 0,5.38872 0.1099,5.61345 3.5586,7.25 2.5273,1.19931 3.8689,1.37714 4.6289,0.61719 0.7599,-0.75999 1.6104,-0.7304 2.9395,0.0996 1.5817,0.98778 2.2981,0.70696 4.623,-1.80664 2.7202,-2.94109 2.7544,-2.94696 3.0781,-0.67969 0.2613,1.83051 0.8626,2.22913 2.9844,1.98242 2.5183,-0.29282 2.7518,-0.80531 4.4687,-9.80859 2.9337,-15.38235 2.6474,-14.50591 4.1934,-12.90625 0.7474,0.77333 1.6605,4.33125 2.0293,7.90625 0.3688,3.575 1.0508,6.89728 1.5156,7.38281 1.8417,1.92385 3.723,-0.37803 4.3848,-5.36719 0.4648,-3.50381 1.0685,-4.97219 1.8887,-4.58593 0.6635,0.31249 1.9945,0.84604 2.957,1.18554 0.9625,0.3395 1.75,1.4451 1.75,2.45508 0,2.72831 2.1462,6.92969 3.5391,6.92969 1.8809,0 3.7109,-2.73525 3.7109,-5.54492 0,-3.43962 1.0186,-2.17807 2.2422,2.77539 1.2337,4.99445 4.0021,7.10577 5.9258,4.51953 1.8857,-2.53516 3.4499,-2.14687 3.1289,0.77734 -0.3444,3.13785 3.5317,6.17196 8.4902,6.64454 2.6081,0.24856 3.7682,0.99881 4.7598,3.07812 1.3684,2.86929 3.7059,3.64949 4.4941,1.5 0.3666,-1 0.7232,-1 1.7832,0 1.8508,1.746 4.7637,1.55695 6.7481,-0.4375 1.5741,-1.58208 1.6984,-1.55096 1.998,0.5 0.3325,2.27549 3.5155,3.07136 4.6895,1.17188 0.9149,-1.48034 2.5913,-0.11891 2.2675,1.84179 -0.1949,1.18046 0.4604,1.69238 2.2227,1.73828 1.375,0.0358 3.4066,0.5579 4.5156,1.16016 1.5053,0.81743 2.6349,0.76505 4.4512,-0.20703 1.3383,-0.71621 3.0239,-1.07402 3.7461,-0.79688 0.7223,0.27714 1.9269,-0.008 2.6777,-0.63086 1.0662,-0.88487 1.4818,-0.68984 1.8946,0.88868 0.6847,2.61803 4.1071,2.62915 6.7148,0.0215 2,-2 2,-2.00013 2,1.03125 0,3.41562 2.2143,4.86737 4.5137,2.95898 1.1818,-0.98078 1.4863,-0.9783 1.4863,0.0176 0,0.87259 1.0583,1.08283 3.4824,0.68946 1.9149,-0.31075 3.7589,-0.11378 4.0996,0.4375 0.3407,0.55128 1.3074,0.738 2.1465,0.41601 0.8391,-0.32198 2.0359,-0.16072 2.6602,0.35742 0.6243,0.51814 2.4795,1.08873 4.123,1.26758 1.9717,0.21457 3.1735,1.00454 3.5332,2.32422 0.4761,1.74694 1.3934,2 7.25,2 4.6973,0 6.7051,0.37429 6.7051,1.25 0,0.6875 0.3969,1.25 0.8828,1.25 0.4858,0 1.1187,0.9 1.4063,2 0.3555,1.35924 1.3644,2 3.1484,2 1.4437,0 2.8846,0.675 3.2012,1.5 0.3166,0.825 1.5969,1.5 2.8457,1.5 1.2489,0 2.8309,0.675 3.5156,1.5 0.6847,0.825 1.9779,1.52148 2.873,1.54688 0.8952,0.0254 2.527,1.1444 3.627,2.48828 1.0923,1.33441 2.4466,-3.72984 3.8364,-1.49518 1.5985,2.57037 3.2439,12.30229 4.591,11.08317 1.1012,-0.99657 -4.0762,-8.53597 -4.1121,-11.70465 -0.082,-7.24377 2.9648,-12.4185 0.1144,-12.4185 -0.5107,0 -0.9297,-0.675 -0.9297,-1.5 0,-0.825 -0.6144,-1.5 -1.3652,-1.5 -0.7509,0 -2.5079,-0.9 -3.9063,-2 -0.6992,-0.55 -1.4794,-1.04961 -2.1719,-1.41211 -0.6924,-0.3625 -1.2969,-0.58789 -1.6484,-0.58789 -0.1757,0 -0.4774,-0.11328 -0.8711,-0.31641 -1.1809,-0.60937 -3.1955,-2.03359 -5.1523,-3.68359 -2.609,-2.2 -5.6737,-4 -6.8125,-4 -0.5694,0 -1.0876,-0.0856 -1.4629,-0.22266 -0.3753,-0.137 -0.6094,-0.32533 -0.6094,-0.5332 0,-1.43221 -6.1,-3.54255 -7.1641,-2.47852 -1.9127,1.91277 -4.7091,0.17942 -5.0293,-3.11718 -0.3665,-3.77377 -2.719,-4.20649 -4.4121,-0.81055 -0.7541,1.51267 -1.4148,1.9355 -1.8711,1.19727 -0.3879,-0.62768 -1.2281,-0.9648 -1.8652,-0.75 -0.6371,0.21481 -1.6744,-0.31163 -2.3066,-1.16993 -0.9955,-1.35153 -1.4932,-1.37814 -3.7071,-0.19335 -2.228,1.19239 -3.2992,1.12034 -8.3496,-0.56836 -4.8997,-1.6383 -5.955,-2.42612 -6.8301,-5.09766 -1.4788,-4.51499 -1.9354,-4.71972 -6.6914,-2.99805 -2.3498,0.8506 -5.7359,1.80409 -7.5234,2.11914 -2.9557,0.52093 -3.25,0.34533 -3.25,-1.9375 0,-3.37878 -2.7922,-7.43945 -5.1152,-7.43945 -1.1828,0 -1.8848,-0.70474 -1.8848,-1.89258 0,-1.96715 -2.5057,-3.52984 -4.0898,-2.55078 -0.5004,0.30925 -0.9102,1.69239 -0.9102,3.07422 0,2.55217 -2.0286,5.36914 -3.8672,5.36914 -0.5561,0 -1.1516,-1.6875 -1.3223,-3.75 -0.3027,-3.6566 -0.4101,-3.75 -4.3105,-3.75 -3.7623,0 -4.0171,0.18896 -4.3066,3.17578 -0.1693,1.74654 -0.9568,3.71475 -1.75,4.37305 -1.2242,1.01596 -1.4589,0.38442 -1.5469,-4.17578 -0.094,-4.87892 -0.4102,-11.56595 -0.7617,-16.12305 -0.08,-1.03833 -0.9481,-1.75 -2.1348,-1.75 -1.8388,0 -2.0091,0.70512 -2.1152,8.75 -0.063,4.8125 -0.22,9.2 -0.3477,9.75 -0.1278,0.55 -0.3008,1.6332 -0.3848,2.40625 -0.2031,1.8747 -4.9004,-3.41404 -6.7187,-7.56445 -0.761,-1.73711 -1.8071,-3.31211 -2.3242,-3.5 -0.7873,-0.28611 -1.6352,-9.60642 -1.2285,-13.4961 0.1335,-1.27714 7.4405,-2.26794 16.5488,-2.24414 4.2467,0.0111 6.7015,0.56649 8.6543,1.95703 2.0828,1.48302 4.3993,1.94141 9.8203,1.94141 3.9026,0 7.0957,0.40738 7.0957,0.90625 0,1.23651 14.7498,1.31088 15.5117,0.0781 0.3344,-0.54101 1.3944,-0.98438 2.3574,-0.98438 0.2408,0 0.6685,-0.0968 1.2325,-0.27148 1.6917,-0.5241 4.6213,-1.74887 7.5019,-3.16797 2.9392,-1.44795 5.6222,-2.44934 8.3574,-3.03907 0.9118,-0.19657 1.8309,-0.34866 2.7657,-0.45507 3.7391,-0.42567 7.7522,-0.13943 12.7734,0.77343 3.3,0.59995 7.9166,1.30626 10.2578,1.57032 5.0098,0.56504 6.2422,1.1897 6.2422,3.16406 0,0.98179 0.9183,1.38681 2.8164,1.24219 1.5694,-0.11959 4.1154,0.7183 5.75,1.89257 4.3594,3.13172 8.7298,8.00255 8.0977,9.0254 -0.3052,0.49376 0.7197,1.65217 2.2773,2.57226 2.4383,1.44034 2.997,1.47342 4.0156,0.24609 0.851,-1.02542 0.8875,-1.9769 0.1309,-3.39062 -0.7387,-1.38036 -0.7304,-2.88516 0.027,-5.05859 0.8059,-2.31271 0.766,-13.81302 -0.062,-17.85352 -0.028,-0.1375 -0.9168,-0.25 -1.9746,-0.25 -1.0578,0 -3.3259,-1.17968 -5.039,-2.62109 -2.9504,-2.48264 -3.2136,-2.53154 -4.9922,-0.92188 -1.7546,1.58783 -2.0439,1.59075 -4.418,0.0352 -1.3973,-0.91556 -3.0098,-1.3744 -3.584,-1.01953 -1.4813,0.91551 -1.3014,-1.02543 0.2051,-2.21094 2.1059,-1.6573 9.0652,-2.27685 12.3262,-1.09766 0.6762,0.24452 1.2271,0.41798 1.7109,0.50977 0.4838,0.0918 0.9003,0.10019 1.3047,0.0156 0.8088,-0.16912 1.5715,-0.71426 2.7402,-1.73047 2.1108,-1.83531 2.668,-3.20994 2.668,-6.58007 0,-2.34336 -0.4163,-4.51911 -0.9258,-4.83399 -0.5684,-0.35131 -0.5684,-1.82071 0,-3.80273 1.1664,-4.06861 1.1775,-12.7975 0.018,-14.62891 -1.188,-1.87603 -11.1348,-1.96247 -14.5645,-0.12695 -1.9165,1.02569 -3.1191,1.12929 -4.3398,0.37695 -0.9286,-0.57226 -3.3119,-0.84666 -5.2969,-0.60937 -2.2612,0.27033 -3.2116,0.18438 -3.7383,-0.61329 -0.1755,-0.26588 -0.3036,-0.60974 -0.4179,-1.04687 -0.3011,-1.15112 -1.2586,-2.09375 -2.1289,-2.09375 -2.8794,0 -5.5287,-3.30407 -6.1914,-7.72266 -0.6434,-4.29088 -2.4933,-6.27734 -5.8477,-6.27734 -0.8611,0 -1.5664,0.68898 -1.5664,1.53125 0,0.84226 -0.7875,1.80972 -1.75,2.15039 -0.9625,0.34067 -3.0948,2.01418 -4.7383,3.71875 -2.9126,3.02097 -2.9952,3.0428 -3.3183,0.84961 -0.3155,-2.14109 -1.2031,-2.67325 -3.8907,-2.33594 -0.6588,0.0827 -1.687,-0.76529 -2.2851,-1.88281 -0.598,-1.11751 -1.7256,-2.03125 -2.5039,-2.03125 -0.7783,0 -1.7751,-0.5625 -2.2149,-1.25 -0.4398,-0.6875 -1.5954,-1.87527 -2.5683,-2.63867 -1.5309,-1.20138 -2.0351,-1.14566 -3.75,0.40625 -1.0896,0.98614 -1.9805,2.58492 -1.9805,3.55469 0,3.53735 -1.197,4.92773 -4.2461,4.92773 -1.7266,0 -3.5922,-0.75365 -4.332,-1.75 -1.1147,-1.50135 -1.6041,-1.56501 -3.4395,-0.44336 -1.6419,1.00348 -2.4674,1.03614 -3.5488,0.13867 -0.7749,-0.64293 -2.0173,-0.93603 -2.7617,-0.65039 -0.7443,0.28565 -1.9778,0.13535 -2.7403,-0.33594 -0.8571,-0.52967 -1.9669,-0.34698 -2.9082,0.48047 -1.8585,1.63372 -6.0234,0.34961 -6.0234,-1.85742 0,-0.81539 -0.6886,-1.86742 -1.5293,-2.33789 -0.8407,-0.47047 -2.3225,-3.08142 -3.293,-5.800781 -1.3165,-3.689059 -2.3332,-5.025246 -4.0097,-5.267578 -1.5685,-0.226727 -2.4237,-1.207972 -2.8321,-3.25 C 6863.0142,88.316914 6862.4093,87 6861.9922,87 c -0.4171,0 -0.9936,-0.9 -1.2813,-2 -0.399,-1.525969 -1.3649,-2 -4.0722,-2 -3.311,0 -3.5949,0.250784 -4.2383,3.75 -0.8351,4.54124 -1.9585,5.409208 -5.1328,3.962891 -1.7831,-0.812409 -2.9029,-0.795856 -4.2774,0.0625 -1.6297,1.017807 -1.9034,0.822502 -2.1777,-1.556641 -0.2924,-2.536865 -0.5988,-2.700996 -4.5957,-2.447266 -3.3618,0.213412 -4.9158,0.966632 -7.2207,3.5 -1.6153,1.775436 -2.9508,3.989881 -2.9668,4.919922 -0.016,0.930041 -0.4793,1.968675 -1.0293,2.308594 -0.55,0.339919 -1,1.400322 -1,2.357422 0,1.399978 -0.6843,1.660748 -3.5,1.332028 -2.1262,-0.24821 -3.5,-0.95407 -3.5,-1.798825 C 6817,98.625798 6816.1,98 6815,98 c -1.1,0 -2,0.45 -2,1 0,0.55 -0.675,1 -1.5,1 -0.8333,0 -1.5,-0.888889 -1.5,-2 0,-1.560157 -0.6665,-2 -3.0312,-2 -1.7789,0 -3.2699,-0.623222 -3.6094,-1.507812 -0.3181,-0.829131 -1.7667,-1.522106 -3.2188,-1.541016 -1.452,-0.01891 -3.9906,-0.0533 -5.6406,-0.07617 -3.354,-0.04649 -6.4959,-2.355378 -6.5059,-4.779297 -0,-0.877256 -0.474,-3.283203 -1.0468,-5.345703 -1.3012,-4.685422 -4.0934,-5.002525 -6.6055,-0.75 -2.2574,3.821606 -3.8801,3.794127 -5.8926,-0.09766 -1.19,-2.301343 -2.1094,-2.962737 -3.5801,-2.578125 -1.4358,0.375474 -2.2307,-0.148119 -2.8984,-1.904297 -0.6465,-1.700391 -1.4867,-2.46869 -2.5937,-2.324219 z"
   sodipodi:nodetypes="ssssssssssssssssssssssssssssssssssssssssssssssssssssssssssssssssssssssssssssssssssssssssssssssssssssssssssssssssssssssssssssssssssssssssssssssssssssssssssssssssssssssssssssssssssssssssssssssssssssssssssssssssssssssssssssssssssssssssssssssssssssssssssssssssssssssssssssssssssssssssssssssssssssssssssssssssssssssssss" />
</svg>
