<?xml version="1.0" encoding="UTF-8" standalone="no"?>
<!-- Generator: Adobe Illustrator 18.0.0, SVG Export Plug-In . SVG Version: 6.00 Build 0)  -->

<svg
   version="1.1"
   id="Layer_1"
   x="0px"
   y="0px"
   width="9944.84px"
   height="623.51px"
   viewBox="0 0 9944.84 623.51"
   enable-background="new 0 0 9944.84 623.51"
   xml:space="preserve"
   sodipodi:docname="64_plankton_mask-01.svg"
   inkscape:version="1.1.1 (c3084ef, 2021-09-22)"
   xmlns:inkscape="http://www.inkscape.org/namespaces/inkscape"
   xmlns:sodipodi="http://sodipodi.sourceforge.net/DTD/sodipodi-0.dtd"
   xmlns="http://www.w3.org/2000/svg"
   xmlns:svg="http://www.w3.org/2000/svg"><defs
   id="defs24833" /><sodipodi:namedview
   id="namedview24831"
   pagecolor="#505050"
   bordercolor="#eeeeee"
   borderopacity="1"
   inkscape:pageshadow="0"
   inkscape:pageopacity="0"
   inkscape:pagecheckerboard="0"
   showgrid="false"
   inkscape:zoom="0.080392677"
   inkscape:cx="6088.8631"
   inkscape:cy="2686.8119"
   inkscape:window-width="1296"
   inkscape:window-height="762"
   inkscape:window-x="0"
   inkscape:window-y="25"
   inkscape:window-maximized="0"
   inkscape:current-layer="Layer_1" />










<path
   style="fill:#000000"
   d="m 7772.7305,579.42773 c -1.2907,0.0658 -1.6729,1.58287 -1.7364,2.64649 0.073,0.76936 -0.1171,0.71376 -0.5058,0.14453 -0.8235,-0.84873 -1.6426,-2.00631 -2.9024,-2.14258 -1.0569,-0.0426 -1.4558,1.23658 -1.0566,2.06641 0.2614,0.81684 0.7506,1.5333 1.0527,2.33203 -1.1381,-0.69743 -1.9857,-2.08408 -3.414,-2.17188 -1.0224,0.0239 -1.3422,1.27329 -0.9102,2.05469 0.5464,1.4076 1.5147,2.59273 2.2363,3.90625 -1.4409,0.64076 -3.1128,0.74426 -4.4394,1.63281 -0.3946,0.33642 -0.4967,1.02522 -0.1777,1.41602 0.8939,1.03324 2.5417,0.22064 3.5332,1.04492 -0.2792,1.66549 -1.8287,2.72582 -2.4629,4.2461 -0.4903,0.77173 -0.4541,2.11348 0.5957,2.35937 0.5097,0.10622 1.0367,-0.0395 1.4941,-0.26562 -0.3236,1.02548 0.7234,1.98167 1.7266,1.74218 1.349,-0.2046 2.4362,-1.22452 3.5761,-1.7832 0.4703,1.43447 0.4953,3.03427 1.2305,4.36719 0.3399,0.44293 0.9384,0.70017 1.418,0.29687 0.9415,-0.67741 0.5966,-2.07189 1.1094,-3.01758 0.2756,-0.22242 0.7378,0.57386 1.0273,0.79883 0.8524,0.86156 1.317,2.14977 2.4414,2.70703 0.7269,0.14678 1.4178,-0.43536 1.3496,-1.18554 -0.097,-1.43608 -0.5574,-2.82371 -0.7148,-4.25391 1.508,0.72231 2.8414,2.1952 4.6386,2.03125 1.1117,-0.161 1.4627,-1.55949 0.8633,-2.40234 -0.5827,-1.17045 -1.831,-1.77212 -2.5566,-2.82227 1.339,-0.38088 3.0375,0.12519 4.0918,-1.02148 0.7777,-0.84421 0.1025,-2.12174 -0.8262,-2.51172 -0.7462,-0.40746 -1.6008,-0.60449 -2.4473,-0.63281 1.8519,-2.0016 3.7328,-3.97699 5.5957,-5.96875 -2.2552,0.56428 -4.5107,1.12796 -6.7656,1.69336 0.6703,-1.12227 1.655,-2.25002 1.6074,-3.625 -0.1028,-1.03229 -1.4053,-1.31935 -2.164,-0.77344 -1.2394,0.56635 -2.0041,1.88492 -3.3281,2.26953 -0.8907,0.0632 -0.893,-1.12705 -0.918,-1.75977 -0.069,-1.32532 -0.6704,-3.33814 -2.2617,-3.41797 z"
   id="path6573" /><path
   style="fill:#000000"
   d="m 6621.248,573.21875 c -1.1491,0.0667 -1.3742,1.44573 -1.0918,2.34375 0.1288,0.6146 0.3434,1.23356 0.2637,1.86914 -1.0624,-1.02905 -1.6183,-2.62415 -3.0605,-3.24805 -0.87,-0.48259 -2.019,0.26286 -1.918,1.25586 0.044,1.24567 0.9111,2.24069 1.2988,3.38477 -0.9215,-0.74376 -1.8745,-1.78318 -3.1484,-1.75195 -1.0666,0.13749 -1.2813,1.46448 -0.8008,2.26367 0.4353,1.05493 1.1863,1.93104 1.6973,2.94531 -1.4675,0.62154 -2.9181,0.74509 -4.502,0.86133 -0.6573,0.0425 -1.4352,0.53894 -1.2558,1.2793 0.1017,0.93023 1.2564,1.15444 2.0019,1.43164 0.9183,0.30008 1.8708,0.50348 2.7617,0.88281 -0.8575,1.5958 -2.1844,3.04684 -2.4472,4.89453 -0.1392,0.98843 1.0778,1.6371 1.8711,1.08203 0.655,-0.60171 0.092,0.35293 0.1152,0.70313 -0.2046,0.89958 0.2408,2.13296 1.3125,2.0996 1.3356,-0.12685 2.2327,-1.31052 3.1973,-2.12109 0.4494,-0.42467 1.0014,-1.18375 0.9804,-0.10156 0.3413,1.2716 0.4009,2.6812 1.1328,3.80664 0.3991,0.45125 1.0047,0.41638 1.4629,0.11328 0.8098,-0.84591 0.4771,-2.13423 1.0606,-3.0293 1.2617,0.92423 1.8801,2.455 3.0547,3.44727 0.6999,0.52179 1.7682,-0.0934 1.6797,-0.96289 -0.074,-1.45245 -0.5577,-2.85394 -0.7129,-4.29883 1.5075,0.72223 2.8417,2.19515 4.6386,2.03125 1.1085,-0.16116 1.4688,-1.55936 0.8633,-2.40234 -0.5799,-1.15526 -1.7946,-1.76382 -2.541,-2.7793 2.1609,-0.60166 4.4617,-0.0846 6.6465,-0.57227 0.6116,-0.0954 1.2224,-0.1898 1.834,-0.28515 -1.5508,-0.81767 -3.0893,-1.66365 -4.7774,-2.16797 -1.0352,-0.37485 -2.0703,-0.75003 -3.1054,-1.125 1.0351,-1.01892 2.4312,-1.93244 2.7851,-3.42188 0.1998,-1.0133 -0.9515,-1.72187 -1.8515,-1.41015 -0.7701,0.15472 -1.4731,0.52499 -2.1661,0.88086 0.6719,-1.28668 1.9166,-2.3851 1.9786,-3.91407 -0.053,-1.02904 -1.3073,-1.44074 -2.1094,-0.92968 -1.2833,0.53393 -2.0774,1.82975 -3.377,2.30468 -0.9033,0.2357 -1.0281,-1.00268 -1.0215,-1.63085 -0.046,-1.574 -0.9286,-3.68751 -2.75,-3.72852 z"
   id="path6571" /><path
   style="fill:#000000"
   d="m 7068.002,571.91016 c -0.056,0.004 -0.1029,0.10669 -0.1368,0.36523 l -0.6289,2.18164 c -0.1189,1.43948 0.019,2.9198 -0.3515,4.32617 -1.623,-1.36207 -2.5566,-3.34472 -4.0137,-4.86718 -0.4656,-0.54593 -0.9309,-1.09274 -1.3965,-1.63868 0.2498,2.24224 0.6377,4.46045 1.1074,6.66602 0.2152,0.79105 -0.046,0.90269 -0.5175,0.25391 -0.751,-0.80643 -1.5504,-2.05783 -2.8145,-1.89844 -1.0766,0.25425 -1.1261,1.58608 -0.7305,2.41797 0.4453,1.29368 1.3284,2.36327 1.9766,3.55078 -1.4427,0.635 -3.1146,0.74051 -4.4414,1.6289 -0.3946,0.33642 -0.4967,1.02522 -0.1777,1.41602 0.9491,1.07648 2.7643,0.14174 3.7031,1.25977 0.1577,1.03965 -0.9212,1.71045 -1.4219,2.5039 -0.6076,0.92272 -1.4717,2.08255 -0.9805,3.22071 0.5174,0.94996 1.7945,0.59605 2.3946,-0.0762 0.5973,-0.67115 0.1707,0.0231 0.037,0.43946 -0.4204,0.84468 -0.1291,2.14207 0.9375,2.26562 1.4662,-10e-4 2.5234,-1.23238 3.582,-2.08984 0.4298,-0.3419 0.3343,0.91805 0.5176,1.2539 0.3057,1.06557 0.2599,2.33401 1.0019,3.21094 0.6237,0.66384 1.6945,0.18286 1.9532,-0.60937 0.3266,-0.72275 0.5836,-1.47297 0.8672,-2.21289 1.0567,1.19005 1.9432,2.68013 3.4355,3.36523 0.9931,0.34585 1.8495,-0.71633 1.6016,-1.6543 -0.168,-1.33519 -0.8727,-2.52526 -1.1309,-3.83789 1.5214,0.63006 2.8416,2.14723 4.6191,1.87696 1.0559,-0.22486 1.266,-1.59188 0.6602,-2.36329 -0.6174,-1.06687 -1.7578,-1.6604 -2.4863,-2.62695 2.1425,-0.81651 4.5346,-0.50147 6.705,-1.22851 0.5839,-0.15545 1.1681,-0.31136 1.752,-0.4668 -1.5783,-0.64375 -3.1398,-1.33631 -4.8281,-1.63867 -0.9978,-0.24512 -1.9964,-0.49104 -2.9942,-0.73633 1.9179,-2.0436 3.8401,-4.08411 5.7598,-6.12695 -2.256,0.56402 -4.5121,1.12773 -6.7676,1.69336 0.7176,-1.16026 1.7547,-2.47687 1.3594,-3.91993 -0.389,-1.02374 -1.76,-0.99209 -2.4766,-0.34375 -0.9901,0.57967 -1.4639,1.80979 -2.5371,2.23633 -0.7135,-0.25125 -0.8836,-1.19661 -1.125,-1.83594 -0.4755,-1.61735 -0.5188,-3.37526 -1.414,-4.84375 -0.1894,-0.24994 -0.4327,-1.12918 -0.5996,-1.11718 z"
   id="path6569" /><path
   style="fill:#000000"
   d="m 7006.7559,569.39844 c -0.1197,-2.7e-4 -0.2399,0.002 -0.3594,0.01 -2.7425,0.1435 -5.3318,2.05966 -6.0879,4.73242 -0.7747,2.31187 -0.2978,5.34734 1.957,6.6543 2.2404,1.37374 5.3442,1.61988 7.4981,-0.0605 2.659,-2.01753 3.6897,-6.23847 1.6211,-9.01954 -1.0553,-1.46805 -2.8346,-2.31239 -4.6289,-2.3164 z"
   id="path6567" /><path
   style="fill:#000000"
   d="m 8677.1758,556.58398 c -0.074,-0.006 -0.1492,-0.005 -0.2246,0.004 -1.524,0.28127 -2.7149,1.41034 -3.9336,2.29492 -2.181,1.7436 -4.1261,3.77404 -6.4668,5.31836 -2.6733,1.89065 -5.5754,3.69287 -8.416,5.36133 -6.8132,3.9613 -13.7981,7.66791 -21.0938,10.66602 -2.2341,0.93808 -4.5572,1.63705 -6.9277,2.13086 -2.6779,0.7405 -5.4804,1.40662 -7.7871,3.02734 -0.7396,0.40114 -1.3262,1.469 -0.6211,2.15625 0.9366,0.73882 2.1984,0.17562 3.2344,-0.0254 2.7846,-0.76835 5.465,-1.95273 8.3613,-2.27344 1.7117,-0.19293 3.5342,-0.43245 5.1894,0.16797 0.5615,0.44113 0.021,1.28278 -0.2422,1.76367 -2.0178,3.02248 -5.2848,4.8186 -8.121,6.96094 -0.8781,0.76484 -2.0351,1.45082 -2.3321,2.6543 -0.025,0.90652 0.9291,1.3897 1.7305,1.17578 2.4767,-0.49695 4.5282,-2.11777 6.5117,-3.58985 1.9967,-1.53175 3.7496,-3.37276 5.9317,-4.6582 5.4004,-3.46012 11.16,-6.63384 16.83,-9.67773 5.4202,-2.851 10.8419,-5.73664 16.5117,-8.06641 2.9601,-1.04194 6.0559,-1.85433 8.754,-3.50781 0.651,-0.36211 1.1213,-1.24619 0.5585,-1.87696 -0.7503,-0.76047 -1.9541,-0.27855 -2.871,-0.11523 -3.1229,0.74853 -6.2057,1.69695 -9.2969,2.39453 -1.0613,0.18428 -2.17,0.41647 -3.2383,0.24805 -0.044,-1.29769 0.8742,-2.39927 1.5918,-3.40625 1.5249,-2.03689 3.6267,-3.49693 5.5684,-5.09571 0.8277,-0.8347 2.0457,-1.7608 1.8945,-3.06835 -0.1028,-0.5211 -0.5751,-0.91932 -1.0957,-0.9629 z"
   id="path6565" /><path
   style="fill:#000000"
   d="m 8444.9902,553.01758 c -0.1123,0.0196 -0.2187,0.0772 -0.3359,0.17383 -0.8022,0.30005 -0.5602,1.36123 -0.2168,1.95507 1.6033,2.9386 2.4305,6.25069 2.8301,9.55664 0.022,0.69291 0.2815,1.61126 -0.4981,1.9961 -1.2495,1.04242 -2.8673,1.58337 -3.9179,2.875 -1.0967,1.04543 -1.7429,2.42433 -2.5157,3.69726 -1.3609,1.64072 -3.5759,2.09967 -5.5156,2.71485 -2.5445,0.74016 -5.138,1.35275 -7.666,2.12109 -0.6767,0.44965 -1.3526,0.89996 -2.0293,1.34961 1.1867,0.20795 2.354,0.73456 3.5703,0.44336 4.1445,-0.3918 8.3107,-0.92834 12.4219,-1.16992 0.3492,0.0864 1.3374,-0.26349 1.0937,0.36328 -0.2315,0.95494 -0.1655,2.31128 0.9356,2.67578 0.614,0.24555 1.3458,-0.13333 1.8555,-0.18555 0,1.37084 1.2955,2.49568 2.6406,2.42188 -0.051,1.49894 -0.5236,2.95678 -0.6465,4.45508 -0.4428,3.3354 -0.7041,6.70747 -0.8965,10.05664 l 0.6348,2.28906 c 0.5804,-1.03094 1.459,-1.94182 1.5429,-3.17383 0.7869,-3.67104 1.4069,-7.60024 3.7891,-10.63672 0.4503,-0.58875 1.084,-1.0639 1.8496,-1.05664 1.6943,-0.59908 2.9046,-2.05529 4.0645,-3.36133 0.9948,-1.23883 1.9329,-2.52202 2.9043,-3.77929 3.5104,0.22733 7.0124,0.69926 10.5332,0.68555 0.8423,0.0651 1.8939,-0.54275 1.6445,-1.50391 -0.4373,-1.13833 -1.8177,-1.49077 -2.9063,-1.72461 -3.7698,-0.80888 -7.643,-0.57295 -11.4667,-0.75586 -0.3437,-0.11587 -1.2251,0.0658 -1.1856,-0.36328 0.3609,-0.8716 0.2934,-2.18052 -0.7559,-2.51172 -0.8932,-0.31208 -1.7955,0.15838 -2.6855,0.23047 -0.1045,-1.10526 -0.013,-2.52961 -1.1387,-3.16016 -0.3969,-0.22958 -0.8826,-0.2658 -1.3222,-0.15429 -0.4974,-1.98136 -0.2715,-4.06499 -0.6836,-6.06641 -0.5202,-3.0364 -1.3174,-6.17771 -3.2442,-8.64844 -0.6451,-0.70805 -1.3845,-1.45827 -2.3105,-1.75781 -0.1426,-0.0518 -0.2608,-0.0703 -0.3731,-0.0508 z"
   id="path6563" /><path
   style="fill:#000000"
   d="m 6562.0762,545 c -0.064,-0.003 -0.1277,-6.4e-4 -0.1914,0.006 -1.3153,0.1564 -1.8073,1.66583 -1.8926,2.80469 -0.8665,-1.03775 -2.0894,-2.343 -3.5801,-1.9668 -1.1908,0.39021 -1.1943,1.92974 -0.6777,2.86133 0.4796,0.77829 -0.1522,0.12787 -0.5469,-0.0742 -0.8021,-0.56338 -2.1769,-0.69586 -2.6699,0.33398 -0.5174,1.39648 0.4574,2.78092 1.1426,3.9375 0.096,0.40898 1.1844,1.2388 0.541,1.33399 -3.111,0.59872 -6.2375,1.12622 -9.291,1.98437 2.7881,0.99157 5.6571,1.70898 8.5175,2.45508 -0.9882,1.50952 -2.2721,2.8752 -2.9023,4.58789 -0.3353,0.9989 0.7252,1.94452 1.6934,1.58399 0.6856,-0.2884 0.7067,-0.15744 0.4296,0.48828 -0.3722,1.07033 0.5337,2.3325 1.6973,2.1289 1.4947,-0.11493 2.319,-1.57611 3.6426,-2.04687 0.8459,-0.22997 1.004,0.92162 1.0039,1.51953 -0.028,1.234 0.4779,2.91204 1.9121,3.05859 1.3644,0.0481 1.9897,-1.49861 2.0898,-2.64453 0.092,-0.26428 0.5343,0.56981 0.7735,0.73242 0.7766,0.8002 1.7982,1.9834 3.039,1.5586 1.1383,-0.49405 0.9296,-1.96682 0.6465,-2.94141 -0.1793,-0.68877 -0.4473,-1.34854 -0.6816,-2.01953 1.2838,0.73277 2.5832,1.95872 4.1719,1.6875 1.1005,-0.22942 1.3263,-1.65288 0.7128,-2.46484 -0.497,-1.00617 -1.6215,-1.5038 -2.1523,-2.45899 1.2296,-0.75974 2.7992,-0.18589 4.0977,-0.79101 0.9826,-0.27089 1.8087,-1.445 1.1855,-2.40235 -0.9083,-1.28766 -2.671,-1.21345 -4.0781,-1.29883 -0.9329,0.0664 -0.1618,-0.57773 0.1719,-0.86914 1.1008,-0.94273 2.6962,-1.71318 2.9082,-3.30273 0.097,-1.14816 -1.2188,-1.774 -2.1993,-1.4668 -0.6277,0.11562 -1.2225,0.36635 -1.7851,0.66211 0.7171,-0.94002 1.4045,-2.46654 0.4141,-3.45898 -1.08,-0.87912 -2.4777,-0.0315 -3.3692,0.71484 -0.7749,0.76622 -2.3594,0.7429 -2.7168,-0.43359 -0.2436,-1.06943 -0.078,-2.33039 -0.9004,-3.19727 -0.2788,-0.34371 -0.711,-0.5822 -1.1562,-0.60156 z"
   id="path6561" /><path
   style="fill:#000000"
   d="m 7919.1797,543.00195 c -1.3003,0.0921 -1.7012,1.57489 -1.8633,2.65039 -0.4805,3.43343 -0.356,6.91538 -0.4238,10.37305 -0.9347,-2.66876 -1.738,-5.42261 -1.9043,-8.25781 -0.115,-1.35796 -1.0892,-2.88148 -2.6113,-2.76563 -1.0357,-0.10457 -2.2051,0.53552 -2.2403,1.66993 -0.014,1.92776 0.8346,3.72893 1.3731,5.54882 0.2964,0.87328 0.5909,1.74778 0.8925,2.61914 -1.3034,-1.62325 -2.5955,-3.30441 -3.3574,-5.25781 -0.5331,-1.17892 -2.0375,-1.99378 -3.2344,-1.25781 -1.1312,0.62981 -1.8937,2.06916 -1.291,3.32031 0.5233,1.29767 1.8358,2.0024 2.6485,3.09766 2.0292,2.31573 3.9378,4.73779 5.7148,7.25195 -3.5509,-1.42021 -7.0578,-3.01119 -10.3144,-5.02539 -0.7038,-0.31413 -0.7099,-1.23185 -1.3829,-1.60742 -1.0271,-0.79496 -2.5726,-0.13116 -2.9394,1.05273 -0.4919,1.11206 -0.2248,2.47992 0.7402,3.25196 2.0579,1.76936 4.656,2.73223 7.1035,3.83007 2.2908,0.97259 4.5969,1.90705 6.8946,2.86329 -3.9736,1.16206 -7.9163,2.65201 -12.0723,2.98632 -0.7261,-0.0818 -1.5467,-0.47328 -2.209,0.0645 -0.981,0.83289 -0.5378,2.28051 -0.2187,3.33203 0.3468,1.20957 1.7704,1.52932 2.8613,1.26172 2.9393,-0.58449 5.7664,-1.61934 8.6387,-2.45899 -2.3547,2.026 -4.8688,3.93579 -6.7989,6.39258 -0.8791,1.04931 -1.1867,2.64837 -0.3359,3.80859 0.5591,0.96525 1.9259,0.88159 2.6484,0.15235 1.6986,-1.51617 2.9593,-3.45419 4.6407,-4.99414 1.3093,-1.2975 2.6693,-2.54994 4.1367,-3.66797 -1.5286,3.00694 -3.0123,6.11792 -5.293,8.64062 -0.799,0.59114 -2.0775,1.14248 -1.9121,2.34961 0.3518,1.22678 1.6993,1.73715 2.6992,2.34375 0.6534,0.33925 1.5816,0.6737 2.1075,-0.0508 1.5197,-2.10517 2.575,-4.50784 3.7363,-6.82031 0.3476,-0.72096 0.6954,-1.44115 1.0429,-2.16211 0.1932,3.25246 0.076,6.57362 0.9083,9.74805 0.2265,0.9909 1.1526,2.066 2.2578,1.61914 1.244,-0.62053 1.2387,-2.22366 1.373,-3.42578 0.211,-4.00144 -0.061,-8.00825 -0.1523,-12.00977 2.0658,3.67321 4.3328,7.26731 5.8965,11.19336 0.033,1.40906 1.4044,2.47178 2.7753,2.33398 0.9478,0.0937 2.1191,-0.43521 2.1094,-1.51757 -0.095,-1.59073 -1.0876,-2.94991 -1.7676,-4.34571 -1.2616,-2.36212 -2.6624,-4.67683 -3.7832,-7.09765 2.5168,1.74365 5.0283,3.56191 7.1036,5.82617 1.1248,1.12624 3.2269,0.99338 4.0585,-0.41797 0.8192,-1.19991 0.8257,-3.14569 -0.541,-3.96289 -0.8421,-0.63811 -1.9943,-0.35984 -2.8515,-0.98438 -1.2049,-0.64194 -2.3125,-1.45125 -3.3496,-2.33593 2.132,0.714 4.416,1.13127 6.3398,2.34765 0.2591,1.45446 2.4774,2.08231 3.3027,0.75 0.8144,-1.2774 0.8587,-3.00014 0.3164,-4.38867 -0.2696,-0.59966 -1.067,-0.91234 -1.6425,-0.56055 -3.1952,-0.48761 -6.2714,-1.55916 -9.3243,-2.59375 -0.5352,-0.19923 -1.073,-0.39179 -1.5996,-0.61328 2.8208,-0.47933 5.6127,-0.72631 8.4336,-0.76562 1.1261,-0.0395 2.2502,0.0644 3.3223,0.41211 1.1497,0.23271 2.0985,-0.82325 2.1133,-1.91602 0.1204,-1.21559 0.1041,-2.89052 -1.2188,-3.45117 -1.2454,-0.39505 -2.4595,0.35281 -3.6914,0.47852 -2.2792,0.4655 -4.559,0.78209 -6.8515,1.1621 2.6704,-1.50746 5.3614,-3.06355 8.289,-4.01367 1.5149,0.0391 2.7275,-1.44071 2.5137,-2.91601 0.1035,-0.95265 -0.5871,-1.98787 -1.6191,-1.89649 -1.8318,0.26053 -3.4333,1.30298 -5.0977,2.04883 -2.974,1.46991 -5.9274,2.97633 -8.8945,4.46094 2.2255,-3.61846 4.3621,-7.32872 7.0879,-10.60156 0.5888,-0.6283 1.5565,-1.16208 1.416,-2.16993 -0.2214,-1.39167 -2.0005,-2.52443 -3.291,-1.69921 -1.6367,1.04457 -2.6181,2.81146 -3.6954,4.375 -2.0084,3.11021 -3.8629,6.31548 -5.8535,9.4375 -0.092,-4.74348 0.4283,-9.49304 0.072,-14.23047 -0.1047,-1.09937 -0.39,-2.64217 -1.7168,-2.8086 -0.075,-0.002 -0.1497,-0.0166 -0.2246,-0.006 z"
   id="path6559" /><path
   style="fill:#000000"
   d="m 6358.709,524.67773 c -0.1084,0.003 -0.2153,0.0256 -0.3184,0.0723 -1.0905,0.39155 -1.0907,1.78889 -1.2148,2.75977 -0.2937,2.90513 0.2988,5.81046 0.123,8.71289 -0.8449,-0.42451 -2.1079,-0.08 -2.2168,0.9707 -0.079,0.62612 0.2012,1.21103 0.3711,1.79687 -1.1495,-0.0939 -2.3799,0.81436 -2.2363,2.04493 0.2882,0.59173 -0.2413,0.65198 -0.7324,0.68359 -1.8851,0.0894 -3.7702,0.36452 -5.5371,1.05859 -1.6267,0.65247 -3.4206,1.2993 -4.5411,2.7168 -0.6667,0.86361 0.026,2.31704 1.1583,2.14844 2.4921,-0.23855 4.6686,-1.63904 7.0527,-2.27735 0.919,-0.20405 1.317,0.89895 1.8965,1.40039 1.3307,1.44624 2.9471,2.57739 4.5488,3.69336 1.8276,1.61824 2.6427,3.99966 3.334,6.26563 0.4301,1.02943 0.7245,2.27083 1.7031,2.92578 0.7329,0.33667 1.5601,-0.2432 1.6035,-1.02734 0.07,-2.42337 -0.8143,-4.74654 -1.4082,-7.06446 -0.2959,-1.17763 -0.6863,-2.34139 -0.8066,-3.55468 1.0643,0.12649 2.3283,-0.67329 2.1211,-1.85938 0.075,-0.30712 0.884,-0.14376 1.209,-0.46289 0.5146,-0.31125 0.8451,-0.92172 0.7519,-1.52539 3.2086,-0.12864 6.3918,0.54625 9.5938,0.54102 0.5703,-0.036 1.0022,-0.4043 1.0058,-0.99219 0.3257,-0.54706 -0.4072,-0.82982 -0.791,-1.06836 -2.0339,-0.71977 -4.1903,-1.13529 -6.082,-2.22266 -1.4793,-0.71518 -2.7532,-1.75848 -3.8848,-2.9375 -1.228,-1.17256 -2.6004,-2.17872 -3.9101,-3.24804 -1.1955,-1.4696 -0.9189,-3.50497 -1.0157,-5.27344 -0.1005,-1.31791 -0.048,-2.80197 -0.8808,-3.90625 -0.2387,-0.21695 -0.5714,-0.38111 -0.8965,-0.3711 z"
   id="path6557" /><path
   style="fill:#000000"
   d="m 8330.6602,521.00195 c -1.3486,0.11293 -1.663,1.66983 -1.7754,2.76953 -0.3602,4.29232 -0.031,8.60557 0.041,12.9043 l 0.06,2.07031 c -2.8954,-4.65116 -5.514,-9.529 -9.1035,-13.69921 -0.557,-0.66923 -1.358,-1.20075 -2.2656,-1.00196 -1.0304,-0.0276 -1.7348,1.08892 -1.3457,2.01758 0.8293,2.09783 2.2268,3.91205 3.3984,5.82617 1.3163,2.02459 2.6285,4.05231 3.8457,6.13867 -3.9638,-1.71622 -7.6963,-3.92673 -11.6875,-5.57812 -0.8758,-0.3929 -2.2177,-0.44939 -2.6406,0.60742 -0.4495,1.24654 -0.1843,2.88317 1.0781,3.55664 0.8619,0.50346 1.916,0.3222 2.791,0.8125 2.8191,1.12273 5.4354,2.6782 8.043,4.21484 -3.057,-0.31676 -6.1787,-0.46965 -9.125,-1.40429 -0.4382,-1.18109 -2.0895,-1.69419 -3.0215,-0.77149 -1.1178,1.03138 -1.3262,3.05548 -0.3086,4.22071 1.2586,1.13642 3.097,1.0104 4.6797,1.14257 2.3088,0.0958 4.6293,0.27652 6.8848,0.80079 -3.3802,1.35982 -7.0726,2.11735 -10.1055,4.22265 -0.8571,0.54576 -1.3821,1.61544 -0.9687,2.60156 0.3442,1.37951 2.2009,2.05894 3.2812,1.06055 0.4356,-0.39462 0.6028,-1.00889 1.2324,-1.16601 2.2071,-1.10019 4.5529,-1.89228 6.8926,-2.65821 -2.0823,1.52794 -4.1365,3.1522 -6.4648,4.29102 -1.2175,0.007 -2.3383,1.15814 -2.041,2.40234 0.3383,1.82052 2.7979,3.1409 4.3437,1.88672 1.5883,-1.69824 3.5576,-2.98562 5.3887,-4.4043 0.8431,-0.6322 1.7018,-1.24443 2.5547,-1.86328 -1.7153,2.99872 -3.2862,5.97828 -5.2539,8.82227 -0.8747,0.91065 -1.5263,2.53059 -0.5059,3.57226 0.8986,0.84737 2.4308,0.76808 3.2227,-0.1914 2.0449,-2.08833 2.9423,-4.94751 4.4199,-7.41211 0.8755,-1.57304 1.7663,-3.13797 2.7441,-4.65039 -0.08,3.92454 -0.3879,7.85562 -0.1621,11.7793 0.076,1.19701 0.4166,2.78022 1.7988,3.04687 1.1377,0.26597 2.2399,-0.5993 2.4239,-1.71875 0.5172,-2.50537 0.2433,-5.08964 0.2382,-7.62891 -0.039,-1.2909 -0.078,-2.58214 -0.1171,-3.87304 1.4909,2.85526 3.1541,5.68034 4.0195,8.80273 -0.2222,1.107 0.6044,2.21061 1.7168,2.35938 1.8713,0.41935 4.2118,-1.10306 3.8828,-3.16993 -0.138,-1.05482 -1.2116,-1.501 -1.6523,-2.39453 -1.268,-1.93806 -2.3239,-4.00267 -3.3614,-6.07031 2.0046,1.6183 4.0433,3.2966 5.5117,5.43555 0.4712,0.975 1.3805,2.15105 2.6114,1.80859 1.2087,-0.3704 2.1755,-1.74278 1.5937,-2.99023 -0.8975,-1.96995 -2.6521,-3.36208 -4.1504,-4.86328 -1.3038,-1.22696 -2.6434,-2.41605 -3.9179,-3.67383 3.0782,0.9411 6.0068,2.34641 9.1347,3.12109 1.1439,0.30791 2.6935,0.14012 3.1895,-1.10937 0.4155,-1.1435 0.5714,-2.84935 -0.6602,-3.55079 -0.8801,-0.56757 -1.8504,0.17073 -2.7832,-0.10546 -1.8015,-0.23546 -3.5094,-0.72194 -5.1894,-1.2168 -1.8626,-0.58833 -3.7058,-1.23558 -5.5586,-1.85352 4.1905,-1.81046 8.3345,-3.83178 12.6582,-5.16796 0.8894,-0.16837 1.9508,-0.21609 2.5,-1.06446 0.9179,-1.38111 -0.2735,-3.27703 -1.7656,-3.61719 -1.1564,-0.37308 -2.3602,0.0923 -3.2657,0.82227 -3.1365,1.76333 -6.5075,3.0809 -9.9121,4.22656 1.8475,-2.47257 3.7717,-4.86387 5.7852,-7.23633 0.5091,-0.61527 1.2278,-1.3504 1.8574,-1.97461 1.3213,-1.86896 -0.8654,-4.84424 -3.0449,-4.15624 -0.8489,0.2507 -1.2715,1.12567 -1.3848,1.93359 -1.2316,2.29002 -2.8843,4.32266 -4.498,6.35156 0.8857,-2.51316 1.5176,-5.18347 3.0136,-7.42383 1.1503,-0.13671 1.5538,-1.61011 0.9024,-2.47656 -0.578,-1.11303 -1.9758,-1.99514 -3.1895,-1.30078 -1.577,0.93965 -2.2332,2.80515 -2.914,4.41211 -0.4348,1.12051 -0.793,2.26785 -1.1407,3.41797 -0.086,-2.77943 0.043,-5.6147 -0.625,-8.33399 -0.2244,-0.85306 -0.8451,-1.76409 -1.8339,-1.6875 z"
   id="path6555" /><path
   style="fill:#000000"
   d="m 8178.1113,519.00781 c -1.2134,-0.0629 -2.2431,0.92397 -2.3437,2.11328 -0.3271,2.41131 -0.053,4.85607 -0.012,7.2793 -0.6068,-1.78041 -1.013,-3.61892 -1.2442,-5.48242 -0.2313,-1.3931 -1.3624,-2.82327 -2.9043,-2.63672 -1.3549,0.14509 -2.9887,1.04644 -2.9355,2.59961 0.1365,2.08258 1.4449,3.8321 2.2246,5.70898 0.2318,0.50644 0.4463,1.02215 0.6387,1.54493 -0.9835,-1.22326 -2.0218,-2.49819 -2.5079,-4.00782 -0.1532,-1.57057 -1.976,-2.15719 -3.3359,-2.10742 -1.3972,-0.008 -3.195,0.72557 -3.2812,2.32422 -0.03,1.12783 0.8636,1.91455 1.7031,2.51172 2.2214,2.1673 4.1187,4.65165 5.9043,7.18359 -2.7125,-1.03464 -5.43,-2.14551 -7.8946,-3.69336 -0.4587,-0.65945 -1.1981,-1.08797 -1.998,-1.22851 -1.0743,-0.24318 -2.6951,-0.2809 -3.0977,0.99609 -0.088,1.22593 -1.1734,2.45668 -0.3964,3.66211 1.048,1.49576 3.0855,1.37087 4.623,2.00977 3.618,1.19408 7.0704,2.7857 10.5684,4.36328 -3.6062,1.2745 -7.2451,2.70114 -11.0899,3.00586 -1.3418,-0.0446 -3.0541,0.23699 -3.5449,1.69726 -0.2932,1.09365 -0.3282,2.40974 0.3301,3.37891 0.9847,1.09221 2.6004,0.55558 3.8105,0.2168 2.0523,-0.62098 4.0444,-1.43059 6.1094,-2.01172 -2.2257,2.31048 -4.9034,4.31006 -6.4375,7.1914 -0.7965,1.36223 0.4387,3.445 2.0469,3.26563 1.7166,-0.30498 2.8919,-1.76438 4.0918,-2.9082 1.7498,-1.88587 3.4795,-3.80704 5.4765,-5.43946 -0.87,1.78295 -1.8345,3.42706 -2.9472,5.00781 -1.0271,1.64786 -2.9001,2.83228 -3.2149,4.86524 -0.1632,1.60853 1.7263,3.05485 3.2442,2.42383 1.8445,-0.77999 2.9061,-2.62705 3.9746,-4.21875 0.7789,-1.26396 1.4821,-2.57099 2.2051,-3.86719 -0.08,2.67194 -0.4194,5.35656 -0.1602,8.02539 0.071,1.16804 1.009,2.22948 2.2246,2.19922 1.129,0.1332 2.5705,-0.10414 2.9941,-1.32422 0.6329,-1.87875 0.3278,-3.91196 0.3477,-5.85937 -0.063,-2.03945 -0.1413,-4.07811 -0.2148,-6.11719 1.6571,3.08182 3.4918,6.11033 4.6289,9.43359 -0.2483,1.24331 0.7654,2.44372 2.0097,2.52149 1.2815,0.11452 2.8393,-0.36056 3.4434,-1.58399 0.4877,-1.58404 -0.5051,-3.11008 -1.1816,-4.48047 -1.1743,-2.16004 -2.5311,-4.21876 -3.6309,-6.41992 2.0782,1.41002 4.1871,2.84512 5.918,4.67773 0.9758,1.4325 3.0889,1.166 4.373,0.32422 1.1471,-0.61383 1.8627,-2.22926 0.9531,-3.33984 -0.9308,-1.34405 -2.6679,-1.59836 -3.9238,-2.53125 -0.6925,-0.42004 -1.3686,-0.86605 -2.0391,-1.32031 2.3556,0.90933 4.5286,2.32639 7.0079,2.88672 1.1039,0.28069 2.2587,-0.54134 2.3144,-1.6875 0.2577,-1.16842 -0.1502,-2.4453 -1.1758,-3.11328 -2.2714,-1.51854 -5.0113,-2.06222 -7.5781,-2.88086 -0.4039,-0.14611 -1.3563,-0.34227 -1.4336,-0.48047 2.4715,-0.41678 4.9747,-0.5081 7.5313,-0.66016 1.3713,-0.12615 3.1925,-0.40848 3.6464,-1.94336 0.3903,-1.67316 -0.7801,-3.65195 -2.5918,-3.72656 -1.5267,-0.18477 -2.7843,0.88806 -4.248,1.09765 -1.8182,0.41508 -3.6648,0.69981 -5.5195,0.89063 2.566,-1.32993 5.1922,-2.67077 8.0351,-3.2832 1.1513,0.0314 2.74,-0.42028 3.1758,-1.73438 0.4826,-1.51756 0.1963,-3.45432 -1.0957,-4.49219 -1.3349,-0.97399 -3.116,-0.28446 -4.2051,0.73633 -1.8909,1.3914 -3.951,2.42799 -5.9629,3.54492 -1.3539,0.72054 -2.7146,1.42861 -4.1015,2.08399 2.0218,-3.35021 4.1701,-6.64613 6.6621,-9.66797 0.6887,-0.82513 2.0535,-1.40305 1.8847,-2.67187 -0.248,-1.17764 -1.5224,-1.6981 -2.4472,-2.28126 -1.0628,-0.6819 -2.6452,-0.67526 -3.4082,0.45313 -0.8756,1.20363 -1.2393,2.69217 -2.0528,3.93945 -1.5449,2.7514 -3.2496,5.33879 -5.0195,8.01172 0.083,-3.93126 0.3764,-7.86492 0.2324,-11.79687 -0.033,-1.20865 -0.3981,-2.78606 -1.7715,-3.08008 -0.4505,-0.11941 -0.9241,-0.10976 -1.3867,-0.0977 z"
   id="path6553" /><path
   style="fill:#000000"
   d="m 9129.0781,508.2793 c -0.1345,-0.0138 -0.3191,0.0806 -0.4433,0.0684 -0.9063,0.16814 -1.3025,1.18467 -1.75,1.89257 -0.9313,2.3257 -0.7686,4.90335 -0.7325,7.35938 0.072,2.40705 0.4798,4.8382 0.1348,7.23633 -0.1776,0.34671 -0.8463,0.22233 -1.1328,0.59179 -1.0221,0.76957 -1.1602,2.12614 -1.209,3.30665 -0.995,-0.50044 -2.4264,-0.18737 -2.7754,0.96874 -0.3096,0.55665 0.1159,1.50062 -0.6816,1.71876 -1.2971,0.39311 -2.6923,0.2976 -3.9903,0.7207 -3.1496,0.85809 -6.2663,2.01883 -9.0332,3.77148 -0.8364,0.50482 -1.8742,1.50782 -1.3007,2.54492 0.6933,0.99691 2.0718,0.52194 3.0097,0.19532 2.094,-0.80084 4.0278,-2.03979 6.2774,-2.41992 1.2407,-0.20199 2.746,-0.45069 3.791,0.42187 0.3827,0.73517 0.7462,1.50914 1.3887,2.07422 1.4496,1.51525 3.3485,2.43797 5.1054,3.52734 2.41,1.62335 3.1338,4.60522 4.0899,7.17188 0.5519,1.38775 0.9542,2.91484 1.9394,4.06836 0.4955,0.55422 1.481,0.46034 1.8008,-0.22461 0.4642,-1.19072 -0.017,-2.50649 -0.2109,-3.71485 -0.6006,-2.76944 -1.5452,-5.4454 -2.3184,-8.16797 -0.048,-0.32884 -0.3532,-1.03672 -0.2519,-1.38867 1.5017,0.15126 3.2383,-0.89644 3.2168,-2.5332 0.2344,-0.7671 1.2453,-0.30904 1.7773,-0.70703 0.9795,-0.42222 1.1957,-1.67571 0.8027,-2.58008 3.0178,-0.17318 6.0333,0.25618 9.0469,0.38477 1.0791,0.0204 2.1902,0.24021 3.2461,-0.0625 0.3624,-0.43776 0.8825,-0.86344 0.3281,-1.38477 -0.3825,-0.72562 -1.3844,-0.68546 -2.0859,-0.91797 -2.8658,-0.64356 -5.8735,-1.21772 -8.3457,-2.89258 -0.5199,-0.3187 -0.8297,-0.84114 -0.8477,-1.4414 -0.645,-1.57734 -2.1442,-2.58842 -3.4511,-3.5918 -1.8809,-1.13006 -3.6705,-2.62864 -4.4629,-4.74023 -1.2091,-3.01016 -0.633,-6.30815 -0.168,-9.40821 0.1226,-0.67994 -0.031,-1.40716 -0.6504,-1.79101 -0.03,-0.0367 -0.068,-0.0521 -0.1133,-0.0566 z"
   id="path6551" /><path
   style="fill:#000000"
   d="m 8765.582,506.2168 c -0.9014,-0.0352 -1.6295,1.00041 -1.082,1.78906 1.1298,1.50361 2.8941,2.35345 4.4375,3.36719 1.3547,0.84375 2.5837,1.69094 3.7539,2.65625 1.3705,1.20135 2.9212,2.47823 3.4277,4.30273 0.2,1.10814 -1.1842,1.61053 -2.0781,1.48633 -3.6029,-0.20163 -7.168,-0.99493 -10.5781,-2.16016 -1.0419,-0.46652 -2.6439,-0.74009 -3.3047,0.44922 -0.5551,1.01063 0.3859,1.97889 1.2793,2.33985 2.7819,1.31496 5.8297,2.00334 8.8652,2.42773 1.3078,0.1277 2.6367,0.11256 3.8946,0.55469 6.4116,1.87159 12.6457,4.29604 18.8711,6.70312 5.8966,2.3532 11.9153,4.732 17.5214,7.57227 2.5907,1.43309 5.0203,3.26929 7.8907,4.11914 0.8673,0.20928 2.2127,0.0112 2.3086,-1.07031 -0.057,-1.23416 -1.4319,-1.69393 -2.2813,-2.33594 -2.88,-1.90898 -5.8874,-3.66067 -8.543,-5.88281 -0.3693,-0.34174 -1.1323,-1.02424 -0.5488,-1.49805 1.6388,-0.55853 3.4227,-0.3533 5.1289,-0.39649 2.4478,-0.0178 4.9328,0.22946 7.3535,-0.21679 0.8406,-0.14424 1.3547,-1.2322 0.7188,-1.88086 -1.0073,-0.86933 -2.4591,-0.9185 -3.7188,-1.16797 -2.2396,-0.36601 -4.5459,-0.14216 -6.7441,-0.7832 -5.8687,-1.46382 -11.482,-3.54667 -17.1465,-5.66602 -5.6516,-2.21631 -11.2638,-4.43787 -16.6211,-7.27539 -2.1603,-1.05297 -3.821,-2.83186 -5.8379,-4.10547 -1.9954,-1.2892 -4.0274,-2.66461 -6.3496,-3.27148 -0.2028,-0.0472 -0.4093,-0.0684 -0.6172,-0.0566 z"
   id="path6549" /><path
   style="fill:#000000"
   d="m 6732.2148,502.14844 c -1.2803,-0.0113 -2.7644,0.52337 -3.1074,1.89648 -0.5754,2.17205 -0.2969,4.45448 -0.3262,6.67578 0.093,0.99588 -0.087,0.52436 -0.2656,-0.14843 -0.3658,-1.32737 -0.8376,-2.6866 -0.7988,-4.07422 0.4467,-1.18587 -0.6277,-2.36699 -1.7988,-2.44532 -1.3449,-0.10209 -3.0655,-0.14038 -3.9317,1.08789 -0.7907,1.43532 0.149,3.028 0.7285,4.36133 0.3776,0.79816 0.7492,1.74005 1.0821,2.63086 -0.6848,-0.97265 -1.5309,-1.94468 -1.7832,-3.1289 -0.1117,-1.54503 -1.9141,-2.31488 -3.2657,-1.85352 -1.776,0.39219 -3.0948,2.45084 -2.291,4.18555 0.5407,1.48505 2.1037,2.1322 3.0371,3.3164 1.7666,1.912 3.3079,4.01407 4.8086,6.13672 -2.5368,-1.1162 -5.1419,-2.08406 -7.666,-3.22656 -1.1626,-0.59439 -2.1495,-1.47287 -2.9062,-2.53125 -0.6317,-0.85115 -1.9419,-0.9165 -2.6426,-0.11523 -0.8796,0.95098 -2.14,2.10002 -1.7441,3.5371 0.5634,1.47502 2.2203,2.03284 3.5214,2.68946 3.5449,1.5626 7.1857,2.89609 10.7832,4.33203 -3.2017,1.40972 -6.7005,1.87369 -10.1152,2.47851 -1.433,0.28338 -3.2235,0.90239 -3.4863,2.55469 -0.3016,1.81799 0.804,4.12417 2.7949,4.31836 0.8152,0.0988 1.4522,-0.48286 1.9551,-1.02929 1.8271,-1.02616 3.7643,-1.6955 5.6933,-2.37891 0.9339,-0.31849 1.873,-0.61845 2.8106,-0.92578 -2.2219,1.96889 -4.4088,4.05776 -7.0332,5.48437 -1.5166,0.0781 -2.2393,1.73595 -2.252,3.07227 -0.081,1.326 0.4074,3.08876 1.875,3.41601 1.5424,0.0883 2.7354,-1.16864 3.7207,-2.19922 1.2259,-1.24942 2.5117,-2.33554 3.8301,-3.34179 -1.0595,2.04807 -2.347,3.97249 -3.834,5.73242 -0.7173,0.82403 -0.6602,2.18788 0.2949,2.80859 1.2226,0.98121 3.1011,1.79025 4.5196,0.72852 1.1662,-0.90316 1.0098,-2.51523 1.6601,-3.71875 0.8374,-2.00889 1.8362,-3.94505 2.8614,-5.86328 -0.032,3.21274 -0.061,6.42578 -0.043,9.63867 -0.5121,0.0385 0.1146,0.98511 0.086,1.40625 0.5801,1.26364 2.2401,1.44107 3.4688,1.29102 1.3737,-0.16666 1.8629,-1.67955 1.8984,-2.875 0.1703,-3.78522 -0.1753,-7.57222 -0.2871,-11.35547 1.7451,3.22327 3.6387,6.39339 4.8926,9.87109 -0.015,1.22692 1.0082,2.27176 2.2226,2.35742 1.4865,0.22407 3.4049,-0.76234 3.4141,-2.41797 -0.1813,-2.45051 -2.0436,-4.27298 -3.1699,-6.33007 -0.7574,-1.25111 -1.488,-2.52066 -2.1485,-3.82618 2.274,1.31904 4.2689,3.08963 5.9024,5.14453 0.751,0.92526 2.1163,1.49417 3.2012,0.78321 1.5489,-0.85118 2.8262,-2.80314 2.0546,-4.57031 -0.5174,-0.63722 -0.1495,-0.48927 0.459,-0.36133 1.2543,0.25897 2.6309,-0.4981 2.9004,-1.78907 0.2515,-1.26611 0.454,-2.84667 -0.4883,-3.88281 -0.6129,-0.65642 -1.5511,-0.48255 -2.3144,-0.28125 -2.7248,-0.15622 -5.3607,-1.02212 -7.916,-1.93359 -0.2466,-0.1321 -1.4378,-0.452 -0.7285,-0.4668 3.1033,-0.31218 6.2302,-0.28694 9.3378,-0.49805 1.5891,-0.17894 3.2384,-1.4175 3.1368,-3.15429 0.05,-1.69833 -1.5258,-3.57522 -3.3262,-3.11719 -0.7745,0.1655 -1.0728,1.04229 -1.877,1.13086 -1.4256,0.44012 -2.9076,0.67379 -4.3867,0.84766 2.6894,-1.3126 5.5516,-2.47647 7.7656,-4.54688 0.9743,-0.85053 1.3039,-2.38479 0.4981,-3.45898 -0.9408,-1.54125 -3.5768,-1.71621 -4.4492,-0.0215 -0.5553,0.71961 -1.4963,1.07317 -2.2383,1.58985 -3.0062,1.77071 -6.1581,3.27302 -9.2695,4.8457 1.8625,-2.8123 3.5048,-5.76332 5.3144,-8.60742 0.5571,-0.73945 1.1193,-1.53391 1.918,-2.02735 1.1712,0.0947 2.4157,-0.90239 2.1406,-2.14453 -0.3459,-1.52371 -1.6464,-2.65891 -2.9473,-3.41211 -0.8746,-0.55574 -2.2698,-0.33819 -2.6015,0.7461 -2.2432,4.01565 -4.8409,7.82319 -7.3203,11.69531 0.1244,-3.92536 0.446,-7.85092 0.3535,-11.7793 -0.026,-1.12799 -0.3192,-2.63279 -1.6231,-2.90039 -0.1815,-0.0386 -0.373,-0.0537 -0.5586,-0.0527 z"
   id="path6547" /><path
   style="fill:#000000"
   d="m 6894.7949,488.85742 c -0.096,0.007 -0.1949,0.0291 -0.2949,0.0664 -1.2293,0.46115 -1.3556,1.99814 -1.584,3.11328 -0.4755,3.6859 -0.4617,7.45276 0.1094,11.12695 0.1156,0.75114 0.3478,1.47824 0.5039,2.22071 -0.9949,-0.23155 -2.3722,-0.72938 -3.0977,0.2832 -0.6576,1.04469 0.1118,2.23202 0.2676,3.29492 -1.0654,0.0503 -2.4825,-0.0132 -3.0215,1.12305 -0.295,0.48926 -0.096,1.22539 -0.068,1.61914 -2.5215,-0.092 -4.9762,0.69962 -7.3653,1.41601 -2.1668,0.76626 -4.453,1.48329 -6.25,2.96875 -0.7038,0.71319 -1.8162,1.46675 -1.6503,2.59766 0.2146,1.03117 1.4974,1.03544 2.2812,0.68555 2.8518,-0.93184 5.3273,-3.00063 8.3926,-3.23438 2.1706,-0.0376 3.7136,1.76091 5.1894,3.10156 1.6699,1.628 3.4789,3.11477 5.127,4.76172 1.7502,2.16257 2.7094,4.83228 3.3867,7.49805 0.3158,0.88747 0.5106,2.09925 1.4844,2.47656 0.8295,0.24296 1.4667,-0.54546 1.5488,-1.31054 0.3142,-2.07523 -0.2673,-4.16414 -0.7598,-6.16797 -0.5694,-2.17558 -1.5562,-4.24533 -1.8867,-6.47852 1.382,0.13044 2.8034,-0.87786 2.8828,-2.31641 -0.108,-0.63351 0.5591,-0.75893 1.0352,-0.75781 1.1114,-0.22729 1.9741,-1.27683 1.9766,-2.41211 1.7064,-0.42686 3.5035,-0.15207 5.2441,-0.1289 2.5341,0.0825 5.0669,0.37993 7.6016,0.32226 0.541,-0.13428 1.0638,-0.36604 0.8515,-1.02148 0.2434,-0.71297 -0.4457,-0.89018 -0.9863,-1.04883 -3.3017,-0.79613 -7.0111,-0.80111 -9.7774,-3.02539 -1.6135,-1.354 -2.8938,-3.05645 -4.5293,-4.39258 -1.3537,-1.24717 -2.8773,-2.28065 -4.4101,-3.28906 -1.2323,-0.86118 -0.9442,-2.53011 -0.9551,-3.83008 0.065,-2.6684 0.5069,-5.36639 0.084,-8.02148 -0.1189,-0.65708 -0.6603,-1.29178 -1.3301,-1.24024 z"
   id="path6545" /><path
   style="fill:#000000"
   d="m 7116.6797,486.48633 c -0.063,-0.0109 -0.1044,0.11334 -0.1094,0.4707 -0.1375,0.8378 -0.2746,1.67588 -0.4121,2.51367 -0.061,1.35565 -0.03,2.71763 -0.1699,4.06836 -2.0617,-2.04312 -3.8674,-4.33184 -5.8203,-6.47851 -0.141,0.0627 0.2201,1.1231 0.2695,1.56445 0.3595,1.93549 0.9346,3.84005 1.1484,5.79688 0.065,0.78365 -0.374,-0.31037 -0.6425,-0.45508 -0.77,-0.77772 -2.2489,-1.44017 -3.1465,-0.51172 -0.7602,1.12448 0.088,2.46926 0.6894,3.46289 0.3443,0.57039 0.7658,1.139 0.8672,1.8125 -1.4171,0.52404 -3.0767,-0.0255 -4.414,0.82422 -0.9975,0.44322 -1.2901,1.91614 -0.3829,2.60156 1.16,0.99483 2.7693,0.72638 4.1602,0.96875 0.2795,0.2272 -0.5098,0.73842 -0.7285,0.99219 -1.3531,1.13219 -2.426,3.04833 -1.8028,4.82617 0.2974,0.78567 1.3348,0.95068 1.9805,0.49414 -0.5189,1.06665 0.4137,2.36799 1.584,2.24805 1.5239,0.008 2.5466,-1.25363 3.7266,-2.00391 0.4996,-0.2579 0.3864,0.78119 0.4863,1.07617 0.059,1.40194 -0.011,3.18133 1.3144,4.04883 0.9572,0.59108 2.0857,-0.2391 2.3516,-1.20508 0.2973,-0.76832 0.3915,-1.59729 0.4082,-2.41601 1.9477,2.30425 3.8991,4.60544 5.8555,6.90234 -0.4953,-2.6622 -1.1363,-5.301 -1.5469,-7.97656 -0.05,-0.45519 -0.046,-1.39084 0.3457,-0.52149 0.9472,1.22968 2.7833,1.73675 4.2324,1.18946 0.9613,-0.50049 0.7545,-1.78226 0.1114,-2.46094 -0.7292,-0.94453 -1.5831,-1.78211 -2.3907,-2.6582 2.9473,-0.77016 5.8946,-1.54038 8.8399,-2.31836 -2.6228,-0.6704 -5.2468,-1.33578 -7.8711,-2 1.946,-2.11977 3.8914,-4.24007 5.8379,-6.35938 -2.2054,0.52532 -4.4075,1.06495 -6.6153,1.58008 0.5517,-1.10458 1.3246,-2.51793 0.6055,-3.71289 -0.7099,-1.03269 -2.169,-0.60256 -3.0039,0.0352 -0.8244,0.53273 -1.4807,1.27674 -2.2676,1.85742 -1.1255,-2.36146 -1.6009,-4.99639 -2.9336,-7.26563 -0.1789,-0.28805 -0.419,-0.96631 -0.5566,-0.99023 z"
   id="path6543" /><path
   style="fill:#000000"
   d="m 6481.3477,484.00781 c -1.2279,0.19269 -1.3846,1.67849 -1.4942,2.6875 -0.3837,4.84448 0.4721,9.6467 0.1309,14.48828 -0.2422,-0.0605 -0.5992,-0.75903 -0.8574,-1.05664 -2.7656,-4.08454 -5.0213,-8.55273 -8.3633,-12.2207 -0.5819,-0.72792 -1.5738,-1.14901 -2.459,-0.70703 -1.4215,0.47367 -1.7269,2.54517 -0.5547,3.44922 1.0919,0.60841 1.703,1.76401 2.459,2.72656 2.1071,2.93685 3.9983,6.01921 5.9512,9.05859 -4.7149,-2.40743 -9.3986,-4.88733 -14.1465,-7.22265 -1.1329,-0.42498 -2.0743,0.80711 -1.9688,1.86523 0.041,1.23592 1.3098,1.90162 2.1739,2.58399 2.8262,1.93664 5.936,3.39669 9.0097,4.88867 -2.7631,-0.26262 -5.5842,-0.41182 -8.2422,-1.26563 -0.4375,-1.21111 -2.1198,-1.74338 -3.0742,-0.80078 -1.2876,1.1597 -1.2982,3.76776 0.4649,4.4961 2.0353,0.79042 4.281,0.61043 6.4218,0.78125 1.7785,0.093 3.5694,0.17874 5.3164,0.54687 -2.8239,1.23675 -5.8324,1.98649 -8.7871,2.8418 -1.141,0.35926 -2.7325,0.2985 -3.2461,1.62695 -0.4285,1.23415 0.1403,2.57276 0.75,3.64453 0.5747,0.87178 1.8719,0.6614 2.3887,-0.16015 0.6801,-0.93745 1.9014,-1.23716 2.8809,-1.76954 1.8657,-0.83584 3.7731,-1.5745 5.7031,-2.24804 -2.7961,1.99466 -5.7138,3.82922 -8.5,5.82812 -0.7657,0.88352 0.068,2.04862 0.7441,2.7168 0.6878,0.73788 1.8264,1.66384 2.8379,0.94727 0.6425,-0.45768 0.7095,-1.35781 1.3906,-1.79883 2.2347,-2.11053 4.7037,-3.96504 7.2325,-5.70703 -1.8525,3.77803 -4.1913,7.29761 -6.0118,11.08984 -0.4391,0.81642 -0.4982,2.12904 0.5274,2.51367 1.1841,0.43112 2.6374,0.11159 3.3769,-0.96094 0.9257,-1.11864 1.0597,-2.63194 1.7735,-3.87109 1.4065,-2.97712 3.0872,-5.81267 4.7676,-8.64062 -0.078,4.48689 -0.4656,8.99904 0.041,13.47265 0.1042,0.91491 0.4643,2.23921 1.6133,2.16602 1.2196,-0.17408 1.3531,-1.6328 1.4843,-2.6211 0.4068,-4.10004 -0.045,-8.21824 0.053,-12.32617 1.8371,3.14396 3.5302,6.40217 4.7324,9.8457 0.2092,0.74222 0.1201,1.58445 0.7383,2.21094 1.0752,1.42668 3.6301,1.06802 4.1914,-0.65625 0.5403,-1.42404 -0.1851,-2.9315 -1.127,-3.99805 -1.558,-2.41371 -2.9421,-4.93265 -4.3359,-7.44335 2.3361,2.01853 4.7766,4.01058 6.5566,6.56054 0.2071,0.65251 0.2636,1.45771 0.9141,1.87305 1.2425,0.92359 2.9418,-0.0775 3.5351,-1.30664 0.7226,-1.2485 0.7403,-3.299 -0.7519,-3.98242 -0.6269,-0.12499 -1.2294,-0.30066 -1.7305,-0.73242 -2.2691,-1.62898 -4.2185,-3.64816 -6.1094,-5.69141 2.8289,0.97646 5.6861,1.94161 8.3497,3.31641 0.8276,0.73618 2.1779,1.11653 3.08,0.2871 0.8981,-0.90969 1.5938,-2.12447 1.7539,-3.40429 0.1611,-1.12134 -1.0119,-1.97215 -2.0546,-1.69141 -0.6447,0.20543 -1.3003,0.31692 -1.9727,0.14453 -3.6669,-0.61059 -7.2775,-1.58194 -10.7813,-2.82031 4.5053,-2.12934 9.3459,-3.62779 13.5118,-6.41992 0.7817,-0.52389 1.6492,-1.36389 1.2988,-2.39844 -0.218,-1.50944 -2.2535,-2.32415 -3.3848,-1.23633 -0.4038,0.43494 -0.7184,0.92494 -1.3047,1.14453 -3.1226,1.71033 -6.3261,3.18034 -9.6113,4.66602 -0.6234,0.28046 -1.2971,0.56508 -1.8848,0.81641 2.6244,-3.47097 5.3066,-6.82753 8.3184,-9.97071 0.494,-0.58326 1.4223,-0.75247 1.5996,-1.5957 0.541,-1.80214 -1.3165,-4.01551 -3.209,-3.4707 -1.3924,0.57922 -1.6809,2.17548 -2.4082,3.32422 -1.0056,1.59118 -2.223,3.12394 -3.4199,4.51367 0.976,-2.84586 2.0158,-5.67327 3.0254,-8.50391 0.389,-1.05565 -0.3313,-2.31803 -1.4844,-2.39062 -1.6334,-0.37357 -3.2141,1.09483 -3.1699,2.7207 -0.428,2.77339 -1.4107,5.43052 -2.293,8.08594 -0.1517,0.33495 -0.4823,1.58314 -0.5175,1.26953 0.052,-4.08903 0.3443,-8.21281 -0.2305,-12.27735 -0.1382,-0.8405 -0.568,-1.95838 -1.6113,-1.83203 z"
   id="path6541" /><path
   style="fill:#000000"
   d="m 7903.0703,478.69922 c -0.1748,-0.0113 -0.3555,0.0203 -0.5312,0.10742 -1.1518,0.54086 -1.1374,2.01897 -1.293,3.10938 -0.3804,3.71233 0.035,7.44668 0.072,11.11132 -0.01,0.56511 5e-4,1.13909 -0.1231,1.69336 -0.922,-0.28737 -2.2629,-0.44673 -2.748,0.61719 -0.3782,0.87642 0.1371,1.79896 0.25,2.6543 -1.5641,-0.0851 -2.813,1.43059 -2.7051,2.9375 -0.1547,0.63177 -1.051,0.51912 -1.5664,0.63476 -3.2531,0.0118 -6.3892,1.05656 -9.3496,2.32422 -1.6614,0.79333 -3.4746,1.53044 -4.6953,2.96289 -0.6289,0.68459 -0.4781,1.97097 0.5234,2.18946 1.5724,0.17337 3.0423,-0.65212 4.4492,-1.24219 2.2282,-0.98228 4.474,-2.17065 6.9414,-2.35352 0.9835,-0.1181 1.7248,0.70412 2.0117,1.52539 1.2766,2.19407 3.4965,3.63205 5.7188,4.73828 2.5689,1.42206 3.6611,4.35108 4.3008,7.05469 0.4662,1.70925 0.5895,3.47794 1.1523,5.16016 0.2837,0.72684 1.4409,0.89087 1.8203,0.18359 0.4671,-0.88055 0.4563,-1.95497 0.5313,-2.9375 -0.091,-3.84907 -1.3082,-7.55845 -2.3828,-11.1914 -0.08,-0.38017 -0.5496,-1.30351 0.3593,-0.98047 1.1319,0.10528 2.6174,-0.39617 2.6856,-1.72071 0.1252,-0.41651 -0.2804,-1.02894 -0.1348,-1.27148 1.2194,0.0582 2.6658,-1.01424 2.6406,-2.39844 0,-0.38643 0.6345,-0.11143 0.8653,-0.125 4.4931,0.66018 9.0269,0.98303 13.5449,1.42578 0.8119,-0.19987 1.6237,-0.39974 2.4356,-0.59961 -1.0082,-0.5741 -1.8745,-1.47573 -3.0743,-1.60742 -3.1847,-0.85249 -6.4624,-1.41558 -9.5488,-2.59765 -1.3808,-0.50553 -2.4519,-1.60086 -3.0371,-2.9375 -1.0439,-1.72261 -2.5519,-3.29501 -4.5332,-3.87305 -2.3962,-1.09388 -3.3319,-3.87843 -3.4688,-6.33008 -0.2477,-2.42293 0.5326,-4.86868 0.031,-7.27148 -0.1448,-0.53079 -0.6182,-0.95824 -1.1426,-0.99219 z"
   id="path6539" /><path
   style="fill:#000000"
   d="m 8928.3477,470.00781 c -1.2271,0.19307 -1.3847,1.67861 -1.4942,2.6875 -0.3823,4.84974 0.4704,9.65668 0.1348,14.50391 -0.1868,0.15903 -0.6215,-0.75274 -0.8867,-1.00195 -2.1944,-3.25115 -4.229,-6.59316 -6.0664,-9.98438 -0.5002,-0.94302 -1.0295,-1.89422 -1.2032,-2.95117 -0.4229,-1.23453 -1.9627,-1.5503 -3.041,-1.01367 -1.3119,0.57078 -1.3192,2.25549 -0.8515,3.40039 1.2644,3.29908 3.4884,6.10269 5.3339,9.08398 0.3483,0.53476 0.6975,1.06834 1.0391,1.60742 -4.2385,-1.84948 -8.231,-4.22054 -12.418,-6.16992 -1.1641,-0.23258 -1.8121,1.06543 -1.8535,2.04883 -0.2545,1.48066 0.3632,3.32373 1.9629,3.7207 1.8221,0.21752 3.5205,1.15244 5.1465,1.83594 1.8554,0.84968 3.6855,1.75289 5.4863,2.71289 -3.7683,-0.58994 -7.5421,-1.21669 -11.2383,-2.15625 -1.1344,-0.29348 -2.4024,0.55069 -2.3886,1.76367 -0.1673,1.4172 1.2951,2.20233 2.4648,2.50586 3.0799,0.83433 6.2844,1.02941 9.4375,1.44141 -3.3837,1.1641 -6.9243,2.12788 -9.9277,4.13867 -0.7827,0.48323 -1.2169,1.42498 -0.8848,2.31641 0.2337,1.25513 1.7424,1.8176 2.8223,1.24609 0.9052,-0.41175 1.5697,-1.21195 2.541,-1.51172 1.8149,-0.78995 3.6837,-1.45075 5.5664,-2.05859 -1.751,1.25007 -3.4946,2.43463 -5.2871,3.42969 -0.7021,0.50171 -1.7438,0.36353 -2.2207,1.1914 -1.0015,1.31613 -0.5407,3.66584 1.209,4.0586 1.6066,0.42905 3.1708,-0.58142 4.1406,-1.79493 2.0001,-1.8226 4.1901,-3.39956 6.4101,-4.99804 -1.8246,3.23625 -3.6007,6.4309 -5.6308,9.54687 -0.9356,1.69777 0.133,4.33058 2.2109,4.38867 1.3211,0.002 1.9499,-1.44474 2.3399,-2.50586 0.8486,-2.68988 2.3131,-5.13633 3.6562,-7.60156 0.6732,-1.17891 1.3702,-2.34321 2.0547,-3.51562 -0.077,4.37793 -0.4698,8.79283 0.1641,13.14648 0.1146,0.87074 0.5272,1.8076 1.4687,2.02149 0.7667,0.37598 1.3372,1.06518 2.0274,1.5625 -0.1803,-5.53191 -0.3642,-11.06369 -0.5411,-16.59571 1.8576,3.32722 3.8859,6.59268 5.254,10.16211 0,1.30938 1.2397,2.51477 2.5898,2.31446 1.4471,-0.0878 3.1006,-1.42833 2.6816,-2.99805 -0.1637,-0.80464 -1.1165,-0.92865 -1.4238,-1.64453 -1.5128,-2.26493 -2.7092,-4.65858 -3.8555,-7.10157 2.6223,2.51182 4.9082,5.42635 7.9239,7.49415 1.0421,0.73187 2.4452,-0.15294 2.6562,-1.30274 0.3741,-1.33693 -0.08,-3.04098 -1.4512,-3.60352 -2.5555,-1.92538 -4.897,-4.1162 -7.2792,-6.24804 3.4069,1.12874 6.806,2.4288 10.3828,2.89453 1.8868,0.25713 3.3067,-2.46932 1.914,-3.82813 -0.594,-0.59286 -1.4501,-0.4709 -2.1875,-0.33789 -2.8532,-0.33821 -5.5774,-1.34982 -8.3066,-2.20507 -1.1069,-0.37692 -2.2145,-0.7508 -3.3106,-1.15821 4.2916,-2.5267 9.2262,-3.87566 13.2481,-6.87695 0.7717,-0.52536 1.4112,-1.4428 1.039,-2.40625 -0.2862,-1.44669 -2.2312,-2.2181 -3.3476,-1.17578 -0.4192,0.43385 -0.7067,0.9659 -1.3106,1.1875 -3.2152,1.76893 -6.489,3.23426 -9.9101,4.55078 -0.6868,0.30823 0.4435,-0.71401 0.5566,-0.99023 2.2077,-2.77524 4.3551,-5.61805 6.8203,-8.17188 1.3434,-0.54933 1.7461,-2.52696 0.5918,-3.4707 -0.8396,-0.80309 -2.2129,-0.69601 -3.0078,0.11718 -2.248,1.89562 -4.0445,4.2509 -5.8496,6.55469 0.721,-2.26175 1.2381,-4.66314 2.5801,-6.6582 1.0103,-0.59769 1.1731,-2.05139 0.4004,-2.9082 -0.6811,-0.81282 -1.6157,-1.96686 -2.8145,-1.5625 -1.2345,0.61976 -1.5184,2.13549 -2.0136,3.30468 -0.8297,2.37523 -1.5764,4.77834 -2.3516,7.17188 0.042,-3.30099 0.2485,-6.64016 -0.3047,-9.91016 -0.1435,-0.80481 -0.6223,-1.81908 -1.5976,-1.69336 z"
   id="path6537" /><path
   style="fill:#000000"
   d="m 7813.7773,469.23828 c -1.8135,-0.03 -3.5766,1.07726 -4.2246,2.79297 -1.0444,2.45545 -0.5189,5.82501 1.92,7.25195 2.3973,1.57209 5.8041,0.52704 7.2949,-1.81054 1.4955,-2.11718 1.2623,-5.51262 -1.0039,-7.00782 -1.144,-0.83198 -2.5786,-1.24231 -3.9864,-1.22656 z"
   id="path6535" /><path
   style="fill:#000000"
   d="m 8713.3965,467.28125 c -0.1043,-8e-4 -0.2129,0.0142 -0.3281,0.0488 h -0 c -1.0558,0.33318 -1.0676,1.68327 -1.1797,2.60742 -0.415,5.13004 0.4729,10.27373 0.068,15.40234 -1.9184,-2.43577 -3.4547,-5.14666 -5.0761,-7.7832 -1.0184,-1.8076 -2.1593,-3.57901 -2.8848,-5.52734 0,-1.26267 -1.2522,-2.3194 -2.5,-1.99024 -1.2626,0.0941 -2.1103,1.39325 -1.8516,2.59766 0.4706,2.4339 1.9768,4.49523 3.2813,6.54883 1.4476,2.18792 2.995,4.32061 4.2422,6.63281 -3.2967,-1.39513 -6.4947,-3.04351 -9.5391,-4.92774 -0.552,-0.45415 -1.3952,-0.73981 -1.6914,-1.40234 -0.2878,-1.41423 -2.3534,-2.05141 -3.2578,-0.83203 -0.9057,1.16542 -0.8775,3.00298 0.3027,3.98047 2.172,2.00128 4.9737,3.11332 7.5957,4.38867 0.709,0.33061 1.418,0.66158 2.127,0.99219 -3.0438,-0.43822 -6.0691,-1.00912 -9.0782,-1.62891 -1.1537,-0.25833 -2.5565,0.42723 -2.6113,1.71485 -0.2021,1.35306 1.1538,2.1608 2.2891,2.42773 3.4766,0.88035 7.089,0.97071 10.6406,1.35547 0.9568,-0.0115 -0.3897,0.31745 -0.6738,0.46094 -2.9186,1.08973 -5.9598,1.7815 -8.9512,2.62695 -1.1092,0.40447 -2.4061,0.66993 -3.1816,1.63086 -0.5161,1.19168 0.4588,2.63346 1.7441,2.69336 2.2268,0.12553 4.3551,-0.73777 6.4453,-1.39063 1.1489,-0.38868 2.2934,-0.78889 3.4356,-1.19726 -1.6787,1.32566 -3.4845,2.55622 -5.5313,3.22265 -1.4079,0.6691 -2.7156,2.34178 -2.1094,3.94922 0.5236,1.21824 2.1895,1.39908 3.2032,0.69531 3.2017,-1.71697 6.0186,-4.03513 9.0019,-6.08789 -1.5912,3.00377 -3.2402,6.00315 -5.3144,8.70313 -0.7559,1.13579 -1.0681,2.85752 0.062,3.87109 0.8826,1.08666 2.849,1.28615 3.6113,-0.0371 0.4154,-0.72019 0.3389,-1.60676 0.7891,-2.32617 1.59,-3.52442 3.583,-6.84641 5.4921,-10.20312 -0.086,4.13916 -0.4734,8.30467 0.029,12.42968 0.094,0.91484 0.5469,2.21637 1.6836,2.0586 1.2022,-0.24279 1.3059,-1.71015 1.4453,-2.70703 0.3343,-3.44787 0.091,-6.91506 0.01,-10.36914 1.8378,3.50901 3.5036,7.18195 6.0879,10.22265 0.5322,0.69043 1.3881,1.02127 2.2422,0.83399 1.0515,-0.0186 1.6777,-1.19936 1.2598,-2.12305 -0.9254,-2.35014 -2.3952,-4.43974 -3.6075,-6.64648 -0.4798,-0.82464 -0.952,-1.65318 -1.4062,-2.49219 2.5288,2.33809 4.8812,4.99194 7.9609,6.62304 0.7498,0.4258 1.7158,0.3494 2.2989,-0.32031 1.0794,-0.8252 1.4338,-2.6946 0.2363,-3.57226 -0.5967,-0.49719 -1.4538,-0.35001 -2.0078,-0.92774 -2.7394,-1.98307 -5.289,-4.21885 -7.793,-6.48828 3.7284,1.14732 7.3666,2.72717 11.2578,3.24414 1.0517,0.14606 2.239,-0.0547 2.8672,-1 0.7477,-0.68309 0.5728,-1.98981 -0.3652,-2.40625 -1.8809,-0.91805 -3.983,-1.25427 -5.9844,-1.82812 -2.6174,-0.66775 -5.2413,-1.34305 -7.7813,-2.26953 4.3649,-2.64602 9.5144,-3.83115 13.6192,-6.92969 0.7508,-0.5297 1.2134,-1.45274 0.8965,-2.36328 -0.1742,-1.01787 -1.3868,-1.69474 -2.2813,-1.06836 -3.8786,1.90117 -7.8089,3.69496 -11.7539,5.45312 2.1613,-3.05157 4.7511,-5.87158 6.6895,-9.11718 0.6217,-1.0166 1.1524,-2.56921 0.086,-3.48047 -0.9031,-0.82461 -2.6042,-0.96862 -3.2637,0.23047 -1.0508,2.32537 -2.7139,4.31295 -4.1972,6.37304 -0.3248,0.38618 -0.8937,1.22963 -1.0645,1.32617 0.8646,-2.49203 1.6472,-5.05133 2.959,-7.35156 0.8998,-0.99321 0.9611,-2.62984 -0.035,-3.58008 -0.5987,-0.70789 -1.5491,-1.64429 -2.5332,-1.05273 -1.0665,0.76611 -1.3132,2.19119 -1.7968,3.33984 -0.8766,2.51856 -1.7001,5.0536 -2.543,7.58399 0.011,-3.77922 0.1683,-7.60122 -0.4942,-11.33789 -0.1017,-0.69118 -0.5591,-1.49828 -1.289,-1.50391 z"
   id="path6533" /><path
   style="fill:#000000"
   d="m 6690.3691,445.87891 c -0.1213,-0.0114 -0.2445,0.005 -0.3632,0.0566 -1.1442,0.40019 -1.4931,1.78525 -1.6621,2.86914 -0.4514,2.62391 -0.05,5.27598 0.047,7.9082 -0.052,0.41095 0.097,1.09388 -0.2558,1.29883 -1.2687,0.0753 -1.9704,1.55077 -1.4903,2.66016 0.3198,0.56952 -0.6008,0.22187 -0.9023,0.42773 -0.8057,0.16848 -1.5105,0.95963 -1.3281,1.8125 -1.446,0.11513 -2.9105,0.20446 -4.3008,0.67187 -2.2633,0.7178 -4.582,1.57286 -6.4024,3.14258 -0.7582,0.59226 -1.0663,1.97418 -0.07,2.49219 1.2715,0.49509 2.606,-0.28408 3.752,-0.79687 1.6365,-0.78002 3.4898,-1.67088 5.3398,-1.2129 0.8152,0.27679 0.8089,1.31693 1.459,1.79883 0.9117,1.04434 2.2066,1.58568 3.4102,2.19531 2.2542,1.70675 2.8683,4.62873 4.0175,7.0625 0.4495,0.83356 0.8106,2.0685 1.8731,2.23438 0.92,0.1727 1.3929,-0.95135 1.2266,-1.72656 -0.31,-3.00814 -1.6168,-5.80366 -2.084,-8.77735 1.378,5.4e-4 2.4598,-1.28507 2.3945,-2.625 0.4942,-0.96448 1.7692,-1.07563 2.7207,-1.29492 3.2528,-0.51257 6.5691,-0.16001 9.8359,-0.26953 0.7743,-0.24955 1.548,-0.49851 2.3223,-0.74805 -1.0869,-0.52182 -2.0703,-1.34267 -3.3203,-1.39453 -2.3307,-0.4101 -4.7845,-0.66004 -6.8106,-2 -2.5646,-1.60137 -4.7138,-3.78006 -6.7226,-6.01758 -1.1092,-1.1841 -1.5386,-2.81822 -1.4649,-4.41015 -0.071,-1.57534 0.2541,-3.2369 -0.3105,-4.7461 -0.1946,-0.29634 -0.546,-0.57715 -0.9102,-0.61132 z"
   id="path6531" /><path
   style="fill:#000000"
   d="m 6407.1953,443.10352 0.6699,3.60937 c 0.2562,1.28286 0.603,2.54993 0.7871,3.8457 -1.1235,-0.74117 -1.9976,-2.13216 -3.4628,-2.16015 -1.0564,0.0913 -1.354,1.37963 -0.9141,2.19726 0.4591,1.23888 1.3801,2.24847 2.0644,3.33789 -1.4437,0.79936 -3.2094,0.98805 -4.5019,2.05079 -0.3783,0.42203 -0.3603,1.16848 0.098,1.5039 0.9809,0.79448 2.5064,0.088 3.4747,0.87305 -0.28,1.62172 -1.7415,2.68232 -2.4512,4.11328 -0.5259,0.74617 -0.6403,2.06733 0.3945,2.42187 0.6128,0.18966 1.2317,-0.10959 1.7422,-0.43359 -0.3758,0.85626 0.2482,1.94339 1.2227,1.87891 1.5171,-0.0833 2.7012,-1.16789 3.9746,-1.86914 0.4948,1.47468 0.5198,3.11727 1.2636,4.49804 0.3112,0.4269 0.8478,0.68516 1.334,0.36719 0.8664,-0.42239 0.7565,-1.60497 0.9942,-2.41601 0.061,-0.72668 0.4368,-0.87062 0.8515,-0.23829 0.9696,0.88277 1.4932,2.19128 2.5547,2.96289 0.7425,0.49227 1.727,-0.23763 1.6152,-1.08789 -0.1113,-1.42277 -0.5465,-2.79977 -0.7265,-4.21484 1.4497,0.50491 2.8443,1.31789 4.3887,1.45898 0.9948,0.0407 1.456,-1.2565 0.8183,-1.95898 -0.7665,-1.07924 -1.7367,-1.99644 -2.6035,-2.99414 1.4173,-0.40672 2.9472,-0.54274 4.2617,-1.23438 0.4081,-0.29263 0.7361,-0.9054 0.3867,-1.36132 -0.4727,-0.92727 -1.7302,-0.8011 -2.6015,-1.09766 -0.6506,-0.0466 -0.8932,-0.43895 -0.2891,-0.83789 0.9886,-0.95219 2.3987,-1.89154 2.416,-3.4082 -0.01,-1.17648 -1.4286,-1.64028 -2.3769,-1.22461 -0.7262,0.19857 -1.3515,0.64052 -2.0547,0.89648 0.7144,-1.13767 2.1408,-2.05443 2.0625,-3.5332 -0.1448,-1.05572 -1.4696,-1.24037 -2.2422,-0.73242 -1.217,0.53706 -2.0159,1.70106 -3.2207,2.23632 -0.8363,0.35407 -1.1463,-0.74044 -1.1172,-1.36718 -0.022,-1.37657 -0.4263,-3.04956 -1.7812,-3.6875 -1.1262,-0.40293 -2.019,0.76144 -2.1133,1.77734 -0.1039,0.48013 -0.1237,0.97336 -0.1367,1.46289 -1.5488,-1.9164 -3.1417,-3.79542 -4.7813,-5.63476 z"
   id="path6529" /><path
   style="fill:#000000"
   d="m 9033.9922,440 c -0.098,-0.0103 -0.2019,-0.006 -0.3125,0.0156 -1.2429,0.21785 -1.3205,1.74569 -1.2461,2.75977 0.3751,2.83312 0.9996,5.63056 1.418,8.45899 0.863,5.34307 1.6718,10.62901 2.2949,15.99609 0.07,0.47904 0.2045,1.25457 -0.3008,0.50391 -2.605,-2.82077 -4.8213,-5.97406 -7.3984,-8.81641 -0.8447,-0.79176 -1.6956,-1.94648 -2.9707,-1.9082 -0.8529,0.17954 -1.1028,1.20455 -0.7051,1.90429 1.9736,3.80228 5.0448,6.87321 7.4687,10.375 0.7646,0.84373 0.058,0.48639 -0.5761,0.1875 -6.89,-2.96892 -13.3998,-6.77287 -20.4004,-9.48828 -0.6311,-0.22877 -1.4607,-0.47713 -2.002,0.0137 -0.2997,0.42418 -0.4185,0.90806 -0.088,1.35157 1.0346,1.14276 2.5211,1.75166 3.8086,2.56445 5.9904,3.42981 12.4416,6.05345 18.1406,9.98437 0.5631,0.29206 0.7677,0.6518 0.057,0.87891 -3.6483,1.91128 -7.8959,2.29346 -11.4844,4.34375 -0.947,0.50634 -0.9818,2.14987 -0.021,2.63477 1.1765,0.36185 2.354,-0.32744 3.4903,-0.57618 2.9378,-0.88315 5.954,-1.98034 8.9043,-2.53125 -2.4647,3.15245 -5.6961,5.67332 -7.8457,9.07422 -0.4935,0.68964 -0.1381,1.8577 0.7929,1.85352 1.1487,-0.0822 1.9645,-1.08497 2.8457,-1.73047 2.1688,-1.86263 4.088,-4.00151 6.3321,-5.7793 -1.2851,3.937 -3.3441,7.58345 -4.5508,11.54883 -0.3214,0.85336 -0.1763,2.13065 0.875,2.3457 1.175,0.28035 1.7718,-1.04763 2.2656,-1.87304 2.0246,-3.66742 3.2423,-7.62026 5.1309,-11.33008 0.1409,2.91563 0.1194,5.84149 0.414,8.75 0.2551,2.54284 0.4768,5.12501 1.2168,7.58008 0.1926,0.58104 0.696,0.95434 1.3145,0.88672 0.6937,-0.13329 0.9742,-0.99213 0.998,-1.6504 0.3306,-5.75963 -0.7788,-11.50733 -0.3476,-17.26757 3.8977,3.44901 6.8768,7.71126 10.3925,11.52343 0.5984,0.557 1.1234,1.61535 2.0782,1.39844 1.0696,-0.14261 1.3617,-1.45657 0.8847,-2.29101 -1.1471,-2.38591 -2.9574,-4.37189 -4.5996,-6.42383 -1.9476,-2.4011 -4.1428,-4.66857 -5.5683,-7.4375 -0.077,-0.41065 0.9097,-0.12271 1.2519,-0.19336 5.2065,0.39024 10.2978,1.64221 15.4238,2.57226 1.5274,0.23037 3.0508,0.7119 4.6036,0.63672 0.8975,-0.10016 1.2634,-1.24607 0.6816,-1.90039 -0.5872,-1.147 -2.0299,-1.23002 -3.1172,-1.60742 -5.8642,-1.56901 -11.9536,-2.1063 -17.793,-3.77734 2.1549,-1.5135 4.4876,-2.47022 6.7579,-3.82617 0.827,-0.57824 2.0928,-1.09044 2.1503,-2.23438 -0.038,-0.97242 -1.1889,-1.21547 -1.9648,-0.95508 -3.0752,0.73481 -5.8464,2.36325 -8.9004,3.16992 1.4537,-3.8318 4.0185,-7.20871 4.9629,-11.23632 0.2545,-0.82266 -0.3025,-1.92097 -1.2656,-1.7461 -1.1831,0.34745 -1.7269,1.63518 -2.4102,2.56055 -1.7854,2.86611 -3.138,5.97845 -4.9824,8.81055 -1.0136,-4.27883 -1.6274,-8.73604 -2.3398,-13.125 -0.7548,-4.51009 -1.1517,-9.1119 -2.4961,-13.5 -0.1959,-0.61649 -0.5817,-1.40623 -1.2676,-1.47852 z"
   id="path6527" /><path
   style="fill:#000000"
   d="m 8959.0742,432.00586 c -1.0127,0.0872 -1.181,1.33842 -0.8535,2.11719 0.9934,2.66112 1.798,5.40727 2.2988,8.20507 0.2825,1.66047 -1.1776,2.85485 -2.166,3.96485 -2.6039,2.54427 -5.0885,5.31035 -8.2461,7.18555 -2.2564,1.3797 -5.0315,1.15465 -7.4101,2.21289 -0.668,0.22493 -1.331,0.84335 -1.2325,1.57226 0.3755,1.04567 1.6204,0.96754 2.5332,0.92383 3.9982,-0.25569 7.9537,-0.98889 11.8516,-1.89258 -0.3298,1.12302 -0.5486,2.67331 0.6094,3.4043 0.4348,0.43866 1.3203,0.0242 1.5254,0.68945 -0.059,1.51286 1.3791,2.73021 2.8457,2.62695 -0.1412,1.53823 -0.613,3.03111 -0.7696,4.57422 -0.352,2.75661 -0.762,5.53182 -0.6835,8.31641 0.1404,0.4119 0.4839,1.40772 0.9726,1.12695 0.5425,-0.20791 1.0686,-0.50782 1.1465,-1.13867 0.8258,-3.00493 1.3631,-6.07911 2.5957,-8.96875 0.4083,-1.12978 1.4849,-1.72254 2.543,-2.12305 2.4971,-1.34087 4.4511,-3.46025 6.2441,-5.61132 1.2073,-1.43872 3.0463,-2.35484 4.9473,-2.18946 2.4831,0.0379 4.7757,1.18884 7.2363,1.34571 0.9104,0.13366 2.1346,-0.44424 1.9199,-1.51758 -0.2449,-1.4009 -1.8502,-1.84046 -3.041,-2.13281 -4.1276,-0.902 -8.3784,-0.52297 -12.5605,-0.82032 -0.444,-0.0343 -0.9772,-0.0476 -0.6426,-0.60156 0.3009,-1.17991 -0.7844,-2.20615 -1.918,-2.22266 -0.4681,-0.12902 -1.2724,0.0817 -1.5195,-0.20898 0.5172,-1.04583 0.014,-2.49959 -1.1992,-2.73437 -0.455,-0.22578 -1.2856,0.15613 -1.3848,-0.55274 -0.5158,-2.12147 -0.2244,-4.34558 -0.6836,-6.48242 -0.4244,-2.62932 -1.1958,-5.25893 -2.7871,-7.4336 -0.535,-0.70062 -1.1667,-1.72596 -2.1719,-1.63476 z"
   id="path6525" /><path
   style="fill:#000000"
   d="m 7907.0352,407.75391 c -0.1778,0.0137 -0.3098,0.23739 -0.4786,0.33789 -0.7284,0.6437 -0.4816,1.77902 -0.5332,2.65625 0.6671,6.93999 2.0053,13.79531 2.8614,20.71289 0.1474,1.22508 0.3195,2.63775 0.4062,3.82812 -3.3387,-3.46597 -5.8376,-7.69661 -9.4961,-10.85937 -0.7819,-0.80013 -2.4847,-0.44461 -2.4922,0.80078 0.2087,1.35323 1.2939,2.34714 2.0469,3.42969 2.1231,2.78698 4.4865,5.38879 6.4883,8.26757 -6.9646,-2.73183 -13.5739,-6.33172 -20.6094,-9.00781 -0.8857,-0.30205 -1.915,-0.85094 -2.793,-0.23437 -0.1851,0.47964 -0.37,0.96167 0.012,1.39648 1.3386,1.23396 3.0481,1.97525 4.6035,2.89649 6.0634,3.35696 12.4271,6.15412 18.3183,9.82421 -3.6648,1.76027 -7.8163,2.32775 -11.3496,4.38282 -0.8853,0.46112 -0.9927,1.93548 0.031,2.29297 1.3606,0.38296 2.7752,-0.16569 4.1094,-0.45118 2.4684,-0.5973 4.8928,-1.63239 7.3086,-2.22265 -2.5431,2.96587 -5.8956,5.23387 -7.9532,8.60547 -0.5072,0.73626 -0.3802,1.98695 0.6114,2.21289 1.284,0.15308 2.3322,-0.85841 3.3164,-1.54102 2.1029,-1.5846 3.8477,-3.57133 5.8574,-5.26367 -1.2645,3.50351 -3.0836,6.78035 -4.0996,10.40039 -0.2171,0.67866 -0.1654,1.61948 0.625,1.86328 0.5958,0.28023 1.2659,-0.2989 1.6015,-0.79687 2.1833,-3.32912 3.6841,-7.04331 5.4356,-10.60547 0.3016,-0.75259 0.1674,0.83909 0.2676,1.16797 0.4124,4.98906 0.6078,10.01299 1.4824,14.94922 0.077,0.66257 0.5456,1.13891 1.1679,1.33007 0.654,-0.21384 1.1041,-0.75731 1.1036,-1.46093 0.3733,-5.83188 -0.4839,-11.66617 -0.1778,-17.49805 -0.082,-0.81598 0.2535,-0.70155 0.6836,-0.17578 3.825,3.60674 6.7124,8.10642 10.7188,11.52929 0.6147,0.63302 1.8891,0.6876 2.2265,-0.25 0.3411,-1.09658 -0.6183,-2.04283 -1.1582,-2.90429 -2.659,-3.61775 -5.7007,-6.93245 -8.4629,-10.4668 -0.3674,-0.52681 -0.818,-1.09278 -0.914,-1.72266 1.7357,-0.42539 3.5437,0.0247 5.2851,0.22461 3.1425,0.50736 6.4469,1.21751 9.6621,1.76172 1.9654,0.28893 3.9272,0.81448 5.9239,0.75 0.6935,-0.0182 1.4094,-0.40268 1.4824,-1.15039 -0.1197,-1.18698 -1.494,-1.46246 -2.4336,-1.79492 -5.2063,-1.58677 -10.7939,-2.07658 -16.0039,-3.24414 -0.8674,-0.2167 -1.7551,-0.412 -2.5566,-0.82031 2.3517,-1.91636 5.3712,-2.80201 7.748,-4.6836 0.67,-0.46306 0.775,-1.59112 -0.019,-1.96679 -1.0967,-0.40588 -2.2437,0.22223 -3.3047,0.49414 -2.0982,0.67095 -4.1125,1.66314 -6.3164,1.95312 1.0446,-3.78884 3.6364,-6.97482 4.4726,-10.83203 0.2429,-0.88713 -0.65,-1.86803 -1.5371,-1.4375 -1.1148,0.61847 -1.6641,1.89182 -2.3515,2.91602 -1.5349,2.57416 -2.7043,5.35769 -4.4121,7.83007 -2.1386,-8.32105 -2.8621,-16.92566 -4.7852,-25.29101 -0.2153,-0.81537 -0.4166,-1.93065 -1.4219,-2.06445 -0.072,-0.0545 -0.138,-0.0729 -0.1972,-0.0684 z"
   id="path6523" /><path
   style="fill:#000000"
   d="m 8639.2598,401.06836 c -0.068,0.004 -0.1369,0.0153 -0.2032,0.0352 -1.0934,0.25143 -1.0217,1.60524 -0.9531,2.49023 0.5235,5.21036 1.5133,10.35983 2.3106,15.5332 0.5083,3.39347 1.2202,6.80262 1.3691,10.22071 -3.2652,-3.36491 -5.7802,-7.42832 -9.3496,-10.50391 -0.5738,-0.58169 -1.7366,-0.70737 -2.0918,0.16211 -0.3452,1.03817 0.5472,1.97948 1.0137,2.83984 2.091,3.28582 4.7521,6.14823 6.8808,9.40625 -7.0318,-3.02675 -13.6462,-6.89585 -20.7988,-9.67187 -0.8071,-0.3006 -1.8537,-0.69092 -2.5176,0.0937 -0.2975,0.658 0.084,1.41486 0.7071,1.76758 3.1465,2.08366 6.5618,3.72618 9.914,5.44726 4.0791,2.06552 8.2151,4.08401 11.9863,6.68555 0.1412,0.28643 -0.7348,0.48727 -1.0234,0.6875 -3.3887,1.54568 -7.2127,1.99317 -10.4551,3.88281 -0.9085,0.47066 -1.0039,1.97026 0.037,2.33985 1.4408,0.36252 2.92,-0.20141 4.3223,-0.5254 2.5185,-0.61042 4.8986,-1.69781 7.4375,-2.2207 -2.4456,3.34973 -5.8494,5.89538 -8.1309,9.3711 -0.5409,0.73523 -0.1108,1.92894 0.8672,1.90624 1.3815,-0.26238 2.3609,-1.41951 3.4317,-2.24414 1.9554,-1.71102 3.6796,-3.66521 5.6308,-5.38086 -1.2867,3.81275 -3.2769,7.50686 -4.2011,11.50782 -0.1904,0.72075 -0.047,1.71632 0.8086,1.87304 0.9948,0.16121 1.5704,-0.93301 2.0234,-1.66601 2.0584,-3.6198 3.626,-7.49437 5.1308,-11.36719 0.2886,-0.6007 0.2289,0.64765 0.3204,0.9043 0.5426,5.2931 -0.053,10.66001 0.8007,15.92578 0.077,0.73699 0.6506,1.63568 1.4786,1.41406 1.1091,-0.30546 1.0241,-1.69844 1.1464,-2.62304 0.4024,-5.5284 -0.3876,-11.07133 0.061,-16.59571 -0.041,-0.78464 0.6363,0.20865 0.9394,0.39063 2.3229,2.35345 4.2862,5.03133 6.5254,7.46289 1.2958,1.37939 2.4811,2.95225 4.1348,3.92187 0.8416,0.50259 2.1559,-0.18569 1.9141,-1.2207 -0.4452,-1.49992 -1.5967,-2.66479 -2.4844,-3.91992 -2.6843,-3.48921 -6.0015,-6.51891 -8.1699,-10.38477 -0.3513,-0.55028 0.7693,-0.24293 1.0937,-0.3164 4.9562,0.37846 9.7884,1.61905 14.6953,2.3457 1.9639,0.26359 3.9327,0.70226 5.9219,0.63476 1.0374,-0.13203 1.3686,-1.67849 0.4648,-2.22461 -1.3886,-0.83251 -3.0659,-0.98642 -4.6152,-1.375 -4.6124,-1.00128 -9.2591,-1.65148 -13.7988,-2.8125 -0.7468,-0.18918 -1.4862,-0.40442 -2.2188,-0.64257 2.0267,-1.62374 4.5153,-2.53267 6.5586,-4.12305 0.6316,-0.47523 0.7134,-1.53234 -0.027,-1.93359 -1.1423,-0.41301 -2.3297,0.26265 -3.4297,0.5625 -1.7226,0.55642 -3.3461,1.43454 -5.1406,1.75195 1.149,-3.82508 3.5705,-7.13636 4.6386,-10.98633 0.2475,-0.70512 -0.089,-1.69882 -0.8847,-1.76758 -1.1672,-0.0394 -1.7412,1.20917 -2.3516,2.00977 -1.8525,2.78507 -3.1321,5.91733 -5.1445,8.60156 -1.967,-7.22521 -2.7083,-14.70546 -4.1738,-22.03516 -0.3694,-1.64201 -0.5547,-3.35546 -1.1895,-4.91992 -0.2315,-0.38886 -0.7338,-0.73987 -1.2109,-0.71484 z"
   id="path6521" /><path
   style="fill:#000000"
   d="m 8570.8164,368.20312 c -0.1058,-0.0119 -0.2154,-0.0115 -0.3281,0.002 -0.9304,0.0503 -1.4403,1.08797 -1.1035,1.91406 0.5162,2.02977 1.866,3.74626 2.2246,5.83203 0.3785,1.88547 0.666,3.93048 0.012,5.78516 -0.1743,0.4949 -0.8497,0.23706 -1.1973,0.57031 -2.2225,1.29159 -3.5607,3.56218 -5.1504,5.49609 -1.8088,2.20881 -4.5747,3.20541 -7.2265,3.98243 -1.0918,0.43384 -2.484,0.55442 -3.1094,1.68554 0.1562,0.56465 0.5242,1.21092 1.2207,1.19727 2.8012,-0.11793 5.5717,-0.65542 8.3262,-1.15625 0.8159,-0.13883 1.6256,-0.38816 2.4609,-0.38281 0.1195,1.17614 -0.1088,2.73664 1.0957,3.43359 0.6035,0.34999 1.3365,0.20333 1.9551,-0.0293 -0.016,1.23461 0.9959,2.41572 2.2519,2.46094 -0.097,2.48526 -0.8621,4.88938 -1.2792,7.33203 -0.3902,2.20883 -0.8774,4.41927 -0.8633,6.67383 0.5896,-0.16223 1.0974,0.63274 1.6054,0.0937 0.8861,-0.6029 1.0581,-1.80312 1.4551,-2.73828 0.9988,-3.01901 1.8226,-6.30356 4.082,-8.67578 0.4712,-0.55694 1.1693,-0.6804 1.8399,-0.78125 1.6696,-0.76003 2.8604,-2.26247 4.0156,-3.63867 0.8954,-1.14803 1.7659,-2.31556 2.6524,-3.47071 3.5562,0.22973 7.1033,0.70454 10.6699,0.69922 0.822,0.0498 1.8863,-0.49651 1.668,-1.45312 -0.2987,-1.04639 -1.5186,-1.45882 -2.4727,-1.72266 -3.9253,-0.94878 -7.9868,-0.71036 -11.9863,-0.89258 -0.3684,-0.13398 -1.4229,0.10123 -1.3008,-0.45117 0.3124,-0.89613 0.2667,-2.22408 -0.8008,-2.56445 -0.8358,-0.29749 -1.6996,0.18644 -2.4961,0.29101 -0.037,-1.06149 -0.03,-2.46788 -1.1953,-2.94922 -0.5807,-0.25764 -1.2429,-0.18558 -1.8477,-0.0586 0.8273,-1.96697 0.1755,-4.14379 -0.1933,-6.14062 -0.6995,-3.11632 -1.5472,-6.28783 -3.2656,-9.01368 -0.4054,-0.5887 -0.978,-1.24678 -1.7188,-1.33008 z"
   id="path6519" /><path
   style="fill:#000000"
   d="m 8728.7305,364.42773 c -1.2907,0.0658 -1.6729,1.58287 -1.7364,2.64649 0.072,0.76625 -0.1152,0.71586 -0.5019,0.14453 -0.808,-0.84228 -1.6115,-2.02966 -2.8809,-2.0957 -1.1028,0.023 -1.4515,1.30881 -1.2734,2.21289 0.053,0.48554 0.1441,0.96581 0.2539,1.4414 -1.1196,-0.63988 -2.6292,-1.15303 -3.8223,-0.42578 -0.8607,0.7224 -0.3062,1.89789 0.3301,2.56055 0.5556,0.76146 1.5711,1.46767 1.4746,2.50195 -0.9618,0.89768 -2.4285,0.38355 -3.5937,0.75586 -1.0523,0.15829 -2.3131,1.09075 -1.9043,2.28125 0.5526,1.3282 2.2379,1.52387 3.5039,1.55078 0.3823,0.0448 1.0284,-0.0538 1.2656,0.18164 -0.7318,1.71545 -2.4772,2.9534 -2.7324,4.8711 -0.099,1.05745 1.1719,1.634 2.0429,1.19531 0.7096,-0.42365 0.089,0.39278 0.1387,0.77344 -0.2235,1.09712 0.9198,2.09662 1.9766,1.72265 1.5104,-0.348 2.4428,-1.78413 3.7012,-2.5 0.6898,1.53187 0.7198,3.30126 1.5097,4.78711 0.3061,0.42483 0.9475,0.7658 1.4043,0.36524 0.8618,-0.49953 0.7434,-1.68941 0.9785,-2.54883 -0.022,-0.82045 0.4966,-0.50638 0.9102,-0.0977 0.9401,0.67654 1.6825,1.69721 2.7832,2.11133 0.7464,0.2483 1.4789,-0.39478 1.4473,-1.16211 -0.056,-1.11987 -0.461,-2.18463 -0.6426,-3.28515 1.4599,0.51632 2.8578,1.3278 4.4121,1.50195 0.9441,-0.0142 1.395,-1.20401 0.8008,-1.90039 -0.7012,-1.05124 -1.7056,-1.87513 -2.3535,-2.96485 1.2473,-0.95921 2.8721,-1.07294 4.3769,-1.23242 0.6469,-0.12859 1.2568,-0.87977 0.8711,-1.50781 -0.4705,-0.93356 -1.6855,-1.0686 -2.5547,-1.48438 -0.6536,-0.26729 -1.3543,-0.54261 -1.8203,-1.0957 0.9464,-0.66196 2.3596,-0.87903 2.8242,-2.10156 0.4525,-1.13547 -0.6905,-2.1638 -1.7754,-2.16992 -0.7169,-0.0732 -1.4369,0.0419 -2.1308,0.21875 0.6653,-1.10071 1.6273,-2.2403 1.5136,-3.60157 -0.1683,-1.02051 -1.4478,-1.28019 -2.2226,-0.75976 -1.277,0.54699 -2.0527,1.89143 -3.3945,2.28711 -0.8907,0.0632 -0.893,-1.12705 -0.918,-1.75977 -0.069,-1.32532 -0.6704,-3.33814 -2.2617,-3.41797 z"
   id="path6517" /><path
   style="fill:#000000"
   d="m 8886.9453,344.98438 c -1.3301,0.0429 -1.8,1.60063 -1.6621,2.71289 -0.074,0.33771 0.4392,1.34416 -0.2324,0.78515 -0.9975,-0.50216 -2.5698,-0.86293 -3.3145,0.2168 -0.6,1.10232 0.3574,2.2443 0.9004,3.16601 0.314,0.55719 0.8166,1.17296 0.7793,1.81836 -1.4201,0.60275 -3.1206,0.002 -4.4765,0.8711 -0.9975,0.44322 -1.2901,1.91614 -0.3829,2.60156 1.2026,1.02886 2.8706,0.715 4.3047,0.9707 -0.771,1.71594 -2.3516,3.02673 -2.7461,4.92969 -0.3263,0.89477 0.4547,2.03189 1.4434,1.73438 0.5601,-0.17323 0.8624,-0.55957 0.5918,0.27343 -0.1475,1.13928 1.1187,1.94669 2.1445,1.58789 1.28,-0.30954 2.211,-1.29609 3.1875,-2.10937 0.5744,1.51864 0.9213,3.1528 1.7461,4.56055 0.55,0.78212 1.7902,0.54779 2.0977,-0.33204 0.3944,-0.91408 0.5193,-1.91493 0.7343,-2.88086 1.8767,2.41011 3.7514,4.82181 5.6622,7.20508 -0.3786,-2.6592 -0.9103,-5.29757 -1.2481,-7.96093 -0.052,-0.5776 -0.017,-1.07814 0.3594,-0.36329 1.0388,1.14066 2.872,1.56386 4.2949,0.95899 0.904,-0.55764 0.5823,-1.788 -0.057,-2.42774 -0.5725,-0.78612 -1.4057,-1.44419 -1.8262,-2.27539 0.962,-0.74177 2.1744,-0.99152 3.3457,-1.15234 0.9078,-0.27344 1.0078,-1.53451 0.2676,-2.06641 -0.9435,-0.76226 -2.1205,-1.13395 -3.211,-1.6289 1.2172,-0.89794 2.828,-1.76168 3.1153,-3.38281 0.1378,-1.11323 -1.1107,-1.77626 -2.0782,-1.50391 -0.6406,0.11688 -1.2509,0.36134 -1.8281,0.6582 0.7187,-1.22129 1.8938,-2.55719 1.459,-4.07226 -0.3929,-1.07673 -1.8346,-1.06403 -2.6035,-0.41016 -1.0734,0.61381 -1.5904,1.89505 -2.7012,2.42969 -1.048,-0.8598 -1.3084,-2.31698 -1.9238,-3.47852 -0.2768,-0.67124 -0.8457,-1.44484 -1.6641,-1.20898 -1.0164,0.32277 -0.9869,1.73192 -1.1894,2.5332 -0.076,0.46082 -0.3247,1.46625 -0.5762,0.49805 -0.4817,-1.2976 -1.0367,-3.202 -2.7129,-3.25781 z"
   id="path6515" /><path
   style="fill:#000000"
   d="m 8655.1074,338.90625 c 0.2526,1.26367 0.5052,2.52734 0.7578,3.79102 0.2714,1.35289 0.5446,2.70541 0.8145,4.05859 -0.9898,-0.83112 -2.3422,-1.86432 -3.6914,-1.30469 -1.1,0.54068 -0.8941,2.04093 -0.2715,2.87695 0.4626,0.86053 1.3356,1.44808 1.6894,2.36915 -1.4644,0.57912 -3.2151,-0.0197 -4.58,0.92578 -0.995,0.52002 -1.1025,2.01579 -0.1817,2.66211 0.9817,0.88622 2.3693,0.56798 3.5371,0.89062 0.6226,0.24725 0.012,1.01485 -0.1796,1.39063 -0.751,1.16947 -1.907,2.29156 -1.8887,3.77148 0.1055,1.08363 1.4106,1.412 2.2793,1.00781 -0.1789,0.67287 -0.196,1.78384 0.5469,2.27735 1.0906,0.78651 2.403,-0.0808 3.1777,-0.90821 0.4043,-0.3522 1.2749,-1.07978 1.6719,-0.36914 0.3947,1.14124 0.063,2.43493 0.6914,3.53516 0.3487,0.99029 1.6784,1.50659 2.5058,0.76367 0.9173,-0.77079 1.0339,-2.05164 1.0293,-3.17187 2.0448,2.05288 3.8371,4.34368 5.7735,6.49804 -0.5317,-2.74237 -1.0661,-5.48419 -1.5977,-8.22656 1.2976,0.86823 2.9177,1.87741 4.5215,1.28711 1.1013,-0.44549 1.1464,-1.94963 0.4238,-2.75391 -0.5351,-0.82174 -1.4779,-1.27323 -1.9941,-2.10742 1.338,-0.32692 2.8592,0.007 4.0625,-0.83008 0.9844,-0.52559 1.0542,-2.01718 0.1269,-2.63672 -0.8698,-0.75558 -2.0685,-0.61028 -3.1132,-0.82031 -0.3962,-0.28187 0.2875,-0.83392 0.4824,-1.0957 0.9403,-0.83156 2.3646,-1.6519 2.2285,-3.10156 -0.1728,-1.29209 -1.7462,-1.57483 -2.793,-1.22461 -0.2526,-0.0424 -1.3166,0.65206 -0.8613,0.14648 0.7238,-1.08189 0.9682,-2.56176 0.4805,-3.77734 -0.4643,-0.91387 -1.7071,-0.67506 -2.3145,-0.0371 -0.9626,0.70588 -1.7443,1.8121 -2.9492,2.08789 -0.8083,-0.50038 -1.0337,-1.56619 -1.418,-2.38867 -0.666,-1.86503 -1.5392,-3.63957 -2.4277,-5.40625 -0.3393,2.24315 -0.5374,4.49965 -0.5938,6.76758 -0.311,-0.21098 -0.7857,-0.90711 -1.1601,-1.30469 -1.5931,-1.88219 -3.1889,-3.76316 -4.7852,-5.64258 z"
   id="path6513" /><path
   style="fill:#000000"
   d="m 6251.041,315.99805 c -0.045,2e-4 -0.091,0.002 -0.1367,0.006 -1.5008,10e-4 -2.4541,1.91118 -1.5645,3.11718 0.778,1.26067 2.8751,1.11765 3.4571,-0.25 0.6686,-1.26378 -0.3527,-2.87946 -1.7559,-2.87304 z"
   id="path6511" /><path
   style="fill:#000000"
   d="m 8880.002,282.96094 c -0.14,-0.009 -0.2755,0.0275 -0.4239,0.15625 -0.8449,0.40537 -0.6087,1.55424 -0.5976,2.33398 0.6536,8.34404 2.5087,16.53917 3.2812,24.8711 -3.3812,-3.39153 -5.9154,-7.55228 -9.5215,-10.72852 -0.6531,-0.64178 -1.9022,-1.0711 -2.5195,-0.15039 -0.5647,0.84884 0.068,1.74994 0.5938,2.42773 2.4789,3.53573 5.4376,6.72169 7.7363,10.38477 -7.1854,-2.84566 -13.8324,-6.89385 -21.0606,-9.63672 -0.6538,-0.2633 -1.5545,-0.43377 -2.0644,0.12891 -0.2884,0.55348 -0.1961,1.18724 0.3008,1.58984 2.2875,1.68724 4.8732,2.91977 7.3652,4.27149 4.5662,2.41003 9.2828,4.49407 13.5391,7.39062 0.2188,0.27923 1.2441,0.63924 0.6777,0.92578 -3.4005,2.11056 -7.4981,2.59914 -11.0039,4.47461 -0.723,0.32084 -1.1182,1.3113 -0.541,1.92383 0.9708,0.73676 2.2626,0.21686 3.3515,0.0781 3.0848,-0.58072 6.0082,-1.80337 9.1036,-2.33007 -2.3936,2.89862 -5.6803,5.00811 -7.67,8.24218 -0.544,0.74564 -0.455,2.06462 0.5782,2.30664 1.284,0.15461 2.3317,-0.85653 3.3164,-1.53906 2.1026,-1.58287 3.8464,-3.57069 5.8554,-5.26172 -1.2985,3.58198 -3.1954,6.94504 -4.0195,10.7168 -0.2191,0.76157 0.1372,1.83751 1.0625,1.78906 1.0859,-0.10813 1.5175,-1.34218 2.0664,-2.1289 1.6374,-2.87055 2.9271,-5.91798 4.3242,-8.90821 0.5381,5.13085 0.8344,10.30458 1.836,15.37305 0.099,0.69822 0.534,1.28657 1.2363,1.45703 0.6615,-0.21286 1.1077,-0.78266 1.0937,-1.49023 0.3186,-5.98136 -0.661,-11.95325 -0.3222,-17.93555 3.8259,3.42132 6.8949,7.597 10.748,10.98633 0.5911,0.56818 1.7054,1.11681 2.291,0.27148 0.6079,-0.88442 -0.2505,-1.87968 -0.709,-2.63867 -2.608,-3.85685 -6.0157,-7.10143 -8.5839,-10.98438 -0.2095,-0.40546 -0.6021,-0.91522 -0.543,-1.33789 1.8012,-0.29822 3.6225,0.19456 5.4023,0.46094 4.7887,0.85726 9.5494,1.93352 14.3907,2.45508 0.8662,0.094 2.1739,0.0922 2.4004,-0.97266 0.2551,-0.96024 -0.8584,-1.4564 -1.6114,-1.68164 -3.8292,-1.18987 -7.8241,-1.70601 -11.7383,-2.53906 -2.6713,-0.55851 -5.3256,-0.90715 -7.916,-1.79492 2.5935,-1.74071 5.6994,-2.60843 8.1485,-4.57031 0.5123,-0.41107 0.6132,-1.06473 0.3769,-1.6543 -0.9356,-0.86838 -2.2599,-0.28047 -3.3164,0.002 -2.4159,0.72693 -4.6158,2.04678 -7.084,2.61524 1.2474,-3.95411 3.9182,-7.32627 4.9063,-11.37305 0.2532,-0.83931 -0.4943,-1.83814 -1.3848,-1.54297 -1.1491,0.46557 -1.6624,1.74052 -2.3476,2.69336 -1.6611,2.74201 -2.8889,5.7368 -4.7618,8.35156 -0.8938,-3.24942 -1.3268,-6.58077 -1.9082,-9.88086 -0.8644,-4.90597 -1.3922,-9.87491 -2.541,-14.72656 -0.3202,-0.945 -0.3766,-2.23309 -1.3437,-2.75781 -0.1644,-0.0508 -0.3093,-0.10437 -0.4492,-0.11328 z"
   id="path6509" /><path
   style="fill:#000000"
   d="m 8489.6562,270.29297 c -0.588,-0.009 -1.1758,-0.008 -1.7636,0.004 -3.4843,0.1336 -7.0176,0.38485 -10.3711,1.39648 -0.8491,0.21625 -1.8077,0.96072 -1.459,1.93945 0.3696,1.26414 1.9668,1.34609 2.9844,0.87696 2.1888,-0.3677 4.4245,0.0341 6.6035,0.31445 4.2022,0.6975 8.4243,1.59521 12.3437,3.30469 2.5229,1.30393 5.0034,2.80293 7.045,4.79492 2.8724,3.30979 4.5996,7.49251 5.5234,11.74219 0.5817,2.36704 0.3501,4.81383 0.6055,7.21484 0.023,0.84754 0.7402,1.81063 1.664,1.47656 1.16,-0.58123 1.5966,-1.99025 1.8321,-3.18359 0.545,-3.5634 0.089,-7.19829 -0.5274,-10.72266 -0.7536,-4.05952 -2.0505,-8.16909 -4.791,-11.34961 -3.5555,-4.30648 -8.9909,-6.60563 -14.418,-7.38867 -1.7451,-0.26361 -3.5072,-0.39228 -5.2715,-0.41992 z"
   id="path6507" /><path
   style="fill:#000000"
   d="m 8310.9043,266.00391 c -1.4509,0.15014 -1.9426,1.84953 -1.9121,3.09375 0.019,0.61992 -0.2257,1.79851 -1.0918,1.46289 -1.3373,-0.55116 -2.2271,-2.1156 -3.8145,-2.07227 -1.1952,0.0127 -1.6906,1.42312 -1.3144,2.40625 0.098,0.60408 0.5991,1.37485 0.707,1.76758 -0.9994,-0.43133 -2.5484,-0.68419 -3.1406,0.49023 -0.5476,1.35218 0.629,2.5941 1.4355,3.54883 0.1946,0.30674 1.0134,1.04617 0.3086,1.16797 -1.2183,0.23206 -2.693,-0.0321 -3.6152,1.00586 -0.8387,0.7705 -0.4584,2.21361 0.5605,2.61719 1.3386,0.8041 2.9875,0.24079 4.3789,0.8125 -0.6095,1.37576 -2.2383,2.28487 -2.2597,3.92578 -0.01,1.12428 1.2985,1.62952 2.2363,1.29101 1.0544,-0.2823 2.0033,-0.84783 2.9102,-1.43945 -0.3884,1.25427 -1.3384,2.47479 -1.0352,3.8418 0.3124,1.16176 1.8231,1.28202 2.6914,0.67773 1.0597,-0.5933 1.852,-1.55005 2.5196,-2.54492 0.3796,1.21219 1.0403,2.76352 2.4921,2.88086 1.4429,-0.0202 1.9791,-1.66087 2.0215,-2.86719 0.034,-0.60281 -2e-4,-1.21039 0.092,-1.80859 1.3948,0.8777 2.5126,2.59207 4.3438,2.4707 1.2501,-0.12451 1.7381,-1.61459 1.3359,-2.66992 -0.2437,-0.55815 0.7858,0.0422 1.0684,-0.3457 1.1358,-0.57795 0.8721,-2.09075 0.3984,-3.03516 -0.4654,-1.07051 -1.2073,-1.99805 -1.7285,-2.95703 1.5043,-0.46752 3.3672,-0.68722 4.2656,-2.15234 0.5795,-1.04794 -0.3503,-2.20315 -1.4062,-2.38477 -1.2264,-0.35666 -2.5724,0.018 -3.7578,-0.49219 0.5537,-1.22872 1.8722,-2.04507 2.0917,-3.45312 0.3235,-1.16059 -0.751,-2.3397 -1.9375,-2.15039 -0.7995,0.0464 -1.5458,0.39648 -2.2246,0.80078 0.2384,-1.14104 0.7424,-2.66976 -0.3105,-3.55078 -1.0824,-0.68927 -2.2352,0.32026 -2.9649,1.07812 -0.4395,0.43936 -0.8422,0.91394 -1.2402,1.39063 -0.089,-1.18167 -0.6542,-2.85975 -2.1035,-2.80664 z"
   id="path6505" /><path
   style="fill:#000000"
   d="m 8264.6738,219.41797 c -0.064,7.4e-4 -0.1287,0.006 -0.1933,0.0156 -1.2012,0.1644 -1.5513,1.52988 -1.5137,2.5625 -0.132,0.98169 -0.4031,1.98814 -1.0176,2.78321 -1.3711,-0.87757 -2.4435,-2.48793 -4.1953,-2.59766 -1.1465,-6.2e-4 -1.649,1.34078 -1.2656,2.28711 0.2154,0.78139 0.6063,1.50228 1.0254,2.19141 -1.0468,-0.42511 -2.4096,-1.0503 -3.4278,-0.2461 -0.9052,0.89847 -0.1638,2.22751 0.5235,3.01367 0.5471,0.67301 1.1683,1.28093 1.7539,1.91993 -2.6165,0.66238 -5.2327,1.32571 -7.8477,1.99414 2.9207,0.79465 5.9562,1.5149 8.7989,2.34765 -1.0462,1.1491 -2.3172,2.59844 -1.8887,4.27539 0.3578,1.15189 1.8686,1.28025 2.7051,0.58399 0.5897,-0.37762 1.0156,-0.95462 1.5976,-1.3418 -0.03,2.02747 -0.6557,3.9943 -0.9648,5.99024 -0.1826,0.95339 -0.3644,1.90597 -0.5469,2.85937 1.9213,-2.25696 3.8768,-4.60734 5.7773,-6.80664 0.052,1.27665 0.1817,2.90325 1.4082,3.61133 1.0891,0.5389 2.1593,-0.53896 2.3692,-1.5625 0.4183,-1.19782 0.02,-2.53706 0.5332,-3.70508 1.3482,0.6044 2.2442,2.16473 3.8496,2.2207 1.1656,0.0675 1.7956,-1.26048 1.4922,-2.26562 -0.364,-0.77826 0.2797,-0.2588 0.7148,-0.18945 1.0459,0.34812 2.2257,-0.4976 2.1387,-1.61719 0,-1.36795 -1.1256,-2.26583 -1.9902,-3.15625 -0.3938,-0.40276 -0.7827,-1.43893 0.072,-1.53906 1.1358,-0.10105 2.6693,-0.0141 3.2657,-1.21094 0.4947,-1.19891 -0.709,-2.19643 -1.7168,-2.57422 -1.1058,-0.50893 -2.3316,-0.62408 -3.4942,-0.94336 0.7246,-1.33168 1.959,-2.61391 1.8184,-4.23242 -0.127,-1.03443 -1.3826,-1.3254 -2.2031,-0.90039 -0.5696,0.21653 -1.0819,0.59095 -1.4512,1.07617 0.3914,-1.19067 1.0451,-2.70538 0.1406,-3.81641 -0.7974,-0.87482 -2.1314,-0.29076 -2.7441,0.50977 -0.7366,0.69957 -0.9867,1.77301 -1.7715,2.41797 0.4453,-1.1358 0.4581,-2.59541 -0.5352,-3.45508 -0.3319,-0.30078 -0.767,-0.50521 -1.2168,-0.5 z"
   id="path6503" /><path
   style="fill:#000000"
   d="m 8385.8711,207.33398 c -0.1667,0.0456 -0.2568,0.28342 -0.4023,0.40235 -0.6207,0.78878 -0.2849,1.90794 -0.2852,2.83594 0.7294,7.89326 2.4883,15.63801 3.1894,23.50781 -0.01,0.43208 -0.6516,-0.57816 -0.914,-0.77735 -2.422,-2.67771 -4.5481,-5.60999 -6.9883,-8.26953 -0.7626,-0.73408 -1.6554,-1.82613 -2.8457,-1.4707 -0.7348,0.47827 -0.7011,1.43566 -0.2949,2.12695 1.997,3.71715 4.9904,6.7486 7.3789,10.19922 -7.1043,-2.81184 -13.84,-6.50456 -21.0313,-9.17187 -0.7171,-0.26071 -1.6977,-0.58186 -2.2715,0.0644 -0.227,0.47224 -0.2907,0.97701 0.1114,1.37109 1.4448,1.26266 3.2374,2.05221 4.8828,3.01954 5.9898,3.29457 12.2761,6.04773 18.0449,9.74023 -3.6623,1.76725 -7.853,2.19105 -11.3965,4.23242 -0.9144,0.47402 -1.0032,1.99379 0.057,2.3457 1.4456,0.34948 2.9214,-0.21329 4.3261,-0.53906 2.4102,-0.59238 4.6995,-1.59827 7.1133,-2.16406 0.5516,-0.11001 -0.4428,0.80851 -0.5449,1.06641 -2.2921,2.87613 -5.371,5.09523 -7.3105,8.25195 -0.4711,0.74275 0.032,1.85865 0.9589,1.80859 1.299,-0.25369 2.231,-1.33288 3.2481,-2.10351 1.8929,-1.60889 3.5674,-3.45687 5.4805,-5.04297 -1.2853,3.71245 -3.3417,7.17977 -4.0293,11.08203 -0.2672,0.97937 0.6702,2.15453 1.6992,1.71289 1.3282,-0.66956 1.6285,-2.30985 2.2343,-3.53906 1.1948,-2.76152 2.4203,-5.50959 3.6583,-8.25196 0.8998,4.36237 1.0231,8.82884 1.2832,13.25977 0.1112,0.89996 0.082,2.03983 1.0039,2.52344 0.3551,0.21273 1.0546,-0.19215 1.2363,-0.56641 0.5351,-1.29382 0.385,-2.75846 0.4766,-4.13281 0.1426,-4.00876 -0.2849,-8.01284 -0.1309,-12.01953 0.097,-0.40261 -0.12,-1.75336 0.4668,-0.99219 3.8577,3.662 6.7844,8.20967 10.834,11.67773 0.6611,0.69477 2.0525,0.64545 2.3379,-0.38086 0.2449,-1.17232 -0.7155,-2.15449 -1.3047,-3.07226 -2.3894,-3.27912 -5.2021,-6.22064 -7.6485,-9.45313 -0.5997,-0.86238 -1.2128,-1.7333 -1.6152,-2.70898 2.5601,-0.11502 5.0897,0.48525 7.6016,0.9043 4.0642,0.73 8.1007,1.6749 12.2129,2.09375 0.8634,0.12281 2.1606,-0.0448 2.2285,-1.13672 0,-1.2166 -1.3649,-1.64189 -2.3418,-1.88477 -5.8333,-1.45198 -11.79,-2.32201 -17.6797,-3.50195 -0.3409,-0.13524 -1.3792,-0.22709 -1.125,-0.49609 2.5722,-1.72703 5.6521,-2.58905 8.0801,-4.53711 0.5123,-0.41107 0.6132,-1.06473 0.3769,-1.6543 -0.9356,-0.86838 -2.2599,-0.28047 -3.3164,0.002 -2.3862,0.71927 -4.5637,2.00798 -6.9902,2.60547 1.3179,-3.71518 3.9381,-6.88848 4.7969,-10.78125 0.247,-0.83635 -0.2117,-1.94278 -1.2012,-1.9043 -1.2964,0.31501 -1.8956,1.68217 -2.6016,2.6836 -1.5895,2.58106 -2.7589,5.40465 -4.4961,7.89844 -1.4966,-5.81068 -2.0983,-11.71077 -3.1699,-17.61329 -0.5455,-2.7631 -0.8244,-5.61453 -1.8555,-8.2539 -0.2124,-0.57208 -0.6961,-1.00959 -1.33,-0.9668 -0.077,-0.039 -0.1418,-0.0445 -0.1973,-0.0293 z"
   id="path6501" /><path
   style="fill:#000000"
   d="m 8201.1367,159.16602 c -1.2513,-0.0301 -2.7053,0.5059 -3.0312,1.8496 -0.5427,2.1254 -0.2044,4.35131 -0.1953,6.51758 0.013,0.53667 -0.2553,-0.86344 -0.3672,-1.17773 -0.547,-1.84012 -0.8958,-3.87824 -2.2032,-5.35938 -0.9652,-1.05519 -2.5833,-0.747 -3.6367,-0.004 -0.9336,0.4688 -1.9462,1.4522 -1.5117,2.58789 0.4855,1.23253 1.6243,2.07632 2.0781,3.33789 0.7138,1.47773 1.2988,3.01661 1.795,4.58008 -1.1297,-1.70176 -2.3217,-3.40518 -3.0606,-5.32032 -0.012,-1.23454 -1.3673,-2.07945 -2.5391,-2.15039 -1.4119,-0.22913 -3.0732,0.5102 -3.3574,2.02344 -0.2323,1.2574 -0.1333,2.82523 0.9063,3.70117 1.1228,0.47629 1.8067,1.59668 2.6191,2.47071 1.075,1.2741 2.1353,2.73227 3.1738,4.11718 -2.6436,-1.23406 -5.3936,-2.33585 -7.7832,-4.02929 -0.717,-1.5805 -2.953,-1.6286 -4.1718,-0.61719 -1.5602,1.16632 -2.0478,3.70563 -0.8399,5.28125 0.6405,0.8444 1.7934,0.96016 2.7442,0.69922 3.2315,0.49757 6.1278,2.14396 9.1406,3.32226 0.8909,0.38595 1.9127,0.77298 2.7285,1.15821 -3.4841,1.33559 -7.0525,2.64561 -10.791,2.99609 -1.3507,-0.0379 -3.0857,0.18334 -3.627,1.64258 -0.3007,1.03573 -0.3357,2.23625 0.1133,3.23047 0.7519,1.1823 2.3283,0.80958 3.4609,0.54297 2.5969,-0.65664 5.3212,-1.60708 7.793,-2.24805 -2.5519,2.14345 -5.5495,3.90393 -7.4512,6.71094 -0.5825,0.8176 -0.6289,1.95734 0.053,2.73437 1.0313,1.53095 3.5079,1.58046 4.5957,0.084 0.4453,-0.83249 0.9715,-1.61813 1.6797,-2.25977 0.9935,-1.00678 2.0701,-1.92568 3.1738,-2.80859 -1.021,1.78798 -2.001,3.63872 -3.3477,5.20312 -1.1236,0.73335 -1.3502,2.273 -1.2617,3.51953 0.038,0.84657 0.7242,1.55001 1.5782,1.54688 1.0432,0.27082 2.214,1.01801 3.2421,0.27734 1.4625,-1.06237 1.3021,-3.07694 2.0567,-4.56445 0.8175,-2.0195 1.8913,-3.92515 3.0918,-5.74024 -0.054,3.8201 -0.2062,7.64345 -0.088,11.4629 0.2951,1.39177 2.0199,1.5674 3.1699,1.27734 1.4093,-0.21796 2.0428,-1.68754 2.1035,-2.9668 0.2584,-3.71641 -0.2167,-7.43775 -0.1054,-11.1582 1.7875,3.09008 3.5138,6.2425 4.7949,9.58008 0.201,0.77744 0.2377,1.70192 0.9902,2.1914 1.5483,1.20595 4.3684,0.40893 4.7383,-1.60156 0.052,-2.11609 -1.426,-3.82737 -2.4902,-5.52344 -0.9557,-1.53434 -1.8785,-3.09007 -2.7071,-4.69726 2.3247,1.6572 4.3968,3.67193 6.8516,5.14062 1.0176,0.66092 2.489,0.6692 3.2988,-0.32812 1.0005,-1.00989 1.504,-2.67481 0.7363,-3.96289 1.2976,0.43831 2.8757,-0.14909 3.3594,-1.48243 0.4357,-1.26321 0.5946,-2.79638 -0.092,-3.99804 -0.5203,-0.80344 -1.5869,-0.85075 -2.4062,-0.56055 -2.8147,-0.26776 -5.5332,-1.14544 -8.2325,-1.94922 -0.3657,-0.14345 -1.285,-0.36208 -1.332,-0.48828 3.5918,-0.41311 7.2579,-0.30092 10.791,-1.13672 1.2224,-0.2578 2.5503,-1.12503 2.4883,-2.52148 0.1606,-1.75505 -1.5674,-3.35029 -3.3066,-2.96485 -0.968,0.14343 -1.6602,0.95218 -2.6465,1.06836 -1.8002,0.4641 -3.6371,0.77056 -5.4805,1.00196 2.4858,-1.23657 5.0045,-2.45242 7.5957,-3.29297 0.815,-0.14184 1.7356,-0.24859 2.2598,-0.98828 1.0088,-1.25743 0.9114,-3.1742 0.125,-4.51172 -0.4958,-0.81457 -1.5423,-0.67255 -2.2578,-0.26758 -3.8565,1.67168 -7.5476,3.78083 -11.2988,5.53125 -0.2995,0.06 -1.413,0.81564 -1.0626,0.2832 1.9141,-3.00231 3.7484,-6.09112 6.0782,-8.79492 0.3848,-0.56216 1.2297,-0.431 1.5781,-1.0664 0.9733,-1.34343 0.6619,-3.77132 -1.0293,-4.37891 -1.3266,-0.1733 -2.7986,-0.57491 -4.0644,0.0371 -0.7063,0.33204 -0.7685,1.14325 -0.9532,1.79297 -1.7908,3.86184 -4.1714,7.41072 -6.3808,11.03906 0.092,-4.19623 0.3946,-8.39462 0.2558,-12.5918 -0.044,-1.1494 -0.3203,-2.67367 -1.6367,-2.97851 -0.164,-0.0143 -0.3273,-0.055 -0.4922,-0.0508 z"
   id="path6499" /><path
   style="fill:#000000"
   d="m 8028.9258,134.32422 c -0.085,0.0254 -0.1706,0.0508 -0.2559,0.0762 -1.1372,0.35804 -1.2296,1.79158 -1.3672,2.79883 -0.5055,4.16145 0.049,8.34511 -0.01,12.51562 0.02,0.52973 -0.037,1.0447 -0.666,0.64063 -0.9392,-0.30848 -2.0935,0.30283 -2.0977,1.35351 -0.075,0.79395 0.3036,1.51413 0.3086,2.27344 -1.5039,-0.1112 -2.796,1.21159 -2.8301,2.6836 0.041,0.45528 10e-5,1.03771 -0.6465,0.68554 -2.3754,-0.46634 -4.8033,0.19528 -7.0722,0.87696 -2.6753,0.85176 -5.2754,2.12208 -7.2618,4.14843 -0.6143,0.46221 -1.1346,1.41148 -0.4628,2.04102 0.7594,0.64987 1.8426,0.0603 2.6777,-0.18945 3.178,-1.12726 6.3176,-2.36042 9.4785,-3.53516 1.7991,2.19292 3.3677,4.79428 5.9707,6.12305 0.6245,0.22516 1.3537,0.17142 1.8438,0.71093 2.0755,1.89623 3.3745,4.54938 4.0156,7.25977 0.3525,1.64 0.507,3.46436 1.5859,4.81836 0.751,0.85356 2.2567,0.21667 2.2949,-0.88672 0.1009,-1.85642 -0.5788,-3.64852 -0.9843,-5.4375 -0.7346,-2.75699 -1.5285,-5.48172 -2.252,-8.24219 1.1751,-0.0716 2.7536,0.10796 3.3985,-1.1289 0.3132,-0.60068 0.1659,-1.30314 -0.061,-1.90625 1.1938,0.015 2.3643,-0.91482 2.459,-2.13086 1.9284,-0.49342 3.9561,-0.2759 5.9277,-0.2793 2.879,0.0601 5.7706,0.24077 8.6406,0.25195 0.7419,-0.25041 1.4848,-0.50154 2.2266,-0.75195 -1.0234,-0.50149 -1.9291,-1.34281 -3.1211,-1.35937 -3.2219,-0.58708 -6.5599,-0.76746 -9.6465,-1.9336 -0.8397,-0.28193 -1.5556,-0.84042 -1.9336,-1.65039 -1.8182,-2.55582 -4.1782,-4.72801 -6.8105,-6.42578 -0.9154,-0.3784 -1.4672,-1.2631 -1.541,-2.23438 -0.3861,-2.76635 -0.082,-5.66678 -0.3262,-8.51367 -0.084,-1.00823 -0.19,-2.5347 -1.4824,-2.65234 z"
   id="path6497" /><path
   style="fill:#000000"
   d="m 7896.4043,129.04688 c -0.1087,1.14322 -0.2175,2.28645 -0.3262,3.42968 -0.027,1.11329 -0.054,2.22655 -0.08,3.33985 -0.9081,-0.98655 -1.7205,-2.26118 -3.0527,-2.6875 -1.0144,-0.24993 -1.7192,0.89461 -1.4492,1.79297 0.1231,0.79723 0.4414,1.56344 0.7012,2.30859 -0.9842,-0.69985 -1.7605,-1.75582 -2.9043,-2.18555 -0.5488,-0.18207 -1.2452,0.26028 -1.2735,0.83594 -0.084,1.12419 0.6671,2.11868 0.9219,3.18945 0.2182,0.84076 0.7402,2.12313 -0.2461,2.66602 -0.9718,0.57383 -2.4719,0.49045 -3.0254,1.61523 -0.3679,0.87489 0.5949,1.60137 1.416,1.54297 0.5463,0.0469 1.5877,0.11408 1.4161,0.91602 -0.3968,1.8588 -1.7653,3.29718 -2.6875,4.91015 -0.6256,1.05483 -1.1718,2.15691 -1.7657,3.23047 1.727,-0.91198 3.4517,-1.82793 5.0586,-2.94336 -0.4961,0.78054 -1.041,2.02601 -0.098,2.70313 1.1266,0.55431 2.2389,-0.40298 3.1875,-0.92578 0.6505,-0.39224 1.2667,-0.84101 1.9355,-1.20118 0.5336,1.44662 0.6161,3.05776 1.3477,4.42579 0.3138,0.41211 0.9117,0.77445 1.3769,0.38085 0.9541,-0.51813 0.7406,-1.82588 1.0801,-2.72265 0.1,-0.86148 0.6661,0.0523 0.9805,0.33789 0.8016,0.83264 1.2727,1.92072 2.2265,2.64648 0.7109,0.50113 1.7416,-0.1419 1.6602,-1 -0.018,-1.51685 -0.6918,-2.99433 -0.4414,-4.51953 0.833,1.52167 2.7111,2.02534 4.334,1.79492 0.6958,0.003 1.3663,-0.54396 1.2871,-1.25781 -0.4063,-1.49084 -2.6127,-1.46702 -2.9629,-3.00586 0.1588,-0.70541 1.1461,-0.62644 1.7109,-0.66992 1.1908,-0.0247 2.8628,-0.26214 3.1817,-1.63672 0.2002,-1.35691 -1.2926,-2.09645 -2.4102,-2.33203 -0.5404,-0.13356 -1.0943,-0.19846 -1.6465,-0.26172 1.1706,-1.0845 2.6142,-2.14119 3.0488,-3.75 0.2439,-1.02531 -0.8985,-1.83167 -1.8339,-1.49805 -0.9462,0.17556 -1.7213,0.80019 -2.6348,1.06836 0.7638,-0.82896 1.8955,-1.89071 1.4531,-3.12695 -0.4753,-1.08002 -1.8949,-0.85484 -2.7402,-0.38281 -0.9356,0.41188 -1.7089,1.11388 -2.6406,1.5293 -1.2223,-2.0852 -1.8911,-4.45314 -3.0684,-6.56641 -0.3457,-0.6635 -0.6914,-1.32674 -1.0371,-1.99023 z"
   id="path6495" /><path
   style="fill:#000000"
   d="m 8318.0137,119.05664 c -0.1096,-0.009 -0.2185,-0.007 -0.3262,0.0156 -1.1635,0.1674 -1.3833,1.57847 -1.1289,2.52734 0.6,2.8804 2.377,5.45896 2.4258,8.4668 0.1268,1.29184 -0.5936,2.64609 -1.8867,3.01757 -1.9621,0.83125 -3.4829,2.55677 -4.252,4.52735 -1.3655,2.07246 -3.7803,3.15982 -6.084,3.8457 -1.6769,0.55576 -3.4529,0.47014 -5.1836,0.6543 -1.0668,0.15718 -2.5151,0.61061 -2.5898,1.89062 0.071,1.31801 1.5927,1.69916 2.6738,1.8125 3.7983,0.41201 7.6147,-0.23993 11.3125,-1.07226 0.353,-0.005 1.1502,-0.39059 1.0234,0.24023 -0.1061,1.51088 1.0947,3.11386 2.6954,3.02149 -0.1322,1.11266 -0.9882,2.39251 -0.1993,3.42773 0.614,0.73346 1.6726,0.4181 2.418,0.12695 -0.4731,3.5786 -1.374,7.09348 -1.7734,10.68164 -0.07,1.00071 -0.011,2.48434 1.1914,2.75 1.2634,0.19489 1.9611,-1.1804 2.4258,-2.13476 1.3255,-2.64298 1.2789,-5.82549 3.0195,-8.27539 1.1696,-1.52775 3.0828,-2.16566 4.4551,-3.47461 1.5419,-1.24972 2.8409,-2.75312 4.0722,-4.29883 1.2259,-1.51355 3.2827,-2.02278 5.1504,-1.75391 2.4412,0.13177 4.7038,1.3845 7.1641,1.28125 1.0965,0.0434 2.2607,-0.89456 2.0078,-2.06054 -0.3669,-1.42657 -1.9867,-1.89728 -3.2285,-2.29297 -3.6698,-1.04817 -7.5167,-0.93695 -11.293,-1.05078 -0.7033,-0.0742 -1.4559,-0.0713 -2.0976,-0.40039 0.05,-1.2274 -1.1056,-2.56386 -2.4551,-2.52735 -0.7442,-0.23519 -0.4776,-1.24667 -0.6172,-1.83789 -0.089,-1.13935 -1.2789,-1.94302 -2.3672,-1.58008 -0.2216,-0.12002 -0.021,-0.81006 -0.1309,-1.15234 -0.3951,-3.63588 -1.3617,-7.2105 -2.7265,-10.59961 -0.6045,-1.59423 -1.7168,-3.12785 -3.3692,-3.72461 -0.1064,-0.0225 -0.2166,-0.0419 -0.3261,-0.0508 z"
   id="path6493" /><path
   style="fill:#000000"
   d="m 7574.8145,116.59961 -0.6348,2.86914 c -0.037,1.21159 -0.075,2.42316 -0.1113,3.63477 -1.9987,-1.87868 -3.9983,-3.75814 -5.9981,-5.63672 0.5027,2.06247 1.0054,4.12496 1.5078,6.1875 -0.9309,-0.70479 -1.9549,-1.75387 -3.2207,-1.53711 -1.0492,0.25787 -1.1033,1.58465 -0.6484,2.37695 0.5155,1.20583 1.3908,2.21058 1.9863,3.37109 -1.5523,0.79783 -3.3694,1.04368 -4.834,2.00586 -0.3812,0.34855 -0.658,1.00769 -0.2129,1.41602 0.6174,0.85887 1.8641,0.49363 2.7715,0.71484 0.5759,0.0587 1.5316,0.45142 1.1172,1.18946 -0.7136,1.42417 -2.2992,2.4192 -2.4961,4.09961 -0.1222,1.0026 1.0749,1.6415 1.9063,1.1621 0.5459,-0.35158 -0.1166,0.62003 0.1035,0.92188 0.1801,1.3064 1.8109,1.58991 2.8203,1.07031 1.0954,-0.36628 1.7759,-1.39731 2.8105,-1.85351 0.58,1.47326 0.3463,3.00795 0.4688,4.55468 0.065,1.30008 0.2191,2.59463 0.3203,3.89258 1.2561,-2.32505 2.3383,-4.73301 3.3887,-7.15625 0.979,1.08214 1.7493,2.42063 2.9863,3.23047 0.8429,0.54319 1.916,-0.33817 1.6973,-1.27344 -0.1935,-1.32558 -0.8164,-2.5545 -1.2422,-3.80078 0.7954,-0.30576 1.3464,0.45237 1.7617,0.99805 0.7847,0.77026 2.2446,1.42071 3.1699,0.5332 0.7539,-1.07212 -0.1883,-2.30852 -0.8945,-3.125 -0.3264,-0.43239 -0.857,-0.85378 -1.0449,-1.29883 2.3907,-1.10907 5.0355,-1.60895 7.3203,-2.95507 0.5512,-0.28096 1.4805,-0.62173 0.3301,-0.63672 -1.5563,-0.30933 -3.1248,-0.48336 -4.7129,-0.46289 -0.6507,-0.0243 -1.3079,-0.0198 -1.9493,-0.14453 0.9207,-1.53166 2.4516,-2.61266 3.3184,-4.16993 0.4666,-0.87844 -0.5013,-1.85714 -1.4082,-1.5664 -1.0747,0.23149 -2.0817,0.69542 -3.1074,1.08008 0.6279,-1.05342 1.528,-2.34953 0.9941,-3.61133 -0.4949,-0.98855 -1.8522,-0.77331 -2.539,-0.11914 -0.9304,0.6407 -1.4466,1.73154 -2.4141,2.3164 -0.9567,-1.31872 -1.1376,-3.01878 -1.6602,-4.53125 -0.2856,-1.35273 -1.0729,-2.50815 -1.6503,-3.74609 z"
   id="path6491" /><path
   style="fill:#000000"
   d="m 7655.7539,85.005859 c -1.3054,0.08042 -1.6624,1.672684 -1.3633,2.730469 0.1102,0.530221 0.4243,1.203956 0.209,1.679688 -0.8378,-0.744918 -1.153,-1.930523 -2.0566,-2.636719 -0.6889,-0.773018 -2.1427,-1.178569 -2.8067,-0.167969 -0.6807,1.172663 0.2249,2.455012 0.709,3.525391 0.3781,0.717939 -0.5556,-0.220176 -0.7891,-0.388672 -0.8069,-0.694392 -1.9108,-1.724406 -3.0351,-1.115235 -1.0002,0.732463 -0.4509,2.100423 0.035,2.978516 0.4918,0.952186 1.1519,1.800146 1.7227,2.703125 -1.7127,0.480027 -3.7796,0.537448 -5.0137,1.990235 -0.6988,0.877668 -0.032,2.151686 0.9825,2.388671 0.9659,0.33504 2.0016,0.302945 3.0097,0.3125 -0.8437,1.424801 -2.0863,2.864241 -1.9629,4.619141 0.1046,0.99049 1.2644,1.50422 2.1289,1.11133 -0.3968,0.80462 -0.7889,2.06621 0.1758,2.625 1.1273,0.54061 2.225,-0.47425 3.1602,-0.99414 0.5589,-0.3152 1.1764,-0.82013 1.8242,-0.78321 0.6531,1.52452 -0.096,3.44415 1.0488,4.8086 0.7045,0.9262 2.1733,0.61105 2.666,-0.36914 0.4293,-0.74205 0.6022,-1.60406 0.6368,-2.45313 0.7981,1.02723 1.7397,2.34282 3.1757,2.3418 1.2517,-0.11725 1.584,-1.60118 1.3653,-2.63672 -0.078,-0.70492 -0.3434,-1.37887 -0.3594,-2.0918 1.008,0.68845 1.8991,2.05548 3.293,1.75782 1.2584,-0.29299 1.3925,-1.90552 0.8769,-2.88086 -0.3645,-0.92747 -1.0767,-1.64318 -1.7129,-2.38672 2.8567,-0.87932 5.761,-1.60025 8.6367,-2.416018 -2.5267,-0.680259 -5.0541,-1.357902 -7.58,-2.041015 1.9068,-2.077611 3.8119,-4.156729 5.7187,-6.234375 -2.3343,0.516611 -4.6371,1.200033 -6.9922,1.607422 -0.3506,-0.03065 0.4584,-0.607802 0.6016,-0.84961 0.8008,-0.749074 1.3692,-2.217923 0.3652,-3.044922 -1.2181,-0.890062 -2.8298,-0.05385 -3.8164,0.81836 -0.5197,0.420851 -0.9846,0.916867 -1.5664,1.255859 -0.6949,-1.813489 -0.715,-4.039467 -2.2519,-5.427734 -0.295,-0.221469 -0.6622,-0.375297 -1.0352,-0.335938 z"
   id="path6489" /><path
   style="fill:#000000"
   d="m 7793.4531,70.320312 c -1.054,0.06386 -1.2403,1.360369 -0.9687,2.179688 0.7093,3.085188 2.6839,5.902454 2.4687,9.173828 -0.04,1.296459 -1.0122,2.329403 -2.1855,2.757813 -2.1739,1.270313 -3.7781,3.301013 -5.0567,5.43164 -1.4586,2.203275 -4.2121,2.740517 -6.5918,3.369141 -1.3312,0.411246 -2.8279,0.64904 -3.9062,1.585937 -0.5039,0.475803 -0.3998,1.405053 0.2344,1.714844 1.1458,0.53603 2.4798,0.134706 3.6875,0.0293 2.9221,-0.389626 5.7165,-1.388395 8.6152,-1.880859 0.4964,-0.068 0.1157,0.768423 0.3203,1.09375 0.2124,1.187189 1.2418,2.265778 2.5,2.232421 0.7265,0.241063 0.2825,1.215886 0.7422,1.707032 0.3801,0.739036 1.1713,1.255376 2.0059,1.281246 -0.3107,2.5227 -1.2267,4.928 -1.6485,7.4336 -0.2695,1.74947 -0.7454,3.54128 -0.4746,5.31445 0.1459,0.97491 1.5441,1.22494 2.0352,0.37891 1.1651,-2.02458 1.367,-4.43794 2.3164,-6.56055 0.5211,-1.12783 0.9351,-2.43714 1.9414,-3.22852 2.9699,-2.02103 5.3772,-4.727266 8.0527,-7.097652 1.2283,-1.18376 3.0025,-1.272575 4.6074,-1.158203 2.6692,0.107245 5.3314,0.474785 8.0039,0.441406 0.6479,-0.02586 1.3751,-0.575803 1.1641,-1.279297 -0.2345,-0.992531 -1.4472,-1.196132 -2.2441,-1.615234 -3.7432,-1.78154 -8.0166,-1.604984 -12.0352,-1.189453 -0.8002,0.03717 -1.6041,0.137627 -2.4043,0.05078 0.2234,-0.98182 0.701,-2.332696 -0.293,-3.048828 -0.8328,-0.564987 -1.867,-0.101684 -2.7343,0.128906 0.2469,-1.045473 0.7513,-2.467873 -0.2735,-3.265625 -0.8012,-0.527817 -1.7641,-0.155549 -2.6172,0 -0.458,-2.095988 -0.1185,-4.281414 -0.5039,-6.394531 -0.392,-2.848071 -1.1454,-5.718734 -2.8183,-8.101562 -0.4612,-0.643092 -1.0345,-1.569315 -1.9395,-1.484376 z"
   id="path6487" /><path
   style="fill:#000000"
   d="m 8056.6445,66.421875 0.3946,3.291016 h -0 c 0.2563,1.317379 0.6437,2.613456 0.793,3.949218 -1.2387,-0.744947 -2.167,-2.274499 -3.7578,-2.226562 -1.0457,0.12813 -1.3156,1.41021 -0.8555,2.21875 0.4952,1.269861 1.6724,2.024537 2.5332,3.007812 0.3022,0.504964 -0.7618,0.657668 -1.0938,0.873047 -1.2105,0.49619 -2.6018,0.611548 -3.6777,1.394532 -0.4387,0.393513 -0.4513,1.181604 0.01,1.537109 1.0224,0.825105 2.6837,0.04421 3.5937,1.105469 0.1578,0.995027 -0.8443,1.66711 -1.3652,2.398437 -0.6401,0.808213 -1.5918,1.936978 -0.9121,2.986328 0.7308,0.904798 2.0606,0.239005 2.7773,-0.111328 -0.4909,0.92295 -0.8143,2.422451 0.3008,3.027344 1.2587,0.521653 2.3951,-0.620243 3.168,-1.482422 0.2999,-0.257381 0.6781,-0.986966 1.0781,-0.798828 0.6752,1.376432 0.082,3.058737 0.9043,4.40625 0.4142,1.005458 1.8462,1.369679 2.5957,0.519531 0.8349,-0.822881 0.8664,-2.055491 0.9102,-3.15039 1.0584,1.080319 1.566,2.889027 3.166,3.314453 1.0418,0.23159 1.7716,-0.938347 1.5176,-1.867188 -0.1551,-1.24932 -0.9367,-2.280902 -1.3555,-3.439453 1.5384,0.593137 2.8484,2.126862 4.6269,1.853516 1.0535,-0.225037 1.2749,-1.589109 0.6641,-2.361328 -0.5191,-0.977099 -1.6164,-1.476341 -2.1543,-2.416016 1.4086,-0.882168 3.4172,0.03844 4.6777,-1.226563 0.8467,-0.814603 0.2158,-2.160865 -0.7324,-2.574218 -0.9937,-0.651029 -2.2097,-0.57665 -3.3242,-0.763672 0.9084,-1.30063 2.6511,-1.739327 3.4863,-3.128907 0.6163,-0.726049 0.3878,-2.058289 -0.6269,-2.263671 -1.4774,-0.258543 -2.6699,0.929124 -4.0117,1.328125 0.6527,-1.198696 1.7563,-2.468175 1.3496,-3.925782 -0.3835,-1.090918 -1.8282,-1.091061 -2.6035,-0.433593 -1.0367,0.614136 -1.5749,1.790231 -2.5918,2.414062 -1.0927,-1.49594 -1.1366,-3.47201 -1.9512,-5.105469 -0.3262,-0.508938 -1.094,-0.691582 -1.5469,-0.253906 -0.6839,0.648286 -0.4238,1.751664 -0.5332,2.615234 -0.026,0.549342 -0.047,1.110807 -0.2148,1.638672 -1.605,-1.388078 -2.478,-3.41291 -3.9747,-4.908203 -0.4205,-0.480263 -0.8413,-0.961143 -1.2617,-1.441406 z"
   id="path6485" /><path
   style="fill:#000000"
   d="m 7290.9316,65.003906 c -1.2666,0.06763 -1.6535,1.544184 -1.5605,2.59961 0.196,3.262695 1.2883,6.393514 2.373,9.451172 1.2725,3.225076 2.6169,6.523844 4.877,9.199218 2.5704,2.737052 5.8094,4.974264 9.5059,5.835938 5.9095,1.446061 12.1655,0.883127 17.9746,-0.753906 3.1372,-0.970905 6.2663,-2.110811 9.0898,-3.808594 0.6876,-0.360794 1.322,-1.167957 0.9258,-1.933594 -0.7296,-0.958318 -2.0317,-0.437977 -2.9961,-0.21875 -2.5445,0.641108 -5.0783,0.822935 -7.668,1.103516 -5.6535,0.509684 -11.5939,0.85295 -16.9765,-1.291016 -3.274,-1.337827 -6.2284,-3.528045 -8.2539,-6.449219 -1.3673,-1.838092 -2.6275,-3.983366 -3.5801,-5.93164 -0.8355,-1.793847 -1.6488,-3.672477 -1.6875,-5.681641 -0.135,-1.021588 -0.8646,-2.194684 -2.0235,-2.121094 z"
   id="path6409" />

</svg>
