<?xml version="1.0" encoding="UTF-8" standalone="no"?>
<svg
   inkscape:version="1.1.1 (c3084ef, 2021-09-22)"
   sodipodi:docname="7 Co2 Emission through the years_mask-01.svg"
   xml:space="preserve"
   enable-background="new 0 0 9451.45 623.52"
   viewBox="0 0 9451.45 623.52"
   x="0px"
   y="0px"
   width="9451.45px"
   height="623.52px"
   id="Layer_18"
   version="1.1"
   xmlns:inkscape="http://www.inkscape.org/namespaces/inkscape"
   xmlns:sodipodi="http://sodipodi.sourceforge.net/DTD/sodipodi-0.dtd"
   xmlns="http://www.w3.org/2000/svg"
   xmlns:svg="http://www.w3.org/2000/svg"
   xmlns:rdf="http://www.w3.org/1999/02/22-rdf-syntax-ns#"
   xmlns:cc="http://creativecommons.org/ns#"
   xmlns:dc="http://purl.org/dc/elements/1.1/"><metadata
   id="metadata29"><rdf:RDF><cc:Work
       rdf:about=""><dc:format>image/svg+xml</dc:format><dc:type
         rdf:resource="http://purl.org/dc/dcmitype/StillImage" /></cc:Work></rdf:RDF></metadata><defs
   id="defs27" /><sodipodi:namedview
   inkscape:current-layer="g22"
   inkscape:window-maximized="1"
   inkscape:window-y="25"
   inkscape:window-x="0"
   inkscape:cy="396.25951"
   inkscape:cx="1001.1605"
   inkscape:zoom="1.5696784"
   showgrid="false"
   id="namedview25"
   inkscape:window-height="762"
   inkscape:window-width="1440"
   inkscape:pageshadow="2"
   inkscape:pageopacity="0"
   guidetolerance="10"
   gridtolerance="10"
   objecttolerance="10"
   borderopacity="1"
   inkscape:document-rotation="0"
   bordercolor="#666666"
   pagecolor="#ffffff"
   inkscape:pagecheckerboard="0" />


<g
   id="g22"
   opacity="0.75">
	<path
   id="path18"
   d="M1701.36-45.73c0.31-0.5,0.5-1.08,0.5-1.71c0-1.77-1.44-3.21-3.21-3.21h-5.9c-1.77,0-3.21,1.44-3.21,3.21   c0,0.63,0.19,1.21,0.5,1.71c-0.31,0.5-0.5,1.08-0.5,1.71c0,0.53,0.14,1.03,0.38,1.48c-0.23,0.44-0.38,0.94-0.38,1.48   c0,0.53,0.14,1.03,0.38,1.48c-0.23,0.44-0.38,0.94-0.38,1.48c0,0.53,0.14,1.03,0.38,1.48c-0.23,0.44-0.38,0.94-0.38,1.48   c0,0.16,0.02,0.31,0.05,0.46h-3.33c-1.77,0-3.21,1.44-3.21,3.21c0,0.93,0.4,1.76,1.03,2.34c-0.63,0.59-1.03,1.42-1.03,2.34   c0,0.53,0.14,1.03,0.38,1.48c-0.23,0.44-0.38,0.94-0.38,1.48c0,0.53,0.14,1.03,0.38,1.48c-0.23,0.44-0.38,0.94-0.38,1.48   c0,0.53,0.14,1.03,0.38,1.48c-0.23,0.44-0.38,0.94-0.38,1.48c0,0.53,0.14,1.03,0.38,1.48c-0.23,0.44-0.38,0.94-0.38,1.48   c0,0.53,0.14,1.03,0.38,1.48c-0.23,0.44-0.38,0.94-0.38,1.48s0.14,1.03,0.38,1.48c-0.23,0.44-0.38,0.94-0.38,1.48   c0,0.53,0.14,1.03,0.38,1.48c-0.23,0.44-0.38,0.94-0.38,1.48s0.14,1.03,0.38,1.48c-0.23,0.44-0.38,0.94-0.38,1.48   c0,0.53,0.14,1.03,0.38,1.48c-0.23,0.44-0.38,0.94-0.38,1.48s0.14,1.03,0.38,1.48c-0.23,0.44-0.38,0.94-0.38,1.48   c0,0.53,0.14,1.03,0.38,1.48c-0.23,0.44-0.38,0.94-0.38,1.48c0,0.53,0.14,1.03,0.38,1.48c-0.11,0.21-0.2,0.43-0.26,0.66h-3.4   c-1.77,0-3.21,1.44-3.21,3.21c0,0.79,0.3,1.51,0.78,2.07c-0.48,0.56-0.78,1.28-0.78,2.07c0,0.53,0.14,1.03,0.38,1.48   c-0.23,0.44-0.38,0.94-0.38,1.48c0,0.53,0.14,1.03,0.38,1.48c-0.23,0.44-0.38,0.94-0.38,1.48c0,0.53,0.14,1.03,0.38,1.48   c-0.23,0.44-0.38,0.94-0.38,1.48c0,0.53,0.14,1.03,0.38,1.48c-0.23,0.44-0.38,0.94-0.38,1.48c0,0.53,0.14,1.03,0.38,1.48   c-0.23,0.44-0.38,0.94-0.38,1.48c0,0.53,0.14,1.03,0.38,1.48c-0.23,0.44-0.38,0.94-0.38,1.48c0,0.53,0.14,1.03,0.38,1.48   c-0.23,0.44-0.38,0.94-0.38,1.48c0,0.11,0.02,0.22,0.03,0.32h-3.31c-1.77,0-3.21,1.44-3.21,3.21c0,0.86,0.35,1.64,0.9,2.22   c-0.56,0.58-0.9,1.36-0.9,2.22c0,0.53,0.14,1.03,0.38,1.48c-0.23,0.44-0.38,0.94-0.38,1.48c0,0.53,0.14,1.03,0.38,1.48   c-0.23,0.44-0.38,0.94-0.38,1.48c0,0.53,0.14,1.03,0.38,1.48c-0.23,0.44-0.38,0.94-0.38,1.48c0,0.53,0.14,1.03,0.38,1.48   c-0.23,0.44-0.38,0.94-0.38,1.48c0,0.53,0.14,1.03,0.38,1.48c-0.05,0.1-0.11,0.21-0.15,0.32h-3.51c-1.77,0-3.21,1.44-3.21,3.21   c0,0.78,0.29,1.49,0.76,2.05c-0.47,0.56-0.76,1.27-0.76,2.05c0,0.53,0.14,1.03,0.38,1.48c-0.11,0.21-0.2,0.43-0.26,0.66h-3.4   c-1.77,0-3.21,1.44-3.21,3.21c0,0.69,0.22,1.32,0.59,1.85c-0.37,0.52-0.59,1.16-0.59,1.85c0,0.53,0.14,1.03,0.38,1.48   c-0.23,0.44-0.38,0.94-0.38,1.48c0,0.53,0.14,1.03,0.38,1.48c-0.23,0.44-0.38,0.94-0.38,1.48c0,0.53,0.14,1.03,0.38,1.48   c-0.23,0.44-0.38,0.94-0.38,1.48c0,0.53,0.14,1.03,0.38,1.48c-0.23,0.44-0.38,0.94-0.38,1.48c0,0.53,0.14,1.03,0.38,1.48   c-0.23,0.44-0.38,0.94-0.38,1.48c0,0.53,0.14,1.03,0.38,1.48c-0.17,0.33-0.29,0.68-0.33,1.06h-3.32c-1.77,0-3.21,1.44-3.21,3.21   c0,0.45,0.09,0.88,0.26,1.27c-0.17,0.39-0.26,0.82-0.26,1.27c0,0.53,0.14,1.03,0.38,1.48c-0.23,0.44-0.38,0.94-0.38,1.48   c0,0.53,0.14,1.03,0.38,1.48c-0.23,0.44-0.38,0.94-0.38,1.48c0,0.53,0.14,1.03,0.38,1.48c-0.23,0.44-0.38,0.94-0.38,1.48   c0,0.53,0.14,1.03,0.38,1.48c-0.23,0.44-0.38,0.94-0.38,1.48s0.14,1.03,0.38,1.48c-0.23,0.44-0.38,0.94-0.38,1.48   c0,0.53,0.14,1.03,0.38,1.48c-0.23,0.44-0.38,0.94-0.38,1.48c0,0.53,0.14,1.03,0.38,1.48c-0.23,0.44-0.38,0.94-0.38,1.48   c0,0.53,0.14,1.03,0.38,1.48c-0.17,0.32-0.28,0.67-0.33,1.04h-3.33c-1.77,0-3.21,1.44-3.21,3.21c0,1.32,0.8,2.46,1.95,2.95   c-0.48,0.2-0.88,0.53-1.21,0.92h-4.03c-1.77,0-3.21,1.44-3.21,3.21c0,0.55,0.15,1.06,0.4,1.51h-3.68c-1.47,0-2.71,1-3.08,2.36   h-0.82c-0.13-1.65-1.5-2.95-3.18-2.95h-5.9c-0.1,0-0.2,0-0.3,0.01c-0.1-0.01-0.2-0.01-0.29-0.01h-5.9c-1.77,0-3.21,1.44-3.21,3.21   c0,0.59,0.17,1.13,0.45,1.61c-0.28,0.47-0.45,1.02-0.45,1.61c0,0.53,0.14,1.03,0.38,1.48c-0.06,0.12-0.12,0.24-0.17,0.37h-3.49   c-1.47,0-2.71,1-3.08,2.36h-1.54c-0.59-0.71-1.47-1.18-2.47-1.18h-5.9c-1.77,0-3.21,1.44-3.21,3.21c0,0.76,0.28,1.45,0.72,2   c-0.45,0.55-0.72,1.24-0.72,2c0,0.53,0.14,1.03,0.38,1.48c-0.12,0.24-0.22,0.48-0.29,0.75h-3.37c-1.77,0-3.21,1.44-3.21,3.21   c0,0.53,0.14,1.02,0.37,1.46c-0.23,0.44-0.37,0.93-0.37,1.46c0,0.53,0.14,1.03,0.38,1.48c-0.2,0.38-0.32,0.8-0.35,1.25   c-1.59,0-3.3,0-3.3,0c-1.68,0-3.05,1.3-3.18,2.95h-3.31c-1.77,0-3.21,1.44-3.21,3.21c0,0.11,0.02,0.22,0.03,0.33h-3.32   c-1.77,0-3.21,1.44-3.21,3.21c0,0.81,0.31,1.54,0.8,2.1h-4.09c-1.47,0-2.71,1-3.08,2.36h-2.16c-0.52-0.37-1.16-0.59-1.84-0.59   h-3.41c-0.37-1.36-1.61-2.36-3.08-2.36h-5.9c-1.47,0-2.71,1-3.08,2.36h-3.41c-1.77,0-3.21,1.44-3.21,3.21   c0,0.68,0.22,1.31,0.58,1.83c-0.36,0.52-0.58,1.15-0.58,1.83c0,0.53,0.14,1.03,0.38,1.48c-0.23,0.44-0.38,0.94-0.38,1.48   c0,0.28,0.05,0.55,0.12,0.81h-3.4c-1.77,0-3.21,1.44-3.21,3.21c0,1.11,0.57,2.09,1.43,2.67c-0.62,0.42-1.08,1.05-1.29,1.79h-0.93   c-0.38-1.36-1.61-2.36-3.08-2.36h-5.9c-1,0-1.88,0.47-2.47,1.18h-4.03c-1.77,0-3.21,1.44-3.21,3.21c0,1.18,0.64,2.2,1.59,2.75   c-0.95,0.56-1.59,1.58-1.59,2.75c0,0.53,0.14,1.03,0.38,1.48c-0.07,0.14-0.13,0.28-0.19,0.43h-2.22c-0.52-0.37-1.16-0.59-1.84-0.59   h-3.29c-0.01-0.52-0.15-1-0.37-1.44c0.23-0.44,0.38-0.94,0.38-1.48c0-0.53-0.14-1.03-0.38-1.48c0.23-0.44,0.38-0.94,0.38-1.48   c0-0.49-0.12-0.95-0.32-1.37c0.2-0.42,0.32-0.88,0.32-1.37c0-1.77-1.44-3.21-3.21-3.21h-3.43c0.09-0.29,0.15-0.6,0.15-0.92   c0-1.77-1.44-3.21-3.21-3.21h-3.46c0.1-0.32,0.18-0.65,0.18-1c0-0.53-0.14-1.03-0.38-1.48c0.23-0.44,0.38-0.94,0.38-1.48   c0-0.64-0.19-1.23-0.52-1.73c0.32-0.5,0.52-1.09,0.52-1.73c0-1.77-1.44-3.21-3.21-3.21h-5.9c-1.25,0-2.32,0.73-2.85,1.77h-3.64   c-0.1,0-0.2,0-0.3,0.01c-0.1-0.01-0.2-0.01-0.29-0.01h-5.9c-1.77,0-3.21,1.44-3.21,3.21c0,1.17,0.64,2.19,1.58,2.75   c-0.94,0.56-1.58,1.58-1.58,2.75c0,0.47,0.11,0.92,0.3,1.33h-3.58c-1.77,0-3.21,1.44-3.21,3.21c0,0.76,0.28,1.46,0.72,2.01   c-0.45,0.55-0.72,1.24-0.72,2.01c0,0.53,0.14,1.03,0.38,1.48c-0.23,0.44-0.38,0.94-0.38,1.48c0,0.53,0.14,1.03,0.38,1.48   c-0.23,0.44-0.38,0.94-0.38,1.48c0,0.53,0.14,1.03,0.38,1.48c-0.12,0.23-0.22,0.48-0.28,0.74h-0.77c-0.02-0.49-0.15-0.95-0.36-1.37   c0.23-0.44,0.38-0.94,0.38-1.48c0-0.89-0.37-1.7-0.96-2.29c0.59-0.58,0.96-1.39,0.96-2.29c0-1.77-1.44-3.21-3.21-3.21h-3.33   c0.02-0.15,0.05-0.3,0.05-0.46c0-0.9-0.38-1.71-0.98-2.3c0.6-0.58,0.98-1.4,0.98-2.3c0-1.77-1.44-3.21-3.21-3.21h-5.9   c-1.77,0-3.21,1.44-3.21,3.21c0,0.9,0.38,1.71,0.98,2.3c-0.6,0.58-0.98,1.4-0.98,2.3c0,0.53,0.14,1.03,0.38,1.48   c-0.03,0.05-0.06,0.11-0.09,0.16h-3.57c-1.77,0-3.21,1.44-3.21,3.21c0,0.51,0.13,0.99,0.35,1.42c-0.22,0.43-0.35,0.91-0.35,1.42   c0,0.53,0.14,1.03,0.38,1.48c-0.23,0.44-0.38,0.94-0.38,1.48c0,0.53,0.14,1.03,0.38,1.48c-0.21,0.4-0.34,0.85-0.36,1.32h-3.3   c-0.69,0-1.32,0.22-1.84,0.59h-4.65c-1.77,0-3.21,1.44-3.21,3.21s1.44,3.21,3.21,3.21h3.34c0,0.01,0,0.01,0,0.02h-3.35   c-1.77,0-3.21,1.44-3.21,3.21c0,0.53,0.14,1.03,0.38,1.48c-0.23,0.44-0.38,0.94-0.38,1.48c0,0.53,0.14,1.03,0.38,1.48   c-0.23,0.44-0.38,0.94-0.38,1.48c0,0.34,0.07,0.66,0.17,0.97h-3.45c-1.77,0-3.21,1.44-3.21,3.21c0,0.66,0.2,1.28,0.55,1.79   c-0.35,0.51-0.55,1.13-0.55,1.79c0,0.53,0.14,1.03,0.38,1.48c-0.23,0.44-0.38,0.94-0.38,1.48c0,0.1,0.02,0.19,0.03,0.29h-3.31   c-1.77,0-3.21,1.44-3.21,3.21c0,0.42,0.09,0.82,0.24,1.19c-0.15,0.37-0.24,0.77-0.24,1.19c0,0.53,0.14,1.03,0.38,1.48   c0,0,0,0.01-0.01,0.01h-3.65c-1.77,0-3.21,1.44-3.21,3.21c0,0.74,0.26,1.41,0.68,1.95c-0.18,0.23-0.33,0.47-0.44,0.74h-3.52   c-1.77,0-3.21,1.44-3.21,3.21c0,0.8,0.31,1.53,0.8,2.09c-0.49,0.56-0.8,1.29-0.8,2.09c0,0.53,0.14,1.02,0.37,1.46h-3.65   c-1.77,0-3.21,1.44-3.21,3.21c0,0.81,0.31,1.55,0.81,2.11c-0.16,0.18-0.29,0.37-0.41,0.58h-3.69c-1.77,0-3.21,1.44-3.21,3.21   c0,1.12,0.58,2.11,1.46,2.68c-0.63,0.41-1.09,1.04-1.31,1.78h-3.43c-1.77,0-3.21,1.44-3.21,3.21c0,0.43,0.09,0.84,0.24,1.22   c-0.16,0.38-0.24,0.79-0.24,1.22c0,0.29,0.05,0.57,0.13,0.84h-3.41c-1.77,0-3.21,1.44-3.21,3.21c0,1.05,0.51,1.97,1.29,2.56   c-0.06,0.04-0.11,0.09-0.17,0.14h-4.41c-0.1,0-0.2,0-0.29,0.01c-0.1-0.01-0.2-0.01-0.3-0.01h-5.9c-1.47,0-2.71,1-3.08,2.36h-3.41   c-1.77,0-3.21,1.44-3.21,3.21c0,0.81,0.31,1.54,0.8,2.1h-1.5c0.01-0.11,0.03-0.22,0.03-0.33c0-1.77-1.44-3.21-3.21-3.21h-3.41   c-0.37-1.36-1.61-2.36-3.08-2.36h-5.9c-1.77,0-3.21,1.44-3.21,3.21c0,0.65,0.2,1.26,0.54,1.77c-0.29,0.44-0.47,0.96-0.51,1.51   h-3.31c-1.77,0-3.21,1.44-3.21,3.21c0,0.53,0.14,1.02,0.37,1.46c-0.23,0.44-0.37,0.93-0.37,1.46c0,0.53,0.14,1.03,0.38,1.48   c-0.23,0.44-0.38,0.94-0.38,1.48c0,0.53,0.14,1.03,0.38,1.48c-0.23,0.44-0.38,0.94-0.38,1.48c0,0.12,0.02,0.24,0.04,0.35h-0.73   c0.01-0.1,0.03-0.2,0.03-0.31c0-0.54-0.15-1.04-0.38-1.49c0.24-0.45,0.38-0.95,0.38-1.49c0-1.77-1.44-3.21-3.21-3.21h-5.9   c-1.68,0-3.05,1.3-3.18,2.95h-0.84c0.09-0.29,0.15-0.6,0.15-0.92c0-1.77-1.44-3.21-3.21-3.21h-5.9c-1.77,0-3.21,1.44-3.21,3.21   c0,0.81,0.31,1.54,0.8,2.1h-4.09c-1.77,0-3.21,1.44-3.21,3.21c0,0.78,0.29,1.48,0.75,2.04c-0.46,0.56-0.75,1.26-0.75,2.04   c0,0.53,0.14,1.03,0.38,1.48c-0.23,0.44-0.38,0.94-0.38,1.48c0,0.53,0.14,1.03,0.38,1.48c-0.23,0.44-0.38,0.94-0.38,1.48   s0.14,1.03,0.38,1.48c-0.23,0.44-0.38,0.94-0.38,1.48c0,0.13,0.02,0.26,0.04,0.39h-0.71c0-0.01,0-0.02,0-0.03   c0-0.53-0.14-1.03-0.38-1.48c0.23-0.44,0.38-0.94,0.38-1.48s-0.14-1.03-0.38-1.48c0.23-0.44,0.38-0.94,0.38-1.48   c0-0.53-0.14-1.03-0.38-1.48c0.23-0.44,0.38-0.94,0.38-1.48c0-0.53-0.14-1.03-0.38-1.48c0.23-0.44,0.38-0.94,0.38-1.48   c0-0.53-0.14-1.03-0.38-1.48c0.23-0.44,0.38-0.94,0.38-1.48c0-0.48-0.11-0.92-0.3-1.33c0.19-0.41,0.3-0.85,0.3-1.33   c0-1.77-1.44-3.21-3.21-3.21h-5.9c-1.77,0-3.21,1.44-3.21,3.21c0,0.48,0.11,0.92,0.3,1.33c-0.03,0.06-0.05,0.12-0.08,0.18h-3.5   c-1.77,0-3.21,1.44-3.21,3.21c0,0.72,0.25,1.38,0.65,1.91c-0.4,0.54-0.65,1.19-0.65,1.91c0,0.53,0.14,1.03,0.38,1.48   c-0.23,0.44-0.38,0.94-0.38,1.48c0,0.44,0.09,0.85,0.25,1.23h-2.38c0.88-0.57,1.47-1.56,1.47-2.69c0-1.77-1.44-3.21-3.21-3.21   h-3.32c0.01-0.11,0.03-0.22,0.03-0.33c0-1.77-1.44-3.21-3.21-3.21h-5.9c-1.77,0-3.21,1.44-3.21,3.21c0,1.07,0.53,2.02,1.35,2.6   c-0.77,0.55-1.28,1.44-1.33,2.45h-3.3c-1.77,0-3.21,1.44-3.21,3.21c0,0.11,0.02,0.22,0.03,0.33h-3.32c-1.77,0-3.21,1.44-3.21,3.21   c0,1.47,1,2.71,2.36,3.08c-1.19,0.33-2.1,1.32-2.31,2.56h-3.33c-1.77,0-3.21,1.44-3.21,3.21c0,0.36,0.07,0.69,0.18,1.01   c-0.11,0.32-0.18,0.66-0.18,1.01c0,0.53,0.14,1.03,0.38,1.48c-0.23,0.44-0.38,0.94-0.38,1.48c0,0.03,0.01,0.05,0.01,0.08h-3.29   c-1.77,0-3.21,1.44-3.21,3.21c0,0.56,0.16,1.08,0.41,1.54c-0.25,0.46-0.41,0.98-0.41,1.54c0,0.53,0.14,1.03,0.38,1.48   c-0.23,0.44-0.38,0.94-0.38,1.48s0.14,1.03,0.38,1.48c-0.08,0.16-0.15,0.32-0.21,0.5h-3.45c-1.77,0-3.21,1.44-3.21,3.21   c0,0.49,0.12,0.96,0.32,1.37c-0.2,0.42-0.32,0.88-0.32,1.37c0,0.4,0.08,0.77,0.21,1.12h-0.94c-0.06-0.3-0.17-0.58-0.31-0.85   c0.23-0.44,0.38-0.94,0.38-1.48s-0.14-1.03-0.38-1.48c0.23-0.44,0.38-0.94,0.38-1.48c0-1.77-1.44-3.21-3.21-3.21h-3.76   c-0.1-0.16-0.21-0.3-0.32-0.44h4.09c1.77,0,3.21-1.44,3.21-3.21s-1.44-3.21-3.21-3.21h-5.9c-1.77,0-3.21,1.44-3.21,3.21   c0,0.81,0.31,1.54,0.8,2.1h-4.09c-1.77,0-3.21,1.44-3.21,3.21c0,0.61,0.18,1.18,0.48,1.67c-0.3,0.49-0.48,1.06-0.48,1.67   c0,0.53,0.14,1.03,0.38,1.48c-0.23,0.44-0.38,0.94-0.38,1.48c0,0.4,0.08,0.77,0.21,1.12h-3.5c-1.68,0-3.05,1.3-3.18,2.95h-3.31   c-1.77,0-3.21,1.44-3.21,3.21c0,0.81,0.31,1.54,0.8,2.1h-4.09c-1.77,0-3.21,1.44-3.21,3.21c0,0.11,0.02,0.22,0.03,0.33h-0.84   c0.08-0.29,0.14-0.59,0.14-0.9c0-0.53-0.14-1.03-0.38-1.48c0.23-0.44,0.38-0.94,0.38-1.48c0-0.8-0.3-1.52-0.78-2.08   c0.48-0.56,0.78-1.28,0.78-2.08c0-1.77-1.44-3.21-3.21-3.21h-3.32c0.01-0.11,0.03-0.21,0.03-0.32c0-0.53-0.14-1.03-0.38-1.48   c0.23-0.44,0.38-0.94,0.38-1.48c0-1.77-1.44-3.21-3.21-3.21h-3.6c-0.02-0.03-0.04-0.07-0.06-0.1c0.19-0.35,0.3-0.74,0.34-1.16h3.31   c1.77,0,3.21-1.44,3.21-3.21s-1.44-3.21-3.21-3.21h-3.3c-0.03-0.46-0.15-0.89-0.36-1.27c0.23-0.44,0.38-0.94,0.38-1.48   c0-0.64-0.19-1.24-0.52-1.74c0.33-0.5,0.52-1.1,0.52-1.74c0-1.77-1.44-3.21-3.21-3.21h-5.9c-1.77,0-3.21,1.44-3.21,3.21   c0,0.64,0.19,1.24,0.52,1.74c-0.29,0.45-0.46,0.98-0.5,1.54h-2.05c-0.52-0.37-1.16-0.59-1.84-0.59h-3.41   c-0.37-1.36-1.61-2.36-3.08-2.36h-5.9c-1.77,0-3.21,1.44-3.21,3.21c0,0.61,0.18,1.17,0.47,1.65c-0.29,0.48-0.47,1.04-0.47,1.65   c0,0.2,0.02,0.39,0.06,0.57h-3.34c-1.25,0-2.32,0.73-2.85,1.77h-1.04c-0.03-0.44-0.16-0.86-0.35-1.23   c0.23-0.44,0.38-0.94,0.38-1.48c0-0.53-0.14-1.03-0.37-1.47c0.23-0.44,0.37-0.94,0.37-1.47c0-1.77-1.44-3.21-3.21-3.21h-5.9   c-1.77,0-3.21,1.44-3.21,3.21c0,0.53,0.14,1.03,0.37,1.47c-0.23,0.44-0.37,0.94-0.37,1.47c0,0.53,0.14,1.03,0.38,1.48   c-0.23,0.44-0.38,0.94-0.38,1.48c0,0.53,0.14,1.03,0.38,1.48c-0.23,0.44-0.38,0.94-0.38,1.48s0.14,1.03,0.38,1.48   c-0.23,0.44-0.38,0.94-0.38,1.48s0.14,1.03,0.38,1.48c-0.23,0.44-0.38,0.94-0.38,1.48c0,0.53,0.14,1.03,0.38,1.48   c-0.23,0.44-0.38,0.94-0.38,1.48c0,0.53,0.14,1.03,0.38,1.48c-0.23,0.44-0.38,0.94-0.38,1.48c0,0.33,0.06,0.64,0.15,0.93h-1.17   c-0.53-1.05-1.6-1.77-2.85-1.77h-3.33c0.03-0.17,0.05-0.34,0.05-0.51c0-0.53-0.14-1.03-0.38-1.48c0.23-0.44,0.38-0.94,0.38-1.48   s-0.14-1.03-0.38-1.48c0.23-0.44,0.38-0.94,0.38-1.48c0-1.77-1.44-3.21-3.21-3.21h-5.9c-1.77,0-3.21,1.44-3.21,3.21   c0,0.53,0.14,1.03,0.38,1.48c-0.23,0.44-0.38,0.94-0.38,1.48c0,0.18,0.02,0.34,0.05,0.51h-0.95c-0.04-0.1-0.09-0.2-0.15-0.3   c0.23-0.44,0.38-0.94,0.38-1.48s-0.14-1.03-0.38-1.48c0.23-0.44,0.38-0.94,0.38-1.48c0-1.03-0.5-1.94-1.25-2.52   c0.76-0.59,1.25-1.5,1.25-2.52c0-1.77-1.44-3.21-3.21-3.21h-5.9c-1.77,0-3.21,1.44-3.21,3.21c0,0.32,0.06,0.63,0.15,0.92h-3.43   c-1.77,0-3.21,1.44-3.21,3.21c0,0.63,0.19,1.21,0.5,1.7c-0.29,0.46-0.46,1-0.49,1.58h-3.3c-1.77,0-3.21,1.44-3.21,3.21   c0,0.87,0.35,1.66,0.92,2.24c-0.43,0.44-0.74,1-0.86,1.63h-3.34c-1.77,0-3.21,1.44-3.21,3.21c0,0.32,0.06,0.63,0.15,0.92h-1.01   c-0.15-0.41-0.37-0.79-0.67-1.1c0.53-0.57,0.87-1.34,0.87-2.18c0-1.77-1.44-3.21-3.21-3.21h-5.9c-1.77,0-3.21,1.44-3.21,3.21   c0,0.81,0.31,1.54,0.8,2.1h-4.09c-1.77,0-3.21,1.44-3.21,3.21c0,0.11,0.02,0.22,0.03,0.33h-2.06c-0.52-0.37-1.16-0.59-1.84-0.59   h-5.9c-1.77,0-3.21,1.44-3.21,3.21c0,0.81,0.31,1.54,0.8,2.1h-4.09c-1.77,0-3.21,1.44-3.21,3.21c0,1.13,0.59,2.12,1.47,2.69h-2.22   c-0.17-0.77-0.62-1.43-1.23-1.89c0.79-0.59,1.31-1.52,1.31-2.58c0-1.77-1.44-3.21-3.21-3.21h-5.9c-1.77,0-3.21,1.44-3.21,3.21   c0,1.06,0.52,1.99,1.31,2.58c-0.79,0.59-1.31,1.52-1.31,2.58c0,0.38,0.08,0.74,0.2,1.08h-3.48c-1,0-1.88,0.47-2.47,1.18h-4.03   c-1.77,0-3.21,1.44-3.21,3.21c0,1.13,0.59,2.12,1.47,2.69h-2.88c-0.59-0.71-1.47-1.18-2.47-1.18h-5.9c-1.77,0-3.21,1.44-3.21,3.21   c0,0.84,0.33,1.6,0.87,2.18c-0.43,0.46-0.72,1.04-0.82,1.69h-3.33c-1.47,0-2.71,1-3.08,2.36h-3.41c-1.47,0-2.71,1-3.08,2.36h-3.41   c-1.47,0-2.71,1-3.08,2.36h-3.41c-1.77,0-3.21,1.44-3.21,3.21c0,0.11,0.02,0.22,0.03,0.33h-3.32c-1.47,0-2.71,1-3.08,2.36h-3.41   c-1.25,0-2.32,0.73-2.85,1.77h-2.39c-0.52-0.37-1.16-0.59-1.84-0.59h-5.9c-1.25,0-2.32,0.73-2.85,1.77h-3.64   c-0.69,0-1.32,0.22-1.84,0.59h-2.77c-0.59-0.71-1.47-1.18-2.47-1.18h-5.9c-1,0-1.88,0.47-2.47,1.18h-4.03c-1.47,0-2.71,1-3.08,2.36   h-3.41c-1.25,0-2.32,0.73-2.85,1.77h-3.64c-0.69,0-1.32,0.22-1.84,0.59h-4.62l-0.38-0.45l-0.45,0.57   c-0.67,0.17-1.24,0.55-1.67,1.07h-4.03c-0.69,0-1.32,0.22-1.84,0.59h-3.4c-0.52-0.37-1.16-0.59-1.84-0.59h-5.9   c-0.1,0-0.2,0-0.29,0.01c-0.1-0.01-0.2-0.01-0.3-0.01h-5.9c-0.1,0-0.2,0-0.29,0.01c-0.1-0.01-0.2-0.01-0.3-0.01h-5.9   c-0.69,0-1.32,0.22-1.84,0.59h-4.65c-0.1,0-0.2,0-0.3,0.01c-0.1-0.01-0.19-0.01-0.29-0.01h-5.9c-0.69,0-1.32,0.22-1.84,0.59h-4.65   c-0.69,0-1.32,0.22-1.84,0.59h-4.65c-1,0-1.88,0.47-2.47,1.18h-4.03c-0.1,0-0.2,0-0.3,0.01c-0.1-0.01-0.19-0.01-0.29-0.01h-5.9   c-0.1,0-0.2,0-0.3,0.01c-0.1-0.01-0.19-0.01-0.29-0.01h-4.03c-0.59-0.71-1.47-1.18-2.47-1.18h-5.9c-1.47,0-2.71,1-3.08,2.36h-1.54   c-0.59-0.71-1.47-1.18-2.47-1.18h-5.9c-0.69,0-1.32,0.22-1.84,0.59h-4.65c-0.69,0-1.32,0.22-1.84,0.59h-4.65   c-1.25,0-2.32,0.73-2.85,1.77h-1.76c-0.59-0.71-1.47-1.18-2.47-1.18h-5.9c-1,0-1.88,0.47-2.47,1.18h-2.77   c-0.52-0.37-1.16-0.59-1.84-0.59h-5.9c-0.1,0-0.2,0-0.29,0.01c-0.1-0.01-0.2-0.01-0.29-0.01h-5.9c-1,0-1.88,0.47-2.47,1.18h-2.77   c-0.52-0.37-1.16-0.59-1.84-0.59h-5.9c-1,0-1.88,0.47-2.47,1.18h-4.03c-0.1,0-0.2,0-0.3,0.01c-0.1-0.01-0.19-0.01-0.29-0.01h-5.9   c-0.69,0-1.32,0.22-1.84,0.59h-3.4c-0.52-0.37-1.16-0.59-1.84-0.59h-5.9c-1.47,0-2.71,1-3.08,2.36h-2.16   c-0.52-0.37-1.16-0.59-1.84-0.59h-5.9c-0.1,0-0.2,0-0.3,0.01c-0.1-0.01-0.19-0.01-0.29-0.01h-4.65c-0.52-0.37-1.16-0.59-1.84-0.59   H680c-1,0-1.88,0.47-2.47,1.18h-2.77c-0.52-0.37-1.16-0.59-1.84-0.59h-5.9c-1.47,0-2.71,1-3.08,2.36h-1.54   c-0.59-0.71-1.47-1.18-2.47-1.18h-5.9c-1.77,0-3.21,1.44-3.21,3.21c0,0.57,0.16,1.09,0.42,1.55c-0.26,0.46-0.42,0.99-0.42,1.55   c0,0.18,0.02,0.35,0.05,0.52c-0.03,0.17-0.05,0.34-0.05,0.52v1.54v0.38v11.05h321.01l0.12,0.42l0.11-0.42h356.65l0.2,0.77   l0.19-0.77h155.3l0.17,0.72l0.2-0.72h25.65l0.17,0.67l0.17-0.67h191.08v-9.47v-0.39v-0.46c0,0,0-0.64,0-0.68v-0.33v-0.38v-0.02   v-0.03v0v-0.41v-0.24v-0.39v-0.15h0l0-0.2l-0.01-0.05l0.02-0.06c0,0,0-0.63,0-0.68c0,0,0,0,0,0v0l0-0.14l0,0v-0.19v-0.21v-0.16   c0,0,0,0,0,0l0-0.05l0,0v-0.41c0,0,0-0.01,0-0.01l0-0.22l0-0.01v-0.4c0,0,0-0.01,0-0.01l0-0.34l-0.01-0.05l0.02-0.06   c0,0,0-0.64,0-0.68c0,0,0,0,0,0v0l0-0.24c0-0.01,0-0.01,0-0.02l0-0.06l0,0v-0.38c0-0.01,0-0.01,0-0.02l0-0.01v-0.05v0v-0.39   c0,0,0-0.01,0-0.01l0-0.21l0-0.01v-0.41c0,0,0-0.01,0-0.01l0-0.33l-0.02-0.06l0.02-0.07c0,0,0-0.63,0-0.68c0,0,0,0,0,0v0l0-0.24   c0-0.01,0-0.01,0-0.02l0-0.06l0,0v-0.38c0-0.01,0-0.01,0-0.02l0-0.01v-0.05v0v-0.39c0,0,0-0.01,0-0.01l0-0.21l0-0.01v-0.41   c0,0,0-0.01,0-0.01l0-0.33l-0.02-0.05l0.02-0.07c0,0,0-0.64,0-0.68l0-0.24c0-0.01,0-0.01,0-0.02l0-0.06l0,0v-0.38c0,0,0,0,0,0   v-0.03v0v-0.03v0v-0.39c0,0,0-0.01,0-0.01l0-0.22l0-0.01v-0.4c0,0,0-0.01,0-0.01l0-0.34l-0.01-0.05l0.02-0.06c0,0,0-0.63,0-0.68   c0,0,0,0,0,0v0l0-0.1l0,0v-0.23v-0.17v-0.22c0-0.01,0-0.01,0-0.02l0-0.01v-0.05v0v-0.39c0,0,0-0.01,0-0.01l0-0.35l-0.01-0.05   c0-0.05,0.02-0.1,0.02-0.14c0-0.04-0.01-0.08-0.01-0.11c0-0.04,0.01-0.08,0.01-0.12c0-0.08-0.01-0.16-0.02-0.24l0.02-0.06   c0,0,0-0.65,0-0.7c0-0.01,0-0.01,0-0.02l0-0.08l-0.01-0.03c0-0.04,0.01-0.09,0.01-0.13c0-0.02,0-0.03,0-0.05l0-0.01v-0.38   c0-0.01,0-0.01,0-0.02l0-0.01v-0.4c0-0.04-0.01-0.08-0.01-0.12c0-0.04,0.01-0.08,0.01-0.12c0-0.06-0.02-0.12-0.02-0.18   c0-0.06,0.02-0.12,0.02-0.18c0-0.14-0.02-0.27-0.04-0.41c0,0,0,0,0,0l0.04-0.16c0,0,0-0.6,0-0.65c0-0.04-0.01-0.09-0.01-0.13   c0-0.04,0.01-0.09,0.01-0.13c0-0.03-0.01-0.05-0.01-0.08l0.01-0.03v-0.18v-0.17v-0.06v-0.15v-0.19c0,0,0,0,0-0.01l0-0.23   c0,0,0,0,0-0.01c0,0,0,0,0-0.01l0-0.16l-0.02-0.05c0-0.05,0.02-0.09,0.02-0.14c0-0.14-0.02-0.27-0.04-0.41c0,0,0,0,0,0l0.04-0.16   c0,0,0-0.32,0-0.51c0-0.07,0-0.12,0-0.14v-0.26c0,0,0,0,0-0.01l0-0.25c0-0.01,0-0.02,0-0.03c0-0.02,0-0.03,0-0.05v0l0,0   c0-0.02,0-0.04,0-0.06l0.01-0.03v-0.43c0,0,0,0,0,0l0-0.41l-0.02-0.05c0-0.05,0.02-0.09,0.02-0.14c0-0.16-0.02-0.32-0.05-0.47   c0.02-0.16,0.05-0.31,0.05-0.47c0-0.05,0-0.23,0-0.28c0-0.04-0.01-0.09-0.01-0.13c0-0.04,0.01-0.09,0.01-0.13   c0-0.07-0.02-0.14-0.02-0.21l0.02-0.08v-0.14v-0.24v-0.19c0,0,0,0,0,0l0-0.41l-0.02-0.05c0-0.05,0.02-0.09,0.02-0.14   c0-0.16-0.02-0.32-0.05-0.47c0.02-0.16,0.05-0.31,0.05-0.47c0-0.05,0-0.23,0-0.28c0-0.04-0.01-0.09-0.01-0.13   c0-0.04,0.01-0.09,0.01-0.13c0-0.09-0.02-0.17-0.02-0.26c0-0.06,0.02-0.12,0.02-0.18l0.01-0.03v-0.39c0-0.03-0.01-0.05-0.01-0.08   l0-0.01l0-0.01c0-0.07-0.02-0.13-0.02-0.2c0.01-0.1,0.04-0.2,0.04-0.3c0-0.16-0.02-0.32-0.05-0.47c0.02-0.16,0.05-0.31,0.05-0.47   c0-0.05,0-0.23,0-0.28c0-0.04-0.01-0.09-0.01-0.13c0-0.04,0.01-0.09,0.01-0.13c0-0.12-0.01-0.24-0.02-0.35   c0-0.03,0.01-0.05,0.02-0.08l0.01-0.03v-0.39c0-0.1-0.03-0.2-0.04-0.3c0.01-0.1,0.04-0.2,0.04-0.3c0-0.16-0.02-0.32-0.05-0.47   c0.02-0.16,0.05-0.31,0.05-0.47c0-0.05,0-0.23,0-0.28c0-0.04-0.01-0.09-0.01-0.13c0-0.04,0.01-0.09,0.01-0.13   c0-0.12-0.01-0.24-0.02-0.35c0-0.03,0.01-0.05,0.02-0.08l0.01-0.03v-0.4c0-0.1-0.03-0.2-0.04-0.3c0.01-0.1,0.04-0.2,0.04-0.3   c0-0.16-0.02-0.32-0.05-0.47c0.02-0.16,0.05-0.31,0.05-0.47c0-0.05,0-0.23,0-0.28c0-0.15-0.01-0.3-0.03-0.45   c0.01-0.08,0.02-0.16,0.02-0.25l0.01-0.03v-0.39c0-0.03-0.01-0.05-0.01-0.08l0-0.01l0-0.01c0-0.07-0.02-0.14-0.03-0.21   c0.01-0.1,0.04-0.2,0.04-0.3c0-0.16-0.02-0.32-0.05-0.47c0.02-0.16,0.05-0.31,0.05-0.47c0-0.05,0-0.23,0-0.28   c0-0.16-0.01-0.31-0.03-0.46c0.01-0.08,0.02-0.15,0.03-0.23l0.01-0.03v-0.4c0-0.1-0.03-0.2-0.04-0.3c0.01-0.1,0.04-0.2,0.04-0.3   c0-0.16-0.02-0.32-0.05-0.47c0.02-0.16,0.05-0.31,0.05-0.47c0-0.05,0-0.23,0-0.28c0-0.16-0.01-0.31-0.03-0.46   c0.01-0.07,0.02-0.14,0.02-0.22l0.01-0.04v-0.41c0-0.1-0.03-0.2-0.04-0.3c0.01-0.1,0.04-0.2,0.04-0.3c0-0.16-0.02-0.32-0.05-0.47   c0.02-0.16,0.05-0.31,0.05-0.47c0-0.05,0-0.23,0-0.28c0-0.16-0.01-0.31-0.03-0.46c0.01-0.08,0.02-0.15,0.03-0.23l0.01-0.03v-0.4   c0-0.1-0.03-0.2-0.04-0.3c0.01-0.1,0.04-0.2,0.04-0.3c0-0.16-0.02-0.32-0.05-0.47c0.02-0.16,0.05-0.31,0.05-0.47   c0-0.05,0-0.23,0-0.28c0-0.16-0.01-0.31-0.03-0.46c0.01-0.08,0.02-0.16,0.03-0.23l0.01-0.03v-0.39c0-0.1-0.03-0.2-0.04-0.3   c0.01-0.1,0.04-0.2,0.04-0.3c0-0.16-0.02-0.32-0.05-0.47c0.02-0.16,0.05-0.31,0.05-0.47c0-0.05,0-0.23,0-0.28   c0-0.16-0.01-0.31-0.03-0.46c0.01-0.08,0.02-0.16,0.03-0.23l0.01-0.03v-0.39c0-0.1-0.03-0.2-0.04-0.3c0.01-0.1,0.04-0.2,0.04-0.3   c0-0.16-0.02-0.32-0.05-0.47c0.02-0.16,0.05-0.31,0.05-0.47c0-0.05,0-0.23,0-0.28c0-0.16-0.01-0.31-0.03-0.47   c0.01-0.08,0.02-0.15,0.03-0.23l0.01-0.03v-0.4c0-0.1-0.03-0.2-0.04-0.3c0.01-0.1,0.04-0.2,0.04-0.3c0-0.16-0.02-0.32-0.05-0.47   c0.02-0.16,0.05-0.31,0.05-0.47c0-0.05,0-0.23,0-0.28c0-0.16-0.01-0.31-0.03-0.46c0.01-0.08,0.02-0.16,0.03-0.23l0.01-0.03v-0.39   c0-0.1-0.03-0.2-0.04-0.3c0.01-0.1,0.04-0.2,0.04-0.3c0-0.16-0.02-0.32-0.05-0.47c0.02-0.16,0.05-0.31,0.05-0.47   c0-0.02,0-0.46,0-0.46c0-0.12-0.01-0.25-0.02-0.37c0.01-0.12,0.02-0.25,0.02-0.37c0-0.14-0.02-0.27-0.04-0.4   c0.02-0.13,0.04-0.26,0.04-0.4c0-0.16-0.02-0.32-0.05-0.47c0.02-0.16,0.05-0.31,0.05-0.47c0-0.05,0-0.23,0-0.28   c0-0.16-0.01-0.31-0.03-0.47c0.02-0.15,0.03-0.31,0.03-0.46c0-0.14-0.02-0.27-0.04-0.4c0.02-0.13,0.04-0.26,0.04-0.4   c0-0.16-0.02-0.32-0.05-0.47c0.02-0.16,0.05-0.31,0.05-0.47c0-0.05,0-0.23,0-0.28c0-0.16-0.01-0.31-0.03-0.47   c0.02-0.15,0.03-0.31,0.03-0.46c0-0.14-0.02-0.27-0.04-0.4c0.02-0.13,0.04-0.26,0.04-0.4c0-0.16-0.02-0.32-0.05-0.47   c0.02-0.16,0.05-0.31,0.05-0.47c0-0.05,0-0.23,0-0.28c0-0.16-0.01-0.31-0.03-0.46c0.02-0.15,0.03-0.31,0.03-0.47   c0-0.14-0.02-0.27-0.04-0.4c0.02-0.13,0.04-0.26,0.04-0.4c0-0.16-0.02-0.32-0.05-0.47c0.02-0.16,0.05-0.31,0.05-0.47   c0-0.05,0-0.23,0-0.28c0-0.16-0.01-0.31-0.03-0.46c0.02-0.15,0.03-0.31,0.03-0.47c0-0.14-0.02-0.27-0.04-0.4   c0.02-0.13,0.04-0.26,0.04-0.4c0-0.16-0.02-0.32-0.05-0.47c0.02-0.16,0.05-0.31,0.05-0.47c0-0.05,0-0.23,0-0.28   c0-0.16-0.01-0.31-0.03-0.47c0.02-0.15,0.03-0.31,0.03-0.47c0-0.14-0.02-0.27-0.04-0.4c0.02-0.13,0.04-0.26,0.04-0.4   c0-0.16-0.02-0.32-0.05-0.47c0.02-0.16,0.05-0.31,0.05-0.47c0-0.05,0-0.23,0-0.28c0-0.16-0.01-0.31-0.03-0.47   c0.02-0.15,0.03-0.31,0.03-0.46c0-0.14-0.02-0.27-0.04-0.4c0.02-0.13,0.04-0.26,0.04-0.4c0-0.16-0.02-0.32-0.05-0.47   c0.02-0.16,0.05-0.31,0.05-0.47c0-0.05,0-0.23,0-0.28c0-0.16-0.01-0.31-0.03-0.46c0.02-0.15,0.03-0.31,0.03-0.47   c0-0.14-0.02-0.27-0.04-0.4c0.02-0.13,0.04-0.26,0.04-0.4c0-0.16-0.02-0.32-0.05-0.47c0.02-0.16,0.05-0.31,0.05-0.47   c0-0.05,0-0.23,0-0.28c0-0.13-0.01-0.26-0.02-0.39c0.02-0.13,0.02-0.26,0.02-0.39c0-0.16-0.02-0.32-0.05-0.48   c0.02-0.16,0.05-0.31,0.05-0.48c0-0.16-0.02-0.32-0.05-0.47c0.02-0.16,0.05-0.31,0.05-0.47c0-0.05,0-0.23,0-0.28   c0-0.3-0.06-0.59-0.13-0.86c0.08-0.28,0.13-0.56,0.13-0.86c0-0.16-0.02-0.32-0.05-0.47c0.02-0.16,0.05-0.31,0.05-0.47   c0-0.05,0-0.23,0-0.28c0-0.3-0.06-0.59-0.13-0.86c0.08-0.28,0.13-0.56,0.13-0.86c0-0.16-0.02-0.32-0.05-0.47   c0.02-0.16,0.05-0.31,0.05-0.47c0-0.05,0-0.23,0-0.28c0-0.3-0.06-0.59-0.13-0.86c0.08-0.28,0.13-0.56,0.13-0.86   c0-0.16-0.02-0.32-0.05-0.47c0.02-0.16,0.05-0.31,0.05-0.47c0-0.05,0-0.23,0-0.28c0-0.3-0.06-0.59-0.13-0.86   c0.08-0.28,0.13-0.56,0.13-0.86c0-0.16-0.02-0.32-0.05-0.47c0.02-0.16,0.05-0.31,0.05-0.47c0-0.05,0-0.23,0-0.28   c0-0.48-0.11-0.93-0.3-1.34c0.19-0.41,0.3-0.86,0.3-1.34c0-0.05,0-0.23,0-0.28c0-0.48-0.11-0.93-0.3-1.34   c0.19-0.41,0.3-0.86,0.3-1.34c0-0.01,0-0.05,0-0.07v-0.2v-0.19c0-0.04-0.01-0.08-0.01-0.13l-0.01-0.15l-0.01-0.05   c-0.03-0.32-0.1-0.63-0.22-0.91c0.16-0.38,0.25-0.8,0.25-1.24c0-0.05,0-0.23,0-0.28c0-0.48-0.11-0.93-0.3-1.34   c0.19-0.41,0.3-0.86,0.3-1.34c0-0.05,0-0.23,0-0.28c0-0.48-0.11-0.93-0.3-1.34c0.19-0.41,0.3-0.86,0.3-1.34c0-0.05,0-0.23,0-0.28   c0-0.48-0.11-0.93-0.3-1.34c0.19-0.41,0.3-0.86,0.3-1.34c0-0.05,0-0.23,0-0.28c0-0.48-0.11-0.93-0.3-1.34   c0.19-0.41,0.3-0.86,0.3-1.34c0-0.05,0-0.23,0-0.28c0-0.48-0.11-0.93-0.3-1.34c0.19-0.41,0.3-0.86,0.3-1.34c0-0.05,0-0.23,0-0.28   c0-0.48-0.11-0.93-0.3-1.34c0.19-0.41,0.3-0.86,0.3-1.34c0-0.05,0-0.23,0-0.28c0-0.48-0.11-0.93-0.3-1.34   c0.19-0.41,0.3-0.86,0.3-1.34c0-0.05,0-0.23,0-0.28c0-0.48-0.11-0.93-0.3-1.34c0.19-0.41,0.3-0.86,0.3-1.34c0-0.05,0-0.23,0-0.28   c0-0.48-0.11-0.93-0.3-1.34c0.19-0.41,0.3-0.86,0.3-1.34c0-0.05,0-0.23,0-0.28c0-0.48-0.11-0.93-0.3-1.34   c0.19-0.41,0.3-0.86,0.3-1.34c0-0.05,0-0.23,0-0.28c0-0.48-0.11-0.93-0.3-1.34c0.19-0.41,0.3-0.86,0.3-1.34c0-0.05,0-0.23,0-0.28   c0-0.48-0.11-0.93-0.3-1.34c0.19-0.41,0.3-0.86,0.3-1.34c0-0.05,0-0.23,0-0.28c0-0.48-0.11-0.93-0.3-1.34   c0.19-0.41,0.3-0.86,0.3-1.34c0-0.05,0-0.23,0-0.28c0-0.48-0.11-0.93-0.3-1.34c0.19-0.41,0.3-0.86,0.3-1.34c0-0.05,0-0.23,0-0.28   c0-0.48-0.11-0.93-0.3-1.34c0.19-0.41,0.3-0.86,0.3-1.34c0-0.05,0-0.23,0-0.28c0-0.48-0.11-0.93-0.3-1.34   c0.19-0.41,0.3-0.86,0.3-1.34c0-0.05,0-0.23,0-0.28c0-0.48-0.11-0.93-0.3-1.34c0.19-0.41,0.3-0.86,0.3-1.34c0-0.05,0-0.23,0-0.28   c0-0.48-0.11-0.93-0.3-1.34c0.19-0.41,0.3-0.86,0.3-1.34c0-0.05,0-0.23,0-0.28c0-0.48-0.11-0.93-0.3-1.34   c0.19-0.41,0.3-0.86,0.3-1.34c0-0.05,0-0.23,0-0.28c0-0.48-0.11-0.93-0.3-1.34c0.19-0.41,0.3-0.86,0.3-1.34c0-0.05,0-0.23,0-0.28   c0-0.48-0.11-0.93-0.3-1.34c0.19-0.41,0.3-0.86,0.3-1.34c0-0.05,0-0.23,0-0.28c0-0.48-0.11-0.93-0.3-1.34   c0.19-0.41,0.3-0.86,0.3-1.34c0-0.05,0-0.23,0-0.28c0-0.48-0.11-0.93-0.3-1.34c0.19-0.41,0.3-0.86,0.3-1.34c0-0.05,0-0.23,0-0.28   c0-0.48-0.11-0.93-0.3-1.34c0.19-0.41,0.3-0.86,0.3-1.34c0-0.05,0-0.23,0-0.28c0-0.48-0.11-0.93-0.3-1.34   c0.19-0.41,0.3-0.86,0.3-1.34c0-0.05,0-0.23,0-0.28c0-0.48-0.11-0.93-0.3-1.34c0.19-0.41,0.3-0.86,0.3-1.34c0-0.05,0-0.23,0-0.28   c0-0.48-0.11-0.93-0.3-1.34c0.19-0.41,0.3-0.86,0.3-1.34c0-0.05,0-0.23,0-0.28c0-0.48-0.11-0.93-0.3-1.34   c0.19-0.41,0.3-0.86,0.3-1.34c0-0.05,0-0.23,0-0.28c0-0.48-0.11-0.93-0.3-1.34c0.19-0.41,0.3-0.86,0.3-1.34c0-0.05,0-0.23,0-0.28   c0-0.48-0.11-0.93-0.3-1.34c0.19-0.41,0.3-0.86,0.3-1.34c0-0.05,0-0.23,0-0.28c0-0.48-0.11-0.93-0.3-1.34   c0.19-0.41,0.3-0.86,0.3-1.34c0-0.05,0-0.23,0-0.28c0-0.48-0.11-0.93-0.3-1.34c0.19-0.41,0.3-0.86,0.3-1.34c0-0.05,0-0.23,0-0.28   c0-0.48-0.11-0.93-0.3-1.34c0.19-0.41,0.3-0.86,0.3-1.34c0-0.05,0-0.23,0-0.28c0-0.48-0.11-0.93-0.3-1.34   c0.19-0.41,0.3-0.86,0.3-1.34c0-0.05,0-0.23,0-0.28c0-0.48-0.11-0.93-0.3-1.34c0.19-0.41,0.3-0.86,0.3-1.34c0-0.05,0-0.23,0-0.28   c0-0.48-0.11-0.93-0.3-1.34c0.19-0.41,0.3-0.86,0.3-1.34c0-0.05,0-0.23,0-0.28c0-0.48-0.11-0.93-0.3-1.34   c0.19-0.41,0.3-0.86,0.3-1.34c0-0.05,0-0.23,0-0.28c0-0.48-0.11-0.93-0.3-1.34c0.19-0.41,0.3-0.86,0.3-1.34c0-0.05,0-0.23,0-0.28   c0-0.48-0.11-0.93-0.3-1.34c0.19-0.41,0.3-0.86,0.3-1.34c0-0.05,0-0.23,0-0.28c0-0.48-0.11-0.93-0.3-1.34   c0.19-0.41,0.3-0.86,0.3-1.34c0-0.05,0-0.23,0-0.28c0-0.48-0.11-0.93-0.3-1.34c0.19-0.41,0.3-0.86,0.3-1.34c0-0.05,0-0.23,0-0.28   c0-0.48-0.11-0.93-0.3-1.34c0.19-0.41,0.3-0.86,0.3-1.34c0-0.05,0-0.23,0-0.28c0-0.48-0.11-0.93-0.3-1.34   c0.19-0.41,0.3-0.86,0.3-1.34c0-0.05,0-0.23,0-0.28c0-0.48-0.11-0.93-0.3-1.34c0.19-0.41,0.3-0.86,0.3-1.34c0-0.05,0-0.23,0-0.28   c0-0.48-0.11-0.93-0.3-1.34c0.19-0.41,0.3-0.86,0.3-1.34c0-0.05,0-0.23,0-0.28c0-0.48-0.11-0.93-0.3-1.34   c0.19-0.41,0.3-0.86,0.3-1.34c0-0.05,0-0.23,0-0.28c0-0.48-0.11-0.93-0.3-1.34c0.19-0.41,0.3-0.86,0.3-1.34c0-0.05,0-0.23,0-0.28   c0-0.48-0.11-0.93-0.3-1.34c0.19-0.41,0.3-0.86,0.3-1.34c0-0.05,0-0.23,0-0.28c0-0.48-0.11-0.93-0.3-1.34   c0.19-0.41,0.3-0.86,0.3-1.34c0-0.05,0-0.23,0-0.28c0-0.48-0.11-0.93-0.3-1.34c0.19-0.41,0.3-0.86,0.3-1.34c0-0.05,0-0.23,0-0.28   c0-0.48-0.11-0.93-0.3-1.34c0.19-0.41,0.3-0.86,0.3-1.34c0-0.08,0-0.16-0.01-0.23c0.01-0.08,0.01-0.16,0.01-0.23   c0-0.44-0.09-0.86-0.25-1.24c0.16-0.38,0.25-0.8,0.25-1.24c0-0.53-0.14-1.03-0.38-1.48c0.23-0.44,0.38-0.94,0.38-1.48   c0-0.53-0.14-1.03-0.38-1.48c0.23-0.44,0.38-0.94,0.38-1.48s-0.14-1.03-0.38-1.48c0.23-0.44,0.38-0.94,0.38-1.48   c0-0.53-0.14-1.03-0.38-1.48c0.23-0.44,0.38-0.94,0.38-1.48c0-0.53-0.14-1.03-0.38-1.48c0.23-0.44,0.38-0.94,0.38-1.48   c0-0.53-0.14-1.03-0.38-1.48c0.23-0.44,0.38-0.94,0.38-1.48c0-0.53-0.14-1.03-0.38-1.48c0.23-0.44,0.38-0.94,0.38-1.48   c0-0.53-0.14-1.03-0.38-1.48c0.23-0.44,0.38-0.94,0.38-1.48c0-0.53-0.14-1.03-0.38-1.48c0.23-0.44,0.38-0.94,0.38-1.48   c0-0.53-0.14-1.03-0.38-1.48c0.23-0.44,0.38-0.94,0.38-1.48c0-0.53-0.14-1.03-0.38-1.48c0.23-0.44,0.38-0.94,0.38-1.48   s-0.14-1.03-0.38-1.48c0.23-0.44,0.38-0.94,0.38-1.48c0-0.53-0.14-1.03-0.38-1.48c0.23-0.44,0.38-0.94,0.38-1.48   c0-0.53-0.14-1.03-0.38-1.48c0.23-0.44,0.38-0.94,0.38-1.48c0-0.53-0.14-1.03-0.38-1.48c0.23-0.44,0.38-0.94,0.38-1.48   c0-0.53-0.14-1.03-0.38-1.48c0.23-0.44,0.38-0.94,0.38-1.48c0-0.53-0.14-1.03-0.38-1.48c0.23-0.44,0.38-0.94,0.38-1.48   c0-0.53-0.14-1.03-0.38-1.48c0.23-0.44,0.38-0.94,0.38-1.48c0-0.53-0.14-1.03-0.38-1.48c0.23-0.44,0.38-0.94,0.38-1.48   c0-0.53-0.14-1.03-0.38-1.48c0.23-0.44,0.38-0.94,0.38-1.48s-0.14-1.03-0.38-1.48c0.23-0.44,0.38-0.94,0.38-1.48   c0-0.53-0.14-1.03-0.38-1.48c0.23-0.44,0.38-0.94,0.38-1.48c0-0.53-0.14-1.03-0.38-1.48c0.23-0.44,0.38-0.94,0.38-1.48   c0-0.53-0.14-1.03-0.38-1.48c0.23-0.44,0.38-0.94,0.38-1.48c0-0.53-0.14-1.03-0.38-1.48c0.23-0.44,0.38-0.94,0.38-1.48   c0-0.53-0.14-1.03-0.38-1.48c0.23-0.44,0.38-0.94,0.38-1.48c0-0.53-0.14-1.03-0.38-1.48c0.23-0.44,0.38-0.94,0.38-1.48   c0-0.53-0.14-1.03-0.38-1.48c0.23-0.44,0.38-0.94,0.38-1.48c0-0.53-0.14-1.03-0.38-1.48c0.23-0.44,0.38-0.94,0.38-1.48   s-0.14-1.03-0.38-1.48c0.23-0.44,0.38-0.94,0.38-1.48c0-0.53-0.14-1.03-0.38-1.48c0.23-0.44,0.38-0.94,0.38-1.48   c0-0.53-0.14-1.03-0.38-1.48c0.23-0.44,0.38-0.94,0.38-1.48c0-0.53-0.14-1.03-0.38-1.48c0.23-0.44,0.38-0.94,0.38-1.48   c0-0.53-0.14-1.03-0.38-1.48c0.23-0.44,0.38-0.94,0.38-1.48c0-0.53-0.14-1.03-0.38-1.48c0.23-0.44,0.38-0.94,0.38-1.48   c0-0.53-0.14-1.03-0.38-1.48c0.23-0.44,0.38-0.94,0.38-1.48c0-0.53-0.14-1.03-0.38-1.48c0.23-0.44,0.38-0.94,0.38-1.48   c0-0.53-0.14-1.03-0.38-1.48c0.23-0.44,0.38-0.94,0.38-1.48s-0.14-1.03-0.38-1.48c0.23-0.44,0.38-0.94,0.38-1.48   c0-0.53-0.14-1.03-0.38-1.48c0.23-0.44,0.38-0.94,0.38-1.48c0-0.53-0.14-1.03-0.38-1.48c0.23-0.44,0.38-0.94,0.38-1.48   c0-0.53-0.14-1.03-0.38-1.48c0.23-0.44,0.38-0.94,0.38-1.48c0-0.53-0.14-1.03-0.38-1.48c0.23-0.44,0.38-0.94,0.38-1.48   c0-0.53-0.14-1.03-0.38-1.48c0.23-0.44,0.38-0.94,0.38-1.48c0-0.53-0.14-1.03-0.38-1.48c0.23-0.44,0.38-0.94,0.38-1.48   c0-0.53-0.14-1.03-0.38-1.48c0.23-0.44,0.38-0.94,0.38-1.48c0-0.53-0.14-1.03-0.38-1.48c0.23-0.44,0.38-0.94,0.38-1.48   s-0.14-1.03-0.38-1.48c0.23-0.44,0.38-0.94,0.38-1.48c0-0.53-0.14-1.03-0.38-1.48c0.23-0.44,0.38-0.94,0.38-1.48   c0-0.53-0.14-1.03-0.38-1.48c0.23-0.44,0.38-0.94,0.38-1.48c0-0.53-0.14-1.03-0.38-1.48c0.23-0.44,0.38-0.94,0.38-1.48   c0-0.53-0.14-1.03-0.38-1.48c0.23-0.44,0.38-0.94,0.38-1.48c0-0.53-0.14-1.03-0.38-1.48c0.23-0.44,0.38-0.94,0.38-1.48   c0-0.53-0.14-1.03-0.38-1.48c0.23-0.44,0.38-0.94,0.38-1.48c0-0.53-0.14-1.03-0.38-1.48c0.23-0.44,0.38-0.94,0.38-1.48   c0-0.53-0.14-1.03-0.38-1.48c0.23-0.44,0.38-0.94,0.38-1.48s-0.14-1.03-0.38-1.48c0.23-0.44,0.38-0.94,0.38-1.48   c0-0.53-0.14-1.03-0.38-1.48c0.23-0.44,0.38-0.94,0.38-1.48c0-0.53-0.14-1.03-0.38-1.48c0.23-0.44,0.38-0.94,0.38-1.48   c0-0.53-0.14-1.03-0.38-1.48c0.23-0.44,0.38-0.94,0.38-1.48c0-0.53-0.14-1.03-0.38-1.48c0.23-0.44,0.38-0.94,0.38-1.48   c0-0.53-0.14-1.03-0.38-1.48c0.23-0.44,0.38-0.94,0.38-1.48c0-0.53-0.14-1.03-0.38-1.48c0.23-0.44,0.38-0.94,0.38-1.48   c0-0.53-0.14-1.03-0.38-1.48c0.23-0.44,0.38-0.94,0.38-1.48c0-0.53-0.14-1.03-0.38-1.48c0.23-0.44,0.38-0.94,0.38-1.48   s-0.14-1.03-0.38-1.48c0.23-0.44,0.38-0.94,0.38-1.48c0-0.53-0.14-1.03-0.38-1.48c0.23-0.44,0.38-0.94,0.38-1.48   c0-0.53-0.14-1.03-0.38-1.48c0.23-0.44,0.38-0.94,0.38-1.48c0-0.53-0.14-1.03-0.38-1.48c0.23-0.44,0.38-0.94,0.38-1.48   c0-0.53-0.14-1.03-0.38-1.48c0.23-0.44,0.38-0.94,0.38-1.48C1701.86-44.65,1701.67-45.23,1701.36-45.73z M721.5,419.13   c0-0.02,0.01-0.05,0.01-0.07h0.73c0,0.02,0.01,0.05,0.01,0.07H721.5z M999.26,377.75h2.37c0.01,0.01,0.01,0.03,0.01,0.04h-2.31   C999.3,377.78,999.28,377.77,999.26,377.75z M1350.49,286.27h1.53c0.01,0.03,0.02,0.06,0.02,0.1h-1.47   C1350.54,286.34,1350.52,286.3,1350.49,286.27z M1519.2,194.97c0.05-0.06,0.1-0.12,0.15-0.18h1.54c0.02,0.06,0.04,0.12,0.05,0.18   H1519.2z M1558.98,179.45h0.91c-0.12,0.33-0.19,0.68-0.19,1.06c0,0.09,0.02,0.18,0.03,0.27h-0.79c0.06-0.24,0.1-0.49,0.1-0.76   C1559.04,179.82,1559.01,179.64,1558.98,179.45z M1565.34,177.3c0.02-0.07,0.05-0.14,0.06-0.21h0.82c0.01,0.07,0.01,0.14,0.02,0.21   H1565.34z" />
	
</g>
</svg>
