<?xml version="1.0" encoding="UTF-8" standalone="no"?>
<svg
   xmlns:dc="http://purl.org/dc/elements/1.1/"
   xmlns:cc="http://creativecommons.org/ns#"
   xmlns:rdf="http://www.w3.org/1999/02/22-rdf-syntax-ns#"
   xmlns:svg="http://www.w3.org/2000/svg"
   xmlns="http://www.w3.org/2000/svg"
   xmlns:sodipodi="http://sodipodi.sourceforge.net/DTD/sodipodi-0.dtd"
   xmlns:inkscape="http://www.inkscape.org/namespaces/inkscape"
   width="378"
   height="355"
   viewBox="0 0 100.0125 93.927087"
   version="1.1"
   posy="295"
   posx="1070"
   refh="831"
   legend="legend1"
   id="svg1518"
   inkscape:version="1.0beta2 (2b71d25, 2019-12-03)"
   sodipodi:docname="mask.svg">
  <defs
     id="defs1512">
    <clipPath
       id="clipPath968"
       clipPathUnits="userSpaceOnUse">
      <path
         inkscape:connector-curvature="0"
         id="path966"
         d="M 0,0 H 606.117 V 622.501 H 0 Z" />
    </clipPath>
    <clipPath
       id="clipPath1000"
       clipPathUnits="userSpaceOnUse">
      <path
         inkscape:connector-curvature="0"
         id="path998"
         d="M 0,623.509 H 9451.445 V 0 H 0 Z" />
    </clipPath>
    <clipPath
       id="clipPath1016"
       clipPathUnits="userSpaceOnUse">
      <path
         inkscape:connector-curvature="0"
         id="path1014"
         d="M 0,623.509 H 9451.445 V 0 H 0 Z" />
    </clipPath>
    <clipPath
       id="clipPath1032"
       clipPathUnits="userSpaceOnUse">
      <path
         inkscape:connector-curvature="0"
         id="path1030"
         d="M 0,623.509 H 9451.445 V 0 H 0 Z" />
    </clipPath>
    <clipPath
       id="clipPath1048"
       clipPathUnits="userSpaceOnUse">
      <path
         inkscape:connector-curvature="0"
         id="path1046"
         d="M 0,623.509 H 9451.445 V 0 H 0 Z" />
    </clipPath>
    <clipPath
       id="clipPath1064"
       clipPathUnits="userSpaceOnUse">
      <path
         inkscape:connector-curvature="0"
         id="path1062"
         d="M 0,623.509 H 9451.445 V 0 H 0 Z" />
    </clipPath>
    <clipPath
       id="clipPath1080"
       clipPathUnits="userSpaceOnUse">
      <path
         inkscape:connector-curvature="0"
         id="path1078"
         d="M 0,623.509 H 9451.445 V 0 H 0 Z" />
    </clipPath>
    <clipPath
       id="clipPath1088"
       clipPathUnits="userSpaceOnUse">
      <path
         inkscape:connector-curvature="0"
         id="path1086"
         d="M 54.8941,593.166 H 117.751 V 578.281 H 54.8941 Z" />
    </clipPath>
    <clipPath
       id="clipPath1106"
       clipPathUnits="userSpaceOnUse">
      <path
         inkscape:connector-curvature="0"
         id="path1104"
         d="M 54.8941,566.428 H 114.093 V 551.543 H 54.8941 Z" />
    </clipPath>
    <clipPath
       id="clipPath1124"
       clipPathUnits="userSpaceOnUse">
      <path
         inkscape:connector-curvature="0"
         id="path1122"
         d="M 54.8941,539.691 H 118.523 V 524.805 H 54.8941 Z" />
    </clipPath>
    <clipPath
       id="clipPath1142"
       clipPathUnits="userSpaceOnUse">
      <path
         inkscape:connector-curvature="0"
         id="path1140"
         d="m 483.195,438.452 h 72.283 v -54.031 h -72.283 z" />
    </clipPath>
    <clipPath
       id="clipPath1166"
       clipPathUnits="userSpaceOnUse">
      <path
         inkscape:connector-curvature="0"
         id="path1164"
         d="M 54.8941,512.952 H 120.242 V 498.067 H 54.8941 Z" />
    </clipPath>
    <clipPath
       id="clipPath1296"
       clipPathUnits="userSpaceOnUse">
      <path
         inkscape:connector-curvature="0"
         id="path1294"
         d="M 0,623.509 H 9451.445 V 0 H 0 Z" />
    </clipPath>
  </defs>
  <sodipodi:namedview
     id="base"
     pagecolor="#b6d0d7"
     bordercolor="#666666"
     borderopacity="1.0"
     inkscape:pageopacity="0"
     inkscape:pageshadow="2"
     inkscape:zoom="1.0133154"
     inkscape:cx="108.0778"
     inkscape:cy="287.38228"
     inkscape:document-units="mm"
     inkscape:current-layer="layer1-5"
     inkscape:document-rotation="0"
     showgrid="false"
     units="px"
     fit-margin-top="0"
     fit-margin-left="0"
     fit-margin-right="0"
     fit-margin-bottom="0"
     inkscape:window-width="1440"
     inkscape:window-height="878"
     inkscape:window-x="0"
     inkscape:window-y="0"
     inkscape:window-maximized="0" />
  <metadata
     id="metadata1515">
    <rdf:RDF>
      <cc:Work
         rdf:about="">
        <dc:format>image/svg+xml</dc:format>
        <dc:type
           rdf:resource="http://purl.org/dc/dcmitype/StillImage" />
        <dc:title />
      </cc:Work>
    </rdf:RDF>
  </metadata>
  <g
     inkscape:label="Layer 1"
     inkscape:groupmode="layer"
     id="layer1"
     transform="translate(2.4711463,-36.328291)">
    <g
       id="g1074"
       transform="matrix(0.35277777,0,0,-0.35277777,-2.4711463,245.34773)">
      <g
         clip-path="url(#clipPath1080)"
         id="g1076">
        <g
           style="fill:#ffffff;fill-opacity:1;fill-rule:nonzero"
           id="layer1-5"
           inkscape:groupmode="layer"
           inkscape:label="Layer 1"
           transform="matrix(2.8346458,0,0,-2.8346458,77.058107,411.90533)">
          <path
             d="m 19.590814,-63.047894 c -20.52683027,0.258914 -38.91034,14.584487 -43.49525,35.484625 l -0.0308,0.01486 -0.22677,0.109673 -0.19821,0.09482 -0.16565,0.0794 -0.13367,0.06283 -0.0977,0.0457 -0.06,0.02799 -0.02,0.0097 0.003,0.016 -0.048,0.02343 -0.0206,0.0097 0.49582,2.176303 c -3.70593,23.4588436 11.50364,46.014752 35.00655,51.128886 5.09076,1.107729 10.16706,1.306773 15.0622,0.710585 l 0.0348,0.01713 0.35758,0.171934 0.35815,0.167365 0.35814,0.162795 0.35644,0.156512 0.35529,0.147941 0.35186,0.138804 0.34901,0.12795 0.34444,0.115956 0.3393,0.102246 0.33416,0.0874 0.3273,0.07083 0.3193,0.0537 0.31188,0.0337 0.30275,0.01313 0.2936,-0.0086 0.28218,-0.03199 0.27132,-0.05711 0.25933,-0.08282 0.24676,-0.111387 0.23305,-0.139376 0.2182,-0.17022 0.20335,-0.20278 0.18793,-0.235335 0.17079,-0.269612 0.15423,-0.30731 0.13937,-0.343868 0.12624,-0.37814 0.1131,-0.409557 0.10111,-0.438118 0.009,-0.04798 c 1.51905,-0.468572 3.0098,-1.013762 4.46457,-1.636512 l 0.23362,-0.09025 0.27703,-0.109674 0.2759,-0.111387 0.27418,-0.113669 0.27189,-0.115954 0.27019,-0.118241 0.26789,-0.120526 0.2656,-0.122239 0.26333,-0.125093 0.26047,-0.12681 0.25819,-0.129091 0.25476,-0.131949 0.25361,-0.134235 0.25304,-0.138804 0.25305,-0.14166 0.25247,-0.144515 0.2519,-0.148516 0.25134,-0.151368 0.25076,-0.153658 0.25076,-0.157653 0.24962,-0.159366 0.24904,-0.162225 0.24791,-0.165078 0.16565,-0.111386 c 3.03128,-1.884832 5.83959,-4.125345 8.35679,-6.679713 l 0.11709,-0.03428 0.33816,-0.110237 0.33301,-0.119956 0.32558,-0.128521 0.31988,-0.137663 0.31189,-0.145656 0.30502,-0.153654 0.29703,-0.161084 0.28961,-0.167933 0.28103,-0.175361 0.27189,-0.181073 0.26333,-0.187358 0.25419,-0.192496 0.2439,-0.198212 0.23477,-0.202778 0.22391,-0.207919 0.21363,-0.211347 0.20393,-0.217061 0.19593,-0.221628 0.18849,-0.227913 0.18107,-0.233052 0.17537,-0.2370527 0.16965,-0.242191 0.16508,-0.2456207 0.1605,-0.249616 0.15652,-0.2530467 0.15422,-0.256473 0.15138,-0.2593277 0.14907,-0.262184 0.14852,-0.2644697 0.14794,-0.266185 0.14795,-0.2678955 0.14851,-0.269038 0.15023,-0.270182 0.15194,-0.271326 0.1548,-0.271323 0.15822,-0.2713249 0.16223,-0.271323 0.16622,-0.271323 0.17194,-0.2696117 0.17707,-0.269038 0.18393,-0.267326 0.19078,-0.266185 0.19821,-0.263897 0.20735,-0.2610431 0.21534,-0.258758 0.22564,-0.255901 0.23533,-0.252475 0.24676,-0.248476 0.25876,-0.246762 0.2719,-0.245048 0.28331,-0.244478 0.29361,-0.243335 0.30273,-0.242761 0.31131,-0.242765 0.31703,-0.242193 0.32273,-0.24219095 0.3273,-0.242764 0.33016,-0.24219385 0.33187,-0.243335 0.33245,-0.24390497 0.33129,-0.245048 0.3296,-0.2456219 0.32673,-0.246762 0.32158,-0.24847603 0.31588,-0.250186 0.3096,-0.251904 0.30102,-0.253618 0.29133,-0.2559012 0.28102,-0.258186 0.26905,-0.261043 0.2559,-0.263326 0.24162,-0.2661851 0.2262,-0.269609 0.20905,-0.272466 0.19079,-0.2758941 0.17194,-0.279891 0.15136,-0.283321 0.1291,-0.28732 0.10678,-0.2918857 0.0817,-0.295315 0.0577,-0.301599 0.0337,-0.309594 0.011,-0.315879 -0.011,-0.322161 -0.0308,-0.327875 -0.0503,-0.333585 -0.0685,-0.338725 -0.0857,-0.343871 -0.10225,-0.347865 -0.1171,-0.351292 -0.13081,-0.355291 -0.14338,-0.358148 -0.15536,-0.361005 -0.16679,-0.3627155 -0.17593,-0.364433 -0.18451,-0.366145 -0.19192,-0.367288 -0.19764,-0.367857 -0.20392,-0.367288 -0.20792,-0.367288 -0.21078,-0.367287 -0.21306,-0.365004 -0.21363,-0.36443 -0.2142,-0.362146 -0.21249,-0.359861 -0.21021,-0.356435 -0.20735,-0.35358 -0.12681,-0.218771 0.0429,-0.235339 0.052,-0.309594 0.0469,-0.308453 0.0429,-0.30731 0.0377,-0.306169 0.0337,-0.30674 0.0297,-0.30845 0.0251,-0.310167 0.0217,-0.311308 0.0171,-0.313595 0.0137,-0.314735 0.01,-0.315879 0.007,-0.31702 0.003,-0.317593 v -0.31928 l -0.003,-0.319304 -0.007,-0.32045 -0.009,-0.321017 -0.0126,-0.321591 -0.0154,-0.321591 -0.0182,-0.32159 -0.0206,-0.322161 -0.0229,-0.322164 -0.0251,-0.321591 -0.028,-0.321588 -0.0297,-0.32159 -0.0319,-0.32045 -0.0337,-0.320447 -0.036,-0.319307 -0.0377,-0.318733 -0.0388,-0.317593 -0.0406,-0.316449 -0.0417,-0.315309 -0.0434,-0.314735 -0.0445,-0.312452 -0.0457,-0.311308 -0.0371,-0.247905 -0.009,-0.06169 -0.0474,-0.309597 -0.0491,-0.310738 -0.0503,-0.311878 -0.0519,-0.313024 -0.0532,-0.314736 -0.0543,-0.314735 -0.0566,-0.315879 -0.0577,-0.316449 -0.0593,-0.317592 -0.0606,-0.31759 -0.0622,-0.318164 -0.064,-0.318166 -0.0657,-0.318733 -0.0669,-0.318163 -0.0691,-0.318163 -0.0703,-0.318734 -0.0725,-0.318162 -0.0737,-0.317023 -0.0754,-0.317019 -0.0777,-0.316449 -0.0788,-0.315879 -0.0811,-0.314736 -0.0822,-0.313595 -0.0851,-0.313022 -0.0862,-0.311881 -0.0885,-0.310167 -0.0902,-0.309023 -0.092,-0.30731 -0.0943,-0.306167 -0.0959,-0.303885 -0.0983,-0.302169 -0.0999,-0.300455 -0.1028,-0.299884 -0.10568,-0.300457 -0.10854,-0.301598 -0.11195,-0.301599 -0.11539,-0.302738 -0.11824,-0.302172 -0.12167,-0.302169 -0.12509,-0.302168 -0.12796,-0.301598 -0.13194,-0.301027 -0.13424,-0.299885 -0.1388,-0.299315 -0.14108,-0.297599 -0.14509,-0.296458 -0.14852,-0.294742 -0.15194,-0.293602 -0.15537,-0.291316 -0.15937,-0.28846 -0.16222,-0.286175 -0.16623,-0.284462 -0.16965,-0.281606 -0.17364,-0.278179 -0.1765,-0.275323 -0.18108,-0.271897 -0.18392,-0.269038 -0.18793,-0.264467 -0.19192,-0.261043 -0.19593,-0.257046 -0.19992,-0.252473 -0.20278,-0.248476 -0.20736,-0.243905 -0.21134,-0.238196 -0.21592,-0.235336 -0.2222,-0.232484 -0.22791,-0.229054 -0.23362,-0.22677 -0.23877,-0.223341 -0.24391,-0.219918 -0.24962,-0.216487 -0.25419,-0.213059 -0.25932,-0.209064 -0.2639,-0.205064 -0.26847,-0.200495 -0.27247,-0.196494 -0.27646,-0.1925 -0.28046,-0.187354 -0.28504,-0.182787 -0.28789,-0.178219 -0.29131,-0.172503 -0.29531,-0.167936 -0.29761,-0.162224 -0.30102,-0.15651 -0.0497,-0.02456 -0.10567,-0.05484 -0.30389,-0.150798 -0.30673,-0.143945 -0.30846,-0.138804 -0.3113,-0.131948 -0.3136,-0.126238 -0.31531,-0.118811 -0.31701,-0.113099 -0.31817,-0.105672 -0.32045,-0.09996 -0.32102,-0.09139 -0.32273,-0.08454 -0.32331,-0.07711 -0.13023,-0.02799 c -5.67829,-5.18078 -12.75545,-8.980622 -20.80683,-10.732441 -3.42676,-0.745659 -6.84733,-1.080875 -10.21036,-1.038457 z"
             style="fill:#bbb;fill-opacity:0.01;fill-rule:nonzero;stroke:none;stroke-width:0.663297;stroke-linecap:round;stroke-linejoin:round;stroke-miterlimit:10;stroke-dasharray:none;stroke-opacity:1"
             id="path960-6"
             inkscape:connector-curvature="0" />
        </g>
      </g>
    </g>
  </g>
</svg>
