<?xml version="1.0" encoding="utf-8"?>
<!-- Generator: Adobe Illustrator 23.1.0, SVG Export Plug-In . SVG Version: 6.00 Build 0)  -->
<svg version="1.1" baseProfile="tiny" id="Layer_1" xmlns="http://www.w3.org/2000/svg" xmlns:xlink="http://www.w3.org/1999/xlink"
	 x="0px" y="0px" viewBox="0 0 75 75" xml:space="preserve">
<path fill="none" stroke="#FFFFFF" stroke-width="1.1333" stroke-linecap="round" stroke-linejoin="round" stroke-miterlimit="10" d="
	M45.18,25.39c0-1.34,1.13-2.43,2.52-2.43s2.52,1.09,2.52,2.43s-1.13,2.43-2.52,2.43S45.18,26.73,45.18,25.39z"/>
<path fill="none" stroke="#FFFFFF" stroke-width="1.1333" stroke-linecap="round" stroke-linejoin="round" stroke-miterlimit="10" d="
	M46.07,50.53c0-1.34,1.13-2.43,2.52-2.43s2.52,1.09,2.52,2.43s-1.13,2.43-2.52,2.43S46.07,51.87,46.07,50.53z"/>
<line fill="none" stroke="#FFFFFF" stroke-width="1.1333" stroke-linecap="round" stroke-linejoin="round" stroke-miterlimit="10" x1="41.97" y1="30.79" x2="45.91" y2="27"/>
<line fill="none" stroke="#FFFFFF" stroke-width="1.1333" stroke-linecap="round" stroke-linejoin="round" stroke-miterlimit="10" x1="46.87" y1="48.66" x2="42.74" y2="44.39"/>
<ellipse fill="none" stroke="#FFFFFF" stroke-width="1.1333" stroke-linecap="round" stroke-linejoin="round" stroke-miterlimit="10" cx="35.03" cy="37.48" rx="9.81" ry="9.46"/>
<path fill="#FFFFFF" stroke="#FFFFFF" stroke-width="0.9995" stroke-miterlimit="10" d="M32.23,38.13c0-2.38,2-4.31,4.47-4.31
	s4.47,1.93,4.47,4.31s-2,4.31-4.47,4.31S32.23,40.51,32.23,38.13z"/>
</svg>
