<?xml version="1.0" encoding="utf-8"?>
<!-- Generator: Adobe Illustrator 23.1.0, SVG Export Plug-In . SVG Version: 6.00 Build 0)  -->
<svg version="1.1" baseProfile="tiny" id="Layer_1" xmlns="http://www.w3.org/2000/svg" xmlns:xlink="http://www.w3.org/1999/xlink"
	 x="0px" y="0px" viewBox="0 0 75 75" xml:space="preserve">
<g display="none">
	<rect x="-0.5" y="-0.5" display="inline" fill="#BAD1D7" stroke="#FFFFFF" stroke-miterlimit="10" width="76" height="76"/>
	
		<path display="inline" fill="none" stroke="#FFFFFF" stroke-width="1.1333" stroke-linecap="round" stroke-linejoin="round" stroke-miterlimit="10" d="
		M45.18,25.39c0-1.34,1.13-2.43,2.52-2.43s2.52,1.09,2.52,2.43s-1.13,2.43-2.52,2.43S45.18,26.73,45.18,25.39z"/>
	
		<path display="inline" fill="none" stroke="#FFFFFF" stroke-width="1.1333" stroke-linecap="round" stroke-linejoin="round" stroke-miterlimit="10" d="
		M46.07,50.53c0-1.34,1.13-2.43,2.52-2.43s2.52,1.09,2.52,2.43s-1.13,2.43-2.52,2.43S46.07,51.87,46.07,50.53z"/>
	
		<line display="inline" fill="none" stroke="#FFFFFF" stroke-width="1.1333" stroke-linecap="round" stroke-linejoin="round" stroke-miterlimit="10" x1="41.97" y1="30.79" x2="45.91" y2="27"/>
	
		<line display="inline" fill="none" stroke="#FFFFFF" stroke-width="1.1333" stroke-linecap="round" stroke-linejoin="round" stroke-miterlimit="10" x1="46.87" y1="48.66" x2="42.74" y2="44.39"/>
	
		<ellipse display="inline" fill="none" stroke="#FFFFFF" stroke-width="1.1333" stroke-linecap="round" stroke-linejoin="round" stroke-miterlimit="10" cx="35.03" cy="37.48" rx="9.81" ry="9.46"/>
	<path display="inline" fill="#FFFFFF" stroke="#FFFFFF" stroke-width="0.9995" stroke-miterlimit="10" d="M32.23,38.13
		c0-2.38,2-4.31,4.47-4.31s4.47,1.93,4.47,4.31s-2,4.31-4.47,4.31S32.23,40.51,32.23,38.13z"/>
</g>
<g display="none">
	
		<path display="inline" fill="none" stroke="#FFFFFF" stroke-width="1.4254" stroke-linecap="round" stroke-linejoin="round" stroke-miterlimit="10" d="
		M41.22,34.25c0,3.96-3.13,7.17-7,7.17s-7-3.21-7-7.17"/>
	
		<path display="inline" fill="none" stroke="#FFFFFF" stroke-width="1.4254" stroke-linecap="round" stroke-linejoin="round" stroke-miterlimit="10" d="
		M48.22,41.42c-3.87,0-7-3.21-7-7.17"/>
	
		<line display="inline" fill="none" stroke="#FFFFFF" stroke-width="1.4254" stroke-linecap="round" stroke-linejoin="round" stroke-miterlimit="10" x1="41.22" y1="22.96" x2="41.22" y2="34.25"/>
	
		<line display="inline" fill="none" stroke="#FFFFFF" stroke-width="1.4254" stroke-linecap="round" stroke-linejoin="round" stroke-miterlimit="10" x1="27.22" y1="52.96" x2="27.22" y2="22.96"/>
</g>
<g id="Layer_3" display="none">
	<g display="inline">
		<path fill="#FFFFFF" stroke="#FFFFFF" stroke-miterlimit="10" d="M37.72,34.06c-2.15,0-3.9,1.74-3.9,3.9c0,2.15,1.74,3.9,3.9,3.9
			s3.9-1.74,3.9-3.9C41.62,35.81,39.87,34.06,37.72,34.06z"/>
		<path fill="#FFFFFF" stroke="#FFFFFF" stroke-width="0.4994" stroke-miterlimit="10" d="M39.08,29.15
			c-0.02-0.73-0.62-1.32-1.36-1.32s-1.34,0.59-1.36,1.32c-4.27,0.66-7.55,4.36-7.55,8.81s3.28,8.15,7.55,8.81
			c0.02,0.73,0.62,1.32,1.36,1.32s1.34-0.59,1.36-1.32c4.27-0.66,7.55-4.36,7.55-8.81S43.35,29.81,39.08,29.15z M39.06,46.47
			c-0.12-0.63-0.67-1.11-1.34-1.11c-0.67,0-1.22,0.48-1.34,1.11c-4.12-0.65-7.28-4.22-7.28-8.52s3.16-7.87,7.28-8.52
			c0.12,0.63,0.67,1.11,1.34,1.11c0.67,0,1.22-0.48,1.34-1.11c4.12,0.65,7.28,4.22,7.28,8.52C46.34,42.26,43.18,45.83,39.06,46.47z"
			/>
		<path fill="#FFFFFF" stroke="#FFFFFF" stroke-width="0.4994" stroke-miterlimit="10" d="M52.72,37.96c0-0.73-0.57-1.31-1.28-1.36
			c-0.64-6.52-5.84-11.72-12.36-12.36c-0.04-0.72-0.63-1.28-1.36-1.28s-1.31,0.57-1.36,1.28C29.84,24.88,24.64,30.08,24,36.6
			c-0.72,0.04-1.28,0.63-1.28,1.36s0.57,1.31,1.28,1.36c0.64,6.52,5.84,11.72,12.36,12.36c0.04,0.72,0.63,1.28,1.36,1.28
			s1.31-0.57,1.36-1.28c6.52-0.64,11.72-5.84,12.36-12.36C52.15,39.27,52.72,38.68,52.72,37.96z M39.06,51.38
			c-0.1-0.65-0.66-1.15-1.34-1.15s-1.24,0.5-1.34,1.15c-6.37-0.63-11.45-5.71-12.08-12.08c0.65-0.1,1.15-0.66,1.15-1.34
			s-0.5-1.24-1.15-1.34c0.63-6.37,5.71-11.45,12.08-12.08c0.1,0.65,0.66,1.15,1.34,1.15s1.24-0.5,1.34-1.15
			c6.37,0.63,11.45,5.71,12.08,12.08c-0.65,0.1-1.15,0.66-1.15,1.34s0.5,1.24,1.15,1.34C50.51,45.67,45.43,50.75,39.06,51.38z"/>
	</g>
</g>
<g id="Layer_4" display="none">
	
		<line display="inline" fill="none" stroke="#FFFFFF" stroke-width="1.1272" stroke-linecap="round" stroke-linejoin="round" stroke-miterlimit="10" x1="37.59" y1="42.88" x2="37.59" y2="54.96"/>
	
		<path display="inline" fill="none" stroke="#FFFFFF" stroke-width="1.1272" stroke-linecap="round" stroke-linejoin="round" stroke-miterlimit="10" d="
		M33.11,40.95L33.11,40.95c2.27,2.57,6.32,2.57,8.59,0l0,0"/>
	
		<path display="inline" fill="none" stroke="#FFFFFF" stroke-width="1.1207" stroke-linecap="round" stroke-linejoin="round" stroke-miterlimit="10" d="
		M53.72,33.76c0-3.84-3.17-6.95-7.08-6.95c-0.73,0-1.43,0.11-2.09,0.31c-0.4-3.46-3.39-6.16-7.03-6.16c-3.6,0-6.57,2.65-7.01,6.06
		c-0.55-0.14-1.13-0.22-1.73-0.22c-3.91,0-7.08,3.11-7.08,6.95c0,2.18,1.02,4.13,2.63,5.4c-0.25,0.71-0.39,1.47-0.39,2.27
		c0,3.84,3.17,6.95,7.08,6.95c3.01,0,5.58-1.86,6.6-4.46c1.02,2.61,3.59,4.46,6.6,4.46c3.91,0,7.08-3.11,7.08-6.95
		c0-0.76-0.13-1.48-0.35-2.16C52.63,38,53.72,36,53.72,33.76z"/>
</g>
<g id="Layer_5" display="none">
	
		<line display="inline" fill="none" stroke="#FFFFFF" stroke-width="1.1196" stroke-linecap="round" stroke-linejoin="round" stroke-miterlimit="10" x1="32.96" y1="24.46" x2="42.57" y2="24.46"/>
	
		<line display="inline" fill="none" stroke="#FFFFFF" stroke-width="1.1196" stroke-linecap="round" stroke-linejoin="round" stroke-miterlimit="10" x1="42.57" y1="51.46" x2="32.96" y2="51.46"/>
	
		<line display="inline" fill="none" stroke="#FFFFFF" stroke-width="1.1196" stroke-linecap="round" stroke-linejoin="round" stroke-miterlimit="10" x1="42.57" y1="48.46" x2="32.96" y2="48.46"/>
	
		<line display="inline" fill="none" stroke="#FFFFFF" stroke-width="1.1196" stroke-linecap="round" stroke-linejoin="round" stroke-miterlimit="10" x1="42.57" y1="45.46" x2="32.96" y2="45.46"/>
	
		<line display="inline" fill="none" stroke="#FFFFFF" stroke-width="1.1196" stroke-linecap="round" stroke-linejoin="round" stroke-miterlimit="10" x1="42.57" y1="42.46" x2="32.96" y2="42.46"/>
	
		<line display="inline" fill="none" stroke="#FFFFFF" stroke-width="1.1196" stroke-linecap="round" stroke-linejoin="round" stroke-miterlimit="10" x1="42.57" y1="39.46" x2="32.96" y2="39.46"/>
	
		<line display="inline" fill="none" stroke="#FFFFFF" stroke-width="1.1196" stroke-linecap="round" stroke-linejoin="round" stroke-miterlimit="10" x1="42.57" y1="36.46" x2="32.96" y2="36.46"/>
	
		<line display="inline" fill="none" stroke="#FFFFFF" stroke-width="1.1196" stroke-linecap="round" stroke-linejoin="round" stroke-miterlimit="10" x1="42.57" y1="33.46" x2="32.96" y2="33.46"/>
	
		<line display="inline" fill="none" stroke="#FFFFFF" stroke-width="1.1196" stroke-linecap="round" stroke-linejoin="round" stroke-miterlimit="10" x1="42.57" y1="30.46" x2="32.96" y2="30.46"/>
	
		<line display="inline" fill="none" stroke="#FFFFFF" stroke-width="1.1196" stroke-linecap="round" stroke-linejoin="round" stroke-miterlimit="10" x1="42.57" y1="27.46" x2="32.96" y2="27.46"/>
	
		<line display="inline" fill="none" stroke="#FFFFFF" stroke-width="1.1196" stroke-linecap="round" stroke-linejoin="round" stroke-miterlimit="10" x1="53.72" y1="51.46" x2="44.11" y2="51.46"/>
	
		<line display="inline" fill="none" stroke="#FFFFFF" stroke-width="1.1196" stroke-linecap="round" stroke-linejoin="round" stroke-miterlimit="10" x1="53.72" y1="48.46" x2="44.11" y2="48.46"/>
	
		<line display="inline" fill="none" stroke="#FFFFFF" stroke-width="1.1196" stroke-linecap="round" stroke-linejoin="round" stroke-miterlimit="10" x1="53.72" y1="45.46" x2="44.11" y2="45.46"/>
	
		<line display="inline" fill="none" stroke="#FFFFFF" stroke-width="1.1196" stroke-linecap="round" stroke-linejoin="round" stroke-miterlimit="10" x1="53.72" y1="42.46" x2="44.11" y2="42.46"/>
	
		<line display="inline" fill="none" stroke="#FFFFFF" stroke-width="1.1196" stroke-linecap="round" stroke-linejoin="round" stroke-miterlimit="10" x1="53.72" y1="39.46" x2="44.11" y2="39.46"/>
	
		<line display="inline" fill="none" stroke="#FFFFFF" stroke-width="1.1196" stroke-linecap="round" stroke-linejoin="round" stroke-miterlimit="10" x1="53.72" y1="36.46" x2="44.11" y2="36.46"/>
	
		<line display="inline" fill="none" stroke="#FFFFFF" stroke-width="1.1196" stroke-linecap="round" stroke-linejoin="round" stroke-miterlimit="10" x1="31.33" y1="51.46" x2="21.72" y2="51.46"/>
	
		<line display="inline" fill="none" stroke="#FFFFFF" stroke-width="1.1196" stroke-linecap="round" stroke-linejoin="round" stroke-miterlimit="10" x1="31.33" y1="48.46" x2="21.72" y2="48.46"/>
	
		<line display="inline" fill="none" stroke="#FFFFFF" stroke-width="1.1196" stroke-linecap="round" stroke-linejoin="round" stroke-miterlimit="10" x1="31.33" y1="45.46" x2="21.72" y2="45.46"/>
	
		<line display="inline" fill="none" stroke="#FFFFFF" stroke-width="1.1196" stroke-linecap="round" stroke-linejoin="round" stroke-miterlimit="10" x1="31.33" y1="42.46" x2="21.72" y2="42.46"/>
</g>
<g id="Layer_6">
	<g>
		<path fill="#FFFFFF" d="M32.84,27.56l0.33,0.08c0.31,0.08,0.61,0.16,0.91,0.23c0.06,0.01,0.11,0.02,0.17,0.02
			c0.32,0,0.6-0.22,0.68-0.54c0.09-0.38-0.14-0.76-0.52-0.85c-0.29-0.07-0.58-0.14-0.88-0.22l-0.36-0.09
			c-0.38-0.09-0.76,0.14-0.85,0.52C32.23,27.08,32.46,27.46,32.84,27.56z"/>
		<path fill="#FFFFFF" d="M49.28,27.09c-0.39,0.08-0.8,0.17-1.22,0.24c-0.38,0.07-0.64,0.43-0.57,0.81
			c0.06,0.34,0.36,0.58,0.69,0.58c0.04,0,0.08,0,0.12-0.01c0.44-0.08,0.87-0.16,1.28-0.25c0.38-0.08,0.62-0.46,0.54-0.83
			C50.03,27.25,49.65,27.01,49.28,27.09z"/>
		<path fill="#FFFFFF" d="M51.23,27.34c0.08,0.3,0.35,0.5,0.65,0.51c-0.2-0.3-0.43-0.58-0.65-0.86
			C51.2,27.1,51.19,27.22,51.23,27.34z"/>
		<path fill="#FFFFFF" d="M38.11,27.26c-0.4-0.06-0.82-0.14-1.24-0.22c-0.38-0.07-0.75,0.18-0.82,0.56s0.18,0.75,0.56,0.82
			c0.44,0.08,0.86,0.16,1.28,0.22c0.04,0.01,0.08,0.01,0.11,0.01c0.34,0,0.64-0.25,0.69-0.59C38.75,27.68,38.49,27.32,38.11,27.26z"
			/>
		<path fill="#FFFFFF" d="M25.45,27.03c0.39-0.03,0.81-0.06,1.24-0.07c0.39-0.01,0.69-0.34,0.68-0.73s-0.35-0.71-0.73-0.68
			c-0.46,0.02-0.9,0.04-1.31,0.08c-0.39,0.03-0.67,0.37-0.64,0.76c0.03,0.37,0.34,0.64,0.7,0.64
			C25.41,27.03,25.43,27.03,25.45,27.03z"/>
		<path fill="#FFFFFF" d="M44.36,29.1c0.01,0,0.01,0,0.02,0c0.45-0.01,0.89-0.04,1.31-0.07c0.39-0.03,0.68-0.37,0.65-0.75
			c-0.03-0.39-0.39-0.68-0.75-0.65c-0.4,0.03-0.81,0.05-1.24,0.07c-0.39,0.01-0.69,0.34-0.68,0.72C43.67,28.8,43.98,29.1,44.36,29.1
			z"/>
		<path fill="#FFFFFF" d="M29.17,27c0.4,0.03,0.81,0.07,1.23,0.12c0.03,0,0.06,0.01,0.09,0.01c0.35,0,0.65-0.26,0.7-0.62
			c0.05-0.39-0.23-0.74-0.61-0.78c-0.45-0.06-0.88-0.1-1.31-0.13c-0.4-0.02-0.72,0.27-0.75,0.65S28.79,26.97,29.17,27z"/>
		<path fill="#FFFFFF" d="M40.47,28.97c0.45,0.04,0.88,0.07,1.3,0.1c0.01,0,0.03,0,0.04,0c0.37,0,0.68-0.29,0.7-0.67
			c0.02-0.39-0.28-0.72-0.67-0.74c-0.4-0.02-0.82-0.05-1.25-0.09c-0.4-0.04-0.73,0.25-0.77,0.63C39.8,28.59,40.08,28.94,40.47,28.97
			z"/>
		<path fill="#FFFFFF" d="M30.41,21.86c0.03,0,0.06,0.01,0.09,0.01c0.32,0,0.59-0.22,0.67-0.53c-0.39,0.15-0.78,0.31-1.16,0.49
			C30.14,21.83,30.27,21.84,30.41,21.86z"/>
		<path fill="#FFFFFF" d="M36.05,22.34c-0.07,0.38,0.18,0.75,0.56,0.82c0.44,0.08,0.86,0.16,1.28,0.22
			c0.04,0.01,0.08,0.01,0.11,0.01c0.34,0,0.64-0.25,0.69-0.59c0.06-0.38-0.2-0.74-0.58-0.81c-0.4-0.06-0.82-0.14-1.24-0.22
			C36.5,21.71,36.12,21.96,36.05,22.34z"/>
		<path fill="#FFFFFF" d="M32.84,22.3l0.33,0.08c0.31,0.08,0.61,0.16,0.91,0.23c0.06,0.01,0.11,0.02,0.17,0.02
			c0.32,0,0.6-0.22,0.68-0.54c0.09-0.38-0.14-0.76-0.52-0.85c-0.29-0.07-0.58-0.14-0.88-0.22l-0.36-0.09
			c-0.38-0.09-0.76,0.14-0.85,0.52S32.46,22.21,32.84,22.3z"/>
		<path fill="#FFFFFF" d="M41.77,23.81c0.01,0,0.03,0,0.04,0c0.37,0,0.68-0.29,0.7-0.67c0.02-0.39-0.28-0.72-0.67-0.74
			c-0.4-0.02-0.82-0.05-1.25-0.09c-0.4-0.04-0.73,0.25-0.77,0.63c-0.04,0.39,0.25,0.73,0.63,0.76
			C40.91,23.76,41.35,23.79,41.77,23.81z"/>
		<path fill="#FFFFFF" d="M44.36,23.84c0.01,0,0.01,0,0.02,0c0.45-0.01,0.89-0.04,1.31-0.07c0.39-0.03,0.68-0.37,0.65-0.75
			s-0.39-0.68-0.75-0.65c-0.4,0.03-0.81,0.05-1.24,0.07c-0.39,0.01-0.69,0.34-0.68,0.72C43.67,23.54,43.98,23.84,44.36,23.84z"/>
		<path fill="#FFFFFF" d="M23.55,47.57c-0.07-0.38-0.45-0.64-0.82-0.56c-0.04,0.01-0.07,0.01-0.11,0.02
			c0.24,0.38,0.5,0.75,0.77,1.11C23.52,47.99,23.59,47.78,23.55,47.57z"/>
		<path fill="#FFFFFF" d="M30.58,46.74c-0.44-0.05-0.88-0.09-1.31-0.12c-0.4-0.03-0.72,0.27-0.75,0.65
			c-0.03,0.39,0.27,0.72,0.65,0.75c0.4,0.03,0.82,0.07,1.24,0.12c0.03,0,0.06,0.01,0.08,0.01c0.35,0,0.65-0.26,0.7-0.62
			C31.24,47.14,30.96,46.79,30.58,46.74z"/>
		<path fill="#FFFFFF" d="M26.65,46.58c-0.46,0.01-0.9,0.04-1.31,0.08c-0.39,0.03-0.67,0.37-0.64,0.76c0.03,0.37,0.34,0.64,0.7,0.64
			c0.02,0,0.04,0,0.06,0c0.39-0.03,0.8-0.06,1.24-0.07c0.39-0.01,0.69-0.34,0.68-0.73C27.36,46.87,27.01,46.56,26.65,46.58z"/>
		<path fill="#FFFFFF" d="M51.23,48.35c0.23-0.3,0.46-0.59,0.67-0.9l-0.18,0.05C51.35,47.61,51.13,47.98,51.23,48.35z"/>
		<path fill="#FFFFFF" d="M45.58,48.65c-0.4,0.03-0.81,0.05-1.24,0.07c-0.39,0.01-0.69,0.34-0.68,0.72s0.32,0.68,0.7,0.68
			c0.01,0,0.01,0,0.02,0c0.45-0.01,0.89-0.04,1.31-0.07c0.39-0.03,0.68-0.37,0.65-0.75C46.31,48.92,45.97,48.63,45.58,48.65z"/>
		<path fill="#FFFFFF" d="M40.47,50c0.45,0.04,0.88,0.07,1.3,0.1c0.01,0,0.03,0,0.04,0c0.37,0,0.68-0.29,0.7-0.67
			c0.02-0.39-0.28-0.72-0.66-0.74c-0.4-0.02-0.82-0.05-1.25-0.09c-0.4-0.04-0.73,0.25-0.76,0.64C39.8,49.62,40.08,49.96,40.47,50z"
			/>
		<path fill="#FFFFFF" d="M34.41,47.53c-0.29-0.07-0.58-0.15-0.93-0.24l-0.31-0.08c-0.38-0.09-0.76,0.14-0.85,0.51
			c-0.09,0.38,0.14,0.76,0.51,0.85l0.34,0.08c0.31,0.08,0.61,0.16,0.9,0.23c0.06,0.01,0.11,0.02,0.17,0.02
			c0.32,0,0.6-0.21,0.68-0.54C35.02,48,34.79,47.62,34.41,47.53z"/>
		<path fill="#FFFFFF" d="M48.17,49.75c0.04,0,0.08,0,0.12-0.01c0.44-0.08,0.87-0.16,1.28-0.25c0.38-0.08,0.62-0.46,0.54-0.83
			c-0.08-0.38-0.45-0.62-0.83-0.54c-0.4,0.08-0.8,0.17-1.23,0.24c-0.38,0.07-0.64,0.43-0.57,0.81
			C47.54,49.5,47.84,49.75,48.17,49.75z"/>
		<path fill="#FFFFFF" d="M38.11,48.28c-0.4-0.07-0.82-0.14-1.24-0.22c-0.38-0.08-0.75,0.18-0.82,0.56s0.18,0.75,0.56,0.82
			c0.44,0.08,0.86,0.16,1.28,0.22c0.04,0.01,0.08,0.01,0.11,0.01c0.34,0,0.64-0.25,0.69-0.59C38.75,48.71,38.5,48.34,38.11,48.28z"
			/>
		<path fill="#FFFFFF" d="M41.85,53.95c-0.4-0.02-0.82-0.05-1.25-0.09c-0.4-0.03-0.73,0.25-0.76,0.64
			c-0.02,0.17,0.04,0.34,0.13,0.47c0.85-0.13,1.69-0.3,2.5-0.54C42.38,54.15,42.14,53.96,41.85,53.95z"/>
		<path fill="#FFFFFF" d="M30.41,53.4c0.03,0,0.06,0.01,0.08,0.01c0.35,0,0.65-0.26,0.7-0.62c0.05-0.39-0.23-0.74-0.61-0.78
			c-0.44-0.05-0.88-0.09-1.31-0.12c-0.4-0.03-0.72,0.27-0.75,0.65c-0.01,0.08,0.01,0.15,0.03,0.22c0.34,0.2,0.69,0.39,1.04,0.56
			C29.86,53.34,30.13,53.36,30.41,53.4z"/>
		<path fill="#FFFFFF" d="M38,54.94c0.34,0,0.64-0.25,0.69-0.59c0.06-0.38-0.2-0.74-0.58-0.81c-0.4-0.07-0.82-0.14-1.24-0.22
			c-0.38-0.08-0.75,0.18-0.82,0.56s0.18,0.75,0.56,0.82c0.44,0.08,0.86,0.16,1.28,0.22C37.93,54.93,37.96,54.94,38,54.94z"/>
		<path fill="#FFFFFF" d="M34.41,52.79c-0.29-0.07-0.58-0.15-0.93-0.24l-0.31-0.08c-0.38-0.09-0.76,0.14-0.85,0.51
			c-0.09,0.38,0.14,0.76,0.51,0.85l0.34,0.08c0.31,0.08,0.61,0.16,0.9,0.23c0.06,0.01,0.11,0.02,0.17,0.02
			c0.32,0,0.6-0.21,0.68-0.54C35.02,53.26,34.79,52.88,34.41,52.79z"/>
		<path fill="#FFFFFF" d="M34.93,32.56c-0.09-0.38-0.47-0.61-0.85-0.52c-0.3,0.07-0.6,0.15-0.91,0.23l-0.33,0.08
			c-0.38,0.09-0.61,0.47-0.52,0.85c0.08,0.32,0.37,0.54,0.68,0.54c0.05,0,0.11-0.01,0.17-0.02l0.36-0.09
			c0.3-0.08,0.59-0.15,0.88-0.22C34.79,33.31,35.02,32.93,34.93,32.56z"/>
		<path fill="#FFFFFF" d="M22.99,32.54c-0.74-0.14-1.16-0.26-1.18-0.27c-0.37-0.11-0.76,0.11-0.87,0.48s0.1,0.76,0.48,0.87
			c0,0,0.48,0.14,1.31,0.3c0.04,0.01,0.09,0.01,0.13,0.01c0.33,0,0.63-0.23,0.69-0.57C23.62,32.98,23.37,32.62,22.99,32.54z"/>
		<path fill="#FFFFFF" d="M37.89,31.27c-0.42,0.07-0.84,0.14-1.28,0.22c-0.38,0.07-0.63,0.44-0.56,0.82
			c0.06,0.34,0.36,0.57,0.69,0.57c0.04,0,0.09,0,0.13-0.01c0.42-0.08,0.84-0.15,1.24-0.22c0.38-0.06,0.64-0.42,0.58-0.81
			C38.63,31.46,38.28,31.2,37.89,31.27z"/>
		<path fill="#FFFFFF" d="M48.29,31.2c-0.38-0.06-0.75,0.19-0.81,0.57c-0.07,0.38,0.19,0.75,0.57,0.81
			c0.42,0.07,0.83,0.15,1.22,0.24c0.05,0.01,0.1,0.02,0.15,0.02c0.32,0,0.62-0.23,0.69-0.55c0.08-0.38-0.16-0.75-0.54-0.83
			C49.16,31.36,48.74,31.27,48.29,31.2z"/>
		<path fill="#FFFFFF" d="M41.77,30.84c-0.42,0.02-0.86,0.05-1.3,0.1c-0.39,0.04-0.67,0.38-0.63,0.76c0.03,0.36,0.34,0.64,0.7,0.64
			c0.02,0,0.04,0,0.07,0c0.43-0.04,0.84-0.07,1.25-0.09c0.39-0.02,0.69-0.35,0.67-0.74C42.49,31.12,42.17,30.82,41.77,30.84z"/>
		<path fill="#FFFFFF" d="M45.69,30.88c-0.42-0.03-0.86-0.06-1.31-0.07c-0.43,0-0.71,0.29-0.72,0.68c-0.01,0.39,0.29,0.71,0.68,0.72
			c0.43,0.01,0.84,0.04,1.24,0.07c0.02,0,0.04,0,0.05,0c0.36,0,0.67-0.28,0.7-0.65C46.37,31.24,46.08,30.91,45.69,30.88z"/>
		<path fill="#FFFFFF" d="M25.33,34.28c0.41,0.03,0.85,0.06,1.31,0.08c0.01,0,0.02,0,0.03,0c0.38,0,0.69-0.3,0.7-0.68
			c0.01-0.39-0.29-0.71-0.68-0.73c-0.44-0.02-0.85-0.04-1.24-0.07c-0.38-0.04-0.73,0.25-0.76,0.64
			C24.66,33.9,24.95,34.24,25.33,34.28z"/>
		<path fill="#FFFFFF" d="M51.72,33.43l0.7,0.19c0.06,0.02,0.13,0.03,0.19,0.03c0.31,0,0.59-0.2,0.68-0.51
			c0.1-0.37-0.11-0.76-0.49-0.87l-0.7-0.19c-0.38-0.1-0.76,0.12-0.86,0.49C51.12,32.94,51.34,33.33,51.72,33.43z"/>
		<path fill="#FFFFFF" d="M30.41,32.79c-0.42,0.05-0.83,0.09-1.23,0.12c-0.39,0.03-0.68,0.36-0.65,0.75
			c0.03,0.37,0.33,0.65,0.7,0.65c0.02,0,0.03,0,0.05,0c0.43-0.03,0.86-0.07,1.31-0.12c0.39-0.05,0.66-0.4,0.61-0.78
			C31.14,33.02,30.79,32.75,30.41,32.79z"/>
		<path fill="#FFFFFF" d="M33.46,38.19l-0.24-0.72c-0.41,0.09-0.83,0.18-1.24,0.25c-0.41,0.07-0.68,0.46-0.61,0.87
			c0.06,0.37,0.38,0.62,0.74,0.62c0.04,0,0.09,0,0.13-0.01c0.43-0.08,0.87-0.16,1.37-0.28L33.46,38.19z"/>
		<path fill="#FFFFFF" d="M40.3,37.78c0.46-0.05,0.91-0.09,1.35-0.13c0.42-0.03,0.72-0.4,0.69-0.81c-0.03-0.42-0.38-0.72-0.81-0.69
			c-0.45,0.04-0.91,0.08-1.39,0.13c-0.42,0.05-0.71,0.42-0.67,0.83c0.04,0.39,0.37,0.67,0.75,0.67
			C40.25,37.79,40.27,37.79,40.3,37.78z"/>
		<path fill="#FFFFFF" d="M36.28,38.38c0.45-0.08,0.9-0.16,1.34-0.23c0.41-0.07,0.69-0.45,0.63-0.87s-0.46-0.69-0.87-0.63
			c-0.45,0.07-0.9,0.15-1.37,0.24c-0.41,0.08-0.68,0.47-0.61,0.88c0.07,0.36,0.38,0.62,0.74,0.62
			C36.19,38.39,36.24,38.39,36.28,38.38z"/>
		<path fill="#FFFFFF" d="M28.02,39.65c0.01,0,0.02,0,0.03,0c0.46-0.02,0.93-0.05,1.4-0.09c0.42-0.04,0.72-0.4,0.69-0.82
			c-0.04-0.42-0.4-0.72-0.82-0.69c-0.45,0.04-0.9,0.07-1.34,0.08c-0.42,0.02-0.74,0.37-0.72,0.78
			C27.28,39.33,27.62,39.65,28.02,39.65z"/>
		<path fill="#FFFFFF" d="M23.84,39.56c0.44,0.04,0.91,0.07,1.4,0.09c0.01,0,0.02,0,0.03,0c0.4,0,0.74-0.32,0.75-0.72
			c0.02-0.42-0.31-0.77-0.72-0.79c-0.47-0.02-0.92-0.05-1.34-0.08c-0.42-0.01-0.78,0.28-0.81,0.69
			C23.12,39.17,23.43,39.53,23.84,39.56z"/>
		<path fill="#FFFFFF" d="M45.71,36c-0.2,0-0.41,0-0.62,0c-0.25,0-0.51,0-0.78,0.01c-0.42,0.01-0.75,0.35-0.74,0.77
			c0.01,0.41,0.34,0.74,0.75,0.74h0.01c0.23,0,0.46-0.01,0.68-0.01c0.23,0,0.44,0,0.66,0h0.01c0.41,0,0.75-0.33,0.75-0.74
			C46.46,36.35,46.13,36.01,45.71,36z"/>
		<path fill="#FFFFFF" d="M21.18,39.23c0.36,0,0.68-0.26,0.74-0.63c0.07-0.41-0.21-0.8-0.62-0.87c-0.81-0.14-1.27-0.25-1.29-0.26
			c-0.04-0.01-0.08,0-0.12-0.01c0,0.07-0.01,0.13-0.01,0.2c0,0.45,0.03,0.9,0.07,1.34c0.24,0.05,0.6,0.13,1.09,0.21
			C21.09,39.23,21.14,39.23,21.18,39.23z"/>
		<path fill="#FFFFFF" d="M53.86,38.54c0.34,0,0.66-0.24,0.74-0.59c0.09-0.41-0.16-0.81-0.57-0.9c-0.44-0.1-0.89-0.2-1.36-0.29
			c-0.41-0.08-0.81,0.18-0.89,0.59c-0.08,0.41,0.18,0.81,0.59,0.89c0.46,0.09,0.89,0.19,1.32,0.28
			C53.75,38.54,53.8,38.54,53.86,38.54z"/>
		<path fill="#FFFFFF" d="M50.55,37.15c0.05-0.41-0.24-0.79-0.65-0.85c-0.45-0.06-0.91-0.11-1.39-0.15
			c-0.42-0.04-0.78,0.27-0.82,0.68c-0.04,0.42,0.27,0.78,0.68,0.82c0.46,0.04,0.9,0.09,1.34,0.15c0.03,0,0.07,0.01,0.1,0.01
			C50.18,37.81,50.5,37.53,50.55,37.15z"/>
		<path fill="#FFFFFF" d="M26.69,43.46c-0.44-0.01-0.85-0.04-1.24-0.07c-0.39-0.04-0.73,0.25-0.76,0.64s0.25,0.73,0.64,0.76
			c0.41,0.04,0.85,0.06,1.31,0.08c0.01,0,0.02,0,0.02,0c0.38,0,0.69-0.3,0.7-0.68C27.38,43.8,27.08,43.48,26.69,43.46z"/>
		<path fill="#FFFFFF" d="M21.42,44.14c0,0,0.48,0.14,1.31,0.3c0.04,0.01,0.09,0.01,0.13,0.01c0.33,0,0.63-0.23,0.69-0.57
			c0.07-0.38-0.18-0.75-0.56-0.82c-0.74-0.14-1.16-0.26-1.18-0.27c-0.37-0.11-0.76,0.11-0.87,0.48c-0.03,0.09-0.03,0.18-0.02,0.27
			c0.04,0.1,0.07,0.2,0.11,0.3C21.12,43.97,21.25,44.09,21.42,44.14z"/>
		<path fill="#FFFFFF" d="M30.41,43.31c-0.42,0.05-0.83,0.09-1.24,0.12c-0.39,0.03-0.68,0.36-0.65,0.75
			c0.03,0.37,0.33,0.66,0.7,0.66c0.02,0,0.03,0,0.05,0c0.43-0.03,0.86-0.07,1.31-0.12c0.39-0.05,0.66-0.4,0.61-0.78
			C31.14,43.54,30.8,43.26,30.41,43.31z"/>
		<path fill="#FFFFFF" d="M37.89,41.78c-0.42,0.07-0.84,0.14-1.28,0.22c-0.38,0.07-0.63,0.44-0.56,0.82
			c0.06,0.34,0.36,0.57,0.69,0.57c0.04,0,0.09,0,0.13-0.01c0.42-0.08,0.84-0.15,1.24-0.22c0.38-0.06,0.64-0.42,0.58-0.81
			S38.27,41.71,37.89,41.78z"/>
		<path fill="#FFFFFF" d="M34.93,43.07c-0.09-0.38-0.48-0.61-0.85-0.51c-0.3,0.07-0.6,0.15-0.94,0.24l-0.3,0.08
			c-0.38,0.09-0.61,0.47-0.51,0.85c0.08,0.32,0.37,0.54,0.68,0.54c0.06,0,0.11-0.01,0.17-0.02l0.35-0.09
			c0.3-0.08,0.59-0.15,0.88-0.22C34.79,43.83,35.02,43.44,34.93,43.07z"/>
		<path fill="#FFFFFF" d="M48.05,43.1c0.42,0.07,0.83,0.15,1.22,0.24c0.05,0.01,0.1,0.02,0.15,0.02c0.32,0,0.62-0.23,0.69-0.55
			c0.08-0.38-0.16-0.75-0.54-0.83c-0.41-0.09-0.84-0.17-1.28-0.25c-0.38-0.06-0.75,0.19-0.81,0.57
			C47.41,42.67,47.67,43.03,48.05,43.1z"/>
		<path fill="#FFFFFF" d="M40.53,42.85c0.02,0,0.04,0,0.07,0c0.43-0.04,0.84-0.07,1.25-0.09c0.39-0.02,0.68-0.35,0.66-0.74
			c-0.02-0.39-0.38-0.65-0.74-0.66c-0.42,0.02-0.85,0.06-1.3,0.1c-0.39,0.04-0.67,0.38-0.64,0.76
			C39.87,42.58,40.17,42.85,40.53,42.85z"/>
		<path fill="#FFFFFF" d="M51.72,43.94l0.7,0.2c0.06,0.02,0.12,0.03,0.18,0.03c0.3,0,0.56-0.21,0.64-0.52
			c0.11-0.37-0.15-0.77-0.53-0.88l-0.62-0.17c-0.38-0.1-0.76,0.12-0.86,0.49C51.12,43.45,51.34,43.84,51.72,43.94z"/>
		<path fill="#FFFFFF" d="M45.69,41.39c-0.42-0.03-0.86-0.06-1.31-0.07c-0.4,0-0.71,0.29-0.72,0.68c-0.01,0.39,0.29,0.71,0.68,0.72
			c0.43,0.01,0.84,0.04,1.24,0.07c0.02,0,0.04,0,0.05,0c0.36,0,0.67-0.28,0.7-0.65C46.37,41.76,46.08,41.42,45.69,41.39z"/>
	</g>
</g>
</svg>
