<?xml version="1.0" encoding="utf-8"?>
<!-- Generator: Adobe Illustrator 18.0.0, SVG Export Plug-In . SVG Version: 6.00 Build 0)  -->
<!DOCTYPE svg PUBLIC "-//W3C//DTD SVG 1.1//EN" "http://www.w3.org/Graphics/SVG/1.1/DTD/svg11.dtd">
<svg version="1.1" id="Layer_1" xmlns="http://www.w3.org/2000/svg" xmlns:xlink="http://www.w3.org/1999/xlink" x="0px" y="0px"
	 viewBox="0 0 34.6 37.7" enable-background="new 0 0 34.6 37.7" xml:space="preserve">
<line fill="none" stroke="#FFFFFF" stroke-width="1.1272" stroke-linecap="round" stroke-linejoin="round" stroke-miterlimit="10" x1="17.2" y1="24" x2="17.2" y2="36"/>
<path fill="none" stroke="#FFFFFF" stroke-width="1.1272" stroke-linecap="round" stroke-linejoin="round" stroke-miterlimit="10" d="
	M12.7,22L12.7,22c2.3,2.6,6.3,2.6,8.6,0l0,0"/>
<path fill="none" stroke="#FFFFFF" stroke-width="1.1207" stroke-linecap="round" stroke-linejoin="round" stroke-miterlimit="10" d="
	M33.3,14.8c0-3.8-3.2-7-7.1-7c-0.7,0-1.4,0.1-2.1,0.3c-0.4-3.5-3.4-6.2-7-6.2c-3.6,0-6.6,2.6-7,6.1C9.6,8,9,7.9,8.4,7.9
	c-3.9,0-7.1,3.1-7.1,7c0,2.2,1,4.1,2.6,5.4c-0.3,0.7-0.4,1.5-0.4,2.3c0,3.8,3.2,7,7.1,7c3,0,5.6-1.9,6.6-4.5c1,2.6,3.6,4.5,6.6,4.5
	c3.9,0,7.1-3.1,7.1-7c0-0.8-0.1-1.5-0.4-2.2C32.2,19.1,33.3,17.1,33.3,14.8z"/>
</svg>
