<?xml version="1.0" encoding="utf-8"?>
<!-- Generator: Adobe Illustrator 18.0.0, SVG Export Plug-In . SVG Version: 6.00 Build 0)  -->
<!DOCTYPE svg PUBLIC "-//W3C//DTD SVG 1.1//EN" "http://www.w3.org/Graphics/SVG/1.1/DTD/svg11.dtd">
<svg version="1.1" id="Layer_1" xmlns="http://www.w3.org/2000/svg" xmlns:xlink="http://www.w3.org/1999/xlink" x="0px" y="0px"
	 viewBox="0 0 39.2 37.7" enable-background="new 0 0 39.2 37.7" xml:space="preserve">
<g>
	
		<path fill="none" stroke="#FFFFFF" stroke-width="1.0383" stroke-linecap="round" stroke-linejoin="round" stroke-miterlimit="10" d="
		M25.8,5.3C20.7,2.4,14.1,0.9,9.6,4.2c-3.9,2.7-4.5,7.8-5.8,11.9C2.4,20.4,3.1,25.3,6,28.9c2.1,2.6,5.1,4.3,8.3,5.3
		c3.7,1.1,8.3,1.9,11.9,0.3c5.5-2.3,10-9,9.9-14.9C36,13.1,31.2,8.3,25.8,5.3z"/>
	
		<path fill="none" stroke="#FFFFFF" stroke-width="1.0383" stroke-linecap="round" stroke-linejoin="round" stroke-miterlimit="10" d="
		M11.5,7.7c-3.2,2.4-3.9,6.5-4.9,10c-1,3.6-0.2,7.6,2.5,10.4c1.8,1.9,4.2,3.3,6.8,4c3,0.8,6.6,1.3,9.5,0.1c4.5-1.9,8-7.3,7.9-12.2
		c-0.1-5.3-4-9.3-8.5-11.8C20.6,6,15.2,5,11.5,7.7z"/>
	
		<path fill="none" stroke="#FFFFFF" stroke-width="1.0383" stroke-linecap="round" stroke-linejoin="round" stroke-miterlimit="10" d="
		M13.4,11.2c-2.6,2-3.3,5.3-3.9,8.1c-0.7,2.9,0.3,5.9,2.7,8.1c1.5,1.3,3.3,2.3,5.2,2.7c2.3,0.5,5,0.8,7.2-0.2c3.4-1.6,6.1-5.6,6-9.4
		c-0.1-4.3-3.2-7.4-6.7-9.2C20.5,9.6,16.4,9,13.4,11.2z"/>
	
		<path fill="none" stroke="#FFFFFF" stroke-width="1.0383" stroke-linecap="round" stroke-linejoin="round" stroke-miterlimit="10" d="
		M15.4,14.8c-2,1.6-2.8,4.1-3,6.2c-0.3,2.2,0.7,4.3,2.9,5.7c1.1,0.7,2.4,1.3,3.7,1.5c1.6,0.2,3.3,0.2,4.8-0.5
		c2.4-1.2,4.1-3.9,4.1-6.7c-0.1-3.2-2.3-5.5-5-6.7C20.5,13.3,17.5,13.1,15.4,14.8z"/>
	
		<path fill="none" stroke="#FFFFFF" stroke-width="1.0383" stroke-linecap="round" stroke-linejoin="round" stroke-miterlimit="10" d="
		M21.9,17.4c-1.5-0.5-3.2-0.2-4.5,1c-1.4,1.3-2.2,2.9-2.1,4.3c0.1,1.5,1,2.8,3.1,3.4c1.6,0.5,3.3,0.3,4.6-0.5s2.2-2.2,2.1-4
		C25.1,19.5,23.6,17.9,21.9,17.4z"/>
</g>
</svg>
