<?xml version="1.0" encoding="utf-8"?>
<!-- Generator: Adobe Illustrator 18.0.0, SVG Export Plug-In . SVG Version: 6.00 Build 0)  -->
<!DOCTYPE svg PUBLIC "-//W3C//DTD SVG 1.1//EN" "http://www.w3.org/Graphics/SVG/1.1/DTD/svg11.dtd">
<svg version="1.1" id="Layer_1" xmlns="http://www.w3.org/2000/svg" xmlns:xlink="http://www.w3.org/1999/xlink" x="0px" y="0px"
	 viewBox="0 0 31.9 32.6" enable-background="new 0 0 31.9 32.6" xml:space="preserve">
<g>
	<path fill="#FFFFFF" stroke="#FFFFFF" stroke-miterlimit="10" d="M15.8,12.4c-2.2,0-3.9,1.7-3.9,3.9c0,2.2,1.7,3.9,3.9,3.9
		s3.9-1.7,3.9-3.9C19.7,14.1,17.9,12.4,15.8,12.4z"/>
	<path fill="#FFFFFF" stroke="#FFFFFF" stroke-width="0.4994" stroke-miterlimit="10" d="M17.2,7.5c0-0.7-0.6-1.3-1.4-1.3
		s-1.3,0.6-1.4,1.3c-4.3,0.7-7.6,4.4-7.6,8.8c0,4.5,3.3,8.2,7.6,8.8c0,0.7,0.6,1.3,1.4,1.3s1.3-0.6,1.4-1.3c4.3-0.7,7.6-4.4,7.6-8.8
		C24.7,11.8,21.4,8.1,17.2,7.5z M17.1,24.8c-0.1-0.6-0.7-1.1-1.3-1.1c-0.7,0-1.2,0.5-1.3,1.1c-4.1-0.6-7.3-4.2-7.3-8.5
		c0-4.3,3.2-7.9,7.3-8.5c0.1,0.6,0.7,1.1,1.3,1.1c0.7,0,1.2-0.5,1.3-1.1c4.1,0.6,7.3,4.2,7.3,8.5C24.4,20.6,21.3,24.2,17.1,24.8z"/>
	<path fill="#FFFFFF" stroke="#FFFFFF" stroke-width="0.4994" stroke-miterlimit="10" d="M30.8,16.3c0-0.7-0.6-1.3-1.3-1.4
		C28.9,8.4,23.7,3.2,17.1,2.6c0-0.7-0.6-1.3-1.4-1.3c-0.7,0-1.3,0.6-1.4,1.3C7.9,3.2,2.7,8.4,2.1,14.9c-0.7,0-1.3,0.6-1.3,1.4
		c0,0.7,0.6,1.3,1.3,1.4C2.7,24.2,7.9,29.4,14.4,30c0,0.7,0.6,1.3,1.4,1.3c0.7,0,1.3-0.6,1.4-1.3c6.5-0.6,11.7-5.8,12.4-12.4
		C30.2,17.6,30.8,17,30.8,16.3z M17.1,29.7c-0.1-0.7-0.7-1.2-1.3-1.2c-0.7,0-1.2,0.5-1.3,1.2C8.1,29.1,3,24,2.4,17.6
		C3,17.5,3.5,17,3.5,16.3c0-0.7-0.5-1.2-1.2-1.3C3,8.6,8.1,3.5,14.5,2.9C14.6,3.5,15.1,4,15.8,4c0.7,0,1.2-0.5,1.3-1.2
		C23.5,3.5,28.6,8.6,29.2,15c-0.7,0.1-1.2,0.7-1.2,1.3c0,0.7,0.5,1.2,1.2,1.3C28.6,24,23.5,29.1,17.1,29.7z"/>
</g>
</svg>
