<?xml version="1.0" encoding="utf-8"?>
<!-- Generator: Adobe Illustrator 18.0.0, SVG Export Plug-In . SVG Version: 6.00 Build 0)  -->
<!DOCTYPE svg PUBLIC "-//W3C//DTD SVG 1.1//EN" "http://www.w3.org/Graphics/SVG/1.1/DTD/svg11.dtd">
<svg version="1.1" id="Layer_1" xmlns="http://www.w3.org/2000/svg" xmlns:xlink="http://www.w3.org/1999/xlink" x="0px" y="0px"
	 viewBox="0 0 39.2 37.7" enable-background="new 0 0 39.2 37.7" xml:space="preserve">
<g>
	<defs>
		<circle id="SVGID_1_" cx="19.9" cy="18.8" r="17.5"/>
	</defs>
	<clipPath id="SVGID_2_">
		<use xlink:href="#SVGID_1_"  overflow="visible"/>
	</clipPath>
	
		<path clip-path="url(#SVGID_2_)" fill="none" stroke="#FFFFFF" stroke-width="1.4054" stroke-linecap="round" stroke-linejoin="round" stroke-miterlimit="10" stroke-dasharray="1.2777,2.5554" d="
		M4.1,8.1c0,0,5.5-1.6,11.7,0c9.9,2.6,15.1,1.2,19.3,0"/>
	
		<path clip-path="url(#SVGID_2_)" fill="none" stroke="#FFFFFF" stroke-width="1.4054" stroke-linecap="round" stroke-linejoin="round" stroke-miterlimit="10" stroke-dasharray="1.2777,2.5554" d="
		M4.1,2.9c0,0,5.5-1.6,11.7,0C25.8,5.5,31,4,35.1,2.9"/>
	
		<path clip-path="url(#SVGID_2_)" fill="none" stroke="#FFFFFF" stroke-width="1.4054" stroke-linecap="round" stroke-linejoin="round" stroke-miterlimit="10" stroke-dasharray="1.2777,2.5554" d="
		M4.1,29.1c0,0,5.5-1.6,11.7,0c9.9,2.6,15.1,1.2,19.3,0"/>
	
		<path clip-path="url(#SVGID_2_)" fill="none" stroke="#FFFFFF" stroke-width="1.4054" stroke-linecap="round" stroke-linejoin="round" stroke-miterlimit="10" stroke-dasharray="1.2777,2.5554" d="
		M4.1,34.4c0,0,5.5-1.6,11.7,0c9.9,2.6,15.1,1.2,19.3,0"/>
	
		<path clip-path="url(#SVGID_2_)" fill="none" stroke="#FFFFFF" stroke-width="1.4054" stroke-linecap="round" stroke-linejoin="round" stroke-miterlimit="10" stroke-dasharray="1.2777,2.5554" d="
		M4.1,14.1c0,0,5.5,1.6,11.7,0c9.9-2.6,15.1-1.2,19.3,0"/>
	
		<path clip-path="url(#SVGID_2_)" fill="none" stroke="#FFFFFF" stroke-width="1.5103" stroke-linecap="round" stroke-linejoin="round" stroke-miterlimit="10" stroke-dasharray="1.373,2.7461" d="
		M2.4,19.4c0,0,6.4,1.6,13.6,0c11.5-2.6,17.5-1.2,22.2,0"/>
	
		<path clip-path="url(#SVGID_2_)" fill="none" stroke="#FFFFFF" stroke-width="1.4054" stroke-linecap="round" stroke-linejoin="round" stroke-miterlimit="10" stroke-dasharray="1.2777,2.5554" d="
		M4.1,24.6c0,0,5.5,1.6,11.7,0c9.9-2.6,15.1-1.2,19.3,0"/>
</g>
</svg>
