<?xml version="1.0" encoding="utf-8"?>
<!-- Generator: Adobe Illustrator 18.0.0, SVG Export Plug-In . SVG Version: 6.00 Build 0)  -->
<!DOCTYPE svg PUBLIC "-//W3C//DTD SVG 1.1//EN" "http://www.w3.org/Graphics/SVG/1.1/DTD/svg11.dtd">
<svg version="1.1" id="AR_x5F_layer" xmlns="http://www.w3.org/2000/svg" xmlns:xlink="http://www.w3.org/1999/xlink" x="0px"
	 y="0px" width="9693.14px" height="623.52px" viewBox="0 0 9693.14 623.52" enable-background="new 0 0 9693.14 623.52"
	 xml:space="preserve">
<g opacity="0.01">
	<path d="M950.88,456.61c-0.48-0.06-0.96-0.09-1.43-0.09c-5.38,0-9.98,4.03-10.69,9.37c-0.18,1.38-0.09,2.73,0.23,4l-7.06,2.25
		c-0.88-1.41-2.44-2.36-4.23-2.36c-2.76,0-5,2.24-5,5c0,2.76,2.24,5,5,5s5-2.24,5-5c0-0.61-0.13-1.19-0.33-1.73l6.9-2.2
		c1.3,3.72,4.59,6.61,8.76,7.16c0.48,0.06,0.96,0.1,1.44,0.1c0.02,0,0.04,0,0.05,0v8.9h1v-8.95c4.92-0.49,8.97-4.33,9.63-9.32
		c0.38-2.86-0.38-5.69-2.13-7.98C956.28,458.46,953.74,456.99,950.88,456.61z"/>
	<circle cx="950.03" cy="492" r="5"/>
	<circle cx="2769.5" cy="508.59" r="5"/>
	<path d="M2779.7,531.91c-2.19-1.69-5.33-1.29-7.02,0.9c-0.37,0.48-0.63,1.02-0.8,1.57l-6.81-2.48c1.25-3.74,0.41-8.04-2.55-11.03
		c-0.35-0.36-0.74-0.68-1.13-0.98l5.45-7.05l-0.79-0.61l-5.48,7.09c-1.7-1.07-3.66-1.65-5.72-1.65c-2.87,0-5.56,1.11-7.6,3.13
		c-2.05,2.03-3.18,4.73-3.2,7.62c-0.01,2.88,1.1,5.6,3.13,7.65c2.04,2.06,4.77,3.2,7.67,3.2c2.86,0,5.56-1.11,7.6-3.13
		c0.99-0.98,1.74-2.11,2.27-3.31l6.96,2.54c-0.17,1.66,0.49,3.36,1.9,4.46c2.19,1.69,5.33,1.29,7.02-0.9
		C2782.29,536.75,2781.89,533.6,2779.7,531.91z"/>
	<path d="M2888.1,497.06l0.84-0.54l-4.88-7.51c1.56-1.24,2.75-2.89,3.43-4.81c0.96-2.72,0.81-5.65-0.43-8.25
		c-1.78-3.74-5.61-6.15-9.75-6.15c-1.61,0-3.17,0.35-4.64,1.05c-2.6,1.24-4.57,3.42-5.53,6.13c-0.96,2.72-0.81,5.65,0.43,8.25
		c0.59,1.23,1.42,2.31,2.39,3.21l-4.71,5.75c-1.51-0.7-3.34-0.65-4.84,0.33c-2.32,1.51-2.97,4.6-1.47,6.92
		c1.51,2.32,4.6,2.97,6.92,1.47c2.32-1.51,2.97-4.6,1.47-6.92c-0.33-0.51-0.75-0.93-1.22-1.27l4.6-5.62
		c1.86,1.44,4.17,2.29,6.6,2.29c1.61,0,3.17-0.35,4.63-1.05c0.45-0.22,0.88-0.47,1.29-0.74L2888.1,497.06z"/>
	<circle cx="2891.24" cy="500.98" r="5"/>
	<circle cx="1452.76" cy="533.23" r="5"/>
	<path d="M1443.46,555.82c-0.56,0.23-1.05,0.57-1.47,0.96l-4.67-5.53c0.85-0.76,1.59-1.64,2.17-2.65c1.45-2.5,1.83-5.4,1.09-8.19
		c-0.13-0.49-0.3-0.95-0.49-1.41l8.23-3.4l-0.38-0.92l-8.27,3.42c-1.85-3.45-5.47-5.71-9.51-5.71c-0.94,0-1.87,0.12-2.78,0.37
		c-2.79,0.74-5.12,2.52-6.56,5.02c-1.45,2.49-1.83,5.4-1.09,8.19c1.26,4.72,5.54,8.02,10.42,8.02c0.93,0,1.87-0.12,2.78-0.37
		c1.32-0.35,2.54-0.95,3.61-1.74l4.77,5.66c-0.97,1.36-1.25,3.16-0.57,4.82c1.06,2.55,3.98,3.77,6.53,2.71
		c2.55-1.06,3.77-3.98,2.71-6.53S1446.02,554.77,1443.46,555.82z"/>
	<path d="M1579.34,526.62c-6.01-0.27-10.98,4.4-11.21,10.36c-0.05,1.39,0.17,2.72,0.6,3.96l-6.82,2.89
		c-1.01-1.33-2.65-2.13-4.43-1.96c-2.75,0.26-4.77,2.69-4.52,5.44c0.26,2.75,2.69,4.77,5.44,4.52c2.75-0.26,4.77-2.69,4.52-5.44
		c-0.06-0.61-0.23-1.17-0.48-1.69l6.67-2.83c1.64,3.59,5.18,6.16,9.39,6.32c0.15,0.01,0.29,0.01,0.44,0.01
		c0.36,0,0.71-0.02,1.06-0.05l0.82,8.86l1-0.09l-0.83-8.91c4.84-0.92,8.53-5.06,8.73-10.17c0.11-2.88-0.9-5.63-2.86-7.75
		C1584.89,527.97,1582.23,526.74,1579.34,526.62z"/>
	<circle cx="1581.77" cy="561.94" r="5"/>
	<path d="M245.44,433.01c2.88,0,5.23-2.35,5.23-5.23c0-2.89-2.35-5.23-5.23-5.23c-2.89,0-5.23,2.35-5.23,5.23
		C240.21,430.66,242.56,433.01,245.44,433.01z"/>
	<path d="M206.97,437.33c2.88,0,5.23-2.35,5.23-5.23s-2.35-5.23-5.23-5.23c-2.89,0-5.23,2.35-5.23,5.23S204.09,437.33,206.97,437.33
		z"/>
	<path d="M548.2,319.92c-1.76,0-3.36,0.69-4.56,1.8l-5.08-2.78c0.6-1.03,0.94-2.22,0.94-3.5c0-3.29-2.29-6.05-5.36-6.79v-7.28
		c0.48,0.11,0.98,0.17,1.49,0.17c3.71,0,6.73-3.02,6.73-6.73c0-3.71-3.02-6.73-6.73-6.73c-0.54,0-1.06,0.07-1.57,0.19
		c-0.5-0.12-1.03-0.19-1.57-0.19c-3.71,0-6.73,3.02-6.73,6.73c0,2.92,1.88,5.41,4.49,6.34v7.67c-2.76,0.94-4.76,3.55-4.76,6.62
		c0,0.94,0.19,1.84,0.53,2.66l-9.98,3.64c-1.23-1.39-3.03-2.28-5.03-2.28c-1.92,0-3.65,0.81-4.88,2.11l-7.28-2.84
		c0.51-0.97,0.81-2.08,0.81-3.26c0-3.71-2.9-6.74-6.55-6.98v-1.94c0.26-0.14,0.5-0.31,0.73-0.49c0.49,0.15,1,0.26,1.53,0.26
		c2.89,0,5.23-2.35,5.23-5.23c0-2.88-2.35-5.23-5.23-5.23c-1.23,0-2.35,0.45-3.25,1.16c-0.49-0.15-1-0.26-1.53-0.26
		c-2.89,0-5.23,2.35-5.23,5.23c0,2.89,2.35,5.23,5.23,5.23c0.57,0,1.11-0.11,1.62-0.28v1.54c-3.65,0.23-6.55,3.27-6.55,6.98
		c0,0.94,0.19,1.84,0.53,2.65l-8.22,4.59c-1.22-1.69-3.21-2.8-5.45-2.8c-2.1,0-3.98,0.97-5.21,2.49l-5.39-3.09
		c0.76-1.09,1.22-2.42,1.22-3.84c0-3.71-3.02-6.73-6.73-6.73c-3.35,0-6.13,2.47-6.64,5.68c-1.1,1.06-1.85,2.46-2.07,4.04
		l-16.12,5.77c-0.74-0.4-1.57-0.65-2.47-0.65c-2.73,0-4.95,2.11-5.19,4.78h-1.27c-0.22-3.49-3.02-6.29-6.51-6.53
		c-0.83-0.36-1.74-0.57-2.69-0.57c-0.53,0-1.04,0.07-1.53,0.18c0.08-0.33,0.13-0.67,0.16-1.01c1.29-1.27,2.09-3.03,2.09-4.98
		c0-3.09-2.01-5.71-4.8-6.64l0.31-0.77c0.86-0.48,1.57-1.18,2.05-2.05c0.54,0.19,1.12,0.31,1.72,0.31c2.89,0,5.23-2.35,5.23-5.23
		c0-2.88-2.35-5.23-5.23-5.23c-1.97,0-3.67,1.11-4.56,2.72c-0.54-0.19-1.11-0.31-1.72-0.31c-2.88,0-5.23,2.35-5.23,5.23
		c0,2.47,1.73,4.54,4.04,5.08c-3.29,0.57-5.81,3.44-5.81,6.89c0,0.04,0,0.07,0.01,0.11h-9.71c0-0.04,0.01-0.07,0.01-0.11
		c0-3.86-3.14-7-7-7c-1.69,0-3.24,0.6-4.46,1.61l-3.49-8.07c1.46-1.28,2.39-3.16,2.39-5.25c0-2.22-1.04-4.19-2.66-5.48l1.46-2.83
		c0.68,0.33,1.44,0.53,2.25,0.53c2.88,0,5.23-2.35,5.23-5.23c0-2.89-2.35-5.23-5.23-5.23c-2.89,0-5.23,2.35-5.23,5.23
		c0,1.76,0.88,3.3,2.21,4.25l-1.43,2.77c-1.05-0.64-2.28-1.01-3.6-1.01c-3.59,0-6.56,2.73-6.95,6.22l-6.6,0.2
		c-0.29-3.59-3.3-6.42-6.97-6.42c-1.18,0-2.28,0.29-3.25,0.81l-1.44-2.61c1.3-0.95,2.15-2.48,2.15-4.21c0-2.89-2.35-5.23-5.23-5.23
		c-2.89,0-5.23,2.35-5.23,5.23c0,2.88,2.35,5.23,5.23,5.23c0.83,0,1.61-0.21,2.31-0.56l1.45,2.62c-1.8,1.27-2.98,3.36-2.98,5.72
		c0,2.03,0.87,3.85,2.26,5.13l-4.05,6.16c-1.08-0.73-2.37-1.16-3.77-1.16c-3.56,0-6.47,2.78-6.71,6.28h-4.06
		c2-0.73,3.44-2.64,3.44-4.9c0-2.88-2.35-5.23-5.23-5.23c-2.82,0-5.11,2.25-5.21,5.04c-1.12-0.87-2.51-1.4-4.03-1.45
		c-0.36-1.42-1.16-2.66-2.26-3.57c0.61-0.86,0.98-1.9,0.98-3.02c0-2.89-2.35-5.23-5.23-5.23c-0.48,0-0.93,0.08-1.37,0.2
		c-0.72-2.03-2.64-3.49-4.91-3.49c-2.88,0-5.23,2.35-5.23,5.23s2.35,5.23,5.23,5.23c0.48,0,0.93-0.08,1.37-0.2
		c0.16,0.46,0.38,0.89,0.66,1.29c-1.51,1.23-2.47,3.11-2.47,5.21c0,3.51,2.71,6.4,6.14,6.7c0.2,1.01,0.62,1.93,1.2,2.73
		c-0.2-0.02-0.41-0.03-0.61-0.03c-0.29,0-0.58,0.03-0.87,0.06c-1.23-1.66-3.19-2.75-5.41-2.75c-3.71,0-6.73,3.02-6.73,6.73
		c0,1,0.22,1.94,0.61,2.79l-0.75,0.4c-0.95-1.29-2.48-2.15-4.2-2.15c-0.19,0-0.37,0.04-0.56,0.06c-0.68-2.11-2.63-3.65-4.96-3.65
		c-2.88,0-5.23,2.35-5.23,5.23c0,1.93,1.07,3.61,2.63,4.51l-13,5.47l0.35,0.82l13.8-5.81c0.46,0.14,0.94,0.23,1.45,0.23
		c0.19,0,0.37-0.04,0.56-0.06c0.22,0.68,0.56,1.29,1.01,1.81l-17.83,6.06l0.29,0.85l18.27-6.21c0.89,0.7,2,1.14,3.22,1.14
		c2.88,0,5.23-2.35,5.23-5.23c0-0.84-0.22-1.62-0.57-2.32l0.71-0.38c1.19,1.89,3.29,3.15,5.69,3.15c0.29,0,0.58-0.03,0.87-0.06
		c1.23,1.66,3.19,2.75,5.41,2.75c3.71,0,6.73-3.02,6.73-6.73c0-1.42-0.45-2.74-1.2-3.83c0.25,0.03,0.5,0.04,0.75,0.04
		c3.71,0,6.74-2.9,6.97-6.55h8.35c0.23,3.5,3.15,6.28,6.71,6.28c0.83,0,1.62-0.16,2.35-0.43l5.72,7.64
		c-1.53,1.28-2.51,3.21-2.51,5.36c0,2.16,0.99,4.1,2.54,5.39l-1.79,1.36c-0.8-0.5-1.74-0.8-2.75-0.8c-2.89,0-5.23,2.35-5.23,5.23
		c0,2.5,1.76,4.58,4.1,5.1l-2.75,2.89c-1.23-2-3.44-3.34-5.95-3.34c-1.1,0-2.14,0.26-3.07,0.72l-10.8-11
		c0.16-0.5,0.26-1.01,0.26-1.56c0-2.89-2.35-5.23-5.23-5.23c-0.85,0-1.64,0.22-2.35,0.58c-0.71-0.36-1.5-0.58-2.35-0.58
		c-2.89,0-5.23,2.35-5.23,5.23s2.35,5.23,5.23,5.23c0.85,0,1.64-0.22,2.35-0.58c0.71,0.36,1.5,0.58,2.35,0.58
		c0.84,0,1.63-0.22,2.33-0.57l10.26,11.04c-0.48,0.94-0.75,2.01-0.75,3.14c0,0.83,0.15,1.62,0.42,2.36c-0.1,0.45-0.15,0.92-0.15,1.4
		c0,3.56,2.78,6.47,6.28,6.7v1.23c-3.5,0.23-6.28,3.15-6.28,6.7c0,1.5,0.5,2.88,1.33,4l-5.04,4.46c-1.23-1.59-3.15-2.63-5.32-2.63
		c-3.71,0-6.73,3.02-6.73,6.73c0,2.69,1.59,5.01,3.88,6.09c0.54,1.11,1.37,2.04,2.4,2.71v27.29c-0.38-0.07-0.77-0.11-1.17-0.11
		c-3.71,0-6.73,3.02-6.73,6.73c0,1.03,0.24,2.01,0.66,2.88l-7.94,2.42c-0.48-3.25-3.27-5.75-6.65-5.75c-3.71,0-6.73,3.02-6.73,6.73
		c0,0.58,0.08,1.14,0.22,1.68l-33.6,14.57c-1.03-2.58-3.55-4.41-6.5-4.41c-3.31,0-6.09,2.32-6.81,5.41l-32.45-2.36
		c-0.09-3.78-3.19-6.83-6.99-6.83c-3.86,0-7,3.14-7,7c0,0.85,0.16,1.66,0.44,2.41l-8.21,2.71c-1.22-1.22-2.9-1.97-4.75-1.97
		c-2.11,0-3.99,0.98-5.23,2.5c-0.34-0.05-0.69-0.09-1.05-0.09c-3.86,0-7,3.14-7,7s3.14,7,7,7c0.1,0,0.19-0.01,0.29-0.01l3.95,26.04
		c-1.84,0.81-3.27,2.39-3.87,4.33c-1.22,1.22-1.98,2.9-1.98,4.76c0,3.71,3.02,6.72,6.73,6.72c2.42,0,4.53-1.28,5.72-3.2l4.52,2.65
		c-0.05,0.33-0.08,0.67-0.08,1.02c0,2.04,0.88,3.86,2.27,5.14c0,0.06-0.01,0.11-0.01,0.17c0,2.85,1.78,5.28,4.29,6.26v0.5
		c-3.5,0.23-6.28,3.15-6.28,6.7c0,1.86,0.76,3.55,1.99,4.77c0.2,0.71,0.51,1.37,0.91,1.97l-7.85,12.94
		c-0.93-0.87-2.17-1.41-3.55-1.41c-0.87,0-1.67,0.23-2.39,0.61c-0.72-0.37-1.53-0.61-2.39-0.61c-2.89,0-5.23,2.35-5.23,5.23
		s2.35,5.23,5.23,5.23c0.87,0,1.67-0.23,2.39-0.61c0,0,0.01,0,0.01,0.01v1.59c-0.4-0.08-0.82-0.12-1.24-0.12
		c-2.31,0-4.35,1.17-5.56,2.95c-2.24,0.31-4.14,1.68-5.18,3.59c0.02-0.19,0.06-0.38,0.06-0.57c0-2.88-2.35-5.23-5.23-5.23
		c-2.09,0-3.89,1.24-4.72,3.02l-17.06-6.27c0-0.05,0.01-0.11,0.01-0.16c0-3.71-3.02-6.73-6.73-6.73c-3.71,0-6.73,3.02-6.73,6.73
		c0,1.26,0.36,2.44,0.96,3.45l-4.46,4.26c-1.27-1.32-3.06-2.15-5.03-2.15c-2.48,0-4.66,1.3-5.9,3.26l-8.76-2.38
		c0.55-0.98,0.87-2.1,0.87-3.3c0-3.71-3.02-6.73-6.73-6.73s-6.73,3.02-6.73,6.73c0,1.24,0.34,2.4,0.93,3.4l-6.3,2.67
		c-1.16-2.01-3.34-3.37-5.82-3.37c-3.45,0-6.29,2.61-6.68,5.95l-9.09-4.26c0.08-0.4,0.12-0.82,0.12-1.25c0-0.54-0.07-1.07-0.19-1.57
		c0.12-0.51,0.19-1.03,0.19-1.57c0-3.71-3.02-6.73-6.73-6.73s-6.73,3.02-6.73,6.73c0,0.54,0.07,1.07,0.19,1.57
		c-0.12,0.51-0.19,1.03-0.19,1.57c0,1.14,0.29,2.22,0.79,3.16l-2.82,2.42c-1.22-1.75-3.24-2.9-5.53-2.9c-3.71,0-6.73,3.02-6.73,6.73
		c0,2.87,1.81,5.32,4.35,6.29l-1.36,29.23c-3.8,0.07-6.87,3.18-6.87,6.99c0,0.29,0.02,0.57,0.06,0.85l-7.42,3.08
		c-0.96-2.55-3.41-4.37-6.29-4.37c-3.71,0-6.73,3.02-6.73,6.73s3.02,6.73,6.73,6.73c3.71,0,6.73-3.02,6.73-6.73
		c0-0.21-0.01-0.42-0.03-0.63l8.12-1.8c0.47,0.72,1.08,1.34,1.78,1.84l-22.71,11.24c-0.83-2.78-3.4-4.82-6.45-4.82
		c-3.71,0-6.73,3.02-6.73,6.73c0,3.71,3.02,6.73,6.73,6.73c3.71,0,6.73-3.02,6.73-6.73c0-0.34-0.03-0.68-0.08-1.01l23.42-11.59
		c0.45,0.23,0.93,0.41,1.43,0.54c1.23,1.6,3.16,2.64,5.33,2.64c2.92,0,5.41-1.87,6.33-4.48l11.19,6.24
		c-0.09,0.45-0.15,0.91-0.15,1.39c0,3.71,3.02,6.73,6.73,6.73c3.71,0,6.73-3.02,6.73-6.73c0-0.39-0.04-0.77-0.1-1.14l31.61-6.11
		c1.04,2.56,3.55,4.37,6.48,4.37c2.73,0,5.09-1.57,6.24-3.85l33.8,9.93c0.26,3.47,3.16,6.21,6.7,6.21c3.71,0,6.73-3.02,6.73-6.73
		s-3.02-6.73-6.73-6.73c-1.11,0-2.16,0.28-3.09,0.76l-1.2-1.3c0.11-0.49,0.18-0.99,0.18-1.51c0-3.71-3.02-6.73-6.73-6.73
		c-1.77,0-3.38,0.7-4.59,1.82l-16.45-22.58c0.86-1.13,1.37-2.53,1.37-4.05c0-3.71-3.02-6.73-6.73-6.73c-0.03,0-0.05,0-0.08,0
		l-1.37-7.1c2.99-0.8,5.2-3.52,5.2-6.75c0-1.56-0.52-3-1.39-4.16l4.4-4.2c1.23,1.54,3.13,2.53,5.25,2.53c2.71,0,5.05-1.62,6.11-3.94
		l12.89,6.31c-1.39,0.94-2.31,2.53-2.31,4.34c0,2.88,2.35,5.23,5.23,5.23c2.8,0,5.08-2.22,5.21-4.99c0.44,0.12,0.89,0.2,1.36,0.2
		c1.45,0,2.76-0.59,3.71-1.55l0.62,0.21c0,0.01,0,0.01,0,0.02c0,3.86,3.14,7,7,7c1.57,0,3.01-0.52,4.18-1.4
		c-0.01,0.1-0.01,0.19-0.01,0.29c-2.83,0.9-4.88,3.55-4.88,6.67c0,3.18,2.14,5.87,5.06,6.72v0.27c-1.18,0.48-2.14,1.37-2.71,2.5
		c-0.52-0.17-1.06-0.29-1.63-0.29c-2.88,0-5.23,2.35-5.23,5.23c0,2.89,2.35,5.23,5.23,5.23c2.04,0,3.79-1.18,4.65-2.89
		c0.52,0.17,1.06,0.29,1.63,0.29c2.89,0,5.23-2.35,5.23-5.23c0-2.37-1.6-4.36-3.76-4.99c2.25-0.48,4.1-2.05,4.98-4.13h4.07
		c0.46,2.42,2.58,4.25,5.13,4.25c2.88,0,5.23-2.35,5.23-5.23c0-2.89-2.35-5.23-5.23-5.23s-5.23,2.35-5.23,5.23
		c0,0.03,0.01,0.05,0.01,0.08h-3.68c0.16-0.58,0.25-1.19,0.25-1.82c0,0,0,0,0,0c2.52-0.97,4.32-3.41,4.32-6.27
		c0-0.06-0.01-0.11-0.01-0.17h9.44c0,0.06-0.01,0.11-0.01,0.17c0,3.86,3.14,7,7,7c1.48,0,2.84-0.46,3.97-1.24l3.41,4.25
		c-0.97,1.17-1.55,2.66-1.55,4.29c0,3.04,2.03,5.62,4.81,6.45l-2.23,4.17c-0.65-0.29-1.37-0.46-2.13-0.46
		c-2.88,0-5.23,2.35-5.23,5.23c0,2.88,2.35,5.23,5.23,5.23c2.89,0,5.23-2.35,5.23-5.23c0-1.81-0.92-3.4-2.31-4.34l2.36-4.4
		c0.33,0.05,0.66,0.08,1.01,0.08c3.56,0,6.47-2.78,6.7-6.28h8.84c0.23,3.65,3.27,6.55,6.97,6.55c1.81,0,3.46-0.7,4.71-1.84
		l1.48,2.02c-1.07,0.96-1.75,2.33-1.75,3.88c0,2.89,2.35,5.23,5.23,5.23c2.89,0,5.23-2.35,5.23-5.23s-2.35-5.23-5.23-5.23
		c-1.02,0-1.96,0.3-2.77,0.81l-1.56-2.13c1.03-1.22,1.66-2.79,1.66-4.51c0-3.01-1.91-5.57-4.58-6.56l5.26-7.34
		c0.26,0.03,0.53,0.05,0.8,0.05c3.32,0,6.08-2.42,6.62-5.59l12.53-0.58c1.24,1.97,3.43,3.29,5.93,3.29c0.93,0,1.82-0.19,2.64-0.52
		l0.66,2.56c-0.19-0.02-0.38-0.06-0.58-0.06c-2.88,0-5.23,2.35-5.23,5.23s2.35,5.23,5.23,5.23c0.58,0,1.13-0.12,1.66-0.29
		c0.88,0.66,1.95,1.06,3.13,1.06c2.88,0,5.23-2.35,5.23-5.23c0-2.88-2.35-5.23-5.23-5.23c-0.58,0-1.13,0.12-1.66,0.29
		c-0.47-0.35-1-0.62-1.58-0.8l-0.82-3.17c2.11-1.21,3.54-3.47,3.54-6.07c0-2.51-1.33-4.71-3.32-5.94l0.07-0.1
		c0.79,0.31,1.64,0.48,2.54,0.48c3.76,0,6.82-2.98,6.98-6.7l1.32-0.03c-0.25,0.61-0.39,1.27-0.39,1.96c0,2.89,2.35,5.23,5.23,5.23
		c1.92,0,3.59-1.06,4.5-2.61c2.38-0.49,4.17-2.6,4.17-5.12c0-2.88-2.35-5.23-5.23-5.23c-1.92,0-3.59,1.05-4.5,2.61
		c-1.38,0.28-2.56,1.12-3.31,2.26l-1.81,0.05c-0.3-3.58-3.31-6.4-6.97-6.4c-0.5,0-0.99,0.06-1.46,0.16l-0.64-1.4
		c1.38-0.94,2.29-2.53,2.29-4.32c0-2.75-2.14-4.99-4.84-5.19l-2.77-18.25c2.61-0.96,4.49-3.42,4.58-6.34l16.4-5.85
		c0.86,0.61,1.9,0.99,3.03,0.99c2.88,0,5.23-2.35,5.23-5.23s-2.35-5.23-5.23-5.23c-0.19,0-0.37,0.04-0.56,0.06
		c-0.68-2.11-2.63-3.65-4.96-3.65c-2.88,0-5.23,2.35-5.23,5.23c0,2.72,2.09,4.93,4.75,5.18l-14.32,4.86
		c-1.2-2.13-3.48-3.58-6.1-3.58c-2.17,0-4.11,0.99-5.39,2.54l-4.61-3.07c1.09-1.23,1.75-2.85,1.75-4.62c0-2.73-1.58-5.09-3.87-6.25
		v-4.23c3.65-0.23,6.55-3.27,6.55-6.97c0-2.49-1.31-4.67-3.27-5.91l14.27-22.7c0.83,0.37,1.75,0.57,2.71,0.57
		c3.71,0,6.73-3.02,6.73-6.73c0-0.2-0.01-0.41-0.03-0.61l24.99-10.81c1.28,1.38,3.1,2.26,5.13,2.26c2.49,0,4.67-1.31,5.92-3.27
		l11.53,4.02c-0.22,0.67-0.34,1.39-0.34,2.13c0,3.86,3.14,7,7,7c3.86,0,7-3.14,7-7c0-0.45-0.05-0.89-0.13-1.32l32.57-5.29
		c1.07,2.31,3.4,3.92,6.1,3.92c2.55,0,4.78-1.43,5.92-3.53l34.15,10.12c0.38,3.35,3.23,5.96,6.68,5.96c2.04,0,3.87-0.92,5.1-2.35
		l11,1.8c0,0.03-0.01,0.07-0.01,0.1c0,3.71,3.02,6.73,6.73,6.73c2.11,0,3.99-0.98,5.23-2.5c0.34,0.05,0.69,0.09,1.05,0.09
		c3.86,0,7-3.14,7-7s-3.14-7-7-7c-2.36,0-4.45,1.18-5.72,2.98c-0.18-0.02-0.37-0.03-0.56-0.03c-1.75,0-3.35,0.68-4.55,1.78
		l-13.53-6.09c-1.22-1.22-2.9-1.97-4.75-1.97c-0.83,0-1.61,0.16-2.34,0.43l-1.66-0.98c0.11-0.48,0.16-0.98,0.16-1.5
		c0-3.86-3.14-7-7-7c-1.83,0-3.5,0.72-4.75,1.87l-14.9-20.76c1.31-1.23,2.13-2.97,2.13-4.9c0-3.63-2.9-6.59-6.5-6.71
		c-0.66-0.44-1.4-0.76-2.2-0.95l-0.82-7.2c1.94-1.18,3.24-3.31,3.24-5.74c0-1.44-0.46-2.78-1.24-3.87l5.51-4.48
		c1.28,1.69,3.3,2.79,5.58,2.79c2.55,0,4.77-1.37,6-3.41l13.32,4.23c-1.79,0.83-3.05,2.64-3.05,4.74c0,2.88,2.35,5.23,5.23,5.23
		c2.64,0,4.81-1.98,5.16-4.53l4.38-0.14c0.29,3.6,3.3,6.44,6.97,6.44c0.38,0,0.74-0.04,1.1-0.1c-0.97,1.16-1.55,2.66-1.55,4.29
		c0,3.45,2.61,6.3,5.97,6.68c-1.75,0.26-3.22,1.38-3.95,2.92c-0.02,0-0.05-0.01-0.07-0.01c-2.88,0-5.23,2.35-5.23,5.23
		c0,2.88,2.35,5.23,5.23,5.23c2.08,0,3.87-1.23,4.71-3c0.03,0,0.05,0.01,0.07,0.01c2.88,0,5.23-2.35,5.23-5.23
		c0-2.63-1.95-4.78-4.47-5.16c2.08-0.24,3.88-1.43,4.94-3.13c0.19,0.02,0.38,0.03,0.58,0.03c1.53,0,2.94-0.52,4.07-1.38l1.78,0.23
		c0.09,2.81,2.39,5.07,5.21,5.07c2.89,0,5.23-2.35,5.23-5.23c0-0.39-0.05-0.77-0.13-1.13c0.08-0.37,0.13-0.74,0.13-1.13
		c0-2.88-2.35-5.23-5.23-5.23c-1.81,0-3.41,0.93-4.35,2.33c0-0.08,0.01-0.16,0.01-0.24c0-3.71-3.02-6.73-6.73-6.73
		c-2.4,0-4.51,1.27-5.7,3.18c-0.19-0.02-0.38-0.03-0.58-0.03c-0.08,0-0.16,0.01-0.24,0.01c2.03-1.16,3.41-3.34,3.41-5.84
		c0-2.26-1.12-4.25-2.83-5.48l1.38-1.23c0.86,0.63,1.92,1.01,3.07,1.01c2.89,0,5.23-2.35,5.23-5.23c0-1.87-0.99-3.5-2.46-4.42
		l10.13-11.52c0.9,0.42,1.89,0.66,2.95,0.66c3.86,0,7-3.14,7-7c0-1.94-0.8-3.7-2.08-4.97c0.01-0.12,0.02-0.23,0.02-0.35
		c0-3.56-2.78-6.47-6.28-6.7v-0.7c3.65-0.23,6.55-3.27,6.55-6.98c0-0.87-0.17-1.71-0.46-2.48c0.12-0.5,0.19-1.02,0.19-1.56
		c0-0.5-0.06-0.99-0.16-1.46l8.43-5c1.28,1.39,3.11,2.27,5.15,2.27c2.36,0,4.44-1.17,5.71-2.97l7.16,2.8
		c-0.78,1.1-1.25,2.44-1.25,3.89c0,3.56,2.78,6.47,6.28,6.7v2.04c-2.67,0.23-4.78,2.45-4.78,5.19c0,2.89,2.35,5.23,5.23,5.23
		c2.89,0,5.23-2.35,5.23-5.23c0-2.73-2.11-4.96-4.78-5.19v-2.04c3.5-0.23,6.28-3.15,6.28-6.7c0-1.37-0.41-2.64-1.12-3.7l9.8-3.57
		c1.21,2.11,3.47,3.53,6.07,3.53c2.26,0,4.27-1.08,5.55-2.76l4.94,2.7c-0.95,1.16-1.52,2.64-1.52,4.26c0,3.71,3.02,6.73,6.73,6.73
		c3.71,0,6.73-3.02,6.73-6.73C554.93,322.94,551.91,319.92,548.2,319.92z M532.51,301.54c0.25,0,0.5-0.02,0.75-0.04v6.99
		c-0.25-0.03-0.49-0.04-0.75-0.04c-0.46,0-0.91,0.05-1.34,0.13v-7.17C531.6,301.49,532.05,301.54,532.51,301.54z M416.37,436.34
		c0,3.86,3.14,7,7,7c3.02,0,5.59-1.93,6.57-4.62l0.93,0.55c-1.98,1.13-3.33,3.24-3.39,5.66l-33.74-10c0.28-0.74,0.44-1.54,0.44-2.38
		c0-2.38-1.24-4.46-3.11-5.66l4.56-15.22c0.21,0,0.43-0.01,0.64-0.04c0.87,0.41,1.83,0.64,2.85,0.64c1.46,0,2.8-0.47,3.9-1.26
		l14.96,20.85C416.98,433.08,416.37,434.64,416.37,436.34z M451.07,448.26h-10.94c0.5-0.94,0.79-2.01,0.79-3.15
		c0-1.19-0.31-2.3-0.85-3.27l11.75,5.29C451.54,447.48,451.29,447.86,451.07,448.26z M450.69,449.15c-0.14,0.4-0.24,0.81-0.31,1.24
		l-7.56-1.24H450.69z M395.51,397.69c-3.86,0-7,3.14-7,7c0,3.59,2.72,6.55,6.2,6.95l-4.44,14.82c-0.86-0.4-1.81-0.63-2.82-0.63
		c-3.71,0-6.73,3.02-6.73,6.73c0,0.68,0.1,1.34,0.29,1.95l-32.47,5.27c-0.92-2.79-3.55-4.81-6.64-4.81c-2.57,0-4.81,1.39-6.03,3.46
		l-11.09-6.44c-0.05-3.22-2.28-5.91-5.27-6.67c-0.37-0.48-0.79-0.9-1.27-1.26v-27.52c0.25,0.03,0.5,0.05,0.76,0.05
		c3.71,0,6.73-3.02,6.73-6.73c0-1.54-0.53-2.96-1.4-4.1l4.94-3.27c1.25,1.91,3.41,3.17,5.85,3.17c2.7,0,5.04-1.53,6.2-3.77
		l6.89,3.46c-0.09,0.44-0.14,0.89-0.14,1.35c0,3.56,2.78,6.47,6.28,6.7v2.32c-2.67,0.23-4.78,2.45-4.78,5.19
		c0,2.1,1.25,3.9,3.04,4.73c0.96,1.21,2.42,1.99,4.08,1.99c2.89,0,5.23-2.35,5.23-5.23c0-2.1-1.25-3.9-3.04-4.73
		c-0.87-1.09-2.16-1.82-3.63-1.95v-2.32c3.5-0.23,6.28-3.15,6.28-6.7c0-1-0.23-1.95-0.62-2.81l6.04-3.55
		c1.26,1.83,3.37,3.02,5.75,3.02c3.03,0,5.61-1.94,6.58-4.64l7.48,3.32c-0.42,0.88-0.66,1.86-0.66,2.89c0,3.71,3.02,6.73,6.73,6.73
		c0.94,0,1.83-0.19,2.64-0.54l0.75,6.59C395.99,397.7,395.75,397.69,395.51,397.69z M295.44,506.3l-15.65,5.59
		c-0.07-0.66-0.23-1.3-0.47-1.89l15.16-5.15C294.71,505.39,295.04,505.87,295.44,506.3z M265.83,512.6c0,3.86,3.14,7,7,7
		c0.53,0,1.05-0.06,1.54-0.18l2.73,18c-2.64,0.26-4.72,2.47-4.72,5.18c0,2.88,2.35,5.23,5.23,5.23c0.77,0,1.5-0.18,2.16-0.48
		l0.56,1.22c-2.71,0.96-4.66,3.55-4.66,6.59c0,1.6,0.54,3.06,1.44,4.24c-1.16-0.96-2.66-1.54-4.28-1.54c-3.71,0-6.73,3.02-6.73,6.73
		c0,2.6,1.49,4.86,3.65,5.98l-11.73,0.54c0-0.08,0.01-0.16,0.01-0.24c0-1.49-0.49-2.86-1.32-3.98l0.57-0.42
		c0.85,0.59,1.87,0.94,2.98,0.94c2.89,0,5.23-2.35,5.23-5.23c0-2.89-2.35-5.23-5.23-5.23c-2.88,0-5.23,2.35-5.23,5.23
		c0,1.45,0.59,2.75,1.54,3.7l-0.44,0.32c-1.22-1.27-2.94-2.06-4.84-2.06c-1.09,0-2.12,0.27-3.03,0.73l-3.54-5.39
		c0.94-1.19,1.5-2.69,1.5-4.31c0-2.6-1.43-4.88-3.55-6.08l0.4-3.64c0.73,0.39,1.55,0.63,2.43,0.63c2.88,0,5.23-2.35,5.23-5.23
		c0-2.88-2.35-5.23-5.23-5.23s-5.23,2.35-5.23,5.23c0,1.64,0.78,3.09,1.96,4.05l-0.42,3.78c-0.8-0.32-1.68-0.5-2.59-0.5
		c-3.86,0-7,3.14-7,7s3.14,7,7,7c1.9,0,3.62-0.76,4.88-1.99l3.39,5.16c-1.76,1.21-2.92,3.24-2.92,5.54c0,3.1,2.11,5.7,4.96,6.48
		l-5.2,7.26c-0.49-0.11-0.99-0.17-1.51-0.17c-3.71,0-6.74,2.9-6.97,6.55h-8.84c-0.23-3.5-3.15-6.28-6.7-6.28
		c-1.76,0-3.35,0.68-4.55,1.79l-3.34-4.16c1.42-1.28,2.33-3.13,2.33-5.19c0-2.76-1.61-5.14-3.93-6.28l3.29-6.92
		c1.05,0.68,2.3,1.08,3.65,1.08c2.98,0,5.52-1.95,6.39-4.65c3.81-0.06,6.88-3.17,6.88-6.99c0-3.86-3.14-7-7-7
		c-2.57,0-4.81,1.39-6.02,3.45l-4.62-3.52c0.03-0.24,0.07-0.47,0.07-0.71c0-2.88-2.35-5.23-5.23-5.23c-0.74,0-1.44,0.16-2.07,0.43
		l-2.09-1.6c1.29-1.27,2.09-3.03,2.09-4.98c0-2.31-1.13-4.36-2.87-5.64c-1-2.2-3.15-3.76-5.67-3.92v-0.22
		c0.5,0.12,1.01,0.19,1.54,0.19c3.71,0,6.73-3.02,6.73-6.73c0-1.57-0.54-3.01-1.44-4.15l7.71-4.65c1.21,1.82,3.27,3.02,5.61,3.02
		c3.71,0,6.73-3.02,6.73-6.72c0-0.27-0.02-0.54-0.05-0.81l5.95,3.81c-0.52,0.98-0.82,2.1-0.82,3.28c0,3.71,2.9,6.74,6.55,6.98v2.96
		c-2.67,0.23-4.79,2.45-4.79,5.19c0,2.89,2.35,5.23,5.23,5.23c2.88,0,5.23-2.35,5.23-5.23c0-2.73-2.11-4.95-4.78-5.19v-2.96
		c3.65-0.23,6.55-3.27,6.55-6.98c0-0.74-0.12-1.45-0.33-2.12l8.76-4.94c1.28,1.71,3.31,2.83,5.6,2.83c1.76,0,3.36-0.66,4.6-1.73
		l4.73,3.15C266.23,509.96,265.83,511.24,265.83,512.6z M278.55,561.07c-0.12-0.19-0.24-0.37-0.37-0.54
		c0.35,0.29,0.72,0.55,1.12,0.77l-0.04,0.06C279.03,561.25,278.8,561.15,278.55,561.07z M184.6,570.42c-0.04,0-0.08,0.01-0.12,0.01
		c0.37-0.83,0.57-1.74,0.57-2.71c0-2.96-1.93-5.48-4.59-6.37v-1.46c0.47,0.14,0.97,0.24,1.49,0.24c2.89,0,5.23-2.35,5.23-5.23
		c0-0.61-0.12-1.18-0.32-1.73l9.87-12.36c0.76,0.28,1.57,0.44,2.43,0.44c1.58,0,3.04-0.53,4.21-1.42l1.93,1.47
		c-1.39,0.94-2.3,2.53-2.3,4.33c0,2.89,2.35,5.23,5.23,5.23c0.64,0,1.25-0.13,1.82-0.35l3.3,2.72c-1.42,1.23-2.33,3.05-2.33,5.08
		c0,2.04,0.91,3.86,2.35,5.1l-3.39,7.12c-0.7-0.24-1.46-0.37-2.24-0.37c-3.49,0-6.39,2.58-6.91,5.93h-9.6
		C190.72,572.88,187.95,570.42,184.6,570.42z M217.27,551.61c-1.17,0.08-2.26,0.46-3.19,1.07l-3.15-2.6
		c1.04-0.63,1.83-1.62,2.23-2.79l4.43,3.37C217.46,550.97,217.36,551.28,217.27,551.61z M195.88,540.43l-9.44,11.83
		c-0.1-0.17-0.21-0.33-0.32-0.49l7.81-12.88C194.48,539.51,195.14,540.03,195.88,540.43z M200.69,457.74c3.61,0,6.59-2.75,6.96-6.27
		l32.32,2.35c-0.02,0.23-0.04,0.46-0.04,0.7c0,3.86,3.14,7,7,7c1.24,0,2.4-0.33,3.41-0.89l4.85,13.08
		c-2.53,0.97-4.34,3.41-4.34,6.28c0,2.28,1.14,4.29,2.88,5.51c0.63,1.63,1.85,2.97,3.4,3.75v4.23c-3.65,0.23-6.55,3.27-6.55,6.97
		c0,1.24,0.33,2.41,0.9,3.43l-8.61,4.85c-1.12-2.38-3.53-4.04-6.33-4.04c-2.35,0-4.43,1.17-5.7,2.95l-6.69-4.28
		c-0.01-0.02-0.02-0.04-0.02-0.06c0.39-0.87,0.61-1.83,0.61-2.85c0-3.71-2.9-6.74-6.55-6.97v-0.51c2.67-0.23,4.79-2.46,4.79-5.19
		c0-2.88-2.35-5.23-5.23-5.23c-2.88,0-5.23,2.35-5.23,5.23c0,2.73,2.11,4.96,4.78,5.19v0.51c-3.65,0.23-6.55,3.27-6.55,6.97
		c0,1.02,0.22,1.98,0.61,2.85c-0.17,0.53-0.28,1.08-0.32,1.66l-7.86,4.1c-1.22-2.07-3.46-3.46-6.03-3.46
		c-2.09,0-3.96,0.92-5.24,2.37l-3.76-2.05c0.5-0.96,0.78-2.05,0.78-3.2c0-3.86-3.14-7-7-7c-0.13,0-0.26,0.01-0.4,0.02l-3.2-26.38
		c0.9-0.51,1.67-1.22,2.26-2.06c0.18,0.02,0.37,0.03,0.55,0.03c3.71,0,6.73-3.02,6.73-6.73c0-1.51-0.5-2.9-1.35-4.02l7.94-2.62
		C195.66,456.21,198,457.74,200.69,457.74z M203.6,509.86l7.45-3.89c0.07,0.84,0.3,1.64,0.65,2.37l-7.56,4.56
		c0-0.1,0.01-0.2,0.01-0.3C204.16,511.63,203.96,510.7,203.6,509.86z M177.5,469.79l3.16,26.07c-0.23,0.04-0.45,0.1-0.67,0.16
		l-3.92-25.82C176.57,470.11,177.04,469.97,177.5,469.79z M187.7,506.7l3.66,2c-0.4,0.6-0.71,1.26-0.92,1.97l-4.18-2.44
		C186.82,507.79,187.3,507.27,187.7,506.7z M258.03,493.49v-3.86c0.57,0.19,1.17,0.31,1.79,0.35v3.86
		C259.26,493.65,258.66,493.53,258.03,493.49z M257.59,473.27c-0.53,0-1.04,0.07-1.54,0.18l-4.94-13.32
		c1.71-1.28,2.82-3.31,2.82-5.6c0-0.6-0.08-1.17-0.22-1.73l23.93-10.38c-2.02,1.16-3.39,3.34-3.39,5.83c0,2.42,1.29,4.55,3.22,5.73
		l-14.15,22.51C262.14,474.56,260.01,473.27,257.59,473.27z M280.98,441.52c-0.67,0-1.32,0.1-1.93,0.29l8.26-3.59
		c1,2.46,3.41,4.19,6.23,4.19c3.56,0,6.47-2.78,6.7-6.28h11.79l-24.5,10.59C286.84,443.75,284.17,441.52,280.98,441.52z
		 M317.32,339.37l10.37,10.56c-0.75,0.5-1.39,1.14-1.9,1.88l-9.95-10.71C316.46,340.64,316.96,340.05,317.32,339.37z M328.26,380
		c0.12,0.6,0.31,1.17,0.57,1.71l-5.09,3.37c-0.55-0.54-1.18-0.98-1.89-1.31c-0.07-0.14-0.14-0.28-0.22-0.41l5.11-4.53
		C327.19,379.29,327.7,379.69,328.26,380z M317.35,396.37v27.11c-0.35-0.19-0.71-0.34-1.09-0.46v-27.02
		C316.61,396.15,316.98,396.28,317.35,396.37z M310.86,435.24h-9.34l7.06-2.15C309.15,433.98,309.94,434.72,310.86,435.24z
		 M324.73,432.99l9.62,5.59l-10.21-3.56C324.44,434.39,324.64,433.71,324.73,432.99z M392.84,378.22c-2.35,0-4.42,1.22-5.63,3.05
		l-7.67-3.41c0.1-0.48,0.16-0.97,0.16-1.48c0-3.71-2.9-6.74-6.55-6.97v-3.69c2.67-0.23,4.78-2.45,4.78-5.19
		c0-2.88-2.35-5.23-5.23-5.23c-2.89,0-5.23,2.35-5.23,5.23c0,2.73,2.11,4.95,4.79,5.19v3.69c-3.65,0.23-6.55,3.27-6.55,6.97
		c0,1.16,0.29,2.24,0.78,3.2l-6.01,3.53c-1.19-1.88-3.29-3.13-5.68-3.13c-2.93,0-5.42,1.88-6.34,4.5l-6.78-3.41
		c0.28-0.75,0.43-1.56,0.43-2.4c0-2.82-1.68-5.25-4.09-6.35c-0.76-2.68-3.15-4.67-6.02-4.86v-1.23c3.5-0.23,6.28-3.15,6.28-6.7
		c0-0.48-0.05-0.95-0.15-1.4c0.27-0.74,0.42-1.53,0.42-2.36c0-1.01-0.22-1.96-0.6-2.83l3.42-3.59c0.01,0,0.01,0,0.02,0
		c2.88,0,5.23-2.35,5.23-5.23c0-0.09-0.02-0.17-0.03-0.26l2.8-2.94c1.23,1.65,3.19,2.73,5.4,2.73c3.71,0,6.73-3.02,6.73-6.73
		c0-1.98-0.87-3.76-2.23-4.99h4.72c-0.05,0.33-0.08,0.66-0.08,1c0,3.86,3.14,7,7,7c1.24,0,2.41-0.33,3.43-0.9l1.51,1.87
		c-1.28,0.95-2.11,2.46-2.11,4.18c0,2.89,2.35,5.23,5.23,5.23c2.89,0,5.23-2.35,5.23-5.23s-2.35-5.23-5.23-5.23
		c-0.85,0-1.64,0.22-2.35,0.58l-1.53-1.89c1.71-1.28,2.82-3.31,2.82-5.6c0-2.28-1.1-4.3-2.79-5.58l3.25-7.11
		c1.28,1.37,3.09,2.22,5.1,2.22c0.27,0,0.53-0.02,0.79-0.05c0.68,2.1,2.63,3.63,4.95,3.63c2.79,0,5.06-2.21,5.21-4.97l4.3-0.29
		c0.44,3.29,3.25,5.84,6.66,5.84c0.53,0,1.04-0.07,1.53-0.18c-0.12,0.5-0.19,1.02-0.19,1.55c0,3.03,2.02,5.6,4.78,6.44v0.89
		c-0.65-0.29-1.36-0.45-2.11-0.45c-2.89,0-5.23,2.35-5.23,5.23c0,1.9,1.03,3.55,2.54,4.46c-0.17,0.51-0.28,1.04-0.28,1.6
		c0,2.31,1.52,4.25,3.6,4.94v14.3c-0.21-0.02-0.42-0.03-0.63-0.03c-3.86,0-7,3.14-7,7c0,1.26,0.34,2.44,0.92,3.46l-5.57,4.53
		C396.53,379.06,394.78,378.22,392.84,378.22z M344.58,313.63c0-1.99-0.88-3.78-2.26-5.01l4.05-6.15c1.14,0.81,2.54,1.3,4.04,1.3
		c3.75,0,6.81-2.97,6.98-6.68l6.55-0.2c0.06,3.8,3.17,6.88,6.99,6.88c1.43,0,2.77-0.44,3.88-1.18l3.53,8.16
		c-1.15,1.25-1.85,2.9-1.85,4.73c0,1.49,0.47,2.86,1.26,4l-3.37,7.38c-1.02-0.58-2.2-0.92-3.45-0.92c-3.2,0-5.9,2.16-6.73,5.1h-6.15
		c-0.34-0.19-0.7-0.34-1.07-0.47c-0.97-2.69-3.55-4.63-6.57-4.63c-1.39,0-2.67,0.41-3.76,1.11l-5.61-7.49
		C343.14,318.41,344.58,316.18,344.58,313.63z M408.55,308.53l-0.03,0.08c-0.05-0.01-0.1-0.01-0.14-0.02
		C408.43,308.57,408.49,308.54,408.55,308.53z M465.93,325.38l-5.32-2.3c0.53-0.87,0.88-1.86,0.98-2.92l5.21,2.99
		C466.39,323.82,466.08,324.57,465.93,325.38z M447.99,321.66l-15.41,3.27c-0.03-0.02-0.05-0.04-0.08-0.07l15.13-5.42
		c0,0.01,0,0.01,0,0.02C447.63,320.23,447.76,320.97,447.99,321.66z M398.67,319.9l-4.27,0.28c-0.19-1.54-1.02-2.88-2.25-3.71h7.47
		C399.02,317.48,398.67,318.65,398.67,319.9z M348.69,339.7c0.07,0.15,0.14,0.29,0.21,0.44l-2.47,2.6c-0.27-0.98-0.8-1.84-1.53-2.5
		l1.81-1.38C347.32,339.23,347.98,339.52,348.69,339.7z M416.23,373.93l14.75,4.27c-0.23,0.48-0.38,1-0.45,1.55
		c-0.07,0.01-0.14,0.01-0.21,0.02l-14.49-4.61C416,374.77,416.13,374.36,416.23,373.93z M438.74,384.67
		c1.32-0.95,2.19-2.49,2.19-4.24c0-2.88-2.35-5.23-5.23-5.23c-1.75,0-3.3,0.87-4.25,2.2l-15.07-4.37c0.02-0.21,0.03-0.43,0.03-0.65
		c0-3.33-2.35-6.13-5.47-6.82v-14.23c0.24,0.03,0.49,0.07,0.74,0.07c2.88,0,5.23-2.35,5.23-5.23c0-1.9-1.03-3.55-2.54-4.47
		c0.17-0.51,0.28-1.04,0.28-1.6c0-1.77-0.88-3.32-2.23-4.27V335c0.98,0.52,2.09,0.82,3.27,0.82c3.71,0,6.74-2.9,6.98-6.55h1.27
		c0.23,2.67,2.45,4.78,5.19,4.78c2.89,0,5.23-2.35,5.23-5.23c0-1.18-0.4-2.25-1.06-3.13l15.05-3.19c1.13,2.34,3.52,3.96,6.29,3.96
		c2.21,0,4.18-1.03,5.46-2.63l5.74,2.48c-0.01,0.11-0.02,0.22-0.02,0.34c0,0.54,0.07,1.06,0.19,1.56c-0.29,0.77-0.46,1.6-0.46,2.48
		c0,3.71,2.9,6.74,6.55,6.98v0.7c-3.5,0.23-6.28,3.15-6.28,6.7c0,1.65,0.6,3.17,1.6,4.34c-0.04,0.32-0.08,0.64-0.08,0.98
		c0,0.85,0.16,1.67,0.44,2.42l-8.4,12.89c-0.83-1.79-2.64-3.05-4.74-3.05c-1.77,0-3.34,0.89-4.29,2.25c-0.07,0-0.13-0.02-0.2-0.02
		c-2.89,0-5.23,2.35-5.23,5.23c0,2.88,2.35,5.23,5.23,5.23c0.05,0,0.1-0.01,0.15-0.02v1.54c-0.05,0-0.1-0.01-0.15-0.01
		c-1.42,0-2.73,0.44-3.82,1.19c-3.23,0.51-5.73,3.23-5.89,6.57L438.74,384.67z M451.19,376.94v-1.72c0.86-0.18,1.63-0.58,2.28-1.13
		c0.24,0.83,0.66,1.58,1.25,2.19l-1.49,1.32C452.61,377.29,451.92,377.06,451.19,376.94z M459.84,367.63
		c-0.01-0.29-0.04-0.59-0.1-0.87l8.47-12.99c0.57,1.02,1.39,1.88,2.37,2.51l-10.14,11.53C460.24,367.74,460.04,367.68,459.84,367.63
		z M478.46,323.48l8.14-4.55c0.11,0.19,0.23,0.38,0.36,0.56l-8.12,4.82C478.73,324.02,478.61,323.74,478.46,323.48z M322.79,313.18
		c-0.01-0.11-0.01-0.23-0.03-0.34c0.24,0.13,0.48,0.25,0.74,0.34H322.79z M166.8,569.93l-0.08-0.03c0.04-0.06,0.07-0.13,0.11-0.19
		C166.82,569.78,166.81,569.86,166.8,569.93z M140.54,559.39l16.84,6.2c-0.1,0.36-0.16,0.74-0.18,1.13c-0.44-0.12-0.89-0.2-1.36-0.2
		c-0.69,0-1.34,0.14-1.94,0.38l-13.55-6.64C140.43,559.98,140.49,559.69,140.54,559.39z M141.56,622.98c0,3.71,3.02,6.73,6.73,6.73
		c2.83,0,5.25-1.76,6.24-4.23l0.72,0.79c-1.62,1.14-2.71,2.98-2.84,5.07l-33.44-9.82c0.26-0.73,0.4-1.5,0.4-2.32
		c0-2.34-1.15-4.4-2.92-5.67l5.59-15.36c1.8-0.04,3.42-0.78,4.61-1.97l16.42,22.54C142.13,619.89,141.56,621.37,141.56,622.98z
		 M115.16,591.44c0,3.44,2.6,6.29,5.94,6.68l-5.43,14.91c-0.98-0.53-2.11-0.83-3.3-0.83c-3.86,0-7,3.14-7,7
		c0,0.61,0.09,1.2,0.23,1.77l-31.53,6.1c-0.86-2.73-3.41-4.72-6.42-4.72c-2.91,0-5.39,1.86-6.33,4.46l-11.19-6.24
		c0.09-0.44,0.14-0.9,0.14-1.37c0-2.87-1.81-5.32-4.34-6.28c-0.5-0.82-1.16-1.54-1.94-2.1V580.7c3.5-0.23,6.28-3.15,6.28-6.7
		c0-1.1-0.27-2.13-0.74-3.04l2.84-2.44c1.22,1.69,3.21,2.8,5.45,2.8c2.96,0,5.48-1.93,6.38-4.6l9.29,4.35
		c0.01,0.26,0.03,0.52,0.07,0.77c-0.22,0.68-0.35,1.41-0.35,2.17c0,3.86,3.14,7,7,7c3.86,0,7-3.14,7-7c0-0.76-0.12-1.48-0.35-2.17
		c0.05-0.32,0.08-0.64,0.08-0.96c0-0.9-0.18-1.76-0.51-2.55l6.41-2.72c1.23,1.57,3.14,2.58,5.28,2.58c2.17,0,4.1-1.04,5.33-2.64
		l8.85,2.41c-0.41,0.89-0.65,1.88-0.65,2.93c0,3.86,3.14,7,7,7c0.31,0,0.62-0.03,0.92-0.07l1.35,7
		C117.67,585.27,115.16,588.06,115.16,591.44z M43.1,580.7v29.57c-0.73-0.37-1.54-0.62-2.39-0.72l1.35-29
		C42.4,580.63,42.75,580.68,43.1,580.7z M33.64,619.54l-7.69,1.71l7.21-3C33.29,618.7,33.45,619.13,33.64,619.54z M465.94,397.27
		c-0.03,0.13-0.04,0.27-0.06,0.4l-0.97-0.13c0.35-0.38,0.66-0.79,0.91-1.24C465.83,396.64,465.87,396.96,465.94,397.27z"/>
	<path d="M498.95,361.15c-2.94,0-5.43,1.89-6.35,4.52c-1.42,0.01-2.73,0.47-3.8,1.23l-2.95-3.13c1.33-0.95,2.21-2.5,2.21-4.25
		c0-2.89-2.35-5.23-5.23-5.23c-2.88,0-5.23,2.35-5.23,5.23s2.35,5.23,5.23,5.23c0.8,0,1.55-0.19,2.23-0.52l3.05,3.23
		c-1.32,1.23-2.16,2.98-2.16,4.92c0,3.71,3.02,6.73,6.73,6.73c2.94,0,5.43-1.89,6.35-4.52c3.68-0.04,6.66-3.04,6.66-6.72
		C505.68,364.17,502.66,361.15,498.95,361.15z"/>
	<path d="M734.29,436.14c-2.89,0-5.23,2.35-5.23,5.23c0,2.13,1.29,3.97,3.12,4.78c-0.08,0.36-0.13,0.74-0.13,1.13
		c0,2.88,2.35,5.23,5.23,5.23c2.88,0,5.23-2.35,5.23-5.23c0-2.13-1.29-3.97-3.12-4.78c0.08-0.36,0.13-0.74,0.13-1.12
		C739.52,438.49,737.17,436.14,734.29,436.14z"/>
	<path d="M82.94,582.25c-0.58,0-1.13,0.12-1.66,0.29c-0.88-0.66-1.95-1.06-3.13-1.06c-2.89,0-5.23,2.35-5.23,5.23
		c0,2.89,2.35,5.23,5.23,5.23c0.58,0,1.13-0.12,1.66-0.29c0.88,0.66,1.95,1.07,3.13,1.07c2.88,0,5.23-2.35,5.23-5.23
		C88.17,584.6,85.82,582.25,82.94,582.25z"/>
	<path d="M856.51,436.29c-4.15-0.54-7.9,2.41-8.44,6.46c-0.1,0.79-0.08,1.58,0.06,2.34l-0.64,0.03c-0.22-2.69-2.28-4.96-5.05-5.33
		c-2.43-0.32-4.69,0.91-5.83,2.88c-1.36,0.23-2.57,0.94-3.45,1.96l-19.44,1.49c-0.07-3.64-2.79-6.8-6.52-7.3
		c-4.16-0.55-7.9,2.41-8.44,6.46c-0.25,1.89,0.22,3.77,1.32,5.32l-3.87,5.28c-1.04-0.8-2.3-1.36-3.69-1.54
		c-0.34-0.04-0.68-0.07-1.02-0.07c-3.23,0-6.05,2.03-7.19,4.93l-8.15-1.08c0.19-0.52,0.34-1.06,0.41-1.63
		c0.54-4.11-2.35-7.89-6.46-8.44c-2.03-0.26-3.96,0.31-5.47,1.44l-17.29-14.08c0.7-0.84,1.22-1.84,1.51-2.92
		c0.66,1.01,1.67,1.75,2.85,2.11c0.9,0.71,2.01,1.16,3.25,1.16c2.89,0,5.23-2.35,5.23-5.23c0-2.35-1.57-4.33-3.72-4.98
		c-0.89-0.71-2.01-1.16-3.24-1.16c-2.11,0-3.93,1.27-4.75,3.07c-0.46-1.05-1.16-1.98-2.02-2.72c-1.18-2.23-3.43-3.81-6.06-4.05
		c-0.03-0.59-0.12-1.16-0.28-1.71c0.01-0.19,0.03-0.37,0.03-0.56c0-3.06-1.81-5.69-4.41-6.91l0.07-0.66
		c1.28-0.39,2.35-1.24,3.01-2.38c2.14-0.65,3.72-2.63,3.72-4.98c0-2.89-2.35-5.23-5.23-5.23c-1.93,0-3.61,1.07-4.51,2.63
		c-2.14,0.65-3.72,2.63-3.72,4.98c0,2.29,1.49,4.22,3.55,4.93c-0.04,0-0.07-0.01-0.11-0.01c-3.18,0-5.91,1.96-7.06,4.73h-8.76
		c-0.33-4.06-3.73-7.27-7.87-7.27c-1.36,0-2.64,0.35-3.76,0.95l-2.46-4c2.17-1.36,3.61-3.77,3.61-6.51c0-2.96-1.68-5.53-4.14-6.81
		l1.15-1.63c0.74,0.4,1.58,0.66,2.48,0.66c2.88,0,5.23-2.35,5.23-5.23c0-2.89-2.35-5.23-5.23-5.23c-2.89,0-5.23,2.35-5.23,5.23
		c0,1.62,0.76,3.05,1.92,4.01l-1.26,1.78c-0.82-0.3-1.69-0.47-2.61-0.47c-4.07,0-7.4,3.18-7.66,7.19h-6.83
		c-0.26-4.13-3.69-7.41-7.88-7.41c-1.42,0-2.75,0.38-3.9,1.04l-1.17-1.89c1.33-0.95,2.21-2.5,2.21-4.25c0-2.89-2.35-5.23-5.23-5.23
		s-5.23,2.35-5.23,5.23c0,2.88,2.35,5.23,5.23,5.23c0.77,0,1.5-0.18,2.16-0.48l1.2,1.95c-1.92,1.44-3.17,3.73-3.17,6.32
		c0,2.35,1.04,4.46,2.67,5.91l-2.54,4.91c-1.14-0.66-2.45-1.05-3.86-1.05c-4.07,0-7.4,3.18-7.66,7.19h-8.63
		c-0.05-0.79-0.21-1.55-0.48-2.26c0.95,1.3,2.48,2.15,4.21,2.15c2.88,0,5.23-2.35,5.23-5.23s-2.35-5.23-5.23-5.23
		c-2.89,0-5.23,2.35-5.23,5.23c0,0.55,0.11,1.07,0.27,1.56c-0.72-1.11-1.7-2.04-2.87-2.67c-0.7-2.54-2.68-4.56-5.21-5.3
		c0.24-0.6,0.38-1.26,0.38-1.95c0-2.76-2.16-5-4.87-5.19c-0.77-1.93-2.65-3.3-4.85-3.3c-2.89,0-5.23,2.35-5.23,5.23
		c0,2.76,2.16,5.01,4.87,5.2c0.37,0.94,1.01,1.73,1.82,2.31c-1.18,1.34-1.9,3.1-1.9,5.03c0,1.71,0.57,3.29,1.53,4.56
		c-0.35-0.05-0.71-0.09-1.08-0.09c-4.21,0-7.64,3.42-7.64,7.63c0,0.58,0.07,1.14,0.19,1.68c-0.73-0.39-1.56-0.63-2.44-0.63
		c-0.4,0-0.79,0.05-1.16,0.14c-0.5-2.37-2.6-4.15-5.12-4.15c-2.89,0-5.23,2.35-5.23,5.23c0,2.88,2.35,5.23,5.23,5.23
		c0.4,0,0.79-0.05,1.16-0.14c0.5,2.37,2.6,4.15,5.12,4.15c2.89,0,5.23-2.35,5.23-5.23c0-0.09-0.02-0.17-0.03-0.26
		c0.41,0.32,0.84,0.59,1.31,0.82c0.96,1.78,2.59,3.14,4.54,3.77c-0.99,0.95-1.62,2.29-1.62,3.77c0,2.89,2.35,5.23,5.23,5.23
		c1.11,0,2.14-0.36,2.99-0.95c0.85,0.6,1.88,0.95,2.99,0.95c2.88,0,5.23-2.35,5.23-5.23s-2.35-5.23-5.23-5.23
		c-1.11,0-2.14,0.36-2.99,0.95c-0.09-0.06-0.18-0.11-0.27-0.16c2.37-1.37,3.98-3.92,3.98-6.85c0-0.83-0.13-1.63-0.37-2.38
		c4.03-0.18,7.28-3.38,7.53-7.39h8.63c0.26,4.01,3.59,7.19,7.66,7.19c1.38,0,2.67-0.37,3.79-1.01l3.17,4.42
		c-1.96,1.44-3.23,3.75-3.23,6.36c0,2.13,0.85,4.06,2.22,5.48l-0.79,1.2c-0.59-0.24-1.24-0.37-1.91-0.37
		c-2.88,0-5.23,2.35-5.23,5.23c0,2.88,2.35,5.23,5.23,5.23s5.23-2.35,5.23-5.23c0-1.85-0.97-3.47-2.42-4.4l0.65-0.98
		c0.9,0.73,1.97,1.25,3.14,1.53c0.98,2.51,3.41,4.3,6.27,4.3c3.71,0,6.73-3.02,6.73-6.73c0-2.46-1.33-4.61-3.3-5.78h5.97
		c-0.01,0.17-0.03,0.34-0.03,0.52c0,4.36,3.55,7.9,7.91,7.9c0.79,0,1.56-0.12,2.28-0.34l1.07,1.65c-1.51,0.92-2.54,2.57-2.54,4.46
		c0,2.88,2.35,5.23,5.23,5.23c2.88,0,5.23-2.35,5.23-5.23s-2.35-5.23-5.23-5.23c-0.63,0-1.23,0.13-1.79,0.33l-1.02-1.58
		c2.75-1.24,4.67-4,4.67-7.2c0-2.54-1.2-4.79-3.07-6.24l2.32-4.27c1.12,0.61,2.41,0.96,3.77,0.96c0.69,0,1.36-0.1,2-0.27
		c0.23,2.67,2.46,4.78,5.19,4.78c2.71,0,4.93-2.08,5.18-4.73h3.92c1.07,2.89,3.78,4.98,6.99,5.15c0.19,2.03,1.17,3.83,2.64,5.09
		c1.28,2.42,3.83,4.08,6.75,4.08c2,0,3.81-0.78,5.17-2.03l17.22,14.02c-1.16,1.14-1.97,2.65-2.2,4.36c-0.08,0.6-0.08,1.19-0.02,1.77
		c-0.21,0.54-0.36,1.1-0.44,1.7c-0.08,0.61-0.08,1.22-0.01,1.81l-17.51,5.03l0.28,0.96l17.41-5c0.25,0.99,0.69,1.92,1.32,2.75
		c1.22,1.59,2.99,2.62,4.98,2.88c0.33,0.04,0.67,0.07,1,0.07c2.88,0,5.43-1.66,6.68-4.11l8.58,1.14c0.63,3.15,3.2,5.71,6.56,6.15
		c0.34,0.04,0.69,0.07,1.03,0.07c0.68,0,1.33-0.09,1.97-0.26l2.58,11.68c-1.73,1.17-2.97,3.04-3.27,5.23
		c-0.26,1.99,0.26,3.96,1.48,5.56c0.04,0.06,0.09,0.11,0.14,0.16l-4.26,7.72c-0.99-0.71-2.17-1.19-3.46-1.37
		c-0.34-0.04-0.68-0.07-1.02-0.07c-3.69,0-6.86,2.64-7.57,6.22l-2.19-0.29c-0.12-0.31-0.27-0.62-0.45-0.91
		c0.23-0.51,0.42-1.05,0.49-1.64c0.42-3.19-1.83-6.14-5.02-6.56c-3.24-0.42-6.15,1.88-6.56,5.03c-0.18,1.36,0.13,2.67,0.79,3.77
		c-0.24,0.52-0.4,1.08-0.48,1.66c-0.42,3.19,1.83,6.14,5.02,6.56c0.26,0.03,0.52,0.05,0.78,0.05c2.92,0,5.4-2.18,5.79-5.08
		c0.08-0.62,0.06-1.24-0.05-1.84l1.77,0.23c-0.13,1.88,0.41,3.71,1.57,5.22c1.26,1.64,3.08,2.69,5.12,2.96
		c0.34,0.04,0.69,0.07,1.03,0.07c0.67,0,1.32-0.09,1.95-0.26l3.91,9.86c-2.06,1.11-3.58,3.16-3.9,5.62
		c-0.31,2.33,0.49,4.55,1.99,6.14l-4.21,5.51c-1.13-1.03-2.53-1.7-4.08-1.91c-4.15-0.54-7.9,2.41-8.44,6.46c0,0.02,0,0.03,0,0.05
		l-29.99-1.41c-0.16-0.27-0.33-0.53-0.52-0.78c-0.23-0.31-0.49-0.58-0.76-0.84c0.08-0.31,0.15-0.62,0.2-0.95
		c0.26-1.99-0.26-3.96-1.48-5.56c-1.22-1.59-2.99-2.62-4.98-2.88c-4.15-0.54-7.9,2.41-8.44,6.46c-0.26,1.99,0.26,3.96,1.48,5.56
		c0.23,0.31,0.49,0.58,0.76,0.84c-0.08,0.31-0.15,0.62-0.2,0.95c-0.26,1.99,0.26,3.96,1.48,5.56c1.22,1.59,2.99,2.62,4.98,2.88
		c0.34,0.04,0.67,0.07,1,0.07c3.75,0,6.94-2.81,7.44-6.53c0.03-0.2,0.04-0.4,0.05-0.59l29.48,1.03c0.25,0.6,0.57,1.17,0.98,1.7
		c1.01,1.32,2.39,2.23,3.96,2.67c1.2,1.59,3.01,2.72,5.14,3c0.26,0.03,0.53,0.05,0.8,0.05l1.03,21.23l1-0.05l-1.03-21.21
		c0.43-0.04,0.84-0.12,1.25-0.23l3.45,20.15l0.99-0.17l-3.48-20.32c2.46-1.04,4.31-3.32,4.68-6.11c0.32-2.41-0.51-4.71-2.07-6.35
		l3.64-6.06c0.12,0.02,0.24,0.05,0.37,0.07c0.34,0.04,0.67,0.07,1,0.07c0.31,0,0.61-0.03,0.91-0.06c0.79,0.41,1.64,0.69,2.54,0.81
		c0.34,0.04,0.69,0.07,1.03,0.07c3.69,0,6.85-2.64,7.57-6.22l0.85,0.11c-0.26,3.91,2.56,7.42,6.5,7.94c0.34,0.04,0.67,0.07,1,0.07
		c1.52,0,2.94-0.46,4.13-1.26c0.32,0.09,0.65,0.16,0.99,0.21c0.1,0.01,0.2,0.01,0.3,0.02l16.51,10.9c-2.61,0.31-4.75,2.36-5.1,5.02
		c-0.21,1.55,0.2,3.08,1.15,4.32s2.32,2.04,3.87,2.24c0.26,0.03,0.52,0.05,0.78,0.05c2.91,0,5.4-2.18,5.79-5.08
		c0.4-3.02-1.6-5.82-4.53-6.47l-16.7-11.02c1.67-0.23,3.18-0.99,4.35-2.13l13.99,13.62l0.7-0.72l-14.01-13.64
		c0.84-1.06,1.41-2.35,1.6-3.77c0.56-4.23-2.42-8.12-6.65-8.68c-0.34-0.04-0.69-0.07-1.03-0.07c-1.73,0-3.35,0.59-4.65,1.58
		c-0.17-0.03-0.33-0.07-0.5-0.09c-3.97-0.51-7.58,2.18-8.35,5.97l-0.86-0.11c0.27-4.03-2.63-7.64-6.69-8.18
		c-0.34-0.04-0.69-0.07-1.03-0.07c-0.56,0-1.11,0.07-1.64,0.19c-0.58-0.23-1.19-0.41-1.83-0.49c-0.55-0.07-1.1-0.08-1.63-0.03
		l-4.33-10.15c1.71-1.21,2.93-3.1,3.22-5.3c0.34-2.57-0.64-5.02-2.4-6.67l4.19-7.59c1.13,1.06,2.56,1.74,4.12,1.95
		c0.33,0.04,0.67,0.07,1,0.07c3.58,0,6.65-2.56,7.35-6.03l2.23,0.3c-0.07,1.38,0.35,2.72,1.2,3.82c0.95,1.24,2.32,2.04,3.87,2.24
		c0.26,0.03,0.52,0.05,0.78,0.05c2.92,0,5.4-2.18,5.79-5.08c0.21-1.55-0.2-3.08-1.15-4.32c-0.95-1.24-2.32-2.04-3.87-2.24
		c-3.06-0.4-5.83,1.64-6.47,4.53l-2.23-0.3c0.26-3.91-2.56-7.41-6.5-7.94c-1.52-0.2-2.99,0.08-4.27,0.7l-2.53-11.47
		c2.49-1.03,4.37-3.32,4.74-6.13c0.33-2.47-0.56-4.83-2.2-6.48l3.77-5.14c1.18,1.27,2.75,2.08,4.5,2.31c0.34,0.04,0.67,0.07,1,0.07
		c3.75,0,6.95-2.81,7.44-6.53c0.01-0.04,0.01-0.09,0.01-0.13l18.76-1.44c-0.32,0.6-0.55,1.27-0.65,1.98
		c-0.21,1.55,0.2,3.08,1.15,4.32s2.32,2.04,3.87,2.24c0.26,0.03,0.52,0.05,0.78,0.05c2.13,0,4.03-1.17,5.05-2.93
		c2.48-0.42,4.48-2.42,4.82-4.99c0.01-0.08,0.01-0.16,0.02-0.24l0.91-0.04c0.26,0.79,0.65,1.55,1.17,2.23
		c1.22,1.59,2.99,2.62,4.98,2.88c0.34,0.04,0.67,0.07,1,0.07c3.75,0,6.95-2.81,7.44-6.53c0.26-1.99-0.26-3.96-1.48-5.56
		C860.27,437.57,858.5,436.55,856.51,436.29z M776.1,459.95c0.04-0.28,0.06-0.56,0.06-0.83l7.83,1.04
		c-0.07,0.27-0.12,0.54-0.16,0.82c-0.07,0.51-0.08,1.01-0.05,1.5l-8.03-1.07C775.92,460.95,776.04,460.46,776.1,459.95z
		 M721.17,422.83c-0.24-2.5-2.23-4.47-4.73-4.69c0.14-0.53,0.22-1.08,0.25-1.64h8.42c-0.16,0.61-0.25,1.25-0.25,1.9
		c0,0.19,0.01,0.37,0.03,0.56c-0.19,0.68-0.3,1.39-0.3,2.13c0,0.6,0.07,1.18,0.2,1.74H721.17z M697.86,425.7
		c-3.84,0-7.05,2.75-7.76,6.39h-6.22c-0.71-3.64-3.92-6.39-7.76-6.39c-1.39,0-2.7,0.36-3.84,1l-3.17-4.42
		c1.85-1.4,3.06-3.62,3.06-6.12c0-2.47-1.18-4.67-2.99-6.07l2.5-4.85c1.27,0.86,2.79,1.37,4.44,1.37c4.19,0,7.62-3.28,7.88-7.41
		h6.83c0.26,4.01,3.59,7.19,7.66,7.19c1.14,0,2.22-0.26,3.19-0.7l2.49,4.06c-1.99,1.44-3.3,3.77-3.3,6.41c0,2.63,1.3,4.97,3.29,6.4
		l-2.31,4.25C700.69,426.1,699.33,425.7,697.86,425.7z M734.87,411.02l-0.01,0.13c-0.11-0.04-0.22-0.06-0.33-0.1
		C734.65,411.05,734.76,411.04,734.87,411.02z M743.4,544.94l29.43,1.38c0,0.61,0.08,1.21,0.22,1.79l-29.15-1.02
		C743.84,546.35,743.68,545.63,743.4,544.94z M786.23,541.3l4.14-5.4c0.69,0.56,1.48,1,2.35,1.29l-3.38,5.63
		C788.45,542.1,787.4,541.57,786.23,541.3z M792.45,523.03l-3.87-9.76c0.23-0.09,0.45-0.2,0.67-0.31l4.18,9.79
		C793.09,522.82,792.77,522.91,792.45,523.03z"/>
	<path d="M850.25,483.45c-2.93-0.38-5.66,0.99-7.2,3.25l-4.5-2.8c0.19-0.46,0.34-0.93,0.41-1.44c0.21-1.55-0.2-3.08-1.15-4.32
		s-2.32-2.04-3.87-2.24c-3.23-0.43-6.14,1.88-6.56,5.02c-0.21,1.55,0.2,3.08,1.15,4.32s2.32,2.04,3.87,2.24
		c0.26,0.03,0.52,0.05,0.78,0.05c2.05,0,3.87-1.09,4.92-2.74l4.45,2.77c-0.36,0.72-0.62,1.51-0.73,2.35
		c-0.26,1.99,0.26,3.96,1.48,5.56c1.22,1.59,2.99,2.62,4.98,2.88c0.34,0.04,0.67,0.07,1,0.07c3.75,0,6.94-2.81,7.44-6.53
		c0.26-1.99-0.26-3.96-1.48-5.56S852.24,483.71,850.25,483.45z"/>
	<path d="M845.62,499.42c-4.15-0.54-7.9,2.41-8.44,6.46c-0.26,1.99,0.26,3.96,1.48,5.56c1.22,1.59,2.99,2.62,4.98,2.88
		c0.34,0.04,0.67,0.07,1,0.07c3.75,0,6.94-2.81,7.44-6.53c0.26-1.99-0.26-3.96-1.48-5.56S847.61,499.68,845.62,499.42z"/>
	<path d="M842.89,517.36l-4.72,3.4c-0.15-0.29-0.32-0.56-0.52-0.83c-0.95-1.24-2.32-2.04-3.87-2.24c-3.23-0.42-6.15,1.88-6.56,5.03
		c-0.42,3.19,1.83,6.14,5.02,6.56c0.26,0.03,0.52,0.05,0.78,0.05c2.91,0,5.4-2.18,5.78-5.08c0.12-0.87,0.03-1.74-0.23-2.55
		l4.91-3.54L842.89,517.36z"/>
</g>
</svg>
