<?xml version="1.0" encoding="UTF-8" standalone="no"?>
<!-- Generator: Adobe Illustrator 23.0.1, SVG Export Plug-In . SVG Version: 6.00 Build 0)  -->

<svg
   version="1.1"
   id="Layer_1"
   x="0px"
   y="0px"
   width="9601.4px"
   height="623.5px"
   viewBox="0 0 9601.4 623.5"
   style="enable-background:new 0 0 9601.4 623.5;"
   xml:space="preserve"
   sodipodi:docname="0_human_dna_mask-01-Simplified.svg"
   inkscape:version="1.1.1 (c3084ef, 2021-09-22)"
   xmlns:inkscape="http://www.inkscape.org/namespaces/inkscape"
   xmlns:sodipodi="http://sodipodi.sourceforge.net/DTD/sodipodi-0.dtd"
   xmlns="http://www.w3.org/2000/svg"
   xmlns:svg="http://www.w3.org/2000/svg"><defs
   id="defs842">
	
		

	
		

	
		
</defs><sodipodi:namedview
   id="namedview840"
   pagecolor="#505050"
   bordercolor="#eeeeee"
   borderopacity="1"
   inkscape:pageshadow="0"
   inkscape:pageopacity="0"
   inkscape:pagecheckerboard="0"
   showgrid="false"
   inkscape:zoom="0.50841635"
   inkscape:cx="235.04358"
   inkscape:cy="544.82905"
   inkscape:window-width="1312"
   inkscape:window-height="762"
   inkscape:window-x="0"
   inkscape:window-y="25"
   inkscape:window-maximized="0"
   inkscape:current-layer="Layer_1" />
<style
   type="text/css"
   id="style824">
	.st0{opacity:0.75;}
</style>
<path
   style="fill:#000000;stroke-width:0.477168"
   d="m -5.7398995,431.78558 -0.2537963,-1.335 0.6093357,-1.2048 0.6093352,-1.20481 0.7733446,-2.70531 0.7733442,-2.70532 v -1.14833 -1.14833 l 1.5975423,-1.55696 1.5975418,-1.55697 0.75635336,-2.48441 0.75635284,-2.4844 0.5188451,-4.49368 0.5188451,-4.49369 0.9340849,-2.78813 0.934085,-2.78813 v -0.97206 -0.97207 h 0.6242908 0.6242908 l 1.0229701,-1.3913 1.0229701,-1.39129 -0.6955546,-0.26839 -0.6955546,-0.26838 v -0.67842 -0.67842 l 2.2603025,-0.31484 2.2603026,-0.31484 1.427559,-0.54967 1.42756,-0.54967 0.303242,-0.44661 0.303242,-0.44661 1.600171,-0.14001 1.60017,-0.14001 3.330972,-0.54823 3.330972,-0.54824 4.282679,-0.37471 4.282678,-0.37472 0.832824,-0.36314 0.832824,-0.36315 1.784368,-2.31463 1.784369,-2.31463 2.104294,-3.87515 2.104289,-3.87515 2.888157,-3.16936 2.888158,-3.16935 2.621204,-1.70191 2.621199,-1.70192 0.397865,0.12084 0.39787,0.12083 0.249476,-0.95927 0.249476,-0.95928 0.920999,0.49564 0.921,0.49563 3.592581,0.20956 3.592587,0.20957 4.231029,1.42536 4.231034,1.42537 2.504368,1.28019 2.504372,1.28018 2.662037,-0.022 2.662032,-0.022 1.45327,-0.75567 1.453265,-0.75567 3.498348,-2.67421 3.498349,-2.67421 5.234385,-2.57794 5.234384,-2.57794 3.09305,-0.84681 3.09304,-0.84681 6.42402,-0.007 6.42402,-0.007 3.09304,0.84238 3.09305,0.84238 3.33097,1.59296 3.33097,1.59297 2.93498,2.23311 2.93498,2.23311 -1.68699,5.13272 -1.68699,5.13272 -0.43996,1.53817 -0.43997,1.53816 0.30486,1.63401 0.30485,1.63401 -1.03181,5.48737 -1.03181,5.48738 -6.74301,0.90344 -6.74302,0.90345 -5.94816,-0.0549 -5.94817,-0.0549 -4.28267,-0.79886 -4.28268,-0.79885 -4.044754,-1.22404 -4.044752,-1.22404 -5.084262,-2.39695 -5.084263,-2.39695 -4.194874,3.17593 -4.194874,3.17593 -4.758531,2.35708 -4.758532,2.3571 -3.093045,0.99794 -3.093046,0.99794 -3.98812,0.70178 -3.988121,0.70176 H 45.99577 41.573138 l -2.235177,3.70827 -2.235178,3.70826 -2.291718,2.90168 -2.291718,2.90167 -3.479286,3.32254 -3.479281,3.32254 -3.330972,2.21398 -3.330972,2.21398 -3.820959,1.92121 -3.820958,1.92121 -7.8374443,2.74347 -7.8374437,2.74346 -0.5340671,0.20287 -0.5340667,0.20286 -0.2537967,-1.335 z"
   id="path1453" />
<path
   style="fill:#000000;stroke-width:0.478774"
   d="m 528.23265,583.88616 v -5.06383 l -0.68657,-1.33449 -0.68657,-1.3345 0.0688,-3.61346 0.0688,-3.61346 -2.43377,-4.26821 -2.43376,-4.26821 -1.19313,-2.4 -1.19314,-2.4 -0.76958,-2.60712 -0.76959,-2.60712 V 547.10288 543.83 h -0.42646 -0.42645 l -0.31,-0.81199 -0.31,-0.81198 1.40612,-1.1061 1.40612,-1.10609 1.42127,-2.52192 1.42127,-2.52192 2.88746,-2.87397 2.88745,-2.87397 -0.50094,-0.31119 -0.50095,-0.31119 3.72535,-2.52673 3.72535,-2.52673 1.10015,-1.24811 1.10015,-1.24811 0.39484,-1.44 0.39485,-1.44 -0.0896,-2.4 -0.0896,-2.4 -0.58972,-5.28 -0.58972,-5.28 0.31117,-3.45162 0.31117,-3.45162 0.75165,-2.54838 0.75165,-2.54838 0.86433,-1.70582 0.86433,-1.70583 2.30646,-2.27817 2.30646,-2.27818 3.34286,-1.63025 3.34286,-1.63025 4.77551,-1.22137 4.77551,-1.22137 0.78356,-0.004 0.78356,-0.004 1.84297,-0.84636 1.84297,-0.84636 1.98377,-2.06305 1.98378,-2.06304 0.47501,-1.2906 0.47502,-1.29059 1.51384,-4.96923 1.51384,-4.96924 2.2433,-4.40141 2.24329,-4.40142 2.20985,-2.8866 2.20985,-2.88659 3.14024,-2.95261 3.14025,-2.9526 3.26551,-1.94996 3.26552,-1.94995 3.79295,-1.38852 3.79296,-1.38852 3.58163,-0.56651 3.58163,-0.5665 3.5755,0.15483 3.57551,0.15483 1.3261,4.54238 1.32611,4.54238 0.94839,1.96916 0.94839,1.96917 v 0.71819 0.71818 l 1.4476,1.07574 1.4476,1.07575 2.62441,5.59241 2.62441,5.5924 -1.32609,1.29218 -1.32609,1.29217 -5.40337,5.05251 -5.40337,5.0525 -3.90887,2.61328 -3.90888,2.61329 -4.50385,2.27264 -4.50385,2.27263 -5.0176,1.65207 -5.0176,1.65208 -5.48639,0.92833 -5.48639,0.92833 -0.38587,0.61111 -0.38586,0.61112 -0.007,0.60887 -0.007,0.60887 -1.69465,5.26896 -1.69464,5.26896 -2.1276,4.27187 -2.12759,4.27187 -2.22663,3.0503 -2.22664,3.0503 -2.286,2.65151 -2.286,2.65151 -2.88415,2.38849 -2.88415,2.38849 -0.003,0.49002 -0.003,0.49002 -2.0697,1.13642 -2.0697,1.13643 0.22224,8.51321 0.22225,8.51322 -0.82471,4.95742 -0.82471,4.95742 -1.40751,4.34292 -1.4075,4.34292 -2.32196,4.63906 -2.32197,4.63906 -5.32099,7.84094 -5.32099,7.84094 -0.45492,0.15999 -0.45493,0.16001 v -0.73168 -0.73167 l -0.45721,-0.28402 -0.45721,-0.28402 -0.74893,1.45569 -0.74893,1.4557 h -0.46529 -0.46529 v -5.06384 z"
   id="path1359" />
<path
   style="fill:#000000;stroke-width:0.47888"
   d="m 1615.4315,573.0697 -6.5002,-3.37156 -3.9424,-3.1691 -3.9424,-3.16909 -3.2672,-3.85465 -3.2672,-3.85464 -2.103,-3.74108 -2.1031,-3.74108 -7.5975,-0.18326 -7.5974,-0.18326 -4.2079,-1.27188 -4.2079,-1.27188 -2.4808,-1.24829 -2.4808,-1.24828 -2.6789,-1.61892 -2.6788,-1.61892 -3.8309,1.6679 -3.8309,1.6679 -4.2399,1.05946 -4.2399,1.05946 -6.9275,0.0257 -6.9276,0.0257 -9.2285,-2.33531 -9.2285,-2.33532 1.1066,-1.23516 1.1065,-1.23517 1.4333,-1.22903 1.4333,-1.22903 2.1499,-1.95259 2.1499,-1.95259 2.0488,-0.59267 2.0488,-0.59268 1.2642,-1.53523 1.2642,-1.53521 5.1673,-5.05691 5.1673,-5.05692 v -1.31284 -1.31284 l 1.8834,0.96534 1.8834,0.96535 0.7443,-0.28694 0.7443,-0.28695 v 0.51629 0.51629 l 0.7166,-0.27629 0.7167,-0.27629 v 0.72 0.72 l 0.6892,0.26574 0.6893,0.26573 1.5769,-0.45438 1.577,-0.45438 h 0.1548 0.1548 l -0.2524,0.84 -0.2523,0.84 2.9673,1.32589 2.9672,1.3259 0.3699,-0.006 0.3698,-0.006 2.4309,1.68 2.4309,1.68 h 0.9569 0.9568 l 4.986,-2.41621 4.9859,-2.41621 2.7609,-0.71062 2.7609,-0.71062 2.2024,-0.0963 2.2023,-0.0963 0.2108,-0.80966 0.2107,-0.80966 1.3173,0.0728 1.3172,0.0728 1.2452,1.68 1.2452,1.68 0.6927,0.43599 0.6928,0.43598 2.0669,1.91414 2.0669,1.91415 2.2185,3.40987 2.2185,3.40987 0.9967,1.12191 0.9967,1.12192 1.471,0.61927 1.4709,0.61927 6.6156,0.0723 6.6155,0.0723 3.3798,0.74987 3.3798,0.74987 3.9355,1.8875 3.9356,1.88749 3.1917,2.98919 3.1917,2.98919 1.8151,2.81001 1.8151,2.81 0.9572,2.57045 0.9572,2.57044 0.2968,1.18805 0.2968,1.18806 -2.9866,2.20894 -2.9867,2.20894 -1.589,1.40169 -1.589,1.40169 0.2429,0.63595 0.2429,0.63595 -1.6832,1.63908 -1.6832,1.63907 v 2.30584 2.30584 h -0.4553 -0.4552 l -1.2299,-0.56298 -1.2298,-0.56298 -0.5604,0.56298 -0.5603,0.56298 -0.5017,-0.0144 -0.5016,-0.0144 -6.5003,-3.37157 z"
   id="path1397" />

</svg>
