<?xml version="1.0" encoding="UTF-8" standalone="no"?>
<!-- Generator: Adobe Illustrator 18.0.0, SVG Export Plug-In . SVG Version: 6.00 Build 0)  -->

<svg
   version="1.1"
   id="AR_x5F_layer"
   x="0px"
   y="0px"
   width="9451.45px"
   height="623.52px"
   viewBox="0 0 9451.45 623.51"
   enable-background="new 0 0 9451.45 623.51"
   xml:space="preserve"
   sodipodi:docname="1 Water in space_mask-01.svg"
   inkscape:version="1.1.1 (c3084ef, 2021-09-22)"
   xmlns:inkscape="http://www.inkscape.org/namespaces/inkscape"
   xmlns:sodipodi="http://sodipodi.sourceforge.net/DTD/sodipodi-0.dtd"
   xmlns="http://www.w3.org/2000/svg"
   xmlns:svg="http://www.w3.org/2000/svg"><defs
   id="defs841">
	
	
	
	
	
	
</defs><sodipodi:namedview
   id="namedview839"
   pagecolor="#505050"
   bordercolor="#eeeeee"
   borderopacity="1"
   inkscape:pageshadow="0"
   inkscape:pageopacity="0"
   inkscape:pagecheckerboard="0"
   showgrid="false"
   inkscape:zoom="0.83111177"
   inkscape:cx="319.45162"
   inkscape:cy="280.34737"
   inkscape:window-width="1312"
   inkscape:window-height="762"
   inkscape:window-x="0"
   inkscape:window-y="25"
   inkscape:window-maximized="0"
   inkscape:current-layer="AR_x5F_layer" />
<path
   id="path824"
   style="opacity:0.75"
   d="m 296.96094,101.26953 c -5.32044,0.44769 -10.65383,0.78642 -15.96053,1.37041 -4.52907,0.70038 -9.09758,1.20193 -13.55327,2.30716 -3.75405,0.76818 -7.41896,1.91331 -11.0366,3.16441 -3.5158,1.31237 -7.03148,2.6419 -10.40061,4.30413 -2.84284,1.2454 -5.57685,2.71089 -8.27778,4.23479 -2.74887,1.43523 -5.36048,3.10703 -7.94857,4.81027 -3.19247,2.00514 -6.17079,4.32375 -9.1391,6.64109 -2.95019,2.52826 -5.91584,5.05332 -8.59555,7.87343 -2.58934,2.54781 -5.14971,5.12865 -7.48102,7.9181 -2.67843,3.00998 -5.3961,5.99481 -7.74062,9.27939 -2.9601,3.95795 -5.3776,8.29917 -7.38468,12.81023 -1.02397,1.9317 -2.20671,3.78322 -3.04861,5.81006 -2.03527,4.6064 -3.41672,9.46867 -4.55416,14.3652 -1.38921,0.68512 -2.77844,1.37021 -4.16796,2.05469 1.89444,4.1448 3.87491,8.24874 5.92968,12.31641 1.84917,-0.89231 3.68925,-1.85274 5.54297,-2.70508 2.23035,0.57066 4.41108,1.31494 6.61524,1.97656 0.80756,-2.19929 1.6121,-4.39969 2.41796,-6.59961 5.6281,-3.03555 11.28486,-6.12674 16.27643,-10.15765 4.0367,-3.25951 7.34701,-7.61216 8.64468,-12.69666 0.7464,-2.65907 0.74269,-5.44215 1.0496,-8.16913 8.89689,-2.0795 17.7785,-4.23322 26.69097,-6.23943 3.64907,-0.59047 7.36786,-1.25195 11.06466,-0.6719 4.95798,0.43103 9.90775,1.1004 14.89151,1.12887 4.0648,-0.12109 8.07161,-1.07323 11.85534,-2.53568 4.27291,-1.47078 8.5641,-2.84102 12.80981,-4.43806 2.92734,-1.30091 5.9687,-2.38724 8.67397,-4.13322 5.14128,-2.96068 10.14981,-6.06851 15.45861,-8.74449 2.54596,-1.20708 5.29996,-2.13096 8.15089,-2.05204 2.28374,0.005 4.60465,0.48947 6.80127,0.64128 3.49485,0.41132 6.99375,0.84748 10.51871,0.85231 1.61943,0.0773 3.19244,0.0346 4.81026,0.21107 5.51558,2.19861 11.22975,3.83672 16.8493,5.74072 2.2236,0.72863 4.44719,1.45726 6.67079,2.18589 3.58154,3.7007 6.78426,7.7552 9.6269,12.04729 1.77195,2.49229 3.22998,5.18673 4.80865,7.80232 1.39777,2.46146 2.57949,5.0366 3.86914,7.55468 0.72915,1.35855 0.64583,2.9517 0.99248,4.42383 0.53389,2.74262 1.40547,5.40604 2.06412,8.12037 2.28394,8.70242 4.58867,17.40185 6.89612,26.09533 0.37834,2.5291 0.25015,5.09981 0.44376,7.64563 0.10616,4.47887 -0.0935,8.96305 -0.59357,13.41542 -0.14967,2.01281 -0.55214,3.99316 -0.86151,5.98497 -0.17286,0.96426 -0.40408,2.18997 -0.65932,3.24342 -0.49239,1.90278 -0.86995,3.87298 -1.70413,5.65625 -2.37361,3.40685 -4.79197,6.78577 -7.47386,9.95945 -4.28636,5.25189 -8.49105,10.56509 -12.85115,15.75673 -2.28678,2.42576 -4.38506,4.93155 -6.91325,7.14952 -2.69464,2.55311 -5.59804,4.88107 -8.64725,6.99576 -1.68592,1.14235 -3.37523,2.28308 -5.17291,3.24473 -4.63366,-1.87307 -9.16174,-4.05899 -13.96582,-5.47281 -3.76697,-1.06317 -7.99587,-1.31943 -11.57422,0.51262 -3.40776,1.69304 -5.73476,5.06113 -6.70478,8.68102 -0.4296,1.31749 -0.73455,2.67239 -0.99151,4.03308 -4.38014,-0.30771 -8.66427,-1.47493 -12.69159,-3.2 -6.26712,-2.47164 -12.55671,-4.89009 -18.88096,-7.20895 -4.09358,-1.29959 -8.23686,-2.43869 -12.35327,-3.66335 -1.77691,-0.56798 -3.60365,-0.91421 -5.44684,-1.18133 -3.75472,-0.58814 -7.61799,-0.5394 -11.34843,0.19387 -7.72984,1.97394 -15.45273,3.97455 -23.19297,5.90741 -2.3425,-0.86174 -4.75627,-1.52584 -7.09766,-2.39648 -6.82823,-6.7271 -13.65551,-13.45517 -20.48437,-20.18164 -2.4741,2.44322 -4.94925,4.88539 -7.42383,7.32812 -0.44274,-0.25097 -0.84975,-1.36296 -1.32006,-0.94928 -1.14442,1.00871 -2.27713,2.03044 -3.41627,3.04499 -1.219,-0.40159 -2.43773,-0.80399 -3.65625,-1.20704 -1.50396,4.30858 -3.00836,8.617 -4.51172,12.92579 2.49583,0.81393 4.99091,1.63014 7.48633,2.44531 3.6303,4.35432 7.17342,8.78547 10.8885,13.06648 3.56289,3.81733 7.33028,7.46181 11.49334,10.62548 2.25183,1.81208 4.69735,3.36567 7.09008,4.98227 2.28971,1.46804 4.61482,2.66357 6.94679,4.09244 3.43315,2.05562 7.08348,3.70725 10.66832,5.47387 2.96815,1.32763 5.98458,2.55636 9.03863,3.67292 3.78586,1.21934 7.54943,2.53895 11.44259,3.38373 3.18386,0.85388 6.41953,1.48117 9.67003,2.01726 3.90347,0.7364 7.86659,1.05986 11.81475,1.45342 4.71971,0.23195 9.46258,0.51208 14.1798,0.0714 0.9158,0.008 1.90706,-0.38251 2.71884,0.20573 4.73866,2.21017 9.76069,4.39475 15.09521,4.26359 3.87659,-0.10514 7.72871,-1.87756 10.09197,-4.99536 1.23902,-1.57367 2.12021,-3.40528 2.72834,-5.30737 3.21802,-0.92366 6.3639,-2.08871 9.49918,-3.25429 4.25475,-1.74258 8.43178,-3.70488 12.31345,-6.18262 2.76564,-1.65753 5.35475,-3.5888 7.98941,-5.44356 2.94831,-2.21861 5.7553,-4.61942 8.65632,-6.89939 2.51822,-1.94243 4.82786,-4.1289 7.20819,-6.23232 1.11391,-0.53343 2.35394,-0.87282 3.48144,-1.42125 6.05384,-2.67833 11.38816,-7.11095 14.77564,-12.8343 1.28626,-2.09693 2.4244,-4.23875 3.66044,-6.30372 2.22241,-3.87306 4.58916,-7.83658 8.22375,-10.55964 3.68525,-2.83187 7.39289,-5.63522 11.05923,-8.49131 4.23142,-3.37974 8.34909,-7.3473 10.21498,-12.5612 1.65051,-4.6186 0.89924,-9.70602 -0.75796,-14.20837 -1.67956,-4.89026 -4.5855,-9.20756 -7.03916,-13.72154 -0.31118,-0.70168 -1.03943,-1.32267 -0.72775,-2.14483 0.41478,-2.9381 0.52309,-5.90522 0.58495,-8.81314 0.0308,-3.88155 -0.2664,-7.75975 -0.62367,-11.62093 -0.66366,-4.89362 -1.16678,-9.81454 -2.19406,-14.65074 -0.71509,-3.90175 -1.43674,-7.8064 -2.49676,-11.63232 -1.26754,-5.21914 -2.94207,-10.3375 -4.98508,-15.3041 -1.60817,-3.90693 -3.50056,-7.70567 -5.71811,-11.30309 -3.67113,-5.98627 -8.47628,-11.29051 -14.2044,-15.36851 -7.02395,-5.1249 -15.33709,-8.58254 -24.00527,-9.50691 -3.55449,-1.84305 -7.2848,-3.38634 -10.91504,-5.09538 -7.24929,-3.28848 -14.45036,-6.73812 -21.83257,-9.75161 -3.78102,-1.6415 -7.69859,-2.95961 -11.68278,-4.01134 -2.94065,-0.74336 -5.89726,-1.42504 -8.89363,-1.90564 -3.60913,-0.64884 -7.26602,-1.02241 -10.92277,-1.26819 -3.38352,-0.12515 -6.73388,-0.29665 -10.12802,-0.14579 -1.03024,0.0232 -2.06049,0.0464 -3.09073,0.0696 z m 23.93945,22.40235 c -3.42359,1.47257 -6.52235,3.569 -9.76076,5.39229 -4.53939,2.59764 -8.97978,5.44479 -13.89537,7.29769 -4.47997,1.8344 -9.13976,3.17704 -13.69766,4.79871 -3.01232,1.09814 -6.25846,1.88027 -9.47594,1.39108 -1.3341,-0.12854 -2.6682,-0.25709 -4.0023,-0.38563 1.43762,-1.81578 2.72756,-3.76257 4.29149,-5.46935 1.00685,-0.99435 2.52187,-0.77645 3.80213,-1.02863 4.99299,-0.5709 10.17734,-1.08575 14.64661,-3.58406 2.94238,-1.52496 5.40966,-3.75921 7.89309,-5.91529 1.02861,-0.39281 2.20121,-0.46468 3.2856,-0.73587 1.12756,-0.23073 2.1804,-0.42834 3.24267,-0.59397 2.914,-0.3718 5.83111,-0.75611 8.76055,-0.98847 1.63578,-0.0756 3.27357,-0.10553 4.90989,-0.1785 z m -62.28711,11.00976 c -0.98657,1.11878 -2.21757,2.4782 -3.87109,2.22852 -1.07748,-0.0511 -2.13658,-0.28458 -3.17774,-0.55469 2.38876,-0.7957 4.81734,-1.496 7.28907,-1.98242 -0.0801,0.10286 -0.16016,0.20573 -0.24024,0.30859 z M 423.32422,243.0332 c 0.5047,1.68283 0.90228,3.67323 -0.20397,5.21334 -0.68186,1.09776 -1.61559,2.00477 -2.53236,2.90385 1.08116,-2.66512 1.97621,-5.40651 2.71484,-8.18555 z M 275.9707,294.98047 c 2.99529,0.11534 5.91349,0.88059 8.78032,1.7016 10.86688,3.88329 21.73753,7.76453 32.58352,11.70637 3.54455,1.06548 7.17336,1.87135 10.86989,2.15507 0.78467,-0.0991 0.17079,0.97338 0.28724,1.43405 -0.05,0.62336 -0.0999,1.24673 -0.14987,1.8701 -3.46279,0.29741 -6.95568,0.21462 -10.40067,-0.2413 -7.84753,-0.85597 -15.70724,-1.61723 -23.54343,-2.56593 -3.83404,-0.64374 -7.72315,-1.04011 -11.46818,-2.12495 -2.85578,-0.634 -5.62754,-1.56371 -8.38183,-2.53693 -1.17043,-0.39778 -2.54348,-0.85821 -3.58089,-1.23207 -1.55848,-0.59712 -3.12037,-1.21587 -4.60742,-1.96875 -1.80813,-1.75888 -3.6769,-3.46017 -5.51172,-5.19335 3.69791,-0.93965 7.37469,-2.00257 11.12868,-2.69311 1.32114,-0.20268 2.65673,-0.32794 3.99436,-0.3108 z m 68.69532,14.93359 c -0.67821,0.24326 -1.59047,0.54491 -2.13467,0.72268 -0.78405,0.17084 0.009,-0.75997 0.55902,-0.51047 0.58833,-0.0808 1.1753,-0.17234 1.75924,-0.28057 l -0.0937,0.0349 z" />
</svg>
