<?xml version="1.0" encoding="UTF-8" standalone="no"?>
<!-- Generator: Adobe Illustrator 23.0.1, SVG Export Plug-In . SVG Version: 6.00 Build 0)  -->

<svg
   version="1.1"
   id="AR_x5F_layer"
   x="0px"
   y="0px"
   width="9451.5px"
   height="623.5px"
   viewBox="0 0 9451.5 623.5"
   style="enable-background:new 0 0 9451.5 623.5;"
   xml:space="preserve"
   sodipodi:docname="12 Vermont Acid rain Layer 4 mask-01.svg"
   inkscape:version="1.1.1 (c3084ef, 2021-09-22)"
   xmlns:inkscape="http://www.inkscape.org/namespaces/inkscape"
   xmlns:sodipodi="http://sodipodi.sourceforge.net/DTD/sodipodi-0.dtd"
   xmlns="http://www.w3.org/2000/svg"
   xmlns:svg="http://www.w3.org/2000/svg"><defs
   id="defs4353" /><sodipodi:namedview
   id="namedview4351"
   pagecolor="#505050"
   bordercolor="#eeeeee"
   borderopacity="1"
   inkscape:pageshadow="0"
   inkscape:pageopacity="0"
   inkscape:pagecheckerboard="0"
   showgrid="false"
   inkscape:zoom="0.61442895"
   inkscape:cx="2590.21"
   inkscape:cy="47.198297"
   inkscape:window-width="1312"
   inkscape:window-height="762"
   inkscape:window-x="0"
   inkscape:window-y="25"
   inkscape:window-maximized="0"
   inkscape:current-layer="AR_x5F_layer" />
<style
   type="text/css"
   id="style824">
	.st0{opacity:1;}
	.st1{fill:#231F20;}
</style>
<path
   style="fill:#000000"
   d="m 2266.4214,335.10367 c -4.41,-2.00293 -8.1086,-6.00921 -9.0648,-9.81889 -0.5112,-2.03677 -1.025,-2.29688 -3.4748,-1.75882 -3.7849,0.8313 -9.6785,-1.12355 -13.255,-4.39659 -5.5507,-5.07973 -7.105,-12.84785 -3.9842,-19.91149 1.2091,-2.73651 1.7685,-7.87249 2.1193,-19.45742 l 0.4765,-15.73953 -3.2123,1.11982 c -1.7668,0.61591 -5.6073,0.87266 -8.5344,0.57055 l -5.3219,-0.54927 1.5112,3.61698 c 1.9024,4.553 1.0832,10.42781 -2.1355,15.3147 -6.1334,9.3121 -20.5621,9.26183 -27.0459,-0.0942 -3.6864,-5.31951 -4.2652,-10.74855 -1.7251,-16.18078 1.9566,-4.18425 2.036,-6.75019 2.5507,-82.42906 0.5831,-85.73191 0.4268,-83.65866 6.5464,-86.82321 5.6249,-2.90876 13.1014,-1.2985 16.5,3.55371 l 1.493,2.13155 2.7026,-2.12584 c 4.0043,-3.14979 11.3184,-2.93442 15.3427,0.45179 l 3.0633,2.57763 3.2634,-2.32763 c 6.6311,-4.72963 16.4575,-2.16695 18.1921,4.7444 l 0.598,2.38236 3.2366,-1.97346 c 4.1313,-2.51888 9.3473,-2.51575 13.4867,0.008 l 3.25,1.98156 0.035,-2.2353 c 0.092,-5.7833 5.9756,-10.71833 12.7915,-10.72871 5.7996,-0.009 9.716,3.76254 10.6964,10.30018 l 0.6946,4.63191 2.8414,-1.46934 c 1.5628,-0.80807 4.7087,-1.46927 6.991,-1.46927 3.3859,0 4.7755,0.62579 7.5497,3.4 1.87,1.87 3.4,4.11339 3.4,4.9853 0,1.36579 0.45,1.31092 3.25,-0.39626 4.5181,-2.75477 9.6568,-2.54147 14.2751,0.59253 3.3341,2.26261 3.9135,2.38616 4.6892,0.99997 1.304,-2.33002 6.2166,-4.58207 9.986,-4.5778 4.0087,0.005 9.3814,3.10301 10.2778,5.92726 0.8223,2.59095 2.0228,2.60673 5.249,0.069 3.4306,-2.69849 8.2274,-2.52009 12.6334,0.46986 2.3442,1.59088 3.6395,2.01335 3.6395,1.18709 0,-2.49816 5.7048,-6.80766 9.7257,-7.34698 7.0181,-0.94133 13.2743,4.30223 13.2743,11.12567 v 2.53496 l 3.25,-1.98156 c 1.7875,-1.08986 4.825,-1.98156 6.75,-1.98156 3.6918,0 10,3.19621 10,5.06672 0,0.60697 1.3845,-0.0614 3.0767,-1.48531 4.09,-3.4415 11.2049,-3.89572 15.6733,-1.00059 l 2.25,1.45781 0.056,-17.77306 c 0.064,-20.21449 0.8229,-23.73103 5.7368,-26.59096 3.935,-2.290228 10.4422,-2.413083 13.7294,-0.25921 2.3355,1.53029 2.3662,1.50137 3.0182,-2.846998 C 2480.7791,65.650649 2502,67.38299 2502,82.490934 c 0,2.498906 0.055,2.518926 2.512,0.909276 3.5061,-2.297305 12.8263,-1.506313 15.6619,1.3292 l 2.055,2.05501 3.5251,-2.39221 c 4.7036,-3.191997 10.7487,-3.509615 14.996,-0.78792 2.242,1.43668 2.25,1.4208 2.25,-4.456237 0,-3.243929 0.28,-7.297911 0.6222,-9.008848 0.8316,-4.158402 4.7928,-7.938834 9.1809,-8.762047 3.2342,-0.606739 4.604,-0.330486 10.4469,2.10682 1.4635,0.610482 1.7511,0.180385 1.7568,-2.626989 0.01,-2.686875 0.679,-3.814588 3.3738,-5.649369 4.6323,-3.153988 9.6735,-3.825973 13.6859,-1.824324 4.0881,2.039384 3.9335,2.072292 3.9335,-0.837489 0,-1.744228 1.3434,-3.479948 4.6438,-6 5.4014,-4.124243 9.0639,-4.507627 13.9882,-1.464248 l 3.368,2.08156 V 30.654363 14.145608 l 3.7238,-3.069478 c 5.0525,-4.16466 9.2182,-4.829502 14.151,-2.258434 l 3.9038,2.034814 0.3845,-10.38538 c 0.3648,-9.8558261 0.5323,-10.539801 3.2858,-13.413803 4.8199,-5.030878 12.5458,-5.031683 17.0977,-0.0018 1.6455,1.818263 1.7782,1.802496 4.9058,-0.583077 4.7193,-3.599543 8.4944,-4.046436 13.3323,-1.578278 2.2438,1.144677 4.3628,2.539458 4.7089,3.099514 0.3757,0.607852 2.0847,-0.09175 4.24,-1.73571 5.0707,-3.867553 11.0168,-3.825374 15.1216,0.107268 l 2.9865,2.861261 3.4127,-2.602964 c 5.9597,-4.545689 9.7529,-4.467903 17.3661,0.356121 1.861,1.179217 2.4024,1.080896 4.4252,-0.80359 2.9317,-2.731302 7.6329,-3.623104 11.4647,-2.174814 3.5522,1.342583 8.4896,5.828298 8.4896,7.7128662 0,1.0254462 0.5955,0.9458008 2.5619,-0.3426663 3.5544,-2.3289299 10.6908,-2.3528849 13.2421,-0.044451 1.9497,1.7640361 2.035,1.7640361 2.636,0 0.9114,-2.6748829 7.3124,-7.1859439 11.2427,-7.9232789 2.745,-0.514963 4.3651,-0.04733 8.2909,2.393061 3.4449,2.141498 5.0208,2.664052 5.361,1.777661 0.265,-0.690489 2.1418,-2.043191 4.1708,-3.006004 4.5093,-2.139828 9.2685,-1.467032 13.2357,1.871107 l 2.7999,2.355992 2.7334,-2.351209 c 4.6235,-3.976927 9.0305,-4.171405 14.6975,-0.648591 4.7868,2.975653 4.9099,2.996327 6.6156,1.111507 0.956,-1.056298 3.4415,-2.430904 5.5235,-3.054679 4.2707,-1.279532 8.4477,-0.09872 11.472,3.243063 1.6931,1.870903 1.7955,1.857048 5.1427,-0.695977 5.0198,-3.828792 9.9002,-4.169246 14.526,-1.013309 l 3.7516,2.559601 4.6473,-2.470985 c 5.8664,-3.119203 7.4451,-3.094691 13.3183,0.20679 l 4.7636,2.677775 2.7352,-2.151494 c 5.2985,-4.167761 10.8339,-3.857958 16.0741,0.899621 1.9959,1.81208 2.1212,1.79726 5.5737,-0.65922 5.7847,-4.115855 9.5494,-4.185582 15.386,-0.28497 L 2936.5,-10.5 2937,122 c 0.4767,126.31516 0.5865,132.68504 2.3529,136.46424 2.3178,4.95869 1.7391,10.28732 -1.6781,15.45098 -3.5221,5.32229 -8.516,7.46764 -15.8375,6.80374 L 2916,280.18966 v 4.28304 c 0,2.35568 0.675,5.89855 1.5,7.87306 3.353,8.02475 0.4091,16.8651 -7.0771,21.2523 -9.7229,5.69797 -21.1415,0.74857 -24.5545,-10.64313 C 2884.7225,299.1304 2884.539,299 2880.3019,299 c -5.2794,0 -11.3793,-2.90761 -13.1873,-6.28596 -1.2299,-2.29791 -1.7423,-2.43701 -7.4675,-2.02702 -4.9848,0.35696 -6.7633,0.0517 -9.4062,-1.61428 -7.1618,-4.51456 -9.6993,-13.29857 -6.3191,-21.87427 1.4111,-3.58015 2.0782,-7.54181 2.0782,-12.34248 0,-6.3476 -0.1788,-6.99461 -1.75,-6.33244 -0.9625,0.40564 -4.0723,0.95617 -6.9105,1.2234 -4.9324,0.46439 -5.1884,0.63422 -5.7898,3.84003 -0.7402,3.94534 -4.6293,8.88569 -8.6192,10.94894 -1.5571,0.80524 -4.8575,1.46408 -7.334,1.46408 -4.351,0 -4.5677,0.14653 -6.4236,4.34215 -2.6371,5.96139 -7.1326,8.95498 -14.2176,9.46746 -3.1827,0.23022 -6.6153,-0.0925 -7.8154,-0.73472 -2.1159,-1.13239 -2.1399,-1.03986 -2.1399,8.23629 0,6.96229 0.4504,10.25925 1.7467,12.78518 2.568,5.00399 2.3022,12.63411 -0.5809,16.67628 -4.819,6.75631 -16.0988,9.39497 -22.7706,5.32664 -7.0186,-4.27986 -9.9859,-15.40085 -6.0833,-22.79962 1.3815,-2.61909 1.6881,-6.12168 1.6881,-19.28518 0,-15.59274 -0.059,-16.05318 -1.9343,-15.04966 -1.0638,0.56935 -4.0184,1.03518 -6.5657,1.03518 -2.5473,0 -5.5019,-0.46583 -6.5657,-1.03518 -1.8366,-0.98292 -1.9343,-0.63566 -1.9343,6.87787 0,5.0028 0.5905,9.32629 1.6056,11.75567 3.8246,9.15375 -0.3067,19.59447 -9.0792,22.9447 -14.4995,5.53744 -27.1069,-8.85169 -20.5044,-23.40226 1.3971,-3.07907 1.978,-6.52234 1.978,-11.72525 v -7.36605 l -2.5651,0.97525 c -3.8296,1.45599 -11.1419,1.17812 -14.4846,-0.55043 -2.6446,-1.36757 -3.256,-1.36757 -5.9006,0 -3.1113,1.60888 -10.1801,1.92227 -13.5497,0.6007 -1.4402,-0.56484 -2.9433,-0.0664 -5.37,1.78054 -4.9524,3.76926 -14.2795,4.23705 -19.1062,0.95825 -5.5654,-3.78061 -8.2313,-8.50652 -7.849,-13.91411 l 0.3252,-4.60031 -4.0843,0.46168 c -2.6108,0.29512 -5.2085,-0.11966 -7.2003,-1.1497 -1.7139,-0.88625 -3.3634,-1.61137 -3.6657,-1.61137 -1.4503,0 -0.2805,6.59779 1.9503,11 1.375,2.71343 2.4901,6.41097 2.478,8.21676 -0.032,4.7848 -3.2594,11.13533 -7.0198,13.81303 -3.7847,2.69493 -12.497,3.82259 -15.8148,2.04696 -1.9632,-1.05068 -2.1434,-0.90221 -2.1434,1.76594 0,1.60219 0.7225,4.64224 1.6056,6.75567 2.4571,5.88081 1.4896,13.63401 -2.1897,17.54693 -5.3555,5.69549 -14.2122,7.56274 -20.4853,4.31883 C 2587.4847,310.68216 2582,303.5494 2582,300.84996 2582,299.32214 2581.2108,299 2577.4679,299 c -2.4927,0 -6.1296,-0.66746 -8.0821,-1.48325 -3.1376,-1.31101 -3.883,-1.31101 -6.4182,0 -1.5775,0.81579 -5.2991,1.48325 -8.2701,1.48325 -6.4138,0 -11.012,-2.65162 -13.8459,-7.9844 -2.2172,-4.17238 -2.3986,-12.43477 -0.3516,-16.0156 0.786,-1.375 1.4451,-3.52833 1.4646,-4.78518 0.031,-2.02633 -0.2065,-2.15571 -2.1004,-1.14215 -1.2318,0.65925 -4.8293,0.97152 -8.5,0.73779 L 2525,269.40521 v 17.73838 c 0,10.41656 0.4016,17.98655 0.9728,18.33962 1.9999,1.23601 3.149,8.35074 2.0237,12.52992 -2.3044,8.55772 -9.8938,13.70941 -18.7293,12.71352 -5.8468,-0.65902 -9.1876,-3.25178 -12.2672,-9.5205 -2.3683,-4.82076 -2.7107,-5.09309 -6.5,-5.16946 -9.9226,-0.19998 -16.9515,-7.06207 -16.9024,-16.50145 0.014,-2.76938 0.7309,-6.38524 1.5922,-8.03524 1.1865,-2.27285 1.7431,-7.94341 2.2963,-23.3949 l 0.7301,-20.3949 -2.3581,0.81572 c -3.1158,1.07783 -11.8999,1.1326 -14.1081,0.088 -1.6179,-0.76536 -1.7473,0.1052 -1.7146,11.52912 0.025,8.82385 0.4441,13.0718 1.4646,14.85699 2.3075,4.03649 1.9073,13.10756 -0.75,17.00051 -6.1579,9.02141 -20.5061,9.43005 -27.1099,0.77208 -1.4429,-1.89179 -2.9085,-4.86453 -3.2568,-6.6061 -0.5963,-2.98156 -0.8912,-3.16652 -5.0481,-3.16652 -4.2154,0 -11.4944,-2.8306 -12.828,-4.98841 -0.424,-0.68594 -1.2684,-0.6746 -2.5939,0.0348 -1.081,0.57851 -4.5412,0.91723 -7.6893,0.75271 -5.208,-0.27216 -5.9376,-0.048 -8.0931,2.48679 -7.7434,9.1057 -21.6145,7.17231 -27.1622,-3.78592 -2.4377,-4.81531 -2.672,-4.98833 -6.3417,-4.68416 -2.0958,0.17371 -5.1531,-0.1522 -6.7941,-0.72425 l -2.9836,-1.04008 0.4143,7.72425 c 0.2278,4.24833 1.1967,9.74455 2.1529,12.21381 3.3301,8.59875 -0.016,16.72502 -8.7151,21.16277 -7.25,3.69868 -17.4677,0.0747 -21.0451,-7.46423 -2.3189,-4.88665 -2.1317,-12.39615 0.4131,-16.57031 1.8878,-3.09652 1.9086,-3.31857 0.2463,-2.62892 -4.2336,1.75639 -11.0481,1.73195 -14.8098,-0.0531 C 2304.3867,283.00657 2300,276.02374 2300,270.30422 V 266 h -5.0657 c -2.7862,0 -5.9362,-0.46583 -7,-1.03518 -1.8841,-1.00834 -1.9343,-0.48497 -1.9343,20.17905 0,19.05217 0.2219,21.90308 2.1769,27.97318 1.8922,5.87534 2.0195,7.28409 0.9733,10.77588 -2.2675,7.56828 -9.0232,13.13914 -15.8681,13.08511 -1.5301,-0.0121 -4.6175,-0.85555 -6.8607,-1.87437 z"
   id="path4534" />
</svg>
