<?xml version="1.0" encoding="UTF-8" standalone="no"?>
<!-- Generator: Adobe Illustrator 18.0.0, SVG Export Plug-In . SVG Version: 6.00 Build 0)  -->

<svg
   version="1.1"
   id="Layer_5"
   x="0px"
   y="0px"
   width="9451.45px"
   height="623.52px"
   viewBox="0 0 9451.45 623.52"
   enable-background="new 0 0 9451.45 623.52"
   xml:space="preserve"
   sodipodi:docname="14 CO2 conc in ice core sample_legend_mask-01.svg"
   inkscape:version="1.1.1 (c3084ef, 2021-09-22)"
   xmlns:inkscape="http://www.inkscape.org/namespaces/inkscape"
   xmlns:sodipodi="http://sodipodi.sourceforge.net/DTD/sodipodi-0.dtd"
   xmlns="http://www.w3.org/2000/svg"
   xmlns:svg="http://www.w3.org/2000/svg"><defs
   id="defs1992" /><sodipodi:namedview
   id="namedview1990"
   pagecolor="#505050"
   bordercolor="#eeeeee"
   borderopacity="1"
   inkscape:pageshadow="0"
   inkscape:pageopacity="0"
   inkscape:pagecheckerboard="0"
   showgrid="false"
   inkscape:zoom="0.50675974"
   inkscape:cx="3051.742"
   inkscape:cy="438.07742"
   inkscape:window-width="1440"
   inkscape:window-height="762"
   inkscape:window-x="0"
   inkscape:window-y="25"
   inkscape:window-maximized="0"
   inkscape:current-layer="Layer_5" />
<path
   opacity="0.75"
   d="M3161.91,238.91c-0.46-0.89-1.24-1.54-2.17-1.84c-0.37-0.12-0.76-0.18-1.15-0.18c-1.63,0-3.06,1.05-3.56,2.6  l-6.5,20.46l-6.55,14.95l-6.48,15.64l-6.4,11.67l-13.17,19.58l-6.4,10.94l-5.49,5.68l-5.47,1.2c-0.23,0.05-0.45,0.12-0.66,0.21  l-6.61,2.8c-0.26,0.11-0.51,0.25-0.73,0.42l-5.64,4.16l-11.98,0.38c-0.16,0-0.32,0.02-0.48,0.04l-4.65,0.73l-5.23-5.5  c-0.61-0.64-1.42-1.04-2.3-1.14l-6.59-0.72l-0.25-0.02h-0.15c-0.86,0-1.69,0.3-2.36,0.84l-4.78,3.9l-4.48-2.04  c-0.41-0.18-0.85-0.29-1.3-0.32l-6.05-0.38l-6.11-2.2c-0.4-0.14-0.82-0.21-1.25-0.21c-0.18,0-0.35,0.01-0.57,0.04l-6.23,0.98  l-5.86-0.18l-6.24-1.47c-0.27-0.06-0.56-0.09-0.84-0.09l-0.18,0l-6.7,0.53c-0.24,0.02-0.47,0.06-0.71,0.13l-6.53,1.84l-6.64,1.77  c-0.14,0.04-0.27,0.08-0.39,0.13l-5.76,2.35l-5.87-0.46h-0.12c-0.53,0-1.07,0.12-1.54,0.34l-6.62,3.01  c-0.13,0.06-0.26,0.13-0.36,0.2l-6.59,4.03c-0.22,0.13-0.42,0.29-0.58,0.44l-6.34,5.86l-5.64,3.63l-5.02,0.79l-5.85-1.56  c-0.3-0.08-0.62-0.12-0.93-0.12c-0.16,0-0.33,0.01-0.52,0.04l-4.81,0.68l-5.27-4.96c-0.7-0.65-1.6-1.01-2.56-1.01  c-0.5,0-1,0.1-1.46,0.3l-6.59,2.79c-0.85,0.36-1.53,1.02-1.92,1.84l-6.56,13.89l-5.27,10.83l-3.67-0.86  c-0.28-0.07-0.57-0.1-0.86-0.1c-1.71,0-3.2,1.16-3.62,2.82l-6.58,25.89l-5.97,23.21l-2.92,0.46l-5.48-2.92  c-0.54-0.29-1.15-0.44-1.76-0.44c-0.22,0-0.44,0.02-0.69,0.06l-2.8,0.53l-5.98-37.99c-0.21-1.31-1.1-2.42-2.33-2.9  c-0.44-0.17-0.89-0.26-1.36-0.26c-0.84,0-1.67,0.29-2.33,0.82l-1.56,1.25l-5.58-35.43c-0.13-0.83-0.55-1.61-1.18-2.18l-6.59-5.99  c-0.69-0.62-1.58-0.97-2.51-0.97c-0.14,0-0.28,0.01-0.45,0.03c-1.08,0.13-2.05,0.73-2.65,1.64l-6.2,9.34l-6.03,4.35  c-0.85,0.61-1.41,1.55-1.53,2.6l-6.47,55.02l-3.09,4.56l-3.45-4.7c-0.7-0.96-1.83-1.53-3.02-1.53l-0.19,0l-0.12,0.01  c-1.29,0.11-2.45,0.91-3.02,2.07l-2.7,5.46l-3.6-9.94c-0.09-0.24-0.2-0.47-0.33-0.68l-6.46-10.43l-6.5-14.16  c-0.06-0.12-0.12-0.24-0.21-0.38l-6.58-10.63c-0.68-1.09-1.89-1.77-3.17-1.77c-0.16,0-0.32,0.01-0.47,0.03l-6.57,0.82  c-1.62,0.2-2.92,1.41-3.22,3.02l-3.36,18.05l-2.5-10.49c-0.06-0.25-0.15-0.5-0.26-0.74l-6.58-13.92c-0.61-1.3-1.95-2.14-3.41-2.14  l-0.12,0c-1.5,0.06-2.82,1.01-3.35,2.42l-6.58,17.55c-0.05,0.13-0.09,0.27-0.13,0.42l-6.53,27.01l-2.95,7.78l-3.03-8.23l-6.52-31.1  c-0.25-1.19-1.06-2.18-2.16-2.66c-0.47-0.21-0.97-0.31-1.49-0.31c-0.69,0-1.36,0.19-1.95,0.55l-6.41,3.93l-1.83,0.92l-5.85-41.08  c-0.2-1.41-1.17-2.56-2.54-3.02c-0.37-0.12-0.76-0.18-1.15-0.18c-1,0-1.94,0.39-2.65,1.1l-2.55,2.56l-4.49-11.4  c-0.56-1.42-1.95-2.37-3.47-2.37c-0.14,0-0.29,0.01-0.43,0.02c-1.68,0.19-3.02,1.49-3.27,3.16l-6.56,44.02l-4.09,19.37l-1.81-4.32  l-6.56-31.44l-6.62-21.28c-0.44-1.41-1.67-2.43-3.06-2.59c-0.17-0.02-0.34-0.04-0.52-0.04c-1.31,0-2.54,0.71-3.2,1.84l-4.7,7.95  l-3.37-1.95c-0.57-0.33-1.22-0.51-1.88-0.51c-0.46,0-0.92,0.08-1.36,0.26c-1.06,0.42-1.87,1.28-2.21,2.37l-6.58,21.04  c-0.07,0.21-0.12,0.43-0.14,0.62l-6.3,46.35l-4.71,2.14c-0.13,0.06-0.26,0.13-0.43,0.23l-2.27,1.43l-5.3-20.19l-6.62-21.17  c-0.41-1.32-1.51-2.3-2.88-2.56c-0.23-0.04-0.46-0.06-0.68-0.06c-1.13,0-2.19,0.5-2.91,1.39l-3.02,3.74l-3.93-7.46  c-0.63-1.19-1.85-1.96-3.29-2c-1.33,0-2.53,0.67-3.21,1.8l-4.9,8.08l-3.39-1.44l-6.4-3.71c-0.13-0.07-0.27-0.14-0.4-0.2l-6.6-2.79  c-0.46-0.19-0.94-0.29-1.44-0.29c-0.54,0-1.08,0.12-1.59,0.35c-0.96,0.45-1.69,1.29-1.99,2.31l-6.51,21.67l-5.65,13.9l-1.55,0.1  l-5.47-13.47l-6.52-25.85c-0.37-1.48-1.59-2.58-3.09-2.79c-0.18-0.03-0.36-0.04-0.53-0.04c-1.33,0-2.56,0.71-3.23,1.86l-2.64,4.56  l-3.79-9.99c-0.55-1.44-1.95-2.41-3.49-2.41l-0.31,0l-0.02,0l-6.3,0.1c-0.39,0-0.78,0.07-1.12,0.19l-5.47,1.8l-5.46-1.63  c-0.35-0.1-0.71-0.16-1.07-0.16c-0.69,0-1.36,0.19-1.96,0.56c-0.91,0.56-1.53,1.48-1.72,2.52l-3.06,17.15l-2.75-14.11  c-0.34-1.74-1.87-3.01-3.67-3.02c-1.77,0-3.31,1.26-3.66,3l-2.58,12.81l-3.24-19.39c-0.25-1.51-1.38-2.69-2.87-3.03  c-0.27-0.06-0.54-0.09-0.82-0.09c-1.22,0-2.37,0.6-3.07,1.61l-6.59,9.5c-0.33,0.48-0.54,1.03-0.63,1.61l-6.38,45.95l-5.08,4.3  l-6.27,2.76l-6.43,3.53l-2.16,0.78l-5.78-31.27c-0.17-0.89-0.65-1.69-1.37-2.26l-6.58-5.16c-0.65-0.51-1.47-0.79-2.3-0.79  c-0.91,0-1.78,0.33-2.46,0.93l-2.84,2.5l-4.47-9.54c-0.33-0.7-0.86-1.27-1.54-1.66l-6.59-3.72c-0.5-0.28-1.07-0.44-1.65-0.47  l-6.58-0.31l-0.16,0c-1.21,0-2.36,0.58-3.05,1.56l-4.93,6.89l-3.93-1.42c-0.41-0.15-0.83-0.22-1.26-0.22  c-1.29,0-2.47,0.65-3.16,1.74l-6.58,10.42c-0.22,0.35-0.38,0.74-0.48,1.15l-4.12,17.64l-2.02-4.33c-0.61-1.31-1.94-2.16-3.38-2.16  c-0.16,0-0.31,0.01-0.42,0.02l-4.98,0.55l-5.36-4.54c-0.67-0.57-1.53-0.88-2.41-0.88c-0.41,0-0.82,0.07-1.19,0.2  c-1.24,0.42-2.18,1.46-2.46,2.74l-6.02,27.39l-0.93,0.13l-5.59-16.75c-0.13-0.4-0.33-0.77-0.58-1.1l-6.62-8.62l-6.13-7.69  l-6.37-21.39c-0.2-0.66-0.57-1.25-1.09-1.72l-6.6-5.89c-0.27-0.24-0.57-0.43-0.88-0.58l-6.58-3.1c-0.49-0.23-1.04-0.35-1.59-0.35  c-0.57,0-1.14,0.13-1.64,0.38c-1.03,0.5-1.76,1.43-2,2.54l-6.57,29.57l-6.58,28.07c-0.47,2.01,0.78,4.02,2.76,4.48  c0.29,0.07,0.58,0.1,0.88,0.1c1.74,0,3.23-1.19,3.63-2.88l6.59-28.11l5.57-25.06l1.86,0.88l5.39,4.81l6.28,21.06  c0.14,0.46,0.36,0.89,0.66,1.27l6.54,8.2l6.2,8.07l6.38,19.11c0.51,1.53,1.93,2.55,3.54,2.55c0.17,0,0.34-0.01,0.52-0.04l6.58-0.93  c1.54-0.22,2.79-1.38,3.13-2.9l5.25-23.87l1.85,1.57c0.67,0.57,1.53,0.89,2.41,0.89c0.15,0,0.3-0.01,0.41-0.02l3.92-0.43l5.45,11.71  c0.61,1.31,1.94,2.16,3.4,2.16l0.23,0l0.15-0.02c1.58-0.17,2.89-1.32,3.25-2.87l6.44-27.55l4.64-7.35l3.75,1.35  c0.41,0.15,0.84,0.22,1.27,0.22c1.2,0,2.34-0.58,3.04-1.56l5.4-7.53l3.67,0.17l4.77,2.69l6.08,12.96c0.5,1.06,1.48,1.83,2.62,2.07  c0.25,0.05,0.51,0.08,0.76,0.08c0.91,0,1.79-0.33,2.46-0.93l4.25-3.73l3.03,2.38l6.32,34.21c0.2,1.08,0.86,2.01,1.82,2.56  c0.56,0.32,1.21,0.5,1.86,0.5c0.44,0,0.86-0.08,1.27-0.22l6.57-2.37c0.18-0.07,0.36-0.15,0.54-0.24l6.4-3.52l6.47-2.84  c0.33-0.15,0.64-0.34,0.9-0.57l6.58-5.57c0.7-0.59,1.16-1.42,1.29-2.34l6.46-46.48l0.83-1.2l5.07,30.34  c0.29,1.75,1.78,3.05,3.54,3.12l0.19,0c1.74,0,3.26-1.26,3.61-3l2.86-14.22l2.97,15.23c0.32,1.64,1.69,2.85,3.42,3.01l0.14,0.01  l0.14,0c1.79-0.02,3.33-1.31,3.65-3.08l5.84-32.72l2.56,0.76c0.35,0.11,0.71,0.16,1.08,0.16c0.4,0,0.8-0.07,1.17-0.19l6.04-1.99  l3.39-0.05l5.65,14.88c0.51,1.34,1.76,2.28,3.19,2.4l0.19,0.01h0.11c1.33,0,2.57-0.72,3.23-1.86l1.97-3.4l4.34,17.2  c0.04,0.17,0.1,0.34,0.16,0.48l6.58,16.2c0.57,1.42,1.93,2.33,3.46,2.33l0.14,0l6.67-0.42c1.42-0.09,2.69-1,3.23-2.32l6.66-16.4  l5.42-18.01l2.53,1.07l6.4,3.71c0.13,0.07,0.26,0.14,0.4,0.2l6.59,2.79c0.46,0.19,0.95,0.29,1.45,0.29c1.3,0,2.52-0.69,3.2-1.8  l3.16-5.2l3.51,6.65c0.59,1.12,1.69,1.86,2.92,1.98l0.24,0.02h0.15c1.13,0,2.19-0.51,2.9-1.39l2.19-2.72l4.46,14.28l6.56,25.01  c0.3,1.15,1.14,2.09,2.25,2.53c0.44,0.17,0.9,0.26,1.37,0.26c0.7,0,1.39-0.2,1.98-0.57l6.37-4l6.35-2.89  c1.18-0.53,1.98-1.62,2.16-2.9l6.54-48.08l5.09-16.29l2.54,1.47c0.57,0.33,1.22,0.51,1.88,0.51c1.31,0,2.55-0.7,3.22-1.84l2.3-3.89  l4.02,12.9l6.55,31.44c0.05,0.23,0.12,0.46,0.21,0.68l6.58,15.68c0.58,1.39,1.94,2.29,3.44,2.29l0.22,0l0.13-0.01  c1.64-0.16,2.96-1.34,3.3-2.95l6.61-31.3l4.54-30.44l1.47,3.73c0.46,1.18,1.48,2.03,2.69,2.29c0.26,0.06,0.52,0.08,0.79,0.08  c0.99,0,1.95-0.4,2.64-1.1l1.29-1.3l5.52,38.81c0.17,1.19,0.91,2.23,1.95,2.77c0.54,0.29,1.14,0.44,1.75,0.44  c0.58,0,1.15-0.14,1.68-0.4l6.75-3.39l2.16-1.32l5.49,26.16c0.04,0.19,0.09,0.37,0.16,0.55l6.58,17.85  c0.54,1.45,1.94,2.44,3.51,2.44c1.54,0,2.95-0.97,3.49-2.41l6.57-17.31c0.05-0.14,0.1-0.28,0.15-0.47l6.53-27.02l3.4-9.06l2.64,5.59  l6.49,27.27c0.39,1.65,1.82,2.8,3.55,2.87l0.17,0c1.75-0.04,3.26-1.33,3.58-3.05l6.08-32.71l1.49-0.19l5.2,8.39l6.49,14.15  c0.06,0.12,0.12,0.25,0.21,0.39l6.38,10.3l6.45,17.79c0.51,1.41,1.81,2.38,3.36,2.46l0.14,0c1.44,0,2.73-0.8,3.36-2.08l3.85-7.8  l2.95,4.02c0.72,0.97,1.78,1.53,2.92,1.53c0.13,0,0.25-0.01,0.38-0.02c1.13-0.09,2.16-0.68,2.8-1.63l6.58-9.71  c0.33-0.49,0.54-1.06,0.62-1.66l6.39-54.29l5.25-3.79c0.36-0.26,0.67-0.58,0.93-0.96l4.17-6.28l2.39,2.17l6.38,40.49  c0.21,1.31,1.1,2.42,2.34,2.9c0.43,0.17,0.89,0.25,1.35,0.25c0.84,0,1.67-0.29,2.33-0.82l1.56-1.25l5.58,35.44  c0.16,0.99,0.71,1.89,1.55,2.48c0.63,0.44,1.38,0.67,2.15,0.67c0.22,0,0.44-0.02,0.69-0.06l5.29-1l5.42,2.89  c0.54,0.29,1.15,0.44,1.76,0.44c0.19,0,0.38-0.01,0.58-0.04l6.59-1.03c1.47-0.24,2.66-1.32,3.03-2.76l6.58-25.6l5.68-22.34l3,0.71  c0.28,0.07,0.57,0.1,0.86,0.1c1.42,0,2.73-0.82,3.36-2.1l6.6-13.56l5.97-12.64l3.03-1.28l4.8,4.52c0.7,0.66,1.61,1.02,2.57,1.02  c0.17,0,0.33-0.01,0.52-0.04l5.83-0.82l5.86,1.56c0.31,0.08,0.63,0.12,0.94,0.12c0.2,0,0.4-0.02,0.58-0.04l6.56-1.03  c0.53-0.08,1.02-0.27,1.46-0.55l6.57-4.22c0.19-0.12,0.37-0.26,0.53-0.41l6.31-5.84l6.07-3.71l5.5-2.5l5.63,0.44l0.18,0.01h0.11  c0.49,0,0.97-0.09,1.41-0.28l6.36-2.59l6.4-1.71l6.23-1.76l5.63-0.44l6.02,1.42c0.24,0.06,0.48,0.09,0.73,0.1l6.7,0.21  c0.21,0,0.4-0.01,0.58-0.04l5.63-0.88l5.67,2.04c0.33,0.12,0.67,0.19,1.05,0.22l5.89,0.37l5.97,2.71c0.49,0.22,1,0.33,1.53,0.33  c0.86,0,1.7-0.3,2.36-0.84l5.37-4.38l3.67,0.4l5.64,5.93c0.7,0.74,1.69,1.16,2.7,1.16c0.21,0,0.41-0.02,0.58-0.05l6.35-1l12.93-0.41  c0.76-0.02,1.48-0.27,2.1-0.73l6.23-4.59l5.86-2.48l6.24-1.37c0.72-0.16,1.37-0.52,1.89-1.05l6.59-6.81c0.2-0.21,0.38-0.45,0.53-0.7  l6.51-11.12l13.23-19.66l6.76-12.33l6.61-15.94l6.67-15.24l6.63-20.83C3162.45,240.81,3162.37,239.79,3161.91,238.91z"
   id="path1987" />
<path
   id="path2122"
   style="fill:#000000;fill-opacity:1;stroke:#000000;stroke-width:1px;stroke-linecap:butt;stroke-linejoin:miter;stroke-opacity:1"
   d="m 3160.4316,241.05469 c -8.8405,21.32747 -17.6809,42.65495 -26.5214,63.98242 -8.687,8.86728 -17.4095,17.70168 -26.0743,26.58947 -4.724,5.31523 -9.4479,10.63046 -14.1718,15.94569 -6.6823,1.80143 -13.3646,3.60286 -20.0469,5.40429 -4.6719,-1.8483 -9.3438,-3.69661 -14.0156,-5.54492 -1.8431,-3.11134 -3.6867,-6.22236 -5.5293,-9.33398 -5.0606,3.52896 -10.1197,7.06001 -15.1797,10.58984 -4.0489,-0.82066 -8.087,-1.73627 -12.1426,-2.49805 -8.5391,-0.12406 -17.0781,-0.2504 -25.6172,-0.37304 -12.9122,4.13772 -25.8417,8.22532 -38.7437,12.39258 -9.226,3.33398 -18.4521,6.66797 -27.6782,10.00195 -4.7487,-1.61976 -9.4973,-3.23985 -14.2461,-4.85938 -7.424,7.55901 -14.845,15.12111 -22.2695,22.67969 -6.7468,16.61313 -13.4963,33.22518 -20.2441,49.83789 -3.6543,-0.61784 -7.3086,-1.23568 -10.9629,-1.85352 -3.9658,-9.88588 -7.9756,-19.75554 -11.9139,-29.65158 -4.8994,-14.58935 -9.7966,-29.17947 -14.6974,-43.76834 -5.1792,3.59986 -10.3575,7.20082 -15.5352,10.80274 -4.5002,17.15185 -9.007,34.30195 -13.5098,51.45312 -2.7841,-0.44824 -5.5609,-1.01038 -8.3496,-1.38867 -5.0026,0.16862 -10.0052,0.33724 -15.0078,0.50586 -4.2288,-8.00468 -8.4136,-16.03448 -12.6698,-24.02351 -2.1856,-3.52602 -4.3716,-7.05177 -6.5568,-10.57805 -4.0177,4.82689 -8.0324,9.65636 -12.0488,14.48437 -4.2258,-4.81321 -8.4526,-9.6256 -12.6777,-14.43945 -6.5648,13.60176 -13.1275,27.2045 -19.6914,40.80664 -4.7231,-9.79437 -9.4478,-19.58797 -14.1699,-29.38281 -2.5346,-1.42995 -5.0662,-2.86495 -7.5997,-4.29688 -4.057,-10.89697 -8.1105,-21.79527 -12.1699,-32.6914 -3.9593,-1.65052 -7.9197,-3.29829 -11.8789,-4.94922 -5.114,22.69333 -10.2283,45.38661 -15.3418,68.08008 11.9057,12.21409 23.8113,24.42833 35.7168,36.64257 9.0501,3.5742 18.1195,7.10818 27.1584,10.7051 8.7402,5.16744 17.5043,10.29796 26.2295,15.48847 13.0565,9.21902 26.0954,18.46659 39.1629,27.66776 8.7207,4.81974 17.4417,9.63887 26.1621,14.45899 7.834,-0.20946 15.668,-0.42353 23.502,-0.63477 0,4.69271 0,9.38542 0,14.07813 14.3614,0.45861 28.7226,0.92506 43.0839,1.38671 4.0501,3.82492 8.1006,7.64947 12.1504,11.47461 7.7255,0.42595 15.4505,0.85858 23.1758,1.28711 0,4.08985 0,8.17969 0,12.26953 67.2018,0.22699 134.4037,0.45549 201.6055,0.68555 8.6547,-9.3754 17.3474,-18.71718 25.9791,-28.11279 3.9471,-4.57048 7.8941,-9.14095 11.8412,-13.71143 4.7226,0.45001 9.4454,0.89881 14.168,1.34961 12.8669,-14.22532 25.7372,-28.44769 38.6054,-42.67187 8.7878,0 17.5756,0 26.3633,0 4.2815,-4.7316 8.5625,-9.46357 12.8438,-14.19532 17.5859,0 35.1718,0 52.7578,0 4.0534,-4.73342 8.111,-9.46327 12.166,-14.19531 8.1953,0 16.3906,0 24.5859,0 4.3777,4.59628 8.7548,9.19318 13.1328,13.78906 8.5599,4.85823 17.1196,9.71665 25.6797,14.57422 8.1575,0.4309 16.3151,0.85918 24.4727,1.28907 0.4505,3.83138 0.9011,7.66275 1.3516,11.49414 5.3651,0.27059 10.7303,0.53876 16.0957,0.80468 4.0742,-4.07422 8.1484,-8.14843 12.2226,-12.22265 12.5371,-0.21615 25.0742,-0.43229 37.6113,-0.64844 4.4976,4.04738 8.994,8.09593 13.4922,12.14258 29.8171,0.44635 59.6341,0.89045 89.4512,1.33594 0.2254,4.73046 0.4492,9.461 0.6758,14.1914 16.543,0.27527 33.0859,0.55217 49.6289,0.82617 -10.7547,-6.7212 -21.5091,-13.44271 -32.2637,-20.16406 -0.2169,-3.91995 -0.4382,-7.83966 -0.6523,-11.75976 -4.3749,-5.58466 -8.7444,-11.17355 -13.1172,-16.75977 -4.5442,-0.23025 -9.0886,-0.45536 -13.6328,-0.68359 -3.6888,-3.89323 -7.3776,-7.78646 -11.0664,-11.67969 0,-5.17318 0,-10.34636 0,-15.51953 -4.0559,-4.50604 -8.1106,-9.0131 -12.166,-13.51953 -1e-4,-4.28581 0,-8.57162 0,-12.85743 -13.6685,-14.82696 -27.3378,-29.65319 -41.0059,-44.48046 -13.7702,0 -27.5404,0 -41.3106,0 -4.718,-4.49353 -9.4363,-8.98679 -14.1543,-13.48047 -4.485,-0.22406 -8.97,-0.4479 -13.455,-0.67188 -3.6158,-3.84189 -7.2324,-7.68298 -10.8477,-11.52539 -22.2995,-0.22362 -44.5989,-0.45079 -66.8984,-0.67578 -4.1696,-4.63549 -8.3947,-9.22336 -12.5295,-13.88863 -3.9107,-4.83143 -7.8218,-9.66256 -11.7322,-14.49418 -13.3451,-0.22611 -26.6901,-0.4532 -40.0352,-0.67969 -4.6362,-4.39204 -9.2322,-8.83743 -13.8934,-13.19627 -8.0808,-4.61873 -16.1625,-9.23586 -24.2433,-13.85451 -5.0612,0 -10.1224,0 -15.1836,0 -3.9317,-4.35588 -7.7883,-8.78115 -11.768,-13.09263 -4.6487,-4.86854 -9.2945,-9.73974 -13.9449,-14.60659 -12.9173,-0.22577 -25.8346,-0.44621 -38.752,-0.66992 -3.1172,-7.19009 -6.2334,-14.38061 -9.3515,-21.57031 -0.6022,1.45247 -1.2044,2.90494 -1.8067,4.35742 z" /></svg>
