<?xml version="1.0" encoding="UTF-8" standalone="no"?>
<!-- Generator: Adobe Illustrator 18.0.0, SVG Export Plug-In . SVG Version: 6.00 Build 0)  -->

<svg
   version="1.1"
   id="ARlayer"
   x="0px"
   y="0px"
   width="9451.45px"
   height="623.52px"
   viewBox="0 0 9451.45 623.52"
   enable-background="new 0 0 9451.45 623.52"
   xml:space="preserve"
   sodipodi:docname="15 Black carbon annual data_mask-01.svg"
   inkscape:version="1.1.1 (c3084ef, 2021-09-22)"
   xmlns:inkscape="http://www.inkscape.org/namespaces/inkscape"
   xmlns:sodipodi="http://sodipodi.sourceforge.net/DTD/sodipodi-0.dtd"
   xmlns="http://www.w3.org/2000/svg"
   xmlns:svg="http://www.w3.org/2000/svg"><defs
   id="defs855" /><sodipodi:namedview
   id="namedview853"
   pagecolor="#505050"
   bordercolor="#eeeeee"
   borderopacity="1"
   inkscape:pageshadow="0"
   inkscape:pageopacity="0"
   inkscape:pagecheckerboard="0"
   showgrid="false"
   inkscape:zoom="0.710571"
   inkscape:cx="2895.5586"
   inkscape:cy="313.83212"
   inkscape:window-width="1312"
   inkscape:window-height="762"
   inkscape:window-x="0"
   inkscape:window-y="25"
   inkscape:window-maximized="0"
   inkscape:current-layer="ARlayer" />

<path
   style="fill:#000000"
   d="m 2602.1548,434.25 c -0.8537,-1.63168 -9.7691,-31.94259 -10.8999,-37.058 -0.3714,-1.67995 -0.9517,-2.1146 -2.1326,-1.5973 -3.7943,1.66219 -6.4959,0.91808 -8.7596,-2.41275 l -2.2551,-3.31805 -2.3038,3.55567 c -1.2671,1.95562 -3.0026,3.56124 -3.8567,3.56805 -0.8541,0.007 -5.2142,-1.75818 -9.6891,-3.92221 l -8.1362,-3.93458 -3.7063,11.18458 c -4.3428,13.10576 -7.8549,21.40767 -10.111,23.9006 -2.2668,2.50475 -7.7336,2.31311 -10.2225,-0.35834 -2.1424,-2.29958 -6.6837,-14.18485 -9.566,-25.03563 -1.6065,-6.04786 -1.9465,-6.57015 -3.6035,-5.53532 -1.0063,0.62845 -1.9608,2.04948 -2.1211,3.15784 -1.1669,8.06914 -19.3502,-0.48546 -23.3623,-10.99116 -0.9355,-2.44937 -2.0091,-4.4534 -2.3859,-4.4534 -0.3769,0 -1.6848,5.46519 -2.9065,12.14487 -2.4908,13.61778 -3.3585,15.85513 -6.1488,15.85513 -2.5272,0 -4.7173,-3.43811 -5.5623,-8.73182 -0.7886,-4.94102 -1.9122,-4.81943 -2.7424,0.29677 -0.7296,4.49606 -2.2799,6.43505 -5.1451,6.43505 -2.9729,0 -4.0202,-2.60547 -6.1811,-15.37796 -2.7116,-16.0269 -2.9711,-15.4951 -7.3735,15.11011 -1.643,11.42232 -3.4934,22.01107 -4.112,23.53057 -1.4094,3.46219 -5.3757,4.66183 -7.7061,2.33084 -1.5094,-1.50968 -1.6654,-6.3434 -1.6654,-51.59422 0,-57.19429 -0.4965,-54.00894 8.0903,-51.90635 7.206,1.76447 11.0374,3.96702 19.5237,11.2235 12.3385,10.55035 20.4086,21.14626 25.4766,33.45046 0.061,0.14682 2.42,-0.26627 5.2433,-0.91797 7.0802,-1.63431 9.5975,-0.33257 12.7739,6.6055 2.4713,5.39814 2.5095,5.42819 4.4425,3.49523 1.0723,-1.07234 2.791,-1.94971 3.8192,-1.94971 1.4453,0 3.5119,-3.61927 9.1083,-15.9511 6.4965,-14.31541 7.8392,-16.52377 13.0936,-21.53561 C 2547.5156,337.36654 2552.0825,335 2557.5,335 c 5.684,0 9.5332,2.25063 16.7998,9.8229 5.6578,5.89575 7.7986,9.18947 12.7468,19.61171 l 5.947,12.52593 6.2532,-4.05841 c 5.3043,-3.44257 6.7843,-3.96336 9.7532,-3.43205 1.925,0.3445 6.0058,0.88475 9.0684,1.20057 l 5.5685,0.5742 1.7996,-6.64843 c 2.0747,-7.66453 4.3776,-9.9978 8.3696,-8.48004 2.034,0.77331 2.7552,0.63208 3.4915,-0.68371 3.0748,-5.49427 7.7066,-6.96035 10.0551,-3.18267 2.2192,3.56979 6.8149,21.29813 6.4651,24.94033 -0.2623,2.73215 -0.7774,3.36293 -2.9518,3.6149 -1.8757,0.21736 -3.2255,-0.44677 -4.6888,-2.30713 -2.0123,-2.5582 -2.2286,-2.59826 -10.4327,-1.93259 l -8.3777,0.67977 -3.2464,24.12736 c -1.7856,13.27005 -3.477,24.9263 -3.7589,25.90279 -0.5192,1.79894 -13.0624,8.72457 -15.8014,8.72457 -0.8193,0 -1.9017,-0.7875 -2.4053,-1.75 z"
   id="path910" /><path
   style="fill:#000000"
   d="m 2871.5,442 c -1.1,-0.47269 -3.6875,-0.89106 -5.75,-0.92971 -6.8895,-0.12913 -7.841,-2.54065 -12.062,-30.57029 -1.1667,-7.74814 -1.2858,-7.99055 -3.7823,-7.69993 -1.4177,0.16504 -3.0976,-0.32637 -3.733,-1.09203 -0.6355,-0.76565 -2.5248,-9.45069 -4.1985,-19.30007 -2.93,-17.24233 -4.477,-23.40797 -5.8731,-23.40797 -0.3609,0 -2.9745,2.63371 -5.8079,5.85268 -5.8996,6.70226 -5.8731,6.60235 -9.3037,35.14732 -3.0072,25.02205 -3.7529,27.84001 -8.7988,33.25 -3.2038,3.435 -5.658,3.49261 -7.8261,0.18372 l -1.6815,-2.56628 -2.0346,3.56017 c -4.0842,7.14654 -7.4285,5.62865 -11.9893,-5.44172 -4.8818,-11.84951 -20.1891,-40.46425 -21.8134,-40.77707 -1.2544,-0.24157 -1.9334,1.60832 -3.3015,8.99353 -2.7467,14.82698 -4.2921,19.58282 -6.6015,20.3158 -2.9883,0.94847 -4.7705,-1.07851 -6.5053,-7.39897 -4.1352,-15.06599 -6.6505,-22.30615 -7.4662,-21.49051 -0.4864,0.48639 -2.7178,7.40642 -4.9587,15.37784 C 2728.7379,436.99889 2727.077,441 2722.6566,441 c -0.9273,0 -2.5458,-1.41388 -3.5967,-3.14196 -1.9696,-3.23862 -6.6707,-19.45595 -9.6024,-33.1252 l -1.6659,-7.76716 -3.505,2.16623 c -1.9278,1.19143 -4.8944,2.12674 -6.5925,2.07846 -2.191,-0.0623 -4.1925,0.91061 -6.8936,3.35092 -4.2529,3.84225 -4.2177,3.83753 -15.2019,2.03891 -9.0441,-1.48093 -10.9663,-3.0825 -10.3221,-8.6002 1.4339,-12.28049 8.1363,-51.71787 8.9649,-52.75 2.4528,-3.05539 6.2807,-0.65453 8.6964,5.4545 1.0945,2.7679 1.6396,3.13001 4.001,2.65774 5.2518,-1.05035 6.766,2.64092 9.0812,22.13776 0.6532,5.5 1.3606,10.5857 1.5722,11.30156 0.3753,1.27025 19.7122,-21.01668 25.3278,-29.19192 1.5526,-2.2603 5.764,-9.98239 9.3587,-17.16019 3.5946,-7.17779 7.3027,-13.70279 8.24,-14.5 1.8697,-1.59008 18.3938,-10.62548 30.9813,-16.94058 4.4,-2.20747 10.7,-4.51244 14,-5.12215 3.3,-0.6097 6.609,-1.40356 7.3533,-1.76411 0.7444,-0.36056 4.1586,-7.62315 7.5871,-16.13909 10.7999,-26.82503 17.476,-38.81898 27.5437,-49.48352 3.1153,-3.3 8.9216,-10.86466 12.9029,-16.81036 9.2632,-13.83378 9.5637,-13.84773 20.0771,-0.93149 4.3755,5.3755 12.149,13.1037 18.5359,18.42781 6.05,5.04331 13.8776,11.78965 17.3946,14.99185 3.5171,3.20221 6.7378,5.82219 7.1573,5.82219 1.0875,0 9.6485,-16.95394 17.4208,-34.5 10.0865,-22.77014 19.3283,-37.91346 23.8223,-39.03454 2.133,-0.53211 45.2819,13.44978 58.9803,19.11185 5.4726,2.26206 8.4127,2.68439 24.3326,3.49534 32.9081,1.67631 41.0145,4.28117 56.0424,18.0084 l 8.7788,8.01896 7.5355,-0.64915 c 4.3514,-0.37486 12.6058,-0.086 19.5354,0.68366 15.3808,1.7083 22.4881,1.68454 30.2618,-0.10114 5.7416,-1.31892 6.4044,-1.29579 7.9786,0.27842 1.6216,1.62162 1.6219,2.07873 0,8.24366 -2.6598,10.14113 -12.2952,34.59889 -19.2822,48.94454 -6.8844,14.13522 -26.1941,44.13017 -31.5986,49.0841 -1.8505,1.69626 -5.3896,3.65132 -7.8646,4.34458 -2.475,0.69326 -6.9438,2.64747 -9.9307,4.3427 -4.4068,2.50109 -7.0427,3.21025 -13.9802,3.76126 -9.8666,0.78365 -13.7972,-0.0286 -17.0876,-3.53112 -2.8696,-3.05451 -5.8679,-3.181 -9.4074,-0.39687 -2.9119,2.29054 -3.5464,2.27329 -16.7602,-0.45567 -4.2164,-0.87078 -12.9914,-1.86126 -19.5,-2.20106 -10.8177,-0.56478 -12.6926,-0.38678 -21.8339,2.07284 -5.5,1.47987 -12.2832,3.04353 -15.0739,3.47481 -6.3432,0.98029 -12.4076,4.03228 -17.7755,8.94575 -7.1564,6.55059 -11.268,8.05868 -21.9712,8.05868 -8.4138,0 -9.7925,-0.26616 -13.1378,-2.53631 -2.1678,-1.4711 -4.4852,-2.29899 -5.5179,-1.97123 -1.0489,0.33291 -4.2651,5.64442 -7.8279,12.92766 -5.8073,11.8717 -8.7325,15.57988 -12.2899,15.57988 -1.2694,0 -2.3815,2.82102 -4.8294,12.25 -9.5376,36.73862 -10.4249,38.81856 -16.5008,38.67971 -1.6916,-0.0387 -3.9757,-0.45702 -5.0757,-0.92971 z"
   id="path1291" />

</svg>
