<?xml version="1.0" encoding="utf-8"?>
<!-- Generator: Adobe Illustrator 18.0.0, SVG Export Plug-In . SVG Version: 6.00 Build 0)  -->
<!DOCTYPE svg PUBLIC "-//W3C//DTD SVG 1.1//EN" "http://www.w3.org/Graphics/SVG/1.1/DTD/svg11.dtd">
<svg version="1.1" id="ARlayer" xmlns="http://www.w3.org/2000/svg" xmlns:xlink="http://www.w3.org/1999/xlink"  x="0px" y="0px" width="9451.45px" height="623.52px"
	 viewBox="0 0 9451.45 623.52" enable-background="new 0 0 9451.45 623.52" xml:space="preserve">
<g opacity="0.75">
	<defs>
		<polygon id="SVGID_1_" opacity="0.75" points="3158.51,234.97 3142.22,239.41 3125.93,237.13 3109.64,235.6 3093.35,237.07
			3077.06,220.63 3060.77,213.14 3044.48,211.62 3028.18,210.09 3011.89,210.06 2995.6,203.3 2979.31,198.05 2963.02,192.8
			2946.73,186.77 2933.12,206.8 2919.51,239.71 2905.9,264.84 2892.29,251.4 2878.67,240.34 2865.06,229.12 2851.45,210.29
			2837.84,232.72 2824.23,246.01 2810.62,270.85 2797.01,306.63 2783.39,308.13 2769.78,314.1 2756.17,322.99 2742.56,328.54
			2728.95,358.12 2715.34,374.7 2701.73,390.61 2696.89,396.37 2697.6,401.41 2704.19,398.09 2710.77,394.03 2717.35,425.65
			2723.93,443.64 2730.51,426.17 2737.1,398.71 2743.68,381.03 2750.26,395.07 2756.84,422.95 2763.42,387.27 2770.01,386.44
			2776.59,397.15 2783.17,411.61 2789.75,422.32 2796.34,440.63 2802.92,427.21 2809.5,436.26 2816.08,426.48 2822.66,370.11
			2829.25,365.32 2835.83,355.34 2842.41,361.37 2848.99,403.5 2855.57,398.19 2862.16,440.32 2868.74,439.07 2875.32,442.61
			2881.9,441.56 2888.48,415.77 2895.07,389.66 2901.65,391.22 2908.23,377.6 2914.81,363.55 2921.4,360.74 2927.98,366.99
			2934.56,366.05 2941.14,367.82 2947.72,366.78 2954.31,362.51 2960.89,356.38 2967.47,352.32 2974.05,349.3 2980.63,349.82
			2987.22,347.12 2993.8,345.35 3000.38,343.48 3006.96,342.96 3013.54,344.52 3020.13,344.73 3026.71,343.69 3033.29,346.08
			3039.87,346.49 3046.46,349.51 3053.04,344.1 3059.62,344.83 3066.2,351.8 3072.78,350.76 3079.37,350.55 3085.95,350.34
			3092.53,345.45 3099.11,342.65 3105.69,341.19 3112.28,334.32 3118.86,322.99 3125.44,313.1 3132.02,303.27 3138.6,291.18
			3145.19,275.18 3151.77,260.05 3158.35,239.19 3159.16,235.66 		"/>
	</defs>
	<use xlink:href="#SVGID_1_"  overflow="visible"/>
	<clipPath id="SVGID_2_">
		<use xlink:href="#SVGID_1_"  overflow="visible"/>
	</clipPath>
	<use xlink:href="#SVGID_1_"  overflow="visible" fill="none" stroke="#FFFFFF" stroke-miterlimit="10"/>
</g>
<g opacity="0.75">
	<defs>
		<path id="SVGID_3_" opacity="0.75" d="M2696.55,396.33l-8.78,10.47l-13.61-1.81l-6.37-0.87l3.14-15.04l6.58-44.6l6.58,16.88
			l6.58-6.67L2696.55,396.33z M2512.97,394.3l-6.58-17.51l-6.58,0.1l-6.58,2.19l-2.12-0.64l6.11,13.6l13.61,8.08l9.97-12.3
			l-1.24-4.99L2512.97,394.3z M2644.61,351.47l-6.58,11.25l-6.58-3.86l-5.33,17.2l7.21,0.09l13.61-2.41l8.01,17.29l-3.76-18.21
			L2644.61,351.47z M2606.11,373.14l-13.61,10.42l-13.61-29.7l-13.61-13.59l-13.61-0.43l-13.61,11.9l-13.61,31.58l-3.65,4.5
			l5.34,21.38l6.58,16.36l6.58-0.42l6.58-16.36l6.58-22.09l6.58,2.81l6.58,3.86l6.58,2.81l6.58-10.94l6.58,12.61l6.58-8.23
			l6.58,21.26l6.58,25.32l6.58-4.17l6.58-3.02l6.58-48.88l1.26-4.06l-6.4-0.08L2606.11,373.14z M2470,347.94l-13.61-12.09
			l-13.61-3.72v102.49l4.38-3.74l6.58-47.83l6.58-9.59l6.58,39.81l6.58-33.04l6.58,34.08l6.58-37.2l4.47,1.34l-7.5-16.69
			L2470,347.94z"/>
	</defs>
	<use xlink:href="#SVGID_3_"  overflow="visible"/>
	<clipPath id="SVGID_4_">
		<use xlink:href="#SVGID_3_"  overflow="visible"/>
	</clipPath>
	<use xlink:href="#SVGID_3_"  overflow="visible" fill="none" stroke="#FFFFFF" stroke-miterlimit="10"/>
</g>
<g opacity="0.75">

		<path fill="none" stroke="#000000" stroke-width="1.802" stroke-linecap="round" stroke-linejoin="round" stroke-miterlimit="10" d="
		M2442.67,332.68l13.63,3.72l13.63,12.1l13.63,13.83l13.63,30.33l13.63,8.09l13.63-16.83l13.63-31.61l13.63-11.91l13.63,0.43
		l13.63,13.61l13.63,29.73l13.63-10.43l13.63,2.84l13.63,0.18l13.63-2.41l13.63,29.42l13.63,1.85l13.63,1.81l13.63-16.26
		l13.63-15.96l13.63-16.62l13.63-29.67l13.63-5.57l13.63-8.92l13.63-5.99l13.63-1.51l13.63-35.89l13.63-24.92l13.63-13.33
		l13.63-22.5l13.63,18.89l13.63,11.26l13.63,11.08l13.63,13.48l13.63-25.21l13.63-33l13.63-20.1"/>
</g>
</svg>
