<?xml version="1.0" encoding="utf-8"?>
<!-- Generator: Adobe Illustrator 18.0.0, SVG Export Plug-In . SVG Version: 6.00 Build 0)  -->
<!DOCTYPE svg PUBLIC "-//W3C//DTD SVG 1.1//EN" "http://www.w3.org/Graphics/SVG/1.1/DTD/svg11.dtd">
<svg version="1.1" id="Baseline" xmlns="http://www.w3.org/2000/svg" xmlns:xlink="http://www.w3.org/1999/xlink" x="0px" y="0px"
	 width="9451.45px" height="623.52px" viewBox="0 0 9451.45 623.52" enable-background="new 0 0 9451.45 623.52"
	 xml:space="preserve">
<g opacity="0.75">
	<g>
		<path d="M4667.87,485.21H3645.65c-0.14,0-0.25-0.11-0.25-0.25s0.11-0.25,0.25-0.25h1022.22c0.14,0,0.25,0.11,0.25,0.25
			S4668.01,485.21,4667.87,485.21z"/>
	</g>
	<g>
		<g>
			<path d="M4667.87,483.85L4667.87,483.85l-494.51-3.46l-316.64-3.08l-71.01-0.2l-38.57-0.01l-101.45,0.08h0
				c-0.14,0-0.27-0.11-0.27-0.25c0-0.14,0.09-0.25,0.23-0.25l1.32,0l107.95-0.08l101.81,0.21l185.84,1.69l369.22,3.54l256.09,1.3
				c0.14,0,0.25,0.11,0.25,0.25S4668.01,483.85,4667.87,483.85z"/>
		</g>
	</g>
	<g>
		<g>
			<path d="M4667.87,482.5C4667.87,482.5,4667.87,482.5,4667.87,482.5l-281.34-3.01l-178.72-3.28l-298.19-6.1l-50.22-0.67
				l-36.58-0.29l-58.39-0.13l-15.7,0l-103.06,0.17c0,0,0,0,0,0c-0.14,0-0.25-0.11-0.25-0.25c0-0.14,0.11-0.25,0.25-0.25l5.6-0.02
				l105.32-0.15l72.4,0.17l36.66,0.33l56.57,0.81l514.8,9.88l230.9,2.31c0.14,0,0.25,0.11,0.25,0.25
				C4668.12,482.39,4668.01,482.5,4667.87,482.5z"/>
		</g>
	</g>
	<g>
		<g>
			<path d="M4667.87,481.14C4667.87,481.14,4667.87,481.14,4667.87,481.14l-15.96-0.21l-132.3-1.91l-86.07-1.49l-78.29-1.76
				l-148.68-4.25l-268.65-8.35l-44.25-1.05l-31.59-0.58l-24.72-0.33l-25.71-0.19l-45.51-0.12l-15.85,0l-104.64,0.25c0,0,0,0,0,0
				c-0.14,0-0.25-0.11-0.25-0.25s0.11-0.25,0.25-0.25l26.95-0.12l85.62-0.14l53.44,0.12l25.71,0.19l24.72,0.33l31.59,0.58
				l44.26,1.05l75.93,2.23l273.52,8.55l88.95,2.33l64.33,1.38l78.95,1.35l148.26,2.12c0.14,0,0.25,0.12,0.25,0.25
				C4668.12,481.03,4668,481.14,4667.87,481.14z"/>
		</g>
	</g>
	<g>
		<g>
			<path d="M4667.87,479.79C4667.87,479.79,4667.87,479.79,4667.87,479.79l-10.83-0.19l-87.33-1.66l-117.8-2.58l-50.1-1.38
				l-49.19-1.58l-85.53-3.15l-319.63-13.19l-38.03-1.25l-25.6-0.71l-25.38-0.57l-18.68-0.31l-19.05-0.2l-29.22-0.16l-39.63-0.05
				l-106.22,0.34c0,0,0,0,0,0c-0.14,0-0.25-0.11-0.25-0.25c0-0.14,0.11-0.25,0.25-0.25l9.52-0.07l72.95-0.25l31.76-0.02l46.71,0.12
				l27.08,0.22l18.54,0.27l25.27,0.53l25.58,0.68l38.17,1.22l59.99,2.29l310.39,12.82l68.9,2.38l42.78,1.27l44.94,1.15l119.38,2.55
				l80.27,1.49c0.14,0,0.25,0.12,0.24,0.26C4668.12,479.68,4668,479.79,4667.87,479.79z"/>
		</g>
	</g>
	<g>
		<g>
			<path d="M4667.87,478.43C4667.87,478.43,4667.86,478.43,4667.87,478.43l-10.58-0.24l-85.54-2.07l-100.08-2.74l-44.57-1.44
				l-35.42-1.31l-41.6-1.74l-78.48-3.64l-314.57-16.2l-31.68-1.35l-25.77-0.96l-19.34-0.62l-19.18-0.51l-18.88-0.39l-12.56-0.18
				l-20.99-0.19l-31.02-0.13l-24.18-0.02l-107.8,0.42c0,0,0,0,0,0c-0.14,0-0.25-0.11-0.25-0.25c0-0.14,0.11-0.25,0.25-0.25
				l6.75-0.06l61.58-0.3l47.54-0.07l39.62,0.1l21.8,0.16l19.26,0.26l18.88,0.39l19.18,0.51l25.8,0.85l25.72,0.99l37.64,1.66
				l51.91,2.59l262.47,13.64l52.63,2.44l55.27,2.34l35.42,1.31l36.31,1.19l61.8,1.77l142.64,3.53c0.14,0,0.25,0.12,0.24,0.26
				C4668.12,478.33,4668,478.43,4667.87,478.43z"/>
		</g>
	</g>
	<g>
		<g>
			<path d="M4667.87,477.08C4667.87,477.08,4667.86,477.08,4667.87,477.08l-166.9-5.15l-49.23-1.79l-34.86-1.46l-35.02-1.64
				l-54.67-2.86l-56.98-3.28l-297.37-18.4l-31.46-1.68l-25.82-1.23l-19.51-0.82l-19.47-0.7l-12.89-0.4l-12.76-0.33l-12.59-0.25
				l-13.2-0.19l-22-0.19l-31.82-0.12l-16.29-0.01l-68.05,0.21l-41.33,0.3c0,0,0,0,0,0c-0.14,0-0.25-0.11-0.25-0.25
				c0-0.14,0.11-0.25,0.25-0.25l18.84-0.16l58.45-0.29l32.09-0.05l32.43,0.05l23.26,0.13l21.2,0.23l12.7,0.22l12.68,0.29l12.83,0.36
				l19.43,0.66l19.52,0.78l25.9,1.19l31.69,1.65l41.81,2.43l298.89,18.49l53.83,2.91l34.62,1.72l35.13,1.57l36.03,1.43l61.05,2.12
				l139.83,4.23c0.14,0,0.25,0.12,0.24,0.26C4668.12,476.97,4668,477.08,4667.87,477.08z"/>
		</g>
	</g>
	<g>
		<g>
			<path d="M4667.87,475.72C4667.87,475.72,4667.86,475.72,4667.87,475.72l-154.98-5.65l-50.09-2.11l-28.02-1.33l-27.88-1.45
				l-34.6-1.98l-53.94-3.38l-77.35-5.34l-252.49-18.28l-31.1-2l-25.75-1.5l-19.6-1.03l-19.67-0.91l-13.08-0.53l-13.01-0.46
				l-12.89-0.38l-12.73-0.3l-13.34-0.22l-14.56-0.16l-23.46-0.15l-32.72-0.06l-55,0.16l-55.96,0.43c0,0,0,0,0,0
				c-0.14,0-0.25-0.11-0.25-0.25c0-0.14,0.11-0.25,0.25-0.25l14.93-0.15l48.33-0.32l47.7-0.13l32.72,0.06l23.46,0.15l14.57,0.16
				l13.35,0.22l12.73,0.3l12.89,0.38l13.01,0.46l13.09,0.53l19.67,0.91l19.6,1.03l25.76,1.5l31.1,2l40.25,2.81l264.06,19.1
				l45.5,2.99l40.83,2.51l34.7,1.95l34.6,1.74l22.06,1l51.27,2.12l121.14,4.46l24.91,0.83c0.14,0,0.25,0.12,0.24,0.26
				C4668.11,475.61,4668,475.72,4667.87,475.72z"/>
		</g>
	</g>
	<g>
		<g>
			<path d="M4667.87,474.37c0,0-0.01,0-0.01,0l-125.26-5.24l-60.54-2.83l-29.85-1.54l-27.4-1.57l-27.65-1.73l-34.17-2.33l-53.05-3.9
				l-86.99-6.98l-224.87-18.58l-30.96-2.3l-19.26-1.33l-19.6-1.24l-19.78-1.13l-13.22-0.68l-13.2-0.61l-13.13-0.53l-13.02-0.44
				l-12.87-0.34l-13.49-0.25l-14.7-0.19l-23.67-0.17l-33-0.07l-48.1,0.14l-64.43,0.54c0,0,0,0,0,0c-0.14,0-0.25-0.11-0.25-0.25
				c0-0.14,0.11-0.25,0.25-0.25l15.49-0.17l48.95-0.36l39.84-0.14l8.26-0.01l33.01,0.07l23.67,0.17l14.7,0.19l13.49,0.25l12.87,0.34
				l13.03,0.44l13.13,0.53l13.2,0.61l13.22,0.68l19.79,1.13l19.6,1.24l25.58,1.78l30.61,2.31l119.28,9.85l167.88,13.79l44.82,3.41
				l47.36,3.35l27.57,1.8l27.64,1.66l27.81,1.52l40.84,2l53.22,2.41l107.37,4.46c0.14,0.01,0.25,0.12,0.24,0.26
				C4668.11,474.26,4668,474.37,4667.87,474.37z"/>
		</g>
	</g>
	<g>
		<g>
			<path d="M4667.87,473.01c0,0-0.01,0-0.01,0l-140.18-6.81l-50.04-2.73l-21.7-1.29l-27.17-1.77l-27.45-1.95l-27.28-2.08
				l-40.18-3.27l-44.18-3.83l-300.31-27.62l-25.3-2.05l-19.51-1.46l-19.81-1.36l-13.3-0.83l-13.33-0.76l-13.31-0.68l-13.25-0.59
				l-13.15-0.49l-13.01-0.38l-13.63-0.28l-14.84-0.21l-15.75-0.15l-24.68-0.11l-16.73-0.01l-40.81,0.12l-73.3,0.65c0,0,0,0,0,0
				c-0.14,0-0.25-0.11-0.25-0.25c0-0.14,0.11-0.25,0.25-0.25l25.97-0.29l47.33-0.35l32.47-0.11l8.34-0.01l25.05,0.04l24.33,0.15
				l15.33,0.18l14.27,0.25l13.13,0.33l13.09,0.44l13.21,0.54l13.29,0.64l13.33,0.72l13.32,0.8l13.27,0.87l19.73,1.4l19.38,1.49
				l25.05,2.07l40.71,3.62l265.65,24.56l38.57,3.3l40.36,3.25l27.35,2.06l27.43,1.91l27.2,1.73l22.7,1.32l42.17,2.28l111.01,5.48
				l29.16,1.33c0.14,0.01,0.25,0.12,0.24,0.26C4668.11,472.91,4668,473.01,4667.87,473.01z"/>
		</g>
	</g>
	<g>
		<g>
			<path d="M4667.87,471.65c0,0-0.01,0-0.01,0l-111.28-6.06l-43.01-2.52l-39.88-2.5l-20.68-1.42l-20.28-1.5l-20.43-1.61l-27.22-2.28
				l-40.21-3.61l-44.62-4.27l-120.28-12.25l-162.84-16.72l-24.3-2.32l-19-1.72l-19.5-1.66l-13.21-1.05l-13.33-0.99l-13.4-0.93
				l-13.43-0.85l-13.43-0.76l-13.38-0.66l-13.29-0.55l-6.6-0.23l-6.56-0.2l-13.77-0.31l-14.97-0.23l-15.88-0.16l-24.89-0.12
				l-16.88-0.02l-33.18,0.09l-82.51,0.76c0,0,0,0,0,0c-0.14,0-0.25-0.11-0.25-0.25c0-0.14,0.11-0.25,0.25-0.25l38.59-0.44
				l43.92-0.31l33.18-0.09l25.27,0.04l16.5,0.1l15.89,0.16l14.98,0.23l13.77,0.31l6.56,0.2l13.23,0.49l13.34,0.6l13.41,0.71
				l13.44,0.8l13.43,0.89l13.37,0.96l19.86,1.55l19.5,1.66l19,1.72l30.17,2.9l308.79,31.43l39.79,3.65l27.08,2.34l27.25,2.21
				l20.35,1.54l20.22,1.42l22.47,1.46l41.64,2.53l82.73,4.67l54.5,2.89c0.14,0.01,0.24,0.12,0.24,0.26
				C4668.11,471.55,4668,471.65,4667.87,471.65z"/>
		</g>
	</g>
	<g>
		<g>
			<path d="M4667.87,470.3c0,0-0.01,0-0.01,0l-75.79-4.58l-58.51-3.74l-41.12-2.79l-22.24-1.61l-20.08-1.56l-20.16-1.69l-20.3-1.81
				l-27.04-2.55l-33.3-3.32l-38.37-4.03l-86.96-9.65l-203.23-22.88l-24.44-2.56l-19.11-1.89l-19.62-1.82l-13.29-1.15l-13.42-1.09
				l-13.5-1.02l-13.54-0.93l-13.54-0.83l-13.5-0.72l-13.42-0.6l-6.67-0.25l-6.63-0.21l-6.79-0.18l-14.55-0.3l-15.6-0.22l-16.37-0.14
				l-25.35-0.09l-8.52,0l-33.45,0.1l-56.42,0.48l-27.39,0.36c0,0,0,0,0,0c-0.14,0-0.25-0.11-0.25-0.25c0-0.14,0.11-0.25,0.25-0.25
				l39.46-0.49l36.32-0.3l32.99-0.13l8.49-0.01l25.49,0.05l16.64,0.11l16.02,0.18l15.12,0.26l13.91,0.35l6.63,0.21l6.67,0.25
				l13.42,0.6l13.5,0.72l13.54,0.84l13.54,0.93l13.5,1.02l13.42,1.09l13.29,1.15l19.62,1.82l19.11,1.89l30.33,3.19l123.17,13.83
				l148.91,16.73l44.05,4.68l33.12,3.34l26.99,2.58l20.31,1.84l20.22,1.73l19.99,1.6l21.34,1.58l31.97,2.21l59.12,3.84l92.01,5.6
				c0.14,0.01,0.24,0.13,0.24,0.26C4668.11,470.2,4668,470.3,4667.87,470.3z"/>
		</g>
	</g>
</g>
<g opacity="0.75">

		<line fill="none" stroke="#000000" stroke-width="0.5" stroke-linecap="round" stroke-linejoin="round" stroke-miterlimit="10" x1="3645.65" y1="484.96" x2="4667.87" y2="484.96"/>

		<polyline fill="none" stroke="#000000" stroke-width="0.5" stroke-linecap="round" stroke-linejoin="round" stroke-miterlimit="10" points="
		3645.65,488.34 3645.69,488.35 3645.96,488.36 3647.01,488.39 3648.66,488.42 3650.94,488.46 3653.85,488.5 3657.37,488.56
		3661.45,488.62 3666.08,488.69 3671.22,488.76 3676.62,488.85 3682.45,488.93 3688.68,489.02 3695.27,489.12 3702.17,489.22
		3709.36,489.33 3716.79,489.43 3724.42,489.55 3732.22,489.66 3739.89,489.78 3747.65,489.9 3755.45,490.02 3763.28,490.14
		3771.07,490.27 3778.8,490.39 3786.42,490.52 3793.89,490.65 3801.18,490.77 3808.24,490.9 3815.03,491.02 3821.51,491.14
		3827.64,491.26 3833.62,491.38 3839.66,491.51 3845.77,491.64 3851.92,491.78 3858.12,491.91 3864.36,492.06 3870.63,492.2
		3876.93,492.35 3883.25,492.5 3889.59,492.65 3895.93,492.8 3902.28,492.95 3908.62,493.1 3914.95,493.25 3921.27,493.4
		3927.56,493.55 3933.82,493.7 3940.04,493.85 3946.22,493.99 3952.35,494.13 3958.42,494.27 3964.43,494.41 3970.37,494.54
		3976.23,494.66 3982.01,494.78 3987.69,494.9 3993.29,495.01 3998.78,495.11 4003.9,495.21 4008.92,495.3 4013.82,495.39
		4018.6,495.46 4023.43,495.53 4028.49,495.6 4033.78,495.66 4039.27,495.72 4044.96,495.77 4050.82,495.82 4056.85,495.86
		4063.04,495.91 4069.36,495.94 4075.8,495.98 4082.36,496 4089.01,496.03 4095.74,496.05 4102.24,496.06 4108.8,496.07
		4115.4,496.08 4122.04,496.08 4128.69,496.07 4135.33,496.07 4141.96,496.05 4148.57,496.03 4155.12,496.01 4161.62,495.98
		4168.04,495.95 4174.36,495.91 4180.59,495.86 4186.69,495.81 4192.65,495.76 4198.46,495.7 4204.1,495.63 4209.56,495.56
		4214.82,495.48 4220.07,495.4 4225.5,495.3 4231.1,495.2 4236.86,495.09 4242.79,494.97 4248.55,494.84 4254.48,494.7
		4260.55,494.56 4266.76,494.42 4273.12,494.27 4279.61,494.11 4286.21,493.96 4292.94,493.8 4299.77,493.64 4306.7,493.48
		4313.73,493.32 4320.84,493.16 4328.03,493 4334.91,492.84 4341.87,492.68 4348.9,492.53 4356,492.39 4363.16,492.24
		4370.36,492.11 4377.61,491.97 4384.89,491.85 4392.2,491.73 4399.53,491.62 4406.87,491.52 4414.21,491.43 4421.55,491.35
		4428.45,491.28 4435.62,491.22 4443.29,491.17 4451.43,491.13 4459.98,491.09 4468.91,491.06 4478.15,491.03 4487.11,491.01
		4496.37,491 4505.89,490.99 4515.61,490.98 4525.48,490.98 4535.43,490.98 4545.41,490.99 4555.37,490.99 4564.67,491.01
		4573.99,491.02 4583.25,491.04 4592.38,491.05 4601.31,491.07 4609.96,491.09 4617.43,491.11 4624.83,491.13 4632.05,491.15
		4638.97,491.17 4645.44,491.19 4651.31,491.21 4656.41,491.22 4659.7,491.23 4662.93,491.25 4665.75,491.25 4667.51,491.26
		4667.87,491.26 	"/>

		<polyline fill="none" stroke="#000000" stroke-width="0.5" stroke-linecap="round" stroke-linejoin="round" stroke-miterlimit="10" points="
		3645.65,491.73 3645.73,491.74 3646.11,491.77 3647.26,491.81 3649.02,491.87 3651.41,491.95 3654.43,492.05 3658.05,492.16
		3662.23,492.28 3666.95,492.42 3672.18,492.57 3677.68,492.73 3683.61,492.9 3689.94,493.09 3696.61,493.28 3703.6,493.48
		3710.87,493.69 3718.38,493.91 3726.08,494.13 3733.94,494.36 3741.7,494.6 3749.55,494.84 3757.45,495.08 3765.36,495.33
		3773.24,495.58 3781.05,495.83 3788.75,496.08 3796.3,496.33 3803.66,496.58 3810.8,496.83 3817.67,497.08 3824.23,497.32
		3830.45,497.56 3836.51,497.8 3842.63,498.06 3848.8,498.32 3855.03,498.59 3861.3,498.87 3867.6,499.15 3873.94,499.44
		3880.29,499.73 3886.67,500.03 3893.06,500.33 3899.46,500.63 3905.86,500.94 3912.25,501.24 3918.62,501.54 3924.98,501.84
		3931.31,502.14 3937.62,502.44 3943.88,502.73 3950.1,503.02 3956.26,503.31 3962.37,503.58 3968.42,503.85 3974.39,504.11
		3980.29,504.36 3986.1,504.61 3991.83,504.84 3997.46,505.06 4002.98,505.27 4008.18,505.46 4013.27,505.64 4018.24,505.81
		4023.09,505.96 4027.99,506.1 4033.12,506.23 4038.46,506.36 4044.01,506.47 4049.75,506.58 4055.66,506.68 4061.73,506.77
		4067.95,506.85 4074.3,506.93 4080.78,506.99 4087.35,507.05 4094.02,507.1 4100.77,507.13 4107.32,507.16 4113.93,507.18
		4120.57,507.2 4127.24,507.2 4133.93,507.19 4140.61,507.17 4147.27,507.14 4153.89,507.11 4160.47,507.06 4166.99,507
		4173.43,506.94 4179.77,506.86 4186.01,506.77 4192.13,506.67 4198.11,506.56 4203.93,506.44 4209.59,506.31 4215.06,506.16
		4220.34,506.01 4225.6,505.84 4231.03,505.65 4236.63,505.44 4242.39,505.21 4248.3,504.97 4254.08,504.72 4260.01,504.45
		4266.08,504.17 4272.29,503.88 4278.63,503.58 4285.09,503.27 4291.67,502.96 4298.36,502.64 4305.15,502.32 4312.03,502
		4319,501.67 4326.05,501.35 4333.17,501.03 4340.03,500.72 4346.96,500.41 4353.96,500.11 4361.02,499.81 4368.12,499.52
		4375.28,499.25 4382.46,498.99 4389.68,498.74 4396.92,498.5 4404.18,498.29 4411.44,498.09 4418.7,497.91 4425.96,497.75
		4432.82,497.61 4439.94,497.49 4447.55,497.39 4455.6,497.3 4464.04,497.22 4472.84,497.16 4481.94,497.1 4490.81,497.06
		4499.97,497.03 4509.35,497.01 4518.92,497 4528.62,497 4538.39,497 4548.18,497.01 4557.93,497.03 4567.09,497.05 4576.25,497.08
		4585.33,497.11 4594.27,497.14 4603,497.18 4611.44,497.22 4618.8,497.26 4626.06,497.3 4633.11,497.34 4639.83,497.38
		4646.1,497.42 4651.78,497.45 4656.71,497.48 4659.98,497.51 4663.13,497.53 4665.82,497.55 4667.51,497.56 4667.87,497.56 	"/>

		<polyline fill="none" stroke="#000000" stroke-width="0.5" stroke-linecap="round" stroke-linejoin="round" stroke-miterlimit="10" points="
		3645.65,495.11 3645.78,495.13 3646.27,495.17 3647.51,495.24 3649.38,495.33 3651.88,495.45 3655.01,495.59 3658.73,495.76
		3663.01,495.94 3667.82,496.15 3673.13,496.37 3678.74,496.62 3684.78,496.87 3691.19,497.15 3697.96,497.44 3705.03,497.74
		3712.38,498.06 3719.96,498.38 3727.73,498.72 3735.66,499.06 3743.52,499.42 3751.46,499.78 3759.45,500.14 3767.44,500.51
		3775.4,500.89 3783.3,501.26 3791.07,501.64 3798.71,502.02 3806.15,502.39 3813.37,502.76 3820.32,503.14 3826.96,503.5
		3833.25,503.86 3839.4,504.23 3845.59,504.61 3851.84,505 3858.14,505.4 3864.47,505.82 3870.84,506.25 3877.24,506.68
		3883.66,507.12 3890.09,507.56 3896.54,508.01 3902.99,508.47 3909.43,508.92 3915.87,509.38 3922.29,509.83 3928.69,510.29
		3935.07,510.74 3941.41,511.18 3947.71,511.62 3953.97,512.05 3960.18,512.48 3966.32,512.89 3972.4,513.3 3978.41,513.69
		3984.35,514.07 3990.2,514.43 3995.96,514.78 4001.63,515.11 4007.19,515.42 4012.46,515.71 4017.62,515.99 4022.66,516.24
		4027.58,516.46 4032.55,516.67 4037.75,516.87 4043.15,517.05 4048.75,517.23 4054.54,517.39 4060.49,517.54 4066.61,517.67
		4072.86,517.8 4079.25,517.91 4085.75,518.01 4092.35,518.09 4099.04,518.16 4105.8,518.22 4112.4,518.27 4119.05,518.3
		4125.74,518.31 4132.45,518.32 4139.17,518.3 4145.88,518.28 4152.57,518.24 4159.22,518.18 4165.82,518.11 4172.36,518.02
		4178.82,517.92 4185.19,517.81 4191.44,517.67 4197.57,517.52 4203.57,517.36 4209.4,517.18 4215.08,516.98 4220.57,516.76
		4225.86,516.53 4231.13,516.28 4236.57,515.99 4242.17,515.68 4247.91,515.34 4253.81,514.98 4259.6,514.59 4265.54,514.19
		4271.61,513.77 4277.81,513.33 4284.14,512.88 4290.58,512.42 4297.13,511.95 4303.78,511.48 4310.52,511 4317.36,510.52
		4324.28,510.03 4331.27,509.55 4338.32,509.07 4345.16,508.6 4352.06,508.13 4359.02,507.68 4366.03,507.24 4373.09,506.81
		4380.19,506.39 4387.32,506 4394.47,505.63 4401.64,505.28 4408.82,504.95 4416.01,504.65 4423.19,504.38 4430.36,504.14
		4437.19,503.93 4444.26,503.75 4451.8,503.6 4459.76,503.46 4468.1,503.35 4476.77,503.25 4485.73,503.17 4494.51,503.11
		4503.56,503.07 4512.81,503.04 4522.23,503.02 4531.76,503.01 4541.35,503.02 4550.94,503.04 4560.49,503.06 4569.52,503.1
		4578.51,503.14 4587.41,503.19 4596.16,503.24 4604.68,503.29 4612.91,503.35 4620.17,503.41 4627.28,503.47 4634.16,503.53
		4640.69,503.59 4646.76,503.64 4652.24,503.7 4657.01,503.74 4660.27,503.78 4663.32,503.82 4665.9,503.84 4667.5,503.86
		4667.87,503.86 	"/>

		<polyline fill="none" stroke="#000000" stroke-width="0.5" stroke-linecap="round" stroke-linejoin="round" stroke-miterlimit="10" points="
		3645.65,498.49 3645.82,498.51 3646.42,498.57 3647.76,498.66 3649.74,498.79 3652.35,498.95 3655.58,499.14 3659.41,499.35
		3663.79,499.6 3668.69,499.88 3674.09,500.18 3679.8,500.5 3685.94,500.85 3692.45,501.21 3699.3,501.6 3706.46,502
		3713.89,502.42 3721.54,502.86 3729.39,503.31 3737.38,503.77 3745.34,504.24 3753.37,504.72 3761.45,505.2 3769.53,505.7
		3777.57,506.19 3785.54,506.69 3793.4,507.2 3801.11,507.7 3808.64,508.2 3815.93,508.7 3822.96,509.19 3829.68,509.68
		3836.06,510.16 3842.28,510.65 3848.56,511.16 3854.88,511.68 3861.25,512.22 3867.65,512.77 3874.09,513.34 3880.55,513.92
		3887.02,514.5 3893.51,515.1 3900.01,515.7 3906.51,516.3 3913.01,516.91 3919.49,517.52 3925.96,518.12 3932.41,518.73
		3938.82,519.33 3945.21,519.92 3951.55,520.51 3957.84,521.08 3964.09,521.65 3970.27,522.2 3976.39,522.74 3982.44,523.26
		3988.41,523.77 3994.3,524.25 4000.1,524.72 4005.8,525.16 4011.4,525.58 4016.74,525.97 4021.97,526.33 4027.08,526.66
		4032.07,526.96 4037.11,527.24 4042.37,527.5 4047.84,527.75 4053.49,527.98 4059.33,528.2 4065.33,528.39 4071.48,528.58
		4077.78,528.74 4084.19,528.89 4090.72,529.02 4097.35,529.13 4104.06,529.23 4110.83,529.31 4117.48,529.37 4124.18,529.41
		4130.91,529.43 4137.66,529.43 4144.41,529.42 4151.15,529.38 4157.87,529.33 4164.55,529.25 4171.17,529.16 4177.73,529.05
		4184.21,528.91 4190.6,528.75 4196.87,528.58 4203.02,528.38 4209.02,528.16 4214.88,527.92 4220.57,527.65 4226.07,527.37
		4231.38,527.06 4236.67,526.72 4242.11,526.34 4247.7,525.92 4253.44,525.47 4259.32,524.98 4265.13,524.47 4271.07,523.93
		4277.14,523.37 4283.34,522.79 4289.65,522.19 4296.06,521.58 4302.58,520.95 4309.2,520.32 4315.9,519.68 4322.69,519.03
		4329.55,518.39 4336.48,517.75 4343.47,517.11 4350.28,516.48 4357.15,515.86 4364.08,515.25 4371.05,514.66 4378.06,514.09
		4385.1,513.54 4392.17,513.01 4399.26,512.52 4406.36,512.05 4413.47,511.61 4420.58,511.21 4427.68,510.85 4434.77,510.53
		4441.56,510.26 4448.59,510.02 4456.06,509.81 4463.93,509.63 4472.16,509.48 4480.7,509.35 4489.52,509.25 4498.22,509.16
		4507.15,509.1 4516.27,509.06 4525.54,509.04 4534.9,509.03 4544.3,509.04 4553.71,509.06 4563.05,509.1 4571.94,509.14
		4580.77,509.2 4589.5,509.26 4598.05,509.33 4606.37,509.4 4614.39,509.48 4621.55,509.56 4628.51,509.64 4635.21,509.72
		4641.55,509.8 4647.42,509.87 4652.71,509.94 4657.31,510 4660.55,510.06 4663.52,510.1 4665.97,510.13 4667.5,510.15
		4667.87,510.16 	"/>

		<polyline fill="none" stroke="#000000" stroke-width="0.5" stroke-linecap="round" stroke-linejoin="round" stroke-miterlimit="10" points="
		3645.65,501.88 3645.86,501.9 3646.57,501.97 3648.01,502.09 3650.1,502.24 3652.82,502.44 3656.16,502.68 3660.09,502.95
		3664.57,503.26 3669.56,503.61 3675.04,503.98 3680.87,504.38 3687.1,504.82 3693.71,505.28 3700.65,505.76 3707.89,506.26
		3715.4,506.79 3723.13,507.33 3731.04,507.89 3739.11,508.47 3747.15,509.05 3755.28,509.65 3763.44,510.26 3771.61,510.88
		3779.74,511.5 3787.79,512.13 3795.73,512.76 3803.52,513.38 3811.12,514.01 3818.49,514.63 3825.6,515.25 3832.41,515.86
		3838.87,516.46 3845.17,517.07 3851.52,517.7 3857.92,518.36 3864.36,519.03 3870.83,519.73 3877.33,520.44 3883.85,521.16
		3890.39,521.89 3896.94,522.63 3903.49,523.38 3910.04,524.14 3916.58,524.9 3923.12,525.66 3929.63,526.42 3936.12,527.17
		3942.58,527.92 3949,528.66 3955.39,529.4 3961.72,530.12 3968,530.82 3974.22,531.51 3980.38,532.19 3986.46,532.84
		3992.47,533.47 3998.39,534.08 4004.23,534.66 4009.97,535.21 4015.61,535.73 4021.02,536.22 4026.32,536.67 4031.5,537.09
		4036.57,537.46 4041.68,537.81 4047,538.14 4052.52,538.45 4058.23,538.74 4064.12,539.01 4070.17,539.25 4076.36,539.48
		4082.69,539.69 4089.14,539.87 4095.69,540.04 4102.34,540.18 4109.07,540.3 4115.87,540.39 4122.57,540.47 4129.31,540.52
		4136.08,540.55 4142.87,540.55 4149.65,540.53 4156.43,540.49 4163.17,540.42 4169.88,540.33 4176.53,540.21 4183.11,540.07
		4189.6,539.9 4196.01,539.7 4202.29,539.48 4208.46,539.23 4214.48,538.96 4220.35,538.65 4226.06,538.32 4231.58,537.97
		4236.9,537.58 4242.2,537.16 4247.65,536.68 4253.24,536.16 4258.96,535.59 4264.82,534.99 4270.65,534.35 4276.6,533.68
		4282.68,532.97 4288.86,532.25 4295.15,531.5 4301.55,530.73 4308.04,529.95 4314.62,529.16 4321.28,528.36 4328.02,527.55
		4334.82,526.75 4341.69,525.94 4348.62,525.14 4355.41,524.36 4362.25,523.58 4369.14,522.82 4376.06,522.09 4383.03,521.37
		4390.02,520.68 4397.03,520.03 4404.05,519.4 4411.08,518.82 4418.12,518.27 4425.15,517.78 4432.17,517.32 4439.17,516.92
		4445.94,516.58 4452.91,516.28 4460.31,516.02 4468.1,515.8 4476.22,515.61 4484.64,515.45 4493.31,515.32 4501.92,515.21
		4510.74,515.14 4519.73,515.09 4528.85,515.06 4538.04,515.05 4547.26,515.06 4556.47,515.09 4565.61,515.13 4574.36,515.19
		4583.03,515.26 4591.58,515.34 4599.93,515.42 4608.05,515.51 4615.87,515.61 4622.92,515.71 4629.74,515.81 4636.26,515.91
		4642.41,516.01 4648.07,516.1 4653.18,516.18 4657.61,516.26 4660.84,516.33 4663.72,516.39 4666.05,516.43 4667.5,516.45
		4667.87,516.46 	"/>

		<polyline fill="none" stroke="#000000" stroke-width="0.5" stroke-linecap="round" stroke-linejoin="round" stroke-miterlimit="10" points="
		3645.65,505.26 3645.9,505.29 3646.72,505.37 3648.26,505.51 3650.46,505.7 3653.29,505.94 3656.74,506.22 3660.77,506.55
		3665.34,506.92 3670.43,507.34 3676,507.78 3681.93,508.27 3688.26,508.79 3694.96,509.34 3701.99,509.92 3709.32,510.52
		3716.9,511.15 3724.71,511.8 3732.7,512.48 3740.83,513.17 3748.97,513.87 3757.19,514.59 3765.44,515.32 3773.69,516.06
		3781.9,516.81 3790.04,517.56 3798.06,518.32 3805.93,519.07 3813.61,519.82 3821.06,520.57 3828.25,521.31 3835.13,522.04
		3841.67,522.76 3848.06,523.49 3854.49,524.25 3860.96,525.04 3867.47,525.85 3874.01,526.68 3880.57,527.53 3887.16,528.4
		3893.75,529.28 3900.36,530.17 3906.96,531.07 3913.57,531.98 3920.16,532.88 3926.74,533.8 3933.3,534.71 3939.83,535.61
		3946.33,536.51 3952.8,537.4 3959.22,538.28 3965.59,539.15 3971.91,540 3978.17,540.83 3984.36,541.63 3990.49,542.42
		3996.53,543.17 4002.49,543.9 4008.36,544.6 4014.14,545.26 4019.82,545.88 4025.3,546.47 4030.67,547.01 4035.93,547.51
		4041.06,547.97 4046.24,548.38 4051.63,548.78 4057.21,549.15 4062.98,549.49 4068.91,549.81 4075,550.11 4081.24,550.39
		4087.6,550.63 4094.08,550.85 4100.67,551.05 4107.34,551.22 4114.09,551.37 4120.9,551.48 4127.65,551.57 4134.44,551.63
		4141.25,551.67 4148.07,551.67 4154.89,551.65 4161.7,551.6 4168.47,551.51 4175.2,551.4 4181.88,551.26 4188.48,551.09
		4195,550.88 4201.42,550.65 4207.72,550.38 4213.9,550.09 4219.94,549.76 4225.83,549.39 4231.54,549 4237.08,548.57
		4242.42,548.1 4247.73,547.59 4253.18,547.02 4258.77,546.4 4264.49,545.72 4270.33,544.99 4276.18,544.23 4282.14,543.42
		4288.21,542.58 4294.38,541.71 4300.66,540.81 4307.04,539.89 4313.49,538.95 4320.04,538 4326.65,537.04 4333.34,536.07
		4340.1,535.1 4346.9,534.14 4353.77,533.18 4360.53,532.24 4367.34,531.31 4374.19,530.4 4381.08,529.51 4387.99,528.65
		4394.93,527.83 4401.88,527.04 4408.84,526.29 4415.81,525.59 4422.77,524.94 4429.72,524.34 4436.66,523.8 4443.58,523.32
		4450.31,522.9 4457.24,522.55 4464.57,522.24 4472.26,521.97 4480.27,521.74 4488.57,521.54 4497.1,521.39 4505.62,521.27
		4514.33,521.17 4523.19,521.11 4532.15,521.08 4541.18,521.07 4550.22,521.08 4559.23,521.11 4568.17,521.17 4576.79,521.23
		4585.3,521.32 4593.66,521.41 4601.82,521.51 4609.73,521.62 4617.34,521.74 4624.29,521.86 4630.97,521.98 4637.32,522.1
		4643.26,522.22 4648.73,522.33 4653.64,522.43 4657.91,522.52 4661.12,522.6 4663.91,522.67 4666.12,522.72 4667.49,522.75
		4667.87,522.76 	"/>

		<polyline fill="none" stroke="#000000" stroke-width="0.5" stroke-linecap="round" stroke-linejoin="round" stroke-miterlimit="10" points="
		3645.65,508.65 3645.95,508.68 3646.87,508.78 3648.51,508.94 3650.82,509.16 3653.76,509.44 3657.32,509.77 3661.45,510.15
		3666.12,510.58 3671.3,511.06 3676.95,511.59 3682.99,512.15 3689.42,512.76 3696.22,513.4 3703.34,514.08 3710.75,514.78
		3718.41,515.52 3726.29,516.28 3734.35,517.06 3742.55,517.87 3750.79,518.69 3759.1,519.53 3767.44,520.39 3775.78,521.25
		3784.07,522.12 3792.29,523 3800.39,523.88 3808.34,524.75 3816.09,525.63 3823.62,526.5 3830.89,527.37 3837.85,528.22
		3844.48,529.06 3850.94,529.92 3857.45,530.8 3864,531.72 3870.58,532.66 3877.19,533.63 3883.82,534.62 3890.46,535.64
		3897.12,536.66 3903.78,537.7 3910.44,538.75 3917.09,539.81 3923.74,540.87 3930.36,541.94 3936.97,543 3943.55,544.05
		3950.09,545.1 3956.6,546.14 3963.06,547.17 3969.47,548.18 3975.83,549.17 3982.12,550.14 3988.35,551.08 3994.51,551.99
		4000.59,552.88 4006.59,553.72 4012.5,554.54 4018.31,555.31 4024.03,556.04 4029.58,556.72 4035.02,557.36 4040.35,557.94
		4045.55,558.47 4050.8,558.95 4056.25,559.41 4061.9,559.84 4067.72,560.25 4073.7,560.62 4079.84,560.97 4086.11,561.29
		4092.52,561.58 4099.03,561.84 4105.64,562.07 4112.34,562.26 4119.1,562.43 4125.93,562.57 4132.73,562.67 4139.56,562.74
		4146.42,562.78 4153.28,562.79 4160.14,562.76 4166.97,562.7 4173.77,562.61 4180.53,562.48 4187.23,562.31 4193.85,562.11
		4200.39,561.87 4206.83,561.6 4213.15,561.29 4219.34,560.94 4225.4,560.55 4231.3,560.13 4237.03,559.67 4242.58,559.17
		4247.94,558.63 4253.26,558.03 4258.72,557.37 4264.31,556.64 4270.01,555.85 4275.84,555 4281.7,554.1 4287.67,553.16
		4293.74,552.18 4299.91,551.16 4306.17,550.12 4312.52,549.04 4318.95,547.95 4325.46,546.84 4332.03,545.72 4338.67,544.59
		4345.37,543.46 4352.12,542.33 4358.91,541.22 4365.66,540.12 4372.44,539.03 4379.25,537.97 4386.1,536.94 4392.96,535.94
		4399.84,534.97 4406.73,534.05 4413.63,533.18 4420.53,532.36 4427.42,531.6 4434.29,530.9 4441.15,530.27 4447.98,529.71
		4454.68,529.23 4461.56,528.81 4468.83,528.45 4476.43,528.13 4484.33,527.87 4492.5,527.64 4500.89,527.46 4509.32,527.32
		4517.93,527.21 4526.65,527.14 4535.46,527.1 4544.32,527.09 4553.18,527.1 4562,527.14 4570.73,527.2 4579.21,527.28
		4587.56,527.38 4595.74,527.49 4603.71,527.61 4611.42,527.74 4618.82,527.87 4625.66,528.01 4632.19,528.15 4638.37,528.29
		4644.12,528.43 4649.39,528.55 4654.11,528.67 4658.21,528.78 4661.41,528.88 4664.11,528.96 4666.2,529.01 4667.49,529.05
		4667.87,529.06 	"/>

		<polyline fill="none" stroke="#000000" stroke-width="0.5" stroke-linecap="round" stroke-linejoin="round" stroke-miterlimit="10" points="
		3645.65,512.03 3645.99,512.07 3647.02,512.18 3648.76,512.36 3651.18,512.61 3654.23,512.93 3657.89,513.31 3662.13,513.75
		3666.9,514.25 3672.17,514.79 3677.91,515.39 3684.05,516.04 3690.58,516.73 3697.47,517.46 3704.69,518.24 3712.18,519.04
		3719.92,519.88 3727.88,520.75 3736,521.65 3744.27,522.57 3752.61,523.51 3761.01,524.47 3769.44,525.45 3777.86,526.43
		3786.24,527.43 3794.54,528.43 3802.72,529.43 3810.74,530.44 3818.58,531.44 3826.19,532.44 3833.53,533.43 3840.58,534.4
		3847.28,535.36 3853.83,536.34 3860.42,537.35 3867.04,538.4 3873.69,539.48 3880.37,540.59 3887.06,541.72 3893.77,542.88
		3900.48,544.05 3907.2,545.24 3913.91,546.44 3920.62,547.65 3927.31,548.86 3933.99,550.07 3940.64,551.29 3947.26,552.5
		3953.84,553.7 3960.39,554.88 3966.89,556.06 3973.34,557.21 3979.74,558.34 3986.07,559.45 3992.34,560.52 3998.53,561.57
		4004.65,562.58 4010.69,563.55 4016.63,564.48 4022.49,565.36 4028.24,566.19 4033.86,566.97 4039.37,567.7 4044.77,568.36
		4050.04,568.97 4055.36,569.52 4060.88,570.05 4066.58,570.54 4072.46,571 4078.49,571.43 4084.68,571.83 4090.99,572.19
		4097.43,572.52 4103.97,572.82 4110.61,573.08 4117.33,573.31 4124.12,573.5 4130.96,573.66 4137.81,573.77 4144.69,573.86
		4151.59,573.9 4158.49,573.91 4165.38,573.88 4172.25,573.81 4179.08,573.7 4185.86,573.55 4192.58,573.36 4199.22,573.13
		4205.78,572.86 4212.24,572.55 4218.58,572.19 4224.79,571.79 4230.86,571.35 4236.77,570.87 4242.52,570.34 4248.09,569.77
		4253.46,569.15 4258.8,568.47 4264.26,567.71 4269.84,566.88 4275.54,565.97 4281.35,565.01 4287.22,563.98 4293.2,562.91
		4299.27,561.78 4305.43,560.62 4311.68,559.42 4318.01,558.2 4324.41,556.95 4330.88,555.68 4337.41,554.4 4344,553.11
		4350.64,551.82 4357.33,550.53 4364.06,549.25 4370.78,547.99 4377.53,546.75 4384.31,545.54 4391.11,544.36 4397.93,543.22
		4404.76,542.12 4411.59,541.07 4418.42,540.07 4425.25,539.13 4432.06,538.26 4438.86,537.46 4445.64,536.74 4452.39,536.1
		4459.05,535.55 4465.89,535.08 4473.08,534.66 4480.59,534.3 4488.39,533.99 4496.43,533.74 4504.68,533.53 4513.03,533.37
		4521.52,533.25 4530.11,533.16 4538.77,533.12 4547.46,533.1 4556.13,533.12 4564.76,533.17 4573.3,533.24 4581.63,533.33
		4589.82,533.44 4597.82,533.56 4605.6,533.7 4613.1,533.85 4620.29,534 4627.03,534.16 4633.42,534.32 4639.42,534.48
		4644.98,534.63 4650.05,534.78 4654.58,534.92 4658.51,535.04 4661.69,535.15 4664.3,535.24 4666.27,535.31 4667.49,535.35
		4667.87,535.36 	"/>

		<polyline fill="none" stroke="#000000" stroke-width="0.5" stroke-linecap="round" stroke-linejoin="round" stroke-miterlimit="10" points="
		3645.65,515.41 3646.03,515.46 3647.17,515.58 3649.02,515.79 3651.54,516.07 3654.7,516.43 3658.47,516.85 3662.81,517.35
		3667.68,517.91 3673.04,518.52 3678.86,519.2 3685.11,519.92 3691.75,520.7 3698.73,521.53 3706.03,522.4 3713.61,523.3
		3721.43,524.25 3729.46,525.23 3737.66,526.24 3745.99,527.27 3754.42,528.33 3762.92,529.41 3771.43,530.51 3779.94,531.62
		3788.4,532.74 3796.78,533.86 3805.04,534.99 3813.15,536.12 3821.06,537.25 3828.75,538.37 3836.18,539.48 3843.3,540.58
		3850.09,541.66 3856.72,542.76 3863.38,543.9 3870.08,545.08 3876.8,546.29 3883.55,547.54 3890.3,548.81 3897.07,550.11
		3903.85,551.43 3910.62,552.77 3917.39,554.12 3924.15,555.48 3930.89,556.85 3937.61,558.21 3944.31,559.58 3950.97,560.94
		3957.6,562.29 3964.19,563.62 3970.73,564.94 3977.22,566.24 3983.65,567.51 3990.02,568.76 3996.33,569.97 4002.56,571.15
		4008.71,572.28 4014.78,573.37 4020.77,574.42 4026.66,575.41 4032.45,576.35 4038.14,577.22 4043.72,578.04 4049.19,578.79
		4054.53,579.47 4059.92,580.09 4065.51,580.68 4071.27,581.24 4077.2,581.76 4083.28,582.24 4089.51,582.69 4095.87,583.1
		4102.34,583.47 4108.92,583.8 4115.58,584.1 4122.33,584.35 4129.14,584.57 4136,584.74 4142.9,584.88 4149.82,584.97
		4156.76,585.02 4163.69,585.03 4170.62,584.99 4177.52,584.91 4184.38,584.79 4191.19,584.62 4197.93,584.41 4204.6,584.15
		4211.17,583.85 4217.65,583.49 4224,583.1 4230.23,582.65 4236.32,582.15 4242.25,581.61 4248.01,581.02 4253.59,580.37
		4258.98,579.68 4264.33,578.91 4269.8,578.06 4275.38,577.12 4281.06,576.1 4286.86,575.01 4292.75,573.86 4298.73,572.65
		4304.8,571.39 4310.96,570.08 4317.19,568.73 4323.49,567.35 4329.86,565.94 4336.3,564.52 4342.79,563.07 4349.33,561.62
		4355.91,560.17 4362.54,558.73 4369.21,557.29 4375.9,555.87 4382.63,554.48 4389.37,553.11 4396.13,551.79 4402.9,550.5
		4409.67,549.26 4416.44,548.08 4423.21,546.96 4429.97,545.91 4436.71,544.93 4443.43,544.03 4450.13,543.21 4456.79,542.49
		4463.42,541.87 4470.21,541.34 4477.34,540.87 4484.76,540.47 4492.45,540.12 4500.36,539.84 4508.47,539.6 4516.73,539.42
		4525.11,539.28 4533.57,539.19 4542.08,539.14 4550.6,539.12 4559.09,539.14 4567.52,539.19 4575.86,539.27 4584.05,539.37
		4592.08,539.49 4599.9,539.64 4607.48,539.79 4614.78,539.96 4621.77,540.13 4628.4,540.31 4634.65,540.49 4640.47,540.67
		4645.84,540.84 4650.71,541.01 4655.04,541.16 4658.81,541.3 4661.98,541.42 4664.5,541.52 4666.35,541.6 4667.48,541.65
		4667.87,541.66 	"/>
</g>
<g opacity="0.75">
	<path d="M4163.7,585.78l-13.88-0.06l-13.83-0.23l-13.68-0.39l-13.42-0.55l-13.06-0.7l-12.59-0.86l-12.03-1l-5.77-0.56l-5.59-0.59
		l-5.4-0.63l-5.36-0.68l-11.06-1.57l-11.49-1.82l-11.88-2.04l-12.23-2.23l-18.91-3.63l-93.35-18.7l-13.5-2.52l-13.41-2.39
		l-13.29-2.23l-13.9-2.18l-15.11-2.23l-24.27-3.39l-33.86-4.45l-49.3-6.11l-67.96-7.89c-0.41-0.05-0.71-0.42-0.66-0.83
		c0.04-0.41,0.41-0.7,0.83-0.66l53.09,6.11l47.26,5.75l33.96,4.34l25.11,3.38l23.71,3.38l14.56,2.21l13.42,2.18l13.37,2.32
		l13.47,2.46l20.31,3.9l92.48,18.53l12.38,2.31l12.05,2.13l11.67,1.93l11.26,1.69l5.46,0.75l5.34,0.68l5.38,0.62l5.58,0.59
		l5.76,0.56l12,1l12.57,0.86l13.04,0.7l13.4,0.55l13.66,0.39l13.81,0.23l13.87,0.06l13.81-0.11l13.66-0.29l13.4-0.47l6.57-0.3
		l6.47-0.35l6.35-0.4l6.22-0.45l6.08-0.49l5.92-0.54l5.75-0.59l5.57-0.64l5.38-0.69l5.34-0.76l5.46-0.86l5.57-0.94l11.47-2.1
		l11.86-2.36l12.22-2.57l64.95-14.21l13.47-2.76l13.54-2.62l6.78-1.24l6.78-1.18l6.77-1.12l6.77-1.05l6.75-0.98l6.73-0.9l6.71-0.81
		l6.67-0.72l6.64-0.62l6.8-0.54l7.13-0.47l7.43-0.41l7.7-0.34l7.92-0.29l8.11-0.24l16.65-0.32l16.98-0.14l8.52-0.01l16.93,0.07
		l24.57,0.3l29.69,0.64l46.11,1.53c0.41,0.02,0.73,0.37,0.72,0.78c-0.02,0.41-0.37,0.76-0.78,0.72l-22.02-0.82l-24.06-0.71
		l-21.86-0.5l-24.04-0.37l-16.76-0.13l-8.49-0.02l-17.02,0.07l-16.83,0.23l-8.26,0.18l-8.1,0.23l-7.91,0.29l-7.68,0.34l-7.42,0.4
		l-7.12,0.47l-6.78,0.53l-6.62,0.62l-6.65,0.72l-6.69,0.81l-6.71,0.9l-6.73,0.98l-6.75,1.05l-6.76,1.12l-6.77,1.18l-13.53,2.52
		l-13.49,2.69l-13.41,2.81l-70.48,15.36l-11.88,2.36l-11.49,2.11l-5.59,0.94l-5.48,0.86l-5.36,0.77l-5.4,0.7l-5.59,0.64l-5.77,0.59
		l-5.94,0.54l-6.09,0.5l-6.24,0.45l-6.36,0.4l-6.48,0.35l-6.58,0.3l-13.42,0.47l-13.68,0.29L4163.7,585.78z"/>
</g>
<g opacity="0.75">
	<path d="M4667.87,470.8c-0.01,0-0.03,0-0.04,0l-108.78-6.67l-66.65-4.44l-35.66-2.64l-33.59-2.82l-40.59-3.77l-52.77-5.34
		l-118.7-13.11l-202.46-22.7l-31.49-3.17l-26.24-2.4l-20.08-1.66l-20.26-1.5l-13.54-0.89l-13.52-0.78l-13.46-0.66l-13.36-0.54
		l-13.41-0.4l-14.54-0.3l-23.7-0.29l-33.6-0.15l-8.52,0l-56.88,0.25l-60.38,0.68c-0.39,0-0.75-0.32-0.76-0.74
		c-0.01-0.41,0.32-0.75,0.74-0.76l60.39-0.68l48.4-0.24l8.49-0.01l33.88,0.09l24.29,0.24l15.12,0.26l13.92,0.35l13.3,0.47l13.42,0.6
		l13.51,0.72l13.55,0.84l20.31,1.43l20.17,1.61l26.43,2.36l31.83,3.15l68.72,7.5l265.02,29.62l46.33,4.67l40.58,3.76l26.91,2.28
		l27.2,2.09l47.77,3.31l142.75,8.88c0.41,0.02,0.73,0.38,0.71,0.79C4668.59,470.49,4668.26,470.8,4667.87,470.8z"/>
</g>
<g opacity="0.75">
	<g>
		<path fill="#FFFFFF" d="M3627.77,518.38h-0.5c-0.28,0-0.5-0.23-0.5-0.5s0.23-0.5,0.5-0.5h0.5c0.28,0,0.5,0.23,0.5,0.5
			S3628.05,518.38,3627.77,518.38z"/>
	</g>
	<g>
		<path fill="#FFFFFF" d="M4681.02,518.38h-1.01c-0.28,0-0.5-0.23-0.5-0.5s0.23-0.5,0.5-0.5h1.01c0.28,0,0.5,0.23,0.5,0.5
			S4681.29,518.38,4681.02,518.38z M4677.99,518.38h-1.01c-0.28,0-0.5-0.23-0.5-0.5s0.23-0.5,0.5-0.5h1.01c0.28,0,0.5,0.23,0.5,0.5
			S4678.27,518.38,4677.99,518.38z M4674.96,518.38h-1.01c-0.28,0-0.5-0.23-0.5-0.5s0.23-0.5,0.5-0.5h1.01c0.28,0,0.5,0.23,0.5,0.5
			S4675.24,518.38,4674.96,518.38z M4671.94,518.38h-1.01c-0.28,0-0.5-0.23-0.5-0.5s0.23-0.5,0.5-0.5h1.01c0.28,0,0.5,0.23,0.5,0.5
			S4672.21,518.38,4671.94,518.38z M4668.91,518.38h-1.01c-0.28,0-0.5-0.23-0.5-0.5s0.23-0.5,0.5-0.5h1.01c0.28,0,0.5,0.23,0.5,0.5
			S4669.19,518.38,4668.91,518.38z M4665.88,518.38h-1.01c-0.28,0-0.5-0.23-0.5-0.5s0.23-0.5,0.5-0.5h1.01c0.28,0,0.5,0.23,0.5,0.5
			S4666.16,518.38,4665.88,518.38z M4662.86,518.38h-1.01c-0.28,0-0.5-0.23-0.5-0.5s0.23-0.5,0.5-0.5h1.01c0.28,0,0.5,0.23,0.5,0.5
			S4663.13,518.38,4662.86,518.38z M4659.83,518.38h-1.01c-0.28,0-0.5-0.23-0.5-0.5s0.23-0.5,0.5-0.5h1.01c0.28,0,0.5,0.23,0.5,0.5
			S4660.11,518.38,4659.83,518.38z M4656.8,518.38h-1.01c-0.28,0-0.5-0.23-0.5-0.5s0.23-0.5,0.5-0.5h1.01c0.28,0,0.5,0.23,0.5,0.5
			S4657.08,518.38,4656.8,518.38z M4653.78,518.38h-1.01c-0.28,0-0.5-0.23-0.5-0.5s0.23-0.5,0.5-0.5h1.01c0.28,0,0.5,0.23,0.5,0.5
			S4654.05,518.38,4653.78,518.38z M4650.75,518.38h-1.01c-0.28,0-0.5-0.23-0.5-0.5s0.23-0.5,0.5-0.5h1.01c0.28,0,0.5,0.23,0.5,0.5
			S4651.03,518.38,4650.75,518.38z M4647.72,518.38h-1.01c-0.28,0-0.5-0.23-0.5-0.5s0.23-0.5,0.5-0.5h1.01c0.28,0,0.5,0.23,0.5,0.5
			S4648,518.38,4647.72,518.38z M4644.7,518.38h-1.01c-0.28,0-0.5-0.23-0.5-0.5s0.23-0.5,0.5-0.5h1.01c0.28,0,0.5,0.23,0.5,0.5
			S4644.98,518.38,4644.7,518.38z M4641.67,518.38h-1.01c-0.28,0-0.5-0.23-0.5-0.5s0.23-0.5,0.5-0.5h1.01c0.28,0,0.5,0.23,0.5,0.5
			S4641.95,518.38,4641.67,518.38z M4638.64,518.38h-1.01c-0.28,0-0.5-0.23-0.5-0.5s0.23-0.5,0.5-0.5h1.01c0.28,0,0.5,0.23,0.5,0.5
			S4638.92,518.38,4638.64,518.38z M4635.62,518.38h-1.01c-0.28,0-0.5-0.23-0.5-0.5s0.23-0.5,0.5-0.5h1.01c0.28,0,0.5,0.23,0.5,0.5
			S4635.9,518.38,4635.62,518.38z M4632.59,518.38h-1.01c-0.28,0-0.5-0.23-0.5-0.5s0.23-0.5,0.5-0.5h1.01c0.28,0,0.5,0.23,0.5,0.5
			S4632.87,518.38,4632.59,518.38z M4629.56,518.38h-1.01c-0.28,0-0.5-0.23-0.5-0.5s0.23-0.5,0.5-0.5h1.01c0.28,0,0.5,0.23,0.5,0.5
			S4629.84,518.38,4629.56,518.38z M4626.54,518.38h-1.01c-0.28,0-0.5-0.23-0.5-0.5s0.23-0.5,0.5-0.5h1.01c0.28,0,0.5,0.23,0.5,0.5
			S4626.82,518.38,4626.54,518.38z M4623.51,518.38h-1.01c-0.28,0-0.5-0.23-0.5-0.5s0.23-0.5,0.5-0.5h1.01c0.28,0,0.5,0.23,0.5,0.5
			S4623.79,518.38,4623.51,518.38z M4620.48,518.38h-1.01c-0.28,0-0.5-0.23-0.5-0.5s0.23-0.5,0.5-0.5h1.01c0.28,0,0.5,0.23,0.5,0.5
			S4620.76,518.38,4620.48,518.38z M4617.46,518.38h-1.01c-0.28,0-0.5-0.23-0.5-0.5s0.23-0.5,0.5-0.5h1.01c0.28,0,0.5,0.23,0.5,0.5
			S4617.74,518.38,4617.46,518.38z M4614.43,518.38h-1.01c-0.28,0-0.5-0.23-0.5-0.5s0.23-0.5,0.5-0.5h1.01c0.28,0,0.5,0.23,0.5,0.5
			S4614.71,518.38,4614.43,518.38z M4611.4,518.38h-1.01c-0.28,0-0.5-0.23-0.5-0.5s0.23-0.5,0.5-0.5h1.01c0.28,0,0.5,0.23,0.5,0.5
			S4611.68,518.38,4611.4,518.38z M4608.38,518.38h-1.01c-0.28,0-0.5-0.23-0.5-0.5s0.23-0.5,0.5-0.5h1.01c0.28,0,0.5,0.23,0.5,0.5
			S4608.66,518.38,4608.38,518.38z M4605.35,518.38h-1.01c-0.28,0-0.5-0.23-0.5-0.5s0.23-0.5,0.5-0.5h1.01c0.28,0,0.5,0.23,0.5,0.5
			S4605.63,518.38,4605.35,518.38z M4602.33,518.38h-1.01c-0.28,0-0.5-0.23-0.5-0.5s0.23-0.5,0.5-0.5h1.01c0.28,0,0.5,0.23,0.5,0.5
			S4602.6,518.38,4602.33,518.38z M4599.3,518.38h-1.01c-0.28,0-0.5-0.23-0.5-0.5s0.23-0.5,0.5-0.5h1.01c0.28,0,0.5,0.23,0.5,0.5
			S4599.58,518.38,4599.3,518.38z M4596.27,518.38h-1.01c-0.28,0-0.5-0.23-0.5-0.5s0.23-0.5,0.5-0.5h1.01c0.28,0,0.5,0.23,0.5,0.5
			S4596.55,518.38,4596.27,518.38z M4593.25,518.38h-1.01c-0.28,0-0.5-0.23-0.5-0.5s0.23-0.5,0.5-0.5h1.01c0.28,0,0.5,0.23,0.5,0.5
			S4593.52,518.38,4593.25,518.38z M4590.22,518.38h-1.01c-0.28,0-0.5-0.23-0.5-0.5s0.23-0.5,0.5-0.5h1.01c0.28,0,0.5,0.23,0.5,0.5
			S4590.5,518.38,4590.22,518.38z M4587.19,518.38h-1.01c-0.28,0-0.5-0.23-0.5-0.5s0.23-0.5,0.5-0.5h1.01c0.28,0,0.5,0.23,0.5,0.5
			S4587.47,518.38,4587.19,518.38z M4584.17,518.38h-1.01c-0.28,0-0.5-0.23-0.5-0.5s0.23-0.5,0.5-0.5h1.01c0.28,0,0.5,0.23,0.5,0.5
			S4584.44,518.38,4584.17,518.38z M4581.14,518.38h-1.01c-0.28,0-0.5-0.23-0.5-0.5s0.23-0.5,0.5-0.5h1.01c0.28,0,0.5,0.23,0.5,0.5
			S4581.42,518.38,4581.14,518.38z M4578.11,518.38h-1.01c-0.28,0-0.5-0.23-0.5-0.5s0.23-0.5,0.5-0.5h1.01c0.28,0,0.5,0.23,0.5,0.5
			S4578.39,518.38,4578.11,518.38z M4575.08,518.38h-1.01c-0.28,0-0.5-0.23-0.5-0.5s0.23-0.5,0.5-0.5h1.01c0.28,0,0.5,0.23,0.5,0.5
			S4575.36,518.38,4575.08,518.38z M4572.06,518.38h-1.01c-0.28,0-0.5-0.23-0.5-0.5s0.23-0.5,0.5-0.5h1.01c0.28,0,0.5,0.23,0.5,0.5
			S4572.34,518.38,4572.06,518.38z M4569.03,518.38h-1.01c-0.28,0-0.5-0.23-0.5-0.5s0.23-0.5,0.5-0.5h1.01c0.28,0,0.5,0.23,0.5,0.5
			S4569.31,518.38,4569.03,518.38z M4566.01,518.38H4565c-0.28,0-0.5-0.23-0.5-0.5s0.23-0.5,0.5-0.5h1.01c0.28,0,0.5,0.23,0.5,0.5
			S4566.28,518.38,4566.01,518.38z M4562.98,518.38h-1.01c-0.28,0-0.5-0.23-0.5-0.5s0.23-0.5,0.5-0.5h1.01c0.28,0,0.5,0.23,0.5,0.5
			S4563.26,518.38,4562.98,518.38z M4559.95,518.38h-1.01c-0.28,0-0.5-0.23-0.5-0.5s0.23-0.5,0.5-0.5h1.01c0.28,0,0.5,0.23,0.5,0.5
			S4560.23,518.38,4559.95,518.38z M4556.93,518.38h-1.01c-0.28,0-0.5-0.23-0.5-0.5s0.23-0.5,0.5-0.5h1.01c0.28,0,0.5,0.23,0.5,0.5
			S4557.2,518.38,4556.93,518.38z M4553.9,518.38h-1.01c-0.28,0-0.5-0.23-0.5-0.5s0.23-0.5,0.5-0.5h1.01c0.28,0,0.5,0.23,0.5,0.5
			S4554.18,518.38,4553.9,518.38z M4550.87,518.38h-1.01c-0.28,0-0.5-0.23-0.5-0.5s0.23-0.5,0.5-0.5h1.01c0.28,0,0.5,0.23,0.5,0.5
			S4551.15,518.38,4550.87,518.38z M4547.85,518.38h-1.01c-0.28,0-0.5-0.23-0.5-0.5s0.23-0.5,0.5-0.5h1.01c0.28,0,0.5,0.23,0.5,0.5
			S4548.12,518.38,4547.85,518.38z M4544.82,518.38h-1.01c-0.28,0-0.5-0.23-0.5-0.5s0.23-0.5,0.5-0.5h1.01c0.28,0,0.5,0.23,0.5,0.5
			S4545.1,518.38,4544.82,518.38z M4541.79,518.38h-1.01c-0.28,0-0.5-0.23-0.5-0.5s0.23-0.5,0.5-0.5h1.01c0.28,0,0.5,0.23,0.5,0.5
			S4542.07,518.38,4541.79,518.38z M4538.77,518.38h-1.01c-0.28,0-0.5-0.23-0.5-0.5s0.23-0.5,0.5-0.5h1.01c0.28,0,0.5,0.23,0.5,0.5
			S4539.04,518.38,4538.77,518.38z M4535.74,518.38h-1.01c-0.28,0-0.5-0.23-0.5-0.5s0.23-0.5,0.5-0.5h1.01c0.28,0,0.5,0.23,0.5,0.5
			S4536.02,518.38,4535.74,518.38z M4532.71,518.38h-1.01c-0.28,0-0.5-0.23-0.5-0.5s0.23-0.5,0.5-0.5h1.01c0.28,0,0.5,0.23,0.5,0.5
			S4532.99,518.38,4532.71,518.38z M4529.69,518.38h-1.01c-0.28,0-0.5-0.23-0.5-0.5s0.23-0.5,0.5-0.5h1.01c0.28,0,0.5,0.23,0.5,0.5
			S4529.96,518.38,4529.69,518.38z M4526.66,518.38h-1.01c-0.28,0-0.5-0.23-0.5-0.5s0.23-0.5,0.5-0.5h1.01c0.28,0,0.5,0.23,0.5,0.5
			S4526.94,518.38,4526.66,518.38z M4523.63,518.38h-1.01c-0.28,0-0.5-0.23-0.5-0.5s0.23-0.5,0.5-0.5h1.01c0.28,0,0.5,0.23,0.5,0.5
			S4523.91,518.38,4523.63,518.38z M4520.61,518.38h-1.01c-0.28,0-0.5-0.23-0.5-0.5s0.23-0.5,0.5-0.5h1.01c0.28,0,0.5,0.23,0.5,0.5
			S4520.88,518.38,4520.61,518.38z M4517.58,518.38h-1.01c-0.28,0-0.5-0.23-0.5-0.5s0.23-0.5,0.5-0.5h1.01c0.28,0,0.5,0.23,0.5,0.5
			S4517.86,518.38,4517.58,518.38z M4514.55,518.38h-1.01c-0.28,0-0.5-0.23-0.5-0.5s0.23-0.5,0.5-0.5h1.01c0.28,0,0.5,0.23,0.5,0.5
			S4514.83,518.38,4514.55,518.38z M4511.53,518.38h-1.01c-0.28,0-0.5-0.23-0.5-0.5s0.23-0.5,0.5-0.5h1.01c0.28,0,0.5,0.23,0.5,0.5
			S4511.81,518.38,4511.53,518.38z M4508.5,518.38h-1.01c-0.28,0-0.5-0.23-0.5-0.5s0.23-0.5,0.5-0.5h1.01c0.28,0,0.5,0.23,0.5,0.5
			S4508.78,518.38,4508.5,518.38z M4505.47,518.38h-1.01c-0.28,0-0.5-0.23-0.5-0.5s0.23-0.5,0.5-0.5h1.01c0.28,0,0.5,0.23,0.5,0.5
			S4505.75,518.38,4505.47,518.38z M4502.45,518.38h-1.01c-0.28,0-0.5-0.23-0.5-0.5s0.23-0.5,0.5-0.5h1.01c0.28,0,0.5,0.23,0.5,0.5
			S4502.73,518.38,4502.45,518.38z M4499.42,518.38h-1.01c-0.28,0-0.5-0.23-0.5-0.5s0.23-0.5,0.5-0.5h1.01c0.28,0,0.5,0.23,0.5,0.5
			S4499.7,518.38,4499.42,518.38z M4496.39,518.38h-1.01c-0.28,0-0.5-0.23-0.5-0.5s0.23-0.5,0.5-0.5h1.01c0.28,0,0.5,0.23,0.5,0.5
			S4496.67,518.38,4496.39,518.38z M4493.37,518.38h-1.01c-0.28,0-0.5-0.23-0.5-0.5s0.23-0.5,0.5-0.5h1.01c0.28,0,0.5,0.23,0.5,0.5
			S4493.65,518.38,4493.37,518.38z M4490.34,518.38h-1.01c-0.28,0-0.5-0.23-0.5-0.5s0.23-0.5,0.5-0.5h1.01c0.28,0,0.5,0.23,0.5,0.5
			S4490.62,518.38,4490.34,518.38z M4487.31,518.38h-1.01c-0.28,0-0.5-0.23-0.5-0.5s0.23-0.5,0.5-0.5h1.01c0.28,0,0.5,0.23,0.5,0.5
			S4487.59,518.38,4487.31,518.38z M4484.29,518.38h-1.01c-0.28,0-0.5-0.23-0.5-0.5s0.23-0.5,0.5-0.5h1.01c0.28,0,0.5,0.23,0.5,0.5
			S4484.57,518.38,4484.29,518.38z M4481.26,518.38h-1.01c-0.28,0-0.5-0.23-0.5-0.5s0.23-0.5,0.5-0.5h1.01c0.28,0,0.5,0.23,0.5,0.5
			S4481.54,518.38,4481.26,518.38z M4478.23,518.38h-1.01c-0.28,0-0.5-0.23-0.5-0.5s0.23-0.5,0.5-0.5h1.01c0.28,0,0.5,0.23,0.5,0.5
			S4478.51,518.38,4478.23,518.38z M4475.21,518.38h-1.01c-0.28,0-0.5-0.23-0.5-0.5s0.23-0.5,0.5-0.5h1.01c0.28,0,0.5,0.23,0.5,0.5
			S4475.49,518.38,4475.21,518.38z M4472.18,518.38h-1.01c-0.28,0-0.5-0.23-0.5-0.5s0.23-0.5,0.5-0.5h1.01c0.28,0,0.5,0.23,0.5,0.5
			S4472.46,518.38,4472.18,518.38z M4469.16,518.38h-1.01c-0.28,0-0.5-0.23-0.5-0.5s0.23-0.5,0.5-0.5h1.01c0.28,0,0.5,0.23,0.5,0.5
			S4469.43,518.38,4469.16,518.38z M4466.13,518.38h-1.01c-0.28,0-0.5-0.23-0.5-0.5s0.23-0.5,0.5-0.5h1.01c0.28,0,0.5,0.23,0.5,0.5
			S4466.41,518.38,4466.13,518.38z M4463.1,518.38h-1.01c-0.28,0-0.5-0.23-0.5-0.5s0.23-0.5,0.5-0.5h1.01c0.28,0,0.5,0.23,0.5,0.5
			S4463.38,518.38,4463.1,518.38z M4460.08,518.38h-1.01c-0.28,0-0.5-0.23-0.5-0.5s0.23-0.5,0.5-0.5h1.01c0.28,0,0.5,0.23,0.5,0.5
			S4460.35,518.38,4460.08,518.38z M4457.05,518.38h-1.01c-0.28,0-0.5-0.23-0.5-0.5s0.23-0.5,0.5-0.5h1.01c0.28,0,0.5,0.23,0.5,0.5
			S4457.33,518.38,4457.05,518.38z M4454.02,518.38h-1.01c-0.28,0-0.5-0.23-0.5-0.5s0.23-0.5,0.5-0.5h1.01c0.28,0,0.5,0.23,0.5,0.5
			S4454.3,518.38,4454.02,518.38z M4451,518.38h-1.01c-0.28,0-0.5-0.23-0.5-0.5s0.23-0.5,0.5-0.5h1.01c0.28,0,0.5,0.23,0.5,0.5
			S4451.27,518.38,4451,518.38z M4447.97,518.38h-1.01c-0.28,0-0.5-0.23-0.5-0.5s0.23-0.5,0.5-0.5h1.01c0.28,0,0.5,0.23,0.5,0.5
			S4448.25,518.38,4447.97,518.38z M4444.94,518.38h-1.01c-0.28,0-0.5-0.23-0.5-0.5s0.23-0.5,0.5-0.5h1.01c0.28,0,0.5,0.23,0.5,0.5
			S4445.22,518.38,4444.94,518.38z M4441.92,518.38h-1.01c-0.28,0-0.5-0.23-0.5-0.5s0.23-0.5,0.5-0.5h1.01c0.28,0,0.5,0.23,0.5,0.5
			S4442.19,518.38,4441.92,518.38z M4438.89,518.38h-1.01c-0.28,0-0.5-0.23-0.5-0.5s0.23-0.5,0.5-0.5h1.01c0.28,0,0.5,0.23,0.5,0.5
			S4439.17,518.38,4438.89,518.38z M4435.86,518.38h-1.01c-0.28,0-0.5-0.23-0.5-0.5s0.23-0.5,0.5-0.5h1.01c0.28,0,0.5,0.23,0.5,0.5
			S4436.14,518.38,4435.86,518.38z M4432.84,518.38h-1.01c-0.28,0-0.5-0.23-0.5-0.5s0.23-0.5,0.5-0.5h1.01c0.28,0,0.5,0.23,0.5,0.5
			S4433.11,518.38,4432.84,518.38z M4429.81,518.38h-1.01c-0.28,0-0.5-0.23-0.5-0.5s0.23-0.5,0.5-0.5h1.01c0.28,0,0.5,0.23,0.5,0.5
			S4430.09,518.38,4429.81,518.38z M4426.78,518.38h-1.01c-0.28,0-0.5-0.23-0.5-0.5s0.23-0.5,0.5-0.5h1.01c0.28,0,0.5,0.23,0.5,0.5
			S4427.06,518.38,4426.78,518.38z M4423.76,518.38h-1.01c-0.28,0-0.5-0.23-0.5-0.5s0.23-0.5,0.5-0.5h1.01c0.28,0,0.5,0.23,0.5,0.5
			S4424.03,518.38,4423.76,518.38z M4420.73,518.38h-1.01c-0.28,0-0.5-0.23-0.5-0.5s0.23-0.5,0.5-0.5h1.01c0.28,0,0.5,0.23,0.5,0.5
			S4421.01,518.38,4420.73,518.38z M4417.7,518.38h-1.01c-0.28,0-0.5-0.23-0.5-0.5s0.23-0.5,0.5-0.5h1.01c0.28,0,0.5,0.23,0.5,0.5
			S4417.98,518.38,4417.7,518.38z M4414.68,518.38h-1.01c-0.28,0-0.5-0.23-0.5-0.5s0.23-0.5,0.5-0.5h1.01c0.28,0,0.5,0.23,0.5,0.5
			S4414.96,518.38,4414.68,518.38z M4411.65,518.38h-1.01c-0.28,0-0.5-0.23-0.5-0.5s0.23-0.5,0.5-0.5h1.01c0.28,0,0.5,0.23,0.5,0.5
			S4411.93,518.38,4411.65,518.38z M4408.62,518.38h-1.01c-0.28,0-0.5-0.23-0.5-0.5s0.23-0.5,0.5-0.5h1.01c0.28,0,0.5,0.23,0.5,0.5
			S4408.9,518.38,4408.62,518.38z M4405.6,518.38h-1.01c-0.28,0-0.5-0.23-0.5-0.5s0.23-0.5,0.5-0.5h1.01c0.28,0,0.5,0.23,0.5,0.5
			S4405.88,518.38,4405.6,518.38z M4402.57,518.38h-1.01c-0.28,0-0.5-0.23-0.5-0.5s0.23-0.5,0.5-0.5h1.01c0.28,0,0.5,0.23,0.5,0.5
			S4402.85,518.38,4402.57,518.38z M4399.54,518.38h-1.01c-0.28,0-0.5-0.23-0.5-0.5s0.23-0.5,0.5-0.5h1.01c0.28,0,0.5,0.23,0.5,0.5
			S4399.82,518.38,4399.54,518.38z M4396.52,518.38h-1.01c-0.28,0-0.5-0.23-0.5-0.5s0.23-0.5,0.5-0.5h1.01c0.28,0,0.5,0.23,0.5,0.5
			S4396.79,518.38,4396.52,518.38z M4393.49,518.38h-1.01c-0.28,0-0.5-0.23-0.5-0.5s0.23-0.5,0.5-0.5h1.01c0.28,0,0.5,0.23,0.5,0.5
			S4393.77,518.38,4393.49,518.38z M4390.46,518.38h-1.01c-0.28,0-0.5-0.23-0.5-0.5s0.23-0.5,0.5-0.5h1.01c0.28,0,0.5,0.23,0.5,0.5
			S4390.74,518.38,4390.46,518.38z M4387.44,518.38h-1.01c-0.28,0-0.5-0.23-0.5-0.5s0.23-0.5,0.5-0.5h1.01c0.28,0,0.5,0.23,0.5,0.5
			S4387.72,518.38,4387.44,518.38z M4384.41,518.38h-1.01c-0.28,0-0.5-0.23-0.5-0.5s0.23-0.5,0.5-0.5h1.01c0.28,0,0.5,0.23,0.5,0.5
			S4384.69,518.38,4384.41,518.38z M4381.38,518.38h-1.01c-0.28,0-0.5-0.23-0.5-0.5s0.23-0.5,0.5-0.5h1.01c0.28,0,0.5,0.23,0.5,0.5
			S4381.66,518.38,4381.38,518.38z M4378.36,518.38h-1.01c-0.28,0-0.5-0.23-0.5-0.5s0.23-0.5,0.5-0.5h1.01c0.28,0,0.5,0.23,0.5,0.5
			S4378.64,518.38,4378.36,518.38z M4375.33,518.38h-1.01c-0.28,0-0.5-0.23-0.5-0.5s0.23-0.5,0.5-0.5h1.01c0.28,0,0.5,0.23,0.5,0.5
			S4375.61,518.38,4375.33,518.38z M4372.3,518.38h-1.01c-0.28,0-0.5-0.23-0.5-0.5s0.23-0.5,0.5-0.5h1.01c0.28,0,0.5,0.23,0.5,0.5
			S4372.58,518.38,4372.3,518.38z M4369.28,518.38h-1.01c-0.28,0-0.5-0.23-0.5-0.5s0.23-0.5,0.5-0.5h1.01c0.28,0,0.5,0.23,0.5,0.5
			S4369.56,518.38,4369.28,518.38z M4366.25,518.38h-1.01c-0.28,0-0.5-0.23-0.5-0.5s0.23-0.5,0.5-0.5h1.01c0.28,0,0.5,0.23,0.5,0.5
			S4366.53,518.38,4366.25,518.38z M4363.22,518.38h-1.01c-0.28,0-0.5-0.23-0.5-0.5s0.23-0.5,0.5-0.5h1.01c0.28,0,0.5,0.23,0.5,0.5
			S4363.5,518.38,4363.22,518.38z M4360.2,518.38h-1.01c-0.28,0-0.5-0.23-0.5-0.5s0.23-0.5,0.5-0.5h1.01c0.28,0,0.5,0.23,0.5,0.5
			S4360.48,518.38,4360.2,518.38z M4357.17,518.38h-1.01c-0.28,0-0.5-0.23-0.5-0.5s0.23-0.5,0.5-0.5h1.01c0.28,0,0.5,0.23,0.5,0.5
			S4357.45,518.38,4357.17,518.38z M4354.14,518.38h-1.01c-0.28,0-0.5-0.23-0.5-0.5s0.23-0.5,0.5-0.5h1.01c0.28,0,0.5,0.23,0.5,0.5
			S4354.42,518.38,4354.14,518.38z M4351.12,518.38h-1.01c-0.28,0-0.5-0.23-0.5-0.5s0.23-0.5,0.5-0.5h1.01c0.28,0,0.5,0.23,0.5,0.5
			S4351.4,518.38,4351.12,518.38z M4348.09,518.38h-1.01c-0.28,0-0.5-0.23-0.5-0.5s0.23-0.5,0.5-0.5h1.01c0.28,0,0.5,0.23,0.5,0.5
			S4348.37,518.38,4348.09,518.38z M4345.07,518.38h-1.01c-0.28,0-0.5-0.23-0.5-0.5s0.23-0.5,0.5-0.5h1.01c0.28,0,0.5,0.23,0.5,0.5
			S4345.34,518.38,4345.07,518.38z M4342.04,518.38h-1.01c-0.28,0-0.5-0.23-0.5-0.5s0.23-0.5,0.5-0.5h1.01c0.28,0,0.5,0.23,0.5,0.5
			S4342.32,518.38,4342.04,518.38z M4339.01,518.38H4338c-0.28,0-0.5-0.23-0.5-0.5s0.23-0.5,0.5-0.5h1.01c0.28,0,0.5,0.23,0.5,0.5
			S4339.29,518.38,4339.01,518.38z M4335.99,518.38h-1.01c-0.28,0-0.5-0.23-0.5-0.5s0.23-0.5,0.5-0.5h1.01c0.28,0,0.5,0.23,0.5,0.5
			S4336.26,518.38,4335.99,518.38z M4332.96,518.38h-1.01c-0.28,0-0.5-0.23-0.5-0.5s0.23-0.5,0.5-0.5h1.01c0.28,0,0.5,0.23,0.5,0.5
			S4333.24,518.38,4332.96,518.38z M4329.93,518.38h-1.01c-0.28,0-0.5-0.23-0.5-0.5s0.23-0.5,0.5-0.5h1.01c0.28,0,0.5,0.23,0.5,0.5
			S4330.21,518.38,4329.93,518.38z M4326.91,518.38h-1.01c-0.28,0-0.5-0.23-0.5-0.5s0.23-0.5,0.5-0.5h1.01c0.28,0,0.5,0.23,0.5,0.5
			S4327.18,518.38,4326.91,518.38z M4323.88,518.38h-1.01c-0.28,0-0.5-0.23-0.5-0.5s0.23-0.5,0.5-0.5h1.01c0.28,0,0.5,0.23,0.5,0.5
			S4324.16,518.38,4323.88,518.38z M4320.85,518.38h-1.01c-0.28,0-0.5-0.23-0.5-0.5s0.23-0.5,0.5-0.5h1.01c0.28,0,0.5,0.23,0.5,0.5
			S4321.13,518.38,4320.85,518.38z M4317.83,518.38h-1.01c-0.28,0-0.5-0.23-0.5-0.5s0.23-0.5,0.5-0.5h1.01c0.28,0,0.5,0.23,0.5,0.5
			S4318.1,518.38,4317.83,518.38z M4314.8,518.38h-1.01c-0.28,0-0.5-0.23-0.5-0.5s0.23-0.5,0.5-0.5h1.01c0.28,0,0.5,0.23,0.5,0.5
			S4315.08,518.38,4314.8,518.38z M4311.77,518.38h-1.01c-0.28,0-0.5-0.23-0.5-0.5s0.23-0.5,0.5-0.5h1.01c0.28,0,0.5,0.23,0.5,0.5
			S4312.05,518.38,4311.77,518.38z M4308.75,518.38h-1.01c-0.28,0-0.5-0.23-0.5-0.5s0.23-0.5,0.5-0.5h1.01c0.28,0,0.5,0.23,0.5,0.5
			S4309.02,518.38,4308.75,518.38z M4305.72,518.38h-1.01c-0.28,0-0.5-0.23-0.5-0.5s0.23-0.5,0.5-0.5h1.01c0.28,0,0.5,0.23,0.5,0.5
			S4306,518.38,4305.72,518.38z M4302.69,518.38h-1.01c-0.28,0-0.5-0.23-0.5-0.5s0.23-0.5,0.5-0.5h1.01c0.28,0,0.5,0.23,0.5,0.5
			S4302.97,518.38,4302.69,518.38z M4299.67,518.38h-1.01c-0.28,0-0.5-0.23-0.5-0.5s0.23-0.5,0.5-0.5h1.01c0.28,0,0.5,0.23,0.5,0.5
			S4299.94,518.38,4299.67,518.38z M4296.64,518.38h-1.01c-0.28,0-0.5-0.23-0.5-0.5s0.23-0.5,0.5-0.5h1.01c0.28,0,0.5,0.23,0.5,0.5
			S4296.92,518.38,4296.64,518.38z M4293.61,518.38h-1.01c-0.28,0-0.5-0.23-0.5-0.5s0.23-0.5,0.5-0.5h1.01c0.28,0,0.5,0.23,0.5,0.5
			S4293.89,518.38,4293.61,518.38z M4290.59,518.38h-1.01c-0.28,0-0.5-0.23-0.5-0.5s0.23-0.5,0.5-0.5h1.01c0.28,0,0.5,0.23,0.5,0.5
			S4290.87,518.38,4290.59,518.38z M4287.56,518.38h-1.01c-0.28,0-0.5-0.23-0.5-0.5s0.23-0.5,0.5-0.5h1.01c0.28,0,0.5,0.23,0.5,0.5
			S4287.84,518.38,4287.56,518.38z M4284.53,518.38h-1.01c-0.28,0-0.5-0.23-0.5-0.5s0.23-0.5,0.5-0.5h1.01c0.28,0,0.5,0.23,0.5,0.5
			S4284.81,518.38,4284.53,518.38z M4281.51,518.38h-1.01c-0.28,0-0.5-0.23-0.5-0.5s0.23-0.5,0.5-0.5h1.01c0.28,0,0.5,0.23,0.5,0.5
			S4281.79,518.38,4281.51,518.38z M4278.48,518.38h-1.01c-0.28,0-0.5-0.23-0.5-0.5s0.23-0.5,0.5-0.5h1.01c0.28,0,0.5,0.23,0.5,0.5
			S4278.76,518.38,4278.48,518.38z M4275.45,518.38h-1.01c-0.28,0-0.5-0.23-0.5-0.5s0.23-0.5,0.5-0.5h1.01c0.28,0,0.5,0.23,0.5,0.5
			S4275.73,518.38,4275.45,518.38z M4272.43,518.38h-1.01c-0.28,0-0.5-0.23-0.5-0.5s0.23-0.5,0.5-0.5h1.01c0.28,0,0.5,0.23,0.5,0.5
			S4272.71,518.38,4272.43,518.38z M4269.4,518.38h-1.01c-0.28,0-0.5-0.23-0.5-0.5s0.23-0.5,0.5-0.5h1.01c0.28,0,0.5,0.23,0.5,0.5
			S4269.68,518.38,4269.4,518.38z M4266.37,518.38h-1.01c-0.28,0-0.5-0.23-0.5-0.5s0.23-0.5,0.5-0.5h1.01c0.28,0,0.5,0.23,0.5,0.5
			S4266.65,518.38,4266.37,518.38z M4263.35,518.38h-1.01c-0.28,0-0.5-0.23-0.5-0.5s0.23-0.5,0.5-0.5h1.01c0.28,0,0.5,0.23,0.5,0.5
			S4263.62,518.38,4263.35,518.38z M4260.32,518.38h-1.01c-0.28,0-0.5-0.23-0.5-0.5s0.23-0.5,0.5-0.5h1.01c0.28,0,0.5,0.23,0.5,0.5
			S4260.6,518.38,4260.32,518.38z M4257.29,518.38h-1.01c-0.28,0-0.5-0.23-0.5-0.5s0.23-0.5,0.5-0.5h1.01c0.28,0,0.5,0.23,0.5,0.5
			S4257.57,518.38,4257.29,518.38z M4254.27,518.38h-1.01c-0.28,0-0.5-0.23-0.5-0.5s0.23-0.5,0.5-0.5h1.01c0.28,0,0.5,0.23,0.5,0.5
			S4254.55,518.38,4254.27,518.38z M4251.24,518.38h-1.01c-0.28,0-0.5-0.23-0.5-0.5s0.23-0.5,0.5-0.5h1.01c0.28,0,0.5,0.23,0.5,0.5
			S4251.52,518.38,4251.24,518.38z M4248.21,518.38h-1.01c-0.28,0-0.5-0.23-0.5-0.5s0.23-0.5,0.5-0.5h1.01c0.28,0,0.5,0.23,0.5,0.5
			S4248.49,518.38,4248.21,518.38z M4245.19,518.38h-1.01c-0.28,0-0.5-0.23-0.5-0.5s0.23-0.5,0.5-0.5h1.01c0.28,0,0.5,0.23,0.5,0.5
			S4245.47,518.38,4245.19,518.38z M4242.16,518.38h-1.01c-0.28,0-0.5-0.23-0.5-0.5s0.23-0.5,0.5-0.5h1.01c0.28,0,0.5,0.23,0.5,0.5
			S4242.44,518.38,4242.16,518.38z M4239.13,518.38h-1.01c-0.28,0-0.5-0.23-0.5-0.5s0.23-0.5,0.5-0.5h1.01c0.28,0,0.5,0.23,0.5,0.5
			S4239.41,518.38,4239.13,518.38z M4236.11,518.38h-1.01c-0.28,0-0.5-0.23-0.5-0.5s0.23-0.5,0.5-0.5h1.01c0.28,0,0.5,0.23,0.5,0.5
			S4236.39,518.38,4236.11,518.38z M4233.08,518.38h-1.01c-0.28,0-0.5-0.23-0.5-0.5s0.23-0.5,0.5-0.5h1.01c0.28,0,0.5,0.23,0.5,0.5
			S4233.36,518.38,4233.08,518.38z M4230.05,518.38h-1.01c-0.28,0-0.5-0.23-0.5-0.5s0.23-0.5,0.5-0.5h1.01c0.28,0,0.5,0.23,0.5,0.5
			S4230.33,518.38,4230.05,518.38z M4227.03,518.38h-1.01c-0.28,0-0.5-0.23-0.5-0.5s0.23-0.5,0.5-0.5h1.01c0.28,0,0.5,0.23,0.5,0.5
			S4227.31,518.38,4227.03,518.38z M4224,518.38h-1.01c-0.28,0-0.5-0.23-0.5-0.5s0.23-0.5,0.5-0.5h1.01c0.28,0,0.5,0.23,0.5,0.5
			S4224.28,518.38,4224,518.38z M4220.97,518.38h-1.01c-0.28,0-0.5-0.23-0.5-0.5s0.23-0.5,0.5-0.5h1.01c0.28,0,0.5,0.23,0.5,0.5
			S4221.25,518.38,4220.97,518.38z M4217.95,518.38h-1.01c-0.28,0-0.5-0.23-0.5-0.5s0.23-0.5,0.5-0.5h1.01c0.28,0,0.5,0.23,0.5,0.5
			S4218.23,518.38,4217.95,518.38z M4214.92,518.38h-1.01c-0.28,0-0.5-0.23-0.5-0.5s0.23-0.5,0.5-0.5h1.01c0.28,0,0.5,0.23,0.5,0.5
			S4215.2,518.38,4214.92,518.38z M4211.9,518.38h-1.01c-0.28,0-0.5-0.23-0.5-0.5s0.23-0.5,0.5-0.5h1.01c0.28,0,0.5,0.23,0.5,0.5
			S4212.17,518.38,4211.9,518.38z M4208.87,518.38h-1.01c-0.28,0-0.5-0.23-0.5-0.5s0.23-0.5,0.5-0.5h1.01c0.28,0,0.5,0.23,0.5,0.5
			S4209.15,518.38,4208.87,518.38z M4205.84,518.38h-1.01c-0.28,0-0.5-0.23-0.5-0.5s0.23-0.5,0.5-0.5h1.01c0.28,0,0.5,0.23,0.5,0.5
			S4206.12,518.38,4205.84,518.38z M4202.82,518.38h-1.01c-0.28,0-0.5-0.23-0.5-0.5s0.23-0.5,0.5-0.5h1.01c0.28,0,0.5,0.23,0.5,0.5
			S4203.09,518.38,4202.82,518.38z M4199.79,518.38h-1.01c-0.28,0-0.5-0.23-0.5-0.5s0.23-0.5,0.5-0.5h1.01c0.28,0,0.5,0.23,0.5,0.5
			S4200.07,518.38,4199.79,518.38z M4196.76,518.38h-1.01c-0.28,0-0.5-0.23-0.5-0.5s0.23-0.5,0.5-0.5h1.01c0.28,0,0.5,0.23,0.5,0.5
			S4197.04,518.38,4196.76,518.38z M4193.74,518.38h-1.01c-0.28,0-0.5-0.23-0.5-0.5s0.23-0.5,0.5-0.5h1.01c0.28,0,0.5,0.23,0.5,0.5
			S4194.01,518.38,4193.74,518.38z M4190.71,518.38h-1.01c-0.28,0-0.5-0.23-0.5-0.5s0.23-0.5,0.5-0.5h1.01c0.28,0,0.5,0.23,0.5,0.5
			S4190.99,518.38,4190.71,518.38z M4187.68,518.38h-1.01c-0.28,0-0.5-0.23-0.5-0.5s0.23-0.5,0.5-0.5h1.01c0.28,0,0.5,0.23,0.5,0.5
			S4187.96,518.38,4187.68,518.38z M4184.66,518.38h-1.01c-0.28,0-0.5-0.23-0.5-0.5s0.23-0.5,0.5-0.5h1.01c0.28,0,0.5,0.23,0.5,0.5
			S4184.93,518.38,4184.66,518.38z M4181.63,518.38h-1.01c-0.28,0-0.5-0.23-0.5-0.5s0.23-0.5,0.5-0.5h1.01c0.28,0,0.5,0.23,0.5,0.5
			S4181.91,518.38,4181.63,518.38z M4178.6,518.38h-1.01c-0.28,0-0.5-0.23-0.5-0.5s0.23-0.5,0.5-0.5h1.01c0.28,0,0.5,0.23,0.5,0.5
			S4178.88,518.38,4178.6,518.38z M4175.58,518.38h-1.01c-0.28,0-0.5-0.23-0.5-0.5s0.23-0.5,0.5-0.5h1.01c0.28,0,0.5,0.23,0.5,0.5
			S4175.85,518.38,4175.58,518.38z M4172.55,518.38h-1.01c-0.28,0-0.5-0.23-0.5-0.5s0.23-0.5,0.5-0.5h1.01c0.28,0,0.5,0.23,0.5,0.5
			S4172.83,518.38,4172.55,518.38z M4169.52,518.38h-1.01c-0.28,0-0.5-0.23-0.5-0.5s0.23-0.5,0.5-0.5h1.01c0.28,0,0.5,0.23,0.5,0.5
			S4169.8,518.38,4169.52,518.38z M4166.5,518.38h-1.01c-0.28,0-0.5-0.23-0.5-0.5s0.23-0.5,0.5-0.5h1.01c0.28,0,0.5,0.23,0.5,0.5
			S4166.77,518.38,4166.5,518.38z M4163.47,518.38h-1.01c-0.28,0-0.5-0.23-0.5-0.5s0.23-0.5,0.5-0.5h1.01c0.28,0,0.5,0.23,0.5,0.5
			S4163.75,518.38,4163.47,518.38z M4160.44,518.38h-1.01c-0.28,0-0.5-0.23-0.5-0.5s0.23-0.5,0.5-0.5h1.01c0.28,0,0.5,0.23,0.5,0.5
			S4160.72,518.38,4160.44,518.38z M4157.42,518.38h-1.01c-0.28,0-0.5-0.23-0.5-0.5s0.23-0.5,0.5-0.5h1.01c0.28,0,0.5,0.23,0.5,0.5
			S4157.7,518.38,4157.42,518.38z M4154.39,518.38h-1.01c-0.28,0-0.5-0.23-0.5-0.5s0.23-0.5,0.5-0.5h1.01c0.28,0,0.5,0.23,0.5,0.5
			S4154.67,518.38,4154.39,518.38z M4151.36,518.38h-1.01c-0.28,0-0.5-0.23-0.5-0.5s0.23-0.5,0.5-0.5h1.01c0.28,0,0.5,0.23,0.5,0.5
			S4151.64,518.38,4151.36,518.38z M4148.34,518.38h-1.01c-0.28,0-0.5-0.23-0.5-0.5s0.23-0.5,0.5-0.5h1.01c0.28,0,0.5,0.23,0.5,0.5
			S4148.62,518.38,4148.34,518.38z M4145.31,518.38h-1.01c-0.28,0-0.5-0.23-0.5-0.5s0.23-0.5,0.5-0.5h1.01c0.28,0,0.5,0.23,0.5,0.5
			S4145.59,518.38,4145.31,518.38z M4142.28,518.38h-1.01c-0.28,0-0.5-0.23-0.5-0.5s0.23-0.5,0.5-0.5h1.01c0.28,0,0.5,0.23,0.5,0.5
			S4142.56,518.38,4142.28,518.38z M4139.26,518.38h-1.01c-0.28,0-0.5-0.23-0.5-0.5s0.23-0.5,0.5-0.5h1.01c0.28,0,0.5,0.23,0.5,0.5
			S4139.54,518.38,4139.26,518.38z M4136.23,518.38h-1.01c-0.28,0-0.5-0.23-0.5-0.5s0.23-0.5,0.5-0.5h1.01c0.28,0,0.5,0.23,0.5,0.5
			S4136.51,518.38,4136.23,518.38z M4133.2,518.38h-1.01c-0.28,0-0.5-0.23-0.5-0.5s0.23-0.5,0.5-0.5h1.01c0.28,0,0.5,0.23,0.5,0.5
			S4133.48,518.38,4133.2,518.38z M4130.18,518.38h-1.01c-0.28,0-0.5-0.23-0.5-0.5s0.23-0.5,0.5-0.5h1.01c0.28,0,0.5,0.23,0.5,0.5
			S4130.46,518.38,4130.18,518.38z M4127.15,518.38h-1.01c-0.28,0-0.5-0.23-0.5-0.5s0.23-0.5,0.5-0.5h1.01c0.28,0,0.5,0.23,0.5,0.5
			S4127.43,518.38,4127.15,518.38z M4124.12,518.38h-1.01c-0.28,0-0.5-0.23-0.5-0.5s0.23-0.5,0.5-0.5h1.01c0.28,0,0.5,0.23,0.5,0.5
			S4124.4,518.38,4124.12,518.38z M4121.1,518.38h-1.01c-0.28,0-0.5-0.23-0.5-0.5s0.23-0.5,0.5-0.5h1.01c0.28,0,0.5,0.23,0.5,0.5
			S4121.38,518.38,4121.1,518.38z M4118.07,518.38h-1.01c-0.28,0-0.5-0.23-0.5-0.5s0.23-0.5,0.5-0.5h1.01c0.28,0,0.5,0.23,0.5,0.5
			S4118.35,518.38,4118.07,518.38z M4115.04,518.38h-1.01c-0.28,0-0.5-0.23-0.5-0.5s0.23-0.5,0.5-0.5h1.01c0.28,0,0.5,0.23,0.5,0.5
			S4115.32,518.38,4115.04,518.38z M4112.02,518.38h-1.01c-0.28,0-0.5-0.23-0.5-0.5s0.23-0.5,0.5-0.5h1.01c0.28,0,0.5,0.23,0.5,0.5
			S4112.3,518.38,4112.02,518.38z M4108.99,518.38h-1.01c-0.28,0-0.5-0.23-0.5-0.5s0.23-0.5,0.5-0.5h1.01c0.28,0,0.5,0.23,0.5,0.5
			S4109.27,518.38,4108.99,518.38z M4105.96,518.38h-1.01c-0.28,0-0.5-0.23-0.5-0.5s0.23-0.5,0.5-0.5h1.01c0.28,0,0.5,0.23,0.5,0.5
			S4106.24,518.38,4105.96,518.38z M4102.94,518.38h-1.01c-0.28,0-0.5-0.23-0.5-0.5s0.23-0.5,0.5-0.5h1.01c0.28,0,0.5,0.23,0.5,0.5
			S4103.22,518.38,4102.94,518.38z M4099.91,518.38h-1.01c-0.28,0-0.5-0.23-0.5-0.5s0.23-0.5,0.5-0.5h1.01c0.28,0,0.5,0.23,0.5,0.5
			S4100.19,518.38,4099.91,518.38z M4096.89,518.38h-1.01c-0.28,0-0.5-0.23-0.5-0.5s0.23-0.5,0.5-0.5h1.01c0.28,0,0.5,0.23,0.5,0.5
			S4097.16,518.38,4096.89,518.38z M4093.86,518.38h-1.01c-0.28,0-0.5-0.23-0.5-0.5s0.23-0.5,0.5-0.5h1.01c0.28,0,0.5,0.23,0.5,0.5
			S4094.14,518.38,4093.86,518.38z M4090.83,518.38h-1.01c-0.28,0-0.5-0.23-0.5-0.5s0.23-0.5,0.5-0.5h1.01c0.28,0,0.5,0.23,0.5,0.5
			S4091.11,518.38,4090.83,518.38z M4087.81,518.38h-1.01c-0.28,0-0.5-0.23-0.5-0.5s0.23-0.5,0.5-0.5h1.01c0.28,0,0.5,0.23,0.5,0.5
			S4088.08,518.38,4087.81,518.38z M4084.78,518.38h-1.01c-0.28,0-0.5-0.23-0.5-0.5s0.23-0.5,0.5-0.5h1.01c0.28,0,0.5,0.23,0.5,0.5
			S4085.06,518.38,4084.78,518.38z M4081.75,518.38h-1.01c-0.28,0-0.5-0.23-0.5-0.5s0.23-0.5,0.5-0.5h1.01c0.28,0,0.5,0.23,0.5,0.5
			S4082.03,518.38,4081.75,518.38z M4078.73,518.38h-1.01c-0.28,0-0.5-0.23-0.5-0.5s0.23-0.5,0.5-0.5h1.01c0.28,0,0.5,0.23,0.5,0.5
			S4079,518.38,4078.73,518.38z M4075.7,518.38h-1.01c-0.28,0-0.5-0.23-0.5-0.5s0.23-0.5,0.5-0.5h1.01c0.28,0,0.5,0.23,0.5,0.5
			S4075.98,518.38,4075.7,518.38z M4072.67,518.38h-1.01c-0.28,0-0.5-0.23-0.5-0.5s0.23-0.5,0.5-0.5h1.01c0.28,0,0.5,0.23,0.5,0.5
			S4072.95,518.38,4072.67,518.38z M4069.65,518.38h-1.01c-0.28,0-0.5-0.23-0.5-0.5s0.23-0.5,0.5-0.5h1.01c0.28,0,0.5,0.23,0.5,0.5
			S4069.92,518.38,4069.65,518.38z M4066.62,518.38h-1.01c-0.28,0-0.5-0.23-0.5-0.5s0.23-0.5,0.5-0.5h1.01c0.28,0,0.5,0.23,0.5,0.5
			S4066.9,518.38,4066.62,518.38z M4063.59,518.38h-1.01c-0.28,0-0.5-0.23-0.5-0.5s0.23-0.5,0.5-0.5h1.01c0.28,0,0.5,0.23,0.5,0.5
			S4063.87,518.38,4063.59,518.38z M4060.57,518.38h-1.01c-0.28,0-0.5-0.23-0.5-0.5s0.23-0.5,0.5-0.5h1.01c0.28,0,0.5,0.23,0.5,0.5
			S4060.85,518.38,4060.57,518.38z M4057.54,518.38h-1.01c-0.28,0-0.5-0.23-0.5-0.5s0.23-0.5,0.5-0.5h1.01c0.28,0,0.5,0.23,0.5,0.5
			S4057.82,518.38,4057.54,518.38z M4054.51,518.38h-1.01c-0.28,0-0.5-0.23-0.5-0.5s0.23-0.5,0.5-0.5h1.01c0.28,0,0.5,0.23,0.5,0.5
			S4054.79,518.38,4054.51,518.38z M4051.49,518.38h-1.01c-0.28,0-0.5-0.23-0.5-0.5s0.23-0.5,0.5-0.5h1.01c0.28,0,0.5,0.23,0.5,0.5
			S4051.77,518.38,4051.49,518.38z M4048.46,518.38h-1.01c-0.28,0-0.5-0.23-0.5-0.5s0.23-0.5,0.5-0.5h1.01c0.28,0,0.5,0.23,0.5,0.5
			S4048.74,518.38,4048.46,518.38z M4045.43,518.38h-1.01c-0.28,0-0.5-0.23-0.5-0.5s0.23-0.5,0.5-0.5h1.01c0.28,0,0.5,0.23,0.5,0.5
			S4045.71,518.38,4045.43,518.38z M4042.41,518.38h-1.01c-0.28,0-0.5-0.23-0.5-0.5s0.23-0.5,0.5-0.5h1.01c0.28,0,0.5,0.23,0.5,0.5
			S4042.69,518.38,4042.41,518.38z M4039.38,518.38h-1.01c-0.28,0-0.5-0.23-0.5-0.5s0.23-0.5,0.5-0.5h1.01c0.28,0,0.5,0.23,0.5,0.5
			S4039.66,518.38,4039.38,518.38z M4036.35,518.38h-1.01c-0.28,0-0.5-0.23-0.5-0.5s0.23-0.5,0.5-0.5h1.01c0.28,0,0.5,0.23,0.5,0.5
			S4036.63,518.38,4036.35,518.38z M4033.33,518.38h-1.01c-0.28,0-0.5-0.23-0.5-0.5s0.23-0.5,0.5-0.5h1.01c0.28,0,0.5,0.23,0.5,0.5
			S4033.61,518.38,4033.33,518.38z M4030.3,518.38h-1.01c-0.28,0-0.5-0.23-0.5-0.5s0.23-0.5,0.5-0.5h1.01c0.28,0,0.5,0.23,0.5,0.5
			S4030.58,518.38,4030.3,518.38z M4027.27,518.38h-1.01c-0.28,0-0.5-0.23-0.5-0.5s0.23-0.5,0.5-0.5h1.01c0.28,0,0.5,0.23,0.5,0.5
			S4027.55,518.38,4027.27,518.38z M4024.25,518.38h-1.01c-0.28,0-0.5-0.23-0.5-0.5s0.23-0.5,0.5-0.5h1.01c0.28,0,0.5,0.23,0.5,0.5
			S4024.53,518.38,4024.25,518.38z M4021.22,518.38h-1.01c-0.28,0-0.5-0.23-0.5-0.5s0.23-0.5,0.5-0.5h1.01c0.28,0,0.5,0.23,0.5,0.5
			S4021.5,518.38,4021.22,518.38z M4018.2,518.38h-1.01c-0.28,0-0.5-0.23-0.5-0.5s0.23-0.5,0.5-0.5h1.01c0.28,0,0.5,0.23,0.5,0.5
			S4018.47,518.38,4018.2,518.38z M4015.17,518.38h-1.01c-0.28,0-0.5-0.23-0.5-0.5s0.23-0.5,0.5-0.5h1.01c0.28,0,0.5,0.23,0.5,0.5
			S4015.45,518.38,4015.17,518.38z M4012.14,518.38h-1.01c-0.28,0-0.5-0.23-0.5-0.5s0.23-0.5,0.5-0.5h1.01c0.28,0,0.5,0.23,0.5,0.5
			S4012.42,518.38,4012.14,518.38z M4009.12,518.38h-1.01c-0.28,0-0.5-0.23-0.5-0.5s0.23-0.5,0.5-0.5h1.01c0.28,0,0.5,0.23,0.5,0.5
			S4009.39,518.38,4009.12,518.38z M4006.09,518.38h-1.01c-0.28,0-0.5-0.23-0.5-0.5s0.23-0.5,0.5-0.5h1.01c0.28,0,0.5,0.23,0.5,0.5
			S4006.37,518.38,4006.09,518.38z M4003.06,518.38h-1.01c-0.28,0-0.5-0.23-0.5-0.5s0.23-0.5,0.5-0.5h1.01c0.28,0,0.5,0.23,0.5,0.5
			S4003.34,518.38,4003.06,518.38z M4000.04,518.38h-1.01c-0.28,0-0.5-0.23-0.5-0.5s0.23-0.5,0.5-0.5h1.01c0.28,0,0.5,0.23,0.5,0.5
			S4000.31,518.38,4000.04,518.38z M3997.01,518.38H3996c-0.28,0-0.5-0.23-0.5-0.5s0.23-0.5,0.5-0.5h1.01c0.28,0,0.5,0.23,0.5,0.5
			S3997.29,518.38,3997.01,518.38z M3993.98,518.38h-1.01c-0.28,0-0.5-0.23-0.5-0.5s0.23-0.5,0.5-0.5h1.01c0.28,0,0.5,0.23,0.5,0.5
			S3994.26,518.38,3993.98,518.38z M3990.96,518.38h-1.01c-0.28,0-0.5-0.23-0.5-0.5s0.23-0.5,0.5-0.5h1.01c0.28,0,0.5,0.23,0.5,0.5
			S3991.23,518.38,3990.96,518.38z M3987.93,518.38h-1.01c-0.28,0-0.5-0.23-0.5-0.5s0.23-0.5,0.5-0.5h1.01c0.28,0,0.5,0.23,0.5,0.5
			S3988.21,518.38,3987.93,518.38z M3984.9,518.38h-1.01c-0.28,0-0.5-0.23-0.5-0.5s0.23-0.5,0.5-0.5h1.01c0.28,0,0.5,0.23,0.5,0.5
			S3985.18,518.38,3984.9,518.38z M3981.88,518.38h-1.01c-0.28,0-0.5-0.23-0.5-0.5s0.23-0.5,0.5-0.5h1.01c0.28,0,0.5,0.23,0.5,0.5
			S3982.16,518.38,3981.88,518.38z M3978.85,518.38h-1.01c-0.28,0-0.5-0.23-0.5-0.5s0.23-0.5,0.5-0.5h1.01c0.28,0,0.5,0.23,0.5,0.5
			S3979.13,518.38,3978.85,518.38z M3975.82,518.38h-1.01c-0.28,0-0.5-0.23-0.5-0.5s0.23-0.5,0.5-0.5h1.01c0.28,0,0.5,0.23,0.5,0.5
			S3976.1,518.38,3975.82,518.38z M3972.8,518.38h-1.01c-0.28,0-0.5-0.23-0.5-0.5s0.23-0.5,0.5-0.5h1.01c0.28,0,0.5,0.23,0.5,0.5
			S3973.08,518.38,3972.8,518.38z M3969.77,518.38h-1.01c-0.28,0-0.5-0.23-0.5-0.5s0.23-0.5,0.5-0.5h1.01c0.28,0,0.5,0.23,0.5,0.5
			S3970.05,518.38,3969.77,518.38z M3966.74,518.38h-1.01c-0.28,0-0.5-0.23-0.5-0.5s0.23-0.5,0.5-0.5h1.01c0.28,0,0.5,0.23,0.5,0.5
			S3967.02,518.38,3966.74,518.38z M3963.72,518.38h-1.01c-0.28,0-0.5-0.23-0.5-0.5s0.23-0.5,0.5-0.5h1.01c0.28,0,0.5,0.23,0.5,0.5
			S3964,518.38,3963.72,518.38z M3960.69,518.38h-1.01c-0.28,0-0.5-0.23-0.5-0.5s0.23-0.5,0.5-0.5h1.01c0.28,0,0.5,0.23,0.5,0.5
			S3960.97,518.38,3960.69,518.38z M3957.66,518.38h-1.01c-0.28,0-0.5-0.23-0.5-0.5s0.23-0.5,0.5-0.5h1.01c0.28,0,0.5,0.23,0.5,0.5
			S3957.94,518.38,3957.66,518.38z M3954.64,518.38h-1.01c-0.28,0-0.5-0.23-0.5-0.5s0.23-0.5,0.5-0.5h1.01c0.28,0,0.5,0.23,0.5,0.5
			S3954.92,518.38,3954.64,518.38z M3951.61,518.38h-1.01c-0.28,0-0.5-0.23-0.5-0.5s0.23-0.5,0.5-0.5h1.01c0.28,0,0.5,0.23,0.5,0.5
			S3951.89,518.38,3951.61,518.38z M3948.58,518.38h-1.01c-0.28,0-0.5-0.23-0.5-0.5s0.23-0.5,0.5-0.5h1.01c0.28,0,0.5,0.23,0.5,0.5
			S3948.86,518.38,3948.58,518.38z M3945.56,518.38h-1.01c-0.28,0-0.5-0.23-0.5-0.5s0.23-0.5,0.5-0.5h1.01c0.28,0,0.5,0.23,0.5,0.5
			S3945.84,518.38,3945.56,518.38z M3942.53,518.38h-1.01c-0.28,0-0.5-0.23-0.5-0.5s0.23-0.5,0.5-0.5h1.01c0.28,0,0.5,0.23,0.5,0.5
			S3942.81,518.38,3942.53,518.38z M3939.5,518.38h-1.01c-0.28,0-0.5-0.23-0.5-0.5s0.23-0.5,0.5-0.5h1.01c0.28,0,0.5,0.23,0.5,0.5
			S3939.78,518.38,3939.5,518.38z M3936.48,518.38h-1.01c-0.28,0-0.5-0.23-0.5-0.5s0.23-0.5,0.5-0.5h1.01c0.28,0,0.5,0.23,0.5,0.5
			S3936.76,518.38,3936.48,518.38z M3933.45,518.38h-1.01c-0.28,0-0.5-0.23-0.5-0.5s0.23-0.5,0.5-0.5h1.01c0.28,0,0.5,0.23,0.5,0.5
			S3933.73,518.38,3933.45,518.38z M3930.42,518.38h-1.01c-0.28,0-0.5-0.23-0.5-0.5s0.23-0.5,0.5-0.5h1.01c0.28,0,0.5,0.23,0.5,0.5
			S3930.7,518.38,3930.42,518.38z M3927.4,518.38h-1.01c-0.28,0-0.5-0.23-0.5-0.5s0.23-0.5,0.5-0.5h1.01c0.28,0,0.5,0.23,0.5,0.5
			S3927.68,518.38,3927.4,518.38z M3924.37,518.38h-1.01c-0.28,0-0.5-0.23-0.5-0.5s0.23-0.5,0.5-0.5h1.01c0.28,0,0.5,0.23,0.5,0.5
			S3924.65,518.38,3924.37,518.38z M3921.35,518.38h-1.01c-0.28,0-0.5-0.23-0.5-0.5s0.23-0.5,0.5-0.5h1.01c0.28,0,0.5,0.23,0.5,0.5
			S3921.62,518.38,3921.35,518.38z M3918.32,518.38h-1.01c-0.28,0-0.5-0.23-0.5-0.5s0.23-0.5,0.5-0.5h1.01c0.28,0,0.5,0.23,0.5,0.5
			S3918.6,518.38,3918.32,518.38z M3915.29,518.38h-1.01c-0.28,0-0.5-0.23-0.5-0.5s0.23-0.5,0.5-0.5h1.01c0.28,0,0.5,0.23,0.5,0.5
			S3915.57,518.38,3915.29,518.38z M3912.27,518.38h-1.01c-0.28,0-0.5-0.23-0.5-0.5s0.23-0.5,0.5-0.5h1.01c0.28,0,0.5,0.23,0.5,0.5
			S3912.54,518.38,3912.27,518.38z M3909.24,518.38h-1.01c-0.28,0-0.5-0.23-0.5-0.5s0.23-0.5,0.5-0.5h1.01c0.28,0,0.5,0.23,0.5,0.5
			S3909.52,518.38,3909.24,518.38z M3906.21,518.38h-1.01c-0.28,0-0.5-0.23-0.5-0.5s0.23-0.5,0.5-0.5h1.01c0.28,0,0.5,0.23,0.5,0.5
			S3906.49,518.38,3906.21,518.38z M3903.19,518.38h-1.01c-0.28,0-0.5-0.23-0.5-0.5s0.23-0.5,0.5-0.5h1.01c0.28,0,0.5,0.23,0.5,0.5
			S3903.46,518.38,3903.19,518.38z M3900.16,518.38h-1.01c-0.28,0-0.5-0.23-0.5-0.5s0.23-0.5,0.5-0.5h1.01c0.28,0,0.5,0.23,0.5,0.5
			S3900.44,518.38,3900.16,518.38z M3897.13,518.38h-1.01c-0.28,0-0.5-0.23-0.5-0.5s0.23-0.5,0.5-0.5h1.01c0.28,0,0.5,0.23,0.5,0.5
			S3897.41,518.38,3897.13,518.38z M3894.11,518.38h-1.01c-0.28,0-0.5-0.23-0.5-0.5s0.23-0.5,0.5-0.5h1.01c0.28,0,0.5,0.23,0.5,0.5
			S3894.38,518.38,3894.11,518.38z M3891.08,518.38h-1.01c-0.28,0-0.5-0.23-0.5-0.5s0.23-0.5,0.5-0.5h1.01c0.28,0,0.5,0.23,0.5,0.5
			S3891.36,518.38,3891.08,518.38z M3888.05,518.38h-1.01c-0.28,0-0.5-0.23-0.5-0.5s0.23-0.5,0.5-0.5h1.01c0.28,0,0.5,0.23,0.5,0.5
			S3888.33,518.38,3888.05,518.38z M3885.03,518.38h-1.01c-0.28,0-0.5-0.23-0.5-0.5s0.23-0.5,0.5-0.5h1.01c0.28,0,0.5,0.23,0.5,0.5
			S3885.3,518.38,3885.03,518.38z M3882,518.38h-1.01c-0.28,0-0.5-0.23-0.5-0.5s0.23-0.5,0.5-0.5h1.01c0.28,0,0.5,0.23,0.5,0.5
			S3882.28,518.38,3882,518.38z M3878.97,518.38h-1.01c-0.28,0-0.5-0.23-0.5-0.5s0.23-0.5,0.5-0.5h1.01c0.28,0,0.5,0.23,0.5,0.5
			S3879.25,518.38,3878.97,518.38z M3875.95,518.38h-1.01c-0.28,0-0.5-0.23-0.5-0.5s0.23-0.5,0.5-0.5h1.01c0.28,0,0.5,0.23,0.5,0.5
			S3876.23,518.38,3875.95,518.38z M3872.92,518.38h-1.01c-0.28,0-0.5-0.23-0.5-0.5s0.23-0.5,0.5-0.5h1.01c0.28,0,0.5,0.23,0.5,0.5
			S3873.2,518.38,3872.92,518.38z M3869.89,518.38h-1.01c-0.28,0-0.5-0.23-0.5-0.5s0.23-0.5,0.5-0.5h1.01c0.28,0,0.5,0.23,0.5,0.5
			S3870.17,518.38,3869.89,518.38z M3866.87,518.38h-1.01c-0.28,0-0.5-0.23-0.5-0.5s0.23-0.5,0.5-0.5h1.01c0.28,0,0.5,0.23,0.5,0.5
			S3867.15,518.38,3866.87,518.38z M3863.84,518.38h-1.01c-0.28,0-0.5-0.23-0.5-0.5s0.23-0.5,0.5-0.5h1.01c0.28,0,0.5,0.23,0.5,0.5
			S3864.12,518.38,3863.84,518.38z M3860.81,518.38h-1.01c-0.28,0-0.5-0.23-0.5-0.5s0.23-0.5,0.5-0.5h1.01c0.28,0,0.5,0.23,0.5,0.5
			S3861.09,518.38,3860.81,518.38z M3857.79,518.38h-1.01c-0.28,0-0.5-0.23-0.5-0.5s0.23-0.5,0.5-0.5h1.01c0.28,0,0.5,0.23,0.5,0.5
			S3858.07,518.38,3857.79,518.38z M3854.76,518.38h-1.01c-0.28,0-0.5-0.23-0.5-0.5s0.23-0.5,0.5-0.5h1.01c0.28,0,0.5,0.23,0.5,0.5
			S3855.04,518.38,3854.76,518.38z M3851.73,518.38h-1.01c-0.28,0-0.5-0.23-0.5-0.5s0.23-0.5,0.5-0.5h1.01c0.28,0,0.5,0.23,0.5,0.5
			S3852.01,518.38,3851.73,518.38z M3848.71,518.38h-1.01c-0.28,0-0.5-0.23-0.5-0.5s0.23-0.5,0.5-0.5h1.01c0.28,0,0.5,0.23,0.5,0.5
			S3848.99,518.38,3848.71,518.38z M3845.68,518.38h-1.01c-0.28,0-0.5-0.23-0.5-0.5s0.23-0.5,0.5-0.5h1.01c0.28,0,0.5,0.23,0.5,0.5
			S3845.96,518.38,3845.68,518.38z M3842.66,518.38h-1.01c-0.28,0-0.5-0.23-0.5-0.5s0.23-0.5,0.5-0.5h1.01c0.28,0,0.5,0.23,0.5,0.5
			S3842.93,518.38,3842.66,518.38z M3839.63,518.38h-1.01c-0.28,0-0.5-0.23-0.5-0.5s0.23-0.5,0.5-0.5h1.01c0.28,0,0.5,0.23,0.5,0.5
			S3839.91,518.38,3839.63,518.38z M3836.6,518.38h-1.01c-0.28,0-0.5-0.23-0.5-0.5s0.23-0.5,0.5-0.5h1.01c0.28,0,0.5,0.23,0.5,0.5
			S3836.88,518.38,3836.6,518.38z M3833.58,518.38h-1.01c-0.28,0-0.5-0.23-0.5-0.5s0.23-0.5,0.5-0.5h1.01c0.28,0,0.5,0.23,0.5,0.5
			S3833.85,518.38,3833.58,518.38z M3830.55,518.38h-1.01c-0.28,0-0.5-0.23-0.5-0.5s0.23-0.5,0.5-0.5h1.01c0.28,0,0.5,0.23,0.5,0.5
			S3830.83,518.38,3830.55,518.38z M3827.52,518.38h-1.01c-0.28,0-0.5-0.23-0.5-0.5s0.23-0.5,0.5-0.5h1.01c0.28,0,0.5,0.23,0.5,0.5
			S3827.8,518.38,3827.52,518.38z M3824.5,518.38h-1.01c-0.28,0-0.5-0.23-0.5-0.5s0.23-0.5,0.5-0.5h1.01c0.28,0,0.5,0.23,0.5,0.5
			S3824.77,518.38,3824.5,518.38z M3821.47,518.38h-1.01c-0.28,0-0.5-0.23-0.5-0.5s0.23-0.5,0.5-0.5h1.01c0.28,0,0.5,0.23,0.5,0.5
			S3821.75,518.38,3821.47,518.38z M3818.44,518.38h-1.01c-0.28,0-0.5-0.23-0.5-0.5s0.23-0.5,0.5-0.5h1.01c0.28,0,0.5,0.23,0.5,0.5
			S3818.72,518.38,3818.44,518.38z M3815.42,518.38h-1.01c-0.28,0-0.5-0.23-0.5-0.5s0.23-0.5,0.5-0.5h1.01c0.28,0,0.5,0.23,0.5,0.5
			S3815.69,518.38,3815.42,518.38z M3812.39,518.38h-1.01c-0.28,0-0.5-0.23-0.5-0.5s0.23-0.5,0.5-0.5h1.01c0.28,0,0.5,0.23,0.5,0.5
			S3812.67,518.38,3812.39,518.38z M3809.36,518.38h-1.01c-0.28,0-0.5-0.23-0.5-0.5s0.23-0.5,0.5-0.5h1.01c0.28,0,0.5,0.23,0.5,0.5
			S3809.64,518.38,3809.36,518.38z M3806.34,518.38h-1.01c-0.28,0-0.5-0.23-0.5-0.5s0.23-0.5,0.5-0.5h1.01c0.28,0,0.5,0.23,0.5,0.5
			S3806.61,518.38,3806.34,518.38z M3803.31,518.38h-1.01c-0.28,0-0.5-0.23-0.5-0.5s0.23-0.5,0.5-0.5h1.01c0.28,0,0.5,0.23,0.5,0.5
			S3803.59,518.38,3803.31,518.38z M3800.28,518.38h-1.01c-0.28,0-0.5-0.23-0.5-0.5s0.23-0.5,0.5-0.5h1.01c0.28,0,0.5,0.23,0.5,0.5
			S3800.56,518.38,3800.28,518.38z M3797.26,518.38h-1.01c-0.28,0-0.5-0.23-0.5-0.5s0.23-0.5,0.5-0.5h1.01c0.28,0,0.5,0.23,0.5,0.5
			S3797.54,518.38,3797.26,518.38z M3794.23,518.38h-1.01c-0.28,0-0.5-0.23-0.5-0.5s0.23-0.5,0.5-0.5h1.01c0.28,0,0.5,0.23,0.5,0.5
			S3794.51,518.38,3794.23,518.38z M3791.2,518.38h-1.01c-0.28,0-0.5-0.23-0.5-0.5s0.23-0.5,0.5-0.5h1.01c0.28,0,0.5,0.23,0.5,0.5
			S3791.48,518.38,3791.2,518.38z M3788.18,518.38h-1.01c-0.28,0-0.5-0.23-0.5-0.5s0.23-0.5,0.5-0.5h1.01c0.28,0,0.5,0.23,0.5,0.5
			S3788.46,518.38,3788.18,518.38z M3785.15,518.38h-1.01c-0.28,0-0.5-0.23-0.5-0.5s0.23-0.5,0.5-0.5h1.01c0.28,0,0.5,0.23,0.5,0.5
			S3785.43,518.38,3785.15,518.38z M3782.12,518.38h-1.01c-0.28,0-0.5-0.23-0.5-0.5s0.23-0.5,0.5-0.5h1.01c0.28,0,0.5,0.23,0.5,0.5
			S3782.4,518.38,3782.12,518.38z M3779.1,518.38h-1.01c-0.28,0-0.5-0.23-0.5-0.5s0.23-0.5,0.5-0.5h1.01c0.28,0,0.5,0.23,0.5,0.5
			S3779.38,518.38,3779.1,518.38z M3776.07,518.38h-1.01c-0.28,0-0.5-0.23-0.5-0.5s0.23-0.5,0.5-0.5h1.01c0.28,0,0.5,0.23,0.5,0.5
			S3776.35,518.38,3776.07,518.38z M3773.04,518.38h-1.01c-0.28,0-0.5-0.23-0.5-0.5s0.23-0.5,0.5-0.5h1.01c0.28,0,0.5,0.23,0.5,0.5
			S3773.32,518.38,3773.04,518.38z M3770.02,518.38h-1.01c-0.28,0-0.5-0.23-0.5-0.5s0.23-0.5,0.5-0.5h1.01c0.28,0,0.5,0.23,0.5,0.5
			S3770.3,518.38,3770.02,518.38z M3766.99,518.38h-1.01c-0.28,0-0.5-0.23-0.5-0.5s0.23-0.5,0.5-0.5h1.01c0.28,0,0.5,0.23,0.5,0.5
			S3767.27,518.38,3766.99,518.38z M3763.96,518.38h-1.01c-0.28,0-0.5-0.23-0.5-0.5s0.23-0.5,0.5-0.5h1.01c0.28,0,0.5,0.23,0.5,0.5
			S3764.24,518.38,3763.96,518.38z M3760.94,518.38h-1.01c-0.28,0-0.5-0.23-0.5-0.5s0.23-0.5,0.5-0.5h1.01c0.28,0,0.5,0.23,0.5,0.5
			S3761.22,518.38,3760.94,518.38z M3757.91,518.38h-1.01c-0.28,0-0.5-0.23-0.5-0.5s0.23-0.5,0.5-0.5h1.01c0.28,0,0.5,0.23,0.5,0.5
			S3758.19,518.38,3757.91,518.38z M3754.88,518.38h-1.01c-0.28,0-0.5-0.23-0.5-0.5s0.23-0.5,0.5-0.5h1.01c0.28,0,0.5,0.23,0.5,0.5
			S3755.16,518.38,3754.88,518.38z M3751.86,518.38h-1.01c-0.28,0-0.5-0.23-0.5-0.5s0.23-0.5,0.5-0.5h1.01c0.28,0,0.5,0.23,0.5,0.5
			S3752.14,518.38,3751.86,518.38z M3748.83,518.38h-1.01c-0.28,0-0.5-0.23-0.5-0.5s0.23-0.5,0.5-0.5h1.01c0.28,0,0.5,0.23,0.5,0.5
			S3749.11,518.38,3748.83,518.38z M3745.81,518.38h-1.01c-0.28,0-0.5-0.23-0.5-0.5s0.23-0.5,0.5-0.5h1.01c0.28,0,0.5,0.23,0.5,0.5
			S3746.08,518.38,3745.81,518.38z M3742.78,518.38h-1.01c-0.28,0-0.5-0.23-0.5-0.5s0.23-0.5,0.5-0.5h1.01c0.28,0,0.5,0.23,0.5,0.5
			S3743.06,518.38,3742.78,518.38z M3739.75,518.38h-1.01c-0.28,0-0.5-0.23-0.5-0.5s0.23-0.5,0.5-0.5h1.01c0.28,0,0.5,0.23,0.5,0.5
			S3740.03,518.38,3739.75,518.38z M3736.73,518.38h-1.01c-0.28,0-0.5-0.23-0.5-0.5s0.23-0.5,0.5-0.5h1.01c0.28,0,0.5,0.23,0.5,0.5
			S3737,518.38,3736.73,518.38z M3733.7,518.38h-1.01c-0.28,0-0.5-0.23-0.5-0.5s0.23-0.5,0.5-0.5h1.01c0.28,0,0.5,0.23,0.5,0.5
			S3733.98,518.38,3733.7,518.38z M3730.67,518.38h-1.01c-0.28,0-0.5-0.23-0.5-0.5s0.23-0.5,0.5-0.5h1.01c0.28,0,0.5,0.23,0.5,0.5
			S3730.95,518.38,3730.67,518.38z M3727.65,518.38h-1.01c-0.28,0-0.5-0.23-0.5-0.5s0.23-0.5,0.5-0.5h1.01c0.28,0,0.5,0.23,0.5,0.5
			S3727.92,518.38,3727.65,518.38z M3724.62,518.38h-1.01c-0.28,0-0.5-0.23-0.5-0.5s0.23-0.5,0.5-0.5h1.01c0.28,0,0.5,0.23,0.5,0.5
			S3724.9,518.38,3724.62,518.38z M3721.59,518.38h-1.01c-0.28,0-0.5-0.23-0.5-0.5s0.23-0.5,0.5-0.5h1.01c0.28,0,0.5,0.23,0.5,0.5
			S3721.87,518.38,3721.59,518.38z M3718.57,518.38h-1.01c-0.28,0-0.5-0.23-0.5-0.5s0.23-0.5,0.5-0.5h1.01c0.28,0,0.5,0.23,0.5,0.5
			S3718.84,518.38,3718.57,518.38z M3715.54,518.38h-1.01c-0.28,0-0.5-0.23-0.5-0.5s0.23-0.5,0.5-0.5h1.01c0.28,0,0.5,0.23,0.5,0.5
			S3715.82,518.38,3715.54,518.38z M3712.51,518.38h-1.01c-0.28,0-0.5-0.23-0.5-0.5s0.23-0.5,0.5-0.5h1.01c0.28,0,0.5,0.23,0.5,0.5
			S3712.79,518.38,3712.51,518.38z M3709.49,518.38h-1.01c-0.28,0-0.5-0.23-0.5-0.5s0.23-0.5,0.5-0.5h1.01c0.28,0,0.5,0.23,0.5,0.5
			S3709.76,518.38,3709.49,518.38z M3706.46,518.38h-1.01c-0.28,0-0.5-0.23-0.5-0.5s0.23-0.5,0.5-0.5h1.01c0.28,0,0.5,0.23,0.5,0.5
			S3706.74,518.38,3706.46,518.38z M3703.43,518.38h-1.01c-0.28,0-0.5-0.23-0.5-0.5s0.23-0.5,0.5-0.5h1.01c0.28,0,0.5,0.23,0.5,0.5
			S3703.71,518.38,3703.43,518.38z M3700.41,518.38h-1.01c-0.28,0-0.5-0.23-0.5-0.5s0.23-0.5,0.5-0.5h1.01c0.28,0,0.5,0.23,0.5,0.5
			S3700.69,518.38,3700.41,518.38z M3697.38,518.38h-1.01c-0.28,0-0.5-0.23-0.5-0.5s0.23-0.5,0.5-0.5h1.01c0.28,0,0.5,0.23,0.5,0.5
			S3697.66,518.38,3697.38,518.38z M3694.35,518.38h-1.01c-0.28,0-0.5-0.23-0.5-0.5s0.23-0.5,0.5-0.5h1.01c0.28,0,0.5,0.23,0.5,0.5
			S3694.63,518.38,3694.35,518.38z M3691.33,518.38h-1.01c-0.28,0-0.5-0.23-0.5-0.5s0.23-0.5,0.5-0.5h1.01c0.28,0,0.5,0.23,0.5,0.5
			S3691.61,518.38,3691.33,518.38z M3688.3,518.38h-1.01c-0.28,0-0.5-0.23-0.5-0.5s0.23-0.5,0.5-0.5h1.01c0.28,0,0.5,0.23,0.5,0.5
			S3688.58,518.38,3688.3,518.38z M3685.27,518.38h-1.01c-0.28,0-0.5-0.23-0.5-0.5s0.23-0.5,0.5-0.5h1.01c0.28,0,0.5,0.23,0.5,0.5
			S3685.55,518.38,3685.27,518.38z M3682.25,518.38h-1.01c-0.28,0-0.5-0.23-0.5-0.5s0.23-0.5,0.5-0.5h1.01c0.28,0,0.5,0.23,0.5,0.5
			S3682.53,518.38,3682.25,518.38z M3679.22,518.38h-1.01c-0.28,0-0.5-0.23-0.5-0.5s0.23-0.5,0.5-0.5h1.01c0.28,0,0.5,0.23,0.5,0.5
			S3679.5,518.38,3679.22,518.38z M3676.19,518.38h-1.01c-0.28,0-0.5-0.23-0.5-0.5s0.23-0.5,0.5-0.5h1.01c0.28,0,0.5,0.23,0.5,0.5
			S3676.47,518.38,3676.19,518.38z M3673.17,518.38h-1.01c-0.28,0-0.5-0.23-0.5-0.5s0.23-0.5,0.5-0.5h1.01c0.28,0,0.5,0.23,0.5,0.5
			S3673.45,518.38,3673.17,518.38z M3670.14,518.38h-1.01c-0.28,0-0.5-0.23-0.5-0.5s0.23-0.5,0.5-0.5h1.01c0.28,0,0.5,0.23,0.5,0.5
			S3670.42,518.38,3670.14,518.38z M3667.11,518.38h-1.01c-0.28,0-0.5-0.23-0.5-0.5s0.23-0.5,0.5-0.5h1.01c0.28,0,0.5,0.23,0.5,0.5
			S3667.39,518.38,3667.11,518.38z M3664.09,518.38h-1.01c-0.28,0-0.5-0.23-0.5-0.5s0.23-0.5,0.5-0.5h1.01c0.28,0,0.5,0.23,0.5,0.5
			S3664.37,518.38,3664.09,518.38z M3661.06,518.38h-1.01c-0.28,0-0.5-0.23-0.5-0.5s0.23-0.5,0.5-0.5h1.01c0.28,0,0.5,0.23,0.5,0.5
			S3661.34,518.38,3661.06,518.38z M3658.04,518.38h-1.01c-0.28,0-0.5-0.23-0.5-0.5s0.23-0.5,0.5-0.5h1.01c0.28,0,0.5,0.23,0.5,0.5
			S3658.31,518.38,3658.04,518.38z M3655.01,518.38H3654c-0.28,0-0.5-0.23-0.5-0.5s0.23-0.5,0.5-0.5h1.01c0.28,0,0.5,0.23,0.5,0.5
			S3655.29,518.38,3655.01,518.38z M3651.98,518.38h-1.01c-0.28,0-0.5-0.23-0.5-0.5s0.23-0.5,0.5-0.5h1.01c0.28,0,0.5,0.23,0.5,0.5
			S3652.26,518.38,3651.98,518.38z M3648.96,518.38h-1.01c-0.28,0-0.5-0.23-0.5-0.5s0.23-0.5,0.5-0.5h1.01c0.28,0,0.5,0.23,0.5,0.5
			S3649.23,518.38,3648.96,518.38z M3645.93,518.38h-1.01c-0.28,0-0.5-0.23-0.5-0.5s0.23-0.5,0.5-0.5h1.01c0.28,0,0.5,0.23,0.5,0.5
			S3646.21,518.38,3645.93,518.38z M3642.9,518.38h-1.01c-0.28,0-0.5-0.23-0.5-0.5s0.23-0.5,0.5-0.5h1.01c0.28,0,0.5,0.23,0.5,0.5
			S3643.18,518.38,3642.9,518.38z M3639.88,518.38h-1.01c-0.28,0-0.5-0.23-0.5-0.5s0.23-0.5,0.5-0.5h1.01c0.28,0,0.5,0.23,0.5,0.5
			S3640.15,518.38,3639.88,518.38z M3636.85,518.38h-1.01c-0.28,0-0.5-0.23-0.5-0.5s0.23-0.5,0.5-0.5h1.01c0.28,0,0.5,0.23,0.5,0.5
			S3637.13,518.38,3636.85,518.38z M3633.82,518.38h-1.01c-0.28,0-0.5-0.23-0.5-0.5s0.23-0.5,0.5-0.5h1.01c0.28,0,0.5,0.23,0.5,0.5
			S3634.1,518.38,3633.82,518.38z M3630.8,518.38h-1.01c-0.28,0-0.5-0.23-0.5-0.5s0.23-0.5,0.5-0.5h1.01c0.28,0,0.5,0.23,0.5,0.5
			S3631.07,518.38,3630.8,518.38z"/>
	</g>
	<g>
		<path fill="#FFFFFF" d="M4683.53,518.38h-0.5c-0.28,0-0.5-0.23-0.5-0.5s0.23-0.5,0.5-0.5h0.5c0.28,0,0.5,0.23,0.5,0.5
			S4683.81,518.38,4683.53,518.38z"/>
	</g>
</g>
</svg>
