<?xml version="1.0" encoding="UTF-8" standalone="no"?>
<!-- Generator: Adobe Illustrator 18.0.0, SVG Export Plug-In . SVG Version: 6.00 Build 0)  -->

<svg
   version="1.1"
   id="Layer_5"
   x="0px"
   y="0px"
   width="9451.45px"
   height="623.52px"
   viewBox="0 0 9451.45 623.52"
   enable-background="new 0 0 9451.45 623.52"
   xml:space="preserve"
   sodipodi:docname="20_water_withdrawal_for agriculture_mask-01.svg"
   inkscape:version="1.1.1 (3bf5ae0d25, 2021-09-20)"
   xmlns:inkscape="http://www.inkscape.org/namespaces/inkscape"
   xmlns:sodipodi="http://sodipodi.sourceforge.net/DTD/sodipodi-0.dtd"
   xmlns="http://www.w3.org/2000/svg"
   xmlns:svg="http://www.w3.org/2000/svg"><defs
   id="defs3395">
	
	
	
	
	
	
	
	
	
	
	
</defs><sodipodi:namedview
   id="namedview3393"
   pagecolor="#505050"
   bordercolor="#eeeeee"
   borderopacity="1"
   inkscape:pageshadow="0"
   inkscape:pageopacity="0"
   inkscape:pagecheckerboard="0"
   showgrid="false"
   inkscape:zoom="2.6382632"
   inkscape:cx="5216.879"
   inkscape:cy="531.97876"
   inkscape:window-width="1366"
   inkscape:window-height="705"
   inkscape:window-x="-8"
   inkscape:window-y="-8"
   inkscape:window-maximized="1"
   inkscape:current-layer="Layer_5" />
<path
   id="path9659"
   style="fill:#000000"
   d="m 5249.1699,323.23047 c 0,16.33333 0,32.66667 0,49 -3,0 -6,0 -9,0 -0,45.95037 0.01,91.91759 -0,137.85742 -1.9094,-0.71841 -3.9902,-0.7567 -5.9961,-1.00781 0,-15.61654 0,-31.23307 0,-46.84961 -4.3333,0 -8.6666,0 -13,0 0,13.66667 0,27.33333 0,41 -2,0 -4,0 -6,0 0,-0.66667 0,-1.33333 0,-2 -3,0 -6,0 -9,0 0,-16.33333 0,-32.66667 0,-49 -4.6666,0 -9.3333,0 -14,0 0,17.42513 0,34.85026 0,52.27539 -1.4997,-0.38631 -3.1109,-0.36801 -4.6289,-0.082 -0.7208,0.3891 -0.2277,-0.82187 -0.3711,-1.19336 0,-0.66667 0,-1.33333 0,-2 -4.3333,0 -8.6666,0 -13,0 0,4.55924 0,9.11849 0,13.67773 -1.5373,-0.7508 -3.3422,-0.76853 -5.0106,-0.58811 -1.0938,0.13684 -2.1763,0.60571 -3.0128,1.26975 -1.6917,-1.48638 -4.1244,-1.49459 -6.2389,-1.25069 -2.1979,0.34854 -4.1322,2.10626 -4.4497,4.34813 -0.4531,2.27107 -0.2765,4.60888 -0.2025,6.90614 0.1259,2.23618 1.4026,4.59501 3.6642,5.25078 1.8843,0.57652 3.9787,0.53003 5.8404,-0.10211 0.5401,-0.16239 1.031,-0.65276 1.4588,-0.85732 1.8277,1.56962 4.4337,1.50058 6.6738,1.14453 0.4073,0.0599 1.2059,-0.66794 1.2773,-0.28438 -0.2186,0.84716 0.9001,0.35694 1.4,0.48555 3.8667,0 7.7334,0 11.6,0 -0.05,-0.53157 0.7522,0.0558 1.1329,-0.0552 1.2888,0.0859 2.6166,0.14122 3.8671,-0.24166 0.013,0.61944 1.1133,0.15127 1.6,0.29688 22.8,0 45.6,0 68.4,0 0,-70 0,-140 0,-210 -4.3333,0 -8.6666,0 -13,0 0,0.66667 0,1.33333 0,2 z" />
</svg>
