<?xml version="1.0" encoding="UTF-8" standalone="no"?>
<!-- Generator: Adobe Illustrator 18.0.0, SVG Export Plug-In . SVG Version: 6.00 Build 0)  -->

<svg
   version="1.1"
   x="0px"
   y="0px"
   width="9451.45px"
   height="623.52px"
   viewBox="0 0 9451.45 623.52"
   enable-background="new 0 0 9451.45 623.52"
   xml:space="preserve"
   id="svg1152"
   sodipodi:docname="21 Cotton production_mask-01.svg"
   inkscape:version="1.1.1 (c3084ef, 2021-09-22)"
   xmlns:inkscape="http://www.inkscape.org/namespaces/inkscape"
   xmlns:sodipodi="http://sodipodi.sourceforge.net/DTD/sodipodi-0.dtd"
   xmlns="http://www.w3.org/2000/svg"
   xmlns:svg="http://www.w3.org/2000/svg"><defs
   id="defs1156" /><sodipodi:namedview
   id="namedview1154"
   pagecolor="#505050"
   bordercolor="#eeeeee"
   borderopacity="1"
   inkscape:pageshadow="0"
   inkscape:pageopacity="0"
   inkscape:pagecheckerboard="0"
   showgrid="false"
   inkscape:zoom="0.45657983"
   inkscape:cx="4252.2684"
   inkscape:cy="273.77469"
   inkscape:window-width="1312"
   inkscape:window-height="762"
   inkscape:window-x="0"
   inkscape:window-y="25"
   inkscape:window-maximized="0"
   inkscape:current-layer="svg1152" />

<path
   style="fill:#000000"
   d="m 4589.2246,322.01562 c -2.2367,-0.0561 -4.3252,1.39568 -5.1934,3.4336 -0.7987,1.34735 -1.3853,3.12404 -0.4433,4.55469 -1.3548,-0.022 -2.573,0.78652 -3.7598,1.36132 -1.8128,0.92492 -3.1311,2.99005 -2.666,5.05665 0.5171,2.33197 2.4157,4.13674 4.459,5.23046 1.3925,0.79026 3.0185,0.0886 4.1328,-0.86132 0.5547,-0.43407 1.0625,-0.92571 1.5371,-1.44532 0.6806,2.39189 2.8069,4.12938 5.0762,4.95118 1.9917,0.59973 3.9233,-0.65846 5.3437,-1.93555 2.0587,-1.85627 2.7944,-5.18004 1.2579,-7.58008 -1.0687,-1.78285 -3.1586,-2.76398 -5.1993,-2.77539 1.6955,-1.9083 2.285,-4.95543 0.7832,-7.14844 -1.1428,-1.7689 -3.2341,-2.84044 -5.3281,-2.8418 z"
   id="path1009" /><path
   style="fill:#000000"
   d="m 4606.4043,322.00195 c -2.4551,-0.0554 -5.0755,1.33833 -5.8086,3.79493 -0.7543,2.51729 0.3087,5.40355 2.3027,7.04882 2.4324,1.89562 6.2357,1.37235 8.1856,-0.97851 1.8977,-2.03799 2.3499,-5.51745 0.418,-7.68555 -1.2782,-1.39013 -3.2218,-2.16719 -5.0977,-2.17969 z"
   id="path1007" /><path
   style="fill:#000000"
   d="m 4352.5898,176.81055 c -3.97,7.3e-4 -7.8195,2.50402 -9.3144,6.20117 -1.6341,3.61318 -0.9861,8.1199 1.6641,11.08398 1.6144,1.83977 3.8223,3.20334 6.2421,3.65039 -1.8347,1.83015 -2.8908,4.30303 -3.5429,6.77539 -0.5643,2.4679 0.4982,4.92307 1.6074,7.07618 1.2585,2.10745 3.0458,4.24454 5.6055,4.66796 2.102,0.47552 4.2662,0.28685 6.3711,-0.0527 1.7419,-0.19538 3.2949,-0.27905 5.0507,-0.39844 3.0167,-0.24137 6.1408,0.0449 9.0508,-0.92968 2.4671,-0.9097 4.0928,-3.1432 5.5332,-5.22657 1.6314,-2.44083 2.2257,-5.55587 1.4238,-8.39843 -0.7217,-3.09812 -2.5908,-5.92085 -5.2734,-7.65821 -3.4213,-2.3018 -8.0805,-3.2437 -11.916,-1.42383 -1.0971,0.48543 -1.9578,1.34015 -2.8008,2.1543 -0.6905,0.35582 -1.4608,0.5323 -2.2285,0.62109 2.9808,-2.77513 4.2641,-7.36155 2.7187,-11.19726 -1.5168,-3.96899 -5.495,-6.91134 -9.7812,-6.94141 -0.1365,-8.6e-4 -0.2737,-0.01 -0.4102,-0.004 z"
   id="path1005" /><path
   style="fill:#000000"
   d="m 4372.8496,170.33008 c -4.5805,0.0566 -8.7365,3.62567 -9.6875,8.07226 -0.8967,3.60098 0.5196,7.533 3.291,9.94336 3.0718,2.85125 7.9487,3.3175 11.584,1.29492 3.3576,-1.77946 5.8255,-5.57594 5.3223,-9.45312 -0.4339,-3.53317 -2.3809,-7.05215 -5.5703,-8.78516 -1.5247,-0.74879 -3.2427,-1.10932 -4.9395,-1.07226 z"
   id="path1003" /><path
   style="fill:#000000"
   d="m 4475.252,111.09961 c -0.3219,-0.006 -0.6432,-0.005 -0.9649,0.006 -5.046,0.12523 -10.0592,2.53959 -13.0273,6.66992 -0.8239,1.17745 -2.0218,2.32914 -3.5723,2.2207 -4.3196,0.0459 -8.4077,2.14413 -11.5625,4.99219 -2.8587,2.51634 -4.6562,6.12151 -5.0723,9.89649 -0.713,5.884 1.2519,12.21845 5.7227,16.22656 1.1929,1.25536 1.2574,3.06321 1.2637,4.6914 0.3415,6.32713 4.1586,12.35353 9.8105,15.25391 3.3617,1.80011 7.3534,1.85152 11.0508,1.38672 3.0263,-0.43227 6.1073,-1.39821 8.3691,-3.54883 5.1752,-4.44922 7.9598,-11.76693 6.3614,-18.49023 -0.3783,-1.76263 -1.1954,-3.37643 -1.9903,-4.97852 0.6053,-0.2429 1.2027,-0.81118 1.8379,-0.81055 1.4582,1.19081 2.5144,2.8325 4.1387,3.83789 5.531,3.8466 13.742,2.82135 18.2754,-2.11914 2.1111,-2.22799 3.1852,-5.28768 3.2051,-8.33398 0.1967,-2.85811 -0.04,-5.9322 -1.7793,-8.32422 -1.4237,-1.9543 -3.1607,-3.70571 -5.127,-5.11523 -2.2816,-1.63226 -5.1885,-1.57414 -7.8652,-1.57813 -0.9273,-0.0154 -2.0452,-0.0715 -2.5235,-1.01758 -1.1414,-1.78299 -2.0931,-3.71545 -3.6132,-5.22656 -3.317,-3.53676 -8.1101,-5.54147 -12.9375,-5.63867 z"
   id="path1001" /><path
   style="fill:#000000"
   d="m 3950.3184,81.222656 c 1.2389,1.538412 2.4778,3.076823 3.7168,4.615235 2.9912,2.167535 6.1539,4.09578 9.2324,6.138671 34.1479,22.065428 68.4431,43.900158 102.7344,65.740238 32.5025,20.66645 65.0068,41.33028 97.6191,61.82422 -16.2526,-6.363 -32.3625,-13.08126 -48.5371,-19.63868 -60.8056,-24.79216 -121.6028,-49.60616 -182.4141,-74.38281 -11.2219,-4.51493 -22.4248,-9.08708 -33.7637,-13.30273 -1.1793,-0.419 -2.3787,-0.92699 -3.6582,-0.72461 -0.4884,0.20304 -0.6694,0.95076 -1.0371,1.36914 -0.2982,1.13536 0.3296,2.30613 1.3262,2.88281 1.9161,1.16896 4.0754,1.76851 6.125,2.67774 34.905,14.16975 69.7709,28.43677 104.6543,42.66015 47.8767,19.55657 95.7719,39.07181 143.6465,58.63281 10.1299,4.21209 20.3257,8.27709 30.2988,12.85352 1.6733,0.80382 3.3811,1.56733 4.9297,2.59961 -0.2499,2.21078 -0.9743,4.36701 -0.9551,6.60351 0.2004,3.37014 2.289,6.18479 3.9239,9.00586 1.2787,2.18171 2.9474,4.45212 2.6992,7.1211 -0.077,1.27695 -0.1872,2.42524 -0.4532,3.71484 -0.5586,2.45599 -1.3983,4.91826 -3.0292,6.88281 -0.5071,0.75103 -1.2295,1.55361 -1.2032,2.48633 0.2258,0.48331 0.1366,1.26197 0.5899,1.5293 0.7016,0.12833 1.4195,0.7701 2.1015,0.29101 1.1027,-0.48657 1.9484,-1.42296 2.8223,-2.23437 1.3578,-1.53403 2.4248,-3.33075 3.1348,-5.25195 2.5345,6.82554 4.4994,13.8457 6.7539,20.76562 0.5971,2.07133 1.4274,4.08558 1.834,6.20508 0,1.13418 -0.9878,1.94358 -1.5918,2.81445 -4.1328,4.86275 -7.483,10.52447 -8.9356,16.78516 -1.7246,7.13752 -0.7511,14.79043 2.3164,21.42773 1.523,3.58726 3.8896,6.70443 5.8574,10.04297 0.6269,1.24863 1.5349,2.52177 1.4688,3.97461 -0.4582,0.99196 -1.6037,1.42396 -2.5098,1.91992 -1.486,0.48367 -2.941,-0.47471 -4.2304,-1.10351 -4.8567,-2.74353 -9.0464,-6.55473 -14.0938,-8.98242 -4.3231,-2.23035 -9.2072,-3.34892 -14.0723,-3.13672 -3.1539,0.0281 -6.3555,0.37358 -9.4746,-0.23828 -2.6934,-0.67205 -4.6155,-2.83225 -6.6914,-4.5254 -3.846,-3.3442 -8.3178,-6.39349 -13.5019,-7.00781 -5.4875,-0.68563 -10.8912,1.0939 -15.9375,3.06055 -4.5858,1.81522 -9.1217,4.153 -14.1192,4.52539 -2.771,0.22558 -5.4586,-0.74986 -7.8554,-2.05664 -1.6209,-0.76596 -3.2831,-1.51743 -5.045,-1.86133 -3.5957,-1.75993 -6.9167,-4.0304 -10.2402,-6.25 -1.9137,-1.33507 -3.9761,-2.73132 -5.7871,-4.3418 -0.6599,-0.75486 -1.1516,-1.8573 -2.2539,-2.04492 -1.1895,-0.33716 -2.4433,0.60313 -2.6133,1.80078 -0.4103,1.7816 1.0021,3.22751 2.0254,4.49805 3.9917,4.50195 8.5015,8.51906 13.125,12.35742 3.2721,2.59242 6.5924,5.52013 10.8047,6.38086 3.4578,0.63938 7.1402,0.89021 10.498,-0.35937 5.1063,-1.84804 9.7764,-4.68534 14.7735,-6.79102 2.5971,-1.09147 5.1835,-2.29589 7.9414,-2.91992 1.1608,-0.21471 2.4531,-0.18865 3.3769,0.65234 3.2843,2.64167 5.9738,5.94711 9.2813,8.56641 2.3009,1.90606 5.1952,2.9851 8.1601,3.23437 4.893,0.44467 9.8164,0.2197 14.7227,0.29883 3.138,0.0808 6.3341,-0.0701 9.4082,0.66602 2.1586,0.67171 4.157,1.87795 5.832,3.39062 2.9792,2.78992 4.1196,6.85839 6.4864,10.09375 1.8091,2.67778 4.4762,4.94987 7.7304,5.53907 1.5131,0.30176 3.0717,0.3376 4.6055,0.20703 -3.6771,1.29821 -7.0401,3.65251 -9.1699,6.95898 -1.8824,2.86597 -3.0916,6.10019 -4.4375,9.23633 -0.3436,0.74146 -0.4285,1.65134 -1.2032,2.10351 -2.6513,2.03157 -5.7332,3.48057 -8.9179,4.45899 -1.0097,0.3121 -2.1062,0.48701 -3.1035,0.0312 -4.9105,-1.67065 -9.2712,-4.53323 -13.877,-6.85352 -2.5525,-1.20845 -5.1619,-2.50946 -8,-2.83984 -3.1402,-0.10975 -6.0802,-1.35629 -8.9316,-2.5625 -3.617,-1.44224 -7.8018,-1.9033 -11.4727,-0.38086 -2.3275,0.93037 -4.2791,2.5532 -6.5,3.69336 -5.6662,3.25402 -11.6314,5.9467 -17.3242,9.15039 -0.5194,0.32315 -1.1011,0.70566 -1.416,1.21289 -0.087,0.78651 -0.173,1.57284 -0.2598,2.35938 1.038,0.26829 2.0654,0.70901 3.1543,0.46679 3.6843,-0.52391 7.2214,-1.8207 10.5996,-3.34765 2.351,-1.0078 4.2271,-2.8223 6.5625,-3.86133 4.3754,-2.09799 9.3064,-3.13804 14.1563,-2.79102 3.6867,0.46695 7.0297,2.23025 10.3789,3.72852 6.1191,2.84333 12.0781,6.04907 18.3574,8.53515 2.9677,1.15936 6.3243,1.94725 9.4336,0.84571 2.8151,-0.93358 5.3076,-2.61395 8.0801,-3.65235 -0.041,3.11667 1.125,6.08069 2.2031,8.95313 1.3714,3.26781 3.0302,6.44266 3.8379,9.91797 1.4779,5.70169 0.6334,11.71384 -0.9492,17.29687 -0.9953,3.38571 -2.59,6.57523 -4.5547,9.5 -0.4581,0.68014 -1.0951,1.58441 -1.6543,2.33008 -4.2348,5.66459 -9.4282,10.51388 -13.8379,16.03516 -2.1402,2.69385 -4.4641,5.35176 -5.6953,8.61523 -2.9753,7.28573 -3.068,15.40891 -1.9297,23.0957 0.6543,4.09256 1.3126,8.24572 0.8398,12.39844 -0.5014,5.52526 -1.8445,10.96772 -1.9355,16.5293 -0.024,1.54659 0.33,3.46475 1.9355,4.11523 1.1952,0.5614 2.6447,-0.18529 3.1348,-1.36523 0.9254,-2.21493 0.9183,-4.67451 1.252,-7.02148 0.4568,-4.35339 1.1352,-8.68026 1.6191,-13.0293 0.7106,-8.52855 0.5757,-17.09654 0.4238,-25.64453 0.061,-2.86859 -0.2084,-5.86516 0.8594,-8.5918 1.7541,-3.95563 4.8225,-7.09762 7.7695,-10.18555 3.2015,-3.26552 6.7966,-6.13127 9.8028,-9.59179 4.3708,-4.76745 7.7548,-10.44407 9.7226,-16.61329 1.4366,-4.14692 2.2163,-8.59438 1.6133,-12.97656 -0.6168,-5.09211 -2.4942,-9.89637 -3.9727,-14.77344 -1.1271,-4.10023 -2.0349,-8.49488 -0.9824,-12.70898 0.7078,-2.90953 2.9716,-5.24395 5.709,-6.35937 1.1457,-0.50743 2.4631,-1.13356 3.6934,-0.49415 2.8092,1.14853 5.3622,2.87956 8.2851,3.76563 6.6914,2.23821 14.4257,2.08095 20.6426,-1.4707 2.1766,-1.20719 3.9853,-2.95129 5.5625,-4.85547 0.4108,-0.39276 0.8224,-0.90013 1.3848,-1.04492 0.3603,0.41969 0.1368,1.12775 0.1015,1.64453 -0.7392,3.48476 -2.5577,6.6154 -4.2754,9.69531 -2.9803,4.98785 -6.2286,9.84641 -8.5761,15.18164 -2.1386,4.70317 -3.4678,9.91668 -2.8536,15.10742 0.565,5.04646 1.827,10.03975 3.8809,14.68946 1.5031,3.40773 4.4583,5.89415 7.4453,7.98242 2.3697,1.65457 4.9976,2.89369 7.7168,3.85156 0.582,0.33212 0.4482,1.18625 0.5723,1.75781 0.2507,4.74077 -0.1136,9.48695 -0.1953,14.22852 -0.077,4.16723 -0.2886,8.35381 0.1172,12.50976 0.1348,0.96833 0.3492,2.06252 1.1816,2.67969 -0.031,3.21355 -0.924,6.362 -2.0254,9.35938 -0.9872,2.54714 -2.8027,5.02743 -2.4023,7.89648 0.1011,0.929 0.6248,1.71969 0.9394,2.57617 -1.2484,1.10043 -1.5351,3.07188 -0.5918,4.45508 0.5748,0.75606 1.0559,1.57343 1.2813,2.50781 0.8091,2.71278 1.2935,5.5107 1.6855,8.31055 0.059,0.49298 0.1755,1.3306 0.2285,1.96484 0.117,1.56549 0.3447,3.16554 0.076,4.72266 -0.8899,1.58381 -0.3877,3.81575 1.2559,4.68945 1.051,0.61468 2.3503,0.6767 3.5078,0.36133 -1.5295,5.17584 -3.0861,10.35627 -4.1817,15.64453 -0.2716,1.14164 0,2.58167 1.1875,3.07422 1.2835,0.63758 2.5921,-0.31062 3.5743,-1.08984 2.4636,-1.66097 3.3189,-4.68899 3.9003,-7.43946 0.4115,-1.92056 0.679,-3.89323 1.0411,-5.73632 0.2461,-1.09418 0.4133,-2.39708 0.7851,-3.34375 2.5843,1.14771 5.8277,0.24974 7.6035,-1.91407 0.941,-0.89722 2.3584,-0.39395 3.4082,-1.07226 1.9758,-1.00212 2.4904,-3.40743 2.4649,-5.43555 -0.054,-2.52855 -0.3034,-5.09602 -1.086,-7.51172 -0.393,-1.11102 -1.0577,-2.18692 -2.0937,-2.79883 3.8473,-1.58927 6.2203,-6.09318 5.3887,-10.16015 -0.184,-0.69238 -0.6125,-1.32971 -1.2305,-1.70313 1.8219,-0.58602 2.8012,-2.55309 3.1074,-4.32422 0.071,-0.67648 -0.116,-1.34293 -0.6562,-1.7832 -0.3105,-0.63879 -1.0567,-0.46225 -1.6407,-0.58594 -1.569,0.34095 -2.4815,1.80977 -3.7851,2.61133 -0.9355,-0.43776 -1.7792,-1.19751 -2.8555,-1.24219 -0.1796,-0.91297 -0.8172,-1.86168 -1.8027,-1.96484 -0.8591,-0.27653 -1.7906,0.28195 -2.3242,0.95508 -0.5701,-0.43703 -1.3228,-0.54277 -2.0059,-0.59375 -0.1326,-2.68114 0.5098,-5.34675 1.2852,-7.89649 0.2992,-0.75938 0.4816,-1.66046 1.2363,-2.09765 1.7034,-1.68216 1.781,-4.2666 1.8437,-6.51172 0.131,-5.06852 0.7727,-10.11844 1.6661,-15.10547 0.2314,-1.09115 0.4536,-2.5682 1.75,-2.86133 2.6873,-0.70686 5.4998,-0.6518 8.2539,-0.87109 3.8114,-0.21704 7.7423,-0.42893 11.5,-0.54688 4.1366,-0.0586 8.3594,-0.30414 12.4082,0.7168 2.8584,0.8607 5.4146,2.48599 7.8847,4.12305 3.6484,2.54725 7.1291,5.7489 8.6914,10.02734 1.0122,2.32808 0.9656,4.98509 0.1504,7.36328 -0.741,1.91369 -1.0661,3.99184 -0.7383,6.03125 0.7404,5.17691 2.8261,10.04609 3.7071,15.19141 0.5981,3.59448 -1.0193,7.01534 -2.3047,10.26953 -1.9501,4.59563 -4.0745,9.20209 -4.8086,14.18555 -0.7315,4.56431 -0.3879,9.39365 1.4746,13.65625 0.3953,0.69352 1.1456,1.28161 1.9785,1.13867 0.6763,0.17737 1.1307,-0.41182 1.5567,-0.82617 0.7821,-1.31432 0.307,-2.91315 0.289,-4.35157 -0.096,-1.11914 -0.2288,-2.44577 -0.291,-3.4375 -0.2235,-2.21108 0.1148,-4.45862 1.0527,-6.47851 2.0822,-4.88075 4.9945,-9.49442 5.918,-14.79688 0.8701,-4.84052 1.1036,-9.76585 1.4766,-14.66211 0.2538,-4.12847 0.3972,-8.40008 -1.0508,-12.34765 -1.048,-3.19899 -1.5724,-6.56106 -1.6133,-9.92383 -0.2706,-3.10336 -0.9009,-6.35943 -2.9375,-8.82617 -2.9605,-3.74871 -6.8857,-6.63007 -11.0117,-8.97852 -2.8962,-1.58613 -6.0256,-2.96872 -9.3633,-3.16015 -3.4758,-0.80298 -6.3413,-3.31916 -9.9414,-3.70118 -2.5887,-0.3468 -5.0865,0.42652 -7.668,0.37891 -1.6948,0.0426 -3.3902,0.0107 -5.0839,-0.0547 -0.5151,-0.0366 -1.386,-0.0666 -2.0372,-0.12109 -2.2685,-0.23083 -4.5841,-0.26612 -6.8027,-0.82227 -0.2025,-1.12555 -0.051,-2.39192 -0.018,-3.56836 0.1511,-2.33805 0.4601,-4.6743 0.8086,-6.91601 0.9463,-5.66875 2.1201,-11.33141 4.0293,-16.76172 0.644,-1.8179 1.745,-3.65719 3.6602,-4.33203 2.8385,-1.07165 5.9032,-1.30884 8.8926,-1.66797 3.9824,-0.41014 7.8018,1.09388 11.5332,2.25781 7.7031,2.52632 15.2491,5.57255 23.123,7.54883 5.9379,1.42123 12.065,1.80393 18.1484,2.00977 3.5946,0.0546 7.2411,0.11635 10.7579,-0.74219 1.0556,-0.27785 2.1766,-0.0504 3.0195,0.65039 1.9876,1.49025 3.9213,3.06749 6.0859,4.30469 5.8789,3.4812 12.1436,6.31566 18.6192,8.49023 2.5305,0.84303 5.1419,1.45921 7.8086,1.63477 4.288,0.49889 7.8426,3.17191 11.3964,5.39258 6.6413,4.11198 13.5826,7.71576 20.5411,11.25585 3.1465,1.56501 6.2393,3.06333 9.3339,4.65039 4.0065,2.06142 8.1438,4.21858 12.0704,6.55274 1.4438,0.90324 2.9016,1.83905 4.1367,3.01562 0.2671,0.44212 -0.2385,0.98874 -0.3594,1.41602 -1.3833,2.52411 -3.188,4.79674 -4.8418,7.07617 -4.422,5.90259 -8.949,11.74636 -12.7891,18.05469 -3.8373,6.12717 -7.0386,12.61693 -10.1914,19.11328 -2.4971,4.95081 -4.8757,9.99229 -7.9609,14.61328 -1.3082,1.93638 -3.0145,3.84473 -5.4082,4.33399 -2.429,0.60151 -4.8296,1.96604 -5.9434,4.30273 -1.2602,2.43675 -1.8073,5.48546 -0.4902,8.01758 1.2633,2.61497 3.7161,4.29145 5.8184,6.17383 3.4231,3.36706 6.2992,7.28193 8.6425,11.46679 0.7816,1.472 1.5956,3.01998 1.5801,4.73047 0.2327,1.90378 0.9735,3.72081 2.0664,5.28711 0.756,1.40037 0.8299,3.00633 0.961,4.55274 0.5417,3.41559 3.3939,5.9498 6.4355,7.26562 2.202,1.00459 4.6173,1.39712 6.9336,2.0293 1.1006,0.0294 2.1769,-0.43578 3.1621,-0.88867 1.9097,-1.1315 2.3052,-3.57635 2.3301,-5.61329 -0.013,-3.3173 -0.9574,-6.54759 -1.8692,-9.71093 -0.9394,-2.89699 -1.8775,-5.86413 -3.5722,-8.42188 -0.6304,-1.01945 -0.7004,-2.29244 -0.9922,-3.43945 -0.4357,-2.29534 -0.7434,-4.50712 -1.0195,-6.78516 -0.3307,-2.76754 -0.5724,-5.46992 -0.75,-8.28515 -0.065,-1.16939 -0.1179,-2.25891 -0.1465,-3.3418 -0.1,-1.41704 -0.019,-2.91759 0.834,-4.11719 1.9384,-3.02058 4.4359,-5.6291 6.7754,-8.33594 8.2908,-9.29984 16.9122,-18.32697 24.539,-28.19531 7.6237,-9.76877 14.3892,-20.37649 18.5879,-32.09375 1.1888,-3.40022 2.2535,-6.93018 4.3516,-9.90429 0.8812,-1.13424 1.6621,-2.37073 2.2011,-3.69532 5.1405,-5.69387 10.5046,-11.18063 15.795,-16.73437 26.5362,-27.65663 53.5501,-54.89776 79.9922,-82.66406 1.3437,-1.51888 2.8801,-2.88647 4.0703,-4.53125 0.5367,-0.50693 0.1063,-1.22701 0.098,-1.85352 -0.4785,-0.4705 -0.8295,-1.18028 -1.6015,-1.10352 -1.4702,-0.23888 -2.5215,1.10178 -3.5411,1.94336 -6.1106,5.75869 -11.9277,11.81905 -17.8418,17.77735 -18.6146,18.90491 -37.0286,38.01129 -55.6953,56.86718 -8.1341,8.14937 -16.2201,16.35399 -24.6172,24.23438 -0.6889,0.64016 -1.3855,1.27148 -2.1035,1.87891 -1.1617,-0.40085 -2.1694,-1.13641 -3.084,-1.94141 1.6889,-2.69024 4.0822,-4.82653 6.2305,-7.13672 8.3868,-8.6686 17.4049,-16.71548 25.5254,-25.64258 0.9555,-1.00786 1.775,-2.1692 2.0664,-3.55078 0.8225,-3.37512 1.1883,-6.91455 0.7285,-10.37109 -0.7451,-4.11033 -3.186,-7.61133 -5.1504,-11.21289 -1.4157,-2.60028 -2.8851,-5.21386 -3.791,-8.04297 0.6484,-2.95215 1.9443,-5.72623 3.1582,-8.48438 6.0446,-13.52544 11.8031,-27.17781 17.6465,-40.79101 8.1571,-19.1709 16.326,-38.33607 24.2852,-57.58985 0.8383,-2.12122 1.7941,-4.20795 2.4902,-6.3789 0.2153,-0.11809 0.7447,0.57395 1.0957,0.75781 2.5438,2.05618 5.6189,3.34628 8.8066,4.00586 4.8402,1.21655 10.0051,-0.1789 14.1348,-2.81055 5.3018,-3.34794 9.2437,-9.01215 9.9258,-15.31054 0.6312,-4.90619 -0.8837,-9.91549 -3.6914,-13.93555 -0.9511,-1.45599 -2.1983,-2.74806 -3.0117,-4.27148 1.5384,-1.44498 3.2413,-2.73905 4.5136,-4.44727 4.0877,-5.11666 5.4794,-12.25143 3.541,-18.51563 -1.7853,-5.95038 -6.2523,-11.11253 -12.0742,-13.39453 -7.6983,-3.14349 -17.2267,-1.33678 -23.0429,4.66797 -3.7377,3.74939 -5.6322,9.05834 -5.6641,14.30469 0.05,0.92982 -0.2106,-0.22185 -0.3984,-0.52539 -1.5497,-3.57374 -4.2466,-6.59553 -7.4121,-8.82813 -6.8714,-4.72987 -16.5131,-4.73238 -23.5098,-0.25781 -5.066,3.12891 -8.6686,8.54284 -9.4395,14.46289 -0.9629,6.59257 1.5051,13.44183 6.0899,18.20899 1.3693,1.38082 2.9158,2.74625 3.5644,4.63672 0.1553,3.8503 2.0408,7.41447 4.3243,10.42968 2.243,2.9809 5.3338,5.34714 8.9042,6.49024 1.1597,0.39196 2.3536,0.6816 3.5625,0.87304 -1.3378,3.08783 -2.1489,6.37442 -3.0253,9.61524 -0.2683,1.3521 -0.8362,2.72545 -0.627,4.11719 -0.1025,0.45953 -0.4765,0.97097 -0.5918,1.49804 -2.7378,8.60723 -5.1706,17.30881 -7.6875,25.98242 -6.0101,20.99192 -11.7888,42.01886 -18.2051,62.88868 -1.0384,3.10715 -1.7719,6.55213 -4.1914,8.93164 -1.8354,1.61828 -4.0602,2.73088 -6.2676,3.74804 -3.0103,1.17062 -6.302,1.17189 -9.4804,1.41602 -12.3956,0.67246 -24.8419,0.60106 -37.1914,1.97851 -6.819,0.72062 -13.4934,2.33185 -20.2285,3.55665 -3.1849,0.6121 -6.4609,0.76204 -9.6719,0.25781 -6.3979,-0.86545 -12.8327,-1.99915 -18.8184,-4.50781 -0.6223,-0.25789 -1.5282,-0.65532 -2.2461,-1 -4.7586,-2.26453 -9.0708,-5.46095 -12.6367,-9.33789 -0.9207,-0.95182 -1.4333,-2.34213 -0.9609,-3.63477 0.967,-3.02392 2.8998,-5.60823 4.6367,-8.22656 5.4156,-7.69188 11.0829,-15.20394 16.6035,-22.82032 15.7341,-21.52934 31.3914,-43.11743 47.1211,-64.64843 0.4972,-0.75747 1.0359,-1.53471 1.209,-2.43946 2.1334,0.64017 4.5963,-0.36591 5.6211,-2.35546 0.4407,-0.7897 0.6901,-1.69286 0.6855,-2.59961 2.1681,0.59429 4.32,-1.14408 4.8223,-3.20704 0.3987,-1.23969 0.1911,-2.76682 -0.8594,-3.625 2.1978,-1.91064 2.2662,-5.7739 0.1387,-7.75585 -1.6705,-1.50291 -4.5364,-1.17895 -5.8262,0.6621 -0.5996,0.78198 -0.9391,1.75278 -1.0137,2.73243 -2.1241,-0.96982 -4.9864,0.12537 -5.664,2.42578 -0.7123,1.92931 0.014,4.41209 1.834,5.38672 -1.9773,1.19679 -3.3761,3.76908 -2.461,6.04492 -1.3031,0.44796 -1.9155,1.82903 -2.7929,2.79492 -8.9023,11.67256 -17.5493,23.53787 -26.2383,35.36914 -13.0377,17.84839 -26.0336,35.74004 -39.5821,53.20899 -1.8504,2.30414 -3.6108,4.69426 -5.6464,6.83984 -1.8922,1.41086 -3.922,3.04625 -6.3829,3.1543 -2.0766,-0.0546 -3.6415,-1.71308 -4.8437,-3.23633 -0.5917,-0.85254 -1.2648,-1.8163 -1.2891,-2.87305 2.1428,-4.76148 4.6708,-9.33944 7.0821,-13.96875 10.8901,-20.47132 22.1063,-40.75974 33.3105,-61.07227 18.8983,-34.14428 37.9099,-68.22429 56.543,-102.51367 1.2156,-2.3378 2.574,-4.61162 3.6465,-7.01757 l 0.6582,-1.94727 c -0.882,-0.23455 -1.7612,-0.61674 -2.6446,-0.75781 -1.1762,0.10925 -1.8828,1.12457 -2.4882,2.02539 -3.2498,4.96824 -5.9532,10.26496 -8.9024,15.41211 -25.5061,45.57377 -50.9398,91.19001 -76.3769,136.80273 -5.1269,9.09922 -10.1868,18.23861 -15.5176,27.2207 -1.2508,1.89583 -3.3241,3.02103 -5.2149,4.17969 -3.2159,1.75636 -6.6203,3.33654 -10.2597,3.94336 -2.843,0.31347 -5.5979,-0.82457 -8.1348,-1.97851 -5.2245,-2.57535 -9.9707,-6.20243 -13.6777,-10.70704 -1.0152,-1.34945 -2.1079,-2.72618 -2.6328,-4.34961 -0.265,-2.14881 0.4827,-4.26047 0.9961,-6.32031 2.0704,-7.08602 4.6229,-14.02877 7.0664,-20.96289 9.2725,-25.90878 18.8035,-51.72642 27.8144,-77.72656 0.4683,-1.64323 1.289,-3.21819 1.3985,-4.94141 0.9538,-1.03861 1.3619,-2.44589 1.957,-3.70117 0.8357,-2.19883 1.7711,-4.42473 1.9804,-6.78906 0.011,-0.38247 0.6347,-0.62846 0.7989,-1.03516 1.0013,-1.49548 1.6958,-3.3818 1.3594,-5.19336 -0.2403,-1.12588 -1.4743,-1.91968 -2.5879,-1.58984 -1.5168,0.42187 -2.1295,2.10008 -2.6387,3.43555 -0.355,1.00595 -0.5872,2.13627 -0.4668,3.16601 -0.8859,1.14162 -1.3452,2.55849 -1.9356,3.86719 -0.7736,2.09362 -1.653,4.2067 -1.8417,6.45117 0,0.48184 -0.608,0.84195 -0.7208,1.35742 -2.3276,5.45024 -4.3587,11.0216 -6.4902,16.55078 -8.689,22.88924 -17.161,45.85997 -25.6933,68.8086 -1.7652,4.6567 -3.5712,9.41536 -5.4317,14.02148 -0.8247,1.91462 -1.4892,3.91966 -2.5332,5.72656 -1.8691,2.3705 -4.6083,4.02298 -7.5137,4.78321 -1.9324,0.59694 -3.8388,-0.37514 -5.5507,-1.17774 -2.4901,-1.25957 -4.6886,-3.02612 -7.2383,-4.18164 -1.8976,-0.96503 -3.9038,-1.71332 -5.9961,-2.11914 -3.2249,-0.87785 -6.4403,-1.96876 -9.4414,-3.29297 -1.0251,-0.3626 -1.7137,-1.26854 -1.9395,-2.3125 -0.9513,-3.47632 -1.3055,-7.08972 -2.3379,-10.54882 -1.0708,-3.76224 -2.2455,-7.6292 -4.7109,-10.74414 -3.8481,-5.02477 -8.9146,-9.01322 -14.3418,-12.21094 -3.6609,-2.19414 -7.8081,-3.56074 -11.1875,-6.21875 -2.1813,-3.47232 -3.2446,-7.52021 -4.0547,-11.50586 -0.4259,-2.16464 -0.7264,-4.35161 -0.959,-6.54492 -0.048,-0.50382 -0.1362,-1.35952 -0.1777,-1.90235 -0.1535,-2.65194 -0.6283,-5.33774 -0.2012,-7.98437 0.512,-2.24109 2.3879,-3.76925 3.8477,-5.41602 16.7207,-17.63279 33.3147,-35.38912 49.9648,-53.09179 23.9445,-25.49939 47.8916,-50.99749 71.752,-76.57227 1.3715,-1.52181 2.8257,-2.99063 4.0449,-4.63672 0.4215,-0.46956 0.3437,-1.03343 0.2363,-1.60351 -0.1869,-0.46838 0.074,-1.49455 -0.4023,-1.60352 -1.0379,0.16604 -2.2397,-0.0614 -3.0488,0.75195 -3.6122,2.91272 -6.6861,6.41292 -9.9297,9.71485 -15.7924,16.51116 -31.4179,33.17642 -47.0821,49.80859 -19.588,20.79712 -39.0944,41.65688 -58.7793,62.36133 21.8947,-36.92218 43.8836,-73.78625 65.6621,-110.77735 4.2113,-7.21115 8.5083,-14.37838 12.504,-21.71289 0.4888,-1.0769 1.3882,-2.22534 1.0351,-3.45898 -0.378,-1.00934 -0.7564,-2.01814 -1.1348,-3.02734 -1.1749,1.20278 -2.5495,2.246 -3.3515,3.75781 -6.7435,10.80859 -13.2459,21.76897 -19.8184,32.67969 -22.4886,37.52308 -44.6113,75.26461 -67.3203,112.65625 -0.6925,1.12511 -1.3751,2.24754 -2.0625,3.3457 -0.867,-1.64699 -1.6098,-3.17483 -2.4336,-4.84766 -1.1817,-2.42907 -2.4022,-4.99431 -3.5488,-7.46679 -2.762,-6.01916 -5.5765,-12.02441 -7.9434,-18.2129 -0.3958,-1.00987 -0.1315,-2.12672 -0.2734,-3.18554 -0.2434,-3.54873 -0.2898,-7.15614 -1.2012,-10.61524 -0.806,-3.13989 -2.916,-5.67023 -4.7949,-8.22461 -0.636,-0.79349 -1.0593,-1.84073 -0.6406,-2.83984 1.0872,-3.14175 2.7987,-6.01801 4.2129,-9.01562 1.1189,-2.38458 2.3852,-4.72028 3.2324,-7.21875 0.1482,-0.55367 0.07,-1.23355 -0.1172,-1.73243 -0.5682,-0.42532 -1.1356,-0.85117 -1.7031,-1.27734 -0.8763,0.50111 -1.7944,0.98163 -2.3047,1.89844 -3.3295,4.95684 -6.3664,10.10617 -9.3496,15.27734 -1.3059,2.18098 -2.3041,4.56087 -3.9961,6.49024 -1.5146,1.98981 -3.5208,3.51466 -5.1524,5.39453 -0.4274,0.53028 -0.8302,1.08658 -1.1211,1.70508 -12.4978,-35.13589 -24.2503,-70.52936 -36.5429,-105.73633 -1.8707,-5.23972 -3.6096,-10.536058 -5.7696,-15.666019 -0.4037,-0.999586 -1.1613,-2.180925 -2.3789,-2.09375 -0.6412,-0.228816 -1.0527,0.231048 -1.4863,0.625 -0.6563,0.66233 -0.7556,1.736567 -0.3984,2.582031 4.1764,12.750828 8.5452,25.437288 12.8691,38.138668 8.7655,25.65094 17.5591,51.29222 26.3359,76.93946 2.1243,6.28235 4.2562,12.65672 6.0606,19.07422 -1.5401,-1.02091 -3.1236,-2.03399 -4.9063,-2.57422 -1.0971,-1.44422 -2.7776,-2.29144 -4.2324,-3.32813 -7.6444,-4.94685 -15.3696,-9.72845 -23.0508,-14.62304 -51.2676,-32.48368 -102.4423,-65.11006 -153.7539,-97.52149 -14.0382,-8.8292 -28.0376,-17.724167 -42.1679,-26.404296 -1.0707,-0.608655 -2.0768,-1.425339 -3.3516,-1.527343 -1.572,-0.340374 -3.1429,-0.681111 -4.7148,-1.021485 z"
   id="path999" /><path
   style="fill:#000000"
   d="m 4115.8008,69.873047 c -0.1344,-0.0024 -0.2679,-0.0017 -0.4024,0.002 -3.1821,0.02761 -6.1158,1.972991 -7.707,4.675781 -1.6501,2.426955 -2.1484,5.713957 -0.8184,8.396485 1.6915,3.537948 5.4786,6.191572 9.4864,5.886718 3.9223,-0.179569 7.4719,-3.180917 8.3359,-7.005859 0.9417,-3.586539 -0.2838,-7.717925 -3.293,-9.96875 -1.5892,-1.240406 -3.586,-1.950593 -5.6015,-1.986328 z"
   id="path997" /><path
   style="fill:#000000"
   d="m 4138.9941,67 c -3.2656,0.02196 -6.156,2.256874 -7.5918,5.095703 -1.1115,2.048334 -1.9034,4.540999 -0.998,6.818359 0.5688,1.592274 1.603,2.978002 2.8125,4.142579 -2.6509,0.524506 -4.8617,2.436512 -6.3223,4.644531 -0.8707,1.344804 -1.2318,3.119106 -0.4609,4.59375 1.1292,2.442788 3.1902,4.615224 5.8105,5.410156 2.7801,0.806182 5.6747,-0.833676 7.3008,-3.041016 1.8338,-2.498564 1.7444,-6.111867 0.01,-8.636718 1.6297,0.04214 3.1992,0.667182 4.4883,1.646484 2.6703,1.678139 6.308,1.384476 8.7675,-0.548828 2.4499,-1.755427 3.9796,-4.800796 3.6094,-7.832031 -0.301,-3.481726 -2.9771,-6.835111 -6.5644,-7.234375 -1.3234,0.07118 -2.4342,-0.781069 -3.4121,-1.56836 -1.9516,-2.030811 -4.5503,-3.569327 -7.4473,-3.490234 z"
   id="path995" /><path
   style="fill:#000000"
   d="m 3849.4082,21.412109 c -4.9873,0.142397 -10.0688,1.109784 -14.4062,3.681641 -5.5225,2.968839 -10.2388,7.427547 -13.4063,12.847656 -1.6941,2.981719 -3.27,6.075716 -4.2402,9.376953 -0.9472,3.589173 -0.8495,7.348994 -0.7071,11.027344 0.5343,8.673169 4.2512,17.267829 10.8008,23.082031 1.8263,1.711445 3.9897,2.98238 6.0645,4.355469 0.3338,0.301139 0.8848,0.55724 1.0019,0.998047 -0.7492,3.14197 -0.9181,6.389638 -1.1875,9.599609 -0.2784,4.046791 -0.5016,8.259891 1.0117,12.113281 1.8492,5.44485 5.6398,10.00704 9.9629,13.69727 3.3245,2.78611 7.1774,5.18083 11.5313,5.85937 5.8018,1.09255 11.915,1.35136 17.6055,-0.45508 7.9505,-2.37992 14.6009,-8.38864 18.1367,-15.85351 3.9246,-8.07918 4.2674,-17.898687 0.5273,-26.109378 -1.8904,-4.275688 -4.881,-7.981769 -8.3808,-11.050781 -0.6664,-0.679822 -1.5109,-1.287053 -1.8829,-2.18164 0.3048,-1.742568 1.3472,-3.255706 1.8887,-4.931641 2.1305,-6.071685 2.2743,-12.735562 1.0039,-19.007812 -1.0757,-5.293102 -3.6754,-10.177665 -6.959,-14.425782 -4.5717,-5.817317 -11.0716,-10.271498 -18.3867,-11.726562 -3.2721,-0.705067 -6.6342,-0.983217 -9.9785,-0.896485 z"
   id="path993" /><path
   style="fill:#000000"
   d="m 3967.5703,21.177734 c -5.9935,0.247929 -12.0453,2.087826 -16.7285,5.931641 -3.0338,2.418596 -5.4455,5.51691 -7.4863,8.792969 -2.0732,-1.648682 -4.0181,-3.486002 -6.3575,-4.769532 -8.651,-4.979856 -19.4596,-5.63283 -28.8476,-2.457031 -5.444,1.961733 -10.081,5.724552 -13.8359,10.060547 -3.0091,3.496337 -5.3948,7.599977 -6.459,12.117188 -2.2118,8.331177 -1.2612,17.51259 2.9218,25.082031 4.0886,7.534387 11.214,13.31493 19.3633,15.919922 4.6986,1.176811 9.6042,0.973113 14.3985,0.685547 3.4775,-0.197943 6.9463,-0.993374 10.0293,-2.650391 7.3398,-3.643821 13.4105,-9.955164 16.3691,-17.636719 0.2292,-0.497869 0.3909,-1.394916 1.0586,-0.783203 3.4707,1.774134 6.7993,4.131122 10.7637,4.632813 3.5265,0.429512 7.1153,0.346057 10.6347,-0.117188 4.3353,-0.60843 8.4312,-2.502079 11.8106,-5.267578 5.5938,-4.259473 9.3642,-10.761188 10.3965,-17.705078 0.9231,-5.812066 -0.1374,-11.915318 -3.043,-17.041016 -3.2954,-6.132747 -8.7533,-11.230685 -15.4199,-13.441406 -3.0681,-1.049516 -6.332,-1.476742 -9.5684,-1.353516 z"
   id="path991" /><path
   style="fill:#000000"
   d="m 4353.4473,9.1757812 c -9.1062,0.1462962 -17.8616,5.0630308 -23.0391,12.5019528 -4.1855,5.871527 -6.027,13.435296 -4.6484,20.546875 0.1587,1.091527 0.479,2.19562 0.4121,3.296875 -1.8747,0.926948 -3.973,1.325365 -5.8281,2.3125 -7.0313,3.449809 -12.5044,9.828502 -15.129,17.179688 -2.2852,6.676203 -2.4784,14.135592 -0.205,20.841797 3.0254,8.595827 10.3336,15.384981 18.9218,18.265621 7.7804,2.70288 16.6549,2.2161 23.9981,-1.56836 0.96,-0.44863 1.8916,-0.98557 2.916,-1.27539 1.1891,1.74438 1.9821,3.74128 3.291,5.41407 3.9832,5.36841 9.6329,9.4938 15.9492,11.67578 7.8593,2.56258 16.6358,1.65729 24.0801,-1.80078 4.1809,-1.92091 7.88,-4.83212 10.7578,-8.41993 3.1452,-3.66683 5.3577,-8.161636 6.0645,-12.95898 0.6447,-4.365721 0.6294,-8.829936 0.059,-13.203125 -0.6382,-4.902085 -2.667,-9.610051 -5.8633,-13.388672 -4.0038,-4.960109 -9.501,-8.653631 -15.5723,-10.574219 -4.5511,-1.459711 -9.4307,-2.00397 -14.1758,-1.335937 3.195,-3.593997 5.6384,-7.967526 6.3907,-12.759766 1.1055,-6.603396 0.4297,-13.633322 -2.6836,-19.626953 -3.3604,-6.676474 -9.5899,-11.786609 -16.7559,-13.878906 -2.8936,-0.85613 -5.9199,-1.2999489 -8.9394,-1.2441408 z"
   id="path989" /><path
   style="fill:#000000"
   d="m 4418.668,0.5625 c -8.5356,0.0983731 -17.0331,3.5959151 -22.9571,9.78125 -6.0265,6.148856 -9.2533,14.797054 -9.0957,23.373047 -0.01,3.868415 0.3967,7.815631 1.9981,11.380859 2.5175,6.14739 7.0532,11.297213 12.2949,15.291016 3.5025,2.651096 7.6081,4.63924 12.0195,5.085937 3.8889,0.404145 7.8274,0.29163 11.7071,-0.160156 6.1574,-0.748819 12.2135,-3.157813 16.7832,-7.425781 4.4953,-4.151071 7.5143,-9.653453 9.58,-15.355469 1.4177,-4.089971 0.8994,-8.486332 0.6758,-12.716797 -0.3245,-4.510401 -1.1525,-9.132115 -3.5957,-13.019531 -4.4009,-7.5964149 -12.0166,-13.1905792 -20.539,-15.2480469 -2.8988,-0.70983185 -5.8874,-1.03793464 -8.8711,-0.9863281 z"
   id="path966" />
</svg>
