<?xml version="1.0" encoding="UTF-8" standalone="no"?>
<!-- Generator: Adobe Illustrator 18.0.0, SVG Export Plug-In . SVG Version: 6.00 Build 0)  -->

<svg
   version="1.1"
   x="0px"
   y="0px"
   width="9451.45px"
   height="623.52px"
   viewBox="0 0 9451.45 623.52"
   enable-background="new 0 0 9451.45 623.52"
   xml:space="preserve"
   id="svg1152"
   sodipodi:docname="21 Cotton production_mask-01.svg"
   inkscape:version="1.1.1 (c3084ef, 2021-09-22)"
   xmlns:inkscape="http://www.inkscape.org/namespaces/inkscape"
   xmlns:sodipodi="http://sodipodi.sourceforge.net/DTD/sodipodi-0.dtd"
   xmlns="http://www.w3.org/2000/svg"
   xmlns:svg="http://www.w3.org/2000/svg"><defs
   id="defs1156" /><sodipodi:namedview
   id="namedview1154"
   pagecolor="#505050"
   bordercolor="#eeeeee"
   borderopacity="1"
   inkscape:pageshadow="0"
   inkscape:pageopacity="0"
   inkscape:pagecheckerboard="0"
   showgrid="false"
   inkscape:zoom="0.45657983"
   inkscape:cx="4252.2684"
   inkscape:cy="273.77469"
   inkscape:window-width="1312"
   inkscape:window-height="762"
   inkscape:window-x="0"
   inkscape:window-y="25"
   inkscape:window-maximized="0"
   inkscape:current-layer="svg1152" />

<path
   id="path1451"
   style="fill:#000000"
   d="m 4418.668,0.5625 c -8.5356,0.0983731 -17.0323,3.5958531 -22.9563,9.781188 -6.0265,6.148856 -9.2545,14.797495 -9.0969,23.373488 -0.01,3.868415 0.3973,7.815941 1.9987,11.381169 2.5175,6.14739 7.053,11.296524 12.2947,15.290327 3.5025,2.651096 7.6075,4.640055 12.0189,5.086752 3.8889,0.404145 7.8284,0.291547 11.7081,-0.160239 6.1574,-0.748819 12.2131,-3.158545 16.7828,-7.426513 4.4953,-4.151071 7.5152,-9.654222 9.5809,-15.356238 1.4177,-4.089971 0.8977,-8.486283 0.6741,-12.716748 -0.3245,-4.510401 -1.152,-9.131649 -3.5952,-13.019065 -4.4009,-7.5964149 -12.0163,-13.1903252 -20.5387,-15.2477929 -2.8988,-0.70983188 -5.8874,-1.03793464 -8.8711,-0.9863281 z m -65.2207,8.6132812 c -9.1062,0.1462961 -17.8619,5.0635588 -23.0394,12.5024808 -4.1855,5.871527 -6.0273,13.434482 -4.6487,20.546061 0.1587,1.091527 0.4796,2.195906 0.4127,3.297161 -1.8747,0.926948 -3.9721,1.325135 -5.8272,2.31227 -7.0313,3.449809 -12.5053,9.828732 -15.1299,17.179918 -2.2852,6.676203 -2.4778,14.135927 -0.2044,20.842132 3.0254,8.595827 10.3339,15.385546 18.9221,18.266186 7.7804,2.70288 16.6541,2.21557 23.9973,-1.56889 0.96,-0.44863 1.8915,-0.98594 2.9159,-1.27576 1.1891,1.74438 1.9813,3.74045 3.2902,5.41324 3.9832,5.36841 9.6341,9.49504 15.9504,11.67702 7.8593,2.56258 16.6347,1.65691 24.079,-1.80116 4.1809,-1.92091 7.8805,-4.83186 10.7583,-8.41967 3.1452,-3.66683 5.3577,-8.162193 6.0645,-12.959537 0.6447,-4.365721 0.6298,-8.830581 0.059,-13.20377 -0.6382,-4.902085 -2.6667,-9.609993 -5.863,-13.388614 -4.0038,-4.960109 -9.5023,-8.65248 -15.5736,-10.573068 -4.5511,-1.459711 -9.4298,-2.004267 -14.1749,-1.336234 3.195,-3.593997 5.6388,-7.967608 6.3911,-12.759848 1.1055,-6.603396 0.4295,-13.632738 -2.6838,-19.626369 -3.3604,-6.676474 -9.5897,-11.787892 -16.7557,-13.880189 -2.8936,-0.8561299 -5.9203,-1.2991679 -8.9398,-1.2433598 z m -385.877,12.0019528 c -5.9935,0.247929 -12.0444,2.08741 -16.7276,5.931225 -3.0338,2.418596 -5.4464,5.517326 -7.4872,8.793385 -2.0732,-1.648682 -4.0189,-3.486731 -6.3583,-4.770261 -8.651,-4.979857 -19.4597,-5.631403 -28.8477,-2.455604 -5.444,1.961733 -10.0807,5.724279 -13.8356,10.060274 -3.0091,3.496337 -5.3948,7.600139 -6.459,12.11735 -2.2118,8.331177 -1.2607,17.511311 2.9223,25.080752 4.0886,7.534387 11.2141,13.315622 19.3634,15.920614 4.6986,1.176811 9.6049,0.972352 14.3992,0.684786 3.4775,-0.197943 6.945,-0.991681 10.028,-2.648698 7.3398,-3.643821 13.4116,-9.955648 16.3702,-17.637203 0.2292,-0.497869 0.3904,-1.394436 1.0581,-0.782723 3.4707,1.774134 6.7988,4.129899 10.7632,4.63159 3.5265,0.429512 7.1158,0.346352 10.6352,-0.116893 4.3353,-0.60843 8.4316,-2.502414 11.811,-5.267913 5.5938,-4.259473 9.3642,-10.760474 10.3965,-17.704364 0.9231,-5.812066 -0.1378,-11.915697 -3.0434,-17.041395 -3.2954,-6.132747 -8.7524,-11.230181 -15.419,-13.440902 -3.0681,-1.049516 -6.3329,-1.477246 -9.5693,-1.35402 z m -118.1621,0.234375 c -4.9873,0.142397 -10.0679,1.110287 -14.4053,3.682144 -5.5225,2.968839 -10.2388,7.427889 -13.4063,12.847998 -1.6941,2.981719 -3.2709,6.074871 -4.2411,9.376108 -0.9472,3.589173 -0.8495,7.349085 -0.7071,11.027435 0.5343,8.673169 4.252,17.267414 10.8016,23.081616 1.8263,1.711445 3.9883,2.983377 6.0631,4.356466 0.3338,0.301139 0.8854,0.556567 1.0025,0.997374 -0.7492,3.14197 -0.9175,6.389157 -1.1869,9.599128 -0.2784,4.046792 -0.5016,8.260622 1.0117,12.114012 1.8492,5.44485 5.6392,10.00679 9.9623,13.69702 3.3245,2.78611 7.1771,5.18143 11.531,5.85997 5.8018,1.09255 11.9144,1.35109 17.6049,-0.45535 7.9505,-2.37992 14.6018,-8.38982 18.1376,-15.85469 3.9246,-8.07918 4.2676,-17.896873 0.5275,-26.107564 -1.8904,-4.275688 -4.881,-7.981902 -8.3808,-11.050914 -0.6664,-0.679822 -1.5111,-1.287884 -1.8831,-2.182471 0.3048,-1.742568 1.3472,-3.256298 1.8887,-4.932233 2.1305,-6.071685 2.2742,-12.734944 1.0038,-19.007194 -1.0757,-5.293102 -3.675,-10.178214 -6.9586,-14.426331 -4.5717,-5.817317 -11.0719,-10.270986 -18.387,-11.72605 -3.2721,-0.705067 -6.6342,-0.983206 -9.9785,-0.896474 z m 512.4121,41.632813 c 0.6411,0.165129 1.5618,0.841179 0.979,1.555983 -0.7064,0.941246 -2.1486,-0.03489 -2.1092,-1.028039 -0.1831,-0.70014 0.7268,-0.506525 1.1302,-0.527944 z M 4138.9941,67 c -3.2656,0.02196 -6.1551,2.256235 -7.5909,5.095064 -1.1115,2.048334 -1.9043,4.541637 -0.9989,6.818998 0.5688,1.592273 1.603,2.978002 2.8125,4.142579 -2.6509,0.524506 -4.8617,2.436512 -6.3223,4.644531 -0.8707,1.344804 -1.2323,3.118137 -0.4614,4.592781 1.1292,2.442788 3.1907,4.616193 5.811,5.411125 2.7801,0.806182 5.6749,-0.833006 7.301,-3.040345 1.8338,-2.498564 1.7446,-6.112538 0.01,-8.637389 1.6297,0.04214 3.1992,0.667182 4.4883,1.646484 2.6703,1.678139 6.3073,1.383511 8.7668,-0.549793 2.4499,-1.755427 3.9804,-4.799831 3.6102,-7.831066 -0.301,-3.481726 -2.9784,-6.834295 -6.5657,-7.233559 -1.3234,0.07118 -2.433,-0.781885 -3.4109,-1.569176 -1.9516,-2.030811 -4.5503,-3.569327 -7.4473,-3.490234 z m -23.5957,2.875 c -3.1821,0.02761 -6.116,1.972357 -7.7072,4.675147 -1.6501,2.426955 -2.148,5.714368 -0.818,8.396896 1.6915,3.537948 5.4787,6.191964 9.4865,5.88711 3.9223,-0.179569 7.4712,-3.181371 8.3352,-7.006313 0.9417,-3.586539 -0.2829,-7.717869 -3.2921,-9.968694 -1.6952,-1.3231 -3.8537,-2.042589 -6.0044,-1.984146 z m -161.3632,15.962891 c 2.9912,2.167535 6.1539,4.096124 9.2324,6.139016 34.1479,22.065423 68.4427,43.899583 102.734,65.739663 32.5025,20.66645 65.0072,41.33051 97.6195,61.82445 -16.2526,-6.363 -32.3626,-13.0818 -48.5372,-19.63922 -60.8056,-24.79216 -121.6035,-49.60605 -182.4148,-74.3827 -11.2219,-4.51493 -22.424,-9.08665 -33.7629,-13.3023 -1.1794,-0.419 -2.378,-0.92719 -3.6575,-0.72481 -0.4884,0.20304 -0.6694,0.95134 -1.0371,1.36972 -0.2982,1.13536 0.3289,2.30575 1.3255,2.88243 1.9161,1.16896 4.076,1.7694 6.1256,2.67863 34.905,14.16975 69.7707,28.43633 104.6541,42.65971 47.8767,19.55657 95.7708,39.07149 143.6454,58.63249 10.1299,4.21209 20.3272,8.27661 30.3003,12.85304 1.6733,0.80382 3.3803,1.56768 4.9289,2.59996 -0.2499,2.21078 -0.9743,4.36701 -0.9551,6.60351 0.2004,3.37014 2.2886,6.18573 3.9235,9.0068 1.2787,2.18171 2.9472,4.45103 2.699,7.12001 -0.077,1.27695 -0.1867,2.42539 -0.4526,3.71499 -0.5587,2.45599 -1.3977,4.91737 -3.0286,6.88192 -0.5071,0.75103 -1.2299,1.55402 -1.2036,2.48674 0.2258,0.48331 0.1367,1.26308 0.59,1.53041 0.7016,0.12833 1.4186,0.76851 2.1006,0.28942 1.1027,-0.48657 1.949,-1.422 2.8229,-2.23341 1.3578,-1.53403 2.4248,-3.33075 3.1348,-5.25195 2.5345,6.82554 4.499,13.8448 6.7535,20.76472 0.5971,2.07133 1.4285,4.0865 1.8351,6.206 0,1.13418 -0.9889,1.94338 -1.5929,2.81425 -4.1328,4.86275 -7.4819,10.52448 -8.9345,16.78517 -1.7246,7.13752 -0.7517,14.79003 2.3158,21.42733 1.523,3.58726 3.8895,6.705 5.8573,10.04354 0.6269,1.24863 1.5349,2.52177 1.4688,3.97461 -0.4582,0.99196 -1.6037,1.42396 -2.5098,1.91992 -1.486,0.48367 -2.9413,-0.47549 -4.2307,-1.10429 -4.8567,-2.74353 -9.0456,-6.55378 -14.093,-8.98147 -4.3231,-2.23035 -9.2077,-3.34909 -14.0728,-3.13689 -3.1539,0.0281 -6.3555,0.37358 -9.4746,-0.23828 -2.6934,-0.67205 -4.616,-2.8314 -6.6919,-4.52454 -3.846,-3.3442 -8.3168,-6.39364 -13.5009,-7.00796 -5.4875,-0.68563 -10.8927,1.09308 -15.939,3.05973 -4.5858,1.81522 -9.1214,4.15218 -14.1189,4.52457 -2.771,0.22558 -5.4579,-0.74893 -7.8547,-2.05571 -1.6209,-0.76596 -3.2832,-1.51749 -5.0451,-1.86139 -3.5957,-1.75993 -6.9157,-4.02987 -10.2392,-6.24947 -1.9137,-1.33507 -3.977,-2.73258 -5.788,-4.34306 -0.6599,-0.75486 -1.1517,-1.85575 -2.254,-2.04337 -1.1895,-0.33716 -2.4427,0.60301 -2.6127,1.80066 -0.4103,1.7816 1.0012,3.22779 2.0245,4.49833 3.9917,4.50195 8.5011,8.51744 13.1246,12.3558 3.2721,2.59242 6.5932,5.52083 10.8055,6.38156 3.4578,0.63938 7.1393,0.89032 10.4971,-0.35926 5.1063,-1.84804 9.7766,-4.68494 14.7737,-6.79062 2.5971,-1.09147 5.1842,-2.2964 7.9421,-2.92043 1.1608,-0.21471 2.4529,-0.18895 3.3767,0.65204 3.2843,2.64167 5.974,5.94741 9.2815,8.56671 2.3009,1.90606 5.1959,2.98547 8.1608,3.23474 4.893,0.44467 9.8153,0.21851 14.7216,0.29764 3.138,0.0808 6.3336,-0.0695 9.4077,0.66658 2.1586,0.67171 4.1583,1.87863 5.8333,3.3913 2.9792,2.78992 4.1192,6.85797 6.486,10.09333 1.8091,2.67778 4.4762,4.94987 7.7304,5.53907 1.5131,0.30176 3.0717,0.3376 4.6055,0.20703 -3.6771,1.29821 -7.0392,3.6517 -9.169,6.95817 -1.8824,2.86597 -3.0922,6.10062 -4.4381,9.23676 -0.3436,0.74146 -0.428,1.65261 -1.2027,2.10479 -2.6513,2.03157 -5.7349,3.4802 -8.9196,4.45862 -1.0097,0.3121 -2.1053,0.48646 -3.1026,0.0307 -4.9105,-1.67065 -9.2717,-4.53406 -13.8775,-6.85435 -2.5525,-1.20845 -5.1616,-2.5085 -7.9997,-2.83888 -3.1402,-0.10975 -6.0799,-1.35597 -8.9313,-2.56218 -3.617,-1.44224 -7.8027,-1.90303 -11.4736,-0.38059 -2.3275,0.93037 -4.2783,2.55248 -6.4992,3.69264 -5.6662,3.25402 -11.6314,5.9467 -17.3242,9.15039 -0.5194,0.32315 -1.1004,0.70545 -1.4153,1.21268 -0.087,0.78651 -0.1737,1.57305 -0.2605,2.35959 1.038,0.26829 2.065,0.70994 3.1539,0.46772 3.6843,-0.52391 7.2221,-1.82096 10.6003,-3.34791 2.351,-1.0078 4.2276,-2.82228 6.563,-3.86131 4.3754,-2.09799 9.3052,-3.13804 14.1551,-2.79102 3.6867,0.46695 7.0294,2.22949 10.3786,3.72776 6.1191,2.84333 12.0788,6.04839 18.3581,8.53447 2.9677,1.15935 6.325,1.94863 9.4343,0.84709 2.8151,-0.93358 5.3069,-2.61458 8.0794,-3.65298 -0.041,3.11667 1.1241,6.07981 2.2022,8.95225 1.3714,3.26781 3.0304,6.44363 3.8381,9.91894 1.4779,5.70169 0.6338,11.71441 -0.9488,17.29744 -0.9953,3.38571 -2.5897,6.57457 -4.5544,9.49934 -0.4581,0.68014 -1.095,1.58402 -1.6542,2.32969 -4.2348,5.66459 -9.4291,10.51421 -13.8388,16.03549 -2.1402,2.69385 -4.4636,5.35276 -5.6948,8.61623 -2.9753,7.28573 -3.0675,15.40887 -1.9292,23.09566 0.6543,4.09256 1.3131,8.24557 0.8403,12.39829 -0.5014,5.52526 -1.8452,10.96697 -1.9362,16.52855 -0.024,1.54659 0.3299,3.46391 1.9354,4.11439 1.1952,0.5614 2.6439,-0.18388 3.134,-1.36382 0.9254,-2.21493 0.9201,-4.67486 1.2538,-7.02183 0.4568,-4.35338 1.1346,-8.68063 1.6185,-13.02967 0.7106,-8.52855 0.5758,-17.09551 0.4239,-25.6435 0.061,-2.86859 -0.2088,-5.86604 0.859,-8.59268 1.7541,-3.95563 4.8227,-7.09748 7.7697,-10.18541 3.2015,-3.26552 6.7955,-6.13233 9.8017,-9.59285 4.3708,-4.76745 7.7565,-10.44365 9.7243,-16.61287 1.4366,-4.14693 2.2151,-8.59444 1.6121,-12.97662 -0.6168,-5.09211 -2.494,-9.8967 -3.9725,-14.77377 -1.1271,-4.10023 -2.0347,-8.49399 -0.9822,-12.70809 0.7078,-2.90953 2.9716,-5.24299 5.709,-6.35841 1.1457,-0.50743 2.4629,-1.13479 3.6932,-0.49537 2.8092,1.14853 5.3625,2.87901 8.2854,3.76508 6.6914,2.23821 14.4247,2.08247 20.6416,-1.46918 2.1766,-1.20719 3.9856,-2.95221 5.5628,-4.85639 0.4108,-0.39276 0.823,-0.89992 1.3854,-1.04471 0.3603,0.41969 0.1368,1.12775 0.1015,1.64453 -0.7392,3.48476 -2.5578,6.61595 -4.2755,9.69586 -2.9803,4.98785 -6.2279,9.84553 -8.5754,15.18076 -2.1386,4.70317 -3.4687,9.9165 -2.8544,15.10724 0.565,5.04646 1.8272,10.04026 3.8811,14.68997 1.5031,3.40773 4.4582,5.89332 7.4452,7.98159 2.3697,1.65457 4.9985,2.89384 7.7177,3.85171 0.582,0.33212 0.448,1.18711 0.5721,1.75867 0.2507,4.74077 -0.1147,9.48721 -0.1964,14.22878 -0.077,4.16723 -0.2881,8.35337 0.1177,12.50932 0.1348,0.96833 0.3492,2.06252 1.1816,2.67969 -0.031,3.21355 -0.9249,6.36267 -2.0263,9.36005 -0.9872,2.54714 -2.8018,5.02676 -2.4014,7.89581 0.1011,0.929 0.6248,1.71969 0.9394,2.57617 -1.2484,1.10043 -1.5352,3.07099 -0.5919,4.45419 0.5748,0.75606 1.0564,1.57455 1.2818,2.50893 0.8091,2.71278 1.2931,5.51047 1.6851,8.31032 0.059,0.49298 0.1763,1.33028 0.2293,1.96452 0.117,1.56549 0.3435,3.16586 0.075,4.72298 -0.8899,1.58381 -0.3877,3.81575 1.2559,4.68945 1.051,0.61468 2.3503,0.6767 3.5078,0.36133 -1.5295,5.17584 -3.0861,10.35627 -4.1817,15.64453 -0.2716,1.14164 0,2.58249 1.1875,3.07504 1.2835,0.63758 2.5925,-0.31084 3.5747,-1.09006 2.4636,-1.66097 3.3181,-4.69015 3.8995,-7.44062 0.4115,-1.92056 0.6798,-3.892 1.0419,-5.73509 0.2461,-1.09418 0.4129,-2.39775 0.7847,-3.34442 2.5843,1.14771 5.8285,0.25027 7.6043,-1.91354 0.941,-0.89722 2.3576,-0.39448 3.4074,-1.07279 1.9758,-1.00212 2.491,-3.40736 2.4655,-5.43548 -0.054,-2.52855 -0.3039,-5.09597 -1.0865,-7.51167 -0.393,-1.11102 -1.0578,-2.18704 -2.0938,-2.79895 3.8473,-1.58927 6.2203,-6.09318 5.3887,-10.16015 -0.184,-0.69238 -0.6125,-1.32971 -1.2305,-1.70313 1.8219,-0.58602 2.8012,-2.55309 3.1074,-4.32422 0.071,-0.67648 -0.1159,-1.34197 -0.6561,-1.78224 -0.3105,-0.63879 -1.0568,-0.46321 -1.6408,-0.5869 -1.569,0.34095 -2.4815,1.80977 -3.7851,2.61133 -0.9355,-0.43776 -1.7792,-1.19751 -2.8555,-1.24219 -0.1796,-0.91297 -0.816,-1.86263 -1.8015,-1.96579 -0.8591,-0.27653 -1.7918,0.2829 -2.3254,0.95603 -0.5701,-0.43703 -1.3228,-0.54277 -2.0059,-0.59375 -0.1326,-2.68114 0.5098,-5.34675 1.2852,-7.89649 0.2992,-0.75938 0.4816,-1.66046 1.2363,-2.09765 1.7034,-1.68216 1.7823,-4.26601 1.845,-6.51113 0.131,-5.06852 0.7721,-10.11821 1.6655,-15.10524 0.2314,-1.09115 0.4524,-2.56832 1.7488,-2.86145 2.6873,-0.70686 5.5005,-0.65225 8.2546,-0.87154 3.8114,-0.21704 7.7421,-0.42918 11.4998,-0.54713 4.1366,-0.0586 8.3594,-0.30414 12.4082,0.7168 2.8584,0.8607 5.4151,2.48608 7.8852,4.12314 3.6484,2.54725 7.129,5.74839 8.6913,10.02683 1.0122,2.32808 0.965,4.98577 0.1498,7.36396 -0.741,1.91369 -1.0659,3.99158 -0.7381,6.03099 0.7404,5.17691 2.8261,10.04609 3.7071,15.19141 0.5981,3.59448 -1.0198,7.01453 -2.3052,10.26872 -1.9501,4.59563 -4.0733,9.20248 -4.8074,14.18594 -0.7315,4.56431 -0.3883,9.39343 1.4742,13.65603 0.3953,0.69352 1.1457,1.28225 1.9786,1.13931 0.6763,0.17737 1.1299,-0.41248 1.5559,-0.82683 0.7821,-1.31432 0.3083,-2.91248 0.2903,-4.3509 -0.096,-1.11914 -0.2297,-2.44578 -0.2919,-3.43751 -0.2235,-2.21108 0.1154,-4.4593 1.0533,-6.47919 2.0822,-4.88075 4.9942,-9.49374 5.9177,-14.7962 0.8701,-4.84052 1.1043,-9.76632 1.4773,-14.66258 0.2538,-4.12847 0.3959,-8.39914 -1.0521,-12.34671 -1.048,-3.19899 -1.5715,-6.56158 -1.6124,-9.92435 -0.2706,-3.10336 -0.901,-6.35926 -2.9376,-8.826 -2.9605,-3.74871 -6.8864,-6.63013 -11.0124,-8.97858 -2.8962,-1.58613 -6.025,-2.9684 -9.3627,-3.15983 -3.4758,-0.80298 -6.3417,-3.31954 -9.9418,-3.70156 -2.5887,-0.3468 -5.0862,0.42649 -7.6677,0.37888 -1.6948,0.0426 -3.3905,0.0107 -5.0842,-0.0547 -0.5151,-0.0366 -1.3864,-0.0658 -2.0376,-0.12032 -2.2685,-0.23083 -4.5825,-0.26779 -6.8011,-0.82394 -0.2025,-1.12555 -0.052,-2.39161 -0.019,-3.56805 0.1511,-2.33805 0.4604,-4.67302 0.8089,-6.91473 0.9463,-5.66875 2.1198,-11.3312 4.029,-16.76151 0.644,-1.8179 1.7456,-3.65809 3.6608,-4.33293 2.8385,-1.07165 5.9032,-1.30902 8.8926,-1.66815 3.9824,-0.41014 7.8022,1.09491 11.5336,2.25884 7.7031,2.52632 15.2487,5.5717 23.1226,7.54798 5.9379,1.42123 12.0642,1.80478 18.1476,2.01062 3.5946,0.0546 7.2418,0.11568 10.7586,-0.74286 1.0556,-0.27785 2.1775,-0.0507 3.0204,0.65008 1.9876,1.49025 3.9206,3.06671 6.0852,4.30391 5.8789,3.4812 12.1431,6.31754 18.6187,8.49211 2.5305,0.84303 5.1422,1.45845 7.8089,1.63401 4.288,0.49889 7.842,3.17174 11.3958,5.39241 6.6413,4.11199 13.5826,7.71608 20.5411,11.25617 3.1465,1.56501 6.2408,3.06339 9.3354,4.65046 4.0065,2.06141 8.1437,4.21887 12.0703,6.55303 1.4438,0.90324 2.9009,1.83833 4.136,3.0149 0.2671,0.44212 -0.2385,0.98874 -0.3594,1.41602 -1.3833,2.52411 -3.1877,4.79644 -4.8415,7.07587 -4.422,5.90259 -8.9494,11.74588 -12.7895,18.05421 -3.8373,6.12717 -7.0387,12.61696 -10.1915,19.11331 -2.4971,4.95081 -4.8754,9.99252 -7.9606,14.61351 -1.3082,1.93638 -3.0151,3.84523 -5.4088,4.33449 -2.429,0.60151 -4.8291,1.96556 -5.9429,4.30225 -1.2602,2.43675 -1.8082,5.48635 -0.4911,8.01847 1.2633,2.61497 3.7172,4.29048 5.8195,6.17286 3.4231,3.36706 6.2999,7.282 8.6432,11.46686 0.7816,1.472 1.5956,3.01982 1.5801,4.73031 0.2327,1.90378 0.9733,3.7221 2.0662,5.2884 0.756,1.40037 0.8296,3.00591 0.9607,4.55232 0.5417,3.41559 3.3936,5.94939 6.4352,7.26521 2.202,1.00459 4.6172,1.39733 6.9335,2.02951 1.1006,0.0294 2.1769,-0.43578 3.1621,-0.88867 1.9097,-1.1315 2.3048,-3.57649 2.3297,-5.61343 -0.013,-3.3173 -0.9578,-6.5466 -1.8696,-9.70994 -0.9394,-2.89699 -1.8767,-5.86498 -3.5714,-8.42273 -0.6304,-1.01945 -0.6999,-2.29205 -0.9917,-3.43906 -0.4357,-2.29534 -0.7437,-4.5077 -1.0198,-6.78574 -0.3307,-2.76754 -0.5726,-5.46973 -0.7502,-8.28496 -0.065,-1.16939 -0.1179,-2.25891 -0.1465,-3.3418 -0.1,-1.41704 -0.02,-2.91694 0.8334,-4.11654 1.9384,-3.02058 4.4361,-5.62939 6.7756,-8.33623 8.2908,-9.29985 16.912,-18.32717 24.5388,-28.19551 7.6237,-9.76877 14.3889,-20.37605 18.5876,-32.09331 1.1888,-3.40022 2.2542,-6.93044 4.3523,-9.90455 0.8812,-1.13424 1.6619,-2.37004 2.2009,-3.69463 5.1405,-5.69387 10.5057,-11.18104 15.7961,-16.73478 26.5362,-27.65663 53.5495,-54.89857 79.9915,-82.66487 1.3437,-1.51888 2.8794,-2.88616 4.0696,-4.53094 0.5367,-0.50693 0.1067,-1.22713 0.098,-1.85364 -0.4785,-0.4705 -0.8295,-1.18028 -1.6015,-1.10352 -1.4702,-0.23888 -2.5214,1.10207 -3.541,1.94365 -6.1106,5.75869 -11.9276,11.81949 -17.8417,17.77779 -18.6146,18.90491 -37.0277,38.01142 -55.6944,56.86732 -8.1341,8.14936 -16.2204,16.35267 -24.6175,24.23306 -0.6889,0.64016 -1.3863,1.27193 -2.1043,1.87936 -1.1617,-0.40085 -2.1694,-1.13641 -3.084,-1.94141 1.6889,-2.69024 4.0832,-4.82659 6.2315,-7.13678 8.3868,-8.6686 17.4051,-16.71544 25.5256,-25.64254 0.9555,-1.00786 1.7738,-2.16918 2.0652,-3.55076 0.8225,-3.37512 1.1883,-6.91455 0.7285,-10.37109 -0.7451,-4.11033 -3.186,-7.61033 -5.1504,-11.21189 -1.4157,-2.60028 -2.884,-5.21467 -3.7899,-8.04378 0.6484,-2.95215 1.9435,-5.72665 3.1574,-8.4848 6.0446,-13.52544 11.8034,-27.17684 17.6468,-40.79004 8.1571,-19.1709 16.3262,-38.33718 24.2854,-57.59096 0.8383,-2.12122 1.7944,-4.20687 2.4905,-6.37782 0.2153,-0.11809 0.7431,0.57254 1.0941,0.7564 2.5438,2.05618 5.6192,3.34616 8.8069,4.00574 4.8402,1.21655 10.0059,-0.17796 14.1356,-2.80961 5.3018,-3.34794 9.2431,-9.01227 9.9252,-15.31066 0.6312,-4.90619 -0.8827,-9.91489 -3.6904,-13.93495 -0.9511,-1.45599 -2.1993,-2.74865 -3.0127,-4.27208 1.5384,-1.44497 3.2413,-2.73905 4.5136,-4.44727 4.0877,-5.11666 5.4805,-12.25158 3.5421,-18.51578 -1.7854,-5.95038 -6.2534,-11.11238 -12.0753,-13.39438 -7.6983,-3.14349 -17.2262,-1.337 -23.0424,4.66775 -3.7377,3.74939 -5.6327,9.05933 -5.6646,14.30568 0.05,0.92982 -0.2113,-0.22253 -0.3991,-0.52607 -1.5497,-3.57374 -4.2462,-6.59461 -7.4117,-8.82721 -6.8714,-4.72987 -16.5128,-4.73339 -23.5095,-0.25882 -5.066,3.12891 -8.6685,8.54371 -9.4394,14.46376 -0.9629,6.59257 1.5057,13.44183 6.0905,18.20899 1.3693,1.38082 2.9151,2.74538 3.5637,4.63585 0.1553,3.8503 2.0416,7.41477 4.325,10.42998 2.2431,2.9809 5.3331,5.34684 8.9035,6.48994 1.1597,0.39196 2.3536,0.6816 3.5625,0.87304 -1.3378,3.08783 -2.149,6.37423 -3.0254,9.61505 -0.2683,1.3521 -0.8361,2.72564 -0.6269,4.11738 -0.1025,0.45953 -0.4764,0.97114 -0.5917,1.49821 -2.7378,8.60723 -5.1697,17.3084 -7.6866,25.98201 -6.0101,20.99192 -11.7889,42.01975 -18.2052,62.88957 -1.0384,3.10715 -1.7728,6.55148 -4.1923,8.93099 -1.8354,1.61828 -4.0596,2.73056 -6.267,3.74772 -3.0103,1.17062 -6.3022,1.17303 -9.4806,1.41716 -12.3956,0.67246 -24.8425,0.60003 -37.192,1.97749 -6.819,0.72061 -13.4933,2.33125 -20.2284,3.55605 -3.1849,0.6121 -6.4607,0.7627 -9.6717,0.25847 -6.3979,-0.86545 -12.8328,-1.99901 -18.8185,-4.50767 -0.6223,-0.25789 -1.5269,-0.65619 -2.2448,-1.00087 -4.7586,-2.26453 -9.0725,-5.46061 -12.6384,-9.33756 -0.9207,-0.95182 -1.4327,-2.34171 -0.9603,-3.63435 0.967,-3.02392 2.9001,-5.60886 4.637,-8.22719 5.4156,-7.69188 11.0819,-15.20356 16.6025,-22.81994 15.7341,-21.52934 31.3916,-43.11725 47.1213,-64.64825 0.4972,-0.75747 1.0362,-1.53452 1.2093,-2.43927 2.1334,0.64017 4.5963,-0.36591 5.6211,-2.35546 0.4407,-0.78969 0.6901,-1.69286 0.6855,-2.59961 2.1681,0.59429 4.32,-1.14408 4.8223,-3.20704 0.3987,-1.23969 0.1911,-2.76682 -0.8594,-3.625 2.1978,-1.91064 2.2662,-5.7739 0.1387,-7.75585 -1.6705,-1.50291 -4.5364,-1.17895 -5.8262,0.6621 -0.5996,0.78198 -0.9391,1.75278 -1.0137,2.73243 -2.1241,-0.96982 -4.9852,0.12542 -5.6628,2.42583 -0.7123,1.92931 0.013,4.41204 1.8328,5.38667 -1.9773,1.19679 -3.3761,3.76908 -2.461,6.04492 -1.3031,0.44796 -1.9153,1.82989 -2.7927,2.79578 -8.9023,11.67256 -17.5501,23.53681 -26.2391,35.36808 -13.0377,17.84839 -26.0335,35.73975 -39.582,53.20869 -1.8504,2.30415 -3.6103,4.69476 -5.6459,6.84034 -1.8922,1.41086 -3.9223,3.04661 -6.3832,3.15466 -2.0766,-0.0546 -3.6415,-1.71422 -4.8437,-3.23747 -0.5917,-0.85254 -1.2647,-1.81548 -1.289,-2.87223 2.1428,-4.76148 4.6718,-9.33981 7.0831,-13.96912 10.8901,-20.47132 22.1057,-40.76031 33.3099,-61.07284 18.8983,-34.14428 37.9093,-68.22264 56.5424,-102.51202 1.2156,-2.3378 2.5744,-4.61236 3.6469,-7.01832 0.2194,-0.64909 0.4388,-1.29818 0.6582,-1.94727 -0.882,-0.23455 -1.7618,-0.61741 -2.6452,-0.75848 -1.1762,0.10925 -1.8822,1.12524 -2.4876,2.02606 -3.2498,4.96824 -5.9534,10.26524 -8.9026,15.41239 -25.5061,45.57377 -50.9395,91.18907 -76.3766,136.80179 -5.1269,9.09922 -10.1869,18.23927 -15.5177,27.22136 -1.2508,1.89583 -3.3237,3.0205 -5.2145,4.17916 -3.2159,1.75636 -6.6196,3.33719 -10.259,3.94401 -2.843,0.31347 -5.5989,-0.82395 -8.1358,-1.97789 -5.2245,-2.57535 -9.9699,-6.20382 -13.6769,-10.70843 -1.0152,-1.34945 -2.1088,-2.72553 -2.6337,-4.34896 -0.265,-2.14881 0.4828,-4.26043 0.9962,-6.32027 2.0704,-7.08602 4.6225,-14.02954 7.066,-20.96366 9.2725,-25.90878 18.8048,-51.72508 27.8157,-77.72522 0.4683,-1.64323 1.288,-3.2188 1.3975,-4.94202 0.9538,-1.03861 1.3618,-2.44664 1.9569,-3.70192 0.8357,-2.19883 1.7711,-4.42398 1.9805,-6.78831 0.011,-0.38247 0.6347,-0.62846 0.7989,-1.03516 1.0013,-1.49548 1.6951,-3.38086 1.3587,-5.19242 -0.2403,-1.12588 -1.4725,-1.92086 -2.5861,-1.59102 -1.5168,0.42187 -2.1294,2.09995 -2.6386,3.43542 -0.355,1.00595 -0.5884,2.13664 -0.468,3.16638 -0.8859,1.14162 -1.3452,2.55849 -1.9356,3.86719 -0.7736,2.09362 -1.6529,4.2067 -1.8417,6.45117 -0,0.48184 -0.6076,0.84153 -0.7204,1.357 -2.3276,5.45024 -4.3593,11.02224 -6.4908,16.55142 -8.689,22.88924 -17.1608,45.85975 -25.6931,68.80838 -1.7652,4.6567 -3.5708,9.41593 -5.4313,14.02205 -0.8247,1.91462 -1.4901,3.91968 -2.5341,5.72658 -1.8691,2.3705 -4.6078,4.02221 -7.5132,4.78244 -1.9324,0.59694 -3.8379,-0.37586 -5.5498,-1.17846 -2.4901,-1.25957 -4.6898,-3.02537 -7.2395,-4.18089 -1.8976,-0.96503 -3.9031,-1.71394 -5.9954,-2.11976 -3.2249,-0.87785 -6.4401,-1.9682 -9.4412,-3.29241 -1.0251,-0.3626 -1.7137,-1.26822 -1.9395,-2.31218 -0.9513,-3.47632 -1.3058,-7.08928 -2.3382,-10.54838 -1.0708,-3.76224 -2.2454,-7.62906 -4.7108,-10.744 -3.8481,-5.02476 -8.9148,-9.0129 -14.342,-12.21062 -3.6609,-2.19414 -7.8083,-3.56175 -11.1877,-6.21976 -2.1813,-3.47232 -3.2438,-7.52022 -4.0539,-11.50587 -0.4259,-2.16464 -0.7272,-4.3516 -0.9598,-6.54491 -0.048,-0.50382 -0.1352,-1.3597 -0.1767,-1.90253 -0.1535,-2.65194 -0.6291,-5.33752 -0.202,-7.98415 0.512,-2.24109 2.3888,-3.76921 3.8486,-5.41598 16.7207,-17.63279 33.3145,-35.38912 49.9646,-53.09179 23.9445,-25.49939 47.8917,-50.99799 71.7521,-76.57277 1.3715,-1.52181 2.8247,-2.99021 4.0439,-4.6363 0.4215,-0.46956 0.3435,-1.03422 0.2361,-1.60431 -0.1869,-0.46838 0.074,-1.49335 -0.4021,-1.60232 -1.0379,0.16604 -2.2392,-0.0617 -3.0483,0.75162 -3.6121,2.91272 -6.6856,6.41224 -9.9292,9.71417 -15.7924,16.51116 -31.4185,33.1768 -47.0827,49.80897 -19.588,20.79712 -39.0948,41.65711 -58.7797,62.36156 21.8947,-36.92218 43.8848,-73.78694 65.6633,-110.77804 4.2113,-7.21115 8.5076,-14.37684 12.5033,-21.71135 0.4888,-1.0769 1.3883,-2.226 1.0352,-3.45964 -0.378,-1.00934 -0.757,-2.01833 -1.1354,-3.02753 -1.1749,1.20278 -2.5489,2.24549 -3.3509,3.7573 -6.7435,10.80859 -13.2453,21.76891 -19.8178,32.67963 -22.4886,37.52308 -44.6125,75.26518 -67.3215,112.65682 -0.6925,1.12511 -1.3751,2.24754 -2.0625,3.3457 -0.867,-1.64699 -1.6098,-3.17483 -2.4336,-4.84766 -1.1817,-2.42907 -2.4014,-4.99369 -3.548,-7.46617 -2.762,-6.01916 -5.5773,-12.02504 -7.9442,-18.21352 -0.3958,-1.00987 -0.1311,-2.12715 -0.273,-3.18597 -0.2434,-3.54873 -0.2892,-7.1564 -1.2006,-10.6155 -0.806,-3.13989 -2.9163,-5.6692 -4.7952,-8.22358 -0.636,-0.79349 -1.06,-1.84155 -0.6413,-2.84066 1.0872,-3.14175 2.7992,-6.01769 4.2134,-9.0153 1.1189,-2.38458 2.3847,-4.72012 3.2319,-7.21859 0.1482,-0.55367 0.07,-1.23296 -0.1172,-1.73184 -0.5682,-0.42532 -1.1356,-0.85176 -1.7031,-1.27793 -0.8763,0.50111 -1.7944,0.98163 -2.3047,1.89844 -3.3295,4.95684 -6.3657,10.10717 -9.3489,15.27834 -1.3059,2.18098 -2.3048,4.55987 -3.9968,6.48924 -1.5146,1.98981 -3.5208,3.51466 -5.1524,5.39453 -0.4274,0.53028 -0.8302,1.08659 -1.1211,1.70508 -12.4978,-35.13589 -24.2509,-70.53019 -36.5435,-105.73716 -1.8707,-5.23972 -3.6096,-10.535003 -5.7696,-15.664964 -0.4037,-0.999586 -1.1609,-2.181148 -2.3785,-2.093973 -0.6412,-0.228816 -1.0528,0.231328 -1.4864,0.62528 -0.6563,0.66233 -0.7546,1.735973 -0.3974,2.581438 4.1764,12.750829 8.5453,25.436899 12.8692,38.138279 8.7655,25.65094 17.5583,51.29292 26.3351,76.94016 2.1243,6.28235 4.2562,12.65672 6.0606,19.07422 -1.5401,-1.02091 -3.1236,-2.03399 -4.9063,-2.57422 -1.0971,-1.44422 -2.7769,-2.29085 -4.2317,-3.32754 -7.6444,-4.94685 -15.3706,-9.72861 -23.0518,-14.6232 -51.2676,-32.48368 -102.4426,-65.11107 -153.7542,-97.5225 -14.0382,-8.8292 -28.0369,-17.724112 -42.1672,-26.404241 -1.0707,-0.608655 -2.0758,-1.425177 -3.3506,-1.527181 -1.572,-0.340374 -3.144,-0.680748 -4.7159,-1.021122 1.2389,1.538412 2.4778,3.076823 3.7168,4.615235 z m 520.2519,25.267579 c -5.046,0.12523 -10.0593,2.53905 -13.0274,6.66938 -0.8239,1.17745 -2.0224,2.32887 -3.5729,2.22043 -4.3196,0.0459 -8.4071,2.14507 -11.5619,4.99313 -2.8587,2.51634 -4.6555,6.12093 -5.0716,9.89591 -0.713,5.884 1.2504,12.21851 5.7212,16.22662 1.1929,1.25536 1.2587,3.06294 1.265,4.69113 0.3415,6.32713 4.1579,12.35445 9.8098,15.25483 3.3617,1.80011 7.3528,1.85094 11.0502,1.38614 3.0263,-0.43227 6.1078,-1.39848 8.3696,-3.5491 5.1752,-4.44922 7.9602,-11.76634 6.3618,-18.48964 -0.3783,-1.76263 -1.1954,-3.37643 -1.9903,-4.97852 0.6053,-0.2429 1.2035,-0.81091 1.8387,-0.81028 1.4582,1.19081 2.5136,2.83223 4.1379,3.83762 5.531,3.8466 13.742,2.82135 18.2754,-2.11914 2.1111,-2.22799 3.1857,-5.28797 3.2056,-8.33427 0.1967,-2.85811 -0.04,-5.93159 -1.7793,-8.32361 -1.4237,-1.9543 -3.1603,-3.70652 -5.1266,-5.11604 -2.2816,-1.63226 -5.1894,-1.57365 -7.8661,-1.57764 -0.9273,-0.0154 -2.0457,-0.0715 -2.524,-1.01756 -1.1414,-1.78299 -2.0933,-3.71625 -3.6134,-5.22736 -3.5381,-3.77254 -8.7541,-5.80134 -13.9017,-5.63203 z m -101.4375,59.22461 c -4.5805,0.0566 -8.7363,3.62531 -9.6873,8.0719 -0.8967,3.60098 0.5191,7.53342 3.2905,9.94378 3.0718,2.85125 7.9491,3.31792 11.5844,1.29534 3.3576,-1.77946 5.8254,-5.57642 5.3222,-9.4536 -0.4339,-3.53317 -2.3805,-7.05195 -5.5699,-8.78496 -1.5247,-0.74879 -3.2431,-1.10952 -4.9399,-1.07246 z m -20.2598,6.48047 c -3.97,7.3e-4 -7.8186,2.5046 -9.3135,6.20175 -1.6341,3.61318 -0.9871,8.12021 1.6631,11.08429 1.6144,1.83977 3.8224,3.20245 6.2422,3.6495 -1.8347,1.83015 -2.8908,4.30303 -3.5429,6.77539 -0.5643,2.4679 0.4982,4.92307 1.6074,7.07618 1.2585,2.10745 3.0458,4.24453 5.6055,4.66796 2.102,0.47551 4.2659,0.28588 6.3708,-0.0537 1.7419,-0.19538 3.2952,-0.27807 5.051,-0.39746 3.0167,-0.24137 6.1403,0.0457 9.0503,-0.92886 2.4671,-0.9097 4.0933,-3.14402 5.5337,-5.22739 1.6314,-2.44083 2.2251,-5.55582 1.4233,-8.39838 -0.7217,-3.09812 -2.591,-5.92064 -5.2736,-7.658 -3.4213,-2.3018 -8.0789,-3.24313 -11.9144,-1.42326 -1.0971,0.48543 -1.9589,1.33924 -2.8019,2.15339 -0.6905,0.35582 -1.4606,0.53238 -2.2283,0.62117 2.9808,-2.77514 4.2641,-7.36155 2.7187,-11.19726 -1.5168,-3.96899 -5.4957,-6.91141 -9.7819,-6.94148 -0.1365,-8.6e-4 -0.273,-0.01 -0.4095,-0.004 z m -160.5468,39.13672 c 0.1107,0.16056 -0.9972,-0.17468 0,0 z m 351.834,7.82617 c 1.1914,2.65679 3.163,4.83459 5.1933,6.87695 0.4484,0.41468 -0.6865,0.66803 -0.9177,0.98546 -0.3596,-0.35437 -0.6016,-1.06127 -0.9592,-1.52062 -0.7116,-1.14502 -1.6393,-2.13603 -2.4727,-3.17968 -0.5739,-1.16209 -0.8598,-2.44363 -1.084,-3.71289 0.08,0.18359 0.1602,0.36718 0.2403,0.55078 z m -340.5098,1.85742 c 0.3414,1.02857 0.2381,2.13113 0.07,3.18164 -0.064,-1.08276 -0.09,-2.16739 -0.094,-3.25195 z m -6.3438,1.32031 c 0.1506,2.32813 0.882,4.55333 1.5226,6.77753 0.1845,0.74176 -0.5074,-0.67345 -0.6847,-0.91229 -1.0225,-1.88161 -1.9204,-3.84438 -2.5312,-5.90039 0.5566,-0.14553 1.1144,-0.288 1.6758,-0.41407 0.01,0.14974 0.012,0.29948 0.017,0.44922 z m 12.4395,10.89649 c 3.4014,7.34574 6.9385,14.63364 10.0898,22.09181 0.4549,0.81045 -0.062,0.41072 -0.4648,0.006 -2.8084,-2.78465 -4.7137,-6.32773 -6.4148,-9.86012 -1.8406,-3.98997 -3.3554,-8.18278 -3.9602,-12.55199 -0.049,-0.3503 -0.1182,-1.06628 -0.1367,-1.5664 0.2955,0.62695 0.5911,1.2539 0.8867,1.88086 z m 333.0644,20.03906 c 0.7029,1.20188 1.581,2.29239 2.5274,3.31055 -0.7143,0.48364 -1.3001,1.09574 -1.6094,1.91406 -3.7337,7.99021 -7.1707,16.11542 -10.693,24.19994 -7.5736,17.59873 -15.0417,35.24428 -22.5843,52.8567 5.636,-20.52681 11.6037,-40.96264 16.9417,-61.57019 0.2488,-1.21724 0.7444,-2.42514 0.6247,-3.68372 1.1038,-1.70398 1.5207,-3.74508 2.1881,-5.64156 0.7563,-2.6513 1.6546,-5.2931 1.9837,-8.04008 -0.2094,-0.71775 0.2091,-0.75004 0.8168,-0.71423 3.1865,-0.16233 6.324,-1.11362 9.0368,-2.79944 0.4132,-0.22777 0.591,-0.39893 0.7675,0.16797 z m -302.0644,45.62305 c 4.3549,2.70104 8.5532,5.69089 12.3652,9.12109 2.726,2.57829 4.6983,5.91162 5.7188,9.51758 0.1362,0.43471 0.322,1.23436 0.4648,1.8125 0.5391,2.63854 0.8815,5.33681 0.8164,8.0332 -1.724,-1.11658 -3.1082,-2.85383 -5.1386,-3.43555 -0.7929,-0.13345 -1.7148,0.038 -2.1776,0.75094 -0.7587,0.79317 -0.5488,2.09701 -0.022,2.98168 2.4497,4.18239 6.5369,7.03691 9.3183,10.96708 1.0101,1.38966 2.0076,2.95326 1.9089,4.74562 0.038,3.02931 -1.718,6.16796 -4.6615,7.20816 -1.7639,0.87683 -3.8511,0.82573 -5.6425,0.0583 -1.4101,-0.39552 -2.5245,-1.52692 -2.9075,-2.93937 -0.9619,-3.22071 -0.8986,-6.63208 -0.9785,-9.9618 -0.101,-4.35917 0.2738,-8.89254 -1.31,-13.04887 -1.112,-2.8336 -2.8451,-5.36009 -4.4785,-7.91015 3.0293,-0.82623 4.5617,-4.42085 3.8203,-7.32618 -0.3482,-1.26637 -0.9721,-2.5726 -2.0318,-3.38251 -0.4826,-0.47019 -1.1796,-0.31099 -1.7514,-0.39092 -0.5091,-2.49312 -1.7723,-4.81479 -3.3125,-6.80078 z m 365.9414,18.49218 c -2.4551,-0.0554 -5.0755,1.33833 -5.8086,3.79493 -0.7543,2.51729 0.3087,5.40355 2.3027,7.04882 2.4324,1.89562 6.2357,1.37235 8.1856,-0.97851 1.8977,-2.03799 2.3499,-5.51745 0.418,-7.68555 -1.2782,-1.39013 -3.2218,-2.16719 -5.0977,-2.17969 z m -17.1797,0.0137 c -2.2367,-0.0561 -4.3247,1.39532 -5.1928,3.43324 -0.7987,1.34735 -1.3859,3.1244 -0.4439,4.55505 -1.3548,-0.022 -2.5731,0.78671 -3.7599,1.36151 -1.8128,0.92492 -3.131,2.98986 -2.6659,5.05646 0.5171,2.33197 2.4161,4.13686 4.4594,5.23058 1.3925,0.79026 3.0178,0.0882 4.1321,-0.86175 0.5547,-0.43407 1.0628,-0.9254 1.5374,-1.44501 0.6806,2.39189 2.8069,4.12939 5.0762,4.95118 1.9917,0.59974 3.9239,-0.65808 5.3443,-1.93517 2.0587,-1.85627 2.7939,-5.1797 1.2573,-7.57974 -1.0687,-1.78285 -3.1586,-2.7647 -5.1993,-2.77611 1.6955,-1.9083 2.2856,-4.95483 0.7838,-7.14784 -1.1428,-1.7689 -3.2347,-2.84104 -5.3287,-2.8424 z m -1.0957,11.6504 c 0.8168,-0.14418 0.4887,0.78315 0.1172,0.26562 -0.013,-0.0657 -0.3279,-0.37725 -0.1172,-0.26562 z m -369.3457,14.34765 c 1.6124,0.67064 2.6994,2.20412 3.5365,3.67753 0.9,1.50106 0.8724,3.4373 0.1398,4.99399 -1.0235,1.67959 -3.0894,2.22431 -4.8577,2.7597 -3.2896,0.92063 -6.6992,1.28117 -10.0178,2.07464 3.0433,-1.68518 4.8468,-4.79545 6.4434,-7.76169 1.2541,-2.0567 2.5692,-4.20206 4.5485,-5.63714 0.064,-0.0447 0.1387,-0.0713 0.2073,-0.10703 z m 13.7969,7.72852 c 1.9376,3.39949 3.4733,7.33091 2.9249,11.30873 -0.3027,2.56991 -2.1416,4.85427 -4.6111,5.64997 -3.8963,1.32712 -8.1768,0.44049 -11.8619,-1.13338 -1.4751,-0.66264 -2.8893,-1.48968 -4.4812,-1.85462 3.9762,-0.84709 8.0114,-1.84484 11.564,-3.88548 2.1847,-1.15681 3.2715,-3.49048 4.2771,-5.6232 0.747,-1.60951 1.3422,-3.28348 1.8835,-4.97179 0.1016,0.16992 0.2031,0.33985 0.3047,0.50977 z m 16.2363,34.03906 c 0.4075,1.65293 0.5529,3.30227 0.7273,4.92573 0.5455,5.57386 1.2963,11.15784 1.1498,16.76952 -0.035,3.23566 -1.0956,6.31517 -1.7092,9.45982 -0.6595,3.39687 -1.008,6.8493 -1.0306,10.30895 -0.043,0.60516 -0.084,1.22134 -0.274,1.80161 -1.6919,-0.58629 -3.2034,-1.63127 -4.6125,-2.71835 -2.1793,-1.88325 -2.9265,-4.80574 -3.738,-7.45092 -1.8329,-7.18571 -0.8479,-14.8938 1.907,-21.71326 1.7066,-4.21933 4.2747,-8.07859 7.4295,-11.35087 0.047,0.002 0.1591,-0.23683 0.1507,-0.0322 z m 214.5449,26.27734 c -1.3657,2.90603 -2.6775,5.87739 -4.5449,8.50391 -0.336,0.41578 -0.6851,0.82546 -1.084,1.18164 -1.9689,-1.57784 -3.7024,-3.44835 -5.207,-5.4707 3.6017,-1.93557 7.3689,-3.55353 11.1855,-5.01367 -0.1165,0.26627 -0.233,0.53255 -0.3496,0.79882 z M 4256.0254,476 c 0.7215,-0.12481 1.172,0.0757 0.9729,0.87365 -0.056,0.87813 -0.01,1.96872 -0.7913,2.54237 -1.0237,1.28983 -1.2341,3.02624 -1.1582,4.62304 -0.5209,-0.43401 -1.1667,-0.84357 -1.8259,-0.93118 -0.4468,0.0876 0.2401,-0.93824 0.2246,-1.29732 0.6109,-1.80227 0.8891,-3.69008 1.3595,-5.52586 0.077,-0.47829 0.8843,-0.18645 1.2184,-0.2847 z m -4.125,10.93359 c 1.2623,1.29732 0.942,3.24725 0.724,4.86656 -0.1368,0.3574 -0.051,1.50847 -0.3189,1.31064 -0.6267,-0.84505 -1.4853,-1.51289 -2.034,-2.40962 0.2364,-1.40765 0.9697,-2.67617 1.459,-4.00781 0.057,0.0801 0.1133,0.16016 0.1699,0.24023 z m 7.6797,16.66016 c 0.5344,0.31631 1.3617,0.64464 1.4433,1.32813 -0.6062,-0.4205 -1.1612,-0.91359 -1.6718,-1.44532 0.076,0.0391 0.1523,0.0781 0.2285,0.11719 z m 8.2402,5.45117 c 0.6411,0.16513 1.5618,0.84118 0.979,1.55598 -0.7064,0.94125 -2.1486,-0.0349 -2.1092,-1.02803 -0.1831,-0.70014 0.7268,-0.50653 1.1302,-0.52795 z m 147.6875,14.40039 c 1.5893,0.95831 3.3197,1.84624 4.5098,3.30664 0.4857,0.88433 -0.02,1.91978 0,2.86679 -0.65,7.58289 -0.1876,15.25471 1.2066,22.73173 0.7374,3.8984 1.8379,7.75265 3.6427,11.29992 1.0141,2.35125 1.8174,4.79682 2.3321,7.30664 -0.6036,0.25659 -1.3934,0.25328 -1.8744,0.6795 -0.5595,0.62637 -0.7622,1.44434 -0.9459,2.24238 -0.4187,-0.51844 -0.9687,-0.94378 -1.6075,-1.14844 0.2074,-0.88124 0.4473,-1.93721 -0.052,-2.73517 -0.434,-0.2963 -0.7264,-1.02058 -1.2557,-1.02865 -0.5834,0.1616 -1.0715,0.23606 -0.9697,-0.51499 -0.1865,-1.35897 -0.8833,-2.5546 -1.6328,-3.67092 -0.678,-1.21329 -0.7917,-2.60798 -0.9325,-3.95766 -0.6835,-2.85635 -2.3514,-5.3484 -3.8992,-7.80187 -2.748,-4.07327 -5.7678,-8.0245 -9.4358,-11.31734 -1.1272,-1.05679 -2.6681,-1.79417 -3.354,-3.23903 -0.2043,-1.01937 -0.086,-2.12899 0.2578,-3.10351 0.9768,-0.90523 2.4037,-1.06112 3.6056,-1.556 2.5627,-0.82128 4.7196,-2.60072 6.2206,-4.81119 1.324,-1.88572 2.4053,-3.9269 3.9062,-5.69336 0.092,0.0482 0.1836,0.0964 0.2754,0.14453 z" />
</svg>
