<?xml version="1.0" encoding="utf-8"?>
<!-- Generator: Adobe Illustrator 18.0.0, SVG Export Plug-In . SVG Version: 6.00 Build 0)  -->
<!DOCTYPE svg PUBLIC "-//W3C//DTD SVG 1.1//EN" "http://www.w3.org/Graphics/SVG/1.1/DTD/svg11.dtd">
<svg version="1.1" xmlns="http://www.w3.org/2000/svg" xmlns:xlink="http://www.w3.org/1999/xlink" x="0px" y="0px"
	 width="9451.45px" height="623.52px" viewBox="0 0 9451.45 623.52" enable-background="new 0 0 9451.45 623.52"
	 xml:space="preserve">
<g id="AR_x5F_layer">
	<g>
		<circle opacity="0.75" enable-background="new    " cx="3968.03" cy="48.57" r="26.16"/>
		<g opacity="0.75">
			<g>
				<g>
					<circle id="SVGID_1_" cx="4453.27" cy="258.88" r="2.32"/>
				</g>
			</g>
			<g>
				<g>
					<circle id="SVGID_3_" cx="4447.8" cy="255.68" r="2.63"/>
				</g>
			</g>
			<g>
				<g>
					<path d="M4444.81,262.11c0.73-1.58,2.61-2.27,4.19-1.53s2.26,2.61,1.53,4.19c-0.74,1.58-2.61,2.27-4.19,1.53
						C4444.77,265.57,4444.07,263.69,4444.81,262.11z"/>
					<path d="M4446.65,265.65c-1.22-0.57-1.75-2.02-1.18-3.23c0.57-1.22,2.02-1.75,3.23-1.18c1.22,0.57,1.75,2.02,1.18,3.24
						C4449.31,265.69,4447.86,266.22,4446.65,265.65z"/>
					<path d="M4446.96,265c-0.86-0.4-1.23-1.42-0.83-2.28s1.42-1.23,2.28-0.83c0.86,0.4,1.23,1.42,0.83,2.28
						C4448.82,265.02,4447.81,265.4,4446.96,265z"/>
					<circle cx="4447.67" cy="263.44" r="0.99"/>
					<path d="M4447.42,263.33c0.07-0.14,0.23-0.19,0.36-0.13c0.14,0.06,0.2,0.23,0.13,0.36c-0.06,0.14-0.23,0.19-0.36,0.13
						S4447.36,263.46,4447.42,263.33z"/>
				</g>
			</g>
		</g>
		<g opacity="0.75">
			<g>
				<g>
					<circle id="SVGID_5_" cx="4495.67" cy="136.64" r="12.51"/>
				</g>
			</g>
			<g>
				<g>
					<path id="SVGID_7_" d="M4444.17,130.78c3.72-8,13.23-11.47,21.23-7.75s11.48,13.23,7.75,21.24c-3.72,8-13.23,11.47-21.24,7.75
						C4443.92,148.29,4440.46,138.78,4444.17,130.78z"/>
				</g>
			</g>
			<g>
				<g>
					<g>
						<circle cx="4466.48" cy="154.81" r="16.42"/>
					</g>
					<g>
						<circle cx="4466.48" cy="154.81" r="14.55"/>
					</g>
					<g>
						<circle cx="4466.48" cy="154.81" r="12.67"/>
					</g>
					<g>
						<circle cx="4466.48" cy="154.81" r="10.8"/>
					</g>
					<g>
						<circle cx="4466.48" cy="154.81" r="8.92"/>
					</g>
					<g>
						<circle cx="4466.48" cy="154.81" r="7.05"/>
					</g>
					<g>
						<circle cx="4466.48" cy="154.81" r="5.17"/>
					</g>
					<g>
						<circle cx="4466.48" cy="154.81" r="3.29"/>
					</g>
					<g>
						<path d="M4465.19,154.22c0.33-0.71,1.17-1.02,1.88-0.69s1.02,1.17,0.69,1.88s-1.17,1.02-1.88,0.69
							S4464.88,154.93,4465.19,154.22z"/>
					</g>
				</g>
			</g>
		</g>
		<g opacity="0.75">
			<g>
				<circle cx="3863.46" cy="98.03" r="29.45"/>
				<circle cx="3863.46" cy="98.03" r="26.78"/>
				<circle cx="3863.46" cy="98.03" r="24.1"/>
				<circle cx="3863.46" cy="98.03" r="21.44"/>
				<circle cx="3863.46" cy="98.03" r="18.78"/>
				<circle cx="3863.46" cy="98.03" r="16.12"/>
				<circle cx="3863.46" cy="98.03" r="13.49"/>
				<circle cx="3863.46" cy="98.03" r="10.88"/>
				<circle cx="3863.46" cy="98.03" r="8.33"/>
				<circle cx="3863.46" cy="98.03" r="5.9"/>
				<circle cx="3863.46" cy="98.03" r="3.85"/>
				<circle cx="3863.46" cy="98.03" r="3.04"/>
			</g>
			<g>
				<g>
					<circle id="SVGID_9_" cx="3850.72" cy="55.59" r="33.03"/>
				</g>
			</g>
			<g>
				<g>
					<circle id="SVGID_11_" cx="3919.7" cy="59.66" r="31.77"/>
				</g>
			</g>
		</g>
		<g opacity="0.75">
			<g>
				<g>
					<circle cx="4358.62" cy="205.98" r="9.25"/>
					<circle cx="4358.62" cy="205.98" r="8.2"/>
					<circle cx="4358.62" cy="205.98" r="7.14"/>
					<circle cx="4358.62" cy="205.98" r="6.08"/>
					<circle cx="4358.62" cy="205.98" r="5.03"/>
					<circle cx="4358.62" cy="205.98" r="3.97"/>
					<circle cx="4358.62" cy="205.98" r="2.91"/>
					<circle cx="4358.62" cy="205.98" r="1.86"/>
					<path d="M4357.9,205.64c0.19-0.4,0.66-0.57,1.06-0.39c0.4,0.18,0.57,0.66,0.39,1.06c-0.19,0.4-0.66,0.57-1.06,0.39
						C4357.88,206.52,4357.71,206.04,4357.9,205.64z"/>
				</g>
			</g>
			<g>
				<g>
					<circle id="SVGID_13_" cx="4370.59" cy="203.63" r="10.63"/>
				</g>
			</g>
			<g>
				<g>
					<circle id="SVGID_15_" cx="4353.17" cy="187.24" r="8.94"/>
				</g>
			</g>
		</g>
		<g opacity="0.75">
			<g>
				<g>
					<circle id="SVGID_17_" cx="4563.3" cy="215.05" r="19.25"/>
				</g>
			</g>
			<g>
				<g>
					<g>
						<path d="M4514.96,233.51c4.2-9.03,14.92-12.94,23.94-8.74c9.03,4.2,12.94,14.92,8.74,23.95c-4.2,9.02-14.92,12.94-23.95,8.74
							C4514.67,253.26,4510.77,242.54,4514.96,233.51z"/>
					</g>
					<g>
						<path d="M4524.56,255.59c-7.99-3.72-11.46-13.21-7.74-21.21c3.72-8,13.21-11.46,21.21-7.74s11.46,13.22,7.74,21.21
							C4542.06,255.84,4532.56,259.31,4524.56,255.59z"/>
					</g>
					<g>
						<path d="M4525.44,253.72c-6.96-3.24-9.98-11.51-6.74-18.47c3.24-6.96,11.51-9.98,18.47-6.75c6.96,3.24,9.98,11.51,6.75,18.48
							C4540.67,253.94,4532.4,256.96,4525.44,253.72z"/>
					</g>
					<g>
						<path d="M4526.3,251.86c-5.93-2.76-8.5-9.81-5.74-15.74c2.76-5.93,9.81-8.51,15.74-5.75s8.51,9.81,5.75,15.74
							C4539.28,252.04,4532.25,254.62,4526.3,251.86z"/>
					</g>
					<g>
						<path d="M4527.17,249.99c-4.9-2.28-7.03-8.1-4.74-13c2.28-4.9,8.1-7.03,13-4.75s7.03,8.1,4.75,13.01
							C4537.9,250.15,4532.07,252.27,4527.17,249.99z"/>
					</g>
					<g>
						<path d="M4528.04,248.12c-3.87-1.8-5.55-6.4-3.75-10.27c1.8-3.87,6.4-5.55,10.27-3.75s5.55,6.4,3.75,10.27
							C4536.52,248.25,4531.92,249.92,4528.04,248.12z"/>
					</g>
					<g>
						<path d="M4528.92,246.26c-2.84-1.32-4.07-4.69-2.75-7.53s4.69-4.07,7.53-2.75s4.07,4.7,2.75,7.54
							C4535.12,246.35,4531.75,247.58,4528.92,246.26z"/>
					</g>
					<g>
						<path d="M4529.77,244.39c-1.81-0.84-2.59-2.99-1.75-4.8s2.99-2.59,4.8-1.75c1.81,0.84,2.6,2.99,1.75,4.8
							C4533.73,244.45,4531.58,245.23,4529.77,244.39z"/>
					</g>
					<g>
						<circle cx="4531.3" cy="241.11" r="1.55"/>
					</g>
				</g>
			</g>
			<g>
				<g>
					<circle id="SVGID_19_" cx="4522.71" cy="222.95" r="19.57"/>
				</g>
			</g>
		</g>
		<g opacity="0.75">
			<g>
				<g>
					<circle id="SVGID_21_" cx="4589.96" cy="328.15" r="4.32"/>
				</g>
			</g>
			<g>
				<g>
					<circle id="SVGID_23_" cx="4593.96" cy="338.4" r="4.63"/>
				</g>
			</g>
			<g>
				<g>
					<circle cx="4583.4" cy="336.24" r="3.99"/>
					<circle cx="4583.4" cy="336.24" r="3.08"/>
					<circle cx="4583.4" cy="336.24" r="2.17"/>
					<circle cx="4583.4" cy="336.24" r="1.26"/>
					<circle cx="4583.4" cy="336.24" r="0.34"/>
				</g>
			</g>
		</g>
		<g opacity="0.75">
			<g>
				<g>
					<circle cx="4334.13" cy="75.14" r="29.03"/>
				</g>
				<g>
					<circle cx="4334.13" cy="75.14" r="25.72"/>
				</g>
				<g>
					<circle cx="4334.13" cy="75.14" r="22.4"/>
				</g>
				<g>
					<circle cx="4334.13" cy="75.14" r="19.09"/>
				</g>
				<g>
					<circle cx="4334.13" cy="75.14" r="15.77"/>
				</g>
				<g>
					<circle cx="4334.13" cy="75.14" r="12.45"/>
				</g>
				<g>
					<circle cx="4334.13" cy="75.14" r="9.14"/>
				</g>
				<g>
					<circle cx="4334.13" cy="75.14" r="5.82"/>
				</g>
				<g>
					<circle cx="4334.13" cy="75.14" r="2.51"/>
				</g>
			</g>
		</g>
		<g opacity="0.75">
			<g>
				<circle id="SVGID_25_" cx="4380.36" cy="88.02" r="30.19"/>
			</g>
		</g>
		<circle opacity="0.75" enable-background="new    " cx="4115.69" cy="79.23" r="7.92"/>
		<g opacity="0.75">
			<g>
				<g>
					<circle id="SVGID_27_" cx="4139.48" cy="76.24" r="7.79"/>
				</g>
			</g>
			<g>
				<circle cx="4148.15" cy="80.21" r="6.83"/>
				<path d="M4153.42,78.75c0.81,2.91-0.89,5.93-3.81,6.73c-2.91,0.81-5.93-0.89-6.73-3.81c-0.81-2.91,0.9-5.93,3.81-6.74
					C4149.59,74.13,4152.6,75.84,4153.42,78.75z"/>
				<circle cx="4148.15" cy="80.21" r="4.12"/>
				<circle cx="4148.15" cy="80.21" r="2.8"/>
				<circle cx="4148.15" cy="80.21" r="1.58"/>
				<circle cx="4148.15" cy="80.21" r="0.98"/>
			</g>
			<g>
				<g>
					<circle id="SVGID_29_" cx="4133.77" cy="90.3" r="5.68"/>
				</g>
			</g>
		</g>
		<circle opacity="0.75" enable-background="new    " cx="4419.71" cy="33.01" r="31.33"/>
		<g opacity="0.75">
			<g>
				<circle id="SVGID_31_" cx="4354.23" cy="37.54" r="26.99"/>
			</g>
		</g>
		<circle opacity="0.75" enable-background="new    " cx="4373.4" cy="180.68" r="8.71"/>
		<circle opacity="0.75" enable-background="new    " cx="4475.65" cy="128.5" r="16.07"/>
		<circle opacity="0.75" enable-background="new    " cx="4453.82" cy="252" r="3.25"/>
		<circle opacity="0.75" enable-background="new    " cx="4561.35" cy="248.2" r="19.06"/>
		<circle opacity="0.75" enable-background="new    " cx="4606.98" cy="328.15" r="4.52"/>
		<g opacity="0.75">
			<path d="M4581.32,344.12c0,0-0.37-0.27-0.84-0.02c-0.06,0.02-6.74,6.87-6.74,6.87l-7.78,7.95l-6.22,6.39l-5.48,5.62l-6.63,6.77
				l-6.61,6.8l-6.77,6.91l-8.72,8.91l-6.06,6.3l-10.55,10.77l-9.7,9.95l-13.35,13.76l-3.98,3.98c-0.11,0.11-0.23,0.21-0.36,0.29
				c-0.18,0.11-0.47,0.33-0.59,0.63c-0.02,0-0.76,1.17-1.44,1.11c-0.02,0-0.46,0.01-0.91,0c-0.39-0.01-0.78-0.07-1.12-0.25
				c-0.14-0.07-0.34-0.13-0.58-0.09c0.08-0.03-0.38,0.03-0.66-0.11c-0.03-0.03-0.25-0.19-0.74-0.27c-0.03,0.08-0.39,0.09-0.64-0.18
				c0.02,0.02-0.43-0.47-0.76-0.45c-0.02,0-1.68-0.61-1.4-2.63c0.07-0.48,1.4-1.99,1.91-2.69c0.12-0.16,0.25-0.32,0.38-0.48
				l2.27-2.62c0.12-0.14,0.25-0.28,0.38-0.42c1.62-1.67,12.8-13.13,14.53-14.55c0.29-0.23,0.56-0.48,0.83-0.73
				c1.65-1.53,5.87-5.43,5.87-5.43l3.93-3.59c0.48-0.44,0.92-0.9,1.34-1.4c1.14-1.38,3.28-4.13,3.38-6.49
				c0-0.08,0.68-4.26,0.58-5.43c0-0.04,0.25-2.18-0.21-2.96c0.04,0-1.15-3.12-1.48-3.21c0.04,0.08-0.95-2.01-0.95-2.01
				s-1.64-3.37-1.77-3.33c-0.04-0.04-3.91-6.29-3.91-6.29s-2.43-4.07-0.33-8.26c0-0.04,3.33-6.83,3.33-6.83s0.55-1.19,0.99-1.92
				c0.14-0.23,0.25-0.45,0.36-0.7c0.75-1.74,3.43-8.08,3.43-8.08l6.66-15.71l6.7-15.83l6.13-14.39l6.5-15.25l6.5-15.21l3.7-8.8
				l2.57-6.13c0.07-0.16,0.14-0.32,0.23-0.47l0.35-0.65c0,0,0.29-0.79-0.3-1.04c0.01,0.01-0.47-0.34-0.78,0.14
				c0,0.01-0.15,0.18-0.26,0.53c0,0.04-2.71,6.35-2.71,6.35l-2.34,5.53l-2.22,5.16l-2.34,5.51l-2.78,6.43l-3.08,7.13l-3.35,7.98
				l-3.7,8.82l-5.26,12.23l-5.67,13.4l-3.72,8.74l-3.52,8.1l-1.91,4.48c0,0-0.21,0.58-0.31,0.76c-0.07,0.12-0.48,0.3-0.53-0.15
				c0-0.03,4.11-13.95,4.11-13.95s0.53-2.1,0.53-2.34c0.02-0.11,0.25-0.82,0.25-0.82l5.47-19.32l5.63-20.11l4.65-16.45l5.02-18.01
				l3.25-11.47c0,0,0.16-0.82-0.07-0.97c-0.02-0.01-0.97-0.3-1.22,0.32c0.04,0-3.97,14.23-3.97,14.23l-3.95,14.14l-4.41,15.54
				l-4.47,15.82l-4.25,15.05l-5.13,18.28l-3.18,11.48c0,0-0.2,0.47-0.36,0.81c-0.03,0.07-0.06,0.13-0.08,0.2
				c-0.3,0.9-3.15,8.72-4.89,9.65c-0.03,0-0.79,0.57-1.26,0.93c-0.24,0.18-0.51,0.34-0.79,0.46c-0.95,0.42-3.29,1.46-4.49,2.18
				c-0.49,0.29-1.01,0.5-1.56,0.65c-1.3,0.35-3.45,0.89-4.31,0.85c0.03,0.03-18.39,0.44-18.84,0.69c0,0-5.63,0.45-6.46,0.33
				c-0.07,0-5.87-0.22-7.29-0.28c-0.18-0.01-0.36-0.02-0.54-0.05c-0.45-0.07-1.4-0.08-2.12,0.08c-0.04,0-7.12,1.05-8.42,1.45
				c-0.23,0.07-0.46,0.12-0.69,0.16c-1.44,0.25-5.46,0.96-6.34,1.22c-0.14,0.04-0.27,0.07-0.42,0.1c-0.85,0.16-3.37,0.62-3.87,0.71
				c-0.05,0.01-0.11,0.02-0.16,0.03c-0.52,0.07-3.59,0.47-4.97,0.98c-0.26,0.1-0.53,0.16-0.8,0.21c-1.54,0.27-6.29,1.06-9.36,0.45
				c-0.08,0.04-8.84-1.19-8.84-1.19s-7.16-1.11-9.84-2.48c-0.23-0.12-0.47-0.21-0.71-0.3c-1.35-0.51-5.46-2.2-6.8-3.1
				c-0.03,0.07-3.85-2.65-5.59-3.91c-0.52-0.37-1.01-0.78-1.47-1.22c-1.24-1.17-3.76-3.58-4.04-4.04c0,0.04-1.71-2.92-1.03-5.39
				c0.02-0.06,0.03-0.19,0.05-0.32c0.03-0.35,0.13-0.69,0.28-1c0.21-0.44,0.57-0.93,0.82-1.14c0.04-0.04,6.04-8.31,6.04-8.31
				l10.53-14.43l9.54-13.03l20.97-28.74l21.67-29.81l0.17-0.24c0,0,0.42-0.93-0.39-1.16c0.03,0.03-0.34-0.1-0.61,0.28
				c0.01,0.02-8.8,11.93-8.8,11.93l-8.83,12.12l-7.73,10.61l-8.72,12.06l-13.49,18.45l-11.79,16.14l-10,13.76
				c0,0-0.02,0.03-0.04,0.08c-0.23,0.41-0.58,0.75-0.99,0.99c-0.39,0.23-1.07,0.66-1.98,1.4c-0.08-0.04-3.66,3.17-3.99,3.25
				c-0.04,0-3.7,1.89-7.89,0.25c-0.04,0-3.04-1.32-4.32-6.58c0,0.12-0.65-1.75-0.12-3.25c0.01-0.04,7.69-13.98,7.69-13.98
				l8.31-14.88l18.17-32.7l15.46-27.96l14.91-26.86l16.39-29.6l16.78-29.99l3.18-5.81l0.36-0.55c0,0,0.45-1.7-1.08-1.08
				c0-0.01-4.89,8.72-4.89,8.72l-18.12,32.22l-21.38,38.54l-14.86,26.48l-12.23,21.98l-11.62,20.89l-13.49,24.39
				c0,0-5.62,9.68-6.03,10.2c-0.11,0.14-2.38,1.89-3.15,2.08c-0.06,0-3.32,1.79-3.48,1.86c-0.05,0.02-7.21,2.99-7.21,2.99
				s-6.36-0.27-7.54-0.82c-0.05-0.05-4.28-1.7-5.32-2.33c-0.02-0.02-4.76-3.24-6.15-4.14c-0.27-0.18-0.78-0.57-0.78-0.57
				s-1.94-1.63-2.33-2.08c0.03,0.03-5.56-5.92-6.08-7.59c0.05,0-1.64-2.71-1.01-4.33c0,0.03,5.56-15.38,5.56-15.38l7.18-19.9
				l17.27-47.72l14.8-40.62c0,0,0.72-1.4-0.49-1.56c-0.02,0-0.26-0.08-0.37,0.23c0,0.02-3.72,10.09-3.72,10.09l-3.08,8.33
				l-3.47,9.21l-6.29,17.01l-5.24,14.03l-6.63,17.71l-6.3,17.13l-5.87,15.76l-4.88,12.85c-0.11,0.29-0.19,0.58-0.26,0.88
				c-0.09,0.4-0.28,0.79-0.55,1.01c-0.03,0.03-1.14,1.05-1.14,1.05s-1.27,1.07-1.5,1.5c0,0-0.58,0.37-0.84,0.47
				c-0.02,0.02-2.98,1.32-3.82,1.95c-0.02,0-1.56,0.99-2.93,0.85c-0.05-0.05-2.04,0.1-3.6-0.4c-0.02-0.01-1.7-0.95-2.26-1.27
				c-0.12-0.07-0.23-0.14-0.33-0.22c-0.49-0.37-2.01-1.5-2.56-1.75c0.03-0.03-1.4-0.63-2.08-1.37c0,0.05-2.82-2.14-5.07-2.52
				c-0.11-0.05-2.93-0.63-2.93-0.63s-1.73-0.3-1.81-0.3c-0.05,0-0.52-0.1-0.82-0.16c-0.18-0.04-0.36-0.09-0.53-0.15l-2.17-0.76
				c-0.1-0.03-0.2-0.07-0.29-0.11l-3.31-1.44l-1.79-0.77c-0.12-0.05-0.25-0.1-0.38-0.14l-0.76-0.22c0,0-0.38-0.1-0.41-0.58
				c0.03-0.03-0.23-4.3-0.73-5.17c-0.04-0.04-0.62-1.73-0.58-2.22c-0.02,0.05-0.13-1.29-0.18-2.05c-0.03-0.35-0.07-0.71-0.12-1.06
				l-0.05-0.28c0,0-0.25-2.13-0.43-2.28c0.07,0-0.88-3.08-0.88-3.08l-0.19-0.54c0,0-1.04-2.49-1.29-2.8c0-0.03-0.96-1.45-1.1-1.48
				c0-0.02-1.06-1.38-1.54-2.41c-0.21-0.45-0.43-0.88-0.73-1.28c-0.25-0.33-0.57-0.69-0.94-0.94c-0.02,0-0.83-0.73-1.24-1.1
				c-0.15-0.14-0.31-0.27-0.48-0.39c-0.75-0.56-3.06-2.31-3.51-2.97c0-0.03-2.22-2.17-2.22-2.17s-1.01-0.9-1.56-1.15
				c-0.05,0.05-1.51-0.96-2.17-1.07c0.05-0.03-1.44-0.85-1.89-0.89c-0.06-0.02-0.6-0.08-0.72-0.31c-0.02,0-1.05-0.62-1.36-0.68
				c-0.06,0.02-0.41-0.12-0.7-0.35c0.02-0.06-0.9-0.7-1.48-0.68c0,0.02-0.62-0.06-1.07-0.45c0,0-1.6-1.17-2.57-1.15
				c0.04,0.04-0.64-0.02-0.86-0.14c0-0.02-0.39-0.16-0.62-0.16c0.06-0.04-0.31-0.06-0.43-0.41c-0.02-0.02-1.16-2.04-1.27-2.06
				c-0.11-0.05-0.6-1.07-0.74-1.64c-0.02-0.02-0.58-1.4-0.9-2.19c-0.15-0.37-0.28-0.74-0.4-1.12c-0.1-0.3-0.2-0.65-0.26-0.83
				c0.03-0.03-1.51-3.1-1.53-3.97c0,0.04-0.15-1.2-0.34-1.94c-0.17-0.7-0.33-1.39-0.42-2.1c-0.24-1.74-0.58-4.72-0.65-8.09
				c-0.08,0,0.15-4.51,0.15-4.51s0.08-0.69-0.22-0.96c0.08,0.03-0.69-1.36-1.04-1.73c-0.06-0.07-0.24-0.14,0.06-0.37
				c0.02-0.02,4.01-4.28,4.01-4.28l6.95-7.48l6.7-7.03l7.61-8.16l7.87-8.37l8.33-8.84l8.82-9.37l24.65-26.22l24.29-25.77
				l23.85-25.38l3.78-4.17l4.55-4.74c0,0,0.6-1.54-0.85-1.22c0-0.04-4.15,4.37-4.15,4.37l-16.35,17.21l-14.51,15.46l-18.91,20.19
				l-15.83,16.78l-16.2,17.27l-14.88,15.91l-18.71,19.86l-8.06,8.68l8.47-14.27l17.1-28.78l17.8-30.1l15.13-25.33l14.06-23.76
				l13.07-22.16l2.55-4.36c0,0,0.42-0.58,0.53-0.78c0.21-0.36,0.58-1.96-0.92-1.37c-0.01,0.04-9.18,15.34-9.18,15.34l-24.01,40.35
				l-19.95,33.55l-18.2,30.75l-15.57,26.2l-4.47,7.59c-0.05,0.09-0.09,0.18-0.12,0.27c-0.1,0.28-0.32,0.73-0.59,0.02
				c-0.03,0-5.32-11.11-5.32-11.11l-4.96-10.72l-5.13-10.88l-0.48-0.99c-0.04-0.09-0.07-0.19-0.08-0.29l-0.04-0.7
				c0,0,0.05-0.24,0.19-0.18c0.02,0.01,0.84-0.29,0.74-1.9c0.01,0.01-0.06-2.12-0.06-2.12s0.01-0.23-0.1-0.53
				c0.03,0.03-0.49-1.04-0.41-1.51c0-0.03-0.6-4.44-0.6-4.44l-0.41-3.29c0,0-0.05-0.42-0.26-0.67c-0.04-0.1-0.23-0.1-0.21-0.6
				c-0.02,0,0-0.91-0.6-1.3c-0.03-0.02-0.05-0.16-0.61-0.38c0.01,0-1.51-0.86-2.22-3.15c-0.04-0.01-0.71-1.64-2.32-2.55
				c0,0.01-0.47-0.2-0.16-1.37c0.02-0.02,0.27-0.46,0.27-0.46s0.09-0.17,0.08-0.6c0-0.1,0.05-0.3,0.18-0.47
				c0,0.02,4.54-9.01,4.54-9.01l4.06-8.09l1.92-3.86c0,0,0.39-0.64-0.16-0.42c-0.02,0-0.35,0.15-0.54,0.47
				c-0.01-0.05-4.8,8.1-4.8,8.1l-4.79,7.98l-2.51,4.15l-0.27,0.37c0,0-0.14,0.61-0.84,1.01c-0.02,0.01-1.42,0.92-1.68,4.27
				l0.01,0.24c0.01,0.18-0.01,0.55-0.01,0.55s0.01,0.37-0.38,0.37c0.02-0.02-1.54,0.13-2.49,2.48c-0.05,0.13-0.07,0.27-0.09,0.4
				c-0.02,0.1-0.08,0.22-0.27,0.24c-0.02-0.02-1.36-0.27-1.93,1.05c0,0,0.02,0.23-0.31,0.31c-0.02,0.02-2.43,0.16-2.45,2.94
				c-0.01,0.04-0.19,0.89,0.11,2.41l0.02,0.18c0.01,0.27,0.09,1.22,0.09,1.22s0.06,0.59,0.05,0.85c-0.03-0.03,0.07,0.63,0.6,0.9
				c0.16,0.08,0.29,0.19,0.25,0.69c0,0.03,0.16,1.56,0.16,1.56l-0.03,1.73l-0.16,2.58l-8.06-23.38l-16.69-48.84l-16.12-47.36
				l-5.18-14.8l-0.23-0.56c0,0-1.11-0.91-1.3,0.34c0,0.01,3.24,9.66,3.24,9.66l3.56,10.46l6.85,19.87l6.55,19.19l5.02,14.88
				l6.99,20.37l7.4,21.63l6.91,20.31c0,0,0.47,0.42,0.18,1.04c0.01,0.01-0.36,0.74-0.34,1.25c0.03-0.01-0.01,0.29-0.37,0.1
				c0,0.04-75.86-48.24-75.86-48.24l-120.88-76.8l-36.73-23.41c0,0-1.51-0.48-1.1,1c-0.02,0,37.83,24.09,37.83,24.09l120.22,76.52
				l69.32,44.03l-120.88-49.3l-126.77-51.72l-36.51-14.97c0,0-0.32-0.16-0.44-0.19c-0.4-0.1-1.58,0.04-0.79,1.43
				c0-0.05,22.67,9.15,22.67,9.15l101.39,41.5l124,50.57l43.91,17.84c0,0,0.58,0.21,0.21,0.58l-1.51,3.17
				c-0.05,0.1-0.1,0.19-0.16,0.28c-0.2,0.28-0.65,0.99-0.57,1.51c0-0.06,0,0.63-0.1,1.04c-0.08,0.3-0.13,0.61-0.11,0.92
				c0.06,0.96,0.25,2.83,0.98,4.64c-0.04,0.02,0.07,0.36,0.07,0.36s-0.06,0.37,0.29,0.62c0.01,0.01,0.82,0.65,0.96,1.28
				c0.01,0,0.15,0.47,0.42,0.64c0.01,0,4.07,5.13,4.34,7.23c0,0.03,0,0.05,0,0.08c-0.06,0.48-0.49,5.64-0.53,6.08
				c0,0.02,0,0.04,0,0.06c-0.01,0.28-0.09,2.83-0.92,3.88c-0.02-0.04-0.95,2.26-2.06,3.31c-0.03,0.03-1.54,1.42-2.24,3.43
				c0.02,0.02-1.01,2.04-1.19,2.78c-0.04-0.02-0.72,1.78-0.89,2.21c-0.02,0.06-0.05,0.12-0.08,0.19c0,0-0.28,0.47-0.32,0.65
				c-0.04,0.13,0.11,0.42,0.51,0.18c0.03-0.02,1.26-2.83,1.58-3.58c0.05-0.12,0.11-0.23,0.18-0.34c0.18-0.29,0.57-0.92,0.76-1.35
				c0.09-0.21,0.2-0.41,0.33-0.6c0.37-0.5,1.11-1.48,1.69-1.9c0.12-0.09,0.23-0.17,0.33-0.28c0.35-0.38,1.11-1.33,1.21-1.52
				c0.01-0.02,0.88-1.29,1.4-2.17c0.21-0.36,0.37-0.74,0.48-1.14c0.25-0.87,0.77-2.7,0.9-3.16c0.02-0.07,0.04-0.14,0.07-0.21
				l0.35-1.02c0,0,0.2-0.63,0.6-0.21c0.07,0.03,0.51,0.22,1.23,2.69c-0.05-0.03,0.71,2.11,1.19,3.17c0.1,0.22,0.18,0.43,0.26,0.65
				c0.35,0.98,1.26,3.52,1.63,4.54c0.1,0.28,0.19,0.57,0.26,0.86c0.35,1.46,1.5,6.12,1.75,6.44c0.08,0.12,1.6,5.59,1.6,5.59
				s1.89,6.78,2.34,7.28c0.04,0.18,0.02,0.59,0.29,0.9c0,0,0.45,0.49-0.04,1.27c-0.06,0.06-11.54,10.07-12.11,23.58
				c-0.01,0.28,0,0.56,0.02,0.83c0.11,1.59,0.3,10.96,6.56,19.79c0.08,0.12,0.17,0.24,0.26,0.36c0.71,0.92,4.46,5.95,4.1,8.21
				c-0.02,0.12,0.77,2.84-3.78,4.44c-0.07,0.02-0.99,0.47-1.96,0.11c-1.66-0.61-4.19-1.27-6.37-3.08c0-0.04-8.63-6.54-9.99-6.95
				c0.06,0.03-1.08-0.62-1.58-0.9c-0.16-0.09-0.31-0.19-0.45-0.29c0,0-0.01,0-0.01-0.01c-0.29-0.21-0.61-0.4-0.94-0.54
				c-1.61-0.68-6.35-2.45-10-2.21c-0.04,0.04-4.19,0.33-5.76,0.74c0.04,0.04-0.99,0.21-1.11,0.21c0.04,0.08-2.99-0.06-3.62-0.16
				c-0.04-0.01-1.07-0.1-1.56-0.27c-0.06-0.02-0.53-0.13-0.82-0.41c-0.03-0.03-3.07-1.64-4.11-2.73c0.11-0.05-6.58-7.35-12.06-8.44
				c0.05-0.05-5.75-1.51-11.82,0.33c-0.11,0.03-0.22,0.07-0.33,0.11c-1.21,0.47-9.96,3.65-11.59,4.88
				c-0.06,0.05-4.11,2.47-5.59,2.41c0,0-5.32,0.84-10.13-1.8c-0.04,0.08-2.55-1.36-2.55-1.36s-2.19-1.06-4.03-1.32
				c-0.13-0.02-0.64-0.02-0.99-0.23c-0.02-0.01-4.03-2.73-4.81-2.9c0.08,0-0.37,0-0.95-0.45c-0.11-0.14-0.19-0.28-0.45-0.43
				c-0.08,0.02-1.79-1.05-1.79-1.05l-1.64-1.25l-1.31-1.05c-0.1-0.08-0.19-0.17-0.28-0.26c-0.28-0.31-1.09-1.06-2.52-1.43
				c0.03,0-0.69-0.05-0.96-0.47c-0.1-0.06-1.56-1.4-1.67-2.38c0-0.03-0.29-1.26-0.55-1.51c-0.01-0.07-0.23-0.3-0.38-0.05
				c-0.08,0,0.17,1.56,0.19,2.08c0.01,0.28,0.1,0.73,0.34,1.06c0.01,0.01,1.37,1.75,1.37,1.75s0.37,0.29,0.26,0.66
				c0.01,0.1,0.03,0.23,0.26,0.48c0.03,0.01,4.1,3.7,5.49,4.59c0.21,0.14,0.42,0.28,0.6,0.45c1,0.91,3.9,3.58,3.9,3.58l3.55,3.31
				c0.13,0.12,0.27,0.24,0.41,0.34c0.98,0.74,4.99,3.73,6.08,3.91c0.04,0,1.64,0.36,2.18,0.49c1.6,0.39,3.93,1,6.44,0.66
				c0.54-0.07,1.07-0.23,1.58-0.45c1.63-0.71,5.95-2.57,6.45-2.97c0.04-0.04,7.02-3.58,8.34-4.25c0.13-0.07,0.25-0.13,0.37-0.21
				c0.45-0.28,1.71-1.03,2.51-1.21c-0.03,0.03,4.06-1.51,4.06-1.51s2.02-0.88,3.73-1.1c0.69-0.09,1.38,0.04,2.01,0.33
				c0.67,0.31,1.64,0.82,2.19,1.45c0.03,0.05,0.49,0.27,0.52,0.47c0.08,0.08,1.46,1.55,2.05,1.93c0.13,0.08,0.25,0.18,0.36,0.29
				c0.66,0.64,2.37,2.34,2.68,2.88c0.03,0.05,1.48,1.82,2,2.14c-0.02-0.02,2.51,2.1,2.95,2.47c0.05,0.04,0.1,0.08,0.16,0.12
				c0.39,0.27,1.9,1.28,3.81,1.66c0.18,0.04,0.36,0.05,0.54,0.05c1.07-0.01,5.19,0,5.92,0.01c0.07,0,0.14,0,0.21-0.01
				c0.51-0.04,2.88-0.23,4.13,0.06c0.24,0.05,0.48,0.09,0.72,0.09c0.52,0.01,1.48,0.05,1.93-0.05c0.21-0.05,0.42-0.09,0.64-0.09
				c1.19-0.02,4.45-0.01,5.58-0.01c0.24,0,0.48-0.01,0.72-0.05c1.05-0.14,4.32-0.5,5.75,0.18c0.05,0,4.68,2.25,5.48,3.12
				c0.04,0.05,0.33,0.14,0.47,0.33c0.01,0.01,0.35,0.22,0.76,0.5c0.69,0.47,1.27,1.09,1.71,1.81c0.05,0.08,0.08,0.13,0.08,0.13
				l0.32,0.6c0.19,0.35,0.35,0.72,0.47,1.09c0.2,0.6,0.56,1.55,0.91,1.87c-0.05-0.02,1.06,1.78,1.5,2.95
				c0.22,0.57,0.48,1.12,0.82,1.63c0.27,0.41,0.59,0.85,0.89,1.12c0,0.05,2.99,3.12,4.17,3.65c-0.03,0.03,2.28,0.71,3.04,0.93
				c0.09,0.03,0.3,0.08,0.38,0.08c2.55,0.17,5.83,0.34,9.45-3.25c0.36-0.35,0.67-0.75,0.91-1.19c0.68-1.21,2.48-4.23,3.18-5.7
				c0.08-0.17,0.15-0.35,0.22-0.53c0.13-0.37,0.59-1.48,0.91-1.73c-0.04-0.08,1.07-1.46,1.36-1.69c0.02-0.02,0.19-0.49,0.43-0.51
				c0.06-0.01,2.57-1.99,5.72,0.97c0.03,0.02,0.46,0.48,0.77,0.82c0.23,0.25,0.44,0.52,0.64,0.79l0.06,0.09
				c0.11,0.16,0.22,0.32,0.32,0.49c0.28,0.46,0.5,0.94,0.68,1.45c0.15,0.44,0.33,0.92,0.37,0.96c-0.08-0.03,0,0.1-0.03,0.41
				c0,0.03,0.19,0.96-0.43,3.89c-0.14,0.65-0.43,1.26-0.84,1.78c-0.43,0.54-0.93,1.22-0.98,1.48c-0.11,0.08-0.36,0.52-0.9,0.52
				c0.02-0.02-1.97,0.47-2.66,0.76c-0.19,0.08-0.37,0.15-0.57,0.2c-0.81,0.22-2.68,0.7-3.48,0.63c-0.05,0.05-5.67,0.6-5.67,0.6
				s-6.39,0.99-8.52,2.77c-0.05,0-4.21,2.63-6.74,6.71c-0.22,0.35-0.39,0.72-0.54,1.1c0,0.01,0,0.01-0.01,0.02
				c-0.18,0.44-0.39,0.88-0.64,1.29c-0.38,0.62-1.1,1.96-1.73,4.21c-0.17,0.6-0.26,1.21-0.32,1.83c-0.06,0.64-0.27,1.6-0.92,2.1
				c0,0.03-2.39,1.4-3.39,1.97c-0.28,0.16-0.57,0.3-0.87,0.41c-1.12,0.42-4.05,1.56-5.24,2.26c-0.69,0.41-1.45,0.7-2.24,0.77
				c-0.81,0.07-1.82,0.03-2.88-0.32c-0.03,0.03-2.35-0.96-3.32-1.38c-0.28-0.12-0.54-0.25-0.81-0.4c-1.55-0.87-7.21-4.07-7.67-4.43
				l-3.27-2.09c-0.12-0.08-0.24-0.16-0.36-0.24c-0.53-0.38-2.4-1.62-4.32-1.75c-0.04-0.02-2.27-0.01-3.41,0
				c-0.42,0-0.82-0.04-1.23-0.11c-0.46-0.09-1.38-0.18-2.05-0.25c-0.53-0.05-1.05-0.2-1.53-0.45c-0.14-0.07-0.28-0.15-0.41-0.24
				c-0.78-0.52-3.83-2.5-5.87-2.83c-0.05-0.05-3.7-0.66-5.34,0.33c0,0.08-2.1,0.78-2.47,1.19c-0.08,0-1.79,0.58-2.8,1.89
				c-0.04,0.05-1.97,1.93-2.71,1.89c0.08-0.04-1.78,0.31-1.89,0.62c-0.01,0.02-0.66,0.51-1.15,0.88c-0.35,0.26-0.73,0.49-1.13,0.68
				l-5.58,2.68c0,0-1.27,0.53-1.6,0.86c0,0.04-0.82,0.58-1.27,0.68c0.03,0-1.2,0.52-1.7,0.73c-0.14,0.06-0.28,0.11-0.42,0.16
				l-1.57,0.55c-0.29,0.1-0.58,0.22-0.85,0.36l-1.07,0.53c0,0-0.37,0.19-0.12,0.72c-0.02,0,0.33-0.12,0.76-0.14
				c0.02,0,1.54,0.06,3.12-0.51c0.04-0.02,2.75-0.74,2.75-0.74l2.91-0.78c0.1-0.03,0.2-0.05,0.3-0.07c0.53-0.11,2.52-0.56,3.16-1.37
				c-0.04-0.04,1.93-1.77,2.18-1.81c0.01-0.04,0.7-0.52,1.19-0.87c0.33-0.23,0.67-0.43,1.03-0.6l2.47-1.17c0,0,3.41-1.62,5.78-1.75
				c0.06,0,1.86-0.25,3.07-0.39c0.45-0.05,0.9-0.06,1.35-0.01c0.57,0.06,1.64,0.08,2.57-0.42c0.03,0.05,0.55-0.3,1.51,0
				c-0.05,0.02,4.42,1.38,5.9,1.83c0.27,0.08,0.55,0.13,0.84,0.16c0.39,0.04,0.96,0.15,1.14,0.5c0,0.03,3.65,2.74,4.11,2.82
				c0.03-0.03,0.49,0.33,1.01,0.44c-0.05,0,2.16,0.9,2.16,0.9s0.47,0.08,1.01,0.58c0.02,0.02,10.73,5.12,10.73,5.12
				s6.06,3.19,10.28,1.58c-0.02,0,2.93-1.54,3.89-2.08c1.01-0.57,3.72-2.22,3.99-2.32c-0.04,0.02,1.89-1.17,2.36,0.35
				c0,0,0.12,6.56,0.53,7.14c-0.03-0.03,0.6,2.19,1.34,3.28c0.21,0.31,0.38,0.64,0.54,0.98c0.62,1.26,1.81,3.73,2.07,4.27
				c0.03,0.06,0.06,0.12,0.09,0.17c0.26,0.49,1.84,3.53,1.94,6.62c0.03,0.03,0.27,7.37-0.11,8.8c-0.02,0.08-0.46,3.22-0.63,4.53
				c-0.05,0.39-0.14,0.77-0.25,1.14c-0.48,1.62-1.86,6.14-2.39,6.65c-0.01,0-0.04,0.07-0.07,0.18c-0.19,0.6-0.44,1.18-0.76,1.72
				c-0.16,0.29-0.34,0.63-0.5,1c-0.27,0.62-0.57,1.23-0.94,1.79c-1.17,1.76-3.5,4.69-4.76,5.79c-0.05,0.05-1.29,1.59-1.82,2.25
				c-0.18,0.23-0.38,0.44-0.58,0.64c-0.32,0.32-0.77,0.73-0.93,0.76c-0.16,0.08-2.63,2.55-2.63,2.55l-1.42,1.34
				c-0.1,0.09-0.19,0.19-0.28,0.29l-2.44,2.65c-0.18,0.19-0.34,0.39-0.49,0.61l-0.59,0.85c-0.28,0.4-0.61,0.75-0.99,1.05l-2.7,4.03
				c-0.08,0.11-0.15,0.22-0.24,0.33c-0.45,0.59-2.26,3.1-2.7,5.54c0-0.04-1.71,5.71-1.69,8.84c0,0.08-1.23,4.52,0.74,12.33
				c-0.04-0.08,0.9,5.55,0.9,5.55s0.33,1.56,0.29,2.3c0,0-0.1,4.15-0.6,5.95c-0.09,0.32-0.17,0.64-0.23,0.98
				c-0.23,1.41-0.87,5.1-0.9,5.5c-0.03,0.03-0.47,3.37-0.64,5.07c-0.05,0.46-0.06,0.92-0.03,1.38c0.09,1.52,0.3,6.33,0.3,6.33v1.07
				c0,0,0.07,1.25,0.62,0.84c0.04-0.03,1.52-6.58,1.52-7.5c-0.04-0.04,0.98-5.27,0.85-7.49c-0.01-0.16-0.02-0.32,0-0.48
				c0.07-0.89,0.27-4.38,0.56-5.39c0-0.1,0.75-4.82,1.1-5.99c0.08-0.27,0.13-0.55,0.17-0.83c0.2-1.45,0.74-5.23,0.45-7.01
				c-0.03-0.08-0.1-3.91-0.45-5.2c-0.09-0.32-0.14-0.64-0.17-0.97c-0.2-1.67-0.74-5.91-0.8-7.64c-0.03-0.03,0.19-5.45,1.64-10.5
				c0.04-0.13,1.43-3.29,4.44-7.02c-0.05,0.02,2.29-2.34,3.05-3.11c0.16-0.16,0.32-0.31,0.49-0.46l1.5-1.31l4.98-4.54
				c0.12-0.11,0.25-0.22,0.38-0.32c0.73-0.59,3.45-2.82,4.01-3.91c0,0.03,7.89-8.66,9.87-19.84c-0.08,0,1.56-4.85-1.03-14.43
				c0.08-0.04-2.92-8.02-2.92-8.02s-1.97-5.22-1.52-9.33c0-0.11-0.25-4.31,1.2-7.09c0.3-0.57,0.72-1.06,1.2-1.49
				c0.31-0.28,0.71-0.64,0.91-0.83c0.11-0.1,0.22-0.19,0.33-0.28c0.84-0.66,4.3-3.2,7.17-3.05c0,0.04,1.89-0.16,2.47,0.41
				c-0.03-0.03,2.21,1.41,3.44,2.2c0.25,0.16,0.66,0.39,0.97,0.55c0.29,0.15,0.57,0.33,0.84,0.52c0.45,0.32,0.93,0.59,1.43,0.8
				l0.25,0.1c0.44,0.19,0.89,0.33,1.36,0.43c0.84,0.18,2.15,0.48,2.24,0.53c0-0.11,1.78,0.55,2,0.41c0-0.08,3.12,0.33,4.17-0.14
				c-0.03,0.03,2.69-0.22,2.69-0.22s4.69-0.6,6.61-2.06c-0.03-0.03,3.02-1.86,3.32-2.38c0-0.01,0.02-0.03,0.07-0.07
				c0.49-0.49,0.95-1.01,1.38-1.55c0.46-0.58,1.02-1.23,1.19-1.23c0.08,0.03,1.7-1.81,1.7-1.81s1.12-0.93,2.19,0.36
				c0.03,0.05,1.51,1.34,0.03,6.52c0,0.03-0.96,2.63-0.96,2.63s-0.52,1.43-0.99,1.62c-0.05,0.02-2.17,3.01-2.91,4.4
				c-0.22,0.41-0.44,0.82-0.7,1.21c-0.94,1.43-2.92,4.48-2.92,4.48s-3.81,6.08-4.6,8.58c0.03-0.05-3.32,7.67-2.06,14.73
				c0.01,0.06,0.21,4.11,0.95,5.43c0.02,0.14,0.1,0.44,0.18,0.71c0.1,0.35,0.18,0.7,0.26,1.05c0.29,1.4,1.18,5.18,2.77,7.07
				c-0.04-0.25,0.58,1.15,1.19,1.89c0.04,0,2.18,2.71,3.25,3.08c-0.12-0.08,4.77,3.37,5.47,3.54c-0.12-0.08,4.77,1.81,4.77,1.81
				s0.77-0.07,0.69,1.27c0.03,0-0.11,5.81-0.11,5.81l-0.25,4.67c0,0-0.16,2.63,0.25,3.54c0.03-0.03,0.06,1.4,0.07,2.18
				c0.01,0.33,0.03,0.66,0.08,0.99c0.11,0.73,0.11,1.48,0.01,2.21l-0.62,4.16l-0.48,3.11c-0.01,0.06-0.02,0.12-0.02,0.19l-0.02,0.21
				c-1,2.51,2.06,3.15,2.06,3.15s0.04,0.01,0.06,0.02c0.05,0,0.44,0.14,0.44,0.14s0.33-0.08,0.25,0.47c0,0.05-0.18,1-0.32,1.75
				c-0.11,0.56-0.25,1.1-0.43,1.64c-0.42,1.23-1.2,3.73-1.2,5.22c0,0.03-0.85,3.46-1.53,3.59c-0.06,0.01-0.85,1.28-1.18,1.67
				c-0.46,0.55-0.91,0.95-0.92,2.14c-0.01,0.92,0.3,1.82,0.81,2.58c0.37,0.55,0.77,1.17,0.77,1.17s0.6,0.36,0.11,0.66
				c0-0.05-1.97,1.76-1.17,3.16c0.04,0,1.71,2.26,1.71,2.26s1.23,1.5,0.74,3.52c0.02,0.02-0.45,1.97,0.1,3.29
				c0.02-0.02,0.47,1.21,0.92,1.69c0-0.04,0.23,0.33,0.04,0.74c0.02,0.02-0.39,0.45-0.02,1.05c0.02,0,0.14,0.1,0.1,0.37
				c-0.02,0,0.19,2.53,0.72,3.93c0,0,0,0,0,0.01c0.12,0.63-0.07,1.28-0.47,1.78c-0.38,0.47-0.9,1.16-0.91,1.35
				c0,0.02-0.35,0.27-0.06,0.99c0.04,0.02,3.52,2.65,5.28,0.23c0.04,0.08,1.03-1.5,1.01-1.89c0,0.12,0.22-0.66,0.29-0.76
				c0.02-0.04,0.06-0.66,0.06-0.66s0.08-0.56,0.37-0.68c0.04,0.04,0.83-0.34,0.84,0.39c0.02,0.78-1.09,2.73-1.28,2.84
				c0.03,0.03-0.9,1.34-1.15,2.74c-0.03,0.1-0.32,1.36-0.32,1.36l-0.36,1.71l-0.63,2.62c-0.02,0.08-0.04,0.15-0.06,0.23
				c-0.21,0.68-1.34,4.32-1.44,5.21c0.05,0.16-0.05,0.37-0.13,0.37c0.02,0-0.43,0.27-0.37,1.07c0.02-0.04-0.1,0.78-0.1,0.78
				s-0.82,3.91-1.11,4.17c0.02,0-0.73,1.06,0.39,1.27c0.03,0.01,0.92-0.9,1.33-1.33c0.13-0.13,0.24-0.27,0.35-0.41
				c0.16-0.22,0.43-0.46,0.6-0.48c0.07-0.01,1.07-1.01,1.07-1.01l0.51-0.29c0,0,0.9-0.21,0.84-1.34c-0.02,0.02,0.99-7.83,1.48-9.52
				c0-0.08,0.53-1.85,0.53-1.85s0.16-0.27,0.02-0.47c-0.02,0.02,0.14-2.41,0.53-2.78c-0.04,0.04,0.66-1.71,0.66-1.71l0.23-0.62
				c0,0,0.47-0.41,0.49,0.14c0-0.02-0.64,2.36,0.02,3.02c0-0.02,0.41,0.72,1.85,0.51c-0.02,0.02,0.9-0.08,1.11-0.25
				c-0.04,0.02,0.58-0.31,0.88-0.25c-0.02,0.02,0.72-0.08,0.72-0.08s0.35-0.1,0.45-0.31c-0.02-0.04,1.21-0.39,1.6-1.81
				c0,0.04,0.19-0.76,0.19-0.76s0.04-0.45,0.37-0.23c0,0,0.21,0.43,0.56,0.41c-0.02-0.04,2.68,0.47,3.42-0.73
				c0.02-0.04,0.27-0.77,0.61-1.22c0.48-0.62,0.65-1.43,0.56-2.21c-0.04-0.37-0.12-0.81-0.25-1.34c-0.06-0.24-0.16-0.48-0.27-0.7
				c-0.2-0.36-0.5-0.99-0.5-0.99s-0.1-0.29,0.02-0.45c0.02-0.08,0.36-0.32,0.17-1.27c-0.03-0.11-0.3-0.27,0-0.71
				c0.03-0.05,0.25-0.08,0.19-0.58c-0.03-0.11-0.66-2.71-1.59-2.91c-0.03-0.05-2.12-0.37-2.41-0.33c-0.12,0.04-0.96-0.6-0.62-1.56
				c0.03-0.1,0.67-0.67,1.55-1.05c0.37-0.16,0.77-0.23,1.18-0.23c0.43,0,1.12-0.09,1.4-0.5c-0.03,0.03,0.69-0.71,0.69-0.71
				s0.96-1.04,1.07-1.48c-0.03-0.05,0.55-0.82,0.55-0.82s0.66-0.88,0.69-1.56c-0.02,0.02,0.16-1.12,0.08-2.22
				c-0.04-0.51-0.18-1-0.38-1.47c-0.18-0.42-0.42-1.02-0.49-1.25c0.03-0.03,0.11-0.33-0.45-0.08c-0.01,0.01-0.45,0.27-0.4,1.11
				c-0.03,0.03-0.42,0.99-1.19,1.15c0.03-0.01-0.86,0.41-0.67-0.07c0.01,0.01,0.22-0.14,0.46-0.31c0.28-0.2,0.49-0.47,0.59-0.79
				c0.16-0.48,0.47-1.22,1.02-1.7l1.59-1.45c0.07-0.07,0.15-0.13,0.23-0.19c0.32-0.23,1.02-0.93,1.26-1.46
				c-0.03,0.03,0.62-1.04,0.68-1.47c0-0.02,0.21-0.74,0.21-0.74s0-0.58-0.68-0.31c-0.05,0-0.44,0.67-0.61,0.95
				c-0.05,0.08-0.1,0.16-0.17,0.24c-0.24,0.29-0.86,1.02-1.06,1.1c-0.02-0.02-1.44,1.15-1.44,1.15s-0.39,0.49-0.87,0.67
				c-0.32,0.12-0.68,0.02-0.9-0.25c-0.15-0.19-0.46-0.47-0.95-0.43c-0.19-0.09-1.23-0.64-1.62-1.11c-0.02,0.04-0.1-0.39-0.45-0.04
				c0.02,0.02-0.63,0.57,0.05,2.75c0.01,0.02,0.01,0.04,0.01,0.06c0.04,0.32,0.28,2.73-0.6,3.97c-0.06,0.06-1.6,1.93-1.6,1.93
				s-0.25,0.12-0.14-0.23c0.04-0.08,1.05-1.32,1.34-2.16c0.02,0,0.67-1.9,0.47-3.02c-0.03-0.27-0.07-0.71-0.18-1.11
				c-0.04-0.15-0.07-0.3-0.07-0.46c-0.01-0.68-0.06-1.78-0.01-2.44c0.01-0.14,0.15-0.2,0.06-0.58c0,0,0.08-0.31,0.16-0.39
				c0.02-0.08,0.28-0.79,0.25-1.03c-0.01-0.05-0.07-0.21,0.12-0.29c0.03-0.01,0.62-0.42,0.62-0.42s0.46-0.09,0.6-0.14
				c0.16-0.05,0.54-0.13,0.63-0.27c0.13-0.21,0-0.83-0.38-0.92c-0.01,0-1.49,0.72-1.99,0.97c-0.43,0.22-1.09,0.55-1.09,1.6
				c0.03,0.04,0.06,0.29-0.04,0.33c0.01,0.01-0.87,1.05-1.13,1.56c-0.01,0.03-0.39,0.58-0.39,0.58s-0.64,0.71-0.15,1.96
				c0.03,0.08,0.06,0.16,0.07,0.24c0.07,0.42,0.23,1.72-0.11,2.73c0.02,0.04-0.39,1.21-0.7,0.84c0.02-0.02-0.04-0.29,0.21-0.64
				c0.02-0.05,0.12-0.12,0.1-0.43c0.04,0.02,0.09-1.91-0.27-2.84c-0.04-0.1-0.1-0.18-0.16-0.27c-0.16-0.22-0.47-0.8-0.19-1.45
				c0.02-0.02,0.75-1.11,0.86-1.54c0.02-0.06-0.03-0.12-0.25-0.1c-0.04-0.02-2.21-0.08-2.75-0.1c-0.12,0-0.22-0.06-0.29-0.16
				c-0.12-0.17-0.28-0.53-0.41-1.29c-0.01-0.08-0.02-0.16-0.01-0.23c0.06-0.79,0.42-5.46,0.65-5.68c0.04,0.08,0.74-4.21,0.74-4.21
				s-0.11-0.69,0.96-0.74c-0.03,0.03,1.7,0.16,1.95-2.69c0.05-0.02,0.17-2.06,0.21-2.74c0.01-0.14,0.01-0.28,0-0.42
				c-0.03-0.84-0.14-4.18,0.21-6.1c0.03-0.18,0.06-0.35,0.08-0.53c0.08-0.7,0.4-3.07,0.59-4.45c0.08-0.57,0.2-1.13,0.39-1.67
				c0.2-0.58,0.46-1.46,0.55-2.35c0.04-0.36,0.11-0.7,0.2-1.05c0.24-0.88,0.61-2.62,0.36-3.93c0,0.04-0.41-0.85,0.58-0.77
				c-0.08,0.03,7.43,1.21,10.99,0.44c0.05,0.05,0.89-0.25,1.26-0.29c0.08-0.04,3.82-0.33,4.11-0.58c0.08,0,1.11-0.16,1.23-0.04
				c0,0.04,9.77-0.28,11.25-0.32c0.11,0,0.22-0.01,0.34-0.02c0.61-0.05,2.91-0.19,4.33,0.3c0.04,0.04,4.89,1.75,8.96,4.43
				c0.1,0.06,0.19,0.13,0.28,0.2c0.5,0.37,3.5,2.43,6.01,4.83c-0.08,0.04,3.62,2.3,5.14,10.44c0.04,0,0.29,1.82-0.12,2.01
				c0.03-0.03-3.12,5.88-1.23,10.44c0-0.07,2.21,7.62,2.7,9.33c0.06,0.2,0.12,0.4,0.2,0.6c0.37,0.99,1.6,4.54,0.97,6.19
				c0.03,0-0.67,2.23-0.97,3.19c-0.09,0.29-0.2,0.56-0.32,0.84l-3.06,6.79l-1.15,3.11c-0.08,0.21-0.15,0.41-0.21,0.62
				s-0.15,0.49-0.23,0.74c-0.14,0.43-0.32,0.84-0.52,1.24c-0.44,0.85-1.28,2.65-1.47,4.16c-0.03,0.23-0.05,0.45-0.11,0.67
				c-0.18,0.75-0.59,2.87-0.25,3.51c0-0.05,0.13,0.55,0.24,1.04c0.09,0.4,0.16,0.8,0.22,1.2l0.44,3.08c0.09,0.59,0.2,1.18,0.35,1.77
				c0,0,0.7,3.35,1.14,4.47c0.02,0.04-0.04,0.15-0.01,0.18c0.05,0.05,0.25,0.06,0.29,0c0.42-0.61,0.33-2.23,0.12-3.63
				c-0.04-0.24-0.06-0.49-0.08-0.73c-0.08-1.19-0.48-5.76-0.48-5.76s-0.45-3.29,0.29-4.36c-0.04-0.04,1.36-3.82,1.52-3.95
				c0.04-0.04,2.51-4.4,3.09-5.42c0.07-0.12,0.14-0.24,0.22-0.36c0.26-0.4,0.95-1.51,1.01-2.07c0.04,0,1.85-5.59,1.73-7.57
				c0.06-0.06,0.1-3.26,0.12-4.77c0-0.45-0.01-0.89-0.05-1.34c-0.05-0.51-0.09-1.2,0.02-1.25c-0.08,0,1.77-7.94,0.41-12.66
				c-0.01,0-0.06-0.2-0.12-0.47c-0.19-0.87-0.46-1.73-0.79-2.56c-0.2-0.5-0.4-1-0.48-1.2c-0.04-0.04-0.78-3.25-0.99-3.37
				c0.16,0.04-0.33-0.74-0.21-1.11c0,0,0.44-7.81-0.9-9.7c-0.04-0.04-0.37-0.72-0.6-1.18c-0.14-0.28-0.28-0.55-0.45-0.81l-0.21-0.34
				c-0.2-0.31-0.41-0.62-0.64-0.91c-0.62-0.8-1.85-2.37-2.22-2.58c0.02,0.02-3-2.2-4.12-3.02c-0.27-0.2-0.53-0.41-0.77-0.64
				l-0.46-0.43c-0.3-0.28-0.62-0.55-0.95-0.8c-0.59-0.45-1.47-1.07-1.87-1.14c-0.08-0.03-2.71-1.45-5.29-1.84
				c0,0.05-5.59-0.74-6.55-1.56c-0.02,0.02-1.87-1.68-4.7-2.47c-0.64-0.18-1.29-0.25-1.95-0.27c-1.39-0.04-4.14-0.08-5.48,0.32
				c-0.45,0.14-0.92,0.19-1.4,0.22c-1.65,0.09-4.95,0.22-6.31-0.15c-0.55-0.15-1.11-0.21-1.67-0.24c-1.69-0.1-4.58-0.22-5.88-0.28
				c-0.36-0.02-0.71,0.02-1.07,0.07c-0.52,0.07-1.4,0-1.74-1.25c-0.04,0,0.87-12.82,1.71-16c0.16-0.62,0.33-1.25,0.45-1.88
				c0.22-1.14,0.54-2.8,0.77-4.01c0.2-1.03,0.47-2.03,0.81-3.02c0,0,1.65-4.58,2.12-6.14c0.08-0.28,0.25-0.78,0.52-1.03
				c0.04-0.04,1.22-1.24,1.6-1.69c0.11-0.13,0.33-0.29,0.58-0.33c0.07-0.01,2.58-0.7,3.2-0.87c0.09-0.02,0.17-0.05,0.25-0.08
				c0.43-0.16,1.82-0.5,2.31-0.57c0.04-0.01,8.26-1.14,9.83-0.66c0.08,0.02,6.61,2.01,8.37,2.54c0.29,0.09,0.57,0.18,0.86,0.29
				l10.51,3.99c0.22,0.08,0.45,0.16,0.67,0.23l5.94,1.89c0.69,0.22,1.36,0.48,2.01,0.78c1.08,0.5,2.97,1.3,4.04,1.25
				c-0.08,0.16,12.53,0.96,13.71,0.74c0.03,0.03,0.9-0.22,1.34,0.05c-0.05-0.03,3.37,1.38,10.36-0.26
				c-0.04,0.04,3.45-1.36,4.19-0.53c0.04,0,4.79,4.61,7.05,5.69c0.36,0.17,0.71,0.34,1.06,0.54c1.37,0.81,4.82,2.76,6.64,3.41
				c0.6,0.22,1.19,0.47,1.77,0.74c2.71,1.26,9.23,4.21,10.17,4.54c-0.16-0.03,1.42,0.11,2.25,0.27c0.44,0.09,0.89,0.14,1.34,0.15
				c0.5,0.01,1.03,0,1.1-0.14c-0.04,0.04,2.26-0.29,3.33,0.25c0-0.08,2.33,0.41,2.43,0.62c0.04,0.08,0.53-0.02,0.78,0.25
				c0.04,0.04,5.51,4.03,6.58,4.44c-0.03-0.12,0.55,0.16,0.9,0.53c0.43,0.45,0.92,0.84,1.46,1.16c1.71,1.01,4.63,2.76,4.63,2.76
				l2.75,1.64c0.42,0.25,0.84,0.48,1.28,0.68l4.6,2.16l9.62,4.52l10.01,4.93c0.35,0.17,0.68,0.35,1.01,0.55l2.14,1.29
				c0.52,0.31,1.05,0.61,1.61,0.86c0.28,0.13,0.64,0.31,0.97,0.55c0.4,0.28,1.04,0.74,1.46,0.99l3.03,1.86c0,0,2.99,1.92,2.38,3.45
				c-0.06,0.05-1.65,2.85-1.65,2.85l-1.39,2.34c-0.42,0.71-0.9,1.38-1.44,2.01l-1.67,1.96c0,0-9.32,11.46-12.88,17.49
				c0.03,0.03-0.6,0.98-1.18,1.86c-0.66,0.99-1.24,2.01-1.76,3.08l-2.98,6.14l-2.08,4.5l-2.01,4.69c-0.49,1.14-1.05,2.26-1.68,3.33
				l-1.14,1.95l-4.71,7.89l-2.36,3.89c0,0-0.67,1.44-2.65,1.36c0.08-0.16-3.66,0.04-4.89,1.4c0-0.04-1.56,1.6-1.56,1.6
				s-0.58,0.62-0.58,1.07c0,0-1.05,1.63-0.89,4.02c0.11,1.69,0.9,3.26,2.08,4.48c0.65,0.68,1.48,1.48,2.1,1.82
				c0,0,3.66,2.22,4.4,3.58c0-0.06,0.7,0.97,1.13,1.62c0.23,0.35,0.49,0.68,0.76,1l0.08,0.09c0,0,0.77,0.95,1.08,1.28
				c0.07,0.08,0.13,0.16,0.19,0.24c0.11,0.18,0.34,0.52,0.54,0.81c0.25,0.37,0.48,0.75,0.69,1.15l0.02,0.04
				c0.2,0.38,0.41,0.74,0.65,1.09c0.65,0.96,1.96,2.87,2.26,3.11c0.08-0.04,0.62,0.58,0.53,1.03c-0.03,0,0.25,1.59,0.25,1.59
				l0.07,0.56l0.01,0.77c0,0-0.08,3.34,1.69,4.69c0.05,0.04,1.9,2.34,1.6,3.78c-0.01,0.03-1.28,2.21-0.55,3.95
				c0.26,0.62,0.82,1.07,1.47,1.23c0.56,0.14,1.44,0.52,1.46,1.2c0.01,0.01,0.03,0.06,0.06,0.12c0.36,0.74,1.13,1.16,1.95,1.18
				c0.43,0.01,1.02,0.12,1.32,0.47c0.07-0.03,0.85,0.76,2.19,1.18c0.37,0.11,0.77,0.12,1.14,0.02c0.42-0.11,1.12-0.18,1.65,0.24
				c0.08,0,2.66,1.16,3.86-0.95c0.2-0.34,0.88-0.66,0.86-1.32c-0.02,0,0.35-4.11-0.29-5.32c-0.02,0.02-0.41-1.77-0.55-2.41
				c-0.01-0.04-0.34-1.28-0.45-1.83c-0.01-0.06-0.03-0.12-0.04-0.18c-0.15-0.52-0.94-2.98-1.34-3.63c-0.03-0.05-0.27-0.66-0.3-1.15
				c0-0.08-0.18-0.86-0.6-1.56c-0.01-0.02-1.08-1.83-1.08-1.83l-0.18-0.32c0,0-0.63-1.28-1.2-1.85c0-0.02-0.86-0.93-1.31-2.8
				c-0.09-0.36-0.13-0.74-0.14-1.11c-0.01-1.08-0.06-3.89-0.08-4.75c0-0.17,0-0.34,0.01-0.51l0.25-3.42c0,0,0.11-0.93-0.16-1.59
				c-0.03-0.05-0.52-1.62-0.79-2.38c-0.02,0.02-0.21-1.04-0.48-1.73c-0.11-0.26-0.17-0.54-0.22-0.82c-0.25-1.43-0.6-5.16,1.48-8.64
				c0.24-0.39,0.53-0.75,0.83-1.09c2.41-2.66,12.92-14.17,12.92-14.17l12.28-13.76c0,0,7.29-8.06,7.68-9.21
				c0-0.22,3.38-4.96,3.38-4.96l0.89-1.29l0.91-1.24c0,0,0.55-0.77,0.55-1c0-0.04,1.97-3.37,1.97-3.37s3.12-5.02,3.04-5.63
				c0.04,0.04,1.33-3.74,2.1-4.92c0.12-0.18,0.23-0.36,0.33-0.55c0.34-0.67,1.11-2.09,1.11-2.09s1.97-3.74,2.47-6.29
				c0.03-0.03,0.47-1.53,0.59-2.25c0.08-0.45,0.17-0.9,0.33-1.34c0.36-1,1.11-2.68,2.57-4.72c-0.04-0.08,0.66-0.82,0.66-0.82
				s1.36-0.9,1.81-3c0-0.04,1.06-2,1.85-2.63c2.11-1.7,7.57-7.77,7.57-7.77l11.02-11.35l12.58-12.87l10.07-10.32l11.51-11.88
				l10.9-11.18l14.02-14.31l9.79-9.99l9.09-9.42l1.52-1.52C4581.34,345.35,4581.94,344.63,4581.32,344.12z M4192.46,215.27
				c-0.4,0.53-0.06,2.62-0.08,2.66c-0.41,0.65-0.88,0.41-0.9,0.4c-0.26-0.04-0.26-0.37-0.25-0.38c0-0.32-0.06-0.55-0.11-0.67
				c-0.03-0.09-0.05-0.19-0.06-0.29c-0.05-0.89,0.11-1.39,0.09-1.38c0.17-0.14,0.08-0.54,0.1-0.56c0.32-0.56,0.93-0.77,1.21-0.67
				C4192.67,214.45,4192.8,214.89,4192.46,215.27z M4200.88,207.31c0.79-0.52,1.43,1.56,1.48,1.56c1.29,2.74,2.81,3.32,2.81,3.33
				c0.36,0.16,0.24,0.49,0.26,0.49c0.1,0.68,0.31,1.4,0.39,1.69c0.03,0.09,0.05,0.17,0.06,0.26c0.11,0.65,0.58,3.43,0.72,4.2
				c0.03,0.15,0.03,0.29,0.02,0.44c-0.09,1.84,0.57,3.54,0.57,3.54c0.33,0.47,0.25,1.01,0.25,1.01s-0.03,1.43-0.03,1.46
				c-0.11,0.58-0.49-0.1-0.49-0.1s-3.43-6.71-3.41-6.67c-0.58-1.07-1.07-3.58-1.07-3.62c-0.04-0.41,0.43-0.31,0.41-0.35
				c1.5-0.02,1.38-1.09,1.4-1.09c-0.1-0.39-0.56,0-0.58,0.02c-0.35,0.29-0.95,0.14-0.97,0.12c-2.26-1.97-1.97-5.37-1.97-5.4
				C4200.57,207.23,4200.96,207.28,4200.88,207.31z M4196.48,211.75c0.29-0.74,0.97-0.22,0.99-0.21c0.21,0.62,0.97,2.24,0.99,2.26
				c0.58,0.58,1.15,3.12,1.15,3.12c0.56,1.62,0.35,2.59,0.35,2.61c-0.45,1.3-1.33,0.9-1.75,0.62c-0.16-0.11-0.27-0.28-0.31-0.47
				c-0.11-0.5,0.01-0.66,0.05-0.77c0.25-0.78-0.13-1.53-0.31-1.92c-0.1-0.22-0.29-0.89-0.29-0.91c-0.04-0.41-0.23-0.98-0.25-1.01
				C4196.56,214.23,4196.46,211.77,4196.48,211.75z M4193.92,215.63c0-0.13,0.03-0.25,0.07-0.38c0.15-0.45,0.15-1.74,0.16-1.77
				c0.57-0.97,1.07-0.37,1.19-0.09c0.19,0.42,0.39,1.78,0.39,1.78c0.11,0.5,0.12,1.12,0.12,1.46c0,0.18,0.03,0.35,0.11,0.52
				c0.1,0.2,0.23,0.48,0.31,0.6c0.16,0.27,0.28,0.73,0.13,1c-0.35,0.64-1.2,0.38-1.19,0.37c-0.5-0.07-1.01-1.03-1.01-1.03
				s-0.07-0.16-0.09-0.25C4193.9,217.02,4193.9,216.07,4193.92,215.63z M4201.23,238.33c-0.77,0.62-1.06,0.12-1.07,0.08
				c-0.27-0.74-0.98-1.17-1.35-1.36c-0.18-0.09-0.34-0.19-0.48-0.33c-0.73-0.7-2.93-2.82-2.96-2.85c-0.18-0.23-0.18-0.41-0.19-0.56
				c-0.02-0.45-0.33-1.75-0.31-1.77c-0.23-2.75-0.47-3-0.47-3s-0.92-2.36-0.9-2.36c-0.21-0.86,0.74-0.82,0.7-0.78
				c1.07-0.06,2.45-0.49,2.47-0.47c0.78-0.33,1.95-0.33,1.95-0.33c0.51-0.04,0.49,0.93,0.49,0.93s0.04,2.11-0.06,3
				c-0.04,0.37-0.01,0.73,0.09,1.09c0.13,0.46,0.3,1.05,0.32,1.07c0.95,1.6,1.54,4.73,1.54,4.73s0.1,0.49,0.04,0.66
				c-0.15,0.45,0.07,1.41,0.08,1.44C4201.36,237.93,4201.27,238.31,4201.23,238.33z M4205.96,228.07c-0.47,0.6-0.9,1.54-0.93,1.54
				c-0.42,0.84-0.69,3.6-0.75,4.2c-0.01,0.08-0.01,0.15-0.01,0.22c0.01,0.58,0.04,3.42-0.31,4.4c-0.28,0.78-1.05-1.52-1.07-1.5
				c0.02-0.39-0.12-0.43-0.12-0.45c-0.21,0.04-0.16-0.27-0.16-0.27s0.02-2.61,0.02-2.58c-0.03-1.81-1.01-4.58-0.99-4.5
				c-0.79-1.34-0.25-5.09-0.25-5.05c0.25-2.82,1.09-3.72,1.09-3.7c0.21-0.29,0.35-0.1,0.35-0.1s3.1,6.23,3.1,6.21
				C4206.52,227.35,4206,228.01,4205.96,228.07z M4222.42,262.21c-0.17,0.43-0.55,0.75-1.01,0.84c-0.34,0.06-0.85-0.02-1.11-0.09
				l-0.59-0.17c-0.37-0.1-0.7-0.3-0.97-0.57c-1.12-1.11-4.15-4.29-4.2-4.34c-0.24-0.28-0.88-1.26-0.88-1.26s-1.84-3.32-1.86-3.37
				c-0.19-0.17-0.61-1.29-0.92-2.12c-0.14-0.38-0.28-0.77-0.3-1.17c-0.02-0.37-0.32-0.69-0.32-0.71c-0.44-0.54-2.55-7.82-2.99-9.3
				c-0.06-0.19-0.1-0.38-0.14-0.58c-1.04-5.8,0.43-9.01,0.44-9.01c0.25-0.93,0.92,0.9,1.08,1.36c0.03,0.07,0.05,0.15,0.09,0.22
				l13.65,29.21C4222.53,261.49,4222.54,261.87,4222.42,262.21z M4236.3,371.33c-2.22,4.93-10.07,4.28-10.03,4.28
				c-2.67,0.04-8.06-1.97-8.1-2.1c-4.4-2.92-7.65-2.84-7.56-2.88c-1.5-0.22-2.13,0.04-2.22,0.04c-3.2,0.04-6.72,2.34-9,3.68
				c-0.31,0.18-0.17-0.27-0.1-0.33c0.46-0.43,1.51-1.4,1.86-1.69c0.07-0.06,0.13-0.12,0.19-0.19c0.76-0.85,1.61-1.24,1.83-1.33
				c2.69-1.81,10.86-2.55,11.76-2.53c0.12,0,0.23,0,0.35-0.02c2.3-0.29,5.66-1.61,5.71-1.61c9.15-1.62,10.53-15.32,10.54-15.34
				c0.13-0.29,0.4-0.15,0.47-0.05c6.63,8.75,5.6,16.46,5.56,16.42C4237.78,368.5,4236.3,371.37,4236.3,371.33z M4249.73,435.56
				c0.07,0.32-0.42,0.18-0.47,0.16c-5.67-1.15-8-3.73-8.06-3.78c-3.24-3.13-4.71-14.03-4.71-14.09c-0.13-9.32,2.78-16.5,3.91-18.91
				c0.21-0.46,0.39-0.93,0.56-1.4c0.96-2.54,5.6-7.81,5.64-7.83c0.25-0.43,0.82-0.72,0.82-0.72s1.45-1.21,1.45-1.19
				c2.22-1.23,2.27,0.62,2.17,1.23c-0.27,1.62-0.06,4.61,0.12,5.54c0.03,0.17,0.06,0.34,0.08,0.51c0.12,1.04,0.84,5.18,1.13,6.99
				c0.06,0.38,0.13,0.76,0.26,1.13c0.62,1.76,0.2,9.2,0.2,9.28c0.12,1.4-0.93,4.14-0.95,4.19
				C4249.25,425.19,4249.71,435.49,4249.73,435.56z M4253.78,518.57c-1.36,0.44-1.18-0.6-1.18-0.6s0.07-1.45,0.05-1.45
				c-0.01-0.7-0.95-2.84-0.96-2.82c-0.34-0.6-0.44-1.26-0.27-1.64c0.43-0.98,1.03-0.37,1.17-0.11c0.23,0.45,0.47,1.97,0.51,1.96
				c0.06,0.4,0.82,1.22,0.84,1.18c0.44,0.26,0.51,0.56,0.48,0.53C4255.21,516.95,4253.81,518.56,4253.78,518.57z M4258.17,513.3
				c-0.4,0.51-1.08,0.66-1.1,0.66c-1.2,0.05-2.02-0.27-2.54-0.64c-0.54-0.38-0.59-0.79-0.62-1.11c-0.01-0.16-0.07-0.64-0.08-0.68
				c-1.29-3.38-2.98-5.1-2.92-5.08c-0.33-0.32-0.29-1.03-0.29-0.99c0.08-0.84,0.58-1.01,0.58-1.05c0.9-0.35,1.07,0.6,1.05,0.6
				c0.08,0.44,0.48,1.33,0.64,1.71c0.06,0.13,0.14,0.26,0.22,0.38c0.36,0.53,0.74,1.32,0.86,1.58c0.03,0.07,0.06,0.13,0.1,0.19
				c0.19,0.3,0.78,1.18,1.15,1.3c0.2,0.06,0.24,0.13,0.31,0.18c0.77,0.6,2.49,1.91,2.49,1.91
				C4258.53,512.65,4258.17,513.29,4258.17,513.3z M4260.94,520.7c-0.31,0-0.56-0.26-0.56-0.57c0-0.32,0.25-0.57,0.56-0.57
				s0.56,0.26,0.56,0.57C4261.5,520.45,4261.25,520.7,4260.94,520.7z M4263.5,519.62c-0.88,0.49-1.19-0.81-1.19-0.79
				c-0.1-0.63-0.66-1.17-0.66-1.17s-0.68-0.76-1.07-1.18c-0.25-0.27-0.33-0.68-0.16-1c0.25-0.48,0.82-0.6,0.82-0.6
				c1-0.37,1.29,0.38,1.29,0.4c0.04,0.17,0.27,0.45,0.29,0.46c0.98,0.95,1.29,2.1,1.31,2.08
				C4264.57,519.31,4263.88,519.41,4263.5,519.62z M4267.34,509.56c0.23-0.33,0.57-0.17,0.57-0.17s0.68,0.49,0.7,0.52
				c0.19,0.25,0,0.41-0.01,0.42c-0.4,0.31-0.66,0.93-0.68,0.94c-0.59,0.12-0.68-0.26-0.68-0.28
				C4267.21,510.14,4267.34,509.63,4267.34,509.56z M4266.92,511.93c0.36,0.15,0.62,0.48,0.98,0.63c0.25,0.1,0.53,0.11,0.79,0.19
				c1.03,0.31,1.39,1.56,1.48,2.63c0.02,0.22,0.03,0.46-0.06,0.66c-0.01,0.02-0.02,0.05-0.04,0.07c-0.1,0.17-0.3,0.3-0.49,0.25
				c-0.15-0.03-0.26-0.16-0.36-0.27c-0.7-0.83-1.33-1.8-2.31-2.27c-0.59-0.28-1.26-0.35-1.89-0.53c-1.68-0.48-3.07-1.66-4.68-2.34
				c-1.38-0.58-2.93-0.82-4.08-1.78c-0.88-0.73-1.37-1.8-1.9-2.81c-0.19-0.37-0.39-0.74-0.6-1.1c-0.4-0.69-0.81-1.36-1.25-2.03
				c-0.44-0.66-0.89-1.31-1.36-1.96c-0.47-0.64-0.95-1.28-1.43-1.91c-0.24-0.32-0.49-0.63-0.73-0.94c-0.12-0.16-0.25-0.31-0.37-0.47
				c-0.1-0.13-0.25-0.27-0.3-0.44c-0.04-0.13,0.03-0.26,0.09-0.38c0.08-0.15,0.16-0.3,0.27-0.43c0.19-0.23,0.46-0.41,0.77-0.34
				c0.2,0.05,0.37,0.2,0.51,0.35c1.28,1.31,2.32,2.86,3.05,4.54c0.72,1.66,1.16,3.49,2.26,4.93c1.02,1.34,2.52,2.23,4.05,2.93
				c1.53,0.69,3.22,1.16,4.71,1.96c0.52,0.28,0.97,0.67,1.56,0.73C4266.03,511.86,4266.5,511.76,4266.92,511.93z M4260.73,502.38
				c0.6,0.38,0.95,1.07,1.53,1.48c0.36,0.25,0.82,0.42,1,0.82c0.24,0.52-0.12,1.17,0.14,1.68c0.36,0.71,1.66,0.67,1.79,1.45
				c0.07,0.42-0.32,0.82-0.74,0.9c-0.42,0.09-0.85-0.05-1.25-0.2c-0.15-0.06-0.3-0.12-0.45-0.18c-0.92-0.38-1.81-0.83-2.7-1.29
				c-1.05-0.53-2.12-1.09-2.91-1.96c-1.01-1.12-1.43-2.63-1.99-4.04c-1.09-2.78-2.8-5.32-4.96-7.38c-0.42-0.4-0.86-0.78-1.27-1.19
				c-0.28-0.27-0.55-0.54-0.8-0.84c-0.09-0.11-0.24-0.24-0.27-0.38s0.04-0.32,0.08-0.45c0.22-0.69,0.7-1.25,1.11-1.82
				c2.79-3.82,3.33-8.76,4.27-13.4c0.09-0.47,0.27-1.02,0.73-1.15c0.17-0.05,0.35-0.02,0.53,0l4.26,0.61
				c0.27,0.04,0.47,0.29,0.44,0.57l-0.48,4.08c-0.03,0.23-0.06,0.47-0.19,0.67c-0.45,0.64-1.64,0.26-2.09,0.9
				c-0.28,0.4-0.09,0.94,0.08,1.4c0.53,1.41,0.83,2.91,0.87,4.41l0.01,0.23c0.01,0.41-0.38,0.73-0.77,0.6
				c-0.36-0.11-0.6-0.41-0.83-0.69c-0.5-0.61-1.35-1.11-1.85-1.73c-0.29-0.36-0.57-0.78-0.92-0.48s-0.03,0.87,0.27,1.22
				c1.44,1.64,2.54,3.94,1.76,5.98c-0.32,0.84-0.95,1.58-1.04,2.47c-0.1,0.9,0.38,1.79,1.04,2.42s1.48,1.06,2.27,1.51
				c0.22,0.13,0.45,0.27,0.56,0.5c0.21,0.45-0.17,0.96-0.16,1.46c0.01,0.62,0.62,1.06,1.2,1.25
				C4259.56,502.01,4260.21,502.06,4260.73,502.38z M4262.54,355.83c-2.69,2.21-6.06,2.13-7.45,1.98c-0.35-0.04-0.68-0.15-1-0.3
				c-0.85-0.4-2.43-0.82-2.36-0.82c-1.89-0.74-2.98-3.89-3-3.95c-0.89-1.89-1.56-5.14-1.56-5.14c-0.44-0.81,0.28-3.49,0.43-4.02
				c0.02-0.07,0.04-0.14,0.05-0.21l0.81-3.78c0.16-0.74,0.17-1.5,0.03-2.24c-0.29-1.59-0.8-4.31-0.82-4.35
				c-0.34-2.08-3.45-7.69-3.54-7.77c-1.11-2.1-3.8-5.39-3.8-5.39c-0.22-0.38,0.15-0.38,0.16-0.38c0.71,0.08,1.46,0.44,1.62,0.49
				c2.58,0.83,3.51-1.56,3.54-1.54c0.93-2.08,0.33-4.19,0.33-4.17c-0.03-0.74-1.34-2.58-1.34-2.63c-0.96-0.6-0.41,1.78-0.44,1.75
				c0.17,0.32,0.2,1.12,0.19,1.18c-0.18,1.57-0.26,2.64-0.28,2.68c0,0.45-0.74,0.74-0.78,0.76c-0.15,0.15-1.02,0.09-1.11,0.1
				c-0.39,0-0.6-0.41-0.6-0.41l-1.69-2.08c-0.58-0.76-0.47-0.91-0.49-1.05c0.12-0.93-0.68-1.46-0.66-1.44
				c-0.66-0.47-0.47-1.77-0.45-1.75c0.18-1.04,1.09-0.94,1.46-0.86c0.11,0.02,0.21,0.06,0.29,0.13c0.46,0.4,0.33,1.25,0.32,1.27
				c-0.08,0.41,0.16,0.96,0.33,1.23c0.18,0.29,0.31,0.51,0.35,0.7c0.07,0.39,0.1,0.59,0.14,0.58c0.22-0.06,0.26,0.26,0.31,0.37
				c0.08,0.19,0.52,0.54,0.6,0.53c1.04-0.06,0.65-1.53,0.63-1.56c-0.34-0.79-0.26-1.86-0.19-2.16c0.02-0.07,0.02-0.14,0.02-0.22
				v-1.02c0.08-0.52-0.27-0.63-0.27-0.69c-0.44,0-1.67-3.06-1.7-3.18c-0.22-0.8-1.29-1.81-1.29-1.81s-1.59-1.59-1.59-1.56
				c-1.48-1.59-3.21-1.34-3.23-1.37c-0.66-0.03-0.85-0.74-0.85-0.74l-0.36-0.9c0,0-0.56-1.26-0.58-1.29
				c-0.3-0.7,0.52-0.69,0.52-0.66c0.13-0.02,0.92,0.19,1.22,0.27c0.08,0.02,0.15,0.05,0.23,0.09c0.66,0.31,4.07,1.95,4.11,1.98
				c0.53,0.36,1.84,0.9,1.86,0.9c1.19,0.48,3.45,2.15,4.18,2.7c0.15,0.12,0.28,0.26,0.4,0.41c0.54,0.66,1.45,1.03,1.4,1.03
				c1.23,0.33,2.39,1.6,2.41,1.62c0.53,0.45,2.25,2.17,2.27,2.17c0.27,0.52,2.53,1.93,2.55,1.95c1.58,1.01,2.85,2.74,2.88,2.85
				c0.07,0.32,1.48,2.16,1.97,2.8c0.1,0.14,0.17,0.28,0.22,0.45c0.17,0.56,0.67,1.45,0.74,1.58c0.41,0.3,1.29,4,1.34,4.08
				c0.2,0.29,0.53,4.62,0.57,5.53c0.01,0.1-0.01,0.2-0.03,0.31c-0.09,0.42-0.04,1.12-0.04,1.12s-0.01,3.45-0.03,4.4
				c0,0.14-0.1,0.27-0.24,0.3c-1.26,0.32-1.53-0.08-1.89-0.43c-0.44-0.43-1.46-1.16-1.93-1.56c-0.58-0.48-2.26-1.97-2.26-1.99
				c-0.09-0.29-0.16-0.35-0.16-0.37c-0.27-0.59-0.75-1.03-0.77-1.06c-0.69-0.77-0.71-2.54-1.15-3.11c-0.1-0.14-0.8-0.04-0.69,0.08
				c0.47,0.51,0.69,1.85,0.73,2.7c0.01,0.24,0.14,0.45,0.23,0.67c0.3,0.73,0.98,2.4,0.96,2.33c0.49,1.45,2.14,3.67,2.22,3.67
				c0.14,0.16,0.52,0.49,0.55,0.52c0.93,0.22,1.48,0.99,1.51,1.01c0.16,0.25,0.6,0.58,0.63,0.55c3.29,1.56,4.76,5.36,4.8,5.4
				c0.88,1.12,1.75,3.58,1.71,3.58C4266.48,352.09,4262.58,355.92,4262.54,355.83z M4423.42,527.91c0,0-0.29,0.6-0.4,0.84
				c-0.03,0.07-0.08,0.12-0.12,0.18c-0.3,0.34-0.7,1.17-0.74,1.23c-0.33,0.55-0.51,2.51-0.55,2.6c-0.64,1.65-0.46,5.64-0.46,5.64
				s0.01,0.11,0.01,0.14c0.25,1.23,1.51,4.79,1.47,4.79c0.66,1.19,0.41,3.54,0.41,3.54s-0.31,7.63-0.28,7.66
				c-0.11,0.77,0.76,2.66,0.73,2.69c0.52,1.67,1.37,2.44,1.4,2.49c0.25,0.11,0.79,1.26,0.82,1.34c0.74,0.74,2.55,5.88,2.59,5.84
				c0.48,0.59,1.13,3.69,1.14,3.73c0.32,1.18,0.08,3.7,0.14,3.73c-0.22,0.99,0,1.53-0.03,1.56c0.14,0.05,0.3,0.88,0.3,0.93
				c0.22,0.71-0.8,0.98-0.82,0.99c-1.55,0.5-1.78-1.45-1.81-1.45c-0.38-1.53,0.45-3.09,0.52-3.15c0.38-1.1-0.05-1.55-0.08-1.54
				c-0.07,0.03-0.2,0.06-0.21,0.07c-0.43,0.17-0.79,1.2-0.82,1.2c-0.05,0.27-0.12,0.75-0.3,0.9c-0.3,0.25-0.22,1.26-0.19,1.32
				c0.12,0.44-0.19,0.58-0.16,0.58c-0.38,0.14-0.18,1.81-0.19,1.89c-0.12,0.65-0.6,0.79-0.96,0.69c-0.52-0.15-0.87-0.64-0.92-1.18
				c-0.11-1.08,0.05-2.83,0.07-2.85c0.06-0.38-0.58-2.14-0.6-2.17c-0.16-0.44-0.43-0.11-0.47,0c-0.04,0.12-0.02,0.39-0.03,0.52
				c-0.02,0.37-0.1,1.36-0.16,1.48c-0.21,0.38-0.23,1.1-0.25,1.15c-0.05,0.55-0.41,0.58-0.63,0.66c-0.41,0.14-0.71-0.31-0.74-0.36
				c-0.33-0.47,0.07-1.71,0.05-1.73c0.33-0.77,0.21-1.49,0.16-1.74c-0.01-0.06-0.04-0.12-0.07-0.18c-0.09-0.19-0.18-0.49-0.2-0.49
				c0-0.36-0.27-0.11-0.27-0.11s-0.33,0.79-0.41,0.85c-0.26,0.22-0.31,0.82-0.33,0.9c-0.09,0.39-0.17,0.69-0.38,0.95
				c-0.17,0.21-0.5,0.67-1.03,0.28c-0.27-0.2-0.17-0.79-0.17-0.98c-0.01-0.43,0.27-1.18,0.49-1.51c0.82-1.21,0.09-3.1,0.08-3.12
				c-0.42-1.18-1.84-2.88-1.86-2.93c-0.82-0.9-0.48-3.56-0.47-3.62c0.29-1.71-0.87-3.76-1.45-4.55c-0.17-0.22-0.36-0.42-0.57-0.61
				c-1.28-1.19-2.58-3.47-2.58-3.47s-0.05-0.1-0.07-0.14c-0.34-0.77-1.57-2.39-1.83-2.73c-0.04-0.05-0.09-0.1-0.14-0.15
				c-0.7-0.69-3.04-4.04-3.07-4.15c-0.35-1.27-2.41-2.19-2.47-2.22c-2.91-1.75-4.14-3.26-4.14-3.26c-0.77-0.62-1.08-1.53-1.25-2.28
				c-0.22-0.91-0.11-1.86,0.31-2.69c0.52-1.04,1.59-2.41,2.59-2.73c1.41-0.45,3.51-0.72,3.51-0.74c2.17-0.03,3.62-2.3,3.62-2.3
				s1.22-1.76,1.23-1.78c0.33-0.37,1.07-2,1.1-2.03c0.02-0.25,0.55-0.97,0.73-1.21c0.04-0.06,0.08-0.12,0.12-0.18l0.64-1.05
				c0.39-0.63,0.76-1.61,1.49-1.77c0.81-0.18,2.06,0.18,2.41,0.32c0.11,0.05,0.21,0.11,0.3,0.18c0.21,0.15,0.47,0.25,0.7,0.32
				c0.54,0.16,1.05,0.39,1.52,0.7c2.58,1.74,3.83,3.24,3.88,3.31C4423.77,527.31,4423.42,527.91,4423.42,527.91z M4467.23,412.61
				c0,0-0.83,1.8-1.1,2.41c-0.4,0.93-1.54,3.67-1.51,3.76c-0.25,0.93-0.71,1.78-0.74,1.84c-0.47,0.86-1.16,2.14-1.48,2.88
				c-0.58,1.35-1.47,2.32-1.77,2.6c-0.07,0.07-0.13,0.13-0.18,0.21c-0.31,0.45-1.34,1.94-1.37,1.96c-0.19,0.17-0.73,0.1-0.77,0.03
				c-0.1-0.23-0.93-0.55-0.93-0.55c-0.7,0.02-1.1-0.71-1.15-0.69c-0.58-0.14-1.95-1.56-1.95-1.56s-1.7-2-1.67-1.97
				c-1.92-2.22-2.19-4.3-2.19-4.33c-0.12-0.51,0.74-0.38,0.79-0.41c0.14,0,1.09-0.34,1.44-0.47c2.5-0.92,9.91-3.86,9.91-3.86
				c0.52-0.05,4.52-2,4.52-2.03C4467.38,412.34,4467.23,412.61,4467.23,412.61z"/>
		</g>
	</g>
</g>
<g id="Layer_2">
</g>
</svg>
