<?xml version="1.0" encoding="UTF-8" standalone="no"?>
<!-- Generator: Adobe Illustrator 18.0.0, SVG Export Plug-In . SVG Version: 6.00 Build 0)  -->

<svg
   version="1.1"
   id="AR_x5F_layer"
   x="0px"
   y="0px"
   width="9451.45px"
   height="623.52px"
   viewBox="0 0 9451.45 623.52"
   enable-background="new 0 0 9451.45 623.52"
   xml:space="preserve"
   sodipodi:docname="23 Marathawada drought Groundwater_mask-01.svg"
   inkscape:version="1.1.1 (3bf5ae0d25, 2021-09-20)"
   xmlns:inkscape="http://www.inkscape.org/namespaces/inkscape"
   xmlns:sodipodi="http://sodipodi.sourceforge.net/DTD/sodipodi-0.dtd"
   xmlns="http://www.w3.org/2000/svg"
   xmlns:svg="http://www.w3.org/2000/svg"><defs
   id="defs13" /><sodipodi:namedview
   id="namedview11"
   pagecolor="#505050"
   bordercolor="#eeeeee"
   borderopacity="1"
   inkscape:pageshadow="0"
   inkscape:pageopacity="0"
   inkscape:pagecheckerboard="0"
   showgrid="false"
   inkscape:zoom="0.46638345"
   inkscape:cx="5578.0281"
   inkscape:cy="369.86732"
   inkscape:window-width="1366"
   inkscape:window-height="705"
   inkscape:window-x="-8"
   inkscape:window-y="-8"
   inkscape:window-maximized="1"
   inkscape:current-layer="AR_x5F_layer" />



<path
   opacity="0.75"
   fill="none"
   stroke="#000000"
   stroke-width="17.0079"
   stroke-linecap="round"
   stroke-linejoin="round"
   stroke-miterlimit="10"
   enable-background="new    "
   d="  M4911.57,537.29l0.38-0.04l1.11-0.11l1.81-0.17l2.48-0.23l3.1-0.28l3.7-0.33l4.25-0.37l4.77-0.41l5.26-0.44l5.71-0.47l6.13-0.49  l6.51-0.5l6.85-0.51l7.16-0.52l7.43-0.52l7.67-0.51l7.88-0.5l8.04-0.49l8.18-0.46l8.27-0.44l8.33-0.41l8.36-0.37l8.35-0.33l8.3-0.28  l8.22-0.22l8.11-0.17l7.96-0.1l7.77-0.03l7.55,0.04l7.29,0.12l7,0.21l6.67,0.3l6.51,0.4l6.55,0.51l6.58,0.62l6.61,0.72l6.63,0.82  l6.65,0.91l6.66,0.99l6.66,1.07l6.66,1.14l6.66,1.21l6.65,1.27l6.63,1.33l6.61,1.38l6.58,1.43l6.55,1.47l6.51,1.5l6.47,1.53  l6.42,1.56l6.37,1.58l6.31,1.59l6.25,1.6l6.18,1.6l6.11,1.6l6.03,1.59l5.94,1.57l5.85,1.56l5.76,1.53l5.66,1.5l5.55,1.46l5.44,1.42  l5.33,1.38l5.2,1.32l5.24,1.31l5.42,1.33l5.59,1.34l5.75,1.35l5.9,1.35l6.03,1.35l6.16,1.34l6.27,1.32l6.37,1.31l6.46,1.28  l6.54,1.25l6.61,1.22l6.66,1.18l6.71,1.13l6.74,1.08l6.76,1.03l6.77,0.96l6.76,0.9l6.75,0.83l6.72,0.75l6.69,0.67l6.64,0.58  l6.57,0.49l6.5,0.39l6.42,0.29l6.32,0.18l6.21,0.06l6.09-0.06l5.96-0.18l5.82-0.31l5.67-0.44l5.5-0.59l5.49-0.75l5.64-0.92  l5.78-1.08l5.91-1.23l6.03-1.37l6.14-1.49l6.24-1.6l6.33-1.69l6.41-1.77l6.48-1.84l6.55-1.9l6.6-1.95l6.64-1.98l6.67-2l6.69-2  l6.7-1.99l6.7-1.97l6.69-1.94l6.67-1.89l6.64-1.83l6.6-1.76l6.54-1.67l6.48-1.58l6.42-1.46l6.33-1.34l6.24-1.2l6.14-1.05l6.03-0.89  l5.91-0.71l5.78-0.52l5.64-0.32l5.49-0.11l5.5,0.12l5.66,0.33l5.82,0.53l5.96,0.72l6.09,0.9l6.21,1.06l6.32,1.21l6.42,1.34l6.5,1.47  l6.57,1.58l6.64,1.67l6.68,1.76l6.72,1.83l6.75,1.88l6.76,1.93l6.77,1.96l6.76,1.97l6.74,1.98l6.71,1.97l6.66,1.95l6.61,1.91  l6.54,1.86l6.46,1.8l6.37,1.73l6.27,1.64l6.16,1.54l6.04,1.42l5.9,1.29l5.75,1.15l5.59,1l5.42,0.83l5.24,0.65l5.2,0.48l5.33,0.32  l5.44,0.18l5.55,0.04l5.66-0.1l5.76-0.22l5.85-0.35l5.94-0.46l6.03-0.57l6.11-0.67l6.18-0.77l6.25-0.86l6.31-0.95l6.37-1.02  l6.43-1.1l6.47-1.16l6.51-1.22l6.55-1.27l6.58-1.32l6.61-1.36l6.63-1.4l6.65-1.43l6.66-1.45l6.66-1.46l6.66-1.47l6.66-1.48  l6.65-1.47l6.63-1.47l6.61-1.45l6.58-1.43l6.55-1.4l6.51-1.37l6.67-1.37l7-1.41l7.29-1.44l7.55-1.47l7.77-1.49l7.96-1.51l8.11-1.52  l8.22-1.53l8.3-1.53l8.35-1.53l8.36-1.52l8.33-1.5l8.27-1.48l8.17-1.45l8.04-1.42l7.88-1.39l7.67-1.34l7.43-1.3l7.16-1.24l6.85-1.18  l6.51-1.12l6.13-1.05l5.71-0.98l5.26-0.9l4.77-0.81l4.25-0.72l3.7-0.62l3.1-0.52l2.48-0.42l1.81-0.3l1.11-0.19l0.38-0.06"
   id="path8" />
<path
   id="path1414"
   style="fill:#000000;fill-opacity:1;stroke:#000000;stroke-width:1px;stroke-linecap:butt;stroke-linejoin:miter;stroke-opacity:1"
   d="m 4909.5703,321.42969 c -0.4857,100.84114 -0.9712,201.68229 -1.457,302.52343 472.3574,-0.71876 944.7148,-1.43174 1417.0722,-2.15039 -2.4944,-81.49417 -4.991,-162.98827 -7.4863,-244.48242 -0.6875,-1.36002 -1.375,-2.72005 -2.0625,-4.08008 -0.6315,1.41674 -1.3767,2.80817 -1.9375,4.24063 0,3.88659 0,7.77318 0,11.65976 -27.5058,-1.71364 -55.0092,-3.46721 -82.5164,-5.15583 -25.1449,-1.38757 -50.2901,-2.81105 -75.4348,-4.1762 -32.9368,2.14779 -65.8737,4.29557 -98.8105,6.44336 -8.3886,2.10105 -16.7788,4.19616 -25.168,6.29493 -17.7172,-9.20425 -35.4204,-18.4385 -53.1463,-27.624 -19.5357,-8.53068 -39.0728,-17.05817 -58.6076,-25.59085 -20.1905,2.78973 -40.3811,5.58004 -60.5722,8.36524 -25.7089,11.03348 -51.4373,22.02346 -77.1371,33.07699 -10.6815,4.6729 -21.363,9.3458 -32.0446,14.01871 -15.1191,-0.73233 -30.2412,-1.41417 -45.3585,-2.17809 -19.8117,-1.40753 -39.6225,-2.84557 -59.4348,-4.23402 -26.4975,-0.009 -52.9957,0.0174 -79.4927,-0.013 -16.3093,-0.71873 -32.6229,-1.3999 -48.9295,-2.14211 -11.3234,-2.13557 -22.6604,-4.22364 -33.9753,-6.38891 -12.9842,-5.03661 -25.9523,-10.11751 -38.9465,-15.12649 -19.8868,-7.09564 -39.7662,-14.21617 -59.6576,-21.29625 -14.3922,-3.58553 -28.7777,-7.21879 -43.1741,-10.77452 -14.4251,-0.7206 -28.85,-1.44433 -43.2751,-2.16298 -11.5047,2.86511 -23.0025,5.77517 -34.5119,8.61017 -10.7115,0.70075 -21.4212,1.45477 -32.1338,2.12225 -15.1353,-0.0124 -30.2711,0.0248 -45.4061,-0.0186 -30.4813,-0.71308 -60.9636,-1.40892 -91.4443,-2.13277 -24.3572,-2.15803 -48.7181,-4.2804 -73.073,-6.4607 -37.2888,-4.46938 -74.5773,-8.94217 -111.8665,-13.40942 0,0.7474 -0.01,1.49479 -0.012,2.24219 z" /></svg>
