<?xml version="1.0" encoding="utf-8"?>
<!-- Generator: Adobe Illustrator 18.0.0, SVG Export Plug-In . SVG Version: 6.00 Build 0)  -->
<!DOCTYPE svg PUBLIC "-//W3C//DTD SVG 1.1//EN" "http://www.w3.org/Graphics/SVG/1.1/DTD/svg11.dtd">
<svg version="1.1" id="AR_x5F_layer" xmlns="http://www.w3.org/2000/svg" xmlns:xlink="http://www.w3.org/1999/xlink" x="0px"
	 y="0px" width="9451.45px" height="623.52px" viewBox="0 0 9451.45 623.52" enable-background="new 0 0 9451.45 623.52"
	 xml:space="preserve">
<path opacity="0.75" fill="none" stroke="#000000" stroke-width="17.0079" stroke-linecap="round" stroke-linejoin="round" stroke-miterlimit="10" enable-background="new    " d="
	M4911.57,381.1l0.38,0.04l1.11,0.12l1.81,0.19l2.48,0.26l3.1,0.33l3.7,0.39l4.25,0.45l4.77,0.5l5.26,0.55l5.71,0.59l6.13,0.63
	l6.51,0.66l6.85,0.69l7.16,0.72l7.43,0.74l7.67,0.76l7.88,0.77l8.04,0.78l8.18,0.78l8.27,0.78l8.33,0.78l8.36,0.77l8.35,0.75
	l8.3,0.74l8.22,0.71l8.11,0.69l7.96,0.66l7.77,0.62l7.55,0.58l7.29,0.53l7,0.49l6.67,0.43l6.51,0.39l6.55,0.36l6.58,0.32l6.61,0.29
	l6.63,0.26l6.65,0.23l6.66,0.21l6.66,0.18l6.66,0.15l6.66,0.12l6.65,0.1l6.63,0.07l6.61,0.05l6.58,0.02h6.55l6.51-0.02l6.47-0.04
	l6.42-0.07l6.37-0.09l6.31-0.11l6.25-0.13l6.18-0.14l6.11-0.16l6.03-0.18l5.94-0.2l5.85-0.21l5.76-0.23l5.66-0.24l5.55-0.26
	l5.44-0.27l5.33-0.28l5.2-0.29l5.24-0.31l5.42-0.34l5.59-0.37l5.75-0.39l5.9-0.4l6.03-0.42l6.16-0.43l6.27-0.44l6.37-0.45l6.46-0.45
	l6.54-0.45l6.61-0.45l6.66-0.44l6.71-0.43l6.74-0.42l6.76-0.41l6.77-0.39l6.76-0.37l6.75-0.34l6.72-0.32l6.69-0.29l6.64-0.26
	l6.57-0.22l6.5-0.18l6.42-0.14l6.32-0.09l6.21-0.05h6.09l5.96,0.06l5.82,0.11l5.67,0.17l5.5,0.24l5.49,0.31l5.64,0.39l5.78,0.46
	l5.91,0.53l6.03,0.59l6.14,0.65l6.24,0.71l6.33,0.76l6.41,0.8l6.48,0.85l6.55,0.88l6.6,0.92l6.64,0.95l6.67,0.97l6.69,0.99l6.7,1
	l6.7,1.01l6.69,1.02l6.67,1.02l6.64,1.02l6.6,1.01l6.54,1l6.48,0.98l6.42,0.96l6.33,0.93l6.24,0.9l6.14,0.87l6.03,0.83l5.91,0.79
	l5.78,0.74l5.64,0.69l5.49,0.63l5.5,0.59l5.66,0.57l5.82,0.54l5.96,0.53l6.09,0.51l6.21,0.49l6.32,0.48l6.42,0.46l6.5,0.45
	l6.57,0.44l6.64,0.43l6.68,0.42l6.72,0.42l6.75,0.41l6.76,0.41l6.77,0.41l6.76,0.41l6.74,0.41l6.71,0.41l6.66,0.41l6.61,0.42
	l6.54,0.43l6.46,0.43l6.37,0.44l6.27,0.46l6.16,0.47l6.04,0.48l5.9,0.5l5.75,0.52l5.59,0.54l5.42,0.56l5.24,0.58l5.2,0.62l5.33,0.67
	l5.44,0.72l5.55,0.77l5.66,0.8l5.76,0.84l5.85,0.86l5.94,0.89l6.03,0.9l6.11,0.91l6.18,0.92l6.25,0.91l6.31,0.91l6.37,0.9l6.43,0.88
	l6.47,0.86l6.51,0.83l6.55,0.79l6.58,0.75l6.61,0.71l6.63,0.66l6.65,0.6l6.66,0.54l6.66,0.47l6.66,0.39l6.66,0.32l6.65,0.23
	l6.63,0.14l6.61,0.05l6.58-0.06l6.55-0.16l6.51-0.28l6.67-0.4l7-0.53l7.29-0.65l7.55-0.76l7.77-0.86l7.96-0.96l8.11-1.04l8.22-1.11
	l8.3-1.18l8.35-1.23l8.36-1.28l8.33-1.31l8.27-1.34l8.17-1.36l8.04-1.37l7.88-1.37l7.67-1.35l7.43-1.33l7.16-1.31l6.85-1.27
	l6.51-1.22l6.13-1.16l5.71-1.1l5.26-1.02l4.77-0.94l4.25-0.84l3.7-0.74l3.1-0.62l2.48-0.5l1.81-0.37l1.11-0.23l0.38-0.08"/>
<path opacity="0.75" fill="none" stroke="#000000" stroke-width="17.0079" stroke-linecap="round" stroke-linejoin="round" stroke-miterlimit="10" enable-background="new    " d="
	M4911.57,323.44l0.38,0.05l1.11,0.14l1.81,0.23l2.48,0.31l3.1,0.39l3.7,0.46l4.25,0.53l4.77,0.59l5.26,0.65l5.71,0.7l6.13,0.74
	l6.51,0.78l6.85,0.81l7.16,0.84l7.43,0.87l7.67,0.88l7.88,0.89l8.04,0.9l8.18,0.9l8.27,0.9l8.33,0.89l8.36,0.87l8.35,0.85l8.3,0.82
	l8.22,0.79l8.11,0.76l7.96,0.71l7.77,0.66l7.55,0.61l7.29,0.55l7,0.49l6.67,0.42l6.51,0.35l6.55,0.31l6.58,0.26l6.61,0.23l6.63,0.19
	l6.65,0.16l6.66,0.14l6.66,0.12l6.66,0.1l6.66,0.09l6.65,0.08l6.63,0.08l6.61,0.09l6.58,0.09l6.55,0.1l6.51,0.12l6.47,0.14
	l6.42,0.17l6.37,0.2l6.31,0.23l6.25,0.27l6.18,0.31l6.11,0.36l6.03,0.41l5.94,0.47l5.85,0.53l5.76,0.6l5.66,0.67l5.55,0.74
	l5.44,0.82l5.33,0.91l5.2,0.99l5.24,1.12l5.42,1.27l5.59,1.4l5.75,1.53l5.9,1.65l6.03,1.77l6.16,1.87l6.27,1.96l6.37,2.04l6.46,2.11
	l6.54,2.18l6.61,2.23l6.66,2.27l6.71,2.31l6.74,2.33l6.76,2.35l6.77,2.35l6.76,2.35l6.75,2.34l6.72,2.32l6.69,2.28l6.64,2.24
	l6.57,2.19l6.5,2.13l6.42,2.06l6.32,1.98l6.21,1.89l6.09,1.79l5.96,1.68l5.82,1.57l5.67,1.44l5.5,1.3l5.49,1.2l5.64,1.13l5.78,1.05
	l5.91,0.98l6.03,0.91l6.14,0.83l6.24,0.75l6.33,0.67l6.41,0.59l6.48,0.51l6.55,0.43l6.6,0.34l6.64,0.25l6.67,0.16l6.69,0.08
	l6.7-0.02l6.7-0.11l6.69-0.2l6.67-0.3l6.64-0.4l6.6-0.49l6.54-0.59l6.48-0.7l6.42-0.8l6.33-0.9l6.24-1.01l6.14-1.12l6.03-1.23
	l5.91-1.34l5.78-1.45l5.64-1.56l5.49-1.68l5.5-1.84l5.66-2.05l5.82-2.24l5.96-2.41l6.09-2.56l6.21-2.69l6.32-2.8l6.42-2.9l6.5-2.98
	l6.57-3.04l6.64-3.08l6.68-3.1l6.72-3.11l6.75-3.09l6.76-3.06l6.77-3.01l6.76-2.94l6.74-2.85l6.71-2.75l6.66-2.63l6.61-2.48
	l6.54-2.32l6.46-2.14l6.37-1.95l6.27-1.73l6.16-1.5l6.04-1.25l5.9-0.97l5.75-0.69l5.59-0.38l5.42-0.05l5.24,0.29l5.2,0.66l5.33,1.03
	l5.44,1.37l5.55,1.69l5.66,1.98l5.76,2.25l5.85,2.5l5.94,2.72l6.03,2.92l6.11,3.09l6.18,3.24l6.25,3.37l6.31,3.47l6.37,3.55
	l6.43,3.6l6.47,3.63l6.51,3.63l6.55,3.61l6.58,3.56l6.61,3.5l6.63,3.4l6.65,3.29l6.66,3.14l6.66,2.98l6.66,2.79l6.66,2.57l6.65,2.34
	l6.63,2.07l6.61,1.79l6.58,1.48l6.55,1.14l6.51,0.78l6.67,0.42l7,0.1l7.29-0.21l7.55-0.49l7.77-0.76l7.96-1l8.11-1.23l8.22-1.43
	l8.3-1.61l8.35-1.77l8.36-1.91l8.33-2.04l8.27-2.14l8.17-2.22l8.04-2.28l7.88-2.31l7.67-2.33l7.43-2.33l7.16-2.31l6.85-2.27
	l6.51-2.2l6.13-2.12l5.71-2.01l5.26-1.89l4.77-1.74l4.25-1.58l3.7-1.39l3.1-1.18l2.48-0.96l1.81-0.71l1.11-0.44l0.38-0.15"/>
<path opacity="0.75" fill="none" stroke="#000000" stroke-width="17.0079" stroke-linecap="round" stroke-linejoin="round" stroke-miterlimit="10" enable-background="new    " d="
	M4911.57,364.92l0.38,0.08l1.11,0.25l1.81,0.4l2.48,0.53l3.1,0.66l3.7,0.77l4.25,0.88l4.77,0.97l5.26,1.04l5.71,1.11l6.13,1.17
	l6.51,1.21l6.85,1.24l7.16,1.26l7.43,1.27l7.67,1.26l7.88,1.25l8.04,1.22l8.18,1.18l8.27,1.13l8.33,1.06l8.36,0.99l8.35,0.9l8.3,0.8
	l8.22,0.69l8.11,0.56l7.96,0.43l7.77,0.28l7.55,0.12l7.29-0.05l7-0.23l6.67-0.42l6.51-0.64l6.55-0.87l6.58-1.07l6.61-1.26l6.63-1.44
	l6.65-1.6l6.66-1.74l6.66-1.87l6.66-1.99l6.66-2.08l6.65-2.16l6.63-2.23l6.61-2.28l6.58-2.31l6.55-2.33l6.51-2.33l6.47-2.32
	l6.42-2.29l6.37-2.24l6.31-2.18l6.25-2.1l6.18-2.01l6.11-1.9l6.03-1.77l5.94-1.63l5.85-1.48l5.76-1.31l5.66-1.12l5.55-0.91
	l5.44-0.69l5.33-0.46l5.2-0.21l5.24,0.05l5.42,0.3l5.59,0.54l5.75,0.76l5.9,0.96l6.03,1.15l6.16,1.33l6.27,1.5l6.37,1.65l6.46,1.78
	l6.54,1.9l6.61,2.01l6.66,2.1l6.71,2.18l6.74,2.25l6.76,2.3l6.77,2.34l6.76,2.36l6.75,2.37l6.72,2.36l6.69,2.34l6.64,2.31l6.57,2.26
	l6.5,2.2l6.42,2.12l6.32,2.03l6.21,1.93l6.09,1.81l5.96,1.68l5.82,1.53l5.67,1.37l5.5,1.2l5.49,1.05l5.64,0.93l5.78,0.82l5.91,0.72
	l6.03,0.62l6.14,0.53l6.24,0.44l6.33,0.36l6.41,0.29l6.48,0.22l6.55,0.16l6.6,0.1l6.64,0.04h6.67l6.69-0.04l6.7-0.08l6.7-0.11
	l6.69-0.14l6.67-0.16l6.64-0.17l6.6-0.18l6.54-0.18l6.48-0.18l6.42-0.17l6.33-0.16l6.24-0.14l6.14-0.11l6.03-0.08l5.91-0.04h5.78
	l5.64,0.05l5.49,0.1l5.5,0.16l5.66,0.22l5.82,0.28l5.96,0.33l6.09,0.38l6.21,0.42l6.32,0.46l6.42,0.5l6.5,0.52l6.57,0.55l6.64,0.57
	l6.68,0.58l6.72,0.59l6.75,0.6l6.76,0.6l6.77,0.6l6.76,0.59l6.74,0.57l6.71,0.55l6.66,0.53l6.61,0.5l6.54,0.47l6.46,0.44l6.37,0.39
	l6.27,0.35l6.16,0.3l6.04,0.24l5.9,0.18l5.75,0.11l5.59,0.04l5.42-0.03l5.24-0.11l5.2-0.2l5.33-0.28l5.44-0.37l5.55-0.44l5.66-0.51
	l5.76-0.58l5.85-0.64l5.94-0.69l6.03-0.74l6.11-0.78l6.18-0.82l6.25-0.85l6.31-0.88l6.37-0.9l6.43-0.91l6.47-0.92l6.51-0.92
	l6.55-0.92l6.58-0.91l6.61-0.9l6.63-0.88l6.65-0.85l6.66-0.82l6.66-0.79l6.66-0.74l6.66-0.7l6.65-0.64l6.63-0.58l6.61-0.52
	l6.58-0.45l6.55-0.37l6.51-0.29l6.67-0.21l7-0.14l7.29-0.08l7.55-0.02l7.77,0.04l7.96,0.09l8.11,0.14l8.22,0.18l8.3,0.22l8.35,0.25
	l8.36,0.29l8.33,0.31l8.27,0.34l8.17,0.36l8.04,0.37l7.88,0.39l7.67,0.39l7.43,0.4l7.16,0.4l6.85,0.39l6.51,0.38l6.13,0.37
	l5.71,0.36l5.26,0.33l4.77,0.31l4.25,0.28l3.7,0.25l3.1,0.21l2.48,0.17l1.81,0.13l1.11,0.08l0.38,0.03"/>
<path opacity="0.75" fill="none" stroke="#000000" stroke-width="17.0079" stroke-linecap="round" stroke-linejoin="round" stroke-miterlimit="10" enable-background="new    " d="
	M4911.57,537.29l0.38-0.04l1.11-0.11l1.81-0.17l2.48-0.23l3.1-0.28l3.7-0.33l4.25-0.37l4.77-0.41l5.26-0.44l5.71-0.47l6.13-0.49
	l6.51-0.5l6.85-0.51l7.16-0.52l7.43-0.52l7.67-0.51l7.88-0.5l8.04-0.49l8.18-0.46l8.27-0.44l8.33-0.41l8.36-0.37l8.35-0.33l8.3-0.28
	l8.22-0.22l8.11-0.17l7.96-0.1l7.77-0.03l7.55,0.04l7.29,0.12l7,0.21l6.67,0.3l6.51,0.4l6.55,0.51l6.58,0.62l6.61,0.72l6.63,0.82
	l6.65,0.91l6.66,0.99l6.66,1.07l6.66,1.14l6.66,1.21l6.65,1.27l6.63,1.33l6.61,1.38l6.58,1.43l6.55,1.47l6.51,1.5l6.47,1.53
	l6.42,1.56l6.37,1.58l6.31,1.59l6.25,1.6l6.18,1.6l6.11,1.6l6.03,1.59l5.94,1.57l5.85,1.56l5.76,1.53l5.66,1.5l5.55,1.46l5.44,1.42
	l5.33,1.38l5.2,1.32l5.24,1.31l5.42,1.33l5.59,1.34l5.75,1.35l5.9,1.35l6.03,1.35l6.16,1.34l6.27,1.32l6.37,1.31l6.46,1.28
	l6.54,1.25l6.61,1.22l6.66,1.18l6.71,1.13l6.74,1.08l6.76,1.03l6.77,0.96l6.76,0.9l6.75,0.83l6.72,0.75l6.69,0.67l6.64,0.58
	l6.57,0.49l6.5,0.39l6.42,0.29l6.32,0.18l6.21,0.06l6.09-0.06l5.96-0.18l5.82-0.31l5.67-0.44l5.5-0.59l5.49-0.75l5.64-0.92
	l5.78-1.08l5.91-1.23l6.03-1.37l6.14-1.49l6.24-1.6l6.33-1.69l6.41-1.77l6.48-1.84l6.55-1.9l6.6-1.95l6.64-1.98l6.67-2l6.69-2
	l6.7-1.99l6.7-1.97l6.69-1.94l6.67-1.89l6.64-1.83l6.6-1.76l6.54-1.67l6.48-1.58l6.42-1.46l6.33-1.34l6.24-1.2l6.14-1.05l6.03-0.89
	l5.91-0.71l5.78-0.52l5.64-0.32l5.49-0.11l5.5,0.12l5.66,0.33l5.82,0.53l5.96,0.72l6.09,0.9l6.21,1.06l6.32,1.21l6.42,1.34l6.5,1.47
	l6.57,1.58l6.64,1.67l6.68,1.76l6.72,1.83l6.75,1.88l6.76,1.93l6.77,1.96l6.76,1.97l6.74,1.98l6.71,1.97l6.66,1.95l6.61,1.91
	l6.54,1.86l6.46,1.8l6.37,1.73l6.27,1.64l6.16,1.54l6.04,1.42l5.9,1.29l5.75,1.15l5.59,1l5.42,0.83l5.24,0.65l5.2,0.48l5.33,0.32
	l5.44,0.18l5.55,0.04l5.66-0.1l5.76-0.22l5.85-0.35l5.94-0.46l6.03-0.57l6.11-0.67l6.18-0.77l6.25-0.86l6.31-0.95l6.37-1.02
	l6.43-1.1l6.47-1.16l6.51-1.22l6.55-1.27l6.58-1.32l6.61-1.36l6.63-1.4l6.65-1.43l6.66-1.45l6.66-1.46l6.66-1.47l6.66-1.48
	l6.65-1.47l6.63-1.47l6.61-1.45l6.58-1.43l6.55-1.4l6.51-1.37l6.67-1.37l7-1.41l7.29-1.44l7.55-1.47l7.77-1.49l7.96-1.51l8.11-1.52
	l8.22-1.53l8.3-1.53l8.35-1.53l8.36-1.52l8.33-1.5l8.27-1.48l8.17-1.45l8.04-1.42l7.88-1.39l7.67-1.34l7.43-1.3l7.16-1.24l6.85-1.18
	l6.51-1.12l6.13-1.05l5.71-0.98l5.26-0.9l4.77-0.81l4.25-0.72l3.7-0.62l3.1-0.52l2.48-0.42l1.81-0.3l1.11-0.19l0.38-0.06"/>
</svg>
