<?xml version="1.0" encoding="utf-8"?>
<!-- Generator: Adobe Illustrator 18.0.0, SVG Export Plug-In . SVG Version: 6.00 Build 0)  -->
<!DOCTYPE svg PUBLIC "-//W3C//DTD SVG 1.1//EN" "http://www.w3.org/Graphics/SVG/1.1/DTD/svg11.dtd">
<svg version="1.1" id="AR_x5F_layer" xmlns="http://www.w3.org/2000/svg" xmlns:xlink="http://www.w3.org/1999/xlink" x="0px"
	 y="0px" width="9451.45px" height="623.52px" viewBox="0 0 9451.45 623.52" enable-background="new 0 0 9451.45 623.52"
	 xml:space="preserve">
<g>

		<polyline opacity="0.75" fill="none" stroke="#000000" stroke-width="5.6693" stroke-linecap="round" stroke-linejoin="round" stroke-miterlimit="10" points="
		4499.37,472.5 4540.6,566.4 4581.69,487.67 4622.92,532.24 4664.16,511.87 4705.39,527.96 4746.48,563.39 4787.71,516.84
		4828.94,567.32 4870.18,556.21 4911.27,483.04 4952.5,559.8 4993.73,567.32 5034.97,532.24 5076.2,567.32 5117.29,567.32
		5158.52,567.32 5199.75,567.32 5240.99,567.32 5282.07,554.93 5323.31,544.75 5364.54,561.42 	"/>
</g>
<polyline opacity="0.75" fill="none" stroke="#000000" stroke-width="5.6693" stroke-linecap="round" stroke-linejoin="round" stroke-miterlimit="10" points="
	4499.37,466.94 4540.6,493.8 4581.69,422.72 4622.92,503.99 4664.16,509.9 4705.39,484.66 4746.48,475.86 4787.71,524.72
	4828.94,486.98 4870.18,505.61 4911.27,422.02 4952.5,450.27 4993.73,498.09 5034.97,508.97 5076.2,450.85 5117.29,452.24
	5158.52,441.7 5199.75,451.2 5240.99,495.54 5282.07,447.26 5323.31,478.41 5364.54,459.07 "/>
<polyline opacity="0.75" fill="none" stroke="#000000" stroke-width="5.6693" stroke-linecap="round" stroke-linejoin="round" stroke-miterlimit="10" points="
	4499.37,372.13 4540.6,492.88 4581.69,342.95 4622.92,468.91 4664.16,454.44 4705.39,445.29 4746.48,471.92 4787.71,474.12
	4828.94,486.98 4870.18,494.5 4911.27,337.74 4952.5,442.63 4993.73,498.09 5034.97,473.89 5076.2,450.85 5117.29,452.24
	5158.52,441.7 5199.75,451.2 5240.99,495.54 5282.07,436.15 5323.31,455.83 5364.54,453.17 "/>
</svg>
