<?xml version="1.0" encoding="utf-8"?>
<!-- Generator: Adobe Illustrator 23.0.1, SVG Export Plug-In . SVG Version: 6.00 Build 0)  -->
<svg version="1.1" id="AR_x5F_layer" xmlns="http://www.w3.org/2000/svg" xmlns:xlink="http://www.w3.org/1999/xlink" x="0px"
	 y="0px" width="9451.5px" height="623.5px" viewBox="0 0 9451.5 623.5" style="enable-background:new 0 0 9451.5 623.5;"
	 xml:space="preserve">
<style type="text/css">
	.st0{opacity:0.75;enable-background:new    ;}
	.st1{fill:none;stroke:#000000;stroke-width:1.8365;stroke-linecap:round;stroke-linejoin:round;stroke-miterlimit:10;}
	.st2{opacity:0.75;stroke:#000000;stroke-width:1.8365;stroke-linecap:round;stroke-linejoin:round;stroke-miterlimit:10;}
</style>
<g class="st0">
	<polygon points="5680.8,623.8 5646.4,453.8 5620.5,462.6 5590.5,448.9 5566.6,457.2 5536.3,615.1 5524.5,615 5499.8,469.7 
		5474.8,558 5443.9,499.8 5414.6,606.5 5377.1,532.5 5346.7,515.3 5316.1,448.4 5327,443.4 5356,506.8 5386.2,523.8 5411.3,573.4 
		5440.4,467.5 5471.4,526 5495.5,440.8 5507.2,441.4 5530.7,580.3 5556.1,448.2 5591.1,436 5621.1,449.7 5655.5,438 5683.5,576.8 
		5710,495.5 5748.4,541.3 5771.5,564.7 5799.5,468.2 5811,471.5 5777.4,587.7 5739.3,549.2 5714.7,519.8 	"/>
	<polygon class="st1" points="5680.8,623.8 5646.4,453.8 5620.5,462.6 5590.5,448.9 5566.6,457.2 5536.3,615.1 5524.5,615 
		5499.8,469.7 5474.8,558 5443.9,499.8 5414.6,606.5 5377.1,532.5 5346.7,515.3 5316.1,448.4 5327,443.4 5356,506.8 5386.2,523.8 
		5411.3,573.4 5440.4,467.5 5471.4,526 5495.5,440.8 5507.2,441.4 5530.7,580.3 5556.1,448.2 5591.1,436 5621.1,449.7 5655.5,438 
		5683.5,576.8 5710,495.5 5748.4,541.3 5771.5,564.7 5799.5,468.2 5811,471.5 5777.4,587.7 5739.3,549.2 5714.7,519.8 	"/>
</g>
<polygon class="st2" points="5309.4,436.9 5309.4,452.1 5332.4,452.1 5332.4,436.9 5338.4,436.9 5338.4,456.8 5394.5,456.8 
	5394.5,466.5 5415.8,466.5 5415.8,455.8 5453.9,455.8 5453.9,464.8 5515.3,464.8 5515.3,484.2 5535.2,484.2 5535.2,463.9 
	5606.2,464.1 5606.2,473.9 5662,473.9 5663.2,506.4 5688.5,506.4 5688.5,476.5 5695.9,476.5 5695.9,495.7 5714.7,495.7 
	5714.7,485.1 5726.5,485.1 5726.5,453.6 5741.5,453.8 5741.5,506.6 5754.8,506.6 5754.8,614 5778,614 5778,524.7 5785.3,524.7 
	5785.3,578.2 5807.3,578.2 5807.3,562.3 5820.2,562.3 5820.2,435.1 5309.4,433.6 "/>
</svg>
