<?xml version="1.0" encoding="utf-8"?>
<!-- Generator: Adobe Illustrator 18.0.0, SVG Export Plug-In . SVG Version: 6.00 Build 0)  -->
<!DOCTYPE svg PUBLIC "-//W3C//DTD SVG 1.1//EN" "http://www.w3.org/Graphics/SVG/1.1/DTD/svg11.dtd">
<svg version="1.1" id="Baseline" xmlns="http://www.w3.org/2000/svg" xmlns:xlink="http://www.w3.org/1999/xlink" x="0px" y="0px"
	 width="9451.45px" height="623.52px" viewBox="0 0 9451.45 623.52" enable-background="new 0 0 9451.45 623.52"
	 xml:space="preserve">
<path opacity="0.75" d="M5826.64,438.26h4.55v-3.62h-4.55V438.26z M5812.27,438.82h4.5v-4.18h-4.5V438.82z M5797.85,451.72h4.5
	v-17.08h-4.5V451.72z M5783.48,468.34h4.5v-33.7h-4.5V468.34z M5769.06,478.18h4.5v-43.54h-4.5V478.18z M5754.64,520.26h4.55v-85.62
	h-4.55V520.26z M5740.27,548.3h4.5V434.64h-4.5V548.3z M5725.86,600.67h4.5V434.64h-4.5V600.67z M5711.49,601.23h4.5v-166.6h-4.5
	V601.23z"/>
<rect x="5999.2" y="304" opacity="0.75" width="4.55" height="121.92"/>
<rect x="5984.83" y="338.26" opacity="0.75" width="4.5" height="87.65"/>
<rect x="5970.41" y="353.76" opacity="0.75" width="4.5" height="72.16"/>
<rect x="5956.05" y="387.46" opacity="0.75" width="4.5" height="38.45"/>
<rect x="5941.63" y="388.59" opacity="0.75" width="4.5" height="37.32"/>
<rect x="5927.21" y="398.43" opacity="0.75" width="4.55" height="27.48"/>
<rect x="5912.84" y="400.47" opacity="0.75" width="4.5" height="25.45"/>
<rect x="5898.42" y="402.05" opacity="0.75" width="4.55" height="23.86"/>
<rect x="5884.05" y="407.25" opacity="0.75" width="4.5" height="18.66"/>
<rect x="5869.63" y="412.91" opacity="0.75" width="4.5" height="13.01"/>
<rect x="5855.26" y="412.91" opacity="0.75" width="4.5" height="13.01"/>
<rect x="5840.85" y="421.73" opacity="0.75" width="4.5" height="4.18"/>
</svg>
