<?xml version="1.0" encoding="UTF-8" standalone="no"?>
<!-- Generator: Adobe Illustrator 23.0.1, SVG Export Plug-In . SVG Version: 6.00 Build 0)  -->

<svg
   version="1.1"
   id="Baseline"
   x="0px"
   y="0px"
   width="9451.5px"
   height="623.5px"
   viewBox="0 0 9451.5 623.5"
   style="enable-background:new 0 0 9451.5 623.5;"
   xml:space="preserve"
   sodipodi:docname="30 River Interlinking_mask-01.svg"
   inkscape:version="1.1.1 (c3084ef, 2021-09-22)"
   xmlns:inkscape="http://www.inkscape.org/namespaces/inkscape"
   xmlns:sodipodi="http://sodipodi.sourceforge.net/DTD/sodipodi-0.dtd"
   xmlns="http://www.w3.org/2000/svg"
   xmlns:svg="http://www.w3.org/2000/svg"><defs
   id="defs6769" /><sodipodi:namedview
   id="namedview6767"
   pagecolor="#505050"
   bordercolor="#eeeeee"
   borderopacity="1"
   inkscape:pageshadow="0"
   inkscape:pageopacity="0"
   inkscape:pagecheckerboard="0"
   showgrid="false"
   inkscape:zoom="0.95638354"
   inkscape:cx="5732.5328"
   inkscape:cy="471.56813"
   inkscape:window-width="1296"
   inkscape:window-height="762"
   inkscape:window-x="0"
   inkscape:window-y="25"
   inkscape:window-maximized="0"
   inkscape:current-layer="Baseline" />
<style
   type="text/css"
   id="style6712">
	.st0{opacity:0.75;enable-background:new    ;}
</style>












<path
   id="path8322"
   style="fill:#da0000;fill-opacity:0.1659919"
   d="M 6000.6895 292.00586 C 5996.2964 292.04346 5991.9986 294.88883 5990.5254 299.07617 C 5988.7982 303.26379 5988.7931 307.87233 5988.4707 312.32031 C 5988.2138 317.21127 5988.1685 322.10934 5988.1035 327.00586 C 5986.1057 326.98066 5984.0562 327.00117 5982.125 327.56055 C 5978.183 328.7709 5975.2558 332.37651 5974.4766 336.375 C 5973.9859 338.2142 5973.7452 340.10845 5973.584 342.00195 C 5970.7641 341.91465 5967.7803 342.17933 5965.3809 343.80664 C 5962.9334 345.30433 5961.3253 347.8525 5960.5508 350.57227 C 5959.423 354.36002 5959.4493 358.356 5959.2148 362.26758 C 5959.0391 366.83995 5959.0521 371.41709 5959.0254 375.99219 C 5956.1548 375.94819 5953.1383 376.27194 5950.7012 377.92383 C 5950.2797 378.05367 5949.7798 377.58456 5949.3145 377.55664 C 5946.4956 376.7851 5943.5264 376.94955 5940.6426 377.13477 C 5936.8115 377.54991 5933.2089 380.03843 5931.7656 383.66016 C 5931.2908 384.72716 5930.9766 385.85938 5930.7441 387.00195 C 5927.804 386.95655 5924.6942 387.01786 5922.084 388.55078 C 5921.5346 388.81732 5921.0377 389.26026 5920.5371 389.54688 C 5917.5587 388.76114 5914.4398 388.97938 5911.4004 389.13672 C 5909.8135 389.331 5908.2543 389.82704 5906.875 390.64062 C 5903.8983 389.74446 5900.7419 389.99618 5897.6797 390.0957 C 5894.2519 390.43988 5890.859 392.27117 5889.1484 395.33594 C 5887.0298 395.23243 5884.8936 394.98367 5882.7773 395.23242 C 5879.4071 395.67369 5876.1606 397.67524 5874.6992 400.81445 C 5874.5133 401.27838 5873.8304 400.91382 5873.4121 401.00391 C 5870.5919 401.01801 5867.6709 400.86417 5864.9883 401.89453 C 5861.8069 400.67956 5858.3381 401.03155 5855.0078 401.05859 C 5851.7329 401.22853 5848.3671 402.59911 5846.4551 405.36719 C 5845.4364 406.7335 5844.7972 408.35244 5844.4512 410.01367 C 5841.3407 410.00017 5838.0168 409.87132 5835.2402 411.51367 C 5832.8029 412.84042 5831.0382 415.24344 5830.4531 417.95117 C 5830.0398 419.5992 5830.0013 421.30976 5830.0098 423 C 5827.329 423.0581 5824.5669 422.85377 5821.9805 423.69531 C 5818.8868 422.69606 5815.5955 423.08814 5812.4023 423.02539 C 5810.7869 423.07229 5809.1636 423.27866 5807.6309 423.80859 C 5804.5765 422.72231 5801.2786 423.0187 5798.0996 423.0625 C 5796.4382 423.18159 5794.7731 423.537 5793.2695 424.26953 C 5790.004 422.69598 5786.2669 422.93116 5782.75 423.12109 C 5781.4263 423.27692 5780.1109 423.59811 5778.9062 424.17773 C 5776.0099 422.79263 5772.7063 422.94036 5769.582 423.06445 C 5767.7221 423.21498 5765.8533 423.66658 5764.2383 424.62695 C 5761.4484 422.94433 5758.0769 422.84764 5754.918 423.04883 C 5753.1645 423.20788 5751.4172 423.66289 5749.8828 424.54297 C 5746.854 422.79903 5743.1962 422.76486 5739.8242 423.20898 C 5738.4255 423.44778 5737.0615 423.93345 5735.8516 424.67188 C 5733.0451 422.93658 5729.5804 422.72662 5726.3848 423.15039 C 5724.6291 423.42219 5722.9215 424.07133 5721.4766 425.11328 C 5719.4572 423.57497 5716.8909 422.95976 5714.3848 422.98828 C 5710.9289 422.82146 5707.2186 423.8529 5704.916 426.57031 C 5702.1679 429.67132 5701.4896 433.93987 5701.0918 437.91992 C 5700.2683 446.1053 5700.2983 454.34309 5700.1621 462.56055 C 5699.9301 484.91375 5700.0333 507.26904 5700.0078 529.62305 C 5700.0248 547.73681 5699.9663 565.85399 5700.334 583.96484 C 5700.5057 589.93774 5700.6174 595.94438 5701.6094 601.84961 C 5702.1825 605.17555 5703.5168 608.57014 5706.2637 610.69141 C 5708.6728 612.65566 5711.8996 613.17414 5714.9238 612.98438 C 5717.5361 612.93067 5720.2154 612.14476 5722.1562 610.33008 C 5724.7492 612.0044 5727.9644 612.16892 5730.9531 611.92578 C 5733.8356 611.67089 5736.6514 610.33471 5738.4336 608.01367 C 5741.0552 604.7883 5741.5493 600.50627 5741.9902 596.51953 C 5742.5635 590.485 5742.6158 584.4205 5742.7734 578.36523 C 5742.8805 572.24507 5742.9096 566.12481 5742.9434 560.00391 C 5745.9762 560.12154 5749.1556 559.38143 5751.4707 557.32812 C 5754.2133 554.95583 5755.4019 551.33361 5755.8711 547.8418 C 5756.5888 542.69509 5756.7059 537.48764 5756.8066 532.29883 C 5756.6727 531.7687 5757.576 532.10132 5757.9453 532 C 5760.9518 532.007 5764.028 531.02173 5766.1797 528.85938 C 5768.8921 526.28311 5769.7978 522.44635 5770.2207 518.86133 C 5771.0872 509.93928 5770.9004 500.96038 5770.9805 492.00781 C 5770.9805 491.33762 5770.9902 490.66825 5770.9902 489.99805 C 5773.6473 490.00005 5776.4482 490.07329 5778.875 488.82031 C 5781.7072 487.48855 5783.8415 484.87967 5784.6875 481.87695 C 5784.884 481.26152 5785.0398 480.63504 5785.168 480.00195 C 5788.0343 480.02545 5791.0689 480.01635 5793.625 478.5332 C 5796.0925 477.22414 5797.9133 474.88766 5798.7324 472.23242 C 5799.7611 469.26419 5799.7858 466.08635 5799.9004 462.98242 C 5803.3065 463.04142 5807.0215 463.07701 5809.9375 461.04688 C 5812.5552 459.28447 5814.1866 456.31887 5814.5859 453.21875 C 5814.7694 452.154 5814.8537 451.07445 5814.9082 449.99609 C 5817.2794 449.97389 5819.7201 450.06979 5821.9961 449.30078 C 5825.1265 450.31049 5828.4568 449.90783 5831.6875 449.97266 C 5834.8731 449.92626 5838.2656 448.98993 5840.3828 446.46289 C 5842.4529 444.11941 5843.0881 440.88371 5842.9863 437.83789 C 5845.5073 437.70627 5848.0884 437.67691 5850.5137 436.90234 C 5853.6525 438.30456 5857.1734 437.97933 5860.5176 437.96094 C 5862.0425 437.88054 5863.5735 437.64895 5865.0059 437.10352 C 5868.1846 438.31607 5871.6534 437.97713 5874.9805 437.93359 C 5876.5701 437.82051 5878.1645 437.51586 5879.6211 436.85156 C 5882.8455 438.3071 5886.4774 438.00471 5889.918 437.93164 C 5891.3491 437.82721 5892.7862 437.57098 5894.1074 436.99414 C 5897.2727 438.29319 5900.7767 438.03122 5904.1172 437.9043 C 5905.4472 437.77407 5906.7692 437.48067 5908 436.95312 C 5910.907 438.21634 5914.1619 438.01542 5917.2559 437.95703 C 5919.0651 437.85053 5920.8977 437.53659 5922.5273 436.70898 C 5925.7018 438.26519 5929.3484 438.04474 5932.7812 437.92188 C 5934.272 437.81835 5935.7654 437.48987 5937.125 436.88086 C 5940.1074 438.22822 5943.4731 438.07736 5946.6641 437.92383 C 5948.3387 437.79149 5950.0075 437.31765 5951.498 436.60352 C 5954.6812 438.23404 5958.3775 437.9352 5961.8145 437.58203 C 5963.148 437.38481 5964.4544 436.99688 5965.666 436.4043 C 5968.6671 438.16553 5972.3476 438.13516 5975.6406 437.90234 C 5976.8694 437.78318 5978.0801 437.46777 5979.207 436.96289 C 5982.1459 438.03668 5985.3428 437.9062 5988.377 438.00977 C 5990.6264 437.98067 5992.9165 437.41379 5994.8203 436.23828 C 5997.1272 437.73012 5999.9403 438.15404 6002.6406 438.01758 C 6006.1868 438.01358 6009.9265 436.62291 6011.9785 433.60156 C 6014.5385 430.14819 6014.9269 425.71115 6015.2773 421.56836 C 6016.0174 411.60419 6015.8659 401.60339 6015.9531 391.61914 C 6016.0171 370.14741 6016.0305 348.67453 6015.8945 327.20312 C 6015.8115 319.91478 6015.7343 312.60941 6014.9902 305.35352 C 6014.5277 301.65641 6013.6003 297.69852 6010.8066 295.0332 C 6008.5325 292.87462 6005.3434 291.81752 6002.2305 292.00781 C 6001.718 291.99451 6001.2059 292.00386 6000.6934 292.00586 L 6000.6895 292.00586 z " />
</svg>
