<?xml version="1.0" encoding="utf-8"?>
<!-- Generator: Adobe Illustrator 18.0.0, SVG Export Plug-In . SVG Version: 6.00 Build 0)  -->
<!DOCTYPE svg PUBLIC "-//W3C//DTD SVG 1.1//EN" "http://www.w3.org/Graphics/SVG/1.1/DTD/svg11.dtd">
<svg version="1.1" id="Baseline" xmlns="http://www.w3.org/2000/svg" xmlns:xlink="http://www.w3.org/1999/xlink" x="0px" y="0px"
	 width="9451.45px" height="623.52px" viewBox="0 0 9451.45 623.52" enable-background="new 0 0 9451.45 623.52"
	 xml:space="preserve">
<g opacity="0.75">
	<path d="M5543.38,88.73h-4.37l-1.6-2.49l-8.82,14.5h8.82h0.26v0.51l-0.26-0.51l-8.82,18.32h8.02v9.98h1.06v0.59h5.71h5.71h11.52
		V88.07h-17.23V88.73z M5543.38,91.66v2.49h-0.88l-1.6-2.49H5543.38z M5543.38,102.51V105h-3.8l-1.27-2.49H5543.38z M5542.35,110.42
		l-1.27-2.49h2.31v2.49H5542.35z M5543.38,119.06v2.21h-4.65v-2.21H5543.38z M5538.73,126.69v-2.49h4.65v2.49H5538.73z"/>
	<path d="M5493.29,105.28l-5.97-17.2l-8.82,26.9h8.02v14.65h1.06h1.06h4.65h5.71h11.52V93.49h-17.23V105.28z M5493.29,114.97v0.87
		h-4.65v-0.87H5493.29z M5488.64,118.78h4.65v2.49h-4.65V118.78z M5488.64,126.69v-2.49h4.65v2.49H5488.64z"/>
	<polygon points="5537.67,85.84 5549.09,85.84 5549.09,82.91 5546.04,82.91 5545.42,80.42 5549.09,80.42 5549.09,77.48
		5544.69,77.48 5544.07,75 5549.09,75 5549.09,72.06 5543.34,72.06 5542.67,69.38 5549.09,69.38 5549.09,66.44 5541.94,66.44
		5537.41,48.28 5528.6,85.75 5537.67,85.75 	"/>
	<path d="M5657.47,80.69v-2.38h-11.42v2.94h9.08v2.44h-7.89l-1.45-1.61l-8.82,10.37h8.82h9.34l-0.41-0.45h0.41v0.45v1.99h-8.56
		l-0.77-1.99l-8.82,24.06h8.02v13.11h1.06h1.06h8.02h2.35h14.89V80.69H5657.47z M5652.07,89.07l-2.2-2.44h5.24v2.44H5652.07z
		 M5655.12,97.38v2.44h-6.48l-0.95-2.44H5655.12z M5647.1,118.87h8.02v2.44h-8.02V118.87z M5654.9,115.94l-0.95-2.44h1.17v2.44
		H5654.9z M5652.81,110.57l-0.95-2.44h3.26v2.44H5652.81z M5650.72,105.19l-0.95-2.44h5.34v2.44H5650.72z M5647.1,126.69v-2.44h8.02
		v2.44H5647.1z"/>
	<rect x="5646.04" y="67.57" width="11.42" height="2.94"/>
	<rect x="5646.04" y="72.94" width="11.42" height="2.94"/>
	<rect x="5646.04" y="62.19" width="11.42" height="2.94"/>
	<rect x="5646.04" y="51.44" width="11.42" height="2.94"/>
	<rect x="5646.04" y="56.82" width="11.42" height="2.94"/>
	<rect x="5646.04" y="46.07" width="11.42" height="2.93"/>
	<rect x="5646.04" y="35.32" width="11.42" height="2.94"/>
	<rect x="5646.04" y="40.69" width="11.42" height="2.94"/>
	<rect x="5646.04" y="29.94" width="11.42" height="2.94"/>
	<rect x="5646.04" y="24.57" width="11.42" height="2.94"/>
	<path d="M5601.61,100.17h-6.98l-1.01-2.37h10.51v-2.94h-2.44l-1.27-2.37h3.71v-2.94h-5.28l-1.27-2.37h6.55v-2.94h-8.13l-1.27-2.37
		h9.4v-2.94h-10.97l-0.72-1.34l-8.82,17.42h8.82h0.26v0.61l-0.26-0.61l-8.82,22.01h8.02v11.99h1.06v0.59h8.9v0.32h17.23V99.26
		h-17.23V100.17z M5601.61,103.1v2.37h-4.73l-1-2.37H5601.61z M5593.77,119.02h7.84v2.37h-7.84V119.02z M5601.38,116.08l-1-2.37
		h1.24v2.37H5601.38z M5599.13,110.78l-1.01-2.37h3.49v2.37H5599.13z M5593.77,126.69v-2.37h7.84v2.37H5593.77z"/>
	<rect x="5592.71" y="47.13" width="11.42" height="2.94"/>
	<rect x="5592.71" y="36.52" width="11.42" height="2.94"/>
	<rect x="5592.71" y="41.82" width="11.42" height="2.94"/>
	<polygon points="5487.32,11.53 5478.5,47.07 5487.32,47.07 5496.66,47.07 	"/>
	<polygon points="5487.35,76.52 5496.66,76.52 5487.32,47.07 5478.5,76.52 5487.29,76.52 5478.5,88.07 5487.32,88.07 5496.66,88.07
			"/>
	<polygon points="5601.62,76.58 5604.14,76.58 5604.14,73.65 5600.45,73.65 5599.51,71.28 5604.14,71.28 5604.14,68.34
		5598.34,68.34 5597.4,65.98 5604.14,65.98 5604.14,63.04 5596.23,63.04 5595.29,60.67 5604.14,60.67 5604.14,57.74 5594.12,57.74
		5593.18,55.37 5604.14,55.37 5604.14,52.43 5592.71,52.43 5592.71,54.19 5592.45,53.54 5583.63,77.02 5601.79,77.02 	"/>
</g>
</svg>
