<?xml version="1.0" encoding="UTF-8" standalone="no"?>
<!-- Generator: Adobe Illustrator 23.0.1, SVG Export Plug-In . SVG Version: 6.00 Build 0)  -->

<svg
   version="1.1"
   id="Baseline"
   x="0px"
   y="0px"
   width="9451.5px"
   height="623.5px"
   viewBox="0 0 9451.5 623.5"
   style="enable-background:new 0 0 9451.5 623.5;"
   xml:space="preserve"
   sodipodi:docname="33_Radon_in_Bangalore_mask-01-Simplified.svg"
   inkscape:version="1.1.1 (3bf5ae0d25, 2021-09-20)"
   xmlns:inkscape="http://www.inkscape.org/namespaces/inkscape"
   xmlns:sodipodi="http://sodipodi.sourceforge.net/DTD/sodipodi-0.dtd"
   xmlns="http://www.w3.org/2000/svg"
   xmlns:svg="http://www.w3.org/2000/svg"><defs
   id="defs11" /><sodipodi:namedview
   id="namedview9"
   pagecolor="#505050"
   bordercolor="#eeeeee"
   borderopacity="1"
   inkscape:pageshadow="0"
   inkscape:pageopacity="0"
   inkscape:pagecheckerboard="0"
   showgrid="false"
   inkscape:zoom="1.865524"
   inkscape:cx="5535.9781"
   inkscape:cy="242.5592"
   inkscape:window-width="1366"
   inkscape:window-height="705"
   inkscape:window-x="-8"
   inkscape:window-y="-8"
   inkscape:window-maximized="1"
   inkscape:current-layer="Baseline" />
<style
   type="text/css"
   id="style2">
	.st0{opacity:0.75;stroke:#010101;stroke-miterlimit:10;enable-background:new    ;}
	.st1{opacity:0.75;stroke:#010101;stroke-miterlimit:10;}
</style>
<path
   id="polygon4"
   class="st0"
   d="m 5396.8008,132.30078 c 0,9.83333 0,19.66667 0,29.5 3.3333,0 6.6666,0 10,0 0,-1.15495 0,-2.30989 0,-3.46484 1,0.0333 2,0.0676 3,0.10156 0,-4.8457 0,-9.69141 0,-14.53711 1.2995,0 2.5989,0 3.8984,0 0,2.86654 0,5.73307 0,8.59961 0.8334,0 1.6667,0 2.5,0 0,13.10026 0,26.20052 0,39.30078 3.4668,0 6.9336,0 10.4004,0 0,-13.20052 0,-26.40104 0,-39.60156 1.5,0 3,0 4.5,0 0,1.26693 0,2.53385 0,3.80078 0.8346,0 1.6693,0 2.5039,0 0.033,31.26693 0.067,62.53385 0.1,93.80078 3.6992,0 7.3985,0 11.0977,0 0,-21.83333 0,-43.66667 0,-65.5 2.0664,0 4.1328,0 6.1992,0 0,0.63281 0,1.26563 0,1.89844 3.5664,0 7.1328,0 10.6992,0 0,-7.60938 0,-15.21875 0,-22.82813 2.9668,-0.10185 5.9336,-0.20709 8.9004,-0.30859 0,-2.75391 0,-5.50781 0,-8.26172 2.1003,0 4.2005,0 6.3008,0 0.1478,-0.46849 -0.3471,-1.56709 0.3538,-1.48069 2.7772,-0.0495 5.5644,-0.003 8.3454,-0.0193 0,-0.70052 0,-1.40104 0,-2.10156 2.9336,0 5.8672,0 8.8008,0 0,1.06706 0,2.13411 0,3.20117 2.8997,0 5.7995,0 8.6992,0 0,12.5332 0,25.06641 0,37.59961 3.6335,0 7.2669,0 10.9004,0 0,-6.87826 0,-13.75651 0,-20.63477 2.1667,-0.0729 4.3333,-0.14583 6.5,-0.21875 0,17.05144 0,34.10287 0,51.1543 3.8001,0 7.6003,0 11.4004,0 0,-3.83333 0,-7.66667 0,-11.5 2.8665,0 5.7331,0 8.5996,0 0,-16.06706 0,-32.13411 0,-48.20117 2.8665,0 5.7331,0 8.5996,0 0,-4.30013 0,-8.60026 0,-12.90039 2.8665,0 5.7331,0 8.5996,0 0,-6.46615 0,-12.93229 0,-19.39844 -53.6328,0 -107.2656,0 -160.8984,0 0,0.66667 0,1.33333 0,2 z" />
<path
   id="polygon6"
   class="st1"
   d="m 5551.5996,132.30078 c 0,7.83333 0,15.66667 0,23.5 1.2337,0 2.4675,0 3.7012,0 0,1.55664 0,3.11328 0,4.66992 2.8998,0.0931 5.7995,0.19143 8.6992,0.28711 0,5.54753 0,11.09505 0,16.64258 2.9336,0 5.8672,0 8.8008,0 0.1483,0.48497 -0.3636,1.63028 0.4,1.5 3.5333,0 7.0666,0 10.6,0 0,-2.5 0,-5 0,-7.5 2.0996,0 4.1992,0 6.2988,0 0,18.56641 0,37.13281 0,55.69922 3.6667,0 7.3333,0 11,0 0,-26.36654 0,-52.73307 0,-79.09961 1.2669,0 2.5339,0 3.8008,0 0,1.89974 0,3.79948 0,5.69922 0.8665,0 1.7331,0 2.5996,0 0,19.56706 0,39.13411 0,58.70117 3.6667,0 7.3333,0 11,0 0,-14.63346 0,-29.26693 0,-43.90039 3,0 6,0 9,0 0,-4.93359 0,-9.86719 0,-14.80078 1,0 2,0 3,0 0,2.76693 0,5.53385 0,8.30078 4.1999,0 8.3997,0 12.5996,0 0,-1.23307 0,-2.46615 0,-3.69922 2.6335,0 5.2669,0 7.9004,0 0,10.06641 0,20.13281 0,30.19922 3.8001,0 7.6003,0 11.4004,0 0,-19.39974 0,-38.79948 0,-58.19922 -36.9336,0 -73.8672,0 -110.8008,0 0,0.66667 0,1.33333 0,2 z" />
</svg>
