<?xml version="1.0" encoding="UTF-8" standalone="no"?>
<!-- Generator: Adobe Illustrator 18.0.0, SVG Export Plug-In . SVG Version: 6.00 Build 0)  -->

<svg
   version="1.1"
   id="AR_x5F_LAYER"
   x="0px"
   y="0px"
   width="9451.45px"
   height="623.52px"
   viewBox="0 0 9451.45 623.52"
   enable-background="new 0 0 9451.45 623.52"
   xml:space="preserve"
   sodipodi:docname="4 Water access vs GDP_mask-01-01.svg"
   inkscape:version="1.1.1 (c3084ef, 2021-09-22)"
   xmlns:inkscape="http://www.inkscape.org/namespaces/inkscape"
   xmlns:sodipodi="http://sodipodi.sourceforge.net/DTD/sodipodi-0.dtd"
   xmlns="http://www.w3.org/2000/svg"
   xmlns:svg="http://www.w3.org/2000/svg"><defs
   id="defs1139" /><sodipodi:namedview
   id="namedview1137"
   pagecolor="#505050"
   bordercolor="#eeeeee"
   borderopacity="1"
   inkscape:pageshadow="0"
   inkscape:pageopacity="0"
   inkscape:pagecheckerboard="0"
   showgrid="false"
   inkscape:zoom="0.90740703"
   inkscape:cx="695.93906"
   inkscape:cy="220.40825"
   inkscape:window-width="1312"
   inkscape:window-height="762"
   inkscape:window-x="0"
   inkscape:window-y="25"
   inkscape:window-maximized="0"
   inkscape:current-layer="AR_x5F_LAYER" />


<path
   style="fill:#000000"
   d="m 980.8,109.8 c 2.66472,-2.66472 0.13107,-7.8 -3.84838,-7.8 -2.87745,0 -5.37444,4.34143 -3.98751,6.93294 1.24131,2.31941 5.87123,2.83172 7.83589,0.86706 z"
   id="path984" /><path
   style="fill:#000000"
   d="m 972.99353,126.06566 c -5.4368,-1.6538 -9.12015,-4.31995 -12.89003,-9.33031 -3.91427,-5.20224 -3.93291,-5.27014 -2.94767,-10.73535 1.94737,-10.802189 7.93574,-17.365486 16.97472,-18.604415 12.22217,-1.675236 22.83764,7.473692 22.86387,19.705195 0.0168,7.84659 -6.39702,16.05039 -14.40848,18.42954 -5.44215,1.61615 -5.94673,1.64431 -9.59241,0.53534 z"
   id="path982" /><path
   style="fill:#000000"
   d="m 936.45633,118.65559 c 2.16726,-1.58474 1.5178,-6.06781 -1.02014,-7.0417 C 931.4722,110.09276 928.142,115.742 931.2,118.8 c 1.5557,1.5557 2.985,1.51643 5.25633,-0.14441 z"
   id="path980" /><path
   style="fill:#000000"
   d="m 927.5,133.67392 c -8.15459,-3.19095 -13.5166,-10.00173 -13.47804,-17.1197 0.0673,-12.43119 12.28676,-22.476534 23.81113,-19.574665 6.00899,1.513083 9.30201,3.997525 13.05922,9.852615 2.94127,4.58358 3.06067,5.14278 2.13749,10.01067 -0.53778,2.83575 -1.62174,6.39369 -2.40878,7.90654 -4.25965,8.18783 -14.7026,12.21873 -23.12102,8.92454 z"
   id="path978" /><path
   style="fill:#000000"
   d="m 840.5,136.84571 c -4.99129,-1.83167 -8.90915,-5.34413 -11.71862,-10.50606 -2.36484,-4.34498 -2.55717,-5.39134 -1.69574,-9.22529 1.7634,-7.84832 6.30854,-13.81367 12.22946,-16.05074 3.88994,-1.469725 11.10863,-1.331242 14.98264,0.28742 4.475,1.86978 9.40424,7.79507 10.7197,12.88583 0.60588,2.34472 1.29242,4.93813 1.52564,5.76313 0.8032,2.84119 -5.29424,11.76986 -9.86826,14.45042 -5.03812,2.95253 -11.89094,3.96735 -16.17482,2.39529 z"
   id="path976" /><path
   style="fill:#000000"
   d="m 882.48141,141.60643 c -4.31988,-1.88229 -9.21798,-7.87996 -10.4887,-12.8433 -0.6003,-2.34472 -1.28947,-4.85 -1.53148,-5.56729 -0.68777,-2.03844 4.10794,-10.65554 7.53508,-13.53928 6.55026,-5.51168 15.81465,-5.74931 22.9391,-0.58839 11.67451,8.45698 10.41992,25.02281 -2.38175,31.4489 -5.48419,2.75291 -11.34303,3.15002 -16.07225,1.08936 z"
   id="path974" /><path
   style="fill:#000000"
   d="m 805.8,126.8 c 2.15862,-2.15862 1.43886,-5.70195 -1.29776,-6.3888 -3.5249,-0.88469 -5.50224,0.14218 -5.50224,2.85741 0,2.70652 1.71186,4.73139 4,4.73139 0.88,0 2.14,-0.54 2.8,-1.2 z"
   id="path972" /><path
   style="fill:#000000"
   d="m 797.36659,142.35906 c -3.18515,-0.69813 -9.88259,-6.81934 -11.73698,-10.72717 -4.36495,-9.19845 0.90692,-21.37995 10.90525,-25.19835 9.50389,-3.62957 18.22431,0.18513 23.78346,10.40396 2.79794,5.14318 2.80711,5.21921 1.26788,10.51398 -1.91165,6.57585 -4.60285,10.10621 -9.67753,12.69511 -4.02768,2.05477 -10.80253,3.1321 -14.54208,2.31247 z"
   id="path970" /><path
   style="fill:#000000"
   d="M 761.68744,141.21433 C 762.85666,140.47088 765,135.76083 765,133.9349 c 0,-1.3665 -7.39106,-1.14384 -8.8,0.2651 -3.726,3.726 1.0526,9.83425 5.48744,7.01433 z"
   id="path968" /><path
   style="fill:#000000"
   d="m 751.17963,153.31824 c -7.07536,-3.48659 -11.59181,-13.66143 -9.36429,-21.09623 1.62407,-5.42068 4.76928,-9.12892 9.60606,-11.32568 9.83859,-4.46846 19.49125,-0.75737 24.77867,9.52649 2.50348,4.86918 2.00881,9.83866 -1.59074,15.98083 -4.47579,7.63736 -15.41289,10.86513 -23.4297,6.91459 z"
   id="path966" /><path
   style="fill:#000000"
   d="m 719.8,151.8 c 1.83711,-1.83711 1.42835,-6.28337 -0.75971,-8.26353 -4.5279,-4.0977 -11.02949,1.77868 -7.65909,6.92257 1.81078,2.76359 6.28371,3.47605 8.4188,1.34096 z"
   id="path964" /><path
   style="fill:#000000"
   d="m 707.4113,163.10905 c -6.44303,-3.92892 -10.25353,-11.80605 -8.98418,-18.57225 0.82831,-4.41528 6.75164,-11.28946 11.40716,-13.23831 6.39305,-2.67619 15.68882,0.42981 20.42406,6.82431 5.87256,7.93035 2.47112,20.93051 -6.60302,25.23647 -4.69163,2.22633 -12.37688,2.10794 -16.24402,-0.25022 z"
   id="path962" /><path
   style="fill:#000000"
   d="m 676.17126,155.34501 c 2.27423,-2.05815 2.34495,-5.11713 0.17375,-7.51627 -3.49361,-3.8604 -9.34501,-1.23495 -9.34501,4.193 0,4.61916 5.52651,6.62173 9.17126,3.32327 z"
   id="path960" /><path
   style="fill:#000000"
   d="m 667.21141,167.90229 c -4.77042,-1.42082 -10.95038,-7.99398 -11.80655,-12.55773 -2.00781,-10.70253 6.42102,-21.39214 16.81302,-21.3226 14.34403,0.096 22.6878,17.18225 13.50045,27.64607 -5.10261,5.81154 -12.05874,8.15479 -18.50692,6.23426 z"
   id="path958" /><path
   style="fill:#000000"
   d="m 623.91357,179.06632 c -9.29117,-2.89489 -14.2296,-12.79303 -10.85224,-21.75122 2.61807,-6.9442 11.2977,-12.21293 17.6512,-10.71469 4.88374,1.15166 10.32097,4.71773 12.45302,8.16746 4.2274,6.84008 0.99179,19.05459 -5.99439,22.62897 -3.59599,1.83984 -10.08728,2.65727 -13.25759,1.66948 z"
   id="path956" /><path
   style="fill:#000000"
   d="m 587.77749,175.4433 c 2.4485,-1.715 3.01156,-6.25426 1.02251,-8.2433 -3.02429,-3.02429 -8.8,-0.19241 -8.8,4.31472 0,2.01287 3.16521,5.48528 5,5.48528 0.30524,0 1.55512,-0.70052 2.77749,-1.5567 z"
   id="path954" /><path
   style="fill:#000000"
   d="m 576.9844,185.17601 c -4.9613,-2.59711 -8.2441,-9.21468 -7.68941,-15.5005 1.38321,-15.67463 22.00457,-20.16281 29.70326,-6.46484 2.76293,4.91597 2.44882,13.34638 -0.65505,17.5808 -4.36165,5.95035 -14.42232,8.01561 -21.3588,4.38454 z"
   id="path952" /><path
   style="fill:#000000"
   d="m 546.10274,179.80803 c 2.2713,-4.24396 -4.47759,-9.03318 -7.90274,-5.60803 -1.86245,1.86245 -1.4173,5.53439 0.86469,7.13276 2.51971,1.76487 5.63919,1.08906 7.03805,-1.52473 z"
   id="path950" /><path
   style="fill:#000000"
   d="m 535,192.29377 c -5.13405,-1.87678 -9.00256,-8.3265 -8.99341,-14.99411 0.008,-5.7924 2.35595,-9.75794 7.68939,-12.9866 9.99636,-6.05143 23.63826,1.49455 23.63685,13.07465 -10e-4,9.56143 -6.07812,15.67083 -15.45086,15.53334 -2.96009,-0.0434 -6.05697,-0.32569 -6.88197,-0.62728 z"
   id="path948" /><path
   style="fill:#000000"
   d="m 502,184 c 2.37832,-4.44392 -2.90719,-7.72559 -8.0285,-4.98475 -1.89641,1.01493 -1.78898,3.02701 0.30618,5.73475 1.5527,2.00668 6.50436,1.52577 7.72232,-0.75 z"
   id="path946" /><path
   style="fill:#000000"
   d="m 493.31524,196.9292 c -6.84994,-2.04884 -12.16514,-10.58529 -10.87451,-17.46494 0.74874,-3.99115 4.6211,-8.92775 8.62873,-11.00018 6.40078,-3.30997 16.53176,-0.8052 20.04486,4.95588 2.57207,4.21791 2.53454,13.00362 -0.0738,17.28149 -3.26518,5.35507 -11.25612,8.16268 -17.72525,6.22775 z"
   id="path944" /><path
   style="fill:#000000"
   d="m 458.02021,187.96223 c 2.44259,-4.56401 -2.33521,-8.79711 -6.09187,-5.39738 -1.06059,0.95982 -1.92834,2.48538 -1.92834,3.39014 0,4.06832 6.1001,5.59501 8.02021,2.00724 z"
   id="path942" /><path
   style="fill:#000000"
   d="M 446.74178,198.77578 C 442.65824,196.40894 439,190.2076 439,185.65216 c 0,-7.60591 6.33523,-14.6897 13.77691,-15.40475 9.60095,-0.92253 17.14003,5.98851 17.20113,15.76819 0.0707,11.31788 -13.17499,18.59174 -23.23626,12.76018 z"
   id="path940" /><path
   style="fill:#000000"
   d="m 973.5,276.59749 c -4.85879,-2.14473 -7,-5.25964 -7,-10.18325 0,-3.6003 0.57396,-4.94974 3.23867,-7.61445 3.23867,-3.23867 3.23867,-3.23867 -0.32799,-6.89126 -8.53411,-8.73973 -3.37037,-21.25415 8.70121,-21.08755 4.73235,0.0653 8.26203,2.33988 10.30196,6.63871 2.55911,5.39292 2.32083,6.33931 -3.7404,14.85632 -1.79401,2.52087 -1.78064,2.64494 0.75,6.96315 4.25251,7.25636 2.7648,13.98004 -3.78053,17.086 -4.07818,1.93522 -4.27251,1.94077 -8.14292,0.23233 z"
   id="path938" /><path
   style="fill:#000000"
   d="m 930.26969,280.51741 c -6.48552,-2.81943 -9.09231,-11.74097 -4.81243,-16.47018 2.12477,-2.34785 1.93116,-5.28371 -0.55706,-8.44697 -2.8649,-3.64213 -3.5272,-9.48709 -1.51575,-13.37681 2.2447,-4.34076 5.36158,-6.22345 10.30326,-6.22345 3.31156,0 5.01167,0.67517 7.74651,3.07639 5.70097,5.00551 5.74252,12.1747 0.099,17.08168 -3.11938,2.71226 -3.12016,2.8882 -0.0332,7.43707 4.31897,6.36436 2.80509,13.18824 -3.65722,16.48507 -2.06971,1.05588 -3.89353,1.90218 -4.05294,1.88065 -0.15941,-0.0215 -1.74348,-0.67108 -3.52015,-1.44345 z"
   id="path936" /><path
   style="fill:#000000"
   d="m 667.97429,321.12813 c -3.98316,-3.98316 -4.61043,-7.28253 -2.25641,-11.86849 1.92987,-3.75964 1.92987,-3.75964 -0.39401,-7.15752 -2.60503,-3.80898 -2.85402,-5.84445 -1.1677,-9.54554 0.93741,-2.05738 0.82152,-3.27964 -0.61246,-6.45965 -2.14065,-4.74712 -1.23676,-8.49035 2.77313,-11.48416 4.11423,-3.07172 9.47689,-2.52724 12.90577,1.31034 3.13827,3.51234 3.44477,6.23537 1.28396,11.40693 -1.08064,2.58632 -1.22568,4.27855 -0.52476,6.12213 1.06509,2.80139 -0.0409,6.85066 -2.66231,9.74728 -1.39635,1.54295 -1.34278,1.9555 0.5696,4.38669 3.2876,4.17951 2.86599,9.90608 -0.99486,13.51265 -3.88417,3.62836 -5.31622,3.63308 -8.91995,0.0293 z"
   id="path934" /><path
   style="fill:#000000"
   d="m 623.92308,322.07692 c -3.27568,-3.27568 -3.82692,-7.8206 -1.46477,-12.07692 1.23583,-2.22683 1.15887,-2.87056 -0.70432,-5.89129 -1.82083,-2.95205 -1.95109,-3.91826 -1.00576,-7.45995 0.85664,-3.2094 0.78671,-4.64741 -0.33112,-6.80905 -2.12346,-4.10632 -1.73296,-6.67771 1.50597,-9.91663 3.69892,-3.69893 9.49949,-4.04134 13.01283,-0.76816 2.08669,1.94404 2.26204,2.79025 1.7919,8.64721 -0.28663,3.57076 -0.0795,7.75932 0.4604,9.30792 0.79215,2.27236 0.55107,3.58152 -1.24942,6.78507 -2.1646,3.85138 -2.17993,4.07694 -0.51571,7.58403 2.1399,4.5095 1.35009,8.76751 -2.13472,11.50866 -3.50996,2.76094 -5.92871,2.52569 -9.36528,-0.91089 z"
   id="path932" /><path
   style="fill:#000000"
   d="m 449.45454,323.54545 c -2.87877,-2.87877 -3.03043,-4.5296 -0.84015,-9.14527 1.50572,-3.17306 1.49394,-3.5859 -0.17493,-6.13292 -1.06768,-1.62949 -1.87684,-4.95636 -2.00632,-8.24906 -0.11935,-3.03501 -0.54189,-6.74944 -0.93899,-8.25428 -0.60449,-2.29082 -0.15013,-3.30794 2.79193,-6.25 5.24495,-5.24495 11.06603,-4.60127 14.26091,1.57696 1.26329,2.44293 1.35132,3.68721 0.45336,6.40807 -0.61289,1.85707 -0.81673,4.96291 -0.45298,6.90186 0.50425,2.68791 0.14486,4.36111 -1.51291,7.04343 -2.01176,3.2551 -2.05693,3.68559 -0.60437,5.75941 C 463.9525,318.2326 460.35293,326 454.5,326 c -1.425,0 -3.69545,-1.10455 -5.04546,-2.45455 z"
   id="path930" /><path
   style="fill:#000000"
   d="m 842.82501,335.96188 c -2.91525,-1.70095 -4.14074,-7.27047 -2.47629,-11.25405 0.79596,-1.90502 1.92088,-3.75642 2.4998,-4.11421 0.66691,-0.41217 0.14737,-1.98445 -1.41792,-4.29102 -1.35877,-2.00227 -2.46406,-5.02696 -2.4562,-6.72154 0.008,-1.69458 -0.25347,-4.97305 -0.58074,-7.28549 -0.51691,-3.65239 -0.25357,-4.5209 2.00565,-6.61467 3.14757,-2.91707 3.31657,-5.72306 0.49831,-8.27355 C 838.36173,285.1124 836,280.74641 836,278.35341 c 0,-0.96025 1.19352,-3.46816 2.65227,-5.57313 2.65226,-3.82722 2.65226,-3.82722 0.56661,-6.05375 -5.32535,-5.68505 -4.80826,-14.17692 1.08194,-17.7684 3.87953,-2.36549 6.8276,-2.46556 11.22078,-0.38086 6.7264,3.19189 8.16474,12.00935 2.86191,17.54432 -2.58096,2.69394 -2.58096,2.69394 0.0178,6.51831 1.4293,2.1034 2.59873,4.64226 2.59873,5.64189 0,3.18135 -2.83967,7.456 -6.42509,9.67191 -2.21028,1.36603 -3.27125,2.67405 -2.91726,3.59655 0.30598,0.79736 0.89247,1.44975 1.30332,1.44975 0.41084,0 1.98145,1.14407 3.49024,2.54237 2.65501,2.46057 2.72105,2.77424 2.05278,9.75 -0.39956,4.17091 -1.50807,8.62514 -2.63104,10.57208 -1.9325,3.35049 -1.93169,3.38276 0.1951,7.77612 2.38077,4.91802 2.0628,8.22858 -1.09349,11.38487 -2.12485,2.12485 -5.4566,2.50769 -8.14955,0.93644 z"
   id="path928" /><path
   style="fill:#000000"
   d="m 754.45455,337.54545 c -3.11797,-3.11796 -3.11987,-6.60131 -0.006,-10.30238 2.44893,-2.91039 2.44893,-2.91039 0.0838,-6.32673 -1.30081,-1.87899 -2.65576,-5.67489 -3.01099,-8.43533 -0.55641,-4.32375 -0.3002,-5.52838 1.8496,-8.69629 2.49547,-3.67729 2.49547,-3.67729 -0.43794,-7.36851 -3.17519,-3.99546 -3.64048,-7.5114 -1.50449,-11.36857 1.18544,-2.14066 1.11738,-2.90139 -0.53544,-5.98519 -4.32719,-8.07361 -0.0219,-15.99296 8.72016,-16.04021 8.04782,-0.0435 12.65549,8.46669 8.44651,15.60038 -2.05793,3.48794 -2.08173,3.81214 -0.52113,7.10085 2.0493,4.31857 1.26386,7.75247 -2.53584,11.08666 -2.88987,2.53581 -2.88987,2.53581 -0.44653,5.43957 3.52698,4.19157 3.51772,13.90551 -0.0178,18.69766 -2.46117,3.33592 -2.46117,3.33592 -0.5,5.82914 2.86758,3.64554 2.5682,8.60084 -0.6737,11.15092 -3.46016,2.72177 -5.91196,2.61667 -8.91059,-0.38197 z"
   id="path926" /><path
   style="fill:#000000"
   d="m 974.22896,340.33071 c -2.36414,-0.95121 -3.92911,-5.79928 -4.0812,-12.64305 -0.0833,-3.74679 0.34375,-7.73754 0.94893,-8.86834 0.85389,-1.5955 0.70466,-2.93343 -0.66625,-5.97359 -1.6609,-3.68321 -1.66652,-4.12746 -0.0938,-7.42541 1.6064,-3.36865 1.58725,-3.6564 -0.48278,-7.25315 -2.98394,-5.18471 -2.01126,-10.18256 2.67778,-13.75907 4.14237,-3.15954 7.29684,-2.73351 11.59653,1.56619 3.46279,3.46279 3.70029,7.15454 0.76955,11.96199 -1.87434,3.07456 -1.96272,3.83661 -0.83966,7.23952 1.07439,3.25543 1.01032,4.34624 -0.4448,7.57312 -1.5755,3.49384 -1.58122,4.00795 -0.0781,7.02097 2.34305,4.69675 1.10892,15.67701 -2.12556,18.91149 -2.22642,2.22642 -4.4671,2.74108 -7.18057,1.64933 z"
   id="path924" /><path
   style="fill:#000000"
   d="m 711.45455,338.54545 c -2.97552,-2.97551 -3.13458,-6.41122 -0.45455,-9.81832 2.58685,-3.28865 2.52176,-4.31834 -0.5,-7.9095 -3.67792,-4.37096 -3.80759,-10.79686 -0.29337,-14.53758 2.15465,-2.29352 2.15465,-2.29352 -0.52599,-5.0915 -2.87929,-3.00533 -3.5445,-7.7059 -1.60371,-11.33229 0.82095,-1.53397 0.67999,-2.84874 -0.59305,-5.53148 -3.31137,-6.97819 0.51467,-14.32833 7.45468,-14.32104 8.08123,0.008 13.54236,7.56096 9.70362,13.41962 -1.20837,1.84419 -1.4455,3.91 -1.00393,8.74558 0.53725,5.88336 0.39598,6.50035 -1.99779,8.72506 -2.57592,2.39399 -2.57592,2.39399 -0.0366,5.4118 2.25681,2.68207 2.46438,3.58386 1.8658,8.106 -0.43901,3.31665 -1.50844,5.97767 -3.07158,7.64292 -2.97828,3.17281 -2.974,3.47213 0.10192,7.12765 3.11846,3.70608 3.1786,6.83149 0.18555,9.64332 -3.03217,2.84857 -6.19832,2.75245 -9.231,-0.28024 z"
   id="path922" /><path
   style="fill:#000000"
   d="m 667.45455,338.54545 c -3.23616,-3.23615 -3.09891,-6.05494 0.46853,-9.62237 3.7034,-3.7034 5.26634,-3.67511 8.48803,0.15365 3.20356,3.80722 3.29105,6.915 0.27444,9.74896 -3.03217,2.84857 -6.19832,2.75245 -9.231,-0.28024 z"
   id="path920" /><path
   style="fill:#000000"
   d="m 929.22237,339.55557 c -2.76033,-3.50919 -3.7017,-14.72796 -1.58009,-18.8307 1.45149,-2.80689 1.44912,-3.30014 -0.0279,-5.8006 -1.84719,-3.12703 -2.05944,-6.22407 -0.61193,-8.92877 0.75432,-1.40947 0.48588,-2.74847 -1.0847,-5.4104 -2.57348,-4.36173 -1.89666,-8.6699 1.82155,-11.59464 3.82142,-3.00593 6.7345,-3.41439 10.1139,-1.41813 5.25969,3.10698 6.38947,7.87728 3.13127,13.2213 -1.51687,2.48793 -1.76058,3.75612 -0.99626,5.18426 1.51059,2.82258 1.22314,7.13113 -0.61098,9.15781 -1.48475,1.64064 -1.48899,2.12763 -0.0498,5.72455 2.11775,5.2928 0.95979,17.72536 -1.84174,19.77388 -2.83266,2.0713 -6.12349,1.64177 -8.2633,-1.07856 z"
   id="path918" /><path
   style="fill:#000000"
   d="m 885.07258,339.36514 c -2.83188,-3.60015 -2.93256,-14.54073 -0.17234,-18.72744 1.87694,-2.84693 1.87377,-2.88183 -0.59054,-6.5 -1.87725,-2.75624 -2.34581,-4.45928 -1.93371,-7.02829 0.29914,-1.86482 0.0707,-4.2747 -0.50758,-5.35529 -1.93929,-3.6236 -0.14057,-8.54564 4.16394,-11.39422 3.93495,-2.60403 3.93495,-2.60403 -1.0487,-7.28293 C 880.81279,279.16117 880,277.81679 880,274.8339 c 0,-2.14766 0.86607,-4.66521 2.17915,-6.33452 2.06772,-2.62869 2.09493,-2.90402 0.53215,-5.38486 -5.71164,-9.06691 -5.84286,-12.13681 -0.73701,-17.24265 2.37369,-2.37369 3.71395,-2.87187 7.72628,-2.87187 5.54979,0 8.59092,1.72921 10.90244,6.1992 1.97145,3.81236 1.26229,7.97756 -2.11131,12.40057 -2.97781,3.90411 -2.99728,4.19703 -0.4917,7.40023 1.07554,1.375 1.96553,4.03964 1.97776,5.92142 0.018,2.76405 -0.84235,4.24984 -4.47776,7.73317 -4.25605,4.07802 -5.55888,6.34541 -3.64602,6.34541 0.46968,0 2.0288,1.08879 3.46469,2.41953 2.44825,2.26896 2.60289,2.95497 2.48508,11.02387 -0.10673,7.3091 -0.47459,9.07731 -2.44374,11.74634 -2.3181,3.14201 -2.3181,3.14201 -0.33905,6.34417 1.45477,2.35387 1.97904,4.97108 1.97904,9.87958 0,5.75627 -0.3386,7.01602 -2.45455,9.13196 -3.22309,3.2231 -6.85006,3.15406 -9.47287,-0.18031 z"
   id="path916" /><path
   style="fill:#000000"
   d="m 580.45455,340.54545 c -2.81131,-2.8113 -3.13769,-6.12513 -0.91569,-9.29746 1.33799,-1.91025 1.35614,-2.55931 0.13907,-4.97251 -2.36681,-4.69291 -2.88959,-10.9655 -1.18812,-14.25577 1.40483,-2.71666 1.36059,-3.24513 -0.584,-6.97591 -1.75435,-3.3658 -1.92427,-4.5521 -1.02252,-7.13886 0.72037,-2.06645 0.75346,-3.71517 0.0991,-4.93787 -3.21291,-6.00337 1.74725,-14.36707 8.52051,-14.36707 2.89214,0 4.32189,0.65754 6.21481,2.8582 2.113,2.45651 2.37118,3.50353 1.83702,7.45 -0.34183,2.52549 -0.58219,7.00452 -0.53413,9.95341 0.0594,3.647 -0.43283,5.93643 -1.53931,7.15907 -1.50204,1.65974 -1.50209,2.03839 -7.1e-4,4.94175 1.82623,3.53154 1.30481,10.47893 -1.14928,15.31305 -1.22806,2.41906 -1.21139,3.05762 0.12985,4.97251 0.84637,1.20836 1.53886,3.24235 1.53886,4.51997 0,2.89113 -4.20163,7.23204 -7,7.23204 -1.15,0 -3.19545,-1.10455 -4.54545,-2.45455 z"
   id="path914" /><path
   style="fill:#000000"
   d="m 493.34976,340.44066 c -2.06801,-2.068 -2.44003,-3.17187 -1.93785,-5.75 0.86855,-4.45908 0.86725,-4.50573 -0.31177,-11.1306 -0.8594,-4.82899 -0.77919,-6.49706 0.4289,-8.91873 1.35895,-2.72407 1.31218,-3.33787 -0.54689,-7.17821 -1.63363,-3.37462 -1.82737,-4.74003 -0.98642,-6.95189 0.74849,-1.96868 0.71593,-3.66662 -0.11434,-5.96269 -1.62637,-4.49765 -0.0816,-8.63191 4.00092,-10.70787 3.68208,-1.87232 8.72964,-1.05142 10.80182,1.75673 1.6944,2.2962 1.47772,20.27065 -0.27828,23.08356 -1.15438,1.8492 -1.14185,2.70663 0.0824,5.63659 1.12816,2.70006 1.23131,4.73763 0.47176,9.31904 -0.53464,3.22487 -0.70909,7.67038 -0.38765,9.87891 1.16102,7.97707 -5.84649,12.30124 -11.22256,6.92516 z"
   id="path912" /><path
   style="fill:#000000"
   d="m 537.45455,341.54545 c -2.7139,-2.71389 -3.05379,-5.13616 -1.27005,-9.05105 0.97349,-2.13657 0.88442,-3.10772 -0.5,-5.45134 -2.11779,-3.58515 -2.1783,-10.89304 -0.11459,-13.83941 1.45363,-2.07535 1.40629,-2.50609 -0.63917,-5.81572 -1.88512,-3.05019 -2.0548,-4.07706 -1.15705,-7.00219 0.8191,-2.6689 0.72379,-4.08579 -0.4305,-6.39961 -2.28637,-4.58315 0.2379,-10.09975 5.55085,-12.13091 6.03397,-2.30681 13.30808,4.41496 11.62565,10.7429 -0.42434,1.59603 -0.73102,4.8848 -0.68151,7.30837 0.0501,2.45292 -0.64088,5.64379 -1.55859,7.19735 -1.35054,2.28628 -1.43444,3.26088 -0.4641,5.39056 1.71172,3.75681 1.45455,11.23988 -0.5,14.54866 -1.38441,2.34362 -1.47348,3.31477 -0.5,5.45134 0.65148,1.42984 1.18451,3.49899 1.18451,4.59811 0,2.38614 -4.25462,6.90749 -6.5,6.90749 -0.875,0 -2.69546,-1.10455 -4.04545,-2.45455 z"
   id="path910" /><path
   style="fill:#000000"
   d="m 798.59883,342.68974 c -3.15156,-3.15156 -3.47432,-13.30701 -0.54143,-17.03558 C 800.12392,323.027 800.6423,320 799.02568,320 c -1.59253,0 -3.70686,-5.13313 -4.42234,-10.73651 -0.71616,-5.60858 0.90183,-10.47589 3.85967,-11.61092 2.3429,-0.89906 1.84757,-2.93467 -1.40953,-5.79273 -4.11716,-3.61275 -4.7904,-7.16333 -2.32175,-12.24456 2.01044,-4.13809 2.01044,-4.13809 -0.36064,-7.59847 -2.8771,-4.19885 -2.99472,-7.48178 -0.41937,-11.70544 2.35364,-3.86007 7.44132,-5.59386 12.39837,-4.22515 4.31911,1.19256 6.58898,3.76344 7.32447,8.29578 0.47168,2.90662 0.0557,4.39967 -2.08706,7.49174 -2.67615,3.86169 -2.67615,3.86169 -0.49358,7.56087 1.91066,3.23833 2.04184,4.16889 1.05296,7.46948 -0.62128,2.07367 -2.0335,4.58831 -3.13824,5.5881 -2.53999,2.29865 -2.54378,4.30928 -0.0132,7.00296 2.17335,2.31342 2.49229,4.53584 1.67764,11.6902 -0.5797,5.091 -1.70663,7.76768 -4.11016,9.76243 -1.37446,1.1407 -1.27522,1.60542 0.89318,4.18241 2.01387,2.39336 2.43434,3.96542 2.41021,9.01138 -0.0243,5.07633 -0.43144,6.51447 -2.40232,8.48535 -2.99533,2.99533 -5.91198,3.016 -8.86516,0.0628 z"
   id="path1675" />
</svg>
