<!--?xml version="1.0" encoding="UTF-8" standalone="no"?-->
<!-- Generator: Adobe Illustrator 18.0.0, SVG Export Plug-In . SVG Version: 6.00 Build 0)  -->

<svg version="1.1" id="AR_x5F_LAYER" x="0px" y="0px" width="9451.45px" height="623.52px" viewBox="0 0 9451.45 623.52" enable-background="new 0 0 9451.45 623.52" xml:space="preserve" sodipodi:docname="4 Water access vs GDP_mask-01-01.svg" inkscape:version="1.1.1 (c3084ef, 2021-09-22)" xmlns:inkscape="http://www.inkscape.org/namespaces/inkscape" xmlns:sodipodi="http://sodipodi.sourceforge.net/DTD/sodipodi-0.dtd" xmlns="http://www.w3.org/2000/svg" xmlns:svg="http://www.w3.org/2000/svg"><defs id="defs1139"></defs><sodipodi:namedview id="namedview1137" pagecolor="#505050" bordercolor="#eeeeee" borderopacity="1" inkscape:pageshadow="0" inkscape:pageopacity="0" inkscape:pagecheckerboard="0" showgrid="false" inkscape:zoom="0.90740703" inkscape:cx="695.93906" inkscape:cy="220.40825" inkscape:window-width="1312" inkscape:window-height="762" inkscape:window-x="0" inkscape:window-y="25" inkscape:window-maximized="0" inkscape:current-layer="AR_x5F_LAYER"></sodipodi:namedview>


<polygon style="fill:#000000" id="path1003" points="672.3,326.2,671.4,326.3,669.2,327.7,667.9,328.9,666.7,330.2,665.4,332.7,665.2,335,666.4,337.3,667.5,338.5,668.6,339.5,670.9,340.7,673.2,340.8,675.5,339.8,676.7,338.8,677.7,337.7,678.8,335.5,678.7,333.1,677.5,330.5,676.4,329.1,675.3,327.8,673.3,326.4,672.3,326.2,672.3,326.2"></polygon><polygon style="fill:#000000" id="path1001" points="933.6,286.3,932.2,286.6,929.3,287.9,927.7,289,926.5,290.1,924.9,292.8,924.4,295.8,925.1,299,925.9,300.6,926.9,302.4,927.4,304.9,927,306,926.2,308.1,926.5,312.6,927.6,314.9,928.4,316.5,928.5,319,927.6,320.7,927,322.6,926.5,327.6,927,333.1,928.3,337.9,929.2,339.6,930.1,340.5,932,341.6,934.2,341.9,936.4,341.3,937.5,340.6,938.5,339.4,939.9,334.9,940.4,328.9,940,323.1,939.3,320.9,938.5,318.7,938.5,316.2,939.4,315.1,940.5,313.2,940.8,308.3,940,306,939.6,304.9,940.1,302.5,941,300.8,942,298.8,942.8,295.1,942,291.7,939.6,288.8,937.9,287.6,935.7,286.6,933.6,286.3,933.6,286.3"></polygon><polygon style="fill:#000000" id="path999" points="498.4,282.8,496.1,283.1,493.9,283.8,492.5,284.7,490.4,287,489.4,289.7,489.4,292.9,489.9,294.5,490.4,296.2,490.4,299.1,490,300.5,489.6,302.1,490,305.3,491,307.5,492,309.8,492.3,312.9,491.5,314.6,490.8,316.4,490.6,320.5,491.1,323.6,491.8,327.5,491.9,332,491.4,334.7,491.2,336.4,492.1,339,493.3,340.4,494.4,341.3,496.5,342.5,499.6,342.7,502.9,340.6,504.6,336.3,504.6,333.5,504.4,329,505,323.6,505.4,320.6,505.1,316.3,504.5,314.3,503.8,312.5,503.8,309.9,504.4,308.7,505,307,505.7,300.7,505.8,293.2,505.2,287.1,504.7,285.6,503.5,284.4,500.3,283,498.4,282.8,498.4,282.8"></polygon><polygon style="fill:#000000" id="path997" points="977.6,282.3,976.4,282.5,973.9,283.5,972.5,284.4,970.9,285.8,968.8,289,968.2,292.5,968.9,296.2,969.9,298.2,971,300.3,971.2,303.4,970.3,305.4,969.5,307.5,969.5,310.6,970.4,312.8,971.2,314.8,971.5,317.6,971.1,318.8,970.4,322.3,970.1,327.7,970.5,332.4,971.9,337.7,973.4,339.8,974.2,340.3,976.2,340.8,979.7,340,981.4,338.7,982.5,337.1,984.1,332.5,984.7,327,984.2,321.8,983.5,319.8,982.7,317.9,982.7,314.9,983.6,312.7,984.4,310.7,984.6,307.3,984.1,305.2,983.5,303,983.8,299.9,984.9,297.9,985.8,296.2,986.9,293,986.7,290,985.3,287.3,984.1,286,982.4,284.4,979.1,282.6,977.6,282.3,977.6,282.3"></polygon><polygon style="fill:#000000" id="path995" points="455.2,282,453.5,282.2,450,284,448.3,285.5,446.5,287.4,445.3,290.2,445.5,291.8,446.1,295.3,446.4,300,446.7,302.5,447.7,306.8,448.4,308.3,449.4,309.9,449.5,312.5,448.6,314.4,447.4,317.4,447.3,320.6,448.5,322.5,449.5,323.5,450.6,324.5,453.3,325.8,454.5,326,456.6,325.7,459.9,323.3,461.6,319.5,461.4,315.2,460.4,313.2,459.6,311.9,459.9,309.4,461,307.4,462,305.6,462.8,302.3,462.5,300.4,462.4,296.9,463,293.5,463.5,291.7,463.3,288.7,462.5,287.1,461.1,284.8,457.3,282.3,455.2,282,455.2,282"></polygon><polygon style="fill:#000000" id="path993" points="541.2,281.4,540,281.5,538.9,281.9,537,282.8,534.2,285.4,532.7,288.7,532.7,292.2,533.3,294,534,295.6,534.2,298.6,533.8,300.4,533.3,302.3,533.8,305.4,534.9,307.4,536.1,309.4,536.4,311.9,535.6,313.2,534.9,314.5,534.1,317.9,534.2,321.9,535,325.5,535.7,327,536.5,328.6,536.7,331.1,536.2,332.5,535.2,335.2,535.4,338.5,536.5,340.5,537.5,341.5,539.7,343.3,541.5,344,542.4,343.8,544.5,342.4,546.5,340.3,547.8,338.1,548,337.1,547.7,334.9,546.8,332.5,546.3,331.1,546.5,328.6,547.3,327,548,325.6,548.8,322,548.9,317.9,548.4,314.1,547.8,312.5,547.3,311.1,547.5,308.6,548.3,307.1,548.9,305.7,549.7,301.8,549.8,299.9,550,295.9,550.5,292.6,550.8,290.5,549.6,286.6,546.9,283.4,543.2,281.6,541.2,281.4,541.2,281.4"></polygon><polygon style="fill:#000000" id="path991" points="585.5,278.6,583.1,279,579,281.6,576.5,285.8,576.1,290.6,577,293,577.3,294,577.3,296.4,576.9,297.9,576.4,299.6,576.9,302.9,577.9,305,579,307.3,579.3,310.3,578.5,312,578,313.4,577.5,316.7,578.3,322.5,579.7,326.3,580.4,327.8,580.3,330,579.5,331.2,578.8,332.4,578.1,334.8,578.3,337.2,579.5,339.5,580.5,340.5,581.6,341.5,584,342.8,585,343,586.1,342.8,588.4,341.5,590.5,339.3,591.8,336.9,592,335.8,591.5,333.5,590.5,331.2,589.7,330,589.6,327.8,590.3,326.3,591.2,324.4,592.3,320.2,592.6,316.1,592.1,312.4,591.5,311,590.6,309.2,590.6,307.1,591.5,306,592.2,304.9,593,301.3,593,298.9,593.1,293.7,593.6,288.9,593.8,286.4,593,283.1,591.7,281.5,590.4,280.1,587.4,278.7,585.5,278.6,585.5,278.6"></polygon><polygon style="fill:#000000" id="path989" points="629.4,276.9,627.4,277.1,623.6,278.6,621.9,279.9,620.8,281.1,619.5,283.4,619.1,285.8,619.7,288.4,620.4,289.8,621.1,291.4,621.2,294.5,620.7,296.6,620.3,298.9,620.7,302.2,621.8,304.1,622.8,306,623.1,308.6,622.5,310,621.7,311.6,621,314.8,621.4,317.9,622.8,320.8,623.9,322.1,625.2,323.2,627.5,324.6,629.7,324.8,632,323.9,633.3,323,634.5,321.9,636.1,319.3,636.6,316.4,636.1,313.2,635.4,311.5,634.5,309.4,634.7,306.2,635.9,303.9,637,301.8,637.6,298.7,637.2,297.1,636.6,293.2,636.7,287.8,636.9,284.3,636.2,280.5,634.9,279.2,633.7,278.2,630.9,277.1,629.4,276.9,629.4,276.9"></polygon><polygon style="fill:#000000" id="path987" points="672.2,272.6,670.7,272.7,667.7,273.7,666.3,274.6,665,275.8,663.1,278.3,662.4,281.2,662.9,284.4,663.5,286.1,664.4,288.2,664.7,291.1,664.2,292.6,663.3,295.1,663.8,299.5,665.3,302.1,666.6,304.1,666.8,307,665.7,309.3,665,310.9,664.3,314,664.9,316.8,666.6,319.7,668,321.1,669.2,322.3,671.4,323.7,673.3,323.7,675.5,322.3,676.9,321.1,678.2,319.7,679.8,316.3,680,312.7,678.9,309.2,677.9,307.6,676.8,306.1,676.6,304.2,677.3,303.2,679,300.8,680.3,297,680.3,294.6,680,293.5,679.6,292.1,679.9,289.1,680.5,287.3,681.2,285.5,681.9,282.4,681.6,279.7,680.3,277.2,679.2,275.9,677.7,274.5,674.1,272.8,672.2,272.6,672.2,272.6"></polygon><polygon style="fill:#000000" id="path985" points="714.9,270,712.5,270.3,708.7,272.7,706.6,276.7,706.6,281.7,707.5,284.3,708.2,286.1,708.5,288.7,708.1,289.9,707.5,291.3,707,294.2,707.4,297.2,708.7,300,709.7,301.2,711.2,302.8,711.4,304.9,710.2,306.3,709.1,307.8,707.8,311.4,707.9,315.3,709.3,319.1,710.5,320.8,712.2,323.1,712.4,326.6,711,328.7,710.1,330,709.2,332.5,709.3,335,710.5,337.4,711.5,338.5,712.6,339.5,714.9,340.7,717.2,340.8,719.5,339.8,720.7,338.8,721.7,337.8,722.8,335.5,722.7,333.1,721.5,330.5,720.5,329.2,718.8,327,718.7,324,720.4,322.1,721.5,320.6,723,316.8,723.5,314.4,723.7,311.6,722.9,308.1,721.6,306.3,720.2,304.5,720.2,302.3,721.6,300.9,723,299.4,723.9,295.7,723.6,292.2,723.4,289,723.9,284.9,724.6,283.4,725.3,282.3,725.9,280,725.4,276.6,722.6,272.7,717.8,270.3,714.9,270,714.9,270"></polygon><polygon style="fill:#000000" id="path983" points="759.6,263,756.6,263.4,751.9,266,749.4,270.5,749.7,276.1,750.9,279.1,751.8,281,752.1,283.6,751.4,285,750.7,286.5,750.1,289.3,750.5,292.1,751.9,294.9,752.9,296.4,754.6,298.6,754.8,301.6,753.4,303.8,752.1,305.9,751.3,309.7,751.5,312.5,752,314.7,753.6,319.2,754.5,320.9,755.9,322.9,755.8,325.5,754.4,327.2,753.4,328.6,752.3,331.3,752.3,333.9,753.4,336.4,754.5,337.5,755.6,338.5,757.7,339.7,759.8,339.8,762.1,338.8,763.4,337.9,764.4,336.9,765.8,334.2,765.9,331.2,765,328.2,764,326.8,762.9,325.3,763.1,322.9,764.5,320.9,765.7,318.9,767,314,767,308.7,765.7,304.1,764.6,302.3,763.2,300.5,763.4,298.3,765,296.8,766.3,295.6,768,293,768.6,290.2,768.2,287.3,767.5,285.7,766.7,283.7,766.9,280.7,768.1,278.6,769.2,275.9,769.4,270.5,766.9,266.1,763.7,263.8,761.1,263.1,759.6,263,759.6,263"></polygon><polygon style="fill:#000000" id="path981" points="802.7,255.6,800,256,795.5,258.4,794,260.3,793.1,261.9,792.2,264.8,792.3,267.6,793.4,270.5,794.4,272,795.7,274.1,795.9,277.2,794.7,279.6,794,281.5,793.3,284.8,793.9,287.7,795.7,290.5,797.1,291.9,799,293.8,799.9,296.2,799.2,297.3,798.5,297.7,797.4,298.2,795.8,300.3,794.7,303.4,794.4,307.2,794.6,309.3,795.4,313.3,797.1,318.1,798.4,319.8,799,320,799.5,320.1,800,321.1,799.3,323.7,798.1,325.7,797.1,327.3,796.1,331.9,796.3,336.9,797.6,341.2,798.6,342.7,799.7,343.7,801.9,344.8,804.1,344.7,806.3,343.6,807.5,342.6,808.7,341.2,809.8,337.3,809.9,334.1,809.8,330.9,808.7,326.8,807.5,325.1,806.2,323.6,805.8,321.7,806.6,320.9,808.1,319.3,810.1,314.6,810.7,311.2,811.1,306.7,810.7,302.3,809.7,300.4,809,299.5,808.2,298.5,807.2,296.7,807.2,295,808.2,293.3,809,292.5,810.8,290.1,812.1,286.9,812.7,284.8,812.2,281.5,811.1,279.4,809.9,277.2,810.1,274.2,811.6,271.9,812.9,269.8,813.8,266.3,813.7,264.4,813.3,262.8,812.2,260.1,810.4,258,807.9,256.6,806.3,256.1,804.5,255.7,802.7,255.6,802.7,255.6"></polygon><polygon style="fill:#000000" id="path979" points="845.7,247.1,844.4,247.2,841.7,248.2,840.3,249,838.3,250.5,836,254.7,835.7,259.6,837.5,264.5,839.2,266.7,840.4,268.1,840.2,270.5,838.7,272.8,836.8,276,836,278.4,836.4,280.5,839.1,285.4,840.9,287.4,841.8,288.4,842.8,290.4,842.7,292.5,841.4,294.6,840.4,295.7,839.1,297.1,838.2,300,838.4,302.3,838.8,306.2,839,309.6,839.2,311.1,840.5,314.6,841.4,316.3,842.4,317.9,843.1,320.1,842.8,320.6,841.7,322.1,840.3,324.7,839.9,326.3,839.6,329.6,840.3,332.7,841.8,335.2,842.8,336,844.9,336.8,849.2,336.3,851,335,852,333.8,853.3,331.3,853.6,328.6,852.8,325.4,852.1,323.6,850.9,321,850.8,317.9,851.9,315.9,852.7,314,854.1,308.4,854.5,305.3,854.8,301.2,854,297.1,852.5,295.5,850.3,293.7,849,293,848.3,292.6,847.7,291.6,847.7,290.8,849.1,289,850.6,288,853.1,286,855.9,282.2,856.9,279.5,857,278.3,856.2,275.9,854.4,272.6,852.9,270.4,852.9,267.7,854.4,266.1,856.1,263.9,857.6,259,856.8,254.1,853.8,250,851.5,248.6,848.5,247.4,845.7,247.1,845.7,247.1"></polygon><polygon style="fill:#000000" id="path977" points="889.7,243,887.1,243.1,883.6,244.4,882,245.9,880.3,247.7,878.5,251.2,878.6,255,880.8,260,882.7,263.1,883.6,264.6,883.4,266.9,882.2,268.5,881.3,269.9,880.2,273.2,880,274.8,880.2,276.8,882.4,280.6,885,283.1,887.8,285.8,888.7,288.1,887.3,289.5,886,290.4,884.5,291.5,882.3,294.3,881.2,297.3,881.3,300.3,881.9,301.8,882.5,304.1,882.4,307.1,882.2,308.9,883.2,312.2,884.3,314.1,885.7,316.3,885.9,318.9,884.9,320.6,884,322.5,883,327.5,883,333,884.1,337.7,885.1,339.4,886.1,340.5,888.4,341.7,890.8,341.8,893.3,340.6,894.5,339.5,895.8,338,896.9,334,897,330.4,896.9,327.1,895.9,322.4,895,320.5,893.9,318.6,894.1,316.1,895.4,314.2,896.6,312.3,897.7,307,897.8,302.4,897.8,297.6,896.8,293,895.3,291.4,893.2,289.7,891.9,289,891.3,288.9,891,288.1,892.9,285.4,895.5,282.7,897.7,280.4,899.8,276.8,900,274.9,899.8,273.4,898.8,270.2,898,269,896.6,267,896.8,264,898.5,261.6,899.6,260,901.2,256.7,901.7,253.6,901.2,250.6,900.6,249.2,899.7,247.6,897.6,245.3,895,243.8,891.7,243.1,889.7,243,889.7,243"></polygon><polygon style="fill:#000000" id="path975" points="933.7,236,931.9,236.1,928.8,236.8,926.3,238.3,924.3,240.7,923.4,242.2,922.8,243.8,922.2,247.2,922.6,250.8,923.9,254.1,924.9,255.6,926.3,257.9,926.9,261.2,926.1,263.1,925.5,264,924.2,266,923.4,270.6,924.8,275.3,928,279.2,930.3,280.5,932.6,281.5,933.8,282,935.1,281.4,937.8,280.1,940,278.7,943,275.1,943.9,270.7,942.8,266,941.5,263.6,939.8,260.9,939.8,257.8,941.5,256.2,943.4,254.2,945.5,249.9,945.5,245.4,943.3,241,941.4,239.1,939.5,237.6,935.9,236.1,933.7,236,933.7,236"></polygon><polygon style="fill:#000000" id="path973" points="978.1,230.8,975.9,230.9,972.1,232,969,233.9,966.8,236.5,965.5,239.6,965.2,243.1,966,246.7,968,250.2,969.4,251.9,971.4,254.1,971.6,256.9,969.7,258.8,968.1,260.6,966.6,264.1,966.5,266.4,966.6,268.2,967.4,271.2,969.1,273.7,971.8,275.7,973.5,276.6,975.8,277.6,979.2,277.5,981.6,276.4,983.9,275,986.8,271.5,987.8,267.1,986.8,262,985.4,259.3,984,256.7,983.7,253.9,984.7,252.3,986.7,249.5,989.2,245.3,990,242.3,989.2,239.3,988.4,237.5,987.6,235.9,985.5,233.5,982.9,231.8,979.8,230.9,978.1,230.8,978.1,230.8"></polygon><polygon style="fill:#000000" id="path971" points="454.6,170.2,453.7,170.2,452.8,170.2,450,170.8,445.1,173.4,441.4,177.6,439.3,182.8,439,185.7,439.2,187.4,440.4,191.2,442.5,194.8,445.2,197.7,446.7,198.8,448.7,199.7,452.6,200.7,456.6,200.7,460.4,199.7,463.8,197.8,466.6,195.2,468.7,191.9,469.8,188.1,470,186,469.7,182.7,467.4,177,463.3,172.8,457.7,170.5,454.6,170.2,454.6,170.2"></polygon><polygon style="fill:#000000" id="path969" points="497.8,167,496.1,167.1,492.6,167.8,491.1,168.5,489.6,169.4,486.8,171.8,484.4,174.8,482.9,177.9,482.4,179.5,482.3,182.1,483.5,187.5,486.5,192.3,490.8,195.9,493.3,196.9,495.8,197.4,500.9,197.2,505.7,195.5,509.6,192.6,511,190.7,511.9,188.9,512.9,184.5,512.9,179.6,512,175.2,511.1,173.4,510.1,172,507.3,169.7,503.7,168,499.8,167.1,497.8,167,497.8,167"></polygon><polygon style="fill:#000000" id="path967" points="541.6,162.2,539.6,162.3,535.6,163.3,533.7,164.3,531.8,165.6,528.9,168.3,527,171.5,526.1,175.2,526,177.3,526.2,179.8,527.5,184.5,529.9,188.5,533.1,191.4,535,192.3,537.6,192.7,541.9,192.9,545.2,192.7,550.9,190.6,554.9,186.5,557.1,180.8,557.3,177.4,557,174.2,554.5,168.8,550.1,164.7,544.6,162.5,541.6,162.2,541.6,162.2"></polygon><polygon style="fill:#000000" id="path965" points="585.4,155.1,582.5,155.3,577.1,157.2,572.7,160.9,569.9,166.4,569.3,169.7,569.3,172,570.2,176.7,572.2,180.8,575.2,184,577,185.2,579.7,186.3,585.6,187,591.5,185.8,596.5,182.8,598.3,180.8,599.4,179,600.6,174.7,600.8,169.8,599.9,165.2,599,163.2,597.7,161.3,594.7,158.2,591.2,156.2,587.3,155.2,585.4,155.1,585.4,155.1"></polygon><polygon style="fill:#000000" id="path963" points="628.2,146.3,626,146.6,621.4,148.3,617.3,151.2,614.1,155.1,613.1,157.3,612.2,160.7,612.6,167.4,615.5,173.3,620.6,177.7,623.9,179.1,626.8,179.5,634,178.6,637.2,177.4,639.6,175.7,643.3,170.5,645,164,644.4,157.6,643.2,154.8,641,152.2,634.4,147.9,630.7,146.6,629.5,146.4,628.2,146.3,628.2,146.3"></polygon><polygon style="fill:#000000" id="path961" points="672.2,134,670.3,134.1,666.6,135,663.3,136.8,660.4,139.2,658.1,142.2,656.3,145.6,655.3,149.4,655.1,153.3,655.4,155.3,656,157.1,658.3,160.9,661.6,164.5,665.4,167.1,667.2,167.9,669.6,168.4,674.6,168.3,679.3,166.7,683.7,163.7,685.7,161.7,687.2,159.6,689.1,155.2,689.5,150.6,688.7,146.1,686.6,141.9,683.6,138.4,679.6,135.7,674.8,134.2,672.2,134,672.2,134"></polygon><polygon style="fill:#000000" id="path959" points="715.1,130.3,712.4,130.6,709.8,131.3,708,132.2,704.4,135.2,701.2,138.9,699,142.8,698.4,144.5,698.2,147.1,699,152.4,701.4,157.3,705.1,161.5,707.4,163.1,709,163.9,713,164.8,717.5,164.9,721.8,164.1,723.7,163.4,725.3,162.5,728.1,160.1,731.3,155.6,733.1,148.5,732.6,143,731.3,139.7,730.3,138.1,728.8,136.4,725.3,133.6,721.4,131.6,717.2,130.5,715.1,130.3,715.1,130.3"></polygon><polygon style="fill:#000000" id="path957" points="759.6,119,757.6,119.1,753.5,120.1,751.4,120.9,749.7,121.8,746.7,124,744.3,126.8,742.5,130.3,741.8,132.2,741.3,135.1,741.9,141.2,744.5,147.1,748.7,151.7,751.2,153.3,754.3,154.5,760.9,154.9,767.3,153,772.6,149.1,774.6,146.4,775.8,144.2,777.4,139.9,777.7,136,777,132.3,776.2,130.4,774.7,127.8,771.1,123.6,766.8,120.7,762.1,119.2,759.6,119,759.6,119"></polygon><polygon style="fill:#000000" id="path955" points="890,105.4,886.8,105.6,880.7,107.7,878,109.7,875.3,112.7,871.6,118.8,870.4,122.1,870.5,123.2,871.1,125.4,872,128.8,872.6,130.7,874.7,134.5,877.6,138,880.8,140.7,882.5,141.6,884.3,142.3,888.2,142.9,892.3,142.6,896.5,141.4,898.6,140.5,900.8,139.2,904.5,136,907.1,132.1,908.6,127.8,908.9,123.3,908.1,118.8,906.1,114.6,903,110.7,900.9,109.1,898.4,107.5,892.8,105.6,890,105.4,890,105.4"></polygon><polygon style="fill:#000000" id="path953" points="803.5,105.1,800.1,105.4,796.5,106.4,794.7,107.2,791.4,109.4,787.5,113.7,784.5,120.6,784.2,126.2,784.9,129.9,785.6,131.6,787.8,134.9,792.7,139.7,796,141.9,797.4,142.4,800.7,142.6,808.5,141.4,811.9,140,813.7,139,816.7,136.6,819,133.6,820.8,129.7,821.6,127.4,822.4,124.2,821.9,119.9,820.3,116.8,818.7,114.1,814.9,109.8,810.7,106.8,806,105.3,803.5,105.1,803.5,105.1"></polygon><polygon style="fill:#000000" id="path951" points="845.8,100,842.3,100.3,839.3,101.1,837.2,102.1,833.3,105.1,830.2,109.2,827.9,114.3,827.1,117.1,826.7,119.6,827.4,123.6,828.8,126.3,831.1,129.9,837,135.2,840.5,136.8,842.2,137.3,846.2,137.6,850.5,136.9,854.7,135.5,856.7,134.5,858.4,133.2,862,129.4,865,125.1,866.5,121.3,866.5,120,865.9,117.7,865,114.2,864.4,112.3,862.2,108.4,859.3,104.9,856,102.2,854.3,101.4,852.5,100.8,848.1,100.1,845.8,100,845.8,100"></polygon><polygon style="fill:#000000" id="path949" points="933.5,96.5,931.6,96.6,928,97.5,922.9,100,917.6,105.5,915,110.7,914.1,114.5,914,116.6,914.3,119.2,916.1,124.3,919.6,128.7,924.6,132.3,927.5,133.7,930.7,134.6,937.4,134.5,943.7,132,948.7,127.6,950.6,124.8,951.9,121.3,953,116.8,953.5,113.9,952.6,109.6,950.9,106.8,949.5,104.8,946.7,101.5,943.6,99.2,940,97.6,937.8,97,935.7,96.6,933.5,96.5,933.5,96.5"></polygon><polygon style="fill:#000000" id="path984" points="977.5,87.2,975.8,87.2,974.1,87.4,970.9,88.1,965.3,91,961,95.7,958.1,102.2,957.2,106,956.7,109.3,957.9,113.6,960.1,116.7,962.9,120.1,969.2,124.6,973,126.1,975.3,126.7,979.3,126.5,982.6,125.5,985.5,124.4,990.7,120.7,994.6,115.8,996.7,110,997,107.1,996.9,105.1,996.1,101.2,993.7,96,988.4,90.7,983.3,88.2,979.5,87.3,977.5,87.2,977.5,87.2"></polygon>
</svg>
