<?xml version="1.0" encoding="UTF-8" standalone="no"?>
<svg
   xmlns:dc="http://purl.org/dc/elements/1.1/"
   xmlns:cc="http://creativecommons.org/ns#"
   xmlns:rdf="http://www.w3.org/1999/02/22-rdf-syntax-ns#"
   xmlns:svg="http://www.w3.org/2000/svg"
   xmlns="http://www.w3.org/2000/svg"
   xmlns:sodipodi="http://sodipodi.sourceforge.net/DTD/sodipodi-0.dtd"
   xmlns:inkscape="http://www.inkscape.org/namespaces/inkscape"
   version="1.1"
   id="svg10"
   xml:space="preserve"
   width="12601.933"
   height="831.35999"
   viewBox="0 0 12601.933 831.35999"
   sodipodi:docname="4 Water access vs GDP mask.svg"
   inkscape:version="1.0beta2 (2b71d25, 2019-12-03)"><metadata
     id="metadata16"><rdf:RDF><cc:Work
         rdf:about=""><dc:format>image/svg+xml</dc:format><dc:type
           rdf:resource="http://purl.org/dc/dcmitype/StillImage" /><dc:title /></cc:Work></rdf:RDF></metadata><defs
     id="defs14"><clipPath
       clipPathUnits="userSpaceOnUse"
       id="clipPath28"><path
         d="M 0,623.52 H 9451.445 V 0 H 0 Z"
         id="path26"
         inkscape:connector-curvature="0" /></clipPath><clipPath
       clipPathUnits="userSpaceOnUse"
       id="clipPath700"><path
         d="M 0,623.52 H 9451.445 V 0 H 0 Z"
         id="path698"
         inkscape:connector-curvature="0" /></clipPath><clipPath
       clipPathUnits="userSpaceOnUse"
       id="clipPath736"><path
         d="M 0,623.52 H 9451.445 V 0 H 0 Z"
         id="path734"
         inkscape:connector-curvature="0" /></clipPath><clipPath
       clipPathUnits="userSpaceOnUse"
       id="clipPath812"><path
         d="M 0,623.52 H 9451.445 V 0 H 0 Z"
         id="path810"
         inkscape:connector-curvature="0" /></clipPath><clipPath
       clipPathUnits="userSpaceOnUse"
       id="clipPath888"><path
         d="M 0,623.52 H 9451.445 V 0 H 0 Z"
         id="path886"
         inkscape:connector-curvature="0" /></clipPath><clipPath
       clipPathUnits="userSpaceOnUse"
       id="clipPath1032"><path
         d="M 0,623.52 H 9451.445 V 0 H 0 Z"
         id="path1030"
         inkscape:connector-curvature="0" /></clipPath><clipPath
       clipPathUnits="userSpaceOnUse"
       id="clipPath1172"><path
         d="M 0,623.52 H 9451.445 V 0 H 0 Z"
         id="path1170"
         inkscape:connector-curvature="0" /></clipPath><clipPath
       clipPathUnits="userSpaceOnUse"
       id="clipPath1356"><path
         d="M 0,623.52 H 9451.445 V 0 H 0 Z"
         id="path1354"
         inkscape:connector-curvature="0" /></clipPath><clipPath
       clipPathUnits="userSpaceOnUse"
       id="clipPath1524"><path
         d="M 0,623.52 H 9451.445 V 0 H 0 Z"
         id="path1522"
         inkscape:connector-curvature="0" /></clipPath><clipPath
       clipPathUnits="userSpaceOnUse"
       id="clipPath1596"><path
         d="M 0,623.52 H 9451.445 V 0 H 0 Z"
         id="path1594"
         inkscape:connector-curvature="0" /></clipPath><clipPath
       clipPathUnits="userSpaceOnUse"
       id="clipPath1756"><path
         d="M 0,623.52 H 9451.445 V 0 H 0 Z"
         id="path1754"
         inkscape:connector-curvature="0" /></clipPath><clipPath
       clipPathUnits="userSpaceOnUse"
       id="clipPath2618"><path
         d="M 0,623.52 H 9451.445 V 0 H 0 Z"
         id="path2616"
         inkscape:connector-curvature="0" /></clipPath><clipPath
       clipPathUnits="userSpaceOnUse"
       id="clipPath2642"><path
         d="M 0,623.52 H 9451.445 V 0 H 0 Z"
         id="path2640"
         inkscape:connector-curvature="0" /></clipPath><clipPath
       clipPathUnits="userSpaceOnUse"
       id="clipPath2662"><path
         d="M 0,623.52 H 9451.445 V 0 H 0 Z"
         id="path2660"
         inkscape:connector-curvature="0" /></clipPath><clipPath
       clipPathUnits="userSpaceOnUse"
       id="clipPath2678"><path
         d="M 0,623.52 H 9451.445 V 0 H 0 Z"
         id="path2676"
         inkscape:connector-curvature="0" /></clipPath><clipPath
       clipPathUnits="userSpaceOnUse"
       id="clipPath2696"><path
         d="M 0,623.52 H 9451.445 V 0 H 0 Z"
         id="path2694"
         inkscape:connector-curvature="0" /></clipPath><clipPath
       clipPathUnits="userSpaceOnUse"
       id="clipPath2712"><path
         d="M 0,623.52 H 9451.445 V 0 H 0 Z"
         id="path2710"
         inkscape:connector-curvature="0" /></clipPath><clipPath
       clipPathUnits="userSpaceOnUse"
       id="clipPath2730"><path
         d="M 0,623.52 H 9451.445 V 0 H 0 Z"
         id="path2728"
         inkscape:connector-curvature="0" /></clipPath><clipPath
       clipPathUnits="userSpaceOnUse"
       id="clipPath2746"><path
         d="M 0,623.52 H 9451.445 V 0 H 0 Z"
         id="path2744"
         inkscape:connector-curvature="0" /></clipPath></defs><sodipodi:namedview
     pagecolor="#545454"
     bordercolor="#666666"
     inkscape:document-rotation="0"
     borderopacity="0.75"
     objecttolerance="10"
     gridtolerance="10"
     guidetolerance="10"
     inkscape:pageopacity="0"
     inkscape:pageshadow="2"
     inkscape:window-width="1440"
     inkscape:window-height="878"
     id="namedview12"
     showgrid="false"
     inkscape:zoom="0.76818292"
     inkscape:cx="922.70286"
     inkscape:cy="362.36611"
     inkscape:window-x="0"
     inkscape:window-y="0"
     inkscape:window-maximized="1"
     inkscape:current-layer="g18" /><g
     id="g18"
     inkscape:groupmode="layer"
     inkscape:label="4 Water access vs GDP"
     transform="matrix(1.3333333,0,0,-1.3333333,0,831.36)"><g
       id="g1706"
       transform="translate(388.6587,407.5692)" /><path
       sodipodi:nodetypes="ccccscsssc"
       inkscape:connector-curvature="0"
       id="path1061"
       d="m 443.25381,265.20692 c 15.62128,-3.90533 537.95779,-4.88165 546.74479,-0.97634 8.787,3.90533 22.4556,271.41974 8.787,277.27772 -13.66867,5.85798 -39.05325,-8.78696 -45.88755,-12.69229 -6.8343,-3.90532 -72.2484,-15.62128 -83.96438,-12.69229 -11.71597,2.92899 -17.57394,10.73963 -38.07689,6.83432 -16.59755,-10e-6 -55.65077,-8.78698 -67.36674,-8.78698 -11.71598,0 -193.22701,-51.49207 -204.98613,-50.64244 -16.51479,1.19324 -95.7235,-3.05571 -111.34478,-5.9847 -15.62128,-2.92899 -3.90532,-192.337 -3.90532,-192.337 z"
       style="fill:#cccccc;stroke:none;stroke-width:0.75000000000000000px;stroke-linecap:butt;stroke-linejoin:miter;stroke-opacity:1;opacity:0.01" /></g></svg>
