<?xml version="1.0" encoding="utf-8"?>
<!-- Generator: Adobe Illustrator 18.0.0, SVG Export Plug-In . SVG Version: 6.00 Build 0)  -->
<!DOCTYPE svg PUBLIC "-//W3C//DTD SVG 1.1//EN" "http://www.w3.org/Graphics/SVG/1.1/DTD/svg11.dtd">
<svg version="1.1" id="Layer_2" xmlns="http://www.w3.org/2000/svg" xmlns:xlink="http://www.w3.org/1999/xlink" x="0px" y="0px"
	 width="9451.45px" height="623.52px" viewBox="0 0 9451.45 623.52" enable-background="new 0 0 9451.45 623.52"
	 xml:space="preserve">
<g opacity="0.75">
	<path d="M5794.37,106.69c0.69,0,1.24-0.56,1.24-1.24c0-0.25-0.09-0.47-0.22-0.67l17.68-20.83c0.13,0.05,0.27,0.08,0.42,0.08
		c0.69,0,1.25-0.56,1.25-1.24c0-0.04-0.02-0.07-0.02-0.11l16.95-9.31c0.23,0.25,0.55,0.41,0.91,0.41c0.29,0,0.55-0.12,0.76-0.28
		l17.15,11.86c-0.03,0.11-0.07,0.22-0.07,0.34c0,0.69,0.56,1.24,1.24,1.24c0.6,0,1.08-0.44,1.2-1.01l16.64-1.59
		c0.17,0.48,0.62,0.83,1.16,0.83c0.69,0,1.24-0.56,1.24-1.24c0-0.19-0.05-0.36-0.12-0.52L5889,69.29c0.21,0.15,0.44,0.26,0.72,0.26
		c0.18,0,0.35-0.04,0.5-0.11l17.57,21.35c-0.08,0.17-0.14,0.35-0.14,0.54c0,0.69,0.56,1.24,1.24,1.24c0.55,0,1.01-0.37,1.17-0.87
		l16.73-1.12c0.21,0.4,0.61,0.68,1.09,0.68c0.69,0,1.24-0.56,1.24-1.24c0-0.28-0.11-0.53-0.27-0.74l17.68-26.21
		c0.12,0.04,0.24,0.08,0.37,0.08c0.69,0,1.24-0.56,1.24-1.24c0-0.69-0.56-1.24-1.24-1.24s-1.24,0.56-1.24,1.24
		c0,0.3,0.12,0.57,0.3,0.78l-17.66,26.18c-0.13-0.05-0.27-0.09-0.42-0.09c-0.65,0-1.16,0.5-1.22,1.13l-16.59,1.11
		c-0.14-0.53-0.61-0.93-1.18-0.93c-0.24,0-0.44,0.08-0.63,0.2l-17.53-21.31c0.13-0.2,0.23-0.42,0.23-0.68
		c0-0.69-0.56-1.24-1.24-1.24s-1.24,0.56-1.24,1.24c0,0.16,0.04,0.32,0.09,0.46L5871.3,82.9c-0.19-0.13-0.41-0.22-0.66-0.22
		c-0.59,0-1.06,0.42-1.19,0.97l-16.65,1.59c-0.18-0.46-0.63-0.79-1.15-0.79c-0.32,0-0.6,0.13-0.82,0.32l-17.1-11.83
		c0.04-0.13,0.08-0.26,0.08-0.41c0-0.69-0.56-1.24-1.24-1.24s-1.24,0.56-1.24,1.24c0,0.07,0.03,0.14,0.04,0.21l-16.92,9.29
		c-0.23-0.29-0.57-0.49-0.96-0.49c-0.68,0-1.24,0.56-1.24,1.24c0,0.29,0.11,0.54,0.27,0.75l-17.64,20.79
		c-0.16-0.07-0.33-0.11-0.51-0.11c-0.69,0-1.24,0.56-1.24,1.24C5793.13,106.13,5793.68,106.69,5794.37,106.69z"/>
	<path d="M5946.9,69.56c0.69,0,1.24-0.56,1.24-1.24c0-0.68-0.56-1.24-1.24-1.24s-1.24,0.56-1.24,1.24c0,0.3,0.12,0.56,0.29,0.78
		l-17.68,25.75c-0.13-0.04-0.26-0.08-0.4-0.08c-0.62,0-1.11,0.46-1.2,1.05l-16.62,0.91c-0.17-0.48-0.62-0.83-1.16-0.83
		c-0.21,0-0.39,0.06-0.56,0.15l-17.6-21.72c0.13-0.2,0.23-0.42,0.23-0.68c0-0.68-0.56-1.24-1.24-1.24s-1.24,0.56-1.24,1.24
		c0,0.26,0.1,0.49,0.24,0.69l-17.46,22.17c-0.18-0.1-0.38-0.18-0.6-0.18c-0.66,0-1.2,0.53-1.23,1.18L5852.84,98
		c-0.12-0.56-0.6-0.98-1.19-0.98c-0.37,0-0.69,0.16-0.91,0.42l-17.04-10.93c0.03-0.11,0.07-0.22,0.07-0.34
		c0-0.69-0.56-1.24-1.24-1.24s-1.24,0.56-1.24,1.24c0,0.04,0.02,0.07,0.02,0.1l-16.86,6.83c-0.23-0.28-0.56-0.48-0.96-0.48
		c-0.68,0-1.24,0.56-1.24,1.24c0,0.33,0.14,0.64,0.35,0.86l-2.68,4.97l-14.8,14.7c-0.21-0.16-0.46-0.27-0.74-0.27
		c-0.69,0-1.24,0.56-1.24,1.24c0,0.69,0.56,1.24,1.24,1.24s1.24-0.56,1.24-1.24c0-0.15-0.04-0.29-0.09-0.42l13.26-13.17l-2.98,5.52
		l-2.88,3.6l-8.01,8.65c-0.17-0.09-0.35-0.16-0.56-0.16c-0.69,0-1.24,0.56-1.24,1.24c0,0.3,0.12,0.56,0.3,0.78
		c-0.18,0.21-0.3,0.48-0.3,0.78c0,0.16,0.04,0.3,0.09,0.44c-0.05,0.14-0.09,0.28-0.09,0.44c0,0.69,0.56,1.24,1.24,1.24
		s1.24-0.56,1.24-1.24c0-0.16-0.04-0.3-0.09-0.44c0.05-0.13,0.08-0.26,0.08-0.41l5.3-5.81l-6.28,11.65
		c-0.08-0.02-0.16-0.05-0.25-0.05c-0.69,0-1.24,0.56-1.24,1.24s0.56,1.24,1.24,1.24s1.24-0.56,1.24-1.24c0-0.35-0.15-0.66-0.38-0.89
		l7.57-14.04l7.73-8.49l0.97-0.91l-15.96,29.35c-0.1-0.57-0.58-1.01-1.18-1.01c-0.68,0-1.23,0.55-1.23,1.23
		c0,0.68,0.55,1.23,1.23,1.23c0.16,0,0.31-0.04,0.45-0.09l-0.19,0.35c-0.09-0.02-0.17-0.05-0.26-0.05c-0.69,0-1.24,0.56-1.24,1.24
		c0,0.69,0.56,1.24,1.24,1.24s1.24-0.56,1.24-1.24c0-0.35-0.14-0.66-0.37-0.88l0.5-0.92l16.49,6.32c0,0.03-0.02,0.06-0.02,0.1
		c0,0.68,0.55,1.23,1.23,1.23s1.23-0.55,1.23-1.23c0-0.17-0.03-0.32-0.1-0.47l17.26-13.86c0.2,0.14,0.43,0.24,0.7,0.24
		c0.68,0,1.23-0.55,1.23-1.23c0-0.68-0.55-1.23-1.23-1.23s-1.23,0.55-1.23,1.23c0,0.16,0.04,0.31,0.09,0.46l-17.27,13.86
		c-0.2-0.14-0.43-0.24-0.68-0.24c-0.4,0-0.73,0.2-0.96,0.49l-16.41-6.29l16.73-30.75c0.2,0.14,0.43,0.23,0.69,0.23
		c0.52,0,0.96-0.32,1.15-0.77l9.35,3.58l-10.87,14.68l0.55,0.41l10.99-14.83l6.63,2.54c0.01,0.68,0.56,1.22,1.24,1.22
		c0.49,0,0.91-0.29,1.11-0.71l16.83,1.07c0.14,0.54,0.6,0.95,1.18,0.95c0.56,0,1.01-0.37,1.17-0.88h16.65
		c0.16,0.5,0.61,0.88,1.17,0.88c0.69,0,1.24-0.56,1.24-1.24c0-0.23-0.08-0.43-0.19-0.62l3.86-4.18l13.27-8.06
		c0.23,0.23,0.54,0.38,0.89,0.38c0.21,0,0.39-0.06,0.56-0.15l17.58,20.13l0,0c-0.12,0.19-0.21,0.4-0.21,0.65
		c0,0.69,0.56,1.24,1.24,1.24c0.54,0,0.99-0.35,1.16-0.83l16.59,2.35c0,0.01-0.01,0.02-0.01,0.03c0,0.69,0.56,1.24,1.24,1.24
		s1.24-0.56,1.24-1.24c0-0.35-0.15-0.66-0.38-0.89l17.76-25.04c0.13,0.04,0.26,0.08,0.4,0.08c0.69,0,1.24-0.56,1.24-1.24
		s-0.56-1.24-1.24-1.24s-1.24,0.56-1.24,1.24c0,0.29,0.12,0.55,0.28,0.76l-17.83,25.13c-0.08-0.02-0.15-0.05-0.24-0.05
		c-0.43,0-0.78,0.23-1.01,0.56l-15.73-2.23l12.89-2.3l2.64,0.52c-0.01,0.05-0.03,0.09-0.03,0.14c0,0.69,0.56,1.24,1.24,1.24
		s1.24-0.56,1.24-1.24c0-0.35-0.14-0.66-0.37-0.88c0.22-0.22,0.36-0.52,0.37-0.86l4.02-6.72l13.4-18.46
		c0.12,0.04,0.24,0.07,0.37,0.07c0.69,0,1.24-0.56,1.24-1.24c0-0.69-0.56-1.24-1.24-1.24s-1.24,0.56-1.24,1.24
		c0,0.3,0.12,0.57,0.3,0.79l-8.89,12.24l3.94-6.59l5.97-9.29c0.64-0.05,1.16-0.57,1.16-1.23c0-0.69-0.56-1.24-1.24-1.24
		s-1.24,0.56-1.24,1.24c0,0.33,0.13,0.62,0.34,0.84l-5.57,9.32l-12.25,19.05c-0.1-0.03-0.2-0.06-0.3-0.06
		c-0.52,0-0.97,0.33-1.15,0.79l-16.65-1.95c-0.13-0.55-0.6-0.98-1.19-0.98c-0.19,0-0.37,0.05-0.53,0.13l-15.13-18.29l15.38,15.17
		l19.35-4.92l19.13-21.55l-0.51-0.46l-19,21.39l-18.77,4.77l-17.99-17.75c0.09-0.17,0.16-0.35,0.16-0.56c0-0.69-0.56-1.24-1.24-1.24
		s-1.24,0.56-1.24,1.24c0,0.16,0.04,0.3,0.1,0.43l-6.2,6.12l-0.32,0.21l-4.14,0.66l11.25-15.57c0.16,0.08,0.34,0.13,0.53,0.13
		c0.25,0,0.46-0.09,0.66-0.22l17.38,18.93c-0.06,0.15-0.09,0.3-0.09,0.47c0,0.69,0.56,1.24,1.24,1.24c0.52,0,0.96-0.32,1.15-0.77
		l16.67-0.14c0.15,0.52,0.61,0.9,1.17,0.9c0.69,0,1.24-0.56,1.24-1.24c0-0.3-0.12-0.57-0.3-0.78l17.65-24.03
		c0.13,0.05,0.27,0.09,0.42,0.09c0.69,0,1.24-0.56,1.24-1.24s-0.56-1.24-1.24-1.24s-1.24,0.56-1.24,1.24c0,0.28,0.11,0.53,0.27,0.74
		l-17.67,24.05c-0.12-0.04-0.24-0.08-0.38-0.08c-0.56,0-1.02,0.38-1.17,0.9l-16.62,0.14c-0.1-0.58-0.59-1.03-1.2-1.03
		c-0.27,0-0.5,0.1-0.7,0.25l-17.36-18.91c0.07-0.16,0.12-0.33,0.12-0.52c0-0.69-0.56-1.24-1.24-1.24s-1.24,0.56-1.24,1.24
		c0,0.24,0.09,0.45,0.21,0.65l-11.7,16.19l-5.29,0.85c-0.05-0.09-0.1-0.18-0.17-0.25c0.23-0.23,0.37-0.54,0.37-0.88
		c0-0.21-0.07-0.4-0.16-0.58l17.5-22.21c0.15,0.07,0.32,0.1,0.49,0.1c0.18,0,0.35-0.04,0.5-0.11l17.62,21.74
		c-0.11,0.18-0.18,0.38-0.18,0.61c0,0.69,0.56,1.24,1.24,1.24c0.59,0,1.06-0.42,1.19-0.97l16.66-0.92c0.19,0.44,0.63,0.75,1.14,0.75
		c0.69,0,1.24-0.56,1.24-1.24c0-0.29-0.12-0.55-0.29-0.77l17.68-25.76C5946.64,69.52,5946.77,69.56,5946.9,69.56z M5852.8,98.69
		l16.78-0.49c0.05,0.09,0.11,0.19,0.18,0.26c-0.23,0.23-0.37,0.54-0.37,0.88c0,0.01,0,0.01,0,0.02l-9.43,3.96l-7.88-3.91
		C5852.42,99.29,5852.68,99.03,5852.8,98.69z M5870.64,105.1c0.03,0,0.06-0.02,0.09-0.02l0.04,0.06l0.16-0.1
		c0.28-0.07,0.51-0.22,0.69-0.44l0.94-0.61l-1.5,2.07c-0.13-0.05-0.27-0.08-0.41-0.08c-0.62,0-1.12,0.47-1.21,1.06l-1.52,0.22
		l-2.28-1.13l4.03-1.54C5869.89,104.89,5870.23,105.1,5870.64,105.1z M5868.99,107.8l0.51-0.07c0.06,0.13,0.14,0.24,0.23,0.34
		c-0.02,0.02-0.03,0.05-0.05,0.07L5868.99,107.8z M5871.88,107.21c0-0.28-0.11-0.53-0.28-0.73l2.53-3.5l5.88-3.79L5871.88,107.21z
		 M5866.22,107.5l-6.63,0.94l4.59-1.75L5866.22,107.5z M5859.94,104.07l1.83,0.91l-2.04-0.81L5859.94,104.07z M5851.65,102.69
		c0.44,0,0.82-0.25,1.04-0.6l5.24,2.09l-5.34,2.24c-0.23-0.27-0.56-0.44-0.93-0.44c-0.23,0-0.43,0.08-0.61,0.18l-6.48-6.79l5.88,1.9
		c-0.01,0.06-0.04,0.11-0.04,0.17C5850.4,102.13,5850.96,102.69,5851.65,102.69z M5852.89,101.44c-0.01-0.68-0.56-1.23-1.24-1.23
		c-0.38,0-0.7,0.18-0.93,0.44l-6.22-2.01l6.91,1.21l7.72,3.83l-0.31,0.13L5852.89,101.44z M5833.74,95.88l1.17,0.38l-1.15-0.2
		c0-0.02,0.01-0.03,0.01-0.04C5833.76,95.96,5833.74,95.92,5833.74,95.88z M5839.03,97.67l6.91,7.69l-11.65-8.53L5839.03,97.67z
		 M5833.74,87.35l16.7,10.71c-0.01,0.07-0.04,0.13-0.04,0.2c0,0.3,0.12,0.56,0.29,0.77l-7.76-1.37l-9.36-9.81
		C5833.67,87.71,5833.73,87.54,5833.74,87.35z M5832.52,88.49c0.21,0,0.39-0.06,0.56-0.15l8.71,9.13l-1.98-0.35l-0.51-0.16
		l-5.77-6.42c0.12-0.19,0.21-0.4,0.21-0.64c0-0.69-0.56-1.24-1.24-1.24c-0.69,0-1.24,0.56-1.24,1.24c0,0.06,0.02,0.1,0.03,0.16
		l-16.87,7.43c0.18-0.22,0.3-0.48,0.3-0.78c0-0.09-0.03-0.17-0.05-0.25l16.92-8.38C5831.83,88.32,5832.15,88.49,5832.52,88.49z
		 M5813.19,95.05c0.09,0.02,0.19,0.06,0.29,0.06c0.69,0,1.25-0.56,1.25-1.24c0-0.05-0.02-0.09-0.03-0.13l16.63-6.74
		c-0.02,0.08-0.05,0.16-0.05,0.25c0,0.07,0.03,0.12,0.04,0.19l-16.95,8.39c-0.23-0.23-0.54-0.38-0.89-0.38
		c-0.22,0-0.42,0.07-0.6,0.18L5813.19,95.05z M5812.26,96.78c0.01,0.16,0.05,0.32,0.12,0.46l-0.79,0.78L5812.26,96.78z
		 M5810.47,100.1l1.78-1.77c0.01,0.23,0.1,0.44,0.22,0.62l-4.25,5.33L5810.47,100.1z M5796.1,119.46l-0.57,0.72
		c-0.02-0.04-0.04-0.08-0.06-0.12L5796.1,119.46z M5802.25,113.9l-6.75,7.41l4.16-5.22l2.87-2.71L5802.25,113.9z M5802.72,112.27
		l0.74-0.93l0.41-0.44l-0.31,0.58L5802.72,112.27z M5812.25,102.93l-2.18,2.4l-4.92,4.65l0.59-1.09l6.58-7.11
		c-0.03,0.1-0.06,0.2-0.06,0.31c0,0.03,0.01,0.05,0.02,0.08c-0.01,0.06-0.03,0.11-0.03,0.16c0,0.11,0.04,0.22,0.06,0.32
		C5812.28,102.74,5812.25,102.83,5812.25,102.93z M5814.45,101.37c-0.22-0.3-0.57-0.51-0.97-0.51c-0.14,0-0.26,0.04-0.39,0.08
		l0.49-0.53l18.99-6.98l-0.24-0.64l-19.14,7.03l-3.92,4.23l3.71-4.65c0.15,0.07,0.32,0.11,0.5,0.11c0.69,0,1.25-0.56,1.25-1.24
		c0-0.06-0.02-0.1-0.03-0.16l16.87-7.43c0.23,0.27,0.56,0.45,0.94,0.45c0.19,0,0.37-0.05,0.54-0.13l4.97,5.54l-4.2-1.36c0,0,0,0,0,0
		c0-0.69-0.56-1.24-1.24-1.24s-1.24,0.56-1.24,1.24c0,0.01,0,0.01,0,0.02L5814.45,101.37z M5831.29,95.94
		c0,0.02-0.01,0.03-0.01,0.05l-1.03,0.33L5831.29,95.94z M5814.68,102.72c0-0.02-0.01-0.05-0.01-0.07c0.03-0.1,0.06-0.21,0.06-0.32
		c0-0.06-0.03-0.11-0.03-0.16c0-0.03,0.02-0.05,0.02-0.08c0-0.02-0.01-0.03-0.01-0.05l16.78-5.39c0.03,0.05,0.07,0.08,0.1,0.13
		l-7.17,9.68L5814.68,102.72z M5850.48,110.72l-16.75-1.07c-0.07-0.61-0.58-1.1-1.21-1.1c-0.45,0-0.82,0.25-1.04,0.6l-6.41-2.45
		l7.06-9.53c0.12,0.04,0.25,0.07,0.39,0.07c0.3,0,0.56-0.12,0.77-0.29l14.87,10.89l2.41,2.68
		C5850.53,110.59,5850.5,110.65,5850.48,110.72z M5851.65,108.55c-0.34,0-0.65,0.14-0.87,0.36l-2.15-1.58l-8.41-9.36l2.97,0.96
		l7.37,7.73c-0.09,0.17-0.15,0.36-0.15,0.57c0,0.69,0.56,1.24,1.24,1.24s1.24-0.56,1.24-1.24c0-0.06-0.03-0.11-0.04-0.17l5.97-2.51
		l4.42,1.76l-6.71,2.56l-3.72,0.53C5852.64,108.91,5852.19,108.55,5851.65,108.55z M5852.77,110.3c0.03-0.07,0.04-0.14,0.06-0.22
		l0.82-0.12L5852.77,110.3z M5869.46,110.79l-16.03,0l3.28-1.25l10.8-1.53l1.92,0.77c-0.01,0.05-0.03,0.09-0.03,0.14
		c0,0.48,0.29,0.89,0.69,1.1C5869.77,110.17,5869.55,110.44,5869.46,110.79z M5871.2,110.01
		C5871.2,110.01,5871.19,110.01,5871.2,110.01c0-0.01,0.01-0.02,0.03-0.03L5871.2,110.01z M5871.79,109.38
		c0.06-0.14,0.09-0.3,0.09-0.47c0-0.12-0.04-0.22-0.07-0.33l1.62-0.98L5871.79,109.38z M5875.11,105.77l-2.1,1.28l9.52-9.39
		l0.08-0.01L5875.11,105.77z M5888.51,97.63l-11.28,6.85l6.47-7.01l4.98-0.8c0.01,0.01,0.01,0.02,0.02,0.03
		c-0.14,0.2-0.23,0.42-0.23,0.68C5888.46,97.47,5888.5,97.54,5888.51,97.63z M5889.73,94.81c-0.67,0-1.21,0.53-1.23,1.19l-4.05,0.65
		l0.77-0.83l4.33-2.79l5.18,7.24l-3.95-3.59c0.11-0.19,0.19-0.39,0.19-0.62C5890.98,95.37,5890.42,94.81,5889.73,94.81z M5890.76,98
		c0.05-0.09,0.09-0.19,0.12-0.3l5.75,5.23l7.09,9.91L5890.76,98z M5926.94,116.7l-1.04-0.2l0.92-0.16c0.05,0.1,0.11,0.19,0.19,0.27
		C5926.98,116.63,5926.97,116.67,5926.94,116.7z M5925.7,115.83l-1.67,0.3l-6.34-1.24L5925.7,115.83z M5908.89,114.82
		c0.5,0,0.93-0.3,1.12-0.73l12.15,2.37l-12.22,2.18c-0.21-0.37-0.59-0.63-1.05-0.63c-0.19,0-0.37,0.05-0.53,0.13l-9.32-13.02
		l8.73,7.94c-0.08,0.16-0.12,0.33-0.12,0.52C5907.65,114.26,5908.21,114.82,5908.89,114.82z M5897.15,102.47l-7.23-10.1l-0.19-0.27
		l-2.66,1.71l2.2-2.39c0.14,0.06,0.3,0.09,0.46,0.09c0.12,0,0.24-0.04,0.35-0.07l15.34,18.54L5897.15,102.47z M5877.37,98.48
		l3.27-0.52l-5.41,3.49L5877.37,98.48z M5871.88,99.36l4.54-0.73l-2.77,3.83l-1.81,1.17c-0.11-0.58-0.59-1.02-1.2-1.02
		c-0.69,0-1.24,0.56-1.24,1.24c0,0.04,0.02,0.07,0.02,0.1l-4.62,1.76l-4.02-1.99l8.84-3.72c0.22,0.34,0.59,0.58,1.02,0.58
		C5871.31,100.59,5871.86,100.04,5871.88,99.36z"/>
</g>
</svg>
