<?xml version="1.0" encoding="utf-8"?>
<!-- Generator: Adobe Illustrator 18.0.0, SVG Export Plug-In . SVG Version: 6.00 Build 0)  -->
<!DOCTYPE svg PUBLIC "-//W3C//DTD SVG 1.1//EN" "http://www.w3.org/Graphics/SVG/1.1/DTD/svg11.dtd">
<svg version="1.1" id="AR_x5F_layer" xmlns="http://www.w3.org/2000/svg" xmlns:xlink="http://www.w3.org/1999/xlink" x="0px"
	 y="0px" width="9451.45px" height="623.52px" viewBox="0 0 9451.45 623.52" enable-background="new 0 0 9451.45 623.52"
	 xml:space="preserve">
<rect x="5984.33" y="157.18" opacity="0.75" width="2.74" height="81.77"/>
<rect x="5933.64" y="148.69" opacity="0.75" width="2.74" height="90.26"/>
<rect x="5894.4" y="160.92" opacity="0.75" width="2.74" height="78.03"/>
<rect x="5854.62" y="155.51" opacity="0.75" width="2.74" height="83.44"/>
<rect x="5991.26" y="225.56" opacity="0.75" width="2.71" height="13.39"/>
<rect x="5940.57" y="226.72" opacity="0.75" width="2.71" height="12.23"/>
<rect x="5901.34" y="226.52" opacity="0.75" width="2.71" height="12.43"/>
<rect x="5861.56" y="226.52" opacity="0.75" width="2.71" height="12.43"/>
<rect x="5987.79" y="189.37" opacity="0.75" width="2.74" height="49.58"/>
<rect x="5937.1" y="191.24" opacity="0.75" width="2.74" height="47.71"/>
<rect x="5897.87" y="190.28" opacity="0.75" width="2.74" height="48.67"/>
<rect x="5858.09" y="190.54" opacity="0.75" width="2.74" height="48.42"/>
<rect x="5867.46" y="159.14" opacity="0.75" width="2.9" height="80.17"/>
<rect x="5871.01" y="203.5" opacity="0.75" width="2.9" height="35.8"/>
<rect x="5908.37" y="155.97" opacity="0.75" width="2.9" height="82.83"/>
<rect x="5911.92" y="198.98" opacity="0.75" width="2.9" height="39.82"/>
<rect x="5946.89" y="160.67" opacity="0.75" width="2.9" height="79.15"/>
<rect x="5950.36" y="206.76" opacity="0.75" width="2.9" height="32.56"/>
<rect x="5995.41" y="158.8" opacity="0.75" width="2.9" height="80"/>
<rect x="5998.88" y="204.02" opacity="0.75" width="2.9" height="34.78"/>
</svg>
