<?xml version="1.0" encoding="utf-8"?>
<!-- Generator: Adobe Illustrator 23.0.1, SVG Export Plug-In . SVG Version: 6.00 Build 0)  -->
<svg version="1.1" id="AR_x5F_layer" xmlns="http://www.w3.org/2000/svg" xmlns:xlink="http://www.w3.org/1999/xlink" x="0px"
	 y="0px" width="9451.5px" height="623.5px" viewBox="0 0 9451.5 623.5" style="enable-background:new 0 0 9451.5 623.5;"
	 xml:space="preserve">
<style type="text/css">
	.st0{opacity:0.75;}
	.st1{stroke:#000000;stroke-width:1.1723;stroke-linecap:round;stroke-linejoin:round;stroke-miterlimit:10;}
</style>
<g class="st0">
	<g>
		<polygon class="st1" points="6139.5,466.8 6132.1,441.3 6124.8,492 6117.5,478.1 6110.2,467.3 6102.9,442.6 6095.6,437.5 
			6088.2,438.2 6080.9,438.2 6073.6,437.5 6066.3,460.1 6059,437.5 6051.7,443.4 6044.4,453.9 6037,440.7 6029.7,460.3 
			6022.4,437.5 6015.1,437.5 6007.8,442 6000.5,470.5 5993.2,463.5 5985.8,480.6 5978.5,453.4 5971.2,452.7 5963.9,473.6 
			5956.6,455.5 5949.3,437.5 5934.6,494.8 5927.3,444.5 5927.3,444.5 5920,483.8 5912.7,448.9 5905.4,438.8 5898.1,483.8 
			5890.8,452.7 5883.4,455.2 5883.4,437.5 6139.5,436.4 		"/>
	</g>
</g>
</svg>
