<?xml version="1.0" encoding="UTF-8" standalone="no"?>
<!-- Generator: Adobe Illustrator 23.0.1, SVG Export Plug-In . SVG Version: 6.00 Build 0)  -->

<svg
   version="1.1"
   id="Baseline"
   x="0px"
   y="0px"
   width="9451.5px"
   height="623.5px"
   viewBox="0 0 9451.5 623.5"
   style="enable-background:new 0 0 9451.5 623.5;"
   xml:space="preserve"
   sodipodi:docname="48_class 1 cities _sewage_mask-01-wOffset.svg"
   inkscape:version="1.1.1 (c3084ef, 2021-09-22)"
   xmlns:inkscape="http://www.inkscape.org/namespaces/inkscape"
   xmlns:sodipodi="http://sodipodi.sourceforge.net/DTD/sodipodi-0.dtd"
   xmlns="http://www.w3.org/2000/svg"
   xmlns:svg="http://www.w3.org/2000/svg"><defs
   id="defs6750" /><sodipodi:namedview
   id="namedview6748"
   pagecolor="#505050"
   bordercolor="#eeeeee"
   borderopacity="1"
   inkscape:pageshadow="0"
   inkscape:pageopacity="0"
   inkscape:pagecheckerboard="0"
   showgrid="false"
   inkscape:zoom="1.0084145"
   inkscape:cx="6545.4237"
   inkscape:cy="345.0962"
   inkscape:window-width="1312"
   inkscape:window-height="762"
   inkscape:window-x="0"
   inkscape:window-y="25"
   inkscape:window-maximized="0"
   inkscape:current-layer="Baseline" />
<style
   type="text/css"
   id="style824">
	.st0{opacity:0.75;}
	.st1{clip-path:url(#SVGID_3_);}
	.st2{clip-path:url(#SVGID_5_);}
	.st3{clip-path:url(#SVGID_10_);enable-background:new    ;}
	.st4{clip-path:url(#SVGID_12_);}
	.st5{clip-path:url(#SVGID_14_);}
	.st6{fill:#020202;}
	.st7{clip-path:url(#SVGID_16_);}
	.st8{clip-path:url(#SVGID_18_);}
	.st9{clip-path:url(#SVGID_22_);}
	.st10{clip-path:url(#SVGID_24_);}
	.st11{clip-path:url(#SVGID_28_);enable-background:new    ;}
	.st12{clip-path:url(#SVGID_30_);}
	.st13{clip-path:url(#SVGID_32_);}
	.st14{clip-path:url(#SVGID_34_);}
	.st15{clip-path:url(#SVGID_36_);}
	.st16{clip-path:url(#SVGID_40_);}
	.st17{clip-path:url(#SVGID_42_);}
	.st18{clip-path:url(#SVGID_46_);enable-background:new    ;}
	.st19{clip-path:url(#SVGID_48_);}
	.st20{clip-path:url(#SVGID_50_);}
	.st21{clip-path:url(#SVGID_52_);}
	.st22{clip-path:url(#SVGID_54_);}
	.st23{clip-path:url(#SVGID_58_);}
	.st24{clip-path:url(#SVGID_60_);}
	.st25{clip-path:url(#SVGID_64_);enable-background:new    ;}
	.st26{clip-path:url(#SVGID_66_);}
	.st27{clip-path:url(#SVGID_68_);}
	.st28{clip-path:url(#SVGID_70_);}
	.st29{clip-path:url(#SVGID_72_);}
	.st30{clip-path:url(#SVGID_76_);}
	.st31{clip-path:url(#SVGID_78_);}
	.st32{clip-path:url(#SVGID_82_);enable-background:new    ;}
	.st33{clip-path:url(#SVGID_84_);}
	.st34{clip-path:url(#SVGID_86_);}
	.st35{clip-path:url(#SVGID_88_);}
	.st36{clip-path:url(#SVGID_90_);}
	.st37{clip-path:url(#SVGID_94_);}
	.st38{clip-path:url(#SVGID_96_);}
	.st39{clip-path:url(#SVGID_100_);enable-background:new    ;}
	.st40{clip-path:url(#SVGID_102_);}
	.st41{clip-path:url(#SVGID_104_);}
	.st42{clip-path:url(#SVGID_106_);}
	.st43{clip-path:url(#SVGID_108_);}
	.st44{clip-path:url(#SVGID_112_);}
	.st45{clip-path:url(#SVGID_114_);}
	.st46{clip-path:url(#SVGID_118_);enable-background:new    ;}
	.st47{clip-path:url(#SVGID_120_);}
	.st48{clip-path:url(#SVGID_122_);}
	.st49{clip-path:url(#SVGID_124_);}
	.st50{clip-path:url(#SVGID_126_);}
	.st51{clip-path:url(#SVGID_130_);}
	.st52{clip-path:url(#SVGID_132_);}
	.st53{clip-path:url(#SVGID_136_);enable-background:new    ;}
	.st54{clip-path:url(#SVGID_138_);}
	.st55{clip-path:url(#SVGID_140_);}
	.st56{clip-path:url(#SVGID_142_);}
	.st57{clip-path:url(#SVGID_144_);}
	.st58{clip-path:url(#SVGID_148_);}
	.st59{clip-path:url(#SVGID_150_);}
	.st60{clip-path:url(#SVGID_154_);enable-background:new    ;}
	.st61{clip-path:url(#SVGID_156_);}
	.st62{clip-path:url(#SVGID_158_);}
	.st63{clip-path:url(#SVGID_160_);}
	.st64{clip-path:url(#SVGID_162_);}
	.st65{clip-path:url(#SVGID_166_);}
	.st66{clip-path:url(#SVGID_168_);}
	.st67{clip-path:url(#SVGID_172_);enable-background:new    ;}
	.st68{clip-path:url(#SVGID_174_);}
	.st69{clip-path:url(#SVGID_176_);}
	.st70{clip-path:url(#SVGID_178_);}
	.st71{clip-path:url(#SVGID_180_);}
	.st72{clip-path:url(#SVGID_184_);}
	.st73{clip-path:url(#SVGID_186_);}
	.st74{clip-path:url(#SVGID_190_);enable-background:new    ;}
	.st75{clip-path:url(#SVGID_192_);}
	.st76{clip-path:url(#SVGID_194_);}
	.st77{clip-path:url(#SVGID_196_);}
	.st78{clip-path:url(#SVGID_198_);}
	.st79{clip-path:url(#SVGID_202_);}
	.st80{clip-path:url(#SVGID_204_);}
	.st81{clip-path:url(#SVGID_208_);enable-background:new    ;}
	.st82{clip-path:url(#SVGID_210_);}
	.st83{clip-path:url(#SVGID_212_);}
	.st84{clip-path:url(#SVGID_214_);}
	.st85{clip-path:url(#SVGID_216_);}
	.st86{clip-path:url(#SVGID_221_);}
	.st87{clip-path:url(#SVGID_223_);}
	.st88{clip-path:url(#SVGID_227_);enable-background:new    ;}
	.st89{clip-path:url(#SVGID_229_);}
	.st90{clip-path:url(#SVGID_231_);}
	.st91{clip-path:url(#SVGID_233_);}
	.st92{clip-path:url(#SVGID_235_);}
	.st93{clip-path:url(#SVGID_239_);}
	.st94{clip-path:url(#SVGID_241_);}
	.st95{clip-path:url(#SVGID_245_);enable-background:new    ;}
	.st96{clip-path:url(#SVGID_247_);}
	.st97{clip-path:url(#SVGID_249_);}
	.st98{clip-path:url(#SVGID_251_);}
	.st99{clip-path:url(#SVGID_253_);}
	.st100{clip-path:url(#SVGID_257_);}
	.st101{clip-path:url(#SVGID_259_);}
	.st102{clip-path:url(#SVGID_263_);enable-background:new    ;}
	.st103{clip-path:url(#SVGID_265_);}
	.st104{clip-path:url(#SVGID_267_);}
	.st105{clip-path:url(#SVGID_269_);}
	.st106{clip-path:url(#SVGID_271_);}
	.st107{clip-path:url(#SVGID_275_);}
	.st108{clip-path:url(#SVGID_277_);}
	.st109{clip-path:url(#SVGID_281_);enable-background:new    ;}
	.st110{clip-path:url(#SVGID_283_);}
	.st111{clip-path:url(#SVGID_285_);}
	.st112{clip-path:url(#SVGID_287_);}
	.st113{clip-path:url(#SVGID_289_);}
	.st114{clip-path:url(#SVGID_293_);}
	.st115{clip-path:url(#SVGID_295_);}
	.st116{clip-path:url(#SVGID_299_);enable-background:new    ;}
	.st117{clip-path:url(#SVGID_301_);}
	.st118{clip-path:url(#SVGID_303_);}
	.st119{clip-path:url(#SVGID_305_);}
	.st120{clip-path:url(#SVGID_307_);}
	.st121{clip-path:url(#SVGID_311_);}
	.st122{clip-path:url(#SVGID_313_);}
	.st123{clip-path:url(#SVGID_317_);enable-background:new    ;}
	.st124{clip-path:url(#SVGID_319_);}
	.st125{clip-path:url(#SVGID_321_);}
	.st126{clip-path:url(#SVGID_323_);}
	.st127{clip-path:url(#SVGID_325_);}
	.st128{clip-path:url(#SVGID_329_);}
	.st129{clip-path:url(#SVGID_331_);}
	.st130{clip-path:url(#SVGID_335_);enable-background:new    ;}
	.st131{clip-path:url(#SVGID_337_);}
	.st132{clip-path:url(#SVGID_339_);}
	.st133{clip-path:url(#SVGID_341_);}
	.st134{clip-path:url(#SVGID_343_);}
	.st135{clip-path:url(#SVGID_347_);}
	.st136{clip-path:url(#SVGID_349_);}
	.st137{clip-path:url(#SVGID_353_);enable-background:new    ;}
	.st138{clip-path:url(#SVGID_355_);}
	.st139{clip-path:url(#SVGID_357_);}
	.st140{clip-path:url(#SVGID_359_);}
	.st141{clip-path:url(#SVGID_361_);}
	.st142{clip-path:url(#SVGID_365_);}
	.st143{clip-path:url(#SVGID_367_);}
	.st144{clip-path:url(#SVGID_371_);enable-background:new    ;}
	.st145{clip-path:url(#SVGID_373_);}
	.st146{clip-path:url(#SVGID_375_);}
	.st147{clip-path:url(#SVGID_377_);}
	.st148{clip-path:url(#SVGID_379_);}
	.st149{clip-path:url(#SVGID_383_);}
	.st150{clip-path:url(#SVGID_385_);}
	.st151{clip-path:url(#SVGID_389_);enable-background:new    ;}
	.st152{clip-path:url(#SVGID_391_);}
	.st153{clip-path:url(#SVGID_393_);}
	.st154{clip-path:url(#SVGID_395_);}
	.st155{clip-path:url(#SVGID_397_);}
	.st156{clip-path:url(#SVGID_401_);}
	.st157{clip-path:url(#SVGID_403_);}
	.st158{clip-path:url(#SVGID_407_);enable-background:new    ;}
	.st159{clip-path:url(#SVGID_409_);}
	.st160{clip-path:url(#SVGID_411_);}
	.st161{clip-path:url(#SVGID_413_);}
	.st162{clip-path:url(#SVGID_415_);}
	.st163{clip-path:url(#SVGID_419_);}
	.st164{clip-path:url(#SVGID_421_);}
	.st165{clip-path:url(#SVGID_425_);enable-background:new    ;}
	.st166{clip-path:url(#SVGID_427_);}
	.st167{clip-path:url(#SVGID_429_);}
	.st168{clip-path:url(#SVGID_431_);}
	.st169{clip-path:url(#SVGID_433_);}
	.st170{clip-path:url(#SVGID_437_);}
	.st171{clip-path:url(#SVGID_439_);}
	.st172{clip-path:url(#SVGID_443_);enable-background:new    ;}
	.st173{clip-path:url(#SVGID_445_);}
	.st174{clip-path:url(#SVGID_447_);}
	.st175{clip-path:url(#SVGID_449_);}
	.st176{clip-path:url(#SVGID_451_);}
	.st177{clip-path:url(#SVGID_455_);}
	.st178{clip-path:url(#SVGID_457_);}
	.st179{clip-path:url(#SVGID_461_);enable-background:new    ;}
	.st180{clip-path:url(#SVGID_463_);}
	.st181{clip-path:url(#SVGID_465_);}
	.st182{clip-path:url(#SVGID_467_);}
	.st183{clip-path:url(#SVGID_469_);}
	.st184{clip-path:url(#SVGID_473_);}
	.st185{clip-path:url(#SVGID_475_);}
	.st186{clip-path:url(#SVGID_479_);enable-background:new    ;}
	.st187{clip-path:url(#SVGID_481_);}
	.st188{clip-path:url(#SVGID_483_);}
	.st189{clip-path:url(#SVGID_485_);}
	.st190{clip-path:url(#SVGID_487_);}
	.st191{clip-path:url(#SVGID_491_);}
	.st192{clip-path:url(#SVGID_493_);}
	.st193{clip-path:url(#SVGID_497_);enable-background:new    ;}
	.st194{clip-path:url(#SVGID_499_);}
	.st195{clip-path:url(#SVGID_501_);}
	.st196{clip-path:url(#SVGID_503_);}
	.st197{clip-path:url(#SVGID_505_);}
	.st198{clip-path:url(#SVGID_509_);}
	.st199{clip-path:url(#SVGID_511_);}
	.st200{clip-path:url(#SVGID_515_);enable-background:new    ;}
	.st201{clip-path:url(#SVGID_517_);}
	.st202{clip-path:url(#SVGID_519_);}
	.st203{clip-path:url(#SVGID_521_);}
	.st204{clip-path:url(#SVGID_523_);}
	.st205{clip-path:url(#SVGID_527_);}
	.st206{clip-path:url(#SVGID_529_);}
	.st207{clip-path:url(#SVGID_533_);enable-background:new    ;}
	.st208{clip-path:url(#SVGID_535_);}
	.st209{clip-path:url(#SVGID_537_);}
	.st210{clip-path:url(#SVGID_539_);}
	.st211{clip-path:url(#SVGID_541_);}
	.st212{clip-path:url(#SVGID_545_);}
	.st213{clip-path:url(#SVGID_547_);}
	.st214{clip-path:url(#SVGID_551_);enable-background:new    ;}
	.st215{clip-path:url(#SVGID_553_);}
	.st216{clip-path:url(#SVGID_555_);}
	.st217{clip-path:url(#SVGID_557_);}
	.st218{clip-path:url(#SVGID_559_);}
	.st219{clip-path:url(#SVGID_563_);}
	.st220{clip-path:url(#SVGID_565_);}
	.st221{clip-path:url(#SVGID_569_);enable-background:new    ;}
	.st222{clip-path:url(#SVGID_571_);}
	.st223{clip-path:url(#SVGID_573_);}
	.st224{clip-path:url(#SVGID_575_);}
	.st225{clip-path:url(#SVGID_577_);}
	.st226{clip-path:url(#SVGID_581_);}
	.st227{clip-path:url(#SVGID_583_);}
	.st228{clip-path:url(#SVGID_587_);enable-background:new    ;}
	.st229{clip-path:url(#SVGID_589_);}
	.st230{clip-path:url(#SVGID_591_);}
	.st231{clip-path:url(#SVGID_593_);}
	.st232{clip-path:url(#SVGID_595_);}
	.st233{clip-path:url(#SVGID_599_);}
	.st234{clip-path:url(#SVGID_601_);}
	.st235{clip-path:url(#SVGID_605_);enable-background:new    ;}
	.st236{clip-path:url(#SVGID_607_);}
	.st237{clip-path:url(#SVGID_609_);}
	.st238{clip-path:url(#SVGID_611_);}
	.st239{clip-path:url(#SVGID_613_);}
	.st240{clip-path:url(#SVGID_617_);}
	.st241{clip-path:url(#SVGID_619_);}
	.st242{clip-path:url(#SVGID_623_);enable-background:new    ;}
	.st243{clip-path:url(#SVGID_625_);}
	.st244{clip-path:url(#SVGID_627_);}
	.st245{clip-path:url(#SVGID_629_);}
	.st246{clip-path:url(#SVGID_631_);}
	.st247{clip-path:url(#SVGID_635_);}
	.st248{clip-path:url(#SVGID_637_);}
	.st249{clip-path:url(#SVGID_641_);enable-background:new    ;}
	.st250{clip-path:url(#SVGID_643_);}
	.st251{clip-path:url(#SVGID_645_);}
	.st252{clip-path:url(#SVGID_647_);}
	.st253{clip-path:url(#SVGID_649_);}
	.st254{clip-path:url(#SVGID_653_);}
	.st255{clip-path:url(#SVGID_655_);}
	.st256{opacity:0.75;enable-background:new    ;}
	.st257{clip-path:url(#SVGID_659_);enable-background:new    ;}
	.st258{clip-path:url(#SVGID_661_);}
	.st259{clip-path:url(#SVGID_663_);}
	.st260{clip-path:url(#SVGID_665_);}
	.st261{clip-path:url(#SVGID_667_);}
	.st262{clip-path:url(#SVGID_671_);}
	.st263{clip-path:url(#SVGID_673_);}
	.st264{clip-path:url(#SVGID_677_);enable-background:new    ;}
	.st265{clip-path:url(#SVGID_679_);}
	.st266{clip-path:url(#SVGID_681_);}
	.st267{clip-path:url(#SVGID_683_);}
	.st268{clip-path:url(#SVGID_685_);}
	.st269{clip-path:url(#SVGID_689_);}
	.st270{clip-path:url(#SVGID_691_);}
	.st271{clip-path:url(#SVGID_695_);enable-background:new    ;}
	.st272{clip-path:url(#SVGID_697_);}
	.st273{clip-path:url(#SVGID_699_);}
	.st274{clip-path:url(#SVGID_701_);}
	.st275{clip-path:url(#SVGID_703_);}
	.st276{clip-path:url(#SVGID_707_);}
	.st277{clip-path:url(#SVGID_709_);}
	.st278{clip-path:url(#SVGID_713_);enable-background:new    ;}
	.st279{clip-path:url(#SVGID_715_);}
	.st280{clip-path:url(#SVGID_717_);}
	.st281{clip-path:url(#SVGID_719_);}
	.st282{clip-path:url(#SVGID_721_);}
	.st283{clip-path:url(#SVGID_725_);}
	.st284{clip-path:url(#SVGID_727_);}
	.st285{clip-path:url(#SVGID_731_);enable-background:new    ;}
	.st286{clip-path:url(#SVGID_733_);}
	.st287{clip-path:url(#SVGID_735_);}
	.st288{clip-path:url(#SVGID_737_);}
	.st289{clip-path:url(#SVGID_739_);}
	.st290{clip-path:url(#SVGID_743_);}
	.st291{clip-path:url(#SVGID_745_);}
	.st292{clip-path:url(#SVGID_749_);enable-background:new    ;}
	.st293{clip-path:url(#SVGID_751_);}
	.st294{clip-path:url(#SVGID_753_);}
	.st295{clip-path:url(#SVGID_755_);}
	.st296{clip-path:url(#SVGID_757_);}
	.st297{clip-path:url(#SVGID_761_);}
	.st298{clip-path:url(#SVGID_763_);}
	.st299{clip-path:url(#SVGID_767_);enable-background:new    ;}
	.st300{clip-path:url(#SVGID_769_);}
	.st301{clip-path:url(#SVGID_771_);}
	.st302{clip-path:url(#SVGID_773_);}
	.st303{clip-path:url(#SVGID_775_);}
	.st304{clip-path:url(#SVGID_779_);}
	.st305{clip-path:url(#SVGID_781_);}
	.st306{clip-path:url(#SVGID_785_);enable-background:new    ;}
	.st307{clip-path:url(#SVGID_787_);}
	.st308{clip-path:url(#SVGID_789_);}
	.st309{clip-path:url(#SVGID_791_);}
	.st310{clip-path:url(#SVGID_793_);}
	.st311{clip-path:url(#SVGID_797_);}
	.st312{clip-path:url(#SVGID_799_);}
	.st313{clip-path:url(#SVGID_803_);enable-background:new    ;}
	.st314{clip-path:url(#SVGID_805_);}
	.st315{clip-path:url(#SVGID_807_);}
	.st316{clip-path:url(#SVGID_809_);}
	.st317{clip-path:url(#SVGID_811_);}
	.st318{clip-path:url(#SVGID_815_);}
	.st319{clip-path:url(#SVGID_817_);}
	.st320{clip-path:url(#SVGID_821_);enable-background:new    ;}
	.st321{clip-path:url(#SVGID_823_);}
	.st322{clip-path:url(#SVGID_825_);}
	.st323{clip-path:url(#SVGID_827_);}
	.st324{clip-path:url(#SVGID_829_);}
	.st325{clip-path:url(#SVGID_833_);}
	.st326{clip-path:url(#SVGID_835_);}
	.st327{clip-path:url(#SVGID_839_);enable-background:new    ;}
	.st328{clip-path:url(#SVGID_841_);}
	.st329{clip-path:url(#SVGID_843_);}
	.st330{clip-path:url(#SVGID_845_);}
	.st331{clip-path:url(#SVGID_847_);}
	.st332{clip-path:url(#SVGID_851_);}
	.st333{clip-path:url(#SVGID_853_);}
	.st334{clip-path:url(#SVGID_857_);enable-background:new    ;}
	.st335{clip-path:url(#SVGID_859_);}
	.st336{clip-path:url(#SVGID_861_);}
	.st337{clip-path:url(#SVGID_863_);}
	.st338{clip-path:url(#SVGID_865_);}
	.st339{clip-path:url(#SVGID_869_);}
	.st340{clip-path:url(#SVGID_871_);}
	.st341{clip-path:url(#SVGID_875_);enable-background:new    ;}
	.st342{clip-path:url(#SVGID_877_);}
	.st343{clip-path:url(#SVGID_879_);}
	.st344{clip-path:url(#SVGID_881_);}
	.st345{clip-path:url(#SVGID_883_);}
	.st346{clip-path:url(#SVGID_887_);}
	.st347{clip-path:url(#SVGID_889_);}
	.st348{clip-path:url(#SVGID_893_);enable-background:new    ;}
	.st349{clip-path:url(#SVGID_895_);}
	.st350{clip-path:url(#SVGID_897_);}
	.st351{clip-path:url(#SVGID_899_);}
	.st352{clip-path:url(#SVGID_901_);}
	.st353{clip-path:url(#SVGID_905_);}
	.st354{clip-path:url(#SVGID_907_);}
	.st355{clip-path:url(#SVGID_911_);enable-background:new    ;}
	.st356{clip-path:url(#SVGID_913_);}
	.st357{clip-path:url(#SVGID_915_);}
	.st358{clip-path:url(#SVGID_917_);}
	.st359{clip-path:url(#SVGID_919_);}
	.st360{fill:none;stroke:#000000;stroke-width:2.7997;stroke-miterlimit:10;}
</style>






















































































































<path
   id="path10292"
   style="fill:#000000"
   d="m 6344.3105,281.01562 c -1.5484,-0.0185 -3.3412,0.54864 -3.9277,2.12696 -0.5928,1.37306 -0.1979,2.82353 -0.539,4.20898 -1.2093,0.82861 -1.1612,2.48103 -1.3498,3.78906 -0.5224,6.55913 -0.5065,13.14745 -0.5487,19.72344 0.022,8.42392 0.072,16.85757 0.6406,25.26485 0.135,1.36039 0.1951,2.74818 0.5899,4.06445 -0.9378,1.85088 -0.9541,3.99797 -1.1244,6.025 -0.2151,4.43815 -0.2331,8.91933 0.4291,13.32266 0.113,0.6118 0.254,1.22087 0.4824,1.80078 -0.9224,2.15106 -0.8464,4.5624 -0.9478,6.85896 -0.063,2.27273 0.069,4.56155 -0.226,6.82072 -1.0663,0.0772 -2.0979,0.48056 -3.0157,0.98633 -1.9675,-1.17003 -4.371,-0.96287 -6.5734,-1.00781 -0.6228,-0.0106 -1.4876,0.22091 -1.2,-0.7 -0.067,-3.22104 0.2125,-6.49459 -0.457,-9.66914 -0.074,-0.55729 -0.596,-1.0526 -0.193,-1.57663 0.8685,-2.72169 0.7131,-5.66167 0.3266,-8.45633 -0.3077,-2.11036 -1.0198,-4.26226 -2.6377,-5.7388 -4.1181,-4.05761 -11.0067,-4.64812 -15.944,-1.77731 -2.6131,1.53171 -4.7401,4.17944 -4.9835,7.28036 -0.2864,3.00266 0.027,6.02344 -0.025,9.03384 0.051,5.53474 -0.016,11.06954 -0.069,16.60401 -0.668,-0.002 -1.3375,0.0112 -2.0039,-0.0391 0.036,-1.53106 -0.1272,-3.37146 -1.5801,-4.2461 -1.7376,-1.02474 -3.8529,-0.62016 -5.7731,-0.71484 -1.1173,0 -2.2346,0 -3.3519,0 -0.4593,4.66344 -0.9187,9.32688 -1.3789,13.99023 -14.6494,-0.0669 -29.3002,0.0184 -43.9485,-0.20617 -3.1222,-0.0507 -6.2393,-0.12411 -9.3,-0.24673 -1.8393,-0.0718 -3.5218,-0.13548 -5.3316,-0.3303 -1.4961,-1.72298 -4.634,-1.59273 -5.9238,0.31836 -4.1445,0.55165 -8.3435,0.46513 -12.516,0.45469 -2.4478,-0.0672 -4.9099,-0.0889 -7.3356,-0.45469 -1.3712,-2.04805 -4.8451,-2.03041 -6.1777,0.0488 -4.2901,0.63346 -8.6464,0.36064 -12.9676,0.42578 -0.5562,-0.0716 -1.5289,0.30392 -1.3114,-0.59848 -0.5666,-7.61065 -1.0831,-15.22091 -1.1481,-22.87443 -0.1471,-1.98607 -0.162,-4.10135 -1.112,-5.90014 -0.3263,-0.44091 -0.737,-0.81543 -0.7414,-1.41694 -0.2822,-1.46719 0.1197,-3.06643 -0.6902,-4.45024 -0.8545,-1.56753 -2.8233,-1.78605 -4.43,-1.7529 -1.7567,0.0115 -3.8935,-0.17534 -5.1408,1.3274 -1.013,1.21978 -0.7949,2.93482 -0.8948,4.33345 0.094,0.61604 -0.431,0.86148 -0.7414,1.2815 -0.8371,1.38636 -0.7783,3.09562 -0.957,4.65842 -0.3512,6.15096 -0.3438,12.32329 -0.078,18.47742 0.1677,1.90665 0.093,3.92072 0.8746,5.704 -0.09,0.76994 -1.1117,0.96458 -1.7867,1.04161 -0.8216,0.10643 -1.5207,0.12753 -2.2699,0.15175 -2.0019,0.0286 -4.0039,0.0142 -6.0059,0.0176 -0.072,-6.11172 0.2485,-12.25771 -0.5297,-18.33698 -0.1206,-0.94011 -0.3834,-1.90219 -0.9969,-2.62996 -1.1184,-3.00383 -0.9449,-6.28823 -1.8347,-9.34361 -0.4461,-1.50472 -1.8677,-2.56695 -3.4258,-2.63086 -1.7937,-0.0426 -3.7194,-0.27499 -5.3948,0.50768 -1.4606,0.70933 -1.8898,2.44706 -1.8224,3.9438 -0.013,0.69939 -0.1338,1.44665 -0.7027,1.90399 -0.9228,1.52299 -0.8621,3.39847 -1.0645,5.11719 -0.343,5.91988 -0.3605,11.87095 0.127,17.7832 0.1201,1.00371 0.205,2.02889 0.5488,2.98633 -1.9327,0.83341 -4.187,0.81796 -6.1985,0.27917 -0.532,-0.11957 -0.9821,-0.35858 -0.5494,-0.89558 0.6993,-2.48195 0.6834,-5.09828 0.8021,-7.65666 0.05,-3.77136 0.1045,-7.57678 -0.4949,-11.31108 -0.1734,-0.87185 -0.4649,-1.84446 -1.2566,-2.34358 -0.478,-2.01905 0.2038,-4.36415 -1.1601,-6.13086 -0.6717,-0.82175 -1.73,-1.22371 -2.7735,-1.23633 -0.4034,-3.40254 -0.2061,-6.84336 -0.278,-10.26286 -0.062,-3.61807 -0.057,-7.27016 -0.7046,-10.84107 -0.1275,-0.74364 -0.4705,-1.44441 -0.9822,-1.98201 -0.6211,-1.68624 0.06,-3.54148 -0.877,-5.16015 -0.8578,-1.56711 -2.8214,-1.78691 -4.43,-1.7529 -1.7848,0.003 -3.9417,-0.16003 -5.1969,1.3779 -1.2617,1.63719 -0.4318,3.82312 -1.1524,5.63085 -1.0795,1.08703 -0.9345,2.76693 -1.1314,4.18007 -0.5193,7.79165 -0.5108,15.60808 -0.5323,23.41407 0.048,7.18268 0.05,14.37607 0.5689,21.54321 0.116,1.00508 0.1504,2.05429 0.5226,3.00133 -2.6328,0.8285 -5.4441,0.88436 -8.1836,0.85351 -0.72,-0.0396 -1.4434,-0.084 -2.1524,-0.2207 -0.8909,-1.93748 -3.5842,-2.21136 -5.25,-1.17773 -1.6386,-0.97649 -4.2015,-0.79617 -5.1601,1.0332 -3.3755,0.62538 -6.8551,0.10468 -10.2252,0.81214 -0.7568,0.13343 -1.515,0.30553 -2.2201,0.61755 -1.717,-1.26164 -3.956,-0.94664 -5.9473,-1.1836 -0.4402,-2.27961 -3.1771,-3.37552 -5.252,-2.69922 -1.201,0.34514 -2.2706,1.27822 -2.5839,2.51367 -3.2304,0.44093 -6.5076,0.24247 -9.759,0.29688 -1.3798,0 -2.7597,0 -4.1395,0 -0.37,-6.92277 -0.7763,-13.94869 -1.0117,-20.8125 -0.1585,-3.73548 -0.141,-7.47553 -0.2734,-11.21094 -0.1849,-1.73647 -0.1493,-3.6629 -1.1879,-5.14688 -0.4509,-0.35798 -0.7714,-0.74124 -0.714,-1.35652 -0.032,-1.50895 0.071,-3.45922 -1.2889,-4.55854 -1.528,-1.18958 -3.5942,-0.86855 -5.4012,-0.8885 -1.5665,-0.008 -3.2187,0.76621 -3.8045,2.2981 -0.7011,1.83526 -0.8444,3.83225 -1.0287,5.77401 -0.6844,11.93336 -0.444,23.89356 -0.4928,35.84044 -0.5434,0.14365 -1.3461,0.002 -1.9863,0.11351 -1.2182,0.11456 -2.5046,0.38264 -3.459,1.18805 -2.4782,0.14477 -4.964,-0.23313 -7.375,-0.7832 1.2175,-2.58031 0.7114,-5.50385 0.8203,-8.25703 -0.011,-0.62277 0.2209,-1.48757 -0.7,-1.2 -4.7667,0 -9.5333,0 -14.3,0 0.065,2.41531 -0.1495,4.84848 0.149,7.25068 0.1233,0.9223 0.4712,1.85614 0.8334,2.66143 -1.4535,1.96332 -0.9018,4.64639 0.044,6.70728 1.4615,3.14242 4.1643,5.97612 7.6804,6.64279 3.5703,0.73902 7.284,0.93799 10.8986,0.41946 0.7936,-0.1495 1.5949,-0.36218 2.2734,-0.81641 2.6171,0.70914 5.3627,0.71187 8.0523,0.90269 10.3112,0.43231 20.6428,0.43682 30.9549,0.0342 2.8013,-0.18471 5.653,-0.18714 8.3885,-0.87453 0.712,-0.2081 1.4878,0.12342 2.236,0.0928 8.6611,0.46675 17.3389,0.51339 26.01,0.66316 34.7773,0.41842 69.5579,0.45767 104.3372,0.40981 24.6984,-0.0817 49.3989,-0.13095 74.0935,-0.61541 4.4841,-0.13668 8.9804,-0.14336 13.4504,-0.55106 0.5499,-0.0726 1.0558,-0.26469 1.592,-0.04 3.6052,0.43624 7.2508,0.41189 10.8768,0.54847 20.479,0.47158 40.9647,0.53771 61.4482,0.62813 34.5356,0.10484 69.0726,0.0641 103.6067,-0.30316 9.9741,-0.15278 19.9541,-0.20814 29.9189,-0.68811 1.0787,-0.042 2.1978,-0.17789 3.2325,-0.34456 2.4635,0.54532 5.0174,0.47337 7.5261,0.63619 15.1088,0.52378 30.2297,0.58856 45.3463,0.69459 25.4651,0.11808 50.9324,0.0885 76.3951,-0.30935 6.8506,-0.14919 13.7097,-0.20645 20.5462,-0.69666 0.7553,-0.0318 1.523,-0.22689 2.2423,-0.3318 2.3371,0.41534 4.7351,0.34207 7.1008,0.47166 16.9168,0.46384 33.8414,0.53735 50.7632,0.67845 41.2107,0.25275 82.423,0.29546 123.6339,0.0717 14.2599,-0.10618 28.523,-0.14925 42.7777,-0.56796 1.9271,-0.12667 3.8948,-0.0235 5.785,-0.46634 0.5572,-0.26403 0.9298,-0.78035 1.5966,-0.78827 1.4936,-0.28816 3.146,0.13741 4.5348,-0.74361 1.5719,-0.92325 1.6953,-2.94407 1.6713,-4.57663 -0,-1.71853 0.1344,-3.84136 -1.4063,-4.99305 -1.8192,-1.33367 -4.2221,-0.41317 -6.2343,-1.11914 -0.8287,-1.03554 -2.3283,-0.96733 -3.5313,-1.14844 -6.6717,-0.48847 -13.3683,-0.4804 -20.0545,-0.5615 -10.7821,-0.073 -21.5668,0.008 -32.3459,-0.30764 -2.2695,-0.0852 -4.7113,-0.13999 -7.0351,-0.39648 -1.472,-1.80319 -4.7035,-1.67896 -5.9844,0.28711 -4.0832,0.58503 -8.2284,0.42695 -12.3415,0.40211 -1.0251,-0.0219 -2.0566,-0.0373 -3.0706,-0.20094 -0.023,-1.38053 -0.6454,-2.85055 -1.8692,-3.53516 -0.2915,-1.48581 0.1153,-3.1183 -0.7285,-4.51562 -0.8673,-1.55813 -2.8331,-1.7562 -4.4375,-1.71094 -1.5799,-0.0433 -3.5022,0.18267 -4.3515,1.71094 -0.8545,1.41178 -0.4247,3.06436 -0.7403,4.5625 -1.285,0.64829 -1.825,2.17266 -1.8593,3.53711 -2.8308,0.27916 -5.6896,0.20434 -8.5295,0.11017 -0.9447,-0.0593 -1.8901,-0.13702 -2.8221,-0.30744 -0.6658,-1.27338 -2.2471,-1.77905 -3.6035,-1.53516 -0.063,-1.78032 -0.4341,-3.98589 -2.25,-4.80273 -1.6326,-0.78822 -3.7416,0.13916 -4.3125,1.84961 -0.6041,1.54892 -0.4655,3.24645 -0.4883,4.875 -4.6667,0 -9.3333,0 -14,0 -0.077,-2.20671 0.2893,-4.62443 -0.8848,-6.61523 -0.9618,-1.54186 -3.3163,-1.85512 -4.6523,-0.63086 -1.019,-1.20776 -3.0499,-1.26308 -4.0703,-0.0312 -1.4365,1.69377 -1.3832,4.07869 -1.3926,6.17734 0.065,0.69887 0.097,1.36337 -0.8,1.1 -18.3904,-0.0239 -36.7813,0.0582 -55.1713,-0.0689 -3.8616,-0.0948 -7.7513,-0.007 -11.5814,-0.56977 -0.8523,-0.0521 -1.4694,-0.62462 -1.9805,-1.25 -1.2876,-1.37829 -3.2482,-2.45336 -5.1621,-1.82227 -1.6189,0.44409 -2.6707,1.82512 -3.8731,2.88477 -0.7863,0.61082 -1.7557,0.89725 -2.7414,0.89005 -1.2745,0.17875 -2.5344,0.63811 -3.5593,1.42635 -1.554,-0.84634 -3.4074,-0.77954 -5.1231,-0.97656 -8.1663,-0.48123 -16.3522,-0.464 -24.53,-0.548 -8.4694,-0.0516 -16.9398,-0.11806 -25.4055,-0.3895 -1.9619,-0.0809 -4.1262,-0.146 -6.1638,-0.28841 -0.6423,-0.12835 -1.4688,0.11863 -1.9099,-0.45509 -1.6304,-1.30933 -4.3797,-1.07591 -5.5806,0.70249 -4.1346,0.55213 -8.3245,0.46915 -12.4869,0.43008 -2.119,-0.0596 -4.2486,-0.10756 -6.3471,-0.43008 -1.3656,-2.05205 -4.8337,-2.04452 -6.1778,0.0254 -4.0831,0.58503 -8.2284,0.42695 -12.3415,0.40211 -1.0251,-0.0219 -2.0565,-0.0373 -3.0706,-0.20094 0.033,-1.79607 -1.3053,-3.66825 -3.201,-3.71359 -0.5866,-0.0657 -1.2178,0.20512 -1.7091,0.33078 -0.9804,-1.49083 -3.2651,-1.94241 -4.6181,-0.69599 -1.1892,0.99958 -1.5066,2.65254 -1.4659,4.13544 -3.1984,0.30979 -6.4224,0.13426 -9.6316,0.17216 -1.5084,-0.0491 -3.0357,0.0263 -4.5246,-0.26005 -0.232,-2.32962 -2.1356,-4.67177 -4.6231,-4.59375 -1.2839,-0.0356 -2.4848,0.83005 -2.918,2.0293 -1.7749,-0.56916 -3.8754,0.59626 -4.2039,2.4588 -0.036,0.57789 -0.9087,0.25083 -1.3115,0.3686 -1.6472,0.022 -3.3669,0.23702 -4.8029,1.10033 -2.4317,-1.33022 -5.3009,-0.99267 -7.9629,-1.16406 0.063,-1.90961 -0.2519,-4.08218 -1.8613,-5.33008 -0.6031,-0.47342 -1.376,-0.74206 -2.1446,-0.70117 -0.027,-1.5743 -0.9136,-3.24554 -2.5366,-3.6338 -1.5796,-0.38546 -3.2441,-0.28633 -4.853,-0.17734 -1.6452,0.10689 -3.0162,1.39278 -3.3721,2.97911 -0.5747,2.29466 -0.7235,4.67014 -1.082,7.0039 -34.2678,-0.0881 -68.536,-0.083 -102.8035,-0.26689 -7.5641,-0.0594 -15.129,-0.11497 -22.6907,-0.32686 -1.0295,-0.0387 -2.3063,-0.0731 -3.3216,-0.12718 -1.6953,-0.0906 -3.3964,-0.15604 -5.0788,-0.39626 0.6838,-2.74256 0.6038,-5.60508 0.7071,-8.4121 0.01,-4.24596 0.1,-8.52339 -0.5235,-12.73438 -0.1661,-0.92149 -0.4606,-1.9464 -1.3047,-2.46875 -0.3341,-1.54878 0.074,-3.26426 -0.832,-4.70117 -0.6211,-1.08298 -1.8861,-1.63232 -3.1015,-1.63281 -0.4263,-3.10847 -0.3073,-6.26258 -0.3991,-9.39285 -0.042,-3.88725 -0.124,-7.77883 0.1138,-11.66072 0.2317,-10.90228 0.075,-21.80869 -0.041,-32.71162 -0.1154,-5.46612 -0.1127,-10.94125 -0.497,-16.39642 -0.3327,-1.93729 -0.2957,-4.16618 -1.7016,-5.70168 -1.4106,-1.40765 -3.5763,-1.10331 -5.3868,-1.125 z m -29.0761,81.6543 c 0.2142,0.62001 0.2447,1.23125 -0.062,1.82637 -0.3019,0.64197 -0.6405,-0.71611 -0.5798,-1.05086 0.079,-0.30343 0.2331,-1.53262 0.642,-0.77551 z m 1.541,24.07031 c 0.55,0.61096 1.1413,1.329 1.1914,2.18165 -0.7678,0.0868 -1.5428,0.0708 -2.3145,0.0762 0.4219,-0.74765 0.7599,-1.5421 1.0157,-2.36133 l 0.072,0.0694 z m 18.7988,2.15235 c -1.1868,0.0671 -2.3758,0.0963 -3.5644,0.0996 1.3686,-0.059 2.737,-0.14119 4.1074,-0.14258 -0.181,0.0143 -0.362,0.0287 -0.543,0.043 z" />
</svg>
