<?xml version="1.0" encoding="UTF-8" standalone="no"?>
<!-- Generator: Adobe Illustrator 23.0.1, SVG Export Plug-In . SVG Version: 6.00 Build 0)  -->

<svg
   version="1.1"
   id="AR_x5F_layer"
   x="0px"
   y="0px"
   width="9451.5px"
   height="623.5px"
   viewBox="0 0 9451.5 623.5"
   style="enable-background:new 0 0 9451.5 623.5;"
   xml:space="preserve"
   sodipodi:docname="48_class 1b cities _sewage_mask-01-wOffset.svg"
   inkscape:version="1.1.1 (c3084ef, 2021-09-22)"
   xmlns:inkscape="http://www.inkscape.org/namespaces/inkscape"
   xmlns:sodipodi="http://sodipodi.sourceforge.net/DTD/sodipodi-0.dtd"
   xmlns="http://www.w3.org/2000/svg"
   xmlns:svg="http://www.w3.org/2000/svg"><defs
   id="defs6780" /><sodipodi:namedview
   id="namedview6778"
   pagecolor="#505050"
   bordercolor="#eeeeee"
   borderopacity="1"
   inkscape:pageshadow="0"
   inkscape:pageopacity="0"
   inkscape:pagecheckerboard="0"
   showgrid="false"
   inkscape:zoom="0.61813583"
   inkscape:cx="6225.9778"
   inkscape:cy="249.13618"
   inkscape:window-width="1312"
   inkscape:window-height="762"
   inkscape:window-x="0"
   inkscape:window-y="25"
   inkscape:window-maximized="0"
   inkscape:current-layer="AR_x5F_layer" />
<style
   type="text/css"
   id="style824">
	.st0{enable-background:new    ;}
	.st1{fill:#020202;}
	.st2{fill:none;stroke:#000000;stroke-width:2.8005;stroke-miterlimit:10;}
	.st3{fill:none;stroke:#000000;stroke-width:2.8;stroke-miterlimit:10;}
	.st4{clip-path:url(#SVGID_3_);}
	.st5{clip-path:url(#SVGID_5_);}
	.st6{clip-path:url(#SVGID_10_);enable-background:new    ;}
	.st7{clip-path:url(#SVGID_12_);}
	.st8{clip-path:url(#SVGID_14_);}
	.st9{clip-path:url(#SVGID_16_);}
	.st10{clip-path:url(#SVGID_18_);}
	.st11{clip-path:url(#SVGID_22_);}
	.st12{clip-path:url(#SVGID_24_);}
	.st13{clip-path:url(#SVGID_28_);enable-background:new    ;}
	.st14{clip-path:url(#SVGID_30_);}
	.st15{clip-path:url(#SVGID_32_);}
	.st16{clip-path:url(#SVGID_34_);}
	.st17{clip-path:url(#SVGID_36_);}
	.st18{clip-path:url(#SVGID_40_);}
	.st19{clip-path:url(#SVGID_42_);}
	.st20{clip-path:url(#SVGID_46_);enable-background:new    ;}
	.st21{clip-path:url(#SVGID_48_);}
	.st22{clip-path:url(#SVGID_50_);}
	.st23{clip-path:url(#SVGID_52_);}
	.st24{clip-path:url(#SVGID_54_);}
	.st25{clip-path:url(#SVGID_58_);}
	.st26{clip-path:url(#SVGID_60_);}
	.st27{clip-path:url(#SVGID_64_);enable-background:new    ;}
	.st28{clip-path:url(#SVGID_66_);}
	.st29{clip-path:url(#SVGID_68_);}
	.st30{clip-path:url(#SVGID_70_);}
	.st31{clip-path:url(#SVGID_72_);}
	.st32{clip-path:url(#SVGID_76_);}
	.st33{clip-path:url(#SVGID_78_);}
	.st34{clip-path:url(#SVGID_82_);enable-background:new    ;}
	.st35{clip-path:url(#SVGID_84_);}
	.st36{clip-path:url(#SVGID_86_);}
	.st37{clip-path:url(#SVGID_88_);}
	.st38{clip-path:url(#SVGID_90_);}
	.st39{clip-path:url(#SVGID_94_);}
	.st40{clip-path:url(#SVGID_96_);}
	.st41{clip-path:url(#SVGID_100_);enable-background:new    ;}
	.st42{clip-path:url(#SVGID_102_);}
	.st43{clip-path:url(#SVGID_104_);}
	.st44{clip-path:url(#SVGID_106_);}
	.st45{clip-path:url(#SVGID_108_);}
	.st46{clip-path:url(#SVGID_112_);}
	.st47{clip-path:url(#SVGID_114_);}
	.st48{clip-path:url(#SVGID_119_);enable-background:new    ;}
	.st49{clip-path:url(#SVGID_121_);}
	.st50{clip-path:url(#SVGID_123_);}
	.st51{clip-path:url(#SVGID_125_);}
	.st52{clip-path:url(#SVGID_127_);}
	.st53{clip-path:url(#SVGID_131_);}
	.st54{clip-path:url(#SVGID_133_);}
	.st55{clip-path:url(#SVGID_137_);enable-background:new    ;}
	.st56{clip-path:url(#SVGID_139_);}
	.st57{clip-path:url(#SVGID_141_);}
	.st58{clip-path:url(#SVGID_143_);}
	.st59{clip-path:url(#SVGID_145_);}
	.st60{clip-path:url(#SVGID_149_);}
	.st61{clip-path:url(#SVGID_151_);}
	.st62{clip-path:url(#SVGID_155_);enable-background:new    ;}
	.st63{clip-path:url(#SVGID_157_);}
	.st64{clip-path:url(#SVGID_159_);}
	.st65{clip-path:url(#SVGID_161_);}
	.st66{clip-path:url(#SVGID_163_);}
	.st67{clip-path:url(#SVGID_167_);}
	.st68{clip-path:url(#SVGID_169_);}
	.st69{clip-path:url(#SVGID_173_);enable-background:new    ;}
	.st70{clip-path:url(#SVGID_175_);}
	.st71{clip-path:url(#SVGID_177_);}
	.st72{clip-path:url(#SVGID_179_);}
	.st73{clip-path:url(#SVGID_181_);}
	.st74{clip-path:url(#SVGID_185_);}
	.st75{clip-path:url(#SVGID_187_);}
	.st76{clip-path:url(#SVGID_191_);enable-background:new    ;}
	.st77{clip-path:url(#SVGID_193_);}
	.st78{clip-path:url(#SVGID_195_);}
	.st79{clip-path:url(#SVGID_197_);}
	.st80{clip-path:url(#SVGID_199_);}
	.st81{clip-path:url(#SVGID_205_);}
	.st82{clip-path:url(#SVGID_209_);}
	.st83{clip-path:url(#SVGID_211_);}
	.st84{clip-path:url(#SVGID_215_);enable-background:new    ;}
	.st85{clip-path:url(#SVGID_217_);}
	.st86{clip-path:url(#SVGID_219_);}
	.st87{clip-path:url(#SVGID_221_);}
	.st88{clip-path:url(#SVGID_223_);}
	.st89{clip-path:url(#SVGID_227_);}
	.st90{clip-path:url(#SVGID_229_);}
	.st91{clip-path:url(#SVGID_233_);enable-background:new    ;}
	.st92{clip-path:url(#SVGID_235_);}
	.st93{clip-path:url(#SVGID_237_);}
	.st94{clip-path:url(#SVGID_239_);}
	.st95{clip-path:url(#SVGID_241_);}
	.st96{clip-path:url(#SVGID_245_);}
	.st97{clip-path:url(#SVGID_247_);}
	.st98{clip-path:url(#SVGID_251_);enable-background:new    ;}
	.st99{clip-path:url(#SVGID_253_);}
	.st100{clip-path:url(#SVGID_255_);}
	.st101{clip-path:url(#SVGID_257_);}
	.st102{clip-path:url(#SVGID_259_);}
	.st103{clip-path:url(#SVGID_263_);}
	.st104{clip-path:url(#SVGID_265_);}
	.st105{clip-path:url(#SVGID_269_);enable-background:new    ;}
	.st106{clip-path:url(#SVGID_271_);}
	.st107{clip-path:url(#SVGID_273_);}
	.st108{clip-path:url(#SVGID_275_);}
	.st109{clip-path:url(#SVGID_277_);}
	.st110{clip-path:url(#SVGID_283_);}
	.st111{clip-path:url(#SVGID_287_);}
	.st112{clip-path:url(#SVGID_289_);}
	.st113{clip-path:url(#SVGID_293_);enable-background:new    ;}
	.st114{clip-path:url(#SVGID_295_);}
	.st115{clip-path:url(#SVGID_297_);}
	.st116{clip-path:url(#SVGID_299_);}
	.st117{clip-path:url(#SVGID_301_);}
	.st118{clip-path:url(#SVGID_305_);}
	.st119{clip-path:url(#SVGID_307_);}
	.st120{clip-path:url(#SVGID_309_);}
	.st121{clip-path:url(#SVGID_311_);}
	.st122{clip-path:url(#SVGID_315_);enable-background:new    ;}
	.st123{clip-path:url(#SVGID_317_);}
	.st124{clip-path:url(#SVGID_319_);}
	.st125{clip-path:url(#SVGID_321_);}
	.st126{clip-path:url(#SVGID_323_);}
	.st127{clip-path:url(#SVGID_325_);}
	.st128{clip-path:url(#SVGID_327_);}
	.st129{clip-path:url(#SVGID_329_);}
	.st130{clip-path:url(#SVGID_331_);}
	.st131{clip-path:url(#SVGID_335_);}
	.st132{clip-path:url(#SVGID_337_);}
	.st133{clip-path:url(#SVGID_341_);enable-background:new    ;}
	.st134{clip-path:url(#SVGID_343_);}
	.st135{clip-path:url(#SVGID_345_);}
	.st136{clip-path:url(#SVGID_347_);}
	.st137{clip-path:url(#SVGID_349_);}
	.st138{clip-path:url(#SVGID_353_);}
	.st139{clip-path:url(#SVGID_355_);}
	.st140{clip-path:url(#SVGID_359_);enable-background:new    ;}
	.st141{clip-path:url(#SVGID_361_);}
	.st142{clip-path:url(#SVGID_363_);}
	.st143{clip-path:url(#SVGID_365_);}
	.st144{clip-path:url(#SVGID_367_);}
	.st145{clip-path:url(#SVGID_371_);}
	.st146{clip-path:url(#SVGID_373_);}
	.st147{clip-path:url(#SVGID_377_);enable-background:new    ;}
	.st148{clip-path:url(#SVGID_379_);}
	.st149{clip-path:url(#SVGID_381_);}
	.st150{clip-path:url(#SVGID_383_);}
	.st151{clip-path:url(#SVGID_385_);}
	.st152{clip-path:url(#SVGID_389_);}
	.st153{clip-path:url(#SVGID_391_);}
	.st154{clip-path:url(#SVGID_395_);}
	.st155{clip-path:url(#SVGID_397_);}
	.st156{clip-path:url(#SVGID_401_);}
	.st157{clip-path:url(#SVGID_403_);}
	.st158{clip-path:url(#SVGID_407_);}
	.st159{clip-path:url(#SVGID_409_);}
	.st160{clip-path:url(#SVGID_413_);}
	.st161{clip-path:url(#SVGID_415_);}
	.st162{clip-path:url(#SVGID_419_);}
	.st163{clip-path:url(#SVGID_421_);}
	.st164{clip-path:url(#SVGID_425_);}
	.st165{clip-path:url(#SVGID_427_);}
	.st166{clip-path:url(#SVGID_431_);}
	.st167{clip-path:url(#SVGID_433_);}
	.st168{clip-path:url(#SVGID_435_);}
	.st169{clip-path:url(#SVGID_439_);}
	.st170{clip-path:url(#SVGID_441_);}
	.st171{clip-path:url(#SVGID_445_);}
	.st172{clip-path:url(#SVGID_447_);}
	.st173{clip-path:url(#SVGID_453_);}
	.st174{clip-path:url(#SVGID_455_);}
	.st175{clip-path:url(#SVGID_459_);}
	.st176{clip-path:url(#SVGID_461_);}
	.st177{clip-path:url(#SVGID_465_);}
	.st178{clip-path:url(#SVGID_467_);}
	.st179{clip-path:url(#SVGID_471_);}
	.st180{clip-path:url(#SVGID_473_);}
	.st181{clip-path:url(#SVGID_477_);}
	.st182{clip-path:url(#SVGID_479_);}
	.st183{clip-path:url(#SVGID_483_);}
	.st184{clip-path:url(#SVGID_485_);}
	.st185{clip-path:url(#SVGID_489_);}
	.st186{clip-path:url(#SVGID_491_);}
	.st187{clip-path:url(#SVGID_493_);}
	.st188{clip-path:url(#SVGID_497_);}
	.st189{clip-path:url(#SVGID_499_);}
	.st190{clip-path:url(#SVGID_503_);}
	.st191{clip-path:url(#SVGID_507_);}
	.st192{clip-path:url(#SVGID_509_);}
	.st193{clip-path:url(#SVGID_515_);}
	.st194{clip-path:url(#SVGID_517_);}
	.st195{clip-path:url(#SVGID_521_);}
	.st196{clip-path:url(#SVGID_523_);}
	.st197{clip-path:url(#SVGID_527_);enable-background:new    ;}
	.st198{clip-path:url(#SVGID_529_);}
	.st199{clip-path:url(#SVGID_531_);}
	.st200{clip-path:url(#SVGID_533_);enable-background:new    ;}
	.st201{clip-path:url(#SVGID_535_);}
	.st202{clip-path:url(#SVGID_537_);}
	.st203{clip-path:url(#SVGID_539_);enable-background:new    ;}
	.st204{clip-path:url(#SVGID_541_);}
	.st205{clip-path:url(#SVGID_543_);}
	.st206{clip-path:url(#SVGID_545_);enable-background:new    ;}
	.st207{clip-path:url(#SVGID_547_);}
	.st208{clip-path:url(#SVGID_549_);}
	.st209{clip-path:url(#SVGID_551_);enable-background:new    ;}
	.st210{clip-path:url(#SVGID_553_);}
	.st211{clip-path:url(#SVGID_555_);}
	.st212{clip-path:url(#SVGID_557_);enable-background:new    ;}
	.st213{clip-path:url(#SVGID_559_);}
	.st214{clip-path:url(#SVGID_561_);}
	.st215{clip-path:url(#SVGID_563_);enable-background:new    ;}
	.st216{clip-path:url(#SVGID_565_);}
	.st217{clip-path:url(#SVGID_567_);}
	.st218{clip-path:url(#SVGID_569_);}
	.st219{clip-path:url(#SVGID_571_);enable-background:new    ;}
	.st220{clip-path:url(#SVGID_573_);}
	.st221{clip-path:url(#SVGID_575_);}
	.st222{clip-path:url(#SVGID_577_);enable-background:new    ;}
	.st223{clip-path:url(#SVGID_579_);}
	.st224{clip-path:url(#SVGID_581_);}
	.st225{clip-path:url(#SVGID_583_);enable-background:new    ;}
	.st226{clip-path:url(#SVGID_585_);}
	.st227{clip-path:url(#SVGID_587_);}
	.st228{clip-path:url(#SVGID_589_);}
	.st229{clip-path:url(#SVGID_591_);enable-background:new    ;}
	.st230{clip-path:url(#SVGID_593_);}
	.st231{clip-path:url(#SVGID_595_);}
	.st232{clip-path:url(#SVGID_597_);enable-background:new    ;}
	.st233{clip-path:url(#SVGID_599_);}
	.st234{clip-path:url(#SVGID_601_);}
	.st235{clip-path:url(#SVGID_603_);enable-background:new    ;}
	.st236{clip-path:url(#SVGID_605_);}
	.st237{clip-path:url(#SVGID_607_);}
	.st238{clip-path:url(#SVGID_609_);enable-background:new    ;}
	.st239{clip-path:url(#SVGID_611_);}
	.st240{clip-path:url(#SVGID_613_);}
	.st241{clip-path:url(#SVGID_615_);enable-background:new    ;}
	.st242{clip-path:url(#SVGID_617_);}
	.st243{clip-path:url(#SVGID_619_);}
	.st244{clip-path:url(#SVGID_621_);enable-background:new    ;}
	.st245{clip-path:url(#SVGID_623_);}
	.st246{clip-path:url(#SVGID_625_);}
	.st247{clip-path:url(#SVGID_627_);}
	.st248{clip-path:url(#SVGID_629_);enable-background:new    ;}
	.st249{clip-path:url(#SVGID_631_);}
	.st250{clip-path:url(#SVGID_633_);}
	.st251{clip-path:url(#SVGID_635_);enable-background:new    ;}
	.st252{clip-path:url(#SVGID_637_);}
	.st253{clip-path:url(#SVGID_639_);}
	.st254{clip-path:url(#SVGID_641_);}
	.st255{clip-path:url(#SVGID_643_);}
	.st256{clip-path:url(#SVGID_645_);}
	.st257{clip-path:url(#SVGID_647_);}
	.st258{clip-path:url(#SVGID_649_);}
	.st259{clip-path:url(#SVGID_651_);enable-background:new    ;}
	.st260{clip-path:url(#SVGID_653_);enable-background:new    ;}
	.st261{clip-path:url(#SVGID_655_);}
	.st262{clip-path:url(#SVGID_657_);}
	.st263{clip-path:url(#SVGID_659_);enable-background:new    ;}
	.st264{clip-path:url(#SVGID_661_);}
	.st265{clip-path:url(#SVGID_663_);}
	.st266{clip-path:url(#SVGID_665_);}
	.st267{clip-path:url(#SVGID_667_);}
	.st268{clip-path:url(#SVGID_671_);}
	.st269{clip-path:url(#SVGID_673_);}
	.st270{clip-path:url(#SVGID_677_);}
	.st271{clip-path:url(#SVGID_679_);}
	.st272{clip-path:url(#SVGID_683_);}
	.st273{clip-path:url(#SVGID_685_);}
	.st274{clip-path:url(#SVGID_689_);}
	.st275{clip-path:url(#SVGID_691_);}
	.st276{clip-path:url(#SVGID_695_);}
	.st277{clip-path:url(#SVGID_697_);}
	.st278{clip-path:url(#SVGID_701_);}
	.st279{clip-path:url(#SVGID_703_);}
	.st280{clip-path:url(#SVGID_707_);}
	.st281{clip-path:url(#SVGID_709_);}
	.st282{clip-path:url(#SVGID_711_);}
	.st283{clip-path:url(#SVGID_715_);}
	.st284{clip-path:url(#SVGID_717_);}
	.st285{clip-path:url(#SVGID_721_);}
	.st286{clip-path:url(#SVGID_723_);}
	.st287{clip-path:url(#SVGID_729_);}
	.st288{clip-path:url(#SVGID_731_);}
	.st289{clip-path:url(#SVGID_735_);}
	.st290{clip-path:url(#SVGID_737_);}
	.st291{clip-path:url(#SVGID_741_);}
	.st292{clip-path:url(#SVGID_743_);}
	.st293{clip-path:url(#SVGID_747_);}
	.st294{clip-path:url(#SVGID_749_);}
	.st295{clip-path:url(#SVGID_753_);}
	.st296{clip-path:url(#SVGID_755_);}
	.st297{clip-path:url(#SVGID_759_);}
	.st298{clip-path:url(#SVGID_761_);}
	.st299{clip-path:url(#SVGID_765_);}
	.st300{clip-path:url(#SVGID_767_);}
	.st301{clip-path:url(#SVGID_769_);}
	.st302{clip-path:url(#SVGID_773_);}
	.st303{clip-path:url(#SVGID_775_);}
	.st304{clip-path:url(#SVGID_779_);}
	.st305{clip-path:url(#SVGID_783_);}
	.st306{clip-path:url(#SVGID_785_);}
	.st307{clip-path:url(#SVGID_791_);}
	.st308{clip-path:url(#SVGID_793_);}
	.st309{clip-path:url(#SVGID_797_);}
	.st310{clip-path:url(#SVGID_799_);}
	.st311{clip-path:url(#SVGID_803_);}
	.st312{clip-path:url(#SVGID_805_);}
	.st313{clip-path:url(#SVGID_809_);}
	.st314{clip-path:url(#SVGID_811_);}
	.st315{clip-path:url(#SVGID_813_);}
	.st316{clip-path:url(#SVGID_815_);}
	.st317{clip-path:url(#SVGID_817_);}
	.st318{clip-path:url(#SVGID_821_);}
	.st319{clip-path:url(#SVGID_823_);}
	.st320{clip-path:url(#SVGID_827_);enable-background:new    ;}
	.st321{clip-path:url(#SVGID_829_);}
	.st322{clip-path:url(#SVGID_831_);}
	.st323{clip-path:url(#SVGID_833_);}
	.st324{clip-path:url(#SVGID_835_);}
	.st325{clip-path:url(#SVGID_839_);}
	.st326{clip-path:url(#SVGID_841_);}
	.st327{clip-path:url(#SVGID_845_);enable-background:new    ;}
	.st328{clip-path:url(#SVGID_847_);}
	.st329{clip-path:url(#SVGID_849_);}
	.st330{clip-path:url(#SVGID_851_);}
	.st331{clip-path:url(#SVGID_853_);}
</style>


















































































<path
   id="path10322"
   style="fill:#000000"
   d="m 6019.002,387.04883 c -2.2236,0.0456 -4.649,1.12143 -5.4786,3.31836 -0.9656,2.34075 0.016,4.82088 0.1627,7.21284 0.2252,2.09725 0.2563,4.03379 0.3357,6.12965 0.01,1.57316 0.072,3.23484 0.9738,4.62833 0.6532,1.08954 1.6728,1.99028 2.8931,2.38074 0.2889,5.59783 -0.147,11.22138 0.3945,16.80664 0.2995,2.48283 1.6951,5.06712 4.1914,5.89063 2.4092,0.86198 5.0113,0.53269 7.5156,0.53411 2.4977,-0.13542 5.0539,-1.5377 5.9441,-3.97631 1.1875,-2.85268 0.93,-6.01323 1.0564,-9.03263 0.077,-4.93471 -0.1703,-9.88795 0.2931,-14.80771 -0.1121,-0.65967 0.6179,-0.38884 1.0248,-0.40887 1.9083,0.1757 3.8308,0.2522 5.7266,0.54687 0.4523,1.96703 1.9138,3.7049 3.9062,4.2168 2.5343,0.74818 5.2116,0.43558 7.8152,0.48704 2.3187,0.0388 5.0097,-0.4911 6.3332,-2.60032 0.4508,-0.70593 0.6993,-1.52065 0.8243,-2.34375 2.26,-0.0697 4.5253,-0.0355 6.7832,0.0684 1.5584,2.70007 5.2242,3.56383 8.0136,2.4082 0.6734,-0.17284 1.1504,-0.8618 1.8868,-0.69726 1.474,-0.0568 2.9368,-0.64599 3.9902,-1.6875 2.7938,-0.42813 5.6365,-0.19505 8.449,-0.12879 0.989,0.0365 1.9763,0.10702 2.9631,0.18152 0.023,2.00528 0.4872,4.16224 2.0586,5.54102 2.2344,2.05399 6.2237,1.5425 7.8105,-1.06836 0.5981,-0.85901 0.8858,-1.90565 1.0567,-2.91211 0.9518,-0.20859 1.8027,-0.75895 2.592,-1.2575 2.5714,-0.1115 5.0761,0.23399 7.576,0.50945 0.3424,0.27689 0.044,1.04465 0.1,1.51054 -0.1912,2.27776 -0.3804,4.67527 0.6272,6.80715 1.1699,2.72069 3.3308,5.01168 5.9311,6.41083 3.1259,1.45888 6.6636,1.15435 10.0164,1.28349 3.0219,0.0222 6.0538,-0.10513 9.0656,0.20479 0.3388,3.0414 0.044,6.1087 0.2511,9.15886 0.052,1.66593 0.1544,3.35182 0.6395,4.95637 -1.0382,2.93017 -0.736,6.13184 -0.2222,9.13674 0.5906,3.21333 2.1192,6.31445 4.6631,8.42315 1.6358,1.50832 3.7943,2.42827 6.0298,2.44186 6.6911,0.59756 13.4172,0.62001 20.1301,0.66575 6.4571,-0.004 12.9332,0.0795 19.3674,-0.53664 3.4675,-0.34902 7.2202,-1.19911 9.6138,-3.93555 2.1152,-2.46547 2.9422,-5.73526 3.4591,-8.86883 0.346,-2.33157 0.2535,-4.79045 -0.6114,-6.98859 0.8611,-2.51029 0.7142,-5.2122 0.8368,-7.82687 0.024,-2.18768 -0.044,-4.37502 -0.091,-6.5618 2.852,-0.54056 5.7781,-0.36203 8.666,-0.41324 11.17,-0.0112 22.3718,0.54806 33.5143,-0.4756 2.0466,-0.19152 4.0338,-0.96249 5.5809,-2.33233 3.9408,-3.09781 6.2906,-8.07454 6.2971,-13.0721 -0.1802,-0.66248 0.8252,-0.28584 1.2034,-0.45673 6.0133,-0.32714 12.0405,-0.27826 18.0609,-0.27397 4.1975,0.0453 8.3961,0.161 12.5836,0.46147 2.4211,1.73745 5.9678,1.72844 8.4219,0.0547 0.4901,-0.63444 1.3768,-0.3239 2.0743,-0.48729 1.8614,-0.15779 3.7085,-0.45608 5.5827,-0.39535 2.8903,-0.0495 5.7848,-0.0344 8.6692,0.17365 1.122,2.2318 3.9133,3.02003 6.2319,2.53549 2.5133,-0.32743 5.0902,-0.85809 7.2349,-2.27767 3.3191,-0.33556 6.6646,-0.377 9.998,-0.25977 0.047,2.24641 1.2085,4.66216 3.4375,5.44531 2.0916,0.76178 4.5088,0.68036 6.5489,-0.20312 1.3683,-0.71233 2.3787,-2.02697 2.7851,-3.50781 1.038,-0.23713 2.0286,-0.73375 2.793,-1.48243 3.5491,-0.43104 7.1339,-0.30247 10.6992,-0.23437 0.6488,2.08705 2.6315,3.57836 4.793,3.75195 2.1205,0.29559 4.2906,0.22631 6.4062,-0.0625 1.8944,-0.39366 3.6456,-1.75312 4.2207,-3.63867 3.3865,0.009 6.8096,0.10991 10.166,0.34961 0.2634,2.38986 1.2245,5.03006 3.5176,6.15234 2.1852,1.07805 5.0362,0.19106 6.2836,-1.88819 0.226,-0.48352 0.465,-0.82923 1.056,-0.70448 2.2116,-0.20645 4.252,-1.7647 4.9339,-3.89365 4.4592,-0.0639 8.9181,0.1394 13.3732,0.3094 0.5231,0.0688 1.2676,-0.11707 1.283,0.63005 0.9567,2.48121 3.5498,4.30346 6.2461,4.00781 2.4351,-0.21468 4.5559,-2.12996 5.1777,-4.46875 5.7249,-0.47179 11.4765,-0.35563 17.2152,-0.42845 21.1945,-0.098 42.3915,0.025 63.584,-0.2709 1.8593,-0.0917 3.7653,-0.48062 5.5993,0.0118 0.9156,2.5912 3.7399,3.95777 6.3602,3.968 2.7733,0.15841 5.6001,0.23364 8.3332,-0.32736 1.4142,-0.3753 2.7546,-1.22853 3.498,-2.51369 0.9015,-0.0685 1.8077,-0.0743 2.7109,-0.0371 0.075,29.89227 -0.2554,59.78745 0.251,89.67726 0.1224,4.31765 -0.011,8.71472 1.0654,12.93017 0.5676,2.08768 2.3133,3.79719 4.4649,4.17383 1.7546,0.33474 3.5565,0.17002 5.33,0.15997 2.2953,-0.15031 4.584,-1.57117 5.2834,-3.8413 0.6727,-1.76199 0.7822,-3.66473 0.9608,-5.52375 0.075,-0.51109 0.13,-1.35946 0.1462,-2.00323 0.3355,-8.30331 0.264,-16.61672 0.3333,-24.92522 0.054,-19.43573 -0.2657,-38.87147 -0.1,-58.30689 0.069,-3.28294 0.01,-6.61829 0.411,-9.86037 0.9342,-0.90573 1.4304,-2.17867 1.666,-3.4375 3.3712,-0.11484 6.7475,-0.0553 10.1194,-10e-6 0.6518,-0.10739 0.3778,0.77939 0.5026,1.19571 0.095,1.58668 0.094,3.13142 0.1554,4.77017 0.4843,21.15072 0.2567,42.30849 0.4517,63.46201 0.092,5.11676 0.07,10.27002 0.8963,15.33345 0.4205,2.62496 1.6924,5.4347 4.2853,6.5194 2.1435,0.90945 4.5446,0.69986 6.8049,0.51008 2.6984,-0.42921 4.8402,-2.6921 5.4547,-5.30682 1.0464,-3.60489 1.0544,-7.39894 1.2266,-11.11908 0.3659,-12.2852 0.1981,-24.57773 0.2567,-36.86647 0.038,-10.56141 -0.1006,-21.13007 0.3718,-31.68398 0.1308,-2.24217 0.2924,-4.50589 0.8809,-6.68164 1.4831,-0.006 2.9679,0.0489 4.4433,0.20507 0.2487,2.90083 0.1323,6.06933 1.836,8.58204 1.5867,2.20993 5.0715,2.73193 7.1484,0.91601 1.9563,-1.57279 2.2464,-4.25742 2.2985,-6.59861 0.038,-0.87482 0,-1.75081 0.02,-2.626 1.4324,-0.25968 3.0646,-0.41452 4.4003,-0.49219 1.381,-0.0729 2.7201,-0.14299 4.1602,-0.15973 0.4772,0.0644 1.1713,-0.12622 1.5371,0.0699 0.2361,2.04724 1.6816,3.91318 3.697,4.46553 1.7455,0.63518 3.6656,0.29324 5.4397,0.5501 1.9276,2.05535 5.2578,2.41173 7.7442,1.23828 2.091,-1.07703 3.0337,-3.56575 2.9931,-5.78067 -0.2059,-0.7423 0.5201,-0.52996 1.0186,-0.56308 1.6738,-0.009 3.3478,0.0161 5.0215,0.0234 -0.01,2.02931 0.9107,4.18711 2.8144,5.10547 2.2932,1.19569 4.9605,0.77248 7.4453,0.86133 2.2802,-3.4e-4 4.8309,0.0554 6.7305,-1.40234 1.348,-1.1074 2.0171,-2.87899 1.9981,-4.59766 2.913,-0.23216 5.8457,-0.15341 8.7656,-0.0977 0.8865,0.0637 1.7918,0.1229 2.6523,0.32618 1.0064,1.49131 2.633,2.7189 4.5059,2.65625 1.503,0.0139 2.8824,-0.72798 4.0039,-1.66797 2.538,-0.72608 5.2166,-0.77172 7.837,-0.95943 2.9559,-0.12621 5.8141,-0.25471 8.7919,-0.22417 1.0063,2.01175 3.4172,2.99904 5.5853,2.62738 2.6409,-0.24534 5.3143,-0.82352 7.6745,-2.04925 2.7083,-0.10161 5.4218,0.0694 8.1054,0.4375 -0.8452,3.29467 -0.7436,6.73078 -0.8843,10.10427 -0.086,5.39613 -0.1002,10.81717 0.5386,16.18284 0.1738,1.2143 0.5589,2.44312 1.3965,3.36914 0.016,1.84711 0.114,3.8682 1.4013,5.32893 1.514,1.78636 4.0225,2.06392 6.2186,1.96891 2.1874,0.0794 4.6692,-0.28306 6.1205,-2.10077 1.1878,-1.30547 1.2163,-3.14649 1.3534,-4.80449 1.2577,-1.25543 1.3525,-3.14337 1.6054,-4.80078 0.6403,-7.76191 -0.1199,-15.55676 0.347,-23.324 0.1078,-0.77688 0.099,-1.52688 0.3952,-2.28147 2.0886,-0.15771 4.1909,0.12709 6.2749,0.29304 0.5131,0.0552 -0.1638,0.8553 -0.084,1.24316 -0.5376,3.24317 -0.5236,6.55 -0.6049,9.82924 -0.01,3.87142 0.04,7.76622 0.6035,11.60186 0.1927,1.1051 0.5871,2.21533 1.3696,3.04442 0.011,1.9072 0.1265,4.03843 1.541,5.48437 1.5142,1.62942 3.8628,1.90458 5.966,1.81298 2.2006,0.10421 4.7157,-0.2205 6.1926,-2.04114 1.2115,-1.42772 1.3389,-3.38663 1.3336,-5.17614 1.8483,-1.98071 1.9193,-4.86264 1.9942,-7.41796 0.08,-0.81426 -0.1212,-1.76657 0.5234,-2.39258 1.055,-1.80876 1.0947,-3.97337 1.3793,-5.99615 0.3299,-3.46203 0.2653,-6.9477 0.5894,-10.4101 1.4001,-0.0808 2.8662,-0.109 4.2286,0.0312 0.9429,3.93942 0.8499,8.02462 1.0483,12.04585 0.3873,13.60477 0.5408,27.2837 0.9829,40.91313 0.113,1.17853 -0.026,2.38405 0.1992,3.5415 0.5422,1.83655 2.6114,2.6811 4.3731,2.80616 2.1727,0.0535 4.3666,0.25224 6.5293,-0.043 2.0127,-0.28335 3.8304,-1.63451 4.5449,-3.55859 0.8099,-2.16818 0.8953,-4.51905 1.205,-6.79281 0.1883,-1.82845 0.3166,-3.66303 0.377,-5.50016 3.9906,-0.0772 8.1403,-1.1033 11.1916,-3.80224 0.2851,-0.12095 0.9047,-1.127 0.828,-0.47784 0.044,3.10002 0,6.23199 0.5485,9.29315 0.4458,2.45944 2.0666,4.8741 4.5821,5.54181 2.2377,0.67901 4.6094,0.41127 6.9104,0.38457 2.5328,-0.18301 5.0491,-1.73499 5.8711,-4.22055 1.148,-2.98562 0.939,-6.24863 1.0574,-9.38711 0.082,-6.22352 -0.087,-12.45202 0.1984,-18.67164 0.4838,-0.12157 0.9053,-0.52432 1.4148,-0.28084 3.3983,0.59371 6.8672,0.48913 10.3028,0.60265 5.2524,0.0842 10.5212,-0.14988 15.7601,0.3072 0.6443,0.0199 0.2327,0.98388 0.3456,1.43189 0.072,5.21926 0.2019,10.5486 1.2881,15.70473 0.5858,2.41476 2.776,4.39186 5.3014,4.46936 1.9806,0.17169 4.0093,0.20058 5.9661,-0.17249 2.3306,-0.60384 4.0231,-2.78037 4.2854,-5.13921 0.6027,-3.47864 0.7073,-7.02055 0.9588,-10.53657 0.4354,-7.87593 0.7421,-15.77453 0.4785,-23.66015 -0.039,-1.041 -0.1748,-2.10109 -0.6172,-3.05469 0.1563,-0.64836 0.2511,-1.34613 0.498,-1.94727 3.5662,-0.53828 7.1894,-0.32986 10.7828,-0.36858 0.5247,0.0386 1.3472,-0.17088 1.0723,0.64631 -0.049,2.31504 0.4498,4.98172 2.5004,6.3668 0.6932,0.47057 1.4973,0.76235 2.3223,0.89454 0.095,3.89838 -0.01,7.83927 0.7004,11.68778 0.4332,2.11916 2.0682,4.12524 4.3191,4.35714 2.5967,0.40493 5.0881,-1.70287 5.5014,-4.22738 0.798,-3.38234 0.6493,-6.88743 0.846,-10.33462 0.047,-1.74804 0.063,-3.45284 0.1253,-5.1548 0.035,-0.56016 0.068,-1.46043 0.1349,-2.1491 0.058,-0.69482 0.1269,-1.39068 0.2342,-2.07942 3.1181,-0.72719 6.481,-0.60285 9.4004,-2.05273 2.0479,-1.15181 3.0605,-3.58697 2.8828,-5.87109 0.115,-2.25224 0,-4.81782 -1.7168,-6.49805 -1.4384,-1.42964 -3.5849,-1.64151 -5.5117,-1.61133 -1.3586,-1.06569 -3.1315,-1.13131 -4.7814,-1.12661 -14.4759,-0.38848 -28.9601,-0.41021 -43.4404,-0.54638 -73.5295,-0.47551 -147.0607,-0.57236 -220.5915,-0.65632 -96.5133,-0.055 -193.0265,0.11265 -289.5398,0.16817 -81.0896,0.082 -162.1792,0.0794 -243.2688,0.15162 -20.2278,0.006 -40.4576,0.14236 -60.6835,-0.1998 -5.3253,-0.10048 -10.5825,-0.19825 -15.893,-0.64009 -1.1811,-0.0783 -2.3659,-0.11474 -3.5496,-0.09 z m 148.1074,19.07617 c 0.3401,2.06763 1.7766,4.02008 3.8476,4.59375 0.2143,2.22035 0.2285,4.28789 0.3214,6.52684 0.1877,2.44557 0.052,5.09129 1.3857,7.26027 0.9809,1.71176 2.8231,2.75749 4.7529,2.9912 2.0311,0.32917 4.1044,0.37447 6.1573,0.36363 1.2188,-0.09 2.432,-0.46593 3.4394,-1.16733 0.034,3.47751 -0.01,6.99693 0.6875,10.41797 -0.2456,0.54654 -0.4196,1.12384 -0.5371,1.71094 -3.6268,0.24724 -7.2673,0.12884 -10.9,0.17257 -4.2962,-0.002 -8.727,0.0399 -12.9379,-0.0632 -0.8345,-0.0341 -1.6705,-0.0376 -2.5039,-0.0918 -0.044,-0.67101 -0.5191,-1.29872 -0.4766,-1.9375 0.6852,-2.97529 0.5467,-6.05725 0.633,-9.08892 0.01,-4.28651 0.1297,-8.59833 -0.4086,-12.85949 -0.2186,-1.32307 -0.5971,-2.62788 -1.2049,-3.82698 1.1495,-1.29848 1.6258,-3.04474 1.7754,-4.73828 1.6861,-0.16908 3.1979,-0.17021 4.9006,-0.24545 0.3462,0.003 0.7592,-0.0659 1.0682,-0.0182 z m 629.8984,0.16992 c 10e-4,1.69912 0.339,3.49465 1.4785,4.81641 -1.1218,0.4366 -2.2047,0.97393 -3.2226,1.61719 0.047,-2.15869 0.059,-4.32551 0.3496,-6.46875 0.4023,0.0448 1.2447,-0.29336 1.3945,0.0351 z m 46.8223,0.19922 c 1.7487,0.036 3.4979,-0.0102 5.2461,0.0449 0.039,0.57937 0.3724,1.2597 -0.1133,1.72266 -0.2997,0.48704 -0.5226,1.01738 -0.6738,1.56836 -2.212,0.18248 -4.4333,0.1303 -6.6504,0.1543 0.295,-0.78652 0.3567,-1.56546 0.4333,-2.30121 0.156,-0.33554 -0.1517,-1.12368 0.2857,-1.15764 0.4906,-0.0251 0.9813,-0.0285 1.4724,-0.0314 z m -21.8184,0.006 c 0.6298,-0.13039 0.9681,0.0416 0.8627,0.70123 0.085,1.1051 0.2408,2.22452 0.6881,3.24799 -0.6685,-0.0123 -1.3748,0.47368 -1.9785,0.0449 -0.7704,-0.0169 -0.3493,-0.84944 -0.4254,-1.33966 0.03,-0.88399 0.089,-1.76749 0.1656,-2.64862 0.2292,-0.002 0.4584,-0.004 0.6875,-0.006 z m -629.6113,0.51953 c -0.6834,0.55065 -1.3294,1.1485 -1.9473,1.77149 0.1396,-0.5168 -0,-1.20255 0.4043,-1.60547 0.6057,-0.16017 1.2188,-0.29371 1.8399,-0.37891 -0.099,0.071 -0.198,0.14193 -0.2969,0.21289 z" />
</svg>
