<?xml version="1.0" encoding="UTF-8" standalone="no"?>
<svg
   xmlns:dc="http://purl.org/dc/elements/1.1/"
   xmlns:cc="http://creativecommons.org/ns#"
   xmlns:rdf="http://www.w3.org/1999/02/22-rdf-syntax-ns#"
   xmlns:svg="http://www.w3.org/2000/svg"
   xmlns="http://www.w3.org/2000/svg"
   xmlns:sodipodi="http://sodipodi.sourceforge.net/DTD/sodipodi-0.dtd"
   xmlns:inkscape="http://www.inkscape.org/namespaces/inkscape"
   inkscape:version="1.0beta2 (2b71d25, 2019-12-03)"
   sodipodi:docname="5 Industrial Agriculture Linking_mask-01.svg"
   id="svg2532"
   xml:space="preserve"
   enable-background="new 0 0 9451.4 623.5"
   viewBox="0 0 9451.4 623.5"
   x="0px" y="0px" width="9451.45px" height="623.52px"
   version="1.1"><metadata
     id="metadata2538"><rdf:RDF><cc:Work
         rdf:about=""><dc:format>image/svg+xml</dc:format><dc:type
           rdf:resource="http://purl.org/dc/dcmitype/StillImage" /><dc:title></dc:title></cc:Work></rdf:RDF></metadata><defs
     id="defs2536" /><sodipodi:namedview
     inkscape:current-layer="svg2532"
     inkscape:window-maximized="1"
     inkscape:window-y="0"
     inkscape:window-x="0"
     inkscape:cy="86.370833"
     inkscape:cx="5128.7539"
     inkscape:zoom="0.06215643"
     showgrid="false"
     id="namedview2534"
     inkscape:window-height="878"
     inkscape:window-width="1440"
     inkscape:pageshadow="2"
     inkscape:pageopacity="0"
     guidetolerance="10"
     gridtolerance="10"
     objecttolerance="10"
     borderopacity="0.75"
     inkscape:document-rotation="0"
     bordercolor="#666666"
     pagecolor="#434343" /><g
     transform="matrix(15.733871,0,0,16.41712,10.072556,-6599.3595)"
     id="AR_x5F_layer-0"
     opacity="5.000000e-02"><g
       id="g1193"><polygon
         fill="#B77432"
         points="53.6,419 53.6,418.9 53.6,418.9 53.6,417.9 53.6,417.9 53.6,417.8 53.3,418 51.4,419.1 51.4,418.2 51,418.2 51,420.9 51.4,420.9 51.4,419.8 51.7,419.5 53.2,419 53.2,420.9 53.6,420.9 "
         id="polygon1145" /><polygon
         fill="#B77432"
         points="53.6,421.7 53.6,421.4 53.6,421.4 53.3,421.6 51.4,422.7 51.4,421.7 51,421.7 51,424.5 51.4,424.5 51.4,423.4 52.6,422.5 53.2,422.2 53.2,424.5 53.6,424.5 53.6,422 "
         id="polygon1147" /><polygon
         fill="#B77432"
         points="53.6,425 53.6,425 53.3,425.2 51.4,426.2 51.4,425.3 51,425.3 51,428.1 51.4,428.1 51.4,427 53.2,425.7 53.2,428.1 53.6,428.1 53.6,425.5 53.6,425.4 53.6,425.3 "
         id="polygon1149" /><polygon
         fill="#B77432"
         points="51.4,428.9 51,428.9 51,431.7 51.4,431.7 51.4,430.5 53.5,429 53.4,428.9 53.6,428.9 53.6,428.6 51.4,430.1 "
         id="polygon1151" /><polygon
         fill="#B77432"
         points="56.9,418.2 56.9,417.9 56.9,417.8 56.6,418 54.7,419.1 54.7,418.2 54.4,418.2 54.4,420.9 54.7,420.9 54.7,419.8 55,419.6 56.6,419.2 56.6,420.9 56.9,420.9 56.9,419.1 56.9,418.9 "
         id="polygon1153" /><polygon
         fill="#B77432"
         points="56.9,421.4 56.9,421.4 56.6,421.6 54.7,422.7 54.7,421.7 54.4,421.7 54.4,424.5 54.7,424.5 54.7,423.4 56.6,422.1 56.6,424.5 56.9,424.5 56.9,422 56.9,421.9 56.9,421.7 "
         id="polygon1155" /><polygon
         fill="#B77432"
         points="56.9,425.3 56.9,425 56.9,425 56.6,425.2 54.7,426.2 54.7,425.3 54.4,425.3 54.4,428.1 54.7,428.1 54.7,427 56.2,425.9 56.6,425.7 56.6,428.1 56.9,428.1 56.9,425.6 56.9,425.5 "
         id="polygon1157" /><polygon
         fill="#B77432"
         points="54.7,428.9 54.4,428.9 54.4,431.7 54.7,431.7 54.7,430.5 56.6,429.2 56.6,431.7 56.9,431.7 56.9,429 56.9,428.9 56.9,428.6 54.7,430.1 "
         id="polygon1159" /><polygon
         fill="#B77432"
         points="60.3,418.2 60.3,417.9 60.3,417.8 60,418 58.1,419.1 58.1,418.2 57.7,418.2 57.7,420.9 58.1,420.9 58.1,419.8 58.3,419.7 59.9,419.3 59.9,420.9 60.3,420.9 60.3,419.3 60.3,419.1 "
         id="polygon1161" /><polygon
         fill="#B77432"
         points="60.3,421.7 60.3,421.4 60.3,421.4 60,421.6 58.1,422.7 58.1,421.7 57.7,421.7 57.7,424.5 58.1,424.5 58.1,423.4 58.8,422.9 59.9,422.3 59.9,424.5 60.3,424.5 60.3,422.2 60.3,421.8 "
         id="polygon1163" /><polygon
         fill="#B77432"
         points="60.3,425.3 60.3,425 60.3,425 60,425.2 58.1,426.2 58.1,425.3 57.7,425.3 57.7,428.1 58.1,428.1 58.1,427 59.3,426.1 59.9,425.8 59.9,428.1 60.3,428.1 60.3,425.6 60.3,425.5 "
         id="polygon1165" /><polygon
         fill="#B77432"
         points="58.1,428.9 57.7,428.9 57.7,431.7 58.1,431.7 58.1,430.5 59.9,429.2 59.9,431.7 60.3,431.7 60.3,429 60.3,428.9 60.3,428.6 58.1,430.1 "
         id="polygon1167" /><polygon
         fill="#B77432"
         points="63.6,418.2 63.6,417.9 63.6,417.8 63.4,418 61.4,419.1 61.4,418.2 61.1,418.2 61.1,420.9 61.4,420.9 61.4,419.8 61.6,419.7 63.3,419.7 63.3,420.9 63.6,420.9 63.6,419.7 63.6,419.4 "
         id="polygon1169" /><polygon
         fill="#B77432"
         points="63.6,421.7 63.6,421.4 63.6,421.4 63.4,421.6 61.4,422.7 61.4,421.7 61.1,421.7 61.1,424.5 61.4,424.5 61.4,423.4 61.8,423.2 63.3,422.7 63.3,424.5 63.6,424.5 63.6,422.6 63.6,422 "
         id="polygon1171" /><polygon
         fill="#B77432"
         points="63.6,425.3 63.6,425 63.6,425 63.4,425.2 61.4,426.2 61.4,425.3 61.1,425.3 61.1,428.1 61.4,428.1 61.4,427 62.2,426.4 63.3,425.9 63.3,428.1 63.6,428.1 63.6,425.8 63.6,425.4 "
         id="polygon1173" /><polygon
         fill="#B77432"
         points="61.4,430.1 61.4,428.9 61.1,428.9 61.1,431.7 61.4,431.7 61.4,430.5 62.7,429.6 63.3,429.3 63.3,431.7 63.6,431.7 63.6,429.2 63.6,428.9 63.6,428.6 "
         id="polygon1175" /><polygon
         fill="#B77432"
         points="67,419.6 67,418.2 67,417.9 67,417.8 66.7,418 64.8,419.1 64.8,418.2 64.4,418.2 64.4,420.9 64.8,420.9 64.8,419.8 64.9,419.8 66.6,420.1 66.6,420.9 67,420.9 67,420.1 "
         id="polygon1177" /><polygon
         fill="#B77432"
         points="67,421.7 67,421.4 67,421.4 66.7,421.6 64.8,422.7 64.8,421.7 64.4,421.7 64.4,424.5 64.8,424.5 64.8,423.4 65.1,423.2 66.6,422.8 66.6,424.5 67,424.5 67,422.7 67,422 "
         id="polygon1179" /><polygon
         fill="#B77432"
         points="67,425.3 67,425 67,425 66.7,425.2 64.8,426.2 64.8,425.3 64.4,425.3 64.4,428.1 64.8,428.1 64.8,427 65.3,426.6 66.6,426.1 66.6,428.1 67,428.1 67,426 67,425.5 "
         id="polygon1181" /><polygon
         fill="#B77432"
         points="64.8,430.1 64.8,428.9 64.4,428.9 64.4,431.7 64.8,431.7 64.8,430.5 65.6,430 66.6,429.5 66.6,431.7 67,431.7 67,429.4 67,428.9 67,428.6 "
         id="polygon1183" /><polygon
         fill="#B77432"
         points="70.4,420.6 70.4,419.8 70.4,418.2 70.4,417.9 70.4,417.8 70.1,418 68.2,419.1 68.2,418.2 67.8,418.2 67.8,420.9 68.2,420.9 68.2,419.8 70,420.6 70,420.9 70.4,420.9 "
         id="polygon1185" /><polygon
         fill="#B77432"
         points="70.4,421.7 70.4,421.4 70.4,421.4 70.1,421.6 68.2,422.7 68.2,421.7 67.8,421.7 67.8,424.5 68.2,424.5 68.2,423.4 68.4,423.2 70,423 70,424.5 70.4,424.5 70.4,422.9 70.4,422.1 "
         id="polygon1187" /><polygon
         fill="#B77432"
         points="70.4,425.3 70.4,425 70.4,425 70.1,425.2 68.2,426.2 68.2,425.3 67.8,425.3 67.8,428.1 68.2,428.1 68.2,427 68.5,426.7 70,426.2 70,428.1 70.4,428.1 70.4,426.1 70.4,425.6 "
         id="polygon1189" /><polygon
         fill="#B77432"
         points="68.2,430.1 68.2,428.9 67.8,428.9 67.8,431.7 68.2,431.7 68.2,430.5 68.8,430.1 70,429.6 70,431.7 70.4,431.7 70.4,429.5 70.4,428.9 70.4,428.6 "
         id="polygon1191" /></g></g></svg>
