<?xml version="1.0" encoding="UTF-8" standalone="no"?>
<!-- Generator: Adobe Illustrator 23.0.1, SVG Export Plug-In . SVG Version: 6.00 Build 0)  -->

<svg
   version="1.1"
   id="AR_x5F_layer"
   x="0px"
   y="0px"
   width="9451.5px"
   height="623.5px"
   viewBox="0 0 9451.5 623.5"
   style="enable-background:new 0 0 9451.5 623.5;"
   xml:space="preserve"
   sodipodi:docname="5 Industrial Agriculture Linking_mask-01.svg"
   inkscape:version="1.1.1 (c3084ef, 2021-09-22)"
   xmlns:inkscape="http://www.inkscape.org/namespaces/inkscape"
   xmlns:sodipodi="http://sodipodi.sourceforge.net/DTD/sodipodi-0.dtd"
   xmlns="http://www.w3.org/2000/svg"
   xmlns:svg="http://www.w3.org/2000/svg"
   xmlns:rdf="http://www.w3.org/1999/02/22-rdf-syntax-ns#"
   xmlns:cc="http://creativecommons.org/ns#"
   xmlns:dc="http://purl.org/dc/elements/1.1/"><sodipodi:namedview
   id="namedview1505"
   pagecolor="#505050"
   bordercolor="#eeeeee"
   borderopacity="1"
   inkscape:pageshadow="0"
   inkscape:pageopacity="0"
   inkscape:pagecheckerboard="0"
   showgrid="false"
   inkscape:zoom="1.7812657"
   inkscape:cx="959.14945"
   inkscape:cy="376.69844"
   inkscape:window-width="1440"
   inkscape:window-height="762"
   inkscape:window-x="0"
   inkscape:window-y="25"
   inkscape:window-maximized="1"
   inkscape:current-layer="AR_x5F_layer" />
  <defs
   id="defs826">
    <style
   id="style824">.cls-1,.cls-5{fill:none;stroke:#fff;stroke-linecap:round;stroke-miterlimit:10;}.cls-1{stroke-width:0.5px;}.cls-2{fill:#b87332;}.cls-3{fill:#fff;}.cls-4{fill:#404040;}.cls-5{stroke-width:0.27px;stroke-dasharray:0.54 1.08;}</style>
  
    
    
    
    
    
    
    
    
    
    
    
    
    
    
    
    
    
    
    
    
    
    
    
    
    
    
    
    
    
    
    
    
    
    
    
    
    
    
    
    
    
    
    
    
    
    
    
    
    
    
    
    
    
    
    
    
    
    
    
    
    
    
    
    
    
    
    
    
    
    
    
    
    
    
    
    
    
    
    
    
    
    
    
    
    
    
    
    
    
    
    
    
    
    
    
    
    
    
    
    
    
    
    
    
    
    
    
    
    
    
    
    
    
    
    
    
    
    
    
    
    
    
    
    
    
    
    
    
    
    
    
    
    
    
    
    
    
    
    
    
    
    
    
    
    
    
    
    
    
    
    
    
    
    
    
    
    
    
    
    
    
    
    
    
    
    
    
    
    
    
    
    
    
    
    
    
    
    
    
    
    
    
    
    
    
    
    
    
    
    
    
    
    
    
    
    
    
    
    
    
    
    
    
    
    
    
    
    
    
    
    
    
    
    
    
    
    
    
    
    
    
    
    
    
    
    
    
    
    
    
    
    
    
    
    
    
    
    
    
    
    
    
    
    
    
    
    
    
    
    
    
    
    
    
    
    
    
    
    
    
    
    
    
    
    
    
    
    
    
    
    
    
    
    
    
    
    
    
    
    
    
    
    
    
    
    
    
    
    
    
    
    
    
    
    
    
    
    
    
    
    
    
    
    
    
    
    
    
    
    
    
    
    
    
    
    
    
    
    
    
    
    
    
    
    
    
    
    
    
    
    
    
    
    
    
    
    
    
    
    
    
    
    
    
    
    
    
    
    
    
    
    
    
    
    
    
    
    
    
    
    
    
    
    
    
    
    
    
    
    
    
    
    
    
    
    
    
    
    
    
    
    
    
    
    
    
    
    
    
    
    
    
    
    
    
    
    
    
    
    
    
    
    
    
    
    
    
    
    
    
    
    
    
    
    
    
    
    
    
    
    
    
    
    
    
    
    
    
    
    
    
    
    
    
    
    
    
    
    
    
    
    
    
    
    
    
    
    
    
    
    
    
    
    
    
    
    
    
    
    
    
    
    
    
    
    
    
    
    
    
    
    
    
    
    
    
    
    
    
    
    
    
    
    
    
    
    
    
    
    
    
    
    
    
    
    
    
    
    
    
    
    
    
    
    
    
    
    
    
    
    
    
    
    
    
    
    
    
    
    
    
    
    
    
    
    
    
    
    
    
    
    
    
    
    
    
    
    
    
    
    
    
    
    
    
    
    
    
    
    
    
    
    
    
    
    
    
    
    
    
    
    
    
    
    
    
    
    
    
    
    
    
    
    
    
    
    
    
    
    
    
    
    
    
    
  </defs>
  <title
   id="title828">5 Industrial Agriculture Linking</title>
  
  <path
   style="fill:#000000"
   d="m 885.19531,445.1524 c -1.3407,0.75212 -2.5468,1.78341 -3.58203,2.92188 -1.00498,1.03651 -0.74705,2.9521 0.52105,3.65093 1.12036,0.68818 2.53861,0.0418 3.34941,-0.85896 0.9642,-1.05755 2.00877,-2.13541 2.5397,-3.48533 -0.0424,-0.75973 -0.0833,-1.51953 -0.125,-2.2793 -0.89127,0.0458 -1.86894,-0.31256 -2.70313,0.0508 z"
   id="path2983" /><path
   style="fill:#000000"
   d="m 1058.9297,436.54694 c -2.0329,0.31462 -3.6924,1.67181 -5.4077,2.70952 -7.4033,5.02059 -14.6689,10.2416 -21.9485,15.43921 -1.8579,1.40127 -3.8256,2.67722 -5.5862,4.19522 -0.3429,0.45983 -0.6884,0.91767 -1.0322,1.37675 0.5663,0.72921 1.1327,1.45839 1.6992,2.1875 2.1267,-0.23333 3.9821,-1.3701 5.916,-2.19336 7.3666,-3.49069 14.6759,-7.10369 21.9208,-10.84044 2.254,-1.27091 4.7383,-2.37263 6.4249,-4.40566 1.3193,-1.6777 1.133,-3.93476 1.0078,-5.93359 -0.1214,-1.50351 -1.4534,-2.74968 -2.9941,-2.53515 z"
   id="path2981" /><path
   style="fill:#000000"
   d="m 952.42773,436.36725 c -1.44851,0.28358 -2.63244,1.28914 -3.89667,2.00097 -5.507,3.53893 -10.92208,7.23326 -16.13917,11.18933 -1.00782,0.81027 -2.23762,1.60041 -2.47868,2.97442 -0.49473,0.65189 0.25825,1.00916 0.6472,1.45239 0.3867,0.43735 0.76585,0.89545 1.40202,0.63838 1.32312,-0.0935 2.37186,-1.05482 3.50167,-1.66337 5.76888,-3.65645 11.49711,-7.39855 16.92848,-11.54525 0.98652,-0.82622 2.28565,-1.6698 2.38762,-3.06268 -0.20929,-0.51229 -0.23739,-1.20102 -0.55916,-1.60216 -0.59731,-0.12101 -1.17244,-0.53297 -1.79331,-0.38203 z"
   id="path2979" /><path
   style="fill:#000000"
   d="m 899.10938,436.16217 c -1.56653,0.35671 -2.87173,1.39819 -4.23106,2.20752 -2.1794,1.46794 -4.45598,2.85891 -6.32559,4.72217 -0.35179,0.46507 -0.66668,1.0971 -0.59264,1.67008 0.22666,0.5438 0.22356,1.26946 0.8962,1.45502 0.42327,0.35795 0.90837,0.46878 1.44865,0.35796 1.54199,-0.35519 2.84113,-1.38261 4.19752,-2.16469 2.20634,-1.45031 4.495,-2.84385 6.38816,-4.70119 0.42359,-0.54421 0.86531,-1.21327 0.56641,-1.91601 -0.16127,-0.55055 0.008,-1.39726 -0.79676,-1.37162 -0.51796,-0.11046 -1.01375,-0.44813 -1.55089,-0.25924 z"
   id="path2977" /><path
   style="fill:#000000"
   d="m 1111.7305,436.17387 c -2.2927,1.29931 -4.417,2.88509 -6.6137,4.34064 -8.46,5.80286 -16.9196,11.61015 -25.2242,17.63397 -0.4366,0.41142 -1.0874,0.71856 -1.3926,1.19375 -0.1664,0.47832 -0.4511,1.06107 -0.424,1.58319 0.3864,0.52345 0.4095,1.48057 1.1808,1.54456 1.4453,0.59737 2.8842,-0.33819 4.2285,-0.79719 7.6311,-3.22689 15.1872,-6.62882 22.7415,-10.03036 2.456,-1.20882 5.1058,-2.22824 7.1198,-4.13991 1.4365,-1.34261 1.6929,-3.39857 1.628,-5.26225 -0.058,-1.71598 0.078,-3.53178 -0.5902,-5.14464 -0.318,-0.76864 -1.1383,-0.94712 -1.8102,-1.29871 -0.2812,0.12565 -0.5625,0.2513 -0.8437,0.37695 z"
   id="path2975" /><path
   style="fill:#000000"
   d="m 1006.1094,435.40434 c -1.5672,0.49595 -2.7831,1.6998 -4.1565,2.56151 -8.85374,6.24573 -17.81513,12.34323 -26.53109,18.78082 -0.84113,0.65974 -1.90493,1.28925 -2.04106,2.45142 -0.0285,0.51477 -0.76422,1.34454 0.0803,1.47042 0.78226,0.27692 1.49631,0.99871 2.3671,0.70067 2.00201,-0.57651 3.77596,-1.75484 5.63687,-2.67141 6.99992,-3.80608 13.94444,-7.71678 20.79948,-11.77801 2.1975,-1.43117 4.6907,-2.78667 5.9622,-5.18668 0.645,-1.34566 0.7716,-2.90173 0.7078,-4.37231 -0.1141,-1.34264 -1.5251,-2.34868 -2.8251,-1.95643 z"
   id="path2973" /><path
   style="fill:#000000"
   d="m 951.60742,380.14848 c -2.2417,0.34583 -4.21251,1.58721 -6.22412,2.56223 -6.92783,3.69106 -13.8465,7.41997 -20.51767,11.56216 -0.94971,0.60662 -1.97037,1.21985 -2.43102,2.3027 -0.39117,0.48143 0.26223,1.0293 0.37495,1.54227 -0.12169,0.79918 1.36503,0.64492 0.47438,1.07582 -1.35056,1.06829 -2.88082,1.98915 -3.96812,3.3378 -0.27109,0.55578 -0.70294,1.10521 -0.24136,1.68528 0.20676,0.55377 0.35533,1.16546 1.03939,1.25359 1.33572,0.68186 2.7467,-0.27163 3.93638,-0.85884 8.18776,-4.8191 16.55495,-9.32521 24.80227,-14.03902 1.90372,-1.18284 4.02765,-2.20936 5.41508,-4.02946 1.00573,-1.44065 0.78617,-3.37437 0.17969,-4.92578 -0.52647,-1.04962 -1.68831,-1.60752 -2.83985,-1.46875 z"
   id="path2971" /><path
   style="fill:#000000"
   d="m 1111.8711,379.1934 c -1.5409,0.51634 -2.9267,1.45053 -4.3809,2.17975 -8.2181,4.48462 -16.3964,9.04797 -24.4716,13.78517 -0.8486,0.45572 -1.5773,1.07554 -2.2569,1.75188 0.2422,0.62905 0.2182,1.42623 0.6278,1.94889 0.2754,0.40465 1.0833,0.64733 1.2117,0.82542 -1.1204,0.90048 -2.4326,1.64734 -3.2984,2.80953 -0.4023,0.47926 -0.4017,1.02969 -0.2445,1.60677 0.2476,1.39084 1.838,2.05006 3.1214,1.74493 3.3311,-0.66758 6.5201,-1.88876 9.7574,-2.89669 5.3167,-1.78742 10.6797,-3.44937 15.9268,-5.43696 2.4436,-0.98204 5.2136,-2.10165 6.4111,-4.63425 0.9965,-2.26667 0.6744,-4.8134 0.6957,-7.22054 -0.1196,-1.77781 -0.057,-3.66209 -0.8086,-5.31351 -0.3418,-0.64465 -0.9695,-1.1569 -1.7196,-1.18552 -0.1927,-0.0749 -0.3784,0.009 -0.5714,0.0351 z"
   id="path2969" /><path
   style="fill:#000000"
   d="m 846.00977,379.03324 c -1.8934,0.52382 -3.56763,1.63312 -5.31956,2.49768 -3.54739,1.95062 -7.13155,3.86147 -10.49626,6.11768 -0.63273,0.39273 -1.10646,1.07049 -1.29954,1.75142 0.16546,0.57522 0.43076,1.18799 -0.32398,1.42361 -4.09523,2.94074 -8.33099,5.70026 -12.25364,8.87181 -0.50939,0.49076 -1.12842,1.066 -1.2496,1.76189 0.0448,0.61114 0.0868,1.22248 0.13008,1.83373 0.66702,0.17996 1.33206,0.52399 1.99992,0.60552 1.75369,-0.48827 3.20464,-1.66708 4.78621,-2.52582 6.14758,-3.78016 12.36028,-7.45851 18.41603,-11.38545 2.65854,-1.83155 5.44338,-3.54268 7.76854,-5.80168 1.19679,-1.09604 0.99084,-3.03459 0.084,-4.24023 -0.50607,-0.67285 -1.40693,-1.09775 -2.24218,-0.91016 z"
   id="path2967" /><path
   style="fill:#000000"
   d="m 898.93945,379.08594 c -2.2166,0.89471 -4.26852,2.1597 -6.38411,3.26857 -7.54973,4.15567 -15.08501,8.34433 -22.47945,12.77159 -1.00857,0.52408 -1.79805,1.32219 -2.53097,2.17468 0.42269,0.6584 0.71509,1.48078 1.21527,2.04124 0.63721,0.11469 1.08554,0.25869 0.29254,0.64626 -0.89551,0.67669 -1.79705,1.40644 -2.19517,2.49488 -0.205,0.49965 0.41052,1.00802 0.54984,1.51133 0.16653,0.65478 0.98511,0.54725 1.48908,0.80824 1.98069,-0.21804 3.61519,-1.50075 5.31806,-2.42883 6.79484,-4.06575 13.69665,-7.95451 20.43614,-12.11132 2.31118,-1.53555 4.81192,-2.94977 6.57198,-5.14344 1.06192,-1.32339 0.90843,-3.20063 0.34751,-4.69661 -0.36213,-0.94122 -1.44041,-1.6386 -2.43535,-1.39591 -0.0651,0.0198 -0.13025,0.0395 -0.19537,0.0593 z"
   id="path2965" /><path
   style="fill:#000000"
   d="m 1005.8887,379.05664 c -1.8887,0.64044 -3.6058,1.71185 -5.3799,2.61416 -6.29555,3.40962 -12.58101,6.85043 -18.69357,10.57998 -0.83226,0.47164 -1.57701,1.1031 -1.91023,2.02612 -0.60713,0.56888 0.13745,1.00546 0.46459,1.48289 0.73433,0.49752 -0.0563,0.7814 -0.50937,1.11271 -2.30068,1.66339 -4.69116,3.21916 -6.87975,5.02789 -0.63928,0.54367 -0.68341,1.40811 -0.91406,2.16211 0.4863,0.44466 0.88821,1.06375 1.42383,1.40524 1.73431,0.34051 3.31423,-0.67036 4.87666,-1.25611 7.8024,-3.49095 15.4313,-7.35629 23.0517,-11.22369 2.1798,-1.20619 4.5584,-2.23674 6.2909,-4.07959 1.5309,-1.6281 1.34,-4.00802 1.2201,-6.06841 -0.1228,-1.35049 -0.347,-3.07708 -1.7417,-3.68749 -0.4477,-0.11725 -0.8439,-0.31408 -1.2992,-0.0958 z"
   id="path2963" /><path
   style="fill:#000000"
   d="m 1059.0117,379.08004 c -2.1156,0.8252 -4.0655,2.03207 -6.0787,3.07753 -7.6509,4.19793 -15.2836,8.43523 -22.7728,12.91661 -0.8737,0.5217 -1.7779,1.07503 -2.2203,2.0368 -0.6416,0.5281 0.123,1.0562 0.3804,1.58429 0.2486,0.56297 0.6364,0.92002 1.2774,0.90235 -1.1078,0.91409 -2.6402,1.70395 -2.9371,3.2308 -0.1049,0.73954 0.1792,1.59313 0.8472,1.98013 1.0762,0.8338 2.5327,0.2547 3.6953,-0.0976 5.7862,-2.03023 11.4334,-4.43108 17.1322,-6.69152 3.4125,-1.43318 6.9507,-2.65907 10.11,-4.61713 1.7487,-1.06478 3.0033,-2.90523 3.1786,-4.96444 0.2225,-2.50637 0.432,-5.05859 0.063,-7.55896 -0.1639,-0.76352 -0.5828,-1.5122 -1.3707,-1.74649 -0.4713,-0.38906 -0.7801,-0.22301 -1.3049,-0.0524 z"
   id="path2961" /><path
   style="fill:#000000"
   d="m 1058.6406,323.30855 c -2.0871,0.0823 -3.8831,1.32508 -5.6955,2.23325 -7.6676,4.2115 -15.3696,8.36762 -22.906,12.81168 -1.1495,0.8028 -2.6194,1.36265 -3.3341,2.62937 -0.1269,0.54764 -0.5048,1.12252 -0.022,1.60403 0.2561,0.52204 0.4834,1.07841 1.1435,1.12792 0.896,0.10524 -0.2269,0.53988 -0.4654,0.83257 -1.0195,0.75727 -2.137,1.98514 -1.6402,3.34321 0.3827,1.36245 2.0049,1.73693 3.2481,1.49024 3.8786,-0.6458 7.6482,-1.80952 11.452,-2.78537 4.9586,-1.39102 9.9837,-2.55767 14.8626,-4.21897 2.3466,-0.81806 4.8356,-2.1441 5.7264,-4.62652 0.8942,-2.53466 0.6811,-5.27588 0.846,-7.91777 -0.013,-1.87065 0.2801,-4.0423 -1.0237,-5.57718 -0.5509,-0.61459 -1.373,-0.94381 -2.1915,-0.94646 z"
   id="path2959" /><path
   style="fill:#000000"
   d="m 952.02344,322.77144 c -1.83833,0.19759 -3.35624,1.40439 -4.95773,2.22609 -2.06821,1.2515 -4.24103,2.3946 -6.06903,3.99013 -0.245,0.5295 -0.78147,0.41675 -1.24261,0.55639 -0.79496,0.29309 -1.34034,1.03185 -1.44743,1.86021 -4.67709,4.21046 -10.04145,7.55044 -15.10289,11.26492 -1.57549,1.17237 -3.24506,2.2457 -4.68986,3.57655 -0.47611,0.62957 -0.95195,1.25934 -1.42795,1.889 0.8643,0.48845 1.6895,1.15737 2.57765,1.53571 1.74954,-0.17006 3.27965,-1.15022 4.88874,-1.78307 7.26005,-3.29105 14.53443,-6.83763 21.73478,-10.07686 2.09991,-1.0013 4.25258,-1.71576 6.26367,-2.91211 1.55158,-0.89612 2.37506,-2.65627 2.4043,-4.40821 0.0178,-1.87719 0.19205,-3.7924 -0.1875,-5.64257 -0.28854,-1.2405 -1.45364,-2.18474 -2.74414,-2.07618 z"
   id="path2957" /><path
   style="fill:#000000"
   d="m 846.33203,322.65816 c -1.95243,0.24262 -3.64812,1.37028 -5.38973,2.20831 -6.27583,3.37164 -12.49254,6.85299 -18.70536,10.339 -2.09948,1.27367 -4.31435,2.43389 -6.13529,4.09998 -0.61234,0.54984 -0.64918,1.39179 -0.84188,2.13982 0.39755,0.44103 0.79529,0.88189 1.1914,1.32422 -1.10684,0.88834 -2.3889,1.65527 -3.2012,2.83894 -0.2342,0.55078 -0.55751,1.10158 -0.14606,1.65503 0.14173,0.61704 0.45898,1.07102 1.09726,1.22673 1.2685,0.60082 2.61578,-0.27396 3.75195,-0.82031 7.48572,-4.37167 15.07359,-8.58895 22.59571,-12.9043 2.51944,-1.55914 5.2445,-2.94029 7.26172,-5.16015 1.21345,-1.34127 1.33539,-3.25223 1.14843,-4.96289 -0.22831,-1.23256 -1.37743,-2.09961 -2.62695,-1.98438 z"
   id="path2955" /><path
   style="fill:#000000"
   d="m 899.33008,322.55856 c -1.82435,0.19401 -3.34584,1.36679 -4.9432,2.17474 -6.60457,3.73957 -13.30198,7.31274 -19.89104,11.0766 -2.37024,1.42685 -4.84119,2.73301 -7.00365,4.46937 -0.86504,0.6965 -0.72721,1.89657 -1.01467,2.87604 0.69649,0.27498 1.50056,0.61776 2.25208,0.78391 1.57752,-0.19939 2.95225,-1.15305 4.3329,-1.74394 0.23083,0.45843 0.0319,1.35972 0.62181,1.4499 0.85094,0.21376 1.74749,0.43284 2.56178,-0.0319 3.53461,-1.81418 6.84236,-4.03457 10.21478,-6.12787 3.87462,-2.49938 7.82491,-4.91742 12.05006,-6.78176 1.87753,-0.90585 3.59182,-2.69777 3.48794,-4.91302 0.10279,-1.30632 -0.49563,-2.82843 -1.88445,-3.15517 -0.25085,-0.0605 -0.52462,-0.11025 -0.78434,-0.0769 z"
   id="path2953" /><path
   style="fill:#000000"
   d="m 1111.9922,322.52346 c -1.4736,0.15891 -2.5721,1.29923 -3.8642,1.91925 -8.6684,5.00618 -17.5656,9.60865 -26.1632,14.737 -1.1796,0.5828 -1.9575,1.6434 -2.8203,2.59375 0.7497,0.58451 1.4349,1.33864 2.2231,1.8207 0.9839,-0.11498 -0.2286,0.45158 -0.5102,0.73008 -1.0503,0.87109 -2.4775,1.57584 -2.9035,2.94514 0.016,0.81585 0.2187,1.71506 0.9582,2.17205 1.27,0.86443 2.8894,0.35206 4.3014,0.22475 6.6513,-1.01166 13.2788,-2.1769 19.9054,-3.33385 2.9783,-0.61613 6.1295,-1.02683 8.7501,-2.6788 2.0153,-1.24482 2.9005,-3.64098 3.0216,-5.91328 0.1917,-3.50874 0.1081,-7.02871 0.054,-10.54067 -0.073,-1.56005 -0.086,-3.54887 -1.6378,-4.41438 -0.4071,-0.19338 -0.8613,-0.30661 -1.3143,-0.26174 z"
   id="path2951" /><path
   style="fill:#000000"
   d="m 1005.8848,322.19729 c -1.6469,0.58041 -3.1534,1.53955 -4.7106,2.3344 -7.17602,3.96855 -14.31344,8.01645 -21.28858,12.32984 -0.89507,0.61406 -2.00858,1.13039 -2.48128,2.14834 -0.051,0.6503 -0.10031,1.30072 -0.15043,1.95109 0.56855,0.24301 1.48291,0.44999 0.47898,0.85691 -1.85128,1.40028 -3.89343,2.5928 -5.51491,4.26905 -0.80676,0.83197 -0.9263,2.23916 -0.13109,3.10712 1.16633,1.16911 2.91358,0.63556 4.306,0.26786 5.01855,-1.51396 9.9965,-3.16416 15.01508,-4.68151 4.15071,-1.34769 8.38982,-2.44578 12.45273,-4.04904 2.0871,-0.82297 4.1729,-2.28576 4.7342,-4.58362 0.5891,-2.33416 0.3712,-4.77509 0.3737,-7.1588 -0.1098,-1.84119 -0.057,-3.76296 -0.7225,-5.50844 -0.3167,-0.79624 -1.1256,-1.31045 -1.9555,-1.36501 -0.1352,0.0273 -0.2705,0.0545 -0.4058,0.0818 z"
   id="path2949" /><path
   style="fill:#000000"
   d="m 1004.4531,267.71096 c -2.6294,0.15763 -4.96827,1.54571 -7.2841,2.67571 -7.26982,3.89466 -14.44741,7.96226 -21.58319,12.09662 -1.24226,0.81486 -2.67519,1.40452 -3.71667,2.48548 -0.89748,1.06143 -0.55622,2.81085 0.67373,3.45609 0.58989,0.2268 0.9317,0.34117 0.21104,0.77243 -0.98991,0.84352 -1.44962,2.47602 -0.50586,3.51367 1.07603,1.25355 2.91179,1.08597 4.41053,1.19519 8.14935,0.15103 16.31429,10e-4 24.43692,-0.69966 2.2429,-0.21568 4.8449,-0.46783 6.3381,-2.3842 1.5756,-2.18488 1.4329,-5.0227 1.5424,-7.58642 0,-3.55215 0.1467,-7.11701 -0.1655,-10.65968 -0.164,-1.83175 -0.9006,-3.94032 -2.7851,-4.61719 -0.5044,-0.17711 -1.0372,-0.26822 -1.5723,-0.24804 z"
   id="path2947" /><path
   style="fill:#000000"
   d="m 845.17969,267.06057 c -2.4473,0.27272 -4.60442,1.60325 -6.7773,2.66358 -7.67904,4.11162 -15.27996,8.37157 -22.83863,12.69929 -1.05744,0.69547 -2.31926,1.17274 -3.17314,2.11955 -0.42057,0.5474 -0.59324,1.26723 -0.32764,1.92178 0.0199,0.59472 0.63819,0.90179 1.05056,1.22157 0.25265,0.25857 1.51848,0.0649 0.9651,0.41565 -0.77674,0.60724 -1.70861,1.41669 -1.64572,2.47539 0.12289,0.5546 0.0146,1.24868 0.66249,1.48553 1.00649,0.99523 2.51938,0.48346 3.71329,0.16903 6.20955,-1.86641 12.32825,-4.01919 18.48368,-6.05484 3.28507,-1.15359 6.6826,-2.11624 9.72324,-3.84896 1.90129,-1.04975 3.2668,-2.98023 3.51563,-5.15039 0.25379,-2.1989 0.37627,-4.42611 0.2832,-6.63867 -0.0557,-1.56809 -1.06327,-3.22359 -2.72265,-3.43164 -0.29514,-0.0609 -0.61145,-0.0635 -0.91211,-0.0469 z"
   id="path2945" /><path
   style="fill:#000000"
   d="m 1058.3867,266.40236 c -1.9632,0.0911 -3.5204,1.48214 -5.1969,2.34848 -7.7102,4.51357 -15.6036,8.70475 -23.3449,13.16272 -1.4706,0.94878 -3.164,1.73121 -4.2023,3.19388 -0.7193,1.11643 -0.278,2.73353 0.9375,3.29297 -1.0968,0.81422 -2.3217,2.08644 -1.836,3.57031 0.4687,1.5885 2.2977,1.96863 3.718,2.25234 6.052,1.07923 12.1307,2.07179 18.1902,3.17344 2.8231,0.48799 5.7633,1.18007 8.6835,1.47782 1.9209,0.2119 4.1845,-0.11917 5.3458,-1.84891 1.3851,-2.09978 1.2388,-4.74553 1.336,-7.15625 -0.023,-5.56046 0.03,-11.12279 -0.099,-16.68191 -0.1431,-1.92364 -0.039,-4.07282 -1.2381,-5.70063 -0.5466,-0.68963 -1.4133,-1.10656 -2.294,-1.08426 z"
   id="path2943" /><path
   style="fill:#000000"
   d="m 898.44336,266.28518 c -1.51744,0.50146 -2.86161,1.44054 -4.28995,2.1529 -7.53979,4.14746 -15.08094,8.29725 -22.49413,12.66796 -1.46416,0.95794 -3.13352,1.74493 -4.23723,3.14039 -0.49993,0.67997 -0.49665,1.54343 -0.206,2.30773 0.27503,0.43719 1.15664,0.81777 0.27056,1.1428 -1.02012,0.82848 -2.44979,1.6632 -2.38044,3.16633 0.0347,0.62732 0.39044,1.25111 0.91876,1.61284 1.35041,0.84537 3.01443,0.25131 4.46529,0.0151 7.07508,-1.62654 14.05072,-3.65384 21.08069,-5.46135 2.45243,-0.70419 4.97731,-1.1808 7.3744,-2.06115 1.68152,-0.63159 2.72562,-2.32451 2.86682,-4.07123 0.30335,-2.85443 0.17449,-5.73809 0.1414,-8.60408 -0.12934,-1.75339 0.002,-3.73881 -1.12508,-5.20665 -0.57625,-0.67702 -1.51491,-1.0253 -2.38509,-0.80163 z"
   id="path2941" /><path
   style="fill:#000000"
   d="m 952.04102,266.16994 c -1.0774,0.16877 -2.00034,0.88302 -2.99065,1.32233 -9.09114,4.87586 -18.09482,9.91937 -27.01319,15.10499 -1.07094,0.70249 -2.33131,1.22639 -3.18328,2.19108 -0.41716,0.76603 -0.48165,1.74853 0.0801,2.45826 0.25995,0.38345 0.6802,0.65608 1.10898,0.82764 -1.37992,0.35997 -2.14649,1.79915 -2.09,3.1598 0.30996,0.56553 0.5392,1.3016 1.25992,1.45739 1.25294,0.48951 2.65568,0.12278 3.96057,0.0444 7.22145,-0.89488 14.38059,-2.23487 21.51394,-3.65619 2.82761,-0.67304 5.91921,-1.18968 8.14415,-3.21246 1.96502,-1.81714 2.14333,-4.67516 2.15711,-7.18332 -0.002,-3.4738 0.0776,-6.98559 -0.5453,-10.41621 -0.19066,-0.91967 -0.74908,-1.82946 -1.70934,-2.06154 -0.20953,-0.15278 -0.45959,-0.0316 -0.693,-0.0361 z"
   id="path2939" /><path
   style="fill:#000000"
   d="m 1111.8477,266.11914 c -2.8381,1.31652 -5.5481,2.90252 -8.3098,4.37327 -6.8901,3.80611 -13.8514,7.50066 -20.5399,11.65703 -1.4314,0.98802 -3.0846,1.82963 -4.0742,3.30759 -0.5114,0.83926 -0.434,2.02769 0.3151,2.70055 0.7518,0.36947 -0.055,0.51392 -0.4203,0.87193 -1.1337,0.78027 -1.9664,2.35595 -1.1953,3.65876 0.6715,1.05514 2.0023,1.34339 3.045,1.91863 9.1219,4.15077 18.3512,8.06362 27.612,11.89163 1.3617,0.55603 2.717,1.13358 4.1259,1.56202 0.6184,-0.36911 1.468,-0.49897 1.6778,-1.29102 0.5801,-1.4372 0.4629,-3.04933 0.6109,-4.57196 0.4252,-9.55162 0.3401,-19.11895 0.1664,-28.67609 -0.1074,-2.01189 -0.011,-4.05651 -0.3828,-6.04101 -0.1656,-0.77689 -0.9262,-1.20606 -1.3808,-1.81445 -0.4167,0.15104 -0.8334,0.30208 -1.25,0.45312 z"
   id="path2909" />
<metadata
   id="metadata1587"><rdf:RDF><cc:Work
       rdf:about=""><dc:title>5 Industrial Agriculture Linking</dc:title></cc:Work></rdf:RDF></metadata></svg>
