<?xml version="1.0" encoding="UTF-8" standalone="no"?>
<!-- Generator: Adobe Illustrator 18.0.0, SVG Export Plug-In . SVG Version: 6.00 Build 0)  -->

<svg
   version="1.1"
   id="background"
   x="0px"
   y="0px"
   width="9451.45px"
   height="623.52px"
   viewBox="0 0 9451.45 623.52"
   enable-background="new 0 0 9451.45 623.52"
   xml:space="preserve"
   sodipodi:docname="54_ Platic bottled water_mask-01-simplified.svg"
   inkscape:version="1.1.1 (c3084ef, 2021-09-22)"
   xmlns:inkscape="http://www.inkscape.org/namespaces/inkscape"
   xmlns:sodipodi="http://sodipodi.sourceforge.net/DTD/sodipodi-0.dtd"
   xmlns="http://www.w3.org/2000/svg"
   xmlns:svg="http://www.w3.org/2000/svg"><defs
   id="defs4421">
	
	
</defs><sodipodi:namedview
   id="namedview4419"
   pagecolor="#505050"
   bordercolor="#eeeeee"
   borderopacity="1"
   inkscape:pageshadow="0"
   inkscape:pageopacity="0"
   inkscape:pagecheckerboard="0"
   showgrid="false"
   inkscape:zoom="0.95878109"
   inkscape:cx="6762.2318"
   inkscape:cy="595.54783"
   inkscape:window-width="1312"
   inkscape:window-height="762"
   inkscape:window-x="0"
   inkscape:window-y="25"
   inkscape:window-maximized="0"
   inkscape:current-layer="background" />
































































































































































































































































































<path
   style="fill:#000000"
   d="m 7557.4082,571.96289 c -0.088,0.0579 -0.1771,0.11589 -0.2656,0.17383 -1.457,0.95452 -2.914,1.90898 -4.3711,2.86328 -1.243,0.0364 -2.5098,-0.072 -3.7383,0.0527 -3.2154,1.09669 -6.4317,2.19069 -9.6465,3.28907 -0.3826,1.06155 -0.7703,2.12126 -1.1562,3.18164 1.0337,2.49398 2.0715,4.98627 3.1093,7.47851 1.8211,-0.0345 3.6676,0.0406 5.4727,-0.0644 3.4451,-1.58984 6.8728,-3.23305 10.3301,-4.78711 2.1794,-0.47698 4.3584,-0.95541 6.5371,-1.43555 1.031,-1.57093 2.0596,-3.14231 3.0879,-4.71484 h 3.2539 c -0.057,-0.95983 0.032,-1.96527 -0.1153,-2.89648 -0.6212,-0.9244 -1.2408,-1.85039 -1.8613,-2.7754 -3.5455,-0.12225 -7.091,-0.24693 -10.6367,-0.36523 z"
   id="path7011" /><path
   style="fill:#000000"
   d="m 6559.5586,570 c -0.098,0.1582 -0.1953,0.31641 -0.293,0.47461 -0.3138,0.50846 -0.6276,1.0169 -0.9414,1.52539 h -7.9472 c -1.8605,1.90043 -3.6592,3.88885 -5.5547,5.73828 -1.8482,0.85508 -3.7588,1.584 -5.5684,2.50586 -3.7502,2.77265 -7.5027,5.54328 -11.2539,8.31445 0.039,1.00063 -0.078,2.05186 0.059,3.02149 1.9729,2.78988 3.9448,5.57943 5.918,8.36914 1.2147,-0.0211 2.4807,0.11879 3.664,-0.002 4.3446,-3.10113 8.6896,-6.20028 13.0332,-9.30274 0.5464,-0.81574 0.989,-1.75526 1.5996,-2.49414 2.18,-0.88072 4.3589,-1.76222 6.5391,-2.64258 1.061,-2.05548 2.1244,-4.10966 3.1875,-6.16406 v -2.33984 c 1.5615,-0.40705 3.1223,-0.8165 4.6836,-1.22461 -1.2043,-1.9257 -2.4086,-3.85143 -3.6094,-5.7793 z"
   id="path7009" /><path
   style="fill:#000000"
   d="m 6859,546 v 1 c 0.185,0.75367 -0.1281,1.08443 -0.8887,1.0332 -2.0303,0.3271 -4.0596,0.65875 -6.0898,0.98633 -4.1442,4.11075 -8.2215,8.29236 -12.5235,12.24024 -3.0247,2.84828 -6.0501,5.69395 -9.0742,8.54296 2.5334,3.05249 5.0681,6.10391 7.6016,9.15625 1.386,0.0164 2.7721,0.031 4.1582,0.0449 4.943,-4.95007 9.853,-9.93503 14.8086,-14.8711 2.0036,-1.84591 4.0051,-3.69412 6.0078,-5.54101 v -5.36328 c 1.2904,-0.94391 2.5804,-1.88846 3.8711,-2.83204 -1.2145,-1.46629 -2.4292,-2.9325 -3.6465,-4.39648 z"
   id="path7007" /><path
   style="fill:#000000"
   d="m 7422.293,545.52734 c -0.3425,0.21094 -0.6849,0.42188 -1.0274,0.63282 -0.6872,0.37549 -1.3296,0.9136 -2.039,1.19531 -2.2381,-0.15206 -4.4766,-0.30334 -6.7149,-0.45313 -1.5895,0.95005 -3.1082,2.03926 -4.7402,2.9043 -4.2575,1.63938 -8.516,3.27831 -12.7735,4.91797 -0.4589,1.16461 -0.9138,2.33082 -1.371,3.49609 1.2379,2.59232 2.4725,5.18625 3.7089,7.7793 0.9025,-0.0357 1.8571,0.17311 2.6524,-0.36914 3.4813,-1.53965 6.9619,-3.07986 10.4433,-4.61914 0.4128,-0.67268 0.8307,-1.34051 1.2442,-2.01172 h 4.3418 c 2.7174,-2.8634 5.4312,-5.73024 8.1465,-8.5957 -0.625,-1.62527 -1.2483,-3.25082 -1.8711,-4.87696 z"
   id="path7005" /><path
   style="fill:#000000"
   d="m 6715.2148,544.71094 c -0.1347,0.0267 -0.2695,0.0534 -0.4043,0.0801 -2.2004,0.40584 -4.3903,0.92042 -6.5976,1.25586 -5.8982,-0.0632 -11.7971,-0.1274 -17.6953,-0.19141 -1.1736,0.97344 -2.3473,1.94677 -3.5196,2.92187 0.032,1.9919 -0.023,3.99593 0.062,5.98047 0.4887,1.83049 0.9763,3.6613 1.4707,5.49024 6.1351,-0.40282 12.2679,-0.88657 18.4043,-1.23828 3.0119,0.0248 6.0233,0.0491 9.0352,0.0703 1.732,-1.35726 3.4598,-2.71988 5.1895,-4.08008 H 6725 v -7.29492 c -1.424,0.22378 -2.848,0.44695 -4.2715,0.67383 -1.8378,-1.22272 -3.6756,-2.4456 -5.5137,-3.66797 z"
   id="path7003" /><path
   style="fill:#000000"
   d="m 7296.4238,543.43164 c -0.1686,0.26693 -0.3372,0.53385 -0.5058,0.80078 -0.6091,1.03013 -1.3635,2.01789 -1.8868,3.07227 -0.011,1.56499 -0.026,3.13035 -0.041,4.69531 h 3.1289 c 1.5881,2.45846 3.1761,4.91695 4.7618,7.37695 2.7862,0.67726 5.5714,1.35865 8.3574,2.03711 1.2375,0.99389 2.3871,2.12379 3.6797,3.03321 3.7791,1.79054 7.5578,3.58277 11.3379,5.37109 1.6528,0.0722 3.306,0.13903 4.9589,0.20898 1.6102,-3.31211 3.2192,-6.62481 4.8282,-9.9375 -0.4612,-1.19549 -0.9156,-2.3932 -1.3789,-3.58789 -4.7015,-2.16804 -9.403,-4.33602 -14.1055,-6.50195 h -3.8359 c -2.313,-1.73055 -4.6263,-3.46056 -6.9375,-5.19336 -2.7713,0.29935 -5.543,0.59397 -8.3145,0.89063 -1.349,-0.75513 -2.6982,-1.50987 -4.0469,-2.26563 z"
   id="path7001" /><path
   style="fill:#000000"
   d="m 7731.3105,529 c -0.066,0.24674 -0.1328,0.49349 -0.1992,0.74023 -0.812,3.01854 -1.623,6.03736 -2.4394,9.05469 1.4348,1.00298 2.8156,2.14423 4.2812,3.06641 3.8031,0.40966 7.6203,0.75636 11.4141,1.20703 1.7047,0.58779 3.3956,1.29808 5.1094,1.81055 2.8601,-0.27842 5.7128,-0.68932 8.5781,-0.87891 1.7493,-0.007 3.4987,-0.009 5.248,-0.0156 -0.3405,-2.21924 -0.6792,-4.43865 -1.0175,-6.65821 -0.8892,0.16846 -1.7789,0.33353 -2.668,0.50195 -1.5113,-1.60976 -3.0186,-3.22129 -4.5332,-4.82812 h -7.2891 c -0.6478,-0.55769 -1.2231,-1.2508 -1.9121,-1.72852 -3.6612,-0.74767 -7.3163,-1.55581 -10.9805,-2.27148 z"
   id="path6999" /><path
   style="fill:#000000"
   d="m 6975.25,525 c -0.082,0.21419 -0.1641,0.42839 -0.2461,0.64258 -0.3422,0.892 -0.6845,1.784 -1.0273,2.67578 -2.2722,0.94856 -4.543,1.90019 -6.8164,2.8457 -1.1021,2.61796 -2.1244,5.28469 -3.2735,7.87305 -1.4834,1.71102 -3.0727,3.343 -4.4902,5.10351 -2.1332,3.41543 -4.2633,6.83266 -6.3965,10.24805 v 2.86524 c 2.7234,1.87291 5.448,3.74392 8.1738,5.61328 1.3834,0.0525 2.7669,0.10388 4.1504,0.15234 2.1723,-3.42128 4.4223,-6.80229 6.541,-10.25195 1.0207,-2.3798 1.9555,-4.81687 3.0313,-7.16016 1.6932,-1.69386 3.3879,-3.38706 5.082,-5.08008 0.042,-1.87544 0.2981,-3.75727 0.1953,-5.6289 -0.046,-0.91945 -0.2927,-1.89735 -0.2187,-2.7793 0.9738,-1.17087 1.9447,-2.34432 2.9179,-3.51562 -1.6442,-1.19973 -3.2871,-2.40147 -4.9296,-3.60352 z"
   id="path6997" /><path
   style="fill:#000000"
   d="m 7207.4434,518.46484 c -0.3191,0.18815 -0.6381,0.37631 -0.9571,0.56446 -2.1626,1.27699 -4.3261,2.55084 -6.4863,3.83203 0.051,0.81579 -0.099,1.7136 0.07,2.48047 0.9419,0.94192 1.8843,1.88424 2.8262,2.82617 -0.3803,1.90523 -0.7604,3.81037 -1.1445,5.71484 0.8623,2.60068 1.7168,5.20364 2.5781,7.80469 1.8528,1.37133 3.7063,2.74182 5.5605,4.11133 0.391,1.83636 0.6905,3.70789 1.1406,5.52148 3.1365,4.95257 6.2732,9.90596 9.4083,14.85938 1.2436,0.97633 2.4854,1.95506 3.7304,2.92969 2.3488,-1.2801 4.7923,-2.40237 6.9688,-3.97266 1.9542,-1.28776 3.9061,-2.577 5.8613,-3.86328 -0.036,-1.3924 0.072,-2.82563 -0.051,-4.19336 -3.1618,-5.08999 -6.2681,-10.22591 -9.4648,-15.28711 -1.8284,-1.70386 -3.6572,-3.40811 -5.4844,-5.11328 v -3.98633 c -2.1819,-2.48726 -4.3646,-4.97379 -6.5488,-7.45898 -1.8242,-0.40049 -3.6484,-0.80096 -5.4727,-1.20118 -0.8452,-1.85606 -1.6895,-3.71249 -2.5351,-5.56836 z"
   id="path6995" /><path
   style="fill:#000000"
   d="m 7420.7305,514.42773 c -0.1654,0.16537 -0.3308,0.33073 -0.4961,0.4961 -1.0384,1.03582 -2.0749,2.07356 -3.1114,3.11133 -0.4774,2.3996 -0.9601,4.79804 -1.4394,7.19726 4.284,1.92214 8.5683,3.84365 12.8516,5.76758 0.5928,0.0508 1.2818,-0.10271 1.8144,0.0762 0.7711,0.93109 1.5444,1.86065 2.3164,2.79102 3.4199,0.22071 6.8397,0.44331 10.2598,0.66211 1.0808,-1.2289 2.1629,-2.45477 3.2461,-3.68164 -2.8902,-2.9497 -5.7812,-5.89847 -8.6719,-8.84766 h -3.7852 c -0.7159,-0.81296 -1.3525,-1.72737 -2.1132,-2.48242 -3.6239,-1.69575 -7.2478,-3.3927 -10.8711,-5.08985 z"
   id="path6993" /><path
   style="fill:#000000"
   d="m 7055.8184,507.60547 c -0.1459,0.12109 -0.2917,0.24219 -0.4375,0.36328 -1.0627,0.93333 -2.2561,1.77819 -3.2422,2.76172 -1.2154,3.85962 -2.4325,7.71866 -3.6485,11.57812 0.8589,0.81084 1.6561,1.71906 2.5547,2.46875 5.6377,2.07523 11.2753,4.15041 16.9141,6.22266 1.5692,0.0378 3.1843,-0.075 4.7246,0.0566 2.5271,1.72564 5.0578,3.44484 7.584,5.17188 2.9161,-0.45351 5.8197,-1.03477 8.7441,-1.40821 1.0165,0.049 2.1149,-0.35321 3.0352,0.2168 1.1014,0.47656 2.2028,0.95227 3.3047,1.42773 0.8798,-2.51844 1.7537,-5.03862 2.6347,-7.55664 -0.6337,-0.6371 -1.268,-1.27369 -1.9062,-1.90625 -0.9994,-0.005 -1.9987,-0.008 -2.9981,-0.0117 -1.0464,-1.84141 -2.0948,-3.68165 -3.1406,-5.52343 -1.7391,-1.09623 -3.4314,-2.31788 -5.1934,-3.34571 -2.3472,-0.25641 -4.6939,-0.51573 -7.041,-0.77343 -1.9631,-1.34682 -3.8817,-2.77929 -5.873,-4.07227 -5.3386,-1.88997 -10.6771,-3.77996 -16.0156,-5.66992 z"
   id="path6991" /><path
   style="fill:#000000"
   d="m 6748.2246,500.00586 c -0.082,0.0495 -0.1641,0.099 -0.2461,0.14844 -2.0322,1.24075 -4.0653,2.47835 -6.0976,3.71875 -1.2044,-0.60696 -2.3753,-1.34556 -3.5997,-1.87305 h -1.9277 c -0.564,2.57237 -1.1274,5.14485 -1.6933,7.7168 1.2389,0.79235 2.4792,1.58272 3.7207,2.37109 0.738,-0.27074 1.4761,-0.54163 2.2148,-0.81055 0.9898,1.44441 1.8804,3.00032 2.9297,4.37696 2.5294,1.2031 5.061,2.40139 7.5918,3.60156 2.3265,-0.37943 4.6538,-0.75439 6.9805,-1.13281 1.4046,0.74212 2.7649,1.60221 4.1953,2.27539 5.417,1.12765 10.8247,2.3243 16.248,3.40625 1.235,0.0738 2.4702,0.14569 3.7051,0.2207 1.1536,-1.15365 2.3073,-2.30729 3.4609,-3.46094 0.5065,-4.05135 1.0115,-8.10289 1.5176,-12.15429 -0.8877,-0.83296 -1.7003,-1.80456 -2.6328,-2.55469 -4.3607,-0.92234 -8.7151,-1.89716 -13.0801,-2.78516 -3.914,-0.046 -7.8281,-0.0916 -11.7422,-0.13672 -1.7034,-0.93779 -3.3736,-2.00258 -5.0976,-2.86132 -2.149,-0.0206 -4.2983,-0.0467 -6.4473,-0.0664 z"
   id="path6989" /><path
   style="fill:#000000"
   d="m 7618.2324,486.49609 c -0.2285,0.22852 -0.457,0.45704 -0.6855,0.68555 -0.9403,0.93864 -1.8802,1.87766 -2.8184,2.81836 -1.8366,0.003 -3.6733,0.006 -5.5097,0.008 -2.293,1.39949 -4.5852,2.79854 -6.8809,4.19336 -0.438,1.37929 -0.8752,2.75859 -1.3106,4.13867 -2.397,1.29642 -4.853,2.50996 -7.2148,3.85547 -3.9374,3.73447 -7.8755,7.46822 -11.8125,11.20313 0.044,0.88736 -0.088,1.84026 0.065,2.6875 2.543,2.97186 5.088,5.94214 7.6308,8.91406 h 4.875 c 4.4069,-3.86843 8.8125,-7.73832 13.2188,-11.60742 0.3937,-1.24159 0.7891,-2.48264 1.1816,-3.72461 2.5758,-1.31512 5.1531,-2.62753 7.7285,-3.94336 1.1008,-2.12669 2.1987,-4.25486 3.3008,-6.38086 v -3.56445 c 1.5834,-1.05437 3.1673,-2.09974 4.752,-3.15625 -2.173,-2.04251 -4.3466,-4.08442 -6.5196,-6.12696 z"
   id="path6987" /><path
   style="fill:#000000"
   d="m 7359.3418,473.14062 -0.543,0.0684 c -2.9141,0.36299 -5.8279,0.72834 -8.7422,1.08985 -1.686,1.56805 -3.3718,3.13408 -5.0586,4.70117 -0.702,0.0421 -1.4613,-0.0838 -2.1289,0.0605 -3.2903,2.51176 -6.5802,5.02346 -9.8691,7.53711 0.036,0.94627 -0.073,1.93649 0.055,2.85546 1.2116,1.84905 2.4242,3.69716 3.6348,5.54688 h 4.5058 c 3.0164,-2.39202 5.9839,-4.85828 9.0332,-7.20117 2.5339,-1.38636 5.0677,-2.77128 7.6035,-4.1543 0.3987,-1.58424 0.7946,-3.16917 1.1914,-4.75391 1.2873,-0.49142 2.5733,-0.98615 3.8594,-1.48046 -1.1793,-1.42401 -2.3596,-2.84721 -3.541,-4.26954 z"
   id="path6985" /><path
   style="fill:#000000"
   d="m 6897.4004,456.70508 c -0.1335,0.003 -0.2669,0.007 -0.4004,0.01 -9.2698,0.25348 -18.539,0.52949 -27.8086,0.79297 -1.154,0.7491 -2.3105,1.49262 -3.4668,2.23828 0.5037,3.36787 1.0092,6.73547 1.5117,10.10352 0.4915,0.79912 0.9838,1.59685 1.4746,2.39648 5.7036,-0.42758 11.4062,-0.91864 17.1114,-1.29882 3.3863,0.0413 6.7718,0.085 10.1582,0.12695 1.9058,-1.49698 3.8096,-2.99645 5.7148,-4.49414 1.5316,0.26091 3.0636,0.51936 4.5957,0.77734 -0.3044,-2.674 -0.6097,-5.34792 -0.918,-8.02148 -1.4194,0.24209 -2.8385,0.48575 -4.2578,0.72851 -1.2383,-1.11968 -2.4736,-2.24279 -3.7148,-3.35937 z"
   id="path6983" /><path
   style="fill:#000000"
   d="m 7693.7324,451.23828 c -0.1094,0.007 -0.2187,0.013 -0.3281,0.0195 -7.6061,0.43223 -15.2122,0.86231 -22.8184,1.29297 -0.2525,2.63282 -0.5066,5.26549 -0.7578,7.89844 1.0643,1.2815 2.127,2.5643 3.1914,3.8457 4.2381,-0.48205 8.4725,-1.03907 12.7129,-1.4707 2.2667,0.069 4.5341,0.13739 6.8008,0.20703 3.239,-1.56765 6.478,-3.13519 9.7168,-4.70313 -0.3684,-1.67397 -0.7405,-3.34716 -1.1074,-5.02148 -1.0598,0.23483 -2.1196,0.4696 -3.1797,0.70313 -1.4089,-0.92616 -2.8215,-1.84524 -4.2305,-2.77149 z"
   id="path6981" /><path
   style="fill:#000000"
   d="m 7478.7285,442.99023 c -0.038,-0.001 -0.081,0.002 -0.1289,0.01 h -4.3496 c -0.082,0.21419 -0.1641,0.42839 -0.2461,0.64258 -0.4563,1.19073 -0.9135,2.38079 -1.373,3.57031 1.007,1.28298 2.1693,2.46626 3.0761,3.81445 0.6898,1.40595 1.3803,2.81101 2.0703,4.2168 2.2826,1.14064 4.5627,2.28614 6.8438,3.42969 0.5175,0.72615 0.8646,1.6136 1.4844,2.24219 3.3837,2.35009 6.7666,4.70154 10.1523,7.04882 1.196,-0.18351 2.3922,-0.36501 3.5879,-0.55078 1.649,-2.92009 3.2923,-5.84253 4.9395,-8.76367 -2.2569,-1.818 -4.4802,-3.67196 -6.7579,-5.45703 -2.3678,-1.2333 -4.8016,-2.36597 -7.1269,-3.66406 -2.2935,-1.9239 -4.5896,-3.84539 -6.8828,-5.76953 -1.6727,0.24416 -3.3451,0.49094 -5.0176,0.73632 -0.1384,-0.45412 0.3015,-1.48634 -0.2715,-1.50586 z"
   id="path6979" /><path
   style="fill:#000000"
   d="m 7181.9453,442.39062 c -0.278,0.25131 -0.556,0.50261 -0.834,0.75391 -1.2054,1.09365 -2.4126,2.18306 -3.6191,3.27539 -1.8568,-0.19439 -3.7136,-0.38917 -5.5703,-0.58398 -2.4183,1.14883 -4.8364,2.29706 -7.2559,3.44336 -1.4103,1.90674 -2.8202,3.81387 -4.2305,5.7207 -0.8834,0.0418 -1.8216,-0.0817 -2.6718,0.0605 -5.5585,4.12239 -11.1182,8.24237 -16.6778,12.36328 -0.4692,1.2301 -0.9421,2.45839 -1.414,3.6875 2.6626,3.63057 5.3276,7.25946 7.9922,10.88867 h 4.4921 c 5.4572,-4.04601 10.9147,-8.09166 16.3711,-12.13867 0.3784,-0.99005 0.7588,-1.97931 1.1387,-2.96875 2.9721,-1.31642 5.945,-2.63099 8.918,-3.94531 1.1398,-2.20058 2.2773,-4.40238 3.416,-6.60352 v -3.38086 c 1.8805,-0.85697 3.7615,-1.71271 5.6426,-2.56836 -1.8978,-2.66888 -3.7969,-5.33689 -5.6973,-8.00391 z"
   id="path6977" /><path
   style="fill:#000000"
   d="m 6992.5527,413.53125 c -0.2122,0.22852 -0.4244,0.45703 -0.6367,0.68555 -1.4803,1.59637 -2.9508,3.18804 -4.4316,4.7832 h -3.0528 c -2.1429,2.14484 -4.2868,4.28872 -6.4316,6.43164 v 3.76563 c -1.946,1.89072 -3.947,3.73573 -5.8613,5.65234 -2.7127,4.16418 -5.4269,8.32741 -8.1387,12.49219 v 4.0664 c 3.0566,2.16483 6.1134,4.32926 9.1699,6.49414 1.4252,0.0366 2.8503,0.0754 4.2754,0.11133 2.845,-4.2021 5.7257,-8.38498 8.5391,-12.60547 1.2393,-2.88979 2.4784,-5.77973 3.7168,-8.66992 1.0276,-0.44271 2.1842,-0.73997 3.1328,-1.27148 1.1095,-2.14331 2.2155,-4.28894 3.3262,-6.43164 -0.1879,-2.16262 -0.3735,-4.32543 -0.5586,-6.48828 1.0827,-1.30584 2.167,-2.61036 3.25,-3.91602 -2.1003,-1.69905 -4.1988,-3.40037 -6.2989,-5.09961 z"
   id="path6954" />










</svg>
