<?xml version="1.0" encoding="utf-8"?>
<!-- Generator: Adobe Illustrator 18.0.0, SVG Export Plug-In . SVG Version: 6.00 Build 0)  -->
<!DOCTYPE svg PUBLIC "-//W3C//DTD SVG 1.1//EN" "http://www.w3.org/Graphics/SVG/1.1/DTD/svg11.dtd">
<svg version="1.1" id="background" xmlns="http://www.w3.org/2000/svg" xmlns:xlink="http://www.w3.org/1999/xlink" x="0px" y="0px"
	 width="9451.45px" height="623.52px" viewBox="0 0 9451.45 623.52" enable-background="new 0 0 9451.45 623.52"
	 xml:space="preserve">
<g opacity="0.75">
	<g>
		<path d="M7481.13,432.88l0.18-0.27c1.51-2.26,2.06-5.03,1.52-7.7l-0.66-3.32l1.12-0.22l1.94-2.92l-2.02-1.35l-0.97-0.65
			l-2.02-1.34l-1.95,2.92l0.22,1.12l-3.32,0.66c-2.67,0.53-5.01,2.1-6.52,4.37l-0.18,0.27c-1.07,1.61-1.66,3.47-1.94,5.39
			c-0.03,0.22-0.11,0.43-0.24,0.63l-0.6,0.9c-0.13,0.2-0.3,0.35-0.49,0.46c-1.66,1-3.16,2.25-4.24,3.86l-7.19,10.79
			c-0.88,1.32-1.21,2.95-0.89,4.51l0.03,0.17l4.27,2.85l0.97,0.65l4.27,2.84l0.17-0.03c1.56-0.31,2.94-1.23,3.82-2.56l7.19-10.79
			c1.07-1.61,1.66-3.48,1.94-5.4c0.03-0.22,0.11-0.43,0.24-0.63l0.6-0.9c0.13-0.2,0.3-0.35,0.49-0.46
			C7478.56,435.74,7480.05,434.49,7481.13,432.88z"/>
		<polygon points="7485.23,418.45 7483.21,417.1 7482.24,416.45 7480.22,415.11 7478.33,417.95 7483.34,421.29 		"/>
	</g>
	<g>
		<path d="M7707.33,531.23l-0.19-0.3c-1.61-2.55-4.17-4.36-7.11-5.02l-3.65-0.83l0.28-1.24l-2.08-3.29l-2.27,1.44l-1.1,0.69
			l-2.28,1.44l2.08,3.29l1.24,0.28l-0.83,3.66c-0.66,2.94-0.13,6.03,1.48,8.58l0.19,0.3c1.15,1.82,2.77,3.25,4.59,4.4
			c0.21,0.13,0.39,0.31,0.52,0.53l0.64,1.01c0.14,0.22,0.22,0.46,0.25,0.7c0.26,2.13,0.85,4.21,2,6.03l7.67,12.15
			c0.94,1.49,2.44,2.55,4.16,2.94l0.19,0.04l4.81-3.04l1.1-0.69l4.81-3.04l0.04-0.19c0.39-1.72,0.08-3.53-0.87-5.02l-7.67-12.15
			c-1.15-1.82-2.77-3.25-4.59-4.4c-0.21-0.13-0.39-0.31-0.53-0.53l-0.64-1.01c-0.14-0.22-0.22-0.46-0.25-0.7
			C7709.07,535.12,7708.47,533.05,7707.33,531.23z"/>
		<polygon points="7694.58,520.56 7692.3,521.99 7691.21,522.69 7688.93,524.12 7690.95,527.33 7696.6,523.76 		"/>
	</g>
	<g>
		<path d="M7797.91,547.15l-0.26-0.12c-2.18-1-4.67-1.09-6.92-0.25l-2.79,1.04l-0.35-0.95l-2.81-1.29l-0.89,1.95l-0.43,0.94
			l-0.89,1.95l2.81,1.29l0.95-0.35l1.04,2.8c0.84,2.25,2.53,4.07,4.71,5.07l0.26,0.12c1.56,0.71,3.26,0.96,4.97,0.93
			c0.19,0,0.39,0.04,0.58,0.12l0.87,0.4c0.19,0.09,0.35,0.21,0.47,0.36c1.1,1.31,2.4,2.44,3.95,3.15l10.4,4.76
			c1.28,0.58,2.74,0.64,4.05,0.15l0.15-0.06l1.88-4.11l0.43-0.94l1.88-4.11l-0.06-0.15c-0.49-1.32-1.48-2.38-2.76-2.97l-10.4-4.76
			c-1.55-0.71-3.26-0.96-4.97-0.93c-0.19,0-0.39-0.04-0.58-0.12l-0.87-0.4c-0.19-0.09-0.35-0.21-0.47-0.36
			C7800.77,548.99,7799.46,547.86,7797.91,547.15z"/>
		<polygon points="7784.77,545.58 7783.88,547.53 7783.45,548.47 7782.56,550.41 7785.3,551.67 7787.51,546.84 		"/>
		<g>
			<path d="M7817.52,564.11l-0.48-0.61l0.68-0.14L7817.52,564.11z"/>
			<circle cx="7807.12" cy="563.87" r="0.15"/>
			<circle cx="7807.35" cy="563.05" r="0.17"/>
			<circle cx="7811.5" cy="563" r="0.2"/>
			<circle cx="7817.7" cy="562.83" r="0.22"/>
			<circle cx="7814.51" cy="566.91" r="0.25"/>
			<circle cx="7808.83" cy="564.36" r="0.27"/>
			<circle cx="7813.12" cy="556.99" r="0.3"/>
			<circle cx="7815.68" cy="565.65" r="0.32"/>
			<circle cx="7812.24" cy="563.31" r="0.35"/>
			<circle cx="7818.25" cy="561.62" r="0.38"/>
			<circle cx="7808.57" cy="563.13" r="0.15"/>
			<circle cx="7809.46" cy="561.76" r="0.17"/>
			<circle cx="7808.48" cy="562.24" r="0.2"/>
			<circle cx="7813.03" cy="561.73" r="0.22"/>
			<circle cx="7813.79" cy="564.76" r="0.25"/>
			<circle cx="7812.22" cy="559.26" r="0.27"/>
			<circle cx="7806.17" cy="562.44" r="0.3"/>
			<circle cx="7810.78" cy="559.39" r="0.32"/>
			<path d="M7810.67,563.47l0.21-0.64l0.42,0.42L7810.67,563.47z"/>
			<circle cx="7810.94" cy="564.41" r="0.15"/>
			<circle cx="7813.82" cy="564.16" r="0.17"/>
			<circle cx="7805.35" cy="561.28" r="0.2"/>
			<circle cx="7814.02" cy="565.94" r="0.22"/>
			<circle cx="7815.86" cy="562.04" r="0.25"/>
			<circle cx="7808.7" cy="557.42" r="0.27"/>
			<circle cx="7808.3" cy="560.52" r="0.3"/>
			<circle cx="7813.13" cy="560.64" r="0.32"/>
			<circle cx="7816.47" cy="559.42" r="0.35"/>
			<circle cx="7815.1" cy="559.03" r="0.37"/>
			<circle cx="7809.87" cy="564.67" r="0.15"/>
			<circle cx="7815.58" cy="564.76" r="0.18"/>
			<circle cx="7811.07" cy="561.38" r="0.2"/>
			<circle cx="7806.64" cy="560.15" r="0.22"/>
			<circle cx="7807.04" cy="561.72" r="0.25"/>
			<circle cx="7810.94" cy="556.42" r="0.27"/>
			<circle cx="7814.14" cy="557.55" r="0.3"/>
			<circle cx="7818.07" cy="564.3" r="0.32"/>
			<circle cx="7812.3" cy="565.44" r="0.35"/>
			<circle cx="7817.2" cy="565.7" r="0.15"/>
			<circle cx="7814.89" cy="560.55" r="0.15"/>
		</g>
	</g>
	<g>
		<g>
			<path d="M8103.18,505.52l0.24-0.22c2.02-1.82,3.23-4.37,3.38-7.09l0.17-3.38l1.14,0.06l2.61-2.35l-1.62-1.8l-0.79-0.87l-1.62-1.8
				l-2.6,2.35l-0.06,1.14l-3.38-0.18c-2.72-0.14-5.38,0.8-7.4,2.62l-0.24,0.22c-1.44,1.3-2.46,2.96-3.21,4.75
				c-0.08,0.2-0.21,0.39-0.39,0.55l-0.8,0.72c-0.17,0.16-0.38,0.27-0.59,0.33c-1.86,0.55-3.62,1.4-5.06,2.7l-9.63,8.68
				c-1.19,1.07-1.89,2.56-1.98,4.15l-0.01,0.18l3.43,3.81l0.79,0.87l3.43,3.81l0.18,0.01c1.59,0.08,3.15-0.47,4.33-1.54l9.63-8.68
				c1.44-1.3,2.46-2.96,3.21-4.75c0.08-0.2,0.21-0.39,0.39-0.55l0.8-0.72c0.17-0.16,0.38-0.27,0.58-0.33
				C8099.98,507.67,8101.73,506.82,8103.18,505.52z"/>
			<polygon points="8110.71,492.55 8109.09,490.75 8108.3,489.88 8106.68,488.08 8104.14,490.37 8108.18,494.84 			"/>
		</g>
		<g>
			<circle cx="8082.75" cy="515.34" r="0.15"/>
			<circle cx="8084.63" cy="517.28" r="0.17"/>
			<circle cx="8087.41" cy="512.01" r="0.2"/>
			<circle cx="8084.44" cy="512.77" r="0.22"/>
			<circle cx="8082.94" cy="513.64" r="0.25"/>
			<circle cx="8083.92" cy="515.77" r="0.27"/>
			<circle cx="8082.11" cy="516.42" r="0.3"/>
			<circle cx="8087.81" cy="514.89" r="0.32"/>
			<circle cx="8080.55" cy="515.92" r="0.35"/>
			<circle cx="8079.69" cy="521.4" r="0.37"/>
			<path d="M8081.56,511.51c0.06-0.06,0.16-0.05,0.21,0c0.06,0.06,0.05,0.15,0,0.21c-0.06,0.06-0.15,0.05-0.21,0
				C8081.5,511.66,8081.5,511.57,8081.56,511.51z"/>
			<circle cx="8083.27" cy="512.76" r="0.18"/>
			<circle cx="8080.9" cy="509.84" r="0.2"/>
			<circle cx="8084.62" cy="511.75" r="0.22"/>
			<circle cx="8078.43" cy="512.69" r="0.25"/>
			<path d="M8081.19,516.25l0.66-0.12l-0.17,0.57L8081.19,516.25z"/>
			<path d="M8086.04,514.05c0.06-0.06,0.15-0.06,0.21,0c0.06,0.06,0.06,0.15,0,0.21c-0.06,0.06-0.15,0.05-0.21-0.01
				C8085.97,514.2,8085.98,514.1,8086.04,514.05z"/>
			<circle cx="8083.08" cy="514.39" r="0.17"/>
			<circle cx="8081.97" cy="514.09" r="0.2"/>
			<circle cx="8085.91" cy="512.82" r="0.22"/>
			<circle cx="8080.73" cy="513.64" r="0.25"/>
			<circle cx="8088.66" cy="510.91" r="0.27"/>
			<circle cx="8081.77" cy="518.83" r="0.3"/>
			<circle cx="8078.68" cy="518.02" r="0.32"/>
			<circle cx="8075.96" cy="515.9" r="0.35"/>
			<circle cx="8084.63" cy="519.2" r="0.37"/>
			<circle cx="8083.44" cy="510.24" r="0.15"/>
			<circle cx="8086.33" cy="511.83" r="0.18"/>
			<circle cx="8085.71" cy="510.24" r="0.2"/>
			<circle cx="8081.67" cy="515.47" r="0.22"/>
			<circle cx="8080.78" cy="517.95" r="0.25"/>
			<circle cx="8078.11" cy="516.01" r="0.28"/>
			<circle cx="8083.83" cy="511.77" r="0.15"/>
			<circle cx="8083.98" cy="513.63" r="0.17"/>
			<path d="M8086.27,510.82c0.06-0.06,0.15-0.05,0.21,0.01c0.06,0.06,0.06,0.15,0,0.21c-0.06,0.06-0.15,0.05-0.21,0
				C8086.2,510.97,8086.21,510.88,8086.27,510.82z"/>
		</g>
	</g>
	<g>
		<g>
			<g>
				<path d="M7567.08,534.5l0.2,0.07c2.65,0.99,5.58,0.9,8.16-0.28l3.2-1.46l0.49,1.08l3.42,1.28l0.89-2.36l0.43-1.14l0.89-2.36
					l-3.42-1.28l-1.08,0.49l-1.45-3.2c-1.17-2.58-3.32-4.58-5.97-5.58l-0.19-0.07c-1.89-0.71-3.93-1.09-5.92-0.75
					c-0.27,0.04-0.55,0.02-0.83-0.08l-1.05-0.39c-0.28-0.1-0.5-0.27-0.68-0.48c-1.27-1.56-3.06-2.61-4.94-3.32l-12.51-4.69
					c-1.55-0.58-3.27-0.52-4.78,0.16l0,0c-0.11,0.05-0.19,0.14-0.23,0.25l-1.81,4.82l-0.43,1.14l-1.81,4.82
					c-0.04,0.11-0.04,0.23,0.01,0.34l0,0c0.68,1.51,1.94,2.68,3.49,3.26l12.5,4.69c1.89,0.71,3.93,1.09,5.92,0.75
					c0.27-0.05,0.55-0.02,0.83,0.08l1.05,0.39c0.28,0.1,0.5,0.27,0.68,0.49C7563.4,532.74,7565.19,533.79,7567.08,534.5z"/>
				<polygon points="7582.55,535.21 7583.43,532.84 7583.86,531.7 7584.75,529.34 7581.42,528.09 7579.22,533.96 				"/>
			</g>
			<circle cx="7569.48" cy="530.77" r="0.15"/>
			<path d="M7543.17,521.36c0.09,0.03,0.14,0.13,0.11,0.22c-0.03,0.09-0.13,0.14-0.22,0.11c-0.09-0.04-0.14-0.13-0.11-0.22
				C7542.98,521.37,7543.08,521.33,7543.17,521.36z"/>
			<circle cx="7564.44" cy="527.34" r="0.2"/>
			<circle cx="7569.28" cy="531.57" r="0.22"/>
			<circle cx="7564.97" cy="524.07" r="0.25"/>
			<circle cx="7573.06" cy="527.74" r="0.27"/>
			<circle cx="7557.62" cy="517.6" r="0.3"/>
			<circle cx="7553.26" cy="521.76" r="0.32"/>
			<path d="M7551.19,519.05c0.18,0.07,0.28,0.27,0.21,0.45c-0.07,0.18-0.27,0.27-0.45,0.21c-0.18-0.07-0.28-0.27-0.21-0.45
				C7550.81,519.08,7551.01,518.99,7551.19,519.05z"/>
			<circle cx="7562.94" cy="523.06" r="0.37"/>
			<circle cx="7567" cy="526.12" r="0.15"/>
			<path d="M7561.4,526.3c0.09,0.03,0.14,0.13,0.11,0.22c-0.03,0.09-0.13,0.14-0.22,0.11c-0.09-0.04-0.14-0.13-0.11-0.22
				C7561.21,526.32,7561.31,526.27,7561.4,526.3z"/>
			<circle cx="7560.43" cy="520.81" r="0.2"/>
			<circle cx="7542.91" cy="521.55" r="0.22"/>
			<circle cx="7557.83" cy="527.52" r="0.25"/>
			<circle cx="7563.53" cy="522.07" r="0.27"/>
			<circle cx="7549.6" cy="518.1" r="0.3"/>
			<circle cx="7552.79" cy="526.14" r="0.32"/>
			<path d="M7567.76,529.64c0.18,0.06,0.28,0.27,0.21,0.45c-0.06,0.18-0.26,0.28-0.45,0.21c-0.18-0.07-0.28-0.26-0.21-0.45
				C7567.38,529.67,7567.58,529.57,7567.76,529.64z"/>
			<circle cx="7543.65" cy="515.67" r="0.37"/>
			<circle cx="7569.3" cy="522.28" r="0.15"/>
			<circle cx="7550.98" cy="523.49" r="0.17"/>
			<circle cx="7545.99" cy="521.73" r="0.2"/>
			<circle cx="7571.39" cy="533.13" r="0.22"/>
			<path d="M7559.9,528.16c0.13,0.05,0.19,0.19,0.15,0.32c-0.05,0.13-0.19,0.2-0.32,0.15c-0.13-0.05-0.2-0.19-0.15-0.32
				C7559.63,528.18,7559.77,528.11,7559.9,528.16z"/>
			<circle cx="7555.45" cy="525.41" r="0.28"/>
			<circle cx="7572.46" cy="531.96" r="0.3"/>
			<circle cx="7557.41" cy="525.86" r="0.32"/>
			<circle cx="7558.85" cy="521.35" r="0.35"/>
			<circle cx="7561.48" cy="521.73" r="0.37"/>
			<circle cx="7563.88" cy="521.97" r="0.15"/>
			<circle cx="7573.36" cy="525.62" r="0.17"/>
			<circle cx="7574.93" cy="528.69" r="0.2"/>
			<circle cx="7555.16" cy="520.58" r="0.22"/>
			<path d="M7559.97,526.44c0.13,0.05,0.2,0.19,0.15,0.32c-0.05,0.13-0.19,0.2-0.32,0.15c-0.13-0.05-0.2-0.19-0.15-0.32
				C7559.7,526.46,7559.84,526.39,7559.97,526.44z"/>
			<circle cx="7553.12" cy="520.88" r="0.27"/>
			<circle cx="7543.49" cy="523.55" r="0.3"/>
			<circle cx="7565.44" cy="524.31" r="0.32"/>
			<circle cx="7570.77" cy="527.95" r="0.35"/>
			<circle cx="7561.17" cy="519.51" r="0.38"/>
			<circle cx="7549.63" cy="524.17" r="0.15"/>
			<circle cx="7571.42" cy="531.27" r="0.17"/>
			<path d="M7564.52,529.92c0.1,0.04,0.16,0.15,0.12,0.25c-0.04,0.1-0.15,0.16-0.26,0.12c-0.1-0.04-0.16-0.15-0.12-0.26
				C7564.31,529.94,7564.42,529.88,7564.52,529.92z"/>
			<circle cx="7545" cy="513.96" r="0.22"/>
			<circle cx="7550.98" cy="518.36" r="0.25"/>
			<circle cx="7547.14" cy="515.98" r="0.27"/>
			<circle cx="7554.37" cy="522" r="0.3"/>
			<circle cx="7549.98" cy="513.72" r="0.32"/>
			<path d="M7562.18,521.57c0.18,0.06,0.28,0.26,0.21,0.45c-0.06,0.18-0.26,0.28-0.45,0.21c-0.18-0.07-0.28-0.26-0.21-0.45
				C7561.8,521.6,7562,521.51,7562.18,521.57z"/>
			<circle cx="7571.56" cy="524.73" r="0.37"/>
			<circle cx="7570.4" cy="525.91" r="0.15"/>
			<circle cx="7546.55" cy="512.9" r="0.18"/>
			<circle cx="7557.7" cy="524.8" r="0.2"/>
			<circle cx="7569.47" cy="527.72" r="0.23"/>
			<circle cx="7556.21" cy="515.48" r="0.25"/>
			<circle cx="7553.42" cy="518.52" r="0.27"/>
			<circle cx="7543.77" cy="518.42" r="0.3"/>
			<circle cx="7556.37" cy="521.57" r="0.32"/>
			<path d="M7549.37,516.44c0.18,0.07,0.28,0.27,0.21,0.45c-0.07,0.18-0.27,0.27-0.45,0.21c-0.18-0.07-0.28-0.27-0.21-0.45
				C7548.99,516.47,7549.19,516.37,7549.37,516.44z"/>
			<circle cx="7547.08" cy="517.93" r="0.37"/>
			<circle cx="7540.66" cy="516.67" r="0.15"/>
			<circle cx="7567.48" cy="524.01" r="0.17"/>
			<circle cx="7549.49" cy="521.97" r="0.2"/>
			<circle cx="7546.36" cy="519.67" r="0.22"/>
			<circle cx="7570.55" cy="530.1" r="0.25"/>
			<circle cx="7572.64" cy="529.92" r="0.28"/>
			<circle cx="7560.75" cy="521.96" r="0.3"/>
			<circle cx="7566.44" cy="522.8" r="0.32"/>
			<circle cx="7556.26" cy="520.85" r="0.35"/>
			<circle cx="7546.73" cy="521.46" r="0.37"/>
			<circle cx="7562.04" cy="520.38" r="0.15"/>
			<path d="M7570.35,532.44c0.09,0.03,0.14,0.13,0.11,0.22c-0.04,0.09-0.14,0.14-0.22,0.11c-0.09-0.03-0.14-0.13-0.11-0.22
				C7570.16,532.46,7570.26,532.41,7570.35,532.44z"/>
			<circle cx="7564.12" cy="531.46" r="0.2"/>
			<circle cx="7567.63" cy="529.23" r="0.22"/>
			<circle cx="7554.69" cy="520.36" r="0.25"/>
			<circle cx="7545.81" cy="521.7" r="0.27"/>
			<circle cx="7561.42" cy="517.36" r="0.3"/>
			<circle cx="7543.38" cy="515.41" r="0.32"/>
			<path d="M7542.47,515.62c0.18,0.07,0.28,0.26,0.21,0.45c-0.07,0.18-0.27,0.27-0.45,0.21c-0.18-0.06-0.27-0.26-0.21-0.45
				C7542.09,515.65,7542.29,515.56,7542.47,515.62z"/>
			<circle cx="7543.65" cy="519.77" r="0.37"/>
			<circle cx="7542.02" cy="520.71" r="0.15"/>
			<circle cx="7570.72" cy="530.12" r="0.17"/>
			<path d="M7558.09,520.9c0.1,0.04,0.16,0.15,0.12,0.25c-0.04,0.11-0.15,0.16-0.26,0.12c-0.1-0.04-0.16-0.15-0.12-0.26
				C7557.87,520.92,7557.98,520.87,7558.09,520.9z"/>
			<circle cx="7562.64" cy="519.13" r="0.22"/>
			<path d="M7569.16,530.62c0.13,0.05,0.2,0.19,0.15,0.32c-0.05,0.13-0.19,0.2-0.32,0.15c-0.13-0.05-0.2-0.19-0.15-0.32
				C7568.89,530.64,7569.03,530.58,7569.16,530.62z"/>
			<path d="M7562.91,527.75c0.14,0.05,0.22,0.21,0.17,0.35c-0.05,0.14-0.21,0.22-0.35,0.16c-0.14-0.05-0.21-0.21-0.16-0.35
				C7562.61,527.77,7562.77,527.7,7562.91,527.75z"/>
			<circle cx="7555.3" cy="523.77" r="0.3"/>
			<path d="M7541.24,522.11c0.17,0.06,0.26,0.25,0.2,0.41c-0.06,0.17-0.25,0.26-0.42,0.2c-0.17-0.06-0.26-0.25-0.2-0.42
				C7540.88,522.14,7541.07,522.05,7541.24,522.11z"/>
			<circle cx="7571.75" cy="529.06" r="0.35"/>
			<circle cx="7547.35" cy="519.23" r="0.37"/>
			<circle cx="7559.76" cy="520.12" r="0.15"/>
			<circle cx="7558.87" cy="521.03" r="0.17"/>
			<circle cx="7554.73" cy="519.98" r="0.2"/>
			<circle cx="7547.05" cy="515.71" r="0.22"/>
			<circle cx="7559.79" cy="522.33" r="0.25"/>
			<circle cx="7564.37" cy="528.03" r="0.27"/>
			<circle cx="7556.08" cy="524.93" r="0.3"/>
			<circle cx="7546.92" cy="522.2" r="0.32"/>
			<circle cx="7554.37" cy="519.97" r="0.35"/>
			<circle cx="7558.29" cy="516.24" r="0.37"/>
			<path d="M7558.27,517.83c0.08,0.03,0.12,0.11,0.09,0.19c-0.03,0.08-0.11,0.12-0.19,0.09c-0.08-0.03-0.12-0.11-0.09-0.19
				C7558.11,517.84,7558.2,517.8,7558.27,517.83z"/>
			<path d="M7556.53,518.85c0.09,0.03,0.14,0.13,0.1,0.22c-0.03,0.09-0.13,0.14-0.22,0.1c-0.09-0.03-0.14-0.13-0.1-0.22
				C7556.33,518.86,7556.43,518.81,7556.53,518.85z"/>
			<path d="M7550.77,518.19c0.11,0.04,0.16,0.15,0.12,0.26c-0.04,0.1-0.15,0.16-0.25,0.12c-0.1-0.04-0.16-0.15-0.12-0.25
				C7550.55,518.2,7550.66,518.15,7550.77,518.19z"/>
			<circle cx="7570.57" cy="523.38" r="0.22"/>
			<circle cx="7562.52" cy="523.71" r="0.25"/>
			<circle cx="7574.93" cy="531.67" r="0.27"/>
			<circle cx="7554.51" cy="519.82" r="0.3"/>
			<path d="M7567.01,528.14c0.17,0.06,0.25,0.25,0.2,0.41c-0.06,0.17-0.25,0.25-0.42,0.2c-0.17-0.06-0.26-0.25-0.2-0.42
				C7566.66,528.17,7566.84,528.08,7567.01,528.14z"/>
			<circle cx="7568.87" cy="525.03" r="0.35"/>
			<circle cx="7575.38" cy="532.63" r="0.37"/>
			<circle cx="7568.99" cy="530.07" r="0.15"/>
			<circle cx="7564.5" cy="523.59" r="0.17"/>
			<circle cx="7548.56" cy="520.74" r="0.2"/>
			<circle cx="7557.97" cy="520.2" r="0.22"/>
			<circle cx="7565.48" cy="530.96" r="0.25"/>
			<circle cx="7556.74" cy="525.92" r="0.27"/>
			<circle cx="7544.56" cy="520.3" r="0.3"/>
			<circle cx="7566.45" cy="523.56" r="0.33"/>
			<circle cx="7551.26" cy="523.48" r="0.35"/>
			<circle cx="7566.05" cy="520.83" r="0.37"/>
			<circle cx="7569.5" cy="523.55" r="0.15"/>
			<circle cx="7547.94" cy="520.64" r="0.17"/>
			<circle cx="7549.43" cy="517.03" r="0.2"/>
			<circle cx="7548.77" cy="521.95" r="0.22"/>
			<circle cx="7543.49" cy="513.3" r="0.25"/>
			<circle cx="7566.53" cy="532.26" r="0.27"/>
			<path d="M7555,521.55c0.16,0.06,0.24,0.23,0.18,0.38c-0.06,0.15-0.23,0.24-0.38,0.18c-0.16-0.06-0.24-0.23-0.18-0.38
				C7554.67,521.58,7554.84,521.5,7555,521.55z"/>
			<circle cx="7554.75" cy="523.77" r="0.32"/>
			<circle cx="7558.26" cy="524.77" r="0.35"/>
			<circle cx="7565.04" cy="522.85" r="0.37"/>
			<circle cx="7565.17" cy="523.79" r="0.15"/>
			<circle cx="7553.57" cy="526.27" r="0.17"/>
			<circle cx="7557.66" cy="523.11" r="0.2"/>
			<circle cx="7549" cy="518.48" r="0.22"/>
			<circle cx="7562.32" cy="527.85" r="0.25"/>
			<circle cx="7556.8" cy="523.2" r="0.27"/>
			<circle cx="7573.47" cy="531.21" r="0.3"/>
			<circle cx="7569.18" cy="528.02" r="0.32"/>
			<circle cx="7568.89" cy="526.51" r="0.35"/>
			<circle cx="7544.48" cy="524.38" r="0.37"/>
			<path d="M7567.23,522.66c0.08,0.03,0.12,0.12,0.09,0.19c-0.03,0.08-0.12,0.12-0.19,0.09c-0.08-0.03-0.12-0.12-0.09-0.19
				C7567.07,522.67,7567.15,522.63,7567.23,522.66z"/>
			<circle cx="7555.83" cy="519.51" r="0.18"/>
			<circle cx="7549.98" cy="521.89" r="0.2"/>
			<circle cx="7568.25" cy="529.05" r="0.23"/>
			<circle cx="7549.32" cy="523.98" r="0.25"/>
			<circle cx="7553.2" cy="517.84" r="0.27"/>
			<circle cx="7566.75" cy="529.88" r="0.3"/>
			<circle cx="7565.11" cy="522.14" r="0.32"/>
			<circle cx="7549.65" cy="521.02" r="0.35"/>
			<circle cx="7550.7" cy="516.82" r="0.37"/>
			<circle cx="7553.36" cy="522.51" r="0.15"/>
			<circle cx="7571.64" cy="529.88" r="0.17"/>
			<circle cx="7558.73" cy="519.9" r="0.2"/>
			<circle cx="7549.63" cy="517.23" r="0.23"/>
			<circle cx="7552.96" cy="517.72" r="0.25"/>
			<circle cx="7554.6" cy="526.24" r="0.27"/>
			<circle cx="7554.11" cy="518.64" r="0.3"/>
			<circle cx="7562.15" cy="527.29" r="0.32"/>
			<path d="M7560.03,520.37c0.18,0.06,0.28,0.27,0.21,0.45c-0.07,0.18-0.27,0.28-0.45,0.21c-0.18-0.06-0.27-0.26-0.21-0.45
				C7559.65,520.4,7559.85,520.3,7560.03,520.37z"/>
			<circle cx="7556.67" cy="524.58" r="0.37"/>
			<circle cx="7559.06" cy="527.43" r="0.15"/>
			<circle cx="7561.59" cy="528.6" r="0.17"/>
			<circle cx="7547.36" cy="521.76" r="0.2"/>
			<circle cx="7545.06" cy="521.32" r="0.22"/>
			<circle cx="7558.12" cy="527.99" r="0.25"/>
			<circle cx="7554.57" cy="518.64" r="0.27"/>
			<circle cx="7571.94" cy="525.98" r="0.3"/>
			<circle cx="7551.01" cy="518.8" r="0.32"/>
			<circle cx="7551.52" cy="515.18" r="0.35"/>
			<circle cx="7553.62" cy="526.4" r="0.37"/>
			<circle cx="7565.7" cy="528.71" r="0.15"/>
			<circle cx="7557.73" cy="527.53" r="0.17"/>
			<circle cx="7553.02" cy="515.78" r="0.2"/>
			<circle cx="7561.73" cy="527.18" r="0.22"/>
			<circle cx="7545.34" cy="516.35" r="0.25"/>
			<circle cx="7558.32" cy="521.79" r="0.27"/>
			<circle cx="7556.76" cy="522.55" r="0.3"/>
			<circle cx="7554.75" cy="524.8" r="0.32"/>
			<circle cx="7558.15" cy="528.16" r="0.35"/>
			<circle cx="7564.78" cy="525.97" r="0.37"/>
			<circle cx="7572.96" cy="525.44" r="0.15"/>
			<circle cx="7569.26" cy="530.09" r="0.18"/>
			<circle cx="7547.63" cy="513.6" r="0.2"/>
			<circle cx="7550.23" cy="523.77" r="0.22"/>
			<circle cx="7573.52" cy="530.3" r="0.25"/>
			<circle cx="7555.5" cy="521.93" r="0.27"/>
			<circle cx="7568.8" cy="533.3" r="0.3"/>
			<path d="M7549.14,521.92c0.17,0.06,0.26,0.25,0.2,0.42c-0.06,0.17-0.25,0.25-0.42,0.19c-0.17-0.06-0.26-0.25-0.2-0.41
				C7548.79,521.95,7548.98,521.86,7549.14,521.92z"/>
			<circle cx="7567.71" cy="523.91" r="0.35"/>
			<circle cx="7547.84" cy="524" r="0.37"/>
			<circle cx="7563.14" cy="528.38" r="0.15"/>
			<circle cx="7560.26" cy="524.6" r="0.17"/>
			<circle cx="7540.92" cy="519.66" r="0.2"/>
			<circle cx="7547.13" cy="525.71" r="0.22"/>
			<circle cx="7544.22" cy="518.94" r="0.25"/>
			<circle cx="7562.49" cy="528.65" r="0.27"/>
			<circle cx="7563.02" cy="523.85" r="0.15"/>
			<circle cx="7539.44" cy="520.06" r="0.18"/>
			<circle cx="7559.34" cy="519.49" r="0.2"/>
			<circle cx="7572.45" cy="531.46" r="0.22"/>
			<circle cx="7561.89" cy="529.82" r="0.25"/>
			<circle cx="7573.42" cy="533.1" r="0.28"/>
			<circle cx="7569.36" cy="524.7" r="0.3"/>
			<circle cx="7547.88" cy="514.92" r="0.32"/>
			<path d="M7555.52,522.41c0.18,0.07,0.28,0.26,0.21,0.45c-0.07,0.18-0.27,0.28-0.45,0.21c-0.18-0.06-0.28-0.27-0.21-0.45
				C7555.14,522.43,7555.34,522.34,7555.52,522.41z"/>
			<circle cx="7547.33" cy="518.51" r="0.37"/>
			<circle cx="7554.38" cy="520.7" r="0.15"/>
			<circle cx="7563.96" cy="522.79" r="0.17"/>
			<circle cx="7559.39" cy="521.89" r="0.2"/>
			<circle cx="7559.61" cy="522.06" r="0.23"/>
			<circle cx="7566.09" cy="529.42" r="0.25"/>
			<circle cx="7542.47" cy="521.75" r="0.27"/>
			<circle cx="7540.74" cy="520.27" r="0.3"/>
			<circle cx="7557.75" cy="520.04" r="0.32"/>
			<circle cx="7549.42" cy="521.41" r="0.35"/>
			<circle cx="7558.12" cy="524.92" r="0.37"/>
			<circle cx="7541.89" cy="518.26" r="0.15"/>
			<circle cx="7569.36" cy="521.87" r="0.18"/>
			<circle cx="7562.9" cy="530.34" r="0.2"/>
			<circle cx="7571.44" cy="524.8" r="0.22"/>
			<circle cx="7544.05" cy="511.63" r="0.25"/>
			<circle cx="7546.65" cy="517.83" r="0.27"/>
			<circle cx="7542.46" cy="520.26" r="0.3"/>
			<circle cx="7564.29" cy="519.56" r="0.32"/>
			<circle cx="7544.13" cy="518.95" r="0.35"/>
			<path d="M7540.3,522.02c0.2,0.07,0.3,0.29,0.23,0.48c-0.07,0.2-0.29,0.3-0.48,0.23c-0.19-0.07-0.29-0.28-0.22-0.48
				C7539.9,522.05,7540.11,521.95,7540.3,522.02z"/>
			<circle cx="7568.36" cy="523.89" r="0.15"/>
			<circle cx="7571.65" cy="525.25" r="0.17"/>
			<circle cx="7566.94" cy="523.99" r="0.2"/>
			<circle cx="7569.43" cy="532.43" r="0.22"/>
			<path d="M7545.96,524.09c0.13,0.05,0.2,0.19,0.15,0.32c-0.05,0.13-0.19,0.2-0.32,0.15c-0.13-0.05-0.2-0.19-0.15-0.32
				C7545.69,524.11,7545.83,524.05,7545.96,524.09z"/>
			<circle cx="7556.1" cy="525.91" r="0.27"/>
			<path d="M7570.5,523.07c0.15,0.06,0.24,0.23,0.18,0.38c-0.05,0.16-0.23,0.23-0.38,0.18c-0.16-0.06-0.24-0.23-0.18-0.38
				C7570.17,523.1,7570.34,523.02,7570.5,523.07z"/>
			<circle cx="7552.96" cy="517.47" r="0.33"/>
			<circle cx="7560.01" cy="522.48" r="0.35"/>
			<g>
				<circle cx="7565.73" cy="525.55" r="0.37"/>
			</g>
			<g>
				<path d="M7552.27,519.46l0.08,0.66l-0.56-0.2L7552.27,519.46z"/>
				<path d="M7552.56,519.47l-0.4,0.67l-0.37-0.59L7552.56,519.47z"/>
				<path d="M7560.53,524.74l0.66,0.6l-0.75,0.29L7560.53,524.74z"/>
				<path d="M7550.05,520.97l-0.79,0.62l-0.18-0.88L7550.05,520.97z"/>
				<path d="M7559.47,522.64l0.63,0.92l-0.99,0.14L7559.47,522.64z"/>
				<path d="M7557.82,523.38l-0.28,1.2l-0.85-0.7L7557.82,523.38z"/>
				<path d="M7554.24,520.68l0.77,1.1l-1.19,0.17L7554.24,520.68z"/>
				<path d="M7557.21,520.08l-0.1,1.45l-1.12-0.66L7557.21,520.08z"/>
				<path d="M7552.02,521.72l-0.53,1.47l-0.96-1.01L7552.02,521.72z"/>
				<path d="M7550.78,518.67l-0.85,1.44l-0.81-1.26L7550.78,518.67z"/>
			</g>
			<circle cx="7555.13" cy="516.82" r="0.15"/>
			<circle cx="7546.06" cy="515.39" r="0.18"/>
			<circle cx="7563.95" cy="528.95" r="0.2"/>
			<path d="M7547.25,514.14c0.11,0.04,0.18,0.17,0.13,0.29c-0.04,0.12-0.17,0.18-0.29,0.13c-0.11-0.04-0.18-0.17-0.13-0.29
				C7547,514.15,7547.13,514.09,7547.25,514.14z"/>
			<circle cx="7564.02" cy="527.49" r="0.25"/>
			<circle cx="7569.12" cy="523.05" r="0.27"/>
			<circle cx="7570.71" cy="532.72" r="0.3"/>
			<circle cx="7566.76" cy="530.13" r="0.32"/>
			<circle cx="7570.19" cy="530.07" r="0.35"/>
			<circle cx="7539.92" cy="518.73" r="0.37"/>
			<circle cx="7546.85" cy="515.5" r="0.15"/>
			<circle cx="7563.08" cy="526.75" r="0.18"/>
			<circle cx="7548.03" cy="517.6" r="0.2"/>
			<circle cx="7549.34" cy="514.45" r="0.22"/>
			<circle cx="7570.33" cy="529.92" r="0.25"/>
			<circle cx="7575.11" cy="533.38" r="0.27"/>
			<circle cx="7571.56" cy="533.43" r="0.3"/>
			<circle cx="7567.76" cy="522.72" r="0.32"/>
			<circle cx="7570.21" cy="524.12" r="0.35"/>
			<circle cx="7541.89" cy="514.88" r="0.37"/>
			<circle cx="7573.86" cy="525.01" r="0.15"/>
			<circle cx="7554.41" cy="517.04" r="0.18"/>
			<path d="M7558.51,517.43c0.1,0.04,0.16,0.15,0.12,0.26c-0.04,0.1-0.15,0.16-0.25,0.12c-0.1-0.04-0.16-0.15-0.12-0.26
				C7558.29,517.44,7558.41,517.39,7558.51,517.43z"/>
			<circle cx="7571.95" cy="526.92" r="0.22"/>
			<circle cx="7553.41" cy="525.18" r="0.25"/>
			<circle cx="7544.37" cy="514.7" r="0.27"/>
			<circle cx="7556.58" cy="521.25" r="0.3"/>
			<circle cx="7563.81" cy="525.01" r="0.32"/>
			<circle cx="7560.63" cy="526.66" r="0.35"/>
			<circle cx="7552" cy="518.36" r="0.37"/>
			<circle cx="7553.27" cy="527.71" r="0.15"/>
			<circle cx="7563.59" cy="526.36" r="0.17"/>
			<circle cx="7544.01" cy="513.41" r="0.2"/>
			<circle cx="7545.47" cy="516.52" r="0.22"/>
			<circle cx="7551.28" cy="527.27" r="0.25"/>
			<circle cx="7542.8" cy="512.51" r="0.27"/>
			<circle cx="7551.03" cy="521.8" r="0.3"/>
			<circle cx="7556.21" cy="528.01" r="0.32"/>
			<circle cx="7548.9" cy="525.67" r="0.35"/>
			<circle cx="7543.87" cy="521.72" r="0.37"/>
			<path d="M7548.94,523.79c0.08,0.03,0.12,0.11,0.09,0.19c-0.03,0.08-0.12,0.12-0.19,0.09c-0.08-0.03-0.12-0.11-0.09-0.19
				C7548.77,523.8,7548.86,523.75,7548.94,523.79z"/>
			<path d="M7573.67,531.68c0.09,0.03,0.14,0.13,0.11,0.22c-0.03,0.09-0.13,0.14-0.23,0.1c-0.09-0.03-0.14-0.13-0.1-0.22
				C7573.48,531.69,7573.58,531.64,7573.67,531.68z"/>
			<circle cx="7547" cy="516.6" r="0.2"/>
			<circle cx="7555.99" cy="525.97" r="0.22"/>
			<circle cx="7547.35" cy="520.75" r="0.25"/>
			<circle cx="7554.56" cy="527.38" r="0.27"/>
			<circle cx="7554.86" cy="526.29" r="0.3"/>
			<circle cx="7552.45" cy="523.66" r="0.32"/>
			<circle cx="7550.25" cy="518.61" r="0.35"/>
			<circle cx="7556.2" cy="518.72" r="0.37"/>
			<circle cx="7552.08" cy="517.11" r="0.15"/>
			<circle cx="7575.72" cy="527.67" r="0.17"/>
			<circle cx="7562.35" cy="525.95" r="0.2"/>
			<circle cx="7543.36" cy="513.41" r="0.22"/>
			<circle cx="7572.43" cy="533.33" r="0.25"/>
			<circle cx="7546.32" cy="514.4" r="0.27"/>
			<circle cx="7572.56" cy="531.42" r="0.3"/>
			<circle cx="7549.33" cy="516.04" r="0.32"/>
			<circle cx="7558.76" cy="525.69" r="0.35"/>
			<circle cx="7575.38" cy="530.42" r="0.37"/>
			<circle cx="7556.04" cy="526.84" r="0.15"/>
			<circle cx="7543.48" cy="513.58" r="0.17"/>
			<circle cx="7548.55" cy="517.95" r="0.2"/>
			<circle cx="7569.11" cy="533.73" r="0.22"/>
			<circle cx="7567.64" cy="521.28" r="0.25"/>
			<path d="M7563.01,521.01c0.14,0.05,0.22,0.21,0.17,0.35c-0.05,0.14-0.21,0.21-0.35,0.16c-0.14-0.05-0.22-0.21-0.17-0.35
				C7562.71,521.03,7562.87,520.96,7563.01,521.01z"/>
			<circle cx="7552.62" cy="514.19" r="0.3"/>
			<circle cx="7545.43" cy="518.66" r="0.33"/>
			<circle cx="7561.59" cy="525" r="0.35"/>
			<circle cx="7565.55" cy="528.6" r="0.37"/>
			<circle cx="7575.24" cy="525.52" r="0.15"/>
			<circle cx="7572.29" cy="526.03" r="0.17"/>
			<circle cx="7565.79" cy="527.43" r="0.2"/>
			<circle cx="7549.97" cy="516.55" r="0.22"/>
			<circle cx="7546.77" cy="516.75" r="0.25"/>
			<circle cx="7567.97" cy="525.23" r="0.27"/>
			<circle cx="7570.28" cy="526" r="0.3"/>
			<circle cx="7569.07" cy="529.09" r="0.32"/>
			<circle cx="7577.74" cy="530.58" r="0.35"/>
			<circle cx="7545.57" cy="523.9" r="0.37"/>
			<circle cx="7547.75" cy="516.58" r="0.15"/>
			<circle cx="7551.97" cy="517.16" r="0.18"/>
			<circle cx="7552.17" cy="518.89" r="0.2"/>
			<circle cx="7551.75" cy="522.87" r="0.22"/>
			<circle cx="7566.77" cy="530.59" r="0.25"/>
			<circle cx="7546.89" cy="521.77" r="0.28"/>
			<circle cx="7552.25" cy="524.32" r="0.3"/>
			<circle cx="7545.62" cy="511.99" r="0.32"/>
			<circle cx="7554.2" cy="517.36" r="0.35"/>
			<circle cx="7550.68" cy="513.81" r="0.37"/>
			<path d="M7571.46,524.49c0.08,0.03,0.12,0.11,0.09,0.19c-0.03,0.08-0.11,0.12-0.19,0.09c-0.08-0.03-0.12-0.11-0.09-0.19
				C7571.3,524.5,7571.38,524.46,7571.46,524.49z"/>
			<circle cx="7564.63" cy="521.09" r="0.17"/>
			<circle cx="7570.86" cy="525.12" r="0.2"/>
			<circle cx="7556.9" cy="521.13" r="0.22"/>
			<circle cx="7572.55" cy="529.67" r="0.25"/>
			<circle cx="7555.96" cy="517.08" r="0.27"/>
			<circle cx="7546.58" cy="522.12" r="0.3"/>
			<circle cx="7551.32" cy="519.99" r="0.32"/>
			<circle cx="7573.76" cy="528.59" r="0.35"/>
			<circle cx="7560.01" cy="518.02" r="0.37"/>
			<circle cx="7569.97" cy="530.93" r="0.15"/>
			<circle cx="7544.37" cy="521.86" r="0.17"/>
			<path d="M7549.87,517.59c0.11,0.04,0.16,0.15,0.12,0.26c-0.04,0.1-0.15,0.16-0.25,0.12c-0.1-0.04-0.16-0.15-0.12-0.26
				C7549.66,517.6,7549.77,517.55,7549.87,517.59z"/>
			<circle cx="7556.07" cy="520.62" r="0.22"/>
			<path d="M7561.49,523.23c0.13,0.05,0.2,0.19,0.15,0.32c-0.05,0.13-0.19,0.2-0.32,0.15c-0.13-0.05-0.2-0.19-0.15-0.32
				C7561.22,523.25,7561.36,523.18,7561.49,523.23z"/>
			<circle cx="7551.08" cy="518.34" r="0.27"/>
			<circle cx="7546.43" cy="524.99" r="0.3"/>
			<circle cx="7569.34" cy="525.01" r="0.32"/>
			<path d="M7554.81,514.93c0.18,0.07,0.28,0.27,0.21,0.45c-0.07,0.18-0.27,0.28-0.45,0.21c-0.18-0.07-0.28-0.26-0.21-0.45
				C7554.43,514.96,7554.63,514.86,7554.81,514.93z"/>
			<circle cx="7564.28" cy="527.26" r="0.37"/>
			<circle cx="7544.33" cy="518.9" r="0.15"/>
			<circle cx="7544.01" cy="517.99" r="0.17"/>
			<circle cx="7541.52" cy="517.22" r="0.2"/>
			<circle cx="7543.11" cy="517.43" r="0.22"/>
			<circle cx="7563.26" cy="527.55" r="0.25"/>
			<circle cx="7559.94" cy="523.97" r="0.27"/>
			<circle cx="7552.04" cy="525.91" r="0.3"/>
			<circle cx="7570.75" cy="527.07" r="0.33"/>
			<circle cx="7556.52" cy="525.78" r="0.35"/>
			<circle cx="7550.59" cy="525.59" r="0.37"/>
			<circle cx="7557.81" cy="525.01" r="0.15"/>
			<circle cx="7557.74" cy="523.66" r="0.17"/>
			<circle cx="7561.78" cy="526.52" r="0.2"/>
			<circle cx="7554.86" cy="524.5" r="0.23"/>
			<circle cx="7567.24" cy="527.69" r="0.25"/>
			<circle cx="7556.08" cy="518.28" r="0.28"/>
			<circle cx="7545.81" cy="522.46" r="0.3"/>
			<path d="M7548.13,516.55c0.17,0.06,0.26,0.25,0.2,0.42c-0.06,0.17-0.25,0.26-0.42,0.19c-0.17-0.06-0.26-0.25-0.19-0.41
				C7547.77,516.57,7547.96,516.49,7548.13,516.55z"/>
			<circle cx="7545.69" cy="520.75" r="0.35"/>
			<circle cx="7542.29" cy="519.06" r="0.37"/>
			<circle cx="7548.81" cy="513.13" r="0.15"/>
			<circle cx="7574.09" cy="526.16" r="0.17"/>
			<path d="M7565.07,527.64c0.1,0.04,0.16,0.15,0.12,0.25c-0.04,0.1-0.15,0.16-0.26,0.12c-0.1-0.04-0.16-0.15-0.12-0.25
				C7564.85,527.65,7564.97,527.6,7565.07,527.64z"/>
			<circle cx="7563.11" cy="520.54" r="0.22"/>
			<circle cx="7552.68" cy="525.17" r="0.25"/>
			<circle cx="7546.37" cy="515.03" r="0.27"/>
			<circle cx="7560.82" cy="521.01" r="0.3"/>
			<circle cx="7568.89" cy="530.87" r="0.32"/>
			<path d="M7547.19,523c0.18,0.07,0.28,0.27,0.21,0.45c-0.06,0.18-0.27,0.27-0.45,0.21c-0.18-0.06-0.28-0.27-0.21-0.45
				C7546.81,523.03,7547.01,522.93,7547.19,523z"/>
			<circle cx="7552.46" cy="521.43" r="0.37"/>
			<circle cx="7567.02" cy="523.49" r="0.15"/>
			<path d="M7544.37,522.53c0.09,0.03,0.14,0.13,0.1,0.22c-0.03,0.09-0.13,0.14-0.22,0.11c-0.09-0.03-0.14-0.13-0.11-0.23
				C7544.18,522.54,7544.28,522.5,7544.37,522.53z"/>
			<circle cx="7576.94" cy="531.82" r="0.2"/>
			<circle cx="7573.08" cy="525.63" r="0.22"/>
			<circle cx="7552.8" cy="515.62" r="0.25"/>
			<path d="M7567.5,528.57c0.14,0.05,0.22,0.21,0.17,0.35c-0.05,0.14-0.21,0.22-0.35,0.17c-0.14-0.05-0.22-0.21-0.16-0.35
				C7567.2,528.59,7567.36,528.52,7567.5,528.57z"/>
			<circle cx="7544.8" cy="519.91" r="0.3"/>
			<circle cx="7567.26" cy="532.18" r="0.32"/>
			<path d="M7558.46,524.99c0.18,0.07,0.28,0.27,0.21,0.45c-0.07,0.18-0.27,0.27-0.45,0.21c-0.18-0.06-0.28-0.26-0.21-0.44
				C7558.08,525.02,7558.28,524.93,7558.46,524.99z"/>
			<circle cx="7540.61" cy="518.57" r="0.37"/>
			<circle cx="7566.5" cy="523.15" r="0.15"/>
			<circle cx="7551.2" cy="522.1" r="0.18"/>
			<circle cx="7557.82" cy="519.34" r="0.2"/>
			<circle cx="7576.52" cy="531.66" r="0.23"/>
			<circle cx="7559.51" cy="525.92" r="0.25"/>
			<path d="M7551,522.4c0.14,0.05,0.22,0.21,0.17,0.35c-0.05,0.14-0.21,0.22-0.35,0.17c-0.14-0.05-0.22-0.21-0.17-0.35
				C7550.7,522.43,7550.86,522.36,7551,522.4z"/>
			<circle cx="7548.14" cy="522.9" r="0.3"/>
			<circle cx="7569.34" cy="523.21" r="0.32"/>
			<circle cx="7558.92" cy="523.18" r="0.15"/>
			<circle cx="7561.95" cy="521.95" r="0.17"/>
			<circle cx="7557.85" cy="522.42" r="0.2"/>
			<circle cx="7555.15" cy="519.6" r="0.15"/>
			<circle cx="7559.16" cy="524.09" r="0.17"/>
			<circle cx="7554.89" cy="524.42" r="0.2"/>
			<circle cx="7554.56" cy="518.92" r="0.23"/>
			<circle cx="7553.79" cy="523.36" r="0.25"/>
		</g>
	</g>
</g>
<g opacity="0.75">
	<path d="M7241.4,501.5l-0.35-0.06c-2.93-0.51-5.95,0.16-8.39,1.88l-3.03,2.13l-0.72-1.03l-3.78-0.66l-0.46,2.62l-0.22,1.26
		l-0.46,2.62l3.78,0.66l1.03-0.72l2.13,3.03c1.71,2.44,4.32,4.09,7.26,4.61l0.35,0.06c2.09,0.36,4.22,0.12,6.26-0.44
		c0.23-0.06,0.48-0.08,0.73-0.04l1.16,0.2c0.25,0.04,0.48,0.14,0.68,0.28c1.73,1.23,3.65,2.17,5.74,2.54l13.99,2.44
		c1.72,0.3,3.49-0.09,4.91-1.1l0.16-0.11l0.97-5.54l0.22-1.26l0.96-5.53l-0.11-0.16c-1-1.43-2.53-2.4-4.25-2.7l-13.99-2.44
		c-2.09-0.37-4.21-0.12-6.26,0.44c-0.23,0.06-0.48,0.08-0.73,0.04l-1.16-0.2c-0.25-0.04-0.48-0.14-0.68-0.28
		C7245.41,502.81,7243.5,501.86,7241.4,501.5z"/>
	<polygon points="7225.13,503.75 7224.67,506.37 7224.45,507.64 7224,510.25 7227.68,510.9 7228.82,504.4 	"/>
	<circle cx="7268.71" cy="515.21" r="0.15"/>
	<circle cx="7263.4" cy="510.33" r="0.17"/>
	<circle cx="7265.11" cy="518.57" r="0.22"/>
	<circle cx="7267.35" cy="513.67" r="0.25"/>
	<circle cx="7267.66" cy="509.67" r="0.27"/>
	<circle cx="7269.63" cy="514.97" r="0.3"/>
	<circle cx="7258.8" cy="511.57" r="0.32"/>
	<circle cx="7265.83" cy="507.39" r="0.35"/>
	<circle cx="7270.51" cy="515.78" r="0.37"/>
	<circle cx="7265.89" cy="515.3" r="0.15"/>
	<circle cx="7256.23" cy="511.49" r="0.17"/>
	<circle cx="7266.78" cy="513.34" r="0.2"/>
	<circle cx="7262.23" cy="518.01" r="0.22"/>
	<circle cx="7270.48" cy="516.84" r="0.25"/>
	<circle cx="7257" cy="515.49" r="0.15"/>
	<circle cx="7255.08" cy="513.62" r="0.17"/>
	<circle cx="7256.8" cy="511.82" r="0.2"/>
	<circle cx="7262.87" cy="516.21" r="0.22"/>
	<circle cx="7260.47" cy="513.6" r="0.25"/>
	<circle cx="7268.39" cy="510.81" r="0.27"/>
	<circle cx="7263.77" cy="514.25" r="0.3"/>
	<circle cx="7269.04" cy="512.93" r="0.32"/>
	<circle cx="7270.9" cy="512.33" r="0.35"/>
	<circle cx="7265.7" cy="513.34" r="0.37"/>
	<circle cx="7257.61" cy="514.75" r="0.15"/>
	<circle cx="7262.13" cy="507.79" r="0.17"/>
	<circle cx="7259.12" cy="516.54" r="0.2"/>
	<circle cx="7264.22" cy="517.75" r="0.22"/>
	<circle cx="7269.91" cy="516.52" r="0.25"/>
	<circle cx="7256.88" cy="514.18" r="0.27"/>
	<circle cx="7259.45" cy="518.68" r="0.3"/>
	<circle cx="7268" cy="516.36" r="0.33"/>
	<circle cx="7264.83" cy="517.02" r="0.15"/>
	<circle cx="7255.2" cy="514.92" r="0.17"/>
	<circle cx="7257.84" cy="512.88" r="0.2"/>
	<circle cx="7264.02" cy="521.35" r="0.15"/>
	<circle cx="7260.3" cy="516.13" r="0.17"/>
	<circle cx="7261.51" cy="514.66" r="0.2"/>
	<circle cx="7255.85" cy="517.61" r="0.22"/>
	<circle cx="7259.49" cy="513.2" r="0.25"/>
	<circle cx="7261.9" cy="513.03" r="0.28"/>
	<circle cx="7265.43" cy="511.79" r="0.3"/>
	<circle cx="7267.74" cy="519.3" r="0.32"/>
	<circle cx="7270.3" cy="518.8" r="0.35"/>
	<circle cx="7258.77" cy="509.29" r="0.37"/>
	<circle cx="7261.36" cy="510.52" r="0.15"/>
	<circle cx="7264.33" cy="514.57" r="0.2"/>
	<path d="M7266.84,517.95l0.21-0.64l0.43,0.42L7266.84,517.95z"/>
</g>
<g opacity="0.75">
	<g>
		<g>
			<path d="M7347.37,561.63l0.12-0.12c1.68-1.6,2.65-3.8,2.71-6.12l0.07-2.88l0.97,0.02l2.16-2.06l-1.42-1.5l-0.69-0.72l-1.42-1.5
				l-2.17,2.06l-0.02,0.97l-2.88-0.07c-2.32-0.06-4.56,0.81-6.24,2.41l-0.12,0.11c-1.2,1.14-2.21,2.51-2.67,4.09
				c-0.06,0.21-0.18,0.42-0.35,0.58l-0.67,0.63c-0.17,0.17-0.38,0.27-0.6,0.33c-1.6,0.38-3.02,1.32-4.21,2.46l-7.93,7.55
				c-0.98,0.94-1.55,2.22-1.59,3.58l0,0c0,0.1,0.04,0.19,0.1,0.26l2.91,3.06l0.69,0.72l2.91,3.06c0.07,0.07,0.16,0.11,0.25,0.11l0,0
				c1.36,0.03,2.67-0.47,3.66-1.41l7.92-7.54c1.2-1.14,2.21-2.51,2.67-4.09c0.06-0.21,0.18-0.42,0.35-0.58l0.67-0.63
				c0.17-0.16,0.38-0.27,0.6-0.32C7344.76,563.71,7346.18,562.77,7347.37,561.63z"/>
			<polygon points="7353.42,550.48 7351.99,548.99 7351.3,548.26 7349.88,546.77 7347.77,548.77 7351.31,552.49 			"/>
		</g>
		<circle cx="7328.91" cy="573.8" r="0.32"/>
		<circle cx="7341.62" cy="557.1" r="0.15"/>
		<circle cx="7332.47" cy="563.6" r="0.17"/>
		<circle cx="7339.12" cy="559.85" r="0.2"/>
		<circle cx="7329.37" cy="567.99" r="0.22"/>
		<circle cx="7340.23" cy="561.23" r="0.25"/>
		<circle cx="7338.09" cy="566.34" r="0.27"/>
		<circle cx="7331.38" cy="560.98" r="0.3"/>
		<circle cx="7337.32" cy="559.41" r="0.32"/>
		<circle cx="7327.82" cy="573.69" r="0.35"/>
		<circle cx="7332.69" cy="561.79" r="0.37"/>
		<circle cx="7327.44" cy="567.01" r="0.15"/>
		<circle cx="7343.41" cy="562.29" r="0.17"/>
		<circle cx="7338.44" cy="562.92" r="0.2"/>
		<circle cx="7335.86" cy="561.59" r="0.22"/>
		<circle cx="7336.04" cy="562.48" r="0.25"/>
		<circle cx="7337" cy="566.74" r="0.27"/>
		<circle cx="7334.95" cy="565.89" r="0.3"/>
		<circle cx="7335.58" cy="568.3" r="0.32"/>
		<circle cx="7324.3" cy="570.09" r="0.35"/>
		<circle cx="7328.77" cy="576.68" r="0.37"/>
		<circle cx="7333.9" cy="567.08" r="0.15"/>
		<circle cx="7331.01" cy="570.41" r="0.17"/>
		<circle cx="7333.35" cy="570.8" r="0.2"/>
		<circle cx="7336.92" cy="559.61" r="0.22"/>
		<circle cx="7341.65" cy="561.69" r="0.25"/>
		<circle cx="7334.61" cy="564.54" r="0.28"/>
		<circle cx="7335.7" cy="567.17" r="0.3"/>
		<circle cx="7326.28" cy="568.84" r="0.32"/>
		<circle cx="7332.14" cy="563.77" r="0.35"/>
		<circle cx="7331.45" cy="565.58" r="0.37"/>
		<circle cx="7327.82" cy="570.17" r="0.15"/>
		<circle cx="7329.41" cy="566.27" r="0.17"/>
		<circle cx="7325.6" cy="571.17" r="0.2"/>
		<circle cx="7341.49" cy="558.49" r="0.22"/>
		<circle cx="7334.86" cy="560.27" r="0.25"/>
		<circle cx="7329.28" cy="565.88" r="0.27"/>
		<circle cx="7339.41" cy="565.32" r="0.3"/>
		<circle cx="7324.64" cy="572.45" r="0.32"/>
		<circle cx="7334.36" cy="570.83" r="0.35"/>
		<circle cx="7337.34" cy="561.29" r="0.37"/>
		<circle cx="7334.14" cy="558.78" r="0.15"/>
		<circle cx="7332.44" cy="566.85" r="0.18"/>
		<circle cx="7330.16" cy="564.01" r="0.2"/>
		<circle cx="7333.14" cy="560.09" r="0.22"/>
		<circle cx="7327.82" cy="568.66" r="0.25"/>
		<circle cx="7330.59" cy="574.01" r="0.27"/>
		<circle cx="7327.23" cy="575.11" r="0.3"/>
		<circle cx="7331" cy="562.43" r="0.32"/>
		<circle cx="7338.64" cy="557.48" r="0.35"/>
		<circle cx="7331.13" cy="572.3" r="0.37"/>
		<circle cx="7333.15" cy="573.86" r="0.15"/>
		<circle cx="7337.38" cy="565.36" r="0.17"/>
		<circle cx="7325.09" cy="566.95" r="0.2"/>
		<circle cx="7332.84" cy="565.17" r="0.22"/>
		<circle cx="7344.13" cy="559.03" r="0.25"/>
		<circle cx="7339.39" cy="561.38" r="0.27"/>
		<circle cx="7337.15" cy="563.34" r="0.3"/>
		<circle cx="7325.65" cy="574.98" r="0.32"/>
		<circle cx="7329.14" cy="570.73" r="0.35"/>
		<circle cx="7329.36" cy="565.46" r="0.38"/>
		<circle cx="7326" cy="570.1" r="0.15"/>
		<path d="M7328.37,573.5l0.38,0.55l-0.59,0.08L7328.37,573.5z"/>
		<path d="M7335.68,565.93l0.54,0.56l-0.67,0.21L7335.68,565.93z"/>
		<path d="M7326.23,567.6l0.83-0.33l-0.07,0.8L7326.23,567.6z"/>
		<path d="M7339.04,563l0.68,0.74l-0.86,0.25L7339.04,563z"/>
		<path d="M7330.77,567.46l1.11-0.09l-0.37,0.93L7330.77,567.46z"/>
		<circle cx="7339.64" cy="556.61" r="0.15"/>
		<circle cx="7335.73" cy="569.71" r="0.17"/>
		<circle cx="7338.93" cy="566.19" r="0.2"/>
		<circle cx="7338.09" cy="556.28" r="0.22"/>
		<circle cx="7337.13" cy="566.11" r="0.25"/>
		<circle cx="7330.17" cy="571.07" r="0.27"/>
		<circle cx="7324.3" cy="569.09" r="0.3"/>
		<circle cx="7332.52" cy="572.96" r="0.32"/>
		<circle cx="7335.53" cy="559.44" r="0.35"/>
		<circle cx="7340.87" cy="564.4" r="0.37"/>
		<circle cx="7333.65" cy="561.29" r="0.15"/>
		<circle cx="7322.82" cy="569.52" r="0.17"/>
		<circle cx="7337.34" cy="558.02" r="0.2"/>
		<circle cx="7329.24" cy="569.4" r="0.22"/>
		<circle cx="7341.49" cy="560.51" r="0.25"/>
		<circle cx="7337.71" cy="564.7" r="0.27"/>
		<circle cx="7323.51" cy="572.79" r="0.3"/>
		<circle cx="7327.6" cy="568.86" r="0.32"/>
		<circle cx="7327.37" cy="576.39" r="0.35"/>
		<circle cx="7332.3" cy="570.48" r="0.37"/>
		<circle cx="7342.45" cy="561.75" r="0.15"/>
		<circle cx="7326.52" cy="565.57" r="0.17"/>
		<circle cx="7325.32" cy="574.08" r="0.2"/>
		<circle cx="7338.34" cy="560.31" r="0.22"/>
		<circle cx="7331.84" cy="574.71" r="0.25"/>
		<circle cx="7335.91" cy="564.61" r="0.27"/>
		<circle cx="7327.82" cy="572.19" r="0.3"/>
		<circle cx="7343.22" cy="557.81" r="0.32"/>
		<circle cx="7345.67" cy="558.18" r="0.35"/>
		<circle cx="7345.12" cy="561.11" r="0.37"/>
		<circle cx="7334.4" cy="572.62" r="0.15"/>
		<circle cx="7336.93" cy="556.84" r="0.17"/>
		<circle cx="7329.75" cy="565.61" r="0.2"/>
		<circle cx="7339.27" cy="563.52" r="0.22"/>
		<circle cx="7325.91" cy="568.72" r="0.25"/>
		<circle cx="7339.98" cy="558.71" r="0.27"/>
		<circle cx="7338.43" cy="568.28" r="0.3"/>
		<circle cx="7330.48" cy="572.61" r="0.32"/>
		<circle cx="7334.15" cy="570.36" r="0.35"/>
		<circle cx="7346.6" cy="559.84" r="0.37"/>
		<circle cx="7334.07" cy="566.25" r="0.15"/>
		<circle cx="7330" cy="567.88" r="0.17"/>
		<circle cx="7343.46" cy="560.76" r="0.2"/>
		<circle cx="7327.57" cy="566.39" r="0.22"/>
		<circle cx="7327.02" cy="570.62" r="0.25"/>
		<circle cx="7331.49" cy="566.57" r="0.27"/>
		<circle cx="7323.45" cy="571.24" r="0.3"/>
		<circle cx="7342.7" cy="559.49" r="0.35"/>
		<circle cx="7331.27" cy="568.85" r="0.37"/>
		<circle cx="7337.05" cy="569.05" r="0.15"/>
		<circle cx="7335.66" cy="570.9" r="0.17"/>
		<circle cx="7336.95" cy="567.94" r="0.2"/>
		<circle cx="7335.03" cy="563.2" r="0.22"/>
		<circle cx="7344.96" cy="557.45" r="0.25"/>
		<circle cx="7334.07" cy="564.74" r="0.27"/>
		<circle cx="7329.16" cy="563.99" r="0.3"/>
		<circle cx="7333.35" cy="568.79" r="0.32"/>
		<circle cx="7326.52" cy="572.28" r="0.35"/>
		<circle cx="7334.65" cy="568.36" r="0.37"/>
		<circle cx="7344.95" cy="559.58" r="0.15"/>
		<circle cx="7327.82" cy="564.64" r="0.18"/>
		<circle cx="7333.56" cy="563.72" r="0.15"/>
		<circle cx="7334.45" cy="562.18" r="0.15"/>
		<circle cx="7334.75" cy="560.35" r="0.15"/>
		<circle cx="7334.73" cy="560.39" r="0.17"/>
		<circle cx="7334.8" cy="560.41" r="0.2"/>
		<g>
			<path d="M7334.57,560.17l1.27,0.44l-0.86,0.84L7334.57,560.17z"/>
			<circle cx="7335" cy="560.58" r="0.15"/>
			<circle cx="7335.01" cy="560.58" r="0.17"/>
			<circle cx="7335.03" cy="560.61" r="0.2"/>
			<circle cx="7334.99" cy="560.6" r="0.15"/>
		</g>
	</g>
</g>
<g opacity="0.75">
	<g>
		<g>
			<path d="M7044.93,585.33l0.14-0.1c1.89-1.35,3.16-3.39,3.54-5.68l0.47-2.84l0.96,0.16l2.43-1.74l-1.2-1.68l-0.58-0.81l-1.2-1.68
				l-2.43,1.74l-0.16,0.96l-2.84-0.47c-2.29-0.38-4.63,0.16-6.52,1.51l-0.13,0.09c-1.34,0.96-2.54,2.17-3.21,3.68
				c-0.09,0.2-0.24,0.39-0.43,0.53l-0.75,0.54c-0.2,0.14-0.42,0.22-0.64,0.24c-1.64,0.15-3.17,0.89-4.51,1.84l-8.9,6.37
				c-1.1,0.79-1.85,1.98-2.07,3.32l0,0c-0.02,0.09,0.01,0.19,0.06,0.27l2.45,3.43l0.58,0.81l2.46,3.43
				c0.05,0.08,0.14,0.13,0.24,0.15l0,0c1.34,0.22,2.71-0.1,3.82-0.89l8.89-6.36c1.34-0.96,2.54-2.17,3.22-3.68
				c0.09-0.2,0.24-0.39,0.43-0.53l0.75-0.53c0.2-0.14,0.42-0.22,0.64-0.24C7042.05,587.02,7043.59,586.28,7044.93,585.33z"/>
			<polygon points="7052.47,575.13 7051.27,573.45 7050.69,572.63 7049.48,570.95 7047.11,572.65 7050.1,576.82 			"/>
		</g>
		<circle cx="7019.09" cy="591.91" r="0.15"/>
		<circle cx="7024.65" cy="593.24" r="0.17"/>
		<circle cx="7020.53" cy="589.25" r="0.2"/>
		<circle cx="7026.19" cy="593.02" r="0.22"/>
		<circle cx="7043.31" cy="579.97" r="0.25"/>
		<circle cx="7031.78" cy="588.84" r="0.27"/>
		<circle cx="7037.11" cy="584.31" r="0.3"/>
		<circle cx="7034.31" cy="587.43" r="0.32"/>
		<circle cx="7027.32" cy="593.86" r="0.35"/>
		<circle cx="7019.76" cy="590.05" r="0.37"/>
		<circle cx="7036.37" cy="586.53" r="0.15"/>
		<circle cx="7029.06" cy="594.62" r="0.18"/>
		<circle cx="7027.71" cy="588.85" r="0.2"/>
		<circle cx="7026.96" cy="585.98" r="0.23"/>
		<circle cx="7025.56" cy="593.33" r="0.25"/>
		<circle cx="7032.35" cy="591.23" r="0.27"/>
		<circle cx="7033.27" cy="583.93" r="0.3"/>
		<circle cx="7031.61" cy="591.62" r="0.32"/>
		<circle cx="7037.76" cy="585.89" r="0.35"/>
		<circle cx="7029.92" cy="587.69" r="0.37"/>
		<circle cx="7030.94" cy="581.23" r="0.15"/>
		<circle cx="7031.99" cy="589.36" r="0.18"/>
		<circle cx="7021.82" cy="588" r="0.2"/>
		<circle cx="7028.4" cy="583.32" r="0.22"/>
		<circle cx="7027.34" cy="589.96" r="0.25"/>
		<circle cx="7029.36" cy="582.54" r="0.27"/>
		<circle cx="7033.31" cy="582.14" r="0.3"/>
		<circle cx="7030.66" cy="585.24" r="0.32"/>
		<circle cx="7023.24" cy="597.09" r="0.35"/>
		<circle cx="7036.36" cy="586.76" r="0.37"/>
		<circle cx="7032.82" cy="584.94" r="0.15"/>
		<circle cx="7025.64" cy="586.72" r="0.17"/>
		<circle cx="7024.46" cy="593.68" r="0.2"/>
		<circle cx="7027.04" cy="592.09" r="0.22"/>
		<circle cx="7034.34" cy="582.61" r="0.25"/>
		<circle cx="7027.84" cy="585.56" r="0.27"/>
		<circle cx="7021.87" cy="592.69" r="0.3"/>
		<circle cx="7029.45" cy="591.69" r="0.32"/>
		<circle cx="7028.03" cy="590.44" r="0.35"/>
		<circle cx="7034.94" cy="585.75" r="0.37"/>
		<circle cx="7035.08" cy="579.66" r="0.15"/>
		<circle cx="7032.94" cy="583.26" r="0.17"/>
		<circle cx="7030.29" cy="586.58" r="0.2"/>
		<circle cx="7032.03" cy="583.17" r="0.22"/>
		<circle cx="7035.37" cy="581.7" r="0.25"/>
		<circle cx="7035.76" cy="583.85" r="0.27"/>
		<circle cx="7029.27" cy="591.21" r="0.3"/>
		<circle cx="7034.02" cy="587.49" r="0.32"/>
		<circle cx="7021.76" cy="591.62" r="0.35"/>
		<circle cx="7041.94" cy="583.2" r="0.37"/>
		<circle cx="7025.07" cy="585.17" r="0.15"/>
		<circle cx="7023.71" cy="590.12" r="0.17"/>
		<circle cx="7036.71" cy="583.99" r="0.2"/>
		<circle cx="7025.42" cy="586.65" r="0.23"/>
		<circle cx="7024.1" cy="592.27" r="0.25"/>
		<circle cx="7023.09" cy="596.21" r="0.27"/>
		<circle cx="7036.06" cy="588.2" r="0.3"/>
		<circle cx="7030.31" cy="589.61" r="0.32"/>
		<circle cx="7033.97" cy="591.13" r="0.35"/>
		<circle cx="7040.31" cy="579.71" r="0.37"/>
		<circle cx="7022.91" cy="589.48" r="0.15"/>
		<circle cx="7023.87" cy="594.26" r="0.17"/>
		<circle cx="7041.21" cy="585.07" r="0.2"/>
		<circle cx="7033.21" cy="580.85" r="0.22"/>
		<circle cx="7041.57" cy="581.43" r="0.25"/>
		<circle cx="7028.77" cy="589.14" r="0.27"/>
		<circle cx="7023.6" cy="590.88" r="0.3"/>
		<circle cx="7027.22" cy="591.88" r="0.32"/>
		<circle cx="7024.58" cy="591.53" r="0.35"/>
		<circle cx="7031.42" cy="582.38" r="0.37"/>
		<circle cx="7029.16" cy="584.82" r="0.15"/>
		<path d="M7023.01,593.88l0.6,0.3l-0.48,0.35L7023.01,593.88z"/>
		<path d="M7024.87,589.07l0.36,0.69l-0.7,0.01L7024.87,589.07z"/>
		<path d="M7029.03,592.31l0.88,0.16l-0.48,0.64L7029.03,592.31z"/>
		<path d="M7035.32,583.26l0.49,0.88l-0.9,0.04L7035.32,583.26z"/>
		<path d="M7032.58,586.73l1.1-0.16l-0.31,0.95L7032.58,586.73z"/>
		<circle cx="7025.98" cy="591.12" r="0.15"/>
		<circle cx="7025.9" cy="591.48" r="0.17"/>
		<circle cx="7023.25" cy="588.1" r="0.2"/>
		<circle cx="7027.13" cy="587.37" r="0.22"/>
		<circle cx="7022.97" cy="586.76" r="0.25"/>
		<circle cx="7027.65" cy="593.13" r="0.27"/>
		<circle cx="7029.83" cy="582.5" r="0.3"/>
		<circle cx="7020" cy="593.61" r="0.32"/>
		<circle cx="7031.69" cy="592.82" r="0.35"/>
		<circle cx="7033.32" cy="588.85" r="0.37"/>
		<circle cx="7042.88" cy="584.47" r="0.15"/>
		<circle cx="7026.78" cy="591.06" r="0.17"/>
		<circle cx="7031.25" cy="583.97" r="0.2"/>
		<circle cx="7026.71" cy="584.26" r="0.22"/>
		<circle cx="7027.13" cy="587.14" r="0.25"/>
		<circle cx="7028.61" cy="585.45" r="0.27"/>
		<circle cx="7021.96" cy="595.59" r="0.3"/>
		<circle cx="7023.86" cy="596.79" r="0.32"/>
		<circle cx="7032.46" cy="585.37" r="0.35"/>
		<circle cx="7043.84" cy="581.95" r="0.37"/>
		<circle cx="7033.61" cy="588.1" r="0.15"/>
		<circle cx="7028.44" cy="582.91" r="0.17"/>
		<circle cx="7032" cy="587.3" r="0.2"/>
		<circle cx="7021.45" cy="589.11" r="0.23"/>
		<circle cx="7034.7" cy="582.65" r="0.25"/>
		<circle cx="7039.56" cy="585.35" r="0.28"/>
		<circle cx="7026.19" cy="596.73" r="0.3"/>
		<circle cx="7036.13" cy="580.43" r="0.32"/>
		<circle cx="7045.75" cy="579.87" r="0.35"/>
		<circle cx="7028.04" cy="588.84" r="0.37"/>
		<circle cx="7031.64" cy="581.02" r="0.15"/>
		<circle cx="7033.92" cy="585.97" r="0.17"/>
		<circle cx="7041.46" cy="578.3" r="0.2"/>
		<circle cx="7021.83" cy="593.33" r="0.22"/>
		<circle cx="7031.28" cy="586.54" r="0.25"/>
		<circle cx="7034.88" cy="589.32" r="0.27"/>
		<circle cx="7026.94" cy="590.11" r="0.3"/>
		<circle cx="7030.74" cy="590.66" r="0.32"/>
		<circle cx="7025.05" cy="593.09" r="0.35"/>
		<circle cx="7039.92" cy="583.34" r="0.37"/>
		<circle cx="7033.83" cy="581" r="0.15"/>
		<circle cx="7036.91" cy="581.49" r="0.17"/>
		<circle cx="7029.16" cy="585.73" r="0.2"/>
		<circle cx="7036.23" cy="584.04" r="0.22"/>
		<circle cx="7034.05" cy="580.61" r="0.25"/>
		<circle cx="7039.62" cy="581.33" r="0.27"/>
		<circle cx="7020.93" cy="590.95" r="0.3"/>
		<circle cx="7024.6" cy="588.55" r="0.32"/>
		<circle cx="7037.95" cy="580.66" r="0.35"/>
		<circle cx="7020.59" cy="592.11" r="0.37"/>
		<circle cx="7024.93" cy="596.16" r="0.15"/>
		<circle cx="7026.85" cy="585.37" r="0.17"/>
		<circle cx="7029.12" cy="592.16" r="0.2"/>
		<circle cx="7029.79" cy="583.82" r="0.22"/>
		<circle cx="7034.04" cy="582.91" r="0.25"/>
		<circle cx="7032.99" cy="587.03" r="0.27"/>
		<circle cx="7024.89" cy="597.81" r="0.3"/>
		<circle cx="7028.32" cy="591.53" r="0.32"/>
		<circle cx="7019.31" cy="591.29" r="0.35"/>
		<circle cx="7025.77" cy="589.15" r="0.37"/>
		<circle cx="7024.06" cy="587.12" r="0.15"/>
		<circle cx="7038.19" cy="582.25" r="0.17"/>
		<circle cx="7037.64" cy="583.41" r="0.2"/>
		<circle cx="7027.33" cy="591.11" r="0.22"/>
		<circle cx="7025.33" cy="595.09" r="0.25"/>
		<circle cx="7025.23" cy="594.49" r="0.27"/>
		<circle cx="7029.55" cy="593.44" r="0.3"/>
		<circle cx="7020.29" cy="593.78" r="0.32"/>
		<circle cx="7027.59" cy="595.33" r="0.35"/>
		<circle cx="7022.42" cy="592.05" r="0.37"/>
		<circle cx="7036.99" cy="586.68" r="0.15"/>
		<circle cx="7021.81" cy="590.53" r="0.17"/>
		<circle cx="7028.78" cy="587.31" r="0.15"/>
		<circle cx="7028.37" cy="588.14" r="0.17"/>
		<circle cx="7031.71" cy="588.05" r="0.15"/>
		<circle cx="7038.09" cy="584.25" r="0.17"/>
		<circle cx="7038.03" cy="579.59" r="0.2"/>
		<circle cx="7036.61" cy="582.47" r="0.22"/>
	</g>
</g>
<g opacity="0.75">
	<path d="M7904.04,557.68l0.12-0.05c1.58-0.72,2.81-2.03,3.41-3.66l0.76-2.02l0.68,0.26l2.03-0.93l-0.64-1.41l-0.31-0.68l-0.64-1.41
		l-2.03,0.93l-0.26,0.68l-2.02-0.76c-1.62-0.61-3.42-0.55-5,0.17l-0.11,0.05c-1.12,0.51-2.18,1.23-2.89,2.24
		c-0.1,0.14-0.23,0.25-0.39,0.32l-0.63,0.28c-0.16,0.07-0.34,0.1-0.5,0.08c-1.22-0.13-2.45,0.19-3.57,0.7l-7.45,3.39
		c-0.92,0.42-1.64,1.19-2,2.14v0c-0.03,0.07-0.02,0.14,0.01,0.21l1.31,2.87l0.31,0.68l1.31,2.87c0.03,0.07,0.08,0.12,0.15,0.14l0,0
		c0.95,0.36,2,0.32,2.93-0.1l7.44-3.38c1.12-0.51,2.18-1.23,2.89-2.24c0.1-0.14,0.23-0.25,0.39-0.32l0.63-0.28
		c0.16-0.07,0.34-0.1,0.5-0.08C7901.69,558.51,7902.92,558.19,7904.04,557.68z"/>
	<polygon points="7911.04,551.28 7910.4,549.88 7910.09,549.2 7909.45,547.79 7907.47,548.69 7909.06,552.18 	"/>
</g>
<g opacity="0.75">
	<path d="M7201.06,558.47l0.16-0.01c2.14-0.11,4.16-1.07,5.59-2.66l1.79-1.98l0.67,0.6l2.76-0.14l-0.1-1.91l-0.05-0.92l-0.1-1.91
		l-2.76,0.14l-0.6,0.67l-1.98-1.79c-1.59-1.44-3.69-2.18-5.84-2.07l-0.15,0.01c-1.53,0.08-3.07,0.43-4.34,1.27
		c-0.17,0.11-0.38,0.18-0.6,0.2l-0.85,0.04c-0.22,0.01-0.43-0.04-0.62-0.13c-1.35-0.7-2.92-0.89-4.44-0.81l-10.12,0.52
		c-1.25,0.06-2.43,0.63-3.27,1.56v0c-0.06,0.07-0.09,0.15-0.09,0.24l0.2,3.9l0.05,0.92l0.2,3.9c0,0.09,0.04,0.17,0.11,0.23l0,0
		c0.93,0.84,2.16,1.28,3.42,1.21l10.11-0.52c1.53-0.08,3.07-0.43,4.34-1.27c0.17-0.11,0.38-0.18,0.6-0.2l0.85-0.04
		c0.22-0.01,0.43,0.04,0.62,0.13C7197.97,558.36,7199.53,558.55,7201.06,558.47z"/>
	<polygon points="7212.03,554.29 7211.93,552.37 7211.88,551.45 7211.78,549.54 7209.09,549.68 7209.34,554.43 	"/>
</g>
<g opacity="0.75">
	<path d="M7466.07,541.13l0.09-0.15c1.23-1.97,1.62-4.35,1.09-6.62l-0.66-2.81l0.95-0.22l1.58-2.54l-1.76-1.09l-0.85-0.53
		l-1.76-1.09l-1.58,2.54l0.22,0.95l-2.81,0.66c-2.26,0.53-4.22,1.93-5.45,3.91l-0.09,0.14c-0.87,1.41-1.51,2.99-1.56,4.64
		c-0.01,0.22-0.07,0.45-0.2,0.65l-0.49,0.78c-0.13,0.2-0.3,0.36-0.5,0.47c-1.46,0.77-2.59,2.04-3.47,3.44l-5.79,9.32
		c-0.72,1.16-0.95,2.55-0.64,3.87v0c0.02,0.09,0.08,0.18,0.16,0.23l3.59,2.23l0.85,0.53l3.59,2.23c0.08,0.05,0.18,0.07,0.27,0.05
		l0,0c1.33-0.31,2.47-1.13,3.19-2.29l5.78-9.31c0.87-1.41,1.51-2.99,1.56-4.64c0.01-0.22,0.07-0.45,0.2-0.65l0.49-0.78
		c0.13-0.2,0.3-0.36,0.5-0.47C7464.07,543.81,7465.2,542.54,7466.07,541.13z"/>
	<polygon points="7469.13,528.79 7467.37,527.7 7466.52,527.17 7464.76,526.08 7463.22,528.56 7467.59,531.27 	"/>
</g>
<circle opacity="0.75" cx="7190.38" cy="552.95" r="0.3"/>
<circle opacity="0.75" cx="7187.64" cy="553.91" r="0.35"/>
<circle opacity="0.75" cx="7187.99" cy="556.06" r="0.4"/>
<path opacity="0.75" d="M7184.29,554.78l-0.38,1.29l-0.88-0.82L7184.29,554.78z"/>
<circle opacity="0.75" cx="7185.07" cy="551.99" r="0.3"/>
<circle opacity="0.75" cx="7179.21" cy="551.49" r="0.35"/>
<circle opacity="0.75" cx="7181.87" cy="553.17" r="0.4"/>
<circle opacity="0.75" cx="7180.41" cy="557.27" r="0.45"/>
<circle opacity="0.75" cx="7186.59" cy="549.84" r="0.3"/>
<circle opacity="0.75" cx="7180.71" cy="553.91" r="0.3"/>
<g opacity="0.75">
	<path d="M8049.24,582.69l0.12-0.04c1.66-0.6,3.01-1.83,3.76-3.42l0.93-1.98l0.67,0.32l2.14-0.77l-0.53-1.48l-0.26-0.71l-0.53-1.48
		l-2.14,0.77l-0.32,0.67l-1.98-0.93c-1.59-0.75-3.42-0.84-5.08-0.24l-0.12,0.04c-1.18,0.42-2.31,1.06-3.11,2.03
		c-0.11,0.13-0.25,0.23-0.42,0.3l-0.66,0.24c-0.17,0.06-0.35,0.07-0.52,0.04c-1.23-0.23-2.5-0.01-3.68,0.42l-7.83,2.82
		c-0.97,0.35-1.76,1.07-2.2,2v0c-0.03,0.07-0.03,0.14-0.01,0.21l1.09,3.02l0.26,0.71l1.09,3.02c0.02,0.07,0.08,0.13,0.14,0.16l0,0
		c0.93,0.44,2,0.49,2.98,0.14l7.82-2.81c1.18-0.42,2.31-1.07,3.11-2.03c0.11-0.13,0.25-0.23,0.42-0.3l0.66-0.24
		c0.17-0.06,0.35-0.07,0.52-0.04C8046.79,583.33,8048.06,583.11,8049.24,582.69z"/>
	<polygon points="8056.87,576.79 8056.34,575.31 8056.08,574.59 8055.55,573.11 8053.47,573.86 8054.79,577.53 	"/>
</g>
<g opacity="0.75">
	<path d="M7664.46,462.82l0.17-0.13c2.35-1.77,3.9-4.39,4.31-7.3l0.51-3.62l1.22,0.17l3.03-2.28l-1.58-2.09l-0.76-1.01l-1.58-2.09
		l-3.03,2.28l-0.17,1.22l-3.62-0.51c-2.91-0.41-5.86,0.35-8.21,2.12l-0.17,0.12c-1.67,1.26-3.15,2.83-3.96,4.76
		c-0.11,0.26-0.29,0.5-0.53,0.68l-0.93,0.7c-0.24,0.18-0.52,0.29-0.8,0.32c-2.07,0.24-3.99,1.22-5.66,2.48l-11.09,8.34
		c-1.37,1.03-2.28,2.57-2.52,4.28l0,0c-0.02,0.12,0.01,0.24,0.09,0.34l3.22,4.27l0.76,1.01l3.22,4.27c0.07,0.1,0.18,0.16,0.3,0.18
		l0,0c1.7,0.24,3.43-0.21,4.81-1.24l11.07-8.33c1.67-1.26,3.15-2.83,3.96-4.76c0.11-0.26,0.29-0.5,0.53-0.68l0.93-0.7
		c0.24-0.18,0.52-0.29,0.8-0.32C7660.88,465.06,7662.8,464.07,7664.46,462.82z"/>
	<polygon points="7673.71,449.67 7672.13,447.57 7671.37,446.56 7669.79,444.47 7666.85,446.69 7670.76,451.88 	"/>
</g>
<circle opacity="0.75" cx="7652.27" cy="459.96" r="0.15"/>
<circle opacity="0.75" cx="7646.72" cy="462.97" r="0.18"/>
<circle opacity="0.75" cx="7646.37" cy="467.57" r="0.2"/>
<circle opacity="0.75" cx="7634.21" cy="473" r="0.23"/>
<circle opacity="0.75" cx="7657.48" cy="460.99" r="0.25"/>
<circle opacity="0.75" cx="7655.75" cy="460.85" r="0.28"/>
<circle opacity="0.75" cx="7647.06" cy="464.94" r="0.3"/>
<circle opacity="0.75" cx="7638.38" cy="474.69" r="0.33"/>
<circle opacity="0.75" cx="7633.17" cy="472.88" r="0.35"/>
<circle opacity="0.75" cx="7636.65" cy="475.07" r="0.38"/>
<circle opacity="0.75" cx="7642.55" cy="464.37" r="0.15"/>
<circle opacity="0.75" cx="7635.26" cy="469.7" r="0.18"/>
<circle opacity="0.75" cx="7643.94" cy="464.14" r="0.2"/>
<circle opacity="0.75" cx="7650.88" cy="461.3" r="0.23"/>
<circle opacity="0.75" cx="7642.2" cy="466.33" r="0.25"/>
<circle opacity="0.75" cx="7652.62" cy="467.17" r="0.28"/>
<circle opacity="0.75" cx="7637.69" cy="476.76" r="0.3"/>
<circle opacity="0.75" cx="7650.19" cy="466.39" r="0.33"/>
<circle opacity="0.75" cx="7658.18" cy="463.05" r="0.35"/>
<circle opacity="0.75" cx="7646.02" cy="472.2" r="0.38"/>
<circle opacity="0.75" cx="7642.9" cy="467.3" r="0.15"/>
<circle opacity="0.75" cx="7648.45" cy="460.73" r="0.18"/>
<circle opacity="0.75" cx="7638.03" cy="473.15" r="0.2"/>
<circle opacity="0.75" cx="7644.68" cy="465.84" r="0.23"/>
<circle opacity="0.75" cx="7636.3" cy="473.74" r="0.25"/>
<circle opacity="0.75" cx="7645.33" cy="468.87" r="0.28"/>
<circle opacity="0.75" cx="7634.91" cy="474.91" r="0.3"/>
<circle opacity="0.75" cx="7641.51" cy="473.38" r="0.33"/>
<circle opacity="0.75" cx="7644.63" cy="473.96" r="0.35"/>
<circle opacity="0.75" cx="7644.63" cy="461.08" r="0.38"/>
<circle opacity="0.75" cx="7652.97" cy="459.38" r="0.15"/>
<circle opacity="0.75" cx="7640.47" cy="467.27" r="0.18"/>
<circle opacity="0.75" cx="7633.52" cy="471.05" r="0.2"/>
<circle opacity="0.75" cx="7647.76" cy="463.98" r="0.23"/>
<circle opacity="0.75" cx="7647.41" cy="458.65" r="0.25"/>
<path opacity="0.75" d="M7634.23,476.32l0.67-0.03l-0.25,0.55L7634.23,476.32z"/>
<path opacity="0.75" d="M7633.99,468.42l0.22,0.75l-0.69-0.12L7633.99,468.42z"/>
<path opacity="0.75" d="M7641.05,468.53l0.15,0.88l-0.77-0.23L7641.05,468.53z"/>
<path opacity="0.75" d="M7648.94,465.29l0.64,0.78l-0.88,0.2L7648.94,465.29z"/>
<circle opacity="0.75" cx="7639.08" cy="464.68" r="0.15"/>
<circle opacity="0.75" cx="7641.85" cy="464.97" r="0.18"/>
<circle opacity="0.75" cx="7644.29" cy="469.63" r="0.2"/>
<circle opacity="0.75" cx="7652.57" cy="456.18" r="0.23"/>
<circle opacity="0.75" cx="7637.34" cy="473.48" r="0.25"/>
<circle opacity="0.75" cx="7643.59" cy="468.92" r="0.28"/>
<circle opacity="0.75" cx="7650.54" cy="463.51" r="0.3"/>
<circle opacity="0.75" cx="7647.41" cy="470.4" r="0.33"/>
<circle opacity="0.75" cx="7642.69" cy="476.57" r="0.35"/>
<circle opacity="0.75" cx="7648.45" cy="472.55" r="0.38"/>
<circle opacity="0.75" cx="7654.36" cy="462.09" r="0.15"/>
<circle opacity="0.75" cx="7655.4" cy="459.1" r="0.18"/>
<circle opacity="0.75" cx="7653.31" cy="458.14" r="0.2"/>
<circle opacity="0.75" cx="7636.99" cy="471.36" r="0.23"/>
<circle opacity="0.75" cx="7635.6" cy="469.41" r="0.25"/>
<circle opacity="0.75" cx="7638.73" cy="471.1" r="0.28"/>
<circle opacity="0.75" cx="7639.47" cy="478.95" r="0.3"/>
<circle opacity="0.75" cx="7640.12" cy="471.06" r="0.33"/>
<circle opacity="0.75" cx="7651.23" cy="469.86" r="0.35"/>
<circle opacity="0.75" cx="7648.1" cy="468.29" r="0.38"/>
<circle opacity="0.75" cx="7645.67" cy="463.18" r="0.15"/>
<circle opacity="0.75" cx="7656.79" cy="458.65" r="0.18"/>
<circle opacity="0.75" cx="7639.42" cy="462.93" r="0.2"/>
<circle opacity="0.75" cx="7651.58" cy="459.44" r="0.23"/>
<circle opacity="0.75" cx="7653.66" cy="462.58" r="0.25"/>
<circle opacity="0.75" cx="7643.24" cy="470.88" r="0.28"/>
<circle opacity="0.75" cx="7644.98" cy="474.62" r="0.3"/>
<circle opacity="0.75" cx="7635.95" cy="477.69" r="0.33"/>
<circle opacity="0.75" cx="7636.3" cy="466.83" r="0.35"/>
<circle opacity="0.75" cx="7654.01" cy="465.17" r="0.38"/>
<circle opacity="0.75" cx="7654.7" cy="459.89" r="0.15"/>
<circle opacity="0.75" cx="7648.8" cy="463.1" r="0.18"/>
<circle opacity="0.75" cx="7637.83" cy="466.9" r="0.2"/>
<circle opacity="0.75" cx="7649.84" cy="463.52" r="0.23"/>
<circle opacity="0.75" cx="7658.52" cy="460.19" r="0.25"/>
<circle opacity="0.75" cx="7656.09" cy="465.56" r="0.28"/>
<circle opacity="0.75" cx="7656.44" cy="457.46" r="0.15"/>
<circle opacity="0.75" cx="8036.72" cy="583.1" r="0.15"/>
<path opacity="0.75" d="M8032.56,584.09l0.67,0.09l-0.34,0.5L8032.56,584.09z"/>
<circle opacity="0.75" cx="8034.18" cy="581.99" r="0.15"/>
<circle opacity="0.75" cx="8030.93" cy="582.21" r="0.15"/>
<g opacity="0.75">
	<path d="M7842.84,484.43l0.11-0.07c1.43-0.98,2.42-2.5,2.73-4.21l0.39-2.12l0.72,0.13l1.85-1.27l-0.88-1.28l-0.42-0.62l-0.88-1.28
		l-1.85,1.27l-0.13,0.72l-2.12-0.39c-1.71-0.32-3.47,0.06-4.91,1.04l-0.1,0.07c-1.02,0.7-1.93,1.59-2.46,2.71
		c-0.07,0.15-0.18,0.29-0.33,0.39l-0.57,0.39c-0.15,0.1-0.31,0.16-0.48,0.17c-1.23,0.09-2.39,0.62-3.41,1.32l-6.76,4.65
		c-0.84,0.58-1.41,1.46-1.6,2.46l0,0c-0.01,0.07,0,0.14,0.04,0.2l1.79,2.61l0.42,0.62l1.79,2.61c0.04,0.06,0.1,0.1,0.17,0.11l0,0
		c1,0.19,2.03-0.03,2.87-0.61l6.76-4.64c1.02-0.7,1.93-1.59,2.46-2.72c0.07-0.15,0.18-0.29,0.33-0.39l0.57-0.39
		c0.15-0.1,0.31-0.16,0.48-0.17C7840.66,485.66,7841.82,485.13,7842.84,484.43z"/>
	<polygon points="7848.63,476.89 7847.76,475.61 7847.33,475 7846.45,473.72 7844.66,474.95 7846.84,478.13 	"/>
</g>
<path opacity="0.75" d="M7827.15,489.87l0.33,0.58l-0.6,0.03L7827.15,489.87z"/>
<circle opacity="0.75" cx="7833.21" cy="484.57" r="0.15"/>
<circle opacity="0.75" cx="7831.95" cy="487.29" r="0.18"/>
<circle opacity="0.75" cx="7831.54" cy="484.89" r="0.2"/>
<circle opacity="0.75" cx="7831.3" cy="489.58" r="0.23"/>
<circle opacity="0.75" cx="7824.89" cy="491.02" r="0.25"/>
<circle opacity="0.75" cx="7828.62" cy="492.8" r="0.28"/>
<circle opacity="0.75" cx="7829.79" cy="486.42" r="0.15"/>
<circle opacity="0.75" cx="7835.34" cy="485.96" r="0.18"/>
<circle opacity="0.75" cx="7827.78" cy="486.35" r="0.2"/>
<circle opacity="0.75" cx="7825.12" cy="486.82" r="0.23"/>
<circle opacity="0.75" cx="7829.12" cy="489.49" r="0.25"/>
<circle opacity="0.75" cx="7823.94" cy="489.68" r="0.28"/>
<circle opacity="0.75" cx="7825.78" cy="489.04" r="0.3"/>
<circle opacity="0.75" cx="7826.95" cy="492.08" r="0.15"/>
<circle opacity="0.75" cx="7833.3" cy="483.36" r="0.15"/>
<g opacity="0.75">
	<path d="M7974.03,446.69l-0.12-0.08c-1.6-1.09-3.56-1.49-5.46-1.13l-2.36,0.45l-0.15-0.8l-2.06-1.4l-0.97,1.42l-0.47,0.69
		l-0.97,1.42l2.06,1.4l0.8-0.15l0.45,2.36c0.36,1.9,1.46,3.57,3.06,4.66l0.11,0.08c1.14,0.77,2.43,1.36,3.8,1.45
		c0.19,0.01,0.37,0.07,0.54,0.19l0.63,0.43c0.17,0.11,0.29,0.26,0.37,0.43c0.59,1.24,1.6,2.22,2.74,3l7.54,5.13
		c0.94,0.64,2.08,0.87,3.19,0.66l0,0c0.08-0.02,0.15-0.06,0.19-0.13l1.98-2.91l0.47-0.69l1.98-2.91c0.04-0.07,0.06-0.15,0.05-0.23
		l0,0c-0.21-1.11-0.86-2.09-1.79-2.73l-7.53-5.12c-1.14-0.77-2.43-1.36-3.8-1.45c-0.19-0.01-0.37-0.07-0.54-0.19l-0.63-0.43
		c-0.17-0.11-0.29-0.26-0.37-0.43C7976.18,448.45,7975.16,447.46,7974.03,446.69z"/>
	<polygon points="7963.88,443.72 7962.91,445.15 7962.45,445.84 7961.48,447.26 7963.48,448.62 7965.89,445.09 	"/>
</g>
<path opacity="0.75" d="M7455.16,543.32l0.67,0.05l-0.31,0.51L7455.16,543.32z"/>
<path opacity="0.75" d="M7448,551.39l0.4,0.67l-0.7,0.05L7448,551.39z"/>
<circle opacity="0.75" cx="7452.44" cy="545.42" r="0.15"/>
<circle opacity="0.75" cx="7454.74" cy="551.54" r="0.18"/>
<circle opacity="0.75" cx="7454.24" cy="553.61" r="0.2"/>
<circle opacity="0.75" cx="7461.16" cy="541.89" r="0.23"/>
<circle opacity="0.75" cx="7456.39" cy="540.37" r="0.25"/>
<circle opacity="0.75" cx="7457.35" cy="543.99" r="0.28"/>
<circle opacity="0.75" cx="7457.58" cy="543.11" r="0.3"/>
<circle opacity="0.75" cx="7449.22" cy="558.71" r="0.33"/>
<circle opacity="0.75" cx="7460.96" cy="543.46" r="0.35"/>
<circle opacity="0.75" cx="7451.41" cy="560.04" r="0.38"/>
<circle opacity="0.75" cx="7455.96" cy="551.26" r="0.15"/>
<circle opacity="0.75" cx="7456.66" cy="550.34" r="0.18"/>
<circle opacity="0.75" cx="7456.93" cy="541.71" r="0.2"/>
<circle opacity="0.75" cx="7450.87" cy="546.03" r="0.23"/>
<circle opacity="0.75" cx="7459.48" cy="543.93" r="0.25"/>
<circle opacity="0.75" cx="7454.72" cy="549.84" r="0.28"/>
<circle opacity="0.75" cx="7453.67" cy="556.55" r="0.3"/>
<circle opacity="0.75" cx="7456.95" cy="539.69" r="0.33"/>
<circle opacity="0.75" cx="7465.02" cy="536.53" r="0.35"/>
<circle opacity="0.75" cx="7459.06" cy="541.64" r="0.38"/>
<circle opacity="0.75" cx="7456.48" cy="546.17" r="0.15"/>
<circle opacity="0.75" cx="7456.54" cy="547.56" r="0.18"/>
<circle opacity="0.75" cx="7460.02" cy="545.27" r="0.2"/>
<circle opacity="0.75" cx="7452.4" cy="545.74" r="0.23"/>
<circle opacity="0.75" cx="7456.91" cy="540" r="0.25"/>
<circle opacity="0.75" cx="7459.14" cy="545.74" r="0.28"/>
<circle opacity="0.75" cx="7451.66" cy="550.7" r="0.3"/>
<circle opacity="0.75" cx="7454.48" cy="551.72" r="0.33"/>
<circle opacity="0.75" cx="7451.84" cy="551.14" r="0.35"/>
<circle opacity="0.75" cx="7453.2" cy="547.64" r="0.38"/>
<circle opacity="0.75" cx="7454.04" cy="544.02" r="0.15"/>
<circle opacity="0.75" cx="7450.38" cy="553.31" r="0.18"/>
<circle opacity="0.75" cx="7453.96" cy="549.78" r="0.2"/>
<circle opacity="0.75" cx="7451.92" cy="549.51" r="0.23"/>
<circle opacity="0.75" cx="7449.2" cy="553.27" r="0.25"/>
<circle opacity="0.75" cx="7456.01" cy="548.93" r="0.28"/>
<circle opacity="0.75" cx="7455.38" cy="553.96" r="0.3"/>
<circle opacity="0.75" cx="7449.6" cy="548.63" r="0.33"/>
<circle opacity="0.75" cx="7457.3" cy="541.59" r="0.35"/>
<circle opacity="0.75" cx="7457.84" cy="550.37" r="0.38"/>
<circle opacity="0.75" cx="7458.06" cy="538.34" r="0.15"/>
<circle opacity="0.75" cx="7448.9" cy="556.76" r="0.18"/>
<circle opacity="0.75" cx="7450.21" cy="551.85" r="0.2"/>
<circle opacity="0.75" cx="7455" cy="547.64" r="0.23"/>
<circle opacity="0.75" cx="7456.47" cy="547.18" r="0.25"/>
<circle opacity="0.75" cx="7451.34" cy="553.21" r="0.28"/>
<circle opacity="0.75" cx="7459.88" cy="540.79" r="0.3"/>
<circle opacity="0.75" cx="7451.7" cy="557.32" r="0.33"/>
<circle opacity="0.75" cx="7456.05" cy="548.62" r="0.35"/>
<circle opacity="0.75" cx="7463.64" cy="539.53" r="0.38"/>
<circle opacity="0.75" cx="7459.54" cy="546.32" r="0.15"/>
<circle opacity="0.75" cx="7456.49" cy="537.72" r="0.18"/>
<circle opacity="0.75" cx="7459.61" cy="546.7" r="0.2"/>
<circle opacity="0.75" cx="7448.68" cy="549.91" r="0.23"/>
<circle opacity="0.75" cx="7447.65" cy="554.11" r="0.25"/>
<circle opacity="0.75" cx="7454.36" cy="545.23" r="0.28"/>
<circle opacity="0.75" cx="7457.81" cy="537.51" r="0.3"/>
<circle opacity="0.75" cx="7461.2" cy="538.6" r="0.33"/>
<circle opacity="0.75" cx="7451.06" cy="547.46" r="0.35"/>
<circle opacity="0.75" cx="7445.54" cy="555.62" r="0.38"/>
<circle opacity="0.75" cx="7456.16" cy="544.96" r="0.15"/>
<circle opacity="0.75" cx="7452.21" cy="554.5" r="0.18"/>
<circle opacity="0.75" cx="7455.53" cy="545.26" r="0.15"/>
<circle opacity="0.75" cx="7982.31" cy="458.6" r="0.15"/>
<circle opacity="0.75" cx="7983.79" cy="459.22" r="0.18"/>
<circle opacity="0.75" cx="7984.53" cy="461.09" r="0.2"/>
<circle opacity="0.75" cx="7983.05" cy="456.74" r="0.23"/>
<circle opacity="0.75" cx="7987.49" cy="459.85" r="0.25"/>
<path opacity="0.75" d="M7985.67,463.79l0.39-0.55l0.28,0.53L7985.67,463.79z"/>
<circle opacity="0.75" cx="7980.83" cy="457.98" r="0.15"/>
<circle opacity="0.75" cx="7979.35" cy="454.87" r="0.18"/>
<circle opacity="0.75" cx="7980.09" cy="456.12" r="0.2"/>
<circle opacity="0.75" cx="7981.57" cy="462.33" r="0.23"/>
<circle opacity="0.75" cx="7980.29" cy="460.99" r="0.25"/>
<circle opacity="0.75" cx="7986.01" cy="457.94" r="0.28"/>
<circle opacity="0.75" cx="7978.61" cy="457.36" r="0.15"/>
<circle opacity="0.75" cx="7892.17" cy="556.17" r="0.15"/>
<circle opacity="0.75" cx="7886.85" cy="560.98" r="0.18"/>
<circle opacity="0.75" cx="7889.56" cy="555.95" r="0.2"/>
<circle opacity="0.75" cx="7888.97" cy="561.79" r="0.23"/>
<path opacity="0.75" d="M7887.74,559.38l0.15,0.66l-0.58-0.15L7887.74,559.38z"/>
<circle opacity="0.75" cx="7894.83" cy="558.15" r="0.15"/>
<circle opacity="0.75" cx="7890.59" cy="558.19" r="0.18"/>
<circle opacity="0.75" cx="7888.45" cy="557.6" r="0.2"/>
<circle opacity="0.75" cx="7892.13" cy="559.55" r="0.23"/>
<circle opacity="0.75" cx="7895.36" cy="556.91" r="0.15"/>
<circle opacity="0.75" cx="7885.98" cy="558.29" r="0.15"/>
<g opacity="0.75">
	<path d="M7921.65,532.95l0.11,0.06c1.56,0.76,3.35,0.87,4.99,0.31l2.04-0.7l0.24,0.69l2.01,0.98l0.68-1.39l0.33-0.67l0.68-1.39
		l-2.01-0.98l-0.69,0.24l-0.7-2.04c-0.56-1.64-1.76-2.99-3.31-3.75l-0.11-0.05c-1.11-0.54-2.33-0.9-3.56-0.8
		c-0.17,0.01-0.34-0.02-0.5-0.1l-0.62-0.3c-0.16-0.08-0.29-0.2-0.38-0.34c-0.68-1.03-1.71-1.77-2.82-2.31l-7.35-3.59
		c-0.91-0.44-1.96-0.51-2.92-0.18l0,0c-0.07,0.02-0.12,0.07-0.16,0.14l-1.38,2.83l-0.33,0.67l-1.38,2.83
		c-0.03,0.06-0.04,0.14-0.01,0.21l0,0c0.33,0.96,1.03,1.75,1.94,2.19l7.34,3.58c1.11,0.54,2.33,0.9,3.56,0.8
		c0.17-0.01,0.34,0.02,0.5,0.1l0.62,0.3c0.16,0.08,0.29,0.2,0.38,0.34C7919.51,531.67,7920.54,532.41,7921.65,532.95z"/>
	<polygon points="7931.03,534.28 7931.71,532.89 7932.04,532.22 7932.72,530.83 7930.76,529.88 7929.08,533.33 	"/>
</g>
<circle opacity="0.75" cx="7914.67" cy="523.94" r="0.15"/>
<circle opacity="0.75" cx="7910.89" cy="523.66" r="0.18"/>
<circle opacity="0.75" cx="7914.44" cy="526.14" r="0.2"/>
<circle opacity="0.75" cx="7918.72" cy="524.64" r="0.23"/>
<circle opacity="0.75" cx="7913.26" cy="524.71" r="0.25"/>
<circle opacity="0.75" cx="7911.32" cy="524.66" r="0.28"/>
<circle opacity="0.75" cx="7910.95" cy="522.66" r="0.3"/>
<circle opacity="0.75" cx="7907.97" cy="523.59" r="0.33"/>
<circle opacity="0.75" cx="7908.7" cy="519.61" r="0.35"/>
<circle opacity="0.75" cx="7912.89" cy="522.7" r="0.38"/>
<circle opacity="0.75" cx="7914.51" cy="523.34" r="0.15"/>
<circle opacity="0.75" cx="7917.81" cy="523.62" r="0.18"/>
<circle opacity="0.75" cx="7910.31" cy="522.04" r="0.2"/>
<circle opacity="0.75" cx="7911.96" cy="525.28" r="0.23"/>
<path opacity="0.75" d="M7915.65,527.74l0.49,0.46l-0.56,0.21L7915.65,527.74z"/>
<circle opacity="0.75" cx="7917.1" cy="524" r="0.15"/>
<circle opacity="0.75" cx="7914.61" cy="524.94" r="0.18"/>
<circle opacity="0.75" cx="7917.49" cy="522.41" r="0.2"/>
<circle opacity="0.75" cx="7917.88" cy="528.81" r="0.23"/>
<circle opacity="0.75" cx="7915.69" cy="524.77" r="0.25"/>
<circle opacity="0.75" cx="7909.15" cy="525.01" r="0.28"/>
<circle opacity="0.75" cx="7908.9" cy="522.81" r="0.3"/>
<circle opacity="0.75" cx="7910.91" cy="520.06" r="0.33"/>
<circle opacity="0.75" cx="7911.68" cy="526.67" r="0.35"/>
<circle opacity="0.75" cx="7907" cy="523.57" r="0.38"/>
<circle opacity="0.75" cx="7918.27" cy="527.22" r="0.15"/>
<circle opacity="0.75" cx="7918.78" cy="523.64" r="0.18"/>
<circle opacity="0.75" cx="7913.01" cy="520.71" r="0.2"/>
<circle opacity="0.75" cx="7909.34" cy="520.22" r="0.23"/>
<circle opacity="0.75" cx="7919.64" cy="523.86" r="0.15"/>
<g opacity="0.75">
	<path d="M8239,544.56l0.14,0.03c1.85,0.39,3.77,0.03,5.35-1l1.96-1.28l0.43,0.66l2.38,0.5l0.35-1.65l0.17-0.79l0.35-1.65l-2.38-0.5
		l-0.66,0.43l-1.28-1.96c-1.03-1.58-2.65-2.69-4.49-3.08l-0.13-0.03c-1.32-0.28-2.7-0.33-3.98,0.1c-0.17,0.06-0.36,0.07-0.55,0.03
		l-0.73-0.15c-0.19-0.04-0.36-0.13-0.5-0.25c-0.99-0.9-2.28-1.41-3.59-1.69l-8.72-1.84c-1.08-0.23-2.21-0.02-3.13,0.59v0
		c-0.07,0.04-0.11,0.11-0.13,0.19l-0.71,3.36l-0.17,0.79l-0.71,3.36c-0.02,0.08,0,0.16,0.04,0.22l0,0c0.6,0.93,1.55,1.57,2.63,1.8
		l8.71,1.83c1.32,0.28,2.7,0.33,3.98-0.1c0.17-0.06,0.36-0.07,0.55-0.03l0.73,0.15c0.19,0.04,0.36,0.13,0.49,0.25
		C8236.4,543.77,8237.69,544.29,8239,544.56z"/>
	<polygon points="8249.27,543.47 8249.61,541.83 8249.78,541.03 8250.13,539.38 8247.81,538.9 8246.95,542.98 	"/>
</g>
<path opacity="0.75" d="M8222.18,536.46l-0.82,1.06l-0.52-1.08L8222.18,536.46z"/>
<circle opacity="0.75" cx="8230.48" cy="533.88" r="0.3"/>
<circle opacity="0.75" cx="8225.48" cy="536.18" r="0.35"/>
<circle opacity="0.75" cx="8226.53" cy="537.83" r="0.4"/>
<circle opacity="0.75" cx="8224.35" cy="538.58" r="0.45"/>
<circle opacity="0.75" cx="8223.64" cy="534.16" r="0.5"/>
<circle opacity="0.75" cx="8228.12" cy="538.28" r="0.3"/>
<circle opacity="0.75" cx="8231.57" cy="539.12" r="0.3"/>
<g opacity="0.75">
	<path d="M8179.65,462.16l0.13-0.01c1.75-0.09,3.39-0.87,4.56-2.17l1.46-1.61l0.55,0.49l2.25-0.12l-0.08-1.56l-0.04-0.75l-0.08-1.56
		l-2.25,0.12l-0.49,0.55l-1.61-1.46c-1.3-1.17-3.01-1.78-4.76-1.69l-0.12,0.01c-1.24,0.06-2.5,0.35-3.54,1.03
		c-0.14,0.09-0.31,0.15-0.49,0.16l-0.69,0.04c-0.18,0.01-0.35-0.03-0.5-0.11c-1.1-0.57-2.38-0.73-3.62-0.66l-8.25,0.42
		c-1.02,0.05-1.98,0.51-2.67,1.27l0,0c-0.05,0.05-0.07,0.13-0.07,0.2l0.16,3.18l0.04,0.75l0.16,3.18c0,0.07,0.04,0.14,0.09,0.19l0,0
		c0.76,0.69,1.76,1.04,2.79,0.99l8.24-0.42c1.25-0.06,2.5-0.35,3.54-1.03c0.14-0.09,0.31-0.15,0.49-0.16l0.69-0.04
		c0.18-0.01,0.35,0.03,0.5,0.11C8177.13,462.07,8178.41,462.22,8179.65,462.16z"/>
	<polygon points="8188.59,458.74 8188.51,457.18 8188.48,456.43 8188.4,454.87 8186.2,454.99 8186.4,458.86 	"/>
</g>
<path opacity="0.75" d="M8162.49,458.1l-0.02,0.67l-0.53-0.28L8162.49,458.1z"/>
<circle opacity="0.75" cx="8162.23" cy="456.7" r="0.15"/>
<circle opacity="0.75" cx="8165.2" cy="459.13" r="0.18"/>
<circle opacity="0.75" cx="8164.92" cy="457.71" r="0.2"/>
<circle opacity="0.75" cx="8167.44" cy="457.82" r="0.15"/>
<g opacity="0.75">
	<path d="M7381.45,470.26l0.17-0.01c2.25-0.12,4.36-1.12,5.87-2.79l1.88-2.08l0.7,0.63l2.9-0.15l-0.1-2.01l-0.05-0.97l-0.1-2.01
		l-2.9,0.15l-0.63,0.7l-2.08-1.88c-1.67-1.51-3.88-2.29-6.13-2.18l-0.16,0.01c-1.6,0.08-3.22,0.45-4.56,1.33
		c-0.18,0.12-0.4,0.19-0.63,0.21l-0.89,0.05c-0.23,0.01-0.45-0.04-0.65-0.14c-1.42-0.74-3.06-0.94-4.66-0.85l-10.62,0.55
		c-1.32,0.07-2.55,0.66-3.44,1.64l0,0c-0.06,0.07-0.1,0.16-0.09,0.25l0.21,4.1l0.05,0.97l0.21,4.1c0,0.09,0.05,0.18,0.12,0.24l0,0
		c0.98,0.88,2.27,1.34,3.59,1.27l10.61-0.55c1.6-0.08,3.22-0.45,4.56-1.33c0.18-0.12,0.4-0.19,0.63-0.21l0.89-0.05
		c0.23-0.01,0.45,0.04,0.65,0.14C7378.21,470.15,7379.85,470.35,7381.45,470.26z"/>
	<polygon points="7392.96,465.87 7392.86,463.86 7392.81,462.9 7392.71,460.89 7389.88,461.03 7390.14,466.02 	"/>
</g>
<circle opacity="0.75" cx="7371.19" cy="462.33" r="0.3"/>
<circle opacity="0.75" cx="7368.36" cy="462.13" r="0.35"/>
<circle opacity="0.75" cx="7365.52" cy="464.18" r="0.4"/>
<circle opacity="0.75" cx="7361.75" cy="459.87" r="0.45"/>
<circle opacity="0.75" cx="7369.3" cy="467.53" r="0.5"/>
<circle opacity="0.75" cx="7362.69" cy="466.65" r="0.55"/>
<path opacity="0.75" d="M7360.49,467.85l-0.37,1.29l-0.89-0.81L7360.49,467.85z"/>
<circle opacity="0.75" cx="7372.13" cy="460.48" r="0.3"/>
<circle opacity="0.75" cx="7367.06" cy="459.25" r="0.35"/>
<circle opacity="0.75" cx="7364.58" cy="463.56" r="0.4"/>
<circle opacity="0.75" cx="7373.07" cy="467.26" r="0.45"/>
<circle opacity="0.75" cx="7361.75" cy="462.63" r="0.5"/>
<circle opacity="0.75" cx="7358.92" cy="461.72" r="0.55"/>
<circle opacity="0.75" cx="7370.24" cy="461.1" r="0.3"/>
<circle opacity="0.75" cx="7360.81" cy="466.03" r="0.3"/>
<circle opacity="0.75" cx="7366.47" cy="467.88" r="0.35"/>
</svg>
