<?xml version="1.0" encoding="UTF-8" standalone="no"?>
<!-- Generator: Adobe Illustrator 18.0.0, SVG Export Plug-In . SVG Version: 6.00 Build 0)  -->

<svg
   version="1.1"
   id="Layer_9"
   x="0px"
   y="0px"
   width="9451.45px"
   height="623.52px"
   viewBox="0 0 9451.45 623.52"
   enable-background="new 0 0 9451.45 623.52"
   xml:space="preserve"
   sodipodi:docname="55_mask-rasterised-01.svg"
   inkscape:version="1.1.1 (3bf5ae0d25, 2021-09-20)"
   xmlns:inkscape="http://www.inkscape.org/namespaces/inkscape"
   xmlns:sodipodi="http://sodipodi.sourceforge.net/DTD/sodipodi-0.dtd"
   xmlns="http://www.w3.org/2000/svg"
   xmlns:svg="http://www.w3.org/2000/svg"><defs
   id="defs7" /><sodipodi:namedview
   id="namedview5"
   pagecolor="#505050"
   bordercolor="#eeeeee"
   borderopacity="1"
   inkscape:pageshadow="0"
   inkscape:pageopacity="0"
   inkscape:pagecheckerboard="0"
   showgrid="false"
   inkscape:zoom="1.8655338"
   inkscape:cx="6160.4351"
   inkscape:cy="497.71277"
   inkscape:window-width="1366"
   inkscape:window-height="705"
   inkscape:window-x="-8"
   inkscape:window-y="-8"
   inkscape:window-maximized="1"
   inkscape:current-layer="Layer_9" />
<path
   id="path117"
   style="fill:#000000;stroke-width:0.238747"
   d="m 6248.8887,457.70508 c -1.272,-0.0768 -2.7259,0.39941 -3.1934,1.69726 -0.5945,1.71315 -0.3403,3.57733 -0.4178,5.36015 -0.014,2.39491 0.1428,4.91763 -1.0158,7.10787 -1.9154,3.92865 -4.2622,7.62814 -6.4366,11.41557 -1.1916,2.01702 -2.4026,4.08979 -3.7294,6.0754 -1.2837,0.45866 -2.4327,1.63832 -2.2871,3.08594 0.1103,0.71058 0.1439,1.42706 -0.1871,2.0924 -2.029,5.29897 -4.3496,10.48177 -6.5417,15.71469 -1.5685,3.63133 -3.0632,7.29786 -4.7966,10.85502 -0.9975,0.4515 -1.5992,1.45412 -1.9957,2.40464 -1.3505,0.99202 -2.9081,1.97123 -4.2836,2.74379 -0.076,-1.59411 0.2839,-3.48254 -0.9336,-4.74609 -1.0535,-0.89963 -2.5873,-0.74925 -3.8281,-0.39258 -1.433,0.56832 -1.7784,2.24218 -1.7626,3.62372 -0.052,1.41715 -0.059,2.83557 -0.097,4.25323 -1.3682,-0.0471 -2.29,1.27138 -2.4316,2.52038 -0.08,0.56586 -0.1462,1.15249 -0.6544,1.51341 -1.2586,1.29544 -2.5946,2.51449 -3.9179,3.74356 -0.054,-3.93871 0.087,-7.88406 -0.1257,-11.81821 -0.031,-1.34455 -0.7375,-2.9008 -2.2088,-3.09544 -1.3579,-0.22796 -3.0425,0.18441 -3.5794,1.59684 -0.5917,1.76246 -0.3306,3.67139 -0.4385,5.49995 -0.033,0.81261 0.012,1.68001 -0.087,2.46139 -1.445,0.14257 -2.3622,1.53987 -2.4141,2.9082 -0.1635,2.18457 -0.102,4.37848 -0.1856,6.56641 -0.9043,0.15743 -2.0209,0.31691 -2.9583,0.45943 -0.4363,-0.0759 -1.4602,0.53963 -1.3752,-0.15317 -0.099,-3.81822 0.091,-7.64617 -0.1656,-11.45818 -0.053,-1.35764 -0.9512,-2.80718 -2.4091,-2.90277 -1.3209,-0.15702 -2.8808,0.21398 -3.4726,1.53711 -0.6934,1.85368 -0.4394,3.88651 -0.5401,5.82615 -0.031,2.35416 -0.032,4.70903 -0.099,7.06252 -0.5344,0.36773 -0.9655,-0.0242 -1.4316,-0.30664 -1.5666,-0.94673 -3.2868,-1.63381 -4.7969,-2.66797 -0.5772,-0.65574 -0.3901,-1.66025 -0.4863,-2.47107 -0.1019,-2.93205 0.1346,-5.88459 -0.2188,-8.80237 -0.1802,-1.35507 -1.4134,-2.47363 -2.805,-2.34482 -1.2376,-0.0693 -2.6263,0.41878 -3.0973,1.66123 -0.6136,1.68826 -0.3778,3.54082 -0.4725,5.30537 -0.019,1.24204 -0.031,2.48429 -0.071,3.72588 -2.2436,-0.26478 -4.4929,-0.4822 -6.7461,-0.64453 -0.074,-2.01653 0.1358,-4.06168 -0.2,-6.05795 -0.236,-1.38978 -1.6637,-2.28901 -3.0275,-2.07722 -1.2918,-0.0772 -2.6704,0.60193 -3.0459,1.90861 -0.4721,1.89404 -0.198,3.87372 -0.3926,5.80078 -2.3169,0.18997 -4.654,0.11107 -6.9766,0.0527 0.015,-1.34094 0.092,-3.00405 -1.1933,-3.82617 -1.0715,-0.59086 -2.4038,-0.41692 -3.5293,-0.084 -1.2939,0.53936 -1.6386,2.04974 -1.6014,3.31899 0.2285,0.71319 -0.36,0.6453 -0.8591,0.62353 -2.0088,-0.01 -4.0386,0.1429 -6.0337,-0.12612 -0.3303,-2.20256 -0.1091,-4.44955 -0.1917,-6.67065 -0.078,-1.5836 0.1745,-3.49152 -1.0978,-4.68271 -1.0145,-0.83241 -2.5055,-0.7314 -3.6675,-0.30289 -1.5045,0.65658 -1.7002,2.4827 -1.7233,3.92772 -0.1002,2.69392 -0.064,5.39149 -0.1497,8.08596 -0.6297,0.15034 -1.2409,0.36609 -1.8497,0.58398 -1.5538,-1.34168 -3.0418,-2.77433 -4.4374,-4.28051 -0.9848,-1.10194 -0.5974,-2.69602 -0.6968,-4.04096 -0.083,-1.68545 0.2137,-3.46802 -0.4162,-5.07264 -0.5198,-1.22264 -1.9625,-1.5991 -3.1764,-1.38135 -1.3963,-0.0129 -2.5912,1.16163 -2.6481,2.54611 -0.1218,0.57347 0,1.29418 -0.1563,1.7938 -1.6492,0.29048 -2.7826,2.00772 -2.5605,3.63867 -1.2619,2.02201 -2.7986,3.85939 -4.2032,5.78321 0.04,-1.32337 -0.2071,-2.95732 -1.5762,-3.54177 -1.0565,-0.41757 -2.2808,-0.2838 -3.3593,-0.009 -1.3842,0.43571 -1.8852,1.998 -1.8419,3.32151 -0.029,0.50268 -0.029,0.97681 -0.051,1.45192 -2.2625,-0.0878 -4.5307,0.0189 -6.791,-0.11328 -0.1255,-1.64861 0.2867,-3.45148 -0.5391,-4.96679 -0.3879,-0.56876 -0.9896,-0.98217 -1.6738,-1.09375 -0.2785,-4.92464 -0.1491,-9.86278 -0.1888,-14.79336 -0.041,-6.10085 0.091,-12.20659 -0.1539,-18.30372 -0.099,-1.55296 -0.1845,-3.55196 -1.7893,-4.32899 -1.4275,-0.60254 -3.4532,-0.18803 -4.0788,1.37191 -0.7193,1.85205 -0.5502,3.8997 -0.674,5.84945 -0.1951,9.78476 -0.01,19.57435 -0.2599,29.3579 -0.1439,2.13325 -0.063,4.36187 -0.8484,6.38296 -0.4088,0.75484 -1.4607,0.48427 -2.1733,0.58161 -4.8837,0.0274 -9.7657,-0.198 -14.6305,-0.61776 -0.099,-3.68286 0.087,-7.37507 -0.1534,-11.05231 -0.049,-1.35103 -0.9847,-2.75072 -2.4279,-2.81235 -1.2658,-0.12581 -2.7165,0.29197 -3.2644,1.54825 -0.6511,1.82561 -0.4083,3.81273 -0.5054,5.71559 -0.025,1.98346 -0.034,3.96731 -0.079,5.95042 -1.791,-0.37212 -3.5656,-0.82404 -5.3672,-1.14453 -1.3712,-1.76573 -2.7696,-3.53406 -3.8984,-5.46679 -0.2656,-1.02473 -0.2773,-2.22811 -1.16,-2.97745 -1.2803,-1.3055 -3.6254,-1.28629 -4.7867,0.16794 -0.645,0.70069 -0.9186,1.71605 -0.9439,2.60638 -0.7641,1.28272 -1.74,2.43356 -2.709,3.56641 -0.4476,-0.19662 -1.4975,0.18703 -1.4928,-0.44593 -0.1252,-2.57541 0.13,-5.17454 -0.2138,-7.73467 -0.1843,-1.39354 -1.5266,-2.44875 -2.9269,-2.26397 -1.2789,-0.0782 -2.6809,0.53444 -3.0794,1.83519 -0.5354,1.86233 -0.295,3.84135 -0.3989,5.75616 -0.035,0.88678 0.01,1.81576 -0.076,2.67744 -2.3474,1.05884 -4.4915,2.50362 -6.7129,3.79492 -0.082,-3.7418 0.096,-7.49258 -0.1543,-11.22852 -0.067,-1.31027 -0.7872,-2.74074 -2.177,-3.00726 -1.409,-0.23775 -3.1984,0.0218 -3.8503,1.47406 -0.7535,1.7522 -0.5167,3.73195 -0.6164,5.59513 -0.079,3.81535 0.011,7.63601 -0.1786,11.44784 -0.9032,0.69901 -1.1497,1.89518 -1.1093,2.98047 -1.1883,1.0182 -1.4375,2.82555 -0.8399,4.2207 -0.036,0.66209 -0.6928,0.44143 -1.1502,0.62886 -1.24,0.30243 -1.8887,1.63919 -1.7048,2.84605 0.055,1.36784 1.386,2.24077 2.6636,2.25751 3.4562,0.2376 6.9271,0.0926 10.3894,0.15385 62.3883,0.12923 124.7769,0.12702 187.1653,0.11395 20.386,-0.0168 40.7723,0.003 61.1581,-0.09 1.6662,-0.0116 3.7154,0.13054 4.8397,-1.36158 1.1916,-1.6344 1.0511,-3.78674 1.1823,-5.70894 0.105,-5.97936 0.077,-11.96159 0.018,-17.94141 -0.099,-1.61396 0.1028,-3.38073 -0.7232,-4.83776 -0.819,-1.34623 -2.7755,-1.41216 -4.0205,-0.68367 -1.4436,0.95091 -1.3627,2.88374 -1.4503,4.41748 -0.1072,3.73669 -0.081,7.47573 -0.1288,11.21345 -2.7808,-5.86771 -5.6086,-11.86375 -8.3368,-17.8163 -0.3896,-1.04737 -1.0435,-2.04888 -1.1759,-3.16593 0.2451,-1.20502 0.024,-2.64103 -1.1123,-3.32292 -0.4838,-0.18258 -0.7211,-0.57089 -0.7791,-1.07494 -3.5355,-11.99233 -7.1085,-23.95842 -10.5365,-35.9807 -0.4993,-1.9873 -1.2675,-3.9773 -1.0555,-6.06108 -0.015,-3.04196 0.079,-6.09307 -0.143,-9.12829 -0.069,-1.36069 -1.1208,-2.6722 -2.5485,-2.6775 -0.091,-0.005 -0.1821,-0.0172 -0.2733,-0.007 z m 25.5918,85.59375 c 0.3678,0.50429 0.094,1.20936 0.1894,1.79883 -0.4075,0.45366 -0.8503,1.2682 -1.5508,1.06836 -1.0579,-0.51056 -0.8656,-1.99866 0.01,-2.5879 0.3938,-0.2504 0.8934,-0.37304 1.3535,-0.27929 z" />
</svg>
