<?xml version="1.0" encoding="utf-8"?>
<!-- Generator: Adobe Illustrator 18.0.0, SVG Export Plug-In . SVG Version: 6.00 Build 0)  -->
<!DOCTYPE svg PUBLIC "-//W3C//DTD SVG 1.1//EN" "http://www.w3.org/Graphics/SVG/1.1/DTD/svg11.dtd">
<svg version="1.1" id="Layer_8" xmlns="http://www.w3.org/2000/svg" xmlns:xlink="http://www.w3.org/1999/xlink" x="0px" y="0px"
	 width="9451.45px" height="623.52px" viewBox="0 0 9451.45 623.52" enable-background="new 0 0 9451.45 623.52"
	 xml:space="preserve">
<g opacity="0.75">
	<circle fill-opacity="0.3922" cx="7222.81" cy="290.94" r="21.22"/>
</g>
<g opacity="0.75">
	<circle fill-opacity="0.3922" cx="7085.76" cy="290.07" r="21.22"/>
</g>
<g opacity="0.75">
	<circle fill-opacity="0.3922" cx="7014.77" cy="341.08" r="11.19"/>
</g>
<path opacity="0.75" fill-opacity="0.3922" d="M7413.1,43.44c-32.55,0-58.93,26.38-58.93,58.93c0,12.86,4.13,24.75,11.13,34.44
	c-17.97,0.1-33.34,11.11-39.83,26.75c-2.43-0.47-4.94-0.73-7.5-0.73c-0.76,0-1.52,0.03-2.27,0.07
	c-2.45-19.49-17.17-35.16-36.19-39.01c-5.21-4.97-11.54-8.76-18.58-10.97c-1.38-29.86-26.02-53.65-56.23-53.65
	c-25.5,0-47.02,16.95-53.95,40.2c-9.14,8.25-14.89,20.18-14.89,33.47c0,4.2,0.59,8.27,1.67,12.13c-10,5.18-17.7,14.19-21.13,25.09
	c-2.22-0.4-4.5-0.63-6.84-0.63c-20.98,0-37.98,17-37.98,37.98c0,18.73,13.55,34.28,31.39,37.4c0,0.06,0,0.12,0,0.18
	c0,16.78,13.6,30.39,30.39,30.39s30.39-13.61,30.39-30.39c0-7.38-2.63-14.14-7-19.41c0.14,0,0.27,0.01,0.4,0.01
	c23.58,0,42.7-19.12,42.7-42.7c0-3-0.31-5.93-0.9-8.76c0.77-0.34,1.53-0.7,2.29-1.08c5.97,18.44,22.85,31.96,43.03,32.94
	c7.41,5.18,16.42,8.24,26.15,8.24c3.51,0,6.92-0.41,10.21-1.16c4.11,13.59,15.42,24.05,29.49,26.93
	c4.72,12.91,17.12,22.12,31.66,22.12c18.61,0,33.7-15.09,33.7-33.7c0-2.05-0.19-4.05-0.54-6c19.45-4.29,34-21.61,34-42.35
	c0-7.03-1.68-13.66-4.65-19.54c2.89,0.44,5.84,0.66,8.85,0.66c32.55,0,58.93-26.39,58.93-58.93
	C7472.03,69.83,7445.65,43.44,7413.1,43.44z"/>
<g opacity="0.75">
	<circle fill-opacity="0.3922" cx="7294.17" cy="305.33" r="18.34"/>
</g>
<path opacity="0.75" fill-opacity="0.3922" d="M7118.96,111.84c0-31.47-25.52-56.99-56.99-56.99c-23.85,0-44.27,14.66-52.77,35.46
	c-5.77-2.23-12.03-3.46-18.59-3.46c-23.51,0-43.34,15.7-49.62,37.18c-6.49-3.45-13.89-5.41-21.75-5.41
	c-15.93,0-29.99,8.04-38.34,20.28c-8.28-8.78-20.01-14.26-33.02-14.26c-25.07,0-45.4,20.33-45.4,45.4
	c0,24.09,18.77,43.79,42.49,45.3c7.34,5.8,16.61,9.28,26.7,9.28c13.33,0,25.24-6.05,33.15-15.55c0.48,0.16,0.96,0.3,1.44,0.44
	c5.62,11.04,16.05,19.22,28.54,21.75c-0.18,1.4-0.29,2.82-0.29,4.26c0,17.84,14.46,32.3,32.3,32.3s32.3-14.46,32.3-32.3
	c0-12.69-7.32-23.67-17.96-28.95c2-4.85,3.11-10.16,3.11-15.73c0-0.33-0.02-0.66-0.02-0.99c2.09,0.26,4.2,0.4,6.36,0.4
	c8.17,0,15.89-1.9,22.75-5.27c7.35,4.09,15.81,6.43,24.82,6.43c19.35,0,36.19-10.76,44.87-26.62
	C7104.09,156.41,7118.96,135.87,7118.96,111.84z"/>
<g opacity="0.75">
	<circle fill-opacity="0.3922" cx="6710.85" cy="311.07" r="17.19"/>
</g>
<path opacity="0.75" fill-opacity="0.3922" d="M6827.86,230.11c-5-10.16-15.45-17.15-27.53-17.15c-16.94,0-30.68,13.73-30.68,30.68
	c0,3.06,0.45,6.01,1.29,8.79c-10.67,2.53-18.6,12.11-18.6,23.55c0,13.37,10.84,24.21,24.21,24.21c13.37,0,24.21-10.84,24.21-24.21
	c0-0.56-0.03-1.12-0.06-1.67c0.38,0,0.77-0.01,1.15-0.03c5.07,6.78,13.16,11.17,22.28,11.17c15.35,0,27.8-12.45,27.8-27.8
	C6851.91,243.57,6841.44,231.95,6827.86,230.11z"/>
<path opacity="0.75" fill-opacity="0.3922" d="M6687.06,249.01c-3.02,0-5.91,0.54-8.58,1.54c-4.23-3.19-9.49-5.09-15.2-5.09
	c-13.95,0-25.26,11.31-25.26,25.26c0,13.95,11.31,25.26,25.26,25.26c3.48,0,6.79-0.7,9.8-1.97c3.97,2.74,8.79,4.35,13.98,4.35
	c13.63,0,24.68-11.05,24.68-24.67C6711.73,260.06,6700.69,249.01,6687.06,249.01z"/>
<g opacity="0.75">

		<path fill="none" stroke="#000000" stroke-width="1.4172" stroke-linecap="round" stroke-linejoin="round" stroke-miterlimit="10" d="
		M6663.27,270.72l23.78,2.97l23.79,37.38l23.79,85.97h23.79l18.12-121.05l23.79-32.34l23.79,14.01l23.79-87.62l23.79,11.47
		l23.79-7.2l23.79-9.36l23.79,25.89l23.79,44.68l23.79-96.96l23.79,202.52L7038.19,140l23.79-28.16l23.79,178.23l23.78-82.62
		l23.79,37.65l23.79-62.1l23.79-50.84l23.79-16.59l18.12,175.37l23.79-132.5l23.79,10.22l23.79,136.67l23.79-103.46l23.79,26.66
		l23.78-48.35l23.79,216.86l23.79-294.66"/>
</g>
</svg>
