<?xml version="1.0" encoding="utf-8"?>
<!-- Generator: Adobe Illustrator 18.0.0, SVG Export Plug-In . SVG Version: 6.00 Build 0)  -->
<!DOCTYPE svg PUBLIC "-//W3C//DTD SVG 1.1//EN" "http://www.w3.org/Graphics/SVG/1.1/DTD/svg11.dtd">
<svg version="1.1" xmlns="http://www.w3.org/2000/svg" xmlns:xlink="http://www.w3.org/1999/xlink"  x="0px" y="0px" width="9451.45px" height="623.52px"
	 viewBox="0 0 9451.45 623.52" enable-background="new 0 0 9451.45 623.52" xml:space="preserve">
<g id="background">
</g>
<g id="Baseline">
	<g>
		<path fill="#FFFFFF" d="M4538.77,432.68c0,0,7.29-0.03,20.96-0.08c13.67-0.01,33.73,0.07,59.25,0.26
			c25.52,0.11,56.51,0.3,92.01-0.97c17.74-0.72,36.66-1.59,56.61-1.95c19.95-0.42,40.96-0.31,62.84,0.38
			c21.86,0.59,44.63,1.23,68.14,0.71c5.88-0.11,11.8-0.35,17.77-0.63c2.98-0.18,5.98-0.31,8.98-0.54c1.51-0.1,3.02-0.21,4.54-0.31
			c1.52-0.09,3.01-0.22,4.57-0.27c12.34-0.6,24.76,0.14,37.25,0.71c6.25,0.27,12.51,0.49,18.81,0.46
			c6.35-0.02,12.74-0.04,19.17-0.07c12.86-0.05,25.88-0.09,39.04-0.14c26.32-0.06,53.21-0.12,80.55-0.18
			c27.34-0.05,55.14-0.1,83.28-0.15c14.23-0.03,28.37,1.2,42.43,1.15c14.22-0.13,28.51-0.27,42.86-0.4
			c28.71-0.26,57.65-0.53,86.7-0.79c3.63-0.03,7.26-0.07,10.9-0.1c3.69-0.04,7.29-0.02,10.94-0.03c7.28,0,14.56-0.01,21.84-0.01
			c14.57-0.01,29.15-0.02,43.74-0.03c58.33,0.03,116.66,0.07,174.08,0.1c14.36-0.01,28.65-0.01,42.88-0.02
			c7.1-0.07,14.19-0.13,21.26-0.2l5.31-0.05c1.83-0.01,3.64,0.03,5.45,0.11c3.61,0.16,7.18,0.49,10.71,0.88l2.64,0.3l1.31,0.15
			l0.59,0.06l0.66,0.06c0.88,0.08,1.76,0.18,2.55,0.2c0.81,0.04,1.62,0.09,2.48,0.08c3.37,0.05,6.78-0.15,10.21-0.44
			c6.87-0.58,13.87-1.54,21.06-1.57c0.89-0.02,1.8,0.02,2.7,0.04l0.68,0.02l0.69,0.05l1.3,0.1l5.18,0.38
			c3.52,0.26,6.84,0.45,10.19,0.45c1.66-0.01,3.31-0.06,4.94-0.2l1.21-0.12l1.29-0.14c0.98-0.09,1.94-0.13,2.86-0.13
			c3.73,0.02,7.07,0.54,10.27,0.52c13.67-0.03,27.23-0.07,40.66-0.1c6.71-0.02,13.4-0.03,20.05-0.05
			c6.65,0.02,13.26,0.04,19.84,0.05c3.29,0.01,6.57,0.02,9.84,0.03c3.24,0.01,6.6,0,9.89,0.18c6.58,0.31,13,0.95,19.31,1.06
			c1.57,0.03,3.15,0.03,4.69-0.02c1.53-0.05,3.05-0.18,4.61-0.35c3.13-0.33,6.22-0.87,9.59-1.12c1.58-0.09,3.17-0.19,4.75-0.28
			l2.37-0.14l2.44-0.09c3.16-0.11,6.34-0.19,9.53-0.15c3.19,0.05,6.4,0.21,9.6,0.64c0.78,0.09,1.65,0.25,2.34,0.35
			c0.41,0.07,0.68,0.09,1.05,0.13c0.36,0.03,0.71,0.06,1.08,0.09c1.45,0.09,2.95,0.09,4.47,0.06c1.52-0.03,3.08-0.08,4.67-0.08
			c1.54,0,3.08,0.01,4.61,0.01c3.07,0.01,6.12,0.02,9.17,0.03c12.18,0.04,24.17,0.08,35.96,0.12c11.79,0.05,23.38,0.1,34.76,0.14
			c2.85,0.01,5.67,0.04,8.47,0.01c2.81-0.02,5.63-0.06,8.46-0.01c5.7,0.1,11.18,0.76,16.5,0.67c10.83-0.17,21.54-1.32,32.15-1.07
			c5.4,0.2,10.49,1.02,15.48,1.14c1.24,0.03,2.47,0.01,3.69-0.06l1.85-0.16c0.63-0.06,1.26-0.12,1.92-0.15
			c2.58-0.17,5.12-0.22,7.63-0.21c5.03,0.03,9.95,0.28,14.77,0.34c4.85,0.03,9.64,0.06,14.35,0.09c9.45,0.06,18.62,0.13,27.51,0.19
			c8.89,0.12,17.47,0.27,25.73-0.1c8.29-0.35,16.35-0.67,24.09-0.03c1.92,0.14,3.87,0.45,5.66,0.55c1.84,0.1,3.68,0.06,5.52,0.01
			c3.7-0.14,7.33-0.05,10.84-0.05c7.05,0.04,13.77,0.08,20.15,0.12c51.04,0.37,80.21,0.58,80.21,0.58s-29.17,0.21-80.21,0.58
			c-6.38,0.04-13.1,0.08-20.15,0.12c-3.54,0.04-7.12-0.02-10.79,0.17c-1.85,0.07-3.73,0.14-5.65,0.05
			c-1.97-0.09-3.79-0.38-5.71-0.49c-7.61-0.54-15.58-0.13-23.87,0.31c-8.32,0.47-16.96,0.42-25.84,0.4
			c-8.88,0.04-18.05,0.09-27.49,0.13c-4.72,0.03-9.52,0.05-14.37,0.08c-4.89-0.01-9.81-0.2-14.75-0.17
			c-2.47,0.01-4.95,0.09-7.4,0.29c-0.6,0.04-1.23,0.1-1.86,0.17l-1.94,0.18c-1.32,0.08-2.64,0.12-3.95,0.1
			c-5.24-0.09-10.42-0.87-15.48-1.01c-10.34-0.16-20.98,1.07-32.02,1.34c-5.63,0.13-11.15-0.49-16.62-0.53
			c-2.75-0.03-5.54,0.03-8.36,0.08c-2.84,0.05-5.68,0.05-8.52,0.06c-11.38,0.05-22.97,0.1-34.76,0.14
			c-11.79,0.04-23.78,0.08-35.96,0.12c-3.04,0.01-6.1,0.02-9.17,0.03c-1.53,0-3.07,0.01-4.61,0.01c-1.49,0.01-3.02,0.07-4.58,0.1
			c-1.57,0.04-3.17,0.05-4.81-0.04c-0.41-0.02-0.83-0.05-1.24-0.09c-0.41-0.04-0.91-0.09-1.27-0.15c-0.85-0.12-1.5-0.23-2.27-0.32
			c-2.97-0.39-6.01-0.52-9.08-0.55c-3.07-0.02-6.18,0.08-9.32,0.2l-2.29,0.1l-2.37,0.16c-1.58,0.1-3.16,0.21-4.74,0.31
			c-2.96,0.23-6.16,0.79-9.38,1.15c-1.62,0.19-3.28,0.35-4.96,0.41c-1.67,0.06-3.29,0.07-4.94,0.05
			c-6.56-0.08-13.03-0.68-19.45-0.95c-3.21-0.15-6.38-0.13-9.68-0.12c-3.27,0.01-6.55,0.02-9.84,0.03
			c-26.32,0.05-53.21,0.3-80.55,0.44c-3.65,0.02-7.11-0.5-10.25-0.48c-0.8,0-1.55,0.04-2.28,0.11l-1.27,0.15
			c-0.45,0.06-0.9,0.1-1.36,0.14c-1.81,0.16-3.6,0.22-5.38,0.24c-3.54,0.01-7.12-0.19-10.5-0.43l-5.18-0.36l-1.3-0.09l-0.61-0.04
			l-0.62-0.01c-0.83-0.01-1.66-0.05-2.5-0.03c-6.71,0.04-13.55,1-20.61,1.63c-3.53,0.31-7.12,0.54-10.76,0.5
			c-1.79-0.01-3.8-0.12-5.48-0.29l-0.66-0.06l-0.72-0.08l-1.3-0.15l-2.6-0.29c-3.47-0.37-6.91-0.67-10.35-0.81
			c-1.72-0.07-3.44-0.1-5.14-0.09l-5.3,0.07c-7.08,0.09-14.19,0.18-21.31,0.27c-14.23,0.02-28.53,0.05-42.88,0.07
			c-57.42,0.03-115.76,0.07-174.1,0.11c-14.58-0.01-29.17-0.02-43.74-0.03c-7.28,0-14.57-0.01-21.84-0.01
			c-3.62,0.01-7.3-0.02-10.88,0.01c-3.63,0.03-7.27,0.06-10.9,0.09c-29.05,0.23-57.99,0.46-86.7,0.69
			c-14.36,0.11-28.67,0.23-42.9,0.34c-14.41,0-28.52-1.29-42.44-1.3c-28.14-0.05-55.94-0.1-83.28-0.15
			c-27.34-0.06-54.23-0.12-80.55-0.18c-13.16-0.05-26.18-0.09-39.04-0.14c-6.43-0.02-12.82-0.04-19.17-0.07
			c-6.4-0.02-12.75-0.28-19.02-0.6c-12.53-0.66-24.83-1.47-36.84-0.97c-1.48,0.04-3.02,0.16-4.53,0.23
			c-1.51,0.09-3.02,0.19-4.52,0.28c-3.03,0.21-6.04,0.32-9.05,0.48c-6.01,0.24-11.97,0.44-17.88,0.51
			c-23.65,0.36-46.46-0.45-68.32-1.19c-43.68-1.73-83.74-0.72-119.28,0.44c-35.57,0.86-66.57,0.31-92.09-0.09
			c-25.52-0.47-45.57-0.84-59.24-1.09C4546.06,432.76,4538.77,432.68,4538.77,432.68z"/>
	</g>
	<g>
		<path fill="#FFFFFF" d="M6862.95,433.92c0,0,33.38-0.21,91.8-0.58c3.65-0.02,7.4-0.03,11.25-0.05c3.86,0,7.8,0.17,11.82,0.16
			c2-0.01,4.03-0.05,6.06-0.21c2.03-0.16,4.07-0.45,6.15-0.78c4.14-0.67,8.41-1.53,12.91-1.72c8.96-0.15,18.05,1.28,27.47,2.27
			c4.71,0.49,9.5,0.89,14.36,0.81c1.21,0,2.43-0.08,3.64-0.15c1.21-0.09,2.43-0.22,3.7-0.34c2.52-0.22,5.06-0.36,7.62-0.43
			c40.74-0.36,86.6-0.49,136.69-0.64c25.04-0.08,51.12-0.16,78.11-0.24c13.5-0.04,27.22-0.08,41.16-0.13
			c13.95-0.1,28.1,0.21,42.3-0.64c1.77-0.11,3.55-0.23,5.33-0.38c1.79-0.16,3.59-0.33,5.39-0.49l1.35-0.11l1.45-0.05
			c0.98-0.05,1.9-0.01,2.85-0.01c1.87,0.06,3.74,0.16,5.59,0.34c7.37,0.69,14.56,2.07,21.54,1.89c7.1-0.17,14.24-2.02,22.09-2.4
			c3.93-0.17,7.84,0.31,11.53,0.76c1.86,0.23,3.68,0.44,5.48,0.57c1.81,0.14,3.52,0.14,5.45,0.13c15.06-0.04,30.29-0.07,45.66-0.11
			l2.86-0.01c0.98,0,1.89-0.04,2.82-0.06c1.89-0.07,3.8-0.17,5.72-0.28c3.85-0.22,7.77-0.46,11.77-0.43c2,0,4.01,0.11,6.03,0.28
			c2.02,0.17,4.06,0.49,6,0.85c1.95,0.35,3.84,0.73,5.68,1.01l0.64,0.09l0.73,0.09l1.45,0.17c0.93,0.08,1.82,0.15,2.75,0.2
			c7.52,0.38,15.2-0.56,23.01-1.56c3.91-0.5,7.87-1,11.88-1.34c3.99-0.35,8.02-0.59,12.08-0.63c4.06-0.04,8.16,0.1,12.26,0.59
			c2.11,0.26,3.95,0.54,5.85,0.68c1.92,0.16,3.86,0.24,5.82,0.28c3.91,0.08,7.89-0.03,11.93-0.1c4.07-0.07,8.08-0.03,12.13,0.01
			c16.16,0.18,32.32,0.83,48.45,0.23c4.03-0.14,8.06-0.4,12.07-0.7c4.02-0.33,8.06-0.8,12.19-1.17c2.06-0.18,4.15-0.33,6.25-0.43
			l1.63-0.06c0.53,0,0.98-0.02,1.58,0c1.17,0.01,2.21,0.08,3.3,0.17c4.31,0.38,8.37,1.21,12.26,1.62c0.49,0.05,0.97,0.1,1.45,0.13
			l0.71,0.05l0.77,0.04c1.04,0.06,2.01,0.1,3.01,0.14c2.01,0.07,4.03,0.08,6.06,0.07c4.05-0.02,8.14-0.18,12.26-0.33
			c4.14-0.13,8.2-0.4,12.57-0.27c4.26,0.12,8.47,0.53,12.61,1.02c4.1,0.51,8.2,1.02,12.31,1.54l3.04,0.32l3.07,0.28
			c2.01,0.17,4.06,0.3,6.1,0.41c8.17,0.43,16.39,0.35,24.61-0.05c2.06-0.1,4.11-0.22,6.17-0.36c1-0.08,2.11-0.14,3.03-0.23
			c0.56-0.05,0.91-0.11,1.38-0.17c0.46-0.07,0.93-0.16,1.41-0.25c1.9-0.38,3.88-0.93,6.02-1.41c1.07-0.24,2.17-0.46,3.32-0.61
			c1.13-0.16,2.41-0.22,3.38-0.26c4.28-0.17,8.48-0.12,12.66-0.06c4.19,0.08,8.27,0.11,12.46,0.09c16.68-0.01,33.37-0.02,50.06-0.03
			l25.04,0.01l12.51,0.01c4.17,0.01,8.32-0.02,12.56,0.06c8.39,0.14,16.68,0.51,24.87,0.3c8.31-0.3,16.62-0.61,24.91-0.91
			c4.15-0.15,8.31-0.31,12.46-0.46c4.14-0.15,8.31-0.33,12.54-0.35c2.11,0,4.22-0.01,6.46,0.16c2.22,0.18,4.33,0.51,6.38,0.82
			c2.05,0.32,4.02,0.61,5.93,0.76c0.91,0.06,1.98,0.1,2.99,0.13c0.99,0.03,2,0.04,3.02,0.05c8.12,0.05,16.38-0.51,24.75-0.49
			c8.25,0,16.48,0.01,24.69,0.01c8.22,0,16.41,0.01,24.6,0.01c4.09,0,8.18,0,12.26,0.01l6.15,0.03c2.1,0.03,4.14,0.11,6.2,0.19
			c8.2,0.36,16.23,0.99,24.15,0.78c7.86-0.22,15.9-1.34,24.13-1.66c2.06-0.09,4.14-0.09,6.22-0.05c2.13,0.07,4.06,0.2,6.07,0.28
			c3.99,0.18,7.97,0.32,11.95,0.41c7.96,0.2,15.91,0.16,23.86,0.18c15.89,0.03,31.67,0.05,47.32,0.08
			c7.82,0.01,15.62,0.02,23.37,0.04c7.76,0.01,15.48,0.05,23.14-0.03c15.32-0.15,30.55-0.61,45.48-1.45
			c3.69-0.25,7.56-0.67,11.59-0.39c1.01,0.08,2.02,0.18,3.04,0.37c1.04,0.18,1.97,0.43,2.83,0.6c1.69,0.35,3.47,0.61,5.24,0.77
			c3.56,0.33,7.2,0.32,10.92,0.34c3.71,0.02,7.43,0.08,11.11,0.16c7.37,0.16,14.67,0.37,21.91,0.43c1.81,0,3.61,0,5.41,0.01
			l1.35-0.01l0.64-0.01l0.68-0.02c0.91-0.02,1.81-0.05,2.66-0.11c3.46-0.2,7.01-0.63,10.52-1.14c7.03-1.01,14.11-2.34,21.36-2.79
			l2.72-0.12l2.74-0.03c1.75,0.02,3.54,0.07,5.33,0.14c3.55,0.15,7.07,0.4,10.57,0.72c7,0.64,13.89,1.54,20.7,2.52
			c1.7,0.24,3.43,0.53,4.99,0.67c1.61,0.15,3.27,0.21,4.93,0.23c3.32,0.04,6.69-0.12,10.09-0.21c3.43-0.1,6.8-0.02,10.14-0.03
			c3.34,0.01,6.68,0.02,9.99,0.04c6.63,0.02,13.21,0.05,19.72,0.07c13.02,0.05,25.8,0.09,38.32,0.14
			c12.55,0.05,24.79,0.39,36.72,0.17c5.98-0.11,11.83-0.34,17.65-0.8c5.82-0.44,11.67-0.9,17.5-0.58c0.72,0.04,1.47,0.09,2.25,0.2
			c0.75,0.11,1.48,0.25,2.2,0.41c1.42,0.31,2.76,0.66,4.06,0.86c2.59,0.4,5.34,0.29,8.11,0.2c1.38-0.05,2.82-0.09,4.21-0.07
			c1.38,0.01,2.75,0.01,4.12,0.02c2.74,0.01,5.46,0.03,8.16,0.04c10.81,0.05,21.3,0.11,31.48,0.16c20.34,0.1,39.38,0.2,56.99,0.29
			c8.81,0.03,17.24,0.15,25.3,0c8.06-0.12,15.75-0.36,23.05-0.55c3.65-0.09,7.21-0.19,10.67-0.2c3.47,0,6.82,0.09,10.08,0.22
			c6.51,0.26,12.59,0.66,18.25,0.86c5.66,0.23,10.91,0.19,15.72,0.24c4.81,0.03,9.18,0.06,13.09,0.09
			c15.65,0.11,23.99,0.16,23.99,0.16s-8.35,0.06-23.99,0.16c-3.91,0.03-8.28,0.06-13.09,0.09c-4.81,0.02-10.06,0.13-15.74-0.03
			c-11.36-0.27-24.35-1.23-38.94-0.43c-7.3,0.26-14.99,0.57-23.06,0.78c-8.08,0.23-16.53,0.19-25.33,0.25
			c-17.6,0.09-36.64,0.18-56.99,0.29c-10.17,0.05-20.67,0.1-31.48,0.16c-2.7,0.01-5.42,0.03-8.16,0.04
			c-1.37,0.01-2.75,0.01-4.12,0.02c-1.37,0-2.7,0.05-4.1,0.11c-2.77,0.12-5.65,0.28-8.64-0.14c-1.48-0.22-2.88-0.57-4.23-0.85
			c-1.38-0.29-2.6-0.47-4-0.5c-5.58-0.26-11.28,0.26-17.12,0.73c-5.84,0.5-11.82,0.79-17.82,0.94c-12.03,0.3-24.3,0.05-36.79,0.1
			c-12.52,0.05-25.3,0.09-38.32,0.14c-6.51,0.02-13.08,0.05-19.72,0.07c-3.32,0.01-6.65,0.02-9.99,0.04
			c-3.35,0.03-6.71-0.02-10.02,0.1c-3.34,0.11-6.75,0.29-10.23,0.28c-1.74-0.01-3.49-0.06-5.28-0.22c-1.84-0.16-3.49-0.44-5.19-0.67
			c-6.77-0.95-13.6-1.8-20.49-2.39c-3.44-0.29-6.9-0.52-10.37-0.65c-1.72-0.06-3.44-0.1-5.22-0.11l-2.55,0.04l-2.57,0.13
			c-6.88,0.46-13.83,1.79-20.99,2.87c-3.59,0.54-7.19,1-10.93,1.24c-0.95,0.07-1.86,0.1-2.75,0.13l-0.68,0.02l-0.72,0.02l-1.37,0.02
			c-1.82,0.01-3.64,0.01-5.47,0.02c-7.3-0.02-14.63-0.2-21.97-0.31c-3.68-0.06-7.34-0.1-11.04-0.1c-3.68,0-7.48,0.04-11.34-0.3
			c-1.94-0.17-3.85-0.43-5.83-0.83c-0.97-0.2-1.85-0.42-2.65-0.55c-0.82-0.15-1.68-0.23-2.53-0.3c-3.46-0.23-7.09,0.16-10.91,0.45
			c-15.14,0.94-30.35,1.46-45.77,1.65c-7.71,0.1-15.44,0.08-23.19,0.1c-7.76,0.01-15.55,0.02-23.37,0.04
			c-15.65,0.02-31.43,0.05-47.32,0.07c-7.94,0.01-15.94,0.07-23.98-0.11c-4.02-0.08-8.05-0.2-12.08-0.37
			c-2.01-0.08-4.08-0.21-5.97-0.26c-1.94-0.04-3.88-0.02-5.85,0.06c-7.87,0.32-15.87,1.47-24.2,1.74
			c-8.29,0.24-16.48-0.38-24.54-0.71c-2.01-0.08-4.04-0.15-6.02-0.18l-6.09-0.02c-4.08,0-8.17,0-12.26,0.01
			c-8.18,0-16.38,0.01-24.6,0.01c-8.22,0-16.45,0.01-24.69,0.01c-8.12-0.02-16.36,0.56-24.79,0.52c-1.05-0.01-2.11-0.02-3.19-0.05
			c-1.05-0.03-2.06-0.06-3.21-0.14c-2.22-0.17-4.35-0.49-6.39-0.8c-2.05-0.32-4.03-0.61-5.95-0.77c-1.89-0.14-3.94-0.14-5.97-0.13
			c-4.07,0.02-8.19,0.21-12.35,0.36c-4.15,0.16-8.3,0.31-12.45,0.47c-8.32,0.31-16.65,0.62-24.98,0.94
			c-8.46,0.23-16.84-0.14-25.12-0.27c-4.1-0.07-8.29-0.04-12.46-0.04l-12.51,0.01l-25.04,0.01c-16.69-0.01-33.38-0.02-50.06-0.03
			c-8.37,0.09-16.79-0.36-24.87-0.06c-1.11,0.04-1.91,0.08-2.84,0.21c-0.92,0.12-1.86,0.31-2.82,0.52
			c-1.92,0.43-3.96,0.99-6.14,1.43c-0.54,0.11-1.1,0.21-1.66,0.3c-0.56,0.08-1.25,0.18-1.72,0.21c-1.15,0.11-2.12,0.16-3.19,0.24
			c-2.09,0.14-4.19,0.26-6.28,0.36c-8.38,0.4-16.8,0.47-25.2,0.02c-2.1-0.11-4.19-0.25-6.31-0.43l-3.12-0.29l-3.14-0.34
			c-4.11-0.52-8.22-1.03-12.33-1.55c-4.07-0.49-8.1-0.88-12.09-1c-3.9-0.13-8.08,0.12-12.18,0.25c-8.27,0.3-16.56,0.63-25.09-0.16
			c-4.28-0.47-8.28-1.3-12.14-1.63c-3.69-0.36-7.76-0.01-11.77,0.31c-4.02,0.35-8.09,0.82-12.21,1.16
			c-4.13,0.32-8.24,0.57-12.35,0.7c-16.43,0.55-32.68-0.15-48.72-0.38c-4-0.05-8.03-0.1-11.99-0.04c-3.99,0.05-8.03,0.15-12.12,0.06
			c-2.04-0.05-4.1-0.14-6.16-0.32c-2.08-0.16-4.19-0.48-6.03-0.72c-3.82-0.46-7.69-0.61-11.58-0.59c-3.88,0.03-7.78,0.25-11.68,0.57
			c-3.88,0.32-7.76,0.8-11.68,1.28c-7.82,0.97-15.82,1.95-23.96,1.52c-1.02-0.06-2.08-0.15-3.1-0.24l-1.45-0.18l-0.73-0.09
			l-0.81-0.12c-2.01-0.31-3.95-0.71-5.83-1.06c-1.89-0.35-3.69-0.64-5.55-0.8c-1.85-0.17-3.71-0.27-5.6-0.28
			c-3.76-0.04-7.57,0.17-11.43,0.38c-1.93,0.1-3.88,0.2-5.83,0.27c-0.99,0.02-2,0.06-2.95,0.06l-2.91,0
			c-15.37-0.04-30.6-0.07-45.66-0.11c-1.83,0-3.89-0.01-5.82-0.18c-1.95-0.15-3.85-0.39-5.71-0.63c-3.73-0.48-7.27-0.93-10.79-0.8
			c-7.05,0.27-14.42,2.09-22.06,2.27c-7.78,0.13-15.05-1.35-22.13-2.04c-1.77-0.19-3.53-0.29-5.27-0.36c-0.86,0-1.76-0.04-2.58,0
			l-1.26,0.03l-1.35,0.1l-0.62,0.05l-0.68,0.06l-1.36,0.12l-2.72,0.23c-1.81,0.15-3.62,0.26-5.43,0.35
			c-14.45,0.78-28.63,0.38-42.54,0.39c-13.94-0.04-27.66-0.08-41.16-0.13c-26.99-0.08-53.07-0.16-78.11-0.24
			c-50.06-0.18-95.96-0.35-136.64-0.5c-2.53,0.05-5.03,0.16-7.49,0.35c-1.21,0.1-2.48,0.22-3.74,0.3c-1.26,0.06-2.52,0.13-3.76,0.12
			c-4.99,0.03-9.85-0.43-14.59-0.97c-4.74-0.54-9.36-1.2-13.89-1.7c-2.25-0.25-4.52-0.45-6.74-0.62c-2.23-0.17-4.42-0.28-6.57-0.21
			c-4.32,0.13-8.54,0.94-12.73,1.57c-2.09,0.32-4.19,0.6-6.28,0.74c-2.09,0.14-4.14,0.17-6.17,0.16c-4.06-0.03-7.99-0.23-11.82-0.28
			c-3.84-0.02-7.59-0.04-11.24-0.06C6896.33,434.13,6862.95,433.92,6862.95,433.92z"/>
	</g>
</g>
<g id="_x30_6L_x5F_Print_x5F_Back">
</g>
<g id="_x30_6L_x5F_Copper_x5F_Front">
</g>
<g id="_x30_5L_x5F_Print_x5F_Back">
</g>
<g id="_x30_5L_x5F_Copper_x5F_Front">
</g>
<g id="_x30_8L_x5F_Print_x5F_Back">
</g>
<g id="_x30_8L_x5F_Copper_x5F_Front">
</g>
<g id="_x30_4L_x5F_Print_x5F_Back">
</g>
<g id="_x30_4L_x5F_Copper_x5F_Front">
</g>
<g id="_x30_3L_x5F_Print_x5F_Back">
</g>
<g id="_x30_3L_x5F_Copper_x5F_Front">
</g>
<g id="_x30_2L_x5F_Print_x5F_Back">
</g>
<g id="_x30_2L_x5F_Copper_x5F_Front">
</g>
<g id="_x30_7_x5F_Print_Back">
</g>
<g id="_x30_7L_x5F_Copper_x5F_Front">
</g>
<g id="_x30_1L_x5F_Print_x5F_Back">
</g>
<g id="_x30_1L_x5F_Copper_x5F_Front">
</g>
<g id="AR_x5F_layer">
	<circle opacity="0.75" fill="#333" cx="2423.83" cy="579.94" r="26.78"/>
	<circle opacity="0.75" fill="#333" cx="2423.83" cy="579.94" r="26.78"/>
	<circle opacity="0.75" fill="#333" cx="2423.83" cy="579.94" r="26.78"/>
	<circle opacity="0.75" fill="#333" cx="2313.45" cy="570.04" r="26.78"/>
	<circle opacity="0.75" fill="#333" cx="2313.45" cy="570.04" r="26.78"/>
	<circle opacity="0.75" fill="#333" cx="2313.45" cy="570.04" r="26.78"/>
	<circle opacity="0.75" fill="#333" cx="2313.45" cy="570.04" r="26.78"/>
	<circle opacity="0.75" fill="#333" cx="2423.83" cy="579.94" r="26.78"/>
	<circle opacity="0.75" fill="#333" cx="1965.61" cy="507.47" r="26.78"/>
	<circle opacity="0.75" fill="#333" cx="1965.61" cy="507.47" r="26.78"/>
	<circle opacity="0.75" fill="#333" cx="1965.61" cy="507.47" r="26.78"/>
	<circle opacity="0.75" fill="#333" cx="1965.61" cy="507.47" r="26.78"/>
	<circle opacity="0.75" fill="#333" cx="1709.88" cy="474.47" r="26.78"/>
	<circle opacity="0.75" fill="#333" cx="1709.88" cy="474.47" r="26.78"/>
	<circle opacity="0.75" fill="#333" cx="2156.45" cy="527.04" r="26.78"/>
	<circle opacity="0.75" fill="#333" cx="1870.16" cy="529.48" r="26.78"/>
	<circle opacity="0.75" fill="#333" cx="1549.43" cy="309.44" r="26.78"/>
	<circle opacity="0.75" fill="#333" cx="1410.69" cy="366.09" r="26.78"/>
	<circle opacity="0.75" fill="#333" cx="1549.43" cy="309.44" r="26.78"/>
	<circle opacity="0.75" fill="#333" cx="1410.69" cy="366.09" r="26.78"/>
	<circle opacity="0.75" fill="#333" cx="1549.43" cy="309.44" r="26.78"/>
	<circle opacity="0.75" fill="#333" cx="1410.69" cy="366.09" r="26.78"/>
	<circle opacity="0.75" fill="#333" cx="1549.43" cy="309.44" r="26.78"/>
	<circle opacity="0.75" fill="#333" cx="1410.69" cy="366.09" r="26.78"/>
	<circle opacity="0.75" fill="#333" cx="1260.74" cy="338.92" r="26.78"/>
	<circle opacity="0.75" fill="#333" cx="1173.42" cy="285.37" r="26.78"/>
	<circle opacity="0.75" fill="#333" cx="1260.74" cy="338.92" r="26.78"/>
	<circle opacity="0.75" fill="#333" cx="1173.42" cy="285.37" r="26.78"/>
	<circle opacity="0.75" fill="#333" cx="1260.74" cy="338.92" r="26.78"/>
	<circle opacity="0.75" fill="#333" cx="1173.42" cy="285.37" r="26.78"/>
	<circle opacity="0.75" fill="#333" cx="1260.74" cy="338.92" r="26.78"/>
	<circle opacity="0.75" fill="#333" cx="1173.42" cy="285.37" r="26.78"/>
	<circle opacity="0.75" fill="#333" cx="897.14" cy="389.13" r="26.78"/>
	<circle opacity="0.75" fill="#333" cx="1040.02" cy="467.71" r="26.78"/>
	<circle opacity="0.75" fill="#333" cx="897.14" cy="389.13" r="26.78"/>
	<circle opacity="0.75" fill="#333" cx="1040.02" cy="467.71" r="26.78"/>
	<circle opacity="0.75" fill="#333" cx="897.14" cy="389.13" r="26.78"/>
	<circle opacity="0.75" fill="#333" cx="1040.02" cy="467.71" r="26.78"/>
	<circle opacity="0.75" fill="#333" cx="897.14" cy="389.13" r="26.78"/>
	<circle opacity="0.75" fill="#333" cx="1040.02" cy="467.71" r="26.78"/>
	<circle opacity="0.75" fill="#333" cx="1144.98" cy="412.3" r="26.78"/>
	<circle opacity="0.75" fill="#333" cx="953.52" cy="487.62" r="26.78"/>
	<circle opacity="0.75" fill="#333" cx="679.36" cy="361.1" r="26.78"/>
	<circle opacity="0.75" fill="#333" cx="780.26" cy="330.59" r="26.78"/>
	<circle opacity="0.75" fill="#333" cx="679.36" cy="361.1" r="26.78"/>
	<circle opacity="0.75" fill="#333" cx="780.26" cy="330.59" r="26.78"/>
	<circle opacity="0.75" fill="#333" cx="679.36" cy="361.1" r="26.78"/>
	<circle opacity="0.75" fill="#333" cx="780.26" cy="330.59" r="26.78"/>
	<circle opacity="0.75" fill="#333" cx="679.36" cy="361.1" r="26.78"/>
	<circle opacity="0.75" fill="#333" cx="780.26" cy="330.59" r="26.78"/>
	<circle opacity="0.75" fill="#333" cx="2423.83" cy="579.94" r="26.78"/>
	<circle opacity="0.75" fill="#333" cx="2423.83" cy="579.94" r="26.78"/>
	<circle opacity="0.75" fill="#333" cx="2423.83" cy="579.94" r="26.78"/>
	<circle opacity="0.75" fill="#333" cx="2313.45" cy="570.04" r="26.78"/>
	<circle opacity="0.75" fill="#333" cx="2313.45" cy="570.04" r="26.78"/>
	<circle opacity="0.75" fill="#333" cx="2313.45" cy="570.04" r="26.78"/>
	<circle opacity="0.75" fill="#333" cx="1965.61" cy="507.47" r="26.78"/>
	<circle opacity="0.75" fill="#333" cx="1965.61" cy="507.47" r="26.78"/>
	<circle opacity="0.75" fill="#333" cx="1965.61" cy="507.47" r="26.78"/>
	<circle opacity="0.75" fill="#333" cx="1709.88" cy="474.47" r="26.78"/>
	<circle opacity="0.75" fill="#333" cx="1549.43" cy="309.44" r="26.78"/>
	<circle opacity="0.75" fill="#333" cx="1549.43" cy="309.44" r="26.78"/>
	<circle opacity="0.75" fill="#333" cx="1549.43" cy="309.44" r="26.78"/>
	<circle opacity="0.75" fill="#333" cx="1260.74" cy="338.92" r="26.78"/>
	<circle opacity="0.75" fill="#333" cx="1173.42" cy="285.37" r="26.78"/>
	<circle opacity="0.75" fill="#333" cx="1260.74" cy="338.92" r="26.78"/>
	<circle opacity="0.75" fill="#333" cx="1173.42" cy="285.37" r="26.78"/>
	<circle opacity="0.75" fill="#333" cx="1260.74" cy="338.92" r="26.78"/>
	<circle opacity="0.75" fill="#333" cx="1173.42" cy="285.37" r="26.78"/>
	<circle opacity="0.75" fill="#333" cx="897.14" cy="389.13" r="26.78"/>
	<circle opacity="0.75" fill="#333" cx="1040.02" cy="467.71" r="26.78"/>
	<circle opacity="0.75" fill="#333" cx="897.14" cy="389.13" r="26.78"/>
	<circle opacity="0.75" fill="#333" cx="1040.02" cy="467.71" r="26.78"/>
	<circle opacity="0.75" fill="#333" cx="897.14" cy="389.13" r="26.78"/>
	<circle opacity="0.75" fill="#333" cx="1040.02" cy="467.71" r="26.78"/>
	<circle opacity="0.75" fill="#333" cx="679.36" cy="361.1" r="26.78"/>
	<circle opacity="0.75" fill="#333" cx="780.26" cy="330.59" r="26.78"/>
	<circle opacity="0.75" fill="#333" cx="679.36" cy="361.1" r="26.78"/>
	<circle opacity="0.75" fill="#333" cx="780.26" cy="330.59" r="26.78"/>
	<circle opacity="0.75" fill="#333" cx="679.36" cy="361.1" r="26.78"/>
	<circle opacity="0.75" fill="#333" cx="780.26" cy="330.59" r="26.78"/>
</g>
</svg>
