<?xml version="1.0" encoding="UTF-8" standalone="no"?>
<!-- Generator: Adobe Illustrator 18.0.0, SVG Export Plug-In . SVG Version: 6.00 Build 0)  -->

<svg
   version="1.1"
   id="Layer_4"
   x="0px"
   y="0px"
   width="9451.45px"
   height="623.52px"
   viewBox="0 0 9451.45 623.52"
   enable-background="new 0 0 9451.45 623.52"
   xml:space="preserve"
   sodipodi:docname="63 Sound Pollution_mask-01-01.svg"
   inkscape:version="1.1.1 (c3084ef, 2021-09-22)"
   xmlns:inkscape="http://www.inkscape.org/namespaces/inkscape"
   xmlns:sodipodi="http://sodipodi.sourceforge.net/DTD/sodipodi-0.dtd"
   xmlns="http://www.w3.org/2000/svg"
   xmlns:svg="http://www.w3.org/2000/svg"><defs
   id="defs829"><inkscape:path-effect
     effect="fill_between_many"
     method="originald"
     linkedpaths="#path991,0,1"
     id="path-effect1015" /></defs><sodipodi:namedview
   id="namedview827"
   pagecolor="#505050"
   bordercolor="#eeeeee"
   borderopacity="1"
   inkscape:pageshadow="0"
   inkscape:pageopacity="0"
   inkscape:pagecheckerboard="0"
   showgrid="false"
   inkscape:zoom="2.0463295"
   inkscape:cx="6855.9341"
   inkscape:cy="140.7398"
   inkscape:window-width="1312"
   inkscape:window-height="762"
   inkscape:window-x="0"
   inkscape:window-y="25"
   inkscape:window-maximized="0"
   inkscape:current-layer="Layer_4" />
<path
   id="path1017"
   d="M 6765.377 75.095703 C 6764.7127 75.182386 6763.9521 75.596775 6763.0781 76.337891 C 6762.2098 77.074235 6758.8225 78.496287 6755.5488 79.496094 C 6752.2752 80.4959 6748.4502 82.471437 6747.0488 83.886719 C 6744.0771 86.88794 6742.3809 86.776651 6739.1582 83.367188 C 6735.8783 79.897226 6733.9254 80.708213 6731.0176 86.75 C 6728.2234 92.555781 6724.6855 95.601263 6721.2598 95.152344 C 6718.4532 94.784567 6718.2873 96.89703 6720.8711 100.08789 C 6722.6398 102.27219 6722.8718 102.31086 6725.1211 100.78906 C 6729.7575 97.652141 6733.9217 93.157029 6734.5645 90.595703 C 6734.9228 89.168061 6735.3078 88 6735.4199 88 C 6735.5319 88 6737.4869 88.9 6739.7637 90 C 6745.1297 92.592566 6745.4936 92.551739 6748.6582 89 C 6750.1283 87.35 6752.1631 86 6753.1797 86 C 6754.1962 86 6755.9356 85.4375 6757.0449 84.75 C 6758.6873 83.732127 6759.2217 83.75668 6759.9238 84.884766 C 6760.467 85.757578 6761.6686 86.049659 6763.1738 85.671875 C 6764.912 85.235612 6765.9071 85.621429 6766.8242 87.089844 C 6767.6606 88.429282 6768.7152 88.907114 6769.9609 88.511719 C 6771.2313 88.108508 6772.0261 88.496353 6772.418 89.708984 C 6773.1107 91.851959 6777.5661 94.103659 6779.582 93.330078 C 6780.3715 93.02714 6781.2863 91.707017 6781.6152 90.396484 C 6782.3691 87.392646 6783.648 88.121089 6784.5098 92.044922 C 6784.8749 93.706916 6786.4465 96.459048 6788.002 98.162109 C 6790.2736 100.64917 6791.3425 101.13175 6793.4316 100.60742 C 6795.5898 100.06576 6796.1943 100.38312 6796.9902 102.47656 C 6798.0223 105.1912 6799.0031 105.59647 6800.623 103.97656 C 6801.3212 103.27839 6802.2294 103.59633 6803.4785 104.97656 C 6805.127 106.79809 6805.144 107.01248 6803.6543 107.125 C 6802.744 107.19375 6801.4375 107.33306 6800.75 107.43555 C 6800.0625 107.53805 6798.9917 107.24712 6798.3711 106.78906 C 6797.7505 106.33099 6796.1122 106.38678 6794.7305 106.91211 C 6792.8143 107.64064 6791.9103 109.06931 6790.9199 112.93359 C 6790.2057 115.72008 6789.3003 118 6788.9082 118 C 6788.5162 118 6787.8818 115.295 6787.498 111.98828 C 6786.776 105.76778 6784.201 101.14023 6782.1621 102.40039 C 6781.523 102.79536 6780.9858 104.32855 6780.9668 105.80859 C 6780.9481 107.28863 6780.0627 110.3 6779 112.5 C 6777.9373 114.7 6777.0522 117.0625 6777.0332 117.75 C 6777.0146 118.4375 6776.1 119.9 6775 121 C 6773.9 122.1 6773 124.32387 6773 125.94141 C 6773 130.06942 6771.6833 130.41601 6769.1289 126.96094 C 6766.5587 123.48464 6763.4221 123.09813 6762.457 126.13867 C 6761.8122 128.17036 6761.6789 128.12055 6759.791 125.13867 C 6757.4602 121.45742 6756.6995 121.34866 6751.5527 123.97266 C 6748.0065 125.7806 6747.5816 125.81014 6746.4922 124.32031 C 6745.8382 123.42595 6744.8299 122.98732 6744.25 123.3457 C 6743.6573 123.712 6742.7348 122.67957 6742.1445 120.98633 C 6740.8927 117.39532 6738.7121 116.35564 6735.1328 117.64453 C 6733.4173 118.26229 6731.5107 118.22854 6729.6621 117.54688 C 6727.2375 116.65276 6726.5736 116.81146 6725.0898 118.64258 C 6724.1349 119.82104 6722.4855 120.95336 6721.4258 121.1582 C 6719.9685 121.43991 6719.5 122.37027 6719.5 124.97656 C 6719.5 128.42217 6719.5003 128.42111 6725.8945 128.50391 C 6730.4973 128.56354 6732.8724 128.11399 6734.3711 126.90039 C 6736.3696 125.28216 6736.526 125.33529 6738.2676 128.19922 C 6739.3792 130.02712 6740.6355 130.97027 6741.5098 130.63477 C 6744.1212 129.63268 6744.2712 132.14936 6741.9121 137.35352 C 6738.8918 144.01622 6739.102 143.83893 6737.1074 141.37891 C 6734.3508 137.97921 6731.4211 137.56445 6727.8965 140.07422 C 6726.1901 141.28922 6723.8274 142.33093 6722.6465 142.39062 C 6720.0866 142.52003 6719.6996 145.77662 6722.0664 147.26953 C 6723.2213 147.99805 6724.7577 147.54696 6727.9199 145.55078 C 6732.2072 142.84429 6732.2064 142.84538 6734.1992 144.98438 C 6735.2952 146.16083 6737.3521 147.56265 6738.7695 148.10156 C 6741.9244 149.30104 6743.0322 148.27153 6745.3281 142 C 6746.7309 138.16772 6747.3835 137.4953 6749.7363 137.4668 C 6751.2559 137.4484 6752.7814 137.83284 6753.125 138.32227 C 6753.4686 138.8117 6755.1746 139.32395 6756.916 139.46094 C 6758.6575 139.59793 6760.9913 140.68527 6762.1016 141.87695 C 6763.2118 143.06862 6764.5107 143.803 6764.9883 143.50781 C 6765.4659 143.21263 6766.1519 143.90301 6766.5137 145.04297 C 6767.4658 148.04269 6772.3761 147.38064 6772.8281 144.19141 C 6773.2672 141.09369 6776.0906 141.70181 6777.7969 145.26172 C 6779.5813 148.98482 6781.6799 148.70164 6783.4355 144.5 C 6784.2398 142.575 6785.1313 141 6785.416 141 C 6785.7008 141 6787.4109 142.47416 6789.2168 144.27539 C 6792.5001 147.55036 6792.4999 147.55036 6790.9102 158.02539 C 6789.8981 164.69436 6789.1714 167.40996 6788.9102 165.5 C 6788.5714 163.02272 6787.9773 162.44214 6785.5 162.16406 C 6783.85 161.97884 6782.1291 161.17053 6781.6758 160.36914 C 6781.2044 159.53584 6780.0892 159.15514 6779.0703 159.47852 C 6777.6792 159.92004 6776.9166 159.06858 6775.5918 155.59961 C 6774.6586 153.15603 6773.1955 150.57765 6772.3418 149.86914 C 6771.0243 148.77577 6770.3639 149.10482 6767.9668 152.04102 C 6765.1425 155.50046 6765.1412 155.50065 6764.0703 152.68555 C 6763.4813 151.13725 6763 149.04306 6763 148.0332 C 6763 145.73424 6756.8252 141.97183 6754.1855 142.66211 C 6753.0481 142.95957 6751.4619 145.03462 6750.3945 147.62305 C 6749.2567 150.38208 6747.7682 152.27151 6746.4766 152.5957 C 6745.3309 152.88325 6743.8953 154.44033 6743.2852 156.05664 C 6741.765 160.0842 6739.4379 160.75879 6737.0762 157.85742 C 6735.1568 155.49953 6735.1565 155.49953 6732.2832 158.24023 C 6729.6477 160.7541 6729.2782 160.84849 6727.8086 159.37891 C 6726.444 158.01436 6725.6599 157.95837 6722.5215 158.99414 C 6719.215 160.08536 6718.9034 160.48186 6719.4883 162.85547 C 6720.2834 166.08178 6731.4052 177 6733.8965 177 C 6735.9782 177 6738.4773 174.43844 6739.4199 171.33984 C 6740.3824 168.17622 6742.8016 166.40117 6744.2188 167.81836 C 6745.064 168.66368 6744.9254 169.42386 6743.6758 170.80469 C 6742.7538 171.82349 6742 173.42292 6742 174.35938 C 6742 175.29584 6741.3519 176.31151 6740.5605 176.61523 C 6739.7691 176.91892 6738.8175 178.59243 6738.4453 180.33398 C 6738.0732 182.07553 6737.3236 184.05257 6736.7793 184.72852 C 6735.4121 186.42659 6732.3902 184.68704 6731.6543 181.77734 C 6730.7118 178.0514 6723.5665 170.56819 6721.6523 171.30273 C 6719.4161 172.16085 6719.5642 174.69615 6721.9238 175.95898 C 6722.9818 176.52521 6725.0314 179.40948 6726.4785 182.36719 C 6728.222 185.93069 6730.2133 188.33942 6732.3828 189.50781 C 6735.487 191.17947 6735.7935 191.18008 6738.2891 189.54492 C 6739.7368 188.59634 6741.1826 187.00194 6741.5 186.00195 C 6741.8174 185.00196 6742.7253 183.93562 6743.5195 183.63086 C 6744.3137 183.3261 6745.2542 181.26011 6745.6094 179.03906 C 6746.0884 176.04358 6746.7234 175 6748.0684 175 C 6749.0656 175 6750.1601 174.55 6750.5 174 C 6751.5158 172.35637 6752.6118 172.85163 6753.8184 175.5 C 6754.4449 176.875 6755.4858 178 6756.1328 178 C 6757.7234 178 6765 185.74293 6765 187.43555 C 6765 189.15237 6767.7237 190.22216 6770.1406 189.45508 C 6771.7072 188.95787 6772 189.40769 6772 192.31055 C 6772 197.68017 6774.4155 198.90782 6780.25 196.50586 C 6781.7932 195.87055 6782 196.44261 6782 201.3457 C 6782 206.73442 6782.1099 206.95915 6785.5586 208.5957 C 6788.0859 209.79501 6789.4275 209.97284 6790.1875 209.21289 C 6790.9474 208.4529 6791.7979 208.48249 6793.127 209.3125 C 6794.7087 210.30028 6795.4251 210.01946 6797.75 207.50586 C 6800.4702 204.56477 6800.5044 204.5589 6800.8281 206.82617 C 6801.0894 208.65668 6801.6907 209.0553 6803.8125 208.80859 C 6806.3308 208.51577 6806.5643 208.00328 6808.2812 199 C 6811.2149 183.61765 6810.9286 184.49409 6812.4746 186.09375 C 6813.222 186.86708 6814.1351 190.425 6814.5039 194 C 6814.8727 197.575 6815.5547 200.89728 6816.0195 201.38281 C 6817.8612 203.30666 6819.7425 201.00478 6820.4043 196.01562 C 6820.8691 192.51181 6821.4728 191.04343 6822.293 191.42969 C 6822.9565 191.74218 6824.2875 192.27573 6825.25 192.61523 C 6826.2125 192.95473 6827 194.06033 6827 195.07031 C 6827 197.79862 6829.1462 202 6830.5391 202 C 6832.42 202 6834.25 199.26475 6834.25 196.45508 C 6834.25 193.01546 6835.2686 194.27701 6836.4922 199.23047 C 6837.7259 204.22492 6840.4943 206.33624 6842.418 203.75 C 6844.3037 201.21484 6845.8679 201.60313 6845.5469 204.52734 C 6845.2025 207.66519 6849.0786 210.6993 6854.0371 211.17188 C 6856.6452 211.42044 6857.8053 212.17069 6858.7969 214.25 C 6860.1653 217.11929 6862.5028 217.89949 6863.291 215.75 C 6863.6576 214.75 6864.0142 214.75 6865.0742 215.75 C 6866.925 217.496 6869.8379 217.30695 6871.8223 215.3125 C 6873.3964 213.73042 6873.5207 213.76154 6873.8203 215.8125 C 6874.1528 218.08799 6877.3358 218.88386 6878.5098 216.98438 C 6879.4247 215.50404 6881.1011 216.86547 6880.7773 218.82617 C 6880.5824 220.00663 6881.2377 220.51855 6883 220.56445 C 6884.375 220.60028 6886.4066 221.12235 6887.5156 221.72461 C 6889.0209 222.54204 6890.1505 222.48966 6891.9668 221.51758 C 6893.3051 220.80137 6894.9907 220.44356 6895.7129 220.7207 C 6896.4352 220.99784 6897.6398 220.71296 6898.3906 220.08984 C 6899.4568 219.20497 6899.8724 219.4 6900.2852 220.97852 C 6900.9699 223.59655 6904.3923 223.60767 6907 221 C 6909 219 6909 218.99987 6909 222.03125 C 6909 225.44687 6911.2143 226.89862 6913.5137 224.99023 C 6914.6955 224.00945 6915 224.01193 6915 225.00781 C 6915 225.8804 6916.0583 226.09064 6918.4824 225.69727 C 6920.3973 225.38652 6922.2413 225.58349 6922.582 226.13477 C 6922.9227 226.68605 6923.8894 226.87277 6924.7285 226.55078 C 6925.5676 226.2288 6926.7644 226.39006 6927.3887 226.9082 C 6928.013 227.42634 6929.8682 227.99693 6931.5117 228.17578 C 6933.4834 228.39035 6934.6852 229.18032 6935.0449 230.5 C 6935.521 232.24694 6936.4383 232.5 6942.2949 232.5 C 6946.9922 232.5 6949 232.87429 6949 233.75 C 6949 234.4375 6949.3969 235 6949.8828 235 C 6950.3686 235 6951.0015 235.9 6951.2891 237 C 6951.6446 238.35924 6952.6535 239 6954.4375 239 C 6955.8812 239 6957.3221 239.675 6957.6387 240.5 C 6957.9553 241.325 6959.2356 242 6960.4844 242 C 6961.7333 242 6963.3153 242.675 6964 243.5 C 6964.6847 244.325 6965.9779 245.02148 6966.873 245.04688 C 6967.7682 245.07231 6969.4 246.19128 6970.5 247.53516 C 6972.8486 250.40444 6974.6536 250.62471 6977.1719 248.3457 C 6980.7905 245.0709 6979.0269 233 6974.9297 233 C 6974.419 233 6974 232.325 6974 231.5 C 6974 230.675 6973.3856 230 6972.6348 230 C 6971.8839 230 6970.1269 229.1 6968.7285 228 C 6968.0293 227.45 6967.2491 226.95039 6966.5566 226.58789 C 6965.8642 226.22539 6965.2597 226 6964.9082 226 C 6964.7325 226 6964.4308 225.88672 6964.0371 225.68359 C 6962.8562 225.07422 6960.8416 223.65 6958.8848 222 C 6956.2758 219.8 6953.2111 218 6952.0723 218 C 6951.5029 218 6950.9847 217.91435 6950.6094 217.77734 C 6950.2341 217.64034 6950 217.45201 6950 217.24414 C 6950 215.81193 6943.9 213.70159 6942.8359 214.76562 C 6940.9232 216.67839 6938.1268 214.94504 6937.8066 211.64844 C 6937.4401 207.87467 6935.0876 207.44195 6933.3945 210.83789 C 6932.6404 212.35056 6931.9797 212.77339 6931.5234 212.03516 C 6931.1355 211.40748 6930.2953 211.07036 6929.6582 211.28516 C 6929.0211 211.49997 6927.9838 210.97353 6927.3516 210.11523 C 6926.3561 208.7637 6925.8584 208.73709 6923.6445 209.92188 C 6921.4165 211.11427 6920.3453 211.04222 6915.2949 209.35352 C 6910.3952 207.71522 6909.3399 206.9274 6908.4648 204.25586 C 6906.986 199.74087 6906.5294 199.53614 6901.7734 201.25781 C 6899.4236 202.10841 6896.0375 203.0619 6894.25 203.37695 C 6891.2943 203.89788 6891 203.72228 6891 201.43945 C 6891 198.06067 6888.2078 194 6885.8848 194 C 6884.702 194 6884 193.29526 6884 192.10742 C 6884 190.14027 6881.4943 188.57758 6879.9102 189.55664 C 6879.4098 189.86589 6879 191.24903 6879 192.63086 C 6879 195.18303 6876.9714 198 6875.1328 198 C 6874.5767 198 6873.9812 196.3125 6873.8105 194.25 C 6873.5078 190.5934 6873.4004 190.5 6869.5 190.5 C 6865.7377 190.5 6865.4829 190.68896 6865.1934 193.67578 C 6865.0241 195.42232 6864.2366 197.39053 6863.4434 198.04883 C 6862.2192 199.06479 6861.9845 198.43325 6861.8965 193.87305 C 6861.8024 188.99413 6861.4863 182.3071 6861.1348 177.75 C 6861.0547 176.71167 6860.1867 176 6859 176 C 6857.1612 176 6856.9909 176.70512 6856.8848 184.75 C 6856.8214 189.5625 6856.6648 193.95 6856.5371 194.5 C 6856.4093 195.05 6856.2363 196.1332 6856.1523 196.90625 C 6855.9492 198.78095 6851.2519 193.49221 6849.4336 189.3418 C 6848.6726 187.60469 6847.6265 186.02969 6847.1094 185.8418 C 6846.3221 185.55569 6845.4742 176.23538 6845.8809 172.3457 C 6846.0144 171.06856 6853.3214 170.07776 6862.4297 170.10156 C 6866.6764 170.11266 6869.1312 170.66805 6871.084 172.05859 C 6873.1668 173.54161 6875.4833 174 6880.9043 174 C 6884.8069 174 6888 174.40738 6888 174.90625 C 6888 176.14276 6902.7498 176.21713 6903.5117 174.98438 C 6903.8461 174.44337 6904.9061 174 6905.8691 174 C 6906.1099 174 6906.5376 173.90322 6907.1016 173.72852 C 6908.7933 173.20442 6911.7229 171.97965 6914.6035 170.56055 C 6917.5427 169.1126 6920.2257 168.11121 6922.9609 167.52148 C 6923.8727 167.32491 6924.7918 167.17282 6925.7266 167.06641 C 6929.4657 166.64074 6933.4788 166.92698 6938.5 167.83984 C 6941.8 168.43979 6946.4166 169.1461 6948.7578 169.41016 C 6953.7676 169.9752 6955 170.59986 6955 172.57422 C 6955 173.55601 6955.9183 173.96103 6957.8164 173.81641 C 6959.3858 173.69682 6961.9318 174.53471 6963.5664 175.70898 C 6967.9258 178.8407 6972.2962 183.71153 6971.6641 184.73438 C 6971.3589 185.22814 6972.3838 186.38655 6973.9414 187.30664 C 6976.3797 188.74698 6976.9384 188.78006 6977.957 187.55273 C 6978.808 186.52731 6978.8445 185.57583 6978.0879 184.16211 C 6977.3492 182.78175 6977.3575 181.27695 6978.1152 179.10352 C 6978.9211 176.79081 6978.8812 165.2905 6978.0527 161.25 C 6978.0245 161.1125 6977.1359 161 6976.0781 161 C 6975.0203 161 6972.7522 159.82032 6971.0391 158.37891 C 6968.0887 155.89627 6967.8255 155.84737 6966.0469 157.45703 C 6964.2923 159.04486 6964.003 159.04778 6961.6289 157.49219 C 6960.2316 156.57663 6958.6191 156.11779 6958.0449 156.47266 C 6956.5636 157.38817 6956.7435 155.44723 6958.25 154.26172 C 6960.3559 152.60442 6967.3152 151.98487 6970.5762 153.16406 C 6971.2524 153.40858 6971.8033 153.58204 6972.2871 153.67383 C 6972.7709 153.76561 6973.1874 153.77402 6973.5918 153.68945 C 6974.4006 153.52033 6975.1633 152.97519 6976.332 151.95898 C 6978.4428 150.12367 6979 148.74904 6979 145.37891 C 6979 143.03555 6978.5837 140.8598 6978.0742 140.54492 C 6977.5058 140.19361 6977.5058 138.72421 6978.0742 136.74219 C 6979.2406 132.67358 6979.2517 123.94469 6978.0918 122.11328 C 6976.9038 120.23725 6966.957 120.15081 6963.5273 121.98633 C 6961.6108 123.01202 6960.4082 123.11562 6959.1875 122.36328 C 6958.2589 121.79102 6955.8756 121.51662 6953.8906 121.75391 C 6951.6294 122.02424 6950.679 121.93829 6950.1523 121.14062 C 6949.9768 120.87474 6949.8487 120.53088 6949.7344 120.09375 C 6949.4333 118.94263 6948.4758 118 6947.6055 118 C 6944.7261 118 6942.0768 114.69593 6941.4141 110.27734 C 6940.7707 105.98646 6938.9208 104 6935.5664 104 C 6934.7053 104 6934 104.68898 6934 105.53125 C 6934 106.37351 6933.2125 107.34097 6932.25 107.68164 C 6931.2875 108.02231 6929.1552 109.69582 6927.5117 111.40039 C 6924.5991 114.42136 6924.5165 114.44319 6924.1934 112.25 C 6923.8779 110.10891 6922.9903 109.57675 6920.3027 109.91406 C 6919.6439 109.99674 6918.6157 109.14877 6918.0176 108.03125 C 6917.4196 106.91374 6916.292 106 6915.5137 106 C 6914.7354 106 6913.7386 105.4375 6913.2988 104.75 C 6912.859 104.0625 6911.7034 102.87473 6910.7305 102.11133 C 6909.1996 100.90995 6908.6954 100.96567 6906.9805 102.51758 C 6905.8909 103.50372 6905 105.1025 6905 106.07227 C 6905 109.60962 6903.803 111 6900.7539 111 C 6899.0273 111 6897.1617 110.24635 6896.4219 109.25 C 6895.3072 107.74865 6894.8178 107.68499 6892.9824 108.80664 C 6891.3405 109.81012 6890.515 109.84278 6889.4336 108.94531 C 6888.6587 108.30238 6887.4163 108.00928 6886.6719 108.29492 C 6885.9276 108.58057 6884.6941 108.43027 6883.9316 107.95898 C 6883.0745 107.42931 6881.9647 107.612 6881.0234 108.43945 C 6879.1649 110.07317 6875 108.78906 6875 106.58203 C 6875 105.76664 6874.3114 104.71461 6873.4707 104.24414 C 6872.63 103.77367 6871.1482 101.16272 6870.1777 98.443359 C 6868.8612 94.7543 6867.8445 93.418113 6866.168 93.175781 C 6864.5995 92.949054 6863.7443 91.967809 6863.3359 89.925781 C 6863.0142 88.316914 6862.4093 87 6861.9922 87 C 6861.5751 87 6860.9986 86.1 6860.7109 85 C 6860.3119 83.474031 6859.346 83 6856.6387 83 C 6853.3277 83 6853.0438 83.250784 6852.4004 86.75 C 6851.5653 91.29124 6850.4419 92.159208 6847.2676 90.712891 C 6845.4845 89.900482 6844.3647 89.917035 6842.9902 90.775391 C 6841.3605 91.793198 6841.0868 91.597893 6840.8125 89.21875 C 6840.5201 86.681885 6840.2137 86.517754 6836.2168 86.771484 C 6832.855 86.984896 6831.301 87.738116 6828.9961 90.271484 C 6827.3808 92.04692 6826.0453 94.261365 6826.0293 95.191406 C 6826.0132 96.121447 6825.55 97.160081 6825 97.5 C 6824.45 97.839919 6824 98.900322 6824 99.857422 C 6824 101.2574 6823.3157 101.51817 6820.5 101.18945 C 6818.3738 100.94124 6817 100.23538 6817 99.390625 C 6817 98.625798 6816.1 98 6815 98 C 6813.9 98 6813 98.45 6813 99 C 6813 99.55 6812.325 100 6811.5 100 C 6810.6667 100 6810 99.111111 6810 98 C 6810 96.439843 6809.3335 96 6806.9688 96 C 6805.1899 96 6803.6989 95.376778 6803.3594 94.492188 C 6803.0413 93.663057 6801.5927 92.970082 6800.1406 92.951172 C 6798.6886 92.932262 6796.15 92.89787 6794.5 92.875 C 6791.146 92.828509 6788.0041 90.519622 6787.9941 88.095703 C 6787.9911 87.218447 6787.5201 84.8125 6786.9473 82.75 C 6785.6461 78.064578 6782.8539 77.747475 6780.3418 82 C 6778.0844 85.821606 6776.4617 85.794127 6774.4492 81.902344 C 6773.2592 79.601001 6772.3398 78.939607 6770.8691 79.324219 C 6769.4333 79.699693 6768.6384 79.1761 6767.9707 77.419922 C 6767.3242 75.719531 6766.484 74.951232 6765.377 75.095703 z " />
</svg>
