<?xml version="1.0" encoding="UTF-8" standalone="no"?>
<!-- Generator: Adobe Illustrator 18.0.0, SVG Export Plug-In . SVG Version: 6.00 Build 0)  -->

<svg
   version="1.1"
   id="Layer_1"
   x="0px"
   y="0px"
   width="9944.84px"
   height="623.51px"
   viewBox="0 0 9944.84 623.51"
   enable-background="new 0 0 9944.84 623.51"
   xml:space="preserve"
   sodipodi:docname="64_plankton_legend-01.svg"
   inkscape:version="1.1.1 (c3084ef, 2021-09-22)"
   xmlns:inkscape="http://www.inkscape.org/namespaces/inkscape"
   xmlns:sodipodi="http://sodipodi.sourceforge.net/DTD/sodipodi-0.dtd"
   xmlns="http://www.w3.org/2000/svg"
   xmlns:svg="http://www.w3.org/2000/svg"><defs
   id="defs4265" /><sodipodi:namedview
   id="namedview4263"
   pagecolor="#505050"
   bordercolor="#eeeeee"
   borderopacity="1"
   inkscape:pageshadow="0"
   inkscape:pageopacity="0"
   inkscape:pagecheckerboard="0"
   showgrid="false"
   inkscape:zoom="0.21198458"
   inkscape:cx="8474.6729"
   inkscape:cy="358.51664"
   inkscape:window-width="1312"
   inkscape:window-height="762"
   inkscape:window-x="0"
   inkscape:window-y="25"
   inkscape:window-maximized="0"
   inkscape:current-layer="Layer_1" />










<path
   id="path6180"
   style="fill:#000000"
   d="m 7777.5137,60.009766 c -3.4654,0.203123 -6.2176,3.535178 -6.1137,6.942646 -0.087,4.101811 1.3459,8.033054 2.6767,11.851944 1.4169,3.798868 3.1274,7.581168 5.7607,10.701178 3.582,3.985873 8.43,6.892451 13.7427,7.795247 7.3567,1.389741 15.0187,0.316072 22.0213,-2.179293 2.7272,-1.015817 5.4405,-2.168681 7.8732,-3.779691 1.8664,-1.35849 3.081,-3.689644 2.7137,-6.021471 -0.1484,-2.79427 -2.7393,-4.915157 -5.3914,-5.246107 -2.6239,-0.223161 -5.0956,0.968843 -7.6967,1.092478 -4.5396,0.46484 -9.1414,1.04355 -13.6944,0.422189 -3.8926,-0.495093 -7.7172,-2.377949 -10.0219,-5.628675 -1.8117,-2.581727 -3.594,-5.309725 -4.3546,-8.40943 -0.124,-2.565871 -1.261,-5.223875 -3.5488,-6.566406 -1.1812,-0.734464 -2.5821,-1.060785 -3.9668,-0.974609 z m 772.373,3.21875 c -1.0824,0.03825 -2.1269,0.450011 -2.9961,1.085937 -1.727,-0.391205 -3.7486,-0.495325 -5.1808,0.733515 -0.4978,0.381508 -0.902,0.880118 -1.2039,1.428594 -3.1502,0.284925 -5.7105,3.302336 -5.4961,6.457032 -0.016,0.603187 0.1904,1.248299 0.2519,1.798828 -1.8757,1.30871 -3.0721,3.697251 -2.541,5.984375 0.1279,1.267228 0.7794,2.447138 1.7031,3.310547 -0.8693,2.463002 -0.1472,5.461148 1.9937,7.041481 0.471,0.408131 1.1163,0.57756 1.3537,1.20227 1.2627,1.826004 3.5253,2.91339 5.7405,2.748436 1.7535,2.734206 5.6768,3.856955 8.5313,2.214844 2.9494,1.302514 6.7837,-0.167229 8.0703,-3.132813 2.9679,-0.6501 5.207,-3.675832 4.8867,-6.691406 2.4421,-1.804823 3.3495,-5.415198 1.8633,-8.101562 -0.2267,-0.455883 -0.7142,-0.836679 -0.2988,-1.341797 0.9915,-2.682722 0.016,-6.017889 -2.4842,-7.510194 -0.4552,-0.379946 -1.2208,-0.359616 -1.3804,-1.009516 -1.3253,-2.548705 -4.4787,-4.02585 -7.2741,-3.271306 -1.024,-1.719467 -2.9074,-2.882908 -4.9199,-2.927734 -0.2049,-0.0179 -0.4134,-0.02912 -0.6192,-0.01953 z m -269.2012,2.074218 c -3.1168,-0.169499 -5.9379,2.452196 -6.2667,5.50317 -0.2895,3.006758 1.215,5.75794 2.1534,8.51949 0.1376,0.50035 0.5189,1.134794 -0.178,1.327059 -2.4621,1.63535 -4.3196,4.004475 -5.8981,6.466688 -1.2897,0.926685 -2.964,0.964353 -4.424,1.493645 -2.5009,0.648964 -5.1948,1.747152 -6.5201,4.106602 -0.7262,1.643762 -1.0709,3.618272 -0.1766,5.269184 1.0772,2.798868 4.349,4.107178 7.1834,3.778668 2.5136,-0.17403 4.9799,-0.73033 7.4217,-1.32583 0.5426,0.70448 1.3789,1.13662 1.9765,1.74218 0.1816,0.43527 0.6444,0.79534 0.7477,1.21627 -0.8683,3.61468 -1.8539,7.32145 -1.4859,11.06889 0.4575,2.79417 2.9642,5.17785 5.8496,5.17578 2.7297,0.17141 5.2242,-1.79547 6.1442,-4.29472 1.0432,-2.32807 1.3166,-4.90836 2.5433,-7.16036 1.6753,-1.27245 3.2929,-2.63548 4.7974,-4.11338 1.1094,-0.99574 2.1273,-2.16087 3.3327,-3.00912 1.5592,-0.0312 3.1187,0.16449 4.6768,0.24469 2.2153,0.14194 4.5177,0.47273 6.6854,-0.14867 1.8094,-0.61568 3.0016,-2.197617 4.1463,-3.633673 0.01,-2.158316 0.01,-4.626793 -1.6679,-6.238281 -1.8021,-1.773984 -4.2925,-2.53958 -6.627,-3.333985 -2.9547,-0.846815 -6.0934,-0.840252 -9.1133,-0.736328 -0.6237,-1.059508 -1.6626,-1.804822 -2.6425,-2.45753 -0.6072,-1.298948 -1.6714,-2.374672 -2.9512,-3.017079 -0.2815,-5.120185 -1.6471,-10.436559 -5.127,-14.345703 -1.1908,-1.239017 -2.8403,-2.086343 -4.5801,-2.097657 z m 265.7989,14.361328 c 0.617,-0.0925 0.5363,0.743745 0.056,0.831467 -0.5114,0.164382 -0.9742,0.796228 -1.5211,0.637283 -0.1994,-0.520695 0.4592,-0.961834 0.7619,-1.313093 0.2132,-0.115205 0.4602,-0.173635 0.703,-0.155657 z m -403.8223,0.337891 c -1.2295,0.01666 -2.4422,0.424169 -3.4512,1.123047 -2.4119,-0.490479 -5.1081,0.480388 -6.5195,2.527344 -3.0411,0.717232 -5.0944,3.992239 -4.5577,7.046197 0.223,0.60949 0.085,1.004796 -0.5048,1.293647 -2.0712,1.654157 -3.1231,4.557027 -2.2676,7.113281 0.3851,1.187821 1.1386,2.239041 2.0918,3.039061 -0.3141,2.13119 0.3182,4.45482 1.9102,5.95313 0.7524,2.8715 3.8547,4.77996 6.7637,4.4082 1.48,2.78529 5.1054,4.25998 8.0605,3.02148 0.5611,-0.14272 1.0412,-0.59247 1.5625,-0.73242 2.5908,0.50362 5.4819,-0.65876 6.8418,-2.95508 2.7481,-0.60634 4.895,-3.13904 5.0586,-5.94748 0.1657,-0.45379 -0.2498,-1.15572 0.1758,-1.43142 1.9768,-1.22241 3.2641,-3.57635 2.8813,-5.915777 -0.084,-1.142111 -0.6782,-2.216668 -1.27,-3.115475 0.9769,-2.358451 0.3127,-5.26718 -1.6621,-6.90625 -0.4137,-0.491676 -1.2536,-0.570671 -1.3555,-1.28125 -1.1102,-2.602939 -3.9944,-4.22819 -6.7948,-3.896553 -0.5242,0.05663 -1.0684,0.300132 -1.2679,-0.363941 -1.2976,-1.804182 -3.4251,-3.096732 -5.6951,-2.979741 z m 661.8789,34.052737 c -3.3261,0.10648 -6.1034,3.19409 -6.0568,6.4874 -0.1088,3.05214 1.5261,5.75096 2.342,8.60049 -2.3715,1.34892 -4.2016,3.52748 -5.377,5.9668 -1.2809,1.13677 -3.028,1.64794 -4.7,1.82193 -2.6996,0.11767 -5.6607,0.41115 -7.716,2.37142 -2.5622,2.32367 -2.755,6.8357 -0.1503,9.20383 2.111,2.1429 5.2905,2.44541 8.1397,2.42941 2.2881,0.0128 4.597,-0.28948 6.8309,-0.63909 0.5581,0.45393 0.2591,1.27967 0.5432,1.89457 0.3036,1.16544 0.9416,2.24224 1.826,3.0605 -0.4889,2.85238 -1.2313,5.72141 -1.0547,8.63477 0.2632,2.77134 2.2396,5.42366 5.041,6.00195 3.1223,0.71879 6.357,-1.29137 7.6641,-4.10506 1.4906,-2.49261 1.7204,-5.46733 2.8476,-8.10392 1.1493,-1.03998 2.626,-1.65182 3.7315,-2.75515 1.7689,-1.4205 3.2431,-3.16657 4.706,-4.88157 1.7127,-0.16867 3.3433,0.61938 5.007,0.9181 2.7808,0.66369 6.0951,0.61402 8.2957,-1.4513 2.3205,-2.09711 2.9629,-5.90843 1.1251,-8.51611 -1.6854,-2.68451 -4.9027,-3.72478 -7.8511,-4.30746 -3.0484,-0.61528 -6.1707,-0.652 -9.2681,-0.73112 -0.5206,-0.72352 -1.2833,-1.25363 -1.9159,-1.82999 -0.4623,-1.32208 -1.3052,-2.52373 -2.4396,-3.35361 -0.7605,-4.24019 -1.8859,-8.49749 -4.0254,-12.26562 -1.651,-2.5203 -4.4182,-4.55926 -7.5449,-4.45117 z m -741.8222,0.14258 c -1.3218,0.0264 -2.8489,0.24692 -3.9395,1.15234 -2.1412,-0.58588 -4.5301,0.18796 -6.0273,1.78516 -2.9062,0.40576 -5.3018,3.0575 -5.3024,6.01014 -0.047,0.72976 0.1025,1.49299 0.2359,2.17736 -1.5561,0.8662 -2.7395,2.35545 -3.125,4.10546 -0.532,1.51706 -0.1542,3.19388 0.7926,4.46159 0.3033,0.46566 0.6585,0.89564 1.0512,1.28841 -0.8843,2.5459 -0.1036,5.66921 2.168,7.22461 0.8289,0.4434 1.191,1.40902 2.0102,1.89516 1.2446,0.94491 2.8202,1.43662 4.3804,1.39781 1.5453,2.93913 5.7368,4.17736 8.5182,2.2484 0.4236,-0.50665 0.9588,0.13179 1.4769,0.13679 2.6932,0.72797 5.7657,-0.64783 6.9414,-3.19472 0.3903,-0.32124 1.0391,-0.38486 1.4834,-0.71586 2.222,-1.25798 3.5235,-3.94235 3.0488,-6.46484 2.1035,-1.10757 3.6529,-3.39984 3.3926,-5.83399 -0.1054,-1.29037 -0.6029,-2.55806 -1.4668,-3.52929 1.0721,-2.82689 -0.3388,-6.29473 -3.0832,-7.56608 -0.5664,-0.12675 -0.8715,-0.47212 -1.1058,-0.98705 -1.4092,-2.17327 -4.2333,-3.27957 -6.7426,-2.61875 -1.0062,-1.61836 -2.6959,-3.05457 -4.707,-2.97265 z m 321.8339,13.05078 c -1.2531,-0.0106 -2.5297,0.25977 -3.5742,0.98437 -2.0581,-0.43604 -4.3221,0.24086 -5.7734,1.77149 -1.0954,-0.0438 -2.018,0.57326 -2.8223,1.23887 -1.4081,0.97 -2.3582,2.58012 -2.3575,4.30808 -0.096,1.02075 0.097,2.04561 0.4063,3.01555 -2.5436,1.6026 -3.6895,5.19426 -2.2148,7.88281 0.1103,0.47053 0.8162,0.84755 0.6625,1.29412 -1.0283,1.85896 -1.1527,4.23058 -0.037,6.08165 0.6225,1.23717 1.7522,2.15136 2.9706,2.72851 1.4932,1.90028 4.1423,2.75167 6.4757,2.17111 0.975,1.5047 2.6154,2.55156 4.3652,2.88672 1.0565,0.14851 2.1589,-0.0545 3.0977,-0.55274 2.0437,1.16652 4.6919,0.95921 6.6035,-0.37695 1.0526,-0.58559 1.6517,-1.72015 2.0449,-2.79687 2.5192,-0.3061 4.9396,-2.1023 5.4355,-4.67969 0.2282,-0.79093 0.151,-1.67117 0.1407,-2.44141 2.0511,-1.9789 2.5973,-5.33942 1.1269,-7.81055 -0.1638,-0.4648 -0.8039,-0.80772 -0.4409,-1.33082 0.7953,-2.63384 -0.2361,-5.77172 -2.6569,-7.18099 -0.4034,-0.2104 -0.8158,-0.3647 -0.975,-0.82544 -1.4693,-2.35301 -4.5297,-3.48833 -7.1889,-2.73696 -1.0037,-1.99392 -3.0019,-3.56743 -5.2891,-3.63086 z m 131.2891,2.07812 c -3.0903,0.0326 -5.7347,2.61935 -6.2145,5.60641 -0.7912,3.80353 -0.5016,7.71156 -0.3871,11.56351 -1.4929,1.04226 -2.4181,2.75821 -2.7246,4.51368 -0.4569,0.35247 -0.7568,0.94946 -1.1817,1.26578 -3.6555,0.33882 -7.1988,1.56663 -10.4352,3.26717 -2.2976,1.30932 -4.5257,2.97157 -5.9274,5.25052 -0.8019,1.55567 -0.9985,3.49284 -0.4132,5.13621 0.9435,1.59067 2.2211,3.25122 4.1637,3.57626 2.7386,0.7302 5.3759,-0.692 7.9026,-1.54767 1.1441,-0.43387 2.2846,-0.87812 3.4361,-1.29202 1.7678,2.16925 3.892,4.23737 6.6309,5.07812 1.4738,1.7547 2.0217,4.03292 2.4136,6.23796 0.5453,2.71544 1.9942,5.57091 4.7095,6.63704 3.2521,1.28855 7.3862,-0.66205 8.2917,-4.08161 0.936,-2.92542 -0.2313,-5.91685 -0.8934,-8.76543 -0.2988,-1.14568 -0.6185,-2.28518 -0.9335,-3.4264 1.0443,-0.80809 1.7821,-1.96503 2.2266,-3.18554 0.3303,-0.32915 0.5862,-0.75303 1.125,-0.59961 3.3495,-0.0345 6.7034,0.3271 10.0937,0.125 1.8069,-0.22267 3.1906,-1.5334 4.5059,-2.66993 0.9688,-1.07029 1.4254,-2.4672 2.0547,-3.74023 -1.5773,-1.58625 -2.6923,-3.64595 -4.5463,-4.93337 -3.0161,-1.12893 -6.2219,-1.04503 -9.2664,-1.98974 -0.6953,-0.25653 -0.9502,-1.1089 -1.4671,-1.614 -1.8374,-2.22614 -4.0149,-4.17616 -6.3999,-5.80078 -0.2962,-3.6523 0.3479,-7.48122 -1.0313,-10.97266 -1.0271,-2.15303 -3.3212,-3.69604 -5.7324,-3.63867 z m -457.6484,0.68945 c 1.1341,0.18981 0.9463,1.91531 -0.079,2.11007 -0.711,0.53975 -0.9196,-0.0867 -0.7737,-0.73467 -0.092,-0.58459 0.027,-1.20716 0.6709,-1.39102 l 0.1,0.009 z m 330.8652,14.86524 c 0.3705,0.14787 0.9989,0.57168 0.5352,0.98828 -0.5105,0.0804 -1.1077,-0.45813 -1.6512,-0.61329 -0.8122,-0.2929 0.54,-0.6194 0.8928,-0.42714 0.074,0.0174 0.1488,0.0348 0.2232,0.0522 z m 298.7285,9.28711 c -1.6925,0.0233 -3.3808,0.61119 -4.7656,1.51562 -2.2975,-0.79664 -4.8596,-0.27503 -6.8749,1.00833 -1.0736,0.6171 -2.0626,1.41907 -2.7814,2.43503 -3.3513,0.57586 -6.1631,3.562 -6.3071,6.99875 -0.4861,0.27955 -1.259,0.37487 -1.8032,0.71127 -3.6337,1.71852 -5.644,6.10948 -4.6955,9.99339 0.4558,2.00806 1.6767,3.87355 3.4582,4.94112 -1.8243,1.26229 -2.8377,3.41381 -2.9824,5.59375 -0.2967,2.73986 0.5872,5.87851 3.0804,7.3576 0.5035,0.23488 0.8267,0.4706 0.5913,1.06987 -0.3505,3.47153 2.1558,6.79391 5.4285,7.79024 0.5422,0.14578 0.4936,0.92663 0.862,1.3157 0.9429,1.65681 2.6662,2.74695 4.5241,3.07206 1.6787,0.60824 3.5462,1.01175 5.2789,0.36451 0.4869,-0.35655 0.6911,0.24389 1.0297,0.52417 3.1816,3.06296 8.9212,2.59001 11.6057,-0.9004 0.4055,-0.11342 0.968,0.47547 1.4799,0.54352 3.7456,1.4182 8.4382,-0.39345 10.0616,-4.1021 0.3604,-0.76037 0.5457,-1.62009 0.6418,-2.43165 2.6544,-0.70291 4.7461,-2.92182 5.586,-5.49805 3.1922,-1.96401 4.3477,-6.1405 3.5943,-9.667 -0.1279,-0.62763 -0.3777,-1.24611 -0.6314,-1.81542 2.1091,-2.54774 2.2386,-6.47836 0.3945,-9.20508 0.9574,-3.14891 0.3716,-6.94163 -2.1191,-9.23632 -1.2272,-1.05439 -2.8607,-1.59385 -4.4727,-1.53126 0.2243,-3.14553 -1.5079,-6.48261 -4.5203,-7.66091 -1.8471,-0.71015 -3.8844,-0.76034 -5.8371,-0.65549 -1.175,0.16053 -2.3192,0.58406 -3.291,1.26758 -1.1887,-2.43733 -3.8316,-3.96004 -6.5352,-3.79883 z m -0.4336,27.94531 c 0.6812,0.28871 1.1253,1.09393 0.8867,1.81445 -0.9638,0.18753 -1.7852,-0.96293 -1.4902,-1.85351 0.218,-0.0606 0.3962,-0.0543 0.6035,0.0391 z m 185.1211,20.19531 c -1.9935,0.0324 -3.5753,1.51857 -4.5098,3.16211 -1.417,2.50253 -0.7109,5.45552 -0.4824,8.1543 0.2122,1.88075 0.5205,3.85629 0.7559,5.66797 -2.2209,-1.25673 -5.2035,-1.06771 -7.1153,0.67773 -1.3608,1.18005 -2.1623,2.98522 -2.08,4.78907 -2.8038,-1.2222 -5.6139,-2.50219 -8.5782,-3.27735 -2.7212,-0.46779 -5.9588,0.88722 -6.8105,3.67188 -0.4496,1.26945 -0.7293,2.66204 -0.2357,3.96643 0.7574,2.46603 3.0776,3.88041 5.1802,5.10088 3.5211,1.99781 7.1313,3.83297 10.7391,5.66901 -1.8343,0.83382 -3.7365,1.98009 -4.4902,3.95704 -1.1095,2.53028 -0.4041,5.79423 1.8925,7.42382 0.6668,0.51796 1.4435,0.88959 2.2618,1.09571 -1.1725,2.60868 -0.2244,5.97102 2.2148,7.50148 0.9162,0.64409 2.0635,0.98255 3.1426,1.06492 0.2554,3.06874 2.999,5.74027 6.1172,5.71094 1.1,0.0208 2.2038,-0.24833 3.166,-0.7832 0.3873,1.62512 1.4749,2.96212 2.8272,3.90276 0.7982,0.57822 1.4625,1.31031 2.1767,1.98396 1.2898,-0.86634 2.7268,-1.44492 4.1113,-2.13086 2.2288,-1.24767 2.9878,-3.9623 3.0904,-6.35419 0.042,-0.9098 0.079,-1.82085 0.093,-2.73175 1.4076,1.42154 2.815,2.93504 4.5957,3.88672 3.002,1.43793 7.077,0.0973 8.3981,-3.02257 1.2667,-2.61674 0.2399,-5.71281 -1.4706,-7.87178 -0.7074,-0.99284 -1.4545,-1.95664 -2.2185,-2.90643 3.1008,0.58998 6.2224,1.207 9.3828,1.3164 2.9355,-0.0646 5.8277,-2.24221 6.2285,-5.23632 0.5645,-3.34367 -1.9703,-6.71841 -5.2388,-7.39615 -2.6558,-0.82057 -5.3961,-1.30953 -8.1225,-1.82651 1.7467,-2.69559 0.8556,-6.84228 -2.0625,-8.33984 -0.9848,-0.58743 -2.1314,-0.87062 -3.2734,-0.89258 0.7774,-2.20692 0.9781,-4.8512 -0.4552,-6.8458 -1.4804,-2.35529 -4.6518,-3.41809 -7.242,-2.38303 -0.9356,0.34281 -1.772,0.92226 -2.4864,1.61164 -0.7093,-4.35849 -1.3176,-8.75428 -2.5059,-13.01367 -0.7065,-2.31596 -2.3536,-4.63109 -4.873,-5.09571 -0.6994,-0.13226 -1.4107,-0.21246 -2.1231,-0.20703 z m -120.7695,12.10938 c -2.168,-0.0485 -4.2597,1.13531 -5.4512,2.92578 -2.692,-0.60431 -5.7622,0.61416 -7.0424,3.11819 -0.3519,0.49303 -0.3935,1.19363 -0.733,1.64353 -2.2533,1.49663 -3.3051,4.49777 -2.6074,7.0918 -2.1177,2.26373 -2.1915,6.21544 0.1086,8.37814 0.4093,0.41663 0.8742,0.78302 1.3719,1.08279 -0.2685,2.87157 1.3861,5.92072 4.166,6.90039 0.93,2.92796 4.2909,4.83965 7.2728,3.9777 0.5326,-0.0525 1.0303,-0.57665 1.5103,-0.13595 2.6044,1.26463 5.964,0.46479 7.7456,-1.80959 0.3452,-0.39615 0.5255,-0.99057 1.1529,-0.7802 2.1611,-0.0203 4.3327,-1.12207 5.4629,-2.99219 3.0207,-1.28867 4.5603,-5.04998 3.5469,-8.13477 2.0405,-2.13449 2.3636,-5.70682 0.5898,-8.10156 -0.611,-0.90844 -1.4485,-1.64993 -2.3711,-2.22851 0.3511,-2.62602 -0.9178,-5.4675 -3.3307,-6.68021 -0.6601,-0.12414 -0.7586,-0.85846 -1.1908,-1.28464 -1.6075,-2.02856 -4.491,-2.9141 -6.9492,-2.09961 -0.9843,-0.56107 -2.1186,-0.86829 -3.2519,-0.87109 z m 46.1172,46.58398 c -1.9987,0.0268 -3.9007,1.08674 -5.1153,2.65039 -2.8332,-0.66795 -6.0696,0.7003 -7.3231,3.38091 -0.4227,0.61973 -0.2966,1.53849 -1.0109,1.92183 -1.6671,1.48614 -2.5109,3.85464 -2.0996,6.05664 -2.6653,2.21641 -3.0702,6.66307 -0.6816,9.2274 0.4542,0.52422 0.9865,0.98131 1.5684,1.35854 -0.2515,2.80406 1.4896,5.69075 4.1782,6.61507 0.5427,0.0546 0.7143,0.50587 0.9695,0.93324 1.6949,2.47213 5.1424,3.54302 7.9136,2.34939 0.5044,-0.34783 0.969,-0.27964 1.4727,0.023 2.5124,0.9507 5.5627,0.20769 7.2882,-1.86796 3.0682,0.5624 6.4709,-1.2424 7.4451,-4.25904 0.4753,-0.67592 1.1588,-1.26588 1.4944,-2.06518 0.7959,-1.59902 0.8766,-3.50484 0.4472,-5.19726 2.5696,-2.01749 3.433,-6.05792 1.5028,-8.79101 -0.511,-0.88779 -1.4066,-1.52897 -2.1473,-2.13673 0.1852,-2.98762 -1.8007,-6.00812 -4.7226,-6.80664 -1.4321,-2.7143 -4.9651,-4.0401 -7.818,-2.87849 -0.5797,0.30716 -1.1289,-0.335 -1.7406,-0.35393 -0.5317,-0.12091 -1.0759,-0.17669 -1.6211,-0.16016 z m 177.0312,4.29493 c -4.4429,0.20489 -9.0135,0.45458 -13.1758,2.16015 -2.6427,1.26412 -4.3018,4.42817 -3.5,7.30469 0.8165,3.69476 5.1776,5.93325 8.6993,4.70703 1.8389,-0.28622 3.6979,0.16068 5.5204,0.39766 3.8925,0.66888 7.8561,1.45483 11.3874,3.29327 2.3105,1.26861 4.6776,2.75172 5.9955,5.11921 1.7117,2.7972 2.7812,5.99251 3.1625,9.2449 0.1973,2.44386 -0.1171,5.09168 0.9732,7.41957 1.263,2.64575 4.5266,4.15799 7.3379,3.21289 2.9515,-0.92681 4.7283,-3.89267 5.2575,-6.80129 0.7792,-3.87889 0.2678,-7.86946 -0.2727,-11.74453 -0.8973,-5.68385 -2.8422,-11.45147 -6.9146,-15.66804 -3.7898,-4.08641 -8.9926,-6.65194 -14.412,-7.76285 -3.3,-0.71465 -6.6883,-0.93275 -10.0586,-0.88266 z m 391.8262,12.60156 c -1.2315,-0.0451 -2.3032,0.66822 -3.3022,1.30473 -2.0706,1.41902 -2.6062,4.14359 -2.3853,6.49714 0.199,3.16743 0.6708,6.30827 1.1172,9.44813 -2.716,-2.06664 -7.1242,-1.49041 -8.9898,1.44505 -0.7767,1.09658 -1.1502,2.45825 -1.104,3.79713 -2.4487,-1.12218 -4.9157,-2.27789 -7.5302,-2.95208 -2.251,-0.42873 -4.3419,0.74984 -6.3057,1.66888 -0.3386,1.98062 -1.4526,3.9904 -0.7188,6.01758 0.7341,2.31052 2.7976,3.78788 4.8277,4.90421 3.5859,2.13083 7.3459,3.94288 11.0532,5.84774 -2.0796,0.85443 -4.3688,1.93672 -5.2943,4.13838 -1.2905,2.67432 -0.3372,6.26851 2.308,7.73272 0.6519,0.38794 1.3735,0.6551 2.1172,0.80273 -0.9448,2.90495 0.5752,6.35417 3.4003,7.55664 0.7488,0.3373 1.5661,0.53316 2.3887,0.54297 0.1546,2.89518 2.5997,5.53667 5.5431,5.65545 1.2575,0.0952 2.547,-0.19266 3.6386,-0.82537 0.1239,0.63506 0.2592,1.26891 0.4394,1.89062 -2.7791,0.88464 -4.7053,3.86239 -4.2969,6.76368 -2.5082,1.35108 -4.1399,4.3601 -3.4352,7.19568 0.3158,1.47254 1.1564,2.82151 2.3181,3.77697 -0.7904,2.34307 -0.4197,5.17231 1.4238,6.92774 0.6263,0.68976 1.5909,0.94427 2.1094,1.74023 1.527,1.52194 3.8014,2.20297 5.9199,1.86523 1.3534,2.22449 4.159,3.46339 6.6995,2.7827 0.4476,-0.066 0.8842,-0.33763 1.2946,-0.40379 2.2969,1.24888 5.3685,0.84737 7.1718,-1.07862 0.6058,-0.57697 1.0451,-1.33033 1.377,-2.07568 2.6239,-0.51093 4.9695,-2.68899 5.1875,-5.42968 0.1213,-0.75294 -0.032,-1.56332 -0.092,-2.27344 2.1152,-1.9999 2.4209,-5.53883 0.6856,-7.875 1.1009,-2.58875 0.3935,-5.87871 -1.8652,-7.61719 -0.3243,-3.10917 -3.1692,-5.7776 -6.3363,-5.66142 -0.8725,-0.007 -1.7361,0.18548 -2.5505,0.48955 -0.8943,-1.09838 -2.1285,-1.96784 -3.5351,-2.23828 0.01,-1.26708 -0,-2.53441 -0.049,-3.80079 1.556,1.43724 3.0794,3.14098 5.1933,3.71485 2.477,0.72876 5.3107,-0.30779 6.7207,-2.47266 1.3582,-1.88665 1.2618,-4.4612 0.2395,-6.47469 -0.8165,-1.68593 -2.0503,-3.11666 -3.1594,-4.61125 3.1346,0.53286 6.2694,1.22316 9.457,1.3086 2.6356,0.10198 5.2833,-1.48583 6.2325,-3.98242 0.9221,-2.19454 0.3747,-4.88125 -1.3653,-6.51368 -2.0652,-2.03396 -5.0781,-2.40782 -7.7701,-3.06801 -1.3334,-0.28115 -2.6703,-0.54797 -4.0092,-0.80308 1.8261,-2.72541 0.9139,-6.96895 -2.082,-8.46484 -1.0302,-0.58786 -2.222,-0.86178 -3.4043,-0.84961 0.7618,-2.06858 1.2632,-4.48365 0.1465,-6.52735 -1.255,-2.67362 -4.6057,-4.06326 -7.3814,-3.05851 -1.1389,0.38734 -2.1594,1.09514 -2.9565,1.99211 -0.7108,-4.44048 -1.2955,-8.92083 -2.4601,-13.27036 -0.6182,-2.22772 -2.0804,-4.44606 -4.4207,-5.08843 -0.7094,-0.24524 -1.4588,-0.39573 -2.211,-0.39121 z M 6737.7246,311 c -3.8992,0.0381 -7.2036,3.89352 -6.691,7.74979 0.2936,3.46051 3.5149,6.31291 6.9769,6.25296 3.5248,0.078 6.7879,-2.92303 6.9578,-6.45646 0.3787,-3.51585 -2.3695,-6.99429 -5.8726,-7.4584 -0.4527,-0.0723 -0.913,-0.0927 -1.3711,-0.0879 z m 2410.7617,25.99609 c -0.7278,-0.021 -1.471,0.18108 -1.9941,0.71094 -2.7765,-1.13028 -6.2669,0.16226 -7.625,2.83789 -2.9587,0.74684 -4.9197,3.85072 -4.6738,6.82031 -2.7264,1.62891 -4.0483,5.36957 -2.6184,8.27381 0.4123,0.9487 1.0565,1.79214 1.8371,2.46838 -0.7284,2.40763 -0.077,5.23833 1.8846,6.88185 0.4699,0.34962 0.9842,0.61299 1.2209,1.18456 1.3267,1.8773 3.6893,2.911 5.9472,2.77344 1.604,2.45319 4.9046,3.77388 7.6967,2.67642 0.4682,-0.12052 0.885,-0.58714 1.3463,-0.21549 2.8314,1.15088 6.4579,-0.17055 7.6875,-3.01562 0.1496,-0.59785 0.9744,-0.4129 1.4141,-0.73828 2.5644,-1.05419 4.3203,-3.82521 3.9883,-6.60742 2.3856,-1.93007 3.1701,-5.61858 1.5429,-8.27149 -0.256,-0.45423 -0.7308,-0.81501 -0.373,-1.36133 0.6334,-2.65739 -0.5216,-5.67823 -2.918,-7.06054 -0.535,-2.8826 -3.2231,-5.28265 -6.2109,-5.14454 -0.8261,-0.0322 -1.6991,0.31262 -2.4219,0.46485 -0.8117,-1.14223 -1.9993,-1.98916 -3.3756,-2.28463 -0.7597,-0.24647 -1.5536,-0.41274 -2.3549,-0.39311 z m 67.1582,22.42969 c -1.1293,0.0125 -2.2501,0.34709 -3.209,0.94141 -2.5713,-0.76609 -5.5708,0.29034 -7.0266,2.55978 -0.3215,0.52594 -1.1145,0.4216 -1.6028,0.79549 -2.384,1.15397 -3.8916,3.90688 -3.4155,6.53731 -2.5158,1.43811 -4.0468,4.59647 -3.1562,7.43164 0.3714,1.30925 1.1452,2.50067 2.1875,3.375 -0.8111,2.56553 0.039,5.66967 2.3437,7.16992 0.5903,0.33282 0.7327,1.11897 1.2832,1.52893 1.5495,1.63836 3.9808,2.41267 6.1856,1.90466 0.7813,1.24964 2.0103,2.19954 3.414,2.64063 1.0077,0.75853 2.4587,0.83682 3.4688,0.043 0.5509,-0.25949 1.1192,-0.51998 1.6387,-0.81836 2.0406,0.8089 4.4789,0.33675 6.1503,-1.04883 0.5162,-0.44916 0.9394,-0.99862 1.2637,-1.59961 3.4353,-0.11896 6.3002,-3.65379 5.5938,-7.04297 1.6526,-1.059 2.7595,-2.95316 2.9063,-4.90076 -0.031,-1.48496 -0.5626,-2.99863 -1.502,-4.15002 -0.5723,-0.36662 -0.036,-1.05796 -0.1563,-1.60742 0.012,-1.96455 -0.8901,-3.93916 -2.4472,-5.15235 -0.1108,-2.60275 -1.9882,-4.99659 -4.4922,-5.72656 -1.2429,-0.41284 -2.6047,-0.27681 -3.834,0.0547 -1.2791,-1.77376 -3.369,-3.0106 -5.5938,-2.93555 z m -158.2285,3.76953 c -3.6204,-0.009 -6.7356,3.64994 -6.0547,7.22657 0.2724,2.5189 1.9433,4.58228 2.4707,7.02148 -0.047,0.46273 0.4223,1.14778 -0.1775,1.37262 -2.27,1.62586 -3.736,4.0564 -5.548,6.12129 -1.9159,1.68045 -4.5917,1.86759 -6.8449,2.88825 -1.3869,0.53718 -2.5514,1.50333 -3.3926,2.72237 -0.6514,0.85129 -1.3424,1.67145 -2.0213,2.50094 0.8656,1.18096 1.4753,2.50659 2.1748,3.78379 1.2725,2.29859 4.1336,3.09325 6.6006,2.78479 1.9022,-0.21683 3.8157,-0.50206 5.6953,-0.79905 0.8437,1.24059 2.0974,2.20962 3.5293,2.66211 -0.8729,4.33525 -1.8738,8.69416 -1.7951,13.1446 -0.038,1.15951 -0.076,2.31897 -0.1151,3.47845 1.5044,-0.0154 3.0082,-0.081 4.5117,-0.10352 2.1304,1.0178 4.639,-0.11005 6.1649,-1.69008 1.9916,-2.15717 2.4193,-5.18333 3.4379,-7.83394 0.3698,-0.95519 0.7291,-1.98928 1.3933,-2.767 2.414,-0.74441 4.2479,-2.64176 5.8648,-4.49623 0.6037,-0.70743 1.1619,-1.4521 1.7602,-2.16392 3.5095,0.0478 7.0619,0.86415 10.5469,0.14648 3.165,-0.87601 5.3349,-4.53521 4.2402,-7.70312 -0.8513,-2.89501 -3.7424,-4.60921 -6.5571,-5.15607 -3.1774,-0.69066 -6.4403,-0.78099 -9.6792,-0.83612 -0.8428,-1.47676 -2.3465,-2.49358 -3.9219,-3 -0.3733,-0.60428 -1.0215,-1.04159 -1.4222,-1.56842 -0.4379,-3.56208 -1.3939,-7.05524 -2.6535,-10.41087 -0.9817,-2.41015 -2.2822,-4.90881 -4.5439,-6.34058 -1.0911,-0.67237 -2.38,-1.03575 -3.6636,-0.98482 z m 68.7207,32.86914 c -3.0558,0.009 -5.735,2.62326 -5.9905,5.63835 -0.2217,2.20127 0.239,4.39863 0.496,6.57812 0.281,2.00475 0.6036,4.00349 0.9223,6.00228 -2.9483,-1.97386 -7.4984,-0.62191 -8.8047,2.70313 -0.357,0.78493 -0.5267,1.65229 -0.5118,2.51367 -2.5696,-1.17977 -5.1587,-2.37857 -7.8842,-3.14705 -2.5005,-0.57764 -5.3251,0.48831 -6.7375,2.641 -1.4211,2.42179 -0.9751,5.81022 1.1335,7.70527 1.8002,1.642 4.0552,2.66077 6.1479,3.86907 2.6248,1.41723 5.3016,2.73464 7.9595,4.08796 -2.038,0.87042 -4.2273,2.05814 -5.0469,4.25781 -1.1011,2.58288 -0.3074,5.92001 2.0957,7.48242 0.6321,0.45379 1.3536,0.77676 2.1055,0.97461 -1.2577,2.63669 -0.3059,6.08788 2.1855,7.64453 0.9424,0.61766 2.0593,0.97781 3.1895,0.97657 0.1085,1.71361 0.884,3.43156 2.1816,4.56445 0.9998,0.60644 2.1219,1.08483 3.291,1.25781 1.2845,0.19638 2.5521,-0.25241 3.6621,-0.86328 0.2558,1.86701 1.0418,3.74675 2.6348,4.85547 1.8985,1.47197 4.6791,1.66281 6.7143,0.35419 2.3245,-1.34508 3.2679,-4.16092 3.267,-6.7222 0.089,-1.34596 0.1206,-2.6953 0.1125,-4.0441 1.7134,1.73132 3.4789,3.75264 6.0147,4.16502 2.8719,0.65587 6.0937,-1.01391 7.0643,-3.82334 0.8028,-2.07335 0.3712,-4.48103 -0.9263,-6.25663 -0.8856,-1.45747 -1.9258,-2.81337 -3.0043,-4.13192 3.2567,0.57849 6.5276,1.19387 9.8359,1.35156 2.0343,-0.0177 4.2921,-0.7041 5.3633,-2.56836 1.4124,-2.03384 1.6389,-4.92241 0.1953,-7.00195 -1.4467,-2.33343 -4.2574,-3.13897 -6.7907,-3.64403 -2.2907,-0.51874 -4.5988,-0.95554 -6.9065,-1.39113 1.2678,-2.52436 0.4851,-5.94727 -1.9329,-7.49289 -0.8324,-0.63537 -1.8418,-1.01791 -2.8816,-1.12625 0.9099,-2.20426 1.514,-4.83995 0.3073,-7.05745 -1.0226,-2.03558 -3.236,-3.51525 -5.5598,-3.29874 -1.8722,-0.0554 -3.5799,1.06633 -4.7905,2.33861 -0.8537,-5.08573 -1.58,-10.2164 -2.9624,-15.1907 -0.9282,-2.48464 -3.4785,-4.28588 -6.1489,-4.20188 z m -732.2597,6.59571 c -2.0513,0.0238 -3.7605,1.52244 -4.8614,3.12695 -1.5385,2.5915 -0.9217,5.71421 -0.6292,8.54187 0.226,1.89288 0.4927,3.78049 0.7777,5.66516 -3.0324,-2.02871 -7.7359,-0.8296 -9.2442,2.55078 -0.4468,0.8919 -0.6492,1.89986 -0.5996,2.89453 -2.567,-1.10681 -5.1433,-2.25979 -7.8555,-2.95703 -2.7212,-0.46779 -5.9588,0.88722 -6.8105,3.67188 -0.4496,1.26945 -0.7293,2.66204 -0.2357,3.96643 0.7557,2.46177 3.0702,3.87523 5.1686,5.09473 3.5297,2.00187 7.1484,3.84016 10.7624,5.68298 -1.8545,0.86113 -3.8028,2.02156 -4.5419,4.04446 -1.1265,2.58613 -0.2984,5.91989 2.1047,7.48248 0.5082,0.36386 1.0793,0.63929 1.6735,0.83048 -1.0622,2.79318 0.1678,6.26076 2.856,7.63475 0.823,0.45915 1.7529,0.71838 2.6929,0.76759 0.1592,1.46077 0.7776,2.90853 1.7764,3.97539 1.411,0.72727 2.8137,1.83424 4.5048,1.58907 1.0715,-0.10925 2.1095,-0.48614 3.0176,-1.0625 0.2895,1.82248 0.647,3.79598 2.0893,5.09311 1.4058,1.32703 3.43,2.35766 5.3903,1.77402 2.1493,-0.60214 4.1113,-2.21667 4.6669,-4.44526 0.582,-2.29528 0.3431,-4.69369 0.3711,-7.03711 1.4021,1.42204 2.8191,2.91121 4.584,3.87891 2.9829,1.42436 7.0419,0.10189 8.3389,-3.01006 1.2237,-2.61993 0.2215,-5.70804 -1.5539,-7.81693 -0.7382,-1.03233 -1.5113,-2.03943 -2.3065,-3.02848 2.8922,0.49793 5.774,1.14947 8.706,1.3545 2.6148,0.16051 5.5146,-0.90972 6.7384,-3.36515 1.3933,-2.4454 0.6333,-5.72523 -1.5049,-7.48524 -2.0314,-1.72131 -4.7562,-2.13168 -7.2481,-2.80312 -1.3826,-0.31711 -2.7759,-0.58369 -4.1719,-0.8338 1.3695,-2.20529 1.2936,-5.37176 -0.5918,-7.26953 -1.2166,-1.39579 -3.1006,-2.07331 -4.9258,-2.04883 0.7497,-2.10935 1.1849,-4.59223 -0.03,-6.62413 -1.3622,-2.6131 -4.751,-3.88706 -7.4859,-2.7665 -1.0001,0.38354 -1.8981,1.01288 -2.6348,1.78711 -0.7952,-4.74144 -1.4779,-9.52013 -2.7363,-14.16601 -0.6423,-1.9613 -2.1661,-3.68409 -4.1949,-4.2385 -0.6478,-0.27923 -1.3474,-0.46441 -2.057,-0.449 z m 1052.4804,24.33007 c -2.8642,-0.16639 -5.5182,2.03127 -6.1307,4.78877 -0.6353,2.48302 0.6904,4.86323 1.3606,7.19033 0.2839,1.04151 0.5393,2.09143 0.8189,3.13419 -1.7741,1.91978 -3.6786,3.72179 -5.6161,5.47582 -1.2695,1.12822 -2.7769,2.04872 -4.493,2.25074 -2.7895,0.53157 -5.9887,1.24215 -7.7229,3.74414 -1.3032,1.84034 -1.6772,4.49293 -0.3262,6.41406 0.5231,0.72687 0.8574,1.63521 1.7442,2.03125 2.2173,1.40944 4.9573,1.31392 7.459,0.97656 1.8451,-0.19718 3.6834,-0.46381 5.5097,-0.79297 0.5086,0.76147 1.2681,1.31753 1.9625,1.86873 0.3621,0.65144 0.8189,1.25254 1.3578,1.76799 -0.5499,3.51154 -0.9958,7.07112 -0.8808,10.62891 0.287,1.93168 1.4156,3.67238 2.8105,4.99609 1.58,1.26695 3.9476,1.14907 5.5403,-0.027 1.7896,-0.71311 3.1491,-2.33179 3.5395,-4.21951 0.7697,-2.56158 1.222,-5.21808 2.1468,-7.73203 3.3037,-1.57559 5.9036,-4.26163 8.2344,-7.01953 0.6902,-0.8787 1.8985,-0.33003 2.7972,-0.17815 2.7252,0.69731 5.653,1.60662 8.4265,0.60568 3.2367,-1.0776 5.0405,-5.10183 3.6569,-8.2305 -1.1007,-2.92211 -4.1785,-4.50463 -7.1126,-4.96321 -3.2565,-0.6464 -6.5913,-0.63361 -9.8969,-0.70453 -0.715,-1.04495 -1.8258,-1.74609 -2.8634,-2.38216 -0.5389,-1.00478 -1.3564,-1.84865 -2.3105,-2.46745 -0.2632,-4.95825 -1.3885,-10.1293 -4.5627,-14.07964 -1.3094,-1.7184 -3.2173,-3.06426 -5.449,-3.07661 z m 74.5449,7.9961 c -3.3155,-0.10237 -6.195,2.8187 -6.4101,6.06055 -0.3027,3.15323 0.757,6.21202 1.1431,9.31094 0.1401,0.85939 0.296,1.75233 0.4155,2.5914 -2.1806,-1.34314 -5.1486,-1.25094 -7.1641,0.36328 -1.4856,1.12161 -2.3003,2.99399 -2.3047,4.83398 -2.6272,-1.20971 -5.2626,-2.46161 -8.041,-3.27929 -2.5764,-0.56288 -5.7041,0.43959 -6.8126,2.98963 -0.7907,1.35024 -1.0769,3.00099 -0.5487,4.5006 0.7738,2.61792 3.214,4.16635 5.471,5.40589 3.4447,2.01534 7.0345,3.76313 10.5778,5.59607 -1.8003,0.75351 -3.7398,1.54898 -4.9726,3.13085 -2.2522,2.94128 -1.456,7.82115 1.8925,9.59961 0.653,0.34405 1.354,0.60574 2.0879,0.70508 -0.8562,2.7391 0.5211,5.96182 3.1367,7.17969 0.6628,0.32694 1.3865,0.5306 2.1231,0.5918 -0.059,2.85527 1.9754,5.65046 4.8063,6.2498 1.7806,0.4408 3.7686,0.0935 5.2386,-1.02129 0.5043,2.20428 2.0648,4.19039 4.1741,5.02661 1.6658,0.0929 3.5534,0.5388 5.0077,-0.5423 1.7996,-1.33452 3.1451,-3.41646 3.1058,-5.71475 0.1107,-1.35405 0.1194,-2.71516 0.072,-4.07229 1.2664,1.33948 2.3956,2.88659 3.9922,3.85351 2.9243,1.58968 6.9328,0.2867 8.4333,-2.66794 1.1856,-2.13179 0.9104,-4.81163 -0.3189,-6.86087 -0.8547,-1.65053 -1.984,-3.13849 -3.1457,-4.58251 3.1142,0.56697 6.2071,1.30925 9.3555,1.65234 2.612,0.1257 5.3581,-1.3287 6.2969,-3.84961 1.3757,-3.25621 -0.6278,-7.17139 -3.7456,-8.55473 -1.9515,-0.84082 -4.0574,-1.23028 -6.1139,-1.73207 -1.0452,-0.22553 -2.0943,-0.43422 -3.1444,-0.63508 2.0634,-2.69811 1.2852,-7.17922 -1.8094,-8.75573 -1.0543,-0.6853 -2.3759,-0.92156 -3.5891,-0.90052 0.685,-2.03418 1.1049,-4.39175 0.01,-6.36523 -1.1722,-2.39735 -3.997,-3.86374 -6.627,-3.26758 -1.485,0.28931 -2.7913,1.1734 -3.8027,2.27539 -0.7029,-4.47139 -1.2563,-8.98543 -2.4199,-13.36718 -0.5892,-2.30063 -2.0119,-4.58445 -4.3574,-5.38672 -0.6416,-0.23623 -1.3246,-0.35673 -2.0079,-0.36133 z m -2620.2539,5.43945 c -1.1214,-0.0288 -2.2069,0.42421 -3.1836,0.84961 -1.6987,-0.49001 -3.5301,0.007 -4.8996,1.07916 -0.5336,0.28187 -0.8341,0.93365 -1.3598,1.14505 -2.8182,0.44895 -5.0553,3.04683 -5.1191,5.89344 -0.036,0.73802 0.085,1.48184 0.2653,2.19094 -2.0465,1.37236 -3.3578,4.00957 -2.6158,6.4524 0.2268,0.57547 0.082,1.26852 0.2834,1.80836 0.3667,0.35694 0.8139,0.70106 1.137,1.06346 -1.0417,2.39246 -0.7301,5.46483 1.2567,7.28201 0.7376,0.76576 1.7284,1.22019 2.6945,1.59341 1.3631,1.2016 3.2612,1.68438 5.0332,1.54255 0.8688,1.53734 2.403,2.69837 4.1074,3.13867 1.1966,0.27447 2.4334,0.004 3.5352,-0.48437 2.5569,1.58253 6.2332,0.84055 7.9356,-1.65235 0.3538,-0.49046 0.6411,-1.03067 0.8417,-1.60156 2.9531,-0.44118 5.3403,-3.2697 5.1209,-6.27444 0.1091,-0.5059 -0.4413,-1.15279 0.099,-1.48456 1.3789,-1.46385 2.3528,-3.61325 1.7001,-5.62766 -0.1893,-0.72639 -0.5563,-1.31059 -0.8693,-1.88678 -0.029,-0.50054 0.2915,-1.08158 0.3008,-1.63281 0.2764,-2.25249 -0.6744,-4.62414 -2.4805,-5.98828 -0.6346,-3.27628 -4.2827,-5.45168 -7.4843,-4.63867 -0.5668,0.29844 -0.9047,0.0629 -1.2112,-0.44852 -1.2676,-1.44185 -3.1478,-2.38189 -5.0877,-2.31906 z m 276.5469,0.40625 c -3.0997,0.13071 -5.7366,2.62916 -6.4297,5.58985 -0.8284,2.85045 -0.6597,5.85412 -0.4707,8.77929 -0.6746,0.67353 -1.0524,1.58418 -1.4781,2.39339 -0.3943,0.33934 -0.688,0.81574 -1.284,0.75138 -3.4587,0.7065 -6.794,2.12791 -9.6558,4.19703 -2.2526,1.76802 -3.5741,4.93473 -2.526,7.7116 1.0502,3.04029 4.6266,4.78298 7.6985,3.96167 1.6053,-0.29507 3.0387,-1.11168 4.5228,-1.74749 1.192,1.27367 2.7313,2.16338 4.2358,2.98078 1.2387,1.70029 1.604,3.84641 2.6239,5.66871 1.0834,2.38556 3.3715,4.41574 6.0992,4.42278 2.8173,0.18673 5.4412,-2.10688 6.0079,-4.80664 0.5996,-2.87769 -0.488,-5.72915 -1.2051,-8.48047 0.3404,-0.40882 0.6305,-0.86197 0.8711,-1.33399 3.0921,-0.36919 6.2728,0.26395 9.3173,-0.5126 1.5513,-0.48177 2.736,-1.74542 3.3802,-3.20182 1.245,-1.79156 1.0927,-4.46464 -0.5591,-5.95554 -1.2086,-1.54082 -3.0454,-2.53452 -4.9992,-2.68453 -1.6832,-0.29807 -3.4732,-0.57671 -4.8056,-1.74422 -1.7965,-1.32835 -3.3817,-2.94875 -4.8356,-4.6259 -0.3082,-1.67485 0.072,-3.4069 -0.1782,-5.09716 -0.1667,-2.45535 -1.6221,-4.87754 -3.978,-5.78159 -0.7396,-0.31328 -1.5479,-0.49871 -2.3516,-0.48453 z m -272.1367,17.04883 c 0.3705,0.14787 0.9989,0.57168 0.5352,0.98828 -0.5105,0.0804 -1.1077,-0.45813 -1.6512,-0.61329 -0.8122,-0.2929 0.54,-0.6194 0.8928,-0.42714 0.074,0.0174 0.1488,0.0348 0.2232,0.0521 z m 2295.0879,4.39648 c -2.864,0.0437 -5.4001,2.34536 -5.9043,5.13477 -1.6822,-1.96871 -4.4675,-2.87271 -6.9824,-2.24219 -3.5117,0.66147 -6.1547,4.32214 -5.5938,7.86719 -2.9993,-0.36911 -5.9471,1.62861 -7.0014,4.40828 -0.8207,1.9769 -0.8617,4.29915 0.029,6.26164 -2.2159,2.52366 -2.2591,6.70182 0.035,9.19141 -2.3298,2.32205 -2.2333,6.3346 -0.1699,8.79297 0.6385,0.82336 1.5323,1.45815 2.4141,1.9375 0.1794,3.30289 3.0834,6.1817 6.3867,6.33789 0.2668,3.81247 3.7789,7.03154 7.5984,6.97461 1.6147,0.0235 3.2479,-0.51207 4.4875,-1.5586 1.4919,2.1623 4.4142,3.18468 6.9142,2.32857 1.5218,-0.46013 2.8471,-1.53348 3.5936,-2.9399 3.2075,2.34007 8.4785,1.29932 10.2266,-2.36718 0.2237,-0.4345 0.2241,-1.05858 0.8769,-0.95313 3.8246,-0.85808 6.6474,-5.05605 5.7442,-8.92187 2.9739,-1.41356 4.9853,-5.01968 3.9219,-8.26368 -0.7634,-2.38572 -2.9526,-4.11856 -5.3438,-4.69335 2.1017,-1.26083 4.4088,-2.71778 5.2246,-5.16797 1.1901,-3.24459 -0.3425,-7.29963 -3.5683,-8.69141 -0.8738,-0.39296 -1.834,-0.59577 -2.793,-0.56836 0.2935,-3.06654 -1.763,-6.07987 -4.6591,-7.05831 -0.7239,-0.31121 -1.5601,-0.37335 -2.294,-0.512 -1.5736,-2.26741 -4.3466,-4.04885 -7.1934,-3.45508 -0.4546,-0.0566 -1.0318,0.57579 -1.3259,0.051 -1.1906,-1.23486 -2.9015,-1.96647 -4.6233,-1.89276 z m -899.5762,1.9668 c -4.1823,-0.0128 -8.1034,3.09423 -9.0828,7.15615 -1.2847,4.33033 0.233,9.58833 4.1762,12.02569 4.2923,2.92643 10.63,1.64012 13.728,-2.43957 3.2523,-3.88427 3.1186,-10.3354 -0.725,-13.78212 -2.1723,-2.0029 -5.1571,-3.03207 -8.0964,-2.96015 z m 1114.7363,0.75781 c -2.7029,-0.005 -5.0818,2.04565 -5.9121,4.54688 -1.9392,-2.42594 -5.5125,-3.2066 -8.3418,-1.99414 -2.7772,1.08294 -4.6829,4.06319 -4.3675,7.04906 0.2507,0.7459 -0.2282,0.63514 -0.8145,0.53297 -3.3986,-0.17091 -6.4322,2.76854 -6.7376,6.09096 -0.2628,1.54121 -0.153,3.15539 0.3669,4.63365 -2.205,2.69404 -1.9627,7.05478 0.6504,9.40039 0.6987,0.31347 -0.091,0.72683 -0.2447,1.15714 -1.8323,3.07227 -0.7649,7.42642 2.1959,9.39755 0.5219,3.06333 3.111,5.72471 6.2461,6.05078 0.3376,3.42719 3.031,6.62275 6.5277,7.06276 1.9,0.34219 3.8891,-0.32688 5.3414,-1.56472 0.7448,1.38419 2.1376,2.17385 3.4322,2.9562 3.0707,2.59103 6.1924,5.12478 9.2807,7.69615 -0.1123,-3.43944 -0.2242,-6.8789 -0.3359,-10.31836 3.4028,1.04597 7.3252,-0.66191 9.0761,-3.7168 3.3673,-0.30864 6.1265,-3.36264 6.2754,-6.71289 0.076,-0.83017 0.032,-1.67229 -0.1406,-2.48828 3.4856,-1.68741 5.2804,-6.33623 3.4726,-9.84299 -0.8299,-1.7559 -2.5068,-3.05197 -4.3769,-3.53006 1.9118,-1.23776 4.0091,-2.62936 4.7187,-4.92382 1.2251,-3.32826 -0.5417,-7.3501 -3.7653,-8.78564 -0.5917,-0.28684 -1.2246,-0.49033 -1.8733,-0.59913 0.02,-2.9715 -1.9995,-5.83563 -4.8628,-6.70373 -0.7832,-0.29309 -1.675,-0.32426 -2.4634,-0.39197 -1.566,-2.29019 -4.1989,-4.23433 -7.1014,-3.9333 -0.6744,0.0483 -1.3506,0.25033 -1.965,0.48017 -1.1671,-1.02976 -2.7211,-1.61394 -4.2813,-1.54883 z m -1025.3496,8.67969 c -3.3323,-0.018 -6.1175,2.92837 -6.4631,6.14682 -0.6144,3.54196 -0.3768,7.1571 -0.2517,10.72427 -1.5787,1.02735 -2.6472,2.76623 -2.9141,4.61524 -0.5099,0.43257 -0.8463,1.10375 -1.2812,1.54101 -3.6469,0.43122 -7.1487,1.7146 -10.4451,3.29233 -2.4776,1.25858 -5.1729,2.83854 -6.1725,5.59506 -1.0707,2.64023 -0.1098,5.96179 2.3519,7.46418 2.0698,1.33664 4.7134,1.21087 6.9489,0.38633 2.1248,-0.69223 4.0634,-1.84289 6.1683,-2.58555 1.7837,2.37686 4.3501,3.98259 6.9102,5.39453 1.3287,1.31645 1.4937,3.30711 1.9631,5.02623 0.4516,2.3583 0.7282,5.03599 2.617,6.74135 1.0414,0.85574 2.3303,1.44378 3.6355,1.70518 1.7764,-0.29042 3.8361,-0.55866 4.9465,-2.16026 1.8681,-2.28624 1.969,-5.43713 1.7489,-8.24805 -0.2202,-2.44654 -0.7693,-4.85076 -1.4364,-7.21093 0.8537,-0.73339 1.4422,-1.72999 1.8789,-2.74219 0.4128,-0.52097 0.9028,-0.70445 1.5459,-0.48839 3.2046,0.35369 6.4208,0.75023 9.6457,0.77923 2.0823,-0.0936 4.128,-1.30854 4.9648,-3.25899 0.7034,-1.17186 1.4073,-2.34347 2.1092,-3.51623 -1.7904,-1.74332 -3.1807,-4.0825 -5.6132,-5.01172 -2.9281,-0.92321 -6.0232,-1.30545 -8.8653,-2.50195 -0.9091,-1.4491 -1.8194,-2.9206 -3.1088,-4.07165 -1.1802,-1.12674 -2.5987,-1.99774 -4.106,-2.60218 -0.7071,-1.09638 -0.5795,-2.51104 -0.5586,-3.76172 0.2363,-2.83189 0.5944,-5.96296 -1.0254,-8.48047 -1.1355,-1.70775 -3.1393,-2.78895 -5.1934,-2.77148 z m -88.4961,1.20898 c -0.086,0.0721 -0.2015,-0.14743 0,0 z m -1333.1425,4.10743 c -3.1715,4e-5 -5.8179,2.75642 -6.2344,5.80664 0.028,0.82239 -0.4979,-0.22511 -0.7676,-0.38867 -1.7708,-2.10696 -4.8252,-2.91394 -7.4219,-2.03907 -3.2171,0.9638 -5.344,4.46606 -4.7949,7.76563 -3.4993,-0.37622 -6.7831,2.61776 -7.0206,6.07226 -0.1808,1.22071 0.1394,2.49675 0.5187,3.60352 -2.2043,2.8915 -2.1585,7.37993 0.3769,10.05859 -1.3348,2.15109 -1.3212,4.902 -0.373,7.19922 0.5449,1.4768 1.4232,2.88569 2.7363,3.79297 0.8703,2.6447 3.0853,4.73894 5.625,5.78711 0.453,0.16401 0.1667,0.93243 0.4011,1.33537 0.5348,2.43538 2.58,4.47136 5.0637,4.85799 2.2213,0.51422 4.6736,-0.12833 6.459,-1.38672 1.1275,2.36138 3.7984,3.89967 6.4141,3.49414 1.8625,-0.21314 3.5341,-1.36705 4.5058,-2.95312 2.836,1.68597 6.7743,1.208 9.0301,-1.23242 0.5961,-0.61067 1.0811,-1.33374 1.4426,-2.10157 4.0573,-0.78308 6.9002,-5.00985 6.5078,-9.05273 2.0863,-1.44467 3.3576,-3.83294 3.9922,-6.23828 0.6276,-2.80509 -0.5917,-6.05677 -3.2387,-7.3672 -0.5394,-0.22312 -0.9801,-0.37334 -0.191,-0.6953 1.6538,-1.06722 3.0677,-2.63272 3.4785,-4.60743 0.8135,-3.29672 -1.1473,-6.95521 -4.3102,-8.16138 -0.5619,-0.23284 -1.1547,-0.39991 -1.7581,-0.47924 0.124,-3.93882 -3.0863,-7.68127 -7.037,-8.02548 -0.6224,-0.68768 -1.2817,-1.49004 -2.1427,-1.96476 -1.8428,-1.12088 -4.1833,-1.40684 -6.2305,-0.71093 -1.2004,-1.50052 -3.0933,-2.45926 -5.0312,-2.36914 z m 413.0937,4.83789 c -3.0679,0.25324 -5.5648,2.85934 -6.0996,5.82633 -0.7801,3.41326 -0.8033,6.95394 -0.6406,10.43539 -0.078,0.48288 0.377,1.19767 -0.1992,1.46289 -1.1875,0.98035 -1.9474,2.42204 -2.2598,3.89648 -0.6578,0.43019 -1.1166,1.14715 -1.6589,1.64495 -3.762,0.73976 -7.4545,1.97567 -10.8305,3.80006 -2.4233,1.43636 -4.7096,3.59799 -5.3329,6.44171 -0.6052,3.15871 1.655,6.6291 4.8899,7.09984 2.8552,0.58796 5.5194,-0.93178 7.9992,-2.11931 0.8647,-0.3926 1.7102,-0.96378 2.6539,-1.0899 1.309,1.04712 2.4447,2.29717 3.7156,3.39289 1.5073,1.41953 3.3464,2.66839 4.0892,4.69129 1.1371,2.47046 1.2592,5.41641 3.1132,7.5291 0.8777,0.98321 2.0196,1.91088 3.3476,2.10156 1.7343,0.15739 3.6913,0.0994 5.0183,-1.19176 2.2875,-1.7517 2.8985,-4.86472 2.5657,-7.58949 -0.2348,-2.59781 -0.9726,-5.11571 -1.7773,-7.58594 0.6323,-0.56382 0.8442,-1.49529 1.6464,-1.84397 0.6279,-0.366 1.119,-0.96755 1.6465,-1.40994 3.4771,0.0496 6.9543,0.57014 10.4288,0.32625 1.6946,-0.39995 3.1867,-1.35508 4.863,-1.82096 0.258,-0.39412 0.035,-1.12778 0.1086,-1.65255 0,-2.06029 0,-4.12057 0,-6.18086 -2.2346,-1.33184 -4.6701,-2.3821 -7.2717,-2.69831 -2.133,-0.42934 -4.6481,-0.51561 -6.1504,-2.32204 -2.2101,-2.33751 -4.5719,-4.55977 -7.2498,-6.3566 0.073,-3.58643 0.782,-7.30107 -0.3828,-10.78711 -0.981,-2.46906 -3.5563,-4.20338 -6.2324,-4 z m 223.0996,0.32422 c -1.3441,-0.0227 -2.6952,0.40433 -3.7949,1.1289 -2.2387,-0.63361 -4.7544,0.20255 -6.1972,2.02047 -0.4155,0.42566 -0.5282,1.13087 -1.211,1.19633 -2.5653,1.05895 -4.1394,3.92639 -3.7754,6.66016 -2.46,1.34674 -4.0194,4.28097 -3.4221,7.07157 0.2469,1.43301 1.1438,2.68955 2.1155,3.68819 -0.6798,2.76537 0.1206,6.07764 2.5937,7.70117 0.6819,0.37834 0.9939,1.19761 1.6758,1.61133 1.3445,1.04898 3.0849,1.56109 4.7832,1.44141 1.4808,2.48064 4.6335,3.97394 7.457,3.07617 0.5197,-0.0965 1.0113,-0.47929 1.4825,-0.56445 2.672,1.23623 6.1651,0.26301 7.6777,-2.30079 0.35,-0.44052 0.3528,-1.21163 1.0644,-1.17773 2.6259,-0.73122 4.7329,-3.24116 4.628,-6.02459 0.015,-0.52165 -0.095,-1.07006 -0.1651,-1.56135 2.2684,-1.72938 3.0276,-5.12609 1.606,-7.6188 -0.1536,-0.49898 -0.8853,-0.85956 -0.4927,-1.39682 0.7821,-2.1865 0.1723,-4.75355 -1.5232,-6.34244 -0.4586,-0.54216 -1.1751,-0.83332 -1.6848,-1.25348 -0.9378,-2.75805 -3.8858,-4.63145 -6.7842,-4.25955 -0.5776,0.1123 -1.0911,0.26811 -1.2793,-0.4375 -0.9732,-1.35507 -2.4991,-2.41631 -4.1738,-2.64063 -0.193,-0.0192 -0.3863,-0.0249 -0.5801,-0.0176 z m 1596.0684,5.92382 c 0.5707,0.45396 0.5624,1.59793 -0.1074,1.875 -0.5951,-0.46598 -0.6305,-1.46227 -0.018,-1.92968 l 0.092,0.0401 z m 215.2207,2.65625 c 0.5392,0.14203 0.9335,1.04247 0.3828,1.35938 -0.7292,0.0808 -1.424,-0.67739 -1.207,-1.39649 0.2747,0.0124 0.5494,0.0247 0.8242,0.0371 z m -2196.457,4.40235 c -2.0702,-0.0149 -4.1932,0.60195 -5.7813,1.96484 -2.4614,-0.34315 -5.1542,0.0789 -7.1816,1.58008 -0.5956,0.40543 -1.0143,1.05909 -1.5137,1.51758 -3.402,0.72673 -6.2943,3.71389 -6.6172,7.22265 -2.8861,0.53775 -4.9664,2.94848 -6.3105,5.40625 -1.5194,3.11459 -0.3437,7.21127 2.5976,9.04688 0.1989,0.28912 1.3496,0.55406 0.8165,0.83078 -2.478,1.57352 -3.7,4.65567 -3.2931,7.51883 0.3156,2.57568 1.7526,5.03653 3.961,6.43359 -0.2653,3.35095 1.4215,7.044 4.6598,8.34121 0.4374,0.24444 1.0366,0.22917 1.4242,0.48123 1.4608,2.3089 4.0915,3.72455 6.7458,4.13827 1.183,0.15896 2.4115,0.0266 3.5354,-0.33375 2.1509,2.48218 5.894,3.30083 8.9707,2.30468 1.3842,-0.46931 2.6392,-1.34787 3.4883,-2.54492 3.4978,1.89407 8.2929,0.77471 10.5151,-2.54569 0.6709,-0.97929 1.0941,-2.1268 1.2173,-3.30782 2.6547,-0.90796 4.7567,-3.1562 5.6582,-5.79297 2.5599,-1.49282 3.8623,-4.53354 3.757,-7.4272 0.038,-1.31079 -0.2454,-2.64499 -0.7433,-3.83452 2.1028,-2.72366 2.0629,-6.75016 0.09,-9.53125 1.4114,-3.12514 0.3051,-7.10577 -2.503,-9.06945 -1.1199,-0.86836 -2.5734,-1.32824 -3.8993,-1.5536 -0.1432,-3.48549 -2.7073,-6.38147 -5.6562,-7.97657 -2.4523,-1.37717 -5.7735,-1.11797 -7.8516,0.82813 -1.1658,-2.24745 -3.5475,-3.70912 -6.0859,-3.69726 z m 2033.041,4.07617 c -3.2131,0.0322 -6.1439,2.8669 -6.0863,6.11796 -0.064,1.8645 1.016,3.67219 2.2152,4.90157 -2.9271,0.10194 -5.7937,2.18066 -6.364,5.13034 -0.8097,3.19782 1.3858,6.55395 4.363,7.69349 3.9563,1.82189 8.2904,2.64724 12.6059,3.01253 4.2241,1.1068 8.3142,2.66404 12.4166,4.14802 5.6942,2.11227 11.4717,4.43015 17.1116,6.83512 3.4634,1.47467 6.8785,3.08935 10.058,5.11414 2.5073,1.41668 5.2483,2.94606 8.2287,2.69088 2.6995,-0.23697 5.2565,-2.23165 5.7403,-4.96632 0.5634,-2.5092 -0.7539,-5.1474 -2.8047,-6.58984 3.2831,-0.5267 5.6888,-4.06339 4.9141,-7.31055 -0.5078,-2.63338 -2.9225,-4.47509 -5.4413,-5.02839 -3.3852,-1.01267 -7.0157,-0.52098 -10.3895,-1.58964 -6.4035,-1.78217 -12.6357,-4.12732 -18.8137,-6.56685 -4.2322,-1.73751 -8.4946,-3.45235 -12.5118,-5.65304 -2.212,-1.24628 -4.0248,-3.06827 -6.2041,-4.3697 -2.5715,-1.57522 -5.2659,-3.26425 -8.3349,-3.56386 -0.2343,-0.001 -0.469,-0.0157 -0.7031,-0.006 z m 363.6269,2.03125 c -2.4216,0.0225 -4.7041,1.43788 -5.8984,3.5293 -2.1439,3.31318 -2.0685,7.42157 -1.9414,11.21484 0.065,1.36505 0.1833,2.73708 0.2207,4.09766 -0.659,0.59851 -1.0843,1.43139 -1.5741,2.12629 -1.196,0.6036 -2.1961,1.57477 -2.8654,2.73308 -4.4549,0.85348 -8.7403,2.58867 -12.5801,4.99414 -2.27,1.558 -3.8939,4.38008 -3.2554,7.17766 0.5673,2.9584 3.5246,5.13995 6.512,4.91123 2.0921,-0.0164 4.1622,-1.01187 5.9153,-1.8467 0.8491,-0.383 1.7017,-0.79203 2.6153,-0.99023 1.786,2.33579 4.3987,3.78954 6.8632,5.28515 1.2549,1.39414 1.5005,3.35 2.2433,5.01798 0.9116,2.56725 2.0476,5.43669 4.6301,6.73333 2.788,1.49668 6.6642,0.3106 8.0524,-2.556 1.0382,-1.86983 0.9172,-4.08316 0.5031,-6.10885 -0.4106,-2.29494 -1.0962,-4.52713 -1.7726,-6.75443 0.5693,-0.45632 0.8924,-1.17461 1.423,-1.62845 0.9116,-0.46357 1.6938,-1.1617 2.327,-1.95358 2.9832,0.16236 6.0309,0.58231 9.0384,0.28178 1.5819,-0.26032 2.9983,-1.22454 3.8776,-2.55326 1.5063,-1.54353 1.7543,-4.16054 0.4409,-5.8976 -0.7817,-1.77812 -2.4648,-3.07198 -4.3719,-3.41495 -2.3224,-0.68098 -4.7702,-0.9608 -6.9889,-1.97261 -1.2773,-2.9433 -4.0672,-4.74201 -6.5822,-6.53088 -1.4455,-0.95409 -1.6431,-2.83458 -1.5352,-4.41716 0.078,-2.39337 1.0362,-4.84337 0.2401,-7.2028 -0.7711,-2.30445 -2.9849,-4.39318 -5.5368,-4.27494 z m -950.3359,10.74414 c -1.794,-0.0968 -3.6109,0.40662 -5.043,1.50586 -3.3159,-0.79998 -7.0354,0.69811 -8.8789,3.56641 -3.4543,0.25642 -6.8762,2.85876 -7.2794,6.43305 0.073,0.55294 -0.1643,0.77254 -0.7128,0.78765 -2.3613,0.59008 -4.2083,2.61603 -4.6846,4.98861 -0.4031,1.48045 -0.9784,2.98996 -0.6496,4.54934 0.3624,2.4178 2.0817,4.52096 4.3205,5.46791 -2.08,1.12995 -3.4413,3.32323 -3.6699,5.66406 -0.442,3.00176 0.6377,6.49508 3.4406,7.99731 0.6662,0.13608 0.1827,0.80404 0.245,1.27222 -0.2586,3.71234 2.7424,7.3435 6.4765,7.6543 1.6224,3.24447 5.7824,5.0014 9.1962,3.65798 0.5418,-0.3119 0.9704,-0.46875 1.2863,0.20335 2.3556,2.49504 6.3277,2.85102 9.3691,1.51758 0.8185,-0.38196 1.568,-0.9209 2.1602,-1.60547 3.9518,2.27722 9.7253,0.54877 11.5214,-3.71289 0.3097,-0.73303 0.4872,-1.52089 0.5157,-2.31641 2.9505,-0.63037 5.6555,-2.81736 6.4687,-5.7832 2.8542,-1.77107 3.8696,-5.57221 2.9243,-8.68804 -0.1612,-0.58288 -0.4356,-1.15179 -0.6997,-1.67524 2.176,-2.19324 2.5877,-5.72864 1.2776,-8.47577 -0.1292,-0.60566 -0.9145,-1.07089 -0.5667,-1.70531 1.078,-3.82747 -0.5722,-8.51621 -4.3045,-10.22517 -0.7422,-0.39163 -1.6765,-0.53175 -2.4142,-0.71875 0.1669,-2.38486 -1.2124,-4.60174 -3.113,-5.9442 -1.9377,-1.37558 -4.2605,-2.59611 -6.7151,-2.25698 -1.4228,0.15926 -2.8069,0.76446 -3.9043,1.65235 -1.1667,-2.2729 -3.6162,-3.74078 -6.1589,-3.79142 -0.1359,-0.004 -0.2715,-0.0258 -0.4075,-0.0191 z m 152.0547,1.99805 c -2.9693,-0.0687 -5.5632,2.22687 -6.3926,4.98828 -0.1828,0.29294 -0.159,1.1808 -0.3555,1.17578 -1.1722,-1.41169 -2.669,-2.65971 -4.5263,-2.98514 -2.8911,-0.67298 -6.2118,0.63738 -7.571,3.3445 -0.7704,1.42889 -0.8891,3.15563 -0.471,4.71095 -2.7155,-0.36776 -5.5884,1.112 -6.7181,3.63899 -0.886,1.91759 -0.9256,4.19344 -0.2292,6.17742 -2.2142,3.10264 -1.9546,7.87122 0.9473,10.46094 -2.2261,2.79217 -1.7088,7.1563 0.8777,9.54067 0.3829,0.44741 1.0652,0.63105 1.1086,1.28745 0.862,2.53538 3.0796,4.51738 5.6562,5.19922 0.1545,2.78484 2.14,5.35874 4.8395,6.11986 2.3474,0.75939 5.0583,0.18803 6.9262,-1.41673 1.34,2.74233 4.6182,4.31444 7.5946,3.62151 1.5796,-0.31252 3.0548,-1.19368 4.0323,-2.47698 3.8624,1.64361 8.7995,-0.22362 10.5977,-4.01758 3.507,-0.83672 6.1652,-4.53846 5.4648,-8.14649 -0.3609,-0.61665 0.3947,-0.60864 0.745,-0.88598 2.2397,-1.24521 3.6573,-3.71849 3.7335,-6.26441 0.2639,-2.58827 -0.9256,-5.31657 -3.1152,-6.75976 2.761,-1.23947 4.6219,-4.3709 4.0371,-7.39844 -0.4547,-3.52104 -3.6825,-6.26999 -7.1484,-6.58398 0.1794,-3.85622 -2.7846,-7.677 -6.6524,-8.22071 -1.8011,-2.57311 -5.3706,-3.86282 -8.3476,-2.74218 -1.2281,-1.47082 -3.1029,-2.40965 -5.0332,-2.36719 z m -1972.4551,3.67773 c -2.9735,0.20798 -5.4196,2.7562 -5.8355,5.65368 -0.4678,2.40203 -0.3527,4.86502 -0.2153,7.29359 -1.0412,0.90059 -1.7235,2.16736 -2.0508,3.48633 -0.4259,0.35423 -0.6142,1.04009 -1.2603,0.98157 -3.4643,0.64877 -6.8863,2.00363 -9.5782,4.3174 -2.1526,2.00288 -2.9035,5.47281 -1.3791,8.06303 1.4016,2.5963 4.7191,3.77236 7.5002,2.94089 1.4648,-0.2887 2.8554,-0.85123 4.2389,-1.39469 1.31,1.29482 2.8454,2.33711 4.2915,3.45661 1.5124,2.07624 1.6511,4.80651 3.0562,6.94964 1.315,2.34071 4.1222,3.79409 6.789,3.22656 2.4863,-0.50578 4.4778,-2.68736 4.7937,-5.20341 0.3515,-2.37974 -0.3366,-4.75518 -0.9117,-7.04548 -0.1317,-0.66575 -0.4801,-1.37328 -0.4777,-2.01478 0.2869,-0.4964 0.7601,-0.94147 1.2598,-1.14648 2.6332,0.17894 5.2962,0.67344 7.929,0.32706 1.376,-0.32999 2.5384,-1.1868 3.8522,-1.68253 0.5365,-2.14257 1.0738,-4.28495 1.6094,-6.42774 -1.992,-1.71425 -4.0256,-3.6761 -6.7252,-4.12621 -2.3376,-0.64102 -4.695,-1.61775 -6.3212,-3.48774 -1.0406,-0.989 -2.1893,-1.85442 -3.2778,-2.78839 -0.1463,-2.68768 0.048,-5.55859 -1.311,-7.99523 -1.1207,-2.19263 -3.5233,-3.53956 -5.9761,-3.38368 z m 373.2988,5.3457 c 0.5457,0.45449 1.0979,1.20884 0.6403,1.92579 -0.7599,0.28237 -1.6089,-0.86309 -1.0602,-1.56641 0.1118,-0.12177 0.2359,-0.3796 0.4199,-0.35938 z m 1187.2422,12.99415 c -1.7145,0.0918 -3.3417,0.95387 -4.4668,2.23632 -2.9362,-0.80866 -6.4059,0.25562 -8.1308,2.81446 -3.5832,0.29516 -6.5447,3.46147 -6.8887,6.99218 -2.9197,0.31671 -5.3607,2.65528 -6.0586,5.46875 -0.8215,2.99201 0.3009,6.42877 2.8387,8.25238 0.2478,0.29808 1.0221,0.63542 1.0021,0.86305 -2.2646,0.88509 -3.8759,3.13854 -3.9614,5.5722 -0.1837,2.56866 0.6422,5.33348 2.5522,7.12097 0.5401,0.47063 1.1566,0.8534 1.8164,1.13086 -0.7919,3.43588 1.0411,7.4406 4.4571,8.63867 0.4695,0.23071 1.1346,0.10654 1.3379,0.68555 1.4678,1.96795 3.7446,3.1551 6.0097,3.96484 1.5374,0.41741 3.2473,0.24241 4.6328,-0.55078 1.7443,2.57721 5.4574,3.62353 8.2221,2.10527 1.1906,-0.60767 2.1963,-1.57923 2.8365,-2.75371 3.1581,2.30744 8.2073,1.92722 10.5996,-1.31055 0.7925,-1.08279 1.1678,-2.43269 1.1973,-3.76367 2.802,-0.57916 5.1584,-2.8592 5.8633,-5.6289 2.8183,-1.91593 3.7164,-5.6543 3.1874,-8.87083 -0.066,-0.59654 -0.3027,-1.19521 -0.4452,-1.74636 1.8687,-2.50131 1.9986,-6.01196 0.8807,-8.85201 -0.1828,-0.49236 -0.4876,-0.94865 -0.746,-1.38432 1.1286,-3.07611 0.2763,-7.04875 -2.6504,-8.8125 -1.2172,-0.75754 -2.6809,-1.11045 -4.1093,-0.97266 0.5029,-2.6821 -0.8636,-5.4667 -3.1075,-6.94726 -2.4265,-1.73083 -5.96,-1.75996 -8.3144,0.12305 -0.5507,0.39433 -1.0646,0.83898 -1.5371,1.32421 -0.5445,-3.04979 -3.2511,-5.72364 -6.4363,-5.70717 -0.1939,-0.006 -0.3875,0.002 -0.5813,0.008 z m -1356.8691,1.98632 c -1.199,-0.0267 -2.3613,0.42854 -3.3887,0.95118 -2.5825,-0.6313 -5.5676,0.37924 -7.0215,2.65429 -2.8213,0.98436 -4.5953,4.1458 -4.1348,7.04883 -2.5171,0.89904 -4.313,3.5421 -4.0136,6.22852 0.1537,1.74751 1.0714,3.44223 2.5215,4.44726 -0.8514,2.22992 -0.4348,4.92897 1.2832,6.64063 0.4636,0.53358 1.1564,0.81612 1.4213,1.5027 1.4585,2.28334 4.4166,3.50828 7.0552,2.85081 1.7871,2.42686 5.3163,3.4372 8.0491,2.06341 0.5623,-0.0767 1.1666,0.32663 1.7742,0.30406 2.5862,0.33256 5.327,-1.03178 6.4638,-3.40848 3.0314,-0.62222 5.3514,-3.6682 5.0215,-6.76758 2.4009,-1.56658 3.675,-4.75585 2.707,-7.50391 -0.2468,-0.81379 -0.7446,-1.55868 -1.2265,-2.21679 0.9172,-2.73836 -0.1456,-6.06852 -2.6984,-7.52547 -0.465,-0.20873 -0.8228,-0.46818 -0.9794,-0.97844 -1.4114,-2.36272 -4.381,-3.65915 -7.0664,-3.00781 -1.2149,-1.96069 -3.4293,-3.33397 -5.7675,-3.28321 z m 1617.2226,1.97852 c 0.4932,0.67323 0.048,1.78679 -0.7031,1.99609 -0.7694,-0.54223 -0.5024,-1.90381 0.4847,-1.97498 0.072,-0.0259 0.1439,-0.0264 0.2184,-0.0211 z m 152,2 c 0.4932,0.67323 0.048,1.78679 -0.7031,1.99609 -0.7694,-0.54223 -0.5024,-1.90381 0.4847,-1.97498 0.072,-0.0259 0.1439,-0.0264 0.2184,-0.0211 z m 113.6797,3.99805 c -1.4087,-0.0784 -2.6249,0.74695 -3.711,1.5432 -2.1538,1.62108 -2.4499,4.75027 -1.5083,7.12008 0.6137,1.43083 1.4099,2.789 1.796,4.31402 0.2793,0.9306 0.499,1.87977 0.6538,2.8391 -2.4703,1.52149 -4.3495,3.82026 -5.7188,6.34961 -1.4344,0.73412 -3.0314,1.02423 -4.5598,1.50748 -2.3309,0.65645 -4.8425,1.09488 -6.8368,2.54932 -1.1563,0.88384 -1.725,2.29494 -1.9667,3.68344 -0.4261,1.43148 -0.1361,2.92102 0.094,4.35742 2.0104,1.08552 3.9591,2.78443 6.3965,2.55859 2.9249,-0.22329 5.8408,-0.55509 8.7617,-0.82812 0.883,1.32672 2.266,2.31579 3.8145,2.70117 0.2461,0.41807 -0.088,1.04043 -0.073,1.54351 -0.4092,3.19412 -0.7346,6.41802 -0.7336,9.63618 0.2911,1.8385 0.7387,3.64744 1.0625,5.48046 2.569,0 5.138,10e-6 7.707,0 1.6628,-1.67297 3.1815,-3.69425 3.4398,-6.11127 0.526,-2.25197 0.9005,-4.64984 2.1931,-6.60747 2.5754,-0.85086 4.5037,-2.90927 6.2248,-4.91331 0.4485,-0.53338 0.8709,-1.08833 1.2869,-1.64724 3.1568,0.0785 6.322,0.69663 9.4764,0.3139 2.8099,-0.30635 5.2109,-2.72018 5.424,-5.55023 0.2983,-2.55139 -1.2658,-4.99637 -3.4551,-6.20898 -2.5604,-1.43637 -5.5744,-1.63437 -8.4395,-1.88086 -1.4741,-0.102 -3.0017,-0.0731 -4.4472,-0.17578 -0.8658,-1.41141 -2.3453,-2.37163 -3.8946,-2.8379 -0.4362,-0.68966 -0.9837,-1.30889 -1.625,-1.81445 -0.35,-4.56675 -1.3439,-9.23897 -3.8626,-13.13031 -1.6926,-2.50413 -4.3302,-4.75418 -7.4987,-4.79156 z m 232.0899,3.60546 c -3.2492,0.16235 -5.8165,2.40483 -8.2055,4.37065 -2.2866,2.04478 -4.6326,4.03868 -7.2557,5.64391 -2.6812,1.76204 -5.3886,3.40655 -8.1352,4.97011 -5.4321,3.05259 -10.9752,5.92616 -16.6884,8.41777 -2.7098,1.18708 -5.5389,2.07373 -8.4241,2.71668 -3.5808,0.96183 -7.3423,2.07673 -10.0841,4.7051 -2.0088,2.08004 -2.4096,5.59846 -0.618,7.93761 1.4988,2.10652 4.3354,2.9366 6.8094,2.4413 -2.0005,2.18919 -2.011,5.80205 -0.088,8.03952 1.6721,2.05105 4.6238,2.59234 7.0828,1.86026 3.9044,-1.08742 7.0758,-3.77522 10.1403,-6.30586 1.0926,-0.9775 2.2061,-1.79748 3.3985,-2.55418 6.1352,-3.96905 12.606,-7.38341 19.0449,-10.8257 4.1674,-2.17733 8.4735,-4.37599 12.8668,-6.21085 3.8136,-1.43892 7.9837,-2.37095 11.176,-5.04811 1.5201,-1.48424 2.2062,-3.73333 1.9319,-5.81112 -0.7861,-1.82682 -1.9406,-3.80178 -4.0081,-4.32951 -1.1273,-0.42254 -2.3608,-0.49269 -3.5469,-0.33203 1.1493,-1.90883 1.3677,-4.40392 0.2422,-6.375 -1.0689,-2.05618 -3.3203,-3.38852 -5.6386,-3.31055 z m -333.834,7.24805 c -0.3096,1.16967 -1.977,1.54629 -2.7759,0.66151 -0.6328,-0.27062 -0.5492,-1.03028 -0.771,-1.58143 0.1271,-0.39255 0.3351,-1.45095 0.8412,-1.19518 0.9019,0.70503 1.8038,1.41007 2.7057,2.1151 z m -1777.0469,-0.94531 c 0.3705,0.14787 0.9989,0.57168 0.5352,0.98828 -0.5105,0.0804 -1.1077,-0.45813 -1.6512,-0.61329 -0.8122,-0.2929 0.54,-0.6194 0.8928,-0.42714 0.074,0.0174 0.1488,0.0348 0.2232,0.0521 z m 440.2305,6.52734 c -5.1947,0.14736 -10.0287,4.13173 -11.0331,9.25469 -0.989,4.12149 0.4915,8.98778 4.2043,11.2721 4.0493,2.64696 9.8682,2.732 13.6458,-0.46769 4.3217,-3.4658 5.7896,-10.22773 2.7894,-14.99428 -1.9702,-3.27275 -5.8033,-5.24897 -9.6064,-5.06482 z m 913.4589,1.24414 c 1.0692,0.2039 0.5841,2.06753 -0.4648,1.71094 -0.8632,-0.22119 -0.877,-1.60391 0.053,-1.7207 0.139,-0.0184 0.2746,-0.0193 0.4121,0.01 z m -852.2402,2.60938 c -0.9019,0.68525 -1.7945,1.38237 -2.7031,2.05859 -1.981,-0.55824 -4.4157,-0.3429 -5.8027,1.34375 -0.3302,0.47981 -0.6739,0.8529 -1.291,0.88042 -2.6237,0.75062 -4.4947,3.37517 -4.4141,6.09419 6e-4,0.6491 0.091,1.29693 0.2519,1.92578 -1.8552,1.13754 -3.1278,3.29581 -2.8238,5.5057 0.096,0.70678 -0.096,1.48376 0.048,2.14581 0.572,0.61083 1.1237,1.24291 1.7387,1.81138 -0.9323,2.39825 -0.5452,5.38897 1.4258,7.16016 0.5027,0.55963 1.2494,0.83469 1.7958,1.29867 1.2995,1.68217 3.4858,2.62163 5.6007,2.4318 1.5706,2.41128 4.928,3.41337 7.543,2.19141 0.4906,-0.14599 0.9822,0.44091 1.5134,0.47873 2.4219,0.8256 5.3065,-0.0101 6.8076,-2.1076 0.3789,-0.38947 0.527,-1.02738 0.884,-1.36759 2.995,-0.64906 5.2706,-3.69229 4.8809,-6.76331 1.3296,-0.79203 2.3278,-2.11396 2.568,-3.65829 0.4515,-1.60772 0.1263,-3.35945 -0.8423,-4.713 -0.2368,-0.49113 -0.8044,-0.84673 -0.9977,-1.28463 0.5847,-2.39909 -0.4056,-5.15621 -2.5288,-6.47689 -0.5381,-3.29891 -4.0107,-5.84013 -7.3223,-5.11914 -0.5577,0.27874 -0.6218,-0.56238 -0.9804,-0.82227 -1.3136,-1.36142 -2.6227,-2.73168 -3.9258,-4.10547 -0.4753,0.36393 -0.9505,0.72787 -1.4258,1.0918 z m -446.4473,-0.0391 c -1.1045,0.012 -2.169,0.44319 -3.1152,0.93359 -2.7575,-0.56623 -5.8341,0.93647 -6.9297,3.56055 -2.2243,1.02207 -3.5937,3.50843 -3.4824,5.91406 -1.6368,0.6639 -2.7162,2.13026 -3.9082,3.35937 0.235,1.87665 -0.2378,3.99901 1.0117,5.60938 0.5076,0.67098 1.1191,1.26278 1.8047,1.75 -0.8186,2.33436 -0.3863,5.17932 1.5188,6.8655 0.7745,0.47838 0.9234,1.45004 1.5685,2.06139 1.5086,1.82546 4.0763,2.64191 6.3678,2.0692 1.4704,1.76683 4.0261,2.71855 6.2328,1.84792 0.5014,-0.30912 0.9208,-0.0949 1.3876,0.16515 2.7979,1.22734 6.4559,-0.0434 7.7388,-2.84804 0.3499,-0.31376 1.0421,-0.21788 1.4963,-0.47557 2.4899,-0.86252 4.3136,-3.35424 4.2333,-6.01053 -0.056,-0.51033 0.6886,-0.62615 0.9249,-1.03244 1.3525,-1.39558 2.0786,-3.41403 1.9199,-5.34571 -0.2087,-1.17993 -1.0518,-2.12415 -1.7728,-3.03762 -0.4972,-0.39318 -0.8114,-0.7791 -0.5432,-1.42309 0.2327,-2.00469 -0.5625,-4.08664 -2.0317,-5.44554 -0.2211,-3.08504 -3.0173,-5.76656 -6.1433,-5.67187 -0.7277,-0.0573 -1.5185,0.20915 -2.1692,0.26758 -1.403,-1.9133 -3.6971,-3.23312 -6.1094,-3.11328 z m 1151.3653,6.21289 c -1.0464,0.0358 -2.0748,0.36783 -2.9629,0.91797 -2.418,-0.76224 -5.3162,0.0575 -6.8027,2.15625 -3.0202,0.69833 -5.072,3.95502 -4.508,6.9855 -0.069,0.46295 0.5508,1.11507 -0.02,1.36032 -1.677,1.18531 -2.701,3.26164 -2.4028,5.32226 0.086,0.67196 -0.1074,1.41527 0.045,2.04202 0.4933,0.53039 0.978,1.06894 1.4906,1.58091 -1.0897,2.46606 -0.7721,5.66408 1.3156,7.51491 0.7102,0.73323 1.7005,1.07898 2.5638,1.5461 1.3608,1.19717 3.2382,1.72086 5.0288,1.56399 0.9086,1.59684 2.5587,2.72208 4.334,3.125 1.1243,0.2219 2.2932,-0.0204 3.3027,-0.53125 2.8334,1.71006 7.0163,0.57924 8.4249,-2.45988 0.3034,-0.39565 1.0529,-0.24044 1.5068,-0.52254 2.477,-0.85246 4.2958,-3.31897 4.2441,-5.95703 0.081,-0.51351 -0.229,-1.11506 -0.047,-1.55469 1.9621,-2.13164 2.2058,-5.62603 0.4687,-7.96484 0.9365,-2.3554 0.2886,-5.24906 -1.6543,-6.90235 -0.6132,-0.30629 -0.4476,-1.0634 -0.7525,-1.60364 -0.9446,-2.58715 -3.7419,-4.34141 -6.4877,-3.94772 -0.4711,-0.12005 -1.1477,0.53848 -1.4421,0.029 -1.3197,-1.72175 -3.4545,-2.83534 -5.6458,-2.70029 z m -1154.3672,10.44531 c 0.3705,0.14787 0.9989,0.57168 0.5352,0.98828 -0.5105,0.0804 -1.1077,-0.45813 -1.6512,-0.61329 -0.8122,-0.2929 0.54,-0.6194 0.8928,-0.42714 0.074,0.0174 0.1488,0.0348 0.2232,0.0521 z m 8,1 c 0.3705,0.14787 0.9989,0.57168 0.5352,0.98828 -0.5105,0.0804 -1.1077,-0.45813 -1.6512,-0.61329 -0.8122,-0.2929 0.54,-0.6194 0.8928,-0.42714 0.074,0.0174 0.1488,0.0348 0.2232,0.0521 z m 446,1 c 0.3705,0.14787 0.9989,0.57168 0.5352,0.98828 -0.5105,0.0804 -1.1077,-0.45813 -1.6512,-0.61329 -0.8122,-0.2929 0.54,-0.6194 0.8928,-0.42714 0.074,0.0174 0.1488,0.0348 0.2232,0.0521 z m 697,4 c 0.3705,0.14787 0.9989,0.57168 0.5352,0.98828 -0.5105,0.0804 -1.1077,-0.45813 -1.6512,-0.61329 -0.8122,-0.2929 0.54,-0.6194 0.8928,-0.42714 0.074,0.0174 0.1488,0.0348 0.2232,0.0521 z m 8,1 c 0.3705,0.14787 0.9989,0.57168 0.5352,0.98828 -0.5105,0.0804 -1.1077,-0.45813 -1.6512,-0.61329 -0.8122,-0.2929 0.54,-0.6194 0.8928,-0.42714 0.074,0.0174 0.1488,0.0348 0.2232,0.0521 z" />

</svg>
