<?xml version="1.0" encoding="utf-8"?>
<!-- Generator: Adobe Illustrator 18.0.0, SVG Export Plug-In . SVG Version: 6.00 Build 0)  -->
<!DOCTYPE svg PUBLIC "-//W3C//DTD SVG 1.1//EN" "http://www.w3.org/Graphics/SVG/1.1/DTD/svg11.dtd">
<svg version="1.1" id="Layer_18" xmlns="http://www.w3.org/2000/svg" xmlns:xlink="http://www.w3.org/1999/xlink" x="0px" y="0px"
	 width="595.28px" height="841.89px" viewBox="0 0 595.28 841.89" enable-background="new 0 0 595.28 841.89" xml:space="preserve">
<g opacity="0.75">
	<path d="M107.16,398.43c0.02-0.03,0.03-0.07,0.03-0.11c0-0.11-0.09-0.2-0.2-0.2h-0.37c-0.11,0-0.2,0.09-0.2,0.2
		c0,0.04,0.01,0.08,0.03,0.11c-0.02,0.03-0.03,0.07-0.03,0.11c0,0.03,0.01,0.06,0.02,0.09c-0.01,0.03-0.02,0.06-0.02,0.09
		c0,0.03,0.01,0.06,0.02,0.09c-0.01,0.03-0.02,0.06-0.02,0.09c0,0.03,0.01,0.06,0.02,0.09c-0.01,0.03-0.02,0.06-0.02,0.09
		c0,0.01,0,0.02,0,0.03h-0.21c-0.11,0-0.2,0.09-0.2,0.2c0,0.06,0.03,0.11,0.06,0.15c-0.04,0.04-0.06,0.09-0.06,0.15
		c0,0.03,0.01,0.06,0.02,0.09c-0.01,0.03-0.02,0.06-0.02,0.09c0,0.03,0.01,0.06,0.02,0.09c-0.01,0.03-0.02,0.06-0.02,0.09
		c0,0.03,0.01,0.06,0.02,0.09c-0.01,0.03-0.02,0.06-0.02,0.09c0,0.03,0.01,0.06,0.02,0.09c-0.01,0.03-0.02,0.06-0.02,0.09
		c0,0.03,0.01,0.06,0.02,0.09c-0.01,0.03-0.02,0.06-0.02,0.09c0,0.03,0.01,0.06,0.02,0.09c-0.01,0.03-0.02,0.06-0.02,0.09
		c0,0.03,0.01,0.06,0.02,0.09c-0.01,0.03-0.02,0.06-0.02,0.09c0,0.03,0.01,0.06,0.02,0.09c-0.01,0.03-0.02,0.06-0.02,0.09
		c0,0.03,0.01,0.06,0.02,0.09c-0.01,0.03-0.02,0.06-0.02,0.09c0,0.03,0.01,0.06,0.02,0.09c-0.01,0.03-0.02,0.06-0.02,0.09
		c0,0.03,0.01,0.06,0.02,0.09c-0.01,0.03-0.02,0.06-0.02,0.09c0,0.03,0.01,0.06,0.02,0.09c-0.01,0.01-0.01,0.03-0.02,0.04h-0.21
		c-0.11,0-0.2,0.09-0.2,0.2c0,0.05,0.02,0.1,0.05,0.13c-0.03,0.04-0.05,0.08-0.05,0.13c0,0.03,0.01,0.06,0.02,0.09
		c-0.01,0.03-0.02,0.06-0.02,0.09c0,0.03,0.01,0.06,0.02,0.09c-0.01,0.03-0.02,0.06-0.02,0.09c0,0.03,0.01,0.06,0.02,0.09
		c-0.01,0.03-0.02,0.06-0.02,0.09c0,0.03,0.01,0.06,0.02,0.09c-0.01,0.03-0.02,0.06-0.02,0.09c0,0.03,0.01,0.06,0.02,0.09
		c-0.01,0.03-0.02,0.06-0.02,0.09c0,0.03,0.01,0.06,0.02,0.09c-0.01,0.03-0.02,0.06-0.02,0.09c0,0.03,0.01,0.06,0.02,0.09
		c-0.01,0.03-0.02,0.06-0.02,0.09c0,0.01,0,0.01,0,0.02h-0.21c-0.11,0-0.2,0.09-0.2,0.2c0,0.05,0.02,0.1,0.06,0.14
		c-0.04,0.04-0.06,0.09-0.06,0.14c0,0.03,0.01,0.06,0.02,0.09c-0.01,0.03-0.02,0.06-0.02,0.09c0,0.03,0.01,0.06,0.02,0.09
		c-0.01,0.03-0.02,0.06-0.02,0.09c0,0.03,0.01,0.06,0.02,0.09c-0.01,0.03-0.02,0.06-0.02,0.09c0,0.03,0.01,0.06,0.02,0.09
		c-0.01,0.03-0.02,0.06-0.02,0.09c0,0.03,0.01,0.06,0.02,0.09c0,0.01-0.01,0.01-0.01,0.02h-0.22c-0.11,0-0.2,0.09-0.2,0.2
		c0,0.05,0.02,0.09,0.05,0.13c-0.03,0.04-0.05,0.08-0.05,0.13c0,0.03,0.01,0.06,0.02,0.09c-0.01,0.01-0.01,0.03-0.02,0.04h-0.21
		c-0.11,0-0.2,0.09-0.2,0.2c0,0.04,0.01,0.08,0.04,0.12c-0.02,0.03-0.04,0.07-0.04,0.12c0,0.03,0.01,0.06,0.02,0.09
		c-0.01,0.03-0.02,0.06-0.02,0.09c0,0.03,0.01,0.06,0.02,0.09c-0.01,0.03-0.02,0.06-0.02,0.09c0,0.03,0.01,0.06,0.02,0.09
		c-0.01,0.03-0.02,0.06-0.02,0.09c0,0.03,0.01,0.06,0.02,0.09c-0.01,0.03-0.02,0.06-0.02,0.09c0,0.03,0.01,0.06,0.02,0.09
		c-0.01,0.03-0.02,0.06-0.02,0.09c0,0.03,0.01,0.06,0.02,0.09c-0.01,0.02-0.02,0.04-0.02,0.07h-0.21c-0.11,0-0.2,0.09-0.2,0.2
		c0,0.03,0.01,0.06,0.02,0.08c-0.01,0.02-0.02,0.05-0.02,0.08c0,0.03,0.01,0.06,0.02,0.09c-0.01,0.03-0.02,0.06-0.02,0.09
		c0,0.03,0.01,0.06,0.02,0.09c-0.01,0.03-0.02,0.06-0.02,0.09c0,0.03,0.01,0.06,0.02,0.09c-0.01,0.03-0.02,0.06-0.02,0.09
		c0,0.03,0.01,0.06,0.02,0.09c-0.01,0.03-0.02,0.06-0.02,0.09c0,0.03,0.01,0.06,0.02,0.09c-0.01,0.03-0.02,0.06-0.02,0.09
		c0,0.03,0.01,0.06,0.02,0.09c-0.01,0.03-0.02,0.06-0.02,0.09c0,0.03,0.01,0.06,0.02,0.09c-0.01,0.03-0.02,0.06-0.02,0.09
		c0,0.03,0.01,0.06,0.02,0.09c-0.01,0.02-0.02,0.04-0.02,0.07h-0.21c-0.11,0-0.2,0.09-0.2,0.2c0,0.08,0.05,0.15,0.12,0.19
		c-0.03,0.01-0.06,0.03-0.08,0.06h-0.25c-0.11,0-0.2,0.09-0.2,0.2c0,0.03,0.01,0.07,0.03,0.1h-0.23c-0.09,0-0.17,0.06-0.19,0.15
		h-0.05c-0.01-0.1-0.09-0.19-0.2-0.19h-0.37c-0.01,0-0.01,0-0.02,0c-0.01,0-0.01,0-0.02,0h-0.37c-0.11,0-0.2,0.09-0.2,0.2
		c0,0.04,0.01,0.07,0.03,0.1c-0.02,0.03-0.03,0.06-0.03,0.1c0,0.03,0.01,0.06,0.02,0.09c0,0.01-0.01,0.02-0.01,0.02h-0.22
		c-0.09,0-0.17,0.06-0.19,0.15h-0.1c-0.04-0.04-0.09-0.07-0.16-0.07h-0.37c-0.11,0-0.2,0.09-0.2,0.2c0,0.05,0.02,0.09,0.05,0.13
		c-0.03,0.03-0.05,0.08-0.05,0.13c0,0.03,0.01,0.06,0.02,0.09c-0.01,0.02-0.01,0.03-0.02,0.05h-0.21c-0.11,0-0.2,0.09-0.2,0.2
		c0,0.03,0.01,0.06,0.02,0.09c-0.01,0.03-0.02,0.06-0.02,0.09s0.01,0.06,0.02,0.09c-0.01,0.02-0.02,0.05-0.02,0.08
		c-0.1,0-0.21,0-0.21,0c-0.11,0-0.19,0.08-0.2,0.19h-0.21c-0.11,0-0.2,0.09-0.2,0.2c0,0.01,0,0.01,0,0.02h-0.21
		c-0.11,0-0.2,0.09-0.2,0.2c0,0.05,0.02,0.1,0.05,0.13h-0.26c-0.09,0-0.17,0.06-0.19,0.15h-0.14c-0.03-0.02-0.07-0.04-0.12-0.04
		h-0.21c-0.02-0.09-0.1-0.15-0.19-0.15h-0.37c-0.09,0-0.17,0.06-0.19,0.15H96.8c-0.11,0-0.2,0.09-0.2,0.2
		c0,0.04,0.01,0.08,0.04,0.12c-0.02,0.03-0.04,0.07-0.04,0.12c0,0.03,0.01,0.06,0.02,0.09c-0.01,0.03-0.02,0.06-0.02,0.09
		c0,0.02,0,0.03,0.01,0.05h-0.21c-0.11,0-0.2,0.09-0.2,0.2c0,0.07,0.04,0.13,0.09,0.17c-0.04,0.03-0.07,0.07-0.08,0.11h-0.06
		c-0.02-0.09-0.1-0.15-0.19-0.15h-0.37c-0.06,0-0.12,0.03-0.16,0.07h-0.25c-0.11,0-0.2,0.09-0.2,0.2c0,0.07,0.04,0.14,0.1,0.17
		c-0.06,0.04-0.1,0.1-0.1,0.17c0,0.03,0.01,0.06,0.02,0.09c0,0.01-0.01,0.02-0.01,0.03h-0.14c-0.03-0.02-0.07-0.04-0.12-0.04h-0.21
		c0-0.03-0.01-0.06-0.02-0.09c0.01-0.03,0.02-0.06,0.02-0.09c0-0.03-0.01-0.06-0.02-0.09c0.01-0.03,0.02-0.06,0.02-0.09
		c0-0.03-0.01-0.06-0.02-0.09c0.01-0.03,0.02-0.06,0.02-0.09c0-0.11-0.09-0.2-0.2-0.2H94.1c0.01-0.02,0.01-0.04,0.01-0.06
		c0-0.11-0.09-0.2-0.2-0.2h-0.22c0.01-0.02,0.01-0.04,0.01-0.06c0-0.03-0.01-0.06-0.02-0.09c0.01-0.03,0.02-0.06,0.02-0.09
		c0-0.04-0.01-0.08-0.03-0.11c0.02-0.03,0.03-0.07,0.03-0.11c0-0.11-0.09-0.2-0.2-0.2h-0.37c-0.08,0-0.15,0.05-0.18,0.11h-0.23
		c-0.01,0-0.01,0-0.02,0c-0.01,0-0.01,0-0.02,0h-0.37c-0.11,0-0.2,0.09-0.2,0.2c0,0.07,0.04,0.14,0.1,0.17
		c-0.06,0.04-0.1,0.1-0.1,0.17c0,0.03,0.01,0.06,0.02,0.08H91.9c-0.11,0-0.2,0.09-0.2,0.2c0,0.05,0.02,0.09,0.05,0.13
		c-0.03,0.03-0.05,0.08-0.05,0.13c0,0.03,0.01,0.06,0.02,0.09c-0.01,0.03-0.02,0.06-0.02,0.09c0,0.03,0.01,0.06,0.02,0.09
		c-0.01,0.03-0.02,0.06-0.02,0.09c0,0.03,0.01,0.06,0.02,0.09c-0.01,0.01-0.01,0.03-0.02,0.05h-0.05c0-0.03-0.01-0.06-0.02-0.09
		c0.01-0.03,0.02-0.06,0.02-0.09c0-0.06-0.02-0.11-0.06-0.14c0.04-0.04,0.06-0.09,0.06-0.14c0-0.11-0.09-0.2-0.2-0.2h-0.21
		c0-0.01,0-0.02,0-0.03c0-0.06-0.02-0.11-0.06-0.14c0.04-0.04,0.06-0.09,0.06-0.14c0-0.11-0.09-0.2-0.2-0.2h-0.37
		c-0.11,0-0.2,0.09-0.2,0.2c0,0.06,0.02,0.11,0.06,0.14c-0.04,0.04-0.06,0.09-0.06,0.14c0,0.03,0.01,0.06,0.02,0.09
		c0,0,0,0.01-0.01,0.01h-0.22c-0.11,0-0.2,0.09-0.2,0.2c0,0.03,0.01,0.06,0.02,0.09c-0.01,0.03-0.02,0.06-0.02,0.09
		c0,0.03,0.01,0.06,0.02,0.09c-0.01,0.03-0.02,0.06-0.02,0.09c0,0.03,0.01,0.06,0.02,0.09c-0.01,0.03-0.02,0.05-0.02,0.08h-0.21
		c-0.04,0-0.08,0.01-0.12,0.04h-0.29c-0.11,0-0.2,0.09-0.2,0.2s0.09,0.2,0.2,0.2h0.21c0,0,0,0,0,0h-0.21c-0.11,0-0.2,0.09-0.2,0.2
		c0,0.03,0.01,0.06,0.02,0.09c-0.01,0.03-0.02,0.06-0.02,0.09c0,0.03,0.01,0.06,0.02,0.09c-0.01,0.03-0.02,0.06-0.02,0.09
		c0,0.02,0,0.04,0.01,0.06h-0.22c-0.11,0-0.2,0.09-0.2,0.2c0,0.04,0.01,0.08,0.03,0.11c-0.02,0.03-0.03,0.07-0.03,0.11
		c0,0.03,0.01,0.06,0.02,0.09c-0.01,0.03-0.02,0.06-0.02,0.09c0,0.01,0,0.01,0,0.02h-0.21c-0.11,0-0.2,0.09-0.2,0.2
		c0,0.03,0.01,0.05,0.02,0.07c-0.01,0.02-0.02,0.05-0.02,0.07c0,0.03,0.01,0.06,0.02,0.09c0,0,0,0,0,0h-0.23
		c-0.11,0-0.2,0.09-0.2,0.2c0,0.05,0.02,0.09,0.04,0.12c-0.01,0.01-0.02,0.03-0.03,0.05h-0.22c-0.11,0-0.2,0.09-0.2,0.2
		c0,0.05,0.02,0.1,0.05,0.13c-0.03,0.04-0.05,0.08-0.05,0.13c0,0.03,0.01,0.06,0.02,0.09H87.4c-0.11,0-0.2,0.09-0.2,0.2
		c0,0.05,0.02,0.1,0.05,0.13c-0.01,0.01-0.02,0.02-0.03,0.04h-0.23c-0.11,0-0.2,0.09-0.2,0.2c0,0.07,0.04,0.13,0.09,0.17
		c-0.04,0.03-0.07,0.07-0.08,0.11h-0.22c-0.11,0-0.2,0.09-0.2,0.2c0,0.03,0.01,0.05,0.02,0.08c-0.01,0.02-0.02,0.05-0.02,0.08
		c0,0.02,0,0.04,0.01,0.05h-0.21c-0.11,0-0.2,0.09-0.2,0.2c0,0.07,0.03,0.12,0.08,0.16c0,0-0.01,0.01-0.01,0.01h-0.28
		c-0.01,0-0.01,0-0.02,0c-0.01,0-0.01,0-0.02,0h-0.37c-0.09,0-0.17,0.06-0.19,0.15h-0.21c-0.11,0-0.2,0.09-0.2,0.2
		c0,0.05,0.02,0.1,0.05,0.13H84.7c0-0.01,0-0.01,0-0.02c0-0.11-0.09-0.2-0.2-0.2h-0.21c-0.02-0.09-0.1-0.15-0.19-0.15h-0.37
		c-0.11,0-0.2,0.09-0.2,0.2c0,0.04,0.01,0.08,0.03,0.11c-0.02,0.03-0.03,0.06-0.03,0.1h-0.21c-0.11,0-0.2,0.09-0.2,0.2
		c0,0.03,0.01,0.06,0.02,0.09c-0.01,0.03-0.02,0.06-0.02,0.09s0.01,0.06,0.02,0.09c-0.01,0.03-0.02,0.06-0.02,0.09
		c0,0.03,0.01,0.06,0.02,0.09c-0.01,0.03-0.02,0.06-0.02,0.09c0,0.01,0,0.02,0,0.02h-0.05c0-0.01,0-0.01,0-0.02
		c0-0.03-0.01-0.07-0.02-0.09c0.02-0.03,0.02-0.06,0.02-0.09c0-0.11-0.09-0.2-0.2-0.2h-0.37c-0.11,0-0.19,0.08-0.2,0.19h-0.05
		c0.01-0.02,0.01-0.04,0.01-0.06c0-0.11-0.09-0.2-0.2-0.2h-0.37c-0.11,0-0.2,0.09-0.2,0.2c0,0.05,0.02,0.1,0.05,0.13h-0.26
		c-0.11,0-0.2,0.09-0.2,0.2c0,0.05,0.02,0.09,0.05,0.13c-0.03,0.04-0.05,0.08-0.05,0.13c0,0.03,0.01,0.06,0.02,0.09
		c-0.01,0.03-0.02,0.06-0.02,0.09c0,0.03,0.01,0.06,0.02,0.09c-0.01,0.03-0.02,0.06-0.02,0.09c0,0.03,0.01,0.06,0.02,0.09
		c-0.01,0.03-0.02,0.06-0.02,0.09c0,0.01,0,0.02,0,0.02h-0.04c0,0,0,0,0,0c0-0.03-0.01-0.06-0.02-0.09
		c0.01-0.03,0.02-0.06,0.02-0.09c0-0.03-0.01-0.06-0.02-0.09c0.01-0.03,0.02-0.06,0.02-0.09c0-0.03-0.01-0.06-0.02-0.09
		c0.01-0.03,0.02-0.06,0.02-0.09c0-0.03-0.01-0.06-0.02-0.09c0.01-0.03,0.02-0.06,0.02-0.09c0-0.03-0.01-0.06-0.02-0.09
		c0.01-0.03,0.02-0.06,0.02-0.09c0-0.03-0.01-0.06-0.02-0.08c0.01-0.03,0.02-0.05,0.02-0.08c0-0.11-0.09-0.2-0.2-0.2h-0.37
		c-0.11,0-0.2,0.09-0.2,0.2c0,0.03,0.01,0.06,0.02,0.08c0,0,0,0.01-0.01,0.01h-0.22c-0.11,0-0.2,0.09-0.2,0.2
		c0,0.05,0.02,0.09,0.04,0.12c-0.03,0.03-0.04,0.07-0.04,0.12c0,0.03,0.01,0.06,0.02,0.09c-0.01,0.03-0.02,0.06-0.02,0.09
		c0,0.03,0.01,0.05,0.02,0.08H79.7c0.06-0.04,0.09-0.1,0.09-0.17c0-0.11-0.09-0.2-0.2-0.2h-0.21c0-0.01,0-0.01,0-0.02
		c0-0.11-0.09-0.2-0.2-0.2h-0.37c-0.11,0-0.2,0.09-0.2,0.2c0,0.07,0.03,0.13,0.09,0.16c-0.05,0.03-0.08,0.09-0.08,0.15H78.4
		c-0.11,0-0.2,0.09-0.2,0.2c0,0.01,0,0.01,0,0.02H78c-0.11,0-0.2,0.09-0.2,0.2c0,0.09,0.06,0.17,0.15,0.19
		c-0.07,0.02-0.13,0.08-0.15,0.16h-0.21c-0.11,0-0.2,0.09-0.2,0.2c0,0.02,0,0.04,0.01,0.06c-0.01,0.02-0.01,0.04-0.01,0.06
		c0,0.03,0.01,0.06,0.02,0.09c-0.01,0.03-0.02,0.06-0.02,0.09c0,0,0,0,0,0.01h-0.21c-0.11,0-0.2,0.09-0.2,0.2
		c0,0.04,0.01,0.07,0.03,0.1c-0.02,0.03-0.03,0.06-0.03,0.1c0,0.03,0.01,0.06,0.02,0.09c-0.01,0.03-0.02,0.06-0.02,0.09
		c0,0.03,0.01,0.06,0.02,0.09c-0.01,0.01-0.01,0.02-0.01,0.03h-0.22c-0.11,0-0.2,0.09-0.2,0.2c0,0.03,0.01,0.06,0.02,0.09
		c-0.01,0.03-0.02,0.06-0.02,0.09c0,0.03,0.01,0.05,0.01,0.07h-0.06c0-0.02-0.01-0.04-0.02-0.05c0.01-0.03,0.02-0.06,0.02-0.09
		c0-0.03-0.01-0.06-0.02-0.09c0.01-0.03,0.02-0.06,0.02-0.09c0-0.11-0.09-0.2-0.2-0.2h-0.24c-0.01-0.01-0.01-0.02-0.02-0.03h0.26
		c0.11,0,0.2-0.09,0.2-0.2s-0.09-0.2-0.2-0.2h-0.37c-0.11,0-0.2,0.09-0.2,0.2c0,0.05,0.02,0.1,0.05,0.13h-0.26
		c-0.11,0-0.2,0.09-0.2,0.2c0,0.04,0.01,0.07,0.03,0.11c-0.02,0.03-0.03,0.07-0.03,0.11c0,0.03,0.01,0.06,0.02,0.09
		c-0.01,0.03-0.02,0.06-0.02,0.09c0,0.03,0.01,0.05,0.01,0.07h-0.22c-0.11,0-0.19,0.08-0.2,0.19h-0.21c-0.11,0-0.2,0.09-0.2,0.2
		c0,0.05,0.02,0.1,0.05,0.13h-0.26c-0.11,0-0.2,0.09-0.2,0.2c0,0.01,0,0.01,0,0.02h-0.05c0.01-0.02,0.01-0.04,0.01-0.06
		c0-0.03-0.01-0.06-0.02-0.09c0.01-0.03,0.02-0.06,0.02-0.09c0-0.05-0.02-0.1-0.05-0.13c0.03-0.04,0.05-0.08,0.05-0.13
		c0-0.11-0.09-0.2-0.2-0.2h-0.21c0-0.01,0-0.01,0-0.02c0-0.03-0.01-0.06-0.02-0.09c0.01-0.03,0.02-0.06,0.02-0.09
		c0-0.11-0.09-0.2-0.2-0.2h-0.23c0,0,0,0,0-0.01c0.01-0.02,0.02-0.05,0.02-0.07h0.21c0.11,0,0.2-0.09,0.2-0.2s-0.09-0.2-0.2-0.2
		h-0.21c0-0.03-0.01-0.06-0.02-0.08c0.01-0.03,0.02-0.06,0.02-0.09c0-0.04-0.01-0.08-0.03-0.11c0.02-0.03,0.03-0.07,0.03-0.11
		c0-0.11-0.09-0.2-0.2-0.2h-0.37c-0.11,0-0.2,0.09-0.2,0.2c0,0.04,0.01,0.08,0.03,0.11c-0.02,0.03-0.03,0.06-0.03,0.1h-0.13
		c-0.03-0.02-0.07-0.04-0.12-0.04h-0.21c-0.02-0.09-0.1-0.15-0.19-0.15h-0.37c-0.11,0-0.2,0.09-0.2,0.2c0,0.04,0.01,0.07,0.03,0.1
		c-0.02,0.03-0.03,0.07-0.03,0.1c0,0.01,0,0.02,0,0.04h-0.21c-0.08,0-0.15,0.05-0.18,0.11H70.8c0-0.03-0.01-0.05-0.02-0.08
		c0.01-0.03,0.02-0.06,0.02-0.09c0-0.03-0.01-0.06-0.02-0.09c0.01-0.03,0.02-0.06,0.02-0.09c0-0.11-0.09-0.2-0.2-0.2h-0.37
		c-0.11,0-0.2,0.09-0.2,0.2c0,0.03,0.01,0.06,0.02,0.09c-0.01,0.03-0.02,0.06-0.02,0.09s0.01,0.06,0.02,0.09
		c-0.01,0.03-0.02,0.06-0.02,0.09c0,0.03,0.01,0.06,0.02,0.09c-0.01,0.03-0.02,0.06-0.02,0.09c0,0.03,0.01,0.06,0.02,0.09
		c-0.01,0.03-0.02,0.06-0.02,0.09c0,0.03,0.01,0.06,0.02,0.09c-0.01,0.03-0.02,0.06-0.02,0.09c0,0.03,0.01,0.06,0.02,0.09
		c-0.01,0.03-0.02,0.06-0.02,0.09c0,0.03,0.01,0.06,0.02,0.09c-0.01,0.03-0.02,0.06-0.02,0.09c0,0.02,0,0.04,0.01,0.06h-0.07
		c-0.03-0.07-0.1-0.11-0.18-0.11h-0.21c0-0.01,0-0.02,0-0.03c0-0.03-0.01-0.06-0.02-0.09c0.01-0.03,0.02-0.06,0.02-0.09
		c0-0.03-0.01-0.06-0.02-0.09c0.01-0.03,0.02-0.06,0.02-0.09c0-0.11-0.09-0.2-0.2-0.2H69c-0.11,0-0.2,0.09-0.2,0.2
		c0,0.03,0.01,0.06,0.02,0.09c-0.01,0.03-0.02,0.06-0.02,0.09c0,0.01,0,0.02,0,0.03h-0.06c0-0.01-0.01-0.01-0.01-0.02
		c0.01-0.03,0.02-0.06,0.02-0.09c0-0.03-0.01-0.06-0.02-0.09c0.01-0.03,0.02-0.06,0.02-0.09c0-0.06-0.03-0.12-0.08-0.16
		c0.05-0.04,0.08-0.09,0.08-0.16c0-0.11-0.09-0.2-0.2-0.2h-0.37c-0.11,0-0.2,0.09-0.2,0.2c0,0.02,0,0.04,0.01,0.06h-0.22
		c-0.11,0-0.2,0.09-0.2,0.2c0,0.04,0.01,0.08,0.03,0.11c-0.02,0.03-0.03,0.06-0.03,0.1h-0.21c-0.11,0-0.2,0.09-0.2,0.2
		c0,0.05,0.02,0.1,0.06,0.14c-0.03,0.03-0.05,0.06-0.05,0.1h-0.21c-0.11,0-0.2,0.09-0.2,0.2c0,0.02,0,0.04,0.01,0.06H66.7
		c-0.01-0.03-0.02-0.05-0.04-0.07c0.03-0.04,0.05-0.08,0.05-0.14c0-0.11-0.09-0.2-0.2-0.2h-0.37c-0.11,0-0.2,0.09-0.2,0.2
		c0,0.05,0.02,0.1,0.05,0.13h-0.26c-0.11,0-0.2,0.09-0.2,0.2c0,0.01,0,0.01,0,0.02H65.4c-0.03-0.02-0.07-0.04-0.12-0.04h-0.37
		c-0.11,0-0.2,0.09-0.2,0.2c0,0.05,0.02,0.1,0.05,0.13H64.5c-0.11,0-0.2,0.09-0.2,0.2c0,0.07,0.04,0.13,0.09,0.17h-0.14
		c-0.01-0.05-0.04-0.09-0.08-0.12c0.05-0.04,0.08-0.1,0.08-0.16c0-0.11-0.09-0.2-0.2-0.2h-0.37c-0.11,0-0.2,0.09-0.2,0.2
		c0,0.07,0.03,0.13,0.08,0.16c-0.05,0.04-0.08,0.1-0.08,0.16c0,0.02,0.01,0.05,0.01,0.07h-0.22c-0.06,0-0.12,0.03-0.16,0.07h-0.25
		c-0.11,0-0.2,0.09-0.2,0.2c0,0.07,0.04,0.13,0.09,0.17h-0.18c-0.04-0.04-0.09-0.07-0.16-0.07h-0.37c-0.11,0-0.2,0.09-0.2,0.2
		c0,0.05,0.02,0.1,0.05,0.14c-0.03,0.03-0.05,0.07-0.05,0.11h-0.21c-0.09,0-0.17,0.06-0.19,0.15h-0.21c-0.09,0-0.17,0.06-0.19,0.15
		h-0.21c-0.09,0-0.17,0.06-0.19,0.15h-0.21c-0.11,0-0.2,0.09-0.2,0.2c0,0.01,0,0.01,0,0.02H60c-0.09,0-0.17,0.06-0.19,0.15h-0.21
		c-0.08,0-0.15,0.05-0.18,0.11h-0.15c-0.03-0.02-0.07-0.04-0.12-0.04h-0.37c-0.08,0-0.15,0.05-0.18,0.11h-0.23
		c-0.04,0-0.08,0.01-0.12,0.04h-0.17c-0.04-0.04-0.09-0.07-0.16-0.07h-0.37c-0.06,0-0.12,0.03-0.16,0.07h-0.25
		c-0.09,0-0.17,0.06-0.19,0.15h-0.21c-0.08,0-0.15,0.05-0.18,0.11h-0.23c-0.04,0-0.08,0.01-0.12,0.04h-0.29l-0.02-0.03l-0.03,0.04
		c-0.04,0.01-0.08,0.03-0.11,0.07H55.5c-0.04,0-0.08,0.01-0.12,0.04h-0.21c-0.03-0.02-0.07-0.04-0.12-0.04h-0.37
		c-0.01,0-0.01,0-0.02,0c-0.01,0-0.01,0-0.02,0h-0.37c-0.01,0-0.01,0-0.02,0c-0.01,0-0.01,0-0.02,0h-0.37
		c-0.04,0-0.08,0.01-0.12,0.04h-0.29c-0.01,0-0.01,0-0.02,0c-0.01,0-0.01,0-0.02,0h-0.37c-0.04,0-0.08,0.01-0.12,0.04h-0.29
		c-0.04,0-0.08,0.01-0.12,0.04h-0.29c-0.06,0-0.12,0.03-0.16,0.07h-0.25c-0.01,0-0.01,0-0.02,0c-0.01,0-0.01,0-0.02,0h-0.37
		c-0.01,0-0.01,0-0.02,0c-0.01,0-0.01,0-0.02,0h-0.25c-0.04-0.04-0.09-0.07-0.16-0.07H50.6c-0.09,0-0.17,0.06-0.19,0.15h-0.1
		c-0.04-0.04-0.09-0.07-0.16-0.07h-0.37c-0.04,0-0.08,0.01-0.12,0.04h-0.29c-0.04,0-0.08,0.01-0.12,0.04h-0.29
		c-0.08,0-0.15,0.05-0.18,0.11h-0.11c-0.04-0.04-0.09-0.07-0.16-0.07h-0.37c-0.06,0-0.12,0.03-0.16,0.07h-0.17
		c-0.03-0.02-0.07-0.04-0.12-0.04h-0.37c-0.01,0-0.01,0-0.02,0c-0.01,0-0.01,0-0.02,0h-0.37c-0.06,0-0.12,0.03-0.16,0.07h-0.17
		c-0.03-0.02-0.07-0.04-0.12-0.04H46.1c-0.06,0-0.12,0.03-0.16,0.07h-0.25c-0.01,0-0.01,0-0.02,0c-0.01,0-0.01,0-0.02,0h-0.37
		c-0.04,0-0.08,0.01-0.12,0.04h-0.21c-0.03-0.02-0.07-0.04-0.12-0.04h-0.37c-0.09,0-0.17,0.06-0.19,0.15h-0.14
		c-0.03-0.02-0.07-0.04-0.12-0.04h-0.37c-0.01,0-0.01,0-0.02,0c-0.01,0-0.01,0-0.02,0h-0.29c-0.03-0.02-0.07-0.04-0.12-0.04h-0.37
		c-0.06,0-0.12,0.03-0.16,0.07H42.5c-0.03-0.02-0.07-0.04-0.12-0.04h-0.37c-0.09,0-0.17,0.06-0.19,0.15h-0.1
		c-0.04-0.04-0.09-0.07-0.16-0.07h-0.37c-0.11,0-0.2,0.09-0.2,0.2c0,0.04,0.01,0.07,0.03,0.1c-0.02,0.03-0.03,0.06-0.03,0.1
		c0,0.01,0,0.02,0,0.03c0,0.01,0,0.02,0,0.03v0.1v0.02v0.7h20.22l0.01,0.03l0.01-0.03h22.46l0.01,0.05l0.01-0.05h9.78l0.01,0.05
		l0.01-0.05h1.62l0.01,0.04l0.01-0.04h12.03v-0.6v-0.02v-0.03c0,0,0-0.04,0-0.04v-0.02v-0.02v0v0l0,0v-0.03v-0.02v-0.02v-0.01l0,0
		v-0.01l0,0l0,0c0,0,0-0.04,0-0.04l0,0l0,0v-0.01l0,0v-0.01v-0.01v-0.01l0,0v0l0,0v-0.03v0v-0.01v0v-0.03v0v-0.02l0,0l0,0
		c0,0,0-0.04,0-0.04l0,0l0,0v-0.02c0,0,0,0,0,0v0l0,0v-0.02c0,0,0,0,0,0v0v0l0,0v-0.02v0v-0.01v0v-0.03v0v-0.02l0,0l0,0
		c0,0,0-0.04,0-0.04l0,0l0,0v-0.02c0,0,0,0,0,0v0l0,0v-0.02c0,0,0,0,0,0v0v0l0,0v-0.02v0v-0.01v0v-0.03v0v-0.02l0,0l0,0
		c0,0,0-0.04,0-0.04v-0.02c0,0,0,0,0,0v0l0,0v-0.02l0,0v0l0,0v0l0,0v-0.02v0v-0.01v0v-0.03v0v-0.02l0,0l0,0c0,0,0-0.04,0-0.04l0,0
		l0,0v-0.01l0,0v-0.01v-0.01v-0.01c0,0,0,0,0,0v0v0l0,0v-0.02v0v-0.02l0,0c0,0,0-0.01,0-0.01c0,0,0-0.01,0-0.01c0,0,0-0.01,0-0.01
		c0-0.01,0-0.01,0-0.02l0,0c0,0,0-0.04,0-0.04c0,0,0,0,0,0v-0.01l0,0c0,0,0-0.01,0-0.01c0,0,0,0,0,0v0v-0.02c0,0,0,0,0,0v0v-0.03
		c0,0,0-0.01,0-0.01c0,0,0-0.01,0-0.01c0,0,0-0.01,0-0.01s0-0.01,0-0.01c0-0.01,0-0.02,0-0.03l0,0l0-0.01c0,0,0-0.04,0-0.04
		c0,0,0-0.01,0-0.01c0,0,0-0.01,0-0.01c0,0,0,0,0-0.01l0,0v-0.01v-0.01v0v-0.01v-0.01c0,0,0,0,0,0v-0.01c0,0,0,0,0,0c0,0,0,0,0,0
		v-0.01l0,0c0,0,0-0.01,0-0.01c0-0.01,0-0.02,0-0.03l0,0l0-0.01c0,0,0-0.02,0-0.03c0,0,0-0.01,0-0.01v-0.02c0,0,0,0,0,0v-0.02
		c0,0,0,0,0,0c0,0,0,0,0,0l0,0l0,0c0,0,0,0,0,0l0,0v-0.03l0,0v-0.03l0,0c0,0,0-0.01,0-0.01c0-0.01,0-0.02,0-0.03
		c0-0.01,0-0.02,0-0.03c0,0,0-0.01,0-0.02c0,0,0-0.01,0-0.01c0,0,0-0.01,0-0.01c0,0,0-0.01,0-0.01l0-0.01v-0.01v-0.02v-0.01l0,0
		v-0.03l0,0c0,0,0-0.01,0-0.01c0-0.01,0-0.02,0-0.03c0-0.01,0-0.02,0-0.03c0,0,0-0.01,0-0.02c0,0,0-0.01,0-0.01c0,0,0-0.01,0-0.01
		c0-0.01,0-0.01,0-0.02c0,0,0-0.01,0-0.01l0,0v-0.02c0,0,0,0,0-0.01v0v0c0,0,0-0.01,0-0.01c0-0.01,0-0.01,0-0.02
		c0-0.01,0-0.02,0-0.03c0-0.01,0-0.02,0-0.03c0,0,0-0.01,0-0.02c0,0,0-0.01,0-0.01s0-0.01,0-0.01c0-0.01,0-0.02,0-0.02
		c0,0,0,0,0-0.01l0,0v-0.02c0-0.01,0-0.01,0-0.02c0-0.01,0-0.01,0-0.02c0-0.01,0-0.02,0-0.03c0-0.01,0-0.02,0-0.03
		c0,0,0-0.01,0-0.02c0,0,0-0.01,0-0.01s0-0.01,0-0.01c0-0.01,0-0.02,0-0.02c0,0,0,0,0-0.01l0,0v-0.03c0-0.01,0-0.01,0-0.02
		c0-0.01,0-0.01,0-0.02c0-0.01,0-0.02,0-0.03c0-0.01,0-0.02,0-0.03c0,0,0-0.01,0-0.02c0-0.01,0-0.02,0-0.03c0-0.01,0-0.01,0-0.02
		l0,0v-0.02c0,0,0,0,0-0.01v0v0c0,0,0-0.01,0-0.01c0-0.01,0-0.01,0-0.02c0-0.01,0-0.02,0-0.03c0-0.01,0-0.02,0-0.03
		c0,0,0-0.01,0-0.02c0-0.01,0-0.02,0-0.03c0-0.01,0-0.01,0-0.01l0,0v-0.03c0-0.01,0-0.01,0-0.02c0-0.01,0-0.01,0-0.02
		c0-0.01,0-0.02,0-0.03c0-0.01,0-0.02,0-0.03c0,0,0-0.01,0-0.02c0-0.01,0-0.02,0-0.03c0,0,0-0.01,0-0.01l0,0v-0.03
		c0-0.01,0-0.01,0-0.02c0-0.01,0-0.01,0-0.02c0-0.01,0-0.02,0-0.03c0-0.01,0-0.02,0-0.03c0,0,0-0.01,0-0.02c0-0.01,0-0.02,0-0.03
		c0-0.01,0-0.01,0-0.01l0,0v-0.03c0-0.01,0-0.01,0-0.02c0-0.01,0-0.01,0-0.02c0-0.01,0-0.02,0-0.03c0-0.01,0-0.02,0-0.03
		c0,0,0-0.01,0-0.02c0-0.01,0-0.02,0-0.03c0-0.01,0-0.01,0-0.01l0,0v-0.02c0-0.01,0-0.01,0-0.02c0-0.01,0-0.01,0-0.02
		c0-0.01,0-0.02,0-0.03c0-0.01,0-0.02,0-0.03c0,0,0-0.01,0-0.02c0-0.01,0-0.02,0-0.03c0-0.01,0-0.01,0-0.01l0,0v-0.02
		c0-0.01,0-0.01,0-0.02c0-0.01,0-0.01,0-0.02c0-0.01,0-0.02,0-0.03c0-0.01,0-0.02,0-0.03c0,0,0-0.01,0-0.02c0-0.01,0-0.02,0-0.03
		c0-0.01,0-0.01,0-0.01l0,0v-0.03c0-0.01,0-0.01,0-0.02c0-0.01,0-0.01,0-0.02c0-0.01,0-0.02,0-0.03c0-0.01,0-0.02,0-0.03
		c0,0,0-0.01,0-0.02c0-0.01,0-0.02,0-0.03c0-0.01,0-0.01,0-0.01l0,0v-0.02c0-0.01,0-0.01,0-0.02c0-0.01,0-0.01,0-0.02
		c0-0.01,0-0.02,0-0.03c0-0.01,0-0.02,0-0.03c0,0,0-0.03,0-0.03c0-0.01,0-0.02,0-0.02c0-0.01,0-0.02,0-0.02c0-0.01,0-0.02,0-0.03
		c0-0.01,0-0.02,0-0.03c0-0.01,0-0.02,0-0.03c0-0.01,0-0.02,0-0.03c0,0,0-0.01,0-0.02c0-0.01,0-0.02,0-0.03c0-0.01,0-0.02,0-0.03
		c0-0.01,0-0.02,0-0.03c0-0.01,0-0.02,0-0.03c0-0.01,0-0.02,0-0.03c0-0.01,0-0.02,0-0.03c0,0,0-0.01,0-0.02c0-0.01,0-0.02,0-0.03
		c0-0.01,0-0.02,0-0.03c0-0.01,0-0.02,0-0.03c0-0.01,0-0.02,0-0.03c0-0.01,0-0.02,0-0.03c0-0.01,0-0.02,0-0.03c0,0,0-0.01,0-0.02
		c0-0.01,0-0.02,0-0.03c0-0.01,0-0.02,0-0.03c0-0.01,0-0.02,0-0.03c0-0.01,0-0.02,0-0.03c0-0.01,0-0.02,0-0.03c0-0.01,0-0.02,0-0.03
		c0,0,0-0.01,0-0.02c0-0.01,0-0.02,0-0.03c0-0.01,0-0.02,0-0.03c0-0.01,0-0.02,0-0.03c0-0.01,0-0.02,0-0.03c0-0.01,0-0.02,0-0.03
		c0-0.01,0-0.02,0-0.03c0,0,0-0.01,0-0.02c0-0.01,0-0.02,0-0.03c0-0.01,0-0.02,0-0.03c0-0.01,0-0.02,0-0.03c0-0.01,0-0.02,0-0.03
		c0-0.01,0-0.02,0-0.03c0-0.01,0-0.02,0-0.03c0,0,0-0.01,0-0.02c0-0.01,0-0.02,0-0.03c0-0.01,0-0.02,0-0.03c0-0.01,0-0.02,0-0.03
		c0-0.01,0-0.02,0-0.03c0-0.01,0-0.02,0-0.03c0-0.01,0-0.02,0-0.03c0,0,0-0.01,0-0.02c0-0.01,0-0.02,0-0.03c0-0.01,0-0.02,0-0.03
		c0-0.01,0-0.02,0-0.03c0-0.01,0-0.02,0-0.03c0-0.01,0-0.02,0-0.03c0-0.01,0-0.02,0-0.03c0,0,0-0.01,0-0.02c0-0.01,0-0.02,0-0.02
		c0-0.01,0-0.02,0-0.02c0-0.01,0-0.02,0-0.03c0-0.01,0-0.02,0-0.03c0-0.01,0-0.02,0-0.03c0-0.01,0-0.02,0-0.03c0,0,0-0.01,0-0.02
		c0-0.02,0-0.04-0.01-0.05c0.01-0.02,0.01-0.04,0.01-0.05c0-0.01,0-0.02,0-0.03c0-0.01,0-0.02,0-0.03c0,0,0-0.01,0-0.02
		c0-0.02,0-0.04-0.01-0.05c0.01-0.02,0.01-0.04,0.01-0.05c0-0.01,0-0.02,0-0.03c0-0.01,0-0.02,0-0.03c0,0,0-0.01,0-0.02
		c0-0.02,0-0.04-0.01-0.05c0.01-0.02,0.01-0.04,0.01-0.05c0-0.01,0-0.02,0-0.03c0-0.01,0-0.02,0-0.03c0,0,0-0.01,0-0.02
		c0-0.02,0-0.04-0.01-0.05c0.01-0.02,0.01-0.04,0.01-0.05c0-0.01,0-0.02,0-0.03c0-0.01,0-0.02,0-0.03c0,0,0-0.01,0-0.02
		c0-0.03-0.01-0.06-0.02-0.08c0.01-0.03,0.02-0.05,0.02-0.08c0,0,0-0.01,0-0.02c0-0.03-0.01-0.06-0.02-0.08
		c0.01-0.03,0.02-0.05,0.02-0.08c0,0,0,0,0,0v-0.01v-0.01c0,0,0-0.01,0-0.01l0-0.01l0,0c0-0.02-0.01-0.04-0.01-0.06
		c0.01-0.02,0.02-0.05,0.02-0.08c0,0,0-0.01,0-0.02c0-0.03-0.01-0.06-0.02-0.08c0.01-0.03,0.02-0.05,0.02-0.08c0,0,0-0.01,0-0.02
		c0-0.03-0.01-0.06-0.02-0.08c0.01-0.03,0.02-0.05,0.02-0.08c0,0,0-0.01,0-0.02c0-0.03-0.01-0.06-0.02-0.08
		c0.01-0.03,0.02-0.05,0.02-0.08c0,0,0-0.01,0-0.02c0-0.03-0.01-0.06-0.02-0.08c0.01-0.03,0.02-0.05,0.02-0.08c0,0,0-0.01,0-0.02
		c0-0.03-0.01-0.06-0.02-0.08c0.01-0.03,0.02-0.05,0.02-0.08c0,0,0-0.01,0-0.02c0-0.03-0.01-0.06-0.02-0.08
		c0.01-0.03,0.02-0.05,0.02-0.08c0,0,0-0.01,0-0.02c0-0.03-0.01-0.06-0.02-0.08c0.01-0.03,0.02-0.05,0.02-0.08c0,0,0-0.01,0-0.02
		c0-0.03-0.01-0.06-0.02-0.08c0.01-0.03,0.02-0.05,0.02-0.08c0,0,0-0.01,0-0.02c0-0.03-0.01-0.06-0.02-0.08
		c0.01-0.03,0.02-0.05,0.02-0.08c0,0,0-0.01,0-0.02c0-0.03-0.01-0.06-0.02-0.08c0.01-0.03,0.02-0.05,0.02-0.08c0,0,0-0.01,0-0.02
		c0-0.03-0.01-0.06-0.02-0.08c0.01-0.03,0.02-0.05,0.02-0.08c0,0,0-0.01,0-0.02c0-0.03-0.01-0.06-0.02-0.08
		c0.01-0.03,0.02-0.05,0.02-0.08c0,0,0-0.01,0-0.02c0-0.03-0.01-0.06-0.02-0.08c0.01-0.03,0.02-0.05,0.02-0.08c0,0,0-0.01,0-0.02
		c0-0.03-0.01-0.06-0.02-0.08c0.01-0.03,0.02-0.05,0.02-0.08c0,0,0-0.01,0-0.02c0-0.03-0.01-0.06-0.02-0.08
		c0.01-0.03,0.02-0.05,0.02-0.08c0,0,0-0.01,0-0.02c0-0.03-0.01-0.06-0.02-0.08c0.01-0.03,0.02-0.05,0.02-0.08c0,0,0-0.01,0-0.02
		c0-0.03-0.01-0.06-0.02-0.08c0.01-0.03,0.02-0.05,0.02-0.08c0,0,0-0.01,0-0.02c0-0.03-0.01-0.06-0.02-0.08
		c0.01-0.03,0.02-0.05,0.02-0.08c0,0,0-0.01,0-0.02c0-0.03-0.01-0.06-0.02-0.08c0.01-0.03,0.02-0.05,0.02-0.08c0,0,0-0.01,0-0.02
		c0-0.03-0.01-0.06-0.02-0.08c0.01-0.03,0.02-0.05,0.02-0.08c0,0,0-0.01,0-0.02c0-0.03-0.01-0.06-0.02-0.08
		c0.01-0.03,0.02-0.05,0.02-0.08c0,0,0-0.01,0-0.02c0-0.03-0.01-0.06-0.02-0.08c0.01-0.03,0.02-0.05,0.02-0.08c0,0,0-0.01,0-0.02
		c0-0.03-0.01-0.06-0.02-0.08c0.01-0.03,0.02-0.05,0.02-0.08c0,0,0-0.01,0-0.02c0-0.03-0.01-0.06-0.02-0.08
		c0.01-0.03,0.02-0.05,0.02-0.08c0,0,0-0.01,0-0.02c0-0.03-0.01-0.06-0.02-0.08c0.01-0.03,0.02-0.05,0.02-0.08c0,0,0-0.01,0-0.02
		c0-0.03-0.01-0.06-0.02-0.08c0.01-0.03,0.02-0.05,0.02-0.08c0,0,0-0.01,0-0.02c0-0.03-0.01-0.06-0.02-0.08
		c0.01-0.03,0.02-0.05,0.02-0.08c0,0,0-0.01,0-0.02c0-0.03-0.01-0.06-0.02-0.08c0.01-0.03,0.02-0.05,0.02-0.08c0,0,0-0.01,0-0.02
		c0-0.03-0.01-0.06-0.02-0.08c0.01-0.03,0.02-0.05,0.02-0.08c0,0,0-0.01,0-0.02c0-0.03-0.01-0.06-0.02-0.08
		c0.01-0.03,0.02-0.05,0.02-0.08c0,0,0-0.01,0-0.02c0-0.03-0.01-0.06-0.02-0.08c0.01-0.03,0.02-0.05,0.02-0.08c0,0,0-0.01,0-0.02
		c0-0.03-0.01-0.06-0.02-0.08c0.01-0.03,0.02-0.05,0.02-0.08c0,0,0-0.01,0-0.02c0-0.03-0.01-0.06-0.02-0.08
		c0.01-0.03,0.02-0.05,0.02-0.08c0,0,0-0.01,0-0.02c0-0.03-0.01-0.06-0.02-0.08c0.01-0.03,0.02-0.05,0.02-0.08c0,0,0-0.01,0-0.02
		c0-0.03-0.01-0.06-0.02-0.08c0.01-0.03,0.02-0.05,0.02-0.08c0,0,0-0.01,0-0.02c0-0.03-0.01-0.06-0.02-0.08
		c0.01-0.03,0.02-0.05,0.02-0.08c0,0,0-0.01,0-0.02c0-0.03-0.01-0.06-0.02-0.08c0.01-0.03,0.02-0.05,0.02-0.08c0,0,0-0.01,0-0.02
		c0-0.03-0.01-0.06-0.02-0.08c0.01-0.03,0.02-0.05,0.02-0.08c0,0,0-0.01,0-0.02c0-0.03-0.01-0.06-0.02-0.08
		c0.01-0.03,0.02-0.05,0.02-0.08c0,0,0-0.01,0-0.02c0-0.03-0.01-0.06-0.02-0.08c0.01-0.03,0.02-0.05,0.02-0.08c0,0,0-0.01,0-0.02
		c0-0.03-0.01-0.06-0.02-0.08c0.01-0.03,0.02-0.05,0.02-0.08c0,0,0-0.01,0-0.02c0-0.03-0.01-0.06-0.02-0.08
		c0.01-0.03,0.02-0.05,0.02-0.08c0,0,0-0.01,0-0.02c0-0.03-0.01-0.06-0.02-0.08c0.01-0.03,0.02-0.05,0.02-0.08c0,0,0-0.01,0-0.02
		c0-0.03-0.01-0.06-0.02-0.08c0.01-0.03,0.02-0.05,0.02-0.08c0,0,0-0.01,0-0.02c0-0.03-0.01-0.06-0.02-0.08
		c0.01-0.03,0.02-0.05,0.02-0.08c0,0,0-0.01,0-0.02c0-0.03-0.01-0.06-0.02-0.08c0.01-0.03,0.02-0.05,0.02-0.08c0,0,0-0.01,0-0.02
		c0-0.03-0.01-0.06-0.02-0.08c0.01-0.03,0.02-0.05,0.02-0.08c0,0,0-0.01,0-0.02c0-0.03-0.01-0.06-0.02-0.08
		c0.01-0.03,0.02-0.05,0.02-0.08c0,0,0-0.01,0-0.02c0-0.03-0.01-0.06-0.02-0.08c0.01-0.03,0.02-0.05,0.02-0.08c0,0,0-0.01,0-0.02
		c0-0.03-0.01-0.06-0.02-0.08c0.01-0.03,0.02-0.05,0.02-0.08c0,0,0-0.01,0-0.02c0-0.03-0.01-0.06-0.02-0.08
		c0.01-0.03,0.02-0.05,0.02-0.08c0-0.01,0-0.01,0-0.01c0-0.01,0-0.01,0-0.01c0-0.03-0.01-0.05-0.02-0.08
		c0.01-0.02,0.02-0.05,0.02-0.08c0-0.03-0.01-0.06-0.02-0.09c0.01-0.03,0.02-0.06,0.02-0.09c0-0.03-0.01-0.06-0.02-0.09
		c0.01-0.03,0.02-0.06,0.02-0.09c0-0.03-0.01-0.06-0.02-0.09c0.01-0.03,0.02-0.06,0.02-0.09c0-0.03-0.01-0.06-0.02-0.09
		c0.01-0.03,0.02-0.06,0.02-0.09c0-0.03-0.01-0.06-0.02-0.09c0.01-0.03,0.02-0.06,0.02-0.09c0-0.03-0.01-0.06-0.02-0.09
		c0.01-0.03,0.02-0.06,0.02-0.09c0-0.03-0.01-0.06-0.02-0.09c0.01-0.03,0.02-0.06,0.02-0.09c0-0.03-0.01-0.06-0.02-0.09
		c0.01-0.03,0.02-0.06,0.02-0.09c0-0.03-0.01-0.06-0.02-0.09c0.01-0.03,0.02-0.06,0.02-0.09c0-0.03-0.01-0.06-0.02-0.09
		c0.01-0.03,0.02-0.06,0.02-0.09c0-0.03-0.01-0.06-0.02-0.09c0.01-0.03,0.02-0.06,0.02-0.09c0-0.03-0.01-0.06-0.02-0.09
		c0.01-0.03,0.02-0.06,0.02-0.09c0-0.03-0.01-0.06-0.02-0.09c0.01-0.03,0.02-0.06,0.02-0.09c0-0.03-0.01-0.06-0.02-0.09
		c0.01-0.03,0.02-0.06,0.02-0.09c0-0.03-0.01-0.06-0.02-0.09c0.01-0.03,0.02-0.06,0.02-0.09c0-0.03-0.01-0.06-0.02-0.09
		c0.01-0.03,0.02-0.06,0.02-0.09c0-0.03-0.01-0.06-0.02-0.09c0.01-0.03,0.02-0.06,0.02-0.09c0-0.03-0.01-0.06-0.02-0.09
		c0.01-0.03,0.02-0.06,0.02-0.09c0-0.03-0.01-0.06-0.02-0.09c0.01-0.03,0.02-0.06,0.02-0.09c0-0.03-0.01-0.06-0.02-0.09
		c0.01-0.03,0.02-0.06,0.02-0.09c0-0.03-0.01-0.06-0.02-0.09c0.01-0.03,0.02-0.06,0.02-0.09c0-0.03-0.01-0.06-0.02-0.09
		c0.01-0.03,0.02-0.06,0.02-0.09c0-0.03-0.01-0.06-0.02-0.09c0.01-0.03,0.02-0.06,0.02-0.09c0-0.03-0.01-0.06-0.02-0.09
		c0.01-0.03,0.02-0.06,0.02-0.09c0-0.03-0.01-0.06-0.02-0.09c0.01-0.03,0.02-0.06,0.02-0.09c0-0.03-0.01-0.06-0.02-0.09
		c0.01-0.03,0.02-0.06,0.02-0.09c0-0.03-0.01-0.06-0.02-0.09c0.01-0.03,0.02-0.06,0.02-0.09c0-0.03-0.01-0.06-0.02-0.09
		c0.01-0.03,0.02-0.06,0.02-0.09c0-0.03-0.01-0.06-0.02-0.09c0.01-0.03,0.02-0.06,0.02-0.09c0-0.03-0.01-0.06-0.02-0.09
		c0.01-0.03,0.02-0.06,0.02-0.09c0-0.03-0.01-0.06-0.02-0.09c0.01-0.03,0.02-0.06,0.02-0.09c0-0.03-0.01-0.06-0.02-0.09
		c0.01-0.03,0.02-0.06,0.02-0.09c0-0.03-0.01-0.06-0.02-0.09c0.01-0.03,0.02-0.06,0.02-0.09c0-0.03-0.01-0.06-0.02-0.09
		c0.01-0.03,0.02-0.06,0.02-0.09c0-0.03-0.01-0.06-0.02-0.09c0.01-0.03,0.02-0.06,0.02-0.09c0-0.03-0.01-0.06-0.02-0.09
		c0.01-0.03,0.02-0.06,0.02-0.09c0-0.03-0.01-0.06-0.02-0.09c0.01-0.03,0.02-0.06,0.02-0.09c0-0.03-0.01-0.06-0.02-0.09
		c0.01-0.03,0.02-0.06,0.02-0.09c0-0.03-0.01-0.06-0.02-0.09c0.01-0.03,0.02-0.06,0.02-0.09c0-0.03-0.01-0.06-0.02-0.09
		c0.01-0.03,0.02-0.06,0.02-0.09c0-0.03-0.01-0.06-0.02-0.09c0.01-0.03,0.02-0.06,0.02-0.09c0-0.03-0.01-0.06-0.02-0.09
		c0.01-0.03,0.02-0.06,0.02-0.09c0-0.03-0.01-0.06-0.02-0.09c0.01-0.03,0.02-0.06,0.02-0.09c0-0.03-0.01-0.06-0.02-0.09
		c0.01-0.03,0.02-0.06,0.02-0.09c0-0.03-0.01-0.06-0.02-0.09c0.01-0.03,0.02-0.06,0.02-0.09c0-0.03-0.01-0.06-0.02-0.09
		c0.01-0.03,0.02-0.06,0.02-0.09c0-0.03-0.01-0.06-0.02-0.09c0.01-0.03,0.02-0.06,0.02-0.09c0-0.03-0.01-0.06-0.02-0.09
		c0.01-0.03,0.02-0.06,0.02-0.09c0-0.03-0.01-0.06-0.02-0.09c0.01-0.03,0.02-0.06,0.02-0.09c0-0.03-0.01-0.06-0.02-0.09
		c0.01-0.03,0.02-0.06,0.02-0.09c0-0.03-0.01-0.06-0.02-0.09c0.01-0.03,0.02-0.06,0.02-0.09c0-0.03-0.01-0.06-0.02-0.09
		c0.01-0.03,0.02-0.06,0.02-0.09c0-0.03-0.01-0.06-0.02-0.09c0.01-0.03,0.02-0.06,0.02-0.09c0-0.03-0.01-0.06-0.02-0.09
		c0.01-0.03,0.02-0.06,0.02-0.09c0-0.03-0.01-0.06-0.02-0.09c0.01-0.03,0.02-0.06,0.02-0.09c0-0.03-0.01-0.06-0.02-0.09
		c0.01-0.03,0.02-0.06,0.02-0.09c0-0.03-0.01-0.06-0.02-0.09c0.01-0.03,0.02-0.06,0.02-0.09c0-0.03-0.01-0.06-0.02-0.09
		c0.01-0.03,0.02-0.06,0.02-0.09c0-0.03-0.01-0.06-0.02-0.09c0.01-0.03,0.02-0.06,0.02-0.09c0-0.03-0.01-0.06-0.02-0.09
		c0.01-0.03,0.02-0.06,0.02-0.09c0-0.03-0.01-0.06-0.02-0.09c0.01-0.03,0.02-0.06,0.02-0.09c0-0.03-0.01-0.06-0.02-0.09
		c0.01-0.03,0.02-0.06,0.02-0.09c0-0.03-0.01-0.06-0.02-0.09c0.01-0.03,0.02-0.06,0.02-0.09c0-0.03-0.01-0.06-0.02-0.09
		c0.01-0.03,0.02-0.06,0.02-0.09c0-0.03-0.01-0.06-0.02-0.09c0.01-0.03,0.02-0.06,0.02-0.09c0-0.03-0.01-0.06-0.02-0.09
		c0.01-0.03,0.02-0.06,0.02-0.09c0-0.03-0.01-0.06-0.02-0.09c0.01-0.03,0.02-0.06,0.02-0.09c0-0.03-0.01-0.06-0.02-0.09
		c0.01-0.03,0.02-0.06,0.02-0.09c0-0.03-0.01-0.06-0.02-0.09c0.01-0.03,0.02-0.06,0.02-0.09c0-0.03-0.01-0.06-0.02-0.09
		c0.01-0.03,0.02-0.06,0.02-0.09C107.19,398.5,107.18,398.46,107.16,398.43z M45.44,427.71C45.44,427.71,45.44,427.7,45.44,427.71
		l0.05,0c0,0,0,0,0,0H45.44z M62.94,425.1h0.15c0,0,0,0,0,0L62.94,425.1C62.94,425.1,62.94,425.1,62.94,425.1z M85.06,419.34h0.1
		c0,0,0,0,0,0.01L85.06,419.34C85.06,419.34,85.06,419.34,85.06,419.34z M95.68,413.59c0,0,0.01-0.01,0.01-0.01h0.1
		c0,0,0,0.01,0,0.01H95.68z M98.19,412.61h0.06c-0.01,0.02-0.01,0.04-0.01,0.07c0,0.01,0,0.01,0,0.02h-0.05
		c0-0.02,0.01-0.03,0.01-0.05C98.19,412.64,98.19,412.62,98.19,412.61z M98.59,412.48c0,0,0-0.01,0-0.01h0.05c0,0,0,0.01,0,0.01
		H98.59z"/>
	<path d="M69,422.69h0.37c0.11,0,0.2-0.09,0.2-0.2s-0.09-0.2-0.2-0.2H69c-0.11,0-0.2,0.09-0.2,0.2S68.89,422.69,69,422.69z"/>
</g>
</svg>
