<?xml version="1.0" encoding="UTF-8" standalone="no"?>
<!-- Generator: Adobe Illustrator 18.0.0, SVG Export Plug-In . SVG Version: 6.00 Build 0)  -->

<svg
   version="1.1"
   id="Layer_5"
   x="0px"
   y="0px"
   width="9451.45px"
   height="623.52px"
   viewBox="0 0 9451.45 623.52"
   enable-background="new 0 0 9451.45 623.52"
   xml:space="preserve"
   sodipodi:docname="9 Bay of Bengal_ Arabian Sea SST_mask -01.svg"
   inkscape:version="1.1.1 (c3084ef, 2021-09-22)"
   xmlns:inkscape="http://www.inkscape.org/namespaces/inkscape"
   xmlns:sodipodi="http://sodipodi.sourceforge.net/DTD/sodipodi-0.dtd"
   xmlns="http://www.w3.org/2000/svg"
   xmlns:svg="http://www.w3.org/2000/svg"><defs
   id="defs1055" /><sodipodi:namedview
   id="namedview1053"
   pagecolor="#505050"
   bordercolor="#eeeeee"
   borderopacity="1"
   inkscape:pageshadow="0"
   inkscape:pageopacity="0"
   inkscape:pagecheckerboard="0"
   showgrid="false"
   inkscape:zoom="0.92876209"
   inkscape:cx="1925.6815"
   inkscape:cy="426.37399"
   inkscape:window-width="1312"
   inkscape:window-height="762"
   inkscape:window-x="0"
   inkscape:window-y="25"
   inkscape:window-maximized="0"
   inkscape:current-layer="Layer_5" />
<path
   style="fill:#000000"
   d="m 1748,505.42668 c 0,-56.19789 -0.099,-59.55428 -1.75,-59.2372 -1.5731,0.30215 -1.7777,2.07873 -2.0236,17.57333 C 1743.9528,481 1743.9528,481 1741.4764,481 1739,481 1739,481 1739,498 c 0,17 0,17 -5.5,17 -5.5,0 -5.5,0 -5.5,15.5 0,15.5 0,15.5 -8,15.5 -8,0 -8,0 -8,-19.5 0,-18.83333 -0.068,-19.5 -2,-19.5 -1.8889,0 -2,0.66667 -2,12 0,12 0,12 -8,12 -8,0 -8,0 -8,-51.5 0,-51.5 0,-51.5 23,-51.5 23,0 23,0 23,-12.5 0,-12.5 0,-12.5 7.5,-12.5 7.5,0 7.5,0 7.5,-19.5 0,-19.5 0,-19.5 8,-19.5 8,0 8,0 8,32 0,32 0,32 2.5,32 2.5,0 2.5,0 2.5,-46 0,-44.97674 0.043,-46 1.9545,-46 1.075,0 3.0796,-1.125 4.4546,-2.5 2.1153,-2.11529 3.4303,-2.5 8.5454,-2.5 6.0455,0 6.0455,0 6.0455,7 0,7 0,7 5,7 5,0 5,0 5,12.00847 0,11.75815 0.042,11.98244 2,10.75946 1.922,-1.20029 2,-2.33203 2,-29.00848 C 1809,311 1809,311 1817,311 c 8,0 8,0 8,58.5 0,58.5 0,58.5 5,58.5 5,0 5,0 5,-58.5 0,-58.5 0,-58.5 8,-58.5 8,0 8,0 8,11.46482 0,12.69274 0.4316,13.53518 6.9343,13.53518 3.0657,0 3.0657,0 3.0657,21 0,20.33333 0.063,21 2,21 1.9719,0 2,-0.66667 2,-47.5 0,-47.5 0,-47.5 2.5,-47.5 2.4286,0 2.5,-0.2 2.5,-7 0,-7 0,-7 8,-7 8,0 8,0 8,9 0,8.93333 0.018,9 2.5,9 2.5,0 2.5,0 2.5,34 0,34 0,34 5,34 5,0 5,0 5,36.5 0,36.5 0,36.5 2.5,36.5 2.5,0 2.5,0 2.5,-35.5 0,-35.5 0,-35.5 2.5,-35.5 2.3333,0 2.5,-0.33333 2.5,-5 0,-5 0,-5 7.5,-5 7.5,0 7.5,0 7.5,16 0,16 0,16 2.5,16 2.5,0 2.5,0 2.5,-12.5 0,-12.5 0,-12.5 2.5,-12.5 1.4275,0 2.5,-0.577 2.5,-1.34501 0,-2.87998 3.5572,-4.65499 9.3287,-4.65499 5.6713,0 5.6713,0 5.6713,-6.5 0,-6.5 0,-6.5 5.8089,-6.5 3.5594,0 6.5605,0.56855 7.75,1.4682 1.0676,0.8075 3.1786,1.4825 4.6911,1.5 C 1972,338 1972,338 1972,383 c 0,44.33333 0.03,45 2,45 1.9624,0 2,-0.66667 2,-35.5 0,-35.5 0,-35.5 8,-35.5 8,0 8,0 8,35.5 0,35.5 0,35.5 15,35.5 15,0 15,0 15,-37.5 0,-37.5 0,-37.5 5,-37.5 5,0 5,0 5,-58.5 0,-58.5 0,-58.5 8,-58.5 8,0 8,0 8,96 0,96 0,96 10,96 10,0 10,0 10,-57 0,-57 0,-57 2.5,-57 2.5,0 2.5,0 2.5,-29.5 0,-29.5 0,-29.5 8,-29.5 8,0 8,0 8,25.5 0,25.5 0,25.5 5,25.5 5,0 5,0 5,61 0,61 0,61 23,61 23,0 23,0 23,11.4291 0,11.4291 0,11.4291 -5.25,12.50452 -22.0853,4.52396 -49.2964,9.05432 -54.4167,9.05979 -3.8824,0.004 -6.3139,0.44854 -6.5643,1.19971 -0.2224,0.66713 -4.3371,1.75236 -9.3334,2.46163 -4.9146,0.69767 -11.1856,1.70894 -13.9356,2.24726 -2.75,0.53832 -8.0375,1.00559 -11.75,1.03838 C 2037,468 2037,468 2037,450.5 c 0,-16.83333 -0.076,-17.5 -2,-17.5 -1.9296,0 -2,0.66667 -2,18.93261 0,21.18743 0.7395,19.28326 -8,20.59852 -2.475,0.37248 -8.325,1.80958 -13,3.19357 -11.0843,3.28138 -16.0417,4.1432 -24.25,4.21569 -6.5492,0.0578 -6.75,-0.0148 -6.75,-2.44039 0,-2.44444 -0.1667,-2.5 -7.5,-2.5 -7.5,0 -7.5,0 -7.5,-15.27776 0,-14.00048 -0.1659,-15.41982 -1.9845,-16.97694 -1.0915,-0.93454 -2.274,-3.50955 -2.6278,-5.72224 C 1960.7444,433 1960.7444,433 1950.8722,433 1941,433 1941,433 1941,438.92742 c 0,5.13151 -0.3357,6.19147 -2.5,7.89392 -2.5,1.9665 -2.5,1.9665 -2.5,52.07258 C 1936,549 1936,549 1928.5,549 c -7.5,0 -7.5,0 -7.5,-58 0,-58 0,-58 -2.5,-58 -2.5,0 -2.5,0 -2.5,13.5 0,13.5 0,13.5 -2.5,13.5 -2.5,0 -2.5,0 -2.5,13 0,13 0,13 -5.845,13 -5.8304,0 -9.155,-1.75353 -9.155,-4.82874 0,-0.64419 -1.125,-1.17126 -2.5,-1.17126 -2.5,0 -2.5,0 -2.5,-23.5 0,-23.5 0,-23.5 -10,-23.5 -10,0 -10,0 -10,18 0,18 0,18 -8,18 -8,0 -8,0 -8,-18 0,-18 0,-18 -4.5,-18 -4.5,0 -4.5,0 -4.5,18.5 0,18.5 0,18.5 -2.465,18.5 -2.4412,0 -2.4678,0.0992 -2.75,10.25 -0.285,10.25 -0.285,10.25 -3.0007,10.56311 -2.7157,0.31312 -2.7157,0.31312 -3,10.5 C 1834.5,511.5 1834.5,511.5 1827.4102,511.79058 c -7.0899,0.29057 -7.0899,0.29057 -7.7803,-29.87984 -0.6903,-30.17042 -0.6903,-30.17042 -3.1601,-32.11316 C 1814.2395,448.0432 1814,447.13471 1814,440.42742 1814,433 1814,433 1807,433 c -7,0 -7,0 -7,38.5 0,38.5 0,38.5 -8,38.5 -8,0 -8,0 -8,12 0,12 0,12 -7.5,12 -7.5,0 -7.5,0 -7.5,-24.83948 0,-24.83949 0,-24.83949 -2.5,-25.97857 -2.5,-1.13907 -2.5,-1.13907 -2.5,40.33949 C 1764,565 1764,565 1756,565 c -8,0 -8,0 -8,-59.57332 z"
   id="path1235" />
</svg>
