<?xml version="1.0" encoding="UTF-8" standalone="no"?>
<!-- Generator: Adobe Illustrator 18.0.0, SVG Export Plug-In . SVG Version: 6.00 Build 0)  -->

<svg
   version="1.1"
   id="AR_x5F_layer"
   x="0px"
   y="0px"
   width="9682.82px"
   height="623.52px"
   viewBox="10 0 9682.82 623.52"
   enable-background="new 10 0 9682.82 623.52"
   xml:space="preserve"
   sodipodi:docname="-1_water_structure_mask-01.svg"
   inkscape:version="1.1.1 (c3084ef, 2021-09-22)"
   xmlns:inkscape="http://www.inkscape.org/namespaces/inkscape"
   xmlns:sodipodi="http://sodipodi.sourceforge.net/DTD/sodipodi-0.dtd"
   xmlns="http://www.w3.org/2000/svg"
   xmlns:svg="http://www.w3.org/2000/svg"><defs
   id="defs1753">
	
	

		
		
		
		
		
		
		
		
		
		
		
		
		
		
		
		
		
		
		
		
		
		
		
		
		
		
		
		
		
		
		
		
		
		
		
		
		
		
		
		
			
		
			
		
		
			
		
		
			
		
		
			
		
			
		
		
			
		
		
		
		
		
			
		
		
		
			
		
		
		
			
		
		
		
			
		
			
		
			
		
			
		
			
		
			
		
		
		
			
		
		
			
		
		
			
		
		
			
		
			
		
		
			
		
		
		
		
		
		
		
		
		
			
		
			
		
		
		
		
			
		
			
		
		
		
			
		
			
		
			
		
			
		
			
		
			
		
			
		
			
		
			
		
			
		
			
		
			
		
			
		
			
		
			
		
			
		
			
		
			
		
			
		
			
		
			
		
			
		
			
		
			
		
			
		
			
		
			
		
			
		
		
			
		
		
			
		
		
			
		
			
		
		
			
		
			
		
			
		
			
		
			
		
			
		
			
		
		
		
			
		
		
			
		
		
			
		
			
		
			
		
			
		
		
		
			
		
		
			
		
		
		
		
		
		
		
		
		
		
		
		
		
		
		
		
		
		
		
		
			
		
			
		
			
		
			
		
			
		
			
		
			
		
			
		
			
		
			
		
			
		
			
		
			
		
			
		
		
		
		
			
		
		
			
		
		
		
		
			
		
		
		
		
		
		
		
		
		
		
		
		
		
		
		
		
		
		
		
		
		
		
		
		
		
			
		
		
		
		
		
		
		
			
		
		
			
		
		
			
		
		
			
		
		
			
		
			
		
			
		
			
		
		
			
		
		
			
		
			
		
		
			
		
		
			
		
		
			
		
			
		
		
			
		
			
		
			
		
			
		
			
		
			
		
			
		
			
		
			
		
			
		
		
		
			
		
		
		
		
		
		
		
			
		
			
		
			
		
			
		
			
		
			
		
			
		
			
		
			
		
		
			
		
			
		
			
		
			
		
			
		
			
		
			
		
			
		
			
		
			
		
		
		
		
		
		
			
		
		
			
		
			
		
			
		
			
		
			
		
			
		
			
		
			
		
			
		
		
			
		
			
		
		
			
		
			
		
			
		
		
			
		
			
		
			
		
		
			
		
		
		
		
		
		
			
		
			
		
		
			
		
			
		
			
		
		
		
		
		
		
		
			
		
			
		
			
		
			
		
			
		
			
		
			
		
			
		
			
		
			
		
			
		
			
		
			
		
			
		
			
		
			
		
			
		
	
		
		
		
		
		
		
		
		
		
		
		
		
			
		
		
			
		
		
			
		
			
		
		
			
		
		
		
		
		
		
		
		
			
		
		
			
		
			
		
			
		
			
		
			
		
			
		
			
		
		
			
		
		
		
		
		
		
			
		
		
		
		
		
		
			
	</defs><sodipodi:namedview
   id="namedview1751"
   pagecolor="#505050"
   bordercolor="#eeeeee"
   borderopacity="1"
   inkscape:pageshadow="0"
   inkscape:pageopacity="0"
   inkscape:pagecheckerboard="0"
   showgrid="false"
   inkscape:zoom="0.4361348"
   inkscape:cx="565.19223"
   inkscape:cy="236.16552"
   inkscape:window-width="1312"
   inkscape:window-height="762"
   inkscape:window-x="0"
   inkscape:window-y="25"
   inkscape:window-maximized="0"
   inkscape:current-layer="AR_x5F_layer" />





<g
   id="multiple"><g
     id="white"
     style="stroke:none;fill:#d52222;fill-opacity:1"><path
       style="fill:#d52222;stroke-width:0.0800098;stroke:none;fill-opacity:1"
       d="m 144.71094,629.04297 1.18359,1.27344 c -0.72122,-0.22706 -1.56269,-0.43046 -2.21094,-0.67188 0.36546,-0.12136 0.69765,-1.12627 1.02735,-0.60156 z"
       transform="translate(-231.37)"
       id="path2130" /><path
       style="fill:#d52222;stroke-width:0.0800098;stroke:none;fill-opacity:1"
       d="m 115.89258,599.08789 14.35351,19.69531 c -1.11038,2.03679 -1.36842,4.52113 -0.67773,6.73828 -7.90326,-2.33241 -15.9242,-4.65653 -23.75391,-6.99414 0.86749,-0.45283 1.27175,-1.37054 1.47657,-2.2832 2.00776,-5.38148 3.93655,-10.79551 5.91406,-16.18945 0.93568,-0.1898 1.85901,-0.48556 2.6875,-0.9668 z"
       transform="translate(-231.37)"
       id="path2128" /><path
       style="fill:#d52222;stroke-width:0.0800098;stroke:none;fill-opacity:1"
       d="m 242.38477,595.25586 c -1.01672,-0.0325 -2.03138,0.0891 -2.96485,0.52344 -1.85503,0.73828 -3.38351,2.2885 -4.04297,4.17968 -0.87557,2.16349 -0.50664,4.72493 0.77539,6.6543 0.6853,0.93927 1.58002,1.79187 2.61914,2.33789 2.85338,1.53301 6.71531,0.88864 8.82032,-1.60937 1.66776,-1.76651 2.21426,-4.44425 1.58789,-6.76758 -0.406,-1.35478 -1.12223,-2.63235 -2.23633,-3.52734 -1.20306,-1.13218 -2.91042,-1.78471 -4.55859,-1.79102 z"
       transform="translate(-231.37)"
       id="path2126" /><path
       style="fill:#d52222;stroke-width:0.0800098;stroke:none;fill-opacity:1"
       d="m 210.1543,582.64648 c -3.15202,-0.0432 -6.26921,1.67037 -7.79883,4.44727 -0.86375,1.42696 -1.17566,3.09912 -1.11328,4.75 0.0325,2.79778 1.65047,5.49943 3.99414,6.98828 -0.23125,0.43723 -0.36395,1.03214 -0.98242,0.73242 -1.88935,-0.12546 -3.88586,0.46608 -5.29102,1.75 -1.59537,1.34236 -2.54747,3.38416 -2.52539,5.47071 -0.0319,1.71406 0.59567,3.46008 1.71484,4.75 1.63667,1.95496 4.3449,2.9291 6.84961,2.42382 2.09001,-0.29928 3.89722,-1.68627 4.99414,-3.44726 0.83788,-1.4531 1.09957,-3.16391 0.86133,-4.81445 -0.10195,-1.36124 -0.80046,-2.62585 -1.67187,-3.65235 0.32877,-0.61588 0.65755,-1.23177 0.98633,-1.84765 3.71294,0.005 7.21905,-2.66815 8.20507,-6.24805 h 12.55078 v -4.95117 c -4.17708,-0.0157 -8.35416,-0.0299 -12.53125,-0.0449 -0.91184,-3.26868 -3.88426,-5.79118 -7.24609,-6.20703 -0.32867,-0.0549 -0.66392,-0.0838 -0.99609,-0.0996 z"
       transform="translate(-231.37)"
       id="path2124" /><path
       style="fill:#d52222;stroke-width:0.0800098;stroke:none;fill-opacity:1"
       d="m 111.37109,573.26953 c -0.3164,0.0475 -0.6328,0.0951 -0.94921,0.14258 -1.24201,0.12867 -2.46439,0.39933 -3.58594,0.9668 -0.11742,2.40605 0.66718,4.71217 1.03125,7.06445 0.12132,0.62746 0.24195,1.25536 0.36328,1.88281 -3.39881,1.32615 -5.6952,4.97558 -5.39844,8.61524 0.0981,3.24991 2.26887,6.32015 5.26758,7.55273 -1.98982,5.46215 -3.97774,10.925 -5.96875,16.38672 -0.15368,0.93522 0.0543,2.16934 1.13086,2.42383 0.40219,0.0332 0.8965,0.22636 1.18555,0.37109 -0.91562,0.74484 -1.39598,1.93906 -1.34766,3.09961 0.28883,1.41606 1.90098,1.77774 3.10351,2.06445 9.66877,2.87233 19.35231,5.69409 29.02735,8.54688 0.22036,0.57644 0.48541,1.56827 0.51758,0.39844 0.15808,-0.5002 1.09569,0.21925 1.57031,0.21484 3.74354,1.10084 7.48693,2.20188 11.23047,3.30273 0.85677,-0.0535 2.00503,-0.0986 2.32031,-1.08007 0.11553,-0.89316 0.7885,-1.83654 0.22266,-2.7168 -0.77793,-1.20133 -2.31181,-1.26832 -3.53907,-1.70313 0.68029,-0.79099 1.72585,-1.37575 2.08008,-2.37695 0.23644,-1.0542 -0.37667,-2.03057 -1.16211,-2.67383 l -1.80468,-1.94726 c 0.26924,-2.1896 -0.44482,-4.39527 -1.70313,-6.17188 -1.08532,-1.16854 -2.26472,-2.31912 -3.8125,-2.83593 -2.35221,-0.91237 -5.08634,-0.76238 -7.3125,0.42968 -4.81576,-6.60612 -9.6315,-13.21224 -14.44727,-19.81836 0.75374,-1.41686 1.02792,-3.02703 0.92579,-4.61718 -0.19206,-3.56269 -2.83304,-6.83166 -6.28125,-7.76368 -0.55949,-0.0898 -1.04435,-0.20435 -0.95899,-0.89648 -0.56811,-2.95377 -1.13585,-5.90777 -1.70508,-8.86133 z"
       transform="translate(-231.37)"
       id="path2122" /><path
       style="fill:#d52222;stroke-width:0.0800098;stroke:none;fill-opacity:1"
       d="m 254.39453,567.94141 c 0.0332,0.0814 0.0664,0.16276 0.0996,0.24414 0.56394,0.66458 -0.0687,0.60172 -0.625,0.59765 -0.35851,-0.0104 -1.45805,0.16595 -0.54687,-0.16211 0.3757,-0.1957 0.73792,-0.41909 1.07226,-0.67968 z"
       transform="translate(-231.37)"
       id="path2120" /><path
       style="fill:#d52222;stroke-width:0.0800098;stroke:none;fill-opacity:1"
       d="m 249.39062,554.89844 c -1.92355,0.19874 -3.80627,1.07141 -5.01367,2.61523 -0.79198,0.70365 -1.10733,1.79907 -1.45312,2.77539 -0.23079,0.62155 -0.19153,1.3725 -0.28711,1.96094 -1.2817,-0.24942 -2.61214,-0.18055 -3.87695,0.12891 -1.48679,-2.26901 -2.97513,-4.537 -4.46094,-6.80664 -0.81514,-0.33357 -1.84214,-0.8703 -2.61524,-0.14258 -0.57502,0.44519 -1.21133,0.81499 -1.81054,1.23047 0.0873,1.54193 0.95985,2.84251 1.82812,4.05859 0.89796,1.42556 1.92318,2.85148 2.75586,4.26758 -2.54279,2.7565 -2.98414,7.16976 -1.02539,10.36914 1.66308,2.84744 5.03984,4.61715 8.33203,4.2207 3.30453,-0.16074 6.27961,-2.55884 7.44141,-5.60156 4.94427,-0.25212 9.89705,-0.38365 14.84375,-0.73633 0.74856,-0.1271 1.56802,-0.45863 2.20312,-0.69336 -0.0628,0.82938 0.4397,1.63974 0.47071,2.41016 -3.14121,0.8406 -5.44406,4.05135 -5.18164,7.30078 7.1e-4,3.70068 3.40935,6.9993 7.10546,6.92773 0.68189,0.0802 1.44175,-0.31603 2.01563,0.19141 2.40605,1.05962 5.39957,0.67796 7.45312,-0.98047 1.2384,-1.04272 2.19279,-2.42472 2.54493,-4.01953 0.43541,-1.95263 0.0699,-4.05718 -1.0293,-5.73633 -0.66222,-0.84893 -1.45096,-1.6631 -2.37305,-2.24023 -1.50806,-0.87895 -3.30361,-1.09768 -5.01562,-0.86133 -0.45568,-0.35893 -0.35651,-1.11571 -0.58008,-1.63672 -0.34589,-1.01349 -0.363,-2.25388 -1.26953,-2.96094 -0.37768,-0.35454 -0.92946,-0.52607 -1.43555,-0.38672 1.81695,-1.92217 2.58829,-4.6743 2.23242,-7.27539 0.83033,-1.18227 1.62402,-2.39097 2.29883,-3.66992 -1.03701,-0.64174 -1.90903,-1.55117 -3.05664,-2.0039 -0.63867,0.12939 -1.3391,0.19268 -1.8457,0.64843 -1.79462,-1.73209 -4.3526,-2.64646 -6.83789,-2.35937 -2.09683,0.0525 -4.07337,1.12486 -5.53711,2.58398 -1.34507,-2.39134 -4.10792,-3.75686 -6.82032,-3.57812 z"
       transform="translate(-231.37)"
       id="path2118" /><path
       style="fill:#d52222;stroke-width:0.0800098;stroke:none;fill-opacity:1"
       d="m 88.066406,552.64258 c -3.11669,-0.0464 -6.24598,1.56226 -7.80664,4.29883 -1.20566,2.02004 -1.562482,4.53934 -0.919922,6.80664 -0.97396,0.41471 -1.947915,0.82942 -2.921875,1.24414 -2.27406,-2.58787 -6.155228,-3.57 -9.398438,-2.41407 -2.23738,0.76674 -4.155165,2.46586 -5.109375,4.63868 -1.89519,-0.88672 -3.790367,-1.77344 -5.685547,-2.66016 -0.0659,-1.79388 0.194482,-3.63391 -0.230468,-5.39258 -0.75368,-2.75828 -2.869079,-5.12567 -5.611329,-6.00976 -1.57533,-0.58869 -3.322545,-0.58163 -4.953124,-0.25196 -3.778391,0.87206 -6.75505,4.51816 -6.66211,8.42383 0.0691,0.95495 0.103699,1.7869 0.04297,2.76367 -0.0315,1.03071 -0.03645,2.14241 0.269531,3.09375 -0.35604,0.33975 -0.683831,-0.48036 -1.08789,-0.5664 -3.049181,-2.00694 -7.323205,-1.81283 -10.177735,0.46289 -3.15608,2.37051 -4.262316,6.98555 -2.597656,10.55273 0.73193,1.62945 2.007034,3.00025 3.527344,3.92578 -0.47579,10.3791 -0.955714,20.758 -1.439453,31.13672 -0.517831,0.44312 -0.947976,1.04294 -1.359376,1.53321 -1.47565,-0.10864 -2.777089,0.79979 -4.130859,1.27148 -1.87035,0.77636 -3.740978,1.55178 -5.611328,2.32812 -1.66346,-2.42583 -4.593181,-3.97348 -7.5507812,-3.77148 -1.8294501,-0.0274 -3.625935,0.70829 -5.078125,1.77539 -1.23557,1.13663 -2.4231838,2.4142 -2.9023438,4.06641 -1.1451,3.26676 -0.20919813,7.20882 2.4824219,9.44336 0.40371,0.38326 0.8056525,0.77055 1.3203125,1.00195 -2.19343,1.08188 -4.38622815,2.16506 -6.5800782,3.24609 -0.1818199,1.04181 -0.1439493,2.1565 0.4316407,3.07422 0.32222,1.01536 1.50376935,1.42277 2.44335935,1.0293 1.35845005,-0.50439 2.59469185,-1.29137 3.91992185,-1.87891 7.3060099,-3.61602 14.6119589,-7.23164 21.9179689,-10.84765 2.10334,2.45038 5.606112,3.53456 8.732422,2.74023 2.03832,-0.48293 3.829245,-1.78166 5.072265,-3.44922 2.74154,1.53321 5.48307,3.06641 8.22461,4.59961 -0.094,1.43038 0.132647,2.87637 0.835937,4.13867 1.55002,3.15605 5.127705,5.2186 8.646485,4.76563 2.3038,-0.0651 4.467495,-1.34996 5.947265,-3.06445 1.1713,-1.43333 1.936201,-3.24706 2.025391,-5.09766 10.8372,-2.0959 21.674709,-4.19022 32.511719,-6.28711 0.93749,-0.61145 1.318762,-1.85029 0.851562,-2.87305 -0.0142,-0.84617 -0.255193,-1.98157 -1.283203,-2.06836 -2.48943,0.3813 -4.97929,0.94725 -7.46875,1.39844 -8.57699,1.65225 -17.152616,3.31089 -25.728516,4.96875 -1.5924,-2.80627 -4.789426,-4.64801 -8.035156,-4.41406 -2.6625,0.0393 -5.219335,1.5086 -6.759765,3.6543 -2.760571,-1.50979 -5.499604,-3.06334 -8.251954,-4.58985 0.10645,-1.53757 -0.224885,-3.08031 -1.015625,-4.4082 -1.04514,-2.04372 -3.011133,-3.55978 -5.189453,-4.20508 10e-4,-9.45964 -0.01163,-18.91929 0.01367,-28.37891 3.76433,-1.03064 6.486533,-4.86044 6.226563,-8.7539 0.008,-0.70617 -0.119114,-1.40563 -0.314453,-2.08203 0.34583,-0.48955 0.717954,0.3251 1.115234,0.41406 1.53515,0.96988 3.360587,1.49706 5.179687,1.3457 2.20896,-0.004 4.361722,-1.07241 5.888672,-2.63672 0.36517,-0.3972 0.719112,-0.80879 1.013672,-1.26171 2.13607,0.99933 4.272133,1.99869 6.408203,2.99804 0.5008,3.0122 2.704513,5.62894 5.564453,6.68164 0.21814,0.16607 1.466421,0.33452 1.056641,0.35938 -2.07785,-0.0655 -4.119156,0.843 -5.478516,2.41211 -0.9894,1.03546 -1.553398,2.44982 -1.761718,3.85156 -0.21839,1.68321 0.128446,3.41979 1.035156,4.86133 0.51,0.9255 1.374071,1.63084 2.21289,2.25976 1.54529,0.93778 3.443027,1.37205 5.222657,1.00586 1.53859,0.87705 3.458181,1.13512 5.175781,0.71289 1.10982,-0.20601 2.132298,-0.80754 3.017578,-1.49609 1.30862,-1.11973 2.201633,-2.67722 2.501953,-4.37695 0.16083,-1.61908 0.0498,-3.35016 -0.847656,-4.76368 -1.33951,-2.44776 -4.172864,-3.98107 -6.958984,-3.65429 -0.5595,0.16159 -0.979067,-0.13298 -1.466797,-0.33789 -0.19435,-0.11146 -1.412168,-0.36988 -0.830078,-0.3125 3.82611,0.18652 7.512356,-2.50816 8.591796,-6.16797 0.4228,-1.27435 0.394153,-2.64109 0.289063,-3.96094 l 3.425781,-1.46484 c 1.67325,1.49402 3.966317,2.34804 6.216797,2.09961 1.55441,0.12716 3.047175,-0.5418 4.359375,-1.32032 2.69396,-1.69447 4.249955,-4.94747 3.953125,-8.10742 -0.24033,-3.89675 -3.428871,-7.36612 -7.300781,-7.91406 -0.38631,-0.0599 -0.775266,-0.12815 -1.166016,-0.14453 z"
       transform="translate(-231.37)"
       id="path2116" /><path
       style="fill:#d52222;stroke-width:0.0800098;stroke:none;fill-opacity:1"
       d="m 235.06641,533.60742 c -1.62519,-0.0541 -3.26814,0.58428 -4.51368,1.61524 -1.29974,1.0905 -2.23921,2.60439 -2.50195,4.29492 -0.47469,2.19855 0.31344,4.58104 1.73047,6.23242 -0.22497,1.80188 -0.39913,3.61113 -0.60352,5.41602 1.61731,0.41715 3.27649,0.62286 4.94727,0.59375 0.13392,-1.2284 0.26566,-2.45703 0.39844,-3.68555 1.83085,0.18971 3.70854,-0.38238 5.16015,-1.49024 0.90885,-0.84504 1.80824,-1.74789 2.2168,-2.94921 1.44422,-3.25216 0.0256,-7.45484 -3.13086,-9.12305 -1.11812,-0.63806 -2.41184,-0.988 -3.70312,-0.9043 z"
       transform="translate(-231.37)"
       id="path2114" /><path
       style="fill:#d52222;stroke-width:0.0800098;stroke:none;fill-opacity:1"
       d="m 804.78906,523.19531 c -2.59397,0.16456 -5.16024,1.28168 -6.83594,3.30664 -1.37606,1.52298 -2.20661,3.57443 -2.31445,5.62305 -0.13162,1.88168 0.25936,3.79357 1.25781,5.40625 1.1347,2.13947 3.22573,3.71558 5.54102,4.38477 2.39828,0.74092 5.1107,0.44898 7.30859,-0.75782 4.36589,2.88021 8.73177,5.76042 13.09766,8.64063 -1.5086,1.14953 -2.46975,2.93106 -2.82422,4.76953 -0.59362,3.15148 0.95171,6.55167 3.72852,8.16016 3.24179,1.99478 7.88258,1.19705 10.19726,-1.84961 2.38875,-2.84907 2.28349,-7.41069 -0.23828,-10.14453 -0.98233,-1.11534 -2.25681,-1.98343 -3.71094,-2.3418 L 813.47461,537.5 c 1.85268,-3.21975 1.60931,-7.50815 -0.66406,-10.46094 -1.78485,-2.44372 -4.77593,-3.85863 -7.78516,-3.84375 -0.0787,0.002 -0.15798,-0.0142 -0.23633,0 z"
       transform="translate(-231.37)"
       id="path2112" /><path
       style="fill:#d52222;stroke-width:0.0800098;stroke:none;fill-opacity:1"
       d="m 223.74609,514.0918 c -0.003,0.33073 -0.005,0.66146 -0.008,0.99218 -0.0129,1.63738 -0.026,3.27474 -0.0391,4.91211 -3.01762,1.03516 -5.04617,4.26518 -4.72266,7.42969 0.20013,3.40524 3.15296,6.35605 6.54492,6.62305 2.89868,0.29563 5.89134,-1.29052 7.1836,-3.92188 0.82697,-1.55681 0.94762,-3.42478 0.5664,-5.125 -0.56021,-2.27757 -2.33176,-4.26078 -4.55468,-5.02343 -0.0156,-1.96224 -0.0314,-3.92448 -0.0469,-5.88672 z"
       transform="translate(-231.37)"
       id="path2110" /><path
       style="fill:#d52222;stroke-width:0.0800098;stroke:none;fill-opacity:1"
       d="m 266.18359,513.93555 c -0.30599,0.0202 -0.61197,0.0404 -0.91797,0.0605 -1.41648,0.0262 -2.79734,0.34433 -4.1875,0.58203 0.9253,3.91891 1.30527,7.93573 1.97657,11.9004 l 1.42578,9.43164 c -1.04649,0.39859 -1.9508,1.05516 -2.66797,1.91211 -2.26297,2.4536 -2.3858,6.56297 -0.3125,9.17578 1.5429,2.07689 4.26025,3.19604 6.81836,2.78515 0.71998,1.71114 1.55767,3.37616 2.32422,5.07032 0.59967,-0.35388 0.86487,-0.38518 0.87109,0.35351 0.10566,0.82402 0.20517,1.64989 0.3086,2.47461 2.12949,-0.0507 4.25958,-0.0811 6.38867,-0.14648 0.005,3.13913 2.28632,6.07543 5.32031,6.86914 2.82949,0.79047 6.11052,-0.28216 7.8125,-2.69922 1.5541,-0.4249 2.85094,-1.6107 3.73633,-2.92969 1.25061,-1.97564 1.47081,-4.58106 0.52734,-6.7207 -0.91958,-2.36991 -3.23445,-4.03117 -5.71484,-4.39258 -1.27484,-0.0274 -2.5924,-0.0785 -3.76563,0.51562 -1.19636,0.48628 -2.28206,1.29284 -3.03515,2.34375 -1.11555,0.43504 -2.2375,1.02239 -2.97657,1.98829 -1.86023,0.0464 -3.72854,0.0919 -5.59179,0.14062 0.66622,-0.43412 0.0457,-1.02728 -0.13672,-1.56836 -0.55665,-1.21467 -1.11327,-2.42986 -1.66992,-3.64453 2.5628,-2.72671 2.42724,-7.50397 -0.35157,-10.0293 -0.74541,-0.89126 -1.84699,-1.33263 -2.89453,-1.75976 -1.07952,-7.23431 -2.19681,-14.47538 -3.28711,-21.71289 z"
       transform="translate(-231.37)"
       id="path2108" /><path
       style="fill:#d52222;stroke-width:0.0800098;stroke:none;fill-opacity:1"
       d="m 779.05469,509.72656 -0.76172,0.0879 h -0.002 c -1.2259,-3e-4 -2.30815,0.56687 -3.40625,1.03125 -0.88472,0.0775 -0.73541,0.60613 -0.38282,1.22266 1.40054,3.53194 2.80065,7.06375 4.20117,10.5957 -1.87818,1.50647 -3.11048,3.77909 -3.42382,6.15821 -0.18935,1.94206 0.0571,3.95727 1.00976,5.68554 0.33157,0.45766 0.55497,0.87352 -0.006,1.26953 l -1.6289,2.12696 c -2.15029,-1.23314 -4.80628,-1.46811 -7.18555,-0.85742 -3.01522,0.79065 -5.53275,3.20304 -6.49609,6.15429 -9.08939,-0.4286 -18.21354,-0.83481 -27.28125,-1.27734 -0.42462,-0.34357 0.11003,-0.90175 -0.0977,-1.35938 0.10874,-3.78843 -2.2015,-7.51929 -5.72852,-8.96679 -1.27774,-0.63931 -2.70717,-0.80414 -4.11718,-0.73633 -2.87362,-0.0974 -5.64395,1.49764 -7.35352,3.75195 -2.13377,2.77156 -2.48526,6.71677 -0.98633,9.86133 0.31125,0.70495 0.78586,1.35062 1.23047,1.95117 -0.31188,1.8133 0.0678,3.72126 0.82031,5.39258 1.57829,3.42068 5.33995,5.67505 9.10743,5.40039 4.03104,-0.0862 7.7807,-3.12004 8.74023,-7.03125 8.82861,0.31584 17.65739,0.62687 26.48633,0.93359 1.54592,2.65957 4.49301,4.56369 7.59375,4.63672 1.42814,0.0308 2.89565,-0.009 4.21289,-0.63281 0.59168,-0.42438 0.30031,0.60198 0.46875,0.93359 1.21603,6.88833 2.37371,13.78888 3.54492,20.68555 -0.12594,0.76664 -0.12959,1.84312 0.75781,2.12891 0.85646,0.2047 1.55213,-0.56034 2.41211,-0.54102 0.78969,-0.11357 1.58501,-0.1895 2.37696,-0.28515 -1.06106,-4.49103 -1.64023,-9.0293 -2.47266,-13.56055 -0.56448,-3.44872 -1.23603,-6.893 -1.7168,-10.34766 0.18643,-0.92042 -0.4751,-2.02023 -1.50195,-1.88281 2.44904,-2.96186 2.79042,-7.43076 0.85156,-10.74414 0.73568,-0.96094 1.47135,-1.92188 2.20703,-2.88281 3.69873,1.88817 8.59437,0.98752 11.32032,-2.16602 1.63154,-1.76561 2.5749,-4.21297 2.41992,-6.625 0.0886,-3.1303 -1.75026,-6.15243 -4.34766,-7.82227 -1.82259,-1.24599 -4.08078,-1.64013 -6.25195,-1.44726 -0.58946,0.13457 -0.47687,-0.79867 -0.76172,-1.13867 -1.28399,-3.23443 -2.56723,-6.46883 -3.85156,-9.70313 z"
       transform="translate(-231.37)"
       id="path2106" /><path
       style="fill:#d52222;stroke-width:0.0800098;stroke:none;fill-opacity:1"
       d="m 242.00391,501.38867 c -1.84861,0.4399 -3.36794,1.68342 -5.04883,2.52149 -2.80067,1.60212 -5.65585,3.123 -8.4043,4.80664 -0.90142,0.69868 -0.54867,1.97005 0.0664,2.73437 0.21686,0.72318 0.91844,1.65486 1.86133,1.46289 1.31873,-0.0406 2.30099,-1.03825 3.44921,-1.55859 3.38393,-1.94756 6.85119,-3.75916 10.16602,-5.81836 0.79526,-0.62599 0.38031,-1.72142 -0.17187,-2.36133 -0.37259,-0.80475 -0.83184,-1.91913 -1.91797,-1.78711 z"
       transform="translate(-231.37)"
       id="path2104" /><path
       style="fill:#d52222;stroke-width:0.0800098;stroke:none;fill-opacity:1"
       d="m 760.38477,493.1543 c -1.09823,0.0392 -2.23709,-0.0894 -3.25586,0.42968 -1.61119,0.56713 -2.98375,1.71109 -3.9375,3.10938 -0.85907,1.40719 -1.36826,3.04493 -1.1875,4.70508 -0.0743,0.95973 0.23673,1.87001 0.58007,2.75 -0.92385,2.91292 0.0622,6.31687 2.41602,8.26953 1.96048,1.77567 4.87229,2.29364 7.39062,1.57617 2.83775,-0.81205 5.05201,-3.34786 5.52344,-6.25586 0.20189,-1.50478 0.0714,-3.07474 -0.55664,-4.4707 0.52319,-1.61168 0.43925,-3.43025 -0.13476,-5.01953 -0.44321,-1.2855 -1.27171,-2.37173 -2.29883,-3.24805 -1.21185,-1.11215 -2.89356,-1.80975 -4.53906,-1.8457 z"
       transform="translate(-231.37)"
       id="path2102" /><path
       style="fill:#d52222;stroke-width:0.0800098;stroke:none;fill-opacity:1"
       d="m 283.7168,491.88477 c -1.30546,-0.0838 -2.60404,0.23091 -3.75196,0.85742 -2.50556,1.26209 -4.07029,4.13569 -3.79296,6.92383 0.0383,1.53993 0.69392,3.04541 1.69531,4.20507 -3.93192,1.35926 -7.90492,2.63749 -11.81055,4.04688 -0.84266,0.46398 -1.4488,1.56696 -0.84766,2.45117 0.20563,0.91537 0.79745,1.67342 1.43946,2.32031 0.26106,0.76889 0.52205,1.53779 0.7832,2.30664 1.41898,0.28058 2.80956,-0.18473 4.09766,-0.74023 4.72225,-1.65063 9.42551,-3.35719 14.14062,-5.0293 2.55255,1.34807 5.84537,0.90123 8.00781,-0.98633 1.68343,-1.44362 2.66697,-3.71125 2.49219,-5.93554 -0.10066,-2.7791 -2.00339,-5.38866 -4.61523,-6.34375 -0.58445,-0.28074 -1.2789,-0.35222 -1.87305,-0.5 -1.23644,-2.08206 -3.52085,-3.53808 -5.96484,-3.57617 z"
       transform="translate(-231.37)"
       id="path2100" /><path
       style="fill:#d52222;stroke-width:0.0800098;stroke:none;fill-opacity:1"
       d="m 790.6582,477.87305 c -1.29938,0.0329 -2.63698,-0.0975 -3.85937,0.45117 -2.74379,0.94628 -4.99276,3.16348 -5.93164,5.91601 -0.57592,1.39582 -0.42229,2.92168 -0.42578,4.39454 0.43035,3.81301 3.45278,7.15724 7.1914,8.01757 1.24314,0.29764 2.56128,0.29451 3.82422,0.15235 2.68543,-0.44394 5.17146,-2.07479 6.58399,-4.41016 1.20435,3.1342 4.62917,5.26296 7.98046,4.84961 3.84131,-0.15496 7.14556,-3.68293 7.17774,-7.50976 0.22128,-3.35974 -2.01105,-6.67533 -5.20508,-7.74024 -1.63797,-0.61226 -3.49415,-0.56835 -5.1582,-0.0762 -1.46769,0.55884 -2.84893,1.41785 -3.76953,2.7168 -1.06168,-3.68029 -4.54737,-6.60616 -8.40821,-6.76172 z"
       transform="translate(-231.37)"
       id="path2098" /><path
       style="fill:#d52222;stroke-width:0.0800098;stroke:none;fill-opacity:1"
       d="m 822.77539,473.81836 c -3.17503,-0.0767 -6.26881,2.08814 -7.30469,5.09375 -0.63182,1.4662 -0.59194,3.15048 -0.29297,4.68555 0.66956,2.63857 2.73224,4.88112 5.36915,5.62695 1.1713,0.42784 2.47358,0.30449 3.61914,0.23242 1.40051,-0.20061 2.74212,-0.90329 3.83203,-1.80469 0.46484,-0.36352 1.04377,0.5074 1.55664,0.66407 0.31826,0.20831 -0.128,0.7319 -0.0703,1.07031 -0.29009,2.02965 0.0135,4.14322 0.98242,5.96289 0.4149,0.82118 1.00818,1.5437 1.63281,2.21484 -4.19012,0.92477 -7.48251,4.97508 -7.32422,9.29883 -0.1209,3.95429 2.59943,7.77003 6.3418,9.01758 -0.94694,0.66569 -1.90166,1.39611 -2.84375,2.02148 -1.5647,-1.51961 -3.75227,-2.43182 -5.94922,-2.24804 -1.6516,-0.007 -3.29049,0.66037 -4.56836,1.67382 -1.21548,1.09303 -2.29591,2.40814 -2.67188,4.03516 -1.07656,3.57673 0.80453,7.75154 4.22657,9.27149 2.67419,1.29072 6.03317,0.87714 8.33593,-0.99219 2.06686,-1.6507 3.18191,-4.41551 2.86329,-7.04102 1.43352,-1.0294 2.86767,-2.05791 4.30078,-3.08789 0.39043,-0.83962 0.78356,-2.00701 -0.0957,-2.6914 -0.71393,-0.6052 0.3288,-0.37003 0.74024,-0.47461 3.757,-0.38947 7.07539,-3.2418 8.05078,-6.88672 0.44742,-1.44621 0.27315,-3.00151 0.20312,-4.48438 -0.43941,-1.76585 -1.26368,-3.46744 -2.55078,-4.77148 3.62944,-0.86595 6.62387,-3.98368 7.1875,-7.69531 0.56391,-3.21888 -0.61379,-6.69936 -3.12304,-8.82032 -1.9851,-1.80327 -4.77448,-2.58398 -7.41993,-2.27148 -2.05565,0.18677 -4.02535,1.16695 -5.50195,2.59765 -0.55664,-0.34699 -1.11328,-0.69401 -1.66992,-1.04101 0.0904,-0.9662 0.0294,-1.96 -0.0156,-2.91602 -0.44175,-1.57904 -1.18676,-3.11335 -2.45312,-4.1914 -1.4203,-1.35899 -3.42302,-2.10701 -5.38672,-2.04883 z"
       transform="translate(-231.37)"
       id="path2096" /><path
       style="fill:#d52222;stroke-width:0.0800098;stroke:none;fill-opacity:1"
       d="m 188.57617,449.75781 c -1.44073,-0.13039 -2.73071,0.66143 -4.08789,1.01172 -2.81983,0.91306 -5.65619,1.90303 -8.4668,2.76758 -1.55928,-1.14161 -3.50547,-1.79956 -5.44531,-1.64258 -3.20301,-0.0522 -6.26842,2.01392 -7.62695,4.88281 -1.0773,2.10901 -1.11318,4.67178 -0.36719,6.88672 0.26954,0.38427 -0.41678,0.59198 -0.43555,0.9961 -0.32097,0.92346 0.17844,1.88206 0.2129,2.82422 l 4.5039,29.625 c -3.17382,1.02717 -5.65529,4.06715 -5.88672,7.4082 -0.0611,1.55481 -0.0579,3.18364 0.75,4.57226 1.10776,2.59524 3.63046,4.47058 6.38086,4.97071 1.91695,0.21349 3.9516,0.12179 5.6582,-0.87696 0.80029,-0.39512 1.50899,-0.92973 2.09961,-1.59961 l 4.89844,2.86329 c -1.34019,3.08646 -0.74852,6.94227 1.59375,9.39062 -3.32239,1.92213 -5.05205,6.16148 -3.99219,9.85547 0.42873,1.55002 1.26999,2.99989 2.45704,4.0918 L 174.5,548.21484 c -1.6709,-0.76966 -3.59313,-0.75088 -5.32422,-0.19922 -2.93401,-1.07755 -6.46859,0.0742 -8.25976,2.625 -0.69271,1.00152 -1.20813,2.19844 -1.30664,3.41211 -0.0487,1.32621 -0.0229,2.69781 0.60546,3.90235 0.54849,1.11748 1.3351,2.14949 2.37305,2.85351 -1.78133,1.38469 -3.02596,3.49571 -3.27148,5.74805 -0.0514,-3.47618 -3.05326,-6.53476 -6.48829,-6.83203 -2.34556,-0.25455 -4.7863,0.72257 -6.30273,2.53125 l -14.2793,-5.25195 c -0.42251,-3.17606 -2.74819,-5.99119 -5.80273,-6.97852 -1.39894,-0.61437 -2.9706,-0.43435 -4.44727,-0.39844 -2.79894,0.6053 -5.34774,2.48746 -6.45507,5.16993 -0.45518,1.02778 -0.75042,2.12892 -0.64844,3.25781 -0.12842,1.32468 0.0973,2.6552 0.68554,3.84961 1.37574,3.244 4.89431,5.38021 8.4043,5.1582 2.5207,-0.0525 4.94288,-1.37319 6.50391,-3.30664 2.90266,1.45394 5.82941,2.86484 8.74414,4.29687 -0.67092,1.24728 -1.09834,2.65928 -0.96875,4.11524 0.1257,2.45354 1.56907,4.83069 3.77539,5.95703 1.71172,0.99667 3.83178,1.05658 5.70703,0.55859 2.10687,-0.70896 3.86506,-2.37669 4.61328,-4.47851 1.36465,-0.0368 2.75652,-0.44989 3.85547,-1.25586 1.56509,0.52284 3.13035,1.04514 4.69531,1.56836 0.39069,-0.45541 0.74599,-1.02394 1.17383,-0.31446 0.99106,0.901 2.19237,1.57014 3.48047,1.9375 -0.31543,2.75269 0.71446,5.6547 2.81445,7.48633 h -2.65039 v 5.53516 c -0.62473,0.39077 -1.19417,0.87644 -1.65234,1.45508 -3.2051,-0.35001 -6.49517,1.71543 -7.50586,4.79297 -0.61834,1.63718 -0.53936,3.52244 0.0781,5.14843 0.85306,2.12755 2.72931,3.79072 4.95899,4.34375 2.56204,0.68255 5.49082,-0.20245 7.23047,-2.19336 0.25005,-0.40478 0.84575,-0.0734 1.25976,-0.20898 3.59321,-0.0654 6.81861,-3.28093 6.82032,-6.88867 0.29561,-3.22802 -1.97894,-6.42686 -5.08594,-7.29883 -0.34105,-0.18775 -0.94981,-0.11154 -1.14453,-0.35547 v -2.80078 c 0.49096,0.21436 1.00057,0.38642 1.52148,0.51172 v 2.51953 c 2.17513,3e-5 4.35026,-0.001 6.52539,0.004 1.23968,2.84474 4.45486,4.63578 7.52539,4.16601 2.94182,-0.28904 5.52276,-2.62946 6.16016,-5.50781 0.33684,-1.62715 0.23301,-3.38557 -0.53906,-4.88281 -0.57067,-1.23619 -1.5441,-2.27273 -2.70118,-2.98242 2.66342,0 5.32683,-10e-6 7.99024,0 v -4.95899 c -4.89518,-3.7e-4 -9.79037,-9.5e-4 -14.68555,-0.002 -0.944,-2.54438 -3.15211,-4.55834 -5.7539,-5.3125 0.2754,-2.56349 -0.59192,-5.21286 -2.39454,-7.06836 1.48102,-0.55899 2.66784,-1.70835 3.54883,-2.99414 0.88124,-1.46712 1.13472,-3.2498 0.90625,-4.92188 0.13937,-0.45346 0.67367,-0.83505 0.94141,-1.27539 3.34017,-4.18419 6.67961,-8.36834 10.01953,-12.55273 0.67739,0.57697 1.45604,1.09742 2.12109,1.64648 -1.61829,2.33726 -1.65223,5.62866 -0.0977,8.00586 1.52771,2.46904 4.64785,3.77083 7.48242,3.23047 0.32762,0.35998 1.19398,0.63182 0.57422,1.13867 -1.23515,2.07747 -1.45718,4.68321 -0.79102,6.98438 0.83129,2.6892 2.98938,4.92242 5.69141,5.7539 3.53906,1.17723 7.75295,-0.17193 9.85937,-3.27343 1.17989,-1.63697 1.73184,-3.67236 1.58399,-5.67969 -0.0486,-1.76214 -0.82452,-3.46334 -1.85938,-4.85938 -1.01347,-1.20362 -2.32359,-2.09877 -3.47265,-3.16211 -1.8833,-1.48076 -3.79854,-2.8569 -5.68946,-4.33398 -0.0131,-3.39892 -2.7937,-6.45795 -6.13867,-6.91992 -0.98437,-0.18433 -1.86865,-0.0522 -2.80273,0.11328 -0.76259,-0.62191 -1.70439,-1.21818 -2.35938,-1.85547 1.11267,-1.51424 1.8082,-3.36951 1.71094,-5.26562 0.14783,-2.18184 -0.84202,-4.36389 -2.20898,-5.97266 2.66582,-1.56972 4.36885,-4.64037 4.22656,-7.73828 0.0119,-1.11202 -0.24746,-2.21737 -0.68555,-3.23633 1.49024,-0.89779 2.98047,-1.79557 4.4707,-2.69336 2.45437,2.36491 6.32578,3.0755 9.45508,1.72656 3.76729,-1.46788 6.05745,-5.81202 5.22461,-9.7539 -0.54703,-2.91234 -2.64258,-5.47356 -5.43164,-6.50782 -0.55324,-0.13022 -0.91213,-0.33806 -0.72656,-0.9707 0.0959,-0.52921 -0.19173,-1.33676 0.14258,-1.69336 1.58048,-0.57691 2.92524,-1.77493 3.74609,-3.23242 1.81074,-3.08701 0.86994,-7.45561 -2.10351,-9.46875 -1.47262,-1.0767 -3.32994,-1.50562 -5.13086,-1.30078 -3.44124,0.34578 -6.3667,3.47334 -6.36329,6.95508 -0.16987,3.05196 1.84349,6.10013 4.75,7.08398 -0.0414,0.7829 0.0821,1.68965 -0.0605,2.39648 -3.58053,1.06345 -6.2664,4.60264 -6.19141,8.35743 0.0183,0.6913 0.0187,1.4 0.21875,2.0664 -1.75348,1.03696 -3.51036,2.1526 -5.26172,3.14063 -2.11107,-1.41968 -4.84067,-1.77014 -7.27148,-1.0918 -0.81311,0.2377 -1.5771,0.62119 -2.29883,1.06055 0.4559,-0.80843 1.15145,-1.80096 0.52734,-2.72071 -0.40951,-1.1655 -1.77167,-1.37942 -2.68359,-2.01562 -1.19609,-0.65085 -2.39376,-1.30228 -3.58984,-1.95312 -0.47019,-2.73147 -2.32886,-5.15778 -4.82422,-6.35352 l -3.41602,-28.16406 c 2.46687,0.24647 4.99861,-0.63428 6.79688,-2.33985 1.90643,-1.77937 2.91387,-4.43481 2.69531,-7.0332 -0.0233,-0.74542 -0.16786,-1.48686 -0.41797,-2.18945 3.34908,-1.10251 6.69721,-2.2079 10.04688,-3.3086 0.7684,-0.53469 1.5169,-1.51323 0.96289,-2.46484 -0.30624,-0.74517 -0.39005,-1.61994 -1.04102,-2.18945 -0.10067,-0.14913 -0.38439,-0.0217 -0.54297,-0.0586 z"
       transform="translate(-231.37)"
       id="path2094" /><path
       style="fill:#d52222;stroke-width:0.0800098;stroke:none;fill-opacity:1"
       d="m 192.58594,448.18359 c -0.10938,0.12761 -0.21875,0.25521 -0.32813,0.38282 -0.87971,0.76284 -0.9003,1.96908 -0.92969,3.03906 -0.31811,0.93164 0.77116,1.58829 1.59961,1.55859 4.30724,0.41625 8.64312,0.64284 12.96094,0.98438 9.31111,0.66674 18.62365,1.35972 27.9336,2.01172 0.71646,2.5e-4 1.43041,0.0434 2.14648,0.0625 v -4.9375 c -8.12619,-0.46243 -16.23539,-1.15997 -24.35547,-1.7168 -6.34199,-0.46101 -12.68517,-0.92633 -19.02734,-1.38477 z"
       transform="translate(-231.37)"
       id="path2092" /><path
       style="fill:#d52222;stroke-width:0.0800098;stroke:none;fill-opacity:1"
       d="m 261.96875,446.97852 -0.01,0.0996 -0.01,0.0703 c -0.12092,1.72863 -0.002,3.53242 0.88281,5.06836 0.42011,0.81653 0.92879,1.59675 1.59375,2.23632 l -11.71875,18.6504 c -1.58075,-1.26185 -3.61476,-1.93259 -5.63476,-1.88672 -1.39842,-3.83696 -2.8379,-7.67468 -4.25391,-11.51172 -0.47739,-1.26902 -0.96201,-2.53616 -1.44141,-3.80469 6.8705,-2.95854 13.72842,-5.94642 20.5918,-8.92187 z"
       transform="translate(-231.37)"
       id="path2090" /><path
       style="fill:#d52222;stroke-width:0.0800098;stroke:none;fill-opacity:1"
       d="m 432.63281,445.53906 c 0.0648,-0.15212 0.20782,-0.17356 0.53125,0.084 0.45688,0.20518 0.91227,0.41006 1.36914,0.61523 h -1.96679 c 0.0136,-0.2646 0.002,-0.5471 0.0664,-0.69922 z"
       transform="translate(-231.37)"
       id="path2088" /><path
       style="fill:#d52222;stroke-width:0.0800098;stroke:none;fill-opacity:1"
       d="m 276.04883,440.88672 c 0.10533,-0.006 0.19174,0.056 0.27148,0.2539 0.80369,1.03301 1.85893,1.85901 3.03321,2.43165 -0.47077,0.12602 -1.11249,0.77997 -1.2793,-0.004 -0.629,-0.9875 -1.43491,-1.87175 -2.40625,-2.53125 0.15126,-0.0722 0.27552,-0.14486 0.38086,-0.15039 z"
       transform="translate(-231.37)"
       id="path2086" /><path
       style="fill:#d52222;stroke-width:0.0800098;stroke:none;fill-opacity:1"
       d="m 693.63281,440.03125 c -3.00101,-0.11625 -5.93652,1.93052 -6.88867,4.78125 -1.37636,3.48384 0.52681,7.85722 4.04492,9.17383 2.84017,1.24661 6.39854,0.36556 8.36914,-2.01953 1.25382,-1.47469 1.81861,-3.43926 1.66407,-5.35938 -0.24372,-2.90637 -2.39189,-5.53458 -5.21094,-6.31836 -0.64052,-0.18872 -1.31066,-0.27802 -1.97852,-0.25781 z"
       transform="translate(-231.37)"
       id="path2084" /><path
       style="fill:#d52222;stroke-width:0.0800098;stroke:none;fill-opacity:1"
       d="m 844.02344,434.24414 c -3.19169,0.38602 -6.11253,2.47825 -7.46485,5.40039 -1.68231,-1.50046 -3.99768,-2.14678 -6.22265,-1.88476 -2.09339,0.24594 -4.08468,1.41366 -5.33399,3.11523 -1.15915,0.33139 -2.24489,0.94075 -3.11133,1.78125 -5.57681,0.42904 -11.15364,0.85807 -16.73046,1.28711 -0.91073,-3.78492 -4.32476,-6.80924 -8.2168,-7.16211 -4.06006,-0.52182 -8.3268,1.90476 -9.82422,5.74023 -1.84685,4.00527 -0.34067,9.18146 3.33594,11.60743 1.86769,1.32204 4.20803,1.87863 6.47461,1.6289 3.60982,-0.29802 6.84578,-2.95329 8.00195,-6.36328 0.0698,-0.67407 0.94926,-0.29465 1.41602,-0.45898 l 13.02539,-1.00391 c -0.25596,3.40444 1.96037,6.81808 5.20312,7.91992 3.0219,1.13845 6.68736,0.15057 8.72461,-2.35937 0.35652,-0.57366 1.14287,-0.54633 1.66992,-0.91602 1.11497,-0.4124 1.84031,-1.38476 2.65039,-2.20508 0.25928,-0.68051 0.53127,-0.11902 0.84766,0.17969 1.74864,1.66826 4.13959,2.80647 6.5918,2.6836 4.14877,0.28305 8.14735,-2.75906 9.27343,-6.7129 0.54866,-1.58677 0.4195,-3.32033 0.19336,-4.94921 -0.85151,-3.70289 -4.06382,-6.73409 -7.83984,-7.27149 -0.87572,-0.13893 -1.77901,-0.0697 -2.66406,-0.0566 z"
       transform="translate(-231.37)"
       id="path2082" /><path
       style="fill:#d52222;stroke-width:0.0800098;stroke:none;fill-opacity:1"
       d="m 670.42578,430.11523 c -1.18942,-0.0501 -2.37369,0.13477 -3.46484,0.62891 -3.34625,1.26097 -5.61259,4.80315 -5.45508,8.35742 -1.42658,-0.96705 -3.18766,-1.35767 -4.89648,-1.18359 -2.75173,0.24869 -5.21115,2.24608 -6.08204,4.86133 -0.47004,1.31808 -0.4328,2.7776 -0.19531,4.13867 0.3839,1.43859 1.18682,2.74421 2.3125,3.7207 1.44805,1.28851 3.46288,1.93406 5.39453,1.7168 2.60772,-0.14182 5.06048,-1.89379 6.03321,-4.32227 0.37634,-0.73996 0.52927,-1.63704 0.59961,-2.4082 1.72487,1.42557 3.99931,2.16918 6.23437,1.94727 2.50129,-0.065 4.89662,-1.44841 6.38281,-3.4375 2.40887,-3.11209 2.31934,-7.86683 -0.25195,-10.85547 -1.58714,-1.94591 -4.0846,-3.20314 -6.61133,-3.16407 z"
       transform="translate(-231.37)"
       id="path2080" /><path
       style="fill:#d52222;stroke-width:0.0800098;stroke:none;fill-opacity:1"
       d="m 196.92578,424.85742 c -1.41446,-0.0905 -2.81297,0.28632 -4.02734,1.01172 -1.01824,0.50755 -1.75503,1.45042 -2.4336,2.3418 -1.68809,2.73617 -1.38682,6.59054 0.91407,8.89453 1.50775,1.59786 3.77723,2.48055 5.96875,2.20898 3.56777,-0.2039 6.65753,-3.52734 6.53515,-7.11328 0.13487,-2.17043 -0.92936,-4.31641 -2.57617,-5.69922 -1.02709,-0.88215 -2.36708,-1.40614 -3.69922,-1.61133 -0.227,-0.0207 -0.45332,-0.0459 -0.68164,-0.0332 z"
       transform="translate(-231.37)"
       id="path2078" /><path
       style="fill:#d52222;stroke-width:0.0800098;stroke:none;fill-opacity:1"
       d="m 377.40625,423.80078 c -1.10203,-0.0237 -2.20711,0.0574 -3.23828,0.48828 -3.50753,1.1711 -5.97085,4.80922 -5.79297,8.48828 -1.59015,0.34696 -3.3656,0.55839 -5.02734,0.85352 -9.70353,1.57428 -19.40752,3.15211 -29.11133,4.72461 -0.85334,0.55804 -1.44007,1.60737 -1.08789,2.62305 0.0746,0.92226 0.71365,1.64521 1.16797,2.4082 11.87362,-1.92754 23.7474,-3.85409 35.62109,-5.78125 1.68032,2.38492 4.62533,3.91691 7.56055,3.6543 2.34486,0.0459 4.59743,-1.12657 6.15625,-2.83399 0.34846,-0.56584 1.00621,0.0416 1.51758,0.0801 10.08259,2.99071 20.16348,5.98195 30.24609,8.97266 0.99025,3.75458 4.76666,6.63668 8.68164,6.3457 1.39323,0.12221 2.77182,-0.40501 4.00586,-1.01367 0.58326,-0.30796 1.10719,-0.71461 1.59961,-1.15039 2.79557,0.45963 5.59114,0.91927 8.38672,1.3789 0.65629,4.02301 4.49351,7.18756 8.56054,7.1211 3.35523,0.0494 6.64017,-1.98182 8.00391,-5.06446 1.49111,-3.11612 0.89871,-7.0649 -1.44531,-9.60351 -2.58152,-2.92887 -7.19369,-3.74078 -10.61524,-1.85742 -0.45307,0.31627 -0.87959,0.56949 -1.36718,0.13867 -3.87377,-1.76905 -7.78067,-3.43805 -11.61133,-5.29102 -1.79452,-1.59677 -4.25745,-2.32556 -6.63672,-2.09961 -0.6066,-0.0278 -1.24436,0.40169 -1.74024,-0.11914 -1.47013,-0.84867 -2.88698,-1.83681 -4.45898,-2.47851 -0.99361,-0.24435 -1.76506,0.61147 -2.04883,1.46875 -0.33423,0.59598 -0.66921,1.19225 -1.00195,1.78906 0.86509,1.11675 2.10959,1.88407 3.30469,2.53711 -0.64377,0.81894 -1.16038,1.7407 -1.47657,2.73633 l -29.72265,-8.8086 c 0.39227,-3.10779 -1.06126,-6.35172 -3.63672,-8.13476 -1.39196,-0.94927 -3.09117,-1.59899 -4.79297,-1.57227 z"
       transform="translate(-231.37)"
       id="path2076" /><path
       style="fill:#d52222;stroke-width:0.0800098;stroke:none;fill-opacity:1"
       d="m 234.32031,420.55078 c -1.37551,0.13592 -2.71279,0.73978 -3.79687,1.56836 -0.92517,0.82397 -1.7339,1.78657 -2.15625,2.96484 -1.14662,2.83263 -0.30604,6.37413 2.10351,8.29493 2.64631,2.27699 6.92804,2.20116 9.49219,-0.16797 1.87586,-1.63988 2.75721,-4.27486 2.31641,-6.71875 -0.437,-2.74416 -2.64314,-5.0848 -5.33399,-5.76172 -0.84171,-0.22158 -1.7567,-0.16135 -2.625,-0.17969 z"
       transform="translate(-231.37)"
       id="path2074" /><path
       style="fill:#d52222;stroke-width:0.0800098;stroke:none;fill-opacity:1"
       d="m 705.07422,416.07227 c -1.46951,0.12085 -2.93554,0.71007 -4.06055,1.65234 -1.55275,1.30236 -2.58261,3.247 -2.60937,5.28906 -0.22592,3.25523 2.0868,6.46421 5.23828,7.30469 2.64131,0.74985 5.72933,-0.0578 7.47851,-2.22656 1.32499,-1.3676 1.91397,-3.35683 1.78907,-5.23438 -0.10774,-2.83818 -2.12802,-5.49541 -4.82618,-6.38281 -0.95886,-0.38947 -1.98906,-0.43128 -3.00976,-0.40234 z"
       transform="translate(-231.37)"
       id="path2072" /><path
       style="fill:#d52222;stroke-width:0.0800098;stroke:none;fill-opacity:1"
       d="m 388.92773,396.83203 c -2.12122,-0.17083 -4.2187,0.70354 -5.84179,2.0293 -1.62111,1.3957 -2.7537,3.41524 -2.98828,5.54297 0.0191,1.41462 -0.17447,2.89982 0.4707,4.21875 1.21903,3.46492 4.83394,5.86645 8.49805,5.68359 1.03358,-0.0279 2.06353,-0.24131 3.02734,-0.61523 5.23798,7.30164 10.47839,14.60155 15.71484,21.90429 1.07752,-0.71315 2.15564,-1.42541 3.23438,-2.13672 0.11289,-0.98809 0.14128,-2.12285 -0.6582,-2.8496 -4.79577,-6.68411 -9.59291,-13.36862 -14.38868,-20.05274 1.20373,-1.68851 1.69216,-3.7955 1.50977,-5.84766 -0.22413,-3.02481 -2.21094,-5.82813 -4.9668,-7.08984 -1.11641,-0.54716 -2.36244,-0.86708 -3.61133,-0.78711 z"
       transform="translate(-231.37)"
       id="path2070" /><path
       style="fill:#d52222;stroke-width:0.0800098;stroke:none;fill-opacity:1"
       d="m 726.30859,396.21484 c -2.05492,0.2097 -4.03218,1.27174 -5.23047,2.97071 -2.65145,1.04657 -4.4551,3.85099 -4.36718,6.69336 -0.0713,1.37183 0.40202,2.71891 1.10937,3.87695 -3.68678,1.76149 -5.87601,6.05569 -5.22851,10.07422 0.51206,3.73796 3.41755,7.03657 7.09375,7.92969 -0.12587,2.38874 0.64779,4.82254 2.18164,6.66601 -3.07089,0.83759 -5.31619,3.91749 -5.16016,7.09961 -0.0204,2.10136 1.02338,4.17149 2.66406,5.47266 0.50825,0.29624 0.24414,0.94383 0.41407,1.42968 0.39179,2.806 2.59732,5.19426 5.33203,5.89258 2.69662,0.72094 5.78635,-0.25153 7.50586,-2.47461 1.09555,-1.35852 1.72716,-3.11201 1.55664,-4.86523 0.0412,-2.21239 -1.20078,-4.33251 -2.97461,-5.61524 0.0826,-0.37155 -0.16675,-0.99076 0.0254,-1.19335 1.77623,0.0376 3.54115,-0.50782 5.04687,-1.43555 4.79818,3.90104 9.59636,7.80208 14.39454,11.70312 -0.92647,1.44393 -1.42131,3.2602 -1.40821,4.88867 0.0532,1.01241 -0.52736,1.91965 -0.43164,2.92774 -5.46809,1.56579 -10.93626,3.13129 -16.4043,4.69726 -0.63001,0.56969 -1.48907,1.29583 -1.12695,2.25 0.28976,1.00244 0.61824,2.10266 1.5918,2.66211 1.21732,0.14709 2.40318,-0.52991 3.59765,-0.77343 l 13.30469,-3.82422 c 1.64937,3.37054 5.45675,5.59429 9.2168,5.17187 2.78753,-0.0509 5.40681,-1.6437 7.04687,-3.85351 1.33861,-1.77375 1.89718,-4.03995 1.84961,-6.23438 0.29574,-0.85025 0.43254,-1.73126 0.39258,-2.63086 0.32407,-4.6253 -3.40271,-9.02393 -7.96289,-9.65234 -1.92662,-0.36201 -3.95633,-0.002 -5.72266,0.79687 -0.50558,0.077 -0.97254,-0.70884 -1.46289,-0.97461 l -10.18359,-8.2871 c 2.026,0.4208 4.24001,0.0768 5.91211,-1.19336 2.11585,-1.47906 3.28695,-4.14867 2.96094,-6.70899 -0.12931,-1.5277 -0.83428,-3.0395 -1.90235,-4.14453 -0.79101,-0.9422 -1.9004,-1.48975 -3,-1.98437 -2.30702,-1.5967 -5.52586,-1.62391 -7.89843,-0.14844 -0.46397,0.18531 -0.83523,0.86933 -1.1543,0.14258 -0.74793,-1.08478 -1.52415,-2.17103 -2.61133,-2.95118 -1.0118,-0.83136 -2.2476,-1.35167 -3.5,-1.70312 0.10498,-1.54417 -0.081,-3.11508 -0.79101,-4.50781 -0.52016,-1.16435 -1.28554,-2.2141 -2.21094,-3.08594 0.59676,-0.39707 0.8282,-1.20671 1.55273,-1.39844 3.00294,-1.50326 4.61472,-5.24418 3.63086,-8.45703 -0.39778,-1.41183 -1.22923,-2.67264 -2.38281,-3.58203 -0.73313,-0.81926 -1.86624,-1.14579 -2.88477,-1.48633 -0.77824,-0.2142 -1.58573,-0.14406 -2.38086,-0.17969 z"
       transform="translate(-231.37)"
       id="path2068" /><path
       style="fill:#d52222;stroke-width:0.0800098;stroke:none;fill-opacity:1"
       d="m 455.54102,395.94336 c 0.51819,0.25905 0.75545,1.0113 0.38281,1.49609 -0.50777,0.59847 -1.75622,-0.001 -1.46485,-0.73242 0.35971,-0.21272 0.63711,-0.86676 1.08204,-0.76367 z"
       transform="translate(-231.37)"
       id="path2066" /><path
       style="fill:#d52222;stroke-width:0.0800098;stroke:none;fill-opacity:1"
       d="m 618.80859,391.42578 c -1.49121,0.0716 -2.97326,0.65885 -4.13086,1.58203 -1.04832,0.9362 -1.96211,2.05013 -2.35937,3.42188 -0.74118,2.2579 -0.30872,4.8787 1.16016,6.74414 0.80496,0.93925 1.74264,1.78212 2.92382,2.20312 0.51379,0.28771 1.21928,0.23195 1.44922,0.87696 0.29613,0.34544 -0.29629,0.77753 -0.35351,1.19336 -0.83514,1.89992 -0.88383,4.0627 -0.4961,6.07617 0.31368,0.58184 -0.58925,0.43441 -0.93359,0.66406 -3.50597,1.13001 -6.16715,4.49438 -6.47266,8.1582 -0.42684,-0.78347 -0.9959,-1.58734 -1.71093,-2.18554 -1.43093,-1.34265 -3.46107,-1.97243 -5.4043,-1.79883 -2.37636,0.10522 -4.58584,1.60173 -5.75,3.64453 -0.66359,1.24088 -1.06303,2.63439 -0.88867,4.05078 -0.0598,1.28597 0.51298,2.49549 1.14843,3.58203 0.88208,1.2349 2.07616,2.27772 3.53321,2.77344 0.73358,0.29347 1.52246,0.43549 2.31054,0.45898 1.33582,2.78644 4.59164,4.44542 7.63477,3.91016 2.43788,-0.32267 4.61606,-2.04728 5.55859,-4.30664 0.78758,0.27817 1.61207,0.46277 2.44727,0.50781 -1.20073,1.35881 -1.81107,3.21833 -1.69922,5.0293 0.0335,2.99095 2.18228,5.78995 5.04883,6.63867 1.36675,0.4298 2.87417,0.40297 4.25,0.0332 0.48993,-0.1128 0.94974,-0.54112 1.41992,-0.13086 2.30897,0.82365 5.05076,0.42266 6.97656,-1.09765 0.92198,-0.85765 1.85609,-1.76369 2.25782,-2.99219 1.37781,-3.15187 0.0712,-7.15486 -2.8711,-8.92578 -2.01105,-1.26436 -4.67532,-1.44739 -6.83008,-0.45899 -0.45181,-0.20335 -0.92286,-0.36196 -1.4082,-0.46289 2.80356,-2.37236 3.94065,-6.43654 2.91602,-9.94531 3.22467,-0.68946 5.97935,-3.15481 7.03515,-6.27734 0.88031,1.09706 1.90821,2.18205 3.27735,2.64258 1.78507,0.74657 3.87887,0.7138 5.65429,-0.0449 0.21117,4.29442 3.75653,8.09273 7.98633,8.74415 3.52373,0.63537 7.33472,-0.81831 9.46094,-3.7168 2.51479,-3.2402 2.60563,-8.09324 0.2168,-11.42774 -1.90816,-2.82057 -5.39522,-4.46329 -8.78711,-4.13086 -1.72399,0.0865 -3.39067,0.75447 -4.81446,1.70899 -0.47354,-1.6422 -1.59833,-3.02484 -2.99414,-3.98242 -1.33658,-0.84931 -2.92667,-1.25143 -4.50586,-1.11914 -1.43443,0.0557 -2.84233,0.66925 -3.97265,1.52539 -0.71705,0.74149 -1.55364,1.42616 -1.96289,2.40039 -0.89104,-1.8359 -2.37845,-3.37063 -4.17383,-4.33789 0.20524,-1.67419 -0.31053,-3.34529 -1.17578,-4.77344 -0.58866,-0.85335 -1.3974,-1.59437 -2.26758,-2.16602 -0.6598,-0.34781 -1.32986,-0.70399 -2.07813,-0.82226 -1.34274,-2.2675 -4.00336,-3.62566 -6.625,-3.4668 z"
       transform="translate(-231.37)"
       id="path2064" /><path
       style="fill:#d52222;stroke-width:0.0800098;stroke:none;fill-opacity:1"
       d="m 657.10352,378.4375 c -1.61914,0.0738 -3.22456,0.80895 -4.37696,1.94531 -2.58703,2.29498 -3.00835,6.51836 -1.05664,9.34571 1.77592,2.72471 5.49668,3.96527 8.53516,2.76562 1.26407,-0.39744 2.30467,-1.24113 3.13867,-2.25 0.83221,-0.79264 1.1798,-1.97778 1.48437,-3.0625 0.47323,-2.4278 -0.25843,-5.09704 -2.11132,-6.78516 -1.47909,-1.42385 -3.56533,-2.16876 -5.61328,-1.95898 z"
       transform="translate(-231.37)"
       id="path2062" /><path
       style="fill:#d52222;stroke-width:0.0800098;stroke:none;fill-opacity:1"
       d="m 695.29492,378.375 c -2.01493,0.0686 -4.03115,0.89585 -5.33008,2.47266 -1.72903,1.72869 -2.19027,4.43648 -1.61914,6.7539 0.14732,0.47051 0.31218,0.93817 0.54688,1.37305 -4.09887,-0.34249 -8.25089,2.20343 -9.74024,6.05078 -1.1073,2.75587 -0.90596,6.01455 0.6211,8.57422 1.54274,2.74738 4.57333,4.61382 7.71484,4.78125 1.56143,0.0147 3.16605,-0.0488 4.58789,-0.76758 3.56824,-1.49225 5.97107,-5.2863 5.83008,-9.14648 -0.0217,-1.99859 -0.7189,-3.95838 -1.89453,-5.56446 2.44155,-0.15491 4.69961,-1.71563 5.82031,-3.87109 1.51659,-2.86787 0.83843,-6.69409 -1.62891,-8.81445 -1.35043,-1.20331 -3.11317,-1.80636 -4.9082,-1.8418 z"
       transform="translate(-231.37)"
       id="path2060" /><path
       style="fill:#d52222;stroke-width:0.0800098;stroke:none;fill-opacity:1"
       d="m 442.60156,375.36133 c 0.3723,0.34695 0.42506,1.08812 0.008,1.38672 -0.58018,-0.0413 -0.94837,-0.63791 -0.54102,-1.11914 0.12494,-0.15535 0.32938,-0.279 0.5332,-0.26758 z"
       transform="translate(-231.37)"
       id="path2058" /><path
       style="fill:#d52222;stroke-width:0.0800098;stroke:none;fill-opacity:1"
       d="m 394.05859,373.00781 c -1.28729,-0.0519 -2.04594,1.15205 -3.01562,1.79492 l -3.57227,2.90821 c -1.71135,-1.21458 -3.85706,-1.67377 -5.92773,-1.45508 -1.97606,0.13368 -3.86871,1.10608 -5.25195,2.50781 -4.11583,-1.82892 -8.2322,-3.65659 -12.34766,-5.48633 -0.64265,1.40432 -1.28404,2.80922 -1.92383,4.21485 1.39162,1.133 3.07375,1.76416 4.70117,2.46679 2.38979,1.09293 4.798,2.14396 7.19532,3.22071 -0.8269,3.72208 1.10668,7.8447 4.52734,9.55078 3.48511,1.8834 8.18483,1.00154 10.7207,-2.05274 1.07825,-1.31066 1.91064,-2.93448 2.03711,-4.63867 0.006,-1.32658 0.14153,-2.7015 -0.36719,-3.95898 -0.44077,-0.54645 0.18432,-0.79099 0.57032,-1.125 1.75144,-1.42541 3.5016,-2.853 5.2539,-4.27735 -0.009,-1.0547 -0.17407,-2.18998 -1.00976,-2.92578 -0.35622,-0.50976 -0.9562,-0.86517 -1.58985,-0.74414 z"
       transform="translate(-231.37)"
       id="path2056" /><path
       style="fill:#d52222;stroke-width:0.0800098;stroke:none;fill-opacity:1"
       d="m 361.72266,353.27734 c -2.7743,0.27842 -5.33383,2.19314 -6.20508,4.8711 -1.20186,3.24517 0.32273,7.22407 3.41992,8.79492 0.3322,0.28715 1.11399,0.22419 0.93555,0.82031 0.0137,1.45912 0.0264,2.91784 0.041,4.37695 1.63802,10e-6 3.27605,0 4.91406,0 0.0191,-1.58852 0.0351,-3.17708 0.0527,-4.76562 2.52909,-0.88721 4.4155,-3.27709 4.72461,-5.92969 0.0528,-1.33407 0.0412,-2.71346 -0.60742,-3.92187 -1.19952,-2.7917 -4.27376,-4.51067 -7.27539,-4.2461 z"
       transform="translate(-231.37)"
       id="path2054" /><path
       style="fill:#d52222;stroke-width:0.0800098;stroke:none;fill-opacity:1"
       d="m 472.28516,352.26953 c -1.58802,-0.0338 -3.12232,0.66393 -4.37696,1.58008 -1.00493,0.88772 -1.8555,1.95568 -2.27343,3.24414 -0.54594,1.577 -0.5182,3.36592 0.0293,4.9375 1.07196,3.01013 4.29205,5.08156 7.47852,4.72461 0.54431,0.0765 1.10308,-0.39982 1.4043,0.2793 0.4918,0.31899 0.51678,0.66371 0.13476,1.08007 -1.85411,3.22774 -1.32021,7.59152 1.25781,10.27539 1.97946,2.15288 5.07583,3.17159 7.95117,2.64063 2.60494,-0.45082 4.96395,-2.15304 6.19922,-4.49219 3.38747,-0.52491 6.26699,-3.2254 7.06055,-6.55273 0.46442,-2.05259 0.2872,-4.30104 -0.75,-6.16211 -1.80972,-3.76131 -6.58062,-5.6406 -10.49805,-4.28125 -1.52237,0.44147 -2.82421,1.39067 -3.85546,2.57812 -0.50095,0.43328 -0.91704,0.95514 -1.10352,1.60157 -0.71109,0.1198 -1.40652,0.33191 -2.06836,0.61718 -0.53962,-0.34532 -0.51602,-0.71135 -0.0879,-1.14843 1.68147,-2.83048 1.15261,-6.83203 -1.35742,-9.00977 -1.33551,-1.29214 -3.28725,-2.01237 -5.14453,-1.91211 z"
       transform="translate(-231.37)"
       id="path2052" /><path
       style="fill:#d52222;stroke-width:0.0800098;stroke:none;fill-opacity:1"
       d="m 336.70703,339.79688 c 0.0793,0.0333 0.15703,0.0663 0.23633,0.0996 0.64052,0.58706 -1.28953,-0.2037 -0.23633,-0.0996 z"
       transform="translate(-231.37)"
       id="path2050" /><path
       style="fill:#d52222;stroke-width:0.0800098;stroke:none;fill-opacity:1"
       d="m 422.80273,324.77539 c 0.0711,-0.0451 0.14538,-0.0121 0.19727,0.18359 -0.58885,0.78525 -0.41047,-0.0483 -0.19727,-0.18359 z"
       transform="translate(-231.37)"
       id="path2048" /><path
       style="fill:#d52222;stroke-width:0.0800098;stroke:none;fill-opacity:1"
       d="m 525.25195,315.40234 c -0.7937,-0.0356 -1.38962,0.58373 -1.62695,1.28711 -0.56596,0.68858 -0.8157,1.6851 -0.29688,2.47071 0.49949,1.0849 1.81046,1.29629 2.7129,1.93164 1.26407,0.69109 2.52694,1.38117 3.79101,2.07226 -1.25907,2.7846 -0.85229,6.17408 0.9375,8.63477 1.81078,2.5646 5.07776,3.96934 8.1875,3.53906 3.11904,-0.30653 5.93717,-2.51162 7.06836,-5.42383 0.69721,-1.50941 0.62779,-3.23331 0.49609,-4.84961 -0.54658,-2.91835 -2.61945,-5.53454 -5.42382,-6.57617 -1.65532,-0.70016 -3.53535,-0.74059 -5.27149,-0.37109 -0.95156,0.2474 -1.88597,0.60417 -2.70898,1.14843 -2.3456,-1.28338 -4.69204,-2.56525 -7.03711,-3.8496 -0.27606,-0.004 -0.552,-0.0208 -0.82813,-0.0137 z"
       transform="translate(-231.37)"
       id="path2046" /><path
       style="fill:#d52222;stroke-width:0.0800098;stroke:none;fill-opacity:1"
       d="m 307.85547,309.83203 c 0.10254,0.44154 0.25242,0.87085 0.43164,1.28711 -0.43605,-0.0709 -1.05166,0.35783 -0.66211,-0.33398 0.0997,-0.2888 0.18561,-0.82254 0.23047,-0.95313 z"
       transform="translate(-231.37)"
       id="path2044" /><path
       style="fill:#d52222;stroke-width:0.0800098;stroke:none;fill-opacity:1"
       d="m 364.57812,297.62695 c -0.95928,0.10544 -1.76453,0.75433 -2.67382,1.05664 -0.48047,0.27003 -1.45597,0.34575 -0.86524,1.03907 2.01091,4.76599 4.11317,9.49159 6.125,14.25781 1.42533,-0.64476 2.87799,-1.22464 4.33203,-1.80078 -0.5905,-2.73534 -1.97042,-5.1917 -3.00586,-7.76758 -0.94531,-2.10377 -1.73564,-4.29396 -2.85156,-6.31055 -0.28281,-0.28241 -0.64951,-0.50255 -1.06055,-0.47461 z"
       transform="translate(-231.37)"
       id="path2042" /><path
       style="fill:#d52222;stroke-width:0.0800098;stroke:none;fill-opacity:1"
       d="m 402.55859,293.85938 c -1.87303,0.0557 -3.66028,1.06607 -4.89843,2.42187 -3.2371,-0.44725 -6.564,1.65487 -7.63282,4.73047 -0.55056,1.43758 -0.5442,3.0861 -0.13867,4.55664 0.66826,2.38448 2.6379,4.29596 5.01758,4.94922 0.62172,0.15576 -0.074,0.89904 -0.55664,0.6543 -3.73035,0.2382 -7.08442,3.14902 -7.8418,6.80859 -0.67676,0.20222 -1.06836,-0.0303 -1.24414,-0.69141 -0.6798,-1.37269 -1.94041,-2.41602 -3.29883,-3.08398 -1.38552,-0.65326 -2.98108,-0.77743 -4.47656,-0.52344 -1.50113,0.33999 -2.93568,1.05899 -3.93555,2.25391 -1.1245,1.10824 -1.71518,2.68718 -1.89257,4.23633 -0.19171,2.33085 0.74706,4.72069 2.56054,6.21874 1.69397,1.49816 4.12237,1.96522 6.30274,1.52735 1.57514,-0.38208 3.03504,-1.23448 4.04101,-2.51953 0.63317,-0.65456 0.92426,-1.56422 1.29102,-2.38672 0.51819,-0.0177 1.16237,-0.24354 1.21094,0.49219 1.18852,2.81293 3.98783,4.78739 6.99804,5.1289 0.59635,-0.11509 0.25959,0.77185 0.47461,1.13281 0.25859,1.32351 0.92386,2.65344 1.66992,3.67579 -2.79205,1.15117 -4.67782,4.18285 -4.33984,7.17773 -0.0236,1.60155 0.78294,3.1255 1.7793,4.33789 0.52484,0.29674 0.48066,0.78318 0.43945,1.30078 -0.0108,2.46746 1.37794,4.93225 3.51953,6.14258 0.12594,0.48278 0.004,1.23765 0.0469,1.82227 v 15.51757 c 1.65364,4.5e-4 3.30729,-0.002 4.96093,-0.002 v -16.4043 c 3.3924,-0.50482 6.06789,-3.73654 6.00977,-7.15429 -10e-4,-1.71054 -0.60008,-3.46783 -1.76367,-4.73047 -0.42428,-0.28918 -0.6584,-0.65255 -0.52539,-1.16406 0.0922,-1.33491 -0.31871,-2.66245 -0.9375,-3.8125 2.10474,-0.49901 3.91691,-1.92666 5.11133,-3.69532 0.281,-0.46556 0.55019,-0.9409 0.75585,-1.44531 0.63086,-0.1804 0.83757,0.21459 1.00782,0.74024 0.57794,1.22336 1.59426,2.20214 2.69531,2.95898 1.46811,0.8669 3.20375,1.20757 4.89453,0.97266 3.27428,-0.40595 5.97008,-3.3386 6.1836,-6.61914 0.0224,-0.74405 0.0106,-1.50067 -0.16407,-2.22852 4.89199,-1.03615 9.78347,-2.07477 14.67578,-3.10937 0.39791,-0.27702 0.76274,-0.717 1.00977,-1.05665 1.22758,0.78013 2.65636,1.08238 4.07422,1.28516 2.61653,1.13151 5.23307,2.26302 7.84961,3.39453 0.34157,3.08014 2.42129,5.92556 5.32617,7.0586 0.33562,0.26246 1.11002,0.15798 0.91797,0.75976 -0.0651,0.51076 0.26133,1.29004 -0.47071,1.32031 -3.06404,1.02972 -5.38206,3.91808 -5.75976,7.11914 -0.0675,1.34221 -0.13256,2.71939 0.4043,3.98438 0.44257,1.2504 1.12975,2.42511 2.07617,3.36133 -2.37435,3.64323 -4.7487,7.28647 -7.12305,10.92968 -1.51622,-1.25911 -3.57149,-1.78722 -5.51758,-1.52343 -1.65215,0.18394 -3.19546,1.02559 -4.35351,2.19531 -1.40929,0.16119 -2.80541,0.75383 -3.87696,1.67773 -1.65772,1.40377 -2.69592,3.5727 -2.54101,5.75977 -0.0238,1.66749 0.66225,3.35315 1.7793,4.57617 0.36779,0.37038 0.73455,0.74369 1.14257,1.07031 -1.21276,0.66109 -2.24259,1.63492 -2.99804,2.78907 -0.68612,-2.46877 -2.59355,-4.61603 -5.10743,-5.28516 -2.38546,-0.74259 -5.16765,-0.0514 -6.96093,1.63477 -5.59327,-1.66639 -11.20476,-3.28854 -16.82422,-4.8711 -0.8663,-0.10998 -2.04466,0.0154 -2.28125,1.03321 -0.13296,0.96086 -0.4241,1.9008 -0.63281,2.85156 0.69896,0.033 0.38271,0.55308 0.23437,0.98242 -0.41396,0.89385 0.15591,2.06613 1.18555,2.10352 4.10406,1.25822 8.19116,2.60667 12.29101,3.89257 -1.74091,2.74877 -1.37597,6.71427 1.02735,8.95899 2.1492,2.32778 5.90986,2.83239 8.65039,1.2832 1.12626,-0.57368 2.0126,-1.54757 2.72265,-2.57617 0.22794,-0.34527 0.37386,-0.74454 0.53711,-1.11328 1.5397,-0.0466 3.07988,-0.0792 4.61914,-0.13867 0.87355,1.69077 2.2734,3.12427 3.99219,3.95703 -2.29799,3.46795 -1.58693,8.54303 1.58789,11.23633 0.68029,0.29072 0.22507,0.65185 -0.0781,1.0332 -1.44299,0.36121 -2.99255,0.92744 -4.00782,2.10156 -2.0362,1.87838 -2.63705,5.03083 -1.70117,7.60352 0.5323,1.61155 1.75822,2.93231 3.16993,3.82812 2.33787,1.34705 5.40344,1.28375 7.65234,-0.22461 0.76776,-0.50324 1.45335,-1.14279 1.96875,-1.90429 1.74792,-0.27913 3.40529,-1.19284 4.48828,-2.59961 1.44116,-1.69217 1.90814,-4.11906 1.40625,-6.26954 -0.30851,-1.16825 -0.82177,-2.32807 -1.70312,-3.17773 0.54343,-0.37667 0.99853,-0.91024 1.45312,-1.34961 1.26426,-0.0607 2.51014,-0.41847 3.61914,-1.02734 0.54328,1.54329 1.52338,2.93947 2.93555,3.80078 2.29702,1.52018 5.46541,1.54973 7.80273,0.0937 0.89561,-0.50343 1.54683,-1.35653 2.23047,-2.08789 0.8429,-1.47211 1.36637,-3.15437 1.16602,-4.86328 0.0273,-1.68306 0.075,-3.46043 -0.82618,-4.95703 -1.07824,-2.08663 -3.27063,-3.57209 -5.60546,-3.78125 -1.2899,-0.0483 -2.64378,-0.0266 -3.81055,0.58789 -1.29846,-3.13358 -4.56529,-5.31112 -7.95899,-5.26953 -0.35545,-0.13074 -0.99871,0.13853 -1.17773,-0.0605 0.0923,-1.4592 -0.1495,-2.92211 -0.76367,-4.25391 1.87022,0.0761 3.76788,-0.51747 5.15625,-1.79883 2.5149,-2.12185 3.21114,-6.03396 1.60937,-8.90234 -0.21499,-0.41223 -0.47121,-0.80503 -0.76953,-1.16211 3.86915,-4.35426 7.70885,-8.73901 11.56836,-13.10352 -0.44841,-0.4357 -0.89697,-0.87126 -1.3457,-1.30664 4.02034,-0.74872 7.20661,-4.68343 6.91601,-8.79492 0.006,-1.08955 -0.15167,-2.16443 -0.62695,-3.15429 -0.96769,-2.41664 -3.10798,-4.32833 -5.61133,-5.03321 0.13892,-0.53183 -0.30725,-1.49189 0.28711,-1.6914 2.6258,-0.8375 4.73505,-2.98981 5.57617,-5.60743 0.3069,-0.97969 0.50047,-2.02804 0.3418,-3.05273 3.64414,-2.18376 7.3483,-4.27889 10.9375,-6.54492 0.84361,-0.5295 1.24475,-1.77459 0.47461,-2.54492 -0.48953,-0.87838 -1.1226,-1.66907 -1.7832,-2.42774 -0.65455,0.37342 -1.33031,0.82242 -1.97266,1.14844 -0.46843,-0.70838 -1.42709,-0.76322 -2.11328,-0.36719 -1.48815,0.55002 -2.77231,1.52703 -4.19141,2.22656 -1.38794,0.77505 -2.77612,1.54917 -4.16406,2.32422 -1.35255,-1.21286 -3.1123,-2.04063 -4.92383,-2.1914 -1.4564,-0.0456 -2.95816,-0.0532 -4.30078,0.59961 -0.79505,0.31936 -1.53456,0.77409 -2.20117,1.31054 l -2.32227,-1.33008 c 1.20709,-3.26269 0.30571,-7.22628 -2.33007,-9.53515 -1.68655,-1.51257 -3.9747,-2.42725 -6.25391,-2.24219 -2.87654,-0.009 -5.63416,1.69668 -7.12891,4.12305 -0.99616,1.56941 -1.41699,3.45249 -1.23437,5.29883 -0.0941,0.32203 -0.75801,0.27942 -1.04883,0.50781 -4.99898,1.77403 -9.99887,3.60143 -14.99805,5.3418 -2.11617,-0.7688 -4.57255,-0.55578 -6.48047,0.66406 -0.86032,0.53932 -1.56357,1.32682 -2.16992,2.11914 -0.21652,0.51371 -0.52782,0.9816 -0.73437,1.5 -0.44716,-0.0466 -0.27747,-0.8875 -0.55078,-1.24024 -0.82524,-2.31272 -2.63521,-4.25064 -4.92383,-5.16211 -0.82817,-0.41304 -1.76094,-0.55117 -2.67578,-0.60937 -0.15926,-2.73336 -1.70518,-5.3082 -4.00586,-6.7793 0.48428,-1.02786 0.75786,-2.07512 1.24414,-3.06445 0.47802,-0.31228 0.90026,-0.74967 1.30859,-1.10938 2.3078,0.25093 4.78228,-0.65114 6.24414,-2.48632 0.98077,-0.85016 1.39037,-2.17752 1.68555,-3.40625 0.482,-2.61541 -0.52556,-5.46492 -2.67188,-7.07617 -1.4208,-1.1199 -3.25066,-1.68798 -5.05664,-1.5 z"
       transform="translate(-231.37)"
       id="path2040" /><path
       style="fill:#d52222;stroke-width:0.0800098;stroke:none;fill-opacity:1"
       d="m 485.23633,293.83594 c -1.15461,-0.0713 -2.2928,0.18615 -3.32813,0.70117 -0.41185,0.29601 -0.85105,0.2877 -1.33593,0.2207 -3.22844,-0.22643 -6.37091,2.03557 -7.25,5.13672 -0.85947,2.73375 0.0744,5.94338 2.35351,7.70899 1.13193,1.0249 2.69402,1.54654 4.20508,1.65234 0.0351,1.3028 0.006,2.60965 0.0156,3.91406 h 4.95704 c 0.0181,-1.59833 -0.009,-3.19665 0.004,-4.79492 2.78826,0.0735 5.53347,-1.55471 6.72852,-4.08789 1.04574,-2.10856 0.97459,-4.74244 -0.19532,-6.78516 -0.54151,-1.03247 -1.44118,-1.85133 -2.36523,-2.53125 -1.14343,-0.67549 -2.44166,-1.18094 -3.78906,-1.13476 z"
       transform="translate(-231.37)"
       id="path2038" /><path
       style="fill:#d52222;stroke-width:0.0800098;stroke:none;fill-opacity:1"
       d="m 293.01758,289.4668 c -2.9605,-0.031 -5.86034,1.85354 -6.86719,4.66797 -1.43761,3.42024 0.31503,7.78418 3.74805,9.2207 0.50665,0.27749 1.21937,0.43907 1.67383,0.58984 -0.8624,1.47361 -1.20619,3.18672 -1.07813,4.88086 -0.0498,1.50439 0.56597,2.92485 1.32617,4.18945 -2.77413,0.3058 -5.28348,2.08875 -6.61523,4.51954 -0.58651,1.09865 -0.90696,2.32397 -1.03125,3.55859 -0.4769,-0.22888 -1.10861,-0.187 -1.54297,-0.375 -0.99479,-1.6763 -2.66258,-2.94414 -4.57422,-3.375 -1.34876,-0.35316 -2.82318,-0.20821 -4.14648,0.19922 -2.86147,0.99603 -4.89313,3.90408 -4.83789,6.93555 -0.008,1.31146 0.41064,2.61284 1.08203,3.73242 -3.49469,1.49115 -7.0283,2.9145 -10.49805,4.44726 -0.88636,0.53991 -1.43526,1.76539 -0.75391,2.67774 0.41319,0.45467 -0.19621,0.56709 -0.49609,0.80273 -0.62499,0.28395 -1.09044,0.62256 -0.56445,1.28321 0.47081,1.1451 0.89249,2.30787 1.32226,3.46874 6.39722,-2.1768 12.79351,-4.35632 19.19336,-6.52539 2.80799,1.60309 6.70327,1.03425 8.83594,-1.42773 0.93628,-0.90124 1.49034,-2.13513 1.77734,-3.38672 1.21365,0.6181 2.58186,0.95144 3.94532,0.89844 0.27033,0.33111 0.79864,0.6038 0.14062,0.85156 -0.95499,0.84228 -1.73699,1.87089 -2.16602,3.08203 -1.08927,2.8562 -0.14794,6.35242 2.27149,8.24219 1.92586,1.50239 4.62232,2.02065 6.93555,1.17383 1.29808,0.47419 2.73333,0.51485 4.06836,0.18359 3.27994,3.52865 6.55989,7.05729 9.83984,10.58594 -2.00019,2.84327 -2.0204,6.89062 -0.0937,9.77539 0.63921,0.99563 1.49644,1.84637 2.48828,2.49023 -2.6485,1.7356 -4.2165,4.97012 -3.88086,8.12696 0.0592,0.95265 0.34801,1.89139 0.70508,2.77539 l -2.33399,2.0664 c -1.49657,-1.17074 -3.38889,-1.92167 -5.30664,-1.78125 -3.18502,-0.26448 -6.26936,1.72231 -7.77734,4.46485 -1.90492,3.31731 -1.25723,7.87712 1.55274,10.48633 0.62944,0.82065 1.77472,1.07749 2.2246,2.03906 0.36915,0.62777 1.018,1.10488 1.41993,1.64258 l 0.008,24.02929 c -3.4915,0.27731 -6.66262,2.89477 -7.56641,6.28907 -0.37348,1.28223 -0.4677,2.65582 -0.21484,3.9707 l -3.99609,1.21875 c -1.2122,-2.90919 -4.16047,-5.01996 -7.30665,-5.20117 -2.1055,-0.18833 -4.25806,0.40886 -5.95117,1.68164 -1.91409,1.36373 -3.18203,3.60352 -3.46875,5.92383 -0.0283,0.50576 -0.008,1.01361 0.01,1.51953 -11.92393,5.1855 -23.87697,10.30774 -35.77539,15.54883 -0.89869,0.37741 -1.30161,1.60146 -0.63086,2.36523 0.0897,0.43658 0.8103,1.11648 0.043,1.20508 -0.75872,0.30203 -1.31084,0.92319 -1.75,1.58984 1.97468,5.31004 3.94639,10.62118 5.91992,15.93164 -2.36143,1.62759 -3.95292,4.44456 -3.79492,7.34766 -0.12299,3.76179 2.64204,7.32677 6.24023,8.33008 v 10.08398 h 4.95899 V 488.4043 c 3.68338,-0.99453 6.34916,-4.65189 6.3125,-8.44532 0.014,-0.77941 -0.15825,-1.58604 -0.28907,-2.31836 l 13.07813,-20.8164 c 3.62984,0.84107 7.66109,-0.96596 9.45508,-4.23242 0.6186,-1.10016 1.00332,-2.33416 1.09961,-3.59375 l 24.98046,-10.81446 c 1.75719,-0.13064 3.49467,-0.74454 4.89063,-1.83007 1.25407,0.84238 2.80187,1.0841 4.18555,1.65625 5.34219,1.8593 10.68312,3.71903 16.02539,5.57812 0.35109,-1.35098 0.86572,-2.64729 1.53711,-3.87109 -1.45666,-1.67119 -3.56535,-2.47491 -5.39649,-3.63672 -3.6572,-2.08171 -7.25022,-4.29037 -10.95898,-6.26953 -0.62826,-0.32791 -1.49208,-0.49744 -2.0293,0.0898 0.14405,-2.50252 -0.81427,-5.06014 -2.64844,-6.7832 v -24.58008 c 3.72466,-0.49642 6.91898,-3.62755 7.38868,-7.37109 0.20845,-1.60384 0.0547,-3.2745 -0.60547,-4.76368 1.83808,-1.15862 3.59489,-2.50014 5.49609,-3.52539 1.43905,-0.15136 2.82848,-0.69041 4.01367,-1.51562 1.53656,1.52898 3.66109,2.1623 5.50781,3.21094 1.31907,0.66501 2.63796,1.32912 3.95704,1.99414 -0.14344,3.37231 1.94435,6.71518 5.02734,8.08398 -2.15089,1.29872 -3.62199,3.74931 -3.51172,6.28906 -0.0684,1.7943 0.6723,3.61076 1.89063,4.91407 0.55788,0.57779 1.1738,1.0664 1.84961,1.48828 1.03284,1.06294 2.32639,1.88508 3.79492,2.17382 2.53818,0.57872 5.3673,-0.29178 7.05468,-2.29687 1.32873,-1.48985 1.96957,-3.55397 1.74805,-5.53906 -0.17382,-2.34154 -1.65022,-4.49243 -3.68359,-5.63477 -0.53416,-0.45105 -1.13186,-1.06077 -1.64258,-1.40234 2.7538,-1.30113 4.78493,-4.13393 4.93945,-7.19141 -0.01,-0.87611 0.0797,-1.76552 -0.12304,-2.62695 2.55016,-1.54783 5.20137,-2.94558 7.66992,-4.61719 0.8831,-0.67255 0.81099,-2.02534 0.006,-2.72656 -0.3432,-0.70785 -0.79977,-1.37215 -1.51953,-1.74024 -2.49322,0.86575 -4.62398,2.48811 -6.92774,3.73829 -0.55264,0.3249 -1.10361,0.6497 -1.65625,0.9746 -1.6515,-1.62146 -3.96667,-2.58971 -6.28906,-2.48437 -2.79269,-0.0375 -5.55489,1.44671 -7.10547,3.76367 -2.54364,-1.25633 -5.07189,-2.56331 -7.60938,-3.83984 -0.81979,0.24285 -0.0947,-0.56448 -0.0625,-0.95703 1.16495,-3.4151 -0.0204,-7.4645 -2.88281,-9.67578 -0.4656,-0.26315 -0.79491,-0.4931 -0.11914,-0.75586 2.95674,-2.19963 4.21393,-6.35325 2.97266,-9.82227 -0.21325,-0.65498 -0.51773,-1.27565 -0.86524,-1.86914 1.13496,-1.15708 2.22247,-2.41493 3.38672,-3.50977 1.62919,-0.24352 3.23158,-0.98344 4.3086,-2.2539 1.20112,-1.11791 1.79129,-2.75987 1.93945,-4.36524 0.38585,-0.32058 0.71151,-1.12818 1.18164,-0.51562 1.48926,0.96083 3.25449,1.63222 5.05078,1.45508 1.57462,0.11492 3.10567,-0.38157 4.44531,-1.18164 2.31853,-1.37073 3.95472,-3.88082 4.20118,-6.57618 0.16181,-1.30955 -0.008,-2.65242 -0.45899,-3.89062 3.08755,0.003 6.25001,-0.005 9.29102,0.004 -0.76993,0.34256 -1.27171,1.11237 -1.96289,1.60156 -0.46712,0.40572 -1.21412,0.78575 -0.42774,1.29883 1.05328,1.29294 2.10508,2.58583 3.15821,3.8789 -0.8698,1.21632 -1.46672,2.69914 -1.33985,4.21289 -0.23154,2.36779 1.10845,4.59453 2.91406,6.02735 1.39094,0.89682 3.03828,1.44781 4.70703,1.3164 1.56183,-0.0519 3.11049,-0.70486 4.30469,-1.69922 0.86798,-0.78966 1.62672,-1.70168 2.01563,-2.82421 0.68271,-1.5679 0.61208,-3.36512 0.20117,-4.99219 -0.88786,-2.68549 -3.45212,-4.82985 -6.31445,-4.9375 -0.77032,0.0168 -1.55539,-0.0849 -2.31055,0.11328 -1.06292,-1.24193 -1.99765,-2.64359 -3.19727,-3.73828 -0.34168,-0.28508 -1.24801,-0.0879 -1.16211,-0.62891 v -4.59375 h -14.33007 c -1.99256,-0.99974 -4.38268,-1.08677 -6.4961,-0.44726 -2.94783,0.94526 -5.30827,3.50694 -5.90039,6.55859 -10e-4,0.75778 -0.89973,0.96408 -1.35742,1.44336 -0.46803,0.29233 -0.8734,0.94676 -1.45898,0.53516 -2.64411,-0.7501 -5.68683,0.0984 -7.46094,2.2246 -1.62659,1.72517 -2.15013,4.31781 -1.58594,6.59376 0.40336,1.50092 1.29375,2.91236 2.5332,3.86523 -0.55729,0.58268 -1.11458,1.16536 -1.67187,1.74805 -0.79776,-0.35804 -1.64773,-0.61336 -2.51758,-0.71485 -4.26107,-4.33659 -8.52213,-8.67317 -12.7832,-13.00976 0.10113,-1.32054 0.0719,-2.6842 -0.54883,-3.88672 -0.57584,-1.33698 -1.62156,-2.45884 -2.84766,-3.22461 -0.52463,-0.18927 -0.64387,-0.38248 -0.17187,-0.74414 2.83209,-3.338 2.58517,-8.90418 -0.73242,-11.83008 -0.72587,-0.77517 -1.62297,-1.38239 -2.60547,-1.7832 1.58545,-0.67601 2.98686,-1.83745 3.90625,-3.30274 0.0583,1.02666 0.009,2.06041 0.0254,3.08985 4.16861,0.005 8.33733,-0.0173 12.50586,0.0156 0.86449,3.06147 3.53822,5.44807 6.63672,6.08985 1.294,0.19929 2.54741,0.1639 3.80664,-0.0684 3.46342,-0.80234 6.26717,-3.8737 6.66015,-7.42188 0.29125,-2.21585 -0.31229,-4.53519 -1.64453,-6.33008 1.63426,-2.48145 3.27254,-4.96027 4.9043,-7.44336 0.13572,-0.94524 -0.0243,-2.19269 -1.08399,-2.51758 -0.83242,-0.68358 -2.20043,-1.01993 -3.0664,-0.2207 -1.63696,2.34431 -3.1595,4.78492 -4.75586,7.16406 -2.81047,-1.06793 -6.15946,-0.54349 -8.50586,1.3379 -0.61082,-3.06343 -3.39517,-5.49304 -6.50781,-5.70313 -2.24754,-0.18524 -4.59389,0.70274 -6.03125,2.46875 -0.90443,0.7743 -1.28482,1.9683 -1.63868,3.07031 -0.081,0.20456 -0.22701,-0.92507 -0.39453,-1.1875 -0.35598,-0.97167 -0.85868,-1.89256 -1.51171,-2.69726 1.08541,-2.71398 0.3379,-6.0743 -1.87891,-8.00391 -1.33031,-1.25443 -3.21185,-2.00549 -5.04883,-1.85937 -1.26727,-2.0584 -3.64698,-3.29122 -6.03906,-3.35547 z"
       transform="translate(-231.37)"
       id="path2036" /><path
       style="fill:#d52222;stroke-width:0.0800098;stroke:none;fill-opacity:1"
       d="m 525.18555,286.02734 c -0.93981,0.17467 -1.88575,0.12775 -2.82227,0.0156 -3.58813,-0.12144 -7.09349,2.19947 -8.35547,5.56445 -1.34584,3.34779 -0.37048,7.45727 2.37696,9.8086 0.45393,0.41529 0.96106,0.77241 1.50585,1.05859 -1.5e-4,4.29881 0.0113,8.60809 0.004,12.90039 -0.92736,-0.17151 -1.73986,0.50229 -2.61523,0.70703 -3.01473,1.07822 -6.04494,2.24505 -9.05078,3.26758 -2.93693,-2.40775 -7.44043,-2.59595 -10.54102,-0.38477 -0.43528,0.49504 -1.01588,-0.16587 -1.52539,-0.24218 -2.94917,-1.1524 -5.90077,-2.3038 -8.84961,-3.45704 -0.90486,0.28292 -2.05542,0.68641 -2.14453,1.79493 -0.30469,0.6546 -0.79143,1.83202 0.041,2.40429 1.15597,1.09538 2.81228,1.31976 4.20899,1.98633 1.64442,0.65166 3.3334,1.28143 4.94922,1.94727 -0.98766,2.9824 -0.26635,6.45307 1.88281,8.75586 0.71033,0.76118 1.5702,1.37796 2.49219,1.85742 -2.97143,1.84122 -4.19353,5.97569 -2.65625,9.125 1.31477,3.07355 4.94283,4.86615 8.18554,4.08008 3.36004,-0.66026 5.88883,-3.97798 5.69727,-7.38477 -0.0678,-2.32453 -1.34126,-4.58509 -3.32031,-5.81641 3.09385,-1.50333 5.09665,-4.98224 4.78515,-8.41601 -0.0174,-0.66374 -0.12533,-1.32626 -0.33398,-1.95703 3.26747,-1.21481 6.58739,-2.34312 9.82227,-3.61133 0.69671,-0.52401 1.42477,-1.40247 0.95312,-2.3125 -0.34016,-0.75588 -0.50285,-1.74823 -1.39648,-2.06836 h 4.3789 v -2.48047 h 3.04102 v -9.60351 c 3.35844,-0.17143 6.49802,-2.47332 7.63281,-5.64453 0.69385,-1.48641 0.47806,-3.16006 0.44141,-4.74805 -0.66123,-3.23451 -3.18378,-6.0536 -6.42188,-6.8418 -0.76813,-0.17515 -1.57634,-0.30128 -2.36523,-0.30469 z"
       transform="translate(-231.37)"
       id="path2034" /><path
       style="fill:#d52222;stroke-width:0.0800098;stroke:none;fill-opacity:1"
       d="m 331.80859,276.51953 -0.0976,0.002 c -3.57564,0.18743 -6.68688,3.42554 -6.65625,7.02149 -0.0933,1.78399 0.58674,3.57405 1.70898,4.9375 1.44927,1.64777 3.63098,2.72201 5.85352,2.47461 0.4734,0.0341 1.14835,-0.20009 1.2832,0.41601 0.51016,0.92772 1.01733,1.85648 1.5293,2.78321 1.35455,0.25082 2.98531,-0.1055 3.76562,-1.31836 0.46923,-0.78366 0.42104,-1.78937 -0.15625,-2.50391 l -1.09375,-1.97656 c 1.9434,-2.29767 2.16178,-5.81515 0.58789,-8.36524 -1.33663,-2.32146 -4.06218,-3.70702 -6.72461,-3.4707 z"
       transform="translate(-231.37)"
       id="path2032" /><path
       style="fill:#d52222;stroke-width:0.0800098;stroke:none;fill-opacity:1"
       d="m 368.27148,276.51758 c -1.58652,0.0107 -3.14369,0.70279 -4.35351,1.69531 -1.64832,1.46083 -2.73096,3.65419 -2.45703,5.88672 -0.0508,0.77268 0.0299,1.5216 0.38672,2.2207 1.08796,2.93671 4.23112,5.01524 7.37109,4.64844 3.68372,-0.11573 6.87624,-3.57729 6.67578,-7.26367 0.0763,-1.7714 -0.67232,-3.52916 -1.83008,-4.84375 -0.80662,-0.93316 -1.88506,-1.55184 -3.02929,-1.98828 -0.86605,-0.35712 -1.8397,-0.3689 -2.76368,-0.35547 z"
       transform="translate(-231.37)"
       id="path1504" /></g><g
     id="pink"><path
       style="fill:#000000;stroke-width:0.0800087"
       d="m -130.4668,608.28711 c -5.25418,0.46031 -9.80289,5.23823 -9.77171,10.55648 -0.0926,2.0295 0.37506,4.07597 1.43862,5.81396 2.44019,4.46945 8.28703,6.64881 13.06365,4.88801 4.55316,-1.50245 7.75643,-6.28981 7.3434,-11.07897 -0.23613,-5.40473 -5.08643,-10.19964 -10.5298,-10.19935 -0.51518,-0.016 -1.02936,-1.5e-4 -1.54416,0.0199 z"
       id="path2767" /><path
       style="fill:#000000;stroke-width:0.0800087"
       d="m -202.47852,605.55273 c -5.00771,0.29433 -9.53589,4.41718 -10.1166,9.43283 -0.66396,4.47698 1.7347,9.23977 5.8041,11.26639 3.90865,2.0331 9.02978,1.45838 12.30035,-1.5308 3.78697,-3.26101 4.85761,-9.26394 2.28944,-13.58191 -1.95683,-3.52294 -5.9557,-5.78994 -9.99094,-5.58996 -0.0954,0.001 -0.1909,0.002 -0.28635,0.003 z"
       id="path2765" /><path
       style="fill:#000000;stroke-width:0.0800087"
       d="m 8.1679688,570.875 c -2.6424768,2.40752 -4.4465143,5.52717 -6.5799651,8.35717 -0.4222533,0.38463 -0.579115,1.25916 -1.20217092,1.27311 -5.11451598,0.25604 -9.65784488,4.58458 -10.15711368,9.68477 -0.6411631,5.03504 2.7096224,10.26739 7.5994059,11.69862 2.21646326,0.71381 4.6648326,0.67557 6.8613281,-0.0937 0.7564786,1.03518 1.5132476,2.07015 2.2695313,3.10547 1.8534472,0.61122 4.0642976,0.38588 5.5161846,-1.0064 1.882576,-1.48016 1.866798,-4.54225 0.222806,-6.19773 -0.489168,-0.66568 -0.978337,-1.33136 -1.467506,-1.99704 1.654229,-3.88168 0.825295,-8.71147 -2.1152346,-11.75781 1.6141016,-2.36161 3.5375126,-4.55298 4.7714846,-7.14649 0.586275,-1.74171 -0.359168,-3.84309 -2.095431,-4.49025 -1.02013,-0.66157 -2.0309491,-1.33728 -3.0451942,-2.00779 -0.1927084,0.1927 -0.3854167,0.38541 -0.578125,0.57812 z"
       id="path2763" /><path
       style="fill:#000000;stroke-width:0.0800087"
       d="m -161.73438,563.04297 c -4.4534,0.0527 -8.66471,3.11556 -10.08755,7.33663 -1.51397,4.17806 -0.15056,9.20818 3.3137,12.00792 3.22102,2.79395 8.12565,3.38053 11.91254,1.41632 3.74087,-1.84811 6.27837,-5.95059 6.0637,-10.14599 -0.0523,-5.22925 -4.41177,-10.00278 -9.6157,-10.53413 -0.52521,-0.0757 -1.05659,-0.0985 -1.58669,-0.0808 z"
       id="path2761" /><path
       style="fill:#000000;stroke-width:0.0800087"
       d="m -67.789062,559.96094 c -3.582008,-0.17513 -7.104368,1.6994 -9.135137,4.62257 -3.017412,4.08939 -2.529533,10.2882 1.076015,13.8653 0.993571,1.03802 2.182191,1.89673 3.502481,2.46916 -0.890126,3.69474 0.309284,7.79074 3.079786,10.39907 3.266768,3.23948 8.648402,3.98625 12.689745,1.80405 3.667507,-1.93321 6.100548,-6.03784 5.846667,-10.20144 -0.145151,-4.07147 -2.812273,-7.91002 -6.53612,-9.53684 0.99146,-4.16642 -0.729318,-8.82256 -4.200634,-11.34053 -1.824859,-1.32556 -4.049056,-2.15023 -6.322803,-2.08134 z"
       id="path2759" /><path
       style="fill:#000000;stroke-width:0.0800087"
       d="m -114.21094,556.87695 c -1.40823,1.34901 -2.82211,2.69489 -4.23242,4.04297 -2.55157,-1.16953 -5.57425,-1.28052 -8.22986,-0.40519 -1.31277,0.45932 -2.53685,1.18495 -3.55725,2.13175 -4.29228,-1.16941 -8.58489,-2.3376 -12.87695,-3.50781 -0.94091,3.36566 -1.87889,6.73214 -2.82031,10.09766 1.96736,-0.0807 3.99187,-0.63904 5.93359,-0.0957 1.97539,0.61066 3.98795,1.10336 5.98047,1.65821 -0.0468,4.69508 3.21979,9.24113 7.75563,10.55123 4.9638,1.62937 10.89539,-0.93475 13.07001,-5.69647 1.2186,-2.48406 1.43465,-5.43839 0.60014,-8.07547 1.39814,-1.31833 2.78719,-2.64623 4.17578,-3.9746 0.22885,-1.79226 0.16054,-3.99734 -1.46051,-5.15156 -0.98975,-1.16522 -2.47818,-1.7684 -3.97504,-1.92462 -0.12109,0.11654 -0.24218,0.23308 -0.36328,0.34961 z"
       id="path2757" /><path
       style="fill:#000000;stroke-width:0.0800087"
       d="m 40.609375,544.20508 c -4.82783,0.0851 -9.303309,3.76618 -10.307065,8.49179 -0.38031,1.62649 -0.389327,3.34618 -0.0074,4.96915 -4.435948,1.93327 -7.327312,7.01654 -6.423013,11.81934 0.736171,4.86474 5.10994,8.92827 10.050443,9.16044 4.283852,0.33861 8.628869,-2.09923 10.533654,-5.96026 1.168696,-2.28553 1.485821,-4.98803 0.905322,-7.48632 4.149689,-1.76584 6.931083,-6.28522 6.535719,-10.79258 -0.239934,-4.02197 -2.89689,-7.75385 -6.606389,-9.31699 -1.47106,-0.63388 -3.081257,-0.9291 -4.681283,-0.88457 z"
       id="path2755" /><path
       style="fill:#000000;stroke-width:0.0800087"
       d="m -17.898438,542.47656 c -4.856195,-0.0558 -9.373644,3.68318 -10.412096,8.39819 -0.329434,1.36166 -0.394632,2.7856 -0.191419,4.17213 -0.864778,0.5915 -0.955301,1.7587 -1.492348,2.59945 -1.35872,2.85567 -2.697616,5.71412 -4.070152,8.54898 -4.574556,-0.01 -8.911176,3.17922 -10.305133,7.52968 -1.414012,4.20682 0.03319,9.1936 3.527556,11.94756 2.646038,2.16487 6.347028,2.96204 9.650624,2.08331 1.678431,2.0885 3.356481,4.17732 5.035156,6.26562 1.838855,0.0976 3.907875,-0.13924 5.212111,-1.58476 1.641856,-1.06912 2.268561,-3.64824 0.802928,-5.12398 -1.394973,-1.66898 -2.744701,-3.37486 -4.106836,-5.07055 2.14132,-3.96955 1.474251,-9.26469 -1.660156,-12.52539 1.046224,-2.20573 2.092448,-4.41146 3.138672,-6.61719 3.690055,1.98325 8.53017,1.57287 11.814453,-1.03711 2.9265086,3.70365 8.3869307,5.11389 12.7205896,3.20617 4.006694,-1.66438 6.8666042,-5.84877 6.7257973,-10.22019 0.014073,-4.43795 -2.9755017,-8.66075 -7.1404532,-10.1718 -3.4749407,-1.2876 -7.6003153,-0.67909 -10.5188245,1.61746 -2.0932772,-2.56668 -5.3932872,-4.19347 -8.7304692,-4.01758 z"
       id="path2753" /><path
       style="fill:#000000;stroke-width:0.0800087"
       d="m -24.791016,489.55469 c -4.639495,0.24798 -8.814219,3.87451 -9.815483,8.39627 -0.372996,1.51556 -0.37617,3.10971 -0.09663,4.64084 -0.977608,0.47545 -1.972067,1.08837 -2.939453,1.48047 -3.075224,-2.52 -7.560491,-3.15185 -11.203125,-1.54688 0.03456,-2.05632 -0.564108,-4.09289 -1.726118,-5.79078 -2.557807,-4.02165 -7.923805,-5.9831 -12.458955,-4.46609 -4.303134,1.32009 -7.557036,5.49732 -7.675711,10.0133 -0.233936,4.49469 2.620127,8.95737 6.823307,10.59125 2.657851,1.11515 5.766387,1.08355 8.412477,-0.0508 -0.01526,4.35232 2.936399,8.45712 6.983484,9.98674 1.119231,0.43633 2.308978,0.69937 3.510657,0.74177 -4.888883,1.05897 -8.690314,5.81652 -8.529297,10.83789 0.03134,4.73272 3.440925,9.2391 8.042968,10.4336 4.626723,1.31593 10.014814,-0.80294 12.374241,-5.02609 2.363574,-3.94874 1.883877,-9.38499 -1.240671,-12.79074 -1.952727,-2.25434 -4.92534,-3.65062 -7.875757,-3.69685 4.640188,-0.95382 8.364816,-5.2144 8.607054,-9.95932 0.09137,-0.44776 -0.08221,-1.02873 0.09877,-1.38776 1.327293,-0.68926 2.646381,-1.39318 3.983633,-2.06307 3.67855,2.21244 8.70168,1.99014 12.109375,-0.64844 0.429304,0.35316 1.110212,0.56036 1.380031,0.98566 -0.701233,4.87841 2.316844,10.03993 6.9855939,11.69557 3.6665359,1.40992 8.06641906,0.68044 11.0196914,-1.93351 3.6839463,-3.04357 4.9085121,-8.64227 2.8022103,-12.93614 -1.7676423,-3.78898 -5.8091309,-6.45663 -10.0277465,-6.31574 -2.1507609,0.001 -4.3102137,0.63775 -6.0679831,1.88307 -0.570313,-0.36459 -1.140625,-0.72917 -1.710938,-1.09375 0.544503,-4.87389 -2.638081,-9.86461 -7.2914,-11.42207 -1.426054,-0.57452 -2.963014,-0.5833 -4.474225,-0.5584 z"
       id="path2751" /><path
       style="fill:#000000;stroke-width:0.0800087"
       d="m 17.835938,472.09766 c -4.068656,0.16914 -7.808646,2.92968 -9.3417671,6.67309 -1.7563842,3.93277 -0.7980973,8.83722 2.2450931,11.86925 0.02701,0.30835 -0.8297385,0.5048 -1.1005921,0.81703 -3.6873899,2.53609 -5.576805,7.44977 -4.346842,11.78112 1.0642393,4.04682 4.5642591,7.36312 8.7226581,8.0237 2.144886,0.36789 4.397843,0.0847 6.380043,-0.81654 -0.981762,4.61568 1.421774,9.68161 5.611584,11.84966 4.313241,2.31792 10.165279,1.33077 13.34198,-2.44388 3.31058,-3.64162 3.688394,-9.6001 0.736887,-13.56701 -2.404671,-3.43349 -6.865618,-5.3039 -10.991321,-4.44639 -0.848209,0.1565 -1.673961,0.4257 -2.460849,0.77754 0.726669,-3.52715 -0.41824,-7.3677 -3.003906,-9.88476 3.847979,-1.96271 6.312509,-6.35292 5.853516,-10.66797 -0.322772,-5.4838 -5.42955,-10.18723 -10.931641,-9.99609 -0.238281,0.0104 -0.476562,0.0208 -0.714843,0.0312 z"
       id="path2749" /><path
       style="fill:#000000;stroke-width:0.0800087"
       d="m -67.369141,452.36914 c -5.35972,0.12123 -10.139666,4.81783 -10.365268,10.17376 -0.340431,4.19396 2.003844,8.42924 5.715295,10.39764 3.598389,1.98722 8.296199,1.69011 11.607219,-0.75158 3.391486,-2.39388 5.171284,-6.80923 4.384745,-10.88667 -0.837272,-4.71684 -5.065798,-8.62224 -9.875194,-8.92143 -0.488741,-0.0348 -0.977454,-0.0356 -1.466797,-0.0117 z"
       id="path2747" /><path
       style="fill:#000000;stroke-width:0.0800087"
       d="m 5.1484375,443.60742 c -4.0966368,-0.13794 -7.9965273,2.53079 -9.7818113,6.15056 -1.9649026,3.91145 -1.1754133,8.92788 1.7726621,12.13637 2.94779126,3.3921 8.0898448,4.50726 12.218884,2.79026 3.9947207,-1.54387 6.7486947,-5.6387 6.8410317,-9.89708 0.209535,-4.84149 -3.266834,-9.47609 -7.9023641,-10.79043 -1.017939,-0.29992 -2.0878393,-0.43452 -3.1484024,-0.38968 z"
       id="path2745" /><path
       style="fill:#000000;stroke-width:0.0800087"
       d="m 560.54688,440.9668 c -2.4105,3.29207 -4.82027,6.58467 -7.23047,9.87695 -3.39625,-1.04754 -7.28333,-0.51256 -10.1836,1.57813 -0.99294,0.69236 -1.88429,1.5333 -2.61719,2.49804 -3.40034,-0.45477 -6.80106,-0.90673 -10.20117,-1.36328 -1.54773,1.05484 -2.93046,2.69937 -2.86523,4.67188 -0.16463,0.83377 0.0209,1.69269 -0.32354,2.49342 -0.3211,1.39073 -0.54799,3.08416 0.5794,4.18822 0.87893,0.94163 2.22226,1.24697 3.46215,1.15158 2.72915,0.33047 5.41637,0.69391 8.13941,1.06521 1.73133,3.54943 5.35946,6.16113 9.31836,6.48438 0.84911,3.6061 1.53702,7.26858 2.4668,10.85547 0.0685,0.47371 0.79213,0.79983 0.64372,1.20447 -1.67979,3.00865 -3.32248,6.1049 -5.02458,9.0592 -4.60067,-1.13809 -9.79695,0.84644 -12.39449,4.8299 -0.25854,0.56482 -0.60273,0.87047 -1.24449,0.59981 -0.8051,-0.0533 -1.67223,-0.32004 -2.43987,-0.24469 -1.53459,1.10268 -2.70098,2.83972 -2.72007,4.77395 -0.45063,1.97214 1.0967,4.19344 3.18412,4.18651 0.51181,0.14052 1.21483,0.0675 1.60907,0.33792 1.32697,4.98441 6.28186,8.82869 11.48815,8.54023 0.43613,0.0925 1.16001,-0.33661 1.2445,0.30147 0.88269,2.07457 1.76538,4.14915 2.64808,6.22373 -2.19085,3.32493 -2.52835,7.81211 -0.76758,11.39648 -0.40428,0.64412 -0.78609,1.29864 -1.17969,1.94922 -3.74599,-1.10851 -8.04451,-0.26519 -10.96336,2.37349 -2.59888,2.21666 -4.1839,5.6106 -4.01472,9.04387 -0.0873,4.71984 3.21035,9.17881 7.6148,10.75647 0.32763,6.41528 0.60332,12.83618 0.91992,19.25 0.30153,1.9285 2.46244,3.06801 4.28164,2.65229 1.62487,-6.2e-4 3.24974,-0.002 4.87461,-0.002 -0.48617,-7.41001 -0.79583,-14.82986 -1.16797,-22.2461 4.31153,-1.95786 7.20928,-6.71906 6.7628,-11.4645 -0.0811,-1.62593 -0.56127,-3.22366 -1.34287,-4.64878 0.33426,-0.5281 0.6432,-1.11443 0.98437,-1.61132 2.76501,0.899 5.89548,0.79816 8.55664,-0.39844 2.2224,-1.00697 4.12047,-2.71667 5.3418,-4.83008 0.4603,0.0715 0.92881,0.15554 1.39453,0.0859 2.09689,4.52289 7.31738,7.37336 12.25781,6.54101 1.11511,-0.16879 2.20949,-0.48434 3.23438,-0.95703 4.83278,4.70303 9.66476,9.40687 14.49804,14.10938 2.09968,-2.09955 4.20113,-4.19732 6.30079,-6.29688 -4.92034,-4.78994 -9.83978,-9.5808 -14.75977,-14.37109 1.00759,-2.82515 0.93188,-6.07114 -0.29949,-8.81459 -1.81979,-4.0604 -6.071,-6.9418 -10.55016,-6.91501 -4.44097,-0.0818 -8.78755,2.60385 -10.65106,6.64569 -0.21644,0.50479 -0.3772,0.99145 -0.52115,0.18575 -1.69052,-4.69603 -6.60475,-8.13649 -11.64356,-7.69265 -0.55234,0.0143 -1.10372,0.0633 -1.64903,0.15331 -0.82422,-1.93034 -1.64844,-3.86068 -2.47266,-5.79102 2.99863,-3.68087 3.42146,-9.29171 0.8418,-13.30664 1.85662,-3.36206 3.71453,-6.72341 5.57031,-10.08594 -1.60942,-1.39974 -3.54917,-2.57825 -5.34375,-3.55859 1.23867,-0.006 2.39235,-0.54936 3.61036,-0.73262 1.89748,-0.43257 3.79787,-0.8537 5.69628,-1.283 -1.35838,-1.23379 -2.707,-2.47913 -4.14648,-3.61914 -0.71615,-3.2474 -1.4323,-6.4948 -2.14844,-9.74219 4.19293,-3.34525 5.58905,-9.7719 2.94336,-14.48242 2.07939,-2.90562 4.31884,-5.71002 6.25109,-8.71268 0.84198,-1.77885 0.21087,-4.23676 -1.65529,-5.07903 -1.21962,-0.84903 -2.39392,-1.76033 -3.61143,-2.61259 -0.19531,0.26627 -0.39062,0.53255 -0.58593,0.79883 z"
       id="path2743" /><path
       style="fill:#000000;stroke-width:0.0800087"
       d="m -41.470703,439.75977 c -4.99353,0.20513 -9.621704,4.17486 -10.332706,9.16781 -0.787622,4.47565 1.514646,9.33134 5.569034,11.4357 4.000512,2.22537 9.395805,1.60378 12.691046,-1.61193 3.254259,-2.96842 4.437698,-7.9938 2.720229,-12.07189 -1.507959,-3.8895 -5.39774,-6.67253 -9.557809,-6.8968 -0.362339,-0.0313 -0.726421,-0.0423 -1.089794,-0.0229 z"
       id="path2741" /><path
       style="fill:#000000;stroke-width:0.0800087"
       d="m 220.97656,437.75781 c -5.23503,0.19313 -9.9028,4.6934 -10.27252,9.92274 -0.51717,4.67658 2.38404,9.49382 6.79598,11.16164 3.60475,1.48857 7.99656,0.90948 10.99356,-1.62391 3.22357,-2.61248 4.83072,-7.11198 3.76423,-11.15383 -1.09866,-4.55344 -5.36946,-8.15698 -10.07871,-8.30582 -0.4,-0.0277 -0.80224,-0.0163 -1.20254,-8.2e-4 z"
       id="path2739" /><path
       style="fill:#000000;stroke-width:0.0800087"
       d="m 100.09961,431.07422 c -4.972976,-0.17399 -9.661156,3.7309 -10.593783,8.58595 -0.752739,3.40329 0.221661,7.12652 2.605501,9.68163 2.800834,3.12422 7.471695,4.42065 11.458502,3.05265 4.20395,-1.31367 7.37555,-5.36462 7.57458,-9.77574 0.28024,-3.93583 -1.79443,-7.87964 -5.14147,-9.94869 -1.74576,-1.10996 -3.8294,-1.71862 -5.90333,-1.5958 z"
       id="path2737" /><path
       style="fill:#000000;stroke-width:0.0800087"
       d="m 181.11914,425.4043 c -5.43719,0.121 -10.2209,4.95443 -10.40404,10.36959 -0.30479,4.90893 3.1076,9.78435 7.86941,11.0873 4.51766,1.35322 9.81057,-0.56352 12.30697,-4.5921 2.47533,-3.8006 2.29166,-9.15978 -0.60388,-12.68938 -2.15682,-2.74377 -5.66841,-4.40328 -9.16846,-4.17541 z"
       id="path2735" /><path
       style="fill:#000000;stroke-width:0.0800087"
       d="m 75.580078,421.15234 c -4.931905,0.15299 -9.420228,4.08007 -10.242436,8.94421 -0.748553,3.88289 0.79618,8.09509 3.910993,10.54312 3.692082,3.0651 9.454151,3.23054 13.28348,0.32119 3.038491,-2.18699 4.85523,-5.97847 4.505105,-9.72494 -0.324499,-4.29189 -3.378445,-8.23985 -7.492761,-9.55036 -1.268634,-0.43907 -2.628407,-0.56675 -3.964381,-0.53322 z"
       id="path2733" /><path
       style="fill:#000000;stroke-width:0.0800087"
       d="m 449.10156,403.19336 c 1.65495,-5.9e-4 3.3099,-0.002 4.96485,-0.002 0.32168,1.33478 1.32807,2.35638 1.95869,3.54985 0.50462,0.80525 0.98405,1.62593 1.47685,2.43843 -2.6185,3.57613 -3.00122,8.66962 -0.86523,12.5664 -4.48733,-0.21288 -8.95963,2.36716 -10.99024,6.38086 -0.50793,0.1392 -0.83361,-0.0197 -0.98003,-0.52545 -2.18595,-3.76558 -6.56641,-6.19541 -10.93749,-5.80605 -0.56011,0.004 -1.11788,0.0647 -1.67037,0.15377 -1.58183,-2.15241 -2.99689,-4.46002 -4.84651,-6.39343 -0.43177,-0.31126 0.72363,-0.0372 1.02164,-0.14256 0.93471,0.0924 1.51979,-0.78511 1.7487,-1.57925 0.68062,-1.14128 1.2202,-2.43809 1.88867,-3.54492 4.59506,1.03558 9.72761,-0.94647 12.33457,-4.89391 0.48366,-0.68715 0.88547,-1.43167 1.20254,-2.2096 1.23112,0.003 2.46224,0.005 3.69336,0.008 z"
       id="path2731" /><path
       style="fill:#000000;stroke-width:0.0800087"
       d="m 454.56836,395.78516 c 0.63964,0.98048 1.69583,1.61105 2.70508,2.15625 -1.03222,0.63041 -2.20131,1.22467 -2.78321,2.34179 0,-1.54622 0,-3.09244 0,-4.63867 l 0.0486,0.0874 z"
       id="path2729" /><path
       style="fill:#000000;stroke-width:0.0800087"
       d="m 154.10156,383.35742 c -1.70766,0.30364 -3.39736,0.58924 -5.10937,0.88867 0.37696,3.36784 0.76806,6.74173 1.13867,10.10547 -4.24594,1.49211 -7.35801,5.79127 -7.27734,10.31836 -0.0332,3.76607 2.06353,7.45837 5.29492,9.38477 -1.40638,4.57418 -2.75087,9.17771 -4.13867,13.76172 1.18144,2.10034 3.50127,3.50594 5.92368,3.46934 3.36528,0.35067 6.73061,0.70093 10.09585,1.05214 -2.08597,-2.08135 -4.1707,-4.16394 -6.25586,-6.24609 1.09011,-3.651 2.1874,-7.29956 3.29492,-10.94532 4.58875,-1.37824 7.95246,-6.04433 7.69199,-10.84862 -0.10796,-3.75641 -2.32935,-7.36678 -5.61387,-9.18458 -0.36624,-3.19462 -0.72956,-6.38958 -1.09765,-9.58398 -1.13562,-0.9809 -2.26976,-2.38917 -3.94727,-2.17188 z"
       id="path2727" /><path
       style="fill:#000000;stroke-width:0.0800087"
       d="m 461.4707,382.27539 c -2.62216,2.90977 -4.78802,6.19133 -7.00064,9.40835 -0.39031,0.78871 -0.53695,1.69594 -0.42514,2.56821 -2.87501,-0.016 -5.75004,-0.0276 -8.625,-0.0527 -1.95346,-4.9296 -7.50968,-8.17173 -12.76559,-7.24221 -0.68623,0.29117 -0.76329,-0.75469 -1.14866,-1.12388 -0.41727,-0.682 -0.83454,-1.36399 -1.25176,-2.04602 -2.60305,1.44921 -5.13942,3.01089 -7.65039,4.61328 0.71574,1.16202 1.43003,2.30372 2.13086,3.46094 -1.65555,2.28001 -2.36837,5.15988 -2.10569,7.95379 0.12136,1.90097 0.83439,3.72545 1.84787,5.32355 -0.91449,1.85277 -2.15447,3.63124 -2.50586,5.69727 0.0605,0.59594 0.10115,1.04214 -0.65312,0.83812 -3.89883,-10e-4 -7.79772,0.0117 -11.69649,-0.0159 -1.80963,-4.48026 -6.57867,-7.6672 -11.4414,-7.33984 -2.80542,0.006 -5.68953,1.26418 -7.73443,3.25342 -2.17305,2.0458 -3.51789,4.93754 -3.66206,7.92041 -4.40188,1.85336 -7.51786,6.56967 -7.14738,11.38348 -0.0598,3.19624 1.58656,6.2607 3.89738,8.39191 3.2061,2.8766 8.02325,3.82719 12.05241,2.25555 4.33774,-1.54678 7.50598,-5.86723 7.70541,-10.45868 2.83341,-1.21783 5.16071,-3.57022 6.32226,-6.42968 3.62175,0 7.24349,0 10.86524,0 0.47648,1.55754 1.69249,2.6155 2.50855,3.95432 0.54698,0.77764 1.12431,1.53415 1.65551,2.32302 -1.55654,2.21286 -2.24461,4.96331 -2.03928,7.65109 0.0588,1.61984 0.63017,3.17475 1.36154,4.60477 -0.93527,1.45222 -2.20753,2.95787 -2.11718,4.7832 0.16762,1.62767 1.55667,2.7521 2.93734,3.41004 0.85554,0.53972 1.71143,1.07889 2.56656,1.61926 1.32045,-1.20922 2.52596,-2.61697 3.54297,-4.04297 2.54804,0.73562 5.36226,0.66296 7.84808,-0.2711 2.8994,-1.13618 5.30828,-3.46451 6.55427,-6.31679 1.8597,4.22214 6.34833,7.33756 11.0328,7.04734 0.4193,0.19608 0.61712,0.84081 0.93167,1.22168 0.46575,0.73688 0.47679,1.71844 1.21131,2.3052 1.17338,1.18319 3.23239,1.29388 4.4595,0.12995 0.92684,-0.64237 1.85436,-1.28377 2.78073,-1.92683 0.50625,-1.80741 0.23357,-3.86577 -0.94531,-5.35937 3.48957,-3.56248 4.28939,-9.44378 1.83789,-13.79492 2.36755,0.13934 4.77101,-0.4702 6.76758,-1.75586 0.13943,0.47424 -0.31798,1.54532 0.3,1.54101 2.44166,0.004 4.88342,-0.014 7.325,0.0117 2.33129,3.46313 6.58082,5.56178 10.75722,5.13187 5.33155,-0.26506 10.01585,-4.70137 10.77207,-9.95218 0.82791,-4.85497 -1.76872,-10.02808 -6.11967,-12.31708 -3.92436,-2.12924 -9.04271,-1.78266 -12.62642,0.8913 -1.90091,-0.0168 -3.83174,-0.004 -5.74414,-0.008 -1.92477,-4.66367 -7.07432,-7.77907 -12.10742,-7.16992 -0.61215,0.16606 -1.079,0.0977 -1.27797,-0.57823 -1.27713,-2.08004 -2.55427,-4.16008 -3.83141,-6.24013 1.60031,-1.22111 2.44414,-3.12725 3.68693,-4.66716 1.50765,-2.10643 2.99994,-4.22332 4.50448,-6.33284 -2.31557,-1.64453 -4.63082,-3.2895 -6.94531,-4.93554 -0.19857,0.22786 -0.39714,0.45573 -0.59571,0.68359 z"
       id="path2725" /><path
       style="fill:#000000;stroke-width:0.0800087"
       d="m 205.68555,374 c -5.00758,-0.10749 -9.71648,3.74887 -10.68055,8.65063 -0.97985,4.37128 1.03911,9.23423 4.87586,11.57007 3.74855,2.44117 8.99999,2.19759 12.50307,-0.57857 3.56292,-2.67202 5.19485,-7.64473 3.80404,-11.892 -1.31387,-4.52368 -5.77393,-7.87138 -10.50242,-7.75013 z"
       id="path2723" /><path
       style="fill:#000000;stroke-width:0.0800087"
       d="m 92.472656,367.76777 c -5.074045,0.31639 -9.488622,4.68163 -9.95284,9.73041 -0.533081,4.74017 2.362172,9.68633 6.869587,11.3526 4.003802,1.61142 8.910979,0.59836 11.896967,-2.5357 3.58857,-3.58468 4.15223,-9.7779 1.13857,-13.88987 -2.09411,-3.06555 -5.824981,-4.92692 -9.540174,-4.67502 -0.13737,0.006 -0.27474,0.0117 -0.41211,0.0176 z"
       id="path2721" /><path
       style="fill:#000000;stroke-width:0.0800087"
       d="m 130.87695,365.45136 c -5.65379,-0.14754 -10.76987,4.92468 -10.81586,10.5533 -0.23048,4.78605 3.08093,9.49331 7.69631,10.82801 4.09272,1.32915 8.90003,-0.05 11.62711,-3.39076 2.94107,-3.42897 3.47211,-8.75071 1.06211,-12.61129 -1.93539,-3.30879 -5.7047,-5.54362 -9.56967,-5.37926 z"
       id="path2719" /><path
       style="fill:#000000;stroke-width:0.0800087"
       d="m 167.54297,361.4123 c -4.3904,0.067 -8.59416,2.98363 -10.08653,7.13232 -1.63462,4.24003 -0.27842,9.41925 3.26231,12.28174 3.42769,2.89223 8.66892,3.34377 12.52289,1.03403 4.1681,-2.37592 6.3919,-7.68298 5.07364,-12.31209 -1.23027,-4.71709 -5.88084,-8.28309 -10.77231,-8.136 z"
       id="path2717" /><path
       style="fill:#000000;stroke-width:0.0800087"
       d="m 89.517578,344.78535 c -5.123456,0.097 -9.853193,4.26122 -10.473545,9.37127 -0.621494,4.01423 1.195253,8.28359 4.558974,10.57521 3.951765,2.83345 9.81726,2.58247 13.43987,-0.69367 3.235943,-2.80927 4.709193,-7.59221 3.257073,-11.67807 -1.338351,-4.18505 -5.367241,-7.36242 -9.777147,-7.55558 -0.334479,-0.0315 -0.669844,-0.0184 -1.005225,-0.0192 z"
       id="path2715" /><path
       style="fill:#000000;stroke-width:0.0800087"
       d="m 212.60156,308.53925 c -5.66373,-0.0488 -10.74192,5.14775 -10.57841,10.80741 -0.2165,4.54223 2.90609,8.89392 7.1562,10.38933 3.74617,1.42616 8.25011,0.55231 11.16245,-2.21432 -1.46683,4.65695 0.63354,10.17517 4.89976,12.58476 0.54641,0.33462 1.30154,0.62726 1.77797,0.86642 -3.37764,2.01901 -5.59039,5.91603 -5.33635,9.87719 0.15876,4.39615 3.21046,8.52659 7.40401,9.89367 3.87763,1.36599 8.48551,0.31277 11.32886,-2.6751 2.43261,-2.40331 3.56886,-5.97679 3.04497,-9.34858 -0.53181,-3.86418 -3.38482,-7.23781 -7.00594,-8.61046 3.69431,-2.21101 5.91637,-6.6943 5.23821,-10.97537 -0.64439,-4.99154 -5.13983,-9.17934 -10.18586,-9.38032 -2.94266,-0.23479 -5.91288,0.89361 -8.07384,2.87912 1.29732,-4.18798 -0.20308,-9.07273 -3.68748,-11.75368 -2.00008,-1.59242 -4.57995,-2.49267 -7.14455,-2.34007 z"
       id="path2713" /><path
       style="fill:#000000;stroke-width:0.0800087"
       d="m 250.97852,304.5373 c -3.49341,-0.10413 -6.88074,1.7353 -8.88765,4.56079 -2.58475,3.46773 -2.75473,8.49308 -0.42871,12.13786 2.37057,3.91485 7.36066,6.05208 11.81672,4.89657 4.48785,-0.98893 8.08032,-5.07964 8.40596,-9.67437 0.36397,-3.81456 -1.41009,-7.75579 -4.58189,-9.93203 -1.82609,-1.31025 -4.0724,-2.04202 -6.32443,-1.98882 z"
       id="path2711" /><path
       style="fill:#000000;stroke-width:0.0800087"
       d="m 141.33203,304.5273 c -5.49525,0.0983 -10.40919,4.99761 -10.46767,10.50529 -0.0537,1.54386 0.1868,3.10814 0.77626,4.53964 -0.38054,0.81966 -0.75746,1.63925 -1.1289,2.46289 -4.75872,-0.59092 -9.73656,2.30349 -11.44531,6.81054 -0.1441,0.51987 -0.3005,-0.48211 -0.48748,-0.66978 -1.53418,-3.20627 -4.68298,-5.56411 -8.21,-6.06478 -1.34468,-0.22261 -2.73092,-0.17621 -4.06229,0.11152 -2.60528,-3.49168 -5.21208,-6.98223 -7.816406,-10.47461 -1.528621,0.0164 -3.200175,-0.0802 -4.502141,0.87723 -0.961969,0.7819 -2.07125,1.58574 -2.353327,2.87863 -0.369094,1.22422 0.268931,2.42466 1.0679,3.31772 2.1502,2.89577 4.331573,5.77043 6.473115,8.67446 -2.563484,4.36948 -1.553573,10.48879 2.372859,13.72389 3.47922,3.06097 8.96374,3.56418 12.88755,1.05683 2.06873,-1.27536 3.67734,-3.26456 4.54233,-5.53072 1.46851,4.17784 5.71369,7.12976 10.13083,7.13958 4.31272,0.11183 8.51174,-2.61623 10.17518,-6.59538 1.56274,-3.43544 1.07749,-7.64835 -1.11461,-10.7024 0.10891,-0.70835 0.53073,-0.69355 1.08789,-0.45312 4.46007,1.08888 9.53216,-0.92684 11.8602,-4.92334 0.22642,-0.57888 0.55784,-0.92685 1.223,-0.74092 1.13388,0.0307 2.33199,-0.0396 3.42657,0.0529 1.51565,2.89222 4.37229,5.04284 7.57226,5.69531 -1.16311,4.61502 1.06352,9.86702 5.27086,12.13944 4.08255,2.36793 9.68919,1.68091 13.01761,-1.69194 2.50721,-2.3602 3.69789,-5.94594 3.21737,-9.34315 -0.50133,-4.22515 -3.79458,-7.95256 -7.89743,-9.05358 -0.29226,-0.16333 -1.00955,-0.0172 -0.73731,-0.50585 0.8714,-3.93775 -0.64916,-8.27254 -3.81668,-10.77766 -2.11812,-1.79473 -4.95127,-2.68266 -7.71484,-2.40094 -4.1729,0.15911 -7.97929,3.12902 -9.43137,6.99891 -1.06571,-0.013 -2.13165,0.008 -3.19727,-0.0117 -1.60631,-4.29166 -6.11702,-7.34127 -10.71875,-7.04493 z"
       id="path2709" /><path
       style="fill:#000000;stroke-width:0.0800087"
       d="m 290.23438,304.4668 c -4.45858,0.2638 -8.65013,3.42144 -9.88157,7.75725 -1.21119,3.82606 -0.11665,8.28264 2.82123,11.04064 2.38487,2.39817 5.9163,3.51821 9.25264,3.00712 4.8979,-0.63437 9.00423,-5.00286 9.3122,-9.93815 0.44215,-4.46613 -2.24539,-8.97378 -6.30998,-10.83 -1.61315,-0.762 -3.41433,-1.10302 -5.19452,-1.03686 z"
       id="path2707" /><path
       style="fill:#000000;stroke-width:0.0800087"
       d="m 73.912109,302.70898 c -5.17101,-0.10306 -9.984799,4.1622 -10.616632,9.27913 -0.596548,3.80745 0.965077,7.86654 4.025011,10.22823 3.415599,2.72334 8.480686,3.138 12.259824,0.91847 4.325368,-2.44172 6.615295,-8.0459 5.002664,-12.78666 -1.390549,-4.49014 -5.91523,-7.91295 -10.670867,-7.63917 z"
       id="path2705" /><path
       style="fill:#000000;stroke-width:0.0800087"
       d="m 134.52148,281.86914 c -1.37646,0.0328 -2.42415,1.17447 -2.81681,2.41722 -0.27916,0.54322 -0.55832,1.08644 -0.83748,1.62966 -4.61964,-0.72826 -9.64008,1.86112 -11.51367,6.16601 -0.47986,0.0407 -0.84544,0.10664 -0.95899,-0.46875 -1.97687,-3.74013 -6.23705,-6.14197 -10.46894,-5.77301 -5.42526,0.24767 -10.182272,5.16727 -10.155598,10.61777 -0.256747,4.92425 3.329638,9.67844 8.094358,10.8799 3.82184,1.10803 8.13343,-0.19066 10.83135,-3.08203 0.90681,-0.95528 1.64247,-2.07648 2.14024,-3.29693 0.50425,-0.0795 0.47881,0.74566 0.78447,1.06706 2.30594,4.25795 7.63799,6.68437 12.33943,5.34551 4.23421,-1.0687 7.66746,-4.84284 8.14568,-9.21196 0.33997,-2.58933 -0.27333,-5.30595 -1.75396,-7.46428 0.89676,-1.72244 2.22012,-3.58315 1.71289,-5.62695 -0.5849,-2.13285 -2.92266,-3.19925 -4.98512,-3.19493 -0.18595,-0.003 -0.37187,-0.009 -0.55785,-0.004 z"
       id="path2619" /></g></g>













</svg>
