<?xml version="1.0" encoding="UTF-8" standalone="no"?>
<svg
   width="9602px"
   height="624px"
   viewBox="0 0 9602 624"
   version="1.1"
   id="svg1187"
   sodipodi:docname="0_human_dna_legend_specialcase_resized.svg"
   inkscape:version="1.1.1 (c3084ef, 2021-09-22)"
   xmlns:inkscape="http://www.inkscape.org/namespaces/inkscape"
   xmlns:sodipodi="http://sodipodi.sourceforge.net/DTD/sodipodi-0.dtd"
   xmlns:xlink="http://www.w3.org/1999/xlink"
   xmlns="http://www.w3.org/2000/svg"
   xmlns:svg="http://www.w3.org/2000/svg">
  <defs
     id="defs1191">
    <clipPath
       clipPathUnits="userSpaceOnUse"
       id="clipPath1220">
      <path
         d="M 0,0 H 9451.443 V 623.509 H 0 Z"
         id="path1218" />
    </clipPath>
    <clipPath
       clipPathUnits="userSpaceOnUse"
       id="clipPath1228">
      <path
         d="m 577.742,340.937 h 21.492 v -7.886 h -21.492 z"
         id="path1226" />
    </clipPath>
    <clipPath
       clipPathUnits="userSpaceOnUse"
       id="clipPath1232">
      <path
         d="m 577.742,333.052 h 21.492 v 7.885 h -21.492 z"
         id="path1230" />
    </clipPath>
    <clipPath
       clipPathUnits="userSpaceOnUse"
       id="clipPath1252">
      <path
         d="m 577.742,314.199 h 26.749 v -7.887 h -26.749 z"
         id="path1250" />
    </clipPath>
    <clipPath
       clipPathUnits="userSpaceOnUse"
       id="clipPath1256">
      <path
         d="m 577.742,306.314 h 26.749 v 7.885 h -26.749 z"
         id="path1254" />
    </clipPath>
    <clipPath
       clipPathUnits="userSpaceOnUse"
       id="clipPath1276">
      <path
         d="m 577.742,287.462 h 26.963 v -7.886 h -26.963 z"
         id="path1274" />
    </clipPath>
    <clipPath
       clipPathUnits="userSpaceOnUse"
       id="clipPath1280">
      <path
         d="m 577.742,279.577 h 26.957 v 7.885 h -26.957 z"
         id="path1278" />
    </clipPath>
    <clipPath
       clipPathUnits="userSpaceOnUse"
       id="clipPath1300">
      <path
         d="m 577.742,260.723 h 25.566 v -7.885 h -25.566 z"
         id="path1298" />
    </clipPath>
    <clipPath
       clipPathUnits="userSpaceOnUse"
       id="clipPath1304">
      <path
         d="m 577.742,252.838 h 25.566 v 7.885 h -25.566 z"
         id="path1302" />
    </clipPath>
    <clipPath
       clipPathUnits="userSpaceOnUse"
       id="clipPath1340">
      <path
         d="M 0,0 H 9451.443 V 623.509 H 0 Z"
         id="path1338" />
    </clipPath>
    <clipPath
       clipPathUnits="userSpaceOnUse"
       id="clipPath1348">
      <path
         d="M 577.742,235.276 H 611.2 V 220.39 h -33.458 z"
         id="path1346" />
    </clipPath>
    <clipPath
       clipPathUnits="userSpaceOnUse"
       id="clipPath1352">
      <path
         d="M 577.742,220.39 H 611.2 v 14.887 h -33.458 z"
         id="path1350" />
    </clipPath>
  </defs>
  <sodipodi:namedview
     id="namedview1189"
     pagecolor="#505050"
     bordercolor="#eeeeee"
     borderopacity="1"
     inkscape:pageshadow="0"
     inkscape:pageopacity="0"
     inkscape:pagecheckerboard="0"
     showgrid="false"
     inkscape:zoom="1.021001"
     inkscape:cx="732.12467"
     inkscape:cy="385.89581"
     inkscape:window-width="1312"
     inkscape:window-height="762"
     inkscape:window-x="0"
     inkscape:window-y="25"
     inkscape:window-maximized="0"
     inkscape:current-layer="svg1187" />
  <g
     id="surface1">
    <path
       style=" stroke:none;fill-rule:nonzero;fill:rgb(72.156864%,45.490196%,20%);fill-opacity:1;"
       d="M 979.730469 54.550781 C 983.402344 54.042969 986.914062 53.640625 990.148438 53.3125 C 986.964844 53.597656 983.503906 53.953125 979.699219 54.480469 Z M 979.730469 54.550781 "
       id="path824" />
    <path
       style=" stroke:none;fill-rule:nonzero;fill:rgb(72.156864%,45.490196%,20%);fill-opacity:1;"
       d="M 870.421875 137.671875 C 871.296875 135.726562 872.175781 133.78125 873.128906 131.714844 C 872.203125 133.632812 871.289062 135.566406 870.371094 137.535156 Z M 870.421875 137.671875 "
       id="path826" />
    <path
       style=" stroke:none;fill-rule:nonzero;fill:rgb(72.156864%,45.490196%,20%);fill-opacity:1;"
       d="M 879.554688 118.929688 C 879.085938 119.832031 878.617188 120.734375 878.15625 121.648438 C 879.355469 119.382812 880.5625 117.175781 881.785156 115.082031 L 881.71875 114.9375 C 880.972656 116.25 880.253906 117.578125 879.554688 118.929688 "
       id="path828" />
    <path
       style=" stroke:none;fill-rule:nonzero;fill:rgb(72.156864%,45.490196%,20%);fill-opacity:1;"
       d="M 886.667969 106.964844 L 886.769531 107.183594 C 888.5625 104.511719 890.386719 102.023438 892.230469 99.660156 L 892.164062 99.53125 C 890.25 101.910156 888.417969 104.390625 886.667969 106.964844 "
       id="path830" />
    <path
       style=" stroke:none;fill-rule:nonzero;fill:rgb(72.156864%,45.490196%,20%);fill-opacity:1;"
       d="M 969.578125 56.164062 C 969.808594 56.121094 970.039062 56.082031 970.265625 56.046875 L 970.257812 56.023438 C 970.035156 56.066406 969.800781 56.121094 969.578125 56.164062 "
       id="path832" />
    <path
       style=" stroke:none;fill-rule:nonzero;fill:rgb(72.156864%,45.490196%,20%);fill-opacity:1;"
       d="M 930.683594 68.808594 C 931.234375 68.550781 931.789062 68.285156 932.347656 68.027344 L 932.308594 67.960938 C 931.753906 68.230469 931.226562 68.542969 930.683594 68.808594 "
       id="path834" />
    <path
       style=" stroke:none;fill-rule:nonzero;fill:rgb(72.156864%,45.490196%,20%);fill-opacity:1;"
       d="M 940.707031 64.316406 L 940.785156 64.453125 C 943.925781 63.222656 947.109375 62.0625 950.351562 60.953125 C 949.460938 61.230469 948.574219 61.515625 947.675781 61.804688 C 945.328125 62.582031 943 63.417969 940.707031 64.316406 "
       id="path836" />
    <path
       style=" stroke:none;fill-rule:nonzero;fill:rgb(72.156864%,45.490196%,20%);fill-opacity:1;"
       d="M 862.378906 156.160156 L 862.421875 156.28125 C 863.414062 153.835938 864.488281 151.269531 865.648438 148.542969 L 865.570312 148.34375 C 864.492188 150.886719 863.425781 153.492188 862.378906 156.160156 "
       id="path838" />
    <path
       style=" stroke:none;fill-rule:nonzero;fill:rgb(95.294118%,66.274512%,37.254903%);fill-opacity:1;"
       d="M 690.40625 424.195312 C 692.582031 423.175781 693.503906 420.609375 692.46875 418.460938 C 692.257812 418.015625 691.96875 417.621094 691.632812 417.285156 C 686.511719 420.414062 682.023438 423.410156 677.875 426.40625 L 686.183594 423.933594 C 687.414062 424.703125 688.996094 424.855469 690.40625 424.195312 "
       id="path840" />
    <path
       style=" stroke:none;fill-rule:nonzero;fill:rgb(95.294118%,66.274512%,37.254903%);fill-opacity:1;"
       d="M 694.121094 512.714844 C 692.972656 510.332031 690.078125 509.320312 687.664062 510.457031 C 685.246094 511.585938 684.214844 514.4375 685.363281 516.820312 C 686.515625 519.203125 689.40625 520.21875 691.824219 519.082031 C 692.316406 518.847656 692.75 518.550781 693.125 518.191406 L 712.75 524.421875 C 711.757812 526.976562 710.703125 529.40625 709.644531 531.832031 C 711.445312 527.769531 713.148438 523.59375 714.644531 519.339844 L 694.285156 513.105469 C 694.234375 512.972656 694.183594 512.84375 694.121094 512.714844 "
       id="path842" />
    <path
       style=" stroke:none;fill-rule:nonzero;fill:rgb(78.823531%,31.37255%,49.411765%);fill-opacity:1;"
       d="M 687.894531 538.691406 C 686.648438 536.117188 683.527344 535.023438 680.917969 536.246094 C 678.3125 537.464844 677.199219 540.542969 678.4375 543.117188 C 679.679688 545.691406 682.804688 546.78125 685.414062 545.5625 C 685.539062 545.503906 685.660156 545.4375 685.78125 545.371094 L 699.085938 552.5625 C 699.996094 550.96875 700.929688 549.300781 701.859375 547.582031 L 688.398438 540.753906 C 688.382812 540.058594 688.214844 539.359375 687.894531 538.691406 "
       id="path844" />
    <path
       style=" stroke:none;fill-rule:nonzero;fill:rgb(95.294118%,66.274512%,37.254903%);fill-opacity:1;"
       d="M 684.386719 551.796875 C 683.164062 549.277344 680.101562 548.199219 677.546875 549.398438 C 674.988281 550.601562 673.902344 553.617188 675.117188 556.140625 C 676.15625 558.296875 678.546875 559.394531 680.816406 558.917969 L 690.707031 566.214844 C 688.894531 568.9375 687.117188 571.519531 685.390625 573.964844 C 685.390625 573.964844 689.09375 568.960938 694.097656 560.929688 L 684.839844 554.621094 C 684.960938 553.691406 684.824219 552.710938 684.386719 551.796875 "
       id="path846" />
    <path
       style=" stroke:none;fill-rule:nonzero;fill:rgb(63.137257%,34.509805%,63.529414%);fill-opacity:1;"
       d="M 691.25 525.777344 C 690.0625 523.324219 687.085938 522.277344 684.589844 523.445312 C 682.101562 524.609375 681.042969 527.546875 682.222656 530.003906 C 683.40625 532.460938 686.390625 533.503906 688.878906 532.339844 C 689.230469 532.175781 689.550781 531.976562 689.84375 531.746094 L 706.507812 538.578125 C 707.265625 537.019531 708.015625 535.4375 708.753906 533.824219 L 691.707031 527.363281 C 691.644531 526.828125 691.492188 526.292969 691.25 525.777344 "
       id="path848" />
    <path
       style=" stroke:none;fill-rule:nonzero;fill:rgb(63.137257%,34.509805%,63.529414%);fill-opacity:1;"
       d="M 678.808594 444.925781 C 681.121094 443.839844 682.105469 441.109375 681.007812 438.832031 C 679.90625 436.550781 677.136719 435.578125 674.824219 436.667969 C 674.0625 437.023438 673.445312 437.558594 672.996094 438.199219 L 661.9375 439.484375 C 659.664062 441.597656 657.417969 443.773438 655.164062 446.070312 L 673.273438 443.753906 C 674.601562 445.296875 676.863281 445.832031 678.808594 444.925781 "
       id="path850" />
    <path
       style=" stroke:none;fill-rule:nonzero;fill:rgb(47.058824%,54.901963%,74.117649%);fill-opacity:1;"
       d="M 684.191406 434.566406 C 686.457031 433.5 687.421875 430.828125 686.34375 428.597656 C 685.265625 426.363281 682.554688 425.414062 680.289062 426.476562 C 679.359375 426.910156 678.652344 427.621094 678.210938 428.453125 L 674.085938 429.21875 C 670.863281 431.683594 667.839844 434.1875 664.929688 436.773438 L 679.285156 433.917969 C 680.605469 435.035156 682.519531 435.34375 684.191406 434.566406 "
       id="path852" />
    <path
       style=" stroke:none;fill-rule:nonzero;fill:rgb(63.137257%,34.509805%,63.529414%);fill-opacity:1;"
       d="M 668.84375 539.601562 C 667.824219 537.484375 665.417969 536.464844 663.203125 537.082031 L 655.710938 533.5 C 658.105469 537.625 660.714844 541.859375 663.738281 546.308594 C 664.667969 546.460938 665.652344 546.339844 666.566406 545.90625 C 668.964844 544.792969 669.980469 541.960938 668.84375 539.601562 "
       id="path854" />
    <path
       style=" stroke:none;fill-rule:nonzero;fill:rgb(63.137257%,34.509805%,63.529414%);fill-opacity:1;"
       d="M 800.945312 265.296875 C 799.65625 262.628906 796.414062 261.492188 793.703125 262.761719 C 790.996094 264.03125 789.839844 267.222656 791.128906 269.894531 C 792.417969 272.566406 795.65625 273.699219 798.367188 272.429688 C 798.648438 272.300781 798.90625 272.152344 799.148438 271.988281 L 816.597656 279.363281 C 817.324219 277.667969 818.019531 276 818.703125 274.347656 L 801.351562 266.476562 C 801.265625 266.078125 801.128906 265.683594 800.945312 265.296875 "
       id="path856" />
    <path
       style=" stroke:none;fill-rule:nonzero;fill:rgb(63.137257%,34.509805%,63.529414%);fill-opacity:1;"
       d="M 753.261719 334.042969 C 751.960938 331.347656 748.683594 330.199219 745.945312 331.476562 C 743.207031 332.761719 742.039062 335.988281 743.34375 338.691406 C 744.402344 340.890625 746.777344 342.058594 749.101562 341.71875 L 762.789062 354.835938 C 764.398438 353.445312 766.019531 352.007812 767.65625 350.53125 L 753.738281 337.132812 C 753.886719 336.109375 753.746094 335.042969 753.261719 334.042969 "
       id="path858" />
    <path
       style=" stroke:none;fill-rule:nonzero;fill:rgb(63.137257%,34.509805%,63.529414%);fill-opacity:1;"
       d="M 783.011719 239.476562 C 784.253906 242.039062 787.367188 243.132812 789.972656 241.90625 C 792.578125 240.691406 793.683594 237.617188 792.445312 235.050781 C 792.207031 234.5625 791.90625 234.128906 791.546875 233.75 C 785.960938 234.800781 780.5 235.945312 775.1875 237.183594 L 782.921875 239.269531 C 782.949219 239.339844 782.976562 239.40625 783.011719 239.476562 "
       id="path860" />
    <path
       style=" stroke:none;fill-rule:nonzero;fill:rgb(47.058824%,54.901963%,74.117649%);fill-opacity:1;"
       d="M 772.734375 248.609375 C 773.972656 251.175781 777.085938 252.269531 779.691406 251.042969 C 782.296875 249.828125 783.402344 246.753906 782.167969 244.1875 C 780.929688 241.617188 777.8125 240.527344 775.207031 241.75 C 774.894531 241.898438 774.609375 242.066406 774.34375 242.261719 L 766.769531 239.28125 C 763.300781 240.210938 759.9375 241.214844 756.671875 242.277344 L 772.710938 248.554688 Z M 772.734375 248.609375 "
       id="path862" />
    <path
       style=" stroke:none;fill-rule:nonzero;fill:rgb(95.294118%,66.274512%,37.254903%);fill-opacity:1;"
       d="M 762.75 257.605469 C 764.046875 260.300781 767.324219 261.449219 770.066406 260.167969 C 772.800781 258.886719 773.964844 255.65625 772.664062 252.960938 C 771.367188 250.265625 768.101562 249.121094 765.367188 250.386719 L 751.0625 244.242188 C 748.152344 245.320312 745.316406 246.453125 742.636719 247.683594 L 762.277344 256.082031 C 762.351562 256.597656 762.511719 257.109375 762.75 257.605469 "
       id="path864" />
    <path
       style=" stroke:none;fill-rule:nonzero;fill:rgb(95.294118%,66.274512%,37.254903%);fill-opacity:1;"
       d="M 867.964844 154.664062 C 867.117188 156.265625 867.011719 158.226562 867.859375 159.988281 C 869.289062 162.957031 872.894531 164.21875 875.90625 162.808594 C 878.921875 161.394531 880.199219 157.84375 878.769531 154.875 C 878.140625 153.566406 877.089844 152.589844 875.855469 152.027344 L 870.421875 137.671875 C 868.6875 141.523438 867.101562 145.140625 865.648438 148.542969 Z M 867.964844 154.664062 "
       id="path866" />
    <path
       style=" stroke:none;fill-rule:nonzero;fill:rgb(47.058824%,54.901963%,74.117649%);fill-opacity:1;"
       d="M 873.128906 131.714844 C 873.132812 131.707031 873.136719 131.699219 873.140625 131.691406 L 877.46875 142.75 C 876.550781 144.539062 876.449219 146.710938 877.390625 148.664062 C 879.007812 152.007812 883.066406 153.425781 886.453125 151.839844 C 889.851562 150.246094 891.292969 146.25 889.683594 142.90625 C 888.746094 140.972656 886.996094 139.679688 885.03125 139.246094 L 878.144531 121.664062 C 878.144531 121.660156 878.152344 121.652344 878.15625 121.648438 C 876.460938 124.832031 874.785156 128.140625 873.140625 131.691406 C 873.132812 131.699219 873.132812 131.707031 873.128906 131.714844 "
       id="path868" />
    <path
       style=" stroke:none;fill-rule:nonzero;fill:rgb(95.294118%,66.274512%,37.254903%);fill-opacity:1;"
       d="M 900.273438 181.78125 C 902.644531 179.550781 903.414062 175.988281 901.933594 172.914062 C 900.082031 169.078125 895.421875 167.445312 891.527344 169.269531 C 887.632812 171.09375 885.980469 175.679688 887.828125 179.523438 C 888.960938 181.867188 891.140625 183.386719 893.550781 183.800781 L 901.210938 203.652344 C 903.539062 203.003906 905.90625 202.324219 908.308594 201.617188 Z M 900.273438 181.78125 "
       id="path870" />
    <path
       style=" stroke:none;fill-rule:nonzero;fill:rgb(63.137257%,34.509805%,63.529414%);fill-opacity:1;"
       d="M 981.707031 78.339844 C 980.976562 80.265625 981.007812 82.464844 981.972656 84.46875 C 983.863281 88.386719 988.617188 90.054688 992.589844 88.191406 C 996.566406 86.328125 998.253906 81.640625 996.363281 77.726562 C 995.027344 74.949219 992.246094 73.304688 989.324219 73.246094 L 979.730469 54.550781 C 976.644531 54.972656 973.46875 55.46875 970.265625 56.042969 Z M 981.707031 78.339844 "
       id="path872" />
    <path
       style=" stroke:none;fill-rule:nonzero;fill:rgb(78.823531%,31.37255%,49.411765%);fill-opacity:1;"
       d="M 916.066406 173.511719 C 918.128906 171.265625 918.734375 167.9375 917.332031 165.039062 C 915.476562 161.203125 910.820312 159.570312 906.925781 161.394531 C 903.035156 163.21875 901.378906 167.8125 903.226562 171.648438 C 904.460938 174.195312 906.921875 175.769531 909.582031 176.007812 L 919.167969 198.238281 C 921.488281 197.480469 923.820312 196.683594 926.152344 195.871094 Z M 916.066406 173.511719 "
       id="path874" />
    <path
       style=" stroke:none;fill-rule:nonzero;fill:rgb(63.137257%,34.509805%,63.529414%);fill-opacity:1;"
       d="M 889.472656 131.277344 C 888.628906 133.011719 888.5625 135.089844 889.464844 136.960938 C 891.054688 140.253906 895.046875 141.652344 898.386719 140.089844 C 901.730469 138.523438 903.152344 134.585938 901.558594 131.296875 C 900.5625 129.21875 898.605469 127.898438 896.464844 127.589844 L 886.773438 107.179688 C 885.089844 109.679688 883.421875 112.292969 881.789062 115.085938 Z M 889.472656 131.277344 "
       id="path876" />
    <path
       style=" stroke:none;fill-rule:nonzero;fill:rgb(95.294118%,66.274512%,37.254903%);fill-opacity:1;"
       d="M 946.671875 92.871094 C 945.804688 94.800781 945.761719 97.070312 946.753906 99.117188 C 948.554688 102.847656 953.078125 104.4375 956.867188 102.660156 C 960.648438 100.890625 962.257812 96.429688 960.460938 92.695312 C 959.320312 90.335938 957.09375 88.835938 954.652344 88.5 L 940.785156 64.453125 C 937.933594 65.566406 935.121094 66.757812 932.347656 68.027344 Z M 946.671875 92.871094 "
       id="path878" />
    <path
       style=" stroke:none;fill-rule:nonzero;fill:rgb(95.294118%,66.274512%,37.254903%);fill-opacity:1;"
       d="M 991.792969 53.15625 L 1001.226562 72.714844 C 1000.398438 74.695312 1000.394531 77 1001.402344 79.09375 C 1003.300781 83.023438 1008.074219 84.695312 1012.058594 82.824219 C 1016.050781 80.957031 1017.746094 76.253906 1015.851562 72.320312 C 1014.535156 69.597656 1011.839844 67.957031 1008.984375 67.832031 L 1001.589844 52.511719 C 1004.28125 52.359375 1006.234375 52.246094 1007.300781 52.054688 L 1007.300781 52.050781 C 1007.292969 52.054688 1000.09375 52.304688 990.148438 53.3125 C 990.683594 53.261719 991.28125 53.199219 991.792969 53.15625 "
       id="path880" />
    <path
       style=" stroke:none;fill-rule:nonzero;fill:rgb(63.137257%,34.509805%,63.529414%);fill-opacity:1;"
       d="M 931.945312 165.0625 C 933.613281 162.851562 934.015625 159.824219 932.734375 157.164062 C 930.882812 153.324219 926.222656 151.691406 922.328125 153.519531 C 918.433594 155.339844 916.78125 159.9375 918.628906 163.773438 C 919.980469 166.566406 922.820312 168.191406 925.761719 168.164062 L 937.660156 191.597656 C 939.953125 190.695312 942.226562 189.75 944.492188 188.78125 Z M 931.945312 165.0625 "
       id="path882" />
    <path
       style=" stroke:none;fill-rule:nonzero;fill:rgb(95.294118%,66.274512%,37.254903%);fill-opacity:1;"
       d="M 966.980469 177.625 C 964.980469 178.742188 962.996094 179.882812 960.953125 180.949219 L 947.8125 156.109375 C 949.5 153.894531 949.910156 150.855469 948.621094 148.1875 C 946.769531 144.34375 942.109375 142.714844 938.21875 144.539062 C 934.324219 146.367188 932.667969 150.957031 934.519531 154.792969 C 935.867188 157.582031 938.695312 159.207031 941.632812 159.183594 L 954.371094 184.269531 C 951.703125 185.574219 948.980469 186.816406 946.253906 188.035156 C 952.4375 185.34375 958.453125 182.421875 964.113281 179.261719 C 965.082031 178.726562 966.027344 178.179688 966.980469 177.625 "
       id="path884" />
    <path
       style=" stroke:none;fill-rule:nonzero;fill:rgb(78.823531%,31.37255%,49.411765%);fill-opacity:1;"
       d="M 963.800781 146.992188 C 965.402344 144.792969 965.769531 141.820312 964.507812 139.203125 C 962.652344 135.367188 958 133.734375 954.101562 135.5625 C 950.210938 137.382812 948.554688 141.972656 950.402344 145.8125 C 951.777344 148.65625 954.695312 150.292969 957.703125 150.199219 L 970.816406 175.375 C 972.941406 174.101562 975.035156 172.816406 977.097656 171.5 Z M 963.800781 146.992188 "
       id="path886" />
    <path
       style=" stroke:none;fill-rule:nonzero;fill:rgb(63.137257%,34.509805%,63.529414%);fill-opacity:1;"
       d="M 992.96875 160.640625 L 980.199219 137.683594 C 981.714844 135.496094 982.046875 132.59375 980.808594 130.027344 C 978.957031 126.1875 974.300781 124.558594 970.40625 126.382812 C 966.511719 128.210938 964.855469 132.796875 966.707031 136.632812 C 968.101562 139.527344 971.09375 141.164062 974.144531 141.019531 L 986.933594 164.945312 C 988.984375 163.519531 990.996094 162.082031 992.96875 160.640625 "
       id="path888" />
    <path
       style=" stroke:none;fill-rule:nonzero;fill:rgb(95.294118%,66.274512%,37.254903%);fill-opacity:1;"
       d="M 660.699219 514.035156 C 660.578125 514.09375 660.453125 514.15625 660.339844 514.222656 L 644.980469 509.160156 L 644.378906 508.753906 C 645.25 511.398438 646.230469 514.0625 647.351562 516.769531 L 647.867188 516.824219 L 658.117188 519.921875 C 658.179688 520.125 658.261719 520.324219 658.359375 520.527344 C 659.535156 522.960938 662.480469 523.992188 664.949219 522.839844 C 667.417969 521.683594 668.464844 518.773438 667.292969 516.339844 C 666.121094 513.910156 663.167969 512.878906 660.699219 514.035156 "
       id="path890" />
    <path
       style=" stroke:none;fill-rule:nonzero;fill:rgb(47.058824%,54.901963%,74.117649%);fill-opacity:1;"
       d="M 661.070312 525.074219 L 648.84375 519.238281 L 648.316406 518.988281 C 649.589844 521.886719 650.980469 524.8125 652.5625 527.8125 L 658.128906 530.21875 C 658.191406 530.78125 658.34375 531.355469 658.605469 531.898438 C 659.839844 534.453125 662.941406 535.542969 665.535156 534.328125 C 668.128906 533.105469 669.226562 530.054688 667.996094 527.503906 C 666.761719 524.945312 663.660156 523.859375 661.070312 525.074219 "
       id="path892" />
    <path
       style=" stroke:none;fill-rule:nonzero;fill:rgb(47.058824%,54.901963%,74.117649%);fill-opacity:1;"
       d="M 660.917969 491.222656 C 660.34375 491.492188 659.84375 491.84375 659.425781 492.265625 L 639.949219 487.890625 C 640.144531 489.90625 640.425781 491.910156 640.75 493.914062 L 640.773438 493.914062 L 658.15625 497.332031 C 658.234375 497.578125 658.332031 497.828125 658.445312 498.066406 C 659.679688 500.628906 662.789062 501.714844 665.390625 500.5 C 667.992188 499.28125 669.097656 496.214844 667.859375 493.65625 C 666.625 491.089844 663.519531 490.003906 660.917969 491.222656 "
       id="path894" />
    <path
       style=" stroke:none;fill-rule:nonzero;fill:rgb(63.137257%,34.509805%,63.529414%);fill-opacity:1;"
       d="M 660.328125 502.238281 C 660.0625 502.363281 659.8125 502.507812 659.578125 502.671875 L 641.628906 497.941406 L 641.449219 497.828125 C 641.945312 500.257812 642.570312 502.699219 643.273438 505.140625 L 643.667969 505.21875 L 646.554688 505.898438 L 657.738281 508.542969 C 657.785156 508.675781 657.847656 508.808594 657.90625 508.9375 C 659.117188 511.445312 662.164062 512.515625 664.707031 511.324219 C 667.253906 510.128906 668.335938 507.132812 667.125 504.617188 C 665.914062 502.117188 662.871094 501.046875 660.328125 502.238281 "
       id="path896" />
    <path
       style=" stroke:none;fill-rule:nonzero;fill:rgb(95.294118%,66.274512%,37.254903%);fill-opacity:1;"
       d="M 662.1875 479.171875 C 661.433594 479.527344 660.796875 480.03125 660.304688 480.636719 L 640.230469 477.921875 L 640.03125 477.738281 C 639.851562 479.664062 639.765625 481.648438 639.804688 483.695312 L 659.546875 486.132812 C 659.570312 486.1875 659.59375 486.238281 659.621094 486.292969 C 660.910156 488.953125 664.140625 490.085938 666.84375 488.824219 C 669.546875 487.558594 670.699219 484.371094 669.410156 481.707031 C 668.125 479.035156 664.890625 477.910156 662.1875 479.171875 "
       id="path898" />
    <path
       style=" stroke:none;fill-rule:nonzero;fill:rgb(63.137257%,34.509805%,63.529414%);fill-opacity:1;"
       d="M 664.382812 468.5 C 663.671875 468.835938 663.070312 469.308594 662.605469 469.875 L 642.441406 468.34375 L 641.96875 468.128906 C 641.425781 469.9375 640.984375 471.824219 640.636719 473.769531 L 640.988281 473.777344 L 662.222656 475.714844 C 663.574219 477.882812 666.394531 478.742188 668.785156 477.621094 C 671.339844 476.425781 672.421875 473.414062 671.214844 470.894531 C 669.996094 468.375 666.9375 467.300781 664.382812 468.5 "
       id="path900" />
    <path
       style=" stroke:none;fill-rule:nonzero;fill:rgb(47.058824%,54.901963%,74.117649%);fill-opacity:1;"
       d="M 666.867188 457.675781 C 665.960938 458.105469 665.238281 458.757812 664.730469 459.535156 L 646.53125 458.59375 L 646.046875 458.371094 C 645.035156 460.21875 644.140625 462.175781 643.335938 464.214844 L 643.90625 464.25 L 664.789062 465.089844 C 666.183594 467.164062 668.953125 467.960938 671.304688 466.867188 C 673.875 465.660156 674.96875 462.625 673.746094 460.085938 C 672.523438 457.554688 669.445312 456.472656 666.867188 457.675781 "
       id="path902" />
    <path
       style=" stroke:none;fill-rule:nonzero;fill:rgb(95.294118%,66.274512%,37.254903%);fill-opacity:1;"
       d="M 670.96875 446.503906 C 669.890625 447.011719 669.0625 447.832031 668.550781 448.796875 L 652.652344 449.140625 L 652.382812 449.132812 C 650.871094 450.914062 649.449219 452.867188 648.105469 454.9375 L 648.578125 455.015625 L 669.011719 454.335938 C 670.484375 456.28125 673.195312 456.996094 675.511719 455.914062 C 678.144531 454.679688 679.265625 451.570312 678.015625 448.972656 C 676.761719 446.375 673.605469 445.269531 670.96875 446.503906 "
       id="path904" />
    <path
       style=" stroke:none;fill-rule:nonzero;fill:rgb(63.137257%,34.509805%,63.529414%);fill-opacity:1;"
       d="M 704.472656 454.339844 C 705.195312 454 705.789062 453.507812 706.234375 452.917969 L 725.835938 451.785156 L 725.835938 451.789062 C 725.824219 450.058594 725.800781 448.304688 725.75 446.511719 L 706.445312 447.628906 C 705.1875 445.65625 702.597656 444.878906 700.40625 445.902344 C 698.046875 447.015625 697.039062 449.792969 698.160156 452.121094 C 699.285156 454.453125 702.113281 455.441406 704.472656 454.339844 "
       id="path906" />
    <path
       style=" stroke:none;fill-rule:nonzero;fill:rgb(95.294118%,66.274512%,37.254903%);fill-opacity:1;"
       d="M 699.875 480.339844 C 700.601562 480 701.203125 479.507812 701.667969 478.929688 L 723.960938 481 L 724.097656 481.007812 C 724.328125 479.289062 724.539062 477.527344 724.730469 475.742188 L 724.605469 475.726562 L 702.324219 473.945312 C 702.296875 473.882812 702.269531 473.824219 702.242188 473.765625 C 701.058594 471.308594 698.070312 470.261719 695.578125 471.429688 C 693.078125 472.601562 692.019531 475.542969 693.207031 478.003906 C 694.394531 480.464844 697.378906 481.511719 699.875 480.339844 "
       id="path908" />
    <path
       style=" stroke:none;fill-rule:nonzero;fill:rgb(78.823531%,31.37255%,49.411765%);fill-opacity:1;"
       d="M 702.542969 467.3125 C 703.3125 466.957031 703.9375 466.425781 704.410156 465.796875 L 725.417969 466.292969 L 725.484375 466.324219 C 725.582031 464.597656 725.660156 462.832031 725.714844 461.035156 L 725.6875 461.046875 L 704.921875 460.878906 L 704.890625 460.8125 C 703.714844 458.378906 700.761719 457.34375 698.296875 458.5 C 695.824219 459.660156 694.777344 462.570312 695.949219 465 C 697.121094 467.4375 700.078125 468.46875 702.542969 467.3125 "
       id="path910" />
    <path
       style=" stroke:none;fill-rule:nonzero;fill:rgb(78.823531%,31.37255%,49.411765%);fill-opacity:1;"
       d="M 719.273438 504.621094 L 719.222656 504.613281 L 697.472656 500.394531 C 697.40625 500.191406 697.328125 499.992188 697.234375 499.796875 C 696.054688 497.351562 693.089844 496.320312 690.613281 497.476562 C 688.132812 498.640625 687.082031 501.558594 688.257812 504 C 689.4375 506.441406 692.402344 507.480469 694.878906 506.316406 C 695.257812 506.140625 695.605469 505.921875 695.914062 505.667969 L 717.582031 510.398438 C 716.65625 513.460938 715.675781 516.4375 714.640625 519.339844 C 716.328125 514.527344 717.882812 509.65625 719.273438 504.621094 "
       id="path912" />
    <path
       style=" stroke:none;fill-rule:nonzero;fill:rgb(63.137257%,34.509805%,63.529414%);fill-opacity:1;"
       d="M 697.855469 493.398438 C 698.488281 493.105469 699.023438 492.699219 699.460938 492.210938 L 721.453125 495.339844 L 721.539062 495.535156 C 721.914062 493.832031 722.257812 492.097656 722.59375 490.339844 L 722.453125 490.335938 L 700.445312 487.300781 C 700.382812 487.132812 700.316406 486.964844 700.234375 486.800781 C 699.042969 484.328125 696.046875 483.277344 693.539062 484.453125 C 691.03125 485.625 689.96875 488.585938 691.15625 491.050781 C 692.347656 493.523438 695.347656 494.574219 697.855469 493.398438 "
       id="path914" />
    <path
       style=" stroke:none;fill-rule:nonzero;fill:rgb(78.823531%,31.37255%,49.411765%);fill-opacity:1;"
       d="M 709.800781 416.285156 C 711.195312 415.632812 712.105469 414.371094 712.351562 412.972656 L 721.902344 409.722656 L 722.238281 409.609375 C 721.8125 407.300781 721.40625 405.414062 721.066406 403.945312 L 720.839844 404.023438 L 710.445312 408.484375 C 709.554688 407.875 708.449219 407.589844 707.351562 407.710938 C 706.277344 408.359375 705.136719 409.050781 703.972656 409.765625 C 703.148438 411.039062 702.976562 412.683594 703.683594 414.140625 C 704.773438 416.394531 707.507812 417.355469 709.800781 416.285156 "
       id="path916" />
    <path
       style=" stroke:none;fill-rule:nonzero;fill:rgb(63.137257%,34.509805%,63.529414%);fill-opacity:1;"
       d="M 708.152344 428.796875 C 709.339844 428.238281 710.203125 427.277344 710.640625 426.15625 L 723.96875 423.390625 L 724.21875 423.371094 C 724.015625 421.472656 723.800781 419.65625 723.574219 417.992188 L 723.25 418.085938 L 710.164062 421.695312 C 708.824219 419.6875 706.160156 418.910156 703.898438 419.972656 C 701.421875 421.132812 700.375 424.046875 701.550781 426.480469 C 702.726562 428.917969 705.679688 429.953125 708.152344 428.796875 "
       id="path918" />
    <path
       style=" stroke:none;fill-rule:nonzero;fill:rgb(95.294118%,66.274512%,37.254903%);fill-opacity:1;"
       d="M 725.378906 437.59375 C 725.257812 435.511719 725.132812 433.511719 724.984375 431.609375 L 724.863281 431.65625 L 708.613281 434.703125 C 707.34375 432.542969 704.582031 431.671875 702.257812 432.761719 C 699.808594 433.910156 698.769531 436.789062 699.933594 439.203125 C 701.097656 441.617188 704.027344 442.636719 706.46875 441.492188 C 707.472656 441.023438 708.238281 440.261719 708.71875 439.359375 L 725.324219 437.542969 Z M 725.378906 437.59375 "
       id="path920" />
    <path
       style=" stroke:none;fill-rule:nonzero;fill:rgb(29.411766%,70.980394%,65.882355%);fill-opacity:1;"
       d="M 818.863281 273.976562 C 818.808594 274.101562 818.761719 274.234375 818.710938 274.355469 L 818.703125 274.351562 C 818.019531 276 817.320312 277.667969 816.597656 279.363281 C 804.125 308.410156 793.003906 326.21875 774.285156 344.34375 C 772.136719 346.523438 769.957031 348.621094 767.765625 350.628906 L 767.660156 350.53125 C 766.023438 352.007812 764.398438 353.445312 762.789062 354.835938 L 762.898438 354.941406 C 760.476562 357.015625 758.035156 359.011719 755.570312 360.933594 L 755.554688 360.910156 C 738.707031 374.59375 725.195312 382.65625 725.195312 382.65625 C 725.195312 382.65625 725.113281 382.4375 724.972656 382.023438 C 724.882812 382.082031 724.785156 382.148438 724.691406 382.207031 C 724.339844 380.617188 724.023438 379.097656 723.6875 377.546875 C 722.199219 371.90625 719.769531 361.1875 717.140625 343.386719 C 713.234375 316.929688 712.128906 305.957031 714.582031 287.511719 C 717.617188 264.707031 730.808594 253.128906 742.632812 247.683594 C 745.316406 246.449219 748.148438 245.320312 751.058594 244.242188 L 750.726562 244.097656 C 752.5 243.410156 754.34375 242.746094 756.253906 242.117188 L 756.675781 242.28125 C 759.9375 241.210938 763.296875 240.210938 766.765625 239.285156 L 766.398438 239.136719 C 769.109375 238.429688 771.925781 237.75 774.851562 237.097656 L 775.1875 237.179688 C 780.5 235.949219 785.960938 234.808594 791.546875 233.746094 C 809.683594 230.316406 834.726562 226.632812 834.726562 226.632812 C 834.726562 226.632812 829.992188 246.921875 818.863281 273.976562 M 725.75 446.507812 C 726.605469 478.035156 721.742188 499.085938 714.644531 519.339844 C 713.148438 523.597656 711.445312 527.769531 709.644531 531.828125 C 709.355469 532.484375 709.09375 533.195312 708.804688 533.84375 L 708.75 533.824219 C 708.015625 535.433594 707.265625 537.019531 706.503906 538.578125 L 706.582031 538.613281 C 705.070312 541.734375 703.527344 544.746094 701.957031 547.632812 L 701.859375 547.585938 C 700.925781 549.300781 699.996094 550.96875 699.085938 552.566406 L 699.164062 552.605469 C 697.488281 555.507812 695.800781 558.289062 694.125 560.941406 L 694.097656 560.921875 C 689.09375 568.964844 685.390625 573.96875 685.390625 573.96875 C 685.390625 573.96875 678.855469 568.542969 663.738281 546.308594 C 660.710938 541.859375 658.101562 537.632812 655.710938 533.503906 L 654.992188 533.160156 C 654.808594 532.792969 654.632812 532.445312 654.480469 532.113281 C 653.8125 530.660156 653.164062 529.21875 652.53125 527.800781 L 652.558594 527.8125 C 645.105469 513.671875 641.214844 500.972656 639.949219 487.890625 C 639.832031 486.457031 639.769531 485.058594 639.777344 483.6875 L 639.804688 483.691406 C 639.5 467.257812 646.796875 454.597656 655.160156 446.074219 C 657.421875 443.773438 659.664062 441.601562 661.941406 439.480469 L 661.410156 439.542969 C 662.351562 438.648438 663.320312 437.765625 664.308594 436.890625 L 664.929688 436.773438 C 667.835938 434.1875 670.867188 431.6875 674.089844 429.21875 L 673.789062 429.273438 C 675.066406 428.332031 676.371094 427.390625 677.699219 426.457031 L 677.871094 426.40625 C 682.023438 423.40625 686.511719 420.410156 691.632812 417.285156 C 695.625 414.789062 699.753906 412.28125 703.988281 409.722656 C 703.980469 409.734375 703.980469 409.753906 703.96875 409.765625 C 705.140625 409.050781 706.277344 408.355469 707.351562 407.703125 L 707.339844 407.703125 C 711.484375 405.199219 715.722656 402.648438 720.015625 400 C 720.015625 400 724.894531 414.894531 725.75 446.507812 M 979.734375 54.550781 L 979.695312 54.484375 C 983.503906 53.953125 986.960938 53.59375 990.148438 53.308594 C 1000.09375 52.304688 1007.292969 52.054688 1007.300781 52.054688 L 1002.722656 36.664062 C 1000.394531 36.476562 875.613281 27.125 842.414062 187.289062 C 842.101562 187.378906 841.785156 187.5 841.480469 187.640625 C 838.386719 189.089844 837.070312 192.742188 838.539062 195.792969 C 838.984375 196.703125 839.625 197.460938 840.394531 198.039062 C 840.101562 199.71875 839.800781 201.386719 839.527344 203.109375 C 837.34375 200.226562 833.339844 199.164062 829.921875 200.765625 C 826.742188 202.253906 825.054688 205.589844 825.546875 208.851562 C 824.445312 208.859375 823.332031 209.101562 822.269531 209.597656 C 819.074219 211.09375 817.386719 214.449219 817.902344 217.726562 C 816.808594 217.898438 815.722656 218.066406 814.640625 218.234375 C 813.171875 216.363281 810.527344 215.679688 808.265625 216.738281 C 806.953125 217.355469 806.015625 218.441406 805.578125 219.699219 C 720.667969 233.820312 691.164062 251.699219 710.648438 357.070312 L 716.957031 387.125 L 708.472656 392.53125 C 708.492188 392.53125 708.519531 392.53125 708.539062 392.53125 C 706.683594 393.730469 704.820312 394.949219 702.957031 396.195312 C 702.929688 396.164062 702.890625 396.144531 702.859375 396.113281 L 696.4375 400.210938 C 696.464844 400.28125 696.460938 400.355469 696.492188 400.425781 C 696.511719 400.46875 696.53125 400.507812 696.550781 400.539062 C 685.988281 407.859375 675.316406 416.058594 664.652344 426.105469 C 608.207031 473.84375 632.265625 507.015625 661.726562 555.484375 L 661.726562 555.480469 L 679.109375 582.730469 C 678.660156 583.34375 678.226562 583.949219 677.796875 584.546875 L 677.792969 584.535156 L 674.777344 588.679688 L 674.804688 588.730469 C 673.917969 589.988281 673.085938 591.195312 672.320312 592.351562 L 672.296875 592.300781 C 672.3125 592.230469 672.296875 592.152344 672.308594 592.082031 L 668.53125 597.277344 L 668.832031 598.125 L 668.742188 598.292969 L 672.996094 608.710938 C 688.8125 585.1875 751.660156 515.480469 727.601562 395.25 C 774.117188 365.699219 825.191406 323.4375 843.125 225.273438 L 843.125 225.269531 C 851.957031 223.824219 861.253906 222.25 871.054688 220.476562 C 927.203125 213.769531 985.40625 185.296875 1022.566406 148.332031 C 1031.355469 140.464844 1041.996094 129.988281 1045.984375 126.273438 L 1041.734375 117.460938 C 1041.726562 117.464844 1026.738281 134.203125 1003.367188 152.722656 L 1003.378906 152.734375 C 1000.0625 155.53125 996.636719 158.25 993.097656 160.878906 L 992.96875 160.644531 C 990.996094 162.078125 988.988281 163.515625 986.933594 164.945312 L 987.070312 165.207031 C 983.855469 167.4375 980.5625 169.601562 977.199219 171.6875 L 977.09375 171.5 C 975.035156 172.8125 972.941406 174.105469 970.820312 175.371094 L 970.875 175.484375 C 969.597656 176.226562 968.273438 176.90625 966.980469 177.625 C 966.027344 178.175781 965.078125 178.726562 964.113281 179.261719 C 958.453125 182.421875 952.4375 185.34375 946.253906 188.035156 C 945.671875 188.292969 945.105469 188.582031 944.519531 188.839844 L 944.492188 188.78125 C 942.230469 189.75 939.953125 190.695312 937.664062 191.597656 L 937.722656 191.722656 C 933.941406 193.261719 930.121094 194.726562 926.265625 196.109375 L 926.15625 195.871094 C 923.820312 196.6875 921.484375 197.480469 919.167969 198.238281 L 919.285156 198.515625 C 915.683594 199.707031 912.058594 200.824219 908.414062 201.871094 L 908.308594 201.617188 C 905.90625 202.324219 903.535156 203.003906 901.210938 203.652344 L 901.277344 203.824219 C 899.144531 204.375 896.992188 204.855469 894.855469 205.363281 C 871.375 211.515625 853.433594 214.28125 853.433594 214.28125 L 850.476562 192.355469 L 850.476562 192.351562 C 850.484375 192.328125 852.035156 181.828125 862.421875 156.28125 L 862.375 156.160156 C 863.425781 153.488281 864.496094 150.886719 865.570312 148.339844 L 865.648438 148.542969 C 867.097656 145.140625 868.683594 141.519531 870.421875 137.671875 L 870.371094 137.535156 C 871.285156 135.566406 872.203125 133.632812 873.132812 131.714844 C 873.132812 131.707031 873.136719 131.703125 873.140625 131.695312 C 874.78125 128.140625 876.460938 124.835938 878.152344 121.644531 C 878.621094 120.734375 879.085938 119.835938 879.554688 118.929688 C 880.253906 117.582031 880.976562 116.25 881.71875 114.941406 L 881.789062 115.085938 C 883.421875 112.292969 885.085938 109.679688 886.773438 107.179688 L 886.671875 106.964844 C 888.421875 104.386719 890.253906 101.90625 892.164062 99.527344 L 892.230469 99.664062 C 904.058594 84.507812 916.875 75.386719 930.683594 68.808594 C 931.226562 68.539062 931.753906 68.226562 932.308594 67.960938 L 932.347656 68.027344 C 935.117188 66.757812 937.929688 65.566406 940.785156 64.453125 L 940.707031 64.320312 C 943 63.414062 945.324219 62.578125 947.679688 61.808594 C 948.574219 61.515625 949.464844 61.230469 950.347656 60.957031 L 950.355469 60.953125 C 956.242188 58.941406 962.917969 57.382812 969.578125 56.164062 C 969.800781 56.121094 970.035156 56.066406 970.257812 56.023438 L 970.265625 56.046875 C 973.46875 55.46875 976.644531 54.972656 979.734375 54.550781 "
       id="path922" />
    <path
       style=" stroke:none;fill-rule:nonzero;fill:rgb(71.372551%,81.568629%,84.313726%);fill-opacity:1;"
       d="M 676.28125 580.996094 L 677.796875 584.53125 L 679.109375 582.726562 L 676.902344 579.726562 C 676.765625 580.175781 676.554688 580.605469 676.28125 580.996094 "
       id="path924" />
    <path
       style=" stroke:none;fill-rule:nonzero;fill:rgb(63.137257%,34.509805%,63.529414%);fill-opacity:1;"
       d="M 676.28125 580.996094 C 676.554688 580.605469 676.765625 580.175781 676.902344 579.726562 L 679.109375 582.726562 L 661.726562 555.484375 C 663.246094 557.996094 664.78125 560.53125 666.324219 563.125 C 664.742188 564.484375 664.199219 566.765625 665.144531 568.726562 C 666.203125 570.917969 668.746094 571.941406 671.027344 571.175781 C 671.46875 571.945312 671.90625 572.714844 672.347656 573.488281 C 671.667969 573.484375 670.980469 573.628906 670.328125 573.929688 C 668.023438 575.011719 667.039062 577.734375 668.136719 580.007812 C 668.167969 580.066406 668.195312 580.117188 668.222656 580.175781 C 668.25 580.234375 668.277344 580.292969 668.304688 580.355469 C 669.039062 581.878906 670.523438 582.816406 672.117188 582.941406 L 674.78125 588.679688 L 677.796875 584.53125 Z M 676.28125 580.996094 "
       id="path926" />
    <path
       style=" stroke:none;fill-rule:nonzero;fill:rgb(78.823531%,31.37255%,49.411765%);fill-opacity:1;"
       d="M 672.050781 590.136719 C 672.027344 590.074219 671.992188 590.019531 671.964844 589.960938 C 671.9375 589.902344 671.910156 589.84375 671.882812 589.785156 C 671.085938 588.125 669.074219 587.417969 667.386719 588.210938 C 665.703125 589 664.984375 590.984375 665.789062 592.644531 C 665.816406 592.703125 665.84375 592.753906 665.878906 592.8125 C 665.902344 592.871094 665.925781 592.929688 665.953125 592.992188 C 666.308594 593.71875 666.894531 594.265625 667.589844 594.578125 L 668.53125 597.277344 L 672.308594 592.078125 C 672.410156 591.4375 672.359375 590.765625 672.050781 590.136719 "
       id="path928" />
    <path
       style=" stroke:none;fill-rule:nonzero;fill:rgb(63.137257%,34.509805%,63.529414%);fill-opacity:1;"
       d="M 698.351562 395.277344 C 696.464844 396.160156 695.664062 398.328125 696.4375 400.210938 L 702.859375 396.117188 C 701.722656 394.9375 699.917969 394.539062 698.351562 395.277344 "
       id="path930" />
    <path
       style=" stroke:none;fill-rule:nonzero;fill:rgb(95.294118%,66.274512%,37.254903%);fill-opacity:1;"
       d="M 710.714844 386.640625 C 709.648438 385.085938 707.554688 384.484375 705.78125 385.320312 C 703.828125 386.234375 702.996094 388.539062 703.925781 390.464844 C 704.746094 392.179688 706.683594 393.007812 708.476562 392.53125 L 716.957031 387.121094 L 716.828125 387.203125 Z M 710.714844 386.640625 "
       id="path932" />
    <path
       style=" stroke:none;fill-rule:nonzero;fill:rgb(78.823531%,31.37255%,49.411765%);fill-opacity:1;"
       d="M 709.574219 362.972656 C 710.148438 364.164062 711.128906 365.039062 712.28125 365.511719 C 712.636719 367.300781 713.007812 369.113281 713.390625 370.953125 C 712.664062 370.960938 711.925781 371.125 711.226562 371.449219 C 708.621094 372.671875 707.515625 375.742188 708.75 378.308594 C 709.964844 380.816406 712.960938 381.917969 715.527344 380.832031 C 715.988281 382.898438 716.464844 384.996094 716.953125 387.125 L 710.648438 357.074219 C 709.089844 358.566406 708.589844 360.929688 709.574219 362.972656 "
       id="path934" />
    <path
       style=" stroke:none;fill-rule:nonzero;fill:rgb(63.137257%,34.509805%,63.529414%);fill-opacity:1;"
       d="M 728.246094 365.503906 C 726.886719 362.691406 723.484375 361.480469 720.621094 362.78125 L 720.433594 362.917969 C 721.128906 366.515625 721.785156 369.601562 722.363281 372.132812 L 722.953125 373.632812 L 723.066406 373.632812 L 726.066406 381.332031 C 726.035156 381.34375 726.011719 381.363281 725.988281 381.378906 L 726.234375 382.019531 C 727.285156 381.363281 729.109375 380.214844 731.554688 378.59375 L 731.28125 377.976562 C 731.277344 377.984375 731.261719 377.988281 731.253906 377.996094 L 728.101562 370.667969 C 728.953125 369.125 729.070312 367.210938 728.246094 365.503906 "
       id="path936" />
    <path
       style=" stroke:none;fill-rule:nonzero;fill:rgb(95.294118%,66.274512%,37.254903%);fill-opacity:1;"
       d="M 718.960938 354.839844 L 719.304688 354.84375 C 719.40625 354.800781 719.503906 354.765625 719.597656 354.722656 C 722.203125 353.503906 723.3125 350.429688 722.074219 347.867188 C 721.1875 346.019531 719.328125 344.9375 717.390625 344.921875 C 717.304688 344.410156 717.222656 343.894531 717.140625 343.386719 C 717.761719 347.601562 718.371094 351.390625 718.960938 354.839844 "
       id="path938" />
    <path
       style=" stroke:none;fill-rule:nonzero;fill:rgb(95.294118%,66.274512%,37.254903%);fill-opacity:1;"
       d="M 740.886719 365.535156 L 736.933594 359.304688 C 737.410156 358.078125 737.394531 356.671875 736.78125 355.390625 C 735.578125 352.910156 732.570312 351.859375 730.054688 353.039062 C 727.539062 354.214844 726.46875 357.183594 727.664062 359.664062 C 728.441406 361.269531 729.96875 362.273438 731.640625 362.464844 L 735.3125 368.371094 L 738.679688 373.710938 C 740.242188 372.605469 741.90625 371.40625 743.664062 370.113281 Z M 740.886719 365.535156 "
       id="path940" />
    <path
       style=" stroke:none;fill-rule:nonzero;fill:rgb(72.156864%,45.490196%,20%);fill-opacity:1;"
       d="M 738.644531 373.730469 L 731.613281 378.554688 C 733.59375 377.238281 735.957031 375.636719 738.644531 373.730469 "
       id="path942" />
    <path
       style=" stroke:none;fill-rule:nonzero;fill:rgb(78.823531%,31.37255%,49.411765%);fill-opacity:1;"
       d="M 745.234375 344.746094 C 743.941406 342.0625 740.6875 340.929688 737.972656 342.199219 C 735.253906 343.472656 734.097656 346.675781 735.390625 349.355469 C 736.492188 351.640625 739.019531 352.804688 741.429688 352.304688 L 751.242188 364.238281 L 751.292969 364.308594 C 752.683594 363.210938 754.101562 362.089844 755.554688 360.910156 L 745.664062 348.0625 C 745.875 346.972656 745.75 345.8125 745.234375 344.746094 "
       id="path944" />
    <path
       style=" stroke:none;fill-rule:nonzero;fill:rgb(47.058824%,54.901963%,74.117649%);fill-opacity:1;"
       d="M 730.589844 299.832031 L 714.582031 287.511719 C 714.230469 290.171875 713.957031 292.664062 713.753906 295.082031 L 726.8125 305.089844 C 726.855469 305.730469 727.015625 306.375 727.308594 306.988281 C 728.550781 309.554688 731.664062 310.652344 734.269531 309.429688 C 736.875 308.210938 737.984375 305.136719 736.746094 302.574219 C 735.632812 300.261719 733 299.144531 730.589844 299.832031 "
       id="path946" />
    <path
       style=" stroke:none;fill-rule:nonzero;fill:rgb(95.294118%,66.274512%,37.254903%);fill-opacity:1;"
       d="M 725.941406 310.722656 L 718.824219 303.878906 L 718.824219 303.871094 L 713.550781 298.792969 L 713.550781 298.746094 L 713.488281 298.683594 C 713.316406 301.703125 713.253906 304.652344 713.308594 307.644531 L 713.492188 307.773438 L 722.210938 316.121094 C 722.261719 316.71875 722.421875 317.304688 722.695312 317.871094 C 723.9375 320.4375 727.046875 321.527344 729.652344 320.3125 C 732.257812 319.089844 733.371094 316.023438 732.128906 313.453125 C 731.011719 311.132812 728.367188 310.019531 725.941406 310.722656 "
       id="path948" />
    <path
       style=" stroke:none;fill-rule:nonzero;fill:rgb(63.137257%,34.509805%,63.529414%);fill-opacity:1;"
       d="M 734.859375 288.910156 L 717.191406 276.351562 L 717.136719 276.324219 C 716.441406 278.417969 715.839844 280.628906 715.359375 282.980469 L 720.496094 286.667969 L 731.347656 294.347656 C 731.371094 295.117188 731.554688 295.886719 731.910156 296.621094 C 733.289062 299.472656 736.75 300.6875 739.644531 299.328125 C 742.542969 297.972656 743.773438 294.558594 742.394531 291.707031 C 741.050781 288.917969 737.710938 287.699219 734.859375 288.910156 "
       id="path950" />
    <path
       style=" stroke:none;fill-rule:nonzero;fill:rgb(95.294118%,66.274512%,37.254903%);fill-opacity:1;"
       d="M 742.3125 278.765625 L 721.519531 266.660156 L 721.5 266.640625 C 720.433594 268.453125 719.449219 270.386719 718.570312 272.46875 L 718.621094 272.496094 L 738.660156 284.109375 C 738.714844 284.714844 738.875 285.3125 739.148438 285.890625 C 740.390625 288.457031 743.503906 289.550781 746.109375 288.328125 C 748.714844 287.109375 749.820312 284.039062 748.585938 281.46875 C 747.453125 279.125 744.753906 278.011719 742.3125 278.765625 "
       id="path952" />
    <path
       style=" stroke:none;fill-rule:nonzero;fill:rgb(63.137257%,34.509805%,63.529414%);fill-opacity:1;"
       d="M 756.292969 259.378906 C 756.074219 259.476562 755.867188 259.59375 755.667969 259.714844 L 738.40625 250.023438 L 738.425781 249.875 C 736.363281 251.074219 734.304688 252.480469 732.300781 254.105469 L 732.445312 254.136719 L 753.203125 265.734375 C 753.292969 266.105469 753.425781 266.480469 753.601562 266.835938 C 754.945312 269.632812 758.339844 270.816406 761.167969 269.492188 C 764.003906 268.167969 765.210938 264.824219 763.863281 262.027344 C 762.515625 259.238281 759.125 258.046875 756.292969 259.378906 "
       id="path954" />
    <path
       style=" stroke:none;fill-rule:nonzero;fill:rgb(47.058824%,54.901963%,74.117649%);fill-opacity:1;"
       d="M 747.777344 268.695312 C 747.703125 268.734375 747.628906 268.765625 747.5625 268.804688 L 734.628906 261.273438 L 728.34375 257.707031 C 726.867188 259.214844 725.449219 260.871094 724.121094 262.683594 L 724.136719 262.6875 L 744.507812 274.496094 C 744.582031 275.109375 744.75 275.714844 745.035156 276.296875 C 746.40625 279.144531 749.863281 280.355469 752.75 279.003906 C 755.632812 277.648438 756.863281 274.246094 755.492188 271.398438 C 754.117188 268.554688 750.664062 267.339844 747.777344 268.695312 "
       id="path956" />
    <path
       style=" stroke:none;fill-rule:nonzero;fill:rgb(63.137257%,34.509805%,63.529414%);fill-opacity:1;"
       d="M 834.144531 228.738281 L 826.96875 227.875 C 829.507812 227.472656 832.09375 227.054688 834.726562 226.636719 C 834.726562 226.636719 824.707031 228.109375 812.757812 230.058594 L 812.746094 230.152344 C 812.683594 231.089844 812.855469 232.050781 813.289062 232.960938 C 814.652344 235.78125 818.070312 236.980469 820.9375 235.640625 C 821.882812 235.195312 822.644531 234.535156 823.199219 233.75 L 832.328125 235.109375 L 832.453125 235.113281 C 833.992188 229.746094 834.726562 226.636719 834.726562 226.636719 C 834.53125 227.339844 834.339844 228.039062 834.144531 228.738281 "
       id="path958" />
    <path
       style=" stroke:none;fill-rule:nonzero;fill:rgb(78.823531%,31.37255%,49.411765%);fill-opacity:1;"
       d="M 829.445312 244.59375 L 816.613281 241.222656 C 816.546875 241.039062 816.472656 240.855469 816.382812 240.667969 C 815.0625 237.941406 811.75 236.777344 808.976562 238.074219 C 806.203125 239.375 805.023438 242.640625 806.347656 245.371094 C 807.660156 248.105469 810.976562 249.265625 813.75 247.96875 C 814.398438 247.664062 814.960938 247.253906 815.417969 246.765625 L 826.230469 249.59375 L 827.839844 249.910156 C 828.46875 248.035156 829.050781 246.25 829.589844 244.5625 Z M 829.445312 244.59375 "
       id="path960" />
    <path
       style=" stroke:none;fill-rule:nonzero;fill:rgb(95.294118%,66.274512%,37.254903%);fill-opacity:1;"
       d="M 824.601562 259.164062 L 824.542969 259.164062 L 808.582031 253.796875 C 808.496094 253.488281 808.390625 253.183594 808.242188 252.894531 C 806.996094 250.300781 803.855469 249.199219 801.226562 250.433594 C 798.597656 251.660156 797.480469 254.757812 798.730469 257.34375 C 799.980469 259.9375 803.121094 261.035156 805.75 259.804688 C 805.910156 259.730469 806.074219 259.640625 806.226562 259.554688 L 822.210938 265.507812 C 821.109375 268.414062 819.988281 271.226562 818.863281 273.976562 C 821.011719 268.75 822.914062 263.785156 824.601562 259.164062 "
       id="path962" />
    <path
       style=" stroke:none;fill-rule:nonzero;fill:rgb(95.294118%,66.274512%,37.254903%);fill-opacity:1;"
       d="M 801.019531 234.148438 C 802.160156 233.609375 803.015625 232.71875 803.511719 231.667969 L 803.511719 231.601562 C 799.417969 232.304688 795.332031 233.035156 791.546875 233.75 C 792.707031 233.539062 793.871094 233.328125 795.0625 233.121094 C 796.578125 234.636719 798.957031 235.113281 801.019531 234.148438 "
       id="path964" />
    <path
       style=" stroke:none;fill-rule:nonzero;fill:rgb(78.823531%,31.37255%,49.411765%);fill-opacity:1;"
       d="M 790.464844 284.089844 C 790.542969 284.050781 790.621094 284.011719 790.695312 283.972656 L 808.066406 293.097656 L 809.933594 293.925781 C 810.78125 292.167969 811.632812 290.433594 812.484375 288.585938 L 812.386719 288.632812 L 793.539062 278.652344 C 793.476562 278.074219 793.308594 277.5 793.042969 276.945312 C 791.753906 274.265625 788.507812 273.132812 785.792969 274.402344 C 783.078125 275.675781 781.921875 278.871094 783.214844 281.546875 C 784.503906 284.21875 787.75 285.359375 790.464844 284.089844 "
       id="path966" />
    <path
       style=" stroke:none;fill-rule:nonzero;fill:rgb(95.294118%,66.274512%,37.254903%);fill-opacity:1;"
       d="M 782.390625 295.484375 L 802.296875 307.667969 L 802.671875 307.890625 C 803.65625 306.167969 804.609375 304.324219 805.570312 302.523438 L 805.308594 302.402344 L 785.542969 291.027344 C 785.617188 290.113281 785.453125 289.160156 785.027344 288.261719 C 783.726562 285.5625 780.457031 284.417969 777.714844 285.703125 C 774.984375 286.988281 773.820312 290.210938 775.121094 292.902344 C 776.410156 295.59375 779.664062 296.734375 782.390625 295.484375 "
       id="path968" />
    <path
       style=" stroke:none;fill-rule:nonzero;fill:rgb(95.294118%,66.274512%,37.254903%);fill-opacity:1;"
       d="M 778.355469 340.089844 L 762.289062 326.019531 C 762.425781 325.011719 762.28125 323.957031 761.808594 322.972656 C 760.511719 320.285156 757.25 319.144531 754.519531 320.421875 C 751.792969 321.699219 750.632812 324.917969 751.929688 327.601562 C 753.039062 329.898438 755.585938 331.070312 758.003906 330.558594 L 774.285156 344.34375 C 775.742188 342.9375 777.078125 341.519531 778.449219 340.105469 Z M 778.355469 340.089844 "
       id="path970" />
    <path
       style=" stroke:none;fill-rule:nonzero;fill:rgb(78.823531%,31.37255%,49.411765%);fill-opacity:1;"
       d="M 766.929688 319.15625 C 766.953125 319.144531 766.976562 319.132812 767 319.121094 L 784.90625 332.585938 L 785.160156 332.769531 C 786.347656 331.386719 787.515625 329.980469 788.644531 328.566406 L 788.304688 328.34375 L 769.945312 314.550781 C 769.960938 313.765625 769.800781 312.964844 769.433594 312.207031 C 768.179688 309.609375 765.023438 308.503906 762.386719 309.746094 C 759.746094 310.976562 758.625 314.089844 759.882812 316.6875 C 761.132812 319.289062 764.292969 320.394531 766.929688 319.15625 "
       id="path972" />
    <path
       style=" stroke:none;fill-rule:nonzero;fill:rgb(63.137257%,34.509805%,63.529414%);fill-opacity:1;"
       d="M 774.425781 307.183594 L 774.476562 307.164062 L 794.074219 320.484375 L 794.492188 320.738281 C 795.679688 319.039062 796.875 317.335938 798.019531 315.5625 L 797.472656 315.441406 L 777.234375 302.476562 C 777.195312 301.878906 777.039062 301.28125 776.765625 300.707031 C 775.59375 298.28125 772.648438 297.25 770.191406 298.40625 C 767.730469 299.554688 766.679688 302.457031 767.851562 304.878906 C 769.023438 307.304688 771.96875 308.335938 774.425781 307.183594 "
       id="path974" />
    <path
       style=" stroke:none;fill-rule:nonzero;fill:rgb(47.058824%,54.901963%,74.117649%);fill-opacity:1;"
       d="M 720.25 334.238281 L 714.859375 326.023438 L 714.734375 325.960938 C 715.347656 331.035156 716.15625 336.71875 717.140625 343.386719 C 718.65625 344.59375 720.792969 344.90625 722.664062 344.027344 C 725.269531 342.8125 726.378906 339.738281 725.144531 337.171875 C 724.21875 335.261719 722.265625 334.175781 720.25 334.238281 "
       id="path976" />
    <path
       style=" stroke:none;fill-rule:nonzero;fill:rgb(63.137257%,34.509805%,63.529414%);fill-opacity:1;"
       d="M 722.738281 321.996094 L 713.675781 312.585938 L 713.675781 312.542969 L 713.46875 312.324219 C 713.648438 315.625 713.953125 319.089844 714.375 322.875 L 714.460938 322.992188 L 714.4375 322.75 L 717.925781 326.359375 C 717.6875 327.496094 717.808594 328.714844 718.355469 329.847656 C 719.683594 332.597656 723.023438 333.765625 725.8125 332.457031 C 728.601562 331.152344 729.796875 327.855469 728.46875 325.105469 C 727.40625 322.90625 725.0625 321.714844 722.738281 321.996094 "
       id="path978" />
    <path
       style=" stroke:none;fill-rule:nonzero;fill:rgb(78.823531%,31.37255%,49.411765%);fill-opacity:1;"
       d="M 864.5625 210.820312 L 864.917969 212.210938 C 867.070312 211.789062 869.476562 211.300781 872.109375 210.746094 L 871.828125 209.835938 L 868.882812 198.03125 C 871.707031 195.863281 872.726562 191.984375 871.128906 188.664062 C 869.273438 184.820312 864.617188 183.195312 860.726562 185.019531 C 856.832031 186.84375 855.175781 191.429688 857.023438 195.265625 C 858.023438 197.339844 859.835938 198.765625 861.90625 199.355469 Z M 864.5625 210.820312 "
       id="path980" />
    <path
       style=" stroke:none;fill-rule:nonzero;fill:rgb(95.294118%,66.274512%,37.254903%);fill-opacity:1;"
       d="M 854.34375 212.316406 L 853.34375 206.007812 C 856.273438 203.859375 857.355469 199.910156 855.726562 196.535156 C 854.667969 194.34375 852.699219 192.875 850.476562 192.355469 L 853.433594 214.277344 C 853.433594 214.277344 853.90625 214.210938 854.714844 214.070312 Z M 854.34375 212.316406 "
       id="path982" />
    <path
       style=" stroke:none;fill-rule:nonzero;fill:rgb(63.137257%,34.509805%,63.529414%);fill-opacity:1;"
       d="M 876.125 177.144531 C 872.234375 178.96875 870.578125 183.554688 872.425781 187.398438 C 873.527344 189.679688 875.632812 191.1875 877.976562 191.640625 L 883.511719 207.839844 L 883.660156 208.152344 C 887.207031 207.3125 890.941406 206.386719 894.851562 205.363281 C 893.488281 205.683594 892.132812 206.042969 890.765625 206.34375 L 884.78125 189.742188 C 887.226562 187.515625 888.03125 183.90625 886.53125 180.792969 C 884.679688 176.949219 880.019531 175.316406 876.125 177.144531 "
       id="path984" />
    <path
       style=" stroke:none;fill-rule:nonzero;fill:rgb(63.137257%,34.509805%,63.529414%);fill-opacity:1;"
       d="M 855.335938 175.132812 C 851.265625 187.109375 850.480469 192.332031 850.476562 192.351562 C 850.910156 190.746094 851.34375 189.160156 851.789062 187.601562 C 852.839844 187.683594 853.929688 187.503906 854.953125 187.027344 C 858.050781 185.574219 859.367188 181.925781 857.894531 178.878906 C 857.40625 177.875 856.683594 177.058594 855.816406 176.46875 L 855.515625 175.296875 Z M 855.335938 175.132812 "
       id="path986" />
    <path
       style=" stroke:none;fill-rule:nonzero;fill:rgb(63.137257%,34.509805%,63.529414%);fill-opacity:1;"
       d="M 862.421875 156.28125 C 860.074219 162.050781 858.203125 167.015625 856.675781 171.296875 L 856.769531 171.519531 C 858.296875 174.4375 861.910156 175.652344 864.9375 174.230469 C 868.035156 172.78125 869.355469 169.132812 867.878906 166.082031 C 867.230469 164.734375 866.148438 163.730469 864.871094 163.15625 Z M 862.421875 156.28125 "
       id="path988" />
    <path
       style=" stroke:none;fill-rule:nonzero;fill:rgb(95.294118%,66.274512%,37.254903%);fill-opacity:1;"
       d="M 902.085938 120.402344 C 901.1875 122.226562 901.101562 124.425781 902.054688 126.402344 C 903.722656 129.847656 907.902344 131.316406 911.398438 129.675781 C 914.894531 128.039062 916.386719 123.914062 914.71875 120.472656 C 913.539062 118.019531 911.074219 116.5625 908.492188 116.527344 L 897.507812 93.402344 C 895.726562 95.378906 893.964844 97.4375 892.230469 99.660156 Z M 902.085938 120.402344 "
       id="path990" />
    <path
       style=" stroke:none;fill-rule:nonzero;fill:rgb(72.156864%,45.490196%,20%);fill-opacity:1;"
       d="M 897.507812 93.402344 C 897.738281 93.152344 897.96875 92.914062 898.203125 92.660156 C 897.96875 92.90625 897.722656 93.128906 897.488281 93.371094 Z M 897.507812 93.402344 "
       id="path992" />
    <path
       style=" stroke:none;fill-rule:nonzero;fill:rgb(47.058824%,54.901963%,74.117649%);fill-opacity:1;"
       d="M 910.410156 81.269531 C 906.234375 84.554688 902.167969 88.335938 898.203125 92.660156 C 899.890625 90.878906 901.601562 89.144531 903.378906 87.496094 L 915.222656 110.859375 C 914.351562 112.742188 914.296875 114.980469 915.269531 116.996094 C 917.011719 120.613281 921.402344 122.148438 925.074219 120.433594 C 928.742188 118.710938 930.304688 114.386719 928.558594 110.765625 C 927.523438 108.617188 925.554688 107.207031 923.359375 106.773438 L 910.511719 81.429688 Z M 910.410156 81.269531 "
       id="path994" />
    <path
       style=" stroke:none;fill-rule:nonzero;fill:rgb(63.137257%,34.509805%,63.529414%);fill-opacity:1;"
       d="M 930.683594 68.808594 C 925.976562 71.050781 921.386719 73.625 916.90625 76.601562 L 916.976562 76.722656 L 930.457031 101.625 C 929.628906 103.476562 929.59375 105.652344 930.542969 107.625 C 932.273438 111.214844 936.632812 112.742188 940.277344 111.035156 C 943.921875 109.324219 945.472656 105.035156 943.742188 101.441406 C 942.707031 99.304688 940.746094 97.898438 938.554688 97.46875 L 924.726562 71.917969 C 926.671875 70.816406 928.675781 69.808594 930.683594 68.808594 "
       id="path996" />
    <path
       style=" stroke:none;fill-rule:nonzero;fill:rgb(47.058824%,54.901963%,74.117649%);fill-opacity:1;"
       d="M 959.347656 58.351562 C 956.230469 59.121094 953.195312 59.980469 950.351562 60.953125 L 963.335938 84.789062 C 962.5625 86.722656 962.574219 88.949219 963.546875 90.972656 C 965.417969 94.851562 970.117188 96.5 974.054688 94.65625 C 977.988281 92.8125 979.652344 88.179688 977.789062 84.300781 C 976.492188 81.613281 973.832031 79.996094 971.015625 79.875 L 959.34375 58.429688 Z M 959.347656 58.351562 "
       id="path998" />
    <path
       style=" stroke:none;fill-rule:nonzero;fill:rgb(78.823531%,31.37255%,49.411765%);fill-opacity:1;"
       d="M 1018.492188 138.976562 L 1018.957031 139.632812 C 1021.109375 137.722656 1023.117188 135.890625 1025.003906 134.136719 L 1024.667969 133.492188 L 1014.375 117.742188 C 1015.945312 115.546875 1016.300781 112.597656 1015.046875 109.996094 C 1013.195312 106.160156 1008.539062 104.527344 1004.644531 106.351562 C 1000.75 108.179688 999.09375 112.769531 1000.945312 116.605469 C 1002.164062 119.132812 1004.597656 120.703125 1007.226562 120.964844 Z M 1018.492188 138.976562 "
       id="path1000" />
    <path
       style=" stroke:none;fill-rule:nonzero;fill:rgb(95.294118%,66.274512%,37.254903%);fill-opacity:1;"
       d="M 1009.171875 148.011719 L 1009.003906 147.785156 L 996.859375 127.613281 C 998.296875 125.445312 998.585938 122.617188 997.375 120.105469 C 995.527344 116.269531 990.867188 114.636719 986.972656 116.464844 C 983.078125 118.285156 981.421875 122.871094 983.269531 126.714844 C 984.683594 129.644531 987.738281 131.289062 990.835938 131.085938 L 1003.367188 152.71875 C 1005.378906 151.132812 1007.292969 149.5625 1009.171875 148.011719 "
       id="path1002" />
    <path
       style=" stroke:none;fill-rule:nonzero;fill:rgb(63.137257%,34.509805%,63.529414%);fill-opacity:1;"
       d="M 1021.824219 95.226562 C 1017.933594 97.054688 1016.277344 101.640625 1018.125 105.476562 C 1019.3125 107.933594 1021.652344 109.488281 1024.199219 109.8125 L 1034.449219 124.640625 L 1034.691406 124.804688 C 1039.210938 120.269531 1041.726562 117.464844 1041.730469 117.460938 C 1041.359375 117.878906 1040.933594 118.335938 1040.457031 118.832031 L 1031.957031 105.988281 C 1033.179688 103.875 1033.367188 101.234375 1032.230469 98.875 C 1030.378906 95.027344 1025.714844 93.402344 1021.824219 95.226562 "
       id="path1004" />
    <g
       clip-path="url(#clip1)"
       clip-rule="nonzero"
       id="g1020">
      <g
         style="fill:rgb(100%,100%,100%);fill-opacity:1;"
         id="g1018">
        <use
           xlink:href="#glyph0-1"
           x="588.71875"
           y="288.789401"
           id="use1006" />
        <use
           xlink:href="#glyph0-2"
           x="593.391643"
           y="288.789401"
           id="use1008" />
        <use
           xlink:href="#glyph0-3"
           x="597.288034"
           y="288.789401"
           id="use1010" />
        <use
           xlink:href="#glyph0-4"
           x="601.184425"
           y="288.789401"
           id="use1012" />
        <use
           xlink:href="#glyph0-5"
           x="602.740404"
           y="288.789401"
           id="use1014" />
        <use
           xlink:href="#glyph0-3"
           x="606.636795"
           y="288.789401"
           id="use1016" />
      </g>
    </g>
    <g
       clip-path="url(#clip2)"
       clip-rule="nonzero"
       id="g1038">
      <g
         style="fill:rgb(100%,100%,100%);fill-opacity:1;"
         id="g1036">
        <use
           xlink:href="#glyph0-6"
           x="588.71875"
           y="315.547213"
           id="use1022" />
        <use
           xlink:href="#glyph0-7"
           x="592.997938"
           y="315.547213"
           id="use1024" />
        <use
           xlink:href="#glyph0-8"
           x="596.894329"
           y="315.547213"
           id="use1026" />
        <use
           xlink:href="#glyph0-9"
           x="600.397015"
           y="315.547213"
           id="use1028" />
        <use
           xlink:href="#glyph0-4"
           x="606.232181"
           y="315.547213"
           id="use1030" />
        <use
           xlink:href="#glyph0-5"
           x="607.788159"
           y="315.547213"
           id="use1032" />
        <use
           xlink:href="#glyph0-3"
           x="611.684551"
           y="315.547213"
           id="use1034" />
      </g>
    </g>
    <g
       style="fill:rgb(100%,100%,100%);fill-opacity:1;"
       id="g1056">
      <use
         xlink:href="#glyph0-10"
         x="588.71875"
         y="342.305026"
         id="use1040" />
      <use
         xlink:href="#glyph0-8"
         x="593.777414"
         y="342.305026"
         id="use1042" />
      <use
         xlink:href="#glyph0-11"
         x="597.280101"
         y="342.305026"
         id="use1044" />
      <use
         xlink:href="#glyph0-12"
         x="599.226809"
         y="342.305026"
         id="use1046" />
      <use
         xlink:href="#glyph0-13"
         x="603.1232"
         y="342.305026"
         id="use1048" />
      <use
         xlink:href="#glyph0-4"
         x="606.625886"
         y="342.305026"
         id="use1050" />
      <use
         xlink:href="#glyph0-5"
         x="608.181864"
         y="342.305026"
         id="use1052" />
      <use
         xlink:href="#glyph0-3"
         x="612.078256"
         y="342.305026"
         id="use1054" />
    </g>
    <g
       clip-path="url(#clip3)"
       clip-rule="nonzero"
       id="g1074">
      <g
         style="fill:rgb(100%,100%,100%);fill-opacity:1;"
         id="g1072">
        <use
           xlink:href="#glyph0-14"
           x="588.71875"
           y="369.066745"
           id="use1058" />
        <use
           xlink:href="#glyph0-15"
           x="594.168144"
           y="369.066745"
           id="use1060" />
        <use
           xlink:href="#glyph0-16"
           x="598.064536"
           y="369.066745"
           id="use1062" />
        <use
           xlink:href="#glyph0-5"
           x="601.960927"
           y="369.066745"
           id="use1064" />
        <use
           xlink:href="#glyph0-4"
           x="605.857318"
           y="369.066745"
           id="use1066" />
        <use
           xlink:href="#glyph0-5"
           x="607.413296"
           y="369.066745"
           id="use1068" />
        <use
           xlink:href="#glyph0-3"
           x="611.309688"
           y="369.066745"
           id="use1070" />
      </g>
    </g>
    <path
       style="fill:none;stroke-width:3;stroke-linecap:butt;stroke-linejoin:miter;stroke:rgb(94.901961%,71.372551%,44.313726%);stroke-opacity:1;stroke-miterlimit:10;"
       d="M -0.00145194 0.00121821 L 14.642639 0.00121821 "
       transform="matrix(1.015501,0,0,-1.000787,568.731943,287.286375)"
       id="path1076" />
    <path
       style="fill:none;stroke-width:3;stroke-linecap:butt;stroke-linejoin:miter;stroke:rgb(63.137257%,34.509805%,63.529414%);stroke-opacity:1;stroke-miterlimit:10;"
       d="M -0.00145194 -0.00165159 L 14.642639 -0.00165159 "
       transform="matrix(1.015501,0,0,-1.000787,568.731943,314.045222)"
       id="path1078" />
    <path
       style="fill:none;stroke-width:3;stroke-linecap:butt;stroke-linejoin:miter;stroke:rgb(78.823531%,31.37255%,49.411765%);stroke-opacity:1;stroke-miterlimit:10;"
       d="M -0.00145194 -0.00110648 L 14.642639 -0.00110648 "
       transform="matrix(1.015501,0,0,-1.000787,568.731943,340.80358)"
       id="path1080" />
    <path
       style="fill:none;stroke-width:3;stroke-linecap:butt;stroke-linejoin:miter;stroke:rgb(47.058824%,54.901963%,74.117649%);stroke-opacity:1;stroke-miterlimit:10;"
       d="M -0.00145194 0.000323631 L 14.642639 0.000323631 "
       transform="matrix(1.015501,0,0,-1.000787,568.731943,367.562824)"
       id="path1082" />
    <g
       style="fill:rgb(100%,100%,100%);fill-opacity:1;"
       id="g1102">
      <use
         xlink:href="#glyph0-17"
         x="588.71875"
         y="394.531588"
         id="use1084" />
      <use
         xlink:href="#glyph0-7"
         x="593.391643"
         y="394.531588"
         id="use1086" />
      <use
         xlink:href="#glyph0-12"
         x="597.288034"
         y="394.531588"
         id="use1088" />
      <use
         xlink:href="#glyph0-13"
         x="601.184425"
         y="394.531588"
         id="use1090" />
      <use
         xlink:href="#glyph0-18"
         x="604.687112"
         y="394.531588"
         id="use1092" />
      <use
         xlink:href="#glyph0-7"
         x="608.583503"
         y="394.531588"
         id="use1094" />
      <use
         xlink:href="#glyph0-16"
         x="612.479894"
         y="394.531588"
         id="use1096" />
      <use
         xlink:href="#glyph0-11"
         x="616.376286"
         y="394.531588"
         id="use1098" />
      <use
         xlink:href="#glyph0-3"
         x="618.322994"
         y="394.531588"
         id="use1100" />
    </g>
    <g
       style="fill:rgb(100%,100%,100%);fill-opacity:1;"
       id="g1120">
      <use
         xlink:href="#glyph0-19"
         x="588.71875"
         y="401.539401"
         id="use1104" />
      <use
         xlink:href="#glyph0-16"
         x="593.391643"
         y="401.539401"
         id="use1106" />
      <use
         xlink:href="#glyph0-20"
         x="597.288034"
         y="401.539401"
         id="use1108" />
      <use
         xlink:href="#glyph0-21"
         x="600.79072"
         y="401.539401"
         id="use1110" />
      <use
         xlink:href="#glyph0-22"
         x="604.293407"
         y="401.539401"
         id="use1112" />
      <use
         xlink:href="#glyph0-12"
         x="608.189798"
         y="401.539401"
         id="use1114" />
      <use
         xlink:href="#glyph0-5"
         x="612.086189"
         y="401.539401"
         id="use1116" />
      <use
         xlink:href="#glyph0-3"
         x="615.982581"
         y="401.539401"
         id="use1118" />
    </g>
    <path
       style="fill:none;stroke-width:3;stroke-linecap:round;stroke-linejoin:round;stroke:rgb(47.450981%,74.117649%,49.019608%);stroke-opacity:1;stroke-miterlimit:10;"
       d="M -0.00157372 -0.00107628 L 14.642517 -0.00107628 "
       transform="matrix(1.015501,0,0,-1.000787,567.716442,393.030173)"
       id="path1122" />
    <g
       style="fill:rgb(25.098041%,25.098041%,25.098041%);fill-opacity:1;"
       id="g1146">
      <use
         xlink:href="#glyph1-1"
         x="568.730469"
         y="245.47579"
         id="use1124" />
      <use
         xlink:href="#glyph1-2"
         x="575.405605"
         y="245.47579"
         id="use1126" />
      <use
         xlink:href="#glyph1-3"
         x="582.080741"
         y="245.47579"
         id="use1128" />
      <use
         xlink:href="#glyph1-4"
         x="589.306271"
         y="245.47579"
         id="use1130" />
      <use
         xlink:href="#glyph1-1"
         x="595.981407"
         y="245.47579"
         id="use1132" />
      <use
         xlink:href="#glyph1-5"
         x="602.656543"
         y="245.47579"
         id="use1134" />
      <use
         xlink:href="#glyph1-6"
         x="610.442384"
         y="245.47579"
         id="use1136" />
      <use
         xlink:href="#glyph1-7"
         x="617.667914"
         y="245.47579"
         id="use1138" />
      <use
         xlink:href="#glyph1-8"
         x="623.782739"
         y="245.47579"
         id="use1140" />
      <use
         xlink:href="#glyph1-5"
         x="626.564459"
         y="245.47579"
         id="use1142" />
      <use
         xlink:href="#glyph1-9"
         x="634.3503"
         y="245.47579"
         id="use1144" />
    </g>
    <g
       style="fill:rgb(25.098041%,25.098041%,25.098041%);fill-opacity:1;"
       id="g1176">
      <use
         xlink:href="#glyph1-5"
         x="568.730469"
         y="257.214071"
         id="use1148" />
      <use
         xlink:href="#glyph1-10"
         x="576.516309"
         y="257.214071"
         id="use1150" />
      <use
         xlink:href="#glyph1-11"
         x="583.741839"
         y="257.214071"
         id="use1152" />
      <use
         xlink:href="#glyph1-8"
         x="590.416976"
         y="257.214071"
         id="use1154" />
      <use
         xlink:href="#glyph1-12"
         x="593.198696"
         y="257.214071"
         id="use1156" />
      <use
         xlink:href="#glyph1-6"
         x="600.424226"
         y="257.214071"
         id="use1158" />
      <use
         xlink:href="#glyph1-2"
         x="607.649755"
         y="257.214071"
         id="use1160" />
      <use
         xlink:href="#glyph1-13"
         x="614.324892"
         y="257.214071"
         id="use1162" />
      <use
         xlink:href="#glyph1-8"
         x="617.106612"
         y="257.214071"
         id="use1164" />
      <use
         xlink:href="#glyph1-14"
         x="619.888332"
         y="257.214071"
         id="use1166" />
      <use
         xlink:href="#glyph1-2"
         x="628.414973"
         y="257.214071"
         id="use1168" />
      <use
         xlink:href="#glyph1-15"
         x="634.169811"
         y="257.214071"
         id="use1170" />
      <use
         xlink:href="#glyph1-7"
         x="639.734242"
         y="257.214071"
         id="use1172" />
      <use
         xlink:href="#glyph1-11"
         x="645.849068"
         y="257.214071"
         id="use1174" />
    </g>
    <path
       style=" stroke:none;fill-rule:nonzero;fill:rgb(94.901961%,71.372551%,44.313726%);fill-opacity:1;"
       d="M 566.011719 287.285156 C 566.011719 285.804688 567.230469 284.605469 568.730469 284.605469 C 570.234375 284.605469 571.449219 285.804688 571.449219 287.285156 C 571.449219 288.765625 570.234375 289.964844 568.730469 289.964844 C 567.230469 289.964844 566.011719 288.765625 566.011719 287.285156 "
       id="path1178" />
    <path
       style=" stroke:none;fill-rule:nonzero;fill:rgb(63.137257%,34.509805%,63.529414%);fill-opacity:1;"
       d="M 566.011719 314.046875 C 566.011719 312.566406 567.230469 311.367188 568.730469 311.367188 C 570.234375 311.367188 571.449219 312.566406 571.449219 314.046875 C 571.449219 315.523438 570.234375 316.722656 568.730469 316.722656 C 567.230469 316.722656 566.011719 315.523438 566.011719 314.046875 "
       id="path1180" />
    <path
       style=" stroke:none;fill-rule:nonzero;fill:rgb(78.823531%,31.37255%,49.411765%);fill-opacity:1;"
       d="M 566.011719 340.804688 C 566.011719 339.324219 567.230469 338.125 568.730469 338.125 C 570.234375 338.125 571.449219 339.324219 571.449219 340.804688 C 571.449219 342.285156 570.234375 343.484375 568.730469 343.484375 C 567.230469 343.484375 566.011719 342.285156 566.011719 340.804688 "
       id="path1182" />
    <path
       style=" stroke:none;fill-rule:nonzero;fill:rgb(47.058824%,54.901963%,74.117649%);fill-opacity:1;"
       d="M 566.011719 367.5625 C 566.011719 366.082031 567.230469 364.882812 568.730469 364.882812 C 570.234375 364.882812 571.449219 366.082031 571.449219 367.5625 C 571.449219 369.042969 570.234375 370.242188 568.730469 370.242188 C 567.230469 370.242188 566.011719 369.042969 566.011719 367.5625 "
       id="path1184" />
  </g>
  <g
     id="g1222"
     transform="matrix(1.3333333,0,0,-1.3333333,-174.22453,736.38701)">
    <g
       id="g1224" />
    <g
       id="g1244">
      <g
         clip-path="url(#clipPath1228)"
         id="g1242">
        <g
           id="g1240">
          <g
             clip-path="url(#clipPath1232)"
             id="g1238">
            <text
               transform="matrix(1,0,0,-1,577.7417,334.9482)"
               style="font-variant:normal;font-weight:normal;font-stretch:normal;font-size:7px;font-family:Roboto;-inkscape-font-specification:Roboto-Regular;writing-mode:lr-tb;fill:#ffffff;fill-opacity:1;fill-rule:nonzero;stroke:none"
               id="text1236"><tspan
                 x="0 4.5640001 8.5120001 12.222 13.923 17.787001"
                 y="0"
                 sodipodi:role="line"
                 id="tspan1234">Adeine</tspan></text>
          </g>
        </g>
      </g>
    </g>
  </g>
  <g
     id="g1246"
     transform="matrix(1.3333333,0,0,-1.3333333,-174.22453,729.19146)">
    <g
       id="g1248" />
    <g
       id="g1268">
      <g
         clip-path="url(#clipPath1252)"
         id="g1266">
        <g
           id="g1264">
          <g
             clip-path="url(#clipPath1256)"
             id="g1262">
            <text
               transform="matrix(1,0,0,-1,577.7417,308.21)"
               style="font-variant:normal;font-weight:normal;font-stretch:normal;font-size:7px;font-family:Roboto;-inkscape-font-specification:Roboto-Regular;writing-mode:lr-tb;fill:#ffffff;fill-opacity:1;fill-rule:nonzero;stroke:none"
               id="text1260"><tspan
                 x="0 4.1789999 8.0360003 11.347 17.479 19.18 23.044001"
                 y="0"
                 sodipodi:role="line"
                 id="tspan1258">Thymine</tspan></text>
          </g>
        </g>
      </g>
    </g>
  </g>
  <g
     id="g1270"
     transform="matrix(1.3333333,0,0,-1.3333333,-174.22453,720.88891)">
    <g
       id="g1272" />
    <g
       id="g1292">
      <g
         clip-path="url(#clipPath1276)"
         id="g1290">
        <g
           id="g1288">
          <g
             clip-path="url(#clipPath1280)"
             id="g1286">
            <text
               transform="matrix(1,0,0,-1,577.7417,281.4736)"
               style="font-variant:normal;font-weight:normal;font-stretch:normal;font-size:7px;font-family:Roboto;-inkscape-font-specification:Roboto-Regular;writing-mode:lr-tb;fill:#ffffff;fill-opacity:1;fill-rule:nonzero;stroke:none"
               id="text1284"><tspan
                 x="0 4.5570002 7.868 10.094 14.084 17.695999 19.396999 23.261"
                 y="0"
                 sodipodi:role="line"
                 id="tspan1282">Cytosine</tspan></text>
          </g>
        </g>
      </g>
    </g>
  </g>
  <g
     id="g1294"
     transform="matrix(1.3333333,0,0,-1.3333333,-173.67103,710.37234)">
    <g
       id="g1296" />
    <g
       id="g1316">
      <g
         clip-path="url(#clipPath1300)"
         id="g1314">
        <g
           id="g1312">
          <g
             clip-path="url(#clipPath1304)"
             id="g1310">
            <text
               transform="matrix(1,0,0,-1,577.7417,254.7344)"
               style="font-variant:normal;font-weight:normal;font-stretch:normal;font-size:7px;font-family:Roboto;-inkscape-font-specification:Roboto-Regular;writing-mode:lr-tb;fill:#ffffff;fill-opacity:1;fill-rule:nonzero;stroke:none"
               id="text1308"><tspan
                 x="0 4.7670002 8.6239996 12.432 16.296 17.997 21.861"
                 y="0"
                 sodipodi:role="line"
                 id="tspan1306">Guanine</tspan></text>
          </g>
        </g>
      </g>
    </g>
  </g>
  <g
     id="g1334"
     transform="matrix(1.3333333,0,0,-1.3333333,-174.77803,704.2838)">
    <g
       id="g1336"
       clip-path="url(#clipPath1340)">
      <g
         id="g1342">
        <g
           id="g1344" />
        <g
           id="g1366">
          <g
             clip-path="url(#clipPath1348)"
             id="g1364">
            <g
               id="g1362">
              <g
                 clip-path="url(#clipPath1352)"
                 id="g1360">
                <text
                   transform="matrix(1,0,0,-1,577.7417,229.2871)"
                   style="font-variant:normal;font-weight:normal;font-stretch:normal;font-size:7px;font-family:Roboto;-inkscape-font-specification:Roboto-Regular;writing-mode:lr-tb;fill:#ffffff;fill-opacity:1;fill-rule:nonzero;stroke:none"
                   id="text1358"><tspan
                     x="0 4.4169998 8.2740002 12.264 15.876 19.802999 23.66 27.468 29.757"
                     y="0"
                     sodipodi:role="line"
                     id="tspan1354">Phosphate</tspan><tspan
                     x="0 4.3610001 8.1689997 11.83 15.379 19.306 23.296 27.16"
                     y="7"
                     sodipodi:role="line"
                     id="tspan1356">Backbone</tspan></text>
              </g>
            </g>
          </g>
        </g>
      </g>
    </g>
  </g>
  <text
     style="font-variant:normal;font-weight:300;font-stretch:normal;font-size:13.3333px;font-family:'Roboto Light';-inkscape-font-specification:Roboto-Light;writing-mode:lr-tb;fill:#404040;fill-opacity:1;fill-rule:nonzero;stroke:none;stroke-width:1.33333"
     id="text1376"
     x="569.85748"
     y="232.08557"><tspan
       x="569.85748 578.29749 586.81744 595.72412 604.40411 612.84412 622.13745 631.87079 639.72412 643.20416 652.4975"
       y="232.08557"
       sodipodi:role="line"
       id="tspan1372"
       style="stroke-width:1.33333">BACKBONE OF</tspan><tspan
       x="569.85748 579.15082 588.16412 596.89746 600.39081 609.39081 619.23077 627.82416 630.89081 634.39081 646.33746 654.11078 662.32416 670.17749"
       y="247.72557"
       sodipodi:role="line"
       id="tspan1374"
       style="stroke-width:1.33333">OUR DNA: WATER</tspan></text>
</svg>
