<?xml version="1.0" encoding="UTF-8" standalone="no"?>
<!-- Created with Inkscape (http://www.inkscape.org/) -->

<svg
   version="1.1"
   id="svg824"
   xml:space="preserve"
   width="630.19104"
   height="762.34082"
   viewBox="0 0 630.19106 762.34082"
   sodipodi:docname="0_human_dna_legend_specialcase.svg"
   inkscape:version="1.1.1 (c3084ef, 2021-09-22)"
   xmlns:inkscape="http://www.inkscape.org/namespaces/inkscape"
   xmlns:sodipodi="http://sodipodi.sourceforge.net/DTD/sodipodi-0.dtd"
   xmlns="http://www.w3.org/2000/svg"
   xmlns:svg="http://www.w3.org/2000/svg"><defs
     id="defs828"><clipPath
       clipPathUnits="userSpaceOnUse"
       id="clipPath840"><path
         d="M 0,0 H 9451.443 V 623.509 H 0 Z"
         id="path838" /></clipPath><clipPath
       clipPathUnits="userSpaceOnUse"
       id="clipPath1220"><path
         d="M 0,0 H 9451.443 V 623.509 H 0 Z"
         id="path1218" /></clipPath><clipPath
       clipPathUnits="userSpaceOnUse"
       id="clipPath1228"><path
         d="m 577.742,340.937 h 21.492 v -7.886 h -21.492 z"
         id="path1226" /></clipPath><clipPath
       clipPathUnits="userSpaceOnUse"
       id="clipPath1232"><path
         d="m 577.742,333.052 h 21.492 v 7.885 h -21.492 z"
         id="path1230" /></clipPath><clipPath
       clipPathUnits="userSpaceOnUse"
       id="clipPath1252"><path
         d="m 577.742,314.199 h 26.749 v -7.887 h -26.749 z"
         id="path1250" /></clipPath><clipPath
       clipPathUnits="userSpaceOnUse"
       id="clipPath1256"><path
         d="m 577.742,306.314 h 26.749 v 7.885 h -26.749 z"
         id="path1254" /></clipPath><clipPath
       clipPathUnits="userSpaceOnUse"
       id="clipPath1276"><path
         d="m 577.742,287.462 h 26.963 v -7.886 h -26.963 z"
         id="path1274" /></clipPath><clipPath
       clipPathUnits="userSpaceOnUse"
       id="clipPath1280"><path
         d="m 577.742,279.577 h 26.957 v 7.885 h -26.957 z"
         id="path1278" /></clipPath><clipPath
       clipPathUnits="userSpaceOnUse"
       id="clipPath1300"><path
         d="m 577.742,260.723 h 25.566 v -7.885 h -25.566 z"
         id="path1298" /></clipPath><clipPath
       clipPathUnits="userSpaceOnUse"
       id="clipPath1304"><path
         d="m 577.742,252.838 h 25.566 v 7.885 h -25.566 z"
         id="path1302" /></clipPath><clipPath
       clipPathUnits="userSpaceOnUse"
       id="clipPath1340"><path
         d="M 0,0 H 9451.443 V 623.509 H 0 Z"
         id="path1338" /></clipPath><clipPath
       clipPathUnits="userSpaceOnUse"
       id="clipPath1348"><path
         d="M 577.742,235.276 H 611.2 V 220.39 h -33.458 z"
         id="path1346" /></clipPath><clipPath
       clipPathUnits="userSpaceOnUse"
       id="clipPath1352"><path
         d="M 577.742,220.39 H 611.2 v 14.887 h -33.458 z"
         id="path1350" /></clipPath><clipPath
       clipPathUnits="userSpaceOnUse"
       id="clipPath1384"><path
         d="M 0,0 H 9451.443 V 623.509 H 0 Z"
         id="path1382" /></clipPath></defs><sodipodi:namedview
     id="namedview826"
     pagecolor="#505050"
     bordercolor="#eeeeee"
     borderopacity="1"
     inkscape:pageshadow="0"
     inkscape:pageopacity="0"
     inkscape:pagecheckerboard="0"
     showgrid="false"
     inkscape:zoom="0.23405501"
     inkscape:cx="-126.03874"
     inkscape:cy="418.70498"
     inkscape:window-width="1312"
     inkscape:window-height="762"
     inkscape:window-x="0"
     inkscape:window-y="25"
     inkscape:window-maximized="0"
     inkscape:current-layer="g830" /><g
     id="g830"
     inkscape:groupmode="layer"
     inkscape:label="0_human_dna_legend"
     transform="matrix(1.3333333,0,0,-1.3333333,-740.51238,782.70761)"><g
       id="g850"
       transform="translate(962.7866,569)"><path
         d="M 0,0 C 3.617,0.509 7.073,0.912 10.258,1.239 7.123,0.955 3.715,0.599 -0.031,0.07 Z"
         style="fill:#b87433;fill-opacity:1;fill-rule:nonzero;stroke:none"
         id="path852" /></g><g
       id="g854"
       transform="translate(855.1465,485.9468)"><path
         d="M 0,0 C 0.863,1.942 1.727,3.888 2.665,5.95 1.754,4.036 0.852,2.102 -0.05,0.135 Z"
         style="fill:#b87433;fill-opacity:1;fill-rule:nonzero;stroke:none"
         id="path856" /></g><g
       id="g858"
       transform="translate(864.1387,504.6719)"><path
         d="m 0,0 c -0.462,-0.901 -0.921,-1.803 -1.376,-2.715 1.179,2.264 2.371,4.47 3.574,6.56 L 2.13,3.989 C 1.398,2.68 0.691,1.351 0,0"
         style="fill:#b87433;fill-opacity:1;fill-rule:nonzero;stroke:none"
         id="path860" /></g><g
       id="g862"
       transform="translate(871.1455,516.627)"><path
         d="m 0,0 0.099,-0.218 c 1.765,2.669 3.56,5.155 5.378,7.52 L 5.412,7.43 C 3.527,5.053 1.723,2.575 0,0"
         style="fill:#b87433;fill-opacity:1;fill-rule:nonzero;stroke:none"
         id="path864" /></g><g
       id="g866"
       transform="translate(952.7891,567.3882)"><path
         d="M 0,0 C 0.227,0.042 0.455,0.081 0.676,0.12 L 0.668,0.14 C 0.45,0.097 0.219,0.042 0,0"
         style="fill:#b87433;fill-opacity:1;fill-rule:nonzero;stroke:none"
         id="path868" /></g><g
       id="g870"
       transform="translate(914.4878,554.7534)"><path
         d="M 0,0 C 0.543,0.26 1.089,0.524 1.639,0.78 L 1.599,0.847 C 1.055,0.579 0.536,0.268 0,0"
         style="fill:#b87433;fill-opacity:1;fill-rule:nonzero;stroke:none"
         id="path872" /></g><g
       id="g874"
       transform="translate(924.3574,559.2432)"><path
         d="M 0,0 0.076,-0.136 C 3.171,1.092 6.304,2.252 9.499,3.36 8.623,3.083 7.749,2.8 6.865,2.509 4.55,1.732 2.26,0.897 0,0"
         style="fill:#b87433;fill-opacity:1;fill-rule:nonzero;stroke:none"
         id="path876" /></g><g
       id="g878"
       transform="translate(847.2256,467.4736)"><path
         d="m 0,0 0.042,-0.124 c 0.979,2.443 2.034,5.01 3.179,7.733 L 3.144,7.807 C 2.083,5.267 1.033,2.665 0,0"
         style="fill:#b87433;fill-opacity:1;fill-rule:nonzero;stroke:none"
         id="path880" /></g><g
       id="g882"
       transform="translate(677.8789,199.6494)"><path
         d="M 0,0 C 2.142,1.018 3.051,3.58 2.031,5.726 1.822,6.172 1.538,6.568 1.208,6.901 -3.835,3.778 -8.254,0.784 -12.341,-2.21 l 8.183,2.47 C -2.948,-0.51 -1.388,-0.661 0,0"
         style="fill:#f3a95f;fill-opacity:1;fill-rule:nonzero;stroke:none"
         id="path884" /></g><g
       id="g886"
       transform="translate(681.5381,111.1973)"><path
         d="m 0,0 c -1.134,2.381 -3.983,3.391 -6.36,2.256 -2.383,-1.129 -3.397,-3.978 -2.265,-6.358 1.134,-2.381 3.981,-3.395 6.361,-2.26 0.485,0.233 0.914,0.531 1.282,0.889 l 19.324,-6.226 c -0.978,-2.552 -2.015,-4.98 -3.058,-7.401 1.773,4.057 3.452,8.228 4.923,12.481 L 0.161,-0.389 C 0.111,-0.258 0.058,-0.129 0,0"
         style="fill:#f3a95f;fill-opacity:1;fill-rule:nonzero;stroke:none"
         id="path888" /></g><g
       id="g890"
       transform="translate(675.4053,85.2432)"><path
         d="m 0,0 c -1.226,2.571 -4.299,3.662 -6.869,2.443 -2.569,-1.219 -3.663,-4.295 -2.444,-6.867 1.222,-2.571 4.3,-3.662 6.87,-2.443 0.125,0.057 0.242,0.125 0.363,0.19 l 13.101,-7.184 c 0.897,1.59 1.813,3.258 2.73,4.974 L 0.497,-2.063 C 0.479,-1.367 0.316,-0.668 0,0"
         style="fill:#c9507e;fill-opacity:1;fill-rule:nonzero;stroke:none"
         id="path892" /></g><g
       id="g894"
       transform="translate(671.9502,72.1465)"><path
         d="m 0,0 c -1.202,2.517 -4.218,3.593 -6.735,2.396 -2.521,-1.2 -3.59,-4.217 -2.394,-6.735 1.023,-2.156 3.377,-3.252 5.612,-2.777 l 9.74,-7.291 c -1.782,-2.719 -3.535,-5.3 -5.234,-7.744 0,0 3.647,4.999 8.575,13.026 L 0.445,-2.824 C 0.567,-1.892 0.433,-0.913 0,0"
         style="fill:#f3a95f;fill-opacity:1;fill-rule:nonzero;stroke:none"
         id="path896" /></g><g
       id="g898"
       transform="translate(678.7085,98.1465)"><path
         d="m 0,0 c -1.167,2.451 -4.101,3.495 -6.556,2.331 -2.453,-1.166 -3.496,-4.102 -2.331,-6.557 1.165,-2.455 4.101,-3.495 6.554,-2.331 0.344,0.163 0.661,0.362 0.949,0.591 l 16.41,-6.825 c 0.747,1.558 1.483,3.139 2.211,4.751 L 0.449,-1.585 C 0.388,-1.053 0.241,-0.517 0,0"
         style="fill:#a158a2;fill-opacity:1;fill-rule:nonzero;stroke:none"
         id="path900" /></g><g
       id="g902"
       transform="translate(666.4565,178.9346)"><path
         d="M 0,0 C 2.28,1.084 3.249,3.811 2.167,6.087 1.082,8.367 -1.647,9.338 -3.921,8.251 -4.672,7.896 -5.28,7.36 -5.723,6.72 L -16.612,5.435 C -18.851,3.326 -21.063,1.15 -23.283,-1.146 L -5.449,1.17 C -4.141,-0.373 -1.913,-0.907 0,0"
         style="fill:#a158a2;fill-opacity:1;fill-rule:nonzero;stroke:none"
         id="path904" /></g><g
       id="g906"
       transform="translate(671.7598,189.2861)"><path
         d="M 0,0 C 2.229,1.065 3.181,3.732 2.119,5.962 1.056,8.195 -1.612,9.144 -3.844,8.082 -4.758,7.648 -5.457,6.94 -5.892,6.105 L -9.953,5.341 C -13.126,2.879 -16.104,0.377 -18.97,-2.206 L -4.834,0.646 C -3.533,-0.47 -1.647,-0.78 0,0"
         style="fill:#788cbd;fill-opacity:1;fill-rule:nonzero;stroke:none"
         id="path908" /></g><g
       id="g910"
       transform="translate(656.6431,84.3301)"><path
         d="m 0,0 c -1.001,2.117 -3.371,3.138 -5.551,2.521 l -7.378,3.578 c 2.355,-4.124 4.925,-8.355 7.903,-12.799 0.915,-0.152 1.884,-0.031 2.787,0.401 C 0.121,-5.186 1.123,-2.356 0,0"
         style="fill:#a158a2;fill-opacity:1;fill-rule:nonzero;stroke:none"
         id="path912" /></g><g
       id="g914"
       transform="translate(786.7285,358.4204)"><path
         d="m 0,0 c -1.268,2.668 -4.462,3.802 -7.131,2.533 -2.664,-1.267 -3.802,-4.456 -2.534,-7.128 1.269,-2.669 4.459,-3.799 7.129,-2.532 0.274,0.128 0.529,0.279 0.767,0.442 l 17.182,-7.371 c 0.716,1.697 1.403,3.363 2.076,5.014 L 0.401,-1.177 C 0.315,-0.781 0.183,-0.385 0,0"
         style="fill:#a158a2;fill-opacity:1;fill-rule:nonzero;stroke:none"
         id="path916" /></g><g
       id="g918"
       transform="translate(739.7744,289.7285)"><path
         d="m 0,0 c -1.282,2.695 -4.508,3.842 -7.203,2.563 -2.698,-1.282 -3.847,-4.508 -2.562,-7.206 1.041,-2.197 3.381,-3.365 5.67,-3.028 L 9.381,-20.776 c 1.587,1.39 3.183,2.824 4.794,4.303 L 0.469,-3.088 C 0.615,-2.066 0.478,-0.998 0,0"
         style="fill:#a158a2;fill-opacity:1;fill-rule:nonzero;stroke:none"
         id="path920" /></g><g
       id="g922"
       transform="translate(769.0698,384.2222)"><path
         d="M 0,0 C 1.222,-2.563 4.288,-3.655 6.854,-2.431 9.419,-1.215 10.508,1.857 9.291,4.42 9.056,4.91 8.759,5.344 8.407,5.721 2.903,4.669 -2.474,3.527 -7.704,2.288 L -0.088,0.206 C -0.06,0.136 -0.033,0.07 0,0"
         style="fill:#a158a2;fill-opacity:1;fill-rule:nonzero;stroke:none"
         id="path924" /></g><g
       id="g926"
       transform="translate(758.9497,375.0947)"><path
         d="M 0,0 C 1.22,-2.563 4.286,-3.655 6.852,-2.432 9.417,-1.216 10.507,1.856 9.291,4.42 8.069,6.987 5.002,8.075 2.433,6.856 2.127,6.708 1.845,6.537 1.583,6.342 l -7.458,2.98 C -9.291,8.393 -12.6,7.391 -15.818,6.327 L -0.025,0.054 Z"
         style="fill:#788cbd;fill-opacity:1;fill-rule:nonzero;stroke:none"
         id="path928" /></g><g
       id="g930"
       transform="translate(749.1167,366.1064)"><path
         d="M 0,0 C 1.28,-2.695 4.506,-3.841 7.204,-2.559 9.899,-1.281 11.045,1.947 9.765,4.642 8.487,7.333 5.269,8.479 2.578,7.213 l -14.088,6.141 c -2.863,-1.08 -5.656,-2.21 -8.297,-3.441 L -0.466,1.523 C -0.39,1.006 -0.235,0.494 0,0"
         style="fill:#f3a95f;fill-opacity:1;fill-rule:nonzero;stroke:none"
         id="path932" /></g><g
       id="g934"
       transform="translate(852.7246,468.9653)"><path
         d="m 0,0 c -0.834,-1.6 -0.938,-3.558 -0.103,-5.317 1.409,-2.968 4.96,-4.23 7.926,-2.82 2.967,1.413 4.228,4.96 2.82,7.928 -0.619,1.308 -1.654,2.283 -2.87,2.846 L 2.422,16.981 C 0.713,13.132 -0.85,9.516 -2.279,6.117 Z"
         style="fill:#f3a95f;fill-opacity:1;fill-rule:nonzero;stroke:none"
         id="path936" /></g><g
       id="g938"
       transform="translate(857.813,491.897)"><path
         d="m 0,0 c 0.004,0.007 0.008,0.016 0.012,0.023 l 4.259,-11.049 c -0.901,-1.787 -1.003,-3.958 -0.074,-5.909 1.591,-3.34 5.588,-4.758 8.924,-3.172 3.345,1.591 4.765,5.585 3.179,8.925 -0.921,1.934 -2.645,3.223 -4.58,3.659 L 4.938,10.044 c 0,0.004 0.007,0.012 0.011,0.016 C 3.281,6.878 1.631,3.573 0.012,0.023 0.004,0.016 0.004,0.007 0,0"
         style="fill:#788cbd;fill-opacity:1;fill-rule:nonzero;stroke:none"
         id="path940" /></g><g
       id="g942"
       transform="translate(884.5415,441.8696)"><path
         d="m 0,0 c 2.334,2.229 3.094,5.788 1.635,8.86 -1.825,3.833 -6.412,5.465 -10.246,3.643 -3.837,-1.821 -5.465,-6.405 -3.643,-10.246 1.115,-2.342 3.26,-3.861 5.635,-4.273 l 7.541,-19.836 c 2.296,0.649 4.627,1.325 6.989,2.032 z"
         style="fill:#f3a95f;fill-opacity:1;fill-rule:nonzero;stroke:none"
         id="path944" /></g><g
       id="g946"
       transform="translate(964.7324,545.2295)"><path
         d="m 0,0 c -0.721,-1.923 -0.69,-4.121 0.262,-6.121 1.861,-3.915 6.543,-5.582 10.456,-3.721 3.913,1.86 5.576,6.544 3.716,10.456 C 13.117,3.391 10.38,5.034 7.5,5.092 l -9.446,18.679 c -3.039,-0.42 -6.168,-0.917 -9.321,-1.492 z"
         style="fill:#a158a2;fill-opacity:1;fill-rule:nonzero;stroke:none"
         id="path948" /></g><g
       id="g950"
       transform="translate(900.0952,450.1353)"><path
         d="m 0,0 c 2.029,2.241 2.626,5.57 1.245,8.463 -1.826,3.834 -6.411,5.466 -10.246,3.643 -3.833,-1.821 -5.465,-6.412 -3.644,-10.246 1.214,-2.543 3.64,-4.116 6.258,-4.354 L 3.051,-24.71 c 2.288,0.757 4.582,1.553 6.881,2.368 z"
         style="fill:#c9507e;fill-opacity:1;fill-rule:nonzero;stroke:none"
         id="path952" /></g><g
       id="g954"
       transform="translate(873.9072,492.3359)"><path
         d="m 0,0 c -0.832,-1.732 -0.899,-3.811 -0.008,-5.679 1.564,-3.29 5.496,-4.688 8.786,-3.127 3.29,1.566 4.69,5.5 3.122,8.787 -0.982,2.074 -2.906,3.394 -5.016,3.701 l -9.545,20.395 c -1.658,-2.497 -3.297,-5.107 -4.907,-7.9 z"
         style="fill:#a158a2;fill-opacity:1;fill-rule:nonzero;stroke:none"
         id="path956" /></g><g
       id="g958"
       transform="translate(930.2324,530.71)"><path
         d="m 0,0 c -0.855,-1.926 -0.896,-4.194 0.08,-6.241 1.773,-3.725 6.228,-5.314 9.958,-3.538 3.726,1.767 5.31,6.225 3.541,9.954 -1.123,2.358 -3.318,3.858 -5.72,4.195 L -5.799,28.397 c -2.808,-1.114 -5.576,-2.303 -8.308,-3.573 z"
         style="fill:#f3a95f;fill-opacity:1;fill-rule:nonzero;stroke:none"
         id="path960" /></g><g
       id="g962"
       transform="translate(974.6641,570.395)"><path
         d="m 0,0 9.291,-19.542 c -0.816,-1.981 -0.819,-4.284 0.171,-6.374 1.871,-3.93 6.571,-5.6 10.496,-3.729 3.929,1.865 5.6,6.565 3.735,10.496 -1.297,2.719 -3.951,4.358 -6.762,4.486 L 9.648,0.644 c 2.649,0.151 4.572,0.265 5.624,0.455 V 1.103 C 15.264,1.099 8.174,0.85 -1.619,-0.156 -1.094,-0.105 -0.505,-0.043 0,0"
         style="fill:#f3a95f;fill-opacity:1;fill-rule:nonzero;stroke:none"
         id="path964" /></g><g
       id="g966"
       transform="translate(915.7305,458.5757)"><path
         d="m 0,0 c 1.643,2.21 2.039,5.236 0.775,7.892 -1.822,3.837 -6.411,5.469 -10.244,3.644 -3.835,-1.822 -5.465,-6.414 -3.644,-10.247 1.329,-2.792 4.126,-4.416 7.023,-4.389 L 5.629,-26.513 c 2.258,0.901 4.497,1.846 6.728,2.812 z"
         style="fill:#a158a2;fill-opacity:1;fill-rule:nonzero;stroke:none"
         id="path968" /></g><g
       id="g970"
       transform="translate(950.2314,446.022)"><path
         d="m 0,0 c -1.971,-1.114 -3.925,-2.253 -5.937,-3.321 l -12.938,24.82 c 1.659,2.214 2.063,5.251 0.794,7.919 -1.821,3.838 -6.41,5.465 -10.244,3.644 -3.835,-1.826 -5.465,-6.414 -3.643,-10.247 1.328,-2.785 4.112,-4.408 7.007,-4.385 l 12.545,-25.068 c -2.629,-1.305 -5.311,-2.544 -7.995,-3.764 6.088,2.692 12.012,5.609 17.587,8.767 C -1.872,-1.099 -0.938,-0.551 0,0"
         style="fill:#f3a95f;fill-opacity:1;fill-rule:nonzero;stroke:none"
         id="path972" /></g><g
       id="g974"
       transform="translate(947.1011,476.6328)"><path
         d="m 0,0 c 1.575,2.198 1.936,5.166 0.695,7.783 -1.826,3.834 -6.41,5.465 -10.246,3.639 -3.834,-1.821 -5.465,-6.407 -3.644,-10.242 1.354,-2.843 4.228,-4.478 7.188,-4.385 L 6.908,-28.362 c 2.091,1.274 4.155,2.559 6.185,3.873 z"
         style="fill:#c9507e;fill-opacity:1;fill-rule:nonzero;stroke:none"
         id="path976" /></g><g
       id="g978"
       transform="translate(975.8213,462.9956)"><path
         d="m 0,0 -12.573,22.939 c 1.492,2.183 1.818,5.085 0.6,7.648 -1.825,3.838 -6.41,5.465 -10.244,3.643 -3.835,-1.825 -5.465,-6.409 -3.643,-10.242 1.375,-2.893 4.319,-4.529 7.325,-4.382 L -5.942,-4.304 C -3.922,-2.878 -1.941,-1.441 0,0"
         style="fill:#a158a2;fill-opacity:1;fill-rule:nonzero;stroke:none"
         id="path980" /></g><g
       id="g982"
       transform="translate(648.6265,109.8799)"><path
         d="m 0,0 c -0.122,-0.062 -0.243,-0.124 -0.357,-0.19 l -15.122,5.061 -0.593,0.403 c 0.855,-2.641 1.822,-5.304 2.927,-8.007 l 0.507,-0.056 10.093,-3.096 c 0.063,-0.202 0.143,-0.402 0.238,-0.604 1.158,-2.433 4.061,-3.462 6.49,-2.309 2.432,1.154 3.462,4.06 2.308,6.492 C 5.337,0.124 2.43,1.154 0,0"
         style="fill:#f3a95f;fill-opacity:1;fill-rule:nonzero;stroke:none"
         id="path984" /></g><g
       id="g986"
       transform="translate(648.9883,98.8486)"><path
         d="m 0,0 v 0 l -12.039,5.831 -0.518,0.248 c 1.254,-2.893 2.622,-5.818 4.182,-8.816 l 5.479,-2.405 c 0.061,-0.563 0.212,-1.134 0.47,-1.677 1.216,-2.553 4.271,-3.641 6.824,-2.429 2.555,1.221 3.636,4.269 2.422,6.82 C 5.608,0.128 2.553,1.213 0,0"
         style="fill:#788cbd;fill-opacity:1;fill-rule:nonzero;stroke:none"
         id="path988" /></g><g
       id="g990"
       transform="translate(648.8389,132.6748)"><path
         d="m 0,0 c -0.565,-0.271 -1.055,-0.624 -1.468,-1.043 l -19.18,4.372 c 0.193,-2.016 0.47,-4.016 0.789,-6.02 h 0.023 l 17.119,-3.417 c 0.076,-0.246 0.17,-0.495 0.285,-0.731 1.214,-2.563 4.277,-3.648 6.838,-2.432 2.561,1.216 3.651,4.281 2.429,6.837 C 5.621,0.129 2.562,1.216 0,0"
         style="fill:#788cbd;fill-opacity:1;fill-rule:nonzero;stroke:none"
         id="path992" /></g><g
       id="g994"
       transform="translate(648.2578,121.6641)"><path
         d="m 0,0 c -0.26,-0.123 -0.505,-0.268 -0.736,-0.432 l -17.676,4.729 -0.179,0.111 c 0.489,-2.428 1.106,-4.866 1.799,-7.308 l 0.386,-0.075 2.843,-0.679 11.013,-2.642 c 0.046,-0.136 0.107,-0.267 0.167,-0.397 1.193,-2.504 4.191,-3.574 6.698,-2.383 2.505,1.192 3.571,4.189 2.378,6.7 C 5.503,0.124 2.505,1.192 0,0"
         style="fill:#a158a2;fill-opacity:1;fill-rule:nonzero;stroke:none"
         id="path996" /></g><g
       id="g998"
       transform="translate(650.0908,144.7129)"><path
         d="m 0,0 c -0.744,-0.354 -1.371,-0.859 -1.856,-1.461 l -19.768,2.711 -0.194,0.183 c -0.179,-1.923 -0.262,-3.908 -0.224,-5.951 l 19.441,-2.435 c 0.024,-0.054 0.048,-0.108 0.073,-0.16 1.268,-2.66 4.449,-3.793 7.113,-2.529 2.663,1.264 3.795,4.45 2.527,7.11 C 5.848,0.136 2.66,1.262 0,0"
         style="fill:#f3a95f;fill-opacity:1;fill-rule:nonzero;stroke:none"
         id="path1000" /></g><g
       id="g1002"
       transform="translate(652.251,155.3789)"><path
         d="m 0,0 c -0.699,-0.335 -1.292,-0.809 -1.75,-1.376 l -19.857,1.531 -0.462,0.216 c -0.536,-1.808 -0.972,-3.692 -1.313,-5.638 l 0.346,-0.008 20.909,-1.934 c 1.333,-2.168 4.111,-3.025 6.463,-1.907 2.517,1.196 3.583,4.206 2.391,6.722 C 5.528,0.124 2.518,1.196 0,0"
         style="fill:#a158a2;fill-opacity:1;fill-rule:nonzero;stroke:none"
         id="path1004" /></g><g
       id="g1006"
       transform="translate(654.6992,166.1914)"><path
         d="m 0,0 c -0.895,-0.427 -1.606,-1.08 -2.104,-1.856 l -17.922,0.94 -0.479,0.225 c -0.995,-1.848 -1.874,-3.802 -2.667,-5.842 l 0.562,-0.034 20.562,-0.839 c 1.376,-2.072 4.101,-2.871 6.416,-1.776 2.532,1.207 3.61,4.238 2.406,6.774 C 5.568,0.124 2.538,1.203 0,0"
         style="fill:#788cbd;fill-opacity:1;fill-rule:nonzero;stroke:none"
         id="path1008" /></g><g
       id="g1010"
       transform="translate(658.7383,177.3545)"><path
         d="m 0,0 c -1.062,-0.504 -1.877,-1.325 -2.382,-2.291 l -15.655,-0.343 -0.266,0.008 c -1.487,-1.778 -2.888,-3.732 -4.212,-5.799 l 0.466,-0.078 20.121,0.681 c 1.451,-1.947 4.121,-2.661 6.399,-1.577 2.596,1.231 3.699,4.338 2.466,6.936 C 5.704,0.131 2.597,1.235 0,0"
         style="fill:#f3a95f;fill-opacity:1;fill-rule:nonzero;stroke:none"
         id="path1012" /></g><g
       id="g1014"
       transform="translate(691.7314,169.5283)"><path
         d="M 0,0 C 0.709,0.338 1.293,0.83 1.734,1.421 L 21.037,2.552 V 2.547 c -0.012,1.729 -0.035,3.48 -0.084,5.275 L 1.942,6.704 C 0.702,8.676 -1.848,9.453 -4.004,8.429 -6.331,7.316 -7.321,4.54 -6.216,2.214 -5.109,-0.113 -2.326,-1.104 0,0"
         style="fill:#a158a2;fill-opacity:1;fill-rule:nonzero;stroke:none"
         id="path1016" /></g><g
       id="g1018"
       transform="translate(687.2012,143.5469)"><path
         d="m 0,0 c 0.716,0.338 1.309,0.831 1.765,1.41 l 21.955,-2.07 0.135,-0.008 c 0.228,1.718 0.434,3.477 0.621,5.264 L 24.353,4.61 2.414,6.391 C 2.387,6.452 2.361,6.511 2.333,6.568 1.165,9.023 -1.775,10.072 -4.231,8.902 -6.69,7.733 -7.735,4.793 -6.566,2.335 -5.397,-0.124 -2.458,-1.169 0,0"
         style="fill:#f3a95f;fill-opacity:1;fill-rule:nonzero;stroke:none"
         id="path1020" /></g><g
       id="g1022"
       transform="translate(689.8311,156.5625)"><path
         d="m 0,0 c 0.755,0.358 1.373,0.887 1.837,1.516 l 20.686,-0.495 0.068,-0.03 c 0.096,1.724 0.171,3.488 0.226,5.282 L 22.79,6.262 2.342,6.43 2.311,6.495 C 1.153,8.93 -1.754,9.964 -4.184,8.806 -6.619,7.648 -7.648,4.739 -6.495,2.312 -5.341,-0.124 -2.43,-1.153 0,0"
         style="fill:#c9507e;fill-opacity:1;fill-rule:nonzero;stroke:none"
         id="path1024" /></g><g
       id="g1026"
       transform="translate(706.3047,119.2832)"><path
         d="m 0,0 -0.048,0.008 -21.421,4.218 c -0.064,0.202 -0.143,0.401 -0.235,0.598 -1.161,2.44 -4.081,3.473 -6.52,2.315 -2.441,-1.16 -3.476,-4.078 -2.318,-6.518 1.161,-2.438 4.082,-3.475 6.52,-2.314 0.372,0.178 0.716,0.396 1.021,0.648 L -1.666,-5.771 C -2.577,-8.832 -3.544,-11.807 -4.562,-14.705 -2.899,-9.897 -1.369,-5.03 0,0"
         style="fill:#c9507e;fill-opacity:1;fill-rule:nonzero;stroke:none"
         id="path1028" /></g><g
       id="g1030"
       transform="translate(685.2144,130.4971)"><path
         d="m 0,0 c 0.622,0.295 1.149,0.702 1.579,1.188 l 21.657,-3.126 0.084,-0.195 c 0.369,1.701 0.71,3.434 1.04,5.19 L 24.221,3.061 2.55,6.094 C 2.49,6.262 2.422,6.432 2.342,6.595 1.168,9.065 -1.781,10.113 -4.25,8.941 -6.722,7.769 -7.768,4.812 -6.599,2.346 -5.424,-0.125 -2.47,-1.174 0,0"
         style="fill:#a158a2;fill-opacity:1;fill-rule:nonzero;stroke:none"
         id="path1032" /></g><g
       id="g1034"
       transform="translate(696.9756,207.5527)"><path
         d="m 0,0 c 1.375,0.652 2.27,1.911 2.513,3.31 l 9.406,3.247 0.331,0.113 c -0.421,2.306 -0.819,4.19 -1.157,5.657 L 10.873,12.251 0.637,7.792 C -0.243,8.402 -1.329,8.686 -2.411,8.568 -3.468,7.92 -4.591,7.226 -5.739,6.515 -6.551,5.24 -6.717,3.597 -6.023,2.141 -4.949,-0.112 -2.255,-1.07 0,0"
         style="fill:#c9507e;fill-opacity:1;fill-rule:nonzero;stroke:none"
         id="path1036" /></g><g
       id="g1038"
       transform="translate(695.354,195.0508)"><path
         d="m 0,0 c 1.169,0.555 2.018,1.518 2.451,2.636 l 13.124,2.766 0.247,0.02 c -0.203,1.894 -0.414,3.709 -0.637,5.372 L 14.868,10.701 1.981,7.096 C 0.66,9.101 -1.963,9.878 -4.191,8.816 -6.627,7.658 -7.659,4.745 -6.502,2.314 -5.345,-0.121 -2.434,-1.157 0,0"
         style="fill:#a158a2;fill-opacity:1;fill-rule:nonzero;stroke:none"
         id="path1040" /></g><g
       id="g1042"
       transform="translate(712.3154,186.2607)"><path
         d="M 0,0 C -0.117,2.078 -0.239,4.078 -0.386,5.978 L -0.505,5.931 -16.509,2.886 c -1.25,2.159 -3.967,3.029 -6.258,1.942 -2.41,-1.15 -3.433,-4.027 -2.287,-6.439 1.146,-2.409 4.029,-3.43 6.436,-2.285 0.987,0.466 1.742,1.228 2.212,2.129 l 16.354,1.818 z"
         style="fill:#f3a95f;fill-opacity:1;fill-rule:nonzero;stroke:none"
         id="path1044" /></g><g
       id="g1046"
       transform="translate(804.3726,349.7471)"><path
         d="m 0,0 c -0.052,-0.124 -0.099,-0.256 -0.148,-0.376 l -0.007,0.003 C -0.828,-2.02 -1.517,-3.686 -2.231,-5.38 -14.513,-34.407 -25.462,-52.2 -43.894,-70.311 c -2.119,-2.179 -4.263,-4.272 -6.423,-6.281 l -0.104,0.098 c -1.611,-1.473 -3.209,-2.91 -4.797,-4.301 l 0.109,-0.104 c -2.383,-2.074 -4.789,-4.067 -7.215,-5.989 l -0.018,0.023 c -16.589,-13.673 -29.895,-21.728 -29.895,-21.728 0,0 -0.08,0.217 -0.217,0.633 -0.091,-0.061 -0.185,-0.124 -0.277,-0.186 -0.346,1.592 -0.66,3.107 -0.991,4.657 -1.464,5.639 -3.859,16.348 -6.447,34.134 -3.845,26.436 -4.933,37.4 -2.517,55.831 2.987,22.788 15.978,34.355 27.622,39.796 2.641,1.235 5.432,2.362 8.296,3.441 l -0.326,0.144 c 1.746,0.687 3.56,1.348 5.441,1.977 l 0.415,-0.163 c 3.212,1.068 6.52,2.07 9.939,2.995 l -0.364,0.147 c 2.671,0.707 5.442,1.387 8.326,2.039 l 0.331,-0.085 c 5.229,1.231 10.606,2.373 16.11,3.434 17.859,3.425 42.518,7.107 42.518,7.107 C 15.622,47.308 10.96,27.033 0,0 m -91.69,-172.393 c 0.843,-31.503 -3.948,-52.537 -10.937,-72.776 -1.473,-4.253 -3.15,-8.424 -4.924,-12.48 -0.282,-0.655 -0.542,-1.363 -0.827,-2.011 l -0.052,0.019 c -0.723,-1.608 -1.463,-3.193 -2.211,-4.751 l 0.075,-0.034 c -1.488,-3.119 -3.007,-6.13 -4.553,-9.014 l -0.097,0.045 c -0.918,-1.711 -1.833,-3.379 -2.732,-4.975 l 0.079,-0.039 c -1.65,-2.898 -3.313,-5.678 -4.964,-8.33 l -0.026,0.019 c -4.928,-8.037 -8.575,-13.035 -8.575,-13.035 0,0 -6.436,5.422 -21.323,27.638 -2.979,4.447 -5.548,8.67 -7.902,12.796 l -0.709,0.344 c -0.182,0.366 -0.353,0.712 -0.505,1.044 -0.656,1.454 -1.295,2.891 -1.92,4.309 l 0.03,-0.012 c -7.341,14.129 -11.17,26.82 -12.42,39.893 -0.115,1.43 -0.175,2.828 -0.167,4.199 l 0.025,-0.004 c -0.299,16.418 6.888,29.071 15.124,37.586 2.224,2.3 4.432,4.471 6.675,6.588 l -0.52,-0.062 c 0.925,0.894 1.879,1.776 2.854,2.65 l 0.609,0.119 c 2.863,2.583 5.846,5.08 9.02,7.547 l -0.294,-0.054 c 1.256,0.939 2.541,1.88 3.849,2.815 l 0.171,0.051 c 4.089,2.995 8.508,5.989 13.551,9.112 3.929,2.497 7.998,5.003 12.168,7.558 -0.008,-0.011 -0.008,-0.031 -0.022,-0.042 1.154,0.714 2.276,1.406 3.331,2.059 h -0.012 c 4.084,2.501 8.256,5.052 12.484,7.697 0,0 4.804,-14.883 5.647,-46.469 m 250.106,391.646 -0.037,0.066 c 3.752,0.533 7.156,0.893 10.293,1.177 9.793,1.002 16.884,1.251 16.892,1.251 l -4.509,15.38 c -2.292,0.187 -125.168,9.532 -157.86,-150.508 -0.31,-0.089 -0.621,-0.209 -0.922,-0.349 -3.047,-1.449 -4.344,-5.097 -2.896,-8.146 0.437,-0.912 1.071,-1.669 1.826,-2.245 -0.287,-1.677 -0.585,-3.347 -0.853,-5.065 -2.148,2.879 -6.092,3.939 -9.457,2.339 C 7.762,71.669 6.1,68.333 6.585,65.074 5.5,65.066 4.402,64.825 3.355,64.328 0.209,62.833 -1.453,59.48 -0.944,56.207 -2.022,56.036 -3.09,55.869 -4.156,55.698 c -1.445,1.872 -4.05,2.555 -6.277,1.495 -1.294,-0.617 -2.216,-1.701 -2.649,-2.959 C -96.696,40.127 -125.748,22.26 -106.561,-83.028 l 6.214,-30.029 -8.357,-5.405 c 0.019,0.003 0.045,0 0.064,0.003 -1.825,-1.2 -3.659,-2.419 -5.494,-3.662 -0.027,0.03 -0.066,0.05 -0.099,0.081 l -6.323,-4.093 c 0.027,-0.07 0.022,-0.144 0.054,-0.214 0.021,-0.043 0.04,-0.082 0.06,-0.116 -10.403,-7.314 -20.912,-15.507 -31.412,-25.547 -55.583,-47.699 -31.894,-80.843 -2.884,-129.277 v 0.004 l 17.118,-27.228 c -0.44,-0.61 -0.869,-1.215 -1.292,-1.813 l -0.005,0.012 -2.967,-4.141 0.025,-0.051 c -0.871,-1.259 -1.69,-2.466 -2.446,-3.62 l -0.024,0.051 c 0.016,0.07 0,0.148 0.012,0.218 l -3.719,-5.189 0.295,-0.848 -0.088,-0.17 4.192,-10.41 c 15.575,23.506 77.461,93.16 53.772,213.294 45.804,29.528 96.097,71.755 113.76,169.845 v 0.004 c 8.694,1.442 17.851,3.015 27.503,4.786 55.288,6.703 112.605,35.154 149.197,72.088 8.655,7.862 19.135,18.33 23.06,22.042 l -4.183,8.806 c -0.01,-0.004 -14.769,-16.729 -37.781,-35.233 l 0.008,-0.011 c -3.262,-2.796 -6.638,-5.511 -10.122,-8.138 l -0.128,0.234 c -1.942,-1.433 -3.921,-2.87 -5.943,-4.3 l 0.137,-0.26 c -3.166,-2.229 -6.409,-4.39 -9.722,-6.476 l -0.104,0.187 c -2.027,-1.309 -4.088,-2.602 -6.179,-3.869 l 0.054,-0.112 c -1.256,-0.742 -2.561,-1.421 -3.833,-2.14 -0.938,-0.547 -1.874,-1.099 -2.824,-1.635 -5.576,-3.158 -11.499,-6.075 -17.587,-8.767 -0.573,-0.256 -1.131,-0.543 -1.708,-0.803 l -0.026,0.058 c -2.228,-0.967 -4.471,-1.911 -6.726,-2.812 l 0.058,-0.125 c -3.722,-1.538 -7.484,-3.002 -11.283,-4.385 l -0.107,0.24 c -2.299,-0.815 -4.598,-1.61 -6.88,-2.368 l 0.115,-0.276 C 95.344,74.213 91.775,73.095 88.184,72.05 l -0.103,0.252 C 85.718,71.595 83.383,70.916 81.093,70.271 L 81.156,70.1 C 79.057,69.548 76.94,69.067 74.833,68.562 51.712,62.413 34.046,59.651 34.046,59.651 l -2.913,21.908 v 0.003 c 0.006,0.023 1.535,10.514 11.761,36.041 l -0.044,0.12 c 1.034,2.672 2.089,5.27 3.147,7.814 l 0.076,-0.202 c 1.427,3.399 2.99,7.019 4.701,10.865 l -0.052,0.135 c 0.903,1.966 1.806,3.9 2.721,5.815 0,0.007 0.004,0.012 0.008,0.019 1.617,3.554 3.268,6.855 4.936,10.044 0.461,0.909 0.917,1.807 1.379,2.712 0.688,1.347 1.401,2.68 2.132,3.985 l 0.068,-0.144 c 1.61,2.793 3.249,5.403 4.908,7.9 l -0.1,0.214 c 1.724,2.579 3.527,5.057 5.41,7.434 l 0.064,-0.136 c 11.648,15.144 24.269,24.256 37.867,30.828 0.536,0.272 1.053,0.583 1.599,0.847 l 0.04,-0.066 c 2.727,1.27 5.496,2.462 8.308,3.573 l -0.075,0.132 c 2.258,0.905 4.546,1.74 6.865,2.509 0.882,0.295 1.757,0.579 2.629,0.851 l 0.005,0.004 c 5.798,2.012 12.371,3.569 18.931,4.785 0.219,0.043 0.448,0.097 0.667,0.14 l 0.009,-0.02 c 3.153,0.575 6.28,1.072 9.323,1.492"
         style="fill:#4bb5a8;fill-opacity:1;fill-rule:nonzero;stroke:none"
         id="path1048" /></g><g
       id="g1050"
       transform="translate(663.9683,42.9688)"><path
         d="M 0,0 1.492,-3.533 2.785,-1.728 0.612,1.27 C 0.478,0.82 0.27,0.393 0,0"
         style="fill:#b6d0d7;fill-opacity:1;fill-rule:nonzero;stroke:none"
         id="path1052" /></g><g
       id="g1054"
       transform="translate(663.9683,42.9688)"><path
         d="m 0,0 c 0.27,0.393 0.478,0.82 0.612,1.27 l 2.173,-2.998 -17.118,27.219 c 1.499,-2.506 3.009,-5.042 4.53,-7.633 -1.559,-1.359 -2.093,-3.637 -1.162,-5.595 1.042,-2.191 3.547,-3.213 5.792,-2.448 0.434,-0.769 0.866,-1.538 1.299,-2.311 -0.668,0.005 -1.344,-0.14 -1.989,-0.442 -2.27,-1.083 -3.238,-3.8 -2.155,-6.073 0.029,-0.057 0.057,-0.111 0.083,-0.169 0.027,-0.058 0.053,-0.117 0.08,-0.179 0.724,-1.522 2.185,-2.458 3.754,-2.582 l 2.625,-5.734 2.968,4.142 z"
         style="fill:#a158a2;fill-opacity:1;fill-rule:nonzero;stroke:none"
         id="path1056" /></g><g
       id="g1058"
       transform="translate(659.8047,33.8369)"><path
         d="m 0,0 c -0.026,0.063 -0.058,0.117 -0.087,0.176 -0.028,0.056 -0.053,0.115 -0.08,0.174 -0.786,1.659 -2.767,2.366 -4.429,1.573 -1.655,-0.788 -2.364,-2.77 -1.571,-4.428 0.026,-0.058 0.054,-0.111 0.087,-0.17 0.023,-0.058 0.046,-0.117 0.075,-0.179 0.35,-0.726 0.927,-1.27 1.61,-1.585 l 0.927,-2.695 3.719,5.192 C 0.354,-1.301 0.304,-0.63 0,0"
         style="fill:#c9507e;fill-opacity:1;fill-rule:nonzero;stroke:none"
         id="path1060" /></g><g
       id="g1062"
       transform="translate(685.7017,228.543)"><path
         d="m 0,0 c -1.857,-0.881 -2.645,-3.05 -1.885,-4.929 l 6.325,4.09 C 3.321,0.338 1.544,0.737 0,0"
         style="fill:#a158a2;fill-opacity:1;fill-rule:nonzero;stroke:none"
         id="path1064" /></g><g
       id="g1066"
       transform="translate(697.877,237.1738)"><path
         d="m 0,0 c -1.051,1.553 -3.112,2.152 -4.857,1.32 -1.925,-0.916 -2.745,-3.22 -1.83,-5.143 0.81,-1.712 2.717,-2.539 4.482,-2.066 L 6.148,-0.483 6.02,-0.564 Z"
         style="fill:#f3a95f;fill-opacity:1;fill-rule:nonzero;stroke:none"
         id="path1068" /></g><g
       id="g1070"
       transform="translate(696.7534,260.8232)"><path
         d="M 0,0 C 0.566,-1.192 1.533,-2.066 2.667,-2.54 3.017,-4.326 3.382,-6.137 3.76,-7.974 3.043,-7.982 2.316,-8.146 1.628,-8.471 c -2.565,-1.223 -3.655,-4.288 -2.438,-6.855 1.193,-2.506 4.145,-3.605 6.673,-2.522 0.455,-2.062 0.923,-4.159 1.405,-6.285 L 1.059,5.893 C -0.475,4.4 -0.968,2.039 0,0"
         style="fill:#c9507e;fill-opacity:1;fill-rule:nonzero;stroke:none"
         id="path1072" /></g><g
       id="g1074"
       transform="translate(715.1411,258.291)"><path
         d="M 0,0 C -1.338,2.813 -4.69,4.023 -7.51,2.723 L -7.692,2.587 c 0.683,-3.598 1.328,-6.681 1.897,-9.21 l 0.581,-1.499 h 0.111 l 2.955,-7.691 c -0.029,-0.014 -0.052,-0.031 -0.076,-0.046 L -1.98,-16.5 c 1.032,0.653 2.831,1.803 5.237,3.423 L 2.99,-12.46 c -0.007,-0.008 -0.02,-0.013 -0.029,-0.019 l -3.105,7.321 C 0.695,-3.616 0.81,-1.705 0,0"
         style="fill:#a158a2;fill-opacity:1;fill-rule:nonzero;stroke:none"
         id="path1076" /></g><g
       id="g1078"
       transform="translate(705.998,268.9492)"><path
         d="M 0,0 0.338,-0.005 C 0.437,0.039 0.533,0.073 0.627,0.116 3.193,1.335 4.286,4.404 3.064,6.967 2.19,8.813 0.361,9.892 -1.548,9.908 -1.631,10.421 -1.711,10.934 -1.795,11.442 -1.182,7.231 -0.583,3.445 0,0"
         style="fill:#f3a95f;fill-opacity:1;fill-rule:nonzero;stroke:none"
         id="path1080" /></g><g
       id="g1082"
       transform="translate(727.5864,258.2598)"><path
         d="m 0,0 v 0 l -3.891,6.226 c 0.469,1.228 0.453,2.633 -0.151,3.911 -1.182,2.479 -4.144,3.531 -6.623,2.35 -2.477,-1.174 -3.532,-4.139 -2.355,-6.619 0.765,-1.603 2.272,-2.609 3.915,-2.8 l 3.618,-5.899 3.314,-5.338 c 1.539,1.107 3.178,2.304 4.909,3.598 z"
         style="fill:#f3a95f;fill-opacity:1;fill-rule:nonzero;stroke:none"
         id="path1084" /></g><g
       id="g1086"
       transform="translate(725.3809,250.0713)"><path
         d="M 0,0 -6.926,-4.818 C -4.975,-3.503 -2.648,-1.902 0,0"
         style="fill:#b87433;fill-opacity:1;fill-rule:nonzero;stroke:none"
         id="path1088" /></g><g
       id="g1090"
       transform="translate(731.8677,279.0352)"><path
         d="m 0,0 c -1.271,2.68 -4.474,3.814 -7.15,2.544 -2.677,-1.273 -3.815,-4.474 -2.542,-7.149 1.086,-2.285 3.574,-3.447 5.946,-2.95 l 9.662,-11.923 0.05,-0.069 c 1.373,1.094 2.769,2.214 4.197,3.394 L 0.426,-3.313 C 0.633,-2.226 0.509,-1.068 0,0"
         style="fill:#c9507e;fill-opacity:1;fill-rule:nonzero;stroke:none"
         id="path1092" /></g><g
       id="g1094"
       transform="translate(717.4487,323.9136)"><path
         d="M 0,0 -15.762,12.309 C -16.111,9.652 -16.379,7.163 -16.581,4.747 L -3.719,-5.254 c 0.04,-0.642 0.199,-1.286 0.489,-1.896 1.221,-2.567 4.288,-3.663 6.854,-2.44 2.565,1.216 3.658,4.288 2.437,6.851 C 4.964,-0.43 2.375,0.685 0,0"
         style="fill:#788cbd;fill-opacity:1;fill-rule:nonzero;stroke:none"
         id="path1096" /></g><g
       id="g1098"
       transform="translate(712.8711,313.0308)"><path
         d="m 0,0 -7.007,6.84 v 0.008 l -5.195,5.072 v 0.047 l -0.06,0.062 c -0.171,-3.018 -0.232,-5.962 -0.179,-8.953 l 0.183,-0.128 8.584,-8.344 c 0.052,-0.594 0.208,-1.18 0.477,-1.748 1.222,-2.564 4.286,-3.654 6.852,-2.439 2.565,1.223 3.66,4.288 2.439,6.856 C 4.993,-0.408 2.387,0.703 0,0"
         style="fill:#f3a95f;fill-opacity:1;fill-rule:nonzero;stroke:none"
         id="path1100" /></g><g
       id="g1102"
       transform="translate(721.6514,334.8281)"><path
         d="m 0,0 -17.397,12.546 -0.054,0.027 c -0.686,-2.09 -1.275,-4.3 -1.75,-6.649 l 5.058,-3.686 10.688,-7.675 c 0.023,-0.766 0.202,-1.535 0.551,-2.269 1.358,-2.851 4.766,-4.063 7.617,-2.707 2.853,1.355 4.065,4.766 2.709,7.617 C 6.098,-0.011 2.811,1.208 0,0"
         style="fill:#a158a2;fill-opacity:1;fill-rule:nonzero;stroke:none"
         id="path1104" /></g><g
       id="g1106"
       transform="translate(728.9922,344.9624)"><path
         d="m 0,0 -20.475,12.098 -0.02,0.016 c -1.05,-1.81 -2.02,-3.74 -2.884,-5.822 L -23.33,6.265 -3.595,-5.341 c 0.053,-0.602 0.211,-1.2 0.481,-1.779 1.222,-2.563 4.286,-3.655 6.852,-2.435 2.566,1.219 3.657,4.288 2.439,6.855 C 5.062,-0.358 2.406,0.753 0,0"
         style="fill:#f3a95f;fill-opacity:1;fill-rule:nonzero;stroke:none"
         id="path1108" /></g><g
       id="g1110"
       transform="translate(742.7573,364.3354)"><path
         d="m 0,0 c -0.212,-0.097 -0.418,-0.214 -0.613,-0.337 l -16.999,9.682 0.021,0.152 c -2.033,-1.2 -4.059,-2.606 -6.034,-4.23 L -23.483,5.236 -3.04,-6.35 c 0.088,-0.373 0.22,-0.746 0.391,-1.103 1.324,-2.793 4.665,-3.978 7.453,-2.653 2.793,1.324 3.978,4.665 2.654,7.457 C 6.129,0.14 2.792,1.329 0,0"
         style="fill:#a158a2;fill-opacity:1;fill-rule:nonzero;stroke:none"
         id="path1112" /></g><g
       id="g1114"
       transform="translate(734.373,355.0254)"><path
         d="m 0,0 c -0.072,-0.039 -0.144,-0.07 -0.211,-0.108 l -12.735,7.523 -6.189,3.565 c -1.454,-1.506 -2.851,-3.162 -4.159,-4.975 l 0.016,-0.004 20.06,-11.799 c 0.072,-0.611 0.239,-1.216 0.517,-1.799 1.353,-2.843 4.754,-4.054 7.597,-2.703 2.839,1.355 4.053,4.754 2.702,7.597 C 6.244,0.14 2.843,1.353 0,0"
         style="fill:#788cbd;fill-opacity:1;fill-rule:nonzero;stroke:none"
         id="path1116" /></g><g
       id="g1118"
       transform="translate(819.4214,394.9502)"><path
         d="m 0,0 -7.067,0.862 c 2.501,0.404 5.047,0.82 7.64,1.24 0,0 -9.864,-1.474 -21.633,-3.419 l -0.011,-0.097 c -0.061,-0.936 0.107,-1.895 0.535,-2.804 1.343,-2.82 4.71,-4.017 7.53,-2.677 0.932,0.443 1.684,1.104 2.228,1.888 l 8.989,-1.359 0.126,-0.004 C -0.148,-1.006 0.573,2.102 0.573,2.102 0.382,1.398 0.192,0.699 0,0"
         style="fill:#a158a2;fill-opacity:1;fill-rule:nonzero;stroke:none"
         id="path1120" /></g><g
       id="g1122"
       transform="translate(814.7935,379.1064)"><path
         d="m 0,0 -12.635,3.368 c -0.065,0.187 -0.14,0.369 -0.227,0.555 -1.298,2.727 -4.562,3.889 -7.291,2.592 -2.732,-1.298 -3.893,-4.561 -2.592,-7.292 1.295,-2.73 4.561,-3.891 7.289,-2.594 0.64,0.303 1.193,0.715 1.645,1.201 l 10.645,-2.825 1.587,-0.314 c 0.618,1.872 1.192,3.655 1.722,5.341 z"
         style="fill:#c9507e;fill-opacity:1;fill-rule:nonzero;stroke:none"
         id="path1124" /></g><g
       id="g1126"
       transform="translate(810.0239,364.5488)"><path
         d="m 0,0 h -0.055 l -15.718,5.364 c -0.084,0.307 -0.19,0.61 -0.335,0.902 -1.229,2.59 -4.322,3.69 -6.908,2.458 -2.59,-1.227 -3.688,-4.323 -2.458,-6.905 1.229,-2.591 4.323,-3.69 6.912,-2.46 0.159,0.075 0.318,0.163 0.47,0.249 L -2.354,-6.338 C -3.439,-9.244 -4.543,-12.052 -5.651,-14.802 -3.535,-9.578 -1.659,-4.618 0,0"
         style="fill:#f3a95f;fill-opacity:1;fill-rule:nonzero;stroke:none"
         id="path1128" /></g><g
       id="g1130"
       transform="translate(786.8027,389.5439)"><path
         d="m 0,0 c 1.124,0.54 1.967,1.429 2.453,2.478 v 0.066 c -4.03,-0.699 -8.054,-1.43 -11.781,-2.145 1.142,0.21 2.29,0.42 3.461,0.63 C -4.372,-0.486 -2.03,-0.964 0,0"
         style="fill:#f3a95f;fill-opacity:1;fill-rule:nonzero;stroke:none"
         id="path1132" /></g><g
       id="g1134"
       transform="translate(776.4106,339.6445)"><path
         d="m 0,0 c 0.076,0.039 0.151,0.078 0.227,0.117 l 17.106,-9.12 1.837,-0.828 c 0.835,1.756 1.674,3.492 2.513,5.337 L 21.587,-4.54 3.026,5.43 C 2.964,6.009 2.8,6.584 2.537,7.139 1.269,9.815 -1.928,10.945 -4.602,9.679 -7.275,8.405 -8.413,5.212 -7.139,2.54 -5.871,-0.132 -2.674,-1.27 0,0"
         style="fill:#c9507e;fill-opacity:1;fill-rule:nonzero;stroke:none"
         id="path1136" /></g><g
       id="g1138"
       transform="translate(768.458,328.2563)"><path
         d="m 0,0 19.601,-12.172 0.373,-0.223 c 0.967,1.722 1.905,3.562 2.853,5.364 L 22.57,-6.91 3.104,4.455 C 3.177,5.368 3.018,6.319 2.596,7.217 1.317,9.913 -1.905,11.058 -4.603,9.776 -7.294,8.491 -8.44,5.271 -7.159,2.58 -5.887,-0.109 -2.684,-1.25 0,0"
         style="fill:#f3a95f;fill-opacity:1;fill-rule:nonzero;stroke:none"
         id="path1140" /></g><g
       id="g1142"
       transform="translate(764.4844,283.6885)"><path
         d="m 0,0 -15.821,14.058 c 0.135,1.005 -0.008,2.062 -0.472,3.045 -1.278,2.683 -4.49,3.825 -7.177,2.548 -2.687,-1.278 -3.829,-4.492 -2.553,-7.174 1.095,-2.295 3.6,-3.466 5.981,-2.956 L -4.009,-4.252 c 1.436,1.404 2.752,2.823 4.1,4.233 z"
         style="fill:#f3a95f;fill-opacity:1;fill-rule:nonzero;stroke:none"
         id="path1144" /></g><g
       id="g1146"
       transform="translate(753.2324,304.6045)"><path
         d="m 0,0 c 0.025,0.012 0.049,0.024 0.072,0.036 l 17.631,-13.456 0.251,-0.182 c 1.17,1.382 2.319,2.785 3.432,4.2 L 21.048,-9.181 2.972,4.601 C 2.987,5.384 2.828,6.185 2.466,6.942 1.233,9.537 -1.876,10.644 -4.474,9.404 -7.071,8.174 -8.175,5.062 -6.94,2.468 -5.708,-0.132 -2.596,-1.238 0,0"
         style="fill:#c9507e;fill-opacity:1;fill-rule:nonzero;stroke:none"
         id="path1148" /></g><g
       id="g1150"
       transform="translate(760.6162,316.5654)"><path
         d="m 0,0 0.05,0.023 19.299,-13.313 0.409,-0.251 c 1.169,1.697 2.348,3.398 3.473,5.17 L 22.694,-8.251 2.764,4.704 C 2.725,5.302 2.573,5.9 2.303,6.474 1.149,8.898 -1.75,9.928 -4.172,8.774 -6.595,7.624 -7.629,4.724 -6.475,2.303 -5.321,-0.121 -2.422,-1.15 0,0"
         style="fill:#a158a2;fill-opacity:1;fill-rule:nonzero;stroke:none"
         id="path1152" /></g><g
       id="g1154"
       transform="translate(707.2666,289.5342)"><path
         d="M 0,0 -5.31,8.207 -5.433,8.27 c 0.604,-5.069 1.401,-10.749 2.37,-17.413 1.492,-1.205 3.597,-1.518 5.441,-0.64 2.566,1.216 3.656,4.287 2.44,6.85 C 3.909,-1.024 1.985,0.063 0,0"
         style="fill:#788cbd;fill-opacity:1;fill-rule:nonzero;stroke:none"
         id="path1156" /></g><g
       id="g1158"
       transform="translate(709.7153,301.7666)"><path
         d="m 0,0 -8.922,9.403 v 0.043 l -0.203,0.218 c 0.176,-3.299 0.477,-6.76 0.891,-10.543 l 0.083,-0.116 -0.023,0.24 3.435,-3.604 c -0.232,-1.138 -0.114,-2.353 0.423,-3.485 1.308,-2.749 4.598,-3.918 7.346,-2.608 2.747,1.304 3.923,4.598 2.614,7.345 C 4.597,-0.91 2.29,0.279 0,0"
         style="fill:#a158a2;fill-opacity:1;fill-rule:nonzero;stroke:none"
         id="path1160" /></g><g
       id="g1162"
       transform="translate(849.375,412.8555)"><path
         d="m 0,0 0.35,-1.39 c 2.12,0.423 4.492,0.909 7.081,1.465 L 7.155,0.983 4.257,12.779 c 2.779,2.167 3.785,6.043 2.21,9.357 -1.825,3.842 -6.411,5.468 -10.244,3.643 -3.836,-1.821 -5.465,-6.405 -3.644,-10.238 0.982,-2.071 2.769,-3.496 4.805,-4.086 z"
         style="fill:#c9507e;fill-opacity:1;fill-rule:nonzero;stroke:none"
         id="path1164" /></g><g
       id="g1166"
       transform="translate(839.3135,411.3604)"><path
         d="m 0,0 -0.983,6.303 c 2.884,2.145 3.948,6.091 2.346,9.467 -1.043,2.186 -2.982,3.654 -5.17,4.175 l 2.912,-21.907 c 0,0 0.464,0.07 1.26,0.207 z"
         style="fill:#f3a95f;fill-opacity:1;fill-rule:nonzero;stroke:none"
         id="path1168" /></g><g
       id="g1170"
       transform="translate(860.7637,446.5039)"><path
         d="m 0,0 c -3.834,-1.822 -5.465,-6.405 -3.644,-10.247 1.086,-2.279 3.158,-3.783 5.465,-4.237 l 5.45,-16.189 0.146,-0.311 c 3.493,0.839 7.172,1.763 11.024,2.789 -1.344,-0.322 -2.68,-0.68 -4.024,-0.982 l -5.894,16.588 c 2.407,2.227 3.2,5.834 1.723,8.945 C 8.424,0.194 3.833,1.825 0,0"
         style="fill:#a158a2;fill-opacity:1;fill-rule:nonzero;stroke:none"
         id="path1172" /></g><g
       id="g1174"
       transform="translate(840.29,448.5156)"><path
         d="m 0,0 c -4.008,-11.967 -4.781,-17.187 -4.785,-17.207 0.428,1.605 0.856,3.189 1.293,4.747 1.034,-0.082 2.108,0.097 3.116,0.575 3.049,1.452 4.345,5.096 2.894,8.141 -0.477,1.002 -1.19,1.817 -2.044,2.408 l -0.295,1.169 z"
         style="fill:#a158a2;fill-opacity:1;fill-rule:nonzero;stroke:none"
         id="path1176" /></g><g
       id="g1178"
       transform="translate(847.2681,467.3496)"><path
         d="m 0,0 c -2.311,-5.765 -4.156,-10.724 -5.659,-15.004 l 0.092,-0.222 c 1.506,-2.913 5.062,-4.128 8.046,-2.707 3.05,1.449 4.348,5.092 2.895,8.141 -0.637,1.348 -1.705,2.35 -2.964,2.925 z"
         style="fill:#a158a2;fill-opacity:1;fill-rule:nonzero;stroke:none"
         id="path1180" /></g><g
       id="g1182"
       transform="translate(886.3286,503.1997)"><path
         d="m 0,0 c -0.885,-1.822 -0.971,-4.02 -0.031,-5.993 1.639,-3.445 5.758,-4.909 9.199,-3.271 3.444,1.636 4.912,5.757 3.272,9.197 -1.164,2.451 -3.59,3.904 -6.133,3.94 L -4.51,26.979 c -1.754,-1.974 -3.488,-4.032 -5.198,-6.25 z"
         style="fill:#f3a95f;fill-opacity:1;fill-rule:nonzero;stroke:none"
         id="path1184" /></g><g
       id="g1186"
       transform="translate(881.8174,530.1787)"><path
         d="M 0,0 C 0.227,0.252 0.456,0.489 0.687,0.742 0.456,0.497 0.211,0.276 -0.017,0.031 Z"
         style="fill:#b87433;fill-opacity:1;fill-rule:nonzero;stroke:none"
         id="path1188" /></g><g
       id="g1190"
       transform="translate(894.5244,542.3047)"><path
         d="m 0,0 c -4.114,-3.282 -8.115,-7.061 -12.02,-11.384 1.659,1.779 3.344,3.515 5.094,5.162 L 4.74,-29.569 c -0.861,-1.88 -0.914,-4.118 0.043,-6.13 1.718,-3.616 6.041,-5.15 9.658,-3.434 3.611,1.721 5.149,6.04 3.431,9.657 -1.022,2.147 -2.958,3.557 -5.121,3.992 L 0.099,-0.16 Z"
         style="fill:#788cbd;fill-opacity:1;fill-rule:nonzero;stroke:none"
         id="path1192" /></g><g
       id="g1194"
       transform="translate(914.4878,554.7534)"><path
         d="m 0,0 c -4.637,-2.241 -9.154,-4.813 -13.567,-7.784 l 0.068,-0.124 13.276,-24.882 c -0.816,-1.849 -0.851,-4.024 0.083,-5.993 1.707,-3.589 5.999,-5.115 9.586,-3.41 3.591,1.709 5.119,5.997 3.413,9.586 -1.018,2.136 -2.95,3.542 -5.107,3.969 L -5.867,-3.107 C -3.95,-2.004 -1.977,-0.999 0,0"
         style="fill:#a158a2;fill-opacity:1;fill-rule:nonzero;stroke:none"
         id="path1196" /></g><g
       id="g1198"
       transform="translate(942.7144,565.2051)"><path
         d="M 0,0 C -3.071,-0.772 -6.058,-1.631 -8.858,-2.602 L 3.926,-26.42 c -0.761,-1.93 -0.75,-4.155 0.209,-6.179 1.842,-3.873 6.472,-5.52 10.346,-3.678 3.875,1.84 5.515,6.471 3.678,10.347 -1.276,2.684 -3.894,4.3 -6.669,4.42 L -0.005,-0.078 Z"
         style="fill:#788cbd;fill-opacity:1;fill-rule:nonzero;stroke:none"
         id="path1200" /></g><g
       id="g1202"
       transform="translate(1000.957,484.6416)"><path
         d="m 0,0 0.458,-0.657 c 2.12,1.912 4.097,3.74 5.955,5.492 L 6.079,5.48 -4.057,21.219 c 1.548,2.194 1.898,5.138 0.665,7.737 -1.826,3.834 -6.411,5.465 -10.245,3.643 -3.835,-1.826 -5.465,-6.412 -3.643,-10.246 1.2,-2.524 3.595,-4.094 6.184,-4.354 z"
         style="fill:#c9507e;fill-opacity:1;fill-rule:nonzero;stroke:none"
         id="path1204" /></g><g
       id="g1206"
       transform="translate(991.7793,475.6147)"><path
         d="M 0,0 -0.167,0.226 -12.125,20.38 c 1.415,2.167 1.7,4.995 0.508,7.504 -1.822,3.834 -6.409,5.465 -10.246,3.639 -3.835,-1.821 -5.466,-6.404 -3.644,-10.242 1.393,-2.928 4.399,-4.572 7.45,-4.369 L -5.716,-4.703 C -3.738,-3.119 -1.851,-1.55 0,0"
         style="fill:#f3a95f;fill-opacity:1;fill-rule:nonzero;stroke:none"
         id="path1208" /></g><g
       id="g1210"
       transform="translate(1004.2373,528.3569)"><path
         d="m 0,0 c -3.833,-1.826 -5.464,-6.409 -3.643,-10.243 1.169,-2.454 3.473,-4.008 5.981,-4.33 l 10.096,-14.818 0.238,-0.163 c 4.451,4.533 6.928,7.333 6.931,7.337 -0.365,-0.416 -0.787,-0.874 -1.256,-1.371 l -8.368,12.837 c 1.202,2.109 1.388,4.75 0.268,7.107 C 8.425,0.198 3.833,1.822 0,0"
         style="fill:#a158a2;fill-opacity:1;fill-rule:nonzero;stroke:none"
         id="path1212" /></g><g
       id="g1214"><g
         id="g1216"
         clip-path="url(#clipPath1220)"><g
           id="g1222"><g
             id="g1224" /><g
             id="g1244"><g
               clip-path="url(#clipPath1228)"
               id="g1242"><g
                 id="g1240"><g
                   clip-path="url(#clipPath1232)"
                   id="g1238"><text
                     transform="matrix(1,0,0,-1,577.7417,334.9482)"
                     style="font-variant:normal;font-weight:normal;font-stretch:normal;font-size:7px;font-family:Roboto;-inkscape-font-specification:Roboto-Regular;writing-mode:lr-tb;fill:#ffffff;fill-opacity:1;fill-rule:nonzero;stroke:none"
                     id="text1236"><tspan
                       x="0 4.5640001 8.5120001 12.222 13.923 17.787001"
                       y="0"
                       sodipodi:role="line"
                       id="tspan1234">Adeine</tspan></text></g></g></g></g></g><g
           id="g1246"><g
             id="g1248" /><g
             id="g1268"><g
               clip-path="url(#clipPath1252)"
               id="g1266"><g
                 id="g1264"><g
                   clip-path="url(#clipPath1256)"
                   id="g1262"><text
                     transform="matrix(1,0,0,-1,577.7417,308.21)"
                     style="font-variant:normal;font-weight:normal;font-stretch:normal;font-size:7px;font-family:Roboto;-inkscape-font-specification:Roboto-Regular;writing-mode:lr-tb;fill:#ffffff;fill-opacity:1;fill-rule:nonzero;stroke:none"
                     id="text1260"><tspan
                       x="0 4.1789999 8.0360003 11.347 17.479 19.18 23.044001"
                       y="0"
                       sodipodi:role="line"
                       id="tspan1258">Thymine</tspan></text></g></g></g></g></g><g
           id="g1270"><g
             id="g1272" /><g
             id="g1292"><g
               clip-path="url(#clipPath1276)"
               id="g1290"><g
                 id="g1288"><g
                   clip-path="url(#clipPath1280)"
                   id="g1286"><text
                     transform="matrix(1,0,0,-1,577.7417,281.4736)"
                     style="font-variant:normal;font-weight:normal;font-stretch:normal;font-size:7px;font-family:Roboto;-inkscape-font-specification:Roboto-Regular;writing-mode:lr-tb;fill:#ffffff;fill-opacity:1;fill-rule:nonzero;stroke:none"
                     id="text1284"><tspan
                       x="0 4.5570002 7.868 10.094 14.084 17.695999 19.396999 23.261"
                       y="0"
                       sodipodi:role="line"
                       id="tspan1282">Cytosine</tspan></text></g></g></g></g></g><g
           id="g1294"><g
             id="g1296" /><g
             id="g1316"><g
               clip-path="url(#clipPath1300)"
               id="g1314"><g
                 id="g1312"><g
                   clip-path="url(#clipPath1304)"
                   id="g1310"><text
                     transform="matrix(1,0,0,-1,577.7417,254.7344)"
                     style="font-variant:normal;font-weight:normal;font-stretch:normal;font-size:7px;font-family:Roboto;-inkscape-font-specification:Roboto-Regular;writing-mode:lr-tb;fill:#ffffff;fill-opacity:1;fill-rule:nonzero;stroke:none"
                     id="text1308"><tspan
                       x="0 4.7670002 8.6239996 12.432 16.296 17.997 21.861"
                       y="0"
                       sodipodi:role="line"
                       id="tspan1306">Guanine</tspan></text></g></g></g></g></g></g></g><g
       id="g1318"
       transform="translate(558.0613,336.4487)"><path
         d="M 0,0 H 14.642"
         style="fill:none;stroke:#f2b671;stroke-width:3;stroke-linecap:butt;stroke-linejoin:miter;stroke-miterlimit:10;stroke-dasharray:none;stroke-opacity:1"
         id="path1320" /></g><g
       id="g1322"
       transform="translate(558.0613,309.7109)"><path
         d="M 0,0 H 14.642"
         style="fill:none;stroke:#a158a2;stroke-width:3;stroke-linecap:butt;stroke-linejoin:miter;stroke-miterlimit:10;stroke-dasharray:none;stroke-opacity:1"
         id="path1324" /></g><g
       id="g1326"
       transform="translate(558.0613,282.9736)"><path
         d="M 0,0 H 14.642"
         style="fill:none;stroke:#c9507e;stroke-width:3;stroke-linecap:butt;stroke-linejoin:miter;stroke-miterlimit:10;stroke-dasharray:none;stroke-opacity:1"
         id="path1328" /></g><g
       id="g1330"
       transform="translate(558.0613,256.2354)"><path
         d="M 0,0 H 14.642"
         style="fill:none;stroke:#788cbd;stroke-width:3;stroke-linecap:butt;stroke-linejoin:miter;stroke-miterlimit:10;stroke-dasharray:none;stroke-opacity:1"
         id="path1332" /></g><g
       id="g1334"><g
         id="g1336"
         clip-path="url(#clipPath1340)"><g
           id="g1342"><g
             id="g1344" /><g
             id="g1366"><g
               clip-path="url(#clipPath1348)"
               id="g1364"><g
                 id="g1362"><g
                   clip-path="url(#clipPath1352)"
                   id="g1360"><text
                     transform="matrix(1,0,0,-1,577.7417,229.2871)"
                     style="font-variant:normal;font-weight:normal;font-stretch:normal;font-size:7px;font-family:Roboto;-inkscape-font-specification:Roboto-Regular;writing-mode:lr-tb;fill:#ffffff;fill-opacity:1;fill-rule:nonzero;stroke:none"
                     id="text1358"><tspan
                       x="0 4.4169998 8.2740002 12.264 15.876 19.802999 23.66 27.468 29.757"
                       y="0"
                       sodipodi:role="line"
                       id="tspan1354">Phosphate</tspan><tspan
                       x="0 4.3610001 8.1689997 11.83 15.379 19.306 23.296 27.16"
                       y="7"
                       sodipodi:role="line"
                       id="tspan1356">Backbone</tspan></text></g></g></g></g></g></g></g><g
       id="g1368"
       transform="translate(557.0613,230.7881)"><path
         d="M 0,0 H 14.642"
         style="fill:none;stroke:#79bd7d;stroke-width:3;stroke-linecap:round;stroke-linejoin:round;stroke-miterlimit:10;stroke-dasharray:none;stroke-opacity:1"
         id="path1370" /></g><text
       transform="matrix(1,0,0,-1,558.0615,378.2261)"
       style="font-variant:normal;font-weight:300;font-stretch:normal;font-size:10px;font-family:'Roboto Light';-inkscape-font-specification:Roboto-Light;writing-mode:lr-tb;fill:#404040;fill-opacity:1;fill-rule:nonzero;stroke:none"
       id="text1376"><tspan
         x="0 6.3299999 12.72 19.4 25.91 32.240002 39.209999 46.509998 52.400002 55.009998 61.98"
         y="0"
         sodipodi:role="line"
         id="tspan1372">BACKBONE OF</tspan><tspan
         x="0 6.9699998 13.73 20.280001 22.9 29.65 37.029999 43.474998 45.775002 48.400002 57.360001 63.189999 69.349998 75.239998"
         y="11.73"
         sodipodi:role="line"
         id="tspan1374">OUR DNA: WATER</tspan></text><g
       id="g1378"><g
         id="g1380"
         clip-path="url(#clipPath1384)"><g
           id="g1386"
           transform="translate(555.3843,336.4487)"><path
             d="M 0,0 C 0,1.479 1.199,2.677 2.677,2.677 4.156,2.677 5.354,1.479 5.354,0 5.354,-1.479 4.156,-2.677 2.677,-2.677 1.199,-2.677 0,-1.479 0,0"
             style="fill:#f2b671;fill-opacity:1;fill-rule:nonzero;stroke:none"
             id="path1388" /></g><g
           id="g1390"
           transform="translate(555.3843,309.7109)"><path
             d="M 0,0 C 0,1.479 1.199,2.677 2.677,2.677 4.156,2.677 5.354,1.479 5.354,0 5.354,-1.479 4.156,-2.677 2.677,-2.677 1.199,-2.677 0,-1.479 0,0"
             style="fill:#a158a2;fill-opacity:1;fill-rule:nonzero;stroke:none"
             id="path1392" /></g><g
           id="g1394"
           transform="translate(555.3843,282.9727)"><path
             d="M 0,0 C 0,1.479 1.199,2.678 2.677,2.678 4.156,2.678 5.354,1.479 5.354,0 5.354,-1.479 4.156,-2.677 2.677,-2.677 1.199,-2.677 0,-1.479 0,0"
             style="fill:#c9507e;fill-opacity:1;fill-rule:nonzero;stroke:none"
             id="path1396" /></g><g
           id="g1398"
           transform="translate(555.3843,256.2354)"><path
             d="M 0,0 C 0,1.479 1.199,2.677 2.677,2.677 4.156,2.677 5.354,1.479 5.354,0 5.354,-1.479 4.156,-2.677 2.677,-2.677 1.199,-2.677 0,-1.479 0,0"
             style="fill:#788cbd;fill-opacity:1;fill-rule:nonzero;stroke:none"
             id="path1400" /></g></g></g></g></svg>
