<?xml version="1.0" encoding="utf-8"?>
<!-- Generator: Adobe Illustrator 18.0.0, SVG Export Plug-In . SVG Version: 6.00 Build 0)  -->
<!DOCTYPE svg PUBLIC "-//W3C//DTD SVG 1.1//EN" "http://www.w3.org/Graphics/SVG/1.1/DTD/svg11.dtd">
<svg version="1.1" id="Layer_1" xmlns="http://www.w3.org/2000/svg" xmlns:xlink="http://www.w3.org/1999/xlink" x="0px" y="0px"
	 width="9601.36px" height="623.51px" viewBox="-149.91 0 9601.36 623.51" enable-background="new -149.91 0 9601.36 623.51"
	 xml:space="preserve">
<g id="background">
	<path opacity="0.01" enable-background="new    " d="M-79.04,384.37c0.03-0.02,0.05-0.03,0.08-0.05
		C-78.99,384.34-79.02,384.35-79.04,384.37L-79.04,384.37z"/>
	<path opacity="0.01" enable-background="new    " d="M-116.85,393.94c1.99,0.16,3.3,0.27,3.3,0.27
		C-114.68,394.12-115.78,394.03-116.85,393.94C-116.85,393.93-116.85,393.94-116.85,393.94z"/>
	<path opacity="0.01" enable-background="new    " d="M-20.76,365.63c0.73,0.39,1.41,0.78,2.03,1.15c-0.61-0.37-1.28-0.76-2.03-1.17
		V365.63z"/>
	<path opacity="0.01" enable-background="new    " d="M-145.82,422.2c0.16-0.05,0.32-0.1,0.48-0.16l0.01-0.84
		c-0.09,0.06-0.18,0.11-0.28,0.15L-145.82,422.2z"/>
	<path opacity="0.01" enable-background="new    " d="M-81.92,371.81c-0.61-0.27-1.21-0.51-1.79-0.74l0.05,0.07
		c0.59,0.23,1.19,0.47,1.79,0.73L-81.92,371.81z"/>
	<path opacity="0.01" enable-background="new    " d="M-85.93,370.27c-0.43-0.14-0.85-0.26-1.26-0.37l0.04,0.07
		c0.42,0.12,0.84,0.25,1.27,0.38L-85.93,370.27z"/>
	<path opacity="0.01" enable-background="new    " d="M-101.95,391.79c0.7-0.03,1.4-0.07,2.12-0.12l-0.01-0.03
		C-100.57,391.7-101.27,391.75-101.95,391.79L-101.95,391.79z"/>
	<path opacity="0.01" enable-background="new    " d="M-98.39,391.52c0.66-0.08,1.33-0.17,2.01-0.28c-0.68,0.1-1.35,0.18-2.02,0.25
		L-98.39,391.52z"/>
	<path opacity="0.01" enable-background="new    " d="M-139.14,398.84c-0.18,0.25-0.36,0.51-0.53,0.79
		C-139.5,399.35-139.31,399.1-139.14,398.84L-139.14,398.84z"/>
	<path opacity="0.01" enable-background="new    " d="M-133.48,417.07c0.14-0.08,0.28-0.17,0.42-0.25
		C-133.2,416.9-133.34,416.98-133.48,417.07L-133.48,417.07z"/>
	<path opacity="0.01" enable-background="new    " d="M-117.73,393.86c-1.1-0.09-2.18-0.18-3.23-0.25
		C-119.8,393.7-118.71,393.79-117.73,393.86L-117.73,393.86z"/>
	<path opacity="0.01" enable-background="new    " d="M-128.48,393.57c-0.29,0.03-0.59,0.06-0.87,0.1l0.1,0.06
		c0.3-0.04,0.6-0.07,0.9-0.1L-128.48,393.57z"/>
	<path opacity="0.01" enable-background="new    " d="M-136.55,418.68c0.67-0.32,1.35-0.66,2.04-1.03l-0.01-0.02
		c-0.69,0.37-1.38,0.71-2.04,1.03L-136.55,418.68z"/>
	<path opacity="0.01" enable-background="new    " d="M-139.73,420.06c0.66-0.26,1.33-0.54,2.02-0.85l-0.01-0.02
		C-138.44,419.52-139.12,419.81-139.73,420.06L-139.73,420.06z"/>
	<path opacity="0.01" enable-background="new    " d="M-142.75,408.55c-0.08,0.34-0.15,0.69-0.23,1.04
		c-0.02,0.08-0.03,0.17-0.05,0.26l0.08,0.16C-142.89,409.51-142.82,409.02-142.75,408.55L-142.75,408.55z"/>
	<path opacity="0.01" enable-background="new    " d="M-38.53,386.43c-0.33-0.03-0.66-0.06-0.99-0.1c0.33,0.04,0.66,0.09,0.98,0.12
		L-38.53,386.43z"/>
	<path opacity="0.01" enable-background="new    " d="M-44.63,385.49c-0.14-0.03-0.28-0.06-0.42-0.1v0.01
		C-44.91,385.44-44.77,385.46-44.63,385.49z"/>
	<path opacity="0.01" enable-background="new    " d="M-46.65,385.04l0.01-0.03c-0.89-0.23-1.77-0.48-2.63-0.74l-0.01,0.06
		C-48.42,384.58-47.54,384.82-46.65,385.04z"/>
	<path opacity="0.01" enable-background="new    " d="M-50.87,383.84l0.02-0.07c-0.82-0.27-1.62-0.54-2.4-0.82l-0.02,0.06
		C-52.47,383.31-51.67,383.58-50.87,383.84z"/>
	<path opacity="0.01" enable-background="new    " d="M-124.64,393.45l-0.04-0.01c-0.36-0.01-0.72-0.01-1.08,0l0.06,0.03
		C-125.35,393.45-125,393.45-124.64,393.45z"/>
	<path opacity="0.01" enable-background="new    " d="M-54.79,382.39c-0.47-0.18-0.92-0.35-1.37-0.53c0.45,0.19,0.9,0.39,1.36,0.57
		L-54.79,382.39z"/>
	<path opacity="0.01" enable-background="new    " d="M-29.66,386.61L-29.66,386.61c-0.94,0.04-1.92,0.06-2.92,0.07l-0.01,0.06
		C-31.61,386.72-30.63,386.68-29.66,386.61z"/>
	<path opacity="0.01" enable-background="new    " d="M-34.26,386.72l0.01-0.07c-0.87-0.02-1.75-0.05-2.64-0.11l-0.01,0.05
		C-36.01,386.66-35.13,386.71-34.26,386.72z"/>
	<path opacity="0.01" enable-background="new    " d="M-51.48,366.33c0.42-0.24,0.83-0.48,1.28-0.73c-0.42,0.23-0.85,0.46-1.27,0.69
		L-51.48,366.33z"/>
	<path opacity="0.01" enable-background="new    " d="M-47.34,364.13c-0.2,0.1-0.41,0.21-0.61,0.31c0.52-0.25,1.03-0.5,1.53-0.71
		l0.01-0.04C-46.72,363.83-47.03,363.97-47.34,364.13z"/>
	<path opacity="0.01" enable-background="new    " d="M-44.46,362.89l-0.01,0.05c0.68-0.25,1.34-0.46,1.98-0.65l0.01-0.03
		C-43.14,362.44-43.8,362.65-44.46,362.89z"/>
	<path opacity="0.01" enable-background="new    " d="M-22.8,364.58c0.05,0.02,0.09,0.05,0.14,0.07l0,0
		C-22.7,364.63-22.75,364.6-22.8,364.58z"/>
	<path opacity="0.01" enable-background="new    " d="M-31.46,361.75c0.13,0.03,0.27,0.05,0.4,0.08v-0.02
		C-31.19,361.79-31.33,361.78-31.46,361.75z"/>
	<path opacity="0.01" enable-background="new    " d="M-29.06,362.26v0.03c0.73,0.19,1.45,0.4,2.18,0.63
		c-0.2-0.07-0.39-0.13-0.59-0.2C-28,362.55-28.53,362.4-29.06,362.26z"/>
	<path opacity="0.01" enable-background="new    " d="M-55.4,368.63l-0.01,0.03c0.51-0.31,1.04-0.64,1.61-0.98l0.01-0.05
		C-54.31,367.95-54.85,368.28-55.4,368.63z"/>
	<polygon opacity="0.01" enable-background="new    " points="-62.37,373.64 -62.37,373.64 -62.37,373.64 	"/>
	<path opacity="0.01" enable-background="new    " d="M-122.1,394.7c0.53,0.1,1.04-0.24,1.14-0.77c0.02-0.11,0.02-0.22,0.01-0.33
		c-1.34-0.11-2.54-0.15-3.69-0.16l1.82,0.65C-122.7,394.4-122.44,394.63-122.1,394.7z"/>
	<path opacity="0.01" enable-background="new    " d="M-133.28,411.29c0.11-0.59-0.27-1.15-0.85-1.26
		c-0.58-0.11-1.15,0.27-1.26,0.85c-0.11,0.58,0.27,1.15,0.85,1.26c0.12,0.02,0.24,0.03,0.35,0.01l2.68,3.72
		c-0.52,0.33-1.03,0.64-1.55,0.94c0.87-0.5,1.73-1.04,2.57-1.61l-2.81-3.82C-133.29,411.35-133.29,411.32-133.28,411.29z"/>
	<path opacity="0.01" enable-background="new    " d="M-137.87,415.19c0.12-0.63-0.29-1.24-0.92-1.36s-1.24,0.29-1.36,0.92
		s0.29,1.24,0.92,1.36c0.03,0.01,0.06,0.01,0.09,0.01l1.42,3.06c0.38-0.17,0.77-0.35,1.16-0.54l-1.5-3.02
		C-137.97,415.51-137.9,415.36-137.87,415.19z"/>
	<path opacity="0.01" enable-background="new    " d="M-140.25,417.11c0.12-0.62-0.29-1.22-0.91-1.34s-1.22,0.29-1.34,0.9
		c-0.1,0.53,0.18,1.04,0.65,1.26l0.8,2.63c-0.69,0.26-1.35,0.49-1.99,0.71c0,0,1.33-0.42,3.31-1.22l-0.82-2.37
		C-140.4,417.54-140.3,417.34-140.25,417.11z"/>
	<path opacity="0.01" enable-background="new    " d="M-135.54,413.29c0.12-0.6-0.28-1.19-0.88-1.3c-0.6-0.12-1.19,0.28-1.3,0.88
		c-0.12,0.6,0.28,1.19,0.88,1.3c0.08,0.02,0.17,0.02,0.25,0.02l2.07,3.44c0.34-0.18,0.69-0.37,1.04-0.57l-2.19-3.42
		C-135.61,413.53-135.57,413.41-135.54,413.29z"/>
	<path opacity="0.01" enable-background="new    " d="M-126.95,396.94c0.56,0.11,1.1-0.26,1.21-0.82s-0.26-1.1-0.82-1.21
		c-0.18-0.04-0.37-0.02-0.53,0.04l-2.15-1.22c-0.69,0.08-1.38,0.18-2.1,0.3l3.56,1.97C-127.75,396.45-127.42,396.85-126.95,396.94z"
		/>
	<path opacity="0.01" enable-background="new    " d="M-124.6,395.77c0.55,0.11,1.08-0.25,1.18-0.8c0.11-0.55-0.25-1.08-0.8-1.18
		c-0.22-0.04-0.45-0.01-0.64,0.09l-0.84-0.4c-0.91,0.02-1.79,0.08-2.65,0.17l2.96,1.37C-125.3,395.38-125,395.69-124.6,395.77z"/>
	<path opacity="0.01" enable-background="new    " d="M-141.41,412.85c0.1-0.52-0.19-1.02-0.67-1.2l-0.86-1.64
		c-0.12,1.07-0.22,2.18-0.28,3.39c0.15,0.15,0.34,0.26,0.56,0.3C-142.08,413.81-141.52,413.43-141.41,412.85z"/>
	<path opacity="0.01" enable-background="new    " d="M-81.02,380.38c0.13-0.66-0.3-1.29-0.96-1.42s-1.29,0.3-1.42,0.96
		s0.3,1.29,0.96,1.42c0.07,0.01,0.13,0.02,0.2,0.02l2.14,3.64c0.36-0.21,0.71-0.42,1.05-0.63l-2.06-3.72
		C-81.06,380.56-81.04,380.47-81.02,380.38z"/>
	<path opacity="0.01" enable-background="new    " d="M-98.76,386.59c0.13-0.66-0.31-1.3-0.97-1.43s-1.3,0.31-1.43,0.97
		c-0.1,0.54,0.16,1.07,0.63,1.31l0.7,4.19c0.48-0.04,0.96-0.09,1.45-0.14l-0.7-4.27C-98.93,387.05-98.81,386.84-98.76,386.59z"/>
	<path opacity="0.01" enable-background="new    " d="M-80.77,373.32c-0.12,0.63,0.29,1.24,0.92,1.36s1.24-0.29,1.36-0.92
		c0.02-0.12,0.03-0.24,0.01-0.36c-1.14-0.54-2.27-1.06-3.39-1.53l1.11,1.4C-80.77,373.28-80.77,373.3-80.77,373.32z"/>
	<path opacity="0.01" enable-background="new    " d="M-83.84,373.62c-0.12,0.63,0.29,1.24,0.92,1.36s1.24-0.29,1.36-0.92
		s-0.29-1.24-0.92-1.36c-0.08-0.01-0.15-0.02-0.22-0.02l-0.96-1.54c-0.75-0.29-1.48-0.55-2.21-0.79l2.03,3.26V373.62z"/>
	<path opacity="0.01" enable-background="new    " d="M-86.83,373.94c-0.13,0.66,0.31,1.3,0.97,1.43s1.3-0.31,1.43-0.97
		s-0.3-1.3-0.96-1.43l-1.74-3.01c-0.67-0.19-1.33-0.36-1.97-0.48l2.4,4.12C-86.77,373.71-86.81,373.82-86.83,373.94z"/>
	<path opacity="0.01" enable-background="new    " d="M-54.2,369.1c-0.37,0.18-0.65,0.52-0.73,0.95c-0.14,0.73,0.34,1.43,1.07,1.58
		c0.73,0.14,1.43-0.34,1.57-1.07c0.06-0.32,0-0.64-0.14-0.9l0.95-3.33c-0.83,0.47-1.6,0.92-2.31,1.35L-54.2,369.1z"/>
	<path opacity="0.01" enable-background="new    " d="M-50.2,365.6L-50.2,365.6l-0.7,2.58c-0.4,0.2-0.71,0.59-0.81,1.07
		c-0.16,0.82,0.38,1.61,1.2,1.77s1.62-0.38,1.77-1.2c0.09-0.47-0.05-0.94-0.34-1.28l1.12-4.11l0,0
		C-48.68,364.79-49.42,365.17-50.2,365.6L-50.2,365.6z"/>
	<path opacity="0.01" enable-background="new    " d="M-52.03,378.29c0.72-0.09,1.34-0.64,1.48-1.39c0.18-0.94-0.44-1.85-1.38-2.04
		c-0.94-0.18-1.85,0.43-2.04,1.38c-0.11,0.58,0.08,1.14,0.45,1.53l-1.28,4.62c0.5,0.19,1.02,0.38,1.54,0.57L-52.03,378.29z"/>
	<path opacity="0.01" enable-background="new    " d="M-23.59,370.22c-0.39,0.25-0.68,0.66-0.77,1.15
		c-0.19,0.96,0.44,1.89,1.41,2.08c0.96,0.19,1.89-0.44,2.08-1.41c0.13-0.68-0.15-1.35-0.66-1.74l0.78-4.67
		c-0.61-0.33-1.25-0.66-1.9-0.98L-23.59,370.22z"/>
	<path opacity="0.01" enable-background="new    " d="M-48.1,378.87c0.67-0.14,1.22-0.66,1.36-1.37c0.18-0.94-0.43-1.85-1.38-2.04
		s-1.85,0.43-2.04,1.38c-0.12,0.63,0.11,1.24,0.55,1.63l-1.26,5.31c0.52,0.17,1.04,0.33,1.57,0.49L-48.1,378.87z"/>
	<path opacity="0.01" enable-background="new    " d="M-47.21,367.68c-0.38,0.2-0.67,0.57-0.76,1.03c-0.16,0.81,0.37,1.59,1.18,1.75
		s1.59-0.37,1.75-1.18c0.1-0.51-0.08-1.01-0.42-1.35l0.99-4.99c-0.64,0.23-1.28,0.49-1.95,0.78L-47.21,367.68z"/>
	<path opacity="0.01" enable-background="new    " d="M-31.82,368.24c-0.41,0.24-0.72,0.64-0.82,1.15c-0.18,0.92,0.42,1.8,1.34,1.98
		c0.92,0.18,1.8-0.42,1.98-1.34c0.11-0.58-0.09-1.15-0.48-1.53l0.73-6.2c-0.66-0.17-1.32-0.33-1.99-0.46L-31.82,368.24z"/>
	<path opacity="0.01" enable-background="new    " d="M-18.41,366.97l-0.93,4.8c-0.41,0.25-0.72,0.67-0.82,1.18
		c-0.19,0.97,0.45,1.9,1.41,2.09c0.97,0.19,1.9-0.45,2.09-1.41c0.13-0.67-0.13-1.32-0.63-1.72l0.73-3.76
		c0.5,0.33,0.87,0.56,1.08,0.67l0,0c0,0-1.33-0.9-3.24-2.03C-18.63,366.84-18.51,366.91-18.41,366.97z"/>
	<path opacity="0.01" enable-background="new    " d="M-44.12,379.43c0.6-0.18,1.07-0.68,1.2-1.33c0.18-0.94-0.43-1.85-1.38-2.04
		c-0.94-0.18-1.85,0.43-2.04,1.38c-0.13,0.69,0.16,1.36,0.69,1.74l-1,5.83c0.53,0.14,1.07,0.27,1.6,0.39L-44.12,379.43z"/>
	<path opacity="0.01" enable-background="new    " d="M-39.52,386.33c-0.51-0.06-1.02-0.12-1.53-0.19l0.97-6.25
		c0.6-0.18,1.08-0.68,1.21-1.34c0.18-0.94-0.43-1.85-1.38-2.04c-0.94-0.18-1.85,0.43-2.04,1.38c-0.13,0.69,0.16,1.35,0.69,1.74
		l-1.07,6.24c-0.65-0.12-1.31-0.25-1.96-0.39c1.47,0.33,2.94,0.59,4.38,0.76C-40.01,386.28-39.76,386.31-39.52,386.33z"/>
	<path opacity="0.01" enable-background="new    " d="M-35.99,380.34c0.58-0.19,1.04-0.68,1.17-1.32c0.18-0.94-0.43-1.85-1.38-2.04
		c-0.94-0.18-1.85,0.43-2.04,1.38c-0.13,0.7,0.17,1.38,0.72,1.76l-1.02,6.31c0.55,0.05,1.1,0.09,1.64,0.12L-35.99,380.34z"/>
	<path opacity="0.01" enable-background="new    " d="M-32.59,386.67l0.78-5.86c0.56-0.2,1.01-0.68,1.13-1.31
		c0.18-0.94-0.44-1.85-1.38-2.04c-0.94-0.18-1.85,0.43-2.04,1.38c-0.14,0.71,0.18,1.4,0.75,1.78l-0.91,6.04
		C-33.69,386.67-33.13,386.67-32.59,386.67z"/>
	<g opacity="0.01">
		<path d="M-139.45,407.12c-0.03-0.01-0.06-0.01-0.09-0.01l-2.07-2.95l-0.05-0.15c-0.2,0.59-0.38,1.21-0.54,1.85l0.08,0.08
			l1.42,1.91c-0.02,0.05-0.03,0.09-0.04,0.14c-0.12,0.6,0.28,1.17,0.87,1.29c0.6,0.12,1.17-0.28,1.29-0.87
			S-138.85,407.24-139.45,407.12z"/>
		<path d="M-140.86,409.18L-140.86,409.18l-1.41-2.67l-0.06-0.11c-0.16,0.69-0.3,1.41-0.42,2.16l0.68,1.17
			c-0.07,0.11-0.11,0.23-0.14,0.37c-0.12,0.63,0.29,1.23,0.92,1.36c0.63,0.12,1.23-0.29,1.35-0.92
			C-139.82,409.91-140.23,409.3-140.86,409.18z"/>
		<path d="M-136.35,403c-0.14-0.03-0.28-0.03-0.41-0.01l-2.91-3.37c-0.23,0.39-0.45,0.79-0.66,1.2l0,0l2.66,2.92
			c-0.02,0.05-0.04,0.11-0.05,0.17c-0.12,0.63,0.29,1.24,0.92,1.36s1.24-0.29,1.36-0.92C-135.31,403.73-135.73,403.12-136.35,403z"
			/>
		<path d="M-137.93,404.93c-0.06-0.01-0.13-0.02-0.19-0.02l-2.59-3.23l-0.02-0.04c-0.24,0.51-0.45,1.03-0.65,1.57l0.06,0.06
			l0.43,0.51l0,0l1.65,1.96c-0.01,0.03-0.02,0.06-0.02,0.1c-0.12,0.62,0.28,1.21,0.9,1.33s1.21-0.28,1.33-0.9
			C-136.92,405.64-137.32,405.05-137.93,404.93z"/>
	</g>
	<g opacity="0.01">
		<path d="M-134.51,400.98c-0.18-0.04-0.36-0.03-0.53,0.02l-3.23-3.14l-0.01-0.06c-0.29,0.33-0.57,0.68-0.84,1.05l3.21,3.05
			c0,0.01-0.01,0.03-0.01,0.04c-0.13,0.65,0.3,1.29,0.96,1.41c0.65,0.13,1.29-0.3,1.41-0.96
			C-133.43,401.74-133.86,401.1-134.51,400.98z"/>
		<path d="M-132.69,399.33c-0.17-0.03-0.34-0.03-0.5,0.02l-3.41-2.94l-0.05-0.1c-0.34,0.26-0.67,0.54-0.99,0.85l0.06,0.05l3.55,3.15
			c-0.05,0.57,0.34,1.1,0.92,1.21c0.62,0.12,1.22-0.29,1.34-0.9C-131.67,400.04-132.07,399.45-132.69,399.33z"/>
		<path d="M-130.8,397.69c-0.22-0.04-0.44-0.02-0.63,0.06l-3.14-2.57l-0.06-0.1c-0.43,0.2-0.85,0.44-1.27,0.71l0.1,0.08l3.63,2.91
			c-0.03,0.56,0.36,1.07,0.93,1.18c0.62,0.12,1.23-0.29,1.35-0.91C-129.77,398.41-130.18,397.81-130.8,397.69z"/>
		<path d="M-128.57,396.19c-0.26-0.05-0.52-0.01-0.74,0.1l-2.9-2.03l-0.05-0.04c-0.51,0.12-1.03,0.29-1.54,0.49l0.07,0.08l3.75,2.57
			c0,0.55,0.39,1.04,0.95,1.14c0.64,0.12,1.25-0.29,1.38-0.93C-127.51,396.93-127.93,396.32-128.57,396.19z"/>
	</g>
	<g opacity="0.01">
		<path d="M-123.61,402.04c0.17,0.03,0.35,0.02,0.51-0.03l3.67,2.38l0,0c0.23-0.32,0.46-0.64,0.69-0.97l-3.61-2.34
			c0.04-0.53-0.32-1.01-0.85-1.11c-0.57-0.11-1.12,0.26-1.23,0.84C-124.56,401.38-124.18,401.93-123.61,402.04z"/>
		<path d="M-127.91,406.16c0.18,0.03,0.35,0.02,0.51-0.02l3.72,3.32l0.02,0.02c0.27-0.28,0.54-0.57,0.82-0.88l-0.02-0.02l-3.75-3.26
			c0-0.01,0.01-0.03,0.01-0.04c0.12-0.6-0.28-1.19-0.88-1.3c-0.6-0.12-1.19,0.28-1.3,0.88
			C-128.91,405.46-128.52,406.04-127.91,406.16z"/>
		<path d="M-125.69,404.14c0.19,0.04,0.37,0.02,0.54-0.03l3.7,2.86l0.01,0.01c0.25-0.3,0.5-0.61,0.75-0.93h-0.01l-3.7-2.77v-0.02
			c0.12-0.6-0.28-1.18-0.87-1.29c-0.6-0.12-1.17,0.28-1.29,0.87C-126.68,403.45-126.29,404.03-125.69,404.14z"/>
		<path d="M-127.69,413.14L-127.69,413.14l-3.34-3.65c0.02-0.05,0.03-0.09,0.04-0.14c0.12-0.6-0.28-1.18-0.88-1.29
			c-0.6-0.12-1.18,0.28-1.29,0.88s0.28,1.18,0.88,1.29c0.09,0.02,0.18,0.02,0.27,0.02l3.25,3.72c-0.58,0.44-1.15,0.85-1.72,1.24
			C-129.54,414.55-128.61,413.87-127.69,413.14z"/>
		<path d="M-130.02,408.27c0.15,0.03,0.3,0.03,0.45,0l3.52,3.47l-0.01,0.05c0.29-0.26,0.59-0.53,0.88-0.8l-0.02-0.02l-3.54-3.46
			c0.01-0.04,0.02-0.08,0.03-0.12c0.12-0.61-0.28-1.19-0.89-1.31c-0.61-0.12-1.19,0.28-1.31,0.89
			C-131.03,407.57-130.63,408.15-130.02,408.27z"/>
	</g>
	<g opacity="0.01">
		<path d="M-117.56,395.82c0.34,0.07,0.67-0.04,0.9-0.27l2.15,0.67l0.07,0.02c0.23-0.48,0.41-0.87,0.55-1.19l-0.05-0.01l-2.46-0.56
			c-0.08-0.23-0.24-0.43-0.45-0.55c-0.28-0.02-0.58-0.05-0.88-0.07c-0.32,0.12-0.57,0.4-0.64,0.76
			C-118.48,395.18-118.12,395.71-117.56,395.82z"/>
		<path d="M-119.53,397.88c0.29,0.06,0.57-0.01,0.8-0.15l2.76,1.25l0.05,0.03c0.22-0.37,0.42-0.73,0.6-1.06l-0.07-0.03l-2.83-1.07
			c0.03-0.54-0.35-1.03-0.89-1.14c-0.6-0.12-1.18,0.28-1.29,0.87C-120.52,397.18-120.13,397.76-119.53,397.88z"/>
		<path d="M-117.62,401.75c0.26-0.39,0.5-0.77,0.73-1.14l-0.03-0.01l-3.32-1.59c0.06-0.56-0.32-1.08-0.88-1.19
			c-0.59-0.11-1.16,0.27-1.28,0.87c-0.11,0.59,0.27,1.16,0.87,1.28c0.24,0.05,0.48,0.01,0.69-0.09l3.22,1.86V401.75z"/>
	</g>
	<g opacity="0.01">
		<path d="M-116.1,391.26c0.5,0.02,1,0.04,1.49,0.07l-0.01-0.01l-1.49-0.09C-116.11,391.24-116.1,391.25-116.1,391.26z"/>
		<path d="M-147.85,422.9c0.29-0.11,0.6-0.22,0.93-0.33v-0.01l-0.9,0.29C-147.83,422.86-147.84,422.88-147.85,422.9L-147.85,422.9z"
			/>
		<path d="M-145.82,422.2c0.16-0.05,0.32-0.1,0.48-0.16L-145.82,422.2L-145.82,422.2z"/>
		<path d="M-116.85,393.94c-0.28-0.02-0.58-0.05-0.88-0.07h0.01c-1.1-0.09-2.18-0.18-3.23-0.25c-1.34-0.11-2.54-0.15-3.69-0.16
			l-0.04-0.01c-0.36-0.01-0.72-0.01-1.08,0l0.06,0.03c-0.91,0.02-1.79,0.08-2.65,0.17l-0.13-0.06c-0.29,0.03-0.59,0.06-0.87,0.1
			l0.1,0.06c-0.69,0.08-1.38,0.18-2.1,0.3c-2.64,0.45-5.64,1.79-7.79,4.82l0,0c-0.18,0.25-0.36,0.51-0.53,0.79
			c-1.52,2.55-2.53,5.37-3.08,8.93v-0.01c-0.08,0.34-0.15,0.69-0.23,1.04c-0.02,0.08-0.03,0.17-0.05,0.26l0.08,0.16
			c-0.12,1.07-0.22,2.18-0.28,3.39c-0.27,6.04,0.18,7.89,0.18,7.89s1.33-0.42,3.31-1.22v0.01c0.66-0.26,1.33-0.54,2.02-0.85
			l-0.01-0.02c0.38-0.17,0.77-0.35,1.16-0.54l0.01,0.02c0.67-0.32,1.35-0.66,2.04-1.03l-0.01-0.02c0.34-0.18,0.69-0.37,1.04-0.57
			l0.01,0.01c0.14-0.08,0.28-0.17,0.42-0.25c0.87-0.5,1.73-1.04,2.57-1.61c3.98-2.75,7.67-5.93,11.74-11.78
			c4.08-5.86,5.2-9.22,5.2-9.22C-114.68,394.12-115.78,394.03-116.85,393.94C-116.85,393.93-116.85,393.94-116.85,393.94z"/>
		<path d="M-81.87,371.87l-0.05-0.06c-0.61-0.27-1.21-0.51-1.79-0.74l0.05,0.07c-0.75-0.29-1.48-0.55-2.21-0.79l-0.05-0.09
			c-0.43-0.14-0.85-0.26-1.26-0.37l0.04,0.07c-0.67-0.19-1.33-0.36-1.97-0.48c-2.85-0.57-6.76-0.2-10.36,3.54
			c-2.91,3.03-4.18,5.17-7.02,10.5c-1.91,3.58-2.91,5.85-3.4,7.08c-0.15,0.33-0.29,0.64-0.44,0.98c0.02,0,0.05,0,0.08,0
			c-0.03,0.09-0.05,0.14-0.05,0.14s3.5,0.32,8.35,0.05v0.01c0.7-0.03,1.4-0.07,2.12-0.12l-0.01-0.03c0.48-0.04,0.96-0.09,1.45-0.14
			l0.01,0.03c0.66-0.08,1.33-0.17,2.01-0.28c5.78-0.83,10.16-2.6,16.28-6.24c0.36-0.21,0.71-0.42,1.05-0.63l0,0
			c0.03-0.02,0.05-0.03,0.08-0.05c5.62-3.45,9.18-6.52,9.18-6.52s-4.98-2.63-8.69-4.4C-79.62,372.86-80.75,372.34-81.87,371.87z"/>
		<path d="M-20.76,365.63v-0.02c0.75,0.41,1.42,0.8,2.03,1.17c1.92,1.13,3.24,2.03,3.24,2.03l1.24-3.4
			c-0.39-0.34-21.51-18.5-48.9,6.25c-0.07-0.03-0.14-0.05-0.21-0.06c-0.75-0.14-1.47,0.35-1.62,1.09c-0.04,0.23-0.03,0.45,0.03,0.65
			c-0.28,0.27-0.55,0.53-0.83,0.81c-0.01-0.81-0.58-1.53-1.41-1.69c-0.77-0.15-1.52,0.24-1.87,0.89c-0.2-0.14-0.43-0.25-0.69-0.3
			c-0.77-0.15-1.52,0.24-1.87,0.9c-0.22-0.11-0.44-0.23-0.65-0.34c-0.01-0.53-0.4-1.01-0.94-1.11c-0.32-0.06-0.63,0.01-0.88,0.18
			c-17.11-8.63-24.79-9.27-35.4,12.47l-2.89,6.3l-2.24-0.13l0.01,0.01c-0.49-0.03-0.99-0.05-1.49-0.07c0-0.01-0.01-0.02-0.01-0.03
			l-1.7-0.1c0,0.02-0.02,0.03-0.02,0.05c0,0.01,0,0.02,0,0.03c-2.87-0.06-5.88,0.02-9.14,0.44c-16.51,1.24-16.63,10.44-17.84,23.15
			l0,0l-0.53,7.25c-0.16,0.05-0.32,0.11-0.48,0.16l0,0l-1.09,0.36v0.01c-0.33,0.11-0.64,0.22-0.93,0.33v-0.01
			c0.01-0.01,0.02-0.03,0.03-0.04l-1.37,0.45l-0.06,0.19l-0.04,0.02l-0.63,2.46c5.98-2.19,26.58-6.58,38.36-31.62
			c12.29,0.76,27.1-0.19,43.46-15.68l0,0c1.78,0.9,3.65,1.84,5.65,2.81c10.96,6.18,25.21,8.68,36.81,6.86
			c2.63-0.27,5.94-0.77,7.15-0.92l0.42-2.16c0,0-4.93,1.07-11.6,1.35l0,0c-0.97,0.07-1.95,0.11-2.93,0.13l0.01-0.06
			c-0.55,0-1.1,0-1.66-0.01l-0.01,0.07c-0.87-0.02-1.75-0.06-2.64-0.12l0.01-0.05c-0.54-0.03-1.09-0.07-1.64-0.12v0.03
			c-0.33-0.03-0.66-0.08-0.98-0.12c-0.24-0.03-0.49-0.05-0.73-0.08c-1.44-0.17-2.91-0.43-4.38-0.76c-0.14-0.03-0.28-0.05-0.42-0.08
			v-0.01c-0.53-0.12-1.07-0.25-1.6-0.39l-0.01,0.03c-0.88-0.22-1.77-0.46-2.64-0.71l0.01-0.06c-0.53-0.16-1.05-0.32-1.57-0.49
			l-0.02,0.07c-0.8-0.26-1.6-0.53-2.4-0.82l0.02-0.06c-0.52-0.19-1.04-0.38-1.54-0.57l-0.01,0.04c-0.46-0.18-0.91-0.38-1.36-0.57
			c-5.03-1.98-8.62-3.84-8.62-3.84l2.4-4.38l0,0l0,0c0,0,1.69-1.71,6.97-4.99l0.01-0.03c0.55-0.35,1.08-0.68,1.62-1l-0.01,0.05
			c0.71-0.43,1.48-0.88,2.31-1.35l0.01-0.03c0.43-0.24,0.85-0.47,1.27-0.69l0,0c0.77-0.43,1.51-0.81,2.24-1.17
			c0.21-0.1,0.41-0.21,0.61-0.31c0.31-0.15,0.61-0.3,0.92-0.44l-0.01,0.04c0.67-0.29,1.31-0.55,1.95-0.78l0.01-0.05
			c0.66-0.24,1.32-0.45,1.98-0.63l-0.01,0.03c4.15-1.2,7.67-1.16,11.02-0.54c0.13,0.02,0.27,0.04,0.4,0.06v0.02
			c0.67,0.13,1.33,0.29,1.99,0.46v-0.03c0.53,0.14,1.06,0.29,1.59,0.46c0.2,0.06,0.4,0.13,0.59,0.2l0,0
			c1.32,0.41,2.73,1.01,4.09,1.66c0.05,0.02,0.09,0.04,0.14,0.06l0,0C-22.01,364.97-21.37,365.3-20.76,365.63z M-118.75,403.42
			c-4.07,5.85-7.76,9.03-11.74,11.78c-0.84,0.58-1.7,1.11-2.57,1.61c-0.14,0.08-0.28,0.18-0.42,0.25l-0.01-0.01
			c-0.35,0.2-0.69,0.39-1.04,0.57l0.01,0.02c-0.69,0.37-1.37,0.71-2.04,1.03l-0.01-0.02c-0.4,0.19-0.79,0.37-1.16,0.54l0.01,0.02
			c-0.69,0.31-1.36,0.59-2.02,0.85v-0.01c-1.97,0.8-3.31,1.22-3.31,1.22s-0.45-1.85-0.18-7.89c0.05-1.21,0.15-2.32,0.28-3.39
			l-0.08-0.16c0.02-0.09,0.03-0.18,0.05-0.26c0.08-0.35,0.15-0.7,0.23-1.04v0.01c0.56-3.56,1.56-6.38,3.08-8.93
			c0.17-0.28,0.35-0.54,0.53-0.79l0,0c2.14-3.03,5.15-4.37,7.79-4.82c0.71-0.12,1.4-0.22,2.1-0.3l-0.1-0.06
			c0.29-0.04,0.58-0.07,0.87-0.1l0.13,0.06c0.87-0.09,1.74-0.14,2.65-0.17l-0.06-0.03c0.36,0,0.72,0,1.08,0l0.04,0.01
			c1.15,0,2.35,0.05,3.69,0.16c1.05,0.07,2.13,0.16,3.23,0.25h-0.01c0.31,0.02,0.6,0.05,0.88,0.07l0,0c1.08,0.09,2.18,0.19,3.3,0.27
			C-113.55,394.2-114.67,397.56-118.75,403.42z M-78.97,384.32c-0.03,0.02-0.05,0.03-0.08,0.05l0,0c-0.34,0.21-0.69,0.42-1.05,0.63
			c-6.12,3.64-10.5,5.41-16.28,6.24c-0.68,0.11-1.35,0.21-2.01,0.28l-0.01-0.03c-0.49,0.05-0.97,0.1-1.45,0.14l0.01,0.03
			c-0.71,0.06-1.42,0.1-2.12,0.12v-0.01c-4.85,0.27-8.35-0.05-8.35-0.05s0.02-0.05,0.05-0.14c-0.02,0-0.05,0-0.08,0
			c0.15-0.34,0.3-0.65,0.44-0.98c0.49-1.22,1.49-3.49,3.4-7.08c2.84-5.33,4.11-7.47,7.02-10.5c3.6-3.75,7.51-4.11,10.36-3.54
			c0.65,0.13,1.31,0.3,1.97,0.48l-0.04-0.07c0.41,0.11,0.83,0.23,1.26,0.37l0.05,0.09c0.73,0.24,1.46,0.5,2.21,0.79l-0.05-0.07
			c0.58,0.23,1.18,0.48,1.79,0.74l0.05,0.06c1.12,0.48,2.25,0.99,3.39,1.53c3.71,1.77,8.69,4.4,8.69,4.4S-73.35,380.87-78.97,384.32
			z"/>
		<path d="M-145.62,421.36l-0.2,0.84l0.48-0.16l0.01-0.84C-145.42,421.27-145.51,421.32-145.62,421.36z"/>
		<path d="M-145.62,421.36c0.1-0.03,0.2-0.09,0.28-0.15l-0.01,0.84l0.53-7.25l0,0c-0.06,0.66-0.13,1.32-0.2,2
			c-0.47,0.04-0.87,0.38-0.96,0.86c-0.1,0.54,0.22,1.06,0.73,1.22c-0.02,0.2-0.05,0.4-0.07,0.6c-0.12-0.09-0.26-0.16-0.42-0.19
			c-0.56-0.11-1.1,0.26-1.21,0.82c0,0.01-0.01,0.03-0.01,0.04s-0.01,0.03-0.01,0.04c-0.07,0.37,0.07,0.74,0.34,0.97l-0.29,1.4
			l1.09-0.36L-145.62,421.36z"/>
		<path d="M-147.6,422.46c0-0.01,0-0.03,0.01-0.04c0-0.01,0.01-0.03,0.01-0.04c0.08-0.41-0.19-0.8-0.6-0.88
			c-0.41-0.08-0.8,0.19-0.88,0.6c0,0.01,0,0.03-0.01,0.04c0,0.01-0.01,0.03-0.01,0.04c-0.03,0.18,0,0.36,0.08,0.5l-0.19,0.61
			l1.37-0.45C-147.71,422.75-147.63,422.62-147.6,422.46z"/>
		<path d="M-116.8,390.49c-0.46-0.09-0.89,0.2-1,0.64l1.7,0.1C-116.15,390.87-116.42,390.56-116.8,390.49z"/>
		<path d="M-113.43,390.55c0.02-0.42-0.28-0.81-0.71-0.89c-0.47-0.09-0.93,0.22-1.02,0.69c-0.08,0.42,0.15,0.83,0.54,0.98l2.24,0.13
			h-0.03L-113.43,390.55z"/>
		<path d="M-110.47,386.09c-0.06,0.29,0,0.58,0.15,0.82c-0.18,0.37-0.35,0.75-0.53,1.14c-0.13-0.09-0.29-0.16-0.46-0.19
			c-0.63-0.12-1.24,0.29-1.36,0.92c-0.12,0.62,0.27,1.21,0.88,1.35c-0.19,0.44-0.39,0.88-0.59,1.33l2.89-6.3
			C-109.96,385.23-110.37,385.59-110.47,386.09z"/>
	</g>
	<path opacity="0.01" enable-background="new    " d="M-107.46,389.02c0.13-0.69-0.31-1.36-1-1.5h-0.05
		c-0.36,0.75-0.65,1.39-0.89,1.93l-0.1,0.35c0.01,0.01,0.01,0.01,0.02,0.02l-0.49,1.8c-0.01,0-0.01,0-0.02,0l-0.04,0.15
		c0.28,0.02,0.76,0.05,1.41,0.08l0.03-0.15h-0.01l0.42-1.75C-107.82,389.77-107.54,389.44-107.46,389.02z"/>
	<path opacity="0.01" enable-background="new    " d="M-107.7,385.85l0.06,0.05c0.02,0.01,0.05,0.01,0.07,0.02
		c0.63,0.12,1.24-0.29,1.36-0.92c0.09-0.45-0.1-0.89-0.45-1.15c0.05-0.1,0.11-0.21,0.16-0.31
		C-106.94,384.38-107.34,385.15-107.7,385.85z"/>
	<path opacity="0.01" enable-background="new    " d="M-105.2,390.69L-105.2,390.69l0.13-1.66c0.25-0.16,0.44-0.42,0.5-0.73
		c0.12-0.61-0.28-1.2-0.89-1.32c-0.61-0.12-1.2,0.28-1.31,0.89c-0.08,0.39,0.06,0.78,0.34,1.03l-0.13,1.56l0,0l-0.11,1.41
		c0.43,0.01,0.89,0.01,1.38,0L-105.2,390.69z"/>
	<path opacity="0.01" enable-background="new    " d="M-106.7,391.88l-1.91-0.05C-108.07,391.86-107.43,391.88-106.7,391.88z"/>
	<path opacity="0.01" enable-background="new    " d="M-101.64,387.48c0.13-0.66-0.3-1.29-0.96-1.42s-1.29,0.3-1.42,0.96
		c-0.11,0.56,0.19,1.11,0.69,1.33l0.16,3.46v0.02c0.4-0.01,0.8-0.03,1.22-0.05l-0.05-3.64
		C-101.82,387.97-101.69,387.74-101.64,387.48z"/>
	<path opacity="0.01" enable-background="new    " d="M-98.25,377.38l-1.22-4.35c-0.42,0.44-0.8,0.85-1.16,1.27l0,0l1,3.54
		c-0.08,0.12-0.14,0.26-0.17,0.41c-0.12,0.63,0.29,1.24,0.92,1.36s1.24-0.29,1.36-0.92C-97.4,378.12-97.73,377.57-98.25,377.38z"/>
	<path opacity="0.01" enable-background="new    " d="M-104.21,379.42"/>
	<path opacity="0.01" enable-background="new    " d="M-100.54,378.75l-0.36-2.18l0,0l0,0l-0.27-1.62c0,0,0-0.01,0.01-0.01v-0.02
		c-0.44,0.53-0.84,1.05-1.23,1.61l0.02,0.05l0.44,2.67c-0.07,0.11-0.12,0.24-0.15,0.38c-0.12,0.63,0.29,1.24,0.92,1.36
		s1.24-0.29,1.36-0.92C-99.69,379.49-100.01,378.94-100.54,378.75z"/>
	<path opacity="0.01" enable-background="new    " d="M-96.02,375.96l-1.49-4.61l-0.01-0.01c-0.4,0.29-0.81,0.61-1.21,0.98
		l0.43,1.35l0,0l0.92,2.83c-0.1,0.14-0.17,0.31-0.2,0.49c-0.14,0.7,0.32,1.38,1.02,1.51c0.7,0.14,1.38-0.32,1.51-1.02
		C-94.91,376.78-95.35,376.11-96.02,375.96z"/>
	<path opacity="0.01" enable-background="new    " d="M-93.33,375.1l-2.11-4.94l0,0v-0.01c-0.43,0.19-0.87,0.41-1.3,0.67v0.01
		l2.04,4.76c-0.07,0.12-0.12,0.25-0.15,0.39c-0.12,0.63,0.29,1.24,0.92,1.36s1.24-0.29,1.36-0.92
		C-92.46,375.84-92.79,375.28-93.33,375.1z"/>
	<path opacity="0.01" enable-background="new    " d="M-88.23,373.41c-0.05-0.01-0.1-0.02-0.16-0.02l-1.8-4.04l0.02-0.02
		c-0.53-0.05-1.09-0.07-1.66-0.04l0.02,0.03l2.17,4.85c-0.03,0.08-0.06,0.16-0.08,0.25c-0.13,0.69,0.32,1.35,1,1.48
		c0.69,0.13,1.35-0.32,1.48-1C-87.09,374.21-87.54,373.54-88.23,373.41z"/>
	<path opacity="0.01" enable-background="new    " d="M-91,373.98c-0.02,0-0.04-0.01-0.05-0.01l-1.31-3.08l-0.65-1.48
		c-0.47,0.08-0.94,0.19-1.42,0.35l0,0l2.07,4.84c-0.07,0.12-0.12,0.25-0.15,0.4c-0.13,0.7,0.32,1.37,1.02,1.51
		c0.7,0.13,1.37-0.32,1.51-1.02S-90.3,374.12-91,373.98z"/>
	<path opacity="0.01" enable-background="new    " d="M-70.17,378.11l-1.17-1.1c0.51,0.26,1.03,0.53,1.56,0.8
		c0,0-1.99-1.05-4.4-2.27l-0.01,0.02c-0.14,0.16-0.24,0.36-0.28,0.58c-0.13,0.69,0.32,1.36,1.01,1.5c0.23,0.04,0.45,0.02,0.66-0.05
		l1.45,1.45l0.02,0.02c0.99-0.77,1.54-1.24,1.54-1.24C-69.92,377.91-70.04,378.01-70.17,378.11z"/>
	<path opacity="0.01" enable-background="new    " d="M-73.14,380.37l-1.85-2.31c0.01-0.04,0.02-0.09,0.03-0.13
		c0.13-0.67-0.31-1.32-0.98-1.45s-1.32,0.31-1.45,0.98s0.31,1.32,0.98,1.45c0.16,0.03,0.31,0.03,0.46,0l1.56,1.94l0,0l0.25,0.27
		c0.36-0.26,0.71-0.51,1.03-0.74L-73.14,380.37z"/>
	<path opacity="0.01" enable-background="new    " d="M-75.96,382.38l-0.01-0.01l-2.14-3.08c0.03-0.07,0.05-0.14,0.06-0.21
		c0.12-0.64-0.29-1.25-0.93-1.37c-0.64-0.12-1.25,0.29-1.37,0.93c-0.12,0.64,0.29,1.25,0.93,1.37c0.04,0.01,0.08,0.01,0.12,0.02
		l2.07,3.19c-0.59,0.38-1.16,0.75-1.73,1.1C-77.88,383.65-76.88,383-75.96,382.38z"/>
	<path opacity="0.01" enable-background="new    " d="M-76.83,374.72c0.28,0.05,0.55,0,0.78-0.12l0.01-0.01
		c-0.83-0.41-1.66-0.82-2.43-1.19c0.24,0.11,0.47,0.23,0.71,0.35C-77.7,374.23-77.33,374.63-76.83,374.72z"/>
	<path opacity="0.01" enable-background="new    " d="M-85.41,382.41c0.02,0,0.04,0.01,0.06,0.01l1.89,3.95l0,0l0.22,0.4
		c0.39-0.21,0.77-0.41,1.17-0.63h-0.02l-2.04-4.3c0.07-0.11,0.11-0.24,0.14-0.38c0.13-0.66-0.3-1.29-0.96-1.42s-1.29,0.3-1.42,0.96
		C-86.5,381.65-86.07,382.29-85.41,382.41z"/>
	<path opacity="0.01" enable-background="new    " d="M-88.38,383.42l1.94,4.84l0.04,0.09c0.41-0.18,0.82-0.39,1.24-0.59l-0.03-0.06
		l-2.02-4.68c0.14-0.16,0.24-0.35,0.28-0.57c0.13-0.66-0.31-1.3-0.97-1.43s-1.3,0.31-1.43,0.97
		C-89.47,382.65-89.04,383.29-88.38,383.42z"/>
	<path opacity="0.01" enable-background="new    " d="M-95.08,391l-1-4.68c0.16-0.16,0.27-0.38,0.32-0.62
		c0.13-0.66-0.3-1.3-0.96-1.43s-1.3,0.3-1.43,0.96c-0.11,0.56,0.19,1.11,0.69,1.34l1.07,4.65C-95.94,391.16-95.51,391.07-95.08,391
		L-95.08,391z"/>
	<path opacity="0.01" enable-background="new    " d="M-94.32,385.69c0.01,0,0.01,0,0.02,0l1.41,4.81l0.02,0.07
		c0.4-0.09,0.8-0.2,1.19-0.3l-0.03-0.09l-1.44-4.93c0.11-0.14,0.19-0.31,0.22-0.49c0.12-0.64-0.29-1.26-0.93-1.38
		c-0.64-0.12-1.26,0.29-1.38,0.93C-95.38,384.95-94.96,385.57-94.32,385.69z"/>
	<path opacity="0.01" enable-background="new    " d="M-91.38,384.5h0.01l1.73,5.01l0.04,0.1c0.44-0.15,0.88-0.3,1.32-0.48
		l-0.08-0.09l-1.89-5.03c0.07-0.11,0.13-0.24,0.15-0.38c0.11-0.6-0.27-1.17-0.87-1.29c-0.6-0.11-1.17,0.27-1.29,0.87
		C-92.36,383.81-91.97,384.39-91.38,384.5z"/>
	<path opacity="0.01" enable-background="new    " d="M-104.71,382.27l0.13-2.21l-0.01-0.03c-0.57,1-1.18,2.14-1.9,3.49
		c0.11,0.42,0.45,0.76,0.9,0.85c0.63,0.12,1.24-0.29,1.36-0.92C-104.13,382.99-104.34,382.53-104.71,382.27z"/>
	<path opacity="0.01" enable-background="new    " d="M-102.62,380.38l-0.36-2.91c0,0,0-0.01,0.01-0.01l-0.01-0.07
		c-0.41,0.62-0.82,1.29-1.25,2.04v0.03l0.03-0.05l0.14,1.12c-0.19,0.18-0.34,0.41-0.39,0.69c-0.13,0.68,0.31,1.33,0.99,1.46
		s1.33-0.31,1.46-0.99C-101.91,381.16-102.17,380.63-102.62,380.38z"/>
	<path opacity="0.01" enable-background="new    " d="M-62.32,378.86l-0.12,0.3c0.44,0.21,0.94,0.44,1.48,0.68l0.07-0.2l1.05-2.54
		c0.8-0.02,1.5-0.59,1.66-1.41c0.18-0.94-0.43-1.85-1.38-2.04c-0.94-0.18-1.85,0.43-2.04,1.38c-0.1,0.51,0.04,1.01,0.33,1.39
		L-62.32,378.86z"/>
	<path opacity="0.01" enable-background="new    " d="M-64.35,377.79l0.67-1.28c0.81,0,1.54-0.58,1.7-1.41
		c0.1-0.54-0.05-1.07-0.38-1.45l-2.4,4.38c0,0,0.09,0.05,0.26,0.13L-64.35,377.79z"/>
	<path opacity="0.01" enable-background="new    " d="M-55.74,374.26c-0.94-0.18-1.85,0.43-2.04,1.38c-0.11,0.56,0.07,1.11,0.43,1.5
		l-1.18,3.68l-0.01,0.08c0.75,0.32,1.54,0.64,2.38,0.97c-0.29-0.12-0.58-0.24-0.86-0.36l1.15-3.81c0.74-0.08,1.36-0.63,1.51-1.4
		C-54.18,375.35-54.8,374.44-55.74,374.26z"/>
	<g opacity="0.01">
		<path d="M-59.2,371.15c-2.33,1.64-3.17,2.49-3.18,2.49c0.29-0.24,0.58-0.47,0.87-0.69c0.18,0.15,0.4,0.27,0.64,0.31
			c0.75,0.14,1.47-0.35,1.62-1.09c0.05-0.25,0.03-0.49-0.05-0.71l0.1-0.25L-59.2,371.15z"/>
		<path d="M-55.41,368.66c-1.19,0.74-2.19,1.4-3.04,1.97l-0.01,0.05c-0.12,0.73,0.37,1.43,1.1,1.57c0.75,0.14,1.47-0.35,1.62-1.09
			c0.06-0.33,0-0.66-0.15-0.93L-55.41,368.66z"/>
	</g>
	<path opacity="0.01" enable-background="new    " d="M-43.49,367.37c-0.41,0.21-0.71,0.6-0.81,1.09c-0.16,0.85,0.39,1.66,1.24,1.83
		c0.85,0.16,1.66-0.39,1.83-1.24c0.12-0.6-0.13-1.19-0.59-1.54l1.12-5.65c-0.58,0.12-1.17,0.27-1.78,0.44L-43.49,367.37z"/>
	<path opacity="0.01" enable-background="new    " d="M-40.7,361.85c0.08-0.02,0.15-0.03,0.22-0.04
		C-40.55,361.82-40.63,361.83-40.7,361.85L-40.7,361.85z"/>
	<path opacity="0.01" enable-background="new    " d="M-36.76,361.35c-1.19,0.05-2.42,0.2-3.71,0.46c0.54-0.1,1.08-0.19,1.62-0.26
		l-1,5.81c-0.41,0.23-0.72,0.63-0.81,1.12c-0.17,0.89,0.41,1.75,1.3,1.92c0.89,0.17,1.75-0.41,1.92-1.3c0.1-0.53-0.06-1.04-0.4-1.41
		l1.09-6.3L-36.76,361.35z"/>
	<path opacity="0.01" enable-background="new    " d="M-31.46,361.75c-1.14-0.21-2.31-0.35-3.51-0.4v0.03l-0.92,6.31
		c-0.4,0.23-0.69,0.62-0.79,1.1c-0.17,0.88,0.41,1.73,1.29,1.9c0.88,0.17,1.73-0.41,1.9-1.29c0.1-0.53-0.06-1.04-0.4-1.41l0.94-6.47
		C-32.45,361.59-31.96,361.67-31.46,361.75z"/>
	<path opacity="0.01" enable-background="new    " d="M-24.92,363.63c-0.66-0.27-1.32-0.51-1.96-0.71l-0.86,6.05
		c-0.4,0.25-0.69,0.66-0.79,1.15c-0.18,0.95,0.44,1.87,1.39,2.06s1.87-0.44,2.06-1.39c0.13-0.66-0.13-1.3-0.62-1.7l0.78-5.44
		L-24.92,363.63z"/>
	<path opacity="0.01" enable-background="new    " d="M-25.11,386.1v0.18c0.64-0.06,1.25-0.13,1.82-0.2l0.03-0.16l0.26-4.22
		c0.58-0.19,1.03-0.68,1.16-1.32c0.18-0.94-0.43-1.85-1.38-2.04c-0.94-0.18-1.85,0.43-2.04,1.38c-0.12,0.62,0.11,1.23,0.54,1.62
		L-25.11,386.1z"/>
	<path opacity="0.01" enable-background="new    " d="M-27.99,386.51v-0.06l0.52-5.27c0.55-0.21,0.98-0.68,1.1-1.3
		c0.18-0.94-0.43-1.85-1.38-2.04s-1.85,0.43-2.04,1.38c-0.14,0.72,0.19,1.42,0.77,1.79l-0.65,5.59
		C-29.09,386.58-28.54,386.55-27.99,386.51z"/>
	<path opacity="0.01" enable-background="new    " d="M-18.66,378.58c-0.94-0.18-1.85,0.43-2.04,1.38c-0.12,0.6,0.09,1.19,0.51,1.59
		l-0.15,4.05l0.02,0.06c1.42-0.23,2.24-0.41,2.25-0.41c-0.12,0.03-0.26,0.05-0.41,0.08l0.2-3.46c0.5-0.22,0.89-0.68,1-1.26
		C-17.1,379.67-17.72,378.76-18.66,378.58z"/>
	<path opacity="0.01" enable-background="new    " d="M418.49,494.23c0.01-0.03,0.02-0.06,0.04-0.09
		C418.51,494.17,418.5,494.2,418.49,494.23L418.49,494.23z"/>
	<path opacity="0.01" enable-background="new    " d="M390.92,527.73c1.89-1.17,3.14-1.94,3.14-1.94
		C392.99,526.46,391.94,527.1,390.92,527.73L390.92,527.73z"/>
	<path opacity="0.01" enable-background="new    " d="M458.36,439.01c0.91-0.13,1.78-0.23,2.58-0.31c-0.79,0.07-1.64,0.16-2.59,0.29
		L458.36,439.01z"/>
	<path opacity="0.01" enable-background="new    " d="M383.6,572.16c0.11-0.15,0.21-0.3,0.32-0.46l-0.55-0.75
		c-0.03,0.11-0.09,0.22-0.15,0.32L383.6,572.16z"/>
	<path opacity="0.01" enable-background="new    " d="M407.63,484.87c-0.73,0.16-1.42,0.34-2.09,0.51l0.09,0.04
		c0.68-0.19,1.38-0.36,2.08-0.53L407.63,484.87z"/>
	<path opacity="0.01" enable-background="new    " d="M403.03,486.13c-0.47,0.16-0.93,0.32-1.37,0.5l0.08,0.04
		c0.45-0.17,0.92-0.34,1.39-0.49L403.03,486.13z"/>
	<path opacity="0.01" enable-background="new    " d="M402.86,515.98c0.61-0.48,1.21-0.98,1.81-1.51l-0.03-0.03
		C404.03,514.98,403.44,515.5,402.86,515.98L402.86,515.98z"/>
	<path opacity="0.01" enable-background="new    " d="M405.88,513.39c0.54-0.51,1.08-1.03,1.61-1.58c-0.55,0.54-1.1,1.05-1.64,1.55
		L405.88,513.39z"/>
	<path opacity="0.01" enable-background="new    " d="M374.19,546.82c0,0.34,0.01,0.7,0.04,1.06
		C374.19,547.51,374.2,547.17,374.19,546.82L374.19,546.82z"/>
	<path opacity="0.01" enable-background="new    " d="M391.28,559.42c0.07-0.16,0.14-0.34,0.21-0.51c-0.07,0.17-0.15,0.34-0.22,0.5
		L391.28,559.42z"/>
	<path opacity="0.01" enable-background="new    " d="M390.09,528.24c-1.05,0.64-2.07,1.27-3.06,1.9c1.1-0.68,2.13-1.32,3.05-1.89
		C390.08,528.25,390.08,528.24,390.09,528.24z"/>
	<path opacity="0.01" enable-background="new    " d="M380.26,535.06c-0.25,0.22-0.48,0.44-0.72,0.67l0.13-0.02
		c0.24-0.23,0.49-0.46,0.74-0.68L380.26,535.06z"/>
	<path opacity="0.01" enable-background="new    " d="M389.58,562.89c0.39-0.73,0.77-1.48,1.15-2.27l-0.02-0.01
		c-0.38,0.79-0.77,1.54-1.15,2.26L389.58,562.89z"/>
	<path opacity="0.01" enable-background="new    " d="M387.64,566.23c0.42-0.67,0.83-1.37,1.25-2.09l-0.02-0.01
		C388.44,564.89,388.02,565.6,387.64,566.23L387.64,566.23z"/>
	<path opacity="0.01" enable-background="new    " d="M377.34,557.9c0.16,0.36,0.32,0.72,0.48,1.08c0.04,0.08,0.08,0.17,0.13,0.26
		l0.18,0.09C377.86,558.85,377.6,558.38,377.34,557.9L377.34,557.9z"/>
	<path opacity="0.01" enable-background="new    " d="M456.15,469.36c-0.31,0.19-0.63,0.38-0.95,0.57c0.32-0.18,0.65-0.35,0.96-0.54
		L456.15,469.36z"/>
	<path opacity="0.01" enable-background="new    " d="M450.07,472.54c-0.14,0.06-0.29,0.13-0.44,0.19l0.01,0.01
		C449.78,472.68,449.92,472.61,450.07,472.54z"/>
	<path opacity="0.01" enable-background="new    " d="M447.96,473.47l-0.02-0.03c-0.95,0.38-1.9,0.74-2.85,1.07l0.03,0.06
		C446.07,474.23,447.02,473.86,447.96,473.47z"/>
	<path opacity="0.01" enable-background="new    " d="M443.39,475.18l-0.03-0.07c-0.91,0.3-1.81,0.58-2.69,0.85l0.03,0.06
		C441.6,475.76,442.5,475.48,443.39,475.18z"/>
	<path opacity="0.01" enable-background="new    " d="M383.62,532.43l-0.04,0.01c-0.33,0.23-0.65,0.47-0.97,0.71l0.07-0.01
		C382.99,532.9,383.3,532.66,383.62,532.43z"/>
	<path opacity="0.01" enable-background="new    " d="M438.92,476.47c-0.53,0.15-1.06,0.29-1.57,0.43c0.53-0.13,1.06-0.25,1.59-0.39
		L438.92,476.47z"/>
	<path opacity="0.01" enable-background="new    " d="M464.21,463.68L464.21,463.68c-0.82,0.66-1.68,1.32-2.58,1.99l0.03,0.06
		C462.54,465.06,463.39,464.38,464.21,463.68z"/>
	<path opacity="0.01" enable-background="new    " d="M460.17,466.81l-0.03-0.07c-0.79,0.56-1.6,1.11-2.44,1.65l0.03,0.05
		C458.56,467.91,459.38,467.37,460.17,466.81z"/>
	<path opacity="0.01" enable-background="new    " d="M431.29,459.89c0.22-0.49,0.43-0.98,0.67-1.5c-0.23,0.48-0.46,0.97-0.68,1.46
		L431.29,459.89z"/>
	<path opacity="0.01" enable-background="new    " d="M433.55,455.18c-0.12,0.23-0.23,0.45-0.35,0.68c0.3-0.57,0.6-1.12,0.9-1.65
		l-0.02-0.04C433.91,454.51,433.73,454.84,433.55,455.18z"/>
	<path opacity="0.01" enable-background="new    " d="M435.31,452.18l0.03,0.05c0.44-0.67,0.89-1.3,1.35-1.89l-0.02-0.03
		C436.2,450.91,435.75,451.53,435.31,452.18z"/>
	<path opacity="0.01" enable-background="new    " d="M455.84,439.41c0.06-0.01,0.11-0.02,0.17-0.03l0,0
		C455.96,439.39,455.9,439.4,455.84,439.41z"/>
	<path opacity="0.01" enable-background="new    " d="M446.21,442.59c0.14-0.07,0.27-0.13,0.41-0.2l-0.01-0.02
		C446.48,442.45,446.35,442.52,446.21,442.59z"/>
	<path opacity="0.01" enable-background="new    " d="M448.69,441.46l0.02,0.03c0.78-0.31,1.57-0.6,2.37-0.88
		c-0.22,0.07-0.44,0.14-0.66,0.21C449.84,441.03,449.26,441.24,448.69,441.46z"/>
	<path opacity="0.01" enable-background="new    " d="M429.3,464.54l0.01,0.03c0.25-0.61,0.51-1.26,0.8-1.94l-0.02-0.05
		C429.82,463.21,429.56,463.87,429.3,464.54z"/>
	<polygon opacity="0.01" enable-background="new    " points="426.35,473.63 426.35,473.63 426.35,473.63 	"/>
	<path opacity="0.01" enable-background="new    " d="M386.72,531.87c0.54-0.26,0.77-0.9,0.51-1.44c-0.05-0.11-0.12-0.21-0.21-0.3
		c-1.27,0.78-2.38,1.54-3.41,2.29l2.06-0.62C385.98,532,386.37,532.04,386.72,531.87z"/>
	<path opacity="0.01" enable-background="new    " d="M387.64,554.11c-0.28-0.6-1-0.85-1.6-0.57c-0.6,0.28-0.85,1-0.57,1.6
		c0.28,0.6,1,0.85,1.6,0.57c0.12-0.06,0.23-0.13,0.32-0.22l4.86,1.57c-0.25,0.64-0.51,1.25-0.77,1.86c0.45-1.02,0.87-2.07,1.24-3.14
		l-5.04-1.57C387.67,554.18,387.66,554.15,387.64,554.11z"/>
	<path opacity="0.01" enable-background="new    " d="M386.1,560.64c-0.31-0.65-1.08-0.92-1.73-0.61c-0.65,0.31-0.92,1.08-0.61,1.73
		s1.08,0.92,1.73,0.61c0.03-0.02,0.06-0.03,0.09-0.05l3.29,1.81c0.23-0.4,0.46-0.82,0.69-1.25l-3.33-1.72
		C386.22,560.98,386.18,560.81,386.1,560.64z"/>
	<path opacity="0.01" enable-background="new    " d="M385.23,563.93c-0.3-0.63-1.06-0.9-1.69-0.6c-0.63,0.3-0.9,1.06-0.6,1.69
		c0.26,0.54,0.85,0.82,1.41,0.7l2.45,1.83c-0.45,0.68-0.89,1.33-1.32,1.95c0,0,0.92-1.26,2.16-3.28l-2.29-1.58
		C385.37,564.41,385.34,564.16,385.23,563.93z"/>
	<path opacity="0.01" enable-background="new    " d="M386.93,557.39c-0.29-0.62-1.03-0.88-1.65-0.59s-0.88,1.03-0.59,1.65
		s1.03,0.88,1.65,0.59c0.09-0.04,0.17-0.09,0.24-0.15l4.13,1.72c0.19-0.39,0.37-0.79,0.56-1.19l-4.22-1.62
		C387.03,557.66,386.99,557.52,386.93,557.39z"/>
	<path opacity="0.01" enable-background="new    " d="M383.85,537.08c0.57-0.27,0.82-0.96,0.54-1.53c-0.27-0.57-0.96-0.82-1.53-0.54
		c-0.19,0.09-0.34,0.22-0.45,0.38l-2.74,0.32c-0.56,0.53-1.12,1.08-1.68,1.66l4.48-0.58C382.81,537.18,383.37,537.31,383.85,537.08z
		"/>
	<path opacity="0.01" enable-background="new    " d="M385.18,534.48c0.56-0.27,0.8-0.94,0.53-1.5c-0.27-0.56-0.94-0.8-1.5-0.53
		c-0.23,0.11-0.41,0.29-0.52,0.5l-1.02,0.19c-0.8,0.62-1.55,1.25-2.27,1.9l3.55-0.72C384.3,534.6,384.77,534.68,385.18,534.48z"/>
	<path opacity="0.01" enable-background="new    " d="M381.38,560.87c-0.25-0.53-0.85-0.79-1.4-0.63l-1.86-0.9
		c0.59,1.04,1.24,2.1,1.99,3.22c0.23,0.04,0.47,0.01,0.7-0.1C381.41,562.17,381.67,561.46,381.38,560.87z"/>
	<path opacity="0.01" enable-background="new    " d="M414.09,491.95c-0.32-0.67-1.12-0.96-1.79-0.64
		c-0.67,0.32-0.96,1.12-0.64,1.79s1.12,0.96,1.79,0.64c0.07-0.03,0.13-0.07,0.19-0.11l4.32,1.85c0.18-0.43,0.35-0.85,0.52-1.26
		l-4.3-1.98C414.17,492.15,414.14,492.05,414.09,491.95z"/>
	<path opacity="0.01" enable-background="new    " d="M402.28,509.23c-0.32-0.68-1.13-0.97-1.81-0.64
		c-0.68,0.32-0.97,1.13-0.64,1.81c0.26,0.55,0.85,0.85,1.43,0.76l3.39,3.3c0.4-0.35,0.8-0.71,1.21-1.08l-3.45-3.37
		C402.44,509.75,402.4,509.48,402.28,509.23z"/>
	<path opacity="0.01" enable-background="new    " d="M409.65,485.47c0.31,0.64,1.08,0.92,1.72,0.61c0.65-0.31,0.92-1.08,0.61-1.72
		c-0.06-0.12-0.13-0.23-0.22-0.33c-1.38,0.27-2.74,0.55-4.05,0.86l1.91,0.52C409.64,485.43,409.64,485.45,409.65,485.47z"/>
	<path opacity="0.01" enable-background="new    " d="M407.11,487.76c0.31,0.64,1.08,0.92,1.72,0.61c0.65-0.31,0.92-1.08,0.61-1.72
		s-1.08-0.92-1.72-0.61c-0.08,0.04-0.15,0.08-0.21,0.13l-1.87-0.75c-0.86,0.23-1.69,0.49-2.5,0.75l3.97,1.58L407.11,487.76z"/>
	<path opacity="0.01" enable-background="new    " d="M404.63,490.02c0.32,0.68,1.13,0.97,1.81,0.64c0.68-0.32,0.97-1.13,0.64-1.81
		c-0.32-0.68-1.13-0.96-1.81-0.65l-3.54-1.54c-0.72,0.27-1.42,0.56-2.09,0.87l4.86,2.11C404.54,489.77,404.57,489.9,404.63,490.02z"
		/>
	<path opacity="0.01" enable-background="new    " d="M430.68,464.16c-0.21,0.4-0.24,0.9-0.03,1.34c0.35,0.75,1.25,1.06,1.99,0.71
		c0.75-0.35,1.06-1.25,0.71-1.99c-0.16-0.33-0.42-0.57-0.72-0.72l-1.34-3.61c-0.43,0.97-0.82,1.88-1.18,2.73L430.68,464.16z"/>
	<path opacity="0.01" enable-background="new    " d="M431.96,458.4C431.96,458.39,431.96,458.39,431.96,458.4l1.07,2.77
		c-0.23,0.45-0.25,1-0.02,1.49c0.4,0.84,1.4,1.2,2.24,0.8c0.84-0.4,1.2-1.4,0.8-2.24c-0.23-0.49-0.66-0.81-1.15-0.92l-1.71-4.42l0,0
		C432.79,456.67,432.37,457.5,431.96,458.4C431.96,458.39,431.96,458.39,431.96,458.4z"/>
	<path opacity="0.01" enable-background="new    " d="M438.68,470.97c0.59-0.56,0.78-1.46,0.41-2.23c-0.46-0.96-1.61-1.37-2.58-0.92
		c-0.96,0.46-1.37,1.61-0.92,2.58c0.28,0.59,0.82,0.97,1.42,1.08l1.9,4.99c0.58-0.16,1.16-0.33,1.76-0.51L438.68,470.97z"/>
	<path opacity="0.01" enable-background="new    " d="M458.84,444.99c-0.18,0.48-0.17,1.04,0.07,1.54c0.47,0.98,1.65,1.4,2.63,0.93
		s1.4-1.64,0.93-2.63c-0.33-0.7-1.02-1.11-1.74-1.13l-2.37-4.7c-0.76,0.11-1.55,0.23-2.34,0.38L458.84,444.99z"/>
	<path opacity="0.01" enable-background="new    " d="M442.59,468.9c0.51-0.56,0.66-1.4,0.31-2.13c-0.46-0.96-1.61-1.37-2.58-0.92
		c-0.96,0.46-1.37,1.61-0.92,2.58c0.3,0.64,0.91,1.04,1.57,1.1l2.37,5.59c0.57-0.19,1.15-0.39,1.73-0.6L442.59,468.9z"/>
	<path opacity="0.01" enable-background="new    " d="M436.01,458.28c-0.21,0.44-0.23,0.96,0,1.43c0.39,0.83,1.38,1.18,2.21,0.79
		c0.83-0.39,1.18-1.38,0.79-2.21c-0.25-0.52-0.73-0.85-1.26-0.93l-2.4-5.13c-0.42,0.63-0.83,1.28-1.23,1.99L436.01,458.28z"/>
	<path opacity="0.01" enable-background="new    " d="M450.17,448.64c-0.21,0.48-0.22,1.05,0.02,1.57c0.45,0.94,1.57,1.34,2.5,0.89
		c0.94-0.45,1.34-1.57,0.89-2.5c-0.28-0.59-0.83-0.97-1.44-1.05l-3.43-6.04c-0.71,0.28-1.4,0.58-2.09,0.9L450.17,448.64z"/>
	<path opacity="0.01" enable-background="new    " d="M461.34,438.66l2.34,4.91c-0.2,0.5-0.21,1.08,0.04,1.6
		c0.47,0.99,1.65,1.41,2.64,0.94s1.41-1.65,0.94-2.64c-0.33-0.68-0.99-1.1-1.7-1.13l-1.83-3.84c0.67-0.04,1.15-0.07,1.41-0.11l0,0
		c0,0-1.78,0.06-4.25,0.32C461.07,438.69,461.22,438.67,461.34,438.66z"/>
	<path opacity="0.01" enable-background="new    " d="M446.52,466.77c0.41-0.56,0.51-1.32,0.19-1.98c-0.46-0.96-1.61-1.37-2.58-0.92
		c-0.96,0.46-1.37,1.61-0.92,2.58c0.33,0.7,1.04,1.11,1.77,1.1l2.95,5.89c0.57-0.23,1.13-0.46,1.69-0.71L446.52,466.77z"/>
	<path opacity="0.01" enable-background="new    " d="M455.2,469.93c-0.5,0.28-0.99,0.57-1.49,0.83l-3.25-6.24
		c0.42-0.56,0.52-1.32,0.2-1.99c-0.46-0.96-1.61-1.37-2.58-0.92c-0.96,0.46-1.37,1.61-0.92,2.58c0.33,0.7,1.03,1.11,1.76,1.1
		l3.15,6.3c-0.66,0.33-1.34,0.64-2.01,0.95c1.53-0.68,3.02-1.41,4.42-2.2C454.73,470.21,454.96,470.07,455.2,469.93z"/>
	<path opacity="0.01" enable-background="new    " d="M454.41,462.23c0.4-0.55,0.49-1.3,0.17-1.96c-0.46-0.96-1.61-1.37-2.58-0.92
		c-0.96,0.46-1.37,1.61-0.92,2.58c0.34,0.72,1.06,1.13,1.81,1.1l3.25,6.33c0.53-0.32,1.04-0.64,1.55-0.97L454.41,462.23z"/>
	<path opacity="0.01" enable-background="new    " d="M461.63,465.66l-3.16-5.77c0.38-0.55,0.46-1.28,0.15-1.92
		c-0.46-0.96-1.61-1.37-2.58-0.92c-0.96,0.46-1.37,1.61-0.92,2.58c0.35,0.73,1.09,1.14,1.84,1.1l3.17,6.01
		C460.65,466.39,461.15,466.02,461.63,465.66z"/>
	<g opacity="0.01">
		<path d="M379.37,554.44c-0.03,0.01-0.06,0.03-0.09,0.05l-3.8-1.27l-0.15-0.1c0.21,0.66,0.46,1.33,0.74,2.01l0.13,0.01l2.54,0.78
			c0.02,0.05,0.04,0.1,0.06,0.15c0.29,0.61,1.02,0.87,1.63,0.58s0.87-1.02,0.58-1.63C380.71,554.41,379.98,554.15,379.37,554.44z"/>
		<path d="M379.46,557.22L379.46,557.22l-3.03-1.47l-0.13-0.06c0.31,0.73,0.66,1.46,1.05,2.22l1.38,0.6
			c0.01,0.14,0.05,0.29,0.12,0.42c0.31,0.64,1.07,0.91,1.72,0.61c0.64-0.31,0.91-1.07,0.61-1.71
			C380.87,557.19,380.1,556.91,379.46,557.22z"/>
		<path d="M379.42,548.71c-0.14,0.07-0.27,0.16-0.37,0.26l-4.82-1.1c0.05,0.51,0.12,1.01,0.2,1.51h0.01l4.3,0.86
			c0.02,0.06,0.04,0.12,0.07,0.18c0.31,0.64,1.08,0.92,1.72,0.61c0.64-0.31,0.92-1.08,0.61-1.72
			C380.83,548.68,380.06,548.41,379.42,548.71z"/>
		<path d="M379.27,551.48c-0.07,0.03-0.13,0.07-0.18,0.11l-4.44-1.19l-0.05-0.03c0.12,0.61,0.28,1.22,0.45,1.84l0.1,0.02l0.71,0.17
			l0,0l2.77,0.66c0.01,0.03,0.03,0.07,0.04,0.1c0.3,0.63,1.05,0.9,1.68,0.6c0.63-0.3,0.9-1.05,0.6-1.68
			C380.66,551.45,379.9,551.18,379.27,551.48z"/>
	</g>
	<g opacity="0.01">
		<path d="M379.74,545.69c-0.19,0.09-0.34,0.22-0.47,0.37l-4.97-0.68l-0.05-0.05c-0.05,0.48-0.07,0.98-0.06,1.5l4.89,0.61
			c0.01,0.01,0.01,0.03,0.02,0.04c0.32,0.67,1.12,0.95,1.79,0.64c0.67-0.32,0.95-1.12,0.64-1.79
			C381.21,545.65,380.41,545.37,379.74,545.69z"/>
		<path d="M380.28,543.01c-0.18,0.08-0.32,0.2-0.44,0.35l-4.99-0.38l-0.12-0.06c-0.13,0.46-0.24,0.93-0.33,1.42h0.09l5.26,0.49
			c0.34,0.54,1.03,0.76,1.62,0.48c0.63-0.3,0.9-1.06,0.6-1.69C381.67,542.97,380.91,542.7,380.28,543.01z"/>
		<path d="M380.89,540.29c-0.22,0.11-0.4,0.27-0.53,0.47l-4.51-0.24l-0.12-0.06c-0.25,0.46-0.47,0.96-0.67,1.47l0.14,0.01l5.17,0.21
			c0.35,0.52,1.03,0.72,1.61,0.45c0.64-0.3,0.91-1.07,0.61-1.7C382.29,540.25,381.53,539.98,380.89,540.29z"/>
		<path d="M381.91,537.48c-0.27,0.13-0.47,0.33-0.6,0.58l-3.94,0.09h-0.07c-0.37,0.45-0.73,0.94-1.06,1.46l0.12,0.02l5.06-0.17
			c0.37,0.49,1.04,0.67,1.61,0.4c0.65-0.31,0.93-1.09,0.62-1.74C383.34,537.45,382.56,537.17,381.91,537.48z"/>
	</g>
	<g opacity="0.01">
		<path d="M390.21,539.45c0.18-0.08,0.33-0.21,0.44-0.36l4.85-0.28l0,0c0-0.43-0.01-0.88-0.02-1.33l-4.78,0.28
			c-0.31-0.5-0.95-0.69-1.5-0.43c-0.59,0.28-0.83,0.98-0.56,1.56C388.92,539.48,389.62,539.73,390.21,539.45z"/>
		<path d="M389.07,545.98c0.18-0.09,0.33-0.21,0.44-0.36l5.52,0.52h0.03c0.06-0.43,0.11-0.87,0.16-1.32h-0.03l-5.52-0.45
			c-0.01-0.01-0.01-0.03-0.02-0.04c-0.29-0.62-1.03-0.88-1.65-0.59s-0.88,1.03-0.59,1.65C387.71,546.01,388.45,546.27,389.07,545.98
			z"/>
		<path d="M389.73,542.71c0.19-0.09,0.35-0.22,0.46-0.38l5.2,0.12l0.02,0.01c0.02-0.43,0.04-0.88,0.06-1.33h-0.01l-5.14-0.04
			l-0.01-0.02c-0.29-0.61-1.02-0.87-1.63-0.58s-0.87,1.02-0.58,1.63C388.39,542.74,389.12,543,389.73,542.71z"/>
		<path d="M393.87,552.08h-0.01l-5.39-1.06c-0.02-0.05-0.04-0.1-0.06-0.15c-0.29-0.61-1.03-0.87-1.64-0.58s-0.87,1.03-0.58,1.64
			s1.03,0.87,1.64,0.58c0.09-0.05,0.18-0.1,0.26-0.16l5.36,1.19c-0.23,0.77-0.47,1.52-0.73,2.25
			C393.14,554.57,393.53,553.35,393.87,552.08z"/>
		<path d="M388.57,549.26c0.16-0.07,0.29-0.18,0.4-0.3l5.44,0.79l0.02,0.05c0.09-0.43,0.18-0.86,0.26-1.3h-0.04l-5.45-0.76
			c-0.02-0.04-0.03-0.08-0.05-0.13c-0.3-0.62-1.04-0.88-1.66-0.59c-0.62,0.3-0.88,1.04-0.59,1.66
			C387.2,549.29,387.95,549.56,388.57,549.26z"/>
	</g>
	<g opacity="0.01">
		<path d="M391.52,529.89c0.35-0.16,0.57-0.48,0.63-0.83l2.37-0.82l0.08-0.03c-0.11-0.58-0.21-1.05-0.29-1.42l-0.05,0.02l-2.57,1.12
			c-0.22-0.15-0.49-0.23-0.77-0.2c-0.27,0.16-0.55,0.34-0.84,0.52c-0.2,0.32-0.25,0.73-0.07,1.1
			C390.28,529.92,390.96,530.16,391.52,529.89z"/>
		<path d="M391.12,533.03c0.29-0.14,0.51-0.38,0.62-0.66l3.3-0.7h0.06c-0.05-0.48-0.1-0.93-0.16-1.35l-0.08,0.02l-3.24,0.91
			c-0.33-0.5-0.99-0.7-1.55-0.43c-0.61,0.29-0.87,1.02-0.58,1.64C389.77,533.06,390.5,533.32,391.12,533.03z"/>
		<path d="M395.38,535.24c-0.03-0.52-0.06-1.03-0.1-1.5l-0.03,0.01l-4.02,0.77c-0.31-0.54-1-0.76-1.57-0.49
			c-0.61,0.29-0.86,1.01-0.58,1.62c0.29,0.61,1.01,0.86,1.62,0.58c0.25-0.12,0.44-0.31,0.56-0.54l4.11-0.46L395.38,535.24z"/>
	</g>
	<g opacity="0.01">
		<path d="M389.83,524.84c0.46-0.31,0.92-0.62,1.38-0.92c-0.01,0-0.01,0-0.02,0l-1.39,0.9
			C389.81,524.83,389.82,524.83,389.83,524.84z"/>
		<path d="M382.24,574.12c0.19-0.29,0.4-0.59,0.62-0.91l-0.01-0.01l-0.61,0.85c0,0.02,0,0.04,0,0.05V574.12z"/>
		<path d="M383.6,572.16c0.11-0.15,0.21-0.3,0.32-0.46L383.6,572.16L383.6,572.16z"/>
		<path d="M390.92,527.73c-0.27,0.16-0.55,0.34-0.84,0.52c0,0,0-0.01,0.01-0.01c-1.05,0.64-2.07,1.27-3.06,1.9
			c-1.27,0.78-2.38,1.54-3.41,2.29l-0.04,0.01c-0.33,0.23-0.65,0.47-0.97,0.71l0.07-0.01c-0.8,0.62-1.55,1.25-2.27,1.9l-0.15,0.03
			c-0.25,0.22-0.48,0.44-0.72,0.67l0.13-0.02c-0.56,0.53-1.12,1.08-1.68,1.66c-2.07,2.14-3.88,5.32-3.8,9.45h-0.01
			c0,0.34,0.01,0.7,0.04,1.06c0.31,3.29,1.28,6.48,3.12,10.03h-0.01c0.16,0.36,0.32,0.72,0.48,1.08c0.04,0.08,0.08,0.17,0.13,0.26
			l0.18,0.09c0.59,1.04,1.24,2.1,1.99,3.22c3.74,5.59,5.36,6.95,5.36,6.95s0.92-1.26,2.16-3.28h0.01c0.42-0.67,0.83-1.37,1.25-2.09
			l-0.02-0.01c0.23-0.4,0.46-0.82,0.69-1.25l0.02,0.01c0.39-0.73,0.77-1.48,1.15-2.27l-0.02-0.01c0.19-0.39,0.37-0.79,0.56-1.19
			h0.01c0.07-0.16,0.14-0.34,0.21-0.51c0.45-1.02,0.87-2.07,1.24-3.14c1.76-5.09,2.96-10.38,2.75-18.3
			c-0.21-7.94-1.42-11.68-1.42-11.68C392.99,526.46,391.94,527.1,390.92,527.73L390.92,527.73z"/>
		<path d="M407.71,484.89l-0.08-0.02c-0.73,0.16-1.42,0.34-2.09,0.51l0.09,0.04c-0.86,0.23-1.69,0.49-2.5,0.75l-0.1-0.04
			c-0.47,0.16-0.93,0.32-1.37,0.5l0.08,0.04c-0.72,0.27-1.42,0.56-2.09,0.87c-2.93,1.37-6.19,4.28-6.95,10.01
			c-0.61,4.63-0.33,7.39,0.63,14.04c0.65,4.47,1.25,7.16,1.62,8.58c0.08,0.39,0.16,0.77,0.25,1.17c0.02-0.02,0.05-0.03,0.07-0.05
			c0.03,0.1,0.05,0.16,0.05,0.16s3.35-2.03,7.52-5.46V516c0.61-0.48,1.21-0.98,1.81-1.51l-0.03-0.03c0.4-0.35,0.8-0.71,1.21-1.08
			l0.03,0.03c0.54-0.51,1.08-1.03,1.61-1.58c4.63-4.55,7.39-9.03,10.48-16.33c0.18-0.43,0.35-0.85,0.52-1.26l0,0
			c0.01-0.03,0.02-0.06,0.04-0.09c2.76-6.8,3.93-11.89,3.93-11.89s-6.2,0.93-10.69,1.79C410.38,484.29,409.03,484.58,407.71,484.89z
			"/>
		<path d="M458.36,439.01l-0.01-0.02c0.94-0.13,1.8-0.22,2.59-0.29c2.46-0.25,4.25-0.32,4.25-0.32l-1.13-3.87
			c-0.58-0.05-31.47-2.4-39.69,37.84c-0.08,0.02-0.16,0.05-0.23,0.09c-0.77,0.36-1.09,1.28-0.73,2.05c0.11,0.23,0.27,0.42,0.46,0.56
			c-0.07,0.42-0.15,0.84-0.21,1.27c-0.54-0.72-1.53-0.99-2.38-0.59c-0.79,0.37-1.2,1.21-1.08,2.03c-0.27,0-0.55,0.06-0.81,0.19
			c-0.79,0.38-1.21,1.22-1.08,2.04c-0.27,0.04-0.54,0.09-0.81,0.13c-0.36-0.47-1.02-0.64-1.58-0.38c-0.33,0.15-0.56,0.43-0.67,0.74
			c-21.02,3.55-28.33,8.04-23.5,34.51l1.56,7.55l-2.1,1.36c0.01,0,0.01,0,0.02,0c-0.46,0.3-0.92,0.61-1.38,0.92
			c-0.01-0.01-0.02-0.01-0.02-0.02l-1.59,1.03c0.01,0.02,0.01,0.04,0.01,0.05s0.01,0.02,0.01,0.03c-2.62,1.84-5.26,3.9-7.9,6.42
			c-13.97,11.99-8.02,20.33-0.73,32.5l0,0l4.3,6.84c-0.11,0.15-0.22,0.31-0.32,0.46l0,0l-0.75,1.04l0.01,0.01
			c-0.22,0.32-0.43,0.62-0.62,0.91l-0.01-0.01c0-0.02,0-0.04,0-0.05l-0.93,1.31l0.07,0.21l-0.02,0.04l1.05,2.62
			c3.92-5.91,19.48-23.42,13.52-53.63c11.52-7.42,24.16-18.04,28.6-42.7l0,0c2.19-0.36,4.49-0.76,6.92-1.2
			c13.9-1.69,28.31-8.84,37.51-18.13c2.18-1.98,4.81-4.61,5.8-5.54l-1.05-2.21c0,0-3.71,4.21-9.5,8.86l0,0
			c-0.82,0.7-1.67,1.39-2.54,2.05l-0.03-0.06c-0.49,0.36-0.99,0.72-1.49,1.08l0.03,0.07c-0.8,0.56-1.61,1.1-2.44,1.63l-0.03-0.05
			c-0.51,0.33-1.03,0.65-1.55,0.97l0.01,0.03c-0.32,0.19-0.64,0.36-0.96,0.54c-0.24,0.14-0.47,0.28-0.71,0.41
			c-1.4,0.79-2.89,1.53-4.42,2.2c-0.14,0.07-0.28,0.14-0.43,0.2l-0.01-0.01c-0.56,0.24-1.12,0.48-1.69,0.71l0.02,0.03
			c-0.94,0.39-1.88,0.76-2.84,1.1l-0.03-0.06c-0.58,0.21-1.16,0.4-1.73,0.6l0.03,0.07c-0.89,0.3-1.79,0.58-2.69,0.84l-0.03-0.06
			c-0.59,0.18-1.18,0.35-1.76,0.51l0.02,0.04c-0.53,0.14-1.06,0.26-1.59,0.39c-5.81,1.55-10.26,2.24-10.26,2.24l-0.73-5.51l0,0l0,0
			c0-0.01,0.39-2.64,2.96-9.06l-0.01-0.03c0.26-0.67,0.52-1.32,0.79-1.96l0.02,0.05c0.36-0.85,0.75-1.76,1.18-2.73l-0.01-0.03
			c0.23-0.49,0.45-0.98,0.68-1.46c0,0,0,0,0-0.01c0.41-0.89,0.82-1.72,1.24-2.52c0.12-0.23,0.23-0.46,0.35-0.68
			c0.17-0.34,0.35-0.67,0.54-1l0.02,0.04c0.41-0.7,0.82-1.36,1.23-1.99l-0.03-0.05c0.43-0.65,0.89-1.27,1.36-1.87l0.02,0.03
			c2.93-3.81,6.1-6.1,9.52-7.75c0.14-0.07,0.27-0.15,0.4-0.21l0.01,0.02c0.69-0.32,1.38-0.62,2.09-0.9l-0.02-0.03
			c0.57-0.23,1.14-0.44,1.73-0.63c0.22-0.07,0.44-0.14,0.66-0.21l0,0c1.46-0.51,3.11-0.9,4.76-1.2c0.05-0.01,0.11-0.02,0.17-0.03
			l0,0C456.81,439.24,457.59,439.12,458.36,439.01z M395.47,537.48c0.21,7.92-0.99,13.21-2.75,18.3c-0.37,1.07-0.79,2.12-1.24,3.14
			c-0.07,0.16-0.14,0.34-0.21,0.51h-0.01c-0.18,0.41-0.37,0.8-0.56,1.19l0.02,0.01c-0.37,0.79-0.76,1.54-1.15,2.27l-0.02-0.01
			c-0.23,0.43-0.46,0.85-0.69,1.25l0.02,0.01c-0.41,0.73-0.83,1.43-1.25,2.09h-0.01c-1.24,2.02-2.16,3.28-2.16,3.28
			s-1.62-1.36-5.36-6.95c-0.75-1.12-1.4-2.18-1.99-3.22l-0.18-0.09c-0.05-0.09-0.09-0.18-0.13-0.26c-0.17-0.37-0.33-0.73-0.48-1.08
			h0.01c-1.85-3.55-2.81-6.74-3.12-10.03c-0.03-0.36-0.04-0.71-0.04-1.06h0.01c-0.08-4.13,1.73-7.31,3.8-9.45
			c0.56-0.58,1.11-1.12,1.68-1.66l-0.13,0.02c0.23-0.22,0.47-0.45,0.72-0.67l0.15-0.03c0.72-0.65,1.47-1.28,2.27-1.9l-0.07,0.01
			c0.32-0.24,0.64-0.47,0.97-0.71l0.04-0.01c1.03-0.75,2.14-1.51,3.41-2.29c0.99-0.63,2.01-1.26,3.06-1.9c0,0,0,0.01-0.01,0.01
			c0.29-0.18,0.57-0.35,0.84-0.52l0,0c1.03-0.63,2.08-1.27,3.14-1.94C394.05,525.8,395.26,529.54,395.47,537.48z M418.53,494.14
			c-0.01,0.03-0.02,0.06-0.04,0.09l0,0c-0.17,0.41-0.34,0.83-0.52,1.26c-3.09,7.3-5.84,11.77-10.48,16.33
			c-0.53,0.55-1.07,1.07-1.61,1.58l-0.03-0.03c-0.4,0.37-0.81,0.73-1.21,1.08l0.03,0.03c-0.6,0.52-1.2,1.02-1.81,1.51v-0.01
			c-4.17,3.44-7.52,5.46-7.52,5.46s-0.02-0.05-0.05-0.16c-0.02,0.02-0.05,0.03-0.07,0.05c-0.09-0.4-0.17-0.78-0.25-1.17
			c-0.37-1.42-0.97-4.11-1.62-8.58c-0.97-6.65-1.24-9.4-0.63-14.04c0.75-5.73,4.02-8.64,6.95-10.01c0.66-0.31,1.37-0.59,2.09-0.87
			l-0.08-0.04c0.44-0.17,0.9-0.34,1.37-0.5l0.1,0.04c0.81-0.27,1.64-0.52,2.5-0.75l-0.09-0.04c0.67-0.18,1.37-0.35,2.09-0.51
			l0.08,0.02c1.32-0.31,2.67-0.6,4.05-0.86c4.49-0.86,10.69-1.79,10.69-1.79S421.28,487.34,418.53,494.14z"/>
		<path d="M383.23,571.27l0.37,0.89l0.33-0.45l-0.55-0.75C383.34,571.06,383.29,571.17,383.23,571.27z"/>
		<path d="M383.23,571.27c0.07-0.1,0.12-0.21,0.15-0.32l0.55,0.75l-4.3-6.84l0,0c0.38,0.63,0.76,1.27,1.14,1.92
			c-0.39,0.34-0.53,0.91-0.29,1.41c0.26,0.55,0.89,0.81,1.46,0.62c0.11,0.19,0.22,0.39,0.33,0.58c-0.17,0-0.34,0.03-0.5,0.11
			c-0.57,0.27-0.81,0.95-0.54,1.53c0.01,0.01,0.01,0.03,0.02,0.04c0.01,0.01,0.01,0.03,0.02,0.04c0.18,0.38,0.55,0.62,0.94,0.65
			l0.66,1.44l0.75-1.04L383.23,571.27z"/>
		<path d="M382.18,573.56c-0.01-0.01-0.01-0.03-0.02-0.04c-0.01-0.01-0.01-0.03-0.02-0.04c-0.2-0.42-0.7-0.59-1.11-0.4
			c-0.42,0.2-0.59,0.7-0.4,1.11c0.01,0.01,0.01,0.03,0.02,0.04c0.01,0.01,0.01,0.03,0.02,0.04c0.09,0.18,0.23,0.32,0.4,0.4
			l0.23,0.68l0.93-1.31C382.27,573.89,382.25,573.72,382.18,573.56z"/>
		<path d="M388.69,524.61c-0.47,0.22-0.67,0.77-0.47,1.24l1.59-1.03C389.52,524.52,389.08,524.42,388.69,524.61z"/>
		<path d="M391.75,522.44c-0.26-0.39-0.78-0.54-1.22-0.33c-0.48,0.23-0.69,0.81-0.46,1.29c0.2,0.43,0.68,0.64,1.13,0.52l2.1-1.36
			l-0.03,0.02L391.75,522.44z"/>
		<path d="M391.47,516.49c0.14,0.3,0.39,0.52,0.67,0.64c0.09,0.45,0.18,0.91,0.28,1.37c-0.18,0-0.36,0.04-0.54,0.13
			c-0.65,0.31-0.92,1.08-0.61,1.72c0.3,0.63,1.04,0.91,1.68,0.63c0.11,0.52,0.23,1.05,0.35,1.58l-1.56-7.55
			C391.35,515.39,391.22,515.98,391.47,516.49z"/>
	</g>
	<path opacity="0.01" enable-background="new    " d="M396.09,517.13c-0.34-0.71-1.18-1.01-1.89-0.68l-0.05,0.03
		c0.17,0.9,0.33,1.68,0.48,2.32l0.15,0.38c0.01,0,0.02,0,0.03,0l0.74,1.93c-0.01,0-0.01,0.01-0.02,0.01l0.06,0.16
		c0.26-0.16,0.71-0.45,1.32-0.86l-0.07-0.16c0,0-0.01,0-0.01,0.01l-0.78-1.84C396.27,518.04,396.3,517.56,396.09,517.13z"/>
	<path opacity="0.01" enable-background="new    " d="M393.79,514.45h0.08c0.02-0.01,0.05-0.02,0.07-0.03
		c0.65-0.31,0.92-1.08,0.61-1.72c-0.22-0.46-0.68-0.74-1.16-0.74c-0.02-0.13-0.04-0.26-0.06-0.39
		C393.5,512.63,393.65,513.58,393.79,514.45z"/>
	<path opacity="0.01" enable-background="new    " d="M399.22,517.14L399.22,517.14l-0.98-1.57c0.12-0.31,0.11-0.66-0.04-0.98
		c-0.3-0.62-1.04-0.89-1.66-0.59s-0.89,1.04-0.59,1.66c0.19,0.4,0.57,0.66,0.98,0.7l0.91,1.48l0,0l0.83,1.34
		c0.39-0.28,0.8-0.58,1.23-0.9L399.22,517.14z"/>
	<path opacity="0.01" enable-background="new    " d="M398.67,519.2l-1.74,1.21C397.41,520.08,398,519.67,398.67,519.2z"/>
	<path opacity="0.01" enable-background="new    " d="M400.3,511.91c-0.32-0.67-1.12-0.96-1.8-0.64c-0.67,0.32-0.96,1.13-0.64,1.8
		c0.27,0.57,0.9,0.87,1.5,0.74l2.43,3l0.01,0.02c0.35-0.27,0.7-0.56,1.06-0.85l-2.45-3.23C400.46,512.47,400.43,512.18,400.3,511.91
		z"/>
	<path opacity="0.01" enable-background="new    " d="M396.67,500.63l-3.96-3.1c-0.09,0.67-0.15,1.29-0.21,1.9l0,0l3.23,2.51
		c0.01,0.16,0.05,0.32,0.12,0.48c0.31,0.65,1.08,0.92,1.72,0.61c0.65-0.31,0.92-1.08,0.61-1.72
		C397.92,500.74,397.27,500.46,396.67,500.63z"/>
	<path opacity="0.01" enable-background="new    " d="M392.67,506.39"/>
	<path opacity="0.01" enable-background="new    " d="M395.52,503.37l-1.76-1.72l0,0l0,0l-1.31-1.28v-0.01l-0.02-0.01
		c-0.04,0.76-0.06,1.5-0.04,2.25l0.05,0.03l2.16,2.1c0.01,0.15,0.05,0.3,0.12,0.44c0.31,0.64,1.08,0.92,1.72,0.61
		c0.65-0.31,0.92-1.08,0.61-1.72C396.78,503.47,396.12,503.19,395.52,503.37z"/>
	<path opacity="0.01" enable-background="new    " d="M397.73,497.89l-4.37-3.16l-0.01-0.01c-0.17,0.53-0.32,1.08-0.44,1.67
		l1.27,0.93l0,0l2.69,1.93c0.01,0.19,0.05,0.39,0.14,0.57c0.34,0.72,1.2,1.02,1.91,0.68c0.72-0.34,1.02-1.2,0.68-1.92
		C399.26,497.89,398.43,497.58,397.73,497.89z"/>
	<path opacity="0.01" enable-background="new    " d="M399.57,495.34l-5.15-3.04l0,0h-0.01c-0.26,0.45-0.51,0.94-0.73,1.46
		l0.01,0.01l4.96,2.92c0.01,0.15,0.05,0.3,0.12,0.45c0.31,0.64,1.08,0.92,1.72,0.61c0.65-0.31,0.92-1.08,0.61-1.72
		C400.85,495.43,400.18,495.15,399.57,495.34z"/>
	<path opacity="0.01" enable-background="new    " d="M403.03,490.47c-0.05,0.03-0.1,0.05-0.15,0.09l-4.27-2.43l0.01-0.04
		c-0.51,0.3-1.02,0.65-1.52,1.06l0.04,0.01l5.14,2.91c0.02,0.09,0.05,0.19,0.1,0.28c0.33,0.7,1.17,1,1.87,0.67s1-1.17,0.67-1.87
		C404.58,490.43,403.74,490.13,403.03,490.47z"/>
	<path opacity="0.01" enable-background="new    " d="M400.93,492.81c-0.02,0.01-0.04,0.02-0.05,0.03l-3.2-1.89l-1.56-0.9
		c-0.37,0.38-0.72,0.79-1.05,1.25l0,0l5.04,2.97c0.02,0.15,0.06,0.31,0.13,0.45c0.34,0.71,1.19,1.02,1.91,0.68
		c0.71-0.34,1.02-1.2,0.68-1.91S401.64,492.47,400.93,492.81z"/>
	<path opacity="0.01" enable-background="new    " d="M422.31,482.77l-1.78-0.22c0.63-0.1,1.27-0.21,1.92-0.31
		c0,0-2.48,0.37-5.44,0.86v0.02c-0.02,0.24,0.03,0.48,0.13,0.71c0.34,0.71,1.18,1.01,1.89,0.67c0.23-0.11,0.42-0.28,0.56-0.48
		l2.26,0.34h0.03c0.38-1.35,0.56-2.13,0.56-2.13C422.41,482.42,422.36,482.6,422.31,482.77z"/>
	<path opacity="0.01" enable-background="new    " d="M421.15,486.75l-3.18-0.85c-0.02-0.05-0.04-0.09-0.06-0.14
		c-0.33-0.69-1.15-0.98-1.83-0.65c-0.69,0.33-0.98,1.15-0.65,1.83c0.33,0.69,1.15,0.98,1.83,0.65c0.16-0.08,0.3-0.18,0.41-0.3
		l2.68,0.71l0,0l0.4,0.08c0.16-0.47,0.3-0.92,0.43-1.34L421.15,486.75z"/>
	<path opacity="0.01" enable-background="new    " d="M419.95,490.41h-0.01l-3.95-1.35c-0.02-0.08-0.05-0.15-0.08-0.23
		c-0.31-0.65-1.09-0.93-1.74-0.62c-0.65,0.31-0.93,1.09-0.62,1.74s1.09,0.93,1.74,0.62c0.04-0.02,0.08-0.04,0.12-0.06l3.96,1.5
		c-0.27,0.73-0.55,1.44-0.83,2.13C419.06,492.82,419.53,491.58,419.95,490.41z"/>
	<path opacity="0.01" enable-background="new    " d="M414.11,484.13c0.28-0.13,0.49-0.36,0.62-0.62v-0.02
		c-1.01,0.18-2.03,0.36-2.96,0.54c0.29-0.05,0.58-0.11,0.87-0.16C413.01,484.25,413.6,484.37,414.11,484.13z"/>
	<path opacity="0.01" enable-background="new    " d="M411.5,496.68c0.02-0.01,0.04-0.02,0.06-0.03l4.3,2.29l0,0l0.46,0.21
		c0.21-0.44,0.42-0.88,0.63-1.34l-0.02,0.01l-4.67-2.51c-0.02-0.15-0.06-0.29-0.12-0.43c-0.32-0.67-1.12-0.96-1.79-0.64
		c-0.67,0.32-0.96,1.12-0.64,1.8C410.02,496.71,410.82,496.99,411.5,496.68z"/>
	<path opacity="0.01" enable-background="new    " d="M409.5,499.54l4.93,3.06l0.09,0.06c0.24-0.43,0.48-0.89,0.72-1.35l-0.06-0.03
		l-4.9-2.86c0.02-0.23-0.02-0.47-0.13-0.69c-0.32-0.68-1.13-0.97-1.81-0.64c-0.68,0.32-0.97,1.13-0.64,1.81
		C408.02,499.57,408.82,499.85,409.5,499.54z"/>
	<path opacity="0.01" enable-background="new    " d="M408.5,510.74l-3.98-3.53c0.03-0.25,0-0.52-0.12-0.76
		c-0.32-0.68-1.13-0.96-1.8-0.64c-0.68,0.32-0.96,1.13-0.64,1.8c0.27,0.58,0.9,0.87,1.5,0.74l4.03,3.46
		c0.36-0.35,0.69-0.71,1.03-1.07L408.5,510.74z"/>
	<path opacity="0.01" enable-background="new    " d="M405.67,505.49c0.01,0,0.01-0.01,0.02-0.01l4.43,3.38l0.06,0.05
		c0.29-0.35,0.58-0.7,0.86-1.06l-0.09-0.06l-4.54-3.46c0-0.2-0.04-0.4-0.13-0.59c-0.31-0.65-1.09-0.93-1.75-0.62
		c-0.65,0.31-0.93,1.09-0.62,1.75C404.23,505.52,405.02,505.8,405.67,505.49z"/>
	<path opacity="0.01" enable-background="new    " d="M407.52,502.48l0.01-0.01l4.85,3.35l0.1,0.06c0.29-0.43,0.59-0.85,0.87-1.3
		l-0.13-0.03l-5.01-3.26c-0.01-0.15-0.05-0.3-0.12-0.44c-0.29-0.61-1.02-0.87-1.63-0.58s-0.87,1.02-0.58,1.63
		C406.19,502.51,406.92,502.77,407.52,502.48z"/>
	<path opacity="0.01" enable-background="new    " d="M394.11,509.27l-1.34-2.06l-0.03-0.02c0.15,1.27,0.35,2.7,0.6,4.38
		c0.37,0.3,0.9,0.38,1.37,0.16c0.65-0.31,0.92-1.08,0.61-1.72C395.09,509.53,394.61,509.26,394.11,509.27z"/>
	<path opacity="0.01" enable-background="new    " d="M394.73,506.2l-2.24-2.36v-0.01l-0.05-0.05c0.04,0.83,0.12,1.7,0.22,2.65
		l0.02,0.03l-0.01-0.06l0.86,0.91c-0.06,0.29-0.03,0.59,0.11,0.88c0.33,0.69,1.16,0.99,1.85,0.66s0.99-1.16,0.66-1.85
		C395.88,506.43,395.3,506.13,394.73,506.2z"/>
	<path opacity="0.01" enable-background="new    " d="M429.84,478.27l0.09,0.35c0.53-0.11,1.13-0.23,1.78-0.37l-0.07-0.23
		l-0.73-2.97c0.7-0.54,0.95-1.52,0.56-2.35c-0.46-0.96-1.61-1.37-2.58-0.92c-0.96,0.46-1.37,1.61-0.92,2.58
		c0.25,0.52,0.7,0.88,1.21,1.03L429.84,478.27z"/>
	<path opacity="0.01" enable-background="new    " d="M427.31,478.64l-0.25-1.58c0.73-0.54,0.99-1.53,0.59-2.38
		c-0.26-0.55-0.75-0.92-1.3-1.05l0.73,5.51c0,0,0.12-0.02,0.32-0.05L427.31,478.64z"/>
	<path opacity="0.01" enable-background="new    " d="M432.7,469.81c-0.96,0.46-1.37,1.61-0.92,2.58c0.27,0.57,0.79,0.95,1.37,1.07
		l1.37,4.07l0.04,0.08c0.88-0.21,1.8-0.44,2.77-0.7c-0.34,0.08-0.67,0.17-1.01,0.25l-1.48-4.17c0.6-0.56,0.8-1.47,0.43-2.25
		C434.82,469.76,433.67,469.35,432.7,469.81z"/>
	<g opacity="0.01">
		<path d="M427.56,469.3c-1.01,3.01-1.2,4.32-1.2,4.33c0.11-0.4,0.21-0.8,0.32-1.19c0.26,0.02,0.53-0.02,0.78-0.14
			c0.77-0.36,1.09-1.28,0.73-2.05c-0.12-0.25-0.3-0.46-0.51-0.6l-0.07-0.29L427.56,469.3z"/>
		<path d="M429.31,464.57c-0.58,1.45-1.04,2.7-1.42,3.77l0.02,0.06c0.38,0.73,1.27,1.04,2.02,0.68c0.77-0.36,1.09-1.28,0.73-2.05
			c-0.16-0.34-0.43-0.59-0.75-0.74L429.31,464.57z"/>
	</g>
	<path opacity="0.01" enable-background="new    " d="M439.13,455.55c-0.22,0.46-0.24,1.01-0.01,1.51c0.41,0.87,1.45,1.23,2.31,0.82
		c0.87-0.41,1.23-1.45,0.82-2.31c-0.29-0.62-0.9-0.98-1.54-0.99l-2.72-5.81c-0.44,0.5-0.88,1.01-1.31,1.57L439.13,455.55z"/>
	<path opacity="0.01" enable-background="new    " d="M438,448.77c0.06-0.06,0.11-0.12,0.17-0.19
		C438.11,448.65,438.05,448.7,438,448.77L438,448.77z"/>
	<path opacity="0.01" enable-background="new    " d="M441.19,445.72c-1.03,0.82-2.04,1.78-3.02,2.86c0.42-0.45,0.84-0.88,1.28-1.3
		l2.93,5.87c-0.22,0.47-0.23,1.03,0.01,1.54c0.43,0.91,1.52,1.3,2.43,0.86c0.91-0.43,1.29-1.52,0.86-2.43
		c-0.26-0.54-0.74-0.89-1.29-1l-3.18-6.37L441.19,445.72z"/>
	<path opacity="0.01" enable-background="new    " d="M446.21,442.59c-1.17,0.56-2.3,1.21-3.41,1.96l0.02,0.03l3.34,6.26
		c-0.2,0.46-0.21,1.01,0.02,1.51c0.43,0.9,1.51,1.29,2.41,0.86c0.9-0.43,1.29-1.51,0.86-2.41c-0.26-0.54-0.74-0.89-1.28-1
		l-3.42-6.42C445.22,443.1,445.71,442.84,446.21,442.59z"/>
	<path opacity="0.01" enable-background="new    " d="M453.31,439.96c-0.77,0.19-1.52,0.41-2.23,0.65l3.21,5.99
		c-0.19,0.49-0.19,1.04,0.05,1.55c0.46,0.97,1.63,1.39,2.6,0.93c0.97-0.46,1.39-1.63,0.92-2.6c-0.32-0.67-0.98-1.08-1.68-1.11
		l-2.89-5.39L453.31,439.96z"/>
	<path opacity="0.01" enable-background="new    " d="M467.95,460.22l0.11,0.16c0.53-0.48,1.03-0.94,1.5-1.38l-0.08-0.16l-2.55-3.96
		c0.39-0.55,0.48-1.29,0.17-1.94c-0.46-0.96-1.61-1.37-2.58-0.92c-0.96,0.46-1.37,1.61-0.92,2.58c0.3,0.63,0.9,1.03,1.55,1.09
		L467.95,460.22z"/>
	<path opacity="0.01" enable-background="new    " d="M465.65,462.49l-0.04-0.06l-3.01-5.07c0.36-0.54,0.43-1.26,0.13-1.89
		c-0.46-0.96-1.61-1.37-2.58-0.92c-0.96,0.46-1.37,1.61-0.92,2.58c0.35,0.74,1.11,1.15,1.87,1.1l3.1,5.43
		C464.71,463.27,465.18,462.88,465.65,462.49z"/>
	<path opacity="0.01" enable-background="new    " d="M468.78,449.23c-0.96,0.46-1.37,1.61-0.92,2.58c0.29,0.62,0.87,1.01,1.5,1.09
		l2.54,3.73l0.06,0.04c1.12-1.14,1.74-1.84,1.74-1.84c-0.09,0.11-0.2,0.22-0.32,0.35l-2.1-3.23c0.3-0.53,0.35-1.19,0.07-1.79
		C470.9,449.18,469.74,448.77,468.78,449.23z"/>
	<g opacity="0.01">
		<path d="M1432.44,541.38c0.02,0,0.05,0,0.07,0C1432.49,541.38,1432.46,541.38,1432.44,541.38L1432.44,541.38z"/>
		<path d="M1402.92,530.82c1.26,1,2.08,1.66,2.08,1.66C1404.29,531.92,1403.6,531.36,1402.92,530.82L1402.92,530.82z"/>
		<path d="M1479.72,554.98c0.31,0.59,0.59,1.16,0.84,1.68C1480.33,556.14,1480.06,555.58,1479.72,554.98L1479.72,554.98z"/>
		<path d="M1370.95,536.77c0.13,0.04,0.26,0.07,0.39,0.11l0.38-0.56c-0.09,0-0.17,0-0.25-0.03L1370.95,536.77z"/>
		<path d="M1436.14,531.67c-0.29-0.45-0.58-0.89-0.86-1.3v0.07c0.29,0.42,0.58,0.85,0.87,1.29L1436.14,531.67z"/>
		<path d="M1434.15,528.84c-0.22-0.28-0.45-0.55-0.67-0.81v0.07c0.23,0.27,0.45,0.54,0.67,0.83V528.84z"/>
		<path d="M1413.83,536.07c0.48,0.3,0.97,0.59,1.47,0.87l0.01-0.02C1414.8,536.63,1414.3,536.35,1413.83,536.07L1413.83,536.07z"/>
		<path d="M1416.33,537.49c0.48,0.25,0.97,0.48,1.47,0.71c-0.5-0.24-0.98-0.49-1.46-0.74L1416.33,537.49z"/>
		<path d="M1385.85,524.11c-0.23,0.08-0.47,0.18-0.71,0.29C1385.38,524.28,1385.62,524.2,1385.85,524.11L1385.85,524.11z"/>
		<path d="M1381.48,538.87c0.13,0.01,0.27,0.01,0.39,0.02C1381.75,538.88,1381.61,538.87,1381.48,538.87L1381.48,538.87z"/>
		<path d="M1402.37,530.38c-0.69-0.56-1.37-1.1-2.04-1.62C1401.06,529.34,1401.75,529.89,1402.37,530.38L1402.37,530.38z"/>
		<path d="M1395.33,525.36c-0.21-0.11-0.42-0.22-0.63-0.33l0.04,0.09c0.22,0.11,0.43,0.22,0.64,0.34L1395.33,525.36z"/>
		<path d="M1378.71,538.56c0.59,0.09,1.2,0.16,1.82,0.22v-0.01c-0.63-0.06-1.24-0.14-1.82-0.23V538.56z"/>
		<path d="M1375.97,538.06c0.55,0.12,1.13,0.23,1.73,0.34v-0.02C1377.07,538.28,1376.49,538.17,1375.97,538.06L1375.97,538.06z"/>
		<path d="M1379.1,528.99c-0.2,0.19-0.41,0.39-0.62,0.6c-0.05,0.05-0.1,0.1-0.15,0.15l-0.01,0.14
			C1378.58,529.57,1378.84,529.28,1379.1,528.99L1379.1,528.99z"/>
		<path d="M1458.56,560.95c-0.21-0.17-0.41-0.34-0.62-0.51c0.2,0.17,0.4,0.36,0.6,0.52L1458.56,560.95z"/>
		<path d="M1454.91,557.58c-0.08-0.08-0.16-0.17-0.23-0.25l-0.01,0.01C1454.75,557.42,1454.83,557.5,1454.91,557.58z"/>
		<path d="M1453.76,556.37l0.02-0.02c-0.49-0.55-0.96-1.11-1.43-1.68l-0.03,0.03C1452.79,555.27,1453.27,555.83,1453.76,556.37z"/>
		<path d="M1451.49,553.68l0.04-0.04c-0.43-0.54-0.84-1.09-1.24-1.63l-0.04,0.03C1450.65,552.6,1451.06,553.14,1451.49,553.68z"/>
		<path d="M1397.94,527l-0.02-0.03c-0.24-0.17-0.48-0.33-0.72-0.49l0.03,0.05C1397.46,526.68,1397.7,526.84,1397.94,527z"/>
		<path d="M1449.51,550.94c-0.23-0.33-0.46-0.65-0.68-0.97c0.22,0.33,0.43,0.66,0.65,0.99L1449.51,550.94z"/>
		<path d="M1464.4,565.05L1464.4,565.05c-0.65-0.4-1.31-0.82-1.98-1.27l-0.03,0.04C1463.05,564.25,1463.72,564.66,1464.4,565.05z"/>
		<path d="M1461.29,563.06l0.04-0.04c-0.57-0.4-1.14-0.82-1.72-1.26l-0.03,0.03C1460.14,562.24,1460.71,562.66,1461.29,563.06z"/>
		<path d="M1458.9,541.66c0.38,0.03,0.77,0.06,1.18,0.09c-0.38-0.04-0.77-0.07-1.16-0.11L1458.9,541.66z"/>
		<path d="M1462.66,542.04c-0.18-0.02-0.36-0.05-0.55-0.07c0.46,0.06,0.91,0.13,1.34,0.21l0.02-0.02
			C1463.2,542.12,1462.93,542.08,1462.66,542.04z"/>
		<path d="M1465.13,542.51l-0.03,0.03c0.56,0.14,1.1,0.29,1.61,0.46l0.02-0.02C1466.21,542.8,1465.68,542.64,1465.13,542.51z"/>
		<path d="M1478.83,553.37c0.02,0.04,0.04,0.07,0.06,0.11l0,0C1478.88,553.44,1478.85,553.4,1478.83,553.37z"/>
		<path d="M1474.31,547.58c0.08,0.08,0.16,0.15,0.23,0.23l0.01-0.01C1474.48,547.72,1474.39,547.65,1474.31,547.58z"/>
		<path d="M1475.69,548.99l-0.02,0.02c0.4,0.45,0.79,0.92,1.18,1.4c-0.1-0.13-0.2-0.27-0.31-0.4
			C1476.27,549.67,1475.98,549.33,1475.69,548.99z"/>
		<path d="M1455.26,541.45l-0.02,0.02c0.48,0.02,0.98,0.04,1.52,0.07l0.03-0.02C1456.29,541.48,1455.78,541.46,1455.26,541.45z"/>
		<polygon points="1448.36,541.67 1448.36,541.67 1448.36,541.67 		"/>
		<path d="M1399.08,528.98c0.31,0.3,0.8,0.3,1.1-0.01c0.06-0.06,0.11-0.14,0.15-0.21c-0.84-0.67-1.63-1.24-2.39-1.76l0.93,1.25
			C1398.81,528.51,1398.88,528.78,1399.08,528.98z"/>
		<path d="M1384.2,535.08c0.34-0.34,0.33-0.89-0.01-1.23c-0.34-0.34-0.89-0.34-1.23,0.01s-0.33,0.89,0.01,1.23
			c0.07,0.07,0.15,0.12,0.23,0.16l0.13,3.7c-0.5-0.01-0.98-0.04-1.45-0.07c0.8,0.05,1.62,0.08,2.43,0.07l-0.17-3.82
			C1384.16,535.12,1384.18,535.1,1384.2,535.08z"/>
		<path d="M1379.39,535.64c0.36-0.37,0.36-0.96-0.01-1.33s-0.96-0.36-1.32,0.01s-0.36,0.96,0.01,1.33c0.02,0.02,0.04,0.03,0.05,0.05
			l-0.42,2.69c0.33,0.06,0.67,0.11,1.02,0.16l0.35-2.7C1379.18,535.8,1379.29,535.73,1379.39,535.64z"/>
		<path d="M1376.94,535.85c0.36-0.36,0.35-0.95-0.01-1.3c-0.36-0.36-0.94-0.36-1.3,0.01c-0.31,0.31-0.35,0.78-0.13,1.13l-0.64,2.12
			c-0.57-0.14-1.12-0.28-1.65-0.42c0,0,1.08,0.32,2.75,0.66l0.51-1.95C1376.65,536.07,1376.81,535.98,1376.94,535.85z"/>
		<path d="M1381.79,535.4c0.35-0.35,0.34-0.92-0.01-1.27s-0.92-0.35-1.26,0.01c-0.35,0.35-0.34,0.92,0.01,1.27
			c0.05,0.05,0.1,0.09,0.16,0.13l-0.15,3.24c0.31,0.03,0.63,0.06,0.95,0.09l0.07-3.28C1381.64,535.54,1381.72,535.48,1381.79,535.4z
			"/>
		<path d="M1394.84,528.3c0.33,0.32,0.85,0.32,1.17-0.01c0.32-0.33,0.32-0.85-0.01-1.18c-0.11-0.11-0.24-0.18-0.37-0.21l-0.89-1.79
			c-0.5-0.25-1.01-0.5-1.54-0.74l1.49,2.92C1394.52,527.62,1394.56,528.03,1394.84,528.3z"/>
		<path d="M1396.93,528.57c0.32,0.32,0.83,0.31,1.15-0.01c0.32-0.32,0.31-0.84-0.01-1.15c-0.13-0.13-0.29-0.21-0.46-0.23l-0.38-0.65
			c-0.62-0.39-1.23-0.75-1.84-1.08l1.36,2.25C1396.63,527.99,1396.7,528.34,1396.93,528.57z"/>
		<path d="M1378.07,532.48c0.3-0.3,0.33-0.77,0.09-1.11l0.16-1.49c-0.56,0.66-1.12,1.36-1.7,2.15c0.03,0.17,0.11,0.33,0.24,0.45
			C1377.2,532.82,1377.74,532.81,1378.07,532.48z"/>
		<path d="M1432.91,537.82c0.38-0.38,0.37-1-0.01-1.38s-1-0.38-1.37,0.01s-0.37,1,0.01,1.38c0.04,0.04,0.08,0.07,0.12,0.1l-0.2,3.4
			c0.33,0.02,0.66,0.03,0.98,0.05l0.29-3.42C1432.79,537.92,1432.85,537.88,1432.91,537.82z"/>
		<path d="M1418.28,534.02c0.38-0.39,0.38-1.01-0.01-1.39s-1.01-0.38-1.39,0.01c-0.31,0.32-0.37,0.79-0.17,1.16l-1.41,3.12
			c0.34,0.19,0.68,0.37,1.03,0.56l1.44-3.18C1417.96,534.25,1418.14,534.16,1418.28,534.02z"/>
		<path d="M1436.22,533.19c-0.36,0.37-0.36,0.96,0.01,1.33c0.37,0.36,0.96,0.36,1.32-0.01c0.07-0.07,0.13-0.15,0.17-0.23
			c-0.52-0.88-1.05-1.73-1.58-2.55l0.11,1.44C1436.24,533.18,1436.23,533.18,1436.22,533.19z"/>
		<path d="M1434.04,532.02c-0.36,0.37-0.36,0.96,0.01,1.33s0.96,0.36,1.32-0.01s0.36-0.96-0.01-1.33c-0.04-0.04-0.09-0.08-0.14-0.11
			l0.05-1.46c-0.37-0.53-0.74-1.03-1.12-1.52L1434.04,532.02L1434.04,532.02z"/>
		<path d="M1431.9,530.89c-0.38,0.39-0.38,1.01,0.01,1.39c0.38,0.38,1.01,0.38,1.39-0.01s0.38-1.01,0-1.39l0.18-2.8
			c-0.36-0.42-0.73-0.83-1.1-1.21l-0.24,3.84C1432.05,530.76,1431.97,530.82,1431.9,530.89z"/>
		<path d="M1455.85,542.3c-0.32-0.04-0.67,0.06-0.91,0.31c-0.42,0.43-0.42,1.11,0.01,1.53c0.42,0.42,1.11,0.42,1.53-0.01
			c0.18-0.19,0.29-0.42,0.31-0.67l2.12-1.81c-0.76-0.06-1.48-0.1-2.15-0.13L1455.85,542.3z"/>
		<path d="M1460.08,541.75C1460.09,541.75,1460.09,541.75,1460.08,541.75l-1.62,1.42c-0.36-0.04-0.74,0.07-1.01,0.35
			c-0.47,0.48-0.47,1.25,0.01,1.73c0.48,0.47,1.25,0.47,1.72-0.01c0.27-0.28,0.39-0.65,0.34-1.01l2.58-2.25l0,0
			C1461.46,541.89,1460.8,541.81,1460.08,541.75C1460.09,541.75,1460.09,541.75,1460.08,541.75z"/>
		<path d="M1453.19,549.43c0.52,0.26,1.18,0.17,1.61-0.27c0.54-0.55,0.54-1.44-0.01-1.98s-1.43-0.54-1.97,0.01
			c-0.33,0.34-0.46,0.8-0.38,1.23l-2.92,2.52c0.25,0.35,0.51,0.71,0.78,1.07L1453.19,549.43z"/>
		<path d="M1475.78,556.79c-0.37,0-0.75,0.14-1.03,0.42c-0.55,0.56-0.55,1.47,0.01,2.02c0.56,0.56,1.46,0.55,2.02-0.01
			c0.39-0.4,0.5-0.97,0.34-1.47l2.61-2.78c-0.26-0.5-0.54-1-0.83-1.51L1475.78,556.79z"/>
		<path d="M1455.56,551.59c0.51,0.21,1.11,0.11,1.52-0.31c0.54-0.55,0.54-1.44-0.01-1.98s-1.43-0.54-1.97,0.01
			c-0.36,0.37-0.48,0.88-0.36,1.34l-3.21,2.99c0.27,0.34,0.55,0.69,0.83,1.03L1455.56,551.59z"/>
		<path d="M1461.15,544.48c-0.35-0.04-0.71,0.08-0.97,0.35c-0.47,0.47-0.46,1.23,0.01,1.7s1.23,0.46,1.69-0.01
			c0.29-0.3,0.4-0.71,0.32-1.09l2.9-2.9c-0.53-0.13-1.08-0.25-1.65-0.35L1461.15,544.48z"/>
		<path d="M1471.18,551.77c-0.38-0.03-0.77,0.11-1.06,0.4c-0.53,0.53-0.52,1.4,0.01,1.93c0.53,0.53,1.39,0.53,1.92-0.01
			c0.33-0.34,0.45-0.81,0.36-1.24l3.26-3.83c-0.36-0.41-0.74-0.81-1.12-1.2L1471.18,551.77z"/>
		<path d="M1480.69,556.93l-2.76,2.8c-0.39-0.02-0.78,0.12-1.08,0.42c-0.56,0.56-0.55,1.47,0.01,2.03c0.56,0.56,1.47,0.55,2.02-0.01
			c0.39-0.39,0.5-0.95,0.35-1.44l2.17-2.2c0.19,0.44,0.33,0.77,0.42,0.94l0,0c0,0-0.48-1.2-1.26-2.82
			C1480.61,556.75,1480.66,556.85,1480.69,556.93z"/>
		<path d="M1457.96,553.74c0.48,0.14,1.02,0.03,1.4-0.36c0.54-0.55,0.54-1.44-0.01-1.98s-1.43-0.54-1.97,0.01
			c-0.4,0.4-0.5,0.98-0.32,1.48l-3.28,3.46c0.29,0.33,0.59,0.66,0.89,0.98L1457.96,553.74z"/>
		<path d="M1457.95,560.44c-0.31-0.27-0.63-0.53-0.93-0.81l3.44-3.76c0.48,0.15,1.02,0.03,1.4-0.35c0.54-0.55,0.54-1.44-0.01-1.98
			s-1.43-0.54-1.97,0.01c-0.39,0.4-0.5,0.98-0.32,1.47l-3.51,3.7c-0.38-0.37-0.76-0.75-1.13-1.14c0.84,0.88,1.7,1.71,2.58,2.47
			C1457.64,560.19,1457.79,560.31,1457.95,560.44z"/>
		<path d="M1462.98,558.01c0.47,0.13,1,0.01,1.37-0.36c0.54-0.55,0.54-1.44-0.01-1.98s-1.43-0.54-1.97,0.01
			c-0.4,0.41-0.5,1-0.31,1.5l-3.5,3.77c0.35,0.28,0.69,0.55,1.04,0.82L1462.98,558.01z"/>
		<path d="M1462.42,563.78l3.14-3.58c0.47,0.12,0.98,0,1.34-0.37c0.54-0.55,0.54-1.44-0.01-1.98s-1.43-0.54-1.97,0.01
			c-0.41,0.41-0.51,1.02-0.3,1.53l-3.31,3.64C1461.69,563.28,1462.06,563.53,1462.42,563.78z"/>
		<g>
			<path d="M1381.94,529.52c-0.02-0.02-0.04-0.03-0.05-0.05l-0.07-2.91l0.03-0.13c-0.4,0.31-0.79,0.64-1.19,1l0.02,0.09l0.09,1.92
				c-0.03,0.02-0.06,0.05-0.09,0.08c-0.34,0.35-0.34,0.91,0.01,1.26c0.35,0.35,0.91,0.34,1.25-0.01
				C1382.29,530.43,1382.29,529.86,1381.94,529.52z"/>
			<path d="M1380.08,530.26L1380.08,530.26l0.25-2.43l0.01-0.1c-0.42,0.39-0.83,0.81-1.25,1.26l-0.07,1.09
				c-0.09,0.05-0.18,0.11-0.26,0.18c-0.36,0.37-0.36,0.96,0.01,1.32s0.95,0.36,1.31-0.01S1380.45,530.63,1380.08,530.26z"/>
			<path d="M1385.85,528.14c-0.08-0.08-0.17-0.14-0.27-0.19l-0.44-3.56c-0.33,0.16-0.66,0.33-0.98,0.51l0,0l0.47,3.15
				c-0.04,0.03-0.07,0.06-0.11,0.09c-0.36,0.37-0.36,0.96,0.01,1.32s0.96,0.36,1.32-0.01
				C1386.22,529.1,1386.21,528.51,1385.85,528.14z"/>
			<path d="M1383.93,528.73c-0.04-0.04-0.08-0.07-0.12-0.1l-0.28-3.32l0.01-0.04c-0.38,0.23-0.76,0.49-1.14,0.76l0.01,0.07
				l0.06,0.53l0,0l0.23,2.05c-0.02,0.02-0.04,0.04-0.06,0.05c-0.35,0.36-0.35,0.94,0.01,1.3s0.94,0.35,1.29-0.01
				C1384.29,529.66,1384.29,529.08,1383.93,528.73z"/>
		</g>
		<g>
			<path d="M1387.98,527.61c-0.11-0.11-0.23-0.18-0.36-0.23l-0.75-3.56l0.02-0.04c-0.34,0.09-0.68,0.2-1.03,0.33l0.78,3.49
				c-0.01,0.01-0.02,0.01-0.02,0.02c-0.38,0.38-0.37,1,0.01,1.38s0.99,0.38,1.37-0.01C1388.37,528.61,1388.36,527.99,1387.98,527.61
				z"/>
			<path d="M1389.94,527.32c-0.1-0.1-0.22-0.17-0.34-0.22l-0.96-3.5l0.01-0.09c-0.34,0.02-0.69,0.06-1.04,0.12l0.02,0.06l0.96,3.71
				c-0.29,0.36-0.26,0.89,0.07,1.23c0.36,0.36,0.94,0.35,1.3-0.01C1390.3,528.26,1390.3,527.68,1389.94,527.32z"/>
			<path d="M1391.94,527.07c-0.13-0.13-0.28-0.21-0.45-0.25l-0.94-3.13l0.01-0.1c-0.38-0.06-0.76-0.09-1.16-0.1l0.03,0.1l1.12,3.58
				c-0.27,0.36-0.24,0.88,0.09,1.21c0.36,0.36,0.95,0.36,1.31-0.01C1392.3,528.02,1392.3,527.44,1391.94,527.07z"/>
			<path d="M1394.09,527.08c-0.15-0.15-0.34-0.24-0.54-0.27l-1.02-2.66l-0.01-0.05c-0.4-0.15-0.82-0.26-1.25-0.36l0.02,0.08
				l1.36,3.41c-0.24,0.37-0.2,0.87,0.12,1.2c0.37,0.37,0.97,0.37,1.34-0.01C1394.46,528.05,1394.46,527.45,1394.09,527.08z"/>
		</g>
		<g>
			<path d="M1394.79,533.22c0.1,0.1,0.22,0.17,0.35,0.21l1.38,3.24l0,0c0.29-0.11,0.59-0.22,0.9-0.34l-1.36-3.19
				c0.26-0.34,0.24-0.82-0.07-1.13c-0.33-0.33-0.87-0.33-1.2,0.01C1394.45,532.35,1394.46,532.89,1394.79,533.22z"/>
			<path d="M1390.07,534.05c0.1,0.1,0.22,0.17,0.35,0.22l1,3.89l0.01,0.02c0.31-0.07,0.62-0.14,0.94-0.22l-0.01-0.02l-1.05-3.87
				c0.01-0.01,0.02-0.02,0.02-0.02c0.35-0.35,0.35-0.92-0.01-1.27c-0.35-0.35-0.92-0.35-1.27,0.01
				C1389.72,533.13,1389.72,533.7,1390.07,534.05z"/>
			<path d="M1392.46,533.7c0.11,0.11,0.24,0.18,0.37,0.22l1.19,3.58v0.01c0.3-0.09,0.61-0.19,0.92-0.29l0,0l-1.23-3.52l0.01-0.01
				c0.34-0.35,0.34-0.91-0.01-1.26c-0.35-0.35-0.91-0.34-1.25,0.01C1392.11,532.79,1392.11,533.35,1392.46,533.7z"/>
			<path d="M1387.1,538.83L1387.1,538.83l-0.6-3.94c0.03-0.02,0.06-0.05,0.09-0.08c0.35-0.35,0.34-0.91-0.01-1.26
				c-0.35-0.35-0.91-0.34-1.26,0.01s-0.34,0.91,0.01,1.26c0.05,0.05,0.11,0.1,0.17,0.13l0.51,3.95c-0.58,0.03-1.15,0.05-1.7,0.06
				C1385.24,538.94,1386.16,538.91,1387.1,538.83z"/>
			<path d="M1387.72,534.52c0.09,0.09,0.19,0.15,0.3,0.2l0.8,3.91l-0.03,0.03c0.31-0.04,0.63-0.09,0.95-0.14l-0.01-0.02l-0.82-3.9
				c0.03-0.02,0.05-0.04,0.07-0.07c0.35-0.35,0.35-0.93-0.01-1.28c-0.35-0.35-0.92-0.35-1.27,0.01
				C1387.36,533.6,1387.37,534.17,1387.72,534.52z"/>
		</g>
		<g>
			<path d="M1401.61,531.77c0.2,0.2,0.47,0.27,0.72,0.23l1.14,1.41l0.04,0.05c0.37-0.22,0.67-0.4,0.9-0.55l-0.03-0.03l-1.39-1.48
				c0.05-0.19,0.03-0.39-0.05-0.57c-0.18-0.14-0.36-0.29-0.56-0.44c-0.27-0.06-0.56,0.01-0.76,0.22
				C1401.28,530.92,1401.28,531.45,1401.61,531.77z"/>
			<path d="M1399.37,532.26c0.17,0.17,0.38,0.25,0.6,0.26l1.28,2.08l0.02,0.04c0.31-0.15,0.61-0.3,0.88-0.44l-0.04-0.05l-1.41-1.99
				c0.26-0.35,0.23-0.85-0.09-1.16c-0.35-0.35-0.91-0.34-1.25,0.01S1399.02,531.92,1399.37,532.26z"/>
			<path d="M1398.91,535.71c0.35-0.15,0.68-0.29,1-0.44l-0.02-0.02l-1.51-2.56c0.29-0.35,0.27-0.87-0.05-1.19
				c-0.34-0.34-0.9-0.34-1.24,0.01c-0.34,0.35-0.34,0.9,0.01,1.25c0.14,0.14,0.32,0.22,0.5,0.25l1.32,2.69L1398.91,535.71z"/>
		</g>
		<g>
			<path d="M1404.62,529.37c0.32,0.24,0.65,0.48,0.96,0.71v-0.01l-0.95-0.73C1404.62,529.35,1404.62,529.36,1404.62,529.37z"/>
			<path d="M1369.28,536.32c0.24,0.06,0.5,0.12,0.77,0.2l0.01-0.01l-0.73-0.21C1369.31,536.31,1369.3,536.32,1369.28,536.32
				L1369.28,536.32z"/>
			<path d="M1370.95,536.77c0.13,0.04,0.26,0.07,0.39,0.11L1370.95,536.77L1370.95,536.77z"/>
			<path d="M1402.92,530.82c-0.18-0.14-0.36-0.29-0.56-0.44h0.01c-0.69-0.56-1.37-1.1-2.04-1.62c-0.84-0.67-1.63-1.24-2.39-1.76
				l-0.02-0.03c-0.24-0.17-0.48-0.33-0.72-0.49l0.03,0.05c-0.62-0.39-1.23-0.75-1.84-1.08l-0.06-0.1c-0.21-0.11-0.42-0.22-0.63-0.33
				l0.04,0.09c-0.5-0.25-1.01-0.5-1.54-0.74c-1.96-0.89-4.57-1.34-7.35-0.27l0,0c-0.23,0.08-0.47,0.18-0.71,0.29
				c-2.16,1.02-4.09,2.47-6.05,4.6v-0.01c-0.2,0.19-0.41,0.39-0.62,0.6c-0.05,0.05-0.1,0.1-0.15,0.15l-0.01,0.14
				c-0.56,0.66-1.12,1.36-1.7,2.15c-2.88,3.93-3.41,5.37-3.41,5.37s1.08,0.32,2.75,0.66v0.01c0.55,0.12,1.13,0.23,1.73,0.34v-0.02
				c0.33,0.06,0.67,0.11,1.02,0.16v0.02c0.59,0.09,1.2,0.16,1.82,0.22v-0.01c0.31,0.03,0.63,0.06,0.95,0.09v0.01
				c0.13,0.01,0.27,0.01,0.39,0.02c0.8,0.05,1.62,0.08,2.43,0.07c3.89-0.05,7.78-0.53,13.1-2.63c5.34-2.1,7.59-3.84,7.59-3.84
				C1404.29,531.92,1403.6,531.36,1402.92,530.82L1402.92,530.82z"/>
			<path d="M1436.14,531.73v-0.06c-0.29-0.45-0.58-0.89-0.86-1.3v0.07c-0.37-0.53-0.74-1.03-1.12-1.52v-0.08
				c-0.22-0.28-0.45-0.55-0.67-0.81v0.07c-0.36-0.42-0.73-0.83-1.1-1.21c-1.65-1.66-4.42-3.17-8.5-2.27
				c-3.3,0.73-5.1,1.59-9.38,3.89c-2.88,1.54-4.56,2.62-5.43,3.22c-0.24,0.15-0.48,0.3-0.73,0.46c0.02,0.01,0.03,0.02,0.05,0.04
				c-0.06,0.05-0.1,0.08-0.1,0.08s2.2,1.78,5.55,3.78l0,0c0.48,0.3,0.97,0.59,1.47,0.87l0.01-0.02c0.34,0.19,0.68,0.37,1.03,0.56
				l-0.01,0.02c0.48,0.25,0.97,0.48,1.47,0.71c4.23,2.04,7.94,2.82,13.66,3.13c0.33,0.02,0.66,0.03,0.98,0.05l0,0
				c0.02,0,0.05,0,0.07,0c5.29,0.21,9.04-0.25,9.04-0.25s-2.15-4-3.84-6.85C1437.2,533.4,1436.67,532.55,1436.14,531.73z"/>
			<path d="M1479.72,554.98L1479.72,554.98c0.33,0.6,0.6,1.16,0.84,1.68c0.77,1.62,1.26,2.82,1.26,2.82l2.35-1.72
				c-0.11-0.4-6.09-22.06-35.44-17.76c-0.03-0.05-0.07-0.09-0.12-0.14c-0.44-0.43-1.14-0.43-1.57,0.01
				c-0.13,0.13-0.22,0.29-0.27,0.45c-0.3,0.05-0.61,0.11-0.92,0.17c0.36-0.55,0.3-1.29-0.18-1.77c-0.45-0.44-1.12-0.52-1.65-0.24
				c-0.07-0.19-0.18-0.36-0.33-0.51c-0.45-0.45-1.12-0.52-1.65-0.23c-0.1-0.17-0.19-0.35-0.29-0.52c0.23-0.36,0.19-0.85-0.13-1.17
				c-0.19-0.18-0.43-0.27-0.67-0.27c-7.56-13.47-12.41-17.34-29.21-7.54l-4.75,2.92l-1.44-1.1v0.01c-0.32-0.24-0.64-0.48-0.96-0.71
				c0-0.01,0-0.01,0.01-0.02l-1.09-0.83c-0.01,0.01-0.02,0.01-0.03,0.02s-0.01,0.01-0.02,0.02c-1.89-1.33-3.94-2.63-6.3-3.81
				c-11.57-6.58-15.77-0.47-22.26,7.51l0,0l-3.59,4.62c-0.13-0.04-0.26-0.07-0.39-0.11l0,0l-0.89-0.25l-0.01,0.01
				c-0.27-0.07-0.53-0.14-0.77-0.2l0.01-0.01c0.01,0,0.03-0.01,0.04-0.01l-1.12-0.32l-0.13,0.1h-0.03l-1.52,1.36
				c4.97,1.22,20.69,7.52,39.74-3.98c7.87,6.03,18.18,12.04,36.02,9l0,0c0.78,1.4,1.61,2.87,2.51,4.42
				c4.55,9.07,12.95,17.14,21.51,21.13c1.88,1,4.31,2.15,5.19,2.59l1.25-1.26c0,0-3.77-1.5-8.35-4.3l0,0
				c-0.68-0.39-1.35-0.8-2.01-1.23l0.03-0.04c-0.37-0.24-0.73-0.49-1.1-0.75l-0.04,0.04c-0.58-0.41-1.14-0.83-1.71-1.27l0.03-0.03
				c-0.35-0.27-0.7-0.54-1.04-0.82l-0.02,0.02c-0.2-0.17-0.4-0.35-0.6-0.52c-0.15-0.13-0.3-0.25-0.45-0.38
				c-0.88-0.76-1.75-1.6-2.58-2.47c-0.08-0.08-0.16-0.16-0.24-0.24l0.01-0.01c-0.3-0.32-0.6-0.65-0.89-0.98l-0.02,0.02
				c-0.49-0.54-0.97-1.1-1.44-1.66l0.03-0.03c-0.28-0.34-0.56-0.69-0.83-1.03l-0.04,0.04c-0.42-0.53-0.83-1.08-1.23-1.63l0.04-0.03
				c-0.27-0.36-0.53-0.72-0.78-1.07l-0.03,0.02c-0.22-0.33-0.44-0.66-0.65-0.99c-2.47-3.58-4.04-6.44-4.04-6.44l3.56-1.85l0,0l0,0
				c0,0,1.89-0.39,6.88-0.21l0.02-0.02c0.52,0.01,1.03,0.03,1.53,0.06l-0.03,0.02c0.67,0.03,1.38,0.08,2.15,0.13l0.02-0.02
				c0.39,0.03,0.78,0.07,1.16,0.11l0,0c0.71,0.06,1.37,0.14,2.02,0.23c0.18,0.02,0.37,0.04,0.55,0.07c0.27,0.03,0.54,0.07,0.81,0.12
				l-0.02,0.02c0.58,0.1,1.12,0.22,1.65,0.35l0.03-0.03c0.55,0.14,1.08,0.29,1.6,0.47l-0.02,0.02c3.3,1.06,5.64,2.66,7.6,4.59
				c0.08,0.08,0.16,0.14,0.24,0.22l-0.01,0.01c0.39,0.39,0.76,0.79,1.12,1.2l0.02-0.02c0.29,0.33,0.58,0.67,0.85,1.02
				c0.1,0.13,0.21,0.27,0.31,0.4l0,0c0.7,0.87,1.37,1.9,1.98,2.95c0.02,0.03,0.04,0.07,0.06,0.11l0,0
				C1479.19,553.98,1479.46,554.48,1479.72,554.98z M1397.42,536.33c-5.33,2.09-9.22,2.57-13.1,2.63c-0.82,0.01-1.63-0.02-2.43-0.07
				c-0.13-0.01-0.27-0.01-0.39-0.02v-0.01c-0.32-0.02-0.64-0.05-0.95-0.09v0.01c-0.63-0.06-1.23-0.14-1.82-0.22v-0.02
				c-0.35-0.05-0.69-0.1-1.02-0.16v0.02c-0.6-0.1-1.17-0.22-1.73-0.34v-0.01c-1.68-0.35-2.75-0.66-2.75-0.66s0.53-1.44,3.41-5.37
				c0.58-0.79,1.14-1.49,1.7-2.15l0.01-0.14c0.05-0.05,0.1-0.1,0.15-0.15c0.21-0.2,0.41-0.4,0.62-0.6v0.01
				c1.96-2.13,3.89-3.58,6.05-4.6c0.24-0.11,0.47-0.2,0.71-0.29l0,0c2.79-1.07,5.39-0.62,7.35,0.27c0.53,0.24,1.04,0.48,1.54,0.74
				l-0.04-0.09c0.21,0.1,0.42,0.21,0.63,0.33l0.06,0.1c0.62,0.33,1.23,0.69,1.84,1.08l-0.03-0.05c0.24,0.16,0.48,0.32,0.72,0.49
				l0.02,0.03c0.76,0.52,1.55,1.09,2.39,1.76c0.67,0.52,1.35,1.06,2.04,1.62h-0.01c0.19,0.15,0.38,0.3,0.56,0.44l0,0
				c0.68,0.55,1.37,1.1,2.08,1.66C1405,532.48,1402.76,534.23,1397.42,536.33z M1432.51,541.38c-0.02,0-0.05,0-0.07,0l0,0
				c-0.32-0.01-0.65-0.03-0.98-0.05c-5.71-0.31-9.43-1.09-13.66-3.13c-0.5-0.23-0.99-0.47-1.47-0.71l0.01-0.02
				c-0.35-0.18-0.7-0.37-1.03-0.56l-0.01,0.02c-0.5-0.28-0.99-0.57-1.47-0.87l0,0c-3.36-2-5.55-3.78-5.55-3.78s0.03-0.03,0.1-0.08
				c-0.02-0.01-0.03-0.02-0.05-0.04c0.25-0.16,0.49-0.31,0.73-0.46c0.87-0.6,2.55-1.67,5.43-3.22c4.28-2.3,6.08-3.16,9.38-3.89
				c4.08-0.9,6.85,0.61,8.5,2.27c0.37,0.38,0.74,0.79,1.1,1.21V528c0.23,0.26,0.45,0.53,0.67,0.81v0.08
				c0.38,0.49,0.76,0.99,1.12,1.52v-0.07c0.29,0.41,0.57,0.85,0.86,1.3v0.06c0.53,0.82,1.06,1.67,1.58,2.55
				c1.69,2.85,3.84,6.85,3.84,6.85S1437.81,541.59,1432.51,541.38z"/>
			<path d="M1371.46,536.29l-0.51,0.47l0.39,0.11l0.38-0.56C1371.63,536.32,1371.54,536.31,1371.46,536.29z"/>
			<path d="M1371.46,536.29c0.08,0.02,0.17,0.03,0.25,0.03l-0.38,0.56l3.59-4.62l0,0c-0.34,0.41-0.68,0.83-1.02,1.25
				c-0.33-0.18-0.75-0.13-1.03,0.15c-0.31,0.31-0.33,0.81-0.06,1.14c-0.1,0.12-0.21,0.24-0.31,0.37c-0.04-0.11-0.11-0.22-0.2-0.31
				c-0.32-0.32-0.85-0.32-1.17,0.01c-0.01,0.01-0.02,0.02-0.02,0.03c-0.01,0.01-0.02,0.02-0.03,0.02c-0.22,0.22-0.29,0.53-0.21,0.8
				l-0.82,0.8l0.89,0.25L1371.46,536.29z"/>
			<path d="M1369.64,536.14c0.01-0.01,0.02-0.02,0.02-0.03c0.01-0.01,0.02-0.02,0.03-0.02c0.23-0.24,0.23-0.62,0-0.86
				c-0.24-0.24-0.62-0.23-0.85,0c-0.01,0.01-0.02,0.02-0.02,0.03c-0.01,0.01-0.02,0.02-0.03,0.02c-0.1,0.1-0.16,0.24-0.17,0.37
				l-0.4,0.33l1.12,0.32C1369.44,536.28,1369.56,536.23,1369.64,536.14z"/>
			<path d="M1404.5,528.53c-0.27-0.26-0.68-0.27-0.96-0.02l1.09,0.83C1404.76,529.08,1404.72,528.75,1404.5,528.53z"/>
			<path d="M1406.72,530.09c0.2-0.28,0.18-0.67-0.07-0.91c-0.28-0.27-0.72-0.27-0.99,0c-0.24,0.24-0.27,0.62-0.08,0.9l1.44,1.1
				l-0.02-0.02L1406.72,530.09z"/>
			<path d="M1410.69,528.43c-0.17,0.17-0.26,0.39-0.27,0.61c-0.28,0.17-0.57,0.35-0.86,0.52c-0.05-0.12-0.12-0.24-0.22-0.33
				c-0.37-0.36-0.96-0.36-1.32,0.01c-0.35,0.36-0.36,0.93-0.02,1.3c-0.33,0.21-0.65,0.42-0.99,0.63l4.75-2.92
				C1411.41,528.08,1410.98,528.14,1410.69,528.43z"/>
		</g>
		<path d="M1411.39,531.74c0.4-0.4,0.4-1.05,0-1.46l-0.03-0.02c-0.57,0.34-1.06,0.64-1.46,0.9l-0.22,0.19c0,0.01,0,0.01,0.01,0.02
			l-1.13,0.98l-0.01-0.01l-0.09,0.08c0.17,0.14,0.48,0.37,0.91,0.69l0.09-0.08c0,0,0,0-0.01,0l1.06-0.99
			C1410.82,532.08,1411.15,531.98,1411.39,531.74z"/>
		<path d="M1412.65,529.51l0.02,0.06c0.01,0.01,0.03,0.03,0.04,0.04c0.37,0.36,0.96,0.36,1.32-0.01c0.26-0.26,0.33-0.64,0.22-0.97
			c0.08-0.05,0.17-0.09,0.25-0.14C1413.81,528.86,1413.2,529.2,1412.65,529.51z"/>
		<path d="M1412.15,533.88L1412.15,533.88l0.82-1.05c0.24,0,0.48-0.09,0.66-0.27c0.35-0.36,0.35-0.93-0.01-1.28
			c-0.35-0.35-0.92-0.35-1.28,0.01c-0.23,0.23-0.31,0.55-0.24,0.84l-0.78,0.99l0,0l-0.71,0.9c0.28,0.2,0.59,0.4,0.92,0.62
			L1412.15,533.88z"/>
		<path d="M1410.62,534.01l-1.25-0.89C1409.71,533.37,1410.13,533.67,1410.62,534.01z"/>
		<path d="M1415.97,533.32c0.38-0.38,0.38-1-0.01-1.38s-1-0.38-1.38,0.01c-0.32,0.33-0.37,0.83-0.14,1.2l-1.44,2.4l-0.01,0.01
			c0.27,0.17,0.55,0.34,0.84,0.51l1.59-2.47C1415.62,533.57,1415.81,533.48,1415.97,533.32z"/>
		<path d="M1422.74,528.07l1.13-3.47c-0.48,0.1-0.92,0.21-1.34,0.33l0,0l-0.92,2.82c-0.11,0.05-0.21,0.11-0.29,0.2
			c-0.36,0.37-0.36,0.96,0.01,1.33c0.37,0.36,0.96,0.36,1.32-0.01C1422.97,528.95,1423,528.44,1422.74,528.07z"/>
		<path d="M1417.85,526.76"/>
		<path d="M1420.6,527.96l0.74-1.63l0,0l0,0l0.55-1.2h0.01l0.01-0.01c-0.53,0.16-1.03,0.33-1.54,0.52l-0.01,0.04l-0.9,1.99
			c-0.1,0.05-0.19,0.11-0.27,0.19c-0.36,0.37-0.36,0.96,0.01,1.33c0.37,0.36,0.96,0.36,1.32-0.01
			C1420.84,528.84,1420.87,528.33,1420.6,527.96z"/>
		<path d="M1424.86,528.12l1.07-3.76v-0.01c-0.4,0.01-0.81,0.05-1.24,0.11l-0.32,1.1l0,0l-0.65,2.31c-0.13,0.05-0.25,0.13-0.35,0.24
			c-0.4,0.41-0.4,1.07,0.01,1.47c0.41,0.41,1.06,0.4,1.47-0.01C1425.24,529.17,1425.24,528.53,1424.86,528.12z"/>
		<path d="M1427.05,528.75l0.8-4.26l0,0l0,0c-0.37-0.07-0.76-0.11-1.17-0.13v0.01l-0.77,4.1c-0.1,0.05-0.19,0.11-0.27,0.19
			c-0.36,0.37-0.36,0.96,0.01,1.33c0.37,0.36,0.96,0.36,1.32-0.01C1427.3,529.64,1427.33,529.12,1427.05,528.75z"/>
		<path d="M1431.21,529.91c-0.03-0.03-0.06-0.06-0.1-0.08l0.61-3.51l0.03-0.01c-0.33-0.27-0.69-0.53-1.09-0.77v0.03l-0.72,4.22
			c-0.06,0.04-0.11,0.08-0.16,0.14c-0.39,0.4-0.39,1.05,0.01,1.44c0.4,0.4,1.04,0.39,1.44-0.01
			C1431.61,530.96,1431.6,530.31,1431.21,529.91z"/>
		<path d="M1429.1,529.05c-0.01-0.01-0.02-0.02-0.03-0.03l0.5-2.65l0.23-1.28c-0.35-0.16-0.72-0.29-1.11-0.41l0,0l-0.78,4.17
			c-0.1,0.05-0.19,0.12-0.27,0.2c-0.4,0.41-0.4,1.07,0.01,1.47c0.41,0.4,1.06,0.4,1.46-0.01
			C1429.51,530.11,1429.5,529.46,1429.1,529.05z"/>
		<path d="M1441.16,541.17l-0.29-1.27c0.22,0.4,0.45,0.82,0.68,1.23c0,0-0.86-1.6-1.92-3.5h-0.02c-0.16,0.05-0.32,0.14-0.45,0.27
			c-0.4,0.4-0.4,1.06,0.01,1.46c0.13,0.13,0.29,0.22,0.46,0.26l0.32,1.63l0.01,0.02c1.01-0.07,1.58-0.14,1.58-0.14
			C1441.42,541.14,1441.29,541.16,1441.16,541.17z"/>
		<path d="M1438.17,541.35l-0.2-2.38c0.03-0.02,0.05-0.05,0.08-0.07c0.39-0.39,0.38-1.02-0.01-1.41c-0.39-0.39-1.02-0.39-1.41,0.01
			c-0.39,0.39-0.38,1.02,0.01,1.41c0.09,0.09,0.2,0.16,0.31,0.21l0.17,2l0,0l0.04,0.29c0.36-0.01,0.7-0.02,1.02-0.03L1438.17,541.35
			z"/>
		<path d="M1435.39,541.44L1435.39,541.44l-0.06-3.04c0.05-0.03,0.09-0.07,0.13-0.11c0.37-0.37,0.36-0.97-0.01-1.34
			c-0.37-0.37-0.97-0.36-1.33,0.01s-0.36,0.97,0.01,1.34c0.02,0.02,0.05,0.04,0.07,0.06l-0.05,3.07c-0.56-0.01-1.11-0.02-1.65-0.04
			C1433.53,541.42,1434.5,541.44,1435.39,541.44z"/>
		<path d="M1438.23,535.91c0.16,0.16,0.37,0.25,0.57,0.27h0.01c-0.37-0.65-0.74-1.29-1.09-1.89c0.11,0.18,0.21,0.37,0.32,0.55
			C1437.87,535.19,1437.94,535.62,1438.23,535.91z"/>
		<path d="M1429.06,537.21c0.01,0.01,0.02,0.02,0.03,0.03l-0.5,3.5l0,0l-0.03,0.37c0.35,0.03,0.7,0.07,1.07,0.1l-0.01-0.01l0.56-3.8
			c0.09-0.05,0.18-0.11,0.26-0.19c0.38-0.38,0.38-1-0.01-1.38c-0.38-0.38-1-0.38-1.38,0.01
			C1428.68,536.21,1428.68,536.83,1429.06,537.21z"/>
		<path d="M1426.63,536.55l-0.87,4.11l-0.01,0.08c0.35,0.06,0.72,0.11,1.09,0.16l0.01-0.05l0.74-4.04c0.16-0.04,0.31-0.13,0.44-0.26
			c0.38-0.39,0.38-1.01-0.01-1.39s-1.01-0.38-1.39,0.01C1426.25,535.55,1426.25,536.17,1426.63,536.55z"/>
		<path d="M1418.77,538.63l1.43-3.58c0.18-0.04,0.35-0.13,0.49-0.27c0.38-0.39,0.38-1.01-0.01-1.39c-0.38-0.38-1-0.38-1.38,0.01
			c-0.33,0.33-0.37,0.83-0.14,1.21l-1.36,3.6c0.33,0.16,0.65,0.3,0.98,0.44L1418.77,538.63z"/>
		<path d="M1421.65,535.41l0.01,0.01l-1.21,3.86l-0.02,0.05c0.31,0.12,0.62,0.23,0.93,0.33l0.02-0.07l1.24-3.95
			c0.13-0.05,0.26-0.12,0.37-0.23c0.37-0.37,0.36-0.97-0.01-1.34c-0.37-0.37-0.97-0.37-1.34,0.01
			C1421.28,534.44,1421.28,535.04,1421.65,535.41z"/>
		<path d="M1424.15,535.93L1424.15,535.93l-1.08,4.14l-0.02,0.09c0.36,0.1,0.72,0.19,1.1,0.28l-0.01-0.1l0.98-4.22
			c0.1-0.04,0.19-0.11,0.27-0.19c0.34-0.35,0.34-0.91-0.01-1.25s-0.9-0.34-1.25,0.01S1423.8,535.59,1424.15,535.93z"/>
		<path d="M1416.24,528.46l1.07-1.42v-0.02c-0.83,0.42-1.75,0.91-2.83,1.48c-0.11,0.33-0.04,0.71,0.23,0.97
			c0.37,0.36,0.96,0.36,1.32-0.01C1416.31,529.19,1416.38,528.79,1416.24,528.46z"/>
		<path d="M1418.48,528.12l1.06-2.11h0.01l0.02-0.05c-0.55,0.23-1.12,0.5-1.74,0.8l-0.01,0.02l0.04-0.02l-0.4,0.81
			c-0.21,0.03-0.41,0.13-0.57,0.29c-0.39,0.39-0.39,1.03,0.01,1.42c0.39,0.39,1.03,0.39,1.42-0.01
			C1418.61,528.96,1418.67,528.49,1418.48,528.12z"/>
		<path d="M1446.06,545.19l-0.22,0.15c0.2,0.34,0.43,0.71,0.69,1.12l0.14-0.1l1.84-1.23c0.54,0.34,1.27,0.28,1.74-0.2
			c0.54-0.55,0.54-1.44-0.01-1.98s-1.43-0.54-1.97,0.01c-0.29,0.3-0.43,0.69-0.4,1.08L1446.06,545.19z"/>
		<path d="M1445.19,543.56l1.02-0.56c0.54,0.36,1.28,0.3,1.76-0.18c0.31-0.31,0.44-0.74,0.4-1.15l-3.56,1.85c0,0,0.04,0.08,0.11,0.2
			L1445.19,543.56z"/>
		<path d="M1452.51,545.06c-0.55-0.54-1.43-0.54-1.97,0.01c-0.32,0.33-0.45,0.78-0.39,1.2l-2.43,1.94l-0.04,0.04
			c0.36,0.55,0.74,1.12,1.16,1.72c-0.14-0.21-0.28-0.42-0.42-0.63l2.47-2.04c0.53,0.27,1.19,0.19,1.63-0.26
			C1453.07,546.5,1453.06,545.61,1452.51,545.06z"/>
		<g>
			<path d="M1451.59,541.43c-2.29,0.05-3.23,0.24-3.23,0.24c0.3-0.03,0.6-0.05,0.89-0.07c0.05,0.18,0.15,0.36,0.29,0.5
				c0.44,0.43,1.14,0.43,1.57-0.01c0.14-0.14,0.24-0.32,0.28-0.5l0.18-0.12L1451.59,541.43z"/>
			<path d="M1455.24,541.46c-1.13-0.04-2.09-0.05-2.91-0.04l-0.03,0.03c-0.4,0.44-0.39,1.12,0.03,1.55
				c0.44,0.43,1.14,0.43,1.57-0.01c0.19-0.19,0.3-0.44,0.32-0.69L1455.24,541.46z"/>
		</g>
		<path d="M1463.77,545.94c-0.37-0.04-0.75,0.08-1.03,0.37c-0.49,0.49-0.48,1.29,0.01,1.78c0.49,0.49,1.29,0.49,1.77-0.01
			c0.35-0.35,0.44-0.86,0.3-1.3l3.28-3.29c-0.44-0.18-0.9-0.35-1.39-0.5L1463.77,545.94z"/>
		<path d="M1468.1,543.5c0.06,0.02,0.11,0.05,0.17,0.07C1468.22,543.54,1468.16,543.52,1468.1,543.5L1468.1,543.5z"/>
		<path d="M1470.96,544.93c-0.81-0.5-1.71-0.95-2.68-1.36c0.41,0.17,0.81,0.36,1.2,0.55l-3.27,3.45c-0.37-0.03-0.76,0.1-1.04,0.39
			c-0.51,0.52-0.51,1.35,0.01,1.87c0.52,0.51,1.35,0.51,1.86-0.01c0.3-0.31,0.43-0.73,0.37-1.13l3.55-3.74L1470.96,544.93z"/>
		<path d="M1474.31,547.58c-0.67-0.66-1.39-1.27-2.17-1.84l-0.02,0.02l-3.43,3.82c-0.37-0.03-0.74,0.1-1.02,0.39
			c-0.51,0.51-0.5,1.35,0.01,1.85c0.51,0.51,1.34,0.51,1.85-0.01c0.3-0.31,0.42-0.72,0.36-1.12l3.52-3.92
			C1473.73,547.03,1474.02,547.3,1474.31,547.58z"/>
		<path d="M1477.84,551.77c-0.32-0.48-0.65-0.94-0.99-1.36l-3.28,3.67c-0.38-0.01-0.76,0.13-1.04,0.42c-0.55,0.56-0.54,1.45,0.01,2
			s1.45,0.55,1.99-0.01c0.38-0.38,0.49-0.93,0.34-1.42l2.95-3.3H1477.84z"/>
		<path d="M1467.67,566.75l-0.08,0.12c0.46,0.25,0.89,0.47,1.3,0.68l0.09-0.1l2.06-2.71c0.47,0.13,0.99,0.01,1.36-0.37
			c0.54-0.55,0.54-1.44-0.01-1.98s-1.43-0.54-1.97,0.01c-0.36,0.36-0.48,0.87-0.36,1.33L1467.67,566.75z"/>
		<path d="M1465.56,565.73l0.03-0.04l2.71-3.3c0.46,0.11,0.96-0.02,1.31-0.38c0.54-0.55,0.54-1.44-0.01-1.98s-1.43-0.54-1.97,0.01
			c-0.41,0.42-0.51,1.04-0.29,1.55l-2.93,3.45C1464.8,565.28,1465.18,565.51,1465.56,565.73z"/>
		<path d="M1475.34,564.6c-0.55-0.54-1.43-0.54-1.97,0.01c-0.35,0.35-0.47,0.84-0.37,1.29l-1.91,2.65l-0.01,0.05
			c1.05,0.48,1.68,0.73,1.68,0.74c-0.09-0.04-0.2-0.08-0.31-0.13l1.68-2.23c0.43,0.08,0.9-0.06,1.23-0.39
			C1475.89,566.04,1475.89,565.15,1475.34,564.6z"/>
	</g>
</g>
<g id="AR_x5F_layer">
</g>
</svg>
