<?xml version="1.0" encoding="utf-8"?>
<!-- Generator: Adobe Illustrator 18.0.0, SVG Export Plug-In . SVG Version: 6.00 Build 0)  -->
<!DOCTYPE svg PUBLIC "-//W3C//DTD SVG 1.1//EN" "http://www.w3.org/Graphics/SVG/1.1/DTD/svg11.dtd">
<svg version="1.1" id="AR_x5F_layer" xmlns="http://www.w3.org/2000/svg" xmlns:xlink="http://www.w3.org/1999/xlink"  x="0px" y="0px" width="9451.45px" height="623.52px" viewBox="0 0 9451.45 623.51" enable-background="new 0 0 9451.45 623.51" xml:space="preserve">
<g opacity="0.01">
	<path d="M433.26,243.08l-0.45-2.01l-0.65-2.09l-0.76-1.97l-1.35-2.94l-6.24-11.04l0.22-1.23l0.45-4.14l0.19-5.04l-0.05-3.39
		l-0.45-6.77l-1.4-10.68l-2.19-11.54l-2.1-8.24l-2.05-6.4l-2.19-5.59l-2.23-4.76l-2.13-3.86l-1.89-2.98l-2.06-2.85l-2.24-2.68
		l-1.82-1.9l-2.63-2.41l-2.84-2.25l-3.03-2.06l-2.38-1.41l-2.46-1.28l-2.53-1.14l-2.59-0.98l-2.64-0.82l-2.68-0.64l-2.72-0.47
		l-2.2-0.25l-1.59-0.9l-25.38-11.61l-9.58-4l-5.59-1.84l-6.58-1.64l-6.71-1.19l-6.64-0.71l-7.36-0.26l-6.69,0.15l-14.47,1.18
		l-10.28,1.52l-7.21,1.6l-6.35,1.93l-7.03,2.69l-7.46,3.45l-7.74,4.25l-6.98,4.5l-6.04,4.52l-5.69,4.97l-7.04,7.04l-8.05,9.12
		l-3.49,4.59l-2.49,3.85l-1.97,3.57l-1.85,3.96l-0.17,0.43l-0.46,0.68l-1.06,1.84l-0.91,1.85l-1.22,2.89l-1.06,2.95l-1.17,3.87
		l-1.29,5.19l-0.23,1.18l-2.39,1.18l1.2,2.57l1.26,2.54l3.21-1.58l2.12,0.5l0.01-0.03l2.56,0.79l1.63-4.45l7.19-3.92l4.31-2.62
		l2.99-2.01l1.8-1.34l1.61-1.34l1.34-1.27l1.23-1.35l1.06-1.36l0.89-1.37l0.74-1.39l0.59-1.39l0.46-1.39l0.5-2.14l0.77-8.55
		l0.36-0.11l28.71-6.76l5.68-0.88l3.72-0.21l0.52,0l11.83,1.13l4.54,0.28l1.66-0.04l2.67-0.28l3.55-0.75l15.57-5.32l6.47-2.79
		l11.83-6.9l5.28-2.92l3.18-1.43l2.39-0.81l1.7-0.39l1.73-0.23l2.4-0.09l0.61,0.01l12.45,1.38l9.25,0.3l4.61,1.77l20.42,6.69
		l0.55,0.52l3.55,3.86l3.75,4.69l4.21,6.07l4.24,7.14l3.7,7.38l0.48,1.16l0.01,0.13l0.66,4.18l8.23,31.23l0.66,2.23l0.25,2.27
		l0.32,8.21l-0.19,6.71l-0.63,6.81l-0.96,5.93l-1.16,4.95l-1.1,3.46l-0.44,0.71l-4.56,6.37l-15.55,19.18l-5.67,6.13l-5,4.59
		l-4.89,3.83l-4.52,3.03l-3.99,2.27l-0.01,0l-10.78-4.5l-3.06-1.13l-1.91-0.56l-1.97-0.4l-0.98-0.12l-1.1-0.05l-0.87,0.03
		l-0.99,0.12l-0.98,0.23l-0.97,0.35l-0.94,0.49l-0.89,0.62l-0.81,0.76l-0.72,0.87l-0.62,0.98l-0.52,1.04L335,293.5l-0.38,1.15
		l-0.32,1.2l-0.54,2.62l-0.39,2.65l-2.56-0.06l-3.73-0.35l-3.57-0.65l-4.17-1.18l-10.7-4.21l-11.82-4.45l-13.79-4.04l-4.18-0.7
		l-3.37-0.18l-1.77,0.05l-3.07,0.34l-23.31,5.96l-1.48,0.29l-8.98-2.97l-18.38-18.11l-4.04,3.99l9.91,9.99l-10.32-3.41l-0.55-0.52
		l-3.75-3.93l-1.31,1.17l-1.28,1l-2-0.66l-1.87,5.36l4.71,1.54l10.88,13.16l4.24,4.42l4.07,3.75l4.55,3.65l5.7,3.9l9.44,5.48
		l8.3,4.07l7.01,2.85l7.98,2.58l8.13,2.01l8.1,1.44l8.41,0.92l7.73,0.3l3.06-0.04l6.03-0.41l3.77,1.76l2.89,1.2l1.94,0.68l1.83,0.52
		l1.91,0.37l2.02,0.16l0.86-0.03l0.96-0.1l0.96-0.19l0.95-0.29l0.93-0.4l0.89-0.51l0.84-0.63l0.78-0.75l0.7-0.85l0.62-0.94
		l0.53-1.03l0.45-1.09l0.39-1.14l0.41-1.63l4.02-1.12l6.71-2.36l5.05-2.16l4.13-2.1l4.67-2.81l6.45-4.51l10.81-8.7l5.12-4.64
		l0.22-0.06l1.88-0.65l1.81-0.75l1.73-0.84l1.65-0.93l1.57-1.01l1.47-1.08l1.37-1.15l1.26-1.21l1.15-1.26l1.05-1.3l1.41-2.01
		l5.13-8.88l2.08-3.26l1.4-1.87l1.57-1.79l1.83-1.75l12.19-9.35l2.44-2.06l1.52-1.44l1.34-1.43l1.27-1.57l1.1-1.67l0.47-0.88
		l0.42-0.91l0.35-0.94l0.28-0.97l0.2-1l0.12-1.02l0.05-1.11l-0.03-0.92L433.26,243.08z M327.14,325.13l-10.21,1.96l-4.2,0.5
		l-3.99-1.89l-3.42-1.49l-4.04-1.48l-8.19-2.15l25.46,2.89l5.97,0.23l4.45-0.18l2.49-0.3l-0.12,0.8L327.14,325.13z M338.52,306.61
		l4.65-0.51l5.48-1.03l5.52-1.48l5.46-1.92l4.18-1.82l1.64,0.52l2.12,0.53l2.21,0.38l2.19,0.22l0.02,0l-1.37,1.04l-2.94,1.89
		l-4.47,2.41l-6.1,2.74l-12.34,4.56l-6.99,2.05L338.52,306.61z M409.66,163.73l2.2,6l0.69,2.38l-3.15-8.78l-2.02-4.63l0.3,0.57
		L409.66,163.73z M331.36,114.98l-1.71-0.33l-0.74-0.08l-1.07-0.65l0.95,0.23L331.36,114.98z M308.76,114.63l1.07-0.54l0.98-0.37
		l0.9-0.21l0.9-0.08l0.46,0l0.97,0.09l1.03,0.21l1.42,0.46l-5.66,0.42l-2.88,0.54L308.76,114.63z M234.59,129.82l7.31-4.49
		l7.46-3.87l7.9-3.39l6.66-2.29l5.98-1.55l8.38-1.52l14.05-1.5l11.41-0.44l0.49,0.01l-1.9,1.36l-6.03,5.21l-34.63,6.53l-8.71,1.9
		l-4.61,1.42l-3.83,1.54l-4.38,2.2l-4.24,2.56l-3.49,2.48l-1.65-0.08l-1.76,0.1l-0.9,0.14l-0.9,0.21l-0.87,0.28l-0.84,0.34
		l-0.76,0.38l3.44-2.92L234.59,129.82z M258.62,140l-0.8,0.41l-0.84,0.29l-0.91,0.18l-1.08,0.05l-0.62-0.02l-2.1-0.25l-12.07-3.14
		l3.81-2.22l3.97-1.87l3.43-1.27l4.88-1.36l13.38-2.64l-0.32,0.19l-1.12,0.86l-1,0.95l-5.53,7.07l-1.16,1.26l-1.15,1L258.62,140z
		 M215.42,146.26l4.59-4.51l-0.26,0.35l-0.89,1.46l-0.82,1.61l-0.67,1.57l-0.83,2.41l-0.44,1.63l-5.76,5.31l-2.59,0.93l-2.58,1.14
		l1.95-2.57L215.42,146.26z M214.33,164.9l-0.33,2.11l-0.41,1.52l-0.57,1.43l-0.79,1.43l-1.09,1.48l-0.93,1.03l-1.73,1.59l-2.3,1.76
		l-2.76,1.85l-4.1,2.5l-1.38,0.76l2.29-5.08l1.6-3.04l1.66-2.64l1.74-2.35l2.28-2.61l5.87-5.55l1.35-0.4L214.33,164.9z
		 M223.17,152.39l-0.9,0.25l8.58-8.11l3.18-2.63l0.41,0.06l14.04,3.71l2.23,0.46L223.17,152.39z M334.3,124.8l-2.2,0.06l-2.22,0.23
		l-2.23,0.43l-2.22,0.65l-2.2,0.83l-2.91,1.34l-13.88,8.09l-4.25,2.21l-5.88,2.42l-14.49,4.9l-3.39,0.63l-2.6,0.15l-12.66-1.22
		l-2.68-0.12l0.21-0.09l1.39-0.81l1.25-0.93l1.13-1.02l1.55-1.68l2.85-3.74l2.06-2.65l0.97-0.98l0.86-0.63l0.96-0.46l1.17-0.36
		l7.99-0.99l2.83-0.53l2.11-0.61l1.49-0.57l1.49-0.71l1.56-0.91l2.12-1.49l4.54-3.9l7.24-1.43l8.51-1.01l6.1-0.23l0.68,0l4.66,0.24
		l0.48,0.07l3.28,1.98l2.7,1.4l3.39,1.48l0.09,0.03L334.3,124.8z M373.59,294.24l4.75-3.5l5.03-4.29l4.61-4.56l8.25-9.49l2.76-3.51
		l-1.06,2.23l-0.56,1.02l-8.98,12.13l-7.67,9.14l-2,2.05l-1.08,0.19l-1.71,0.19l-1.74,0.08l-1.82-0.05l-1.16-0.11L373.59,294.24z
		 M339.8,297.26l0.52-1.76l0.28-0.71l0.28-0.58l0.27-0.44l0.25-0.32l0.25-0.24l0.52-0.33l0.67-0.21l0.92-0.08l0.57,0.02l1.32,0.19
		l1.53,0.38l1.66,0.54l7.4,3.12l-2.45,0.91l-5.11,1.48l-5.04,1.05l-4.47,0.56l0.21-1.41L339.8,297.26z M269.79,291.59l3.25-0.5
		l2.42-0.12l1.4,0.04l3.16,0.36l5.28,1.26l25.88,9.26l7.04,2.59l4,1.11l3.39,0.65l4.18,0.45l3.13,0.1l-0.85,10.64l-3.54,0.45
		l-3.99,0.16l-3.45-0.08l-26.14-2.78l-9.47-1.49l-7.3-1.85l-9.16-3.12l-4.73-2.03l-8.18-7.66l-3.42-3.01l10.01-2.67L269.79,291.59z
		 M288.63,327.27l-8.46-1.42l-8.47-2.07l-7.59-2.45l-6.63-2.7l-8.6-4.25l-8.41-4.91l-5.89-4.06l-4.77-3.93l-4.42-4.26l-0.95-1.05
		l0.45,0.21l1.8,0.71l1.91,0.59l1.81,0.43l1.81,0.31l1.8,0.2l2.68,0.11l2.18-0.07l3.6,2.86l4.61,3.04l6.95,3.79l6.91,3.1l1.97,1.72
		l3.54,2.6l3.77,2.35l4.59,2.4l4.66,2l18.59,5.18l1.29,0.44l-2.67-0.08L288.63,327.27z M329.31,330.99l-0.28,0.35l-0.57,0.51
		l-0.64,0.33l-0.79,0.21l-1.01,0.07l-1.21-0.09l-1.38-0.27l-0.9-0.25l7.17-1.51l-0.1,0.21L329.31,330.99z M337.29,322.44l0.02-0.12
		l0.01-0.16l0.51-0.1l3.17-0.88L337.29,322.44z M427.77,247.21l-0.25,1.09l-0.45,1.1l-0.66,1.14l-0.86,1.18l-1.02,1.17l-1.9,1.85
		l-13.02,10.05l-1.28,1.11l3.56-5.87l3.03-5.87l1.99-4.53l1.41-3.83l1.15-3.92l1.08-4.86l0.47-2.98l0.95-2.99l1.59,2.8l1.84,3.59
		l1.11,2.57l0.59,1.68l0.42,1.55l0.26,1.44l0.08,1.32L427.77,247.21z"/>
	<path d="M154.25,153.64c-0.29-0.06-0.6-0.1-0.9-0.1c-1.96,0-3.69,1.39-4.11,3.31c-0.49,2.27,0.95,4.51,3.22,5.01
		c0.29,0.06,0.6,0.1,0.9,0.1c1.96,0,3.69-1.39,4.11-3.31C157.96,156.38,156.51,154.13,154.25,153.64z"/>
	<path d="M314.47,74.42c0.29,0.06,0.6,0.1,0.9,0.1c1.96,0,3.69-1.39,4.11-3.31c0.24-1.1,0.04-2.22-0.57-3.17
		c-0.61-0.95-1.55-1.6-2.65-1.84c-0.29-0.06-0.6-0.1-0.9-0.1c-1.96,0-3.69,1.39-4.11,3.31C310.76,71.68,312.2,73.93,314.47,74.42z"
		/>
	<path d="M447.06,187.02c-0.61-0.95-1.55-1.6-2.65-1.84c-0.29-0.06-0.6-0.1-0.9-0.1c-1.96,0-3.69,1.39-4.11,3.31
		c-0.24,1.1-0.04,2.22,0.57,3.17s1.55,1.6,2.65,1.84c0.29,0.06,0.6,0.1,0.9,0.1c1.96,0,3.69-1.39,4.11-3.31
		C447.87,189.1,447.67,187.97,447.06,187.02z"/>
	<path d="M369.85,343.37c-0.29-0.06-0.59-0.1-0.89-0.1c-1.97,0-3.69,1.39-4.11,3.31c-0.24,1.1-0.04,2.22,0.57,3.17
		c0.61,0.95,1.55,1.6,2.65,1.84c0.29,0.06,0.6,0.1,0.9,0.1c1.96,0,3.69-1.39,4.11-3.31c0.24-1.1,0.04-2.22-0.57-3.17
		C371.89,344.27,370.95,343.61,369.85,343.37z"/>
	<path d="M196.51,320.25c-0.29-0.06-0.6-0.1-0.9-0.1c-1.96,0-3.69,1.39-4.11,3.31c-0.24,1.1-0.04,2.22,0.57,3.17
		c0.61,0.95,1.55,1.6,2.65,1.84c0.29,0.06,0.6,0.1,0.9,0.1c1.96,0,3.69-1.39,4.11-3.31C200.22,322.99,198.78,320.75,196.51,320.25z"
		/>
</g>
</svg>
