<?xml version="1.0" encoding="utf-8"?>
<!-- Generator: Adobe Illustrator 18.0.0, SVG Export Plug-In . SVG Version: 6.00 Build 0)  -->
<!DOCTYPE svg PUBLIC "-//W3C//DTD SVG 1.1//EN" "http://www.w3.org/Graphics/SVG/1.1/DTD/svg11.dtd">
<svg version="1.1" id="AR_x5F_layer" xmlns="http://www.w3.org/2000/svg" xmlns:xlink="http://www.w3.org/1999/xlink" x="0px"
	 y="0px" viewBox="0 0 9451.45 623.52" enable-background="new 0 0 9451.45 623.52" xml:space="preserve">
<path opacity="0.01" d="M2319.8,567.19c0.09-0.17,0.18-0.34,0.25-0.53c0.59-1.51,0.56-3.15-0.09-4.63
	c-0.05-0.12-0.12-0.21-0.18-0.32c0.08-0.15,0.16-0.29,0.22-0.45c0.61-1.5,0.6-3.14-0.02-4.63c-0.06-0.15-0.15-0.27-0.22-0.41
	c0.06-0.12,0.13-0.23,0.19-0.36c0.73-1.72,0.6-3.59-0.2-5.13c0.04-0.08,0.08-0.15,0.12-0.23c0.65-1.48,0.69-3.13,0.1-4.63
	c-0.07-0.19-0.18-0.36-0.27-0.54c0.03-0.05,0.06-0.1,0.08-0.15c0.79-1.73,0.68-3.64-0.12-5.22c0-0.01,0.01-0.01,0.01-0.01
	c0.81-1.74,0.72-3.67-0.08-5.27c0.78-1.7,0.69-3.59-0.08-5.16c0.73-1.66,0.65-3.5-0.09-5.04c0.68-1.62,0.59-3.39-0.11-4.89
	c0.62-1.57,0.53-3.27-0.13-4.73c0.45-1.21,0.5-2.53,0.13-3.8c-0.07-0.25-0.19-0.48-0.29-0.71c0.5-1.44,0.41-2.99-0.17-4.34
	c0.1-0.31,0.17-0.63,0.21-0.95c0.4-0.94,0.61-1.98,0.54-3.07c-0.07-1.01-0.36-1.95-0.83-2.79c-0.02-0.13-0.05-0.27-0.08-0.4
	c-0.06-0.25-0.17-0.48-0.26-0.72c0.23-0.93,0.23-1.91,0-2.87c-0.06-0.25-0.16-0.49-0.26-0.73c0.12-0.58,0.15-1.17,0.09-1.75
	c0.65-1.12,0.98-2.44,0.88-3.83c-0.1-1.38-0.63-2.63-1.44-3.65c-0.02-0.35-0.06-0.7-0.13-1.05c-0.22-1.01-0.71-1.91-1.37-2.66
	c1.65-1.34,2.64-3.44,2.46-5.72c-0.14-1.75-0.93-3.29-2.12-4.38c0.22-0.86,0.26-1.77,0.08-2.67c-0.06-0.3-0.16-0.59-0.26-0.87
	c0.08-0.08,0.16-0.16,0.23-0.24c1.16-1.36,1.71-3.08,1.57-4.85c-0.15-1.83-1.04-3.45-2.37-4.57c0.35-1.11,0.37-2.29,0.07-3.39
	c1.24-1.33,1.93-3.16,1.77-5.11c-0.14-1.67-0.88-3.13-1.99-4.21c0.04-0.48,0.03-0.98-0.04-1.47c-0.09-0.58-0.26-1.13-0.51-1.65
	c0.07-0.18,0.14-0.36,0.19-0.54c0.09-0.1,0.19-0.2,0.28-0.31c1.14-1.37,1.67-3.1,1.5-4.88c-0.14-1.49-0.75-2.82-1.68-3.85
	c0.06-0.49,0.07-1,0.01-1.51c-0.03-0.27-0.09-0.54-0.16-0.81c0.12-0.45,0.19-0.91,0.2-1.38c0.25-0.62,0.4-1.28,0.43-1.97
	c0.51-1.07,0.75-2.28,0.62-3.54c-0.12-1.18-0.54-2.28-1.2-3.2c-0.34-0.86-0.89-1.65-1.63-2.3l-1.15-1c2.24-1.26,3.65-3.77,3.37-6.49
	c-0.31-3.02-2.58-5.38-5.48-5.89c1.34-0.37,2.53-1.14,3.41-2.24c1.12-1.39,1.62-3.13,1.43-4.9c-0.32-3-2.59-5.34-5.46-5.85
	c1.32-0.37,2.5-1.14,3.38-2.23c1.12-1.39,1.62-3.13,1.43-4.9c-0.33-3-2.59-5.34-5.47-5.84c1.35-0.39,2.54-1.18,3.42-2.3
	c1.1-1.41,1.58-3.16,1.36-4.92c-0.36-2.94-2.61-5.25-5.44-5.75c0.55-0.16,1.08-0.39,1.56-0.69c0.6,0.17,1.22,0.29,1.87,0.29
	c0.43,0,0.85-0.04,1.19-0.11c1.75-0.32,3.28-1.3,4.29-2.76c1.01-1.46,1.4-3.24,1.08-4.99c-0.51-2.79-2.7-4.9-5.41-5.37
	c1.4-0.38,2.63-1.19,3.53-2.37c1.08-1.41,1.56-3.16,1.32-4.93c-0.39-2.93-2.67-5.22-5.5-5.7c1.37-0.4,2.57-1.21,3.45-2.37
	c1.07-1.42,1.53-3.17,1.29-4.95c-0.41-2.9-2.68-5.17-5.48-5.65c1.37-0.41,2.58-1.23,3.45-2.4c1.06-1.43,1.51-3.19,1.25-4.94
	c-0.42-2.88-2.68-5.13-5.47-5.61c1.37-0.41,2.57-1.24,3.43-2.41c1.06-1.43,1.5-3.19,1.23-4.95c-0.43-2.86-2.69-5.1-5.46-5.58
	c3.11-0.96,5.14-4.07,4.63-7.38c-0.44-2.84-2.69-5.06-5.45-5.55c3.11-0.97,5.13-4.11,4.59-7.42c-0.46-2.86-2.67-5.03-5.43-5.51
	c3.09-0.99,5.09-4.11,4.56-7.41c-0.46-2.86-2.66-5.03-5.42-5.5c0.58-0.19,1.12-0.45,1.61-0.77c0.52,0.13,1.05,0.22,1.61,0.22
	c0.38,0,0.77-0.03,1.11-0.09l0.13-0.02c1.76-0.3,3.29-1.26,4.33-2.71c1.03-1.45,1.44-3.22,1.14-4.97c-0.48-2.85-2.7-5-5.47-5.46
	c3.12-0.99,5.12-4.16,4.55-7.47c-0.49-2.84-2.7-4.98-5.45-5.44c1.38-0.45,2.57-1.32,3.41-2.53c1.02-1.46,1.4-3.23,1.09-4.99
	c-0.51-2.8-2.71-4.92-5.43-5.38c1.37-0.45,2.56-1.33,3.39-2.54c1.01-1.47,1.39-3.24,1.07-4.99c-0.51-2.78-2.71-4.89-5.41-5.36
	c3.1-1.04,5.04-4.24,4.42-7.54c-0.52-2.77-2.7-4.86-5.4-5.34c3.08-1.06,5.01-4.26,4.38-7.55c-0.52-2.75-2.7-4.84-5.38-5.31
	c0.61-0.21,1.17-0.5,1.67-0.86c0.48,0.11,0.96,0.18,1.46,0.18c0.45,0,0.89-0.04,1.32-0.13c3.61-0.72,5.95-4.24,5.23-7.84
	c-0.54-2.73-2.73-4.8-5.4-5.26c1.39-0.47,2.58-1.38,3.41-2.62c0.98-1.49,1.33-3.27,0.98-5.01c-0.55-2.72-2.74-4.78-5.4-5.24
	c3.1-1.09,5-4.33,4.32-7.63c-0.56-2.7-2.73-4.75-5.38-5.22c3.09-1.11,4.97-4.35,4.27-7.65c-0.57-2.68-2.73-4.72-5.36-5.19
	c3.08-1.12,4.95-4.39,4.23-7.68c-0.58-2.65-2.74-4.67-5.34-5.14c3.09-1.14,4.94-4.43,4.2-7.72c-0.69-3.06-3.37-5.2-6.5-5.2
	c-0.49,0-0.99,0.06-1.48,0.17l-0.13,0.03c-0.83,0.19-1.58,0.53-2.25,0.98c-0.5-0.12-1.02-0.19-1.55-0.19
	c-0.27,0-0.54,0.02-0.89,0.06l-0.14,0.02c-0.98,0.13-1.88,0.48-2.67,0.98c-0.55-0.15-1.13-0.24-1.72-0.24
	c-0.72,0-1.43,0.12-2.1,0.34l-0.13,0.04c-0.9,0.3-1.7,0.78-2.39,1.39c-0.2-0.02-0.4-0.05-0.6-0.05c-0.71,0-1.42,0.11-2.09,0.34
	l-0.13,0.04c-1.02,0.34-1.92,0.91-2.65,1.65c-0.08,0-0.15-0.02-0.22-0.02c-0.92,0-1.82,0.19-2.68,0.56l-0.12,0.05
	c-0.86,0.37-1.6,0.92-2.22,1.58c0,0-0.01,0-0.01,0c-0.7,0-1.4,0.11-2.08,0.33l-0.13,0.04c-0.92,0.3-1.72,0.79-2.39,1.4
	c-0.2-0.02-0.4-0.05-0.61-0.05c-0.71,0-1.42,0.11-2.1,0.34l-0.13,0.04c-1,0.33-1.87,0.89-2.58,1.59c-0.11-0.01-0.21-0.02-0.32-0.02
	c-0.9,0-1.77,0.18-2.58,0.52l-0.12,0.05c-0.88,0.37-1.63,0.91-2.25,1.55c-0.04,0-0.08-0.01-0.11-0.01c-0.82,0-1.63,0.15-2.39,0.44
	l-0.13,0.05c-0.89,0.34-1.67,0.86-2.32,1.51c-0.09,0-0.19-0.02-0.28-0.02c-0.82,0-1.63,0.15-2.39,0.44l-0.13,0.05
	c-0.56,0.22-1.08,0.51-1.55,0.85c-0.4-0.07-0.81-0.11-1.23-0.11c-0.27,0-0.54,0.02-0.75,0.04l-0.14,0.02
	c-0.93,0.1-1.8,0.4-2.58,0.85c-0.63-0.2-1.3-0.31-1.99-0.31c-0.25,0-0.5,0.01-0.72,0.04l-0.14,0.01c-0.95,0.1-1.82,0.41-2.6,0.85
	c-0.63-0.2-1.3-0.31-1.99-0.31c-0.27,0-0.54,0.02-0.76,0.04l-0.13,0.02c-1.3,0.15-2.47,0.67-3.42,1.43
	c-0.32-0.05-0.64-0.08-0.97-0.08c-0.73,0-1.45,0.12-2.12,0.35l-0.13,0.04c-0.88,0.3-1.66,0.76-2.32,1.35
	c-0.22-0.02-0.44-0.06-0.66-0.06c-0.59,0-1.18,0.08-1.78,0.24l-0.13,0.04c-0.91,0.25-1.73,0.68-2.43,1.26
	c-0.31-0.04-0.63-0.08-0.95-0.08c-0.6,0-1.19,0.08-1.78,0.24l-0.13,0.04c-1.22,0.34-2.26,1-3.07,1.87c-0.02,0-0.04,0-0.06,0
	c-0.98,0-1.92,0.21-2.83,0.63l-0.12,0.06c-0.73,0.34-1.36,0.8-1.9,1.34c-0.08,0-0.15-0.02-0.23-0.02c-0.36,0-0.72,0.03-1.08,0.09
	l-0.13,0.02c-0.93,0.15-1.8,0.5-2.57,1.01c-0.52-0.13-1.06-0.22-1.62-0.22c-0.39,0-0.78,0.03-1.11,0.09l-0.13,0.02
	c-1.21,0.2-2.31,0.73-3.22,1.51c-0.26-0.03-0.53-0.06-0.79-0.06c-0.71,0-1.42,0.11-2.1,0.34l-0.13,0.04
	c-0.95,0.31-1.77,0.83-2.45,1.47c-0.17-0.01-0.33-0.04-0.5-0.04c-0.84,0-1.66,0.16-2.44,0.46l-0.13,0.05
	c-0.88,0.34-1.65,0.86-2.29,1.51c-0.09,0-0.17-0.02-0.25-0.02c-0.84,0-1.66,0.16-2.44,0.46l-0.13,0.05
	c-0.88,0.35-1.64,0.86-2.27,1.49c-0.09,0-0.19-0.02-0.28-0.02c-0.82,0-1.63,0.15-2.41,0.45l-0.13,0.05
	c-0.7,0.27-1.32,0.65-1.86,1.11c-0.27-0.03-0.54-0.06-0.82-0.06c-0.26,0-0.52,0.01-0.73,0.04l-0.14,0.01
	c-0.93,0.1-1.82,0.4-2.61,0.85c-0.63-0.2-1.3-0.31-1.99-0.31c-0.25,0-0.5,0.01-0.75,0.04l-0.14,0.02c-1.06,0.12-2.04,0.49-2.88,1.04
	c-0.53-0.14-1.08-0.23-1.66-0.23c-0.38,0-0.75,0.03-1.11,0.09l-0.13,0.02c-0.99,0.17-1.9,0.55-2.7,1.1
	c-0.47-0.11-0.95-0.18-1.45-0.18c-0.5,0-1,0.06-1.45,0.16l-0.13,0.03c-0.9,0.2-1.73,0.58-2.46,1.11c-0.43-0.09-0.87-0.13-1.32-0.13
	l-0.21,0l-0.29,0.02c-0.94,0.05-1.84,0.3-2.65,0.71c-0.73-0.27-1.51-0.43-2.33-0.43l-0.21,0l-0.29,0.02
	c-0.98,0.05-1.92,0.32-2.76,0.77c-0.69-0.25-1.44-0.39-2.21-0.39l-0.33,0l-0.37,0.03c-1.1,0.09-2.11,0.45-2.98,1
	c-0.56-0.15-1.13-0.25-1.73-0.25c-0.82,0-1.63,0.15-2.41,0.45l-0.13,0.05c-0.89,0.35-1.66,0.86-2.3,1.5c-0.1,0-0.19-0.02-0.29-0.02
	c-0.83,0-1.63,0.15-2.39,0.44l-0.13,0.05c-1.47,0.57-2.67,1.61-3.43,2.97c-1.1,0.28-2.12,0.83-2.97,1.64l-0.08,0.08
	c-0.68,0.65-1.21,1.42-1.56,2.26c-0.85,0.31-1.64,0.79-2.32,1.43l-0.1,0.09c-0.08,0.08-0.15,0.16-0.22,0.24c-0.01,0-0.02,0-0.03,0
	c-0.71,0-1.41,0.11-2.1,0.34l-0.13,0.04c-0.82,0.27-1.54,0.69-2.16,1.21c-0.29-0.04-0.57-0.08-0.87-0.08
	c-0.44,0-0.89,0.04-1.28,0.12l-0.13,0.03c-0.94,0.18-1.79,0.56-2.53,1.07c-0.47-0.11-0.95-0.18-1.45-0.18
	c-0.43,0-0.87,0.04-1.28,0.12l-0.13,0.03c-1.18,0.23-2.24,0.77-3.12,1.54c-0.23-0.02-0.46-0.06-0.7-0.06c-0.72,0-1.43,0.12-2.1,0.34
	l-0.13,0.04c-0.86,0.29-1.63,0.74-2.28,1.3c-0.24-0.03-0.49-0.06-0.73-0.06c-0.6,0-1.19,0.08-1.78,0.24l-0.13,0.04
	c-0.92,0.26-1.73,0.69-2.43,1.26c-0.31-0.05-0.63-0.08-0.95-0.08c-0.6,0-1.2,0.08-1.79,0.24l-0.13,0.04
	c-0.69,0.19-1.33,0.49-1.91,0.88c-0.51-0.12-1.03-0.21-1.58-0.21c-0.35,0-0.71,0.03-1.08,0.09l-0.13,0.02
	c-1.02,0.17-1.94,0.56-2.73,1.12c-0.47-0.11-0.95-0.18-1.44-0.18c-0.47,0-0.94,0.05-1.42,0.15l-0.13,0.03
	c-0.98,0.21-1.85,0.64-2.6,1.21c-0.38-0.07-0.77-0.11-1.17-0.11c-1.03,0-2.06,0.24-2.97,0.7l-0.12,0.06
	c-0.85,0.42-1.57,1.01-2.15,1.7c-0.92,0.05-1.82,0.27-2.64,0.68l-0.12,0.06c-0.53,0.26-1.01,0.6-1.43,0.97
	c-0.21-0.02-0.42-0.06-0.64-0.06c-0.36,0-0.72,0.03-1.09,0.09l-0.13,0.02c-0.96,0.16-1.84,0.52-2.6,1.03
	c-0.51-0.13-1.04-0.21-1.59-0.21c-0.55,0-1.09,0.07-1.62,0.2l-0.13,0.03c-0.93,0.23-1.76,0.65-2.47,1.2
	c-0.36-0.06-0.73-0.09-1.11-0.09c-0.54,0-1.09,0.07-1.64,0.2l-0.13,0.03c-0.8,0.2-1.52,0.55-2.16,0.99
	c-0.47-0.1-0.95-0.18-1.45-0.18c-0.35,0-0.7,0.03-1.08,0.09l-0.13,0.02c-0.94,0.15-1.81,0.5-2.57,1.01
	c-0.52-0.13-1.06-0.22-1.62-0.22c-0.36,0-0.72,0.03-1.09,0.09l-0.13,0.02c-0.94,0.15-1.81,0.5-2.58,1.01
	c-0.52-0.13-1.06-0.22-1.62-0.22c-0.35,0-0.71,0.03-1.09,0.09l-0.13,0.02c-1.03,0.17-1.97,0.57-2.79,1.16
	c-0.44-0.09-0.89-0.15-1.36-0.15c-0.48,0-0.95,0.05-1.45,0.16l-0.13,0.03c-0.91,0.2-1.76,0.59-2.49,1.13
	c-0.42-0.08-0.85-0.13-1.29-0.13c-0.49,0-0.98,0.05-1.45,0.16l-0.13,0.03c-0.92,0.2-1.76,0.59-2.5,1.13
	c-0.42-0.08-0.85-0.14-1.29-0.14c-0.47,0-0.95,0.05-1.42,0.15l-0.13,0.03c-0.65,0.14-1.25,0.38-1.81,0.69
	c-0.66-0.21-1.36-0.34-2.09-0.34l-0.32,0l-0.37,0.03c-1.09,0.09-2.09,0.44-2.96,0.99c-0.57-0.16-1.16-0.27-1.78-0.27
	c-0.42,0-0.84,0.04-1.26,0.12l-0.13,0.03c-0.94,0.18-1.8,0.55-2.56,1.08c-0.47-0.11-0.94-0.18-1.44-0.18
	c-0.48,0-0.95,0.05-1.42,0.15l-0.13,0.03c-0.94,0.2-1.78,0.6-2.51,1.13c-0.42-0.08-0.85-0.13-1.29-0.13c-0.49,0-0.98,0.05-1.45,0.16
	l-0.13,0.03c-0.92,0.2-1.76,0.59-2.49,1.13c-0.42-0.08-0.85-0.13-1.29-0.13c-0.47,0-0.95,0.05-1.45,0.16l-0.13,0.03
	c-0.95,0.21-1.81,0.62-2.56,1.19c-0.39-0.07-0.79-0.11-1.19-0.11c-0.67,0-1.33,0.1-1.95,0.29l-0.13,0.04
	c-0.92,0.28-1.73,0.75-2.41,1.34c-0.25-0.03-0.5-0.06-0.75-0.06c-0.66,0-1.31,0.1-1.96,0.29l-0.13,0.04
	c-0.69,0.21-1.32,0.53-1.87,0.92c-0.46-0.1-0.93-0.16-1.41-0.16c-0.36,0-0.72,0.03-1.07,0.09l-0.15,0.03
	c-1.02,0.17-1.94,0.57-2.74,1.13c-0.46-0.1-0.93-0.17-1.42-0.17c-0.6,0-1.2,0.08-1.77,0.24l-0.13,0.04
	c-0.93,0.25-1.75,0.69-2.45,1.27c-0.31-0.05-0.63-0.08-0.95-0.08c-0.6,0-1.19,0.08-1.78,0.24l-0.13,0.04
	c-0.71,0.2-1.36,0.51-1.95,0.9c-0.49-0.12-1-0.2-1.53-0.2c-0.38,0-0.76,0.03-1.11,0.09l-0.13,0.02c-0.81,0.14-1.57,0.42-2.27,0.82
	c-0.61-0.19-1.26-0.29-1.94-0.29l-0.22,0l-0.31,0.02c-0.95,0.06-1.83,0.31-2.63,0.71c-0.73-0.27-1.52-0.43-2.34-0.43l-0.21,0
	l-0.3,0.02c-0.95,0.06-1.83,0.31-2.63,0.71c-0.73-0.27-1.51-0.43-2.34-0.43l-0.2,0l-0.29,0.02c-1.1,0.06-2.15,0.38-3.07,0.94
	c-0.6-0.17-1.22-0.29-1.87-0.29c-0.38,0-0.75,0.03-1.07,0.09l-0.15,0.03c-1.1,0.18-2.08,0.63-2.92,1.25
	c-0.38-0.07-0.76-0.11-1.14-0.11c-1.22,0-2.42,0.34-3.47,0.98l-0.12,0.07c-0.81,0.49-1.47,1.13-1.98,1.86
	c-0.91,0.12-1.79,0.43-2.59,0.92l-0.12,0.07c-0.64,0.39-1.18,0.87-1.64,1.42c-0.76,0.04-1.51,0.2-2.22,0.49l-0.12,0.05
	c-0.88,0.36-1.63,0.9-2.25,1.54c-0.05,0-0.1-0.01-0.14-0.01c-0.36,0-0.72,0.03-1.09,0.09l-0.13,0.02c-0.95,0.16-1.82,0.52-2.58,1.02
	c-0.52-0.13-1.05-0.22-1.61-0.22c-0.36,0-0.72,0.03-1.08,0.09l-0.13,0.02c-1.16,0.19-2.21,0.68-3.07,1.37
	c-0.33-0.05-0.66-0.08-1.01-0.08c-0.71,0-1.4,0.11-2.1,0.34l-0.13,0.04c-0.46,0.15-0.89,0.36-1.3,0.59l-5.78-3.35l-7.78-4.3
	l-7.07-4.09l-7.15-6.6c-0.53-0.49-1.13-0.88-1.8-1.16l-6.85-2.83l-7.45-6.37l-7.89-4.57l-7.61-5.53l-7.45-4.52l-7.36-6.5
	c-0.73-0.65-1.62-1.11-2.54-1.33l-6.23-1.55l-6.48-5.98c-0.52-0.48-1.11-0.86-1.8-1.15l-7.05-2.91l-7.19-5.16
	c-0.54-0.39-1.13-0.68-1.78-0.88l-7.74-2.35l-7.41-2.04l-7.68-3.43l-8.09-2.23c-0.54-0.15-1.1-0.23-1.67-0.23l-7.12,0.01l-7.45-1.44
	l-8.21-0.92l-15.34,0l-7.78-1.07l-7.76,0l-7.58-0.85l-7.19-0.19l-7.03-1.94c-0.53-0.15-1.09-0.23-1.64-0.23
	c-2.71,0-5.11,1.83-5.82,4.43c-0.28,1.01-0.29,2.06-0.05,3.05c-0.24,1.04-0.21,2.11,0.1,3.12c-0.02,0.07-0.04,0.14-0.06,0.21
	c-0.32,1.22-0.26,2.47,0.16,3.63c-0.07,0.19-0.13,0.39-0.19,0.59c-0.35,1.36-0.22,2.74,0.31,3.93c-0.14,0.31-0.25,0.63-0.34,0.96
	c-0.37,1.44-0.2,2.93,0.47,4.24c-0.21,0.41-0.38,0.85-0.5,1.31c-0.4,1.6-0.12,3.22,0.66,4.54c-0.3,0.51-0.54,1.06-0.69,1.66
	c-0.42,1.73-0.05,3.47,0.88,4.84c-0.4,0.59-0.71,1.27-0.88,2c-0.45,1.87,0.03,3.74,1.14,5.15c-0.52,0.67-0.91,1.44-1.12,2.3
	c-0.37,1.57-0.11,3.2,0.74,4.57c0.19,0.31,0.42,0.59,0.66,0.86c-0.64,0.73-1.12,1.62-1.35,2.63c-0.37,1.57-0.1,3.2,0.76,4.57
	c0.27,0.43,0.6,0.81,0.96,1.15c-0.79,0.79-1.38,1.79-1.65,2.94c-0.36,1.58-0.08,3.2,0.78,4.56c0.35,0.56,0.8,1.02,1.29,1.43
	c-0.95,0.82-1.66,1.94-1.95,3.26c-0.55,2.47,0.5,4.92,2.46,6.28c-1.13,0.85-1.98,2.08-2.3,3.54c-0.57,2.64,0.68,5.26,2.92,6.53
	c-1.34,0.85-2.36,2.21-2.7,3.84c-0.33,1.58-0.04,3.19,0.84,4.54c0.65,1,1.55,1.76,2.62,2.23c-1.6,0.82-2.81,2.31-3.18,4.14
	c-0.33,1.58-0.02,3.19,0.86,4.54c0.78,1.2,1.95,2.03,3.3,2.44c-1.91,0.71-3.4,2.37-3.83,4.47c-0.66,3.26,1.46,6.45,4.73,7.12
	l0.45,0.09c-0.91,0.18-1.74,0.57-2.47,1.11c-1.14,0.35-2.17,1-2.98,1.91c-1.19,1.33-1.79,3.03-1.69,4.81c0.1,1.8,0.9,3.39,2.13,4.53
	c-0.1,0.1-0.2,0.19-0.3,0.3c-1.19,1.33-1.79,3.03-1.69,4.81c0.1,1.8,0.9,3.4,2.13,4.53c-0.09,0.09-0.19,0.18-0.28,0.28
	c-1.2,1.32-1.8,3.03-1.71,4.81c0.09,1.81,0.9,3.42,2.13,4.56c-0.09,0.09-0.19,0.18-0.28,0.28c-1.2,1.32-1.8,3.03-1.71,4.81
	c0.09,1.81,0.9,3.42,2.13,4.56c-0.09,0.09-0.19,0.18-0.28,0.28c-1.2,1.32-1.8,3.03-1.71,4.81c0.09,1.81,0.9,3.42,2.13,4.56
	c-0.09,0.09-0.18,0.17-0.26,0.26c-1.2,1.32-1.81,3.02-1.73,4.8c0.09,1.82,0.89,3.43,2.13,4.58c-0.09,0.09-0.18,0.17-0.26,0.26
	c-1.2,1.32-1.81,3.02-1.73,4.8c0.09,1.82,0.89,3.43,2.13,4.58c-0.08,0.08-0.17,0.16-0.24,0.24c-1.2,1.31-1.82,3.02-1.75,4.8
	c0.08,1.83,0.89,3.46,2.14,4.61c-1.3,1.28-2.08,3.08-1.99,5.04c0.08,1.83,0.89,3.45,2.14,4.61c-1.3,1.28-2.08,3.08-1.99,5.04
	c0.08,1.83,0.89,3.45,2.14,4.61c-1.3,1.28-2.08,3.08-1.99,5.04c0.08,1.83,0.89,3.45,2.13,4.61c-0.07,0.07-0.14,0.13-0.21,0.21
	c-1.21,1.3-1.85,3-1.78,4.78c0.07,1.85,0.88,3.5,2.13,4.66c-0.07,0.07-0.14,0.13-0.21,0.2c-1.21,1.3-1.85,3-1.78,4.78
	c0.07,1.85,0.88,3.49,2.13,4.66c-0.07,0.07-0.14,0.13-0.21,0.2c-1.21,1.3-1.85,3-1.78,4.78c0.07,1.85,0.88,3.5,2.13,4.66
	c-0.07,0.07-0.14,0.13-0.21,0.2c-1.21,1.3-1.85,3-1.78,4.78c0.07,1.85,0.88,3.49,2.13,4.66c-0.07,0.07-0.14,0.13-0.21,0.2
	c-1.21,1.3-1.85,3-1.78,4.78c0.07,1.85,0.88,3.5,2.14,4.66c-1.27,1.26-2.05,3.01-1.99,4.94c0.05,1.88,0.87,3.54,2.13,4.71
	c-1.27,1.26-2.05,3.01-1.99,4.93c0.05,1.88,0.87,3.54,2.14,4.71c-1.27,1.26-2.05,3.01-1.99,4.93c0.05,1.88,0.87,3.54,2.13,4.71
	c-1.27,1.26-2.05,3.01-1.99,4.93c0.05,1.88,0.87,3.54,2.14,4.71c-1.27,1.26-2.05,3.01-1.99,4.93c0.05,1.88,0.87,3.54,2.14,4.71
	c-1.26,1.24-2.03,2.98-1.99,4.89c0.04,1.87,0.87,3.55,2.16,4.74c-1.27,1.25-2.06,2.99-2.01,4.91c0.04,1.87,0.87,3.55,2.16,4.74
	c-1.27,1.25-2.05,2.99-2.01,4.91c0.04,1.87,0.87,3.55,2.16,4.73c-1.27,1.25-2.06,2.99-2.01,4.91c0.04,1.87,0.87,3.55,2.16,4.74
	c-1.27,1.25-2.05,2.99-2.01,4.91c0.04,1.87,0.87,3.55,2.16,4.74c-1.27,1.25-2.06,2.99-2.01,4.91c0.04,1.86,0.87,3.54,2.15,4.73
	c-0.04,0.04-0.09,0.08-0.13,0.12c-1.24,1.28-1.91,2.96-1.88,4.74c0.03,1.89,0.86,3.59,2.15,4.79c-0.04,0.04-0.08,0.08-0.12,0.12
	c-1.24,1.28-1.91,2.96-1.88,4.74c0.03,1.89,0.86,3.59,2.15,4.79c-0.04,0.04-0.08,0.07-0.12,0.12c-1.24,1.28-1.91,2.96-1.88,4.74
	c0.03,1.89,0.86,3.59,2.15,4.79c-0.04,0.04-0.08,0.08-0.12,0.12c-1.24,1.28-1.91,2.96-1.88,4.74c0.03,1.89,0.86,3.59,2.15,4.79
	c-0.04,0.04-0.08,0.07-0.12,0.12c-1.24,1.28-1.91,2.96-1.88,4.74c0.03,1.89,0.86,3.59,2.15,4.79c-0.04,0.04-0.08,0.08-0.12,0.12
	c-1.24,1.28-1.91,2.96-1.88,4.74c0.03,1.89,0.86,3.59,2.15,4.79c-0.03,0.03-0.06,0.05-0.09,0.08c-1.25,1.27-1.93,2.95-1.92,4.73
	c0.01,1.91,0.84,3.63,2.15,4.84c-0.03,0.03-0.06,0.05-0.09,0.08c-1.25,1.27-1.93,2.95-1.92,4.73c0.01,1.75,0.71,3.35,1.84,4.53
	c0.01,0.19,0.03,0.38,0.06,0.57c-1.14,1.24-1.76,2.85-1.75,4.54c0.01,1.91,0.84,3.63,2.15,4.84c-0.03,0.03-0.06,0.05-0.09,0.08
	c-1.25,1.27-1.93,2.95-1.92,4.73c0.01,1.66,0.63,3.17,1.65,4.33c-0.12,0.43-0.19,0.87-0.21,1.33c-0.85,1.15-1.31,2.53-1.3,3.99
	c0.01,1.55,0.56,2.97,1.46,4.1c0.1,0.36,0.22,0.72,0.38,1.06c-1.11,1.24-1.71,2.82-1.7,4.49c0.01,1.31,0.4,2.53,1.07,3.56
	c-0.01,0.1-0.01,0.21-0.02,0.32c-0.01,0.66,0.08,1.31,0.27,1.93c-0.75,1.08-1.18,2.38-1.18,3.79c0,1.21,0.32,2.35,0.89,3.33
	c0,0.07-0.01,0.14-0.01,0.21c-0.01,0.7,0.1,1.37,0.31,2c-0.1,0.29-0.17,0.58-0.22,0.88c-0.53,0.96-0.83,2.05-0.83,3.22
	c0,1.15,0.29,2.23,0.81,3.18c-0.02,0.22-0.04,0.44-0.04,0.67c0,0.78,0.15,1.53,0.43,2.21c-0.66,1.04-1.05,2.26-1.05,3.58
	c0,3.68,2.99,6.67,6.67,6.67h0.13c0.95,0,1.86-0.2,2.68-0.57c0.82,0.36,1.72,0.57,2.68,0.57h0.14c0.95,0,1.86-0.2,2.68-0.57
	c0.82,0.36,1.72,0.57,2.68,0.57h0.14c0.95,0,1.86-0.2,2.68-0.57c0.82,0.36,1.72,0.57,2.68,0.57h0.14c0.95,0,1.86-0.2,2.68-0.57
	c0.82,0.36,1.72,0.57,2.68,0.57h0.14c0.95,0,1.86-0.2,2.68-0.57c0.82,0.36,1.72,0.57,2.68,0.57h0.14c0.95,0,1.86-0.2,2.68-0.57
	c0.82,0.36,1.72,0.57,2.68,0.57h0.14c0.95,0,1.86-0.2,2.68-0.57c0.82,0.36,1.72,0.57,2.68,0.57h0.14c0.95,0,1.86-0.2,2.68-0.57
	c0.82,0.36,1.72,0.57,2.68,0.57h0.14c0.95,0,1.86-0.2,2.68-0.57c0.82,0.36,1.72,0.57,2.68,0.57h0.14c0.95,0,1.86-0.2,2.68-0.57
	c0.82,0.36,1.72,0.57,2.68,0.57h0.14c0.95,0,1.86-0.2,2.68-0.57c0.82,0.36,1.72,0.57,2.68,0.57h0.14c0.95,0,1.86-0.2,2.68-0.57
	c0.82,0.36,1.72,0.57,2.68,0.57h0.14c0.95,0,1.86-0.2,2.68-0.57c0.82,0.36,1.72,0.57,2.68,0.57h0.14c0.95,0,1.86-0.2,2.68-0.57
	c0.82,0.36,1.72,0.57,2.68,0.57h0.14c0.95,0,1.86-0.2,2.68-0.57c0.82,0.36,1.72,0.57,2.68,0.57h0.14c0.95,0,1.86-0.2,2.68-0.57
	c0.82,0.36,1.72,0.57,2.68,0.57h0.14c0.95,0,1.86-0.2,2.68-0.57c0.82,0.36,1.72,0.57,2.68,0.57h0.14c0.95,0,1.86-0.2,2.68-0.57
	c0.82,0.36,1.72,0.57,2.68,0.57h0.14c0.95,0,1.86-0.2,2.68-0.57c0.82,0.36,1.72,0.57,2.68,0.57h0.14c0.95,0,1.86-0.2,2.68-0.57
	c0.82,0.36,1.72,0.57,2.68,0.57h0.13c0.95,0,1.86-0.2,2.68-0.57c0.82,0.36,1.72,0.57,2.68,0.57h0.13c0.95,0,1.86-0.2,2.68-0.57
	c0.82,0.36,1.72,0.57,2.68,0.57h0.13c0.95,0,1.86-0.2,2.68-0.57c0.82,0.36,1.72,0.57,2.68,0.57h0.13c0.95,0,1.86-0.2,2.68-0.57
	c0.82,0.36,1.72,0.57,2.68,0.57h0.13c0.95,0,1.86-0.2,2.68-0.57c0.82,0.36,1.72,0.57,2.68,0.57h0.13c0.95,0,1.86-0.2,2.68-0.57
	c0.82,0.36,1.72,0.57,2.68,0.57h0.13c0.95,0,1.86-0.2,2.68-0.57c0.82,0.36,1.72,0.57,2.68,0.57h0.13c0.95,0,1.86-0.2,2.68-0.57
	c0.82,0.36,1.72,0.57,2.68,0.57h0.13c0.95,0,1.86-0.2,2.68-0.57c0.82,0.36,1.72,0.57,2.68,0.57h0.13c0.95,0,1.86-0.2,2.68-0.57
	c0.82,0.36,1.72,0.57,2.68,0.57h0.13c0.95,0,1.86-0.2,2.68-0.57c0.82,0.36,1.72,0.57,2.68,0.57h0.13c0.95,0,1.86-0.2,2.68-0.57
	c0.82,0.36,1.72,0.57,2.68,0.57h0.13c0.95,0,1.86-0.2,2.68-0.57c0.82,0.36,1.72,0.57,2.68,0.57h0.13c0.95,0,1.86-0.2,2.68-0.57
	c0.82,0.36,1.72,0.57,2.68,0.57h0.13c0.95,0,1.86-0.2,2.68-0.57c0.82,0.36,1.72,0.57,2.68,0.57h0.13c0.95,0,1.86-0.2,2.68-0.57
	c0.82,0.36,1.72,0.57,2.68,0.57h0.13c0.95,0,1.86-0.2,2.68-0.57c0.82,0.36,1.72,0.57,2.68,0.57h0.13c0.95,0,1.86-0.2,2.68-0.57
	c0.82,0.36,1.72,0.57,2.68,0.57h0.13c0.95,0,1.86-0.2,2.68-0.57c0.82,0.36,1.72,0.57,2.68,0.57h0.13c0.95,0,1.86-0.2,2.68-0.57
	c0.82,0.36,1.72,0.57,2.68,0.57h0.13c0.95,0,1.86-0.2,2.68-0.57c0.82,0.36,1.72,0.57,2.68,0.57h0.13c0.95,0,1.86-0.2,2.68-0.57
	c0.82,0.36,1.72,0.57,2.68,0.57h0.13c0.95,0,1.86-0.2,2.68-0.57c0.82,0.36,1.72,0.57,2.68,0.57h0.13c0.95,0,1.86-0.2,2.68-0.57
	c0.82,0.36,1.72,0.57,2.68,0.57h0.13c0.95,0,1.86-0.2,2.68-0.57c0.82,0.36,1.72,0.57,2.68,0.57h0.13c0.95,0,1.86-0.2,2.68-0.57
	c0.82,0.36,1.72,0.57,2.68,0.57h0.13c0.95,0,1.86-0.2,2.68-0.57c0.82,0.36,1.72,0.57,2.68,0.57h0.14c0.95,0,1.86-0.2,2.68-0.57
	c0.82,0.36,1.72,0.57,2.68,0.57h0.13c0.95,0,1.86-0.2,2.68-0.57c0.82,0.36,1.72,0.57,2.68,0.57h0.14c0.95,0,1.86-0.2,2.68-0.57
	c0.82,0.36,1.72,0.57,2.68,0.57h0.13c0.95,0,1.86-0.2,2.68-0.57c0.82,0.36,1.72,0.57,2.68,0.57h0.14c0.95,0,1.86-0.2,2.68-0.57
	c0.82,0.36,1.72,0.57,2.68,0.57h0.13c0.95,0,1.86-0.2,2.68-0.57c0.82,0.36,1.72,0.57,2.68,0.57h0.14c0.95,0,1.86-0.2,2.68-0.57
	c0.82,0.36,1.72,0.57,2.68,0.57h0.14c0.95,0,1.86-0.2,2.68-0.57c0.82,0.36,1.72,0.57,2.68,0.57h0.14c0.95,0,1.86-0.2,2.68-0.57
	c0.82,0.36,1.72,0.57,2.68,0.57h0.13c0.95,0,1.86-0.2,2.68-0.57c0.82,0.36,1.72,0.57,2.68,0.57h0.14c0.95,0,1.86-0.2,2.68-0.57
	c0.82,0.36,1.72,0.57,2.68,0.57h0.13c0.95,0,1.86-0.2,2.68-0.57c0.82,0.36,1.72,0.57,2.68,0.57h0.13c0.95,0,1.86-0.2,2.68-0.57
	c0.82,0.36,1.72,0.57,2.68,0.57h0.13c0.95,0,1.86-0.2,2.68-0.57c0.82,0.36,1.72,0.57,2.68,0.57h0.13c0.95,0,1.86-0.2,2.68-0.57
	c0.82,0.36,1.72,0.57,2.68,0.57h0.13c0.95,0,1.86-0.2,2.68-0.57c0.82,0.36,1.72,0.57,2.68,0.57h0.13c0.95,0,1.86-0.2,2.68-0.57
	c0.82,0.36,1.72,0.57,2.68,0.57h0.13c0.95,0,1.86-0.2,2.68-0.57c0.82,0.36,1.72,0.57,2.68,0.57h0.13c0.95,0,1.86-0.2,2.68-0.57
	c0.82,0.36,1.72,0.57,2.68,0.57h0.13c0.95,0,1.86-0.2,2.68-0.57c0.82,0.36,1.72,0.57,2.68,0.57h0.13c0.95,0,1.86-0.2,2.68-0.57
	c0.82,0.36,1.72,0.57,2.68,0.57h0.13c0.95,0,1.86-0.2,2.68-0.57c0.82,0.36,1.72,0.57,2.68,0.57h0.13c0.95,0,1.86-0.2,2.68-0.57
	c0.82,0.36,1.72,0.57,2.68,0.57h0.13c0.95,0,1.86-0.2,2.68-0.57c0.82,0.36,1.72,0.57,2.68,0.57h0.13c0.95,0,1.86-0.2,2.68-0.57
	c0.82,0.36,1.72,0.57,2.68,0.57h0.13c0.95,0,1.86-0.2,2.68-0.57c0.82,0.36,1.72,0.57,2.68,0.57h0.13c0.95,0,1.86-0.2,2.68-0.57
	c0.82,0.36,1.72,0.57,2.68,0.57h0.13c0.95,0,1.86-0.2,2.68-0.57c0.82,0.36,1.72,0.57,2.68,0.57h0.13c0.95,0,1.86-0.2,2.68-0.57
	c0.82,0.36,1.72,0.57,2.68,0.57h0.13c0.95,0,1.86-0.2,2.68-0.57c0.82,0.36,1.72,0.57,2.68,0.57h0.14c0.95,0,1.86-0.2,2.68-0.57
	c0.82,0.36,1.72,0.57,2.68,0.57h0.14c0.95,0,1.86-0.2,2.68-0.57c0.82,0.36,1.72,0.57,2.68,0.57h0.14c0.95,0,1.86-0.2,2.68-0.57
	c0.82,0.36,1.72,0.57,2.68,0.57h0.14c0.95,0,1.86-0.2,2.68-0.57c0.82,0.36,1.72,0.57,2.68,0.57h0.14c0.95,0,1.86-0.2,2.68-0.57
	c0.82,0.36,1.72,0.57,2.68,0.57h0.14c0.95,0,1.86-0.2,2.68-0.57c0.82,0.36,1.72,0.57,2.68,0.57h0.14c0.95,0,1.86-0.2,2.68-0.57
	c0.82,0.36,1.72,0.57,2.68,0.57h0.14c0.95,0,1.86-0.2,2.68-0.57c0.82,0.36,1.72,0.57,2.68,0.57h0.14c0.95,0,1.86-0.2,2.68-0.57
	c0.82,0.36,1.72,0.57,2.68,0.57h0.14c0.95,0,1.86-0.2,2.68-0.57c0.82,0.36,1.72,0.57,2.68,0.57h0.14c0.95,0,1.86-0.2,2.68-0.57
	c0.82,0.36,1.72,0.57,2.68,0.57h0.14c0.95,0,1.86-0.2,2.68-0.57c0.82,0.36,1.72,0.57,2.68,0.57h0.14c0.95,0,1.86-0.2,2.68-0.57
	c0.82,0.36,1.72,0.57,2.68,0.57h0.14c0.95,0,1.86-0.2,2.68-0.57c0.82,0.36,1.72,0.57,2.68,0.57h0.14c0.95,0,1.86-0.2,2.68-0.57
	c0.82,0.36,1.72,0.57,2.68,0.57h0.14c0.95,0,1.86-0.2,2.68-0.57c0.82,0.36,1.72,0.57,2.68,0.57h0.13c0.95,0,1.86-0.2,2.68-0.57
	c0.82,0.36,1.72,0.57,2.68,0.57h0.14c0.95,0,1.86-0.2,2.68-0.57c0.82,0.36,1.72,0.57,2.68,0.57h0.13c0.95,0,1.86-0.2,2.68-0.57
	c0.82,0.36,1.72,0.57,2.68,0.57h0.14c0.95,0,1.86-0.2,2.68-0.57c0.82,0.36,1.72,0.57,2.68,0.57h0.13c0.95,0,1.86-0.2,2.68-0.57
	c0.82,0.36,1.72,0.57,2.68,0.57h0.13c0.95,0,1.86-0.2,2.68-0.57c0.82,0.36,1.72,0.57,2.68,0.57h0.13c0.95,0,1.86-0.2,2.68-0.57
	c0.82,0.36,1.72,0.57,2.68,0.57h0.13c0.95,0,1.86-0.2,2.68-0.57c0.82,0.36,1.72,0.57,2.68,0.57h0.13c0.95,0,1.86-0.2,2.68-0.57
	c0.82,0.36,1.72,0.57,2.68,0.57h0.13c0.95,0,1.86-0.2,2.68-0.57c0.82,0.36,1.72,0.57,2.68,0.57h0.13c0.95,0,1.86-0.2,2.68-0.57
	c0.82,0.36,1.72,0.57,2.68,0.57h0.13c0.95,0,1.86-0.2,2.68-0.57c0.82,0.36,1.72,0.57,2.68,0.57h0.13c0.95,0,1.86-0.2,2.68-0.57
	c0.82,0.36,1.72,0.57,2.68,0.57h0.13c0.95,0,1.86-0.2,2.68-0.57c0.82,0.36,1.72,0.57,2.68,0.57h0.13c0.95,0,1.86-0.2,2.68-0.56
	c0.82,0.36,1.73,0.56,2.68,0.56h0.13c0.95,0,1.86-0.2,2.68-0.56c0.82,0.36,1.73,0.56,2.68,0.56h0.13c0.95,0,1.86-0.2,2.68-0.56
	c0.82,0.36,1.73,0.56,2.68,0.56h0.13c1.37,0,2.64-0.41,3.7-1.12c2.41-0.57,4.3-2.59,4.62-5.1c0.05-0.23,0.08-0.46,0.1-0.69
	c0.01-0.14,0.02-0.28,0.02-0.42c0.02-0.12,0.04-0.24,0.05-0.37c0.03-0.3,0.04-0.59,0.02-0.88c0.02-0.11,0.04-0.22,0.05-0.34
	c0.05-0.42,0.05-0.84,0.01-1.25c0.02-0.12,0.04-0.25,0.06-0.38c0.07-0.54,0.04-1.07-0.03-1.59c0.03-0.14,0.08-0.28,0.1-0.43
	c0.09-0.65,0.07-1.3-0.04-1.93c0.04-0.15,0.09-0.3,0.12-0.46c0.12-0.75,0.09-1.49-0.07-2.2c0.05-0.18,0.11-0.35,0.14-0.54
	c0.14-0.84,0.11-1.67-0.09-2.47c0.06-0.2,0.13-0.38,0.17-0.59c0.17-0.92,0.12-1.84-0.12-2.72c0.07-0.22,0.15-0.43,0.19-0.66
	c0.2-1.01,0.14-2.02-0.15-2.94c0.08-0.23,0.17-0.46,0.22-0.71c0.23-1.07,0.16-2.15-0.17-3.16c0.09-0.24,0.18-0.49,0.24-0.74
	c0.27-1.14,0.19-2.31-0.2-3.39c0.1-0.25,0.19-0.51,0.26-0.78c0.3-1.21,0.21-2.45-0.22-3.58c0.11-0.26,0.21-0.52,0.28-0.79
	c0.34-1.3,0.22-2.61-0.25-3.77c0.12-0.27,0.22-0.54,0.3-0.82c0.37-1.36,0.24-2.73-0.27-3.93c0.12-0.26,0.23-0.53,0.31-0.81
	c0.4-1.38,0.3-2.82-0.28-4.12c0.12-0.26,0.23-0.52,0.32-0.8c0.43-1.42,0.32-2.92-0.29-4.26c0.12-0.25,0.23-0.51,0.32-0.79
	c0.48-1.51,0.32-3.07-0.31-4.4c0.12-0.25,0.24-0.5,0.33-0.76c0.52-1.55,0.36-3.17-0.31-4.54c0.11-0.23,0.22-0.46,0.31-0.7
	c0.56-1.6,0.4-3.28-0.3-4.68c0.11-0.21,0.21-0.42,0.3-0.65c0.59-1.63,0.43-3.35-0.29-4.79c0.1-0.19,0.2-0.39,0.28-0.59
	C2320.71,570.42,2320.55,568.65,2319.8,567.19z M2301.57,157.89c-0.44,0.16-0.86,0.36-1.25,0.6c-0.23-0.06-0.47-0.11-0.7-0.15
	c0.46-0.16,0.9-0.37,1.31-0.62C2301.14,157.78,2301.35,157.85,2301.57,157.89z M2300.14,223.69c-0.28-0.09-0.57-0.16-0.87-0.21
	c0.44-0.14,0.87-0.34,1.27-0.57c0.29,0.09,0.58,0.16,0.88,0.21C2300.97,223.27,2300.54,223.46,2300.14,223.69z M2301.73,327.71
	c-0.31-0.1-0.63-0.18-0.96-0.24c0.46-0.14,0.89-0.33,1.3-0.56c0.31,0.11,0.63,0.2,0.96,0.26
	C2302.57,327.3,2302.14,327.48,2301.73,327.71z M2300.5,379.47c-0.47,0.13-0.91,0.32-1.33,0.55c-0.28-0.09-0.56-0.17-0.85-0.23
	c0.45-0.14,0.87-0.32,1.28-0.55C2299.89,379.34,2300.19,379.42,2300.5,379.47z M2295.86,172.22c-0.1-0.03-0.2-0.05-0.3-0.08
	c0.49-0.19,0.95-0.43,1.37-0.71c0.13,0.03,0.26,0.06,0.39,0.08C2296.79,171.69,2296.31,171.93,2295.86,172.22z M2296.35,250.26
	c-0.13-0.03-0.25-0.07-0.38-0.1c0.5-0.18,0.97-0.42,1.4-0.7c0.16,0.04,0.32,0.07,0.49,0.1
	C2297.32,249.73,2296.82,249.96,2296.35,250.26z M2294.9,379.98c-0.62,0.19-1.19,0.46-1.71,0.81c-0.07-0.02-0.14-0.04-0.21-0.06
	c0.6-0.19,1.17-0.47,1.68-0.82C2294.75,379.94,2294.82,379.97,2294.9,379.98z M2292.71,341.37
	C2292.71,341.37,2292.71,341.37,2292.71,341.37c0,0-0.01,0.01-0.01,0.01C2292.7,341.38,2292.71,341.37,2292.71,341.37z M2295,288.88
	C2295,288.88,2295,288.89,2295,288.88c0,0,0,0.01-0.01,0.01C2294.99,288.89,2294.99,288.89,2295,288.88z M2295.94,223.74
	c-0.11,0.04-0.22,0.08-0.32,0.12c0.07-0.05,0.13-0.09,0.2-0.14C2295.85,223.73,2295.9,223.73,2295.94,223.74z M2293.62,393.6
	c0.6-0.19,1.16-0.46,1.67-0.8c0.09,0.02,0.18,0.06,0.28,0.08c-0.6,0.18-1.17,0.45-1.7,0.79
	C2293.79,393.65,2293.71,393.62,2293.62,393.6z M2292.33,367.89c0.17-0.05,0.34-0.11,0.5-0.18c-0.12,0.07-0.24,0.14-0.35,0.22
	C2292.42,367.91,2292.38,367.9,2292.33,367.89z M2294.02,367.05c0.06,0.01,0.11,0.03,0.17,0.05c-0.2,0.06-0.39,0.13-0.58,0.21
	C2293.75,367.23,2293.89,367.14,2294.02,367.05z M2291.67,355.06c0.05-0.02,0.1-0.03,0.15-0.05c-0.03,0.02-0.06,0.04-0.09,0.06
	C2291.71,355.07,2291.69,355.07,2291.67,355.06z M2293.36,354.2c0.03,0.01,0.07,0.02,0.1,0.03c-0.1,0.03-0.19,0.06-0.29,0.1
	C2293.24,354.29,2293.3,354.24,2293.36,354.2z M2295.53,328.31c0.55-0.18,1.07-0.44,1.54-0.75c0.15,0.04,0.31,0.07,0.46,0.1
	c-0.58,0.18-1.12,0.43-1.62,0.75C2295.78,328.38,2295.66,328.34,2295.53,328.31z M2294.77,315.47c0.59-0.2,1.13-0.48,1.62-0.81
	c0.11,0.02,0.22,0.05,0.33,0.07c-0.62,0.19-1.19,0.46-1.71,0.81C2294.93,315.52,2294.86,315.49,2294.77,315.47z M2294,302.65
	c0.12-0.04,0.23-0.09,0.35-0.14c-0.08,0.05-0.17,0.11-0.25,0.16C2294.07,302.67,2294.04,302.66,2294,302.65z M2295.72,301.76
	c0.06,0.01,0.12,0.02,0.18,0.03c-0.18,0.05-0.35,0.12-0.52,0.18C2295.5,301.91,2295.61,301.84,2295.72,301.76z M2294.17,224.61
	c0.01-0.01,0.03-0.01,0.05-0.02c-0.01,0.01-0.02,0.01-0.03,0.02C2294.19,224.61,2294.18,224.61,2294.17,224.61z M2294.56,159.42
	c0.08-0.03,0.17-0.06,0.25-0.1c-0.06,0.04-0.12,0.08-0.18,0.12C2294.61,159.44,2294.58,159.43,2294.56,159.42z M2295.66,405.83
	c0.08-0.05,0.15-0.09,0.23-0.14c0.13,0.03,0.25,0.08,0.38,0.1c-0.16,0.05-0.32,0.1-0.48,0.16L2295.66,405.83z M2296.26,341.16
	c0.52-0.17,1-0.4,1.45-0.68c0.2,0.05,0.39,0.1,0.6,0.13c-0.54,0.16-1.06,0.39-1.54,0.69
	C2296.6,341.25,2296.43,341.19,2296.26,341.16z M2295.08,237.38c0.55-0.2,1.05-0.47,1.52-0.79c0.1,0.02,0.21,0.04,0.31,0.06
	c-0.58,0.19-1.12,0.46-1.62,0.79C2295.22,237.41,2295.15,237.39,2295.08,237.38z M2295.72,158.83c0.12-0.07,0.23-0.15,0.34-0.23
	c0.06,0.01,0.12,0.02,0.18,0.03C2296.06,158.69,2295.89,158.76,2295.72,158.83z M2298.96,392.69c0.43-0.13,0.84-0.3,1.23-0.51
	c0.32,0.11,0.65,0.2,0.99,0.26c-0.44,0.13-0.87,0.3-1.27,0.51C2299.6,392.84,2299.28,392.76,2298.96,392.69z M2296.97,354.02
	c0.49-0.16,0.96-0.37,1.39-0.63c0.23,0.07,0.47,0.12,0.71,0.16c-0.52,0.15-1.01,0.37-1.46,0.64
	C2297.39,354.13,2297.18,354.07,2296.97,354.02z M2299.99,314.52c0.44-0.14,0.86-0.32,1.25-0.53c0.32,0.11,0.65,0.19,1,0.25
	c-0.44,0.13-0.87,0.32-1.26,0.54C2300.65,314.66,2300.33,314.58,2299.99,314.52z M2299.17,301.58c0.44-0.14,0.86-0.32,1.25-0.54
	c0.32,0.1,0.64,0.18,0.97,0.24c-0.45,0.14-0.87,0.32-1.27,0.54C2299.82,301.72,2299.5,301.64,2299.17,301.58z M2298.36,288.65
	c0.44-0.14,0.86-0.32,1.25-0.54c0.3,0.1,0.62,0.18,0.94,0.23c-0.45,0.14-0.87,0.32-1.26,0.54
	C2298.98,288.79,2298.68,288.71,2298.36,288.65z M2298.39,275.96c-0.23-0.08-0.47-0.14-0.72-0.19c0.42-0.15,0.82-0.33,1.19-0.55
	c0.26,0.08,0.53,0.14,0.8,0.18C2299.23,275.54,2298.8,275.73,2298.39,275.96z M2296.83,262.96c0.46-0.16,0.89-0.37,1.29-0.62
	c0.21,0.06,0.43,0.1,0.65,0.14c-0.49,0.15-0.95,0.37-1.39,0.63C2297.21,263.05,2297.02,263,2296.83,262.96z M2299.16,210.78
	c-0.28-0.09-0.56-0.15-0.85-0.2c0.44-0.15,0.86-0.34,1.25-0.57c0.28,0.09,0.57,0.15,0.87,0.2
	C2299.98,210.35,2299.56,210.55,2299.16,210.78z M2298.15,197.88c-0.26-0.08-0.52-0.14-0.79-0.19c0.44-0.15,0.85-0.34,1.24-0.57
	c0.27,0.08,0.54,0.14,0.82,0.19C2298.97,197.45,2298.55,197.64,2298.15,197.88z M2297.06,185.01c-0.17-0.05-0.34-0.09-0.52-0.13
	c0.43-0.16,0.84-0.37,1.21-0.61c0.2,0.05,0.41,0.1,0.61,0.13C2297.91,184.55,2297.48,184.76,2297.06,185.01z M2299.52,405.63
	c0.44-0.13,0.85-0.3,1.24-0.5c0.34,0.12,0.7,0.22,1.06,0.29c-0.44,0.12-0.87,0.3-1.27,0.5
	C2300.22,405.8,2299.87,405.7,2299.52,405.63z M2297.66,366.9c0.47-0.15,0.91-0.34,1.33-0.59c0.26,0.08,0.53,0.15,0.81,0.2
	c-0.49,0.14-0.95,0.35-1.39,0.59C2298.16,367.02,2297.91,366.95,2297.66,366.9z M2301.52,340.42c0.46-0.14,0.9-0.33,1.31-0.55
	c0.3,0.1,0.61,0.19,0.93,0.25c-0.46,0.14-0.9,0.32-1.31,0.55C2302.15,340.56,2301.84,340.48,2301.52,340.42z M2300.22,236.4
	c0.46-0.15,0.89-0.35,1.3-0.59c0.25,0.08,0.51,0.16,0.77,0.21c-0.44,0.15-0.86,0.34-1.25,0.57
	C2300.77,236.51,2300.5,236.45,2300.22,236.4z M2302.26,353.37c0.47-0.14,0.91-0.33,1.33-0.56c0.3,0.1,0.61,0.18,0.92,0.24
	c-0.47,0.14-0.91,0.32-1.33,0.55C2302.88,353.51,2302.58,353.43,2302.26,353.37z M2301.14,249.32c0.48-0.15,0.93-0.37,1.36-0.62
	c0.24,0.07,0.49,0.15,0.74,0.2c-0.46,0.15-0.9,0.35-1.32,0.6C2301.67,249.42,2301.41,249.36,2301.14,249.32z M2300.68,171.23
	c0.49-0.17,0.96-0.4,1.39-0.67c0.2,0.05,0.39,0.12,0.59,0.16c-0.47,0.17-0.92,0.38-1.34,0.65
	C2301.11,171.31,2300.89,171.27,2300.68,171.23z M2300.58,145.04c-0.45,0.16-0.87,0.36-1.27,0.6c-0.25-0.07-0.51-0.13-0.77-0.17
	c0.44-0.15,0.86-0.35,1.26-0.6C2300.06,144.94,2300.32,144.99,2300.58,145.04z M2304.93,405.26c0.51-0.14,0.99-0.35,1.44-0.6
	c0.3,0.1,0.61,0.18,0.93,0.24c-0.52,0.14-1.01,0.34-1.46,0.6C2305.55,405.4,2305.24,405.32,2304.93,405.26z M2304.3,392.28
	c0.5-0.14,0.97-0.35,1.42-0.6c0.3,0.1,0.61,0.18,0.92,0.23c-0.5,0.14-0.99,0.34-1.44,0.59
	C2304.91,392.42,2304.61,392.34,2304.3,392.28z M2303.64,379.31c0.49-0.14,0.96-0.34,1.39-0.59c0.3,0.1,0.6,0.18,0.92,0.24
	c-0.49,0.14-0.97,0.33-1.41,0.58C2304.25,379.44,2303.95,379.36,2303.64,379.31z M2302.96,366.34c0.48-0.14,0.94-0.34,1.37-0.58
	c0.3,0.1,0.61,0.18,0.92,0.24c-0.48,0.14-0.95,0.33-1.38,0.57C2303.57,366.47,2303.27,366.4,2302.96,366.34z M2307,339.91
	c0.55-0.16,1.07-0.39,1.55-0.69c0.23,0.07,0.47,0.12,0.71,0.16c-0.56,0.16-1.09,0.39-1.58,0.69
	C2307.46,340,2307.23,339.95,2307,339.91z M2306.26,326.97c0.55-0.17,1.07-0.4,1.54-0.7c0.22,0.06,0.44,0.11,0.67,0.15
	c-0.56,0.16-1.09,0.4-1.58,0.7C2306.69,327.06,2306.48,327.01,2306.26,326.97z M2305.39,314.04c0.57-0.17,1.11-0.42,1.6-0.72
	c0.22,0.06,0.45,0.11,0.68,0.15c-0.57,0.17-1.1,0.41-1.6,0.72C2305.84,314.13,2305.61,314.08,2305.39,314.04z M2304.6,301.08
	c0.56-0.17,1.08-0.42,1.56-0.71c0.22,0.06,0.44,0.13,0.67,0.17c-0.55,0.17-1.07,0.4-1.55,0.69
	C2305.06,301.16,2304.83,301.12,2304.6,301.08z M2303.78,288.13c0.53-0.16,1.04-0.4,1.51-0.69c0.22,0.06,0.44,0.13,0.67,0.17
	c-0.53,0.16-1.03,0.38-1.49,0.67C2304.25,288.21,2304.02,288.16,2303.78,288.13z M2302.92,275.18c0.52-0.16,1.01-0.39,1.47-0.67
	c0.23,0.07,0.45,0.14,0.69,0.18c-0.51,0.16-0.99,0.37-1.44,0.65C2303.41,275.27,2303.17,275.22,2302.92,275.18z M2302.05,262.25
	c0.5-0.16,0.97-0.38,1.41-0.64c0.23,0.07,0.47,0.14,0.71,0.19c-0.48,0.16-0.94,0.36-1.37,0.62
	C2302.55,262.34,2302.3,262.29,2302.05,262.25z M2305.74,235.75c0.57-0.19,1.11-0.46,1.6-0.79c0.14,0.03,0.28,0.08,0.42,0.1
	c-0.58,0.19-1.13,0.45-1.63,0.79C2306,235.82,2305.87,235.77,2305.74,235.75z M2304.73,222.86c0.58-0.19,1.13-0.47,1.62-0.8
	c0.14,0.03,0.28,0.08,0.43,0.11c-0.59,0.19-1.13,0.46-1.63,0.8C2305.01,222.93,2304.88,222.89,2304.73,222.86z M2303.72,209.95
	c0.58-0.19,1.11-0.46,1.6-0.78c0.15,0.04,0.3,0.09,0.46,0.12c-0.56,0.19-1.09,0.44-1.57,0.77
	C2304.05,210.01,2303.89,209.98,2303.72,209.95z M2302.73,197.04c0.54-0.18,1.06-0.43,1.53-0.74c0.16,0.04,0.32,0.1,0.48,0.13
	c-0.53,0.18-1.03,0.42-1.5,0.72C2303.09,197.1,2302.91,197.07,2302.73,197.04z M2301.72,184.13c0.52-0.18,1.01-0.42,1.46-0.71
	c0.18,0.05,0.35,0.11,0.53,0.14c-0.5,0.18-0.98,0.41-1.41,0.69C2302.11,184.2,2301.91,184.16,2301.72,184.13z M2305.15,157.57
	c0.59-0.21,1.13-0.5,1.62-0.85c0.07,0.02,0.14,0.04,0.22,0.06c-0.59,0.21-1.14,0.49-1.64,0.85
	C2305.28,157.61,2305.22,157.59,2305.15,157.57z M2304,144.74c0.6-0.21,1.15-0.5,1.65-0.86c0.08,0.02,0.15,0.05,0.23,0.06
	c-0.59,0.21-1.13,0.49-1.63,0.85C2304.16,144.78,2304.08,144.75,2304,144.74z M2302.85,131.86c0.58-0.2,1.12-0.48,1.61-0.83
	c0.1,0.02,0.19,0.06,0.29,0.08c-0.56,0.21-1.09,0.48-1.57,0.81C2303.08,131.9,2302.97,131.88,2302.85,131.86z M2299.47,132.16
	c-0.45,0.16-0.87,0.36-1.27,0.6c-0.25-0.07-0.51-0.13-0.77-0.17c0.44-0.16,0.86-0.36,1.25-0.6
	C2298.95,132.06,2299.21,132.12,2299.47,132.16z M2307.73,352.85c0.54-0.16,1.06-0.39,1.54-0.68c0.24,0.07,0.49,0.12,0.74,0.17
	l-0.01,0c-0.55,0.16-1.05,0.4-1.53,0.69C2308.23,352.96,2307.99,352.9,2307.73,352.85z M2306.64,248.64
	c0.58-0.19,1.12-0.45,1.61-0.78c0.16,0.04,0.31,0.08,0.47,0.11c-0.59,0.19-1.14,0.45-1.65,0.78
	C2306.93,248.71,2306.79,248.66,2306.64,248.64z M2306.19,170.41c0.59-0.21,1.14-0.49,1.63-0.84c0.09,0.02,0.18,0.05,0.27,0.06
	c-0.6,0.21-1.15,0.49-1.64,0.84C2306.36,170.46,2306.28,170.43,2306.19,170.41z M2303.6,118.3c-0.53,0.2-1.02,0.45-1.47,0.76
	c-0.13-0.03-0.27-0.06-0.41-0.08c0.55-0.19,1.05-0.46,1.52-0.77C2303.37,118.24,2303.48,118.28,2303.6,118.3z M2298.33,119.29
	c-0.45,0.16-0.87,0.36-1.26,0.6c-0.2-0.06-0.41-0.11-0.62-0.15c0.43-0.16,0.83-0.36,1.21-0.6
	C2297.87,119.2,2298.1,119.25,2298.33,119.29z"/>
</svg>
