<?xml version="1.0" encoding="utf-8"?>
<!-- Generator: Adobe Illustrator 18.0.0, SVG Export Plug-In . SVG Version: 6.00 Build 0)  -->
<!DOCTYPE svg PUBLIC "-//W3C//DTD SVG 1.1//EN" "http://www.w3.org/Graphics/SVG/1.1/DTD/svg11.dtd">
<svg version="1.1" id="AR_x5F_layer" xmlns="http://www.w3.org/2000/svg" xmlns:xlink="http://www.w3.org/1999/xlink" x="0px"
	 y="0px" viewBox="0 0 9451.45 623.52" enable-background="new 0 0 9451.45 623.52" xml:space="preserve">
<g opacity="0.01">
	<g>
		<path d="M2636,210.41c0.22-0.02,0.44-0.06,0.65-0.12c3.37-0.92,12.08-3.44,12.44-3.59c0.06-0.06,11.25-3.81,16.62-8.06
			c0.06,0,9-6.28,11.06-6.81c0.79-0.27,9.56-2.81,10.12-2.94c0,0.06,10.45-3.84,15.11-7.69c0.51-0.42,1.07-0.78,1.65-1.11
			c1.53-0.87,4.44-2.49,7.14-3.71c2.68-1.21,5.67-1.58,8.56-1.06c1.29,0.23,2.66,0.54,3.69,0.93c0.34,0.13,0.67,0.26,1.02,0.36
			c2.91,0.85,14.45,4.03,19.33,1.78c1.44-0.67,3.44-1.4,5.69-2.81c0.04,0,1.88-1.42,3.72-1.31c0,0,0.11-0.72-0.06-0.69
			c-1.19,0.21-1.75,0.34-3,1.12c-0.03,0-6.78,4.72-12.66,4.06c-0.06,0.03-6.93-0.77-14.54-3.35c-1.66-0.56-3.37-0.95-5.12-1.07
			c-1.23-0.09-2.6-0.06-3.84,0.3c-0.03-0.06-6.94,2.59-9.97,4.75c-0.06-0.06-6.67,5.01-10.48,6.31c-0.47,0.16-0.92,0.36-1.37,0.56
			c-1.57,0.73-5.17,2.3-9.59,3.34c0,0-5.81,0.84-10.62,4.47c-0.03-0.03-8.12,5.44-8.81,5.78c0.03,0-2.59,2.47-14.03,6.41
			c-0.06,0.06-8.32,2.6-12.13,3.55c-0.19,0.05-0.37,0.08-0.56,0.09l-1.51,0.14c-0.13,0.01-0.25,0.02-0.38,0.02
			c-3.49-0.04-14.8-0.11-14.8-0.11l-27.18,0.43c-0.29-0.01-0.59-0.01-0.88-0.02l-28.62-1.78c0,0-20.79-1.82-29.36-1.89
			c-0.36,0-0.94-0.02-1.3-0.05c-4.51-0.32-30.47-2.12-30.47-2.12s-16.62-1.62-25.12-3.25c0.06,0-21.56-4.25-21.56-4.25
			s-13.43-3.2-18.08-4.99c-0.31-0.12-0.62-0.23-0.94-0.32c-3.02-0.83-19.95-5.53-26.66-6.5c-0.12-0.06-32.69-0.94-35.88-0.75
			c-0.12-0.06-25.56,1.5-41.62,7.38c-0.06,0.06-27.06,7.97-34.46,14.3c-0.06,0.06,34.78-13.79,35.07-13.93
			c1.42-0.66,7.38-2.97,24.13-5.17c0.54-0.07,1.09-0.16,1.62-0.27c2.44-0.5,12.92-2.21,31.39-1.24c0.06,0.06,12.93-0.61,27.38,2.06
			c0.06,0,21.79,5.61,24.64,6.57c0.13,0.04,0.25,0.08,0.38,0.11c1.76,0.47,13.74,3.79,21.28,4.95c0.06,0,17.62,3.38,17.62,3.38
			s14.94,2.44,31.44,3.19c-0.06-0.06,17.29,1.69,26.12,1.69c0.85,0,7.98,0.51,17.12,1.12c0,0,18.65,1.59,24.26,1.75l0.3-0.01
			c1.95-0.05,26.22,0.66,34.06-0.11c-0.05-0.05,15.5,0.29,20.05,0.36c0.13,0,0.26,0,0.4-0.02L2636,210.41z"/>
		<path d="M2294.96,208.51c0,0,12.12-3.91,17.62-4.91c0.03,0,13.58-2.89,20.03-1.44c0.95,0.2,8.72,1.84,14.78,2.56
			c0.06,0.06,7.94,1.03,22.38,3.5c0.06,0.03,21.44,2.94,21.44,2.94s22.34,3.12,24.72,3.66c0.06,0.06,8.51,1.35,22.47,5.39
			c0.52,0.15,1.05,0.29,1.58,0.41c2.3,0.53,10.49,2.39,24.02,4.1c0,0.06,4.51,0.35,9.4,1.36l0.79,0.2c1.25,0.32,7.3,1.45,20.59,2.22
			c0.8,0.05,1.61,0.06,2.41,0.07c2.53,0.03,13.95,0.95,16.28,1.03c-0.03-0.09,17.07,1.35,20.77,1.65c0.24,0.02,0.47,0.04,0.71,0.07
			c1.29,0.14,7.33,0.74,17.37,2.24c0.64,0.1,1.28,0.17,1.92,0.25c1.52,0.17,7.01,0.96,16.41,1.54c0,0.03,14.19,0.94,14.19,0.94
			s14.22,0.62,19.19,0.81c-0.09-0.06,7.31,1.01,20.46,0.28c1.02-0.06,2.02-0.18,3.03-0.35c3.59-0.61,12.41-2.13,14.17-2.52
			c0.06,0.06,14.56-3.59,14.56-3.59s9.85-1.96,23.29-7.19c0.7-0.27,1.4-0.53,2.12-0.75c1.51-0.46,5.32-1.81,12.23-5.53
			c0.12-0.04,4.71-2.5,7.33-3.96c-0.04-0.04,6.67-3.29,6.67-3.29s3.12-1.33,5.62-3.62c0.04,0,6.02-5.65,10.79-5.5
			c0.34,0.01,3.1-0.45,6.54,0.92c0.12,0,5.7,2.76,9.88,3c0.35,0.07,2.7,0,6.96,2.62c0.04,0.12,2.75,0.92,8.79,6.08
			c0.12-0.04,3.17,3.04,7.79,3.08c0-0.04,6.88,0.42,12.08,3.25c0,0.08,6.17,3.17,12.33,0.67c0,0.08,0.23-0.44-0.08-0.62
			c-0.03,0-5.02,2.79-11.75-0.6c-0.04,0-3.98-2.29-11.85-3.27c0-0.06-3.62,0.25-6.98-2.19c0,0-3.69-2.66-6.67-4.85
			c-0.55-0.41-1.12-0.79-1.7-1.16c-1.72-1.09-5.43-3.3-7.86-3.57c0,0-0.06-0.01-0.15-0.02c-2.72-0.3-5.37-1.01-7.89-2.06
			c-2.81-1.17-7.71-2.55-11.88-1.55c-0.53,0.13-2.94,0.32-7.85,4.56c0-0.02-1.84,2.32-12.06,7.16c-0.7,0.33-1.39,0.69-2.05,1.08
			c-3.12,1.84-13.84,7.88-21.3,9.86c0.02-0.02-12.27,4.48-17.75,5.64c0.04,0-15.9,3.96-15.9,3.96s-6.51,1.88-12.76,2.68
			c-0.84,0.11-1.66,0.25-2.49,0.42c-1.69,0.35-5.7,0.94-13.44,1.06c-0.79,0.01-1.57-0.01-2.36-0.07c-2.68-0.19-9.46-0.66-11.95-0.83
			c-0.61-0.04-1.22-0.06-1.83-0.07c-2.2-0.01-7.93-0.05-11.18-0.34l-0.28-0.02c-1.28-0.05-13.97-0.98-17.48-1.02
			c0,0-11.81-0.81-17.87-1.77c-0.26-0.04-0.51-0.07-0.77-0.11c-2.21-0.29-17.87-2.59-23.41-2.74c-0.02,0.02-26.04-2.06-29.27-2.02
			c0,0.02-18.91-0.92-27.95-2.87c-0.74-0.16-1.48-0.28-2.23-0.38c-3.31-0.43-12.91-1.81-15.79-2.22c-0.55-0.08-1.1-0.17-1.64-0.28
			l-14.72-2.96c-0.69-0.14-1.37-0.3-2.05-0.49c-3.65-1.01-16.53-4.52-22.05-5.13c0,0.06-20.91-3.12-27.09-4.03
			c-0.03-0.03-15.53-1.76-19.89-2.69c-0.4-0.09-0.81-0.16-1.22-0.23c-2.83-0.43-15.23-2.47-19.1-2.92
			c-0.38-0.04-0.63-0.08-0.95-0.14c-2.6-0.49-13.4-2.54-19.29-2.68C2325.8,201.2,2310.46,201.32,2294.96,208.51z"/>
		<path d="M2296.07,208.26c-0.13,0.04-0.26,0.08-0.4,0.11c-0.6,0.13-0.85,0.42-1.92,0.47c-0.76,0.04-1.25,0.67-2.25,0.75
			c-0.05,0-0.11,0.04-0.16-0.03c-0.06-0.08,1.7-1.06,1.81-1.12c1.42-0.75,10.26-5.94,31.98-7.01c0.2,0,0.39,0,0.59,0
			c1.94,0.08,6.56,0.37,15.7,1.82c0.54,0.09,1.09,0.14,1.64,0.16c2.3,0.09,10.32,0.64,14.99,1.59c0.26,0.05,0.51,0.09,0.78,0.14
			c2.37,0.35,16.6,2.57,18.9,2.94c0.17,0.02,0.33,0.05,0.51,0.07c2.68,0.31,29.58,3.84,36.53,5.95c0,0,18.79,4.82,28.09,6.55
			c0.35,0.06,0.68,0.11,1.03,0.14c2.67,0.27,17.08,1.93,24.07,3.31c0.06,0.03,9.69,1.56,13.47,1.94
			c-0.03-0.03,19.59,2.22,19.59,2.22s23.59,1.66,28.03,1.66c0.06,0.06,10.39,0.12,13.56,0.75c0.47,0.09,0.94,0.19,1.41,0.24
			c2.43,0.27,9.64,1.12,12.84,1.32c0.09,0,9.41,0.62,9.41,0.62s5.19,0.19,14.78,1.66c0.03,0.03,11.93,1.46,14.22,1.74
			c0.26,0.02,0.51,0.04,0.76,0.07l11.77,0.7c0,0,17.6,0.47,24.84,0.07c0.29-0.02,0.58-0.01,0.88,0c1.26,0.05,6.76-0.22,16.95-2.15
			l0.35-0.07c1.36-0.29,12.67-2.47,21.55-4.91l14.34-3.44c0,0,5.79-1.6,11.12-3.27c0.08-0.04,11.59-3.09,18.27-5.94
			c0.27-0.11,0.54-0.21,0.81-0.32c1.41-0.5,7.53-2.83,9.18-3.46c0.28-0.1,0.55-0.19,0.83-0.28c1.4-0.43,5.83-1.78,5.83-1.78
			c0.58-0.17,0.81-0.23,1.04-0.3c1.03-0.26,4.26-1.11,6.75-2.21c0.08,0,7.1-3.72,12.5-2.96c3.17,0.41,5.29,0.79,7.71,1.67
			c0.12,0,21.25,7.17,28.25,8.12c0.07,0.04,6.25,1.17,8.6,1.71c0.33,0.08,0.66,0.14,1,0.2c1.11,0.18,4.66,0.9,7.32,0.76
			c0,0.04,9.29,0,10.17,0.21c-0.04,0.04,6.79,0.08,6.79,0.08s0.19-0.22,0.01-0.65c-0.03,0-4.92,0.18-9.01-0.11
			c-0.41-0.03-0.83-0.04-1.24-0.04c-1.6,0.02-6.61-0.02-6.61-0.02s-3,0.09-8.91-1.19c-0.03,0.03-7.81-1.62-10.84-1.94
			c-0.06,0-2.93-0.37-7.27-1.92c-0.43-0.15-0.86-0.29-1.3-0.4c-1.54-0.38-6.13-1.65-12.53-3.96c0.03,0.03-6.88-2.81-12.12-3.16
			c0,0.03-4.03-0.83-9.19,1.53c-0.03-0.03-6.47,2.81-8.81,3.28c0,0.03-9.44,2.59-16.38,5.62c-0.12,0.12-23.72,8.51-34.99,11.08
			c-0.17,0.04-0.32,0.08-0.49,0.12c-1.9,0.52-22.63,5.66-26.57,6.22c-0.33,0.05-0.66,0.1-0.98,0.17c-3.33,0.73-20.7,4.36-33.35,3.36
			c-0.31-0.02-0.61-0.04-0.93-0.04c-2.92-0.01-22.14-0.43-28.56-1.35c-0.03,0-9.28-0.88-14.38-1.78c-0.06-0.03-8-1.38-16.03-1.44
			c-0.09,0.06-14.91-1.19-18.59-1.88c-0.03,0.06-6.04-1.05-16.04-0.91l-0.34,0c-1.31-0.02-11.9-0.01-19.37-1.06
			c-0.09,0-14.51-1.45-19.17-2c-0.23-0.02-0.46-0.04-0.69-0.06c-1.77-0.11-14.91-1.5-24.73-3.43c-0.25-0.04-0.49-0.08-0.74-0.12
			c-1.68-0.23-11.03-1.77-19.2-2.68c-0.23-0.03-0.45-0.06-0.67-0.1c-1.97-0.34-12.65-2.19-19.58-4.43
			c-0.21-0.06-0.42-0.12-0.63-0.18c-1.89-0.49-11.97-3.13-18.12-3.92c-0.15-0.02-0.29-0.04-0.44-0.06
			c-1.66-0.28-16.49-2.59-21.57-3.07c-0.03,0.06-8.6-1.31-11.81-1.87c-0.21-0.03-0.4-0.06-0.61-0.09
			c-1.55-0.22-11.55-1.82-11.55-1.82s-5.55-1.04-13.03-1.58c-0.13-0.01-0.25-0.02-0.38-0.03c-1.35-0.15-11.22-1.17-16-1.8
			c-1-0.13-2-0.15-3-0.05C2322.19,201.38,2311.37,202.99,2296.07,208.26z"/>
		<path d="M2776.83,193.7c0,0,0.28,2.56-4.22,5.47c-4.86,3.16-16.53,8.62-32.78,17.24c0,0-9.73,4.78-17.03,6.86
			c-0.61,0.17-1.21,0.35-1.81,0.56c-2.33,0.81-10.13,3.37-15.37,5.22c-0.55,0.2-1.09,0.4-1.63,0.63
			c-2.48,1.07-14.23,5.45-45.48,6.76c0,0-8,0.69-31.25-4.56c0,0.12-16.06-5.01-37.09-6.99c-0.68-0.06-1.37-0.08-2.05-0.09
			c-1.33-0.02-4.97-0.37-10.93-1.85c-0.08,0-21.38-6.38-46.79-7.21c-0.71-0.02-8.42,0.17-18.75,1.33c0.04,0-21.45,2.2-45.15,0.69
			c-0.65-0.04-1.3-0.1-1.94-0.18c-1.62-0.2-7.33-0.63-7.33-0.63s-13.38-1.17-26.46-5.21c-0.04-0.04-14.85-4.49-35.43-7.21
			c-0.31-0.05-0.63-0.09-0.94-0.14c-2.7-0.43-23.86-3.28-32.22-3.78c0.04,0-13.25-0.96-26.04-0.58c-0.16,0.04-5.5-0.75-17.99,0.88
			l-1.14,0.18c-0.8,0.13-16.18,1.49-23.57,7.34c4.78-3.49,31.17-7.44,31.48-7.51c1.2-0.25,4.86-0.68,12.9-0.32
			c0.66,0.03,1.33,0.04,1.99,0.02c4.11-0.1,21.63-0.29,30.2,1.1c0.53,0.08,1.05,0.15,1.57,0.23c4.03,0.49,22.69,2.79,29.08,3.88
			c0.41,0.06,0.8,0.12,1.21,0.18c2.18,0.26,13.93,2.13,25.06,5.26c0.04-0.08,13.42,5.25,39.29,6.96c0.04,0,18.96,1.92,40.88-0.25
			c0,0,21.38-1.91,22.96-1.67c0.31,0.05,8.58-0.17,23.62,2.42c0.2,0.04,14.26,2.35,29.24,6.16c1.41,0.36,2.86,0.59,4.32,0.64
			c3.87,0.16,13.13,0.8,27.14,3.76c0.41,0.09,0.82,0.18,1.22,0.29c3.42,0.91,22.38,5.84,33.36,6.85c4.65,0.42,14.95,1.55,35.39-1.7
			c0.65-0.1,1.63-0.25,2.28-0.32c2.26-0.25,9.15-1.26,19.28-4.89c0.35-0.12,0.71-0.24,1.06-0.36c1.91-0.6,13.58-4.62,16.79-5.73
			c0.44-0.15,0.87-0.28,1.32-0.4c1.79-0.48,8.56-2.63,23.71-10.7c0.48-0.26,0.98-0.5,1.47-0.74c2.85-1.35,16.81-8.42,22.57-11.94
			c-0.04,0.12,4.46-2.79,4.62-5.67C2777.46,193.99,2777.5,193.32,2776.83,193.7z"/>
		<path d="M2831.67,223.7c0,0-12.27,0.29-15.21,0.25c0,0.02-2.56,0.19-8.6-1.67c0.02,0.04-4.38-1.5-6.52-1.98
			c-0.02,0-2.85-0.73-4.1-1.19c0.02,0.04-8.67-2.56-11.17-3.72c-0.41-0.19-0.83-0.37-1.26-0.51c-3.3-1.09-15.89-5.03-20.22-4.84
			c0,0.03-3.66-0.09-12.34,2.06c0,0.03-13.12,2.72-13.12,2.72s-15.78,4-18.91,4.19c-0.03,0.03-8.75,1.04-10.53,1.24
			c-0.22,0.03-0.43,0.06-0.65,0.09c-1.66,0.29-9.17,1.61-14.61,2.92l-0.84,0.22c-1.19,0.31-6.53,1.55-14.86,4.09l-0.28,0.08
			c-1.28,0.36-13.06,3.81-22.31,4.82l-0.73,0.06c-1.03,0.08-7.34,0.79-12.63,0.58c-0.2,0-0.39-0.01-0.58-0.01
			c-2.17,0.02-18.88,0.02-22.74,0.34c-0.03,0.09-19.32,0.72-28.81-0.66c-0.39-0.06-0.78-0.1-1.18-0.12
			c-2.14-0.13-10.19-0.7-23.68-2.86c-0.29-0.05-0.58-0.11-0.88-0.16c-1.9-0.41-17.3-2.9-26.77-3.57c0,0.03-30.31-3.94-33.56-4.03
			c-0.06,0-18.25-2-20.28-2.38c-0.06,0.03-14.72-2.34-14.72-2.34s-14.25-1.97-18.25-3.03c-0.06,0-11.02-2.39-15.77-3.67
			c-0.03-0.01-0.06-0.01-0.09-0.02c-19.53-4.02-27.26-4.9-27.26-4.9s-7.63-1.14-9.32-1.42c-0.22-0.04-0.44-0.06-0.67-0.09
			c-2.65-0.27-20.41-2.08-26.79-3.53c0.03,0-11.12-1.69-16.84-2.31c0,0.03-13.54-2.95-21.8-2.16c-0.37,0.04-1.56,0.06-1.9,0.11
			c-0.2,0.03-0.39,0.09-0.94,0.12c-0.41,0.02-1.82,0.16-1.92,0.17c-1.94,0.31-7.11,1.23-11.14,2.24c-0.59,0.15-1.15,0.33-1.71,0.56
			c-1.98,0.79-8.49,2.69-9.96,4.46c0,0,7.38-3.74,14.25-5.06c0.03,0.06,9.34-2.38,16.38-2c0.06-0.03,9.86,0.71,17.68,1.98
			c0.27,0.03,0.52,0.07,0.79,0.1c1.99,0.2,15.12,1.96,19.32,2.89c0.41,0.09,0.81,0.16,1.23,0.21l26.95,3.32
			c0,0,19.97,2.53,26.72,4.34c0.09,0.06,2.78,0.47,12.16,2.84c0.03,0,12.47,2.97,27.5,5.47c0.06,0.03,19.16,2.69,21.34,3.03
			c0.03,0,23,2.53,23,2.53l28.72,3.5c0,0,16.56,1.78,22.44,3c0.03,0.06,13.92,2.27,21.19,2.79c0.21,0.02,0.4,0.04,0.61,0.06
			c2.11,0.25,17.94,1.9,28.52,1.38c0.03,0.06,18.25-0.88,32.34-0.53c0,0,10.77-0.24,22.04-2.73c0.2-0.05,0.4-0.1,0.61-0.15
			c1.83-0.49,13.59-3.48,18.13-5.12c0.03-0.06,9.75-2.59,20-4.47c0,0.06,1.88-0.59,7.31-1c-0.03,0,9.03-0.78,13.91-2.25
			c0.12,0,19.69-4.5,19.69-4.5l10.8-2.12c0.31-0.06,0.62-0.13,0.92-0.22c1.05-0.31,5.02-1.2,12.1,0.52c0.18,0.04,0.37,0.1,0.55,0.15
			c1.24,0.37,9.87,2.68,16.13,5.26c-0.05,0,4.22,1.33,5.45,1.71c0.21,0.07,0.42,0.14,0.63,0.21c0.84,0.31,3.36,1.21,5.7,1.67
			c0.12,0,4.75,1.31,6.66,2.03c0.09,0.03,5.94,2.06,10.84,1.97c0.03,0,13.78-0.25,13.78-0.25S2831.94,224.26,2831.67,223.7z"/>
		<path d="M2804.09,206.84c0,0,0.1-0.3-0.02-0.62c-0.32,0.16-3.52,1.15-12.21-0.12c-0.06,0-3.24-0.5-9.35-1.15
			c-0.46-0.05-0.92-0.08-1.38-0.11c-1.9-0.09-7.73-0.37-12.33-0.1c0,0.02-3.84-0.03-9.07,0.84c-0.69,0.11-1.38,0.28-2.06,0.43
			c-2.1,0.47-7.49,0.51-14.78-3.21c0,0.04-3.8-2.86-8.52-2.52c0.04-0.02-9.66,0.16-13.7-0.27c-0.55-0.06-1.09-0.11-1.64-0.13
			c-3.18-0.14-14.68-0.76-17.12-0.48c-0.08-0.02-7.71,1.24-14.41,4.29l-0.14,0.07c-0.65,0.31-10.18,4.65-13.06,5.96
			c-0.62,0.28-1.23,0.53-1.87,0.76c-2.61,0.93-9.58,3.27-15.31,3.72c0.02,0.04-17.92,2.25-17.92,2.25s-15.83,2.02-21.21,2.42
			c-0.04,0.02-18.12,0.67-26.81-0.3c-0.03,0-11.19-1.06-11.19-1.06s-30.54-2.84-36.05-3.02c-0.39-0.01-0.78-0.03-1.17-0.06
			c-3.44-0.26-20.55-1.47-21.59-1.7c-0.03,0-22.22-2.47-24.94-2.72c0.06,0.03-9.02-1.32-14.16-2.5c-0.55-0.13-1.1-0.23-1.66-0.32
			c-1.4-0.23-4.32-0.7-7.38-1.17c-1.18-0.18-2.35-0.4-3.52-0.66c-5.27-1.17-21.71-4.74-24.59-5.35c0,0.06-7.62-1.91-7.62-1.91
			s-22.78-6.19-28.66-6.69c-0.21,0.03-13.57-2.63-24.46-1.83c-1.22,0.09-2.43,0.07-3.65-0.04c-5.69-0.48-21.46-1.9-28.53-2.04
			c-1.54-0.03-3.08,0.02-4.6,0.25c-4.96,0.74-18.22,2.82-26.24,6.73c-0.11,0.06-0.52,0.25-0.64,0.29
			c-1.14,0.41-8.49,3.25-15.85,8.28c0,0.04,9.08-5.28,17.13-8.23c0.45-0.17,0.9-0.34,1.34-0.53c1.81-0.78,8.52-3.37,14.73-4.16
			c-0.12,0,11.58-2.29,15.5-2.04c0-0.04,22.05,1.65,27.89,2.1c0.87,0.07,1.74,0.09,2.62,0.06c3.83-0.12,15.88-0.3,24.53,1.88
			c-0.04,0.04,16.61,3.24,20.28,4.33c0.38,0.11,0.76,0.22,1.14,0.32c3.52,0.87,20.61,5.25,23.07,5.48c0-0.04,17.1,4.05,21.98,4.61
			c0.69,0.08,1.37,0.2,2.06,0.33c1.36,0.26,6.26,1.33,9.33,2c1.71,0.38,3.44,0.66,5.19,0.86c7.1,0.81,26.27,2.99,28.74,3.16
			c0.12,0.12,27.08,2.25,31.72,2.41c0.51,0.02,1.01,0.05,1.52,0.11c5.6,0.57,35.43,3.32,35.43,3.32s25.92,1.33,33.21,0.04
			c0.08,0,23.27-2.89,27.5-3.05c0.44-0.02,0.88-0.04,1.31-0.08c3.1-0.31,15.68-1.65,30.52-8.62c0.08,0,16.54-8.64,24.86-7.5
			c0.8,0.11,1.61,0.14,2.41,0.17c5.96,0.21,25.69,1.08,25.69,1.08s3.11-0.42,7.51,2.02c1.22,0.67,2.49,1.24,3.81,1.68
			c3.61,1.23,10.52,3.09,15.73,1.5c1.08-0.33,2.19-0.51,3.31-0.65c3.05-0.38,8.94-0.8,17.8-0.04l1.15,0.07
			c1.6,0.08,8.67,0.96,11.21,1.33c0.99,0.14,1.98,0.23,2.98,0.25C2799.36,207.28,2801.49,207.23,2804.09,206.84z"/>
		<path d="M2798.9,213.2c0,0-0.14-0.27-0.38-0.33c0,0-4.38,2.11-13.58-0.88c0.04,0.01-2.25-0.79-3.77-1.33
			c-0.61-0.21-1.21-0.45-1.79-0.72c-0.69-0.32-2.05-0.78-3.81-0.55c-0.21,0.05-1.4,0.1-1.4,0.1s-1.5,0.21-4.77-1.44
			c-0.03,0.03-5.31-2.86-7.53-4.07c-0.83-0.45-1.72-0.78-2.64-0.96c-1.12-0.21-2.74-0.38-4.68-0.22c-0.02,0-5.92,0.08-8.44,0.33
			c-0.02-0.02-6.77,0.96-10.46,1.63c-0.29,0.06-0.57,0.12-0.86,0.19c-0.48,0.12-1.64,0.41-4.2,1.18c-0.43,0.13-0.85,0.29-1.27,0.45
			c-0.84,0.33-3.08,0.98-7.33,0.91c0.02-0.02-6.72,0.51-9.07,0.85c-0.42,0.06-0.83,0.11-1.25,0.13c-2.4,0.13-9.93,0.5-12,0.6
			c-0.36,0.02-0.71,0.02-1.06,0.01l-19.34-0.55c0,0-10.54-0.21-16.6,0.89c-0.02,0-5.27,0.67-7.47,0.94
			c-0.63,0.08-1.25,0.2-1.86,0.36l-4.08,1.09c0,0-11.06,2.49-16.29,3c-0.26,0.03-0.52,0.06-0.78,0.09
			c-2.63,0.38-21.66,2.87-21.66,2.87l-12.61,1.12c-0.56,0.05-1.12,0.07-1.68,0.05c-3.66-0.11-17.99-0.56-19.44-0.69
			c0-0.03-35.12-2.91-38.12-2.97c0,0-20.34-1.44-25.06-2c0.03,0.03-19.47-1.94-19.47-1.94s-10.48-1.35-14.2-1.95
			c-0.18-0.03-0.36-0.06-0.54-0.1c-2.14-0.43-20.33-3.83-20.33-3.83s-16.34-3.5-23.28-5.88c-0.05-0.05-5.31-1.73-6.82-2.22
			c-0.28-0.08-0.55-0.16-0.83-0.24c-2.56-0.64-16.07-3.95-25.29-5.08c0.09,0-27.71-3.54-41.34-2.79c0.12-0.04-10.69,1.12-18.87,2.29
			c0.04,0.04,20.8-1.38,24.15-1.34c0.21,0,0.41,0,0.61-0.01c1.7-0.09,6.69-0.23,12.82,0.56c0.22,0.03,0.43,0.05,0.65,0.06
			c2,0.09,13.52,0.79,14.14,0.91c0,0,9.53,1.02,11.86,1.62c0.32,0.08,0.62,0.15,0.95,0.2c2.25,0.38,9.64,1.62,10.27,1.72
			c0.04-0.04,11.5,2.44,19.8,5.56c0.33,0.12,0.65,0.23,0.98,0.33c2.8,0.8,17.02,4.78,32.24,7.11c0.27,0.05,0.53,0.1,0.8,0.14
			c2.25,0.48,17.66,3.47,34.06,4.67l0.32,0.03c2.13,0.23,30.68,2.82,40.47,3.26c0.29,0.02,0.56,0.04,0.84,0.06
			c3.38,0.36,29.5,2.68,34.23,2.46c0.88,0.02,18.65,0.76,28.81-0.58l0.92-0.15c2.23-0.36,17.45-2.18,27.96-3.81
			c0.28-0.05,0.55-0.1,0.83-0.16c1.46-0.31,8.34-1.6,12.89-3.01c0.75-0.23,1.51-0.39,2.29-0.49c4.21-0.54,18.2-2.25,28.58-1.3
			c-0.04,0,22.5,0.83,30.88-0.71c-0.12,0,4.42-0.67,8.25-0.62c-0.17-0.12,3.67,0.33,7.21-1.38c-0.08-0.08,6.58-2.46,21.67-3.25
			c-0.12-0.08,5.38,0,5.38,0s3,0.08,6.97,2.66c0.3,0.19,0.59,0.39,0.9,0.57c1.4,0.8,6.01,3.4,8.44,3.43
			c0.47,0.04,1.11,0.05,1.86-0.04c1.19-0.14,1.97-0.39,5.36,1.26C2781.08,211.39,2792.58,216.29,2798.9,213.2z"/>
		<path d="M2796.31,204.43c0,0-2.82,1.86-10.28,0.3c-0.63-0.13-1.25-0.31-1.86-0.51c-1.09-0.36-3.01-0.98-4.57-1.51
			c-0.34-0.12-0.66-0.26-0.99-0.41c-0.66-0.31-2.19-0.79-4.93-0.33c-0.11,0.01-2.12,0.79-7.23-2.25c-0.02,0.02-2.7-1.61-3.66-2.21
			c-0.12-0.07-0.22-0.16-0.33-0.24c-0.73-0.53-3.26-2.3-7.51-2.61c-0.02,0.04-3.54-0.56-9.67,0.38c-0.04-0.06-7.08,1.63-10.24,0.32
			c-0.03,0.03-6.5-3.25-12.69-3.47c-0.06,0.03-13.53-0.59-13.53-0.59s-9.72-0.88-16.25,1.59c0.06,0.03-13.42,4.31-19.58,8.9
			c-0.04-0.04-8.33,5.96-18.08,8.1c-1.44,0.31-2.9,0.43-4.37,0.41c-5.27-0.09-20.06-0.38-31.38-0.88l-0.31-0.02
			c-1.54-0.15-18.84-1.03-29.18-2.11c0.04,0.04-25.92-3.5-25.92-3.5s-18-3.29-22.58-3.54c-0.17,0.08-21.58-3.67-21.58-3.67
			l-24.46-4.33c0,0-20.36-3.38-20.41-3.39c-1.5-0.33-23.46-5.48-23.46-5.48s-14.26-2.99-20.03-3.57c-0.99-0.1-1.95-0.24-2.92-0.44
			c-4.22-0.84-15.82-2.95-25.08-2.95c-0.26,0-0.5,0.01-0.76,0.02c-2.23,0.07-16.56,0.36-22.81,0.49c-1.43,0.03-2.84,0.17-4.25,0.41
			c-3.19,0.55-9.27,1.57-13.56,1.88c-9.56,0.95-19.35,3.75-30.6,9.25c0.06,0.06,21.67-8.8,34.58-8.9c1.22-0.01,2.43-0.23,3.63-0.46
			c4.55-0.89,16.35-1.6,28.78-2.05c1.09-0.04,2.17-0.11,3.26-0.02c3.16,0.25,10.62-0.26,31.23,4.06c1.41,0.29,2.84,0.46,4.27,0.52
			c2.2,0.09,7.79,0.86,21.77,4.47l0.36,0.07c1.36,0.25,12.11,3.39,23.13,4.56c0.12,0,32.67,5.61,32.67,5.61s29.38,5.04,35.84,5.86
			l0.21,0.04c1.4,0.35,29.26,4.48,29.26,4.48s5.37,0.8,35.72,3.45c0.39,0.03,0.78,0.06,1.16,0.07c4.11,0.12,20.39,0.93,28.83,0.84
			c4.43-0.05,11.03-0.07,17.36-3.48c0.66-0.35,7.14-3.37,11.78-6.46l0.31-0.17c1.21-0.62,11.1-6.62,22.88-8.78
			c0.12-0.04,3.03-0.82,10.7-0.24c0.5,0.04,1,0.06,1.5,0.05c3.02-0.02,16.18,0.26,18.38,1.98c0.38,0.2,7.46,3.71,12.25,2.29
			c0.08-0.04,9.7-1.68,14.62-0.79c0.26,0.05,2.21-0.26,7.25,2.84l0.2,0.14c0.72,0.54,6.37,4.3,9.51,4.19
			c0.67-0.02,4.12-0.56,5.75,0.33c0.08,0.04,11.5,4.96,17.23,2.29c0.02,0,0.38-0.17,0.81-0.42
			C2796.48,204.8,2796.51,204.61,2796.31,204.43z"/>
		<path d="M2485.6,189.35c2.39-0.11,8.48,1.27,11.23,1.85c0.34,0.07,0.66,0.13,1,0.17c2.92,0.39,20.05,2.97,23.09,3.27
			c0.17,0.02,0.33,0.04,0.49,0.06c2.43,0.34,21.53,2.73,23.25,2.96c-0.21-0.08,16.71,2.29,20.62,2.46
			c-0.17-0.04,18.58,2.33,26.21,2.88c0.08,0,30.16,1.59,39.83,0.2c0.61-0.17,8.19-0.53,20.47-4.01c0.24-0.06,0.48-0.12,0.71-0.18
			c1.36-0.3,9.45-2.43,13.32-2.63c0.54-0.05,11.71-0.92,25.29-0.71c0.04,0,11.5-0.29,17.04,0.17c0.56,0.02,2.9,0.52,6.92-0.71
			c0.04-0.08,13.42-4.33,21.54,1.71c0-0.04,4.33,2.5,4.33,2.5s5.32,2.93,9.58,1.83c1.66-0.43,3.75-0.67,6.86,0.4
			c1.12,0.39,2.29,0.6,3.48,0.66c2.25,0.12,5.78-0.11,10.08-1.81c0,0,0.29,0.08,0.25,0.6c0,0-5.83,2.28-11.21,1.75
			c-0.87-0.09-1.72-0.31-2.56-0.58c-1.18-0.39-3.57-0.96-6.52-0.36c-0.06-0.03-3.84,0.99-8.67-1.23c-0.03,0-2.2-1.21-3.23-1.86
			c-0.06,0.03-6.78-4.56-13.47-4.53c0-0.03-4.03-0.22-10.38,1.53c-0.06,0.03-3.18,1.14-6.78,0.66c-0.09,0-11.86-0.39-18.05-0.17
			c-0.2,0-0.38,0.01-0.57,0.01c-1.99-0.01-16.89,0.08-23.1,0.68c-0.21,0.03-0.42,0.05-0.63,0.08c-1.04,0.16-6.84,0.85-11.96,2.22
			c0.06-0.06-17.48,5.12-26.65,4.83c-0.24-0.01-0.47-0.01-0.71,0.01c-2.3,0.17-14.81,1.08-27.15,0.08c-0.25,0-31.23-1.89-45.86-4.53
			c-0.2-0.04-0.38-0.06-0.58-0.09c-3.56-0.47-40.22-5.38-40.22-5.38s-13.48-1.8-18.98-2.74c-0.27-0.05-0.53-0.11-0.8-0.18
			c-1.54-0.38-7.49-1.09-10.22-1.24c-0.07,0-0.13,0-0.2,0c-0.42,0.02-2.65-0.17-3.91-0.18c0,0-6.38-0.76-11.44-2.01
			c-0.03,0-30.61-6.96-30.61-6.96l29.61,6.43C2466.36,187.24,2474.16,189.88,2485.6,189.35z"/>
		<path d="M2765.66,166.17c0,0-5.25,3.42-14.67-0.29c0,0-1.46-0.75-2.25,0c0,0-3.71,3.33-4.5,3.58c-0.04,0.04-1.79,0.84-2.63,3.58
			c-0.11,0.34-0.15,0.71-0.19,1.06c-0.14,1.45-1.02,5.8-6.44,7.58c-0.47,0.16-0.97,0.23-1.47,0.26c-1.17,0.06-3.19,0.15-3.19,0.15
			s-2.25-0.12-9.5,2.88c0-0.04-2.62,1.12-6.38,5.04c-0.08,0-1.75,2.38-14.74,6.64l-1.34,0.38c-0.81,0.29-2.08,0.69-2.68,0.91
			c-0.2,0.07-0.39,0.13-0.59,0.18l-6.34,1.6c-0.16,0.04-0.31,0.07-0.47,0.1c-0.86,0.15-4.44,0.85-9.44,3.17
			c-0.2,0.09-0.41,0.18-0.61,0.25c-2.35,0.81-20.27,7.69-20.66,7.92c0.08-0.04-6.96,3.5-22.04,6.92c0,0.08-22.97,5.54-33.75,6.59
			c-0.16,0.02-0.32,0.03-0.49,0.03c-1.2,0.02-11.4,0.75-23.55,0.09c-0.04,0-31.5-2.54-32.88-2.62c-0.04,0.08-24.5-2.25-29.12-2.75
			c-0.04-0.08-18.92-1.38-25.12-2.42c-0.08-0.04-9.21-1.08-21.04-3.46c-0.08-0.04-8-1.58-11.29-2.08c0,0-13.96-2.58-24.25-6.21
			c-0.04,0-16.96-5.57-20.68-6.25c-0.16-0.03-0.3-0.06-0.46-0.1c-1.95-0.5-16.15-4.1-23.4-4.48c-0.04,0.08-23-2.54-32.5-2.71
			c-0.08,0-17.12-0.54-26.21,2.46c-0.04-0.04-22.65,5.52-39.15,15.15c0,0.12,31.01-16.43,54.09-16.87c0.21,0,0.41-0.02,0.62-0.04
			c1.11-0.15,6.95-0.54,24.1,0.91c0.06,0.06,17.04,1.19,22.5,2.1c0.56,0.02,10.18,1.39,26.93,6.01c0.19,0.05,0.38,0.09,0.57,0.13
			c0.62,0.12,3.1,0.81,10.78,3.36c0,0.04,14.04,4.92,23.71,6.38c0,0,14.98,3.22,27.77,5.14l0.32,0.04
			c1.7,0.22,19.64,2.83,35.52,3.68c0.17,0.01,22.48,2.66,30.35,2.93c0-0.04,24.36,2.24,29.55,2.21c0.18,0,0.34,0,0.52,0.01
			c1.97,0.14,15.81,0.91,23.48-0.23c0.08,0.04,15.54-2,30.42-5.79c0.04-0.08,12.73-2.82,22.86-6.76c0.18-0.07,0.47-0.19,0.64-0.28
			c1.24-0.63,11.22-4.54,13.12-5.04c0.19-0.04,8.88-3.33,9.96-3.96c0.23-0.1,4.92-2.29,12.33-3.71c0,0,7.12-1.33,15.17-5.08
			c0.04-0.08,6.29-1.71,8.96-5.25c-0.04,0,3.92-3.58,6.5-4.25c-0.09,0,3.1-0.95,4.94-1.71c0.58-0.24,1.18-0.42,1.8-0.5
			c0.74-0.09,1.79-0.17,3.18-0.15c0.51,0.01,1.02-0.04,1.52-0.16c2.04-0.47,7.41-2.16,8.02-8.08c-0.04-0.04,0.53-2.56,2.18-4.27
			c0.16-0.17,0.35-0.3,0.55-0.41c1-0.56,1.83-1.46,4.1-3.32c0.22-0.18,0.53-0.53,2.19,0.25c0.03-0.03,7.44,3.59,14.84,0.09
			C2765.74,166.76,2765.91,166.44,2765.66,166.17z"/>
		<path d="M2829,172.87c0,0-6.39,3.68-11.77,4.77c0.02,0-5.31,1.67-13.79,2.19c0.02-0.04-11.48,0.79-17.19,0.56
			c-0.02,0-12.79,0.22-18.2,0.56c-0.59,0.06-1.16,0.12-1.75,0.19c-2.24,0.34-8.5,1.28-11.78,1.71c0,0-5.15,0.96-15.19,0.54
			c0.04,0.02-4.94-0.23-9.81,1.02c-0.02-0.04-6.62,1.54-12.79,5.23c-0.02,0.02-8.08,4.85-14.1,7.42c0,0-4.44,1.7-7.15,2.54
			c-0.33,0.1-5.72,2.34-8.95,5.12c-0.41,0.35-0.82,0.69-1.27,0.98c-2.42,1.58-10.8,7.1-12.02,7.71c-0.04,0.02-9.73,5.75-14.65,6.92
			c-0.02-0.02-9.63,2.94-17.65,3.92c0,0-19.65,3.33-20.33,3.38c-0.02-0.02-7.17,1.6-16.71,1.77c0,0-10.49,0.34-17.63-0.25
			c-0.24-0.02-0.47-0.03-0.7-0.05c-1.63-0.07-10.76-0.57-15.67-1.25c-0.14-0.02-0.27-0.04-0.4-0.05
			c-1.69-0.17-17.86-2.01-17.86-2.01l-19.98-2.19l-21-2.31l-17.96-1.94c0,0-16.1-2.27-17.65-2.58c-0.04-0.04-6.04-0.75-18.17-3.17
			c-0.06,0.02-12.53-2.54-19.89-5.14c-0.32-0.1-0.63-0.2-0.95-0.31c-2.82-0.82-16.81-4.82-22.63-5.61
			c-0.4-0.05-19.09-3.71-24.15-4.28c-0.35-0.05-0.7-0.09-1.05-0.14c-2.62-0.39-12.42-1.71-12.42-1.71s-15.39-2.4-20.58-2.73
			c-0.25-0.02-0.5-0.04-0.75-0.07c-1.47-0.17-7.2-1.07-18.35-0.39c-0.5,0.03-1.78,0.25-2.27,0.36c-3.9,0.85-21.24,4.67-41.34,15.17
			c-0.12,0,18.56-8.73,38.06-13.65c0-0.08,11.44-2.8,24.35-0.92c0.43,0.05,0.86,0.1,1.29,0.15c1.76,0.13,8.63,0.84,18.41,2.48
			c0,0.04,22.58,2.96,28.88,4.33c0.04,0.04,14.62,2.46,27.5,6.12c0-0.08,14,4.5,22.71,6.25c0,0.08,26.38,5.21,35.46,5.88
			c-0.04-0.04,25.38,3.17,33.12,3.71c-0.04,0,29.97,3.41,33.96,3.71c0.5,0.04,17.77,2.53,29.76,2.82c0.36,0.02,0.7,0.04,1.06,0.05
			c2.91,0.23,20.83,1.31,34.3-1.66l24.29-3.96c0,0,11.54-1.79,18.54-5.33c0,0.04,6.83-2.92,14.92-8.33c0-0.04,7.77-4.63,10.62-7.12
			c0.52-0.29,1.39-1.15,4.46-2.55c0.65-0.29,1.33-0.53,2.01-0.72c1.28-0.35,3.82-1.15,7.84-2.95c0.29-0.13,0.58-0.28,0.86-0.43
			c1.94-1.05,10.08-5.46,12.1-6.54c0.2-0.11,0.39-0.21,0.58-0.33c1.11-0.68,9.12-5.01,15.32-5.39c0.35-0.02,0.7-0.07,1.05-0.15
			c0.74-0.17,3.24-0.45,11.62-0.21c-0.04,0.04,7.04,0.09,12.03-1.05c0.49-0.1,0.97-0.19,1.46-0.29c2.02-0.3,7.31-1.04,12.89-1.39
			c0.25-0.02,0.51-0.02,0.76-0.02c3-0.01,27.3-0.4,28.16-0.67c-0.17,0.04,13.62-0.86,21.04-3.79c0.42-0.22,3.25-0.86,7.17-3.5
			C2829.08,173.08,2829,172.87,2829,172.87z"/>
		<path d="M2805.58,194.07c0,0-4.62,1.38-13.25-1.21c-0.04-0.04-8.02-2.6-11.7-3.38c-0.73-0.16-1.45-0.34-2.17-0.53
			c-1.84-0.49-5.11-1.34-5.97-1.63c-0.04-0.04-4-0.75-9.08-4.04c-0.04,0-5.45-3.5-9.31-4.8c-0.43-0.14-0.86-0.29-1.28-0.46
			c-2.88-1.18-14.89-5.81-21.12-2.41c-0.04-0.04-2.71,1.54-6.67,3.92c-0.04,0-9.5,7.08-18.04,7.62c0,0.04-7.97,0.97-10.42,1.25
			c-0.41,0.05-0.82,0.08-1.23,0.11c-2.38,0.16-12.68,1.25-24.9,8.47c-0.08,0.08-13.12,6.79-22.75,8.62
			c-0.04,0.04-9.92,2.21-20.54,3.08c-0.04,0-17.58,2.02-30.77,1.16c-0.37-0.02-0.72-0.04-1.09-0.04
			c-2.65-0.04-14.83-0.27-24.54-1.49c-0.12,0-23.2-2.58-31.8-2.82c-0.18-0.01-0.42,0-0.6-0.01c-2.51-0.14-20.87-1.27-35.72-2.92
			c-0.06,0-15.19-1.56-20.5-2.75c-0.06,0-12.5-2.62-14.75-2.88c-0.06-0.06-4.62-0.56-8.19-1.5c-0.06,0-16.93-3.79-24.52-6.52
			c-0.33-0.12-0.66-0.26-0.99-0.4c-1.8-0.77-10.36-3.83-31.82-3.52c-0.64,0.01-1.28,0.06-1.93,0.05
			c-3.25-0.05-14.46-0.13-24.94,1.14c-0.06,0-10.1,0.96-18.61,3.04c-1.24,0.3-2.49,0.52-3.76,0.67c-2.63,0.33-6.71,0.77-10.23,1.12
			c-0.93,0.09-2.45,0.28-3.37,0.43c-3.6,0.58-7.54,0.86-19.04,5.18c-0.54,0.21-1.08,0.43-1.62,0.64
			c-3.55,1.46-21.09,8.6-23.56,10.17c-0.12,0,21.98-8.9,31.88-12.25c5.55-1.88,12.18-3.09,21.12-3.79c3.2-0.25,6.37-0.78,9.49-1.53
			c3.56-0.85,8.83-1.76,13.99-2.36c0,0,15.44-1.78,29.66-1.78c0.06,0,10.05-1.11,22.81,1.36c0.82,0.16,3.58,0.87,4.32,1.04
			c4.75,1.08,12.92,3.19,16.49,4.42c0.87,0.3,1.75,0.55,2.64,0.77c4.01,1.01,13.98,3.42,20.57,4.33c1.19,0.16,2.38,0.38,3.56,0.63
			c4.59,0.96,16.9,3.28,22.17,3.78c0.06,0,20.12,2.38,28.12,2.88c0-0.06,10.23,1.08,22.6,1.5c0.04-0.04,21.57,1.72,32.13,3.29
			c2.18,0.33,5.77,0.63,7.97,0.68c7.13,0.17,20.07,0.44,24.98,0.09c0.06,0,15.38-0.23,27.38-2.31c0.96-0.17,1.93-0.23,2.89-0.37
			c3.13-0.45,10.35-1.34,21.83-5.95c1.35-0.54,2.69-1.15,3.99-1.79c2.23-1.1,6.61-3.25,10.47-5.32c0-0.06,8.79-4.66,22.3-5.86
			c0.88-0.08,1.76-0.15,2.64-0.26c3.29-0.39,14.88-1.74,19.74-5.75c0,0.06,8.81-5.5,9.38-5.81c0.49-0.33,5.94-3.81,12.75-1.31
			c0-0.06,13.56,3.44,19.25,7.5c0-0.12,5.36,3.82,10.13,4.7c0.75,0.14,1.48,0.34,2.21,0.53c1.38,0.36,3.22,0.83,3.22,0.83
			s8.44,1.94,14,4c0-0.06,7.12,2.69,14,1.31C2805.67,194.38,2805.58,194.07,2805.58,194.07z"/>
		<path d="M2782.96,154.14c0,0-6.12-2.56-15.12-0.81c-0.06-0.06-3,0.75-4.69,1.81c-0.06,0.06-4,2.31-8.38,3.44
			c-0.06,0-5.48,1.74-9.59,5.62c-0.25,0.23-0.53,0.43-0.78,0.66l-4.37,4c-0.45,0.41-0.93,0.79-1.45,1.13
			c-1.45,0.93-4.57,2.66-9.43,3.89c-0.64,0.16-1.29,0.26-1.95,0.29c-1.77,0.1-5.68,0.93-9.81,4.09
			c-0.21,0.16-15.75,11.06-17.19,11.62c-0.06-0.06-8.25,5.06-15.44,6.19c0-0.12-7.62,1.44-11.31,5.62c0,0,0,0,0,0
			c-0.01,0.08-4.91,6.23-16.41,7.86c-0.35,0.05-0.69,0.11-1.03,0.19c-1.38,0.34-6.32,1.37-19.73,2.49l-0.33,0.04
			c-1.9,0.21-24.12,2.11-29.93,2.17c0,0-10.25,0.44-25.62-1.06c-0.06,0-25.88-3.06-32.56-3.88c-0.12,0-33.19-3.81-37.06-4.5
			c0-0.06-18.38-2.9-21.13-3.17c-0.2-0.02-0.39-0.04-0.59-0.07c-1.65-0.25-8.83-1.33-11.91-1.88c-0.12,0-8.25-1.69-8.25-1.69
			s-10.17-1.96-13.73-2.45c-0.23-0.03-0.45-0.07-0.67-0.11c-2.05-0.41-14.97-2.68-18.23-3.27c-0.3-0.05-0.58-0.12-0.88-0.2
			c-1.95-0.54-12.2-3.41-12.2-3.41s-12.88-4.09-21.54-5.49c-2.18-0.35-12.12-0.89-13.97-0.12c-0.4,0.17-0.86,0.04-1.3,0.02
			c-3.75-0.18-24.62-0.92-30.42-0.53c-0.31,0.12-10.38-0.38-28.88,7.5l-15.21,6.74c-0.48,0.21-0.95,0.46-1.4,0.74l-17.51,10.95
			c0,0,14.99-8.09,17.63-9.7c0.21-0.13,0.42-0.25,0.65-0.36c0.91-0.46,7.36-3.37,7.64-3.48c0.89-0.37,3.96-1.73,5.59-2.59
			c0-0.04,11.09-4.76,15.44-5.91c0.33-0.09,8.98-3.33,17.31-3.33c0,0,22.74,0.12,27.97,0.5c0.35,0.03,0.69,0.03,1.04,0.03
			c2.16-0.05,9.24-0.45,15.28,0.21c0.65,0.07,6.15,1.36,6.58,1.47c1.4,0.35,4.69,1.28,6.84,1.92c0.97,0.29,11.67,3.12,15.17,4.04
			c0,0,6.54,1.46,6.93,1.5c0.5,0.06,1.7,0.46,7.68,1.6c0.49,0.09,0.97,0.28,1.47,0.37c2.58,0.49,11.31,2.11,18.21,3.1
			c0.26,0.04,0.52,0.09,0.78,0.14c4.92,1.09,22.35,4.08,24.21,4.24c1.77,0.16,22.18,3.67,25.21,3.79
			c-0.04-0.04,9.07,0.86,14.18,1.78c0.25,0.05,0.5,0.08,0.75,0.11c2.57,0.28,22.31,2.31,29.02,3.25c0.33,0.05,0.67,0.05,1,0.1
			c2.9,0.41,17.42,2.3,17.42,2.3s22.75,2.01,28.42,1.42c0-0.04,21.38-0.96,29.92-2.21c0-0.08,24.93-1.84,32.39-5.96
			c0.32-0.18,0.61-0.38,0.91-0.6c0.85-0.62,2.87-2.13,5.22-4.29c0.54-0.5,1.13-0.93,1.76-1.31c1.97-1.19,6.53-3.72,11.49-4.6
			c0.59-0.1,1.17-0.23,1.73-0.41c2-0.66,7.44-2.54,12.34-5.81c-0.08,0.11,10.7-7.29,12.47-8.5c0.16-0.11,0.32-0.21,0.48-0.31
			c0.86-0.53,3.2-2.1,4.8-3.4c0.66-0.46,2.5-2.45,9.08-3.01c1.09-0.09,2.17-0.27,3.2-0.64c2.58-0.94,7.31-2.84,9.28-4.79
			c0.55-0.54,1.11-1.07,1.71-1.56c0.5-0.41,0.93-0.83,1.34-1.26c0.8-0.84,2.22-2.09,3.14-2.8c2.51-1.94,6.22-3.86,10.2-5.11
			c0,0,0,0,0,0c0.08-0.07,1.54-0.38,5.59-2.48c1.84-0.96,3.81-1.67,5.85-2.07c2.08-0.4,4.84-0.72,8.05-0.57
			c-0.08-0.04,4.17,0.25,6.33,1.54C2782.89,154.7,2782.96,154.14,2782.96,154.14z"/>
		<path d="M2770.08,160.66c0,0,0.17-0.58,0.04-0.54c-2.18,0.6-5.52,2.41-13.08,0.79l0,0c-0.06,0-4.2-0.64-6.03-0.88
			c-0.87-0.11-1.75-0.03-2.56,0.3c-0.81,0.33-1.81,0.99-2.88,2.07c-0.46,0.46-0.84,1-1.19,1.54c-0.57,0.88-2.15,2.63-6.14,3.51
			c-0.04,0.04-4.92,1.08-11.54,1l0,0c0-0.04-3.79-0.54-9.33,2.54c-0.08,0.04-3.23,1.77-8.48,5.83c0-0.19-2.44,2.69-11.12,5
			c0,0-7.88,2.25-11.56,2.75c0,0-13.83,2.6-26.12,8.92l-0.88,0.49c-1.8,1-13.05,6.45-24.63,7.66c-0.12,0-19.38,3-32.5,3.31l0,0
			c-0.18-0.06-22.81,0.97-40.95-0.8l-1.05-0.09c-2.89-0.24-25.48-2.6-34.51-2.86c-1.08,0-24.71-1.73-30.5-2.56l0,0
			c-0.06,0-13.25-1.06-22.06-3.06c0.06,0-15.69-3.31-27.19-4.94l0,0c-0.06,0.12-12.94-2.06-12.94-2.06l0,0
			c0,0-13.23-3.38-26.65-3.62l0,0c0.08,0-23.17-3.83-31.92-3c-0.08-0.08-16.57,2.2-20.78,3.12c-0.41,0.09-0.83,0.16-1.25,0.21
			c-2.03,0.22-12.58,1.35-16.14,2.91c-2.85,1.25-12.09,5.09-18.24,6.68c-0.12,0.03-0.44,0.16-0.56,0.21
			c-1.18,0.42-9.15,3.04-18.52,9.7c0,0.17,16.38-8.47,17.75-8.83c0.22-0.07,17.49-6.23,17.99-6.42c1.07-0.39,5.34-2.47,16.18-3.58
			c0,0,10.77-1.38,13.15-2l0,0c-0.06,0,16.04-2.62,24.71-0.54c0.9,0.21,1.76,0.22,2.68,0.23c2.19,0.04,13.92,1.68,13.92,1.68
			c16.02,1.61,13.41,0.41,24.69,2.81l0,0c-0.06-0.06,10.25,2.75,22.88,4.5c0.38,0.06,28.25,5,29.81,5.25
			c-0.06,0.06,21.96,2.57,24.38,2.5l0,0c-0.06,0,17.8,1.48,24.38,1.69c0.46,0.01,21.47,1.72,28.68,2.7
			c0.36,0.05,0.71,0.13,1.07,0.17c2.83,0.29,15.91,1.57,25.44,1.07l0,0c-0.06,0,14.88,0.25,31.12-1.88l0,0
			c0,0.12,13.25-0.25,25.94-3.56c0.06-0.06,5.19-0.69,14-5.19l0,0c0.06,0.06,16.19-7.88,21.75-8.56c0-0.06,20.69-4.19,23.5-6.06
			c0.38-0.19,2.69-0.62,12.5-8.06l0,0c0,0,6.88-4.06,10.69-3.62l0,0c0-0.06,15.56,1.38,19.44-5.69c0.19-0.19,2.12-4.12,8.5-2.25
			C2753.9,161.14,2763.4,163.68,2770.08,160.66z"/>
		<path d="M2333.72,196.75l0.91-0.28c0.74-0.17,13.61-4.33,21.36-5.9h0c5.7-1.1,13.58-0.98,23.06-0.12h0
			c0-0.06,12.56,0.81,12.56,0.81l12.87,1.31l0,0c0,0,2.52-0.38,9.94,1.12c0,0.04,16.33,4.33,19.25,4.96
			c-0.08-0.04,21.29,5.17,23.12,5.46c-0.04,0.04,16.21,3.42,22.92,4.46c-0.04,0,15.58,1.75,15.58,1.75l31.04,2.54l27.62,2.08
			c0,0,13.96,1.12,20.58,1.25c0,0.04,14.19,0.32,20.74-0.03c0.2-0.02,0.39-0.03,0.58-0.05c2.69-0.32,23.3-2.76,23.3-2.76
			c0,0.04,16.7-2.92,20.77-3.76c0.35-0.07,0.69-0.16,1.04-0.26c0.81-0.24,2.91-0.81,5.99-1.33c0.16-0.03,0.32-0.03,0.48-0.06
			c1.21-0.22,11.26-1.5,18.67-3.84c0,0,7.04-2.04,11.33-4.38l0,0c-0.08-0.05,6.88-4.5,9.5-5.96l0,0c0,0,7.17-3.46,12.83-5.21h0
			l8.21-3.54l0,0l4.21-2.92l0,0c0,0,2.49-3.17,6.18-4.86c0.1-0.04,2.17-1.03,2.26-1.07c0.17-0.07,0.65-0.22,1.34-0.55
			c1.01-0.47,2.58-1.13,5.17-1.11l0,0c-0.07-0.08,1.97,0.54,5.96-0.5l0,0c0-0.04,1.88-0.41,2.96-1.08c0.1-0.06,0.58-0.38,0.79,0.04
			c0.04,0,1.5,2.55,5.88,4.56c1.55,0.71,3.22,1.14,4.92,1.07c1.52-0.06,3.51-0.48,5.78-1.86c0.45-0.27,0.88-0.56,1.35-0.8
			c0.83-0.42,1.94-1.52,3.69-0.77c0,0,0.14-0.57,0-0.67c-0.57-0.4-1.2-0.32-2.12,0.04c-0.26,0.12-6.71,4.77-12.54,2.75
			c-0.48-0.17-1.48-0.24-4.84-3.11c-0.56-0.48-1.03-1.06-1.39-1.71l0,0c0,0-0.25-0.72-1.69-0.12c-0.24,0.12-3.96,1.9-7.73,1.71
			c-1.51-0.08-3.01,0.07-4.46,0.48c-1.04,0.3-2.35,0.73-4,1.38c-0.03,0-2.85,1.03-8.55,6.19c-0.35,0.32-0.72,0.61-1.12,0.88
			c-1.72,1.15-7.29,4.39-15.7,6.84c-0.03-0.03-8.91,3.62-14.12,7.75l0,0c-0.06,0.03-5.97,3.56-9.75,4.5
			c-0.03,0.03-11.97,4.17-23.94,5.42c-0.28,0.04-0.56,0.09-0.84,0.13c-2.3,0.49-12.93,2.68-17.56,3.54
			c-0.03,0.03-12.99,2.11-20.69,3.44l0,0c0.03-0.06-13.91,1.34-19.38,1.12c0,0-16.94,0-19.09-0.22c0.06-0.06-45.23-3.18-50.98-3.68
			c-0.16,0-34.47-2.64-44.96-5.1c-0.39-0.08-0.77-0.16-1.17-0.24c-1.49-0.25-5.83-1-10.25-1.96c0,0.04-24.08-5.5-24.08-5.5
			s-27.75-7.75-33.81-7.5c0-0.06-4.82,0-14.79-1.54c-0.76-0.05-1.51-0.1-2.27-0.15c-2.4,0.06-8.69,0.03-11.06-0.38
			c0-0.04-6.29-0.15-10.73-0.33c-1.65-0.07-4.39,0.21-6.02,0.45c-8.71,1.26-20.31,4.82-20.31,4.82l0,0c0,0-9.05,2.41-12.09,2.61l0,0
			c0,0-10.26,1.27-15.41,3.33c0.06-0.09-12.95,5.34-15.9,6.99c-0.07,0.04-0.13,0.08-0.19,0.12c-0.23,0.15-1.07,0.65-1.07,0.65
			s14.83-6.19,18.53-7.53c0.09-0.03,6.91-2.61,14.66-3.32c0.1-0.01,0.2-0.03,0.3-0.04C2328.07,197.12,2331.85,196.8,2333.72,196.75z
			"/>
		<path d="M2291.39,208.9c-0.42,0.15-0.13,0.94,0.19,0.63c0.42-0.18,6.83-3.75,8.7-5.63c0.15-0.16,0.34-0.38,0.52-0.51
			c1.74-1.16,10.97-7.45,14.03-9.57c0.67-0.46,1.35-0.89,2.06-1.29c2.11-1.19,6.57-4.06,8.19-4.84c0.02,0.02,8.33-4.92,8.33-4.92
			s10.48-6.29,10.92-6.5c0-0.04,8.74-5.17,10.84-6.16c0.22-0.1,0.43-0.22,0.65-0.34c1.39-0.77,16.89-9.94,17.14-10.13
			c0.02,0.02,4.42-2.79,4.42-2.79s1.55-1.1,3.83-2.17c-0.02-0.02,9.96-4.46,9.96-4.46l15.83-6.75c0,0,8.35-3.08,17.17-7.46
			c0-0.02,10.12-4.67,10.12-4.67s6.32-2.62,12.09-6.12c0.14-0.08,7.17-4.27,7.77-4.52c0.04-0.01,9.12-5.16,17.97-9.69
			c15.26-8,19.28-8.81,26.72-15.8c0.07,0,4-3.62,6.72-7.32c0.54-0.74,1.12-1.22,1.5-1.84c0.98-0.98,6.97-8.94,13.78-9.84
			c0.04-0.04,2.35,0.11-2.68,5.81c-0.32,0.37-0.67,0.71-1.03,1.03c-1.75,1.56-7.4,6.6-11.22,8.72
			c-0.01,0.01-22.25,13.72-26.51,16.16c-0.08,0.05-0.16,0.11-0.24,0.17c-0.95,0.73-7.8,5.92-10.52,7.99
			c-0.6,0.45-1.16,0.94-1.67,1.5c-1.39,1.5-5.32,4.81-11.23,4.6c-0.04,0-2.9,0.35-12.29-2.71c-0.08,0.04-4.88-2.08-10.92-1.79
			c-0.08,0.04-9.5,0.83-9.5,0.83s-5.58,0.29-6.88,3.33c0,0.04,0.38,0.25,0.38,0.25s1.39-2.36,5.46-2.67
			c0.64-0.05,9.83-1.04,10.25-1.12c0.08-0.04,5.67-0.21,11.46,2c0-0.08,6.75,2.29,10.29,2.5c0.08,0.04,7.67,0.5,11.58-3.42
			c0.6-0.5,1.15-1.01,1.52-1.37c0.36-0.34,0.73-0.66,1.12-0.95l10.82-8.25c0.43-0.29,0.85-0.58,1.28-0.88
			c2.42-1.49,10.74-6.6,11.83-7.29l11.97-7.01c0,0,11.88-7.17,16.17-13.42c0.04,0.08,3.67-3.79,0.75-4.71
			c-0.04-0.04-4.75-0.25-12.42,8.12l-4.38,5.28c-0.2,0.24-0.41,0.47-0.62,0.7c-1.47,1.54-7.37,7.64-10.5,9.56
			c0-0.06-4.62,3.28-10.06,5.59c-1.91,0.81-4.21,2.2-5.91,3c0,0.04-21.2,10.79-28.27,15.43c-0.32,0.21-0.65,0.41-0.99,0.6
			c-1.23,0.67-4.36,2.38-5.74,3.14c0.04,0-14.28,6.57-14.28,6.57s-14.79,6.83-15.25,6.92c0,0.04-15.46,6.54-15.71,6.67
			c-0.07,0-13.96,6.03-17.32,7.51c-0.45,0.2-0.89,0.41-1.29,0.68c-3.31,2.22-19.98,12.31-22.71,13.67
			c-6.73,3.36-12.25,6.89-13.55,7.74c-0.21,0.14-0.42,0.26-0.64,0.39c-2.3,1.31-15.34,8.72-20.07,11.26c-1.87,1-7.19,4.51-7.19,4.51
			c-0.18,0.11-0.34,0.25-0.52,0.35c-3.37,1.86-8.47,6.18-8.47,6.18c-0.32,0.23-0.65,0.45-1,0.64c-1.16,0.65-3.6,2.92-4.92,3.78
			c-0.26,0.17-1.05,0.61-1.5,0.93c-0.99,0.73-3.33,2.23-3.33,2.23c-0.14,0.09-0.27,0.2-0.4,0.31c-0.27,0.24-0.53,0.43-0.91,0.73
			C2293.05,208.03,2292.22,208.6,2291.39,208.9z"/>
		<path d="M2340.96,187.29c0,0,11.17-3.75,19.5-5.42c0-0.08,10.08-2.5,16.54-3.17c-0.04,0,11.5-1.5,20.92-0.21
			c-0.04,0,22.33,1.88,24.21,2.21c0.04,0,21.46,1.67,28.88,0.83c-0.08,0,17.62-0.93,25.75,0.21c7.01,0.98,16-0.03,19.25-0.08
			c0-0.08,9.92,0.21,21.12-4.42c0,0,11.21-4.33,15.21-6.83c-0.12,0.08,7.33-2.58,16.96-12.5c-0.04,0.08,4.75-4.83,8.88-11.79
			c0.04-0.12,5.58-8.96,7.5-10.67c0,0.04,3.75-3.5,3.75-3.5s5.62-4.96,8.04-9.42c0-0.04,3.71-5.88,6.08-6.67
			c0.04-0.08,2.29-1.96,2.29-1.96s0.92-1.17,2.54-0.25c0.08,0.04,0.83,0.79-0.38,2.29c-0.04,0-3.67,4.17-4.75,8.29
			c0-0.04-0.42,1.71,0.04,3c-0.04,0,2.75,4.63,0.71,10.71c-0.05,0.06-0.89,3.24,2.71,5.42c0.08,0.04,2.88,1.92,7.17,2.29
			c0.07-0.26,0-0.75,0-0.75s-5.71,0.09-8.96-4.17c-0.16-0.21-0.97-1.09,0-3.5c0,0.04,1.5-4.08-0.67-9.67c-0.04,0-1.33-1.88,1-6.83
			c0.04-0.04,2.71-4.62,3.83-5.58c0,0,0.56-1.71-1.01-2.33c-0.83-0.33-1.77-0.1-2.47,0.45c-1.78,1.42-5.86,4.8-7.44,7.21
			c0,0.04-2.92,5.67-8.29,10.33c-0.04,0-7.04,5.54-11.29,13.88c-0.32,0.6-4.94,9.03-12.04,15.36c0,0.05-8.55,8.18-19.94,12.55
			c-0.06,0.08-15.1,7.04-27.6,8.17c-0.04,0-8.68,0.78-10.84,0.73c-0.22,0-0.44,0-0.66,0.02c-1.06,0.08-4.59,0.19-9.42-0.37
			c-0.08,0-17.12-1.42-26.79-0.29c-0.08,0-18.42,0.33-26.58-0.75c-0.04,0.04-24.83-2.29-31.12-2.81c-0.42-0.03-0.81-0.13-1.23-0.16
			c-3.09-0.2-15.44-0.75-25.75,2.76c-0.35,0.12-0.71,0.22-1.08,0.29c-3.11,0.59-20.89,4.6-28.45,8.29
			C2337.04,188.49,2340.96,187.29,2340.96,187.29z"/>
		<path d="M2622.46,73.2c0-0.18,0-0.71,0-0.71s-7.83,9.12-8.46,9.58c0.04,0-6.92,7.29-6.92,7.29s-0.92,0.54-0.38,1.83
			c0.04,0,0.95,2.62,0.42,5.08c-0.07,0.34,0.08,2.04-2.25,7.25c0-0.04-3.28,8.72-3.77,10.04c-0.04,0.1-0.07,0.2-0.1,0.3
			c-0.3,1.09-2.43,8.3-7.59,11.03c-0.03,0-1.11,0.48-1.74,0.76c-0.25,0.11-0.5,0.19-0.77,0.25c-0.72,0.16-2.24,0.81-3.2,2.57
			c-0.22,0.4-0.69,1.48-0.83,2.75c0-0.04,0.08,2.88-2.75,3.71c-0.04,0-2.21,0.85-4.04,4.62c-0.04,0-3.08,5.54-9.12,11.54
			c0-0.04-5.58,7.17-8.17,9.42c0-0.04-4.94,5.42-15.18,9.97c-0.19,0.08-0.38,0.17-0.55,0.28c-0.84,0.53-6.77,3.39-18.73,5.37
			c0,0.04-11.83,1.96-22.21,2.08c-0.04,0.08-18.79-0.75-18.79-0.75s-5.79-0.38-7.71-0.62c-0.04,0-10.62-1.59-16.86-1.39
			c-0.89,0.03-22.31-0.19-22.31-0.19s-15.92-0.33-17.92-0.54c0,0.04-22.08-2.08-27.25-1.88c-0.08,0-10.21-0.21-18.88,1.17
			c0.04-0.04-23.36,4.83-26.67,6.08c-0.04,0-20.82,7.93-27.68,11.82c-0.12,0.07-0.25,0.13-0.38,0.19
			c-1.53,0.64-15.65,7.22-28.24,16.04c0,0,17.16-11.86,33.86-18.12c0.05,0.23,10.4-4.46,11.81-5.06c0.1-0.04,0.19-0.09,0.29-0.14
			c1.07-0.57,8.86-3.91,18.76-6.39c1.08-0.27,15.11-3.97,28.62-4.85c0.23-0.01,4.04-0.29,8.27-0.05c0.12,0.01,0.23,0.02,0.35,0.02
			c1.37,0.02,10.77,0.21,15.83,0.81c-0.04-0.02,15.97,1.87,22.56,1.4c0.1-0.01,0.19-0.01,0.3-0.01l18.31,0.29
			c0,0,14.33,0.28,19.63,0.49l0.35,0.03c0.71,0.08,4.05,0.34,8.04,1c0.16,0.03,0.32,0.05,0.48,0.06c0.81,0.04,5.7,0.65,10.04,0.48
			c0.23-0.01,0.45,0,0.68,0.04c2.11,0.29,15.39,1.6,25.55,0.03c0,0,14.02-1.17,20.52-3.33c0.17-0.06,0.34-0.1,0.52-0.13
			c1.17-0.22,6.5-1.49,16.75-7.58c0,0,7.62-4.17,11.71-10.25c0-0.04,9.06-10.47,10.68-12.12c0.18-0.18,0.33-0.37,0.47-0.57
			c0.77-1.15,3.19-4.73,3.68-5.6c0-0.08,1.26-2.58,3.51-3.39c0.84-0.3,1.59-0.86,2.03-1.64c0.26-0.46,0.44-1.03,0.42-1.69
			c-0.01-0.31-0.02-0.62,0.05-0.92c0.23-1.15,1.02-3.68,2.91-4.16c0.42-0.1,6.29-1.42,8.88-7.38c0,0,1.92-3.29,4-9.08
			c-0.08,0.08,3.74-10.6,4.27-12.08c0.05-0.13,0.08-0.24,0.11-0.37c0.16-0.68,0.65-2.89,0.44-4.62c-0.06-0.46-0.22-0.89-0.45-1.29
			c-0.32-0.55-0.73-1.64,0.29-2.84c0.04,0.04,14.04-14.79,14.5-15.79"/>
		<path d="M2639.08,137.78v-0.53c0,0-1.72,1.88-2.09,2.19c-0.03-0.03-1.62,2.02-4.25,3.49c-0.33,0.18-0.67,0.33-1.02,0.46
			c-1.58,0.6-6.91,2.79-11.25,5.5c-0.48,0.3-0.91,0.64-1.33,1.03c-1.74,1.6-7.3,6.21-14.08,6.49c0-0.03-7.06,1.16-16.31-0.91
			c0,0.06-7.66-1.28-17.69-5.75c-0.03-0.03-6.81-2.72-12.78-8.72c0,0.03-2.74-1.9-7.14-9.07c-0.99-1.61-1.83-3.31-2.5-5.08
			c-0.89-2.37-2.03-5.96-2.52-9.79c-0.03,0-0.7-7.35,1.64-16.19c0-0.17,2.42-8.83,7.58-14.75c0-0.24,5.8-6.13,14.37-8.19
			c0.32-0.08,0.63-0.18,0.94-0.28c0.63-0.22,2.11-0.37,2.95,2.04c0.06-0.06,3.31,4.81-4.69,15.44c0,0-3.88,6.56-25.62,17.12
			c0.06,0-11.88,5.19-18.75,9.31c0,0.06-18.12,9.75-25.25,12.13c-0.06,0-26.22,9.58-32.96,11.35c-0.25,0.06-0.48,0.13-0.73,0.22
			c-2.5,0.86-17.16,5.89-33.06,8.68c0,0-21.21,4.52-28.14,5.14c-0.38,0.03-0.76,0.1-1.14,0.18c-2.9,0.66-17.07,3.54-23.5,5.29
			c-0.2,0.06-0.39,0.12-0.6,0.19c-2.44,0.85-18.71,6.59-26.12,10.74c-0.13,0.07-0.26,0.14-0.39,0.21
			c-1.78,0.86-21.11,10.81-25.27,13.31c-0.31,0.19-0.62,0.36-0.94,0.52c-2.65,1.37-14.44,7.49-16.64,8.62
			c-0.23,0.13-0.45,0.25-0.68,0.38l-10.2,6.38l4.46-1.99c0.47-0.21,0.92-0.46,1.34-0.74l4.95-3.27c0.32-0.21,0.66-0.41,1.01-0.58
			l13.06-6.46l4.87-2.43c0.33-0.17,0.66-0.34,0.99-0.53l13.85-8.07c0,0,15.88-8.41,23.56-11.09c0,0.06,15.06-6.38,29.75-8.38
			c0,0.12,36-6.55,36.19-6.59c0,0.02,24.98-5.51,35.08-9.74c0.28-0.12,0.55-0.22,0.85-0.31c3.56-1.07,28.36-8.63,37.5-13.48
			c0.16-0.08,0.3-0.15,0.46-0.23c1.61-0.72,12.76-5.9,22.26-11.46c0.24-0.13,0.48-0.25,0.73-0.38l18.5-8.64
			c0,0,11.85-5.83,19.56-13.44c0.35-0.35,0.66-0.72,0.95-1.12c1.24-1.7,5.05-7.04,5.91-11.87c0.28-1.58,0.1-3.23-0.52-4.71
			c-0.63-1.52-1.78-3.1-3.7-2.35c0,0-4.92,0.75-9.79,3.96c-0.04-0.08-5.88,2.67-10.54,11.88c0,0-4.12,5.47-4.78,19.94
			c-0.02,0.36-1.86,7.22,5.74,20.34c-0.06-0.06,3.85,7.55,14.35,14.36c0,0,10.44,6.69,25.81,9c-0.06-0.12,4.46,1.27,13.58,0.52
			c0,0.04,7.46-0.5,12.88-5.46c0-0.04,5.39-4.34,9.21-5.62c-0.08-0.04,6.12-2.71,6.12-2.71S2634.38,143.28,2639.08,137.78z"/>
		<path d="M2310.21,197.45c0,0,9.51-8.16,18.17-11.83c0.48-0.2,0.95-0.43,1.39-0.7c3.1-1.86,17.42-10.67,17.42-10.67
			s25.87-13.68,26.82-14.27c0.04-0.03,8.19-5.12,12.04-6.19c0.03-0.01,0.05-0.02,0.08-0.03c0.74-0.35,12.44-4.68,13.67-4.89
			c0.04-0.01,0.06-0.01,0.1-0.02c0.98-0.34,16.57-5.81,22.84-8.62c0.02-0.01,0.03-0.01,0.04-0.02c0.6-0.22,14.6-6.07,17.68-7.35
			c0.4-0.17,0.79-0.35,1.17-0.54l19.3-9.87l6.9-3.78c0.01-0.01,0.02-0.01,0.03-0.02c0.6-0.38,21.29-13.58,22.32-13.87
			c-0.08-0.04,7.92-4.46,9.79-5.25c0.04-0.08,12.77-5.93,18.61-10.38c0.47-0.36,0.97-0.68,1.48-0.98
			c1.78-1.06,6.44-4.25,11.08-10.26c0.04-0.04,1.17-1.69,1.17-1.69s0.38-0.52-0.42-0.27c-0.08,0.04-6.95,1.79-15.7,15.81
			c-0.01,0.01-0.02,0.03-0.02,0.04l-8.36,15.31c0,0-3.33,6.71-4.83,14.04c-0.16,0.61-1.31,5.55,1.78,11.69
			c0.01,0.01,0.01,0.02,0.02,0.04c0.32,0.56,2.48,4.8,9.49,8.35c0.42,0.21,2.01,0.88,2.62,1.08c0.55,0.18,1.13,0.32,2.15,0.7
			c0.03,0,2,0.81,3.56,1.06c0,0,1.25,0.22,2.19,0.5c0.92,0.28,1.91,0.29,2.83,0.01c0.01,0,0.02-0.01,0.04-0.01
			c0.02,0.27-0.06,0.62-0.06,0.62s-0.56,0.53-3.03-0.03c-0.03-0.03-3.06-0.62-5.81-1.72c-0.03-0.03-2.95-0.97-4.25-1.65
			c-0.49-0.25-4.9-1.72-10.06-8.1c0,0.03-3.47-5.08-2.06-12.96c0-0.02,0.01-0.05,0.01-0.07c0.14-0.59,2-8.7,4.41-12.71
			c0-0.04,6.12-11.58,6.12-11.58s4.79-8.17,5.79-9.33c0.04,0.04,6.38-9.56,13.12-11.51c0.08-0.07,2.17-1.28,1.5,0.18
			c-0.04-0.04-0.57,2.06-4.94,6.24c-0.36,0.35-0.71,0.71-1.03,1.09c-0.81,0.96-3.35,3.51-9.32,6.88c-0.08,0.04-4.75,3.79-10.21,6.42
			c0.04,0-12.04,5.67-16.62,8.46c-0.08,0-14.88,9.17-14.88,9.17s-12.91,8.09-16.67,9.76c-0.63,0.28-1.23,0.59-1.83,0.93
			c-6.99,3.95-15.93,8.33-16.42,8.55c-2.26,1-6.88,2.84-6.88,2.84l-17.67,7.38l-11.04,4.12c0,0-16.46,5.71-17,6
			c-0.04,0.04-7.5,2.54-12.62,5.96c0.04,0-12.23,6.59-14.39,7.74c-0.21,0.11-0.41,0.21-0.62,0.31c-1.86,0.86-11.85,5.52-16.1,9.03
			c-0.03,0.02-0.06,0.04-0.09,0.06c-0.82,0.44-15.71,9.46-16.28,9.81c-0.01,0.01-0.02,0.01-0.03,0.02
			C2328.14,186.74,2314.98,193.4,2310.21,197.45z"/>
		<path d="M2296.37,206.36l21.38-14.24c0.06-0.04,0.11-0.07,0.17-0.1c1.08-0.54,10.67-5.21,13.92-6.62c0.15-0.07,1.6-0.8,1.75-0.88
			c1.69-0.8,12.72-4.85,18.86-5.83c0.04-0.01,17.38-3.71,17.38-3.71s10.68-2.49,19.88-2.46c0.03,0,0.05,0,0.08,0
			c0.93-0.07,18.19-0.7,22.9-0.41c0.33,0.02,0.64,0.02,0.97,0.01c3.34-0.11,21.64-0.61,27.99-1.78c0.32-0.06,0.63-0.11,0.96-0.15
			c2.04-0.23,11.69-1.53,19.4-3.71c-0.04,0,29.08-7.08,29.08-7.08l21.25-5.62c0,0,16.77-4.68,25.11-9.17
			c0.43-0.23,0.86-0.46,1.3-0.68c2.4-1.15,12.97-6.48,19.21-10.34c0.05-0.03,0.08-0.05,0.13-0.09c0.93-0.71,18.39-12.83,18.79-13.22
			c0.04-0.08,7.83-5.54,10.42-9.12c0.04-0.04,9.04-9.58,9.29-18.71c-0.06,0,0.61-3.57-1.18-7.99c-0.05-0.12-0.73-1.52-0.82-2.57
			c-0.01-0.14-0.18-0.31-0.59-0.23c-0.16,0.03-1.67,0.07-3.48,2.48c-0.03,0-1.94,3.62-4.59,4.81c0,0.06-4.25,1.84-5.22,5.75
			c0,0-2.12,6.07-2.6,8.34c-0.01,0.07-0.03,0.14-0.06,0.21c-0.31,0.84-0.37,1.16-0.64,1.87c-0.5,1.3-0.92,2.63-1.17,4
			c-0.61,3.26-0.98,8.86,1.35,15.82c0.31,0.91,0.76,1.77,1.34,2.54c1.48,1.97,4.64,5.05,9.86,5.18c0.31,0.01,0.62-0.01,0.93,0.03
			c1.16,0.16,4.47,0.4,6.5-0.1c-0.08,0.04,0.21,0.21,0,0.75c-0.04-0.04-10.3,1.46-15.58-2.96c0,0-4.22-2.21-5.51-13.43
			c-0.11-0.95-0.17-1.98-0.15-2.93c0.05-2.46,0.75-5.31,1.2-7.29c0.22-0.95,0.62-1.85,0.87-2.8c0.36-1.34,0.85-3.15,1.14-4.22
			c-0.04,0,2.33-8.79,6.04-10.21c0,0.04,4.29-2.21,5.79-5.33c-0.08,0.12,1.83-3.21,4.54-3.17c0.04,0.04,0.88-0.54,0.71,0.67
			c0,0.04,0.29,1.79,1,2.96c0.04,0,3.12,6.17-0.88,14.67c0.04,0.08-4.38,12.46-20.67,23.17c0,0-15.19,11.19-23.19,15.5
			c0,0-12.19,7.15-26.62,12.45c-0.12,0.05-20.75,7.07-44.22,12.44l-0.35,0.09c-2.03,0.52-25.74,6.09-25.74,6.09
			s-9.17,2.47-25.56,3.14c0,0.04-29.87,0.84-34.52,0.97c-0.42,0.01-0.83,0.04-1.25,0.08c-5.23,0.52-41.07,4.28-54.67,10.12
			c0.06,0.06-2,0.38-6.81,2.81c0,0.06-11.56,6.4-11.56,6.4L2296.37,206.36z"/>
		<path d="M2576.54,162.76l-0.31-0.46c0,0-0.35,0.69-2.23,0.12c-0.02,0-0.92-0.35-1.98-0.62c0,0-1.54-0.34-3.69-2.15
			c-0.12-0.1-0.23-0.21-0.34-0.32c-0.69-0.72-3.27-3.54-3.97-6.47c-0.04-0.16-0.55-1.96-0.69-3.6c-0.02-0.24-0.49-3.69-0.71-5.25
			c-0.07-0.5-0.11-1.01-0.12-1.52l-0.21-8.41c0-0.1-0.01-0.19-0.02-0.29c-0.1-1.13-0.79-9.09,0.18-14.3c0.04,0.04,0.17-6.5,5.38-14
			c0,0,2.82-5.54,10.96-11.33c0-0.04,3.32-2.41,4.62-4.23c0.51-0.72,1.14-1.34,1.82-1.91c0.48-0.4,0.98-0.81,1.31-1.08
			c0,0,0.73-0.59-0.36-1c0.06,0-3.25-1.66-3.25-1.66s-0.81-0.5-1.19,0.47c-0.03,0-1.44,4.12-3.59,6.12c-0.03,0-6.12,6.91-7.25,8.38
			c-0.03,0.03-4.56,6.69-4.56,6.69l-5.33,8.58c-0.28,0.46-0.54,0.93-0.78,1.41c-0.99,2-4.35,7.91-7.89,12.97
			c-0.08,0.12-0.17,0.23-0.27,0.34c-0.6,0.7-4.08,5.08-10.07,9.74c-0.04-0.04-13.08,10.33-15.42,11.58
			c-0.04-0.04-10.34,5.68-18.45,7.42c-0.37,0.08-0.75,0.11-1.11,0.19c-2.04,0.5-11.07,2.4-22.76,2.43c-0.3,0-0.61,0.02-0.91,0.05
			c-1.72,0.18-10.15,0.71-16.65,2.27c-0.14,0.03-0.27,0.06-0.42,0.08c-2.07,0.28-18.47,2.48-23.24,2.53c-0.25,0-0.5,0.01-0.76,0.04
			c-1.93,0.2-12.03,1.09-23,0.58c-0.09,0-0.17-0.01-0.26,0c-1.22,0.02-14.85-0.09-19,0.34c-0.37,0.04-0.73,0.06-1.1,0.07
			c-2.2,0.05-10.31,0.39-13.93,1.46c-0.32,0.09-0.63,0.18-0.96,0.25c-1.66,0.31-7.71,1.53-14.76,3.67
			c-0.04,0.08-15.92,4.42-25.46,8.48c-0.15,0.06-0.3,0.12-0.45,0.17c-1.02,0.31-8.21,3.14-12.15,7.31c-0.02,0,14.57-8.2,21.64-9.98
			c0.37-0.09,0.73-0.19,1.08-0.31c2.7-0.94,16.58-5.47,21.12-6.42c0.1-0.02,0.2-0.05,0.3-0.07c1.24-0.35,11.05-2.9,14.95-3.21
			c0-0.04,15.67-0.96,15.67-0.96s12.62-0.21,19.17,0c0.04,0,4.01,0.25,19.42-0.78l0.33-0.03c1.63-0.18,18.11-1.64,26.79-3.4
			c-0.04-0.08,8.42-1.71,18.79-1.67c-0.04,0,7.71-0.25,17.92-2.58c-0.08,0.04,10.5-1.67,21.08-9.29c0,0,14.5-9.96,22.12-18.62
			c0,0.04,4.08-4.62,6.5-9.96l2.06-3.88c0.04-0.08,0.09-0.15,0.13-0.23c0.81-1.33,8.54-13.93,9.81-15.35
			c0.19-0.29,4.71-6.08,5.88-7.08c0,0,3.79-3.99,5.09-6.25l0.18-0.35c0.19-0.38,0.78-1.48,1.1-2.46c-0.03,0,0.22-0.5,0.62-0.22
			c-0.03,0,2.94,1.62,2.94,1.62s0.53,0.16-0.03,0.41c0-0.02-0.85,0.58-1.71,1.38c-0.5,0.47-0.93,1.01-1.33,1.58
			c-0.41,0.58-1.2,1.51-2.46,2.2c0,0-5.88,4.75-7.66,6.72c-0.03,0.06-3.66,3.75-7.06,9.5c0-0.03-1.85,3.36-3.3,8.47
			c-0.14,0.48-0.24,0.96-0.31,1.46c-0.23,1.51-0.61,4.79-0.66,10.36c-0.03,0,0.4,13.97,0.94,18.93c0.04,0,0.5,7.79,4,11.04
			c0.17,0.18,2.48,3.1,4.83,3.79c0.04,0.04,2.25,0.7,2.88,0.92C2574.12,163.16,2575.62,163.74,2576.54,162.76z"/>
		<path d="M2600.42,146.57c0,0,0.17-0.68,0-0.69c-1.17-0.07-7.62,3.58-21.31-1.87c0-0.01-8.06-2.45-16.25-15.45
			c-0.06,0.12-7.6-16.13-6.06-26c0,0.19,0.31-7.56,7.06-17.44c-0.12,0,8.25-12.81,10.19-14.19c-0.06-0.06,3.94-4.12,3.94-4.12
			l3.94-3.88c0,0,3.12-3.44,5.81-3.69c0.06,0,1.06-0.56,1.06,0.69c0,0-0.06,1.44,1.19,2.94c0.06,0,3.62,5-0.75,14.63
			c0.06-0.12-1.72,5.31-9.19,13.44c0,0.06-7.56,8.56-17.31,15.25c0.06,0.06-15.96,10.91-25.25,15.63
			c0.32-0.16-23.12,11.19-37.56,15.88c-0.06,0.06-26.19,8.5-26.19,8.5s-19.96,6.14-31.79,8.2c-0.26,0.04-0.5,0.09-0.75,0.15
			c-1.87,0.44-15.13,3.02-22.67,3.31c-0.51,0.02-1.01,0.06-1.51,0.13c-3.15,0.43-16.53,2.09-16.53,2.09s-15.93,2.5-22.12,5.4
			c-0.45,0.21-0.89,0.4-1.36,0.56c-1.56,0.55-6.81,2.9-14.75,4.99c-0.89,0.23-1.75,0.54-2.57,0.93
			c-4.71,2.26-21.26,10.19-21.26,10.19s-18.1,8.11-18.75,8.88c-0.65,0.76-27.81,18.31-27.81,18.31l28.52-17.81
			c0.41-0.25,0.83-0.49,1.26-0.7l18.1-8.87c0,0,16.44-7.92,20.48-9.25c0.53-0.17,1.04-0.37,1.55-0.61c1.34-0.62,4.04-1.78,7.16-2.52
			c0.12,0,5.31-1.81,6.56-2.31c-0.06-0.12,10.75-3.56,13.75-4.19c0.06-0.06,8.12-1.69,22.44-3.25c-0.25,0.19,20.75-2.94,21.19-3
			c0.06,0,17.66-3.01,25.28-5.4c0.36-0.11,0.71-0.22,1.07-0.32c3.12-0.84,25.24-7.3,29.37-8.9c0.45-0.17,0.9-0.33,1.36-0.47
			c3.97-1.26,19.64-6.46,33.1-12.41c0-0.06,19-7.69,30.19-16c0-0.06,14.97-8.92,25.88-20.72l0.47-0.5
			c1.04-1.05,10-10.67,11.59-18.34c-0.06,0,2.54-5.77-0.92-11.73c-0.04,0.04-0.75-1.04-0.75-2.67c0-0.04,0.21-1.08-1.67-0.88
			c-0.04,0-3.14,0.86-4.29,2.42c0.04-0.04-6.96,6.54-6.96,6.54s-3.17,3-6.46,7.46c0,0-5.09,6.99-7.94,12.01
			c-0.25,0.43-0.49,0.86-0.77,1.28c-0.89,1.34-3.6,5.95-5.38,14.12c-0.04,0-0.83,6.71,2.04,15.42c0.04,0,2.17,10.54,9.25,17.75
			c0.04-0.08,5.04,7.88,16.83,10.96C2584.17,146.44,2592.58,149.23,2600.42,146.57z"/>
		<path d="M2588.54,141.78c0,0,0.14-0.62,0-0.58c-2.68,0.67-10.36,6.23-24.29,3.42c0.04-0.04-5.4-0.52-17.96-7.12
			c0,0-7.62-3.75-16.17-14.46c0,0-3.26-3.59-4.05-13.13c-0.11-1.31-0.07-2.63,0.1-3.94c0.28-2.14,0.86-5.7,1.99-9.18
			c0.15-0.48,2.19-6.7,5.23-11.86c0.37-0.62,0.67-1.28,0.98-1.94c1.27-2.69,4.43-9.09,5.87-10.07c0,0,4.17-4.25,8.96-5.5
			c0.04-0.08,0.38-0.33,0.38,0c0.04,0.04,0.81,4.86-2.62,11.15c-1,1.83-2.3,3.49-3.85,4.87c-2.46,2.19-7.19,5.57-15.86,9.22
			c0,0-15.79,7.33-20.54,11c-0.53,0.38-10.17,6.87-13.84,9.46c-0.36,0.25-0.72,0.49-1.1,0.71c-2.57,1.54-13.11,7.91-14.89,8.75
			c0.08,0-17.87,9.17-17.87,9.17s-16.21,8.08-21.55,9.75c0-0.04-21.88,7.54-21.88,7.54l-14.08,4.64c-0.37,0.12-0.75,0.23-1.13,0.33
			c-3.04,0.79-17.46,4.78-23.08,7.9c-0.54,0.3-1.07,0.59-1.61,0.87c-2.98,1.47-10.68,5.26-10.68,5.26s-11.28,5.21-17.61,7.35
			c-1.66,0.56-3.24,1.34-4.69,2.33l-14.84,9.76l18.73-10.14c0.28-0.15,0.56-0.3,0.83-0.47c1.16-0.69,5.16-2.94,10.42-4.43
			c1.34-0.38,2.63-0.89,3.86-1.55c2.59-1.4,6.84-3.69,6.84-3.69l7.28-3.64c0.33-0.17,0.66-0.34,0.98-0.53
			c1.39-0.79,6.23-3.37,14.04-5.63c-0.04-0.04,15.98-4.49,24.26-7.33c0.16-0.05,0.31-0.11,0.47-0.17c1.62-0.6,21.06-7.36,21.06-7.36
			s11.08-4.26,15.71-6.8c-0.04-0.04,19.17-9.67,19.17-9.67s10.93-5.68,16.55-9.29c0.25-0.16,0.51-0.32,0.77-0.47
			c1.15-0.67,5.38-3.26,11.93-8.07c-0.04,0,11.17-7.42,12.79-8.04c0-0.04,11.5-6.28,17.71-8.78c0.51-0.2,0.99-0.44,1.48-0.69
			c2.51-1.3,10.1-5.33,11.77-8.08c-0.04,0.08,4.29-4.21,5.17-9.04c0.04,0.04,1.04-3.17,0.67-5.54c-0.04-0.04,0.08-1.29,0.08-1.29
			s0.33-0.42-0.54-0.25c-0.04,0.04-7.19,1.59-12.07,8.55c-0.4,0.56-0.74,1.17-1.05,1.78c-1.3,2.5-4.77,9.19-5.87,11.31
			c-0.24,0.47-0.46,0.94-0.66,1.42c-0.8,1.92-2.86,7.13-3.89,11.82c-0.04-0.08-2.08,7.96-0.33,14.37c0,0,1.25,6.21,6.5,11.21
			c-0.04,0,6.46,6.79,13.04,10.79c0,0,9.12,6.42,22.25,8.17C2567.75,145.95,2577.25,147.45,2588.54,141.78z"/>
		<path d="M2535.17,139.82c0.25,0.38,1.12,0.33,1.08-1.46c-0.04-0.04-0.42-3.79,3.38-8c0-0.04,4.88-4.63,6.65-15.1
			c0.01-0.05,0.02-0.1,0.02-0.16c0.02-0.51,0.55-4.99,0.37-6.2c-0.02-0.13-0.01-0.27,0.01-0.4c0.15-1.11,0.68-6,3.24-10.24
			l0.16-0.22c0.43-0.55,2.83-4.4,2.24-10.8c-0.01-0.1-0.03-0.2-0.05-0.3c-0.29-1.06-2.1-8.43,1.7-10.6
			c0.13-0.07,0.27-0.12,0.41-0.15c0.23-0.05,0.63-0.16,0.63-0.16s0.79-0.88-0.54-0.58c0,0.08-1.29,0.21-3.21,1.67
			c0.04,0-0.17-0.38-2.25,3.96c0.04,0-4.71,8.83-7.75,12.17c0,0.08-4.46,4.67-13.33,8.5c0.04,0.04-20.71,9.21-24.38,11.29
			c0.04,0-18.96,9.96-18.96,9.96s-13.54,6.96-17.67,8.58c-0.04,0-11.83,4.96-11.83,4.96s-9.42,4.04-13.54,5.38
			c0,0.04-14.08,4.71-14.08,4.71s-15.59,5.24-17.83,5.58c0.04-0.04-13.58,4.27-19.73,5.23c-0.09,0.01-0.17,0.04-0.26,0.07
			c-1.08,0.41-9.43,3.41-9.43,3.41l10.71-2.71c0,0,15.76-4.18,18.64-5.44c0.07-0.03,0.13-0.05,0.2-0.07
			c1.47-0.38,21.21-6.45,21.21-6.45s13.67-4.66,16.1-5.88c0.04-0.02,0.07-0.03,0.1-0.05c0.82-0.3,13.83-5.61,13.83-5.61
			s11.54-4.83,14.88-6.62c0,0.04,16.62-8.46,16.62-8.46s16.36-8.84,19.21-9.9c0.57-0.21,1.11-0.46,1.66-0.71l15.67-7.14
			c0,0,10.17-4.92,13.12-9c0-0.04,3.19-4.02,6.02-9.29c0.02-0.03,0.03-0.07,0.05-0.1c0.29-0.62,3.46-6.34,3.56-5.61
			c0,0-1.5,1.68-0.75,6c0.04,0,1.99,6.57-1.42,13.5c0,0.04-2.05,4.56-3.06,7.28c-0.06,0.17-0.09,0.33-0.08,0.51
			c0.08,1.75-0.96,14.14-2.89,17.48c-0.41,0.71-1.29,3.42-4.37,7.44c-0.48,0.62-2.88,2.42-3.73,7.46
			C2535.46,137.57,2535.17,139.82,2535.17,139.82z"/>
		<path d="M2484.61,187.21"/>
		<path d="M2834.22,222.47l-0.79-1.65l-1.83,0.04c-0.06,0-3.37,0.08-6.94,0.15l0.36-0.42c0.65-0.75,1.11-2.09,0.48-3.6l-0.73-1.74
			l-2.01,0c-0.23,0.01-1.6,0.05-3.41,0.05c-2.01,0-3.78-0.05-5.27-0.16c-0.42-0.03-0.84-0.05-1.26-0.05c0,0-0.99,0.01-1.51,0.01
			c-2.09,0-5.26-0.03-5.26-0.03l-0.17,0c-0.32,0-1.57-0.03-3.72-0.33l0.62-0.3l-1.37-2.58c-0.21-0.4-0.84-1.36-2.09-1.73l-0.21-0.07
			c1.76-0.02,3.57-0.16,5.41-0.43l1.72-0.26l0.55-1.65c0.12-0.37,0.37-1.36-0.05-2.5l-1.08-2.96l-2.68,1.32
			c-0.26,0.07-1.29,0.3-3.43,0.3c-0.11,0-0.24-0.01-0.36-0.01c-0.17-0.58-0.48-1.12-0.94-1.54l-1.58-1.81l-1.85,1.49
			c-0.26,0.11-1.29,0.5-3.33,0.5c-1.44,0-3.07-0.19-4.86-0.56c-0.46-0.1-0.95-0.23-1.55-0.43l-0.23-0.08
			c-1.11-0.36-2.86-0.93-4.3-1.42c-0.25-0.08-0.48-0.19-0.71-0.3c-0.58-0.27-1.22-0.47-1.92-0.6c1.29-1.48,2.3-3.26,2.4-4.97
			c0.02-0.25,0.01-0.74-0.17-1.29c2.9,0.74,7.19,1.91,10.42,3.1l3.82,1.42v-0.36c2.43,0.54,4.79,0.82,7.06,0.82c0,0,0,0,0,0
			c1.63,0,3.2-0.15,4.66-0.44l1.27-0.25l0.64-1.13c0.65-1.15,0.45-2.28,0.33-2.71l-0.78-2.71l-2.72,0.73
			c-0.01,0-0.98,0.26-2.83,0.26c-1.81,0-4.82-0.25-8.83-1.45l-0.02,0.07c-3.31-1.35-11.81-3.48-11.9-3.5
			c-0.68-0.15-1.35-0.32-2.03-0.5l-1.36-0.36c-1.53-0.41-3.84-1.02-4.42-1.22c-0.16-0.06-0.3-0.09-0.41-0.12
			c-0.42-0.1-0.84-0.23-1.27-0.36c0.13-0.01,0.26-0.02,0.39-0.03c0.2-0.01,0.4-0.02,0.6-0.02c0.24,0,22.79-0.24,27.99-0.67h0.16
			c0.12,0,14.15-0.86,22.07-3.99l0.14-0.06c0,0,0.15-0.06,0.24-0.08c1.16-0.39,3.86-1.31,7.33-3.65l1.25-0.84v-1.51
			c0-0.71-0.2-1.29-0.28-1.5l-0.07-0.18l-0.3-2.31c-0.09-0.69-0.23-1.02-0.28-1.15l-1.05-2.53l-2.57,0.97
			c-1.66,0.63-10.12,2.4-14.39,3.22c-0.24,0.05-0.48,0.11-0.71,0.18c-0.08,0.02-0.16,0.05-0.24,0.06c-1.5,0.31-4.53,0.62-9.02,0.9
			c-0.22,0.01-0.55,0.02-0.82,0.02l-0.23,0c-1.14-0.03-2.22-0.04-3.26-0.04c-6.23,0-10.36,0.43-11.85,0.61
			c-0.48,0.06-1.28,0.14-1.76,0.18c-6.83,0.6-12.22,1.92-15.53,2.92c-0.5,0.15-0.97,0.31-1.47,0.49c-1.48,0.54-4.78,1.65-5.98,2.04
			l-0.21-0.01l-0.5,0.25l-0.39-0.62l0.23-0.97c0.5-2.1-0.47-3.17-1.11-3.63c-0.74-0.53-1.58-0.8-2.49-0.8
			c-0.9,0-1.71,0.27-2.31,0.51l-0.12,0.05c-0.01,0.01-0.06,0.03-0.08,0.04c-0.06-0.1-0.12-0.19-0.2-0.28l-0.89-1l-1.56,0l-0.25,0.04
			c-1.51,0.27-2.4,0.51-4.01,1.51c0,0-0.1,0.06-0.13,0.08c-0.34,0.22-0.7,0.44-1.07,0.66c-0.46-0.13-0.93-0.25-1.41-0.37
			c0.12-0.18,0.26-0.36,0.41-0.53c0.86-0.49,1.56-1.1,2.53-1.93c0.33-0.29,0.71-0.61,1.17-1l0.53,0.25h0.09
			c2.69,1.06,5.59,1.62,8.4,1.62c2.69,0,5.25-0.52,7.61-1.53l1.24-0.02l0.75-1.69c0.51-1.17,0.3-2.53-0.53-3.5
			c1.22-0.28,2.38-0.63,3.43-1.1l1.18-0.53l0.37-1.24c0.13-0.45,0.54-1.81-0.37-3.04l-0.87-1.15l-1.82,0l-0.37,0.1
			c-0.36,0.1-0.75,0.23-1.18,0.37c-1.2,0.4-2.67,0.88-4.83,0.96c0.12-0.06,0.24-0.12,0.37-0.19c1.67-0.87,3.38-1.47,5.08-1.8
			c1.92-0.37,3.91-0.56,5.91-0.56c0.48,0,0.97,0.01,1.47,0.03l0.42,0.02c1.11,0.1,3.53,0.49,4.6,1.12l1.82,1.09l1.56-1.44
			c0.81-0.75,1.08-1.77,1.18-2.49l0.27-2.14l-1.99-0.83c-0.16-0.07-4-1.64-9.96-1.64c-2.23,0-4.5,0.22-6.75,0.65
			c-1.38,0.22-4.14,1.22-5.71,2.21l-0.04,0.03c-0.35,0.2-3.74,2.09-7.53,3.06l0.01,0.03c-0.77,0.2-1.98,0.64-3.38,1.31
			c-0.13-0.01-0.26-0.03-0.4-0.03c-1.01,0-1.99,0.18-2.89,0.55c-1.28,0.52-2.58,1.43-3.85,2.72c-0.69,0.71-1.22,1.48-1.55,2
			c-0.16,0.25-1.15,1.56-4.37,2.28l-0.45,0.1c-1.07,0.21-4.77,0.84-9.73,0.84l-0.66,0c-0.26-0.04-0.55-0.06-0.86-0.06
			c-0.02,0-0.05,0-0.08,0c-1.26-1.11-2.61-1.35-3.53-1.35c-0.68,0-1.37,0.13-2.06,0.37c-0.23,0.06-1.3,0.34-6.07,1.49
			c-0.19,0.05-0.38,0.08-0.58,0.1c-0.24,0.03-0.58,0.06-0.97,0.07c0.37-0.57,0.74-1.13,1.14-1.71c0.64-0.79,1.14-2,0.78-3.32
			c-0.2-0.74-0.84-2.06-2.86-2.64c-0.26-0.09-0.49-0.12-0.64-0.14c-0.23-0.03-0.65-0.09-1.21-1.11l-0.14-0.25l-0.58-0.68l-0.26-0.19
			c-0.8-0.59-1.66-0.86-2.79-0.86c-0.02,0-0.05,0-0.08,0c-0.04-0.28-0.1-0.54-0.17-0.76c-0.62-1.97-2.25-2.89-3.1-3.31l-0.02-0.02
			l-0.28-0.14c-0.46-0.23-0.83-0.68-1.1-1.11c1.71-0.89,3.88-1.83,6.61-2.68c0.1-0.03,0.21-0.06,0.32-0.1
			c0.48-0.12,1.01-0.19,1.59-0.19c2.57,0,5.3,1.21,6.46,1.72l0.22,0.1c1.74,0.76,3.74,1.87,5.96,3.31c0.01,0.01,0.03,0.02,0.04,0.03
			c2.18,1.85,4.29,2.25,5.69,2.25c0.8,0,1.41-0.13,1.78-0.24c0.01,0,0.08-0.02,0.29-0.03l0.31-0.02c1.3-0.07,2.37-0.13,2.86-0.15
			l0.04,0.01l0.51-0.01c0.16,0,0.27,0.01,0.35,0.02c0,0,0.07,0.11,0.07,0.11c1.06,1.92,2.28,3.86,3.63,5.78l0.05,0.07l1.05,1.85
			l2.15-0.62c1.97-0.57,2.68-2.02,2.68-3.18l0-0.98l-0.6-0.77c-0.32-0.41-2.92-3.99-3.35-4.61c-0.63-1.14-1.33-2.01-2.1-2.65
			l0.01-0.05c0.06-0.29,0.14-0.86,0.08-1.45l-0.09-0.8l-0.5-0.64c-1.15-1.45-1.04-2.51-0.88-3.01l0.47-1.44l-0.31-0.42
			c-0.12-0.75-0.44-1.27-0.68-1.58c-0.14-0.17-0.3-0.32-0.47-0.46c1.12,0.24,2.39,0.39,3.83,0.39c1.63,0,3.4-0.19,5.26-0.56
			l1.87-0.37l0.36-1.87c0.07-0.39,0.2-1.4-0.22-2.38l-0.12-0.29l-0.9-1.23l6.46-2.02l0.56-0.89c0.49-0.78,0.67-1.9,0.21-2.97
			l-0.07-0.69c0.15-0.07,0.3-0.15,0.44-0.22l0.14-0.07c0.16-0.08,1.11-0.45,4.21-0.45c4.52,0,10.26,0.78,12.15,1.03
			c0.3,0.04,0.49,0.07,0.62,0.08c1.79,0.33,3.59,0.5,5.37,0.5c3.85,0,6.41-0.78,7-0.98c3.96-1.14,9.7-2.79,11.16-3.2h0.28l0.6-0.3
			c1.77-0.89,2.2-2.84,1.71-4.31l-0.87-2.6l-12.06,3.58c-0.72,0.22-1.41,0.42-2,0.69l-0.02-0.06c-1.79,0.75-3.76,0.91-5.1,0.91
			c-1.49,0-2.51-0.19-2.52-0.19v0c-1.59-0.31-11.86-1.25-13.37-1.32c-0.86-0.09-1.73-0.14-2.58-0.14c-5.3,0-9.05,1.71-10.87,2.77
			c-1.79,0.92-5.23,2.31-7.43,3.17l-0.01-0.01l-2.18,0.82c-1.49,0.56-3.91,1.16-6.99,1.76c-0.77-0.53-1.78-0.96-3-0.96
			c-0.71,0-1.42,0.15-2.11,0.44c-0.44,0.18-0.86,0.37-1.27,0.55c-0.66,0.29-1.29,0.57-1.98,0.83c-0.62-0.53-1.42-0.82-2.29-0.82
			c-0.59,0-1.22,0.13-1.9,0.4l-1.82,0.72l0,0.03c-0.85,0.28-2.13,0.65-3.92,1.06c-0.12,0-0.22,0-0.34,0h-0.04
			c-0.5-0.02-2.73-0.12-4.03-0.18c-0.21-0.01-0.48-0.06-0.84-0.17c-0.74-0.21-1.64-0.32-2.68-0.32c-2.15,0-4.92,0.47-8.24,1.37
			c-0.16,0.02-0.3,0.03-0.42,0.05c-0.06,0-0.13,0-0.19,0c-0.63-0.14-1.24-0.23-1.86-0.27c-1.06-0.07-3.34-0.4-5.83-1.64
			c-0.73-0.54-1.41-0.94-2.01-1.21c-0.28-0.2-0.56-0.38-0.84-0.61l-0.78-0.63h-0.11c-2.6-1.71-5.89-2.65-9.35-2.65
			c-0.56,0-1.12,0.02-1.68,0.07c-1.48,0.03-4.5,0.58-8.73,3.89l-0.14,0.11l-0.05,0.05c-1.37,1.18-8.32,6.83-12.48,8.64l-2.26,0.98
			l0.03,0.1c-1.63,0.69-4.48,1.76-9,3.06c0.29-0.32,0.58-0.66,0.89-1.02l0.68-0.8v-8.87l-4.92,5.37c-0.04,0.04-0.08,0.09-0.12,0.13
			l-0.08-0.01h-0.25c-0.54,0-0.84,0.11-1.63,0.41c-0.95,0.36-2.93,1.11-4.71,1.6l-1.58,0.43l-0.04,0.17
			c-1.95,0.9-4.93,2.93-7.9,7.41c-0.58,0.33-1.16,0.67-1.72,1.02c-0.6,0.37-1.17,0.81-1.74,1.34c-1.41,1.29-6.45,5.51-12.29,5.75v0
			c-0.09,0-0.22,0.01-0.4,0.04c-1.28,0.16-2.67,0.23-4.11,0.26c-2.1-0.62-4.22-1.17-6.34-1.64l-0.88-0.19l-0.83,0.35
			c-0.22,0.09-0.69,0.32-1.16,0.72c-0.62-0.11-1.24-0.22-1.86-0.36l-3.45-0.77v0.03c-2.13-0.55-5.18-1.46-8.73-2.8
			c0.29-0.32,0.56-0.63,0.81-0.91c0.53-0.1,1.07-0.21,1.63-0.33c1.18,0.45,2.43,0.86,3.76,1.21c0.68,0.22,4.63,1.39,9.57,1.39
			c0,0,0,0,0,0c3.02,0,5.84-0.44,8.39-1.3l1.46-0.5l0.38-1.49c0.11-0.45,0.46-1.83-0.41-3.03l-0.83-1.1l-1.33-0.08l-0.21-0.01
			c-0.58,0-1.11,0.14-1.78,0.33c-0.51,0.14-1.18,0.32-2.02,0.48l-0.27-1.76h-2.46c-0.09,0-1.12-0.01-2.43-0.36
			c0.06-0.62,0-1.5-0.62-2.28l-0.88-1.08l-1.72,0l-0.34,0.08c-0.13,0.03-0.27,0.08-0.41,0.12c0.03-0.08,0.06-0.16,0.1-0.26
			l-0.01-0.01c0.15-0.38,0.31-0.9,0.44-1.53c0.23-0.18,0.43-0.39,0.63-0.6c1.28,0.14,2.52,0.2,3.63,0.2c1.15,0,2.15-0.05,2.9-0.11
			l2.15,2.18l1.58-4.1c0.26-0.67,0.46-1.72-0.06-2.86l-2.29,0.97l-0.97-2.63c-0.33,0.08-1.1,0.22-2.54,0.22
			c-0.81,0-1.58-0.04-2.14-0.09c0.11-0.2,0.21-0.33,0.28-0.38c1.79-0.44,7.81-2.36,10.71-8.85c0.41-0.74,2.21-4.06,4.13-9.4
			l0.79-2.19l-0.03-0.02c0.73-2.06,1.97-5.54,3.52-9.88c0.08-0.22,0.14-0.43,0.2-0.66c0.24-0.98,0.76-3.48,0.5-5.64
			c-0.09-0.73-0.31-1.44-0.67-2.12c1.07-1.02,2.98-3.07,6.88-7.27c7.4-7.95,7.64-8.47,7.89-9.01l-0.44-0.2c0,0,0.01-0.01,0.01-0.01
			l-1.33-1.14h2.01v-8.36l-4.99,5.81c-3.43,4-7.33,8.46-8.1,9.23l-1.73,1.27l0.17,0.37c-1.41,1.49-3.75,3.95-5.44,5.72
			c-1.26,1.02-1.99,2.96-1.11,5.06l0.02,0.06c0.15,0.46,0.52,2.03,0.23,3.33c-0.03,0.12-0.06,0.31-0.08,0.58
			c-0.11,1.35-0.78,3.41-1.99,6.11l0.04,0.02c-0.22,0.43-0.39,0.89-0.56,1.32l-3.32,8.86c-0.07,0.19-0.13,0.37-0.18,0.56
			c-0.7,2.58-2.77,7.39-6.08,9.21c-0.36,0.15-0.88,0.38-1.67,0.74c-0.07,0.03-0.14,0.05-0.22,0.07c-0.56,0.12-2.11,0.59-3.55,1.97
			c0.1-0.67,0.36-1.66,1-3.03c0.03-0.06,0.07-0.12,0.11-0.19c2.25-3.73,2.96-4.49,3.06-4.59l0.61-0.52l0.25-0.76
			c0.46-1.39,0.26-3.09-0.71-4.37c1.11-1.35,2.04-2.6,2.79-3.7c2.54-3.7,3.64-6.02,4.06-7.5l0.02,0.01
			c4.15-8.82,1.62-15.96,0.71-17.38l0,0c-0.24-0.42-0.44-1.13-0.54-1.59c0.03-0.95-0.24-1.75-0.8-2.39
			c-0.59-0.67-1.45-1.06-2.35-1.06c-0.34,0-0.64,0.05-0.88,0.12c-0.52,0.04-1.02,0.14-1.48,0.28c0.58-1.33,1.04-2.67,1.32-3.98
			c1.62-4.7,1.18-9.75-1.21-13.87l-0.23-0.4c-0.06-0.17-0.12-0.43-0.14-0.76c0.05-0.94-0.27-1.86-0.89-2.55
			c-0.52-0.58-1.49-1.27-3.15-1.27c-0.23,0-0.49,0.01-0.77,0.04l0,0.02c-1.18,0.19-4.4,1.27-6.08,3.3c-0.51,0.48-2.03,1.91-6.81,6.4
			c-0.14,0.13-3.39,3.23-6.8,7.85c-0.07,0.09-0.63,0.86-1.45,2.03c-2.01,0.66-4.6,1.73-7.19,3.44l0,0.01
			c-1.24,0.59-2.94,1.77-4.78,3.57c-0.03-1.55,0.21-2.87,0.81-3.37c0.29-0.07,0.58-0.16,0.58-0.16l0.76-0.22l0.54-0.6
			c0.96-1.06,1.23-2.4,0.71-3.57c-0.49-1.12-1.61-1.81-2.9-1.81c-0.33,0-0.67,0.04-1.06,0.12l-1.03,0.23
			c0.36-1.61,0.53-3.59,0.35-5.04c0.01-0.12,0.02-0.27,0.03-0.41c0.2-0.69,0.15-1.44-0.18-2.11c-0.51-1.06-1.56-1.69-2.8-1.69
			c-0.27,0-0.56,0.03-0.88,0.09l-0.86,0.16l-0.1,0.1c-2.82,0.87-8.51,3.29-12.79,9.28c-0.58-0.72-1.45-1.15-2.42-1.15
			c-0.93,0-1.86,0.4-2.49,0.76c-2.02,0.65-3.97,1.81-5.8,3.24c-0.26-1.55-1.36-2.79-3.05-3.32c-0.3-0.09-0.63-0.14-0.98-0.14
			c-1.43,0-6.69,0.65-14.38,9.05l-0.05,0.05l-4.43,5.34c-0.16,0.19-0.32,0.37-0.49,0.55c-3.19,3.34-7.71,7.73-9.93,9.1l0,0
			c-0.17,0.1-0.33,0.21-0.51,0.32c-1.23,0.81-4.96,3.28-9.18,5.08c-1.25,0.53-2.55,1.23-3.82,1.91c-0.79,0.42-1.54,0.83-2.2,1.14
			l-1.62,0.77v0.07c-0.03,0.02-0.07,0.04-0.1,0.05c-4.51,2.33-16.14,8.34-23.32,12.54c-1.9-0.44-4.1-1.07-6.56-1.87l-0.3-0.1
			c-3.48-1.23-6.96-1.86-10.35-1.86c-0.42,0-0.85,0.01-1.29,0.03l-0.6,0.03l-0.08,0.04c-1.45,0.14-6,0.53-8.83,0.76
			c-0.75,0.04-7.41,0.52-9.34,5.06l-0.23,0.53v0.58c0,1.71,1.38,2.47,1.83,2.73l2.52,1.68l1.28-2.67c0.18-0.22,1.08-1.16,3.25-1.32
			c0.07-0.01,8.65-0.9,10.35-1.13c0.07,0,0.16,0,0.29,0c0.84,0,5.27,0.09,9.85,1.83l0.49,0.19c-0.9,0.49-1.76,0.97-2.35,1.29
			c-0.84,0.4-8.84,4.07-14.16,6.51c-3.76,1.74-9.26,4.27-12.47,5.71c-0.76-0.26-1.41-0.46-1.93-0.59l-0.15-0.04
			c-1.03-0.35-5.64-1.93-9.43-3.55l-0.04-0.02c-0.14-0.07-0.36-0.19-0.66-0.35c-1.55-0.82-5.15-2.73-9.21-4.54
			c-0.25-0.14-0.49-0.25-0.71-0.35c-1.31-0.58-5.31-2.36-13.76-8.06l-1.53-1.03l-0.03,0.02c-0.97-0.73-2.7-2.09-5.75-4.61
			l-0.01-0.01c-0.47-0.44-2.6-2.79-3.55-3.88l-0.08-0.1c-0.54-0.69-2.98-3.74-6.12-6.02l-0.07-0.05c-0.89-0.72-4.16-3.85-5.08-7.13
			c-0.05-0.19-0.08-0.38-0.11-0.57c-0.02-0.12-0.04-0.24-0.06-0.35c-0.59-5.83-3.75-6.7-5.59-6.7c-1.41,0-2.77,0.51-4.04,1.05
			c-0.05,0.02-0.1,0.04-0.15,0.07c-0.41-1.58-1.67-2.97-3.62-3.18c-0.07-0.57-0.23-1.13-0.53-1.61c-0.64-1.03-1.76-1.65-3-1.65
			c-0.52,0-1.05,0.11-1.6,0.31c-1.32,0.51-5.28,3.63-6.32,9.19c-0.07,0.37-0.12,0.75-0.14,1.14l-0.05,0.05l-0.08,0.1
			c-0.08,0.09-1.22,1.45-3.77,3.79c-0.87-0.09-1.68-0.14-2.43-0.16c-0.65-1.01-1.8-2.37-3.65-2.21c-0.63,0.05-2.19,0.38-2.96,2.39
			c-0.2,0.51-0.23,0.95-0.24,1.25c-2.36,0.94-5.67,2.48-10.35,5.01c-1.6,0.54-3.31,1.28-5.14,2.25l-0.36,0.21
			c-0.78,0.46-4.61,2.49-9.2,4.88c-0.69,0.12-1.39,0.3-2.09,0.57c-2.18,0.55-6.38,2.48-9.73,4.82l-0.73,0.46l-0.27,0.16
			c-0.06,0.04-0.15,0.09-0.22,0.13c-1.8-1.16-3.39-2.06-4.76-2.68c-0.76-0.5-1.85-1.02-3.34-1.73c-0.31-0.15-0.86-0.35-1.56-0.35
			c-0.52,0-1.04,0.12-1.53,0.33c-0.19-0.03-0.38-0.06-0.57-0.06c-1.25,0-2.28,0.6-3.08,1.79l-0.29-0.02l-0.62,1.92
			c-0.43,0.68-2.11,2.69-3.24,3.94c-0.73-0.5-1.7-1.12-3.01-1.97c-0.41-0.29-1.12-0.68-2.06-0.68c-0.84,0-1.66,0.32-2.3,0.89
			l-0.1,0.09l-0.09,0.1c-0.46,0.49-0.66,1.02-0.83,1.44c-0.17,0.43-0.4,1.01-1.01,1.92c-0.22,0.24-0.82,0.9-1.51,1.65
			c-0.05-0.02-0.11-0.05-0.15-0.07c-0.39-0.2-1.03-0.44-1.83-0.44c-1.14,0-2.18,0.49-2.91,1.35l-0.08,0.09
			c-1.18,1.37-2.4,2.55-3.54,3.44c-0.13,0.02-0.25,0.05-0.38,0.07c-0.45,0.07-0.82,0.15-1.19,0.26c-0.56,0.17-1.67,0.44-2.28,0.53
			c-0.79,0.11-1.51,0.35-2.08,0.69c-0.06,0.03-0.31,0.1-0.73,0.15c-1.04,0.11-2.16,0.69-2.92,1.15c-0.05,0-0.1,0-0.16,0
			c-1.29,0.02-2.38,0.68-2.97,1.73l-5.7,1.45l2.44,1.18l-1.35,0.28l2.39,3.22c0.02,0.04,0.04,0.09,0.07,0.14
			c0.52,0.84,1.26,1.14,1.54,1.25l0.08,0.03c0.02,0.01,0.03,0.01,0.05,0.02l0.77,0.33l0.25-0.06c0.5,0.08,0.94,0.08,1.18,0.08
			c0,0,0,0,0,0c1.17,0,2.62-0.2,4.44-0.6l0-0.01c0.58-0.12,1.84-0.43,5.06-1.21c0,0,0.42-0.1,1.05-0.1c0.24,0,0.47,0.03,0.7,0.06
			l-0.28,0.84l2.85-0.53c0.3,0.02,0.6,0.03,0.91,0.03l0.25,0c3.3-0.06,11.54-0.45,18.81-2.66c0.54,1.27,1.38,2.9,2.7,4.71
			c1.1,1.64,3.53,4.63,7.39,6.19l0,0c0.28,0.16,0.57,0.3,0.85,0.44c5.54,2.74,7.17,3.66,7.55,3.94l0.77,0.61h0.24
			c1.07,0.65,3.85,2.51,7.33,6.01l0.83,0.84h0.08c4.53,4.17,8.39,7.22,11.48,9.09c0.11,0.08,0.39,0.27,0.77,0.53
			c3.74,2.57,7.7,5.28,8.93,6.02c0.07,0.05,0.12,0.08,0.17,0.11c1.6,1.06,3.26,2.34,4.93,3.81l0.34,0.3
			c0.26,0.3,0.79,1.12,0.88,2.76c0.01,0.76,0.21,1.84,0.58,3.51c-2.01,1.09-7.12,4.46-7.29,4.57c-0.13,0.08-0.26,0.17-0.38,0.27
			c-3.37,1.86-8.12,5.82-8.85,6.43c-0.21,0.15-0.43,0.29-0.63,0.4c-0.84,0.47-1.88,1.33-2.99,2.24c-0.75,0.62-1.6,1.32-2.09,1.63
			c-0.07,0.04-0.17,0.1-0.3,0.18c-0.41,0.24-0.93,0.55-1.35,0.86c-0.75,0.55-2.54,1.72-3.2,2.14c-0.25,0.16-0.48,0.35-0.72,0.56
			c-0.16,0.14-0.32,0.26-0.52,0.42l-0.17,0.13c-0.23,0.15-0.66,0.4-0.98,0.52c-0.76,0.28-1.34,0.82-1.69,1.5l-7.56,4.41h8.58
			l0.21,0.28h0.51l0.12,0.53l1.03-0.54l0.14,0l0.13-0.03c0,0,0,0,0,0l0.03-0.01c0.99-0.11,1.71-0.48,2.15-0.7
			c0.03-0.01,0.06-0.03,0.08-0.04c0.93-0.07,1.53-0.28,2.03-0.47c0.05-0.02,0.09-0.04,0.12-0.05c0.24-0.05,0.47-0.12,0.71-0.2
			c1.44-0.5,2.84-0.96,4.19-1.39c3.81-1.15,8.77-2.57,11.75-3.13l0.02,0l0.28-0.06c1.93-0.39,8.39-1.63,13.87-1.76
			c0.02,0.23,0.05,0.48,0.07,0.76l0.02,0.19l0.01,0.06c0,0.08,0.01,0.17,0.01,0.28c0.05,1.36,0.16,4.51,2.26,7.2
			c0.73,1.15,3.17,4.53,7.79,7.03l0.06,0.05c0.28,0.24,0.75,0.64,0.97,2.06l0.02,0.15c0.08,0.59,0.24,1.7,1.16,2.87
			c0.13,0.16,0.76,1.04,0.57,2.71l0.05,0c-0.28,2.26,1.24,5.37,2.24,6.68l0.09,0.12c2.32,3.06,4.94,4.81,7.8,5.19
			c0.27,0.04,0.54,0.05,0.81,0.05l0.48-0.01c0.38,0,0.72,0.07,1.04,0.21c1.71,1,4.07,1.56,7.01,1.65c0.79,0.12,3.95,0.74,5.57,1.25
			l0.42,0.13c2.65,0.82,5.21,1.25,7.43,1.25c1.77,0,3.33-0.28,4.65-0.82l1.87-0.77l-0.13-2.02c-0.09-1.45-0.98-2.66-2.26-3.08
			l-0.62-0.2l-0.64,0.08l-0.43,0.08l-0.31,0.12c-0.44,0.17-1.24,0.19-1.68,0.19c-1.16,0-2.62-0.16-4.32-0.47
			c-0.3-0.06-0.6-0.13-0.9-0.22c-0.2-0.06-4.94-1.39-8.57-1.9c-0.42-0.06-0.84-0.08-1.33-0.11c-0.46-0.02-1.48-0.15-3.16-0.75
			c-0.89-0.49-2.31-0.8-3.84-0.86c-0.11-0.01-0.21-0.02-0.3-0.03c-0.26-0.02-0.86-0.07-2.11-1.19l-0.08-0.08l-0.15-0.12
			c-0.17-0.13-1.6-1.26-1.93-2.96c-0.02-0.41-0.08-1.13-0.19-1.93c-0.16-1.23-0.71-3.12-1.46-4.34c-0.02-0.03-0.13-0.22-0.25-0.64
			c-0.13-0.42-0.2-0.88-0.21-1.37c-0.02-1.3-0.5-3.78-3.4-5.86c0,0-0.17-0.12-0.28-0.19c-4.06-2.66-4.8-3.51-4.82-3.54l-0.85-1.05
			h-0.11c-0.53-0.72-1.27-2.02-1.49-3.87l-0.01-0.09l-0.01-0.18c-0.02-0.35-0.04-0.71-0.07-1.06c3.53,0.72,8.93,1.74,13.45,2.28l0,0
			c0.39,0.07,0.9,0.14,1.59,0.24c3.01,0.43,10.05,1.43,20.64,3.24l0.01-0.04c1.43,0.26,5.85,0.86,21.52,2.99
			c8.94,1.25,22.83,3.24,24.49,3.62l0,0c0.22,0.06,0.47,0.1,0.74,0.15c6.58,1.22,13.84,2.97,21.56,5.2
			c0.57,0.17,1.15,0.32,1.73,0.45c6.75,1.56,15.15,3,24.3,4.15l0-0.02c0.35,0.07,0.67,0.11,0.9,0.13c1.43,0.15,4.76,0.49,8.22,1.2
			l0.71,0.18c0.22,0.06,5.62,1.4,21.13,2.3c0.85,0.05,1.7,0.07,2.54,0.08c1.37,0.02,5.93,0.34,9.6,0.6c2.99,0.21,5.57,0.4,6.61,0.43
			l0.48,0.02c2.06,0.13,10.94,0.87,15.89,1.28l4.25,0.35l0.96,0.09c5.04,0.52,10.74,1.26,16.97,2.2c0.67,0.1,1.35,0.18,2.03,0.26
			c0.22,0.02,0.53,0.06,0.93,0.11c2.26,0.28,7.56,0.95,15.62,1.44l0-0.06c0.66,0.11,1.4,0.16,2.2,0.21
			c1.33,0.09,3.11,0.21,4.88,0.32l7.15,0.46c0,0,14.23,0.63,19.21,0.81l0.19,0.02c3.41,0.34,7.24,0.52,11.4,0.52
			c2.94,0,6.01-0.09,9.13-0.26c0.55-0.03,1.1-0.08,1.66-0.14c2.72-0.02,4.91-0.07,6.5-0.16c0.09,0,0.18-0.01,0.27-0.01
			c0.11,0,0.59,0.01,0.76,0.01c1.88,0,5.64-0.31,10.91-1.13c1.4,0.2,2.74,0.36,3.98,0.47l0.46,0.04c2.17,0.2,5.46,0.51,10.18,0.51
			c7.4,0,15.96-0.76,25.44-2.27c0.61-0.1,1.53-0.24,2.14-0.31c2.55-0.28,9.59-1.34,19.89-5.03l0.99-0.34
			c2.22-0.7,16.72-5.7,16.86-5.75c0.38-0.13,0.75-0.24,1.14-0.35c2.1-0.57,8.14-2.56,20.67-9.03c0.67-0.15,1.35-0.31,2.07-0.48
			l5.29-1.04c0.25,0.21,0.5,0.41,0.76,0.63l1.21,1.04l0.14-0.04c2.63,1.81,5.41,2.75,8.26,2.77l0.07,0
			c0.62,0.05,6.33,0.53,10.69,2.9l0.02-0.04c2.77,1.88,8.42,2.03,8.5,2.03c2.11,0,4.13-0.37,6.01-1.09
			c0.81-0.25,1.62-0.87,1.95-2.06c0.03-0.12,0.05-0.24,0.07-0.36l1.62,0.5c0.16,0.05,0.32,0.1,0.47,0.16
			c1.01,0.38,3.63,1.3,6.15,1.79l0,0c0.62,0.16,4.54,1.27,6.2,1.9l0.1,0.03c1.04,0.35,6.46,2.12,11.41,2.12l14.74-0.26l0.52-0.23
			c0.77-0.34,1.38-0.99,1.67-1.8C2834.72,224.35,2834.66,223.38,2834.22,222.47z M2514.56,102.84l1.82-0.7v-0.27
			c1.71-0.92,4.77-2.54,7.97-4.13c-0.27,0.94-0.52,1.9-0.73,2.84c-0.22,0.1-0.45,0.2-0.68,0.3c-3.84,1.73-7.83,3.52-11.31,5.12
			l1.19-2.17C2513.64,103.34,2514.28,102.97,2514.56,102.84z M2532.15,94.11c0.05-0.02,0.11-0.04,0.16-0.07
			c0.56-0.22,1.12-0.49,1.72-0.8c2.72-1.41,4.85-2.64,6.53-3.69c-0.5,0.69-0.98,1.31-1.41,1.77l-0.18,0.2
			c-0.54,0.53-3.15,2.95-7.92,5.54C2531.27,96.46,2531.63,95.42,2532.15,94.11z M2567.16,85.16c0.71-1.09,1.77-2.69,2.91-4.36
			c0.1-0.03,0.2-0.06,0.3-0.08c0.17-0.04,0.35-0.09,0.52-0.14c0.01,0.02,0.54,1.55,0.54,1.55c0.16,1.54-0.18,5.19-4.79,11.32
			l-0.06,0.07l-0.08,0.14c-0.02,0.03-1.37,2.02-6.18,5.52c0.78-2.93,2.42-7.37,5.89-12.45l1.01-1.48L2567.16,85.16z M2512.7,112.37
			c0.65-0.24,1.27-0.52,1.85-0.78l7.96-3.63c-0.13,2.76,0.02,5.8,0.74,8.49c0.06,0.29,0.26,1.09,0.66,2.22
			c-0.28,0.16-0.58,0.33-0.84,0.49l-0.12,0.07c-1.32,0.75-9.89,5.29-17.05,8.62c-0.84-3.44-0.23-5.84-0.19-5.97l0.04-0.16
			c0.5-2.46,1.23-4.86,1.96-6.93C2510.1,113.57,2511.99,112.64,2512.7,112.37z M2580.52,123.53c-0.07,0.22-0.12,0.47-0.16,0.72
			c-0.03-0.08-0.07-0.15-0.1-0.22c-0.05-0.14-0.09-0.28-0.13-0.43c0.18-0.28,0.38-0.58,0.62-0.92c-0.09,0.28-0.18,0.56-0.25,0.84
			L2580.52,123.53z M2578.98,132.68c0.56,0.45,1.16,0.83,1.79,1.18c-1.11,1.02-2.23,2.46-3.15,4.32c-0.03,0.05-0.06,0.1-0.09,0.14
			c-0.25,0.41-0.51,0.83-0.78,1.24c-0.91-0.61-1.98-1.41-3.16-2.45c-0.31-0.71-0.9-1.27-1.64-1.53c-0.35-0.35-0.7-0.72-1.06-1.11
			c0.13-0.13,0.26-0.25,0.41-0.38c0.15-0.13,2.37-2.1,4.67-4.71C2577.18,131.33,2578.36,132.28,2578.98,132.68z M2560.93,158.4
			c-0.08,0.07-0.16,0.14-0.24,0.22c-1.23,1.24-5.87,5.56-14.11,9.23l-4.69,0.3c2.77-2.01,5.97-4.7,9.38-8.21
			c0.67-0.61,1.6-1.67,3.13-3.54c1.38-1.69,3.33-4.25,5.26-7.3l0.12,1.14h0.06c0.39,2.35,1.06,4.89,2.19,7.06
			C2561.61,157.76,2561.23,158.13,2560.93,158.4L2560.93,158.4z M2719.59,140.53c-1.7-0.33-3.71-0.64-5.41-0.88
			c0.36-0.24,0.71-0.49,1.08-0.75c0.72-0.51,1.45-1.02,2.19-1.49C2717.94,138.38,2718.64,139.42,2719.59,140.53z M2530.57,129.1
			c0.68,0.8,1.79,1.84,3.51,3.39c-0.56,1.21-1.06,2.7-1.38,4.56c-0.11,0.52-0.2,1.26-0.35,2.41l-0.13,1.03l0.57,0.87
			c0.17,0.27,0.39,0.49,0.62,0.69c-0.97,0.75-1.97,1.52-2.94,2.25l-0.26-3.5l-3.44,1.07c-0.17,0.05-0.35,0.08-0.54,0.08
			c-0.21,0-0.43-0.03-0.65-0.1c-1.07-0.32-2.36-0.55-2.55-0.58c-0.47-0.08-1.35-0.29-2.85-0.86c-0.06-0.02-0.12-0.04-0.19-0.07
			c-0.76-0.29-1.3-0.45-1.73-0.58c-0.17-0.05-0.33-0.1-0.48-0.15c-0.48-0.16-1.95-0.77-2.24-0.92c-1.16-0.59-2.22-1.23-3.2-1.91
			c3.9-1.51,7.97-3.16,11.86-4.88c0,0,0.61-0.27,0.7-0.31C2526.85,130.77,2528.74,129.93,2530.57,129.1z M2558.85,136.87
			c0.01,0.29,0.02,0.58,0.04,0.89c-0.16-0.16-0.33-0.36-0.53-0.57C2558.52,137.08,2558.68,136.97,2558.85,136.87z M2687.62,177.74
			c0.28,1.49,1.62,2.58,3.19,2.58l0.1,0l1.58-0.07l0.78-1.29c0.33-0.54,0.73-1.33,1.12-2.16c0.24,0.99,0.61,1.93,1.24,2.68
			c-2.37,0.65-7.24,1.94-9.8,2.29l-0.14,0.02c-0.54,0.1-12.58,2.41-24.4,7.97c-3.25,0.19-8,0.66-11.94,1.82l-0.07,0.02
			c-0.61,0.17-4.76,1.27-7.32,1.94l-0.12,0.04c-0.07,0.02-6.28,1.95-11.28,2.69c3.7-2.17,8.18-5.43,11.92-9.62l0.36-0.4l0.02-0.05
			c1.11-0.21,2.58-0.54,4.57-1.14l0.3-0.09c0.65-0.2,1.12-0.35,3.23-0.54c0.95-0.05,3.57-0.51,7.02-3.77
			c0.78-0.68,2.01-2.01,3.05-3.19c2.35-0.73,4.98-1.36,7.36-1.47v0c1.47-0.12,13.35-1.61,18.37-3c0.55-0.15,1.02-0.35,1.41-0.53
			c0.21-0.09,0.78-0.3,1.61-0.54c-1.16,2.33-1.89,4.04-1.96,4.2l-0.34,0.79L2687.62,177.74z M2364.22,133.29
			c1.57,0.82,3.37,1.71,5.39,2.65l0.12,0.06c4.32,2.22,8.75,4.03,12.46,5.1l0.14,0.04c0.51,0.16,2.32,0.78,4.34,1.5
			c2.01,1.18,4.05,2.28,5.76,2.99c0.11,0.05,0.21,0.09,0.31,0.14c-0.78,0.33-1.71,0.73-2.84,1.22c-2.46-0.95-4.66-1.79-6.21-2.37
			l-0.11-0.04l-0.44-0.12c-0.86-0.25-10.58-4.08-18.4-10.04l-1.02-0.78l-0.09,0.02c-0.57-0.44-1.43-1.14-2.44-2.01l3.05,1.95V133.29
			z M2349.55,133.2c1.98,1.79,4.32,3.75,6.67,5.32l0.1,0.08c0.45,0.35,0.89,0.69,1.34,1.02c-0.05-0.03-0.11-0.05-0.16-0.08
			l-0.14-0.07c-1.19-0.56-6.26-2.99-11.3-5.92c-0.27-0.25-0.53-0.5-0.8-0.76l-0.05-0.05c-0.08-0.08-0.21-0.22-0.39-0.4
			c-2.29-2.35-5.13-5.22-6.75-6.53l-0.17-0.13c-0.3-0.22-0.83-0.63-1.5-1.24c0.74,0.51,1.51,1.04,2.33,1.6
			C2339.09,126.28,2343.68,129.41,2349.55,133.2z M2320.25,124.3c1.07,0.96,3.23,2.44,7.62,5.43c0.16,0.11,0.34,0.23,0.5,0.34
			c2.12,2.06,5.51,5.43,7.44,7.89l0.02-0.02c1.29,1.77,4.71,4.83,7.39,6.29c0.37,0.2,0.72,0.39,1.02,0.59
			c1.39,0.94,4.95,3.27,9.28,5.62c-2.86-1.19-6.13-2.6-8.27-3.71l-0.14-0.07c-1.82-0.88-6.34-3.1-9.17-4.7
			c-0.37-0.21-0.71-0.42-1.06-0.66l-1.36-0.9c-4.11-2.72-16.6-11.02-19.6-13.83l-0.3-0.28l-0.09-0.05
			c-0.31-0.26-0.87-0.74-1.59-1.35c1.9-0.48,4.41-1.06,7.01-1.56C2319.42,123.7,2319.87,124.04,2320.25,124.3z M2507.66,184.46
			c-1.16-0.24-2.28-0.48-3.34-0.73c0.75-0.12,1.5-0.25,2.25-0.39c1.33,0.36,2.65,0.72,3.94,1.08
			C2509.54,184.44,2508.59,184.45,2507.66,184.46z M2297.13,128.68c3.01,2.38,5.93,4.67,8.15,6.34l-1.46-0.74
			c-2.68-1.2-6.21-3.87-8.06-5.33C2296.2,128.87,2296.66,128.78,2297.13,128.68z M2411.46,155.21c-0.03-0.01-0.06-0.02-0.08-0.03
			c0.08-0.02,0.17-0.05,0.26-0.08c0.04,0.02,0.08,0.04,0.11,0.05C2411.66,155.17,2411.56,155.19,2411.46,155.21z M2331.96,113.65
			c-0.03-0.02-0.08-0.06-0.11-0.09l0.5-0.15l0.06-0.03c0.1-0.03,0.23-0.07,0.37-0.11c0.16,0.51,0.42,0.99,0.72,1.45
			C2332.69,114.16,2332.13,113.77,2331.96,113.65z M2590.45,222.07c-0.8-0.07-1.59-0.09-2.27-0.1c-0.11,0-0.52-0.01-1.23-0.08
			c0.93,0.02,1.94,0.04,3.03,0.05c1.07,0.05,2.78,0.13,4.87,0.2c-0.94,0.03-1.96,0.05-3.06,0.07
			C2591.34,222.17,2590.89,222.11,2590.45,222.07z M2539.69,137.19c-0.18,0.14-0.39,0.3-0.62,0.48l0-0.01
			c0.02-0.2,0.05-0.49,0.13-0.85C2539.37,136.94,2539.53,137.06,2539.69,137.19z M2544.56,133.06c-0.63-0.44-1.34-0.97-2.12-1.59
			l0.02-0.02v-0.02c0.75-0.9,1.7-2.21,2.68-3.98c0.45,1.11,0.98,2.27,1.59,3.48C2546.02,131.66,2545.3,132.37,2544.56,133.06z
			 M2537.76,127.3c-0.35-0.35-0.71-0.7-1.07-1.08c0.88-0.43,1.75-0.86,2.59-1.29C2538.87,125.64,2538.38,126.42,2537.76,127.3z
			 M2513.12,144.3l0.05,0.02c1.05,0.55,2.73,1.15,4.23,1.67l0.3,0.1c1.79,0.71,3.68,1.23,4.9,1.53c-5.85,1.99-10.91,3.41-10.98,3.43
			l-21.19,5.61l-4.55,1.11c-0.53,0.01-1.07,0.02-1.61,0.02c-0.4,0-0.81,0.02-1.2,0.07c-0.26,0.03-0.68,0.06-1.23,0.11
			c-1.67,0.14-4.58,0.39-7.81,0.81c-6.8-2.1-14.01-4.33-14.02-4.33c-0.02-0.01-0.39-0.12-1.02-0.31c0.01,0,0.02-0.01,0.03-0.01
			c0.31-0.1,0.62-0.19,0.93-0.28c3.01-0.81,25.28-7.3,29.66-9c0.4-0.15,0.79-0.29,1.2-0.42c0.44-0.14,6.74-2.16,14.92-5.15
			C2508.09,141.51,2510.57,143.2,2513.12,144.3z M2724.2,197.03h1.42c0.27,0,0.55,0.02,0.83,0.04c0.02,0.12,0.04,0.25,0.07,0.36
			c-1.73-0.03-3.17-0.08-4.28-0.14c0.1-0.04,0.19-0.08,0.29-0.12C2723.2,197.1,2723.77,197.05,2724.2,197.03z M2623.74,180.27
			c-0.98,0.33-2.03,0.68-3.12,1.03c0.49-0.34,0.96-0.71,1.4-1.14c0.29-0.12,0.59-0.23,0.88-0.35c0.12,0.04,0.21,0.06,0.26,0.08
			l0.11,0.05c0.09,0.03,0.17,0.05,0.26,0.08C2623.59,180.1,2623.66,180.19,2623.74,180.27z M2526.51,168.37
			c-2.6,0-4.71,0.13-5.5,0.26c-2.21,0.05-6.64,0.26-10.95,0.48c-0.69-0.18-1.36-0.36-2.01-0.53c-0.12-0.03-10.11-2.56-17.4-4.68
			l2.75,0.01l0-0.2c3.22-0.27,8.91-0.93,15.62-2.46c2.63-0.4,12.44-2.77,22.09-9.73c0.12-0.08,0.76-0.52,1.76-1.24
			c6.51-2.74,12.09-5.55,15.71-7.48c1.68,0.86,3.78,1.83,6.23,2.74c-1.81,2.91-5.41,8.18-10.14,12.4l-0.95,0.85v0.03
			c-1.96,1.72-7.41,6.2-14.51,9.59C2528.23,168.39,2527.33,168.37,2526.51,168.37z M2558.61,128.46c-0.02,0.32-0.02,0.72-0.02,1.21
			c-1.15,0.8-1.89,1.33-2.17,1.54c-0.54,0.34-1.14,0.69-1.74,1.05c-0.1-0.15-0.2-0.32-0.31-0.48c0.5-0.6,1.11-1.41,1.92-2.53
			c0.54-0.75,1.18-1.67,1.83-2.71c0.15,0.33,0.3,0.66,0.46,1c0,0.3-0.01,0.6-0.01,0.92H2558.61z M2551.18,125.59
			c-0.6-1.64-1.31-3.83-1.81-6.26c1.92-1.18,3.66-2.35,5.21-3.48c0.24,0.91,0.51,1.81,0.8,2.71l0.01,0.06
			c0.01,0.05,0.03,0.11,0.04,0.17C2554.25,120.8,2552.76,123.22,2551.18,125.59z M2432.03,151.17l-0.1,0.02
			c-0.03,0.01-0.46,0.1-1.19,0.25c-0.82-0.31-1.56-0.61-2.18-0.89c-0.01,0-0.03-0.01-0.03-0.01c-0.1-0.04-0.3-0.12-0.84-0.33
			c0.51-0.16,0.99-0.3,1.44-0.44c0.25,0.1,0.49,0.2,0.74,0.31c0.9,0.37,1.71,0.71,2.48,1.03
			C2432.24,151.13,2432.14,151.15,2432.03,151.17z M2625,224.05c2.81-0.6,5.7-1.27,8.58-2c0,0,1.08-0.27,1.14-0.29
			c1.68-0.41,5.07-1.23,9.1-2.36c3.46-0.37,5.13-0.5,5.88-0.53c0.5-0.02,1-0.04,1.5-0.09c1.52-0.15,3.04-0.36,4.57-0.6
			c-7.34,2.04-12.26,2.89-15.15,3.25l-0.13,0.02C2635.85,222.23,2629.36,223.33,2625,224.05z M2643.52,162.87
			c-0.65-1.42-2.03-1.92-2.64-2.07c-0.1-0.03-0.2-0.06-0.3-0.09c6.61-3.11,15.04-7.27,17.27-8.63l0.02,0.03
			c0.25-0.16,0.5-0.3,0.75-0.46c1.24-0.41,2.5-0.81,3.73-1.18l0.8-0.26c0.51-0.18,2.68-0.8,5.23-1.52
			c-5.79,4.14-14.12,8.39-16.92,9.82c-0.41,0.21-0.73,0.37-1,0.53l0-0.01C2648.28,160.31,2645.91,161.6,2643.52,162.87z
			 M2565.32,141.93l-0.04-1.47c0.41-0.58,0.8-1.12,1.15-1.58c0.97,1.12,2.21,2.38,3.76,3.65
			C2568.62,142.45,2566.98,142.24,2565.32,141.93z M2573.95,104.24c-0.19,0.55-0.4,1.17-0.56,1.85l-0.12,0.53
			c-0.46,2.02-1.1,4.8-1.15,7.33c-0.02,1.28,0.08,2.51,0.17,3.31c0.1,0.88,0.22,1.73,0.36,2.55c-2.04,1.44-5.02,3.52-7.87,5.51
			c0.03-1.85,0.16-3.74,0.45-5.32l-0.01,0c0.03-0.13,0.05-0.27,0.06-0.41c0.17-1.89,0.97-6.89,4.86-12.49l0.11-0.16l0.08-0.16
			c0.02-0.03,1.29-2.42,4.48-5.61c-0.19,0.69-0.38,1.4-0.54,2.01C2574.2,103.54,2574.07,103.89,2573.95,104.24z M2499.99,130.43
			c-0.59,0.23-1.13,0.43-1.61,0.59l0,0.01c-0.35,0.11-0.88,0.3-1.79,0.63c-16.87,6.1-27.3,9.68-31,10.65
			c-0.32,0.08-0.63,0.17-0.93,0.28c-3.66,1.26-11.64,3.87-21.17,6.17c-1.5-0.59-2.93-1.18-4.21-1.76l-0.82-0.37
			c3.87-1.37,8.27-2.97,9.8-3.71c1.44-0.56,12.52-5.08,13.84-5.62c0.48-0.2,11.71-4.91,15.12-6.74l-0.03-0.05
			c1.6-0.71,5.53-2.72,16.66-8.41c1.76-0.95,3.88-2.09,6.05-3.24c-0.13,0.53-0.23,0.96-0.29,1.21l-0.03,0.15
			C2498.85,124.29,2499.27,127.79,2499.99,130.43z M2473.54,221.58c0.7,0.1,1.48,0.21,2.35,0.33c1.18,0.17,2.43,0.34,3.66,0.52
			c-1.97-0.25-4.12-0.54-6.33-0.86C2473.32,221.56,2473.43,221.57,2473.54,221.58z M2677.86,220.73L2677.86,220.73
			c-0.19,0.05-0.4,0.13-0.7,0.24c-10.67,3.82-15.18,5.01-16.92,5.38l-2.56,0.54l0.01,0.09c-3.04,0.76-12.26,3.05-13.42,3.34
			c-0.47,0-0.95-0.01-1.44-0.03l-0.67-0.01c-0.38,0-1.23,0.01-2.38,0.01c-1.7,0.01-3.95,0.01-6.36,0.03
			c-1.17-0.24-2.39-0.5-3.66-0.78l16.33-2.66c0.49-0.08,12.07-1.9,19.39-5.6l-0.01-0.03c3.03-1.13,9.96-4.95,15.23-8.48l0.07-0.05
			c0.11-0.07,0.32-0.2,0.59-0.36c0.08-0.05,0.18-0.11,0.27-0.17c0.1-0.03,0.21-0.06,0.31-0.09c0.66,0.04,1.31,0.08,1.92,0.14
			l0.01-0.06c0.48,0.08,0.92,0.09,1.22,0.1c0.68,0.02,1.67,0.05,2.87,0.08c1.99,0.05,4.96,0.1,8.22,0.11
			C2692.14,214.73,2683.81,219.15,2677.86,220.73z M2699.52,206.24c-0.18,0.01-0.35,0.01-0.53,0.01l-0.32,0l-1.97-0.06
			c0.21-0.11,0.34-0.18,0.35-0.19c0.14-0.08,0.29-0.16,0.44-0.23c4.6-2.34,6.36-2.86,6.64-2.94l0.06-0.01
			c0.4-0.07,0.79-0.15,1.18-0.23c0.19,0.01,0.37,0.03,0.54,0.05c0.91,0.12,1.76,0.16,2.7,0.19c0.94,0.03,2.23,0.08,3.74,0.14
			l-0.44,0.48c-0.01,0.01-0.76,0.8-3.27,2.33C2705.42,205.95,2701.02,206.16,2699.52,206.24z M2724.2,203.91c0,0,0.1,0,0.1,0
			c0.09,0,0.25-0.01,0.46-0.02c0.21-0.02,0.54-0.04,0.98-0.04c0.72,0,1.44,0.08,2.15,0.22c-0.67,0.2-2.17,0.55-4.77,0.59h-1.15
			c-0.09,0-0.36,0.02-0.73,0.04C2722.36,204.19,2723.37,203.91,2724.2,203.91z M2793.93,210.75c-2.4,0-5.13-0.49-8.04-1.43
			c-0.02-0.01-1.15-0.41-2.34-0.83l0.01,0c1.41,0.07,8.28,0.92,10.95,1.3c1.09,0.16,2.19,0.25,3.27,0.28l-0.42,0.2
			C2797.34,210.29,2796.21,210.75,2793.93,210.75z M2749.83,198.41c-0.4,0.1-0.86,0.16-1.36,0.16c-0.65,0-1.3-0.09-1.94-0.22
			c1.75-0.18,3.72-0.33,5.51-0.33C2751.33,198.09,2750.6,198.21,2749.83,198.41z M2700.79,174.37c-0.17-1.05-0.31-2.39-0.27-3.82
			c0.75,0.02,1.49,0.07,2.21,0.15C2702.03,171.94,2701.38,173.16,2700.79,174.37z M2699.28,156.69c-1.86,0.59-3.85,1.32-5.73,2.06
			c-0.75-0.31-1.56-0.47-2.41-0.47c-0.06,0-0.47,0-0.47,0c-1.61,0-2.98,0.31-4.04,0.92l0,0c-0.2,0.1-0.43,0.24-0.72,0.4
			c-0.94,0.53-3.79,2.13-4.65,2.49c-0.05,0.02-0.09,0.04-0.13,0.05c-0.5,0.2-1.45,0.57-2.77,0.98c2.21-1.41,6.05-3.66,12.75-7.21
			l0.26-0.14c1.07-0.36,2.65-1.22,4.65-2.4c0.91,1.46,2.29,2.53,3.32,3.25C2699.31,156.63,2699.29,156.66,2699.28,156.69z
			 M2691.95,148.53l-0.19,0.11l-8.21,4.13l-0.31,0.17c-0.65,0.38-8.18,4.82-8.77,5.19l-0.2,0.13l-0.13,0.1
			c-2.21,1.72-10.07,6.2-11.47,6.9l-0.1,0.05l-0.63,0.39c-0.02,0.01-0.05,0.03-0.07,0.04c-0.07,0.01-0.14,0.02-0.21,0.03
			c-0.33-0.05-0.68-0.08-1.05-0.08c-1.98,0-4.83,0.74-8.73,2.27c-0.04,0.02-2.12,1.02-4.7,2.43c-1.36,0.69-2.72,1.46-4,2.3
			c-0.58,0.36-1.14,0.72-1.68,1.08c-1.21,0.45-2.44,0.9-3.61,1.33c-0.61-0.49-1.35-0.83-2.18-1c4.3-2.11,6.84-3.58,6.99-3.67
			c0,0,13.51-7.27,16.71-9.01c0.31-0.17,0.62-0.3,0.94-0.44c3.89-1.67,15.46-9.93,15.58-10.02c0.22-0.16,0.45-0.31,0.69-0.44
			c2.25-1.26,6.33-4.24,9.71-6.78c0.73-0.01,1.62,0.05,2.68,0.25c0.16,0.05,0.44,0.12,0.81,0.14c0.84,0.05,1.6,0.08,2.31,0.11
			c0.9,1.62,1.38,2.77,1.54,3.18C2693,147.86,2692.39,148.25,2691.95,148.53z M2604.49,164.3l-0.45,0.16
			c-1.8,0.65-6.99,2.37-8.13,2.56l-0.19,0.03l-0.15,0.04c-0.78,0.21-5.45,1.29-11.51,2.27c4.41-1.19,12.8-3.74,21.61-6.91
			c0.08,0.04,0.16,0.07,0.23,0.11c0.39,0.2,0.95,0.46,1.62,0.69C2606.54,163.6,2605.52,163.95,2604.49,164.3z M2560.6,166.86
			c1.66-1.22,3.59-2.79,5.39-4.66c1.48,1.4,2.93,2.32,4.33,2.74c0.32,0.11,0.74,0.25,1.36,0.43c0.03,0.01,0.06,0.02,0.09,0.03
			C2569.09,165.85,2565.22,166.41,2560.6,166.86z M2566.7,151.89c-0.04-0.15-0.07-0.28-0.1-0.42c0.1,0.05,0.21,0.11,0.32,0.17
			C2566.84,151.72,2566.77,151.8,2566.7,151.89z M2548.76,89.68c-0.33,0.58-0.67,1.17-0.99,1.8c-0.84,1.23-3.94,6.46-4.95,17.87
			c-0.26,0.13-0.52,0.26-0.79,0.39c0,0-0.32,0.15-0.56,0.26c-4.49,2.02-8.36,3.85-11.62,5.5c-0.4-1.57-0.75-3.48-0.94-5.8
			c-0.09-1.1-0.06-2.22,0.08-3.35c0.06-0.43,0.12-0.91,0.2-1.41l1.09-0.5c1.11-0.53,10.9-5.36,14.19-9.89l0.15-0.2
			c1.53-2.03,2.93-4.08,4.18-6.13C2548.81,88.66,2548.79,89.15,2548.76,89.68z M2505.03,101.37c-0.26,0.18-1.28,0.87-2.68,1.82
			c-3.21,2.18-8.58,5.82-11.11,7.6c-0.31,0.21-0.61,0.41-0.93,0.6l-0.81,0.49c-8.18,4.92-12.83,7.65-13.83,8.12l-2.13,1l0.02,0.1
			c-3.42,1.76-10.67,5.47-15.83,8.1c-0.16,0.08-16.07,8-21.13,9.58l0.01,0.03c-0.84,0.25-2.69,0.87-7.21,2.43l6.18-2.58
			c0.19-0.08,4.69-1.87,6.98-2.89c0.7-0.31,9.75-4.77,16.65-8.67c0.6-0.34,1.1-0.6,1.58-0.81c3.9-1.72,16.49-9.61,17.02-9.94
			c4.88-3.03,12.04-7.45,14.16-8.74h0.02l0.68-0.41c2.47-1.5,7.64-4.14,15.38-7.84C2506.86,100.09,2505.81,100.77,2505.03,101.37z
			 M2341.27,102.52c-0.25,0.06-0.48,0.13-0.72,0.19c-0.32-0.51-0.64-1.05-0.95-1.61c0.05-0.03,0.09-0.06,0.14-0.1
			c0.28-0.19,0.52-0.36,0.78-0.54C2340.72,101.17,2340.97,101.86,2341.27,102.52z M2694.45,220.36c0.26-0.14,0.51-0.27,0.77-0.41
			l0-0.01c1.73-0.85,7.31-3.93,7.37-3.97l0.26-0.14c0.82-0.42,3.65-1.8,6.22-3.05c0.19-0.08,0.71-0.32,1.41-0.7
			c2.04-0.15,3.72-0.35,5.04-0.59l-0.01-0.11l0.02,0.11c0.45-0.08,4.14-0.58,7.38-0.58l0.48,0c-2.18,0.78-4.14,1.54-5.84,2.28
			l-0.06,0.03c-1.08,0.43-8.85,3.17-17.25,5.89C2698.3,219.5,2696.29,219.92,2694.45,220.36z M2742.24,211.29
			c1.24-0.58,2.44-1.07,3.59-1.46c0.07,0.04,0.14,0.08,0.22,0.12c-0.58,0.3-1.17,0.61-1.77,0.92
			C2743.6,211.01,2742.92,211.15,2742.24,211.29z M2760.31,185.57l4.48,3.2v-0.55c2.08,1.1,4.44,2.1,6.78,2.53
			c0.58,0.11,1.18,0.27,1.82,0.43l0.18,0.05c0.4,0.11,0.84,0.22,1.27,0.33l-1.03,0.58l0.18,1.63c-0.08,0.29-0.54,1.47-2.92,3.01
			c-0.55,0.35-1.21,0.75-1.95,1.17c-0.38-0.2-0.78-0.42-1.22-0.68l-0.68-0.4h-0.02c-0.81-0.48-2.25-1.36-2.93-1.8l-0.14-0.11
			c-2.48-1.81-5.58-2.9-8.97-3.15l-0.21-0.02c-0.29-0.03-0.78-0.07-1.46-0.11l-0.21-0.02l0,0.01c-0.42-0.02-0.91-0.03-1.46-0.03
			c-2.15,0-4.44,0.18-6.83,0.54c-0.2,0.02-0.41,0.06-0.76,0.12c-1.09,0.21-3.63,0.69-5.86,0.69c-1.41,0-2.04-0.2-2.24-0.28
			l-0.18-0.08c-0.78-0.35-1.55-0.67-2.32-0.98c0.09-0.47,0.18-0.96,0.29-1.48c0.8-0.5,1.49-0.9,2-1.18l0.16,0.08l1.34-0.82
			c0.06-0.04,0.13-0.07,0.2-0.11c1.72-0.32,3.77-0.77,5.65-1.37c0.71,0.01,1.44,0.03,2.22,0.05v-0.01c0.29,0.03,0.55,0.03,0.77,0.03
			c0.71,0,7.12-0.03,11.88-1.11l1.39-0.27c0.16-0.02,0.36-0.05,0.54-0.08C2760.16,185.47,2760.24,185.52,2760.31,185.57z
			 M2789.98,177.58c1.82-0.11,3.86-0.17,6.08-0.2C2794.08,177.47,2791.94,177.55,2789.98,177.58z M2710.05,172.42
			c-0.54,0.39-1.12,0.82-1.73,1.28c-0.04,0.02-0.08,0.04-0.12,0.06c0.27-0.51,0.56-1.04,0.86-1.57
			C2709.39,172.29,2709.72,172.36,2710.05,172.42z M2707.17,163.46c-0.2,0.3-0.39,0.6-0.59,0.91l-0.25-0.11v0.49
			c-1.45-0.31-2.96-0.48-4.52-0.52c0,0,0,0,0,0c0.51-0.77,1.02-1.55,1.48-2.26c0.57-0.14,1.15-0.26,1.59-0.3
			C2705.42,162.23,2706.21,162.88,2707.17,163.46z M2730.2,147.95l-0.37,0.09c-0.23,0.03-0.45,0.04-0.67,0.04
			c-1.6,0-2.51-0.7-2.51-0.7c0,0-0.1-0.09-0.1-0.09l-0.11-0.08c-0.11-0.08-0.21-0.15-0.32-0.23c1.44-0.26,2.97-0.66,4.6-1.21
			c0.17,0.76,0.4,1.43,0.66,2C2730.93,147.81,2730.52,147.87,2730.2,147.95z M2732.16,138.55l-0.12,0.04
			c-2.52,0.91-5.57,1.98-6.08,2.11c-0.12,0.03-0.25,0.04-0.37,0.06c0.12-0.22,0.23-0.45,0.3-0.71l0.05-0.17l0.03-0.17
			c0.15-0.96-0.17-1.84-0.95-2.61c-0.45-0.45-1.03-1.09-1.46-1.79c0.12,0,0.24-0.01,0.36,0l0.24,0.01c0.64,0.01,2.52,0.02,4.7,0.01
			c0.65,0.82,1.96,2.11,4.2,3.06C2732.66,138.41,2732.34,138.49,2732.16,138.55z M2663.13,136.43c1.34-1.03,4.1-3.13,5.26-4.09
			c1.12-0.76,3.78-2.18,4.94-2.27l0.21-0.02c0.22-0.02,0.49-0.03,0.76-0.05c-1.85,1.02-4.29,2.35-5.01,2.74
			c-1.19,0.4-2.59,1.34-4.56,2.89l-0.01-0.04l-3.18,2.57c-0.31,0.25-0.63,0.49-0.97,0.73c-0.39,0.09-0.78,0.18-1.19,0.29
			c1.02-0.68,2.05-1.43,3.09-2.26C2662.48,136.93,2662.81,136.68,2663.13,136.43z M2642.64,146.6c-0.56,0.31-1.13,0.63-1.72,0.97
			c0,0-0.87,0.47-1.45,0.79c-3.4,1.86-12.44,6.81-17.45,8.89l-0.07,0.03l-0.46,0.22c-0.27,0.14-1.05,0.51-2.18,1.01
			c0.04-0.04,0.07-0.08,0.11-0.12c0.57-0.56,1.61-1.63,2.72-3.01c5.1-2.36,10.82-5.02,14.27-6.64l0.43-0.2
			c0.8-0.3,2.68-0.91,4.1-1.38C2641.55,146.95,2642.11,146.77,2642.64,146.6z M2590.91,159.39l0.43,0.06
			c0.38,0.07,0.95,0.17,1.68,0.28c-2.53,0.8-5.13,1.56-7.65,2.22l0,0c-0.3,0.07-0.77,0.2-1.61,0.42c-1.38,0.37-2.69,0.72-3.96,1.05
			l0.36-0.38l-4.27-6.26l-1.45,2.8c-0.42-0.14-1.04-0.35-1.74-0.53c-0.01,0-1.05-0.3-2.53-1.56c-0.04-0.04-0.08-0.07-0.13-0.12
			c-0.01-0.01-0.01-0.01-0.02-0.02c0.69-0.8,1.63-1.87,2.65-3.04C2577.29,156.22,2583.54,158.28,2590.91,159.39z M2592.86,85.74
			c0.78,2.03,1.09,4.13,0.9,6.25c-0.01,0.1-0.02,0.25-0.02,0.43c-0.21,6.59-6.21,14.34-8.47,16.74l-0.15,0.16l-0.13,0.18
			c-0.45,0.62-1.27,1.55-2.77,2.9c-0.51,0.43-1.04,0.88-1.58,1.36c-0.6,0.5-1.25,1.03-2.01,1.63c-0.1-2.38,0.12-4.34,0.38-5.76
			c0.2-1.06,0.53-2.2,1.03-3.5c0.17-0.44,0.27-0.75,0.38-1.09c0.07-0.23,0.15-0.48,0.28-0.83c0.07-0.19,0.12-0.38,0.17-0.58
			c0.36-1.72,1.93-6.35,2.51-7.99l0.04-0.13l0.03-0.13c0.25-1.01,1.08-2.49,3.62-3.83c0.05-0.03,0.1-0.06,0.15-0.08
			C2589.24,90.52,2591.17,88.57,2592.86,85.74C2592.86,85.74,2592.86,85.74,2592.86,85.74z M2575.68,73.25l2.74-1.94l-0.44-0.44
			c0.62-0.65,1.34-1.37,1.99-2.03l3.94-3.88l0.11-0.11c0.62-0.69,1.64-1.56,2.55-2.15c0.26,0.61,0.64,1.27,1.18,1.92
			c0.28,0.49,2.23,4.39-1.1,11.7l2.53,1.21l-0.02,0.02l-2.63-0.9c-0.01,0.03-0.66,1.85-2.69,4.94c-0.35-0.14-0.82-0.27-1.37-0.27
			c-1.5,0-2.79,0.92-3.37,2.41c0,0-0.05,0.12-0.08,0.19c-1.13,2.88-2.11,4.18-2.67,4.75c0.56-1.41,0.97-2.75,1.2-4.01
			c0.38-2.12,0.14-4.3-0.69-6.29c-0.73-1.77-1.68-2.82-2.61-3.44C2574.88,74.11,2575.39,73.5,2575.68,73.25z M2557.99,87.42
			c0.29-0.28,0.71-0.66,1.24-1.09c-0.06,0.1-0.11,0.2-0.18,0.3c-1.12,1.7-3.93,6.56-5.78,15.08l0.07,0.02
			c-0.14,0.6-0.21,1.34-0.24,2.12c-0.94,0.56-1.96,1.13-3.03,1.72c0.52-2.21,1.26-4.14,2.21-5.75l0.09-0.13
			c0.4-0.56,2.36-3.52,2.78-8.55c0.69-1.09,1.46-2.15,2.31-3.13L2557.99,87.42z M2536.94,84.19c2.35-4.96,4.3-8.31,4.99-9l0.15-0.1
			l0.2-0.2c0.03-0.03,1.84-1.84,4.28-3.28c-0.31,1.53-0.91,3.44-2.08,5.59c-0.85,1.57-1.95,2.95-3.25,4.11
			c-1,0.89-2.45,2.02-4.5,3.33C2536.78,84.52,2536.94,84.19,2536.94,84.19z M2529.23,85.19c-0.35,0.68-0.66,1.26-0.87,1.67
			c-0.29,0.55-0.54,1.09-0.76,1.64c-0.12,0.3-0.28,0.67-0.45,1.11c-0.33,0.14-1.09,0.47-1.09,0.47c-0.3,0.14-3.71,1.73-7.79,3.77
			l0.35-0.65c0.07-0.12,0.15-0.24,0.22-0.36c0.33-0.25,0.76-0.57,0.76-0.57C2525.35,89.02,2528.11,86.42,2529.23,85.19z
			 M2347.22,96.56l0.08-0.08c0.44-0.2,1.2-0.54,2.05-0.93c0.32,1.1,0.69,2.31,0.88,2.92c0.23,0.84,1.66,5.29,7.13,10.12
			c0.13,0.11,0.26,0.22,0.38,0.31c0.68,0.51,3.14,2.5,6.56,6.67c0.54,0.77,1.45,1.66,2.78,2.96c2.14,2.1,4.17,3.72,6.03,4.83
			l0.27,0.18c1.53,1.17,9.74,6.83,16.3,9.87c0.3,0.15,11.98,5.54,14.21,6.52l0.08,0.03l0.56,0.21l0.17,0.06
			c0.17,0.05,0.41,0.13,0.68,0.21c-0.37,0.16-0.74,0.31-1.12,0.47c-0.78-0.34-1.42-0.63-1.88-0.86l-1.32-0.58
			c-2.12-0.83-8.23-3.43-9.02-3.87l-4.2-2.31v0.21c-3.64-1.93-9.05-4.96-12.8-7.65l0.02-0.09l-1.72-1.18
			c-0.56-0.38-2.21-1.64-5.53-4.99l-0.16-0.16c-0.49-0.54-1.07-1.15-1.72-1.74l-2.97-3v0.93c-1.27-0.77-4.6-2.91-8.13-6.24
			c-0.17-0.22-0.33-0.45-0.49-0.66c-0.2-0.26-0.39-0.6-0.63-1.05c-1.6-3.13-3.56-4.65-5.23-5.39c-0.93-1.46-1.74-3.28-2.12-5.39
			c0.1-0.04,0.2-0.09,0.29-0.12L2347.22,96.56z M2317.69,171l-0.01,0.01c-0.68-0.47-2.54-1.69-8.25-5.43
			c-0.06-0.04-6.04-4.07-8.39-6.21l-0.02,0.02c-0.27-0.28-0.57-0.55-0.88-0.82l-2.65-2.32c4.25,1.45,14.13,4.35,22.18,6.1l0.56,0.1
			c0.54,0.08,2.61,0.44,5.4,0.93l18.47,8.68c-1.76,1.06-3.04,1.88-3.67,2.29c-0.16,0.11-0.32,0.2-0.49,0.3
			c-2.45,1.39-8.87,5.04-14.09,7.96c-0.06-0.43-0.13-0.98-0.23-1.7c-0.2-1.43-0.62-2.71-1.27-3.82c-0.4-0.67-0.87-1.18-1.14-1.45
			l-0.09-0.11C2322.57,174.85,2321.4,173.44,2317.69,171z M2704.68,226.38c-0.61,0.22-1.21,0.44-1.8,0.7
			c-1.65,0.71-9.74,3.77-29.63,5.57l14.22-3.41c0.06-0.02,5.89-1.63,11.21-3.3l0.39-0.11c0.51-0.14,0.99-0.28,1.48-0.42
			c2.19-0.46,4.53-0.93,6.9-1.37c0.2-0.02,0.38-0.06,0.58-0.11c0.62-0.14,2.47-0.56,6.31-0.86
			C2711.25,224.12,2707.57,225.36,2704.68,226.38z M2778.11,216.94l-0.6-0.3h-0.01c-1.56-0.74-4.71-1.99-9.44-2.83
			c1,0.15,2.04,0.35,3.11,0.61c0.14,0.03,0.28,0.07,0.41,0.11c0.17,0.05,0.49,0.14,0.92,0.26c2.07,0.58,6.81,1.93,11.3,3.52
			c-0.08,0-0.16,0.01-0.25,0.01C2781.75,218.32,2779.92,217.85,2778.11,216.94z"/>
		<path d="M2828.46,169.7c0,0-13.71,4.42-25.75,4.88c0,0.04-11.92-0.38-18.92,0.79c-0.08,0.04-8.79,0.88-15.67,3.38
			c-0.08,0-6.83,3.17-14.88,3.42c-0.04-0.04-12.67,0.88-17.29,3.71c-0.08-0.04-3.05,1.42-6.52,3.97c-0.16,0.12-0.31,0.24-0.47,0.36
			c-0.92,0.74-5.06,3.83-12.09,6.09c-0.04,0-5.96,2.42-13.21,3.75c-0.08,0-1.79,0.32-7.47,3.21c-0.18,0.09-0.37,0.19-0.55,0.29
			c-0.98,0.55-6.61,3.53-9.94,4.41c-0.04,0-12.75,4.25-21.46,5.5c-0.03,0,1.27-0.44,2.08-0.71c0.4-0.13,0.81-0.25,1.23-0.34
			c2.21-0.5,10.14-2.35,16.73-4.54l0.83-0.29c1.12-0.39,5.95-2.02,11.38-5.12c0,0,4.13-2.64,11.67-4.01
			c0.35-0.06,0.7-0.14,1.04-0.23c1.58-0.42,8.06-2.1,16.47-6.58c0.34-0.18,0.68-0.38,1-0.6c0.84-0.55,2.74-1.78,4.32-2.92
			c-0.08,0,6.67-5.04,15.08-5.88c0.04-0.08,14.44-1.2,16.42-2.17c0.04,0,4.69-1.55,6.57-2.23c0.44-0.16,0.87-0.3,1.32-0.44
			c1.9-0.57,7.41-2.15,14.96-2.81c0.51-0.04,1.35-0.13,1.86-0.19c2.01-0.25,7.25-0.73,14.69-0.55c0.36,0.01,0.94,0,1.3-0.02
			c1.75-0.11,6.94-0.44,9.42-0.96c0.31-0.06,0.6-0.17,0.91-0.23c2.3-0.44,12.6-2.5,14.85-3.35
			C2828.42,169.39,2828.46,169.7,2828.46,169.7z"/>
	</g>
</g>
</svg>
