<?xml version="1.0" encoding="utf-8"?>
<!-- Generator: Adobe Illustrator 18.0.0, SVG Export Plug-In . SVG Version: 6.00 Build 0)  -->
<!DOCTYPE svg PUBLIC "-//W3C//DTD SVG 1.1//EN" "http://www.w3.org/Graphics/SVG/1.1/DTD/svg11.dtd">
<svg version="1.1" id="_x31_L_x5F_Print_x5F_Back" xmlns="http://www.w3.org/2000/svg" xmlns:xlink="http://www.w3.org/1999/xlink"
	 x="0px" y="0px" viewBox="0 0 9451.45 623.52" enable-background="new 0 0 9451.45 623.52" xml:space="preserve">
<g opacity="0.01">
	<defs>
		<path id="SVGID_1_" opacity="0.01" d="M3501.41,368.83l-16.32-20.98l-16.32-6.77l-16.32-0.78l-16.32-7.02l-16.32-9.74
			l-16.32-18.51l-16.32-13.49l-16.32-9.01l-16.32-8.26l-16.32-6.02l-16.32-6.03l-16.32-7.52l-16.32-5.27l-16.32-8.26l-16.32,0.71
			l-16.32-3.78l-16.32-6.02l-16.32-3.03l-16.32-3.77l-16.32-8.27l-16.32-5.27l-16.32-4.43l-16.32,7.35l-16.32-2.28l-16.32,2.95
			l-16.32,0.71l-16.32-0.79l-16.32-0.79l-16.32-15l-16.32-3.02l-16.32-3.78l-16.32-3.78l-16.32-2.28l-16.32-1.53v3.74l16.32,6.05
			l16.32,5.28l16.32,5.27l16.32,6.78l16.32,0.04l16.32,1.53l16.32,1.53l16.32,7.52l16.32,16.5l16.32-1.48l16.32,1.54l16.32,2.28
			l16.32-4.45l16.32,17.24l16.32-1.46l16.32,6.02l16.32,7.51l16.32,13.5l16.32,11.26l16.32,7.51l16.32,6.77l16.32,5.28h16.32
			l16.32,9l16.32,15l16.32,0.79l16.32,10.51l16.32-0.71l16.32-3.7l16.32,12l16.32,8.26l16.32,0.04l16.32-2.95l16.32,10.51"/>
	</defs>
	<use xlink:href="#SVGID_1_"  overflow="visible"/>
	<clipPath id="SVGID_2_">
		<use xlink:href="#SVGID_1_"  overflow="visible"/>
	</clipPath>
</g>
<g opacity="0.01">
	<defs>
		<path id="SVGID_3_" opacity="0.01" d="M2946.43,185.81l16.32,2.29l16.32,0.04l16.32,0.03l16.32,3.03l16.32,0.04l16.32-0.71
			l16.32,3.03l16.32,1.54l16.32,0.78l16.32,2.28l16.32,0.79l16.32,0.78l16.32,0.04l16.32,0.04l16.32,1.54l16.32,0.04l16.32,1.53
			l16.32,1.54l16.32,2.27l16.32,2.29l16.32,1.53l16.32,0.78l16.32,0.79l16.32,0.04l16.32,1.54l16.32-1.46l16.32,0.78l16.32-0.7
			l16.32,2.27l16.32,0.79l16.32,0.79l16.32,0.04l16.32,1.53l16.32,0.04l16.32,1.54l16.32,1.53l16.32-0.71l16.32,3.02l16.32,3.03
			l16.32,3.03l16.32,5.28l16.32,3.02l16.32,3.77v50.86l-16.32-0.78l-16.32-6.77l-16.32-3.78l-16.32-3.78l-16.32-2.28l-16.32-4.52
			l-16.32-3.78l-16.32-1.53l-16.32-2.28l-16.32-5.28l-16.32-3.77l-16.32,0.72l-16.32-2.28l-16.32-1.54l-16.32-3.77l-16.32-1.53
			l-16.32-2.28l-16.32-3.77l-16.32-1.53l-16.32-1.54l-16.32-2.28l-16.32-2.28l-16.32-2.28l-16.32-3.03l-16.32-3.02l-16.32-3.03
			l-16.32-4.53l-16.32-5.28l-16.32-3.02l-16.32-3.02l-16.32-2.29l-16.32-3.02l-16.32-0.79l-16.32-3.02l-16.32-0.79l-16.32-0.79
			l-16.32-1.53l-16.32-1.54l-16.32-1.53l-16.32-3.03l-16.32-0.78l-16.32-0.04l-16.32-0.04V185.81z"/>
	</defs>
	<use xlink:href="#SVGID_3_"  overflow="visible"/>
	<clipPath id="SVGID_4_">
		<use xlink:href="#SVGID_3_"  overflow="visible"/>
	</clipPath>
</g>
<g opacity="0.01">
	<defs>
		<path id="SVGID_5_" opacity="0.01" d="M2946.43,188.06l16.32,3.81l16.32,3.02l16.32,4.53l16.32,3.03l16.32,3.02l16.32-0.7
			l16.32,2.28l16.32,5.28l16.32,12.76l16.32-2.22l16.32,0.04l16.32,1.53l16.32-2.21l16.32,10.51l16.32,0.79l16.32,3.77l16.32,7.51
			l16.32,8.27l16.32,7.51l16.32,4.53l16.32,5.27l16.32,4.53l16.32,5.28l16.32,11.26l16.32,1.53l16.32,5.27l16.32,0.79l16.32-0.71
			l16.32,8.27l16.32,4.53l16.32-0.71l16.32-2.2l16.32,8.25l16.32,11.26h16.32l16.32,9.01l16.32,19.48l16.32,24.73l16.32,6.02
			l16.32,17.99l16.32,11.26l16.32,6.02l16.32,3.03V292.13l-16.32-0.78l-16.32-6.77l-16.32-3.78l-16.32-3.78l-16.32-2.28l-16.32-4.52
			l-16.32-3.78l-16.32-1.53l-16.32-2.28l-16.32-5.28l-16.32-3.77l-16.32,0.72l-16.32-2.28l-16.32-1.54l-16.32-3.77l-16.32-1.53
			l-16.32-2.28l-16.32-3.77l-16.32-1.53l-16.32-1.54l-16.32-2.28l-16.32-2.28l-16.32-2.28l-16.32-3.03l-16.32-3.02l-16.32-3.03
			l-16.32-4.53l-16.32-5.28l-16.32-3.02l-16.32-3.02l-16.32-2.29l-16.32-3.02l-16.32-0.79l-16.32-3.02l-16.32-0.79l-16.32-0.79
			l-16.32-1.53l-16.32-1.54l-16.32-1.53l-16.32-3.03l-16.32-0.78l-16.32-0.04l-16.32-0.04V188.06z"/>
	</defs>
	<use xlink:href="#SVGID_5_"  overflow="visible"/>
	<clipPath id="SVGID_6_">
		<use xlink:href="#SVGID_5_"  overflow="visible"/>
	</clipPath>
</g>
<g opacity="0.01">
	<defs>
		<path id="SVGID_7_" opacity="0.01" d="M2946.43,185.44l16.32,2.28l16.32-1.47l16.32,2.28l16.32,3.78l16.32-4.45l16.32,0.04
			l16.32,0.25l16.32,3.7l16.32-5.28l16.32,0.72l16.32,0.79l16.32,2.28l16.32-1.46l16.32-0.71l16.32-1.85l16.32,1.18l16.32,5.27
			l16.32,0.04l16.32-2.21l16.32-2.2l16.32-0.71l16.32,4.53l16.32-5.2l16.32,0.04l16.32,0.04l16.32-1.46l16.32,1.74l16.32,2.21
			l16.32-0.79l16.32-2.26l16.32,3.77l16.32,2.28l16.32,0.04l16.32,3.03l16.32,6.76l16.32,3.78l16.32,4.53l16.32-1.46l16.32,8.26
			l16.32,2.28l16.32,1.53l16.32,4.52l16.32,0.8v14.95l-16.32-3.77l-16.32-3.02l-16.32-5.28l-16.32-3.03l-16.32-3.03l-16.32-3.02
			l-16.32,0.71l-16.32-1.53l-16.32-1.54l-16.32-0.04l-16.32-1.53l-16.32-0.04l-16.32-0.79l-16.32-0.79l-16.32-2.27l-16.32,0.7
			l-16.32-0.78l-16.32,1.45l-16.32-1.54l-16.32-0.04l-16.32-0.79l-16.32-0.78l-16.32-1.53l-16.32-2.29l-16.32-2.27l-16.32-1.54
			l-16.32-1.53l-16.32-0.04l-16.32-1.54l-16.32-0.04l-16.32-0.04l-16.32-0.78l-16.32-0.79l-16.32-2.28l-16.32-0.78l-16.32-1.54
			l-16.32-3.03l-16.32,0.71l-16.32-0.04l-16.32-3.03l-16.32-0.03l-16.32-0.04l-16.32-2.29V185.44z"/>
	</defs>
	<use xlink:href="#SVGID_7_"  overflow="visible"/>
	<clipPath id="SVGID_8_">
		<use xlink:href="#SVGID_7_"  overflow="visible"/>
	</clipPath>
</g>
<g opacity="0.01">
	<defs>
		<path id="SVGID_9_" opacity="0.01" d="M3647.61,383.3l-16.2-9.68l-16.21-4.4l-16.2-6.81l-16.2,4.41l-16.21,3.67l-16.2,5.16
			l-16.2-5.97l-16.2-0.04l-16.2-1.53v0.74l16.2,16.37l16.2,14.15l16.2,25.28l16.2,34.93l16.21,10.43l16.2,26.03l16.97,16.5
			l15.67,4.35l15.98,4.79V383.3z"/>
	</defs>
	<use xlink:href="#SVGID_9_"  overflow="visible"/>
	<clipPath id="SVGID_10_">
		<use xlink:href="#SVGID_9_"  overflow="visible"/>
	</clipPath>
</g>
<path opacity="0.01" fill="none" stroke="#000000" stroke-width="1.526" stroke-linecap="round" stroke-linejoin="round" stroke-miterlimit="10" d="
	M2946.43,188.81l16.32,6.05l16.32,5.28l16.32,5.27l16.32,6.78l16.32,0.04l16.32,1.53l16.32,1.53l16.32,7.52l16.32,16.5l16.32-1.48
	l16.32,1.54l16.32,2.28l16.32-4.45l16.32,17.24l16.32-1.46l16.32,6.02l16.32,7.51l16.32,13.5l16.32,11.26l16.32,7.51l16.32,6.77
	l16.32,5.28h16.32l16.32,9l16.32,15l16.32,0.79l16.32,10.51l16.32-0.71l16.32-3.7l16.32,12l16.32,8.26l16.32,0.04l16.32-2.95
	l16.32,10.51l16.32,16.49l16.32,14.25l16.32,25.47l16.32,35.19l16.32,10.51l16.32,26.22l16.32,15l16.32,5.27l16.32,4.13"/>
<path opacity="0.01" fill="none" stroke="#000000" stroke-width="1.526" stroke-linecap="round" stroke-linejoin="round" stroke-miterlimit="10" d="
	M2946.43,188.06l16.32,3.81l16.32,3.02l16.32,4.53l16.32,3.03l16.32,3.02l16.32-0.7l16.32,2.28l16.32,5.28l16.32,12.76l16.32-2.22
	l16.32,0.04l16.32,1.53l16.32-2.21l16.32,10.51l16.32,0.79l16.32,3.77l16.32,7.51l16.32,8.27l16.32,7.51l16.32,4.53l16.32,5.27
	l16.32,4.53l16.32,5.28l16.32,11.26l16.32,1.53l16.32,5.27l16.32,0.79l16.32-0.71l16.32,8.27l16.32,4.53l16.32-0.71l16.32-2.2
	l16.32,8.25l16.32,11.26h16.32l16.32,9.01l16.32,19.48l16.32,24.73l16.32,6.02l16.32,17.99l16.32,11.26l16.32,6.02l16.32,3.03"/>
<path opacity="0.01" fill="none" stroke="#000000" stroke-width="1.526" stroke-linecap="round" stroke-linejoin="round" stroke-miterlimit="10" d="
	M2946.43,185.07l16.32,1.53l16.32,2.28l16.32,3.78l16.32,3.78l16.32,3.02l16.32,15l16.32,0.79l16.32,0.79l16.32-0.71l16.32-2.95
	l16.32,2.28l16.32-7.35l16.32,4.43l16.32,5.27l16.32,8.27l16.32,3.77l16.32,3.03l16.32,6.02l16.32,3.78l16.32-0.71l16.32,8.26
	l16.32,5.27l16.32,7.52l16.32,6.03l16.32,6.02l16.32,8.26l16.32,9.01l16.32,13.49l16.32,18.51l16.32,9.74l16.32,7.02l16.32,0.78
	l16.32,6.77l16.32,20.98l16.32,1.54l16.32,0.04l16.32,6.02l16.32-5.2l16.32-3.7l16.32-4.44l16.32,6.86l16.32,4.43l16.32,9.75"/>
<path opacity="0.01" fill="none" stroke="#000000" stroke-width="1.526" stroke-linecap="round" stroke-linejoin="round" stroke-miterlimit="10" d="
	M2946.43,185.07l16.32,0.04l16.32,0.04l16.32,0.78l16.32,3.03l16.32,1.53l16.32,1.54l16.32,1.53l16.32,0.79l16.32,0.79l16.32,3.02
	l16.32,0.79l16.32,3.02l16.32,2.29l16.32,3.02l16.32,3.02l16.32,5.28l16.32,4.53l16.32,3.03l16.32,3.02l16.32,3.03l16.32,2.28
	l16.32,2.28l16.32,2.28l16.32,1.54l16.32,1.53l16.32,3.77l16.32,2.28l16.32,1.53l16.32,3.77l16.32,1.54l16.32,2.28l16.32-0.72
	l16.32,3.77l16.32,5.28l16.32,2.28l16.32,1.53l16.32,3.78l16.32,4.52l16.32,2.28l16.32,3.78l16.32,3.78l16.32,6.77l16.32,0.78"/>
<path opacity="0.01" fill="none" stroke="#000000" stroke-width="1.526" stroke-linecap="round" stroke-linejoin="round" stroke-miterlimit="10" d="
	M2946.43,185.81l16.32,2.29l16.32,0.04l16.32,0.03l16.32,3.03l16.32,0.04l16.32-0.71l16.32,3.03l16.32,1.54l16.32,0.78l16.32,2.28
	l16.32,0.79l16.32,0.78l16.32,0.04l16.32,0.04l16.32,1.54l16.32,0.04l16.32,1.53l16.32,1.54l16.32,2.27l16.32,2.29l16.32,1.53
	l16.32,0.78l16.32,0.79l16.32,0.04l16.32,1.54l16.32-1.46l16.32,0.78l16.32-0.7l16.32,2.27l16.32,0.79l16.32,0.79l16.32,0.04
	l16.32,1.53l16.32,0.04l16.32,1.54l16.32,1.53l16.32-0.71l16.32,3.02l16.32,3.03l16.32,3.03l16.32,5.28l16.32,3.02l16.32,3.77"/>
<path opacity="0.01" fill="none" stroke="#000000" stroke-width="1.526" stroke-linecap="round" stroke-linejoin="round" stroke-miterlimit="10" d="
	M2946.43,185.07l16.32,2.28l16.32-1.46l16.32,2.28l16.32,3.78l16.32-4.45l16.32,0.04l16.32,0.25l16.32,3.7l16.32-5.28l16.32,0.72
	l16.32,0.79l16.32,2.28l16.32-1.46l16.32-0.71l16.32-1.85l16.32,1.18l16.32,5.27l16.32,0.04l16.32-2.21l16.32-2.2l16.32-0.71
	l16.32,4.53l16.32-5.2l16.32,0.04l16.32,0.04l16.32-1.46l16.32,1.74l16.32,2.21l16.32-0.79l16.32-2.26l16.32,3.77l16.32,2.28
	l16.32,0.04l16.32,3.03l16.32,6.76l16.32,3.78l16.32,4.53l16.32-1.46l16.32,8.26l16.32,2.28l16.32,1.53l16.32,4.52l16.32,0.8"/>
<g opacity="0.01">
	<g>
		<path d="M3373.49,183.22c-0.04-0.03-0.14-0.09-0.2-0.09c-0.33-0.02-1.03-0.02-1.31,0.01c0.01-0.01-0.33,0.02-0.33,0.02l-0.19,0.02
			c0,0-0.51-0.01-0.68-0.03c-0.06-0.01-0.19-0.03-0.25-0.02c-0.09,0.01-0.16,0.05-0.38,0.02c-0.2-0.02-0.47-0.23-0.61-0.35
			c-0.06-0.05-0.12-0.12-0.16-0.18c-0.1-0.14-0.31-0.43-0.5-0.63c0,0-0.47-0.47-0.59-1.04c0,0-0.03-0.84-0.48-1.6
			c0-0.01-0.05-0.05-0.07-0.13c-0.01,0.01-0.47-1.3-0.44-1.57c-0.01,0-0.06-0.82-0.12-0.97c0.01,0-0.16-1.29-0.68-1.85
			c0,0-0.16-0.26-0.29-0.42c0,0-0.11-0.15-0.16-0.28c0,0.01-0.27-0.45-0.38-0.56c0,0.01-0.09-0.11-0.17-0.23
			c0.01,0-0.23-0.35-0.36-0.46c0-0.01-0.21-0.24-0.4-0.6c0,0.01-0.38-0.76-0.38-0.76l-0.07-0.14l-0.19-0.51c0,0-0.08-0.17,0.04-0.23
			c0,0.01,0.91-0.36,1.12-0.88c0-0.01,0.11-0.18,0.18-0.41c0-0.01,0.07-0.45-0.28-0.69c-0.01-0.01-0.27-0.32-0.32-0.5
			c0-0.01,0.02-0.16-0.16-0.31c-0.01-0.01-0.38-0.47-0.47-0.57c0,0-0.36-0.41-0.48-0.93c-0.02-0.07-0.02-0.15-0.02-0.23
			c-0.01-0.26-0.04-0.87-0.05-1.03c0,0.02-0.18-2.18-0.24-2.3c-0.01,0-0.24-2.16-0.32-2.39c0.01,0.01-0.24-1.55-0.61-2.12
			c-0.01,0.01-0.62-1.32-0.64-1.72c0,0.01-0.08-0.54,0.22-1.05c0,0,0.11-0.17-0.04-0.26c0.01,0-0.19-0.28-0.23-0.43
			c-0.02-0.05-0.04-0.1-0.11-0.16c-0.01-0.01-0.1-0.17,0.06-0.22c0.01-0.01,0.16-0.04,0.28-0.13c0.01,0,0.11-0.1,0.21,0
			c0,0,0.12,0.09,0.18,0.08c-0.03,0.01,0.36,0,0.48-0.02c0.06-0.01,0.13-0.06,0.17-0.18c0-0.01,0.11-0.3,0.25-0.41
			c0.01-0.01,0.07-0.02,0.09-0.03c0.01-0.01,0.04-0.01,0.03-0.05c0-0.01-0.06-0.14,0.03-0.18c-0.01,0,0.15-0.14,0.15-0.14
			s0.09-0.09,0.01-0.23c0-0.01-0.06-0.08,0.01-0.18c0.01-0.01,0.16-0.03,0.3-0.09c0.01,0,0.07-0.02,0.07-0.03
			c0-0.01,0-0.14-0.19-0.34c0,0.01-0.3-0.34-0.36-0.42c0-0.01-0.12-0.18-0.02-0.4c0,0,0.09-0.5,0.13-0.66
			c0.02-0.06,0.04-0.17-0.05-0.25c0,0-0.17-0.23-0.25-0.3c-0.01-0.01-0.12-0.07-0.03-0.16c0-0.01,0.42-0.45,0.56-0.52
			c0.01,0,0.09-0.09-0.02-0.17c-0.01,0-2.43-1.91-4.84-0.47c-0.04,0.02-1.2,0.67-1.1,1.82c0,0.04,0.03,0.16-0.04,0.3
			c0,0.01-0.15,0.49,0,0.78c0,0.01,0.3,0.46,0.37,0.57c0.01,0.01,0.02,0.03,0.03,0.04c0.04,0.07,0.19,0.31,0.29,0.43
			c0.13,0.16,0.57,0.75,0.26,0.78c-0.02,0.01-0.78-0.11-0.81,0.19c0.01-0.02-0.08,0.25,0.15,0.53c0.04,0.05,0.09,0.13,0.01,0.26
			c-0.02,0.03-1.29,1.78-1.78,3.46c0.01,0.01-0.41,1.37-0.4,1.96c0,0.02,0,2.5,0,2.5l0.06,3.24c0,0.03,0,0.07,0,0.1l-0.06,1.35
			c0,0,0.09,0.4-0.23,0.64c0.03-0.01-0.33,0.18-0.31,0.56c0,0.02-0.02,1.12-0.43,1.19c0.02-0.01-0.66,0.18-0.49,0.5
			c0.01,0,0.2,0.2,0.52,0.27c0-0.02,0.19,0.1,0.67-0.01c0.02,0,1.08-0.31,1.18-0.43c0.02-0.03,0.56-0.17,0.42,0.46
			c-0.01,0.01-0.59,1.85-0.59,1.88c0,0.03-0.02,0.1-0.01,0.29c-0.01,0.01,0.3,1.79-0.94,3.59c0.01,0.02-0.26,0.23-0.27,0.79
			c0.01-0.01-0.07,0.64-0.09,0.88c-0.01,0.05-0.01,0.09-0.01,0.14c0,0.11,0,0.35-0.08,0.53c-0.01,0-0.43,1.25-0.43,1.25
			s-0.24,0.48-0.11,1.78c-0.02,0.02,0.08,1.53,0.08,1.53s0.02,0.22-0.09,0.35c-0.01,0-0.25,0.38-0.25,0.38s-0.11,0.1-0.03,0.28
			c0,0,0.23,0.23,0.23,0.23s0.13,0.1,0.1,0.33c0.01,0-0.14,0.59-0.04,1.23c0.01,0.02,0,0.16,0.13,0.21
			c-0.01,0.01,1.16,0.1,2.54,0.01l0.21-0.02c0.26-0.02,1.29-0.08,1.7-0.04c0.04,0,0.09,0.01,0.13,0.01c0.28,0,1.45,0,1.45,0
			s0.28-0.04,0.4-0.12c0.01-0.01,0.43-0.1,0.53-0.49c0.01-0.04,0.09-0.23-0.23-0.29c0.02,0.01-1.16,0.02-1.16,0.02
			s-0.13,0-0.27-0.05c0.03,0-1.18-0.53-1.82-0.66c-0.07-0.01-0.19-0.03-0.25-0.12c0-0.01-0.29-0.2-0.29-0.2s-0.15-0.07-0.05-0.26
			c0.01-0.02,0.2-0.16,0.11-0.47c0-0.02-0.21-0.12-0.19-0.31c0.01-0.02,0.03-0.1,0.06-0.17c0-0.01,0.04-0.16-0.03-0.25
			c-0.01-0.01-0.03-0.5-0.03-0.5s0.03-0.13,0.08-0.15c0.01,0,0.17-0.12,0.15-0.29c0-0.01,0.05-0.27,0.15-0.32
			c0.02-0.01,0.08-0.15,0.05-0.3c0-0.02,0.13-0.29,0.12-0.39c-0.01,0.02,0.01-0.12,0.09-0.14c0.02-0.01,0.2-0.33,0.2-0.78
			c0,0.01,0.02-0.69,0.02-0.92c0-0.05,0.01-0.1,0.01-0.14c0.04-0.25,0.2-1.08,0.38-1.25c-0.01,0.01,0.17-0.27,0.29-0.29
			c0.02,0,0.34-0.26,0.47-0.32c0.14-0.06,0.26-0.18,0.3-0.52c0-0.03,0.17-0.74,0.1-1.08c0,0.01-0.05-0.44,0.09-0.6
			c0.01-0.01,0.25-0.39,0.35-0.54c0.02-0.04,0.05-0.07,0.08-0.1l0.25-0.3l0.05-0.06c0,0,0.02-0.16,0.17-0.06
			c-0.01,0.01,0.45,0.28,0.55,0.74c0,0.01,0.09,0.12,0.1,0.16c0.04,0.11,0.02,0.3,0.29,0.38c-0.01,0,0.22-0.01,0.29,0.22
			c0.01,0.04,0.08,0.16,0.29,0.19c0.02,0,0.2,0.19,0.38,0.29c0.03,0.02,0.16,0.09,0.2,0.25c0.01,0.02,0.78,1.37,0.93,2.4
			c0,0.02,0.06,1.12,0.96,2.7c-0.02-0.01,0.26,0.53,0.26,0.53s0.17,0.3,0.15,0.61c0,0.02-0.07,1.04,0.92,1.51
			c-0.03,0.01,0.16,0,0.22,0.32c0.04,0.24,0.34,0.89,0.34,0.89s0.06,0.49,0.96,0.38c0.1-0.01,0.2-0.05,0.29-0.09
			c0.25-0.12,0.99-0.36,1.28-0.45c0.07-0.02,0.14-0.04,0.21-0.06c0.46-0.1,2.04-0.38,2.51-0.59c0.02-0.01,0.14-0.04,0.36-0.13
			c0.01,0,0.61-0.27,0.83-0.39c0.07-0.04,0.12-0.1,0.15-0.17l0.01-0.02C3373.61,183.43,3373.54,183.29,3373.49,183.22z
			 M3363.85,170.01c-0.2,0.16-0.48-0.46-0.48-0.47c-0.06-0.17-0.28-0.29-0.24-0.4c0.03-0.08,0.34,0,0.35,0
			c0.32,0.07,0.35,0.28,0.38,0.42C3363.87,169.68,3363.94,169.94,3363.85,170.01z"/>
		<path d="M3420.3,186.86l0.13,0.38c0,0,0.03,0.09,0,0.2c0.02,0.01-0.03,0.49,0.35,0.42c0.01,0,0.14-0.01,0.18-0.02
			c0.06-0.01,0.17-0.02,0.25-0.04c0,0,0.26-0.03,0.41-0.02c0.01,0,0.32-0.04,0.52-0.06c0.04,0,0.24-0.02,0.46-0.05
			c0.04,0,0.5-0.06,0.5-0.06l0.09-0.01c0,0,0.27-0.04,0.36-0.05c0.03,0,0.12,0,0.12,0l1.24-0.03c0,0,0.74-0.05,0.99-0.1
			c0.02,0,0.68-0.08,0.92-0.46c0.01-0.02,0.2-0.61-0.74-0.62c0,0.01-0.84-0.04-1.13-0.06c-0.01,0-0.04,0-0.05,0
			c-0.38-0.04-0.96-0.11-1.42-0.5c-0.01,0.01-0.64-0.51-0.74-0.71c-0.01,0.01-0.25-0.35-0.44-0.54c-0.15-0.15-0.28-0.33-0.39-0.52
			c-0.05-0.1-0.07-0.22-0.12-0.24c-0.03-0.01-0.56-1.49-0.73-1.75c-0.01-0.01-0.27-0.58-0.4-1.31c0-0.01-0.14-0.91-0.21-1.21
			c-0.02-0.09,0-0.18,0.06-0.36c0.01-0.02,0.45-0.97,0.1-1.6c-0.01-0.02-0.29-0.43-0.55-0.64c-0.01-0.02-0.33-0.29-0.39-0.78
			c-0.01,0-0.19-1.99-0.47-2.47c0,0-0.49-1.44-0.68-1.92c-0.05-0.14-0.04-0.59,0.1-0.57c0.02,0,0.07,0.02,0.09,0.03
			c0.09,0.02,0.36,0.09,0.36-0.07c0-0.01-0.23-1.11-0.34-1.48c-0.01-0.05-0.02-0.09-0.02-0.14c-0.01-0.15-0.04-0.36-0.05-0.48
			c-0.01-0.09-0.01-0.26-0.02-0.35c-0.01-0.07,0.06-0.27,0.24-0.16c0.01,0.01,0.25,0.07,0.48,0.27c-0.01,0.01,0.63,0.6,0.74,0.79
			c-0.01-0.01,0.06,0.13,0.14,0.18c0.18,0.19,0.96,0.51,1.15,1.57c0,0.01,0.01,0.18,0,0.24c-0.01,0.05-0.06,0.2,0.12,0.16
			c0.02,0,0.23-0.12,0.31-0.17c0.08-0.04,0.15-0.09,0.3-0.21c0.13-0.11,0.2-0.26,0.26-0.42c0.12-0.33,0.19-1.17,0.02-1.3
			c-0.36-0.3-0.65-0.55-0.86-0.72c-0.16-0.13-0.49-0.4-0.62-0.54c-0.03-0.04-0.07-0.07-0.11-0.1c-0.11-0.08-0.28-0.24-0.4-0.3
			c-0.02-0.01-0.26-0.2-0.42-0.44c-0.01-0.01-0.5-0.54-0.61-0.67c-0.02-0.02-0.03-0.04-0.04-0.05c-0.09-0.12-0.47-0.63-0.62-0.72
			c0.01-0.01-0.53-0.54-0.52-1.05c0,0.01,0-2.15,0-2.15s-0.01-0.52-0.13-0.84c-0.02-0.04-0.13-0.15-0.2-0.68
			c0.01-0.01-0.05-0.5-0.24-0.85c-0.05-0.09-0.12-0.17-0.2-0.24c-0.05-0.04-0.14-0.13-0.15-0.19c-0.02-0.02-0.15-0.23-0.29-0.29
			c-0.02-0.01-0.23-0.38-0.18-0.61c0.05-0.23,0.15-0.69,0.18-0.92c0-0.02,0.05-0.27,0.05-0.27s0.1-0.18-0.05-0.4
			c0,0.01-0.12-0.16-0.05-0.4c0-0.01,0-0.21,0.02-0.28c0.02-0.05,0.08-0.11-0.05-0.19c0.01,0-0.11-0.08-0.12-0.23
			c0-0.02,0.06-0.19,0.18-0.15l0.31,0.09c0,0,0.59,0.33,0.74-0.43c0-0.01,0.1-0.3,0.25-0.38c0.02-0.01,0.14-0.16,0.12-0.32
			c0-0.01-0.03-0.08,0.1-0.17c0,0,0.25-0.19,0.25-0.19s0.12-0.05,0.05-0.17c0.01,0-0.29-0.31-0.37-0.42
			c-0.02-0.03-0.05-0.1-0.09-0.12c-0.04-0.03-0.09-0.08-0.08-0.17c0,0,0.05-0.38,0.05-0.38s0.14-0.66-0.09-0.86
			c-0.01-0.01-0.25-0.27-0.25-0.27s-0.1-0.06-0.01-0.19c0,0.01,0.38-0.4,0.61-0.46c0.02,0,0.11-0.04,0.05-0.17
			c0-0.01-0.82-0.72-1.9-0.82c-0.04,0-0.48-0.04-0.78-0.11c-0.05-0.01-0.1-0.02-0.15-0.03c-0.33-0.02-1.52-0.02-2.43,1.02
			c0.02,0.01-0.16,0.09-0.18,0.26c0,0.02-0.13,0.25-0.16,0.34c-0.04,0.1-0.08,0.26,0,0.41c0.01,0,0.05,0.07,0.05,0.16
			c0,0-0.15,1.23,0.19,1.5c0.02,0.02,0.39,0.56,0.43,0.84c0.02,0.13,0.07,0.32,0.23,0.46c0.01,0.01,0.07,0.21-0.16,0.25
			c0.02,0.01-0.52,0.01-0.52,0.01s-0.19-0.02-0.13,0.16c0.02,0.02,0.32,0.34,0.33,0.39c0,0.02,0.15,0.12,0.02,0.2
			c-0.01,0.01-0.13,0.15-0.2,0.23c-0.03,0.04-0.07,0.08-0.11,0.11c-0.1,0.09-0.28,0.26-0.28,0.47c0,0.02-0.1,0.23-0.22,0.39
			c-0.02,0.02-0.19,0.05-0.53,1.24c-0.01,0.01-0.23,0.76-0.23,0.76s0,0.11-0.07,0.22c0-0.01-0.38,0.37-0.4,0.81
			c-0.02-0.02-0.02,0.15-0.15,0.34c0-0.01-0.14,0.14-0.27,0.29c-0.11,0.12-0.21,0.25-0.27,0.39c-0.02,0.05-0.06,0.11-0.13,0.14
			c-0.01,0.02-0.27,0.06-0.28,0.54c0.02-0.02-0.03,0.43-0.16,0.54c0-0.01-0.17,0.33-0.3,0.39c0.01,0-0.1,0.02-0.09,0.11
			c0-0.01-0.03,0.21-0.01,0.35c0.01,0.09,0.03,0.17,0.07,0.25l0,0c0.08,0.18,0.19,0.21,0.09,0.52c-0.12,0.37-0.24,0.96-0.33,1.2
			c-0.01,0.03-0.13,0.22-0.16,0.47c0.01,0-0.1,2.35-0.1,2.35l-0.01,0.11l0,0.24l-0.04,0.23l-0.14,0.43l-0.04,0.13
			c-0.05,0.18-0.13,0.35-0.22,0.51c-0.08,0.15-0.25,0.37-0.3,0.72c0,0.02-0.06,0.14-0.38,0.29c-0.01,0.01-0.1,0.03-0.17,0.1
			c-0.01,0.01-0.08,0-0.1,0.01c-0.1,0.02-0.27,0.1-0.19,0.38c0,0.01,0.08,0.18,0.31,0.21c0.01,0,0.83-0.01,0.83-0.01
			s0.63,0,0.93-0.52c0.03-0.05,0.05-0.11,0.06-0.17c0.07-0.32,0.28-1.33,0.28-1.33l0.02-0.16c0,0,0.16-0.66,0.19-0.8
			c0.01-0.03,0.01-0.05,0.02-0.08l0.38-1.1c0,0,0.05-0.18,0.09-0.19c0-0.01,0.21-0.32,0.21-0.32s0.36-0.46,0.43-0.64
			c-0.01,0.02,0.02-0.07,0.07,0.03c0.02,0.03,0.08,0.37,0.08,0.37s0.15,0.16-0.13,1.02c0,0.04-0.25,0.7-0.25,0.7s-0.05,0.1-0.05,0.4
			c0.02,0-0.02,2.07-0.02,2.1c0,0.03-0.03,0.25,0.21,0.22c0.02,0.01,0.32,0.03,0.32,0.03s0.62,0.06,0.65,0.67
			c0-0.01-0.08,0.26-0.03,0.34c0,0.01-0.02,0.18-0.08,0.24c0-0.02-0.21,0.39-0.17,0.61c0,0.02-0.05,0.17-0.02,0.26
			c0,0.01-0.06,0.33-0.02,0.65c-0.02,0,0.02,0.1-0.06,0.19c0.02-0.01-0.48,0.57-0.43,1.03c0.01,0.02,0,1.16,0,1.16
			s0.02,0.16-0.04,0.28c0.01,0-0.3,0.76-0.4,1c-0.02,0.05-0.04,0.09-0.07,0.14l-1.05,1.63l-0.68,1.13l-0.47,0.81l-0.21,0.43
			l-0.26,0.5c-0.01,0.02-0.02,0.04-0.03,0.06l-0.13,0.2c0,0-0.08,0.19-0.15,0.21c0,0-0.27,0.32-0.48,0.55
			c-0.13,0.14-0.22,0.31-0.29,0.49l0,0.01c-0.02,0.02,0.12,0.36-0.09,0.71c0.01-0.01-0.21,0.32-0.33,0.51
			c-0.1,0.15-0.16,0.34-0.13,0.52c0.03,0.2,0.15,0.44,0.54,0.55c0.01,0.02,1.04,0.28,1.64,0.78c0,0.01,0.13,0.04,0.13,0.04
			l0.45,0.36c0,0,0.05,0.12,0.2,0.12c-0.02,0,2.75-0.06,2.75-0.06s0.33-0.05,0.12-0.49c-0.01,0.01-1.13-0.43-1.34-0.51
			c-0.03-0.01-0.05-0.02-0.07-0.03l-0.18-0.09c-0.02-0.01-0.04-0.02-0.05-0.03l-0.16-0.1c-0.08-0.05-0.15-0.11-0.2-0.18l-0.15-0.19
			c-0.02-0.02-0.03-0.04-0.04-0.06l0,0c-0.09-0.13-0.13-0.29-0.13-0.44v-0.1c0-0.1,0.02-0.2,0.05-0.29c0.07-0.19,0.21-0.6,0.35-1.32
			c0.05-0.24,0.08-0.42,0.64-0.74c0.01-0.02,0.28-0.12,0.31-0.36c0.01,0.01,0.3-0.55,0.3-0.55l0.09-0.2c0,0,0.74-1.25,0.83-1.3
			c0.01-0.01,0.98-0.99,0.98-0.99l0.17-0.12l0.51-0.58c0.04-0.05,0.09-0.1,0.12-0.17c0.1-0.22,0.13-0.5,0.17-0.73l0.1-0.49
			c0.02-0.07,0.04-0.15,0.06-0.22l0,0c0.04-0.12,0.09-0.23,0.15-0.34c0.13-0.24,0.36-0.67,0.36-0.71c-0.01,0.06,0.09-0.19,0.25-0.04
			c0-0.02,0.73,0.91,0.73,0.91s0.09,0.15,0.09,0.22c0.01,0.03,0.66,1.67,0.66,1.67s0.1,0.21,0.1,0.33
			c-0.02-0.02-0.02,1.44,0.52,2.58c0.01,0.01,0.12,0.34,0.12,0.34l0.05,0.14l0.58,1.27l0.03,0.05c0,0,0.6,1.08,0.71,1.14
			C3419.3,185.19,3420.23,186.3,3420.3,186.86z"/>
		<path d="M3577.58,194.34c-0.02-0.13-0.09-0.26-0.19-0.35c-0.04-0.03-0.09-0.09-0.12-0.18c-0.01,0.01-0.09-0.25-0.71-0.69
			c-0.05-0.04-0.06-0.1-0.19-0.18c0-0.01-0.45-0.25-0.63-0.3c-0.01-0.01-3.41-1.44-4.77-2.06c-0.27-0.12-0.55-0.23-0.84-0.31
			c-0.21-0.06-0.41-0.12-0.61-0.2l-0.3-0.06c-0.04-0.02-0.1-0.03-0.16-0.05c-0.18-0.04-0.36-0.06-0.54-0.07
			c-0.13,0-0.21-0.02-0.38-0.16c-0.01,0-0.3-0.05-0.37-0.21c0,0-0.36-0.51-0.36-0.51s-0.11-0.15-0.19-0.25
			c-0.11-0.13-0.21-0.27-0.3-0.41l0,0l-0.03-0.04c0,0,0-0.22-0.2-0.44c0.01,0-0.05,0-0.03-0.08c0.01,0.01,0.02-0.24-0.03-0.28
			c0.01,0-0.03-0.01-0.03-0.06c-0.01-0.01,0-0.42,0-0.42s-0.01-0.24-0.14-0.28c0.01,0-0.29-0.34-0.48-0.43
			c0.01,0-0.19-0.18-0.19-0.18s-0.06-0.04-0.05-0.11c0-0.01,0.04-0.21-0.07-0.33c0,0-0.36-0.46-0.36-0.46s-0.09-0.08-0.09-0.15
			c0,0-0.07-0.97-0.27-1.23c0.01,0-0.3-0.35-0.3-0.35l-0.14-0.18c0,0-0.14-0.2-0.28-0.32c-0.01,0-0.31-0.32-0.37-0.36
			c0-0.01-0.11-0.11-0.15-0.29c0,0.02-0.02-0.29-0.17-0.44c0.01,0.01-0.21-0.31-0.21-0.47c0,0-0.05-0.1-0.1-0.19
			c-0.12-0.2-0.22-0.41-0.3-0.64l-0.01-0.04c-0.03-0.08-0.06-0.17-0.08-0.25c-0.04-0.16-0.2-0.61-0.2-0.61l-0.03-0.04
			c0,0-0.21-0.35-0.26-0.66c-0.02-0.01-0.13-0.46-0.33-0.65c-0.01-0.01-0.31-0.46-0.32-0.71c0.01,0.01-0.1-0.49-0.36-0.61
			c-0.06-0.03-0.29-0.16-0.63-0.2c-0.07-0.01-0.29-0.07-0.35-0.23c-0.01-0.02-0.1-0.25-0.33-0.4c0-0.01-0.3-0.21-0.42-0.43
			c-0.03-0.06-0.04-0.13-0.02-0.19c0.03-0.09,0.09-0.15,0.11-0.2c0.11-0.28,0.3-1.13,0.3-1.13s0.03-0.23,0.22-0.46
			c0.02,0,0.61-0.72,0.83-1.68c0-0.02,0.01-0.05,0.01-0.07c0.02-0.15,0.14-0.89,0.07-1.3c-0.01,0-0.02-0.45-0.02-0.58
			c0-0.02,0-0.05-0.01-0.07c-0.01-0.09-0.03-0.33-0.09-0.51c-0.04-0.13-0.11-0.24-0.21-0.34c-0.02-0.02-0.05-0.05-0.08-0.07
			c-0.11-0.09-0.38-0.16-0.38-0.16s-0.14-0.01-0.21-0.06c-0.01-0.01-1.21-0.56-1.59-0.6c0.01,0.01-1.19-0.15-1.84,0.15
			c-0.09,0.04-0.17,0.1-0.24,0.17c-0.09,0.08-0.27,0.24-0.42,0.4c-0.17,0.17-0.26,0.4-0.27,0.64c-0.02,0.44-0.04,1.17-0.05,1.18
			c-0.01,0.02-0.01,0.4-0.02,0.52c0,0.02,0,0.04,0,0.07c0.01,0.19,0.08,1.13,0.17,1.53c0.01,0.01,0.08,0.4-0.02,0.53
			c0.01-0.01-0.02,0.15-0.04,0.26c-0.02,0.08-0.04,0.16-0.07,0.24c-0.06,0.16-0.19,0.43-0.34,0.52c-0.09,0.06-0.2,0.11-0.34,0.14
			c0.02,0-1.01,0.06-1.28,0.07c-0.04,0-0.08,0.01-0.12,0.01c0,0-0.51,0.07-0.68,0.09c-0.11,0.01-0.2,0.01-0.35,0.26
			c-0.02,0.03-0.06,0.08-0.12,0.09c-0.06,0.01-0.45,0.09-0.66,0.13c-0.07,0.01-0.15,0.02-0.23,0.02c0,0-0.09,0.02-0.18,0.01
			c-0.14-0.01-0.22,0.09-0.21,0.18c0.02,0.11,0.04,0.2,0.03,0.59c0,0.08-0.01,0.36-0.35,0.4c0.02,0-1.04,0.1-1.65,0.58
			c-0.25,0.19-0.39,0.5-0.39,0.82c0.01,0.55,0.02,1.81,0.17,2.71c0.01-0.01,0.07,0.88-0.01,1.53c-0.03,0.23-0.1,0.45-0.21,0.65
			c-0.1,0.18-0.22,0.42-0.22,0.42s-0.08-0.02-0.24,0.47c0.01-0.01-0.19,0.87-0.18,1.04c0,0.03,0,0.24-0.09,0.25
			c0,0.01-0.74,0.33-0.22,1.63c0.01,0.01,0.12,0.59,0.06,0.88c0.01-0.03-0.08,1.7-0.25,1.85c-0.01-0.01-0.07,0.19,0.04,0.46
			c-0.02-0.02,0.29,0.69,0.94,0.66c0.01,0.02,0.17-0.21,0.35-0.11c0.03,0.01,0.32,0.12,0.42-0.2c-0.01,0.01-0.02-0.21-0.02-0.37
			c0-0.17-0.02-0.35-0.08-0.51c-0.02-0.05-0.04-0.1-0.06-0.14c0.01-0.03-0.26-0.86-0.21-0.96c-0.01,0.02-0.02-0.69-0.02-0.69
			s0-0.1,0.11-0.11c0.03-0.01,0.44-0.01,0.5-0.04c-0.04,0.01,0.16-0.08,0.17,0.07c0.01-0.02,0.01,1.73,0.75,2.21
			c0.02,0,0.19,0.17,0.87,0.38c0.01,0.02,0.15,0,0.13,0.22c-0.01,0.03-0.2,5.65-0.36,6.36c-0.03,0.11-0.04,0.23-0.05,0.35
			c-0.02,0.35-0.05,0.93-0.07,1.21c-0.01,0.11-0.02,0.23-0.04,0.34l-0.43,2.41l-0.19,0.91c0,0,0.05,0.13-0.06,0.13
			c0.02,0-0.37,0.01-0.31,0.22c0.02,0,0.41,5.19,0.41,5.19l0.04,0.35c0,0-0.07,0.08-0.06,0.21c-0.03-0.02,0.03,0.64,0.03,0.64
			l0.05,0.12l-0.04,1.29l0.08,0.11l0.06,0.35c0,0,0.01,0.19,0.11,0.18c-0.02-0.02,1.59,0.1,1.59,0.1s0.34,0.02,0.65-0.03
			c0.26-0.04,0.45-0.27,0.43-0.54c-0.01-0.11-0.02-0.23-0.06-0.29c0,0.02-0.49-1.53-0.49-1.53s-0.22-0.47-0.07-1.09
			c-0.01-0.02,0.71-2.8,0.71-2.8l0.39-1.58c0,0,0.05-0.19,0.09-0.21c0.01-0.01,0.1-0.14-0.13-0.36c-0.01-0.01-0.11-0.02-0.11-0.23
			c-0.01,0.01,0.71-3.25,0.71-3.25l0.81-3.21c0-0.02,0.01-0.04,0.02-0.06l0.01-0.32c0,0,0.04-0.11,0.14-0.03l0.61,0.64
			c0,0,0.07,0.04,0.07,0.21c-0.02,0-0.09,5.37-0.09,5.37s0.06,0.13-0.08,0.17c0,0.02-0.44-0.16-0.33,0.38
			c0,0.04,0.01,0.07,0.01,0.11l0.08,2.34c0,0,0.03,1.03,0.06,1.38c0.01,0.07,0.02,0.21,0.03,0.28c0,0.03,0.02,0.08,0.02,0.12
			c0.02,0.03,0,0.79,0,0.79s0.01,0.14-0.03,0.16c0.02-0.01-0.02,0.01-0.03,0.04c0,0.01-0.11,0.44,0.03,0.81c0,0,0.06,0.12,0.04,0.25
			c0,0-0.03,0.09,0.03,0.13c-0.02-0.01,0.08,0.08,0.07,0.15c0,0,0.01,0.02,0.04,0.03c0,0,1.75,0,2.17,0c0.06,0,0.12,0.01,0.18,0.02
			l0.16,0.04l0.99,0.2c0.16,0.03,0.33,0.05,0.49,0.06l0.07,0c0.13,0.01,0.26,0,0.39-0.01l0.51-0.04l0.28-0.03
			c0,0,0.09-0.02,0.12-0.1c0,0,0.05-0.52,0.05-0.52v-0.24c0,0-0.01-0.1-0.07-0.14c-0.12-0.1-0.43-0.29-0.48-0.34
			c0.01,0-0.08-0.11-0.16-0.12c0,0-0.64-0.11-0.89-0.16c-0.07-0.01-0.14-0.03-0.21-0.06l-0.05-0.02c-0.07-0.02-0.14-0.06-0.2-0.09
			l-0.6-0.34c0,0-0.13-0.08-0.12-0.28c0,0,0.1-1.59,0.4-2.17c0.03-0.05,0.05-0.1,0.06-0.15c0.04-0.22,0.19-0.89,0.2-1.02
			c0,0.01,0.09-0.72,0.07-0.83c0-0.01-0.04-0.02-0.03-0.16c-0.01,0,0.3-4.36,0.3-4.36s-0.01-0.17,0.14-0.21
			c0.2-0.06,0.83-0.39,1.09-0.57c0.01,0,0.39-0.31,0.53-0.42c0.04-0.03,0.08-0.06,0.11-0.1c0.04-0.04,0.09-0.11,0.16-0.18
			c0.44-0.56,0.74-1.22,0.87-1.93c0.09-0.47,0.18-1.06,0.19-1.54c0-0.18,0.02-0.36,0.03-0.54c0.06-0.64,0.16-1.95,0.1-2.21
			c-0.01,0,0.03-0.92,0.03-0.92s0.1-0.56,0.66-0.58c0-0.02,0.29-0.04,0.43,0.08c0-0.01,0.12,0.05,0.22,0.09
			c0.11,0.04,0.32,0.13,0.32,0.13l0.39,0.21c0.04,0.02,0.07,0.04,0.11,0.05l0.43,0.19l0.11,0.07l0.07,0.09c0,0,0.28,0.2,0.28,0.25
			c0,0.01,0,0.39,0,0.39l-0.03,0.1l-0.02,0.08c0,0-0.02,0.33-0.01,0.44c0,0.06,0.02,0.12,0.18,0.18c0.05,0.02,0.62,0.25,1.05,0.32
			c0.29,0.05,0.73-0.06,0.98-0.23c0.17-0.13,0.09-0.07,0.13-0.11c0.03-0.03,0.19-0.17,0.16,0.01c0,0.01-0.02,0.36,0.29,0.24
			c0.02-0.01,0.11-0.28,0.31-0.15l6.51,2.7c0,0,0.29,0.03,0.16,0.26c0,0-0.13,0.15-0.13,0.15s-0.11,0.12-0.02,0.22
			c0,0.01,0.91,0.56,1.55,0.82c0.06,0.03,0.17,0.06,0.24,0.05c0.06-0.01,0.18,0.05,0.18,0.05s0.15,0,0.16-0.1
			C3577.56,195.1,3577.64,194.67,3577.58,194.34z M3563.17,187.43c-0.06,0.01-0.12,0.02-0.17,0.02c-0.17,0.02-0.33,0.09-0.46,0.19
			c-0.69,0.57-0.66,1.35-0.62,1.62c0.01,0.09,0.02,0.17,0.02,0.25c-0.01,0.37-0.02,1.31-0.03,1.7c0,0.12-0.01,0.24-0.01,0.36
			c-0.13,1.79-0.64,3.23-0.64,3.2c-0.28,0.65-0.78,1.03-1.1,1.21c-0.08,0.05-0.18-0.02-0.18-0.11c0.04-0.63,0.17-2.47,0.19-2.9
			c0-0.06,0.01-0.12,0.03-0.17c0.16-0.62,0.16-3.38,0.16-3.38l-0.05-3.43c0,0,0.02-2.82,0.04-3.52c0-0.08,0.09-0.13,0.16-0.09
			c0.62,0.37,0.81,1.63,0.81,1.56c-0.05,0.26,0.43,1.12,0.48,1.12c0.25,0.36,1.13,1.6,1.49,2.1
			C3563.35,187.28,3563.29,187.42,3563.17,187.43z"/>
		<path d="M3372.41,124.28c0,0,0.16,0.27,0.34,0.38c0.1,0.06,0.23,0.02,0.28-0.09c0.1-0.2,0.3-0.65,0.35-0.86
			c0.02-0.09,0.13-0.63,0.12-0.86c0-0.01,0-0.06,0.12-0.11c0.01,0,0.45,0.04,0.58,0.1c0.01,0.01,0.04,0.03,0.05,0.04
			c0.17,0.16,0.38,0.32,0.76,0.54c0.02,0.01,0.03,0.02,0.05,0.03c0.12,0.09,0.52,0.4,0.9,0.77c0.01,0.01,0.09,0.08,0.18,0.27
			c0.02,0.04,0.07,0.15,0.17,0.29c0.02,0.03,0.16,0.2,0.26,0.39c0.02,0.03,0.03,0.06,0.05,0.09c0.07,0.1,0.27,0.39,0.3,0.44
			c0.01,0.01,0.25,0.28,0.34,0.37c0.06,0.07,0.19,0.2,0.26,0.26c0.02,0.02,0.11,0.09,0.12-0.05c0-0.11,0.03-1.37-0.21-1.87
			c-0.03-0.06-0.05-0.12-0.06-0.18c-0.08-0.34-0.38-1.4-0.98-2.01c-0.01-0.01-0.49-0.56-0.91-0.75c-0.1-0.07-0.28-0.16-0.4-0.38
			c-0.01-0.03-0.17-0.33-0.26-0.42c-0.03-0.03-0.04-0.11-0.04-0.18c0-0.01-0.06-0.59-0.13-0.71c-0.01,0-0.13-0.37-0.51-0.28
			c0,0-0.33,0.19-0.48,0.34c-0.02,0.02-0.04,0.04-0.06,0.05c-0.11,0.09-0.59,0.37-0.77,0.48c-0.01,0-0.77,0.39-0.96,0.44
			c-0.01,0.01-0.8,0.38-1.02,0.68c-0.02,0.03-0.17,0.2-0.28,0.32c-0.01,0.01-0.22,0.2,0.06,0.28c0,0,0.18,0.03,0.24,0.04
			c0.15,0.01,0.42,0.01,0.61,0.01c0.08,0,0.16-0.01,0.24-0.03c0.07-0.01,0.14-0.01,0.14,0.07c0,0.01,0.02,0.06,0,0.14
			c0,0.01-0.03,0.07-0.04,0.2c0-0.01,0.01,0.07-0.05,0.13c0.01,0-0.22,0.25-0.31,0.31c-0.02,0.02-0.08,0.03-0.11,0.05
			c-0.18,0.08-0.32,0.15-0.39,0.7c-0.01,0.04-0.02,0.29-0.03,0.39c-0.01,0.04-0.04,0.18,0.09,0.12c0.07-0.03,0.27-0.13,0.27-0.13
			s0.25-0.08,0.35-0.09C3371.64,124.01,3372.21,123.89,3372.41,124.28z"/>
		<path d="M3418.7,131.33c0.19,0,0.47-0.05,0.7-0.32c-0.01,0.01,0.17-0.16,0.3-0.28c0.07-0.07,0.14-0.14,0.21-0.21
			c0.03-0.03,0.06-0.07,0.1-0.1c0.15-0.15,0.28-0.31,0.4-0.48c0.14-0.19,0.3-0.41,0.34-0.47c0-0.02,0.47-0.66,0.4-0.58
			c-0.07,0.09,0.38-0.49,0.89-0.09c0.03,0.02,0.19,0.15,0.37,0.26c0.06,0.04,0.49,0.42,0.6,0.5c0.1,0.07,0.34,0.21,0.48,0.02
			c0.15-0.2,0.16-0.78,0.16-1.04c-0.01-0.6-0.1-1.74-0.66-1.74c-0.1,0-0.7-0.02-1.25,0.16c-0.07,0.02-0.64,0.23-0.79,0.31
			c-0.06,0.03-0.11,0.06-0.17,0.1l-0.41,0.29c0,0-0.18,0.14-0.33,0.14c0.01,0-0.43,0.02-0.51,0.05c0.02-0.02-0.11,0.05-0.32-0.09
			c0,0.01-0.28-0.36-0.71-0.51c-0.08-0.01-0.21-0.04-0.29-0.05c-0.18-0.02-0.7-0.09-1.27,0.08c-0.18,0.06-1.05,0.37-1.28,0.46
			c-0.17,0.06-0.52,0.19-0.99,0.67c-0.08,0.08-0.15,0.18-0.2,0.28c-0.05,0.1-0.29,0.46-0.32,0.53c-0.06,0.14-0.2,0.38-0.2,0.38
			s-0.1,0.21,0.12,0.22c0.08-0.06,0.88-0.8,2.04-0.96c0.1-0.01,0.65-0.12,1.25,0.17c0.11,0.05,0.64,0.34,0.87,0.42
			c0.15,0.05,0.37,0.22,0.01,0.63c-0.07,0.07-0.35,0.35-0.46,0.51c-0.04,0.06-0.09,0.12-0.14,0.17c-0.05,0.05-0.2,0.21-0.22,0.26
			c0,0-0.24,0.31,0.11,0.33C3417.63,131.32,3418.42,131.33,3418.7,131.33z"/>
		<path d="M3459.41,96.55c0.25,0.06,0.52-0.01,0.67-0.21c0.05-0.06,0.09-0.14,0.11-0.23c0,0.02,0.43-1.23,0.92-1.91
			c0.01,0,0.44-0.76,0.52-1.1c0,0.01,0.06-0.31,0.17-0.42c0,0,0.27-0.45,0.45-0.78c0.12-0.22,0.26-0.42,0.42-0.62l0,0
			c0,0,0.18-0.26,0.28-0.33c-0.02-0.01,0.21-0.17,0.21-0.17s0.07-0.14-0.04-0.21c-0.1-0.06-0.31-0.23-0.56-0.04
			c-0.12,0.09-0.99,0.95-1.07,1.03c-0.03,0.03-0.07,0.1-0.17-0.03c0.01,0-0.4-0.39-0.65-0.07c0,0-0.14,0.17-0.37,0.21
			c-0.14,0.03-0.28-0.03-0.39-0.12c-0.11-0.09-0.26-0.25-0.33-0.5c-0.01,0.01-0.17-0.46-0.22-0.51c-0.01-0.01-0.4-0.85-0.44-1.01
			c-0.03-0.13-0.24-0.58-0.28-0.66c-0.06-0.11-0.17-0.36-0.19-0.48c-0.01-0.04-0.03-0.08-0.05-0.13c-0.13-0.26-0.52-1.02-1.14-1.5
			c-0.15-0.12-0.93-0.6-0.93-0.6s-0.25-0.11-0.24,0.16c0-0.01,0.28,1.03,0.29,1.06c0.01,0.03,0.26,0.7,0.22,0.85c0,0,0,0.01,0,0.01
			c-0.01,0.04-0.05,0.28,0.09,0.57c0.01,0.01,0.05,0.17,0.07,0.25c0.01,0.07,0.04,0.3,0.27,0.64c0.05,0.07,0.55,0.76,0.55,0.76
			s0.07,0.09,0.14,0.19c0.08,0.11,0.15,0.23,0.22,0.36c0.16,0.32,0.51,0.99,0.61,1.16c0.03,0.05,0.06,0.1,0.08,0.16
			c0.06,0.16,0.16,0.48,0.21,0.88c0,0.02,0,0.05,0.01,0.07c0,0.18,0.02,1.02,0.03,1.25c0,0.04,0,0.08,0,0.11
			c-0.01,0.15-0.07,0.54-0.16,0.72c-0.04,0.08-0.28,0.61-0.28,0.61s-0.16,0.21-0.02,0.29C3458.4,96.29,3459.06,96.46,3459.41,96.55z
			"/>
		<path d="M3475.59,87.06c0.63-0.01,0.9-0.26,0.92-0.28c0.08-0.09,0.51-0.64,0.56-0.77c0.04-0.07,0.39-1.08,0.43-1.17
			c0.03-0.06,0.05-0.13,0.06-0.19c0.04-0.2,0.17-0.72,0.53-0.77c0.01,0,0.18-0.03,0.3-0.05c0.07-0.01,0.14-0.02,0.21-0.02
			c0.24,0,0.81-0.01,1.05-0.08c0.02-0.01,0.26-0.07,0.35-0.09c0.13-0.03,0.54-0.12,0.54-0.12l0,0c0.2-0.05,0.18-0.19,0.2-0.37
			c0.01-0.2-0.01-0.57-0.1-0.67c-0.06-0.07-0.11-0.12-0.11-0.12s-0.07-0.19-0.13-0.21c-0.07-0.04-0.09-0.04-0.11-0.12
			c-0.01-0.02-0.21-0.5-0.8-0.38c0.01,0-0.81,0.35-0.81,0.35s-0.38,0.23-0.52,0.4c-0.03,0.04-0.2,0.17-0.28,0.22
			c-0.07,0.04-1.07,0.66-1.4,0.69c-0.08,0.01-0.13,0.06-0.2-0.05c0,0.01,0-0.03-0.2-0.06c-0.11-0.01-0.25-0.06-0.48-0.22
			c-0.12-0.08-0.22-0.17-0.32-0.27c-0.12-0.12-0.28-0.29-0.28-0.29l-0.25-0.24c-0.04-0.04-0.08-0.08-0.13-0.11
			c-0.1-0.07-0.27-0.19-0.3-0.21c-0.01,0.01-0.65-0.48-1.45-0.34c-0.07,0.01-0.14,0.04-0.2,0.06c-0.21,0.08-0.71,0.3-0.9,0.47
			c-0.06,0.04-0.45,0.29-0.73,0.44c-0.11,0.06-0.22,0.1-0.33,0.13c-0.11,0.03-0.34,0.1-0.34,0.1l0,0c0,0-1.11,0.4,0.13,0.62
			c0.08,0.01,0.13,0.02,0.13,0.02l1.15,0.18c0.03,0,0.06,0.01,0.09,0.02l0.3,0.07c0,0,0.23,0.05,0.54,0.07
			c0.19,0.01,0.37,0.05,0.55,0.11c0.33,0.12,0.84,0.3,1.14,0.41c0.16,0.06,0.31,0.16,0.42,0.29l0,0c0.03,0.04,0.06,0.07,0.08,0.11
			c0,0,0.09,0.14,0.12,0.19c0.02,0.03,0.05,0.06,0.07,0.1c0.06,0.15,0.16,0.51-0.12,1c-0.09,0.15-0.29,0.66-0.29,0.66
			s-0.2,0.5,0.17,0.5C3474.84,87.09,3475.41,87.06,3475.59,87.06z"/>
		<path d="M3514,159.28c0.01,0,0.03,0,0.04,0.01c0.08,0.01,0.33,0.07,0.33,0.07s0.14,0.03,0.13-0.07c0-0.04-0.13-0.24-0.16-0.31
			c-0.01-0.01-0.02-0.02-0.04-0.04c-0.08-0.07-0.15-0.36-0.29-0.71c-0.01-0.02-0.1-0.16,0.11-0.25c0.03-0.01,0.72-0.3,1.15-0.92
			c0.01-0.01,0.22-0.29,0.29-0.38c0.01-0.02,0.03-0.04,0.04-0.06c0.06-0.1,0.28-0.45,0.29-0.46c0.17-0.27,0.23-0.58,0.1-0.57
			c0,0-0.66,0.25-0.66,0.25s-0.64,0.31-0.98,0.46c-0.08,0.04-0.17,0.08-0.25,0.13c-0.24,0.15-0.84,0.51-1.49,0.63
			c0,0-0.97,0.24-1.07,0.25c-0.07,0.01-0.12-0.01-0.27,0.05c-0.07,0.03-0.57,0.2-0.75,0.29c-0.06,0.03-0.22,0.14-0.04,0.26
			c0,0,0.47,0.02,0.62,0.07c0.01,0,0.09,0.05,0.12,0.06c0.07,0.04,0.21,0.12,0.27,0.16c0.31,0.23,0.46,0.4,1.4,0.64
			c-0.01,0,0.14,0.03,0.25,0.05c0.05,0.01,0.09,0.03,0.14,0.05C3513.44,159.05,3513.82,159.23,3514,159.28z"/>
		<path d="M3502.97,115.12c0.05,0.03,0.11,0.05,0.16,0.06c0.66,0.18,3.85,1.03,5.16,1.26c0.19,0.03,0.57,0.07,0.78,0.05
			c0.03,0,0.52-0.05,0.24-0.23c-0.01-0.01-0.23-0.27-0.36-0.35c-0.07-0.04-0.5-0.37-0.65-0.39c-0.08-0.01-0.15-0.04-0.17-0.08
			c-0.01-0.03-1.03-0.67-1.24-0.79c-0.02-0.01-0.05-0.03-0.07-0.05c-0.2-0.14-1.27-0.84-1.67-1c-0.22-0.09-1.19-0.57-1.56-0.74
			c-0.07-0.03-0.13-0.11-0.2-0.15c-0.03-0.02-0.08-0.05-0.11-0.06c-0.08-0.05-0.16-0.09-0.24-0.13c-0.03-0.01-0.06-0.02-0.1-0.03
			c-0.04-0.01-0.13-0.03-0.17-0.04c-0.08-0.03-0.14-0.1-0.21-0.15c-0.02-0.02-0.06-0.04-0.12-0.04c-0.01,0-0.43,0-0.65-0.03
			c-0.15-0.02-0.3-0.02-0.45-0.02c-0.29,0.01-0.66,0.04-0.78,0.06c-0.03,0.01-0.07,0.01-0.1,0.01c-0.27,0.02-0.84,0.03-1.11,0.04
			c-0.31,0.01-1.24,0.07-1.24,0.07c-0.05,0-0.1,0-0.15,0c-0.37,0-1.92-0.06-2.02-0.07c-0.12-0.02-0.27-0.04-0.35-0.01
			c-0.09,0.03-0.22,0.2-0.08,0.36c0.01,0.01,1.85,0.61,2.19,0.72c0.03,0.01,0.06,0.02,0.1,0.03c0.11,0.03,0.38,0.11,0.53,0.18
			c0.06,0.03,0.12,0.05,0.18,0.07c0.21,0.07,0.75,0.29,1.44,0.39c0.05,0.01,0.16,0.02,0.21,0.03c0.25,0.03,1.11,0.21,0.76,0.62
			c-0.07,0.08-0.65,0.58-0.69,0.64c-0.08,0.1-0.15,0.21-0.21,0.33l-0.03,0.05c0,0-0.05,0.25,0.5,0.24c0.03,0,0.24,0.01,0.3,0.2
			c0,0,0.03,0.67,0.38,0.77c0.11,0.03,0.23-0.02,0.31-0.12c0.06-0.07,0.13-0.17,0.19-0.24c0.06-0.08,0.12-0.17,0.18-0.26
			c0.1-0.17,0.26-0.44,0.27-0.45c0.02-0.02,0.45-0.57,0.46-0.68C3502.55,115.14,3502.64,114.96,3502.97,115.12z"/>
		<path d="M3510.85,109.03c0.07,0.04,0.29,0.05,0.32,0.03c0.01,0,0.57-1.24,0.57-1.24s0.28-0.6,0.59-0.78
			c0.07-0.04,0.84-0.59,0.97-0.69c0.01-0.01,0.35-0.32,1.13-0.52c0.05-0.01,0.11-0.02,0.17-0.03c0.3-0.03,1.02-0.11,1.36-0.14
			c0.1-0.01,0.32-0.02,0.42-0.03c0,0,0.06-0.04,0.03-0.14c-0.01-0.02-0.25-0.75-0.58-0.76c-0.1,0-1.57-0.1-3.46,0.09
			c-0.03,0-0.76,0.34-1.19-0.15c0,0.01-0.68-0.71-0.83-0.88c-0.15-0.17-0.33-0.31-0.54-0.4c-0.28-0.12-0.61-0.33-0.8-0.45
			c-0.16-0.1-0.88-0.36-1.11-0.41c-0.01,0-0.17-0.06-0.33-0.09c-0.14-0.03-1.15,0.02-1.15,0.02s-0.13,0.02-0.17,0.06
			c-0.02,0.02-0.23,0.12-0.29,0.17c-0.03,0.02-0.09,0.08,0,0.16c0.05,0.04,0.18,0.13,0.18,0.13s0.18,0.13,0.24,0.16
			c-0.02-0.01,0.57,0.27,0.66,0.37c0.08,0.1,0.56,0.44,0.74,0.53c0.04,0.02,0.17,0.11,0.24,0.24c0.02,0.04,0.5,0.63,1.26,0.91
			c0.1,0.04,0.93,0.34,0.99,1.05c0.01,0.01,0.18,0.78-0.07,1.03c0.01-0.01-0.77,0.73-0.87,1.34c0,0.01-0.07,0.17,0.06,0.17
			C3509.37,108.76,3510.49,108.84,3510.85,109.03z"/>
		<path d="M3539.87,109.68L3539.87,109.68c0.2-0.06,0.39-0.16,0.54-0.29c0.05-0.04,0.1-0.1,0.14-0.15l0.22-0.31
			c0.03-0.04,0.06-0.08,0.1-0.12l0.33-0.37c0.03-0.03,0.05-0.05,0.07-0.08c0,0,0.65-0.85,1.28-0.77c0.2,0.03,0.45,0.07,0.67,0.18
			c0.06,0.03,0.38,0.28,0.5,0.5c0.01,0.02,0.22,0.34,0.27,0.46c0,0.01,0.04,0.09,0.12,0.26c0.01,0.02,0.14,0.43,0.4,0.58
			c-0.02,0,0.12,0.06,0.16,0.2c0,0.01,0.08,0.16,0.15,0.27c0.06,0.09,0.11,0.18,0.16,0.28c0.04,0.08,0.06,0.12,0.08,0.16
			c0.02,0.06,0.05,0.18,0.15,0.19c-0.02-0.01,0.36,0.14,0.38-0.09c0,0,0.02-0.07,0.03-0.09c0,0,0-0.01,0-0.01c0,0,0,0,0-0.01
			c0,0,0-0.01,0-0.01c0.25-0.91,0.52-2.15-0.53-3.72c-0.04-0.05-0.08-0.11-0.12-0.16c-0.14-0.17-0.93-1.15-0.98-1.21
			c-0.09-0.1-0.24-0.25-0.4-0.39c-0.24-0.2-0.55-0.31-0.87-0.29c-0.02,0-0.04,0-0.06,0.01c-0.17,0.02-0.33,0.09-0.45,0.21
			c-0.14,0.15-0.42,0.39-0.81,0.22c-0.01-0.01-0.23-0.15-0.35-0.21c-0.04-0.02-0.07-0.05-0.11-0.08c-0.31-0.18-0.87-0.3-1.13-0.34
			c-0.16-0.02-0.94-0.19-1.65,0.3c-0.02,0.01-1.05,0.71-1.23,0.95c-0.07,0.09-0.49,0.54-0.71,0.76c-0.07,0.09-0.14,0.18-0.21,0.26
			c0,0-0.33,0.44-0.41,0.61c-0.02,0.05-0.06,0.19,0.08,0.19c0.05,0,1.55-0.85,2.8-0.94c0.08-0.01,0.17,0,0.25,0.01l0,0
			c0.12,0.02,0.23,0.06,0.34,0.12c0.2,0.11,0.49,0.23,0.58,0.27c0.04,0.02,0.29,0.13,0.1,0.41c-0.05,0.07-0.28,0.32-0.4,0.45
			c-0.03,0.03-0.06,0.06-0.08,0.1c-0.07,0.11-0.65,0.59-0.76,0.75c-0.05,0.07-0.28,0.44-0.36,0.59c-0.03,0.06-0.1,0.19,0.03,0.25
			c0.01,0,0.86,0.12,1.26,0.13C3539.59,109.73,3539.73,109.71,3539.87,109.68z"/>
		<path d="M3543.06,153.38c0.04,0.03,0.21,0.1,0.22-0.05c0-0.01-0.19-0.71,0.29-0.79c0.05-0.01,0.94,0,1.17,0
			c0.04,0,0.07,0,0.11,0.01c0.09,0.01,0.27,0.04,0.33,0.06c0.12,0.03,1.85,0.19,1.85,0.19s1.27,0.15,1.7,0.14
			c0.07,0,0.26,0,0.34-0.02c0.03-0.01,0.05-0.01,0.08-0.01c0.2,0,0.75,0.01,1-0.01c0.04,0,0.17-0.03,0.05-0.16
			c0-0.02-0.81-0.59-1.11-0.67c0,0,0,0-0.01,0c-0.04,0-0.31-0.07-0.39-0.17c-0.03-0.03-0.04-0.09-0.19-0.08
			c-0.05,0-0.19-0.03-0.25-0.09c-0.05-0.04-0.11-0.06-0.36-0.05c-0.02,0-1.07-0.25-1.3-0.3c-0.03-0.01-0.06-0.02-0.09-0.03
			l-0.32-0.1c-0.03-0.01-0.06-0.03-0.09-0.04c0,0-0.52-0.3-0.71-0.36c-0.06-0.02-0.13-0.03-0.24-0.13
			c-0.07-0.07-0.11-0.16-0.11-0.26c0-0.13,0-0.33,0.01-0.39c0-0.02-0.01-0.04-0.01-0.06c-0.03-0.09-0.17-0.37-0.59-0.2
			c-0.13,0.05-0.62,0.37-0.93,0.11c-0.09-0.07-0.56-0.37-0.68-0.42c-0.03-0.01-1.27-0.91-1.59-1.14c-0.04-0.03-0.08-0.06-0.12-0.1
			c-0.04-0.03-0.09-0.08-0.14-0.12c-0.07-0.06-0.14-0.12-0.21-0.19c-0.13-0.12-0.35-0.32-0.47-0.39c-0.03-0.02-0.06-0.05-0.09-0.07
			c-0.15-0.15-0.6-0.57-0.6-0.57s-0.44-0.44-0.52-0.51c0,0-0.3-0.31-0.4-0.45c-0.03-0.04-0.06-0.07-0.09-0.11
			c-0.16-0.16-0.56-0.58-0.62-0.62c-0.01,0.01-0.36-0.33-0.36-0.33s-0.19-0.2-0.25-0.03c0,0,0,0.4,0,0.56
			c0,0.04,0.01,0.09,0.02,0.13c0.04,0.11,0.12,0.34,0.11,0.44c0,0,0,0.17,0.06,0.24c-0.01,0,0.18,0.25,0.34,0.45
			c0.13,0.17,0.24,0.36,0.32,0.57l0,0c0.01,0.02,0.02,0.04,0.03,0.07c0.06,0.13,0.96,1.42,0.99,1.45c0.07,0.09,0.29,0.35,0.29,0.35
			s0.19,0.25,0.49,0.46c0.15,0.11,0.32,0.19,0.51,0.21c0.28,0.03,0.55,0.41,0.62,0.48c0.05,0.05,0.09,0.11,0.12,0.17
			c0.06,0.12,0.17,0.33,0.26,0.43c0.03,0.04,0.17,0.29,0.19,0.42c0,0.03,0.14,1.04-0.22,1.26c0.01-0.01-0.98,0.49-1.19,0.73
			c-0.03,0.04-0.4,0.37-0.1,0.41c0.1,0.01,0.69,0,1.36-0.21c0.03-0.01,0.35-0.1,0.43-0.18c0.02-0.02,0.13-0.18,0.36-0.12
			C3542.45,153.24,3542.96,153.32,3543.06,153.38z"/>
		<path d="M3571.73,129.73c0.06,0.04,0.13,0.06,0.28,0.06c0.03,0,0.32-0.03,0.31-0.25c0-0.08,0.06-0.34-0.19-0.71
			c-0.03-0.05-0.12-0.18-0.21-0.26c-0.03-0.03-0.15-0.19-0.22-0.36c-0.02-0.05-0.04-0.09-0.06-0.14c-0.08-0.16-0.29-0.56-0.4-0.68
			c-0.09-0.1-0.42-0.56-0.48-0.76c-0.01-0.04-0.09-0.31-0.24-0.49c-0.03-0.04-0.13-0.18-0.2-0.37c-0.01-0.03-1.07-1.7-1.13-1.77
			c-0.16-0.19-0.57-0.69-0.58-1.11c0-0.01,0.01-0.22,0.02-0.29c0.01-0.05,0.05-0.17-0.12-0.16c-0.01,0-0.46,0.1-0.62,0.14
			c-0.07,0.02-0.27,0.07-0.27,0.07s-1,0.13-1.45,0.37c-0.02,0.01-0.3,0.12-0.4,0.16c-0.15,0.06-0.46,0.19-0.61,0.26
			c-0.09,0.04-0.17,0.08-0.26,0.12c-0.08,0.04-0.18,0.1-0.29,0.16c-0.04,0.03-0.09,0.06-0.13,0.08c-0.11,0.08-0.33,0.23-0.42,0.3
			c-0.04,0.02-0.07,0.05-0.1,0.07c0,0-0.42,0.25-0.57,0.34c-0.05,0.03-0.15,0.08-0.19,0.12c-0.06,0.04-0.23,0.24-0.05,0.29
			c0.08,0.02,0.26,0.01,0.35,0.02c0.22,0,0.55,0.07,0.87,0.02c0.18-0.03,0.77-0.12,0.77-0.12l0.23-0.02c0,0,0.09,0,0.06,0.07
			c0,0-0.18,0.3-0.29,0.44c-0.01,0.03-0.29,0.38-0.42,0.61c-0.04,0.08-0.12,0.2-0.18,0.27c-0.16,0.2-0.84,0.81-0.56,0.89
			c0.02,0.01,0.87,0.1,1.38,0.04c0.25-0.03,0.49-0.13,0.69-0.29c0.22-0.18,0.82-0.7,0.86-0.73c0.02-0.01,0.3-0.23,0.4-0.31
			c0.03-0.03,0.09-0.11,0.19-0.03c0.03,0.03,0.33,0.19,0.4,0.29c0.03,0.04,0.11,0.14,0.13,0.2c0.02,0.05,0.04,0.15,0.11,0.19
			c0.02,0.01,0.82,0.63,0.82,0.63l0.05,0.03c0,0,0.71,0.46,0.92,0.77c-0.02-0.04,0.18,0.24,0.29,0.38c0.04,0.05,0.08,0.1,0.12,0.14
			c0.07,0.07,0.17,0.17,0.25,0.24c0.11,0.1,0.43,0.58,0.59,0.64C3571.34,129.32,3571.67,129.68,3571.73,129.73z"/>
		<path d="M3582.89,124.53c0,0,0.81,0.47,1.14,0c0.02-0.02,1.24-1.3,1.35-1.42c0.04-0.05,0.08-0.09,0.12-0.13l0,0
			c0.16-0.14,0.34-0.25,0.54-0.32c0.17-0.06,0.97-0.32,1.3-0.48c0.01-0.01,0.75-0.3,0.97-0.38c0.04-0.01,0.07-0.03,0.11-0.03
			c0.08-0.02,0.18-0.02,0.3-0.09c0,0,0.28-0.11,0.59-0.21c0.38-0.13,0.78-0.19,1.18-0.17c0.13,0,0.26,0.01,0.34,0
			c0.04,0,0.22-0.08,0-0.18c-0.19-0.09-0.31-0.02-0.51-0.16c-0.11-0.07-0.38-0.2-0.5-0.27c-0.24-0.13-0.59-0.33-0.98-0.45
			c-0.06-0.02-0.16-0.03-0.22-0.03c-0.09,0-0.26-0.01-0.37-0.12c0.01,0-0.34-0.33-0.78-0.36c-0.1-0.01-1-0.02-1.38,0.16
			c-0.05,0.03-0.05,0.03-0.14,0.03c-0.19,0.01-0.37-0.12-0.42-0.31c-0.02-0.08-0.3-0.62-0.37-0.78c0-0.01-0.36-0.99-1.37-1.81
			c0,0-0.14-0.1-0.28-0.21c-0.14-0.1-0.34-0.29-0.45-0.41l0,0c-0.16-0.19-0.44-0.25-0.57-0.19c-0.05,0.03-0.14,0.05-0.09,0.17
			c0.11,0.26,0.32,0.32,0.34,1.08c0,0.09-0.12,0.04-0.11,0.25c0,0.01,0.02,0.19,0.01,0.25c-0.01,0.06,0.02,0.16-0.06,0.19
			c-0.03,0.01-0.12,0.03-0.14,0.19c-0.01,0.05-0.09,0.41,0.01,0.57c0,0,0.65,1.28,0.88,1.74c0.08,0.15,0.17,0.29,0.3,0.4
			c0.08,0.07,0.17,0.13,0.25,0.16c0.17,0.06,0.55,0.34,0.24,0.66c-0.1,0.1-0.19,0.15-0.31,0.23c-0.06,0.04-0.12,0.07-0.19,0.1
			c0,0,0,0,0,0c-0.09,0.04-0.17,0.08-0.25,0.14c-0.15,0.12-0.89,0.79-0.99,0.9c-0.04,0.05-0.31,0.45-0.31,0.45s-0.16,0.19,0,0.34
			C3582.11,124.07,3582.89,124.53,3582.89,124.53z"/>
		<path d="M3566.45,104.28c0.24-0.02,0.46,0.04,0.83,0.3c0.11,0.08,0.22,0.6,0.34,0.71c0.04,0.04,0.06,0.18,0.07,0.31
			c0,0.01,0.17,1.53,0.6,2c0.01,0.01,0.35,0.36,0.36,0.42c0,0.01,0.05,0.08,0.07,0.1c0.05,0.06,0.25,0.25,0.31,0
			c0.01-0.05,0.45-2.14,0.13-3.22c-0.04-0.13-0.07-0.26-0.08-0.4c-0.01-0.07-0.02-0.16-0.04-0.26c-0.06-0.31-0.12-0.62-0.29-0.89
			c-0.04-0.06-0.05-0.14-0.08-0.18c-0.14-0.22-0.95-1.05-1.22-1.15c-0.08-0.03-0.29-0.1-0.35-0.2c-0.03-0.05-0.01-0.11-0.14-0.09
			c-0.07,0.01-0.38,0.05-0.67-0.04c-0.05-0.01-0.63-0.09-1.41-0.07c-0.02,0-2.64,0.13-3.18,0.85c-0.06,0.08-0.1,0.73-0.02,0.73
			c0.4-0.02,1.36-0.19,1.47,0.64c0.02,0.11,0.05,0.51,0.08,0.68c0.01,0.07,0.02,0.2-0.12,0.26c-0.03,0.01-0.27,0.13-0.36,0.18
			c-0.04,0.02-0.16,0.12,0.04,0.16c0.04,0.01,0.31,0.01,0.63,0.02c0.31,0.01,0.63-0.04,0.92-0.15c0.09-0.03,1.33-0.49,1.61-0.57
			C3566.09,104.36,3566.36,104.28,3566.45,104.28z"/>
		<path d="M3578.03,94.76c0.04-0.02,0.07-0.02,0.17-0.06c0.51-0.2,1.56,0.64,1.71,0.74c0.11,0.07,0.67,0.79,1.12,1.04
			c0.01,0,0.22,0.14,0.29,0.2c0.24,0.2,0.7,0.53,1.12,0.73c0.09,0.04,0.77,0.48,1.04,0.62c0.04,0.02,0.12,0.06,0.16,0.08
			c0.23,0.1,0.66,0.24,0.97,0.27c0.1,0.01,0.6,0.08,0.29-0.42c-0.11-0.17-0.38-0.57-0.38-0.57l-0.14-0.22l-0.07-0.11l-0.21-0.27
			c0,0-0.09-0.11-0.19-0.2c-0.1-0.1-0.19-0.2-0.28-0.3c-0.17-0.2-0.25-0.27-0.25-0.27l-0.48-0.53l-0.09-0.1c0,0-0.55-0.63-0.73-0.84
			c-0.02-0.02-0.05-0.06-0.06-0.08c-0.13-0.19-0.32-0.55-0.5-0.86c-0.11-0.19-0.23-0.37-0.37-0.54c-0.03-0.04-0.06-0.08-0.09-0.13
			c-0.14-0.24-0.18-0.51-0.16-0.79c0.01-0.17,0.01-0.35,0.01-0.52c0-0.07,0-0.15,0.01-0.2c0.03-0.23,0.1-0.74-0.36-0.86
			c-0.01,0-1.3-0.05-1.74-0.08c-0.38-0.02-1.15-0.09-1.53-0.13c-0.08-0.01-0.16-0.02-0.23-0.03c-0.04-0.01-0.11-0.02-0.15-0.03
			c-0.15-0.03-0.44-0.11-0.59-0.14c-0.2-0.04-0.59-0.11-0.78-0.16c-0.1-0.03-0.18-0.07-0.42-0.07c-0.13,0-0.26-0.02-0.38-0.07
			c-0.11-0.05-0.23-0.08-0.32-0.09c-0.11-0.02-0.93-0.35-1.07-0.37c-0.01,0-0.03,0-0.04-0.01c-0.09-0.04-0.46-0.19-0.46-0.19
			s-0.27-0.1-0.22,0.1c0,0.01,0.42,0.92,0.82,1.26c0.15,0.12,0.52,0.52,0.55,0.55c0.05,0.04,1.79,1.28,1.94,1.31
			c-0.02-0.01,0.21,0.06,0.39,0.09c0.08,0.02,1.28,0.18,0.7,0.82c-0.15,0.17-1.01,0.88-1.22,1.19c-0.02,0.03-0.13,0.15-0.18,0.19
			c-0.07,0.06-0.27,0.14-0.09,0.34c0.01,0.01,0.16,0.12,0.25,0.2c0.05,0.04,0.11,0.08,0.16,0.11c0.04,0.02,0.09,0.05,0.14,0.08
			c0.13,0.08,1.19,0.59,1.4,0.15C3577.48,95.57,3577.63,94.91,3578.03,94.76z"/>
		<path d="M3605.67,107.23c0,0,0-0.16,0.22-0.05c0.02,0,0.24,0.18,0.37,0.22c0.05,0.02,0.09,0.04,0.13,0.07
			c0.11,0.09,0.3,0.26,0.38,0.44c0.03,0.06,0.82,1.52,1.12,1.36c0.11-0.06,1.15-1.87,0.7-3.21c-0.1-0.29-0.34-0.51-0.63-0.62
			c-0.21-0.08-0.46-0.14-0.57-0.16c-0.17-0.04-0.29-0.05-0.3-0.31c-0.01-0.2-0.04-0.59-0.12-0.75c-0.02-0.04-0.05-0.11-0.11-0.16
			c-0.04-0.03-0.05-0.11-0.12-0.15c-0.04-0.02-0.14-0.05-0.26,0.16c-0.01,0.01-0.08,0.22-0.11,0.29c-0.07,0.16-0.15,0.31-0.57,0.43
			c-0.17,0.05-0.52,0.09-0.66-0.12c-0.08-0.12-0.5-0.67-0.64-0.85c-0.1-0.12-0.18-0.25-0.26-0.38l-0.06-0.1c0,0-0.26-0.52-0.97-0.75
			c-0.01-0.01-0.66-0.28-0.66-0.28s-0.13-0.09-0.54-0.04c0.01,0-1.63,0.33-1.88,0.33c-0.03,0.01-0.95,0.05-0.95,0.05
			s-0.88,0.06-0.89,0.07c-0.03,0.01-0.17,0.06-0.05,0.15c0.02,0.02,1.59,0.78,1.66,0.82c0.24,0.12,0.48,0.25,0.71,0.4
			c0.37,0.25,0.84,0.56,0.84,0.56l0.24,0.14c0,0,0.2,0.11,0.43,0.27c0.03,0.02,0.16,0.01,0.63,0.81c0.07,0.12,0.13,0.26,0.17,0.4
			c0.03,0.11,0.07,0.25,0.12,0.32c0.03,0.09,0.12,0.28-0.22,0.5c0,0.02-0.99,0.57-1.25,0.78c0.01,0-0.23,0.12-0.23,0.12
			s-0.34,0.15-0.14,0.41c0,0,0.63,0.47,0.85,0.63c0.06,0.04,0.12,0.08,0.19,0.1c0.18,0.06,0.53,0.14,0.9,0.01
			c0.01,0,0.38-0.39,0.63-0.65c0.2-0.21,0.44-0.37,0.71-0.47c0.03-0.01,0.06-0.02,0.09-0.03c0.18-0.04,0.46,0,0.6-0.11
			C3605.49,107.69,3605.67,107.23,3605.67,107.23z"/>
		<path d="M3608.34,38.4c0.08,0.06,0.33,0.23,0.33,0.23s0.18,0.17,0.22,0c0.03-0.11,0.03-0.85-0.03-1.09
			c-0.01-0.06-0.12-1.27-0.08-1.45c0.02-0.09,0.11-0.26,0.29-0.19c0.08,0.03,0.58,0.26,0.68,0.31c0.11,0.05,2.11,0.72,2.66,0.65
			c0.03,0,1.4-0.05,1.4-0.05s0.88-0.02,1.31-0.05c0.07-0.01,0.14-0.02,0.21-0.04c0.23-0.06,0.83-0.27,0.51-0.45
			c-0.17-0.09-2.55-0.58-2.72-0.67c-0.28-0.15-2.19-0.7-2.31-0.89c-0.1-0.15-0.1-0.28-0.93-0.59c-0.03-0.01-0.06-0.02-0.09-0.03
			c-0.17-0.04-0.71-0.17-0.93-0.26c-0.05-0.02-0.12-0.09-0.17-0.1c-0.04-0.01-0.12-0.14-0.14-0.31c-0.02-0.16-0.35-0.86-0.35-0.86
			s-0.03-0.16-0.21-0.07c0-0.02-1.14,0.74-1.55,0.58c-0.08-0.03-0.24-0.05-0.32-0.07c-0.02,0-0.04-0.01-0.05-0.02
			c-0.05-0.03-0.71-0.16-0.83-0.26c-0.03-0.02-0.22-0.19-0.44-0.16c-0.18,0.02-0.65-0.29-1.13-0.46c-0.01,0-0.85-0.38-1.07-0.53
			c-0.14-0.1-0.15-0.07-0.29-0.12c0.01,0-0.72-0.27-0.94-0.4c-0.04-0.02-0.15-0.11-0.15-0.11s-0.12-0.09-0.14,0.06
			c0,0.01,0.62,0.73,0.7,0.87c0.04,0.06,0.45,0.47,0.67,0.64c0.11,0.09,1.35,0.94,1.37,0.95c0.07,0.03,1.43,1.01,1.56,1.04
			c0.08,0.02,0.21,0.04,0.25,0.11c0.02,0.04,0.17,0.19,0.32,0.2c0.02,0,0.17,0.05,0.24,0.12c0.03,0.03,0.33,0.22,0.44,0.31
			c0.06,0.05,0.23,0.1,0.22,0.36c-0.03,0.64-0.17,1.16-0.33,1.52c-0.07,0.15-0.27,0.44,0.11,0.64c0.07,0.03,0.65,0.33,0.76,0.36
			C3607.46,38.13,3607.84,38.01,3608.34,38.4z"/>
		<path d="M3633.4,126.42c-0.05-0.19,0.02-0.39,0.1-0.56c0.09-0.21,0.23-0.45,0.29-0.55c0.01-0.03,0.06-0.14,0.18-0.09
			c0.03,0.01,0.97,0.83,1.26,0.92c0.04,0.01,0.18,0.02,0.24,0.23c0.01,0.02,0.27,0.37,0.42,0.57c0.08,0.1,0.14,0.22,0.19,0.34
			c0.03,0.07,0.05,0.15,0.07,0.19c0.22,0.7,0.58,0.89,0.64,1.07c0.02,0.08,0.18,0.38,0.23,0.49c0.01,0.02,0.02,0.04,0.03,0.06
			l0.21,0.37c0.02,0.03,0.04,0.06,0.06,0.09c0.06,0.08,0.15,0.23,0.19,0.35c0.01,0.01,0.49,0.74,0.56,0.44
			c0.01-0.03,0.08-5.3-1.33-6.43c-0.08-0.07-0.28-0.23-0.33-0.32c-0.06-0.1-0.28-0.38-0.68-0.54c-0.13-0.05-0.36-0.08-0.35-0.33
			c0-0.12,0.18-1.04-0.16-1.05c-0.01,0-0.58,0.03-0.77,0.06c-0.12,0.01-0.21,0.03-0.48,0.15c-0.17,0.07-0.58,0.19-0.74,0.28
			c-1.25,0.78-2.02,1.94-2.26,2.22c-0.1,0.12-0.19,0.26-0.27,0.4c-0.12,0.24-0.3,0.5-0.4,0.59c-0.08,0.07-0.41,0.37-0.37,0.91
			c0,0.06,0.02,0.17,0.11,0.15c0.08-0.02,1-0.06,1.33-0.09c0.08-0.01,0.26-0.04,0.3,0.12c0.01,0.05,0,0.31,0.55,0.39
			c0.16,0.02,0.73,0.04,0.98,0.04C3633.31,126.87,3633.5,126.76,3633.4,126.42z"/>
		<path d="M3626.78,107.37c0.03-0.02,1.25-0.85,2.11-1.27c0.29-0.14,0.95-0.11,1.14,0.05c0.1,0.08,0.56,0.3,0.78,0.59
			c0-0.01,0.11,0.13,0.2,0.25c0.14,0.17,0.25,0.35,0.33,0.55c0.07,0.18,0.15,0.42,0.21,0.72c0.02,0.11,0.05,0.22,0.08,0.32
			c0.02,0.07,0.08,0.44,0.11,0.57c0.01,0.03,0.03,0.06,0.06,0.07c0.09,0.03,0.26,0.05,0.26,0.05s0.08,0,0.05-0.15
			c0,0.01-0.18-1.37-0.17-1.73c0.01-0.32-0.04-2.45-0.52-2.92c-0.15-0.14-0.4-0.33-0.71-0.42c-0.01,0-0.39-0.22-0.67-0.2
			c0,0-0.09,0.02-0.12-0.1c0,0.01-0.07-0.32-0.11-0.6c-0.01-0.07-0.01-0.13-0.01-0.2c0-0.05-0.02-0.12-0.12-0.11
			c0,0.01-0.72,0.27-1.18,0.53c-0.01,0.01-0.08,0.12-0.21,0.01c-0.02-0.03-0.07-0.16-0.25-0.25c-0.01-0.01-0.42-0.2-0.83-0.57
			c-0.01-0.01-0.15-0.18-0.43-0.13c0.01-0.01-1.95,0.37-2.33,0.53c-0.02,0.01-0.04,0.01-0.07,0.02c-0.1,0.04-0.4,0.15-0.48,0.2
			c-0.19,0.11-1.52,0.7-1.52,0.7s-0.24,0.1-0.31,0.14c-0.03,0.02-0.11,0.08,0.01,0.16c0.01,0.01,0.15-0.02,0.19,0.03
			c0.01,0.01,0.08,0.02,0.18-0.01c0.82-0.24,1.64-0.41,1.83-0.28c0,0,0.33,0.12,0.49,0.17c0.06,0.02,1.03,0.32,1.37,0.43
			c0.23,0.08,0.52,0.19,0.4,0.87c0-0.01-0.09,0.48-0.3,0.79c-0.03,0.04-0.06,0.07-0.09,0.1c-0.16,0.16-0.44,0.54-0.64,0.64
			c-0.02,0.01-0.11,0.03-0.04,0.1c0.13,0.14,0.47,0.35,0.63,0.46c0.08,0.06,0.22,0.15,0.39,0.06
			C3626.58,107.49,3626.71,107.41,3626.78,107.37z"/>
		<path d="M3631.08,89.16c0.09-0.32,0.39-0.91,0.5-1.22c0.02-0.06,0.05-0.11,0.22-0.15c0.04-0.01,1.05-0.33,1.16-0.33
			c0.06,0,0.75-0.17,1.18,0.02c0.39,0.17,3.5,0.38,3.5,0.38s0.92,0.03,1.03,0.01c0.07-0.02,0.38-0.03,0.11-0.29
			c-0.3-0.3-1.36-0.87-1.43-0.91c-0.09-0.05-0.54-0.35-0.95-0.55c-0.16-0.06-0.33-0.11-0.49-0.17c-0.15-0.03-0.44-0.11-0.57-0.21
			c0-0.01-0.74-0.31-1.11-0.33c-0.12-0.01-0.46-0.07-0.61-0.05c-0.05,0.01-0.18-0.01-0.19-0.1c0-0.01-0.13-0.93-0.23-1.1
			c-0.03-0.06-0.07-0.24-0.21-0.09c-0.09,0.1-0.24,0.4-0.32,0.43c-0.03,0.01-0.25,0.15-0.38,0.4c-0.01,0.02-0.03,0.08-0.13,0.05
			c-0.15-0.04-0.53-0.18-0.75-0.19c-0.01,0-0.55-0.15-0.73-0.2c-0.04-0.01-0.09-0.02-0.13-0.03c-0.07-0.01-1.11-0.3-1.26-0.36
			c-0.02-0.01-0.14-0.07-0.2-0.08c-0.09,0-1.1-0.1-1.25-0.09c-0.1,0-0.91-0.03-0.99-0.03c-0.2,0.01-0.59,0-0.72-0.08
			c0,0-0.14-0.05-0.31-0.07c-0.04-0.01-0.68-0.29-0.68-0.29s-0.22-0.1-0.22,0.09c0,0.05,0.02,0.11,0.14,0.2
			c0.02,0.02,0.38,0.4,0.66,0.66c0.1,0.07,0.2,0.14,0.3,0.22c0.11,0.05,0.55,0.47,0.98,0.6c0,0,1.55,0.59,2.17,1.03
			c-0.01-0.01,0.35,0.23,0.96,0.41c0.03,0.01,0.07,0.01,0.1,0.02c0.16,0.02,0.66,0.07,0.4,0.53c0-0.01-0.22,0.48-0.45,0.64
			c-0.02,0.02-0.54,0.4-0.36,0.92c0.03,0.08,0.11,0.39,0.29,0.4c-0.02,0.01,0.66,0.04,0.88,0.03
			C3631.02,89.27,3631.05,89.27,3631.08,89.16z"/>
		<path d="M3709.56,165.19c0.15-0.1,1.39-0.7,1.65-1.1c0-0.01,0.78-1.05,1.2-1.34c0.05-0.04,1.09-0.77,1.32-0.98
			c0.14-0.12,0.29-0.23,0.45-0.31c0.21-0.1,0.45-0.18,0.71-0.22c0,0,1.07-0.24,1.43-0.32c0.04-0.01,1.35-0.28,1.51-0.32
			c-0.01,0,0.65-0.13,0.81-0.15c0.07-0.01,0.35-0.07,0.16-0.24c-0.14-0.13-0.72-0.06-0.98-0.15c-0.06-0.02-0.6-0.18-0.82-0.19
			c-0.13,0-2.34-0.04-2.34-0.04l-0.01,0c-0.2-0.03-0.4-0.09-0.57-0.2c-0.1-0.07-0.25-0.14-0.35-0.17c-0.08-0.03-0.31-0.16-0.4-0.23
			c-0.03-0.02-0.18-0.15-0.35,0c-0.02,0.01-0.76,0.58-1.09,0.92c0-0.01-0.22,0.19-0.37,0.29l-0.61,0.45
			c-0.02,0.02-0.04,0.03-0.06,0.05c-0.04,0.04-0.11,0.12-0.17,0.15c-0.11,0.08-1.23,0.83-1.47,1c-0.03,0.02-0.06,0.04-0.08,0.06
			c-0.05,0.04-0.13,0.1-0.19,0.13c-0.14,0.07-0.45,0.22-0.67,0.31c-0.12,0.05-0.25,0.08-0.39,0.09c-0.06,0-0.13,0.01-0.16,0.02
			c-0.05,0.02-0.2,0.16-0.06,0.21c0.06,0.03,1.28-0.1,1.51-0.16c0.03-0.01,0.24-0.07,0.42-0.11c0.07-0.02,0.13-0.02,0.2-0.03
			c0.14-0.01,0.45-0.02,0.53-0.05c0,0.01,0.32-0.13,0.26,0.14c-0.01,0.01-0.49,1.45-0.97,2.07c0,0-0.17,0.23-0.21,0.31
			C3709.38,165.12,3709.26,165.39,3709.56,165.19z"/>
		<path d="M3744.94,127.15c0-0.34,0-0.9-0.08-1.36c-0.03-0.15,0.01-0.59-0.02-0.79c-0.01-0.04-0.04-0.12,0.08-0.12
			c0,0,0.4,0.01,0.61-0.1c0.21-0.11,0.98-0.18,1.18-0.23c0.02-0.01,2.27-0.23,2.52-0.31c0.03-0.01,1.65-0.31,1.89-0.37
			c0.01,0,0.44-0.15,0.69-0.19c0.48-0.07,0.19-0.31,0.1-0.33c-0.44-0.14-1.39,0.01-1.86-0.1c-0.03-0.01-1.32-0.15-1.32-0.15
			s-2.03-0.22-2.39-0.39c0,0.02-1.25-0.47-1.46-0.52c-0.03-0.01-0.15-0.07-0.24-0.18c-0.08-0.09-0.26-0.24-0.3-0.32
			c-0.01-0.01-0.04-0.07-0.09-0.16c-0.01-0.03-0.47-0.76-0.74-0.26c-0.17,0.31-0.45,0.83-1.12,1.28c-0.13,0.09-0.28,0.17-0.43,0.22
			c-0.31,0.11-0.82,0.3-1.48,0.74c-0.06,0.04-0.12,0.07-0.18,0.1c-0.18,0.09-1.8,0.57-2.22,0.7c-0.07,0.02-0.13,0.04-0.2,0.05
			l-0.73,0.13c-0.05,0.01-0.1,0.02-0.16,0.02c-0.16,0.01-0.63,0.11-0.44,0.31c0.18,0.19,0.58,0.29,0.96,0.41
			c0.07,0.02,0.14,0.03,0.21,0.03c0.38-0.02,1.99-0.03,3.27-0.24c0.08-0.01,0.16-0.02,0.24-0.03c0.39-0.02,1.55-0.08,1.72-0.12
			c-0.02,0.01,0.29-0.07,0.23,0.16c0-0.01-0.08,0.67-0.18,0.97c-0.05,0.15-0.08,0.31-0.09,0.47c0,0.06-0.01,0.11-0.01,0.15
			c0,0.02-0.06,0.31-0.06,0.31s-0.02,0.14-0.03,0.19c-0.01,0.04-0.09,0.21,0.11,0.14c-0.01-0.01,1-0.22,1.67-0.03
			c0.03,0.01,0.07,0.03,0.1,0.04C3744.78,127.32,3744.94,127.37,3744.94,127.15z"/>
		<path d="M3674.16,116.77c-0.05-0.08-0.09-0.12-0.08-0.37c0.01-0.15-0.01-0.85,0.24-0.68c0.04,0.03,0.54,0.38,0.71,0.41
			c0.05,0.01,0.08,0,0.17,0.07c0,0,0.24,0.21,0.38,0.27c0.05,0.02,0.75,0.37,1,0.48c0.09,0.03,0.21,0.08,0.37,0.07
			c0.08-0.01,1.15,0.03,1.39,0.03c0.01,0,0.36,0,0.18-0.23c-0.06-0.08-0.24-0.21-0.33-0.3c-0.09-0.1-0.81-0.81-1.15-0.98
			c-0.06-0.03-0.14-0.07-0.22-0.17c-0.01-0.02-0.27-0.21-0.45-0.24c-0.02,0-0.04-0.01-0.05-0.02c-0.12-0.07-0.55-0.35-0.55-0.35
			s-0.68-0.45-0.85-0.57c-0.17-0.12-0.64-0.41-1.01-0.89c-0.05-0.07-0.09,0-0.09-0.13c-0.01,0,0.09-0.59-0.18-0.69
			c-0.02-0.01-0.23-0.1-0.37,0.03c-0.03,0.03-0.08,0.23-0.28,0.02c0,0-0.33-0.32-0.49-0.48c-0.06-0.06-0.12-0.11-0.18-0.16
			c-0.26-0.21-0.97-0.77-1.05-0.81c-0.18-0.09-0.33-0.23-0.42-0.34c0.02,0.02-0.33-0.5-0.9-0.71c-0.05-0.02-0.14-0.11-0.2,0.04
			c0,0.01-0.05,0.3-0.09,0.39c-0.03,0.08-0.01,0.22,0.05,0.33c0.01,0.01,0.33,0.71,0.6,0.96c0.02,0.02,0.15,0.18,0.23,0.33
			c0.01,0.02,0.35,0.56,0.56,0.64c0.07,0.03,0.16,0.1,0.2,0.25c0.02,0.07,0.14,0.23,0.31,0.36c0.09,0.07,0.17,0.14,0.24,0.23
			c0.16,0.18,0.38,0.44,0.42,0.52c0.02,0.04,0.16,0.26,0.25,0.39c0.03,0.04,0.04,0.09,0.05,0.13c0.01,0.17,0.06,0.6,0.15,0.85
			c0.01,0.05,0.02,0.11,0.03,0.16c-0.02,0.6-0.15,0.95-0.2,1.06c-0.03,0.06-0.01,0.17,0.08,0.26c0.1,0.1,0.25,0.13,0.38,0.07
			c0.13-0.05,0.4-0.18,0.56-0.07C3673.57,116.93,3674.49,117.34,3674.16,116.77z"/>
		<path d="M3656.2,82.54c0.08,0.01,0.31,0.06,0.3-0.05c-0.03-0.5-0.25-0.88-0.25-1.08c0-0.12,0-0.5-0.02-0.67
			c0-0.04,0-0.09,0.09-0.15c0.07-0.05,0.28-0.29,0.36-0.38c0.01-0.01,0.03-0.03,0.04-0.04c0.1-0.09,0.5-0.44,0.55-0.55
			c0.01,0.01,0.01-0.07,0.09-0.07c0.09,0,0.95,0,1.2,0c0.05,0,0.1,0,0.14-0.01c0.12-0.01,0.38-0.05,0.56-0.08
			c0.08-0.01,1.61-0.32,1.82-0.38c0.04-0.01,0.64-0.2,0.71-0.23c0.04-0.02,0.22-0.12,0.27-0.18c0.02-0.02,0.11-0.13-0.06-0.14
			c0-0.01-2.82,0.13-3.22,0.1c-0.14-0.01-0.75-0.02-0.94-0.13c-0.14-0.08-0.39-0.2-0.6-0.27c-0.2-0.06-0.37-0.17-0.53-0.3
			c-0.04-0.03-0.08-0.07-0.12-0.11c-0.05-0.05-0.19-0.19-0.58-0.28c-0.05-0.01-0.25-0.04-0.47-0.07c-0.07-0.01-0.19-0.04-0.26-0.06
			c-0.07-0.03-0.45-0.14-0.92-0.05c-0.03,0.01-0.94,0.09-1.3-0.09c-0.09-0.04-1.46-0.87-1.62-0.92c-0.06-0.02-0.26-0.16-0.33-0.25
			c-0.2-0.27-0.58-0.47-0.85-0.56c-0.12-0.04-0.2-0.03-0.51,0.02c-0.01,0-0.17,0.03-0.07,0.29c0.07,0.17,0.18,0.36,0.5,0.53
			c0.12,0.06,0.76,0.75,0.85,0.94c0.09,0.19,0.59,0.76,0.59,0.76l0.09,0.09c0,0,0.3,0.27,0.57,0.36c0.03,0.01,0.06,0.01,0.09,0.01
			c0.07,0.01,0.23,0.02,0.3,0.07c0.01,0.01,0.52,0.28,0.93,0.43c0.12,0.04,0.64,0.19,0.83,0.75c0.02,0.05,0.02,0.1,0.02,0.15
			c-0.02,0.25-0.15,1.08-0.15,1.08l-0.08,0.61c0,0.05-0.01,0.09-0.01,0.14c0,0,0,0.16,0,0.21c0,0.03,0.02,0.15,0.08,0.11
			c0.06-0.03,0.23-0.16,0.27,0c0.01,0.01,0.04,0.27,0.31,0.32c0.06,0.01,0.26,0.04,0.35,0.05
			C3655.46,82.49,3656.08,82.53,3656.2,82.54z"/>
		<path d="M3713.67,62.22c0.11,0,0.45,0.09,0.39-0.22c0,0-0.07-0.34-0.1-0.67c-0.04-0.37,0.07-0.73,0.32-1
			c0.24-0.26,0.64-0.57,1.23-0.71c0.01-0.01,0.4-0.07,0.63-0.1c0.05-0.01,0.11-0.01,0.16-0.01c0.31,0,1.34,0,1.34,0
			s2.2,0.04,2.62-0.08c0.01,0,1.43-0.25,1.16-0.55c-0.01,0.01-1.19-0.55-1.57-0.67c-0.03-0.01-0.05-0.01-0.08-0.02
			c-0.07-0.01-0.24-0.05-0.34-0.1c-0.01-0.01-1.26-0.3-2.31-0.35c-0.4-0.02-1.09-0.09-1.61-0.07c-0.05,0-0.14,0.03-0.21-0.06
			c0-0.01-0.24-0.85-0.33-0.99c-0.04-0.06-0.07-0.21-0.29-0.19c0.01,0-0.61,0.34-0.88,0.57c-0.08,0.06-0.09,0.1-0.26,0.02
			c0,0.01-0.43-0.21-0.43-0.21s-0.17-0.09-0.28-0.2c-0.03-0.03-0.17-0.12-0.35-0.21c-0.04-0.02-0.84-0.43-0.84-0.43
			s-0.34-0.15-0.48-0.33c0,0.01-0.15-0.2-0.46-0.3c-0.05-0.02-0.28-0.16-0.4-0.27c-0.18-0.18-0.38-0.36-0.83-0.52
			c-0.07-0.02-0.64-0.32-0.78-0.38c-0.05-0.02-0.25-0.21-0.41-0.37c-0.13-0.12-0.23-0.27-0.33-0.41c-0.06-0.08-0.15-0.14-0.25-0.19
			c-0.37-0.18-0.6-0.39-0.6-0.39s-0.08-0.06-0.19,0.19c0,0.01-0.07,0.28,0.17,0.5c0.01,0.01,0.78,1.22,1.11,1.76
			c0.01,0.01,0.93,1.18,1.06,1.34c0.01,0.01,0.02,0.02,0.03,0.04c0.13,0.14,0.89,1.06,1.08,1.13c0.01,0,0.07,0.03,0.12,0.1
			c0.01,0.01,1.39,0.99,1.86,1.41c0.03,0.03,0.18,0.12,0.16,0.45c-0.01,0.17-0.07,0.34-0.16,0.49c-0.14,0.23-0.38,0.62-0.46,0.69
			c-0.01,0.01-0.44,0.46-0.56,0.55c-0.02,0.02-0.17,0.1-0.08,0.21c0-0.01,0.57,0.5,1.02,0.48
			C3712.39,62.15,3713.23,62.2,3713.67,62.22z"/>
		<path d="M3754.78,9.07c-0.02-0.06-0.08-1.1-0.14-1.4c-0.01-0.08-0.03-0.14,0.16-0.26c0.07-0.05,0.85-0.79,2.08-1.16
			c0.02-0.01,2.11-0.98,2.34-1.09c0.02-0.01,0.04-0.02,0.07-0.03c0,0,1.41-0.6,1.9-0.77c0.05-0.02,0.16-0.05,0.21-0.07
			c0.05-0.02,0.19-0.08,0.05-0.23c0,0.02-1.02-0.99-2.86-0.47c-0.01-0.01-1.7,0.48-1.8,0.46c-0.1-0.02-0.17-0.03-0.19-0.08
			c-0.04-0.09-0.14-0.38-0.1-0.68c0.01-0.06,0.04-0.2,0.01-0.33c-0.02-0.09-0.03-0.27-0.26-0.29c-0.01,0-0.89,0.27-1.19,0.42
			c-0.04,0.02-0.18,0.12-0.29-0.1c-0.05-0.1-0.71-1.72-1.04-2.18c-0.03-0.04-0.05-0.07-0.07-0.12c-0.04-0.09-0.15-0.27-0.2-0.43
			c-0.04-0.12-0.09-0.24-0.15-0.35c-0.11-0.19-0.26-0.49-0.31-0.63c-0.03-0.09-0.16-0.35-0.35-0.51c-0.01-0.01-0.38-0.51-0.53-0.66
			c-0.04-0.04-0.13-0.12-0.24,0.04c-0.01,0.01-0.32,1.3,0.27,3.44c-0.02,0,0.5,1.39,0.51,1.55c0.01,0.09,0.54,2.17,0.53,2.91
			c0,0.18-0.02,0.36-0.14,0.51c0,0-0.2,0.28-0.28,0.36c-0.04,0.04-0.11,0.1-0.21,0.13c-0.07,0.02-0.56,0.18-0.75,0.24
			c-0.09,0.03-0.29,0.09-0.18,0.36c0.05,0.11,0.31,0.54,0.4,0.71c0,0.01,0.44,0.67,0.87,0.67c0.03,0,0.18-0.01,0.36,0.08
			c0.53,0.23,1.2,0.29,1.3,0.31C3754.65,9.45,3754.93,9.54,3754.78,9.07z"/>
	</g>
</g>
</svg>
