<?xml version="1.0" encoding="UTF-8" standalone="no"?>
<!-- Generator: Adobe Illustrator 18.0.0, SVG Export Plug-In . SVG Version: 6.00 Build 0)  -->

<svg
   version="1.1"
   id="AR_x5F_layer"
   x="0px"
   y="0px"
   width="9451.45px"
   height="623.52px"
   viewBox="0 0 9451.45 623.52"
   enable-background="new 0 0 9451.45 623.52"
   xml:space="preserve"
   sodipodi:docname="23 Marathawada drought Groundwater_mask-01.svg"
   inkscape:version="1.1.1 (c3084ef, 2021-09-22)"
   xmlns:inkscape="http://www.inkscape.org/namespaces/inkscape"
   xmlns:sodipodi="http://sodipodi.sourceforge.net/DTD/sodipodi-0.dtd"
   xmlns="http://www.w3.org/2000/svg"
   xmlns:svg="http://www.w3.org/2000/svg"><defs
   id="defs13" /><sodipodi:namedview
   id="namedview11"
   pagecolor="#505050"
   bordercolor="#eeeeee"
   borderopacity="1"
   inkscape:pageshadow="0"
   inkscape:pageopacity="0"
   inkscape:pagecheckerboard="0"
   showgrid="false"
   inkscape:zoom="0.46638345"
   inkscape:cx="5578.0281"
   inkscape:cy="368.79525"
   inkscape:window-width="1440"
   inkscape:window-height="762"
   inkscape:window-x="0"
   inkscape:window-y="25"
   inkscape:window-maximized="1"
   inkscape:current-layer="AR_x5F_layer" />




<path
   style="fill:#000000;fill-opacity:0.02822581;stroke:none;stroke-width:1px;stroke-linecap:butt;stroke-linejoin:miter;stroke-opacity:1"
   d="m 4909.5703,321.42969 c -0.4857,100.84114 -0.9712,201.68229 -1.457,302.52343 472.3574,-0.71876 944.7148,-1.43174 1417.0722,-2.15039 -2.4944,-81.49417 -4.991,-162.98827 -7.4863,-244.48242 -0.6875,-1.36002 -1.375,-2.72005 -2.0625,-4.08008 -0.6315,1.41674 -1.3767,2.80817 -1.9375,4.24063 0,3.88659 0,7.77318 0,11.65976 -27.5058,-1.71364 -55.0092,-3.46721 -82.5164,-5.15583 -25.1449,-1.38757 -50.2901,-2.81105 -75.4348,-4.1762 -32.9368,2.14779 -65.8737,4.29557 -98.8105,6.44336 -8.3886,2.10105 -16.7788,4.19616 -25.168,6.29493 -17.7172,-9.20425 -35.4204,-18.4385 -53.1463,-27.624 -19.5357,-8.53068 -39.0728,-17.05817 -58.6076,-25.59085 -20.1905,2.78973 -40.3811,5.58004 -60.5722,8.36524 -25.7089,11.03348 -51.4373,22.02346 -77.1371,33.07699 -10.6815,4.6729 -21.363,9.3458 -32.0446,14.01871 -15.1191,-0.73233 -30.2412,-1.41417 -45.3585,-2.17809 -19.8117,-1.40753 -39.6225,-2.84557 -59.4348,-4.23402 -26.4975,-0.009 -52.9957,0.0174 -79.4927,-0.013 -16.3093,-0.71873 -32.6229,-1.3999 -48.9295,-2.14211 -11.3234,-2.13557 -22.6604,-4.22364 -33.9753,-6.38891 -12.9842,-5.03661 -25.9523,-10.11751 -38.9465,-15.12649 -19.8868,-7.09564 -39.7662,-14.21617 -59.6576,-21.29625 -14.3922,-3.58553 -28.7777,-7.21879 -43.1741,-10.77452 -14.4251,-0.7206 -28.85,-1.44433 -43.2751,-2.16298 -11.5047,2.86511 -23.0025,5.77517 -34.5119,8.61017 -10.7115,0.70075 -21.4212,1.45477 -32.1338,2.12225 -15.1353,-0.0124 -30.2711,0.0248 -45.4061,-0.0186 -30.4813,-0.71308 -60.9636,-1.40892 -91.4443,-2.13277 -24.3572,-2.15803 -48.7181,-4.2804 -73.073,-6.4607 -37.2888,-4.46938 -74.5773,-8.94217 -111.8665,-13.40942 0,0.7474 -0.01,1.49479 -0.012,2.24219 z"
   id="path1414" /></svg>
