<?xml version="1.0" encoding="utf-8"?>
<!-- Generator: Adobe Illustrator 18.0.0, SVG Export Plug-In . SVG Version: 6.00 Build 0)  -->
<!DOCTYPE svg PUBLIC "-//W3C//DTD SVG 1.1//EN" "http://www.w3.org/Graphics/SVG/1.1/DTD/svg11.dtd">
<svg version="1.1" id="AR_x5F_layer" xmlns="http://www.w3.org/2000/svg" xmlns:xlink="http://www.w3.org/1999/xlink" x="0px"
	 y="0px" width="9451.45px" height="623.52px" viewBox="0 0 9451.45 623.52" enable-background="new 0 0 9451.45 623.52"
	 xml:space="preserve">
<g opacity="0.01">
	<g>
		<rect x="5793.51" y="555.45" width="9.68" height="2.31"/>
		<rect x="5793.51" y="550.89" width="9.68" height="2.32"/>
		<rect x="5793.51" y="546.33" width="9.68" height="2.32"/>
		<rect x="5793.51" y="541.77" width="9.68" height="2.32"/>
		<rect x="5793.51" y="537.21" width="9.68" height="2.32"/>
		<rect x="5793.51" y="532.65" width="9.68" height="2.32"/>
		<rect x="5793.51" y="528.09" width="9.68" height="2.32"/>
		<rect x="5793.51" y="523.53" width="9.68" height="2.32"/>
		<rect x="5793.51" y="518.97" width="9.68" height="2.32"/>
		<rect x="5793.51" y="514.4" width="9.68" height="2.32"/>
		<rect x="5793.51" y="509.85" width="9.68" height="2.31"/>
		<rect x="5793.51" y="505.28" width="9.68" height="2.32"/>
		<rect x="5793.51" y="500.72" width="9.68" height="2.31"/>
		<rect x="5793.51" y="496.16" width="9.68" height="2.32"/>
		<rect x="5793.51" y="491.6" width="9.68" height="2.32"/>
		<rect x="5793.51" y="487.04" width="9.68" height="2.32"/>
		<rect x="5793.51" y="482.48" width="9.68" height="2.32"/>
		<rect x="5793.51" y="477.92" width="9.68" height="2.32"/>
		<rect x="5793.51" y="473.36" width="9.68" height="2.32"/>
		<rect x="5793.51" y="468.8" width="9.68" height="2.32"/>
		<rect x="5793.51" y="464.24" width="9.68" height="2.31"/>
		<rect x="5793.51" y="459.68" width="9.68" height="2.32"/>
		<rect x="5793.51" y="455.12" width="9.68" height="2.32"/>
		<rect x="5793.51" y="450.56" width="9.68" height="2.32"/>
		<rect x="5793.51" y="446" width="9.68" height="2.32"/>
		<rect x="5793.51" y="441.44" width="9.68" height="2.32"/>
		<rect x="5793.51" y="436.88" width="9.68" height="2.32"/>
		<rect x="5793.51" y="560.01" width="9.68" height="2.32"/>
		<rect x="5793.51" y="564.57" width="9.68" height="2.32"/>
		<rect x="5763.27" y="557.31" width="9.01" height="2.32"/>
		<rect x="5763.27" y="552.68" width="9.01" height="2.32"/>
		<rect x="5763.27" y="548.05" width="9.01" height="2.32"/>
		<rect x="5763.27" y="543.41" width="9.01" height="2.32"/>
		<rect x="5763.27" y="538.78" width="9.01" height="2.32"/>
		<rect x="5763.27" y="534.15" width="9.01" height="2.32"/>
		<rect x="5763.27" y="529.52" width="9.01" height="2.31"/>
		<rect x="5763.27" y="524.89" width="9.01" height="2.32"/>
		<rect x="5763.27" y="520.25" width="9.01" height="2.32"/>
		<rect x="5763.27" y="515.62" width="9.01" height="2.32"/>
		<rect x="5763.27" y="510.99" width="9.01" height="2.32"/>
		<rect x="5763.27" y="506.36" width="9.01" height="2.32"/>
		<rect x="5763.27" y="501.73" width="9.01" height="2.32"/>
		<rect x="5763.27" y="497.09" width="9.01" height="2.31"/>
		<rect x="5763.27" y="492.46" width="9.01" height="2.32"/>
		<rect x="5763.27" y="487.83" width="9.01" height="2.32"/>
		<rect x="5763.27" y="483.2" width="9.01" height="2.32"/>
		<rect x="5763.27" y="478.56" width="9.01" height="2.32"/>
		<rect x="5763.27" y="473.93" width="9.01" height="2.32"/>
		<rect x="5763.27" y="469.3" width="9.01" height="2.32"/>
		<rect x="5763.27" y="464.67" width="9.01" height="2.32"/>
		<rect x="5763.27" y="460.04" width="9.01" height="2.32"/>
		<rect x="5763.27" y="455.41" width="9.01" height="2.32"/>
		<rect x="5763.27" y="450.77" width="9.01" height="2.32"/>
		<rect x="5763.27" y="446.14" width="9.01" height="2.32"/>
		<rect x="5763.27" y="441.51" width="9.01" height="2.31"/>
		<rect x="5763.27" y="436.88" width="9.01" height="2.32"/>
		<rect x="5732.53" y="449.25" width="9.01" height="2.32"/>
		<rect x="5732.53" y="445.12" width="9.01" height="2.32"/>
		<rect x="5732.53" y="441" width="9.01" height="2.32"/>
		<rect x="5732.53" y="436.88" width="9.01" height="2.32"/>
		<rect x="5763.27" y="561.94" width="9.01" height="2.32"/>
		<rect x="5763.27" y="566.57" width="9.01" height="2.32"/>
		<rect x="5763.27" y="594.37" width="9.01" height="2.32"/>
		<rect x="5763.27" y="589.73" width="9.01" height="2.32"/>
		<rect x="5763.27" y="585.1" width="9.01" height="2.32"/>
		<rect x="5763.27" y="580.47" width="9.01" height="2.31"/>
		<rect x="5763.27" y="575.84" width="9.01" height="2.32"/>
		<rect x="5763.27" y="571.21" width="9.01" height="2.32"/>
		<rect x="5763.27" y="599" width="9.01" height="2.32"/>
		<rect x="5763.27" y="603.63" width="9.01" height="2.32"/>
		<rect x="5793.51" y="569.13" width="9.68" height="2.32"/>
		<rect x="5763.27" y="607.92" width="9.01" height="3"/>
		<g>
			<rect x="5811.86" y="555.66" width="2.32" height="2.32"/>
			<rect x="5807.29" y="555.66" width="2.32" height="2.32"/>
			<rect x="5811.86" y="551.09" width="2.32" height="2.32"/>
			<rect x="5807.29" y="551.09" width="2.32" height="2.32"/>
			<rect x="5811.86" y="546.52" width="2.32" height="2.32"/>
			<rect x="5807.29" y="546.52" width="2.32" height="2.32"/>
			<rect x="5811.86" y="541.95" width="2.32" height="2.32"/>
			<rect x="5807.29" y="541.95" width="2.32" height="2.32"/>
			<rect x="5811.86" y="537.38" width="2.32" height="2.32"/>
			<rect x="5807.29" y="537.38" width="2.32" height="2.32"/>
			<rect x="5811.86" y="532.81" width="2.32" height="2.32"/>
			<rect x="5807.29" y="532.81" width="2.32" height="2.32"/>
			<rect x="5811.86" y="528.25" width="2.32" height="2.32"/>
			<rect x="5807.29" y="528.25" width="2.32" height="2.32"/>
			<rect x="5811.86" y="523.68" width="2.32" height="2.32"/>
			<rect x="5807.29" y="523.68" width="2.32" height="2.32"/>
			<rect x="5811.86" y="519.11" width="2.32" height="2.32"/>
			<rect x="5807.29" y="519.11" width="2.32" height="2.32"/>
			<rect x="5811.86" y="514.54" width="2.32" height="2.32"/>
			<rect x="5807.29" y="514.54" width="2.32" height="2.32"/>
			<rect x="5811.86" y="509.97" width="2.32" height="2.32"/>
			<rect x="5807.29" y="509.97" width="2.32" height="2.32"/>
			<rect x="5811.86" y="505.4" width="2.32" height="2.32"/>
			<rect x="5807.29" y="505.4" width="2.32" height="2.32"/>
			<rect x="5811.86" y="500.83" width="2.32" height="2.32"/>
			<rect x="5807.29" y="500.83" width="2.32" height="2.32"/>
			<rect x="5811.86" y="496.27" width="2.32" height="2.32"/>
			<rect x="5807.29" y="496.27" width="2.32" height="2.32"/>
			<rect x="5811.86" y="491.7" width="2.32" height="2.32"/>
			<rect x="5807.29" y="491.7" width="2.32" height="2.32"/>
			<rect x="5811.86" y="487.13" width="2.32" height="2.32"/>
			<rect x="5807.29" y="487.13" width="2.32" height="2.32"/>
			<rect x="5811.86" y="482.56" width="2.32" height="2.32"/>
			<rect x="5807.29" y="482.56" width="2.32" height="2.32"/>
			<rect x="5811.86" y="477.99" width="2.32" height="2.32"/>
			<rect x="5807.29" y="477.99" width="2.32" height="2.32"/>
			<rect x="5811.86" y="473.42" width="2.32" height="2.32"/>
			<rect x="5807.29" y="473.42" width="2.32" height="2.32"/>
			<rect x="5811.86" y="468.86" width="2.32" height="2.32"/>
			<rect x="5807.29" y="468.86" width="2.32" height="2.32"/>
			<rect x="5811.86" y="464.29" width="2.32" height="2.32"/>
			<rect x="5807.29" y="464.29" width="2.32" height="2.32"/>
			<rect x="5811.86" y="459.72" width="2.32" height="2.32"/>
			<rect x="5807.29" y="459.72" width="2.32" height="2.32"/>
			<rect x="5811.86" y="455.15" width="2.32" height="2.32"/>
			<rect x="5807.29" y="455.15" width="2.32" height="2.32"/>
			<rect x="5811.86" y="450.58" width="2.32" height="2.32"/>
			<rect x="5807.29" y="450.58" width="2.32" height="2.32"/>
			<rect x="5811.86" y="446.01" width="2.32" height="2.32"/>
			<rect x="5807.29" y="446.01" width="2.32" height="2.32"/>
			<rect x="5811.86" y="441.44" width="2.32" height="2.32"/>
			<rect x="5807.29" y="441.44" width="2.32" height="2.32"/>
			<rect x="5811.86" y="436.88" width="2.32" height="2.32"/>
			<rect x="5807.29" y="436.88" width="2.32" height="2.32"/>
		</g>
		<g>
			<g>
				<rect x="5780.24" y="516.94" width="2.31" height="2.32"/>
				<rect x="5775.67" y="516.94" width="2.32" height="2.32"/>
			</g>
			<g>
				<rect x="5780.24" y="512.23" width="2.31" height="2.32"/>
				<rect x="5775.67" y="512.23" width="2.32" height="2.32"/>
			</g>
			<g>
				<rect x="5780.24" y="507.52" width="2.31" height="2.32"/>
				<rect x="5775.67" y="507.52" width="2.32" height="2.32"/>
			</g>
			<g>
				<rect x="5780.24" y="502.81" width="2.31" height="2.32"/>
				<rect x="5775.67" y="502.81" width="2.32" height="2.32"/>
			</g>
			<g>
				<rect x="5780.24" y="498.1" width="2.31" height="2.32"/>
				<rect x="5775.67" y="498.1" width="2.32" height="2.32"/>
			</g>
			<g>
				<rect x="5780.24" y="493.39" width="2.31" height="2.32"/>
				<rect x="5775.67" y="493.39" width="2.32" height="2.32"/>
			</g>
			<g>
				<rect x="5780.24" y="488.68" width="2.31" height="2.32"/>
				<rect x="5775.67" y="488.68" width="2.32" height="2.32"/>
			</g>
			<g>
				<rect x="5780.24" y="483.97" width="2.31" height="2.32"/>
				<rect x="5775.67" y="483.97" width="2.32" height="2.32"/>
			</g>
			<g>
				<rect x="5780.24" y="479.26" width="2.31" height="2.32"/>
				<rect x="5775.67" y="479.26" width="2.32" height="2.32"/>
			</g>
			<g>
				<rect x="5780.24" y="474.55" width="2.31" height="2.32"/>
				<rect x="5775.67" y="474.55" width="2.32" height="2.32"/>
			</g>
			<g>
				<rect x="5780.24" y="469.84" width="2.31" height="2.32"/>
				<rect x="5775.67" y="469.84" width="2.32" height="2.32"/>
			</g>
			<g>
				<rect x="5780.24" y="465.13" width="2.31" height="2.32"/>
				<rect x="5775.67" y="465.13" width="2.32" height="2.32"/>
			</g>
			<g>
				<rect x="5780.24" y="460.43" width="2.31" height="2.31"/>
				<rect x="5775.67" y="460.43" width="2.32" height="2.31"/>
			</g>
			<g>
				<rect x="5780.24" y="455.71" width="2.31" height="2.32"/>
				<rect x="5775.67" y="455.71" width="2.32" height="2.32"/>
			</g>
			<g>
				<rect x="5780.24" y="451" width="2.31" height="2.32"/>
				<rect x="5775.67" y="451" width="2.32" height="2.32"/>
			</g>
			<g>
				<rect x="5780.24" y="446.3" width="2.31" height="2.32"/>
				<rect x="5775.67" y="446.3" width="2.32" height="2.32"/>
			</g>
			<g>
				<rect x="5780.24" y="441.59" width="2.31" height="2.32"/>
				<rect x="5775.67" y="441.59" width="2.32" height="2.32"/>
			</g>
			<g>
				<rect x="5780.24" y="436.88" width="2.31" height="2.32"/>
				<rect x="5775.67" y="436.88" width="2.32" height="2.32"/>
			</g>
		</g>
		<g>
			<g>
				<rect x="5750" y="500.08" width="2.32" height="2.32"/>
				<rect x="5745.43" y="500.08" width="2.32" height="2.32"/>
			</g>
			<g>
				<rect x="5750" y="495.22" width="2.32" height="2.32"/>
				<rect x="5745.43" y="495.22" width="2.32" height="2.32"/>
			</g>
			<g>
				<rect x="5750" y="490.36" width="2.32" height="2.32"/>
				<rect x="5745.43" y="490.36" width="2.32" height="2.32"/>
			</g>
			<g>
				<rect x="5750" y="485.49" width="2.32" height="2.32"/>
				<rect x="5745.43" y="485.49" width="2.32" height="2.32"/>
			</g>
			<g>
				<rect x="5750" y="480.63" width="2.32" height="2.32"/>
				<rect x="5745.43" y="480.63" width="2.32" height="2.32"/>
			</g>
			<g>
				<rect x="5750" y="475.77" width="2.32" height="2.32"/>
				<rect x="5745.43" y="475.77" width="2.32" height="2.32"/>
			</g>
			<g>
				<rect x="5750" y="470.91" width="2.32" height="2.32"/>
				<rect x="5745.43" y="470.91" width="2.32" height="2.32"/>
			</g>
			<g>
				<rect x="5750" y="466.05" width="2.32" height="2.32"/>
				<rect x="5745.43" y="466.05" width="2.32" height="2.32"/>
			</g>
			<g>
				<rect x="5750" y="461.19" width="2.32" height="2.32"/>
				<rect x="5745.43" y="461.19" width="2.32" height="2.32"/>
			</g>
			<g>
				<rect x="5750" y="456.32" width="2.32" height="2.31"/>
				<rect x="5745.43" y="456.32" width="2.32" height="2.31"/>
			</g>
			<g>
				<rect x="5750" y="451.46" width="2.32" height="2.32"/>
				<rect x="5745.43" y="451.46" width="2.32" height="2.32"/>
			</g>
			<g>
				<rect x="5750" y="446.6" width="2.32" height="2.32"/>
				<rect x="5745.43" y="446.6" width="2.32" height="2.32"/>
			</g>
			<g>
				<rect x="5750" y="441.74" width="2.32" height="2.32"/>
				<rect x="5745.43" y="441.74" width="2.32" height="2.32"/>
			</g>
			<g>
				<rect x="5750" y="436.88" width="2.32" height="2.32"/>
				<rect x="5745.43" y="436.88" width="2.32" height="2.32"/>
			</g>
		</g>
		<rect x="5701.79" y="449.71" width="9.01" height="2.32"/>
		<rect x="5701.79" y="445.43" width="9.01" height="2.32"/>
		<rect x="5701.79" y="441.15" width="9.01" height="2.32"/>
		<rect x="5701.79" y="436.88" width="9.01" height="2.32"/>
		<rect x="5701.79" y="466.82" width="9.01" height="2.32"/>
		<rect x="5701.79" y="462.54" width="9.01" height="2.32"/>
		<rect x="5701.79" y="458.26" width="9.01" height="2.32"/>
		<rect x="5701.79" y="453.98" width="9.01" height="2.32"/>
		<rect x="5701.79" y="483.92" width="9.01" height="2.32"/>
		<rect x="5701.79" y="479.65" width="9.01" height="2.32"/>
		<rect x="5701.79" y="475.37" width="9.01" height="2.32"/>
		<rect x="5701.79" y="471.09" width="9.01" height="2.32"/>
		<rect x="5701.79" y="488.2" width="9.01" height="2.32"/>
		<g>
			<g>
				<rect x="5719.26" y="478.56" width="2.32" height="2.32"/>
				<rect x="5714.69" y="478.56" width="2.32" height="2.32"/>
			</g>
			<g>
				<rect x="5719.26" y="473.93" width="2.32" height="2.32"/>
				<rect x="5714.69" y="473.93" width="2.32" height="2.32"/>
			</g>
			<g>
				<rect x="5719.26" y="469.3" width="2.32" height="2.32"/>
				<rect x="5714.69" y="469.3" width="2.32" height="2.32"/>
			</g>
			<g>
				<rect x="5719.26" y="464.67" width="2.32" height="2.32"/>
				<rect x="5714.69" y="464.67" width="2.32" height="2.32"/>
			</g>
			<g>
				<rect x="5719.26" y="460.04" width="2.32" height="2.32"/>
				<rect x="5714.69" y="460.04" width="2.32" height="2.32"/>
			</g>
			<g>
				<rect x="5719.26" y="455.41" width="2.32" height="2.32"/>
				<rect x="5714.69" y="455.41" width="2.32" height="2.32"/>
			</g>
			<g>
				<rect x="5719.26" y="450.77" width="2.32" height="2.32"/>
				<rect x="5714.69" y="450.77" width="2.32" height="2.32"/>
			</g>
			<g>
				<rect x="5719.26" y="446.14" width="2.32" height="2.32"/>
				<rect x="5714.69" y="446.14" width="2.32" height="2.32"/>
			</g>
			<g>
				<rect x="5719.26" y="441.51" width="2.32" height="2.31"/>
				<rect x="5714.69" y="441.51" width="2.32" height="2.31"/>
			</g>
			<g>
				<rect x="5719.26" y="436.88" width="2.32" height="2.32"/>
				<rect x="5714.69" y="436.88" width="2.32" height="2.32"/>
			</g>
		</g>
		<rect x="5671.04" y="449.71" width="9.01" height="2.32"/>
		<rect x="5671.04" y="445.43" width="9.01" height="2.31"/>
		<rect x="5671.04" y="441.15" width="9.01" height="2.32"/>
		<rect x="5671.04" y="436.88" width="9.01" height="2.32"/>
		<rect x="5671.04" y="466.82" width="9.01" height="2.32"/>
		<rect x="5671.04" y="462.55" width="9.01" height="2.31"/>
		<rect x="5671.04" y="458.27" width="9.01" height="2.32"/>
		<rect x="5671.04" y="453.99" width="9.01" height="2.32"/>
		<rect x="5671.04" y="483.93" width="9.01" height="2.32"/>
		<rect x="5671.04" y="479.66" width="9.01" height="2.32"/>
		<rect x="5671.04" y="475.38" width="9.01" height="2.32"/>
		<rect x="5671.04" y="471.1" width="9.01" height="2.32"/>
		<rect x="5671.04" y="488.21" width="9.01" height="2.32"/>
		<rect x="5671.04" y="496.77" width="9.01" height="2.32"/>
		<rect x="5671.04" y="492.49" width="9.01" height="2.31"/>
		<rect x="5671.04" y="501.05" width="9.01" height="2.32"/>
		<g>
			<g>
				<rect x="5688.52" y="469.93" width="2.32" height="2.32"/>
				<rect x="5683.94" y="469.93" width="2.31" height="2.32"/>
			</g>
			<g>
				<rect x="5688.52" y="465.21" width="2.32" height="2.32"/>
				<rect x="5683.94" y="465.21" width="2.31" height="2.32"/>
			</g>
			<g>
				<rect x="5688.52" y="460.49" width="2.32" height="2.32"/>
				<rect x="5683.94" y="460.49" width="2.31" height="2.32"/>
			</g>
			<g>
				<rect x="5688.52" y="455.77" width="2.32" height="2.32"/>
				<rect x="5683.94" y="455.77" width="2.31" height="2.32"/>
			</g>
			<g>
				<rect x="5688.52" y="451.04" width="2.32" height="2.32"/>
				<rect x="5683.94" y="451.04" width="2.31" height="2.32"/>
			</g>
			<g>
				<rect x="5688.52" y="446.32" width="2.32" height="2.32"/>
				<rect x="5683.94" y="446.32" width="2.31" height="2.32"/>
			</g>
			<g>
				<rect x="5688.52" y="441.6" width="2.32" height="2.32"/>
				<rect x="5683.94" y="441.6" width="2.31" height="2.32"/>
			</g>
			<g>
				<rect x="5688.52" y="436.88" width="2.32" height="2.32"/>
				<rect x="5683.94" y="436.88" width="2.31" height="2.32"/>
			</g>
		</g>
		<rect x="5640.3" y="449.88" width="9.01" height="2.32"/>
		<rect x="5640.3" y="445.55" width="9.01" height="2.32"/>
		<rect x="5640.3" y="441.21" width="9.01" height="2.32"/>
		<rect x="5640.3" y="436.88" width="9.01" height="2.32"/>
		<rect x="5640.3" y="467.22" width="9.01" height="2.32"/>
		<rect x="5640.3" y="462.89" width="9.01" height="2.32"/>
		<rect x="5640.3" y="458.55" width="9.01" height="2.31"/>
		<rect x="5640.3" y="454.22" width="9.01" height="2.32"/>
		<rect x="5610.64" y="449.68" width="9.01" height="2.32"/>
		<rect x="5610.64" y="445.41" width="9.01" height="2.32"/>
		<rect x="5610.64" y="441.14" width="9.01" height="2.32"/>
		<rect x="5610.64" y="436.88" width="9.01" height="2.32"/>
		<rect x="5610.64" y="466.74" width="9.01" height="2.32"/>
		<rect x="5610.64" y="462.47" width="9.01" height="2.32"/>
		<rect x="5610.64" y="458.21" width="9.01" height="2.32"/>
		<rect x="5610.64" y="453.94" width="9.01" height="2.32"/>
		<g>
			<g>
				<rect x="5657.78" y="466.05" width="2.32" height="2.32"/>
				<rect x="5653.2" y="466.16" width="2.32" height="2.32"/>
			</g>
			<g>
				<rect x="5657.78" y="461.23" width="2.32" height="2.32"/>
				<rect x="5653.2" y="461.23" width="2.32" height="2.32"/>
			</g>
			<g>
				<rect x="5657.78" y="456.36" width="2.32" height="2.32"/>
				<rect x="5653.2" y="456.36" width="2.32" height="2.32"/>
			</g>
			<g>
				<rect x="5657.78" y="451.49" width="2.32" height="2.32"/>
				<rect x="5653.2" y="451.49" width="2.32" height="2.32"/>
			</g>
			<g>
				<rect x="5657.78" y="446.62" width="2.32" height="2.32"/>
				<rect x="5653.2" y="446.62" width="2.32" height="2.32"/>
			</g>
			<g>
				<rect x="5657.78" y="441.75" width="2.32" height="2.32"/>
				<rect x="5653.2" y="441.75" width="2.32" height="2.32"/>
			</g>
			<g>
				<rect x="5657.78" y="436.88" width="2.32" height="2.32"/>
				<rect x="5653.2" y="436.88" width="2.32" height="2.32"/>
			</g>
		</g>
		<g>
			<g>
				<rect x="5627.23" y="464.61" width="2.32" height="2.32"/>
				<rect x="5622.66" y="464.73" width="2.32" height="2.32"/>
			</g>
			<g>
				<rect x="5627.23" y="460.04" width="2.32" height="2.32"/>
				<rect x="5622.66" y="460.04" width="2.32" height="2.32"/>
			</g>
			<g>
				<rect x="5627.23" y="455.41" width="2.32" height="2.32"/>
				<rect x="5622.66" y="455.41" width="2.32" height="2.32"/>
			</g>
			<g>
				<rect x="5627.23" y="450.77" width="2.32" height="2.32"/>
				<rect x="5622.66" y="450.77" width="2.32" height="2.32"/>
			</g>
			<g>
				<rect x="5627.23" y="446.14" width="2.32" height="2.32"/>
				<rect x="5622.66" y="446.14" width="2.32" height="2.32"/>
			</g>
			<g>
				<rect x="5627.23" y="441.51" width="2.32" height="2.31"/>
				<rect x="5622.66" y="441.51" width="2.32" height="2.31"/>
			</g>
			<g>
				<rect x="5627.23" y="436.88" width="2.32" height="2.32"/>
				<rect x="5622.66" y="436.88" width="2.32" height="2.32"/>
			</g>
		</g>
		<rect x="5580.72" y="448.52" width="9.01" height="2.32"/>
		<rect x="5580.72" y="444.64" width="9.01" height="2.32"/>
		<rect x="5580.72" y="440.76" width="9.01" height="2.32"/>
		<rect x="5580.72" y="436.88" width="9.01" height="2.32"/>
		<rect x="5580.72" y="460.17" width="9.01" height="2.32"/>
		<rect x="5580.72" y="456.29" width="9.01" height="2.32"/>
		<rect x="5580.72" y="452.41" width="9.01" height="2.32"/>
		<g>
			<g>
				<rect x="5597.31" y="459.49" width="2.32" height="2.32"/>
				<rect x="5592.74" y="459.49" width="2.32" height="2.32"/>
			</g>
			<g>
				<rect x="5597.31" y="454.97" width="2.32" height="2.32"/>
				<rect x="5592.74" y="454.97" width="2.32" height="2.32"/>
			</g>
			<g>
				<rect x="5597.31" y="450.45" width="2.32" height="2.32"/>
				<rect x="5592.74" y="450.45" width="2.32" height="2.32"/>
			</g>
			<g>
				<rect x="5597.31" y="445.92" width="2.32" height="2.32"/>
				<rect x="5592.74" y="445.92" width="2.32" height="2.32"/>
			</g>
			<g>
				<rect x="5597.31" y="441.4" width="2.32" height="2.32"/>
				<rect x="5592.74" y="441.4" width="2.32" height="2.32"/>
			</g>
			<g>
				<rect x="5597.31" y="436.88" width="2.32" height="2.32"/>
				<rect x="5592.74" y="436.88" width="2.32" height="2.32"/>
			</g>
		</g>
		<rect x="5550.76" y="448.62" width="9.01" height="2.32"/>
		<rect x="5550.76" y="444.71" width="9.01" height="2.32"/>
		<rect x="5550.76" y="440.79" width="9.01" height="2.32"/>
		<rect x="5550.76" y="436.88" width="9.01" height="2.32"/>
		<rect x="5550.76" y="460.36" width="9.01" height="2.32"/>
		<rect x="5550.76" y="456.45" width="9.01" height="2.32"/>
		<rect x="5550.76" y="452.53" width="9.01" height="2.32"/>
		<g>
			<g>
				<rect x="5567.35" y="458.88" width="2.32" height="2.32"/>
				<rect x="5562.78" y="458.88" width="2.32" height="2.32"/>
			</g>
			<g>
				<rect x="5567.35" y="454.48" width="2.32" height="2.32"/>
				<rect x="5562.78" y="454.48" width="2.32" height="2.32"/>
			</g>
			<g>
				<rect x="5567.35" y="450.08" width="2.32" height="2.32"/>
				<rect x="5562.78" y="450.08" width="2.32" height="2.32"/>
			</g>
			<g>
				<rect x="5567.35" y="445.68" width="2.32" height="2.32"/>
				<rect x="5562.78" y="445.68" width="2.32" height="2.32"/>
			</g>
			<g>
				<rect x="5567.35" y="441.28" width="2.32" height="2.32"/>
				<rect x="5562.78" y="441.28" width="2.32" height="2.32"/>
			</g>
			<g>
				<rect x="5567.35" y="436.88" width="2.32" height="2.32"/>
				<rect x="5562.78" y="436.88" width="2.32" height="2.32"/>
			</g>
		</g>
		<rect x="5520.9" y="447.97" width="9.01" height="2.32"/>
		<rect x="5520.9" y="444.28" width="9.01" height="2.32"/>
		<rect x="5520.9" y="440.57" width="9.01" height="2.32"/>
		<rect x="5520.9" y="436.88" width="9.01" height="2.32"/>
		<rect x="5520.9" y="459.07" width="9.01" height="2.32"/>
		<rect x="5520.9" y="462.77" width="9.01" height="2.32"/>
		<rect x="5520.9" y="466.47" width="9.01" height="2.32"/>
		<rect x="5520.9" y="470.17" width="9.01" height="2.32"/>
		<rect x="5520.9" y="473.87" width="9.01" height="2.32"/>
		<rect x="5520.9" y="477.56" width="9.01" height="2.32"/>
		<rect x="5520.9" y="455.37" width="9.01" height="2.31"/>
		<rect x="5520.9" y="451.67" width="9.01" height="2.32"/>
		<g>
			<g>
				<rect x="5537.49" y="457.22" width="2.32" height="2.32"/>
				<rect x="5532.92" y="457.22" width="2.32" height="2.32"/>
			</g>
			<g>
				<rect x="5537.49" y="453.15" width="2.32" height="2.32"/>
				<rect x="5532.92" y="453.15" width="2.32" height="2.32"/>
			</g>
			<g>
				<rect x="5537.49" y="449.08" width="2.32" height="2.32"/>
				<rect x="5532.92" y="449.08" width="2.32" height="2.32"/>
			</g>
			<g>
				<rect x="5537.49" y="445.01" width="2.32" height="2.32"/>
				<rect x="5532.92" y="445.01" width="2.32" height="2.32"/>
			</g>
			<g>
				<rect x="5537.49" y="440.94" width="2.32" height="2.32"/>
				<rect x="5532.92" y="440.94" width="2.32" height="2.32"/>
			</g>
			<g>
				<rect x="5537.49" y="436.88" width="2.32" height="2.32"/>
				<rect x="5532.92" y="436.88" width="2.32" height="2.32"/>
			</g>
		</g>
		<rect x="5491.04" y="447.97" width="9.01" height="2.32"/>
		<rect x="5491.04" y="444.28" width="9.01" height="2.32"/>
		<rect x="5491.04" y="440.57" width="9.01" height="2.32"/>
		<rect x="5491.04" y="436.88" width="9.01" height="2.32"/>
		<rect x="5491.04" y="451.67" width="9.01" height="2.32"/>
		<g>
			<g>
				<rect x="5507.63" y="451.25" width="2.32" height="2.32"/>
				<rect x="5503.06" y="451.25" width="2.32" height="2.32"/>
			</g>
			<g>
				<rect x="5507.63" y="447.65" width="2.32" height="2.32"/>
				<rect x="5503.06" y="447.65" width="2.32" height="2.32"/>
			</g>
			<g>
				<rect x="5507.63" y="444.06" width="2.32" height="2.32"/>
				<rect x="5503.06" y="444.06" width="2.32" height="2.32"/>
			</g>
			<g>
				<rect x="5507.63" y="440.47" width="2.32" height="2.32"/>
				<rect x="5503.06" y="440.47" width="2.32" height="2.32"/>
			</g>
			<g>
				<rect x="5507.63" y="436.88" width="2.32" height="2.32"/>
				<rect x="5503.06" y="436.88" width="2.32" height="2.32"/>
			</g>
		</g>
		<rect x="5461.18" y="448.24" width="9.01" height="2.32"/>
		<rect x="5461.18" y="444.45" width="9.01" height="2.32"/>
		<rect x="5461.18" y="440.67" width="9.01" height="2.32"/>
		<rect x="5461.18" y="436.88" width="9.01" height="2.32"/>
		<rect x="5461.18" y="452.03" width="9.01" height="2.32"/>
		<rect x="5461.18" y="455.82" width="9.01" height="2.32"/>
		<g>
			<g>
				<rect x="5477.77" y="449.36" width="2.32" height="2.32"/>
				<rect x="5473.2" y="449.36" width="2.32" height="2.32"/>
			</g>
			<g>
				<rect x="5477.77" y="445.2" width="2.32" height="2.32"/>
				<rect x="5473.2" y="445.2" width="2.32" height="2.32"/>
			</g>
			<g>
				<rect x="5477.77" y="441.04" width="2.32" height="2.32"/>
				<rect x="5473.2" y="441.04" width="2.32" height="2.32"/>
			</g>
			<g>
				<rect x="5477.77" y="436.88" width="2.32" height="2.32"/>
				<rect x="5473.2" y="436.88" width="2.32" height="2.32"/>
			</g>
		</g>
		<rect x="5431.32" y="447.62" width="9.01" height="2.32"/>
		<rect x="5431.32" y="444.04" width="9.01" height="2.32"/>
		<rect x="5431.32" y="440.46" width="9.01" height="2.32"/>
		<rect x="5431.32" y="436.88" width="9.01" height="2.32"/>
		<rect x="5431.32" y="451.21" width="9.01" height="2.32"/>
		<g>
			<g>
				<rect x="5447.91" y="448.67" width="2.32" height="2.32"/>
				<rect x="5443.34" y="448.67" width="2.32" height="2.32"/>
			</g>
			<g>
				<rect x="5447.91" y="444.74" width="2.32" height="2.32"/>
				<rect x="5443.34" y="444.74" width="2.32" height="2.32"/>
			</g>
			<g>
				<rect x="5447.91" y="440.81" width="2.32" height="2.32"/>
				<rect x="5443.34" y="440.81" width="2.32" height="2.32"/>
			</g>
			<g>
				<rect x="5447.91" y="436.88" width="2.32" height="2.32"/>
				<rect x="5443.34" y="436.88" width="2.32" height="2.32"/>
			</g>
		</g>
		<rect x="5401.46" y="447.94" width="9.01" height="2.32"/>
		<rect x="5401.46" y="444.25" width="9.01" height="2.32"/>
		<rect x="5401.46" y="440.57" width="9.01" height="2.32"/>
		<rect x="5401.46" y="436.88" width="9.01" height="2.32"/>
		<rect x="5401.46" y="451.63" width="9.01" height="2.32"/>
		<rect x="5401.46" y="455.32" width="9.01" height="2.32"/>
		<rect x="5401.46" y="459.01" width="9.01" height="2.32"/>
		<g>
			<g>
				<rect x="5418.05" y="447.7" width="2.32" height="2.32"/>
				<rect x="5413.48" y="447.7" width="2.32" height="2.32"/>
			</g>
			<g>
				<rect x="5418.05" y="444.06" width="2.32" height="2.32"/>
				<rect x="5413.48" y="444.06" width="2.32" height="2.32"/>
			</g>
			<g>
				<rect x="5418.05" y="440.47" width="2.32" height="2.32"/>
				<rect x="5413.48" y="440.47" width="2.32" height="2.32"/>
			</g>
			<g>
				<rect x="5418.05" y="436.88" width="2.32" height="2.32"/>
				<rect x="5413.48" y="436.88" width="2.32" height="2.32"/>
			</g>
		</g>
		<rect x="5371.6" y="447.97" width="9.01" height="2.32"/>
		<rect x="5371.6" y="444.28" width="9.01" height="2.32"/>
		<rect x="5371.6" y="440.57" width="9.01" height="2.32"/>
		<rect x="5371.6" y="436.88" width="9.01" height="2.32"/>
		<rect x="5371.6" y="451.67" width="9.01" height="2.32"/>
		<g>
			<g>
				<rect x="5388.19" y="451.25" width="2.31" height="2.32"/>
				<rect x="5383.62" y="451.25" width="2.32" height="2.32"/>
			</g>
			<g>
				<rect x="5388.19" y="447.65" width="2.31" height="2.32"/>
				<rect x="5383.62" y="447.65" width="2.32" height="2.32"/>
			</g>
			<g>
				<rect x="5388.19" y="444.06" width="2.31" height="2.32"/>
				<rect x="5383.62" y="444.06" width="2.32" height="2.32"/>
			</g>
			<g>
				<rect x="5388.19" y="440.47" width="2.31" height="2.32"/>
				<rect x="5383.62" y="440.47" width="2.32" height="2.32"/>
			</g>
			<g>
				<rect x="5388.19" y="436.88" width="2.31" height="2.32"/>
				<rect x="5383.62" y="436.88" width="2.32" height="2.32"/>
			</g>
		</g>
		<rect x="5341.74" y="447.39" width="9.01" height="2.32"/>
		<rect x="5341.74" y="443.88" width="9.01" height="2.32"/>
		<rect x="5341.74" y="440.38" width="9.01" height="2.32"/>
		<rect x="5341.74" y="436.88" width="9.01" height="2.32"/>
		<rect x="5341.74" y="450.89" width="9.01" height="2.32"/>
		<g>
			<g>
				<rect x="5358.33" y="446.82" width="2.32" height="2.32"/>
				<rect x="5353.75" y="446.82" width="2.32" height="2.32"/>
			</g>
			<g>
				<rect x="5358.33" y="443.5" width="2.32" height="2.32"/>
				<rect x="5353.75" y="443.5" width="2.32" height="2.32"/>
			</g>
			<g>
				<rect x="5358.33" y="440.19" width="2.32" height="2.32"/>
				<rect x="5353.75" y="440.19" width="2.32" height="2.32"/>
			</g>
			<g>
				<rect x="5358.33" y="436.88" width="2.32" height="2.32"/>
				<rect x="5353.75" y="436.88" width="2.32" height="2.32"/>
			</g>
		</g>
		<rect x="5311.88" y="446.82" width="9.01" height="2.32"/>
		<rect x="5311.88" y="443.5" width="9.01" height="2.32"/>
		<rect x="5311.88" y="440.19" width="9.01" height="2.32"/>
		<rect x="5311.88" y="436.88" width="9.01" height="2.32"/>
		<g>
			<g>
				<rect x="5328.47" y="446.54" width="2.32" height="2.32"/>
				<rect x="5323.9" y="446.54" width="2.32" height="2.32"/>
			</g>
			<g>
				<rect x="5328.47" y="443.32" width="2.32" height="2.32"/>
				<rect x="5323.9" y="443.32" width="2.32" height="2.32"/>
			</g>
			<g>
				<rect x="5328.47" y="440.1" width="2.32" height="2.32"/>
				<rect x="5323.9" y="440.1" width="2.32" height="2.32"/>
			</g>
			<g>
				<rect x="5328.47" y="436.88" width="2.32" height="2.32"/>
				<rect x="5323.9" y="436.88" width="2.32" height="2.32"/>
			</g>
		</g>
	</g>
</g>
<polyline opacity="0.01" fill="none" stroke="#000000" stroke-width="1.8365" stroke-linecap="round" stroke-linejoin="round" stroke-miterlimit="10" points="
	5805.23,469.84 5774.47,576.22 5743.94,545.39 5712.37,507.62 5682.17,600.29 5650.93,445.87 5620.8,456.14 5590.77,442.44 
	5561.34,452.72 5530.37,613.99 5501.3,442.44 5473.12,541.97 5442.14,483.64 5412.95,589.92 5381.62,528.17 5351.36,511.04 
	5321.55,445.87 "/>
</svg>
