<?xml version="1.0" encoding="utf-8"?>
<!-- Generator: Adobe Illustrator 23.0.1, SVG Export Plug-In . SVG Version: 6.00 Build 0)  -->
<svg version="1.1" id="AR_x5F_layer" xmlns="http://www.w3.org/2000/svg" xmlns:xlink="http://www.w3.org/1999/xlink" x="0px"
	 y="0px" width="9451.5px" height="623.5px" viewBox="0 0 9451.5 623.5" style="enable-background:new 0 0 9451.5 623.5;"
	 xml:space="preserve">
<style type="text/css">
	.st0{opacity:1.000000e-02;enable-background:new    ;}
	.st1{fill:none;stroke:#000000;stroke-width:1.8365;stroke-linecap:round;stroke-linejoin:round;stroke-miterlimit:10;}
	.st2{opacity:1.000000e-02;stroke:#000000;stroke-width:1.8365;stroke-linecap:round;stroke-linejoin:round;stroke-miterlimit:10;}
</style>
<g class="st0">
	<polygon points="5681.1,624.7 5646.7,454.6 5620.8,463.5 5590.8,449.8 5566.9,458.1 5536.6,616 5524.8,615.9 5500.2,470.5 
		5475.1,558.9 5444.2,500.7 5414.9,607.4 5377.4,533.4 5347,516.2 5316.4,449.2 5327.3,444.3 5356.3,507.7 5386.5,524.7 
		5411.6,574.2 5440.7,468.4 5471.7,526.9 5495.8,441.7 5507.5,442.3 5531.1,581.1 5556.4,449.1 5591.4,436.9 5621.4,450.6 
		5655.8,438.9 5683.9,577.6 5710.3,496.3 5748.7,542.2 5771.9,565.6 5799.8,469.1 5811.3,472.4 5777.7,588.6 5739.7,550.1 
		5715,520.7 	"/>
	<polygon class="st1" points="5681.1,624.7 5646.7,454.6 5620.8,463.5 5590.8,449.8 5566.9,458.1 5536.6,616 5524.8,615.9 
		5500.2,470.5 5475.1,558.9 5444.2,500.7 5414.9,607.4 5377.4,533.4 5347,516.2 5316.4,449.2 5327.3,444.3 5356.3,507.7 
		5386.5,524.7 5411.6,574.2 5440.7,468.4 5471.7,526.9 5495.8,441.7 5507.5,442.3 5531.1,581.1 5556.4,449.1 5591.4,436.9 
		5621.4,450.6 5655.8,438.9 5683.9,577.6 5710.3,496.3 5748.7,542.2 5771.9,565.6 5799.8,469.1 5811.3,472.4 5777.7,588.6 
		5739.7,550.1 5715,520.7 	"/>
</g>
<polygon class="st2" points="5309.7,437.8 5309.7,452.9 5332.7,452.9 5332.7,437.8 5338.7,437.8 5338.7,457.7 5394.8,457.7 
	5394.8,467.4 5416.1,467.4 5416.1,456.7 5454.2,456.7 5454.2,465.7 5515.6,465.7 5515.6,485 5535.6,485 5535.6,464.8 5606.5,464.9 
	5606.5,474.8 5662.4,474.8 5663.5,507.2 5688.8,507.2 5688.8,477.4 5696.2,477.4 5696.2,496.6 5715,496.6 5715,486 5726.8,486 
	5726.8,454.5 5741.9,454.7 5741.9,507.4 5755.1,507.4 5755.1,614.9 5778.3,614.9 5778.3,525.6 5785.6,525.6 5785.6,579 5807.6,579 
	5807.6,563.2 5820.5,563.2 5820.5,436 5309.7,434.5 "/>
</svg>
