<?xml version="1.0" encoding="utf-8"?>
<!-- Generator: Adobe Illustrator 18.0.0, SVG Export Plug-In . SVG Version: 6.00 Build 0)  -->
<!DOCTYPE svg PUBLIC "-//W3C//DTD SVG 1.1//EN" "http://www.w3.org/Graphics/SVG/1.1/DTD/svg11.dtd">
<svg version="1.1" id="Baseline" xmlns="http://www.w3.org/2000/svg" xmlns:xlink="http://www.w3.org/1999/xlink" x="0px" y="0px"
	 width="9451.45px" height="623.52px" viewBox="0 0 9451.45 623.52" enable-background="new 0 0 9451.45 623.52"
	 xml:space="preserve">
<path fill="#B87332" d="M5826.64,438.26h4.55v-3.62h-4.55V438.26z M5812.27,438.82h4.5v-4.18h-4.5V438.82z M5797.85,451.72h4.5
	v-17.08h-4.5V451.72z M5783.48,468.34h4.5v-33.7h-4.5V468.34z M5769.06,478.18h4.5v-43.54h-4.5V478.18z M5754.64,520.26h4.55v-85.62
	h-4.55V520.26z M5740.27,548.3h4.5V434.64h-4.5V548.3z M5725.86,600.67h4.5V434.64h-4.5V600.67z M5711.49,601.23h4.5v-166.6h-4.5
	V601.23z"/>
<rect x="5999.2" y="304" fill="#B87332" width="4.55" height="121.92"/>
<rect x="5984.83" y="338.26" fill="#B87332" width="4.5" height="87.65"/>
<rect x="5970.41" y="353.76" fill="#B87332" width="4.5" height="72.16"/>
<rect x="5956.05" y="387.46" fill="#B87332" width="4.5" height="38.45"/>
<rect x="5941.63" y="388.59" fill="#B87332" width="4.5" height="37.32"/>
<rect x="5927.21" y="398.43" fill="#B87332" width="4.55" height="27.48"/>
<rect x="5912.84" y="400.47" fill="#B87332" width="4.5" height="25.45"/>
<rect x="5898.42" y="402.05" fill="#B87332" width="4.55" height="23.86"/>
<rect x="5884.05" y="407.25" fill="#B87332" width="4.5" height="18.66"/>
<rect x="5869.63" y="412.91" fill="#B87332" width="4.5" height="13.01"/>
<rect x="5855.26" y="412.91" fill="#B87332" width="4.5" height="13.01"/>
<rect x="5840.85" y="421.73" fill="#B87332" width="4.5" height="4.18"/>
<g>
	<g>
		<g>
			
				<line fill="none" stroke="#FFFFFF" stroke-width="0.75" stroke-linejoin="round" x1="5668.15" y1="272.88" x2="5668.65" y2="272.88"/>
			
				<line fill="none" stroke="#FFFFFF" stroke-width="0.75" stroke-linejoin="round" stroke-dasharray="0.9988,1.9976" x1="5670.64" y1="272.88" x2="6014.23" y2="272.88"/>
			
				<line fill="none" stroke="#FFFFFF" stroke-width="0.75" stroke-linejoin="round" x1="6015.23" y1="272.88" x2="6015.73" y2="272.88"/>
		</g>
		<g>
			
				<line fill="none" stroke="#FFFFFF" stroke-width="0.75" stroke-linejoin="round" x1="5668.15" y1="311.12" x2="5668.65" y2="311.12"/>
			
				<line fill="none" stroke="#FFFFFF" stroke-width="0.75" stroke-linejoin="round" stroke-dasharray="0.9988,1.9976" x1="5670.64" y1="311.12" x2="6014.23" y2="311.12"/>
			
				<line fill="none" stroke="#FFFFFF" stroke-width="0.75" stroke-linejoin="round" x1="6015.23" y1="311.12" x2="6015.73" y2="311.12"/>
		</g>
		<g>
			
				<line fill="none" stroke="#FFFFFF" stroke-width="0.75" stroke-linejoin="round" x1="5668.15" y1="349.47" x2="5668.65" y2="349.47"/>
			
				<line fill="none" stroke="#FFFFFF" stroke-width="0.75" stroke-linejoin="round" stroke-dasharray="0.9988,1.9976" x1="5670.64" y1="349.47" x2="6014.23" y2="349.47"/>
			
				<line fill="none" stroke="#FFFFFF" stroke-width="0.75" stroke-linejoin="round" x1="6015.23" y1="349.47" x2="6015.73" y2="349.47"/>
		</g>
		<g>
			
				<line fill="none" stroke="#FFFFFF" stroke-width="0.75" stroke-linejoin="round" x1="5668.15" y1="387.82" x2="5668.65" y2="387.82"/>
			
				<line fill="none" stroke="#FFFFFF" stroke-width="0.75" stroke-linejoin="round" stroke-dasharray="0.9988,1.9976" x1="5670.64" y1="387.82" x2="6014.23" y2="387.82"/>
			
				<line fill="none" stroke="#FFFFFF" stroke-width="0.75" stroke-linejoin="round" x1="6015.23" y1="387.82" x2="6015.73" y2="387.82"/>
		</g>
		<g>
			
				<line fill="none" stroke="#FFFFFF" stroke-width="0.75" stroke-linejoin="round" x1="5668.15" y1="472.99" x2="5668.65" y2="472.99"/>
			
				<line fill="none" stroke="#FFFFFF" stroke-width="0.75" stroke-linejoin="round" stroke-dasharray="0.9988,1.9976" x1="5670.64" y1="472.99" x2="6014.23" y2="472.99"/>
			
				<line fill="none" stroke="#FFFFFF" stroke-width="0.75" stroke-linejoin="round" x1="6015.23" y1="472.99" x2="6015.73" y2="472.99"/>
		</g>
		<g>
			
				<line fill="none" stroke="#FFFFFF" stroke-width="0.75" stroke-linejoin="round" x1="5668.15" y1="511.34" x2="5668.65" y2="511.34"/>
			
				<line fill="none" stroke="#FFFFFF" stroke-width="0.75" stroke-linejoin="round" stroke-dasharray="0.9988,1.9976" x1="5670.64" y1="511.34" x2="6014.23" y2="511.34"/>
			
				<line fill="none" stroke="#FFFFFF" stroke-width="0.75" stroke-linejoin="round" x1="6015.23" y1="511.34" x2="6015.73" y2="511.34"/>
		</g>
		<g>
			
				<line fill="none" stroke="#FFFFFF" stroke-width="0.75" stroke-linejoin="round" x1="5668.15" y1="549.58" x2="5668.65" y2="549.58"/>
			
				<line fill="none" stroke="#FFFFFF" stroke-width="0.75" stroke-linejoin="round" stroke-dasharray="0.9988,1.9976" x1="5670.64" y1="549.58" x2="6014.23" y2="549.58"/>
			
				<line fill="none" stroke="#FFFFFF" stroke-width="0.75" stroke-linejoin="round" x1="6015.23" y1="549.58" x2="6015.73" y2="549.58"/>
		</g>
		<g>
			
				<line fill="none" stroke="#FFFFFF" stroke-width="0.75" stroke-linejoin="round" x1="5668.15" y1="587.94" x2="5668.65" y2="587.94"/>
			
				<line fill="none" stroke="#FFFFFF" stroke-width="0.75" stroke-linejoin="round" stroke-dasharray="0.9988,1.9976" x1="5670.64" y1="587.94" x2="6014.23" y2="587.94"/>
			
				<line fill="none" stroke="#FFFFFF" stroke-width="0.75" stroke-linejoin="round" x1="6015.23" y1="587.94" x2="6015.73" y2="587.94"/>
		</g>
	</g>
</g>
<g>
	<g>
		
			<line fill="none" stroke="#FFFFFF" stroke-width="0.75" stroke-linejoin="round" x1="5668.15" y1="434.64" x2="5668.65" y2="434.64"/>
		
			<line fill="none" stroke="#FFFFFF" stroke-width="0.75" stroke-linejoin="round" stroke-dasharray="0.9988,1.9976" x1="5670.64" y1="434.64" x2="6014.23" y2="434.64"/>
		
			<line fill="none" stroke="#FFFFFF" stroke-width="0.75" stroke-linejoin="round" x1="6015.23" y1="434.64" x2="6015.73" y2="434.64"/>
	</g>
</g>
<g>
	<g>
		<g>
			<path fill="#FFFFFF" d="M5651.21,620.27h-1.67v-0.52h1.67V620.27z"/>
			<path fill="#FFFFFF" d="M5655.02,622.12h-3.26v-0.46l1.72-1.91c0.25-0.29,0.43-0.52,0.53-0.71c0.1-0.18,0.15-0.37,0.15-0.56
				c0-0.26-0.08-0.47-0.24-0.64c-0.16-0.17-0.37-0.25-0.63-0.25c-0.31,0-0.56,0.09-0.73,0.27c-0.17,0.18-0.26,0.43-0.26,0.75h-0.63
				c0-0.46,0.15-0.83,0.44-1.11s0.69-0.42,1.18-0.42c0.46,0,0.83,0.12,1.1,0.36c0.27,0.24,0.4,0.57,0.4,0.97
				c0,0.49-0.31,1.07-0.94,1.75l-1.33,1.45h2.5V622.12z"/>
			<path fill="#FFFFFF" d="M5655.99,619.63l0.25-2.48h2.55v0.58h-2.01l-0.15,1.36c0.24-0.14,0.52-0.21,0.83-0.21
				c0.45,0,0.81,0.15,1.08,0.45s0.4,0.7,0.4,1.21c0,0.51-0.14,0.92-0.42,1.21c-0.28,0.29-0.66,0.44-1.16,0.44
				c-0.44,0-0.8-0.12-1.08-0.37c-0.28-0.24-0.44-0.58-0.48-1.01h0.6c0.04,0.28,0.14,0.5,0.3,0.64s0.38,0.22,0.65,0.22
				c0.29,0,0.52-0.1,0.69-0.3c0.17-0.2,0.25-0.48,0.25-0.83c0-0.33-0.09-0.6-0.27-0.8c-0.18-0.2-0.42-0.3-0.72-0.3
				c-0.28,0-0.49,0.06-0.65,0.18l-0.17,0.14L5655.99,619.63z"/>
		</g>
	</g>
</g>
<g>
	<g>
		<g>
			<path fill="#FFFFFF" d="M5651.21,590.4h-1.67v-0.52h1.67V590.4z"/>
			<path fill="#FFFFFF" d="M5655.02,592.26h-3.26v-0.46l1.72-1.91c0.25-0.29,0.43-0.52,0.53-0.71c0.1-0.18,0.15-0.37,0.15-0.56
				c0-0.26-0.08-0.47-0.24-0.64c-0.16-0.17-0.37-0.25-0.63-0.25c-0.31,0-0.56,0.09-0.73,0.27c-0.17,0.18-0.26,0.43-0.26,0.75h-0.63
				c0-0.46,0.15-0.83,0.44-1.11s0.69-0.42,1.18-0.42c0.46,0,0.83,0.12,1.1,0.36c0.27,0.24,0.4,0.57,0.4,0.97
				c0,0.49-0.31,1.07-0.94,1.75l-1.33,1.45h2.5V592.26z"/>
			<path fill="#FFFFFF" d="M5658.82,590.13c0,0.74-0.13,1.29-0.38,1.65c-0.25,0.36-0.65,0.54-1.19,0.54c-0.53,0-0.92-0.18-1.18-0.53
				c-0.25-0.35-0.39-0.88-0.4-1.58v-0.84c0-0.73,0.13-1.28,0.38-1.63s0.65-0.53,1.19-0.53c0.54,0,0.93,0.17,1.18,0.51
				s0.38,0.87,0.39,1.59V590.13z M5658.18,589.27c0-0.54-0.08-0.93-0.23-1.17s-0.39-0.37-0.71-0.37c-0.32,0-0.56,0.12-0.71,0.37
				c-0.15,0.24-0.22,0.62-0.23,1.12v1.01c0,0.54,0.08,0.93,0.23,1.19c0.16,0.26,0.39,0.38,0.71,0.38c0.31,0,0.54-0.12,0.7-0.36
				c0.15-0.24,0.23-0.62,0.24-1.14V589.27z"/>
		</g>
	</g>
</g>
<g>
	<g>
		<g>
			<path fill="#FFFFFF" d="M5651.21,552.05h-1.67v-0.52h1.67V552.05z"/>
			<path fill="#FFFFFF" d="M5653.84,553.9h-0.64v-4.21l-1.27,0.47v-0.57l1.81-0.68h0.1V553.9z"/>
			<path fill="#FFFFFF" d="M5655.99,551.41l0.25-2.48h2.55v0.58h-2.01l-0.15,1.36c0.24-0.14,0.52-0.21,0.83-0.21
				c0.45,0,0.81,0.15,1.08,0.45s0.4,0.7,0.4,1.21c0,0.51-0.14,0.92-0.42,1.21c-0.28,0.29-0.66,0.44-1.16,0.44
				c-0.44,0-0.8-0.12-1.08-0.37c-0.28-0.24-0.44-0.58-0.48-1.01h0.6c0.04,0.28,0.14,0.5,0.3,0.64s0.38,0.22,0.65,0.22
				c0.29,0,0.52-0.1,0.69-0.3c0.17-0.2,0.25-0.48,0.25-0.83c0-0.33-0.09-0.6-0.27-0.8c-0.18-0.2-0.42-0.3-0.72-0.3
				c-0.28,0-0.49,0.06-0.65,0.18l-0.17,0.14L5655.99,551.41z"/>
		</g>
	</g>
</g>
<g>
	<g>
		<g>
			<path fill="#FFFFFF" d="M5651.21,513.72h-1.67v-0.52h1.67V513.72z"/>
			<path fill="#FFFFFF" d="M5653.84,515.57h-0.64v-4.21l-1.27,0.47v-0.57l1.81-0.68h0.1V515.57z"/>
			<path fill="#FFFFFF" d="M5658.82,513.45c0,0.74-0.13,1.29-0.38,1.65c-0.25,0.36-0.65,0.54-1.19,0.54c-0.53,0-0.92-0.18-1.18-0.53
				c-0.25-0.35-0.39-0.88-0.4-1.58v-0.84c0-0.73,0.13-1.28,0.38-1.63s0.65-0.53,1.19-0.53c0.54,0,0.93,0.17,1.18,0.51
				s0.38,0.87,0.39,1.59V513.45z M5658.18,512.58c0-0.54-0.08-0.93-0.23-1.17s-0.39-0.37-0.71-0.37c-0.32,0-0.56,0.12-0.71,0.37
				c-0.15,0.24-0.22,0.62-0.23,1.12v1.01c0,0.54,0.08,0.93,0.23,1.19c0.16,0.26,0.39,0.38,0.71,0.38c0.31,0,0.54-0.12,0.7-0.36
				c0.15-0.24,0.23-0.62,0.24-1.14V512.58z"/>
		</g>
	</g>
</g>
<g>
	<g>
		<g>
			<path fill="#FFFFFF" d="M5651.21,475.36h-1.67v-0.52h1.67V475.36z"/>
			<path fill="#FFFFFF" d="M5652.05,474.73l0.25-2.48h2.55v0.58h-2.01l-0.15,1.36c0.24-0.14,0.52-0.21,0.83-0.21
				c0.45,0,0.81,0.15,1.08,0.45s0.4,0.7,0.4,1.21c0,0.51-0.14,0.92-0.42,1.21c-0.28,0.29-0.66,0.44-1.16,0.44
				c-0.44,0-0.8-0.12-1.08-0.37c-0.28-0.24-0.44-0.58-0.48-1.01h0.6c0.04,0.28,0.14,0.5,0.3,0.64s0.38,0.22,0.65,0.22
				c0.29,0,0.52-0.1,0.69-0.3c0.17-0.2,0.25-0.48,0.25-0.83c0-0.33-0.09-0.6-0.27-0.8c-0.18-0.2-0.42-0.3-0.72-0.3
				c-0.28,0-0.49,0.06-0.65,0.18l-0.17,0.14L5652.05,474.73z"/>
		</g>
	</g>
</g>
<g>
	<g>
		<g>
			<path fill="#FFFFFF" d="M5652.95,436.74c0,0.74-0.13,1.29-0.38,1.65c-0.25,0.36-0.65,0.54-1.19,0.54c-0.53,0-0.92-0.18-1.18-0.53
				c-0.25-0.35-0.39-0.88-0.4-1.58v-0.84c0-0.73,0.13-1.28,0.38-1.63s0.65-0.53,1.19-0.53c0.54,0,0.93,0.17,1.18,0.51
				s0.38,0.87,0.39,1.59V436.74z M5652.32,435.88c0-0.54-0.08-0.93-0.23-1.17s-0.39-0.37-0.71-0.37c-0.32,0-0.56,0.12-0.71,0.37
				c-0.15,0.24-0.22,0.62-0.23,1.12v1.01c0,0.54,0.08,0.93,0.23,1.19c0.16,0.26,0.39,0.38,0.71,0.38c0.31,0,0.54-0.12,0.7-0.36
				c0.15-0.24,0.23-0.62,0.24-1.14V435.88z"/>
		</g>
	</g>
</g>
<g>
	<g>
		<g>
			<path fill="#FFFFFF" d="M5650.12,389.58l0.25-2.48h2.55v0.58h-2.01l-0.15,1.36c0.24-0.14,0.52-0.21,0.83-0.21
				c0.45,0,0.81,0.15,1.08,0.45s0.4,0.7,0.4,1.21c0,0.51-0.14,0.92-0.42,1.21c-0.28,0.29-0.66,0.44-1.16,0.44
				c-0.44,0-0.8-0.12-1.08-0.37c-0.28-0.24-0.44-0.58-0.48-1.01h0.6c0.04,0.28,0.14,0.5,0.3,0.64s0.38,0.22,0.65,0.22
				c0.29,0,0.52-0.1,0.69-0.3c0.17-0.2,0.25-0.48,0.25-0.83c0-0.33-0.09-0.6-0.27-0.8c-0.18-0.2-0.42-0.3-0.72-0.3
				c-0.28,0-0.49,0.06-0.65,0.18l-0.17,0.14L5650.12,389.58z"/>
		</g>
	</g>
</g>
<g>
	<g>
		<g>
			<path fill="#FFFFFF" d="M5651.91,353.73h-0.64v-4.21l-1.27,0.47v-0.57l1.81-0.68h0.1V353.73z"/>
			<path fill="#FFFFFF" d="M5656.88,351.6c0,0.74-0.13,1.29-0.38,1.65c-0.25,0.36-0.65,0.54-1.19,0.54c-0.53,0-0.92-0.18-1.18-0.53
				c-0.25-0.35-0.39-0.88-0.4-1.58v-0.84c0-0.73,0.13-1.28,0.38-1.63s0.65-0.53,1.19-0.53c0.54,0,0.93,0.17,1.18,0.51
				s0.38,0.87,0.39,1.59V351.6z M5656.25,350.74c0-0.54-0.08-0.93-0.23-1.17c-0.15-0.24-0.39-0.37-0.71-0.37
				c-0.32,0-0.56,0.12-0.71,0.37c-0.15,0.24-0.22,0.62-0.23,1.12v1.01c0,0.54,0.08,0.93,0.23,1.19c0.16,0.26,0.39,0.38,0.71,0.38
				c0.31,0,0.54-0.12,0.7-0.36c0.15-0.24,0.23-0.62,0.24-1.14V350.74z"/>
		</g>
	</g>
</g>
<g>
	<g>
		<g>
			<path fill="#FFFFFF" d="M5651.91,315.38h-0.64v-4.21l-1.27,0.47v-0.57l1.81-0.68h0.1V315.38z"/>
			<path fill="#FFFFFF" d="M5654.05,312.88l0.25-2.48h2.55v0.58h-2.01l-0.15,1.36c0.24-0.14,0.52-0.21,0.83-0.21
				c0.45,0,0.81,0.15,1.08,0.45s0.4,0.71,0.4,1.21c0,0.51-0.14,0.92-0.42,1.21c-0.28,0.29-0.66,0.44-1.16,0.44
				c-0.44,0-0.8-0.12-1.08-0.37c-0.28-0.24-0.44-0.58-0.48-1.01h0.6c0.04,0.28,0.14,0.5,0.3,0.64c0.16,0.15,0.38,0.22,0.65,0.22
				c0.29,0,0.52-0.1,0.69-0.3c0.17-0.2,0.25-0.48,0.25-0.83c0-0.33-0.09-0.6-0.27-0.8c-0.18-0.2-0.42-0.3-0.72-0.3
				c-0.28,0-0.49,0.06-0.65,0.18l-0.17,0.14L5654.05,312.88z"/>
		</g>
	</g>
</g>
<g>
	<g>
		<g>
			<path fill="#FFFFFF" d="M5653.09,277.04h-3.26v-0.45l1.72-1.91c0.25-0.29,0.43-0.52,0.53-0.71c0.1-0.18,0.15-0.37,0.15-0.56
				c0-0.26-0.08-0.47-0.24-0.64c-0.16-0.17-0.37-0.25-0.63-0.25c-0.31,0-0.56,0.09-0.73,0.27c-0.17,0.18-0.26,0.43-0.26,0.75h-0.63
				c0-0.46,0.15-0.83,0.44-1.11s0.69-0.42,1.18-0.42c0.46,0,0.83,0.12,1.1,0.36c0.27,0.24,0.4,0.57,0.4,0.97
				c0,0.49-0.31,1.07-0.94,1.75l-1.33,1.45h2.5V277.04z"/>
			<path fill="#FFFFFF" d="M5656.88,274.92c0,0.74-0.13,1.29-0.38,1.65c-0.25,0.36-0.65,0.54-1.19,0.54c-0.53,0-0.92-0.18-1.18-0.53
				c-0.25-0.35-0.39-0.88-0.4-1.58v-0.84c0-0.73,0.13-1.27,0.38-1.63s0.65-0.53,1.19-0.53c0.54,0,0.93,0.17,1.18,0.51
				c0.25,0.34,0.38,0.87,0.39,1.59V274.92z M5656.25,274.06c0-0.54-0.08-0.93-0.23-1.17c-0.15-0.24-0.39-0.37-0.71-0.37
				c-0.32,0-0.56,0.12-0.71,0.37c-0.15,0.24-0.22,0.62-0.23,1.12v1.01c0,0.54,0.08,0.93,0.23,1.19c0.16,0.26,0.39,0.38,0.71,0.38
				c0.31,0,0.54-0.12,0.7-0.36s0.23-0.62,0.24-1.14V274.06z"/>
		</g>
	</g>
</g>
<g>
	<g>
		<g>
			<path fill="#FFFFFF" d="M5729.54,621.72c0,0.43-0.14,0.78-0.42,1.05c-0.28,0.27-0.66,0.4-1.13,0.4h-0.1
				c-0.31,0-0.59-0.06-0.84-0.18c-0.25-0.12-0.44-0.29-0.58-0.5c-0.14-0.21-0.21-0.45-0.21-0.7c0-0.41,0.14-0.73,0.41-0.96
				s0.66-0.34,1.17-0.34h0.23v2.15c0.31-0.01,0.57-0.1,0.76-0.27s0.29-0.4,0.29-0.67c0-0.19-0.04-0.35-0.12-0.49
				s-0.18-0.25-0.31-0.35l0.26-0.33C5729.34,620.79,5729.54,621.19,5729.54,621.72z M5726.7,621.79c0,0.22,0.08,0.4,0.24,0.55
				c0.16,0.15,0.38,0.24,0.67,0.28v-1.59h-0.04c-0.28,0.02-0.49,0.09-0.64,0.22C5726.78,621.38,5726.7,621.56,5726.7,621.79z"/>
			<path fill="#FFFFFF" d="M5728.64,618.01c-0.15,0-0.26,0.06-0.34,0.17s-0.15,0.3-0.21,0.58c-0.06,0.28-0.13,0.49-0.21,0.65
				c-0.08,0.16-0.18,0.28-0.29,0.36s-0.25,0.12-0.4,0.12c-0.26,0-0.48-0.11-0.66-0.33c-0.18-0.22-0.27-0.5-0.27-0.84
				c0-0.36,0.09-0.65,0.28-0.88c0.19-0.22,0.42-0.33,0.71-0.33v0.54c-0.15,0-0.28,0.06-0.38,0.19c-0.11,0.13-0.16,0.29-0.16,0.48
				c0,0.2,0.04,0.35,0.13,0.46s0.2,0.17,0.34,0.17c0.13,0,0.23-0.05,0.3-0.16s0.13-0.29,0.19-0.56s0.13-0.49,0.22-0.66
				s0.19-0.29,0.3-0.37s0.26-0.12,0.43-0.12c0.28,0,0.51,0.11,0.68,0.34s0.26,0.52,0.26,0.88c0,0.25-0.04,0.48-0.13,0.67
				s-0.21,0.35-0.38,0.46c-0.16,0.11-0.33,0.17-0.52,0.17v-0.54c0.18-0.01,0.33-0.08,0.43-0.22c0.11-0.13,0.16-0.31,0.16-0.54
				c0-0.21-0.04-0.37-0.12-0.49C5728.89,618.07,5728.78,618.01,5728.64,618.01z"/>
			<path fill="#FFFFFF" d="M5726.7,616.22c-0.29-0.24-0.44-0.55-0.44-0.94c0-0.67,0.38-1.01,1.13-1.01h2.09v0.54h-2.1
				c-0.23,0-0.4,0.05-0.51,0.16c-0.11,0.1-0.16,0.26-0.16,0.48c0,0.18,0.05,0.33,0.14,0.46s0.22,0.24,0.37,0.31h2.26v0.54h-4.5
				v-0.54H5726.7z"/>
		</g>
	</g>
</g>
<g>
	<g>
		<g>
			<path fill="#FFFFFF" d="M5755.61,621.92c-0.01,0.08-0.02,0.17-0.02,0.27c0,0.36,0.15,0.6,0.45,0.72h2.25v0.54h-3.17v-0.53
				l0.37-0.01c-0.28-0.18-0.42-0.43-0.42-0.76c0-0.11,0.01-0.19,0.04-0.24H5755.61z"/>
			<path fill="#FFFFFF" d="M5758.29,619.58c-0.06,0.03-0.17,0.06-0.33,0.08c0.26,0.25,0.39,0.55,0.39,0.9
				c0,0.31-0.09,0.57-0.27,0.77c-0.18,0.2-0.4,0.3-0.67,0.3c-0.33,0-0.59-0.12-0.77-0.38c-0.18-0.25-0.27-0.6-0.27-1.06v-0.53h-0.25
				c-0.19,0-0.34,0.06-0.45,0.17s-0.17,0.28-0.17,0.5c0,0.19,0.05,0.36,0.15,0.49s0.22,0.2,0.35,0.2v0.54
				c-0.16,0-0.31-0.06-0.46-0.17c-0.15-0.11-0.26-0.26-0.35-0.46c-0.09-0.19-0.13-0.4-0.13-0.63c0-0.37,0.09-0.65,0.27-0.86
				c0.18-0.21,0.43-0.31,0.75-0.32h1.46c0.29,0,0.52-0.04,0.69-0.11h0.05V619.58z M5757.88,620.48c0-0.17-0.04-0.33-0.13-0.48
				s-0.2-0.26-0.34-0.33h-0.65v0.42c0,0.66,0.19,1,0.58,1c0.17,0,0.3-0.06,0.4-0.17S5757.88,620.66,5757.88,620.48z"/>
			<path fill="#FFFFFF" d="M5756.68,618.41c-0.49,0-0.88-0.12-1.17-0.35c-0.29-0.23-0.44-0.53-0.44-0.91c0-0.37,0.13-0.67,0.38-0.88
				h-1.65v-0.54h4.5v0.5l-0.34,0.03c0.27,0.22,0.4,0.52,0.4,0.91c0,0.37-0.15,0.67-0.45,0.9c-0.3,0.23-0.69,0.35-1.18,0.35H5756.68z
				 M5756.75,617.86c0.36,0,0.64-0.07,0.84-0.22s0.3-0.35,0.3-0.62c0-0.34-0.15-0.59-0.46-0.75h-1.46c-0.3,0.16-0.45,0.41-0.45,0.75
				c0,0.27,0.1,0.47,0.31,0.62S5756.34,617.86,5756.75,617.86z"/>
			<path fill="#FFFFFF" d="M5758.35,613.58c0,0.43-0.14,0.78-0.42,1.05c-0.28,0.27-0.66,0.4-1.13,0.4h-0.1
				c-0.31,0-0.59-0.06-0.84-0.18c-0.25-0.12-0.44-0.29-0.58-0.5c-0.14-0.21-0.21-0.45-0.21-0.7c0-0.41,0.14-0.73,0.41-0.96
				s0.66-0.34,1.17-0.34h0.23v2.15c0.31-0.01,0.57-0.1,0.76-0.27s0.29-0.4,0.29-0.67c0-0.19-0.04-0.35-0.12-0.49
				s-0.18-0.25-0.31-0.35l0.26-0.33C5758.15,612.65,5758.35,613.04,5758.35,613.58z M5755.51,613.64c0,0.22,0.08,0.4,0.24,0.55
				c0.16,0.15,0.38,0.24,0.67,0.28v-1.59h-0.04c-0.28,0.02-0.49,0.09-0.64,0.22C5755.59,613.24,5755.51,613.42,5755.51,613.64z"/>
			<path fill="#FFFFFF" d="M5757.45,609.87c-0.15,0-0.26,0.06-0.34,0.17s-0.15,0.3-0.21,0.58c-0.06,0.28-0.13,0.49-0.21,0.65
				c-0.08,0.16-0.18,0.28-0.29,0.36s-0.25,0.12-0.4,0.12c-0.26,0-0.48-0.11-0.66-0.33c-0.18-0.22-0.27-0.5-0.27-0.84
				c0-0.36,0.09-0.65,0.28-0.88c0.19-0.22,0.42-0.33,0.71-0.33v0.54c-0.15,0-0.28,0.06-0.38,0.19c-0.11,0.13-0.16,0.29-0.16,0.48
				c0,0.2,0.04,0.35,0.13,0.46s0.2,0.17,0.34,0.17c0.13,0,0.23-0.05,0.3-0.16s0.13-0.29,0.19-0.56s0.13-0.49,0.22-0.66
				s0.19-0.29,0.3-0.37s0.26-0.12,0.43-0.12c0.28,0,0.51,0.11,0.68,0.34s0.26,0.52,0.26,0.88c0,0.25-0.04,0.48-0.13,0.67
				s-0.21,0.35-0.38,0.46c-0.16,0.11-0.33,0.17-0.52,0.17v-0.54c0.18-0.01,0.33-0.08,0.43-0.22c0.11-0.13,0.16-0.31,0.16-0.54
				c0-0.21-0.04-0.37-0.12-0.49C5757.7,609.93,5757.59,609.87,5757.45,609.87z"/>
			<path fill="#FFFFFF" d="M5755.51,608.08c-0.29-0.24-0.44-0.55-0.44-0.94c0-0.67,0.38-1.01,1.13-1.01h2.09v0.54h-2.1
				c-0.23,0-0.4,0.05-0.51,0.16c-0.11,0.1-0.16,0.26-0.16,0.48c0,0.18,0.05,0.33,0.14,0.46s0.22,0.24,0.37,0.31h2.26v0.54h-4.5
				v-0.54H5755.51z"/>
		</g>
	</g>
</g>
<g>
	<g>
		<g>
			<path fill="#FFFFFF" d="M5772.7,621.74c-0.06,0.03-0.17,0.06-0.33,0.08c0.26,0.25,0.39,0.55,0.39,0.9c0,0.31-0.09,0.57-0.27,0.77
				c-0.18,0.2-0.4,0.3-0.67,0.3c-0.33,0-0.59-0.12-0.77-0.38c-0.18-0.25-0.27-0.6-0.27-1.06v-0.53h-0.25
				c-0.19,0-0.34,0.06-0.45,0.17s-0.17,0.28-0.17,0.5c0,0.19,0.05,0.36,0.15,0.49s0.22,0.2,0.35,0.2v0.54
				c-0.16,0-0.31-0.06-0.46-0.17c-0.15-0.11-0.26-0.26-0.35-0.46c-0.09-0.19-0.13-0.4-0.13-0.63c0-0.37,0.09-0.65,0.27-0.86
				c0.18-0.21,0.43-0.31,0.75-0.32h1.46c0.29,0,0.52-0.04,0.69-0.11h0.05V621.74z M5772.29,622.64c0-0.17-0.04-0.33-0.13-0.48
				s-0.2-0.26-0.34-0.33h-0.65v0.42c0,0.66,0.19,1,0.58,1c0.17,0,0.3-0.06,0.4-0.17S5772.29,622.82,5772.29,622.64z"/>
			<path fill="#FFFFFF" d="M5771.09,620.57c-0.49,0-0.88-0.12-1.17-0.35c-0.29-0.23-0.44-0.53-0.44-0.91c0-0.37,0.13-0.67,0.38-0.88
				h-1.65v-0.54h4.5v0.5l-0.34,0.03c0.27,0.22,0.4,0.52,0.4,0.91c0,0.37-0.15,0.67-0.45,0.9c-0.3,0.23-0.69,0.35-1.18,0.35H5771.09z
				 M5771.15,620.02c0.36,0,0.64-0.07,0.84-0.22s0.3-0.35,0.3-0.62c0-0.34-0.15-0.59-0.46-0.75h-1.46c-0.3,0.16-0.45,0.41-0.45,0.75
				c0,0.27,0.1,0.47,0.31,0.62S5770.75,620.02,5771.15,620.02z"/>
			<path fill="#FFFFFF" d="M5772.76,615.73c0,0.43-0.14,0.78-0.42,1.05c-0.28,0.27-0.66,0.4-1.13,0.4h-0.1
				c-0.31,0-0.59-0.06-0.84-0.18c-0.25-0.12-0.44-0.29-0.58-0.5c-0.14-0.21-0.21-0.45-0.21-0.7c0-0.41,0.14-0.73,0.41-0.96
				s0.66-0.34,1.17-0.34h0.23v2.15c0.31-0.01,0.57-0.1,0.76-0.27s0.29-0.4,0.29-0.67c0-0.19-0.04-0.35-0.12-0.49
				s-0.18-0.25-0.31-0.35l0.26-0.33C5772.55,614.81,5772.76,615.2,5772.76,615.73z M5769.92,615.8c0,0.22,0.08,0.4,0.24,0.55
				c0.16,0.15,0.38,0.24,0.67,0.28v-1.59h-0.04c-0.28,0.02-0.49,0.09-0.64,0.22C5769.99,615.4,5769.92,615.58,5769.92,615.8z"/>
			<path fill="#FFFFFF" d="M5771.86,612.03c-0.15,0-0.26,0.06-0.34,0.17s-0.15,0.3-0.21,0.58c-0.06,0.28-0.13,0.49-0.21,0.65
				c-0.08,0.16-0.18,0.28-0.29,0.36s-0.25,0.12-0.4,0.12c-0.26,0-0.48-0.11-0.66-0.33c-0.18-0.22-0.27-0.5-0.27-0.84
				c0-0.36,0.09-0.65,0.28-0.88c0.19-0.22,0.42-0.33,0.71-0.33v0.54c-0.15,0-0.28,0.06-0.38,0.19c-0.11,0.13-0.16,0.29-0.16,0.48
				c0,0.2,0.04,0.35,0.13,0.46s0.2,0.17,0.34,0.17c0.13,0,0.23-0.05,0.3-0.16s0.13-0.29,0.19-0.56s0.13-0.49,0.22-0.66
				s0.19-0.29,0.3-0.37s0.26-0.12,0.43-0.12c0.28,0,0.51,0.11,0.68,0.34s0.26,0.52,0.26,0.88c0,0.25-0.04,0.48-0.13,0.67
				s-0.21,0.35-0.38,0.46c-0.16,0.11-0.33,0.17-0.52,0.17v-0.54c0.18-0.01,0.33-0.08,0.43-0.22c0.11-0.13,0.16-0.31,0.16-0.54
				c0-0.21-0.04-0.37-0.12-0.49C5772.11,612.09,5772,612.03,5771.86,612.03z"/>
			<path fill="#FFFFFF" d="M5769.91,610.24c-0.29-0.24-0.44-0.55-0.44-0.94c0-0.67,0.38-1.01,1.13-1.01h2.09v0.54h-2.1
				c-0.23,0-0.4,0.05-0.51,0.16c-0.11,0.1-0.16,0.26-0.16,0.48c0,0.18,0.05,0.33,0.14,0.46s0.22,0.24,0.37,0.31h2.26v0.54h-4.5
				v-0.54H5769.91z"/>
		</g>
	</g>
</g>
<g>
	<g>
		<g>
			<path fill="#FFFFFF" d="M5801.2,620.92c0.25,0.21,0.37,0.52,0.37,0.93c0,0.34-0.1,0.6-0.29,0.77c-0.2,0.18-0.49,0.27-0.87,0.27
				h-2.06v-0.54h2.05c0.48,0,0.72-0.2,0.72-0.59c0-0.41-0.15-0.69-0.46-0.83h-2.31v-0.54h3.17v0.52L5801.2,620.92z"/>
		</g>
	</g>
</g>
<g>
	<g>
		<g>
			<path fill="#FFFFFF" d="M5815.92,622.01c-0.06,0.03-0.17,0.06-0.33,0.08c0.26,0.25,0.39,0.55,0.39,0.9
				c0,0.31-0.09,0.57-0.27,0.77c-0.18,0.2-0.4,0.3-0.67,0.3c-0.33,0-0.59-0.12-0.77-0.38c-0.18-0.25-0.27-0.6-0.27-1.06v-0.53h-0.25
				c-0.19,0-0.34,0.06-0.45,0.17s-0.17,0.28-0.17,0.5c0,0.19,0.05,0.36,0.15,0.49s0.22,0.2,0.35,0.2v0.54
				c-0.16,0-0.31-0.06-0.46-0.17c-0.15-0.11-0.26-0.26-0.35-0.46c-0.09-0.19-0.13-0.4-0.13-0.63c0-0.37,0.09-0.65,0.27-0.86
				c0.18-0.21,0.43-0.31,0.75-0.32h1.46c0.29,0,0.52-0.04,0.69-0.11h0.05V622.01z M5815.5,622.91c0-0.17-0.04-0.33-0.13-0.48
				s-0.2-0.26-0.34-0.33h-0.65v0.42c0,0.66,0.19,1,0.58,1c0.17,0,0.3-0.06,0.4-0.17S5815.5,623.08,5815.5,622.91z"/>
			<path fill="#FFFFFF" d="M5815.92,620.11v0.54h-4.5v-0.54H5815.92z"/>
		</g>
	</g>
</g>
<g>
	<g>
		<g>
			<path fill="#FFFFFF" d="M5827.65,622.87c-0.01,0.08-0.02,0.17-0.02,0.27c0,0.36,0.15,0.6,0.45,0.72h2.25v0.54h-3.17v-0.53
				l0.37-0.01c-0.28-0.18-0.42-0.43-0.42-0.76c0-0.11,0.01-0.19,0.04-0.24H5827.65z"/>
			<path fill="#FFFFFF" d="M5827.55,621.83c-0.29-0.24-0.44-0.55-0.44-0.94c0-0.67,0.38-1.01,1.13-1.01h2.09v0.54h-2.1
				c-0.23,0-0.4,0.05-0.51,0.16c-0.11,0.1-0.16,0.26-0.16,0.48c0,0.18,0.05,0.33,0.14,0.46s0.22,0.24,0.37,0.31h2.26v0.54h-4.5
				v-0.54H5827.55z"/>
		</g>
	</g>
</g>
<g>
	<g>
		<g>
			<path fill="#FFFFFF" d="M5857.54,624.93c-0.49,0-0.89-0.11-1.18-0.34c-0.29-0.23-0.44-0.53-0.44-0.91c0-0.39,0.14-0.69,0.41-0.91
				l-0.35-0.03v-0.5h3.09c0.41,0,0.73,0.12,0.97,0.37c0.24,0.24,0.35,0.57,0.35,0.98c0,0.23-0.05,0.45-0.15,0.67s-0.23,0.39-0.4,0.5
				l-0.33-0.28c0.29-0.23,0.43-0.52,0.43-0.85c0-0.26-0.07-0.47-0.22-0.62c-0.15-0.15-0.36-0.22-0.63-0.22h-0.27
				c0.25,0.22,0.38,0.51,0.38,0.89c0,0.37-0.15,0.67-0.45,0.9S5858.05,624.93,5857.54,624.93z M5857.6,624.38
				c0.36,0,0.64-0.07,0.84-0.22s0.31-0.35,0.31-0.62c0-0.34-0.16-0.59-0.47-0.75h-1.45c-0.3,0.17-0.45,0.42-0.45,0.75
				c0,0.26,0.1,0.47,0.31,0.62S5857.2,624.38,5857.6,624.38z"/>
			<path fill="#FFFFFF" d="M5859.15,619.47c-0.06,0.03-0.17,0.06-0.33,0.08c0.26,0.25,0.39,0.55,0.39,0.9
				c0,0.31-0.09,0.57-0.27,0.77c-0.18,0.2-0.4,0.3-0.67,0.3c-0.33,0-0.59-0.12-0.77-0.38c-0.18-0.25-0.27-0.6-0.27-1.06v-0.53h-0.25
				c-0.19,0-0.34,0.06-0.45,0.17s-0.17,0.28-0.17,0.5c0,0.19,0.05,0.36,0.15,0.49s0.22,0.2,0.35,0.2v0.54
				c-0.16,0-0.31-0.06-0.46-0.17c-0.15-0.11-0.26-0.26-0.35-0.46c-0.09-0.19-0.13-0.4-0.13-0.63c0-0.37,0.09-0.65,0.27-0.86
				c0.18-0.21,0.43-0.31,0.75-0.32h1.46c0.29,0,0.52-0.04,0.69-0.11h0.05V619.47z M5858.73,620.37c0-0.17-0.04-0.33-0.13-0.48
				s-0.2-0.26-0.34-0.33h-0.65v0.42c0,0.66,0.19,1,0.58,1c0.17,0,0.3-0.06,0.4-0.17S5858.73,620.55,5858.73,620.37z"/>
			<path fill="#FFFFFF" d="M5859.15,617.58v0.54h-4.5v-0.54H5859.15z"/>
		</g>
	</g>
</g>
<g>
	<g>
		<g>
			<path fill="#FFFFFF" d="M5871.88,622.42h1.67v0.56h-4.27v-1.57c0-0.47,0.12-0.83,0.36-1.1c0.24-0.26,0.55-0.4,0.95-0.4
				c0.41,0,0.73,0.13,0.96,0.39c0.22,0.26,0.34,0.63,0.34,1.11V622.42z M5871.42,622.42v-1.01c0-0.3-0.07-0.53-0.21-0.69
				s-0.35-0.24-0.61-0.24c-0.25,0-0.46,0.08-0.61,0.24c-0.15,0.16-0.23,0.38-0.24,0.66v1.04H5871.42z"/>
			<path fill="#FFFFFF" d="M5870.87,617.75c-0.01,0.08-0.02,0.17-0.02,0.27c0,0.36,0.15,0.6,0.45,0.72h2.25v0.54h-3.17v-0.53
				l0.37-0.01c-0.28-0.18-0.42-0.43-0.42-0.76c0-0.11,0.01-0.19,0.04-0.24H5870.87z"/>
			<path fill="#FFFFFF" d="M5873.55,615.41c-0.06,0.03-0.17,0.06-0.33,0.08c0.26,0.25,0.39,0.55,0.39,0.9
				c0,0.31-0.09,0.57-0.27,0.77c-0.18,0.2-0.4,0.3-0.67,0.3c-0.33,0-0.59-0.12-0.77-0.38c-0.18-0.25-0.27-0.6-0.27-1.06v-0.53h-0.25
				c-0.19,0-0.34,0.06-0.45,0.17s-0.17,0.28-0.17,0.5c0,0.19,0.05,0.36,0.15,0.49s0.22,0.2,0.35,0.2v0.54
				c-0.16,0-0.31-0.06-0.46-0.17c-0.15-0.11-0.26-0.26-0.35-0.46c-0.09-0.19-0.13-0.4-0.13-0.63c0-0.37,0.09-0.65,0.27-0.86
				c0.18-0.21,0.43-0.31,0.75-0.32h1.46c0.29,0,0.52-0.04,0.69-0.11h0.05V615.41z M5873.14,616.31c0-0.17-0.04-0.33-0.13-0.48
				s-0.2-0.26-0.34-0.33h-0.65v0.42c0,0.66,0.19,1,0.58,1c0.17,0,0.3-0.06,0.4-0.17S5873.14,616.49,5873.14,616.31z"/>
			<path fill="#FFFFFF" d="M5871.94,614.23c-0.49,0-0.88-0.12-1.17-0.35c-0.29-0.23-0.44-0.53-0.44-0.91c0-0.37,0.13-0.67,0.38-0.88
				h-1.65v-0.54h4.5v0.5l-0.34,0.03c0.27,0.22,0.4,0.52,0.4,0.91c0,0.37-0.15,0.67-0.45,0.9c-0.3,0.23-0.69,0.35-1.18,0.35H5871.94z
				 M5872,613.69c0.36,0,0.64-0.07,0.84-0.22s0.3-0.35,0.3-0.62c0-0.34-0.15-0.59-0.46-0.75h-1.46c-0.3,0.16-0.45,0.41-0.45,0.75
				c0,0.27,0.1,0.47,0.31,0.62S5871.6,613.69,5872,613.69z"/>
			<path fill="#FFFFFF" d="M5873.61,609.4c0,0.43-0.14,0.78-0.42,1.05c-0.28,0.27-0.66,0.4-1.13,0.4h-0.1
				c-0.31,0-0.59-0.06-0.84-0.18c-0.25-0.12-0.44-0.29-0.58-0.5c-0.14-0.21-0.21-0.45-0.21-0.7c0-0.41,0.14-0.73,0.41-0.96
				s0.66-0.34,1.17-0.34h0.23v2.15c0.31-0.01,0.57-0.1,0.76-0.27s0.29-0.4,0.29-0.67c0-0.19-0.04-0.35-0.12-0.49
				s-0.18-0.25-0.31-0.35l0.26-0.33C5873.41,608.47,5873.61,608.87,5873.61,609.4z M5870.77,609.47c0,0.22,0.08,0.4,0.24,0.55
				c0.16,0.15,0.38,0.24,0.67,0.28v-1.59h-0.04c-0.28,0.02-0.49,0.09-0.64,0.22C5870.84,609.06,5870.77,609.24,5870.77,609.47z"/>
			<path fill="#FFFFFF" d="M5872.71,605.69c-0.15,0-0.26,0.06-0.34,0.17s-0.15,0.3-0.21,0.58c-0.06,0.28-0.13,0.49-0.21,0.65
				c-0.08,0.16-0.18,0.28-0.29,0.36s-0.25,0.12-0.4,0.12c-0.26,0-0.48-0.11-0.66-0.33c-0.18-0.22-0.27-0.5-0.27-0.84
				c0-0.36,0.09-0.65,0.28-0.88c0.19-0.22,0.42-0.33,0.71-0.33v0.54c-0.15,0-0.28,0.06-0.38,0.19c-0.11,0.13-0.16,0.29-0.16,0.48
				c0,0.2,0.04,0.35,0.13,0.46s0.2,0.17,0.34,0.17c0.13,0,0.23-0.05,0.3-0.16s0.13-0.29,0.19-0.56s0.13-0.49,0.22-0.66
				s0.19-0.29,0.3-0.37s0.26-0.12,0.43-0.12c0.28,0,0.51,0.11,0.68,0.34s0.26,0.52,0.26,0.88c0,0.25-0.04,0.48-0.13,0.67
				s-0.21,0.35-0.38,0.46c-0.16,0.11-0.33,0.17-0.52,0.17v-0.54c0.18-0.01,0.33-0.08,0.43-0.22c0.11-0.13,0.16-0.31,0.16-0.54
				c0-0.21-0.04-0.37-0.12-0.49C5872.96,605.76,5872.85,605.69,5872.71,605.69z"/>
			<path fill="#FFFFFF" d="M5870.76,603.9c-0.29-0.24-0.44-0.55-0.44-0.94c0-0.67,0.38-1.01,1.13-1.01h2.09v0.54h-2.1
				c-0.23,0-0.4,0.05-0.51,0.16c-0.11,0.1-0.16,0.26-0.16,0.48c0,0.18,0.05,0.33,0.14,0.46s0.22,0.24,0.37,0.31h2.26v0.54h-4.5
				v-0.54H5870.76z"/>
		</g>
	</g>
</g>
<g>
	<g>
		<g>
			<path fill="#FFFFFF" d="M5913.6,624.31l0.4-0.02c-0.3-0.24-0.46-0.56-0.46-0.95c0-0.67,0.38-1.01,1.13-1.01h2.09v0.54h-2.1
				c-0.23,0-0.4,0.05-0.51,0.16c-0.11,0.1-0.16,0.26-0.16,0.48c0,0.18,0.05,0.33,0.14,0.46s0.22,0.24,0.37,0.31h2.26v0.54h-3.17
				V624.31z"/>
			<path fill="#FFFFFF" d="M5915.16,621.64c-0.49,0-0.88-0.12-1.17-0.35c-0.29-0.23-0.44-0.53-0.44-0.91c0-0.37,0.13-0.67,0.38-0.88
				h-1.65v-0.54h4.5v0.5l-0.34,0.03c0.27,0.22,0.4,0.52,0.4,0.91c0,0.37-0.15,0.67-0.45,0.9c-0.3,0.23-0.69,0.35-1.18,0.35H5915.16z
				 M5915.22,621.1c0.36,0,0.64-0.07,0.84-0.22s0.3-0.35,0.3-0.62c0-0.34-0.15-0.59-0.46-0.75h-1.46c-0.3,0.16-0.45,0.41-0.45,0.75
				c0,0.27,0.1,0.47,0.31,0.62S5914.82,621.1,5915.22,621.1z"/>
			<path fill="#FFFFFF" d="M5914.79,615.47l0.54,0.52h1.44v0.56h-4.27V616h2.11l-2.11-1.9v-0.68l1.88,1.68l2.38-1.81v0.67
				L5914.79,615.47z"/>
			<path fill="#FFFFFF" d="M5916.77,610.92c-0.06,0.03-0.17,0.06-0.33,0.08c0.26,0.25,0.39,0.55,0.39,0.9
				c0,0.31-0.09,0.57-0.27,0.77c-0.18,0.2-0.4,0.3-0.67,0.3c-0.33,0-0.59-0.12-0.77-0.38c-0.18-0.25-0.27-0.6-0.27-1.06v-0.53h-0.25
				c-0.19,0-0.34,0.06-0.45,0.17s-0.17,0.28-0.17,0.5c0,0.19,0.05,0.36,0.15,0.49s0.22,0.2,0.35,0.2v0.54
				c-0.16,0-0.31-0.06-0.46-0.17c-0.15-0.11-0.26-0.26-0.35-0.46c-0.09-0.19-0.13-0.4-0.13-0.63c0-0.37,0.09-0.65,0.27-0.86
				c0.18-0.21,0.43-0.31,0.75-0.32h1.46c0.29,0,0.52-0.04,0.69-0.11h0.05V610.92z M5916.36,611.82c0-0.17-0.04-0.33-0.13-0.48
				s-0.2-0.26-0.34-0.33h-0.65v0.42c0,0.66,0.19,1,0.58,1c0.17,0,0.3-0.06,0.4-0.17S5916.36,612,5916.36,611.82z"/>
			<path fill="#FFFFFF" d="M5915.93,607.77c-0.15,0-0.26,0.06-0.34,0.17s-0.15,0.3-0.21,0.58c-0.06,0.28-0.13,0.49-0.21,0.65
				c-0.08,0.16-0.18,0.28-0.29,0.36s-0.25,0.12-0.4,0.12c-0.26,0-0.48-0.11-0.66-0.33c-0.18-0.22-0.27-0.5-0.27-0.84
				c0-0.36,0.09-0.65,0.28-0.88c0.19-0.22,0.42-0.33,0.71-0.33v0.54c-0.15,0-0.28,0.06-0.38,0.19c-0.11,0.13-0.16,0.29-0.16,0.48
				c0,0.2,0.04,0.35,0.13,0.46s0.2,0.17,0.34,0.17c0.13,0,0.23-0.05,0.3-0.16s0.13-0.29,0.19-0.56s0.13-0.49,0.22-0.66
				s0.19-0.29,0.3-0.37s0.26-0.12,0.43-0.12c0.28,0,0.51,0.11,0.68,0.34s0.26,0.52,0.26,0.88c0,0.25-0.04,0.48-0.13,0.67
				s-0.21,0.35-0.38,0.46c-0.16,0.11-0.33,0.17-0.52,0.17v-0.54c0.18-0.01,0.33-0.08,0.43-0.22c0.11-0.13,0.16-0.31,0.16-0.54
				c0-0.21-0.04-0.37-0.12-0.49C5916.18,607.83,5916.07,607.77,5915.93,607.77z"/>
			<path fill="#FFFFFF" d="M5913.99,605.98c-0.29-0.24-0.44-0.55-0.44-0.94c0-0.67,0.38-1.01,1.13-1.01h2.09v0.54h-2.1
				c-0.23,0-0.4,0.05-0.51,0.16c-0.11,0.1-0.16,0.26-0.16,0.48c0,0.18,0.05,0.33,0.14,0.46s0.22,0.24,0.37,0.31h2.26v0.54h-4.5
				v-0.54H5913.99z"/>
			<path fill="#FFFFFF" d="M5913.6,602.71l0.35-0.01c-0.27-0.23-0.41-0.55-0.41-0.94c0-0.44,0.17-0.75,0.51-0.91
				c-0.15-0.11-0.28-0.24-0.37-0.41s-0.14-0.37-0.14-0.6c0-0.7,0.37-1.05,1.1-1.06h2.12v0.54h-2.09c-0.23,0-0.4,0.05-0.51,0.16
				s-0.17,0.28-0.17,0.52c0,0.2,0.06,0.37,0.18,0.5c0.12,0.13,0.28,0.21,0.48,0.23h2.1v0.54h-2.08c-0.46,0-0.69,0.23-0.69,0.68
				c0,0.36,0.15,0.6,0.45,0.73h2.31v0.54h-3.17V602.71z"/>
			<path fill="#FFFFFF" d="M5912.76,597.96c-0.09,0-0.16-0.03-0.22-0.08c-0.06-0.05-0.09-0.13-0.09-0.24s0.03-0.19,0.09-0.24
				s0.13-0.08,0.22-0.08s0.16,0.03,0.22,0.08s0.09,0.13,0.09,0.24s-0.03,0.19-0.09,0.24
				C5912.92,597.93,5912.85,597.96,5912.76,597.96z M5916.77,597.37v0.54h-3.17v-0.54H5916.77z"/>
			<path fill="#FFFFFF" d="M5914.09,594.97c-0.01,0.08-0.02,0.17-0.02,0.27c0,0.36,0.15,0.6,0.45,0.72h2.25v0.54h-3.17v-0.53
				l0.37-0.01c-0.28-0.18-0.42-0.43-0.42-0.76c0-0.11,0.01-0.19,0.04-0.24H5914.09z"/>
		</g>
	</g>
</g>
<g>
	<g>
		<g>
			<path fill="#FFFFFF" d="M5927.24,622.59h0.77V622h0.42v0.59h1.97c0.13,0,0.22-0.03,0.29-0.08s0.1-0.14,0.1-0.27
				c0-0.06-0.01-0.15-0.04-0.26h0.44c0.04,0.14,0.06,0.28,0.06,0.42c0,0.24-0.07,0.42-0.22,0.55s-0.35,0.18-0.62,0.18h-1.97v0.58
				h-0.42v-0.58h-0.77V622.59z"/>
			<path fill="#FFFFFF" d="M5928.49,619.83c-0.01,0.08-0.02,0.17-0.02,0.27c0,0.36,0.15,0.6,0.45,0.72h2.25v0.54h-3.17v-0.53
				l0.37-0.01c-0.28-0.18-0.42-0.43-0.42-0.76c0-0.11,0.01-0.19,0.04-0.24H5928.49z"/>
			<path fill="#FFFFFF" d="M5931.18,617.5c-0.06,0.03-0.17,0.06-0.33,0.08c0.26,0.25,0.39,0.55,0.39,0.9c0,0.31-0.09,0.57-0.27,0.77
				c-0.18,0.2-0.4,0.3-0.67,0.3c-0.33,0-0.59-0.12-0.77-0.38c-0.18-0.25-0.27-0.6-0.27-1.06v-0.53h-0.25
				c-0.19,0-0.34,0.06-0.45,0.17s-0.17,0.28-0.17,0.5c0,0.19,0.05,0.36,0.15,0.49s0.22,0.2,0.35,0.2v0.54
				c-0.16,0-0.31-0.06-0.46-0.17c-0.15-0.11-0.26-0.26-0.35-0.46c-0.09-0.19-0.13-0.4-0.13-0.63c0-0.37,0.09-0.65,0.27-0.86
				c0.18-0.21,0.43-0.31,0.75-0.32h1.46c0.29,0,0.52-0.04,0.69-0.11h0.05V617.5z M5930.76,618.39c0-0.17-0.04-0.33-0.13-0.48
				s-0.2-0.26-0.34-0.33h-0.65v0.42c0,0.66,0.19,1,0.58,1c0.17,0,0.3-0.06,0.4-0.17S5930.76,618.57,5930.76,618.39z"/>
		</g>
	</g>
</g>
<g>
	<g>
		<g>
			<path fill="#FFFFFF" d="M5972.79,625.27c-0.49,0-0.88-0.12-1.17-0.35c-0.29-0.23-0.44-0.53-0.44-0.91c0-0.37,0.13-0.67,0.38-0.88
				h-1.65v-0.54h4.5v0.5l-0.34,0.03c0.27,0.22,0.4,0.52,0.4,0.91c0,0.37-0.15,0.67-0.45,0.9c-0.3,0.23-0.69,0.35-1.18,0.35H5972.79z
				 M5972.85,624.73c0.36,0,0.64-0.07,0.84-0.22s0.3-0.35,0.3-0.62c0-0.34-0.15-0.59-0.46-0.75h-1.46c-0.3,0.16-0.45,0.41-0.45,0.75
				c0,0.27,0.1,0.47,0.31,0.62S5972.45,624.73,5972.85,624.73z"/>
		</g>
	</g>
</g>
<g>
	<g>
		<path fill="#FFFFFF" d="M5823.52,228.31h-2.91l-0.66,1.8h-0.57l2.42-6.4h0.51l2.42,6.4h-0.56L5823.52,228.31z M5820.79,227.85
			h2.57l-1.28-3.48L5820.79,227.85z"/>
		<path fill="#FFFFFF" d="M5830.99,230.1h-0.54l-3.68-5.48v5.48h-0.54v-6.4h0.54l3.68,5.48v-5.48h0.54V230.1z"/>
		<path fill="#FFFFFF" d="M5836.69,228.31h-2.91l-0.66,1.8h-0.57l2.42-6.4h0.51l2.42,6.4h-0.56L5836.69,228.31z M5833.96,227.85
			h2.57l-1.28-3.48L5833.96,227.85z"/>
		<path fill="#FFFFFF" d="M5839.94,229.65h3.16v0.46h-3.71v-6.4h0.54V229.65z"/>
		<path fill="#FFFFFF" d="M5845.51,227.19l1.96-3.49h0.62l-2.31,3.99v2.41h-0.54v-2.41l-2.31-3.99h0.64L5845.51,227.19z"/>
		<path fill="#FFFFFF" d="M5853.11,228.53c0-0.35-0.12-0.63-0.37-0.84c-0.25-0.21-0.71-0.4-1.37-0.59
			c-0.66-0.19-1.15-0.39-1.45-0.61c-0.43-0.31-0.65-0.72-0.65-1.22c0-0.49,0.2-0.89,0.6-1.19c0.4-0.31,0.92-0.46,1.54-0.46
			c0.42,0,0.8,0.08,1.14,0.25c0.34,0.16,0.6,0.39,0.78,0.69s0.28,0.62,0.28,0.98h-0.54c0-0.44-0.15-0.79-0.45-1.06s-0.7-0.4-1.2-0.4
			c-0.49,0-0.88,0.11-1.17,0.33c-0.29,0.22-0.43,0.5-0.43,0.86c0,0.33,0.13,0.59,0.39,0.8c0.26,0.21,0.68,0.39,1.25,0.54
			c0.57,0.16,1.01,0.32,1.3,0.49s0.52,0.37,0.67,0.6c0.15,0.23,0.22,0.51,0.22,0.83c0,0.5-0.2,0.91-0.6,1.21
			c-0.4,0.3-0.93,0.46-1.59,0.46c-0.45,0-0.87-0.08-1.24-0.24c-0.38-0.16-0.66-0.39-0.86-0.68c-0.19-0.29-0.29-0.62-0.29-1h0.54
			c0,0.45,0.17,0.81,0.5,1.07s0.79,0.39,1.34,0.39c0.5,0,0.9-0.11,1.2-0.33S5853.11,228.89,5853.11,228.53z"/>
		<path fill="#FFFFFF" d="M5856.02,230.1h-0.54v-6.4h0.54V230.1z"/>
		<path fill="#FFFFFF" d="M5861.92,228.53c0-0.35-0.12-0.63-0.37-0.84c-0.25-0.21-0.71-0.4-1.37-0.59
			c-0.66-0.19-1.15-0.39-1.45-0.61c-0.43-0.31-0.65-0.72-0.65-1.22c0-0.49,0.2-0.89,0.6-1.19c0.4-0.31,0.92-0.46,1.54-0.46
			c0.42,0,0.8,0.08,1.14,0.25c0.34,0.16,0.6,0.39,0.78,0.69s0.28,0.62,0.28,0.98h-0.54c0-0.44-0.15-0.79-0.45-1.06s-0.7-0.4-1.2-0.4
			c-0.49,0-0.88,0.11-1.17,0.33c-0.29,0.22-0.43,0.5-0.43,0.86c0,0.33,0.13,0.59,0.39,0.8c0.26,0.21,0.68,0.39,1.25,0.54
			c0.57,0.16,1.01,0.32,1.3,0.49s0.52,0.37,0.67,0.6c0.15,0.23,0.22,0.51,0.22,0.83c0,0.5-0.2,0.91-0.6,1.21
			c-0.4,0.3-0.93,0.46-1.59,0.46c-0.45,0-0.87-0.08-1.24-0.24c-0.38-0.16-0.66-0.39-0.86-0.68c-0.19-0.29-0.29-0.62-0.29-1h0.54
			c0,0.45,0.17,0.81,0.5,1.07s0.79,0.39,1.34,0.39c0.5,0,0.9-0.11,1.2-0.33S5861.92,228.89,5861.92,228.53z"/>
		<path fill="#FFFFFF" d="M5871.62,227.25c0,0.59-0.1,1.11-0.31,1.55c-0.2,0.45-0.49,0.79-0.87,1.03s-0.81,0.36-1.31,0.36
			c-0.75,0-1.35-0.27-1.81-0.8s-0.69-1.26-0.69-2.16v-0.66c0-0.58,0.1-1.1,0.31-1.55c0.21-0.45,0.5-0.79,0.88-1.04
			c0.38-0.24,0.81-0.36,1.3-0.36s0.93,0.12,1.3,0.36c0.38,0.24,0.67,0.57,0.87,1.01c0.2,0.43,0.31,0.94,0.32,1.51V227.25z
			 M5871.08,226.56c0-0.77-0.17-1.37-0.52-1.81s-0.83-0.65-1.43-0.65c-0.59,0-1.07,0.22-1.42,0.66c-0.35,0.44-0.53,1.05-0.53,1.83
			v0.67c0,0.76,0.18,1.36,0.53,1.8c0.35,0.44,0.83,0.67,1.43,0.67c0.61,0,1.09-0.22,1.43-0.66s0.51-1.05,0.51-1.83V226.56z"/>
		<path fill="#FFFFFF" d="M5877.05,227.11h-2.98v2.99h-0.54v-6.4h3.96v0.46h-3.42v2.49h2.98V227.11z"/>
		<path fill="#FFFFFF" d="M5882.51,230.1h-0.54v-6.4h0.54V230.1z"/>
		<path fill="#FFFFFF" d="M5889.55,230.1h-0.54l-3.68-5.48v5.48h-0.54v-6.4h0.54l3.68,5.48v-5.48h0.54V230.1z"/>
		<path fill="#FFFFFF" d="M5895.93,224.16h-2.19v5.94h-0.54v-5.94h-2.19v-0.46h4.92V224.16z"/>
		<path fill="#FFFFFF" d="M5901.04,227.04h-2.99v2.61h3.44v0.46h-3.98v-6.4h3.96v0.46h-3.42v2.42h2.99V227.04z"/>
		<path fill="#FFFFFF" d="M5905.55,227.44h-1.86v2.67h-0.54v-6.4h2.08c0.68,0,1.22,0.17,1.6,0.5s0.58,0.79,0.58,1.39
			c0,0.41-0.12,0.77-0.36,1.08c-0.24,0.31-0.56,0.53-0.97,0.65l1.6,2.72v0.06h-0.58L5905.55,227.44z M5903.7,226.98h1.66
			c0.45,0,0.82-0.13,1.09-0.39c0.27-0.26,0.41-0.59,0.41-1c0-0.45-0.14-0.8-0.43-1.05c-0.29-0.25-0.69-0.37-1.21-0.37h-1.53V226.98z
			"/>
		<path fill="#FFFFFF" d="M5910.93,227.5h-2.11v-0.44h2.11V227.5z"/>
		<path fill="#FFFFFF" d="M5916.15,228.53c0-0.35-0.12-0.63-0.37-0.84c-0.25-0.21-0.71-0.4-1.37-0.59
			c-0.66-0.19-1.15-0.39-1.45-0.61c-0.43-0.31-0.65-0.72-0.65-1.22c0-0.49,0.2-0.89,0.6-1.19c0.4-0.31,0.92-0.46,1.54-0.46
			c0.42,0,0.8,0.08,1.14,0.25c0.34,0.16,0.6,0.39,0.78,0.69s0.28,0.62,0.28,0.98h-0.54c0-0.44-0.15-0.79-0.45-1.06s-0.7-0.4-1.2-0.4
			c-0.49,0-0.88,0.11-1.17,0.33c-0.29,0.22-0.43,0.5-0.43,0.86c0,0.33,0.13,0.59,0.39,0.8c0.26,0.21,0.68,0.39,1.25,0.54
			c0.57,0.16,1.01,0.32,1.3,0.49s0.52,0.37,0.67,0.6c0.15,0.23,0.22,0.51,0.22,0.83c0,0.5-0.2,0.91-0.6,1.21
			c-0.4,0.3-0.93,0.46-1.59,0.46c-0.45,0-0.87-0.08-1.24-0.24c-0.38-0.16-0.66-0.39-0.86-0.68c-0.19-0.29-0.29-0.62-0.29-1h0.54
			c0,0.45,0.17,0.81,0.5,1.07s0.79,0.39,1.34,0.39c0.5,0,0.9-0.11,1.2-0.33S5916.15,228.89,5916.15,228.53z"/>
		<path fill="#FFFFFF" d="M5922.75,224.16h-2.19v5.94h-0.54v-5.94h-2.19v-0.46h4.92V224.16z"/>
		<path fill="#FFFFFF" d="M5927.43,228.31h-2.91l-0.66,1.8h-0.57l2.42-6.4h0.51l2.42,6.4h-0.56L5927.43,228.31z M5924.69,227.85
			h2.57l-1.28-3.48L5924.69,227.85z"/>
		<path fill="#FFFFFF" d="M5933.91,224.16h-2.19v5.94h-0.54v-5.94h-2.19v-0.46h4.92V224.16z"/>
		<path fill="#FFFFFF" d="M5939.01,227.04h-2.99v2.61h3.44v0.46h-3.98v-6.4h3.96v0.46h-3.42v2.42h2.99V227.04z"/>
		<path fill="#FFFFFF" d="M5945.8,229.31l0.04,0.14l0.04-0.14l2.01-5.61h0.59l-2.38,6.4h-0.52l-2.38-6.4h0.59L5945.8,229.31z"/>
		<path fill="#FFFFFF" d="M5950.62,230.1h-0.54v-6.4h0.54V230.1z"/>
		<path fill="#FFFFFF" d="M5955.28,227.44h-1.86v2.67h-0.54v-6.4h2.08c0.68,0,1.22,0.17,1.6,0.5s0.58,0.79,0.58,1.39
			c0,0.41-0.12,0.77-0.36,1.08c-0.24,0.31-0.56,0.53-0.97,0.65l1.6,2.72v0.06h-0.58L5955.28,227.44z M5953.42,226.98h1.66
			c0.45,0,0.82-0.13,1.09-0.39c0.27-0.26,0.41-0.59,0.41-1c0-0.45-0.14-0.8-0.43-1.05c-0.29-0.25-0.69-0.37-1.21-0.37h-1.53V226.98z
			"/>
		<path fill="#FFFFFF" d="M5963.14,224.16h-2.19v5.94h-0.54v-5.94h-2.19v-0.46h4.92V224.16z"/>
		<path fill="#FFFFFF" d="M5969.12,223.7v4.37c0,0.43-0.1,0.81-0.29,1.12s-0.45,0.56-0.79,0.74c-0.34,0.17-0.73,0.26-1.18,0.26
			c-0.67,0-1.21-0.18-1.62-0.55c-0.41-0.37-0.62-0.88-0.63-1.53v-4.41h0.54v4.33c0,0.54,0.15,0.96,0.46,1.25
			c0.31,0.3,0.73,0.45,1.25,0.45s0.94-0.15,1.25-0.45c0.31-0.3,0.46-0.71,0.46-1.25v-4.33H5969.12z"/>
		<path fill="#FFFFFF" d="M5974.52,228.31h-2.91l-0.66,1.8h-0.57l2.42-6.4h0.51l2.42,6.4h-0.56L5974.52,228.31z M5971.78,227.85
			h2.57l-1.28-3.48L5971.78,227.85z"/>
		<path fill="#FFFFFF" d="M5977.77,229.65h3.16v0.46h-3.71v-6.4h0.54V229.65z"/>
		<path fill="#FFFFFF" d="M5986.42,228.38l0.2,0.99l0.24-0.95l1.39-4.72h0.49l1.37,4.72l0.24,0.96l0.21-1l1.16-4.67h0.55l-1.64,6.4
			h-0.52l-1.45-5.01l-0.16-0.63l-0.16,0.63l-1.48,5.01h-0.52l-1.63-6.4h0.55L5986.42,228.38z"/>
		<path fill="#FFFFFF" d="M5997.11,228.31h-2.91l-0.66,1.8h-0.57l2.42-6.4h0.51l2.42,6.4h-0.56L5997.11,228.31z M5994.38,227.85
			h2.57l-1.28-3.48L5994.38,227.85z"/>
		<path fill="#FFFFFF" d="M6003.59,224.16h-2.19v5.94h-0.54v-5.94h-2.19v-0.46h4.92V224.16z"/>
		<path fill="#FFFFFF" d="M6008.7,227.04h-2.99v2.61h3.44v0.46h-3.98v-6.4h3.96v0.46h-3.42v2.42h2.99V227.04z"/>
		<path fill="#FFFFFF" d="M6013.22,227.44h-1.86v2.67h-0.54v-6.4h2.08c0.68,0,1.22,0.17,1.6,0.5s0.58,0.79,0.58,1.39
			c0,0.41-0.12,0.77-0.36,1.08c-0.24,0.31-0.56,0.53-0.97,0.65l1.6,2.72v0.06h-0.58L6013.22,227.44z M6011.36,226.98h1.66
			c0.45,0,0.82-0.13,1.09-0.39c0.27-0.26,0.41-0.59,0.41-1c0-0.45-0.14-0.8-0.43-1.05c-0.29-0.25-0.69-0.37-1.21-0.37h-1.53V226.98z
			"/>
		<path fill="#FFFFFF" d="M5811.56,234.93h-2.19v5.94h-0.54v-5.94h-2.19v-0.46h4.92V234.93z"/>
		<path fill="#FFFFFF" d="M5815.52,238.21h-1.86v2.67h-0.54v-6.4h2.08c0.68,0,1.22,0.17,1.6,0.5s0.58,0.79,0.58,1.39
			c0,0.41-0.12,0.77-0.36,1.08c-0.24,0.31-0.56,0.53-0.97,0.65l1.6,2.72v0.06h-0.58L5815.52,238.21z M5813.66,237.75h1.66
			c0.45,0,0.82-0.13,1.09-0.39c0.27-0.26,0.41-0.59,0.41-1c0-0.45-0.14-0.8-0.43-1.05c-0.29-0.25-0.69-0.37-1.21-0.37h-1.53V237.75z
			"/>
		<path fill="#FFFFFF" d="M5822.84,239.08h-2.91l-0.66,1.8h-0.57l2.42-6.4h0.51l2.42,6.4h-0.56L5822.84,239.08z M5820.1,238.62h2.57
			l-1.28-3.48L5820.1,238.62z"/>
		<path fill="#FFFFFF" d="M5825.55,240.87v-6.4h1.79c0.52,0,0.99,0.12,1.41,0.36s0.74,0.58,0.97,1.03c0.23,0.45,0.35,0.95,0.35,1.52
			v0.59c0,0.57-0.12,1.08-0.35,1.52s-0.56,0.78-0.98,1.02c-0.42,0.24-0.9,0.36-1.45,0.36H5825.55z M5826.09,234.93v5.48h1.21
			c0.67,0,1.21-0.22,1.62-0.67c0.41-0.45,0.61-1.05,0.61-1.81v-0.56c0-0.74-0.2-1.33-0.6-1.77s-0.93-0.67-1.59-0.67H5826.09z"/>
		<path fill="#FFFFFF" d="M5835.51,237.81h-2.99v2.61h3.44v0.46h-3.98v-6.4h3.96v0.46h-3.42v2.42h2.99V237.81z"/>
		<path fill="#FFFFFF" d="M5841.03,240.87h-0.54v-6.4h0.54V240.87z"/>
		<path fill="#FFFFFF" d="M5848.07,240.87h-0.54l-3.68-5.48v5.48h-0.54v-6.4h0.54l3.68,5.48v-5.48h0.54V240.87z"/>
		<path fill="#FFFFFF" d="M5857.13,234.93h-2.19v5.94h-0.54v-5.94h-2.19v-0.46h4.92V234.93z"/>
		<path fill="#FFFFFF" d="M5863.44,240.87h-0.54v-3.07h-3.66v3.07h-0.54v-6.4h0.54v2.87h3.66v-2.87h0.54V240.87z"/>
		<path fill="#FFFFFF" d="M5869.14,237.81h-2.99v2.61h3.44v0.46h-3.98v-6.4h3.96v0.46h-3.42v2.42h2.99V237.81z"/>
		<path fill="#FFFFFF" d="M5878.52,238.88c-0.07,0.67-0.31,1.19-0.72,1.55c-0.41,0.36-0.95,0.54-1.63,0.54
			c-0.47,0-0.89-0.12-1.26-0.36c-0.36-0.24-0.65-0.57-0.85-1.01c-0.2-0.44-0.3-0.93-0.3-1.49v-0.83c0-0.57,0.1-1.07,0.3-1.51
			c0.2-0.44,0.49-0.78,0.86-1.02c0.37-0.24,0.8-0.36,1.29-0.36c0.69,0,1.23,0.18,1.62,0.55c0.4,0.37,0.63,0.88,0.69,1.53h-0.54
			c-0.14-1.09-0.73-1.63-1.77-1.63c-0.58,0-1.04,0.22-1.39,0.65c-0.34,0.43-0.52,1.03-0.52,1.8v0.78c0,0.74,0.17,1.33,0.5,1.77
			c0.33,0.44,0.79,0.66,1.36,0.66c0.56,0,0.99-0.14,1.28-0.41s0.46-0.68,0.53-1.22H5878.52z"/>
		<path fill="#FFFFFF" d="M5885.11,238.02c0,0.59-0.1,1.11-0.31,1.55c-0.2,0.45-0.49,0.79-0.87,1.03s-0.81,0.36-1.31,0.36
			c-0.75,0-1.35-0.27-1.81-0.8s-0.69-1.26-0.69-2.16v-0.66c0-0.58,0.1-1.1,0.31-1.55c0.21-0.45,0.5-0.79,0.88-1.04
			c0.38-0.24,0.81-0.36,1.3-0.36s0.93,0.12,1.3,0.36c0.38,0.24,0.67,0.57,0.87,1.01c0.2,0.43,0.31,0.94,0.32,1.51V238.02z
			 M5884.57,237.33c0-0.77-0.17-1.37-0.52-1.81s-0.83-0.65-1.43-0.65c-0.59,0-1.07,0.22-1.42,0.66c-0.35,0.44-0.53,1.05-0.53,1.83
			v0.67c0,0.76,0.18,1.36,0.53,1.8c0.35,0.44,0.83,0.67,1.43,0.67c0.61,0,1.09-0.22,1.43-0.66s0.51-1.05,0.51-1.83V237.33z"/>
		<path fill="#FFFFFF" d="M5891.77,240.87h-0.54l-3.68-5.48v5.48h-0.54v-6.4h0.54l3.68,5.48v-5.48h0.54V240.87z"/>
		<path fill="#FFFFFF" d="M5898.15,234.93h-2.19v5.94h-0.54v-5.94h-2.19v-0.46h4.92V234.93z"/>
		<path fill="#FFFFFF" d="M5903.26,237.81h-2.99v2.61h3.44v0.46h-3.98v-6.4h3.96v0.46h-3.42v2.42h2.99V237.81z"/>
		<path fill="#FFFFFF" d="M5907.33,237.18l1.8-2.71h0.65l-2.12,3.16l2.18,3.24h-0.65l-1.86-2.79l-1.87,2.79h-0.64l2.19-3.24
			l-2.12-3.16h0.65L5907.33,237.18z"/>
		<path fill="#FFFFFF" d="M5915.77,234.93h-2.19v5.94h-0.54v-5.94h-2.19v-0.46h4.92V234.93z"/>
		<path fill="#FFFFFF" d="M5924.63,238.02c0,0.59-0.1,1.11-0.31,1.55c-0.2,0.45-0.49,0.79-0.87,1.03s-0.81,0.36-1.31,0.36
			c-0.75,0-1.35-0.27-1.81-0.8s-0.69-1.26-0.69-2.16v-0.66c0-0.58,0.1-1.1,0.31-1.55c0.21-0.45,0.5-0.79,0.88-1.04
			c0.38-0.24,0.81-0.36,1.3-0.36s0.93,0.12,1.3,0.36c0.38,0.24,0.67,0.57,0.87,1.01c0.2,0.43,0.31,0.94,0.32,1.51V238.02z
			 M5924.09,237.33c0-0.77-0.17-1.37-0.52-1.81s-0.83-0.65-1.43-0.65c-0.59,0-1.07,0.22-1.42,0.66c-0.35,0.44-0.53,1.05-0.53,1.83
			v0.67c0,0.76,0.18,1.36,0.53,1.8c0.35,0.44,0.83,0.67,1.43,0.67c0.61,0,1.09-0.22,1.43-0.66s0.51-1.05,0.51-1.83V237.33z"/>
		<path fill="#FFFFFF" d="M5930.05,237.88h-2.98v2.99h-0.54v-6.4h3.96v0.46h-3.42v2.49h2.98V237.88z"/>
		<path fill="#FFFFFF" d="M5935.52,240.87h-0.54v-6.4h0.54V240.87z"/>
		<path fill="#FFFFFF" d="M5942.56,240.87h-0.54l-3.68-5.48v5.48h-0.54v-6.4h0.54l3.68,5.48v-5.48h0.54V240.87z"/>
		<path fill="#FFFFFF" d="M5944.73,240.87v-6.4h1.79c0.52,0,0.99,0.12,1.41,0.36s0.74,0.58,0.97,1.03c0.23,0.45,0.35,0.95,0.35,1.52
			v0.59c0,0.57-0.12,1.08-0.35,1.52s-0.56,0.78-0.98,1.02c-0.42,0.24-0.9,0.36-1.45,0.36H5944.73z M5945.27,234.93v5.48h1.21
			c0.67,0,1.21-0.22,1.62-0.67c0.41-0.45,0.61-1.05,0.61-1.81v-0.56c0-0.74-0.2-1.33-0.6-1.77s-0.93-0.67-1.59-0.67H5945.27z"/>
		<path fill="#FFFFFF" d="M5951.82,240.87h-0.54v-6.4h0.54V240.87z"/>
		<path fill="#FFFFFF" d="M5957.63,239.08h-2.91l-0.66,1.8h-0.57l2.42-6.4h0.51l2.42,6.4h-0.56L5957.63,239.08z M5954.89,238.62
			h2.57l-1.28-3.48L5954.89,238.62z"/>
		<path fill="#FFFFFF" d="M5959.58,236.05l-0.31-0.23c0.26-0.35,0.4-0.73,0.41-1.12v-0.58h0.52v0.44
			C5960.2,235.18,5959.99,235.67,5959.58,236.05z"/>
		<path fill="#FFFFFF" d="M5965.57,239.3c0-0.35-0.12-0.63-0.37-0.84c-0.25-0.21-0.71-0.4-1.37-0.59c-0.66-0.19-1.15-0.39-1.45-0.61
			c-0.43-0.31-0.65-0.72-0.65-1.22c0-0.49,0.2-0.89,0.6-1.19c0.4-0.31,0.92-0.46,1.54-0.46c0.42,0,0.8,0.08,1.14,0.25
			c0.34,0.16,0.6,0.39,0.78,0.69s0.28,0.62,0.28,0.98h-0.54c0-0.44-0.15-0.79-0.45-1.06s-0.7-0.4-1.2-0.4
			c-0.49,0-0.88,0.11-1.17,0.33c-0.29,0.22-0.43,0.5-0.43,0.86c0,0.33,0.13,0.59,0.39,0.8c0.26,0.21,0.68,0.39,1.25,0.54
			c0.57,0.16,1.01,0.32,1.3,0.49s0.52,0.37,0.67,0.6c0.15,0.23,0.22,0.51,0.22,0.83c0,0.5-0.2,0.91-0.6,1.21
			c-0.4,0.3-0.93,0.46-1.59,0.46c-0.45,0-0.87-0.08-1.24-0.24c-0.38-0.16-0.66-0.39-0.86-0.68c-0.19-0.29-0.29-0.62-0.29-1h0.54
			c0,0.45,0.17,0.81,0.5,1.07s0.79,0.39,1.34,0.39c0.5,0,0.9-0.11,1.2-0.33S5965.57,239.67,5965.57,239.3z"/>
		<path fill="#FFFFFF" d="M5975.31,240.87h-0.54l-3.68-5.48v5.48h-0.54v-6.4h0.54l3.68,5.48v-5.48h0.54V240.87z"/>
		<path fill="#FFFFFF" d="M5981.01,239.08h-2.91l-0.66,1.8h-0.57l2.42-6.4h0.51l2.42,6.4h-0.56L5981.01,239.08z M5978.27,238.62
			h2.57l-1.28-3.48L5978.27,238.62z"/>
		<path fill="#FFFFFF" d="M5987.49,234.93h-2.19v5.94h-0.54v-5.94h-2.19v-0.46h4.92V234.93z"/>
		<path fill="#FFFFFF" d="M5989.72,240.87h-0.54v-6.4h0.54V240.87z"/>
		<path fill="#FFFFFF" d="M5996.73,238.02c0,0.59-0.1,1.11-0.31,1.55c-0.2,0.45-0.49,0.79-0.87,1.03s-0.81,0.36-1.31,0.36
			c-0.75,0-1.35-0.27-1.81-0.8s-0.69-1.26-0.69-2.16v-0.66c0-0.58,0.1-1.1,0.31-1.55c0.21-0.45,0.5-0.79,0.88-1.04
			c0.38-0.24,0.81-0.36,1.3-0.36s0.93,0.12,1.3,0.36c0.38,0.24,0.67,0.57,0.87,1.01c0.2,0.43,0.31,0.94,0.32,1.51V238.02z
			 M5996.19,237.33c0-0.77-0.17-1.37-0.52-1.81s-0.83-0.65-1.43-0.65c-0.59,0-1.07,0.22-1.42,0.66c-0.35,0.44-0.53,1.05-0.53,1.83
			v0.67c0,0.76,0.18,1.36,0.53,1.8c0.35,0.44,0.83,0.67,1.43,0.67c0.61,0,1.09-0.22,1.43-0.66s0.51-1.05,0.51-1.83V237.33z"/>
		<path fill="#FFFFFF" d="M6003.39,240.87h-0.54l-3.68-5.48v5.48h-0.54v-6.4h0.54l3.68,5.48v-5.48h0.54V240.87z"/>
		<path fill="#FFFFFF" d="M6009.09,239.08h-2.91l-0.66,1.8h-0.57l2.42-6.4h0.51l2.42,6.4h-0.56L6009.09,239.08z M6006.35,238.62
			h2.57l-1.28-3.48L6006.35,238.62z"/>
		<path fill="#FFFFFF" d="M6012.34,240.42h3.16v0.46h-3.71v-6.4h0.54V240.42z"/>
		<path fill="#FFFFFF" d="M5848.24,248.98h-1.86v2.67h-0.54v-6.4h2.08c0.68,0,1.22,0.17,1.6,0.5s0.58,0.79,0.58,1.39
			c0,0.41-0.12,0.77-0.36,1.08c-0.24,0.31-0.56,0.53-0.97,0.65l1.6,2.72v0.06h-0.58L5848.24,248.98z M5846.38,248.52h1.66
			c0.45,0,0.82-0.13,1.09-0.39c0.27-0.26,0.41-0.59,0.41-1c0-0.45-0.14-0.8-0.43-1.05c-0.29-0.25-0.69-0.37-1.21-0.37h-1.53V248.52z
			"/>
		<path fill="#FFFFFF" d="M5852.77,251.65h-0.54v-6.4h0.54V251.65z"/>
		<path fill="#FFFFFF" d="M5856.97,250.86l0.04,0.14l0.04-0.14l2.01-5.61h0.59l-2.38,6.4h-0.52l-2.38-6.4h0.59L5856.97,250.86z"/>
		<path fill="#FFFFFF" d="M5864.67,248.58h-2.99v2.61h3.44v0.46h-3.98v-6.4h3.96v0.46h-3.42v2.42h2.99V248.58z"/>
		<path fill="#FFFFFF" d="M5869.18,248.98h-1.86v2.67h-0.54v-6.4h2.08c0.68,0,1.22,0.17,1.6,0.5s0.58,0.79,0.58,1.39
			c0,0.41-0.12,0.77-0.36,1.08c-0.24,0.31-0.56,0.53-0.97,0.65l1.6,2.72v0.06h-0.58L5869.18,248.98z M5867.32,248.52h1.66
			c0.45,0,0.82-0.13,1.09-0.39c0.27-0.26,0.41-0.59,0.41-1c0-0.45-0.14-0.8-0.43-1.05c-0.29-0.25-0.69-0.37-1.21-0.37h-1.53V248.52z
			"/>
		<path fill="#FFFFFF" d="M5876.32,251.19h3.16v0.46h-3.71v-6.4h0.54V251.19z"/>
		<path fill="#FFFFFF" d="M5881.71,251.65h-0.54v-6.4h0.54V251.65z"/>
		<path fill="#FFFFFF" d="M5888.75,251.65h-0.54l-3.68-5.48v5.48h-0.54v-6.4h0.54l3.68,5.48v-5.48h0.54V251.65z"/>
		<path fill="#FFFFFF" d="M5892.36,248.47l-0.9,0.89v2.29h-0.54v-6.4h0.54v3.45l3.28-3.45h0.68l-2.68,2.85l2.89,3.55h-0.66
			L5892.36,248.47z"/>
		<path fill="#FFFFFF" d="M5897.79,251.65h-0.54v-6.4h0.54V251.65z"/>
		<path fill="#FFFFFF" d="M5904.83,251.65h-0.54l-3.68-5.48v5.48h-0.54v-6.4h0.54l3.68,5.48v-5.48h0.54V251.65z"/>
		<path fill="#FFFFFF" d="M5911.62,250.89c-0.19,0.27-0.48,0.47-0.88,0.62c-0.4,0.15-0.85,0.22-1.34,0.22
			c-0.5,0-0.95-0.12-1.34-0.36s-0.69-0.58-0.9-1.02c-0.21-0.44-0.32-0.94-0.33-1.51v-0.81c0-0.89,0.22-1.59,0.67-2.1
			c0.45-0.51,1.05-0.77,1.81-0.77c0.66,0,1.19,0.17,1.59,0.5c0.4,0.34,0.64,0.8,0.72,1.39h-0.54c-0.08-0.47-0.27-0.83-0.57-1.07
			c-0.3-0.24-0.7-0.36-1.19-0.36c-0.6,0-1.07,0.21-1.42,0.64c-0.35,0.43-0.52,1.02-0.52,1.8v0.76c0,0.49,0.08,0.92,0.25,1.29
			c0.17,0.37,0.4,0.66,0.71,0.87c0.31,0.21,0.66,0.31,1.07,0.31c0.47,0,0.87-0.07,1.2-0.22c0.22-0.1,0.38-0.21,0.48-0.34v-1.65
			h-1.72v-0.46h2.26V250.89z"/>
		<path fill="#FFFFFF" d="M5916.96,249.04v2.61h-0.54v-6.4h2.18c0.67,0,1.19,0.17,1.58,0.51c0.39,0.34,0.58,0.81,0.58,1.4
			c0,0.6-0.19,1.06-0.56,1.39c-0.37,0.33-0.91,0.49-1.61,0.49H5916.96z M5916.96,248.58h1.64c0.52,0,0.92-0.12,1.2-0.37
			s0.41-0.6,0.41-1.04c0-0.44-0.14-0.8-0.41-1.06c-0.27-0.26-0.66-0.4-1.17-0.4h-1.67V248.58z"/>
		<path fill="#FFFFFF" d="M5924.89,248.98h-1.86v2.67h-0.54v-6.4h2.08c0.68,0,1.22,0.17,1.6,0.5s0.58,0.79,0.58,1.39
			c0,0.41-0.12,0.77-0.36,1.08c-0.24,0.31-0.56,0.53-0.97,0.65l1.6,2.72v0.06h-0.58L5924.89,248.98z M5923.03,248.52h1.66
			c0.45,0,0.82-0.13,1.09-0.39c0.27-0.26,0.41-0.59,0.41-1c0-0.45-0.14-0.8-0.43-1.05c-0.29-0.25-0.69-0.37-1.21-0.37h-1.53V248.52z
			"/>
		<path fill="#FFFFFF" d="M5933.48,248.79c0,0.59-0.1,1.11-0.31,1.55c-0.2,0.45-0.49,0.79-0.87,1.03s-0.81,0.36-1.31,0.36
			c-0.75,0-1.35-0.27-1.81-0.8s-0.69-1.26-0.69-2.16v-0.66c0-0.58,0.1-1.1,0.31-1.55c0.21-0.45,0.5-0.79,0.88-1.04
			c0.38-0.24,0.81-0.36,1.3-0.36s0.93,0.12,1.3,0.36c0.38,0.24,0.67,0.57,0.87,1.01c0.2,0.43,0.31,0.94,0.32,1.51V248.79z
			 M5932.94,248.1c0-0.77-0.17-1.37-0.52-1.81s-0.83-0.65-1.43-0.65c-0.59,0-1.07,0.22-1.42,0.66c-0.35,0.44-0.53,1.05-0.53,1.83
			v0.67c0,0.76,0.18,1.36,0.53,1.8c0.35,0.44,0.83,0.67,1.43,0.67c0.61,0,1.09-0.22,1.43-0.66s0.51-1.05,0.51-1.83V248.1z"/>
		<path fill="#FFFFFF" d="M5940,250.89c-0.19,0.27-0.48,0.47-0.88,0.62c-0.4,0.15-0.85,0.22-1.34,0.22c-0.5,0-0.95-0.12-1.34-0.36
			s-0.69-0.58-0.9-1.02c-0.21-0.44-0.32-0.94-0.33-1.51v-0.81c0-0.89,0.22-1.59,0.67-2.1c0.45-0.51,1.05-0.77,1.81-0.77
			c0.66,0,1.19,0.17,1.59,0.5c0.4,0.34,0.64,0.8,0.72,1.39h-0.54c-0.08-0.47-0.27-0.83-0.57-1.07c-0.3-0.24-0.7-0.36-1.19-0.36
			c-0.6,0-1.07,0.21-1.42,0.64c-0.35,0.43-0.52,1.02-0.52,1.8v0.76c0,0.49,0.08,0.92,0.25,1.29c0.17,0.37,0.4,0.66,0.71,0.87
			c0.31,0.21,0.66,0.31,1.07,0.31c0.47,0,0.87-0.07,1.2-0.22c0.22-0.1,0.38-0.21,0.48-0.34v-1.65h-1.72v-0.46h2.26V250.89z"/>
		<path fill="#FFFFFF" d="M5944.47,248.98h-1.86v2.67h-0.54v-6.4h2.08c0.68,0,1.22,0.17,1.6,0.5s0.58,0.79,0.58,1.39
			c0,0.41-0.12,0.77-0.36,1.08c-0.24,0.31-0.56,0.53-0.97,0.65l1.6,2.72v0.06h-0.58L5944.47,248.98z M5942.61,248.52h1.66
			c0.45,0,0.82-0.13,1.09-0.39c0.27-0.26,0.41-0.59,0.41-1c0-0.45-0.14-0.8-0.43-1.05c-0.29-0.25-0.69-0.37-1.21-0.37h-1.53V248.52z
			"/>
		<path fill="#FFFFFF" d="M5951.79,249.85h-2.91l-0.66,1.8h-0.57l2.42-6.4h0.51l2.42,6.4h-0.56L5951.79,249.85z M5949.05,249.39
			h2.57l-1.28-3.48L5949.05,249.39z"/>
		<path fill="#FFFFFF" d="M5955.21,245.25l2.36,5.65l2.37-5.65h0.72v6.4h-0.54v-2.79l0.04-2.86l-2.38,5.64h-0.42l-2.37-5.62
			l0.04,2.82v2.8h-0.54v-6.4H5955.21z"/>
		<path fill="#FFFFFF" d="M5962.65,251.33c0-0.1,0.03-0.19,0.1-0.26c0.07-0.07,0.16-0.11,0.27-0.11s0.21,0.04,0.28,0.11
			c0.07,0.07,0.1,0.16,0.1,0.26s-0.03,0.19-0.1,0.25c-0.07,0.07-0.16,0.1-0.28,0.1s-0.21-0.03-0.27-0.1
			C5962.68,251.52,5962.65,251.43,5962.65,251.33z"/>
		<path fill="#FFFFFF" d="M5970.11,248.74l1.96-3.49h0.62l-2.31,3.99v2.41h-0.54v-2.41l-2.31-3.99h0.64L5970.11,248.74z"/>
		<path fill="#FFFFFF" d="M5977.7,248.58h-2.99v2.61h3.44v0.46h-3.98v-6.4h3.96v0.46h-3.42v2.42h2.99V248.58z"/>
		<path fill="#FFFFFF" d="M5983.28,249.85h-2.91l-0.66,1.8h-0.57l2.42-6.4h0.51l2.42,6.4h-0.56L5983.28,249.85z M5980.54,249.39
			h2.57l-1.28-3.48L5980.54,249.39z"/>
		<path fill="#FFFFFF" d="M5988.37,248.98h-1.86v2.67h-0.54v-6.4h2.08c0.68,0,1.22,0.17,1.6,0.5s0.58,0.79,0.58,1.39
			c0,0.41-0.12,0.77-0.36,1.08c-0.24,0.31-0.56,0.53-0.97,0.65l1.6,2.72v0.06h-0.58L5988.37,248.98z M5986.51,248.52h1.66
			c0.45,0,0.82-0.13,1.09-0.39c0.27-0.26,0.41-0.59,0.41-1c0-0.45-0.14-0.8-0.43-1.05c-0.29-0.25-0.69-0.37-1.21-0.37h-1.53V248.52z
			"/>
		<path fill="#FFFFFF" d="M5998.77,251.65h-4.01v-0.4l2.19-2.49c0.36-0.42,0.62-0.76,0.76-1.04s0.21-0.54,0.21-0.8
			c0-0.4-0.12-0.72-0.36-0.96c-0.24-0.24-0.56-0.35-0.98-0.35c-0.43,0-0.78,0.14-1.04,0.41c-0.26,0.28-0.4,0.63-0.4,1.07h-0.52
			c0-0.36,0.08-0.69,0.24-0.98c0.16-0.3,0.39-0.53,0.69-0.7c0.3-0.17,0.64-0.25,1.03-0.25c0.59,0,1.04,0.15,1.37,0.46
			c0.33,0.31,0.49,0.73,0.49,1.26c0,0.3-0.09,0.63-0.28,0.98c-0.19,0.35-0.51,0.8-0.98,1.33l-1.78,2.02h3.36V251.65z"/>
		<path fill="#FFFFFF" d="M6004.14,248.98c0,0.9-0.17,1.59-0.5,2.05c-0.33,0.47-0.82,0.7-1.46,0.7c-0.63,0-1.12-0.23-1.45-0.69
			s-0.51-1.13-0.52-2v-1.15c0-0.9,0.17-1.58,0.5-2.04s0.82-0.69,1.46-0.69c0.63,0,1.12,0.22,1.45,0.67
			c0.33,0.45,0.51,1.11,0.52,1.98V248.98z M6003.62,247.83c0-0.73-0.12-1.29-0.36-1.66c-0.24-0.38-0.6-0.56-1.08-0.56
			c-0.47,0-0.83,0.18-1.07,0.55c-0.24,0.37-0.36,0.91-0.37,1.62v1.26c0,0.73,0.12,1.29,0.37,1.67c0.25,0.39,0.61,0.58,1.08,0.58
			c0.47,0,0.82-0.19,1.07-0.57c0.24-0.38,0.36-0.93,0.37-1.66V247.83z"/>
		<path fill="#FFFFFF" d="M6009.67,248.98c0,0.9-0.17,1.59-0.5,2.05c-0.33,0.47-0.82,0.7-1.46,0.7c-0.63,0-1.12-0.23-1.45-0.69
			s-0.51-1.13-0.52-2v-1.15c0-0.9,0.17-1.58,0.5-2.04s0.82-0.69,1.46-0.69c0.63,0,1.12,0.22,1.45,0.67
			c0.33,0.45,0.51,1.11,0.52,1.98V248.98z M6009.15,247.83c0-0.73-0.12-1.29-0.36-1.66c-0.24-0.38-0.6-0.56-1.08-0.56
			c-0.47,0-0.83,0.18-1.07,0.55c-0.24,0.37-0.36,0.91-0.37,1.62v1.26c0,0.73,0.12,1.29,0.37,1.67c0.25,0.39,0.61,0.58,1.08,0.58
			c0.47,0,0.82-0.19,1.07-0.57c0.24-0.38,0.36-0.93,0.37-1.66V247.83z"/>
		<path fill="#FFFFFF" d="M6014.62,248.69c-0.19,0.28-0.42,0.49-0.7,0.64s-0.58,0.23-0.9,0.23c-0.36,0-0.68-0.09-0.96-0.28
			s-0.49-0.45-0.65-0.78s-0.23-0.69-0.23-1.09c0-0.42,0.08-0.81,0.24-1.15c0.16-0.35,0.39-0.61,0.68-0.81
			c0.29-0.19,0.63-0.29,1.01-0.29c0.64,0,1.14,0.23,1.5,0.67s0.54,1.09,0.54,1.91v0.47c0,1.15-0.25,2.02-0.74,2.6
			s-1.24,0.87-2.25,0.87h-0.1l0-0.46h0.18c0.76-0.01,1.35-0.23,1.74-0.65S6014.6,249.53,6014.62,248.69z M6013.09,249.09
			c0.35,0,0.67-0.1,0.95-0.31c0.28-0.21,0.48-0.48,0.59-0.81v-0.3c0-0.65-0.13-1.15-0.41-1.51c-0.27-0.36-0.64-0.54-1.1-0.54
			c-0.42,0-0.76,0.17-1.02,0.5s-0.4,0.76-0.4,1.26c0,0.49,0.13,0.9,0.38,1.22C6012.34,248.93,6012.68,249.09,6013.09,249.09z"/>
	</g>
</g>
<g>
	<g>
		<path fill="#FFFFFF" d="M5651.51,243.15l1.3-2.5h0.74l-1.71,3.12v1.86h-0.66v-1.86l-1.72-3.12h0.75L5651.51,243.15z"/>
		<path fill="#FFFFFF" d="M5655.24,243.77h-1.67v-0.52h1.67V243.77z"/>
		<path fill="#FFFFFF" d="M5658.14,245.63c-0.04-0.07-0.07-0.2-0.09-0.39c-0.29,0.31-0.64,0.46-1.05,0.46c-0.36,0-0.66-0.1-0.9-0.31
			c-0.23-0.21-0.35-0.47-0.35-0.78c0-0.39,0.15-0.68,0.44-0.9c0.29-0.21,0.71-0.32,1.24-0.32h0.62v-0.29c0-0.22-0.07-0.4-0.2-0.53
			c-0.13-0.13-0.33-0.2-0.58-0.2c-0.23,0-0.42,0.06-0.57,0.17s-0.23,0.25-0.23,0.41h-0.64c0-0.18,0.07-0.36,0.2-0.54
			c0.13-0.17,0.31-0.31,0.53-0.41s0.47-0.15,0.74-0.15c0.43,0,0.76,0.11,1,0.32c0.24,0.21,0.37,0.51,0.38,0.88v1.7
			c0,0.34,0.04,0.61,0.13,0.81v0.05H5658.14z M5657.09,245.15c0.2,0,0.39-0.05,0.56-0.15s0.31-0.24,0.39-0.4v-0.76h-0.5
			c-0.77,0-1.16,0.23-1.16,0.68c0,0.2,0.07,0.35,0.2,0.46S5656.88,245.15,5657.09,245.15z"/>
		<path fill="#FFFFFF" d="M5660.9,243.28l0.82-1.35h0.74l-1.21,1.83l1.25,1.87h-0.73l-0.85-1.38l-0.85,1.38h-0.73l1.25-1.87
			l-1.21-1.83h0.73L5660.9,243.28z"/>
		<path fill="#FFFFFF" d="M5663.14,240.95c0-0.1,0.03-0.19,0.09-0.26s0.16-0.11,0.28-0.11s0.22,0.04,0.28,0.11s0.1,0.16,0.1,0.26
			s-0.03,0.19-0.1,0.26s-0.16,0.1-0.28,0.1s-0.22-0.03-0.28-0.1S5663.14,241.05,5663.14,240.95z M5663.82,245.63h-0.63v-3.7h0.63
			V245.63z"/>
		<path fill="#FFFFFF" d="M5666.98,244.65c0-0.17-0.06-0.3-0.19-0.4c-0.13-0.09-0.35-0.18-0.67-0.24s-0.57-0.15-0.76-0.25
			c-0.19-0.1-0.33-0.21-0.42-0.34s-0.13-0.29-0.13-0.47c0-0.3,0.13-0.56,0.38-0.77c0.26-0.21,0.58-0.31,0.98-0.31
			c0.42,0,0.76,0.11,1.02,0.32s0.39,0.49,0.39,0.83h-0.64c0-0.17-0.07-0.32-0.22-0.45c-0.15-0.13-0.33-0.19-0.56-0.19
			c-0.23,0-0.41,0.05-0.54,0.15s-0.19,0.23-0.19,0.39c0,0.15,0.06,0.27,0.18,0.35s0.34,0.15,0.65,0.22s0.57,0.15,0.77,0.25
			s0.34,0.22,0.44,0.35c0.09,0.14,0.14,0.31,0.14,0.5c0,0.33-0.13,0.6-0.4,0.79c-0.26,0.2-0.61,0.3-1.03,0.3
			c-0.3,0-0.56-0.05-0.79-0.16s-0.41-0.25-0.54-0.44c-0.13-0.19-0.19-0.39-0.19-0.61h0.63c0.01,0.21,0.1,0.38,0.25,0.5
			c0.16,0.12,0.37,0.19,0.63,0.19c0.24,0,0.43-0.05,0.58-0.15C5666.91,244.94,5666.98,244.81,5666.98,244.65z"/>
		<path fill="#FFFFFF" d="M5668.42,245.3c0-0.11,0.03-0.2,0.1-0.27c0.06-0.07,0.16-0.11,0.29-0.11s0.23,0.04,0.3,0.11
			s0.1,0.16,0.1,0.27c0,0.1-0.03,0.19-0.1,0.26s-0.17,0.11-0.3,0.11s-0.23-0.04-0.29-0.11
			C5668.45,245.49,5668.42,245.4,5668.42,245.3z M5668.42,242.28c0-0.11,0.03-0.2,0.1-0.27c0.07-0.07,0.16-0.11,0.29-0.11
			c0.13,0,0.23,0.04,0.29,0.11s0.1,0.16,0.1,0.27c0,0.1-0.03,0.19-0.1,0.26s-0.17,0.11-0.29,0.11c-0.13,0-0.23-0.04-0.29-0.11
			C5668.46,242.47,5668.42,242.38,5668.42,242.28z"/>
		<path fill="#FFFFFF" d="M5673.61,244.76l1.42-4.1h0.72l-1.85,4.98h-0.58l-1.84-4.98h0.71L5673.61,244.76z"/>
		<path fill="#FFFFFF" d="M5676.33,240.95c0-0.1,0.03-0.19,0.09-0.26s0.16-0.11,0.28-0.11s0.22,0.04,0.28,0.11s0.1,0.16,0.1,0.26
			s-0.03,0.19-0.1,0.26s-0.16,0.1-0.28,0.1s-0.22-0.03-0.28-0.1S5676.33,241.05,5676.33,240.95z M5677.01,245.63h-0.63v-3.7h0.63
			V245.63z"/>
		<path fill="#FFFFFF" d="M5679.81,242.5c-0.1-0.02-0.2-0.02-0.31-0.02c-0.42,0-0.7,0.18-0.84,0.53v2.62h-0.63v-3.7h0.62l0.01,0.43
			c0.21-0.33,0.5-0.5,0.88-0.5c0.12,0,0.22,0.02,0.28,0.05V242.5z"/>
		<path fill="#FFFFFF" d="M5681.42,241.03v0.9h0.69v0.49h-0.69v2.3c0,0.15,0.03,0.26,0.09,0.33s0.17,0.11,0.31,0.11
			c0.07,0,0.17-0.01,0.3-0.04v0.51c-0.17,0.05-0.33,0.07-0.49,0.07c-0.28,0-0.5-0.09-0.64-0.26c-0.14-0.17-0.22-0.41-0.22-0.73
			v-2.29h-0.67v-0.49h0.67v-0.9H5681.42z"/>
		<path fill="#FFFFFF" d="M5685.13,245.26c-0.25,0.29-0.61,0.43-1.08,0.43c-0.39,0-0.69-0.11-0.9-0.34
			c-0.21-0.23-0.31-0.57-0.31-1.02v-2.41h0.63v2.39c0,0.56,0.23,0.84,0.68,0.84c0.48,0,0.8-0.18,0.96-0.54v-2.69h0.63v3.7h-0.6
			L5685.13,245.26z"/>
		<path fill="#FFFFFF" d="M5688.99,245.63c-0.04-0.07-0.07-0.2-0.09-0.39c-0.29,0.31-0.64,0.46-1.05,0.46c-0.36,0-0.66-0.1-0.9-0.31
			c-0.23-0.21-0.35-0.47-0.35-0.78c0-0.39,0.15-0.68,0.44-0.9c0.29-0.21,0.71-0.32,1.24-0.32h0.62v-0.29c0-0.22-0.07-0.4-0.2-0.53
			c-0.13-0.13-0.33-0.2-0.58-0.2c-0.23,0-0.42,0.06-0.57,0.17s-0.23,0.25-0.23,0.41h-0.64c0-0.18,0.07-0.36,0.2-0.54
			c0.13-0.17,0.31-0.31,0.53-0.41s0.47-0.15,0.74-0.15c0.43,0,0.76,0.11,1,0.32c0.24,0.21,0.37,0.51,0.38,0.88v1.7
			c0,0.34,0.04,0.61,0.13,0.81v0.05H5688.99z M5687.94,245.15c0.2,0,0.39-0.05,0.56-0.15s0.31-0.24,0.39-0.4v-0.76h-0.5
			c-0.77,0-1.16,0.23-1.16,0.68c0,0.2,0.07,0.35,0.2,0.46S5687.73,245.15,5687.94,245.15z"/>
		<path fill="#FFFFFF" d="M5691.2,245.63h-0.63v-5.25h0.63V245.63z"/>
		<path fill="#FFFFFF" d="M5695.12,244.06l0.1,0.66l0.14-0.59l0.98-3.47h0.55l0.96,3.47l0.14,0.6l0.11-0.67l0.77-3.4h0.66
			l-1.21,4.98h-0.6l-1.03-3.63l-0.08-0.38l-0.08,0.38l-1.06,3.63h-0.6l-1.2-4.98h0.66L5695.12,244.06z"/>
		<path fill="#FFFFFF" d="M5702.33,245.63c-0.04-0.07-0.07-0.2-0.09-0.39c-0.29,0.31-0.64,0.46-1.05,0.46c-0.36,0-0.66-0.1-0.9-0.31
			c-0.23-0.21-0.35-0.47-0.35-0.78c0-0.39,0.15-0.68,0.44-0.9c0.29-0.21,0.71-0.32,1.24-0.32h0.62v-0.29c0-0.22-0.07-0.4-0.2-0.53
			c-0.13-0.13-0.33-0.2-0.58-0.2c-0.23,0-0.42,0.06-0.57,0.17s-0.23,0.25-0.23,0.41h-0.64c0-0.18,0.07-0.36,0.2-0.54
			c0.13-0.17,0.31-0.31,0.53-0.41s0.47-0.15,0.74-0.15c0.43,0,0.76,0.11,1,0.32c0.24,0.21,0.37,0.51,0.38,0.88v1.7
			c0,0.34,0.04,0.61,0.13,0.81v0.05H5702.33z M5701.28,245.15c0.2,0,0.39-0.05,0.56-0.15s0.31-0.24,0.39-0.4v-0.76h-0.5
			c-0.77,0-1.16,0.23-1.16,0.68c0,0.2,0.07,0.35,0.2,0.46S5701.07,245.15,5701.28,245.15z"/>
		<path fill="#FFFFFF" d="M5704.71,241.03v0.9h0.69v0.49h-0.69v2.3c0,0.15,0.03,0.26,0.09,0.33s0.17,0.11,0.31,0.11
			c0.07,0,0.17-0.01,0.3-0.04v0.51c-0.17,0.05-0.33,0.07-0.49,0.07c-0.28,0-0.5-0.09-0.64-0.26c-0.14-0.17-0.22-0.41-0.22-0.73
			v-2.29h-0.67v-0.49h0.67v-0.9H5704.71z"/>
		<path fill="#FFFFFF" d="M5707.67,245.7c-0.5,0-0.91-0.16-1.22-0.49c-0.31-0.33-0.47-0.77-0.47-1.32v-0.12
			c0-0.37,0.07-0.69,0.21-0.98c0.14-0.29,0.34-0.51,0.59-0.68c0.25-0.16,0.52-0.24,0.82-0.24c0.48,0,0.85,0.16,1.12,0.48
			s0.4,0.77,0.4,1.36v0.26h-2.5c0.01,0.36,0.12,0.66,0.32,0.88c0.2,0.22,0.46,0.34,0.78,0.34c0.22,0,0.41-0.05,0.57-0.14
			c0.15-0.09,0.29-0.21,0.41-0.36l0.39,0.3C5708.76,245.46,5708.29,245.7,5707.67,245.7z M5707.59,242.38
			c-0.25,0-0.47,0.09-0.64,0.28c-0.17,0.19-0.28,0.45-0.32,0.78h1.85v-0.05c-0.02-0.32-0.1-0.57-0.26-0.75
			C5708.07,242.47,5707.86,242.38,5707.59,242.38z"/>
		<path fill="#FFFFFF" d="M5711.63,242.5c-0.1-0.02-0.2-0.02-0.31-0.02c-0.42,0-0.7,0.18-0.84,0.53v2.62h-0.63v-3.7h0.62l0.01,0.43
			c0.21-0.33,0.5-0.5,0.88-0.5c0.12,0,0.22,0.02,0.28,0.05V242.5z"/>
		<path fill="#FFFFFF" d="M5716.79,243.43h-2.09v2.2h-0.66v-4.98h3.08v0.54h-2.43v1.71h2.09V243.43z"/>
		<path fill="#FFFFFF" d="M5718.5,245.63h-0.63v-5.25h0.63V245.63z"/>
		<path fill="#FFFFFF" d="M5719.35,243.74c0-0.36,0.07-0.69,0.21-0.98s0.34-0.51,0.59-0.67s0.54-0.24,0.87-0.24
			c0.5,0,0.91,0.17,1.22,0.52c0.31,0.35,0.47,0.81,0.47,1.39v0.04c0,0.36-0.07,0.68-0.21,0.97c-0.14,0.29-0.33,0.51-0.59,0.67
			c-0.26,0.16-0.55,0.24-0.88,0.24c-0.5,0-0.91-0.17-1.22-0.52c-0.31-0.35-0.47-0.81-0.47-1.38V243.74z M5719.98,243.82
			c0,0.41,0.09,0.74,0.29,0.99s0.44,0.37,0.76,0.37c0.32,0,0.58-0.13,0.77-0.38c0.19-0.25,0.28-0.6,0.28-1.06
			c0-0.41-0.1-0.73-0.29-0.99c-0.19-0.25-0.45-0.38-0.77-0.38c-0.31,0-0.56,0.12-0.75,0.37S5719.98,243.36,5719.98,243.82z"/>
		<path fill="#FFFFFF" d="M5726.78,244.76l0.71-2.83h0.63l-1.08,3.7h-0.51l-0.9-2.8l-0.88,2.8h-0.51l-1.07-3.7h0.63l0.73,2.77
			l0.86-2.77h0.51L5726.78,244.76z"/>
		<path fill="#FFFFFF" d="M5653.5,249.05v3.38c0,0.47-0.15,0.85-0.44,1.15s-0.69,0.47-1.19,0.5l-0.17,0.01
			c-0.54,0-0.98-0.15-1.3-0.44s-0.49-0.7-0.49-1.21v-3.39h0.65v3.37c0,0.36,0.1,0.64,0.3,0.84c0.2,0.2,0.48,0.3,0.85,0.3
			c0.37,0,0.66-0.1,0.85-0.3s0.3-0.48,0.3-0.84v-3.37H5653.5z"/>
		<path fill="#FFFFFF" d="M5655.03,250.33l0.02,0.46c0.28-0.36,0.65-0.53,1.11-0.53c0.78,0,1.18,0.44,1.18,1.32v2.44h-0.63v-2.45
			c0-0.27-0.06-0.46-0.18-0.59c-0.12-0.13-0.31-0.19-0.56-0.19c-0.21,0-0.39,0.05-0.54,0.16c-0.15,0.11-0.28,0.25-0.36,0.43v2.64
			h-0.63v-3.7H5655.03z"/>
		<path fill="#FFFFFF" d="M5658.3,249.35c0-0.1,0.03-0.19,0.09-0.26s0.16-0.11,0.28-0.11s0.22,0.04,0.28,0.11s0.1,0.16,0.1,0.26
			s-0.03,0.19-0.1,0.26s-0.16,0.1-0.28,0.1s-0.22-0.03-0.28-0.1S5658.3,249.45,5658.3,249.35z M5658.99,254.03h-0.63v-3.7h0.63
			V254.03z"/>
		<path fill="#FFFFFF" d="M5660.86,249.43v0.9h0.69v0.49h-0.69v2.3c0,0.15,0.03,0.26,0.09,0.33s0.17,0.11,0.31,0.11
			c0.07,0,0.17-0.01,0.3-0.04v0.51c-0.17,0.05-0.33,0.07-0.49,0.07c-0.28,0-0.5-0.09-0.64-0.26c-0.14-0.17-0.22-0.41-0.22-0.73
			v-2.29h-0.67v-0.49h0.67v-0.9H5660.86z"/>
		<path fill="#FFFFFF" d="M5662.26,253.7c0-0.11,0.03-0.2,0.1-0.27c0.06-0.07,0.16-0.11,0.29-0.11s0.23,0.04,0.3,0.11
			s0.1,0.16,0.1,0.27c0,0.1-0.03,0.19-0.1,0.26s-0.17,0.11-0.3,0.11s-0.23-0.04-0.29-0.11
			C5662.3,253.89,5662.26,253.8,5662.26,253.7z M5662.27,250.68c0-0.11,0.03-0.2,0.1-0.27c0.07-0.07,0.16-0.11,0.29-0.11
			c0.13,0,0.23,0.04,0.29,0.11s0.1,0.16,0.1,0.27c0,0.1-0.03,0.19-0.1,0.26s-0.17,0.11-0.29,0.11c-0.13,0-0.23-0.04-0.29-0.11
			C5662.3,250.87,5662.27,250.78,5662.27,250.68z"/>
		<path fill="#FFFFFF" d="M5667.73,254.03h-0.64v-4.21l-1.27,0.47v-0.57l1.81-0.68h0.1V254.03z"/>
		<path fill="#FFFFFF" d="M5672.7,251.91c0,0.74-0.13,1.29-0.38,1.65c-0.25,0.36-0.65,0.54-1.19,0.54c-0.53,0-0.92-0.18-1.18-0.53
			c-0.25-0.35-0.39-0.88-0.4-1.58v-0.84c0-0.73,0.13-1.27,0.38-1.63s0.65-0.53,1.19-0.53c0.54,0,0.93,0.17,1.18,0.51
			c0.25,0.34,0.38,0.87,0.39,1.59V251.91z M5672.07,251.04c0-0.54-0.08-0.93-0.23-1.17c-0.15-0.24-0.39-0.37-0.71-0.37
			c-0.32,0-0.56,0.12-0.71,0.37c-0.15,0.24-0.22,0.62-0.23,1.12V252c0,0.54,0.08,0.93,0.23,1.19c0.16,0.26,0.39,0.38,0.71,0.38
			c0.31,0,0.54-0.12,0.7-0.36s0.23-0.62,0.24-1.14V251.04z"/>
		<path fill="#FFFFFF" d="M5674.55,249.89l-0.65,1.65h-0.59l1.02-2.48h0.43l1.02,2.48h-0.58L5674.55,249.89z"/>
		<path fill="#FFFFFF" d="M5678.86,251.84c-0.13,0.16-0.29,0.28-0.47,0.38s-0.38,0.14-0.6,0.14c-0.29,0-0.54-0.07-0.75-0.21
			s-0.38-0.34-0.49-0.6c-0.12-0.26-0.17-0.54-0.17-0.85c0-0.33,0.06-0.63,0.19-0.9c0.13-0.27,0.31-0.47,0.54-0.61
			s0.5-0.21,0.81-0.21c0.49,0,0.88,0.18,1.16,0.55c0.28,0.37,0.43,0.87,0.43,1.51v0.18c0,0.97-0.19,1.68-0.57,2.12
			c-0.38,0.45-0.96,0.67-1.73,0.69h-0.12v-0.54h0.13c0.52-0.01,0.92-0.15,1.2-0.41S5678.83,252.41,5678.86,251.84z M5677.88,251.84
			c0.21,0,0.41-0.06,0.59-0.19s0.31-0.29,0.39-0.48v-0.25c0-0.41-0.09-0.75-0.27-1.01s-0.41-0.39-0.68-0.39
			c-0.28,0-0.5,0.11-0.67,0.32c-0.17,0.21-0.25,0.49-0.25,0.84c0,0.34,0.08,0.62,0.24,0.84
			C5677.39,251.73,5677.61,251.84,5677.88,251.84z"/>
		<path fill="#FFFFFF" d="M5682.76,250.33l0.02,0.41c0.27-0.32,0.64-0.48,1.1-0.48c0.52,0,0.87,0.2,1.06,0.59
			c0.12-0.18,0.28-0.32,0.48-0.43s0.43-0.16,0.7-0.16c0.81,0,1.22,0.43,1.24,1.29v2.48h-0.63v-2.44c0-0.26-0.06-0.46-0.18-0.59
			c-0.12-0.13-0.32-0.2-0.61-0.2c-0.23,0-0.43,0.07-0.58,0.21c-0.16,0.14-0.25,0.33-0.27,0.57v2.45h-0.64v-2.42
			c0-0.54-0.26-0.81-0.79-0.81c-0.42,0-0.7,0.18-0.85,0.53v2.7h-0.63v-3.7H5682.76z"/>
		<path fill="#FFFFFF" d="M5689.28,249.89l-0.65,1.65h-0.59l1.02-2.48h0.43l1.02,2.48h-0.58L5689.28,249.89z"/>
		<path fill="#FFFFFF" d="M5692.08,251.23h0.48c0.3,0,0.53-0.08,0.7-0.24c0.17-0.15,0.26-0.36,0.26-0.62c0-0.58-0.29-0.88-0.87-0.88
			c-0.27,0-0.49,0.08-0.65,0.23c-0.16,0.16-0.24,0.36-0.24,0.62h-0.63c0-0.39,0.14-0.72,0.43-0.98c0.29-0.26,0.66-0.39,1.1-0.39
			c0.47,0,0.84,0.12,1.1,0.37s0.4,0.59,0.4,1.04c0,0.22-0.07,0.43-0.21,0.63c-0.14,0.2-0.33,0.35-0.57,0.45
			c0.27,0.09,0.48,0.23,0.63,0.43s0.22,0.45,0.22,0.73c0,0.45-0.15,0.8-0.44,1.06c-0.29,0.26-0.67,0.39-1.14,0.39
			s-0.85-0.13-1.14-0.38s-0.44-0.59-0.44-1h0.64c0,0.26,0.09,0.47,0.26,0.63c0.17,0.16,0.4,0.24,0.69,0.24
			c0.31,0,0.54-0.08,0.7-0.24c0.16-0.16,0.24-0.39,0.24-0.69c0-0.29-0.09-0.51-0.27-0.67s-0.43-0.23-0.77-0.24h-0.48V251.23z"/>
		<path fill="#FFFFFF" d="M5700.01,252.22c0,0.56-0.13,1.02-0.39,1.36c-0.26,0.34-0.61,0.52-1.05,0.52c-0.45,0-0.8-0.14-1.06-0.43
			v1.78h-0.63v-5.12h0.58l0.03,0.41c0.26-0.32,0.62-0.48,1.07-0.48c0.44,0,0.8,0.17,1.05,0.5s0.39,0.8,0.39,1.4V252.22z
			 M5699.38,252.15c0-0.42-0.09-0.75-0.27-0.99s-0.42-0.36-0.73-0.36c-0.38,0-0.67,0.17-0.86,0.51v1.77
			c0.19,0.34,0.48,0.51,0.87,0.51c0.3,0,0.54-0.12,0.72-0.36C5699.29,252.98,5699.38,252.62,5699.38,252.15z"/>
		<path fill="#FFFFFF" d="M5702.35,254.1c-0.5,0-0.91-0.16-1.22-0.49c-0.31-0.33-0.47-0.77-0.47-1.32v-0.12
			c0-0.37,0.07-0.69,0.21-0.98c0.14-0.29,0.34-0.51,0.59-0.68c0.25-0.16,0.52-0.24,0.82-0.24c0.48,0,0.85,0.16,1.12,0.48
			s0.4,0.77,0.4,1.36v0.26h-2.5c0.01,0.36,0.12,0.66,0.32,0.88c0.2,0.22,0.46,0.34,0.78,0.34c0.22,0,0.41-0.05,0.57-0.14
			c0.15-0.09,0.29-0.21,0.41-0.36l0.39,0.3C5703.43,253.86,5702.97,254.1,5702.35,254.1z M5702.27,250.78
			c-0.25,0-0.47,0.09-0.64,0.28c-0.17,0.19-0.28,0.45-0.32,0.78h1.85v-0.05c-0.02-0.32-0.1-0.57-0.26-0.75
			C5702.74,250.87,5702.54,250.78,5702.27,250.78z"/>
		<path fill="#FFFFFF" d="M5706.31,250.9c-0.1-0.02-0.2-0.02-0.31-0.02c-0.42,0-0.7,0.18-0.84,0.53v2.62h-0.63v-3.7h0.62l0.01,0.43
			c0.21-0.33,0.5-0.5,0.88-0.5c0.12,0,0.22,0.02,0.28,0.05V250.9z"/>
		<path fill="#FFFFFF" d="M5709.83,253.1l0.86-2.77h0.68l-1.49,4.27c-0.23,0.62-0.6,0.92-1.1,0.92l-0.12-0.01l-0.24-0.04v-0.51
			l0.17,0.01c0.21,0,0.38-0.04,0.5-0.13c0.12-0.09,0.22-0.25,0.29-0.48l0.14-0.38l-1.32-3.66h0.69L5709.83,253.1z"/>
		<path fill="#FFFFFF" d="M5713.43,254.1c-0.5,0-0.91-0.16-1.22-0.49c-0.31-0.33-0.47-0.77-0.47-1.32v-0.12
			c0-0.37,0.07-0.69,0.21-0.98c0.14-0.29,0.34-0.51,0.59-0.68c0.25-0.16,0.52-0.24,0.82-0.24c0.48,0,0.85,0.16,1.12,0.48
			s0.4,0.77,0.4,1.36v0.26h-2.5c0.01,0.36,0.12,0.66,0.32,0.88c0.2,0.22,0.46,0.34,0.78,0.34c0.22,0,0.41-0.05,0.57-0.14
			c0.15-0.09,0.29-0.21,0.41-0.36l0.39,0.3C5714.51,253.86,5714.05,254.1,5713.43,254.1z M5713.35,250.78
			c-0.25,0-0.47,0.09-0.64,0.28c-0.17,0.19-0.28,0.45-0.32,0.78h1.85v-0.05c-0.02-0.32-0.1-0.57-0.26-0.75
			C5713.82,250.87,5713.61,250.78,5713.35,250.78z"/>
		<path fill="#FFFFFF" d="M5717.88,254.03c-0.04-0.07-0.07-0.2-0.09-0.39c-0.29,0.31-0.64,0.46-1.05,0.46c-0.36,0-0.66-0.1-0.9-0.31
			c-0.23-0.21-0.35-0.47-0.35-0.78c0-0.39,0.15-0.68,0.44-0.9c0.29-0.21,0.71-0.32,1.24-0.32h0.62v-0.29c0-0.22-0.07-0.4-0.2-0.53
			c-0.13-0.13-0.33-0.2-0.58-0.2c-0.23,0-0.42,0.06-0.57,0.17s-0.23,0.25-0.23,0.41h-0.64c0-0.18,0.07-0.36,0.2-0.54
			c0.13-0.17,0.31-0.31,0.53-0.41s0.47-0.15,0.74-0.15c0.43,0,0.76,0.11,1,0.32c0.24,0.21,0.37,0.51,0.38,0.88v1.7
			c0,0.34,0.04,0.61,0.13,0.81v0.05H5717.88z M5716.84,253.55c0.2,0,0.39-0.05,0.56-0.15s0.31-0.24,0.39-0.4v-0.76h-0.5
			c-0.77,0-1.16,0.23-1.16,0.68c0,0.2,0.07,0.35,0.2,0.46S5716.63,253.55,5716.84,253.55z"/>
		<path fill="#FFFFFF" d="M5721.2,250.9c-0.1-0.02-0.2-0.02-0.31-0.02c-0.42,0-0.7,0.18-0.84,0.53v2.62h-0.63v-3.7h0.62l0.01,0.43
			c0.21-0.33,0.5-0.5,0.88-0.5c0.12,0,0.22,0.02,0.28,0.05V250.9z"/>
	</g>
</g>
</svg>
