<?xml version="1.0" encoding="UTF-8" standalone="no"?>
<!-- Generator: Adobe Illustrator 18.0.0, SVG Export Plug-In . SVG Version: 6.00 Build 0)  -->

<svg
   version="1.1"
   id="Baseline"
   x="0px"
   y="0px"
   width="9451.45px"
   height="623.52px"
   viewBox="0 0 9451.45 623.52"
   enable-background="new 0 0 9451.45 623.52"
   xml:space="preserve"
   sodipodi:docname="30 River Interlinking_legend-01.svg"
   inkscape:version="1.1.1 (c3084ef, 2021-09-22)"
   xmlns:inkscape="http://www.inkscape.org/namespaces/inkscape"
   xmlns:sodipodi="http://sodipodi.sourceforge.net/DTD/sodipodi-0.dtd"
   xmlns="http://www.w3.org/2000/svg"
   xmlns:svg="http://www.w3.org/2000/svg"><defs
   id="defs1467" /><sodipodi:namedview
   id="namedview1465"
   pagecolor="#505050"
   bordercolor="#eeeeee"
   borderopacity="1"
   inkscape:pageshadow="0"
   inkscape:pageopacity="0"
   inkscape:pagecheckerboard="0"
   showgrid="false"
   inkscape:zoom="0.73381781"
   inkscape:cx="5943.5733"
   inkscape:cy="491.94772"
   inkscape:window-width="1312"
   inkscape:window-height="762"
   inkscape:window-x="0"
   inkscape:window-y="25"
   inkscape:window-maximized="0"
   inkscape:current-layer="Baseline" />
<path
   fill="#b87332"
   d="m 5830.4197,442.03906 h 4.55 v -3.62 h -4.55 z m -14.37,0.56 h 4.5 v -4.18 h -4.5 z m -14.42,12.9 h 4.5 v -17.08 h -4.5 z m -14.37,16.62 h 4.5 v -33.7 h -4.5 z m -14.42,9.84 h 4.5 v -43.54 h -4.5 z m -14.42,42.08 h 4.55 v -85.62 h -4.55 z m -14.37,28.04 h 4.5 v -113.66 h -4.5 z m -14.41,52.37 h 4.5 v -166.03 h -4.5 z m -14.37,0.56 h 4.5 v -166.6 h -4.5 z"
   id="path824" />
<rect
   x="6002.98"
   y="307.77905"
   fill="#b87332"
   width="4.5500002"
   height="121.92"
   id="rect826" />
<rect
   x="5988.6099"
   y="342.03906"
   fill="#b87332"
   width="4.5"
   height="87.650002"
   id="rect828" />
<rect
   x="5974.1899"
   y="357.53906"
   fill="#b87332"
   width="4.5"
   height="72.160004"
   id="rect830" />
<rect
   x="5959.8296"
   y="391.23904"
   fill="#b87332"
   width="4.5"
   height="38.450001"
   id="rect832" />
<rect
   x="5945.4097"
   y="392.36905"
   fill="#b87332"
   width="4.5"
   height="37.32"
   id="rect834" />
<rect
   x="5930.9897"
   y="402.20905"
   fill="#b87332"
   width="4.5500002"
   height="27.48"
   id="rect836" />
<rect
   x="5916.6196"
   y="404.24905"
   fill="#b87332"
   width="4.5"
   height="25.450001"
   id="rect838" />
<rect
   x="5902.1997"
   y="405.82904"
   fill="#b87332"
   width="4.5500002"
   height="23.860001"
   id="rect840" />
<rect
   x="5887.8296"
   y="411.02905"
   fill="#b87332"
   width="4.5"
   height="18.66"
   id="rect842" />
<rect
   x="5873.4097"
   y="416.68906"
   fill="#b87332"
   width="4.5"
   height="13.01"
   id="rect844" />
<rect
   x="5859.0396"
   y="416.68906"
   fill="#b87332"
   width="4.5"
   height="13.01"
   id="rect846" />
<rect
   x="5844.6299"
   y="425.50906"
   fill="#b87332"
   width="4.5"
   height="4.1799998"
   id="rect848" />
<g
   id="g916"
   transform="translate(3.779685,3.7790551)">
	<g
   id="g914">
		<g
   id="g856">
			
				<line
   fill="none"
   stroke="#ffffff"
   stroke-width="0.75"
   stroke-linejoin="round"
   x1="5668.1499"
   y1="272.88"
   x2="5668.6499"
   y2="272.88"
   id="line850" />
			
				<line
   fill="none"
   stroke="#ffffff"
   stroke-width="0.75"
   stroke-linejoin="round"
   stroke-dasharray="0.9988, 1.9976"
   x1="5670.6401"
   y1="272.88"
   x2="6014.23"
   y2="272.88"
   id="line852" />
			
				<line
   fill="none"
   stroke="#ffffff"
   stroke-width="0.75"
   stroke-linejoin="round"
   x1="6015.23"
   y1="272.88"
   x2="6015.73"
   y2="272.88"
   id="line854" />
		</g>
		<g
   id="g864">
			
				<line
   fill="none"
   stroke="#ffffff"
   stroke-width="0.75"
   stroke-linejoin="round"
   x1="5668.1499"
   y1="311.12"
   x2="5668.6499"
   y2="311.12"
   id="line858" />
			
				<line
   fill="none"
   stroke="#ffffff"
   stroke-width="0.75"
   stroke-linejoin="round"
   stroke-dasharray="0.9988, 1.9976"
   x1="5670.6401"
   y1="311.12"
   x2="6014.23"
   y2="311.12"
   id="line860" />
			
				<line
   fill="none"
   stroke="#ffffff"
   stroke-width="0.75"
   stroke-linejoin="round"
   x1="6015.23"
   y1="311.12"
   x2="6015.73"
   y2="311.12"
   id="line862" />
		</g>
		<g
   id="g872">
			
				<line
   fill="none"
   stroke="#ffffff"
   stroke-width="0.75"
   stroke-linejoin="round"
   x1="5668.1499"
   y1="349.47"
   x2="5668.6499"
   y2="349.47"
   id="line866" />
			
				<line
   fill="none"
   stroke="#ffffff"
   stroke-width="0.75"
   stroke-linejoin="round"
   stroke-dasharray="0.9988, 1.9976"
   x1="5670.6401"
   y1="349.47"
   x2="6014.23"
   y2="349.47"
   id="line868" />
			
				<line
   fill="none"
   stroke="#ffffff"
   stroke-width="0.75"
   stroke-linejoin="round"
   x1="6015.23"
   y1="349.47"
   x2="6015.73"
   y2="349.47"
   id="line870" />
		</g>
		<g
   id="g880">
			
				<line
   fill="none"
   stroke="#ffffff"
   stroke-width="0.75"
   stroke-linejoin="round"
   x1="5668.1499"
   y1="387.82001"
   x2="5668.6499"
   y2="387.82001"
   id="line874" />
			
				<line
   fill="none"
   stroke="#ffffff"
   stroke-width="0.75"
   stroke-linejoin="round"
   stroke-dasharray="0.9988, 1.9976"
   x1="5670.6401"
   y1="387.82001"
   x2="6014.23"
   y2="387.82001"
   id="line876" />
			
				<line
   fill="none"
   stroke="#ffffff"
   stroke-width="0.75"
   stroke-linejoin="round"
   x1="6015.23"
   y1="387.82001"
   x2="6015.73"
   y2="387.82001"
   id="line878" />
		</g>
		<g
   id="g888">
			
				<line
   fill="none"
   stroke="#ffffff"
   stroke-width="0.75"
   stroke-linejoin="round"
   x1="5668.1499"
   y1="472.98999"
   x2="5668.6499"
   y2="472.98999"
   id="line882" />
			
				<line
   fill="none"
   stroke="#ffffff"
   stroke-width="0.75"
   stroke-linejoin="round"
   stroke-dasharray="0.9988, 1.9976"
   x1="5670.6401"
   y1="472.98999"
   x2="6014.23"
   y2="472.98999"
   id="line884" />
			
				<line
   fill="none"
   stroke="#ffffff"
   stroke-width="0.75"
   stroke-linejoin="round"
   x1="6015.23"
   y1="472.98999"
   x2="6015.73"
   y2="472.98999"
   id="line886" />
		</g>
		<g
   id="g896">
			
				<line
   fill="none"
   stroke="#ffffff"
   stroke-width="0.75"
   stroke-linejoin="round"
   x1="5668.1499"
   y1="511.34"
   x2="5668.6499"
   y2="511.34"
   id="line890" />
			
				<line
   fill="none"
   stroke="#ffffff"
   stroke-width="0.75"
   stroke-linejoin="round"
   stroke-dasharray="0.9988, 1.9976"
   x1="5670.6401"
   y1="511.34"
   x2="6014.23"
   y2="511.34"
   id="line892" />
			
				<line
   fill="none"
   stroke="#ffffff"
   stroke-width="0.75"
   stroke-linejoin="round"
   x1="6015.23"
   y1="511.34"
   x2="6015.73"
   y2="511.34"
   id="line894" />
		</g>
		<g
   id="g904">
			
				<line
   fill="none"
   stroke="#ffffff"
   stroke-width="0.75"
   stroke-linejoin="round"
   x1="5668.1499"
   y1="549.58002"
   x2="5668.6499"
   y2="549.58002"
   id="line898" />
			
				<line
   fill="none"
   stroke="#ffffff"
   stroke-width="0.75"
   stroke-linejoin="round"
   stroke-dasharray="0.9988, 1.9976"
   x1="5670.6401"
   y1="549.58002"
   x2="6014.23"
   y2="549.58002"
   id="line900" />
			
				<line
   fill="none"
   stroke="#ffffff"
   stroke-width="0.75"
   stroke-linejoin="round"
   x1="6015.23"
   y1="549.58002"
   x2="6015.73"
   y2="549.58002"
   id="line902" />
		</g>
		<g
   id="g912">
			
				<line
   fill="none"
   stroke="#ffffff"
   stroke-width="0.75"
   stroke-linejoin="round"
   x1="5668.1499"
   y1="587.94"
   x2="5668.6499"
   y2="587.94"
   id="line906" />
			
				<line
   fill="none"
   stroke="#ffffff"
   stroke-width="0.75"
   stroke-linejoin="round"
   stroke-dasharray="0.9988, 1.9976"
   x1="5670.6401"
   y1="587.94"
   x2="6014.23"
   y2="587.94"
   id="line908" />
			
				<line
   fill="none"
   stroke="#ffffff"
   stroke-width="0.75"
   stroke-linejoin="round"
   x1="6015.23"
   y1="587.94"
   x2="6015.73"
   y2="587.94"
   id="line910" />
		</g>
	</g>
</g>
<g
   id="g926"
   transform="translate(3.779685,3.7790551)">
	<g
   id="g924">
		
			<line
   fill="none"
   stroke="#ffffff"
   stroke-width="0.75"
   stroke-linejoin="round"
   x1="5668.1499"
   y1="434.64001"
   x2="5668.6499"
   y2="434.64001"
   id="line918" />
		
			<line
   fill="none"
   stroke="#ffffff"
   stroke-width="0.75"
   stroke-linejoin="round"
   stroke-dasharray="0.9988, 1.9976"
   x1="5670.6401"
   y1="434.64001"
   x2="6014.23"
   y2="434.64001"
   id="line920" />
		
			<line
   fill="none"
   stroke="#ffffff"
   stroke-width="0.75"
   stroke-linejoin="round"
   x1="6015.23"
   y1="434.64001"
   x2="6015.73"
   y2="434.64001"
   id="line922" />
	</g>
</g>
<g
   id="g938"
   transform="translate(3.779685,3.7790551)">
	<g
   id="g936">
		<g
   id="g934">
			<path
   fill="#ffffff"
   d="m 5651.21,620.27 h -1.67 v -0.52 h 1.67 z"
   id="path928" />
			<path
   fill="#ffffff"
   d="m 5655.02,622.12 h -3.26 v -0.46 l 1.72,-1.91 c 0.25,-0.29 0.43,-0.52 0.53,-0.71 0.1,-0.18 0.15,-0.37 0.15,-0.56 0,-0.26 -0.08,-0.47 -0.24,-0.64 -0.16,-0.17 -0.37,-0.25 -0.63,-0.25 -0.31,0 -0.56,0.09 -0.73,0.27 -0.17,0.18 -0.26,0.43 -0.26,0.75 h -0.63 c 0,-0.46 0.15,-0.83 0.44,-1.11 0.29,-0.28 0.69,-0.42 1.18,-0.42 0.46,0 0.83,0.12 1.1,0.36 0.27,0.24 0.4,0.57 0.4,0.97 0,0.49 -0.31,1.07 -0.94,1.75 l -1.33,1.45 h 2.5 z"
   id="path930" />
			<path
   fill="#ffffff"
   d="m 5655.99,619.63 0.25,-2.48 h 2.55 v 0.58 h -2.01 l -0.15,1.36 c 0.24,-0.14 0.52,-0.21 0.83,-0.21 0.45,0 0.81,0.15 1.08,0.45 0.27,0.3 0.4,0.7 0.4,1.21 0,0.51 -0.14,0.92 -0.42,1.21 -0.28,0.29 -0.66,0.44 -1.16,0.44 -0.44,0 -0.8,-0.12 -1.08,-0.37 -0.28,-0.24 -0.44,-0.58 -0.48,-1.01 h 0.6 c 0.04,0.28 0.14,0.5 0.3,0.64 0.16,0.14 0.38,0.22 0.65,0.22 0.29,0 0.52,-0.1 0.69,-0.3 0.17,-0.2 0.25,-0.48 0.25,-0.83 0,-0.33 -0.09,-0.6 -0.27,-0.8 -0.18,-0.2 -0.42,-0.3 -0.72,-0.3 -0.28,0 -0.49,0.06 -0.65,0.18 l -0.17,0.14 z"
   id="path932" />
		</g>
	</g>
</g>
<g
   id="g950"
   transform="translate(3.779685,3.7790551)">
	<g
   id="g948">
		<g
   id="g946">
			<path
   fill="#ffffff"
   d="m 5651.21,590.4 h -1.67 v -0.52 h 1.67 z"
   id="path940" />
			<path
   fill="#ffffff"
   d="m 5655.02,592.26 h -3.26 v -0.46 l 1.72,-1.91 c 0.25,-0.29 0.43,-0.52 0.53,-0.71 0.1,-0.18 0.15,-0.37 0.15,-0.56 0,-0.26 -0.08,-0.47 -0.24,-0.64 -0.16,-0.17 -0.37,-0.25 -0.63,-0.25 -0.31,0 -0.56,0.09 -0.73,0.27 -0.17,0.18 -0.26,0.43 -0.26,0.75 h -0.63 c 0,-0.46 0.15,-0.83 0.44,-1.11 0.29,-0.28 0.69,-0.42 1.18,-0.42 0.46,0 0.83,0.12 1.1,0.36 0.27,0.24 0.4,0.57 0.4,0.97 0,0.49 -0.31,1.07 -0.94,1.75 l -1.33,1.45 h 2.5 z"
   id="path942" />
			<path
   fill="#ffffff"
   d="m 5658.82,590.13 c 0,0.74 -0.13,1.29 -0.38,1.65 -0.25,0.36 -0.65,0.54 -1.19,0.54 -0.53,0 -0.92,-0.18 -1.18,-0.53 -0.25,-0.35 -0.39,-0.88 -0.4,-1.58 v -0.84 c 0,-0.73 0.13,-1.28 0.38,-1.63 0.25,-0.35 0.65,-0.53 1.19,-0.53 0.54,0 0.93,0.17 1.18,0.51 0.25,0.34 0.38,0.87 0.39,1.59 v 0.82 z m -0.64,-0.86 c 0,-0.54 -0.08,-0.93 -0.23,-1.17 -0.15,-0.24 -0.39,-0.37 -0.71,-0.37 -0.32,0 -0.56,0.12 -0.71,0.37 -0.15,0.24 -0.22,0.62 -0.23,1.12 v 1.01 c 0,0.54 0.08,0.93 0.23,1.19 0.16,0.26 0.39,0.38 0.71,0.38 0.31,0 0.54,-0.12 0.7,-0.36 0.15,-0.24 0.23,-0.62 0.24,-1.14 z"
   id="path944" />
		</g>
	</g>
</g>
<g
   id="g962"
   transform="translate(3.779685,3.7790551)">
	<g
   id="g960">
		<g
   id="g958">
			<path
   fill="#ffffff"
   d="m 5651.21,552.05 h -1.67 v -0.52 h 1.67 z"
   id="path952" />
			<path
   fill="#ffffff"
   d="m 5653.84,553.9 h -0.64 v -4.21 l -1.27,0.47 v -0.57 l 1.81,-0.68 h 0.1 z"
   id="path954" />
			<path
   fill="#ffffff"
   d="m 5655.99,551.41 0.25,-2.48 h 2.55 v 0.58 h -2.01 l -0.15,1.36 c 0.24,-0.14 0.52,-0.21 0.83,-0.21 0.45,0 0.81,0.15 1.08,0.45 0.27,0.3 0.4,0.7 0.4,1.21 0,0.51 -0.14,0.92 -0.42,1.21 -0.28,0.29 -0.66,0.44 -1.16,0.44 -0.44,0 -0.8,-0.12 -1.08,-0.37 -0.28,-0.24 -0.44,-0.58 -0.48,-1.01 h 0.6 c 0.04,0.28 0.14,0.5 0.3,0.64 0.16,0.14 0.38,0.22 0.65,0.22 0.29,0 0.52,-0.1 0.69,-0.3 0.17,-0.2 0.25,-0.48 0.25,-0.83 0,-0.33 -0.09,-0.6 -0.27,-0.8 -0.18,-0.2 -0.42,-0.3 -0.72,-0.3 -0.28,0 -0.49,0.06 -0.65,0.18 l -0.17,0.14 z"
   id="path956" />
		</g>
	</g>
</g>
<g
   id="g974"
   transform="translate(3.779685,3.7790551)">
	<g
   id="g972">
		<g
   id="g970">
			<path
   fill="#ffffff"
   d="m 5651.21,513.72 h -1.67 v -0.52 h 1.67 z"
   id="path964" />
			<path
   fill="#ffffff"
   d="m 5653.84,515.57 h -0.64 v -4.21 l -1.27,0.47 v -0.57 l 1.81,-0.68 h 0.1 z"
   id="path966" />
			<path
   fill="#ffffff"
   d="m 5658.82,513.45 c 0,0.74 -0.13,1.29 -0.38,1.65 -0.25,0.36 -0.65,0.54 -1.19,0.54 -0.53,0 -0.92,-0.18 -1.18,-0.53 -0.25,-0.35 -0.39,-0.88 -0.4,-1.58 v -0.84 c 0,-0.73 0.13,-1.28 0.38,-1.63 0.25,-0.35 0.65,-0.53 1.19,-0.53 0.54,0 0.93,0.17 1.18,0.51 0.25,0.34 0.38,0.87 0.39,1.59 v 0.82 z m -0.64,-0.87 c 0,-0.54 -0.08,-0.93 -0.23,-1.17 -0.15,-0.24 -0.39,-0.37 -0.71,-0.37 -0.32,0 -0.56,0.12 -0.71,0.37 -0.15,0.24 -0.22,0.62 -0.23,1.12 v 1.01 c 0,0.54 0.08,0.93 0.23,1.19 0.16,0.26 0.39,0.38 0.71,0.38 0.31,0 0.54,-0.12 0.7,-0.36 0.15,-0.24 0.23,-0.62 0.24,-1.14 z"
   id="path968" />
		</g>
	</g>
</g>
<g
   id="g984"
   transform="translate(3.779685,3.7790551)">
	<g
   id="g982">
		<g
   id="g980">
			<path
   fill="#ffffff"
   d="m 5651.21,475.36 h -1.67 v -0.52 h 1.67 z"
   id="path976" />
			<path
   fill="#ffffff"
   d="m 5652.05,474.73 0.25,-2.48 h 2.55 v 0.58 h -2.01 l -0.15,1.36 c 0.24,-0.14 0.52,-0.21 0.83,-0.21 0.45,0 0.81,0.15 1.08,0.45 0.27,0.3 0.4,0.7 0.4,1.21 0,0.51 -0.14,0.92 -0.42,1.21 -0.28,0.29 -0.66,0.44 -1.16,0.44 -0.44,0 -0.8,-0.12 -1.08,-0.37 -0.28,-0.24 -0.44,-0.58 -0.48,-1.01 h 0.6 c 0.04,0.28 0.14,0.5 0.3,0.64 0.16,0.14 0.38,0.22 0.65,0.22 0.29,0 0.52,-0.1 0.69,-0.3 0.17,-0.2 0.25,-0.48 0.25,-0.83 0,-0.33 -0.09,-0.6 -0.27,-0.8 -0.18,-0.2 -0.42,-0.3 -0.72,-0.3 -0.28,0 -0.49,0.06 -0.65,0.18 l -0.17,0.14 z"
   id="path978" />
		</g>
	</g>
</g>
<g
   id="g992"
   transform="translate(3.779685,3.7790551)">
	<g
   id="g990">
		<g
   id="g988">
			<path
   fill="#ffffff"
   d="m 5652.95,436.74 c 0,0.74 -0.13,1.29 -0.38,1.65 -0.25,0.36 -0.65,0.54 -1.19,0.54 -0.53,0 -0.92,-0.18 -1.18,-0.53 -0.25,-0.35 -0.39,-0.88 -0.4,-1.58 v -0.84 c 0,-0.73 0.13,-1.28 0.38,-1.63 0.25,-0.35 0.65,-0.53 1.19,-0.53 0.54,0 0.93,0.17 1.18,0.51 0.25,0.34 0.38,0.87 0.39,1.59 v 0.82 z m -0.63,-0.86 c 0,-0.54 -0.08,-0.93 -0.23,-1.17 -0.15,-0.24 -0.39,-0.37 -0.71,-0.37 -0.32,0 -0.56,0.12 -0.71,0.37 -0.15,0.24 -0.22,0.62 -0.23,1.12 v 1.01 c 0,0.54 0.08,0.93 0.23,1.19 0.16,0.26 0.39,0.38 0.71,0.38 0.31,0 0.54,-0.12 0.7,-0.36 0.15,-0.24 0.23,-0.62 0.24,-1.14 z"
   id="path986" />
		</g>
	</g>
</g>
<g
   id="g1000"
   transform="translate(3.779685,3.7790551)">
	<g
   id="g998">
		<g
   id="g996">
			<path
   fill="#ffffff"
   d="m 5650.12,389.58 0.25,-2.48 h 2.55 v 0.58 h -2.01 l -0.15,1.36 c 0.24,-0.14 0.52,-0.21 0.83,-0.21 0.45,0 0.81,0.15 1.08,0.45 0.27,0.3 0.4,0.7 0.4,1.21 0,0.51 -0.14,0.92 -0.42,1.21 -0.28,0.29 -0.66,0.44 -1.16,0.44 -0.44,0 -0.8,-0.12 -1.08,-0.37 -0.28,-0.24 -0.44,-0.58 -0.48,-1.01 h 0.6 c 0.04,0.28 0.14,0.5 0.3,0.64 0.16,0.14 0.38,0.22 0.65,0.22 0.29,0 0.52,-0.1 0.69,-0.3 0.17,-0.2 0.25,-0.48 0.25,-0.83 0,-0.33 -0.09,-0.6 -0.27,-0.8 -0.18,-0.2 -0.42,-0.3 -0.72,-0.3 -0.28,0 -0.49,0.06 -0.65,0.18 l -0.17,0.14 z"
   id="path994" />
		</g>
	</g>
</g>
<g
   id="g1010"
   transform="translate(3.779685,3.7790551)">
	<g
   id="g1008">
		<g
   id="g1006">
			<path
   fill="#ffffff"
   d="m 5651.91,353.73 h -0.64 v -4.21 l -1.27,0.47 v -0.57 l 1.81,-0.68 h 0.1 z"
   id="path1002" />
			<path
   fill="#ffffff"
   d="m 5656.88,351.6 c 0,0.74 -0.13,1.29 -0.38,1.65 -0.25,0.36 -0.65,0.54 -1.19,0.54 -0.53,0 -0.92,-0.18 -1.18,-0.53 -0.25,-0.35 -0.39,-0.88 -0.4,-1.58 v -0.84 c 0,-0.73 0.13,-1.28 0.38,-1.63 0.25,-0.35 0.65,-0.53 1.19,-0.53 0.54,0 0.93,0.17 1.18,0.51 0.25,0.34 0.38,0.87 0.39,1.59 v 0.82 z m -0.63,-0.86 c 0,-0.54 -0.08,-0.93 -0.23,-1.17 -0.15,-0.24 -0.39,-0.37 -0.71,-0.37 -0.32,0 -0.56,0.12 -0.71,0.37 -0.15,0.24 -0.22,0.62 -0.23,1.12 v 1.01 c 0,0.54 0.08,0.93 0.23,1.19 0.16,0.26 0.39,0.38 0.71,0.38 0.31,0 0.54,-0.12 0.7,-0.36 0.15,-0.24 0.23,-0.62 0.24,-1.14 z"
   id="path1004" />
		</g>
	</g>
</g>
<g
   id="g1020"
   transform="translate(3.779685,3.7790551)">
	<g
   id="g1018">
		<g
   id="g1016">
			<path
   fill="#ffffff"
   d="m 5651.91,315.38 h -0.64 v -4.21 l -1.27,0.47 v -0.57 l 1.81,-0.68 h 0.1 z"
   id="path1012" />
			<path
   fill="#ffffff"
   d="m 5654.05,312.88 0.25,-2.48 h 2.55 v 0.58 h -2.01 l -0.15,1.36 c 0.24,-0.14 0.52,-0.21 0.83,-0.21 0.45,0 0.81,0.15 1.08,0.45 0.27,0.3 0.4,0.71 0.4,1.21 0,0.51 -0.14,0.92 -0.42,1.21 -0.28,0.29 -0.66,0.44 -1.16,0.44 -0.44,0 -0.8,-0.12 -1.08,-0.37 -0.28,-0.24 -0.44,-0.58 -0.48,-1.01 h 0.6 c 0.04,0.28 0.14,0.5 0.3,0.64 0.16,0.15 0.38,0.22 0.65,0.22 0.29,0 0.52,-0.1 0.69,-0.3 0.17,-0.2 0.25,-0.48 0.25,-0.83 0,-0.33 -0.09,-0.6 -0.27,-0.8 -0.18,-0.2 -0.42,-0.3 -0.72,-0.3 -0.28,0 -0.49,0.06 -0.65,0.18 l -0.17,0.14 z"
   id="path1014" />
		</g>
	</g>
</g>
<g
   id="g1030"
   transform="translate(3.779685,3.7790551)">
	<g
   id="g1028">
		<g
   id="g1026">
			<path
   fill="#ffffff"
   d="m 5653.09,277.04 h -3.26 v -0.45 l 1.72,-1.91 c 0.25,-0.29 0.43,-0.52 0.53,-0.71 0.1,-0.18 0.15,-0.37 0.15,-0.56 0,-0.26 -0.08,-0.47 -0.24,-0.64 -0.16,-0.17 -0.37,-0.25 -0.63,-0.25 -0.31,0 -0.56,0.09 -0.73,0.27 -0.17,0.18 -0.26,0.43 -0.26,0.75 h -0.63 c 0,-0.46 0.15,-0.83 0.44,-1.11 0.29,-0.28 0.69,-0.42 1.18,-0.42 0.46,0 0.83,0.12 1.1,0.36 0.27,0.24 0.4,0.57 0.4,0.97 0,0.49 -0.31,1.07 -0.94,1.75 l -1.33,1.45 h 2.5 z"
   id="path1022" />
			<path
   fill="#ffffff"
   d="m 5656.88,274.92 c 0,0.74 -0.13,1.29 -0.38,1.65 -0.25,0.36 -0.65,0.54 -1.19,0.54 -0.53,0 -0.92,-0.18 -1.18,-0.53 -0.25,-0.35 -0.39,-0.88 -0.4,-1.58 v -0.84 c 0,-0.73 0.13,-1.27 0.38,-1.63 0.25,-0.36 0.65,-0.53 1.19,-0.53 0.54,0 0.93,0.17 1.18,0.51 0.25,0.34 0.38,0.87 0.39,1.59 v 0.82 z m -0.63,-0.86 c 0,-0.54 -0.08,-0.93 -0.23,-1.17 -0.15,-0.24 -0.39,-0.37 -0.71,-0.37 -0.32,0 -0.56,0.12 -0.71,0.37 -0.15,0.24 -0.22,0.62 -0.23,1.12 v 1.01 c 0,0.54 0.08,0.93 0.23,1.19 0.16,0.26 0.39,0.38 0.71,0.38 0.31,0 0.54,-0.12 0.7,-0.36 0.16,-0.24 0.23,-0.62 0.24,-1.14 z"
   id="path1024" />
		</g>
	</g>
</g>
<g
   id="g1042"
   transform="translate(3.779685,3.7790551)">
	<g
   id="g1040">
		<g
   id="g1038">
			<path
   fill="#ffffff"
   d="m 5729.54,621.72 c 0,0.43 -0.14,0.78 -0.42,1.05 -0.28,0.27 -0.66,0.4 -1.13,0.4 h -0.1 c -0.31,0 -0.59,-0.06 -0.84,-0.18 -0.25,-0.12 -0.44,-0.29 -0.58,-0.5 -0.14,-0.21 -0.21,-0.45 -0.21,-0.7 0,-0.41 0.14,-0.73 0.41,-0.96 0.27,-0.23 0.66,-0.34 1.17,-0.34 h 0.23 v 2.15 c 0.31,-0.01 0.57,-0.1 0.76,-0.27 0.19,-0.17 0.29,-0.4 0.29,-0.67 0,-0.19 -0.04,-0.35 -0.12,-0.49 -0.08,-0.14 -0.18,-0.25 -0.31,-0.35 l 0.26,-0.33 c 0.39,0.26 0.59,0.66 0.59,1.19 z m -2.84,0.07 c 0,0.22 0.08,0.4 0.24,0.55 0.16,0.15 0.38,0.24 0.67,0.28 v -1.59 h -0.04 c -0.28,0.02 -0.49,0.09 -0.64,0.22 -0.15,0.13 -0.23,0.31 -0.23,0.54 z"
   id="path1032" />
			<path
   fill="#ffffff"
   d="m 5728.64,618.01 c -0.15,0 -0.26,0.06 -0.34,0.17 -0.08,0.11 -0.15,0.3 -0.21,0.58 -0.06,0.28 -0.13,0.49 -0.21,0.65 -0.08,0.16 -0.18,0.28 -0.29,0.36 -0.11,0.08 -0.25,0.12 -0.4,0.12 -0.26,0 -0.48,-0.11 -0.66,-0.33 -0.18,-0.22 -0.27,-0.5 -0.27,-0.84 0,-0.36 0.09,-0.65 0.28,-0.88 0.19,-0.22 0.42,-0.33 0.71,-0.33 v 0.54 c -0.15,0 -0.28,0.06 -0.38,0.19 -0.11,0.13 -0.16,0.29 -0.16,0.48 0,0.2 0.04,0.35 0.13,0.46 0.09,0.11 0.2,0.17 0.34,0.17 0.13,0 0.23,-0.05 0.3,-0.16 0.07,-0.11 0.13,-0.29 0.19,-0.56 0.06,-0.27 0.13,-0.49 0.22,-0.66 0.09,-0.17 0.19,-0.29 0.3,-0.37 0.11,-0.08 0.26,-0.12 0.43,-0.12 0.28,0 0.51,0.11 0.68,0.34 0.17,0.23 0.26,0.52 0.26,0.88 0,0.25 -0.04,0.48 -0.13,0.67 -0.09,0.19 -0.21,0.35 -0.38,0.46 -0.16,0.11 -0.33,0.17 -0.52,0.17 v -0.54 c 0.18,-0.01 0.33,-0.08 0.43,-0.22 0.11,-0.13 0.16,-0.31 0.16,-0.54 0,-0.21 -0.04,-0.37 -0.12,-0.49 -0.11,-0.14 -0.22,-0.2 -0.36,-0.2 z"
   id="path1034" />
			<path
   fill="#ffffff"
   d="m 5726.7,616.22 c -0.29,-0.24 -0.44,-0.55 -0.44,-0.94 0,-0.67 0.38,-1.01 1.13,-1.01 h 2.09 v 0.54 h -2.1 c -0.23,0 -0.4,0.05 -0.51,0.16 -0.11,0.1 -0.16,0.26 -0.16,0.48 0,0.18 0.05,0.33 0.14,0.46 0.09,0.13 0.22,0.24 0.37,0.31 h 2.26 v 0.54 h -4.5 v -0.54 z"
   id="path1036" />
		</g>
	</g>
</g>
<g
   id="g1060"
   transform="translate(3.779685,3.7790551)">
	<g
   id="g1058">
		<g
   id="g1056">
			<path
   fill="#ffffff"
   d="m 5755.61,621.92 c -0.01,0.08 -0.02,0.17 -0.02,0.27 0,0.36 0.15,0.6 0.45,0.72 h 2.25 v 0.54 h -3.17 v -0.53 l 0.37,-0.01 c -0.28,-0.18 -0.42,-0.43 -0.42,-0.76 0,-0.11 0.01,-0.19 0.04,-0.24 h 0.5 z"
   id="path1044" />
			<path
   fill="#ffffff"
   d="m 5758.29,619.58 c -0.06,0.03 -0.17,0.06 -0.33,0.08 0.26,0.25 0.39,0.55 0.39,0.9 0,0.31 -0.09,0.57 -0.27,0.77 -0.18,0.2 -0.4,0.3 -0.67,0.3 -0.33,0 -0.59,-0.12 -0.77,-0.38 -0.18,-0.25 -0.27,-0.6 -0.27,-1.06 v -0.53 h -0.25 c -0.19,0 -0.34,0.06 -0.45,0.17 -0.11,0.11 -0.17,0.28 -0.17,0.5 0,0.19 0.05,0.36 0.15,0.49 0.1,0.13 0.22,0.2 0.35,0.2 v 0.54 c -0.16,0 -0.31,-0.06 -0.46,-0.17 -0.15,-0.11 -0.26,-0.26 -0.35,-0.46 -0.09,-0.19 -0.13,-0.4 -0.13,-0.63 0,-0.37 0.09,-0.65 0.27,-0.86 0.18,-0.21 0.43,-0.31 0.75,-0.32 h 1.46 c 0.29,0 0.52,-0.04 0.69,-0.11 h 0.05 v 0.57 z m -0.41,0.9 c 0,-0.17 -0.04,-0.33 -0.13,-0.48 -0.09,-0.15 -0.2,-0.26 -0.34,-0.33 h -0.65 v 0.42 c 0,0.66 0.19,1 0.58,1 0.17,0 0.3,-0.06 0.4,-0.17 0.1,-0.11 0.14,-0.26 0.14,-0.44 z"
   id="path1046" />
			<path
   fill="#ffffff"
   d="m 5756.68,618.41 c -0.49,0 -0.88,-0.12 -1.17,-0.35 -0.29,-0.23 -0.44,-0.53 -0.44,-0.91 0,-0.37 0.13,-0.67 0.38,-0.88 h -1.65 v -0.54 h 4.5 v 0.5 l -0.34,0.03 c 0.27,0.22 0.4,0.52 0.4,0.91 0,0.37 -0.15,0.67 -0.45,0.9 -0.3,0.23 -0.69,0.35 -1.18,0.35 h -0.05 z m 0.07,-0.55 c 0.36,0 0.64,-0.07 0.84,-0.22 0.2,-0.15 0.3,-0.35 0.3,-0.62 0,-0.34 -0.15,-0.59 -0.46,-0.75 h -1.46 c -0.3,0.16 -0.45,0.41 -0.45,0.75 0,0.27 0.1,0.47 0.31,0.62 0.21,0.15 0.51,0.22 0.92,0.22 z"
   id="path1048" />
			<path
   fill="#ffffff"
   d="m 5758.35,613.58 c 0,0.43 -0.14,0.78 -0.42,1.05 -0.28,0.27 -0.66,0.4 -1.13,0.4 h -0.1 c -0.31,0 -0.59,-0.06 -0.84,-0.18 -0.25,-0.12 -0.44,-0.29 -0.58,-0.5 -0.14,-0.21 -0.21,-0.45 -0.21,-0.7 0,-0.41 0.14,-0.73 0.41,-0.96 0.27,-0.23 0.66,-0.34 1.17,-0.34 h 0.23 v 2.15 c 0.31,-0.01 0.57,-0.1 0.76,-0.27 0.19,-0.17 0.29,-0.4 0.29,-0.67 0,-0.19 -0.04,-0.35 -0.12,-0.49 -0.08,-0.14 -0.18,-0.25 -0.31,-0.35 l 0.26,-0.33 c 0.39,0.26 0.59,0.65 0.59,1.19 z m -2.84,0.06 c 0,0.22 0.08,0.4 0.24,0.55 0.16,0.15 0.38,0.24 0.67,0.28 v -1.59 h -0.04 c -0.28,0.02 -0.49,0.09 -0.64,0.22 -0.15,0.14 -0.23,0.32 -0.23,0.54 z"
   id="path1050" />
			<path
   fill="#ffffff"
   d="m 5757.45,609.87 c -0.15,0 -0.26,0.06 -0.34,0.17 -0.08,0.11 -0.15,0.3 -0.21,0.58 -0.06,0.28 -0.13,0.49 -0.21,0.65 -0.08,0.16 -0.18,0.28 -0.29,0.36 -0.11,0.08 -0.25,0.12 -0.4,0.12 -0.26,0 -0.48,-0.11 -0.66,-0.33 -0.18,-0.22 -0.27,-0.5 -0.27,-0.84 0,-0.36 0.09,-0.65 0.28,-0.88 0.19,-0.22 0.42,-0.33 0.71,-0.33 v 0.54 c -0.15,0 -0.28,0.06 -0.38,0.19 -0.11,0.13 -0.16,0.29 -0.16,0.48 0,0.2 0.04,0.35 0.13,0.46 0.09,0.11 0.2,0.17 0.34,0.17 0.13,0 0.23,-0.05 0.3,-0.16 0.07,-0.11 0.13,-0.29 0.19,-0.56 0.06,-0.27 0.13,-0.49 0.22,-0.66 0.09,-0.17 0.19,-0.29 0.3,-0.37 0.11,-0.08 0.26,-0.12 0.43,-0.12 0.28,0 0.51,0.11 0.68,0.34 0.17,0.23 0.26,0.52 0.26,0.88 0,0.25 -0.04,0.48 -0.13,0.67 -0.09,0.19 -0.21,0.35 -0.38,0.46 -0.16,0.11 -0.33,0.17 -0.52,0.17 v -0.54 c 0.18,-0.01 0.33,-0.08 0.43,-0.22 0.11,-0.13 0.16,-0.31 0.16,-0.54 0,-0.21 -0.04,-0.37 -0.12,-0.49 -0.11,-0.14 -0.22,-0.2 -0.36,-0.2 z"
   id="path1052" />
			<path
   fill="#ffffff"
   d="m 5755.51,608.08 c -0.29,-0.24 -0.44,-0.55 -0.44,-0.94 0,-0.67 0.38,-1.01 1.13,-1.01 h 2.09 v 0.54 h -2.1 c -0.23,0 -0.4,0.05 -0.51,0.16 -0.11,0.1 -0.16,0.26 -0.16,0.48 0,0.18 0.05,0.33 0.14,0.46 0.09,0.13 0.22,0.24 0.37,0.31 h 2.26 v 0.54 h -4.5 v -0.54 z"
   id="path1054" />
		</g>
	</g>
</g>
<g
   id="g1076"
   transform="translate(3.779685,3.7790551)">
	<g
   id="g1074">
		<g
   id="g1072">
			<path
   fill="#ffffff"
   d="m 5772.7,621.74 c -0.06,0.03 -0.17,0.06 -0.33,0.08 0.26,0.25 0.39,0.55 0.39,0.9 0,0.31 -0.09,0.57 -0.27,0.77 -0.18,0.2 -0.4,0.3 -0.67,0.3 -0.33,0 -0.59,-0.12 -0.77,-0.38 -0.18,-0.25 -0.27,-0.6 -0.27,-1.06 v -0.53 h -0.25 c -0.19,0 -0.34,0.06 -0.45,0.17 -0.11,0.11 -0.17,0.28 -0.17,0.5 0,0.19 0.05,0.36 0.15,0.49 0.1,0.13 0.22,0.2 0.35,0.2 v 0.54 c -0.16,0 -0.31,-0.06 -0.46,-0.17 -0.15,-0.11 -0.26,-0.26 -0.35,-0.46 -0.09,-0.19 -0.13,-0.4 -0.13,-0.63 0,-0.37 0.09,-0.65 0.27,-0.86 0.18,-0.21 0.43,-0.31 0.75,-0.32 h 1.46 c 0.29,0 0.52,-0.04 0.69,-0.11 h 0.05 v 0.57 z m -0.41,0.9 c 0,-0.17 -0.04,-0.33 -0.13,-0.48 -0.09,-0.15 -0.2,-0.26 -0.34,-0.33 h -0.65 v 0.42 c 0,0.66 0.19,1 0.58,1 0.17,0 0.3,-0.06 0.4,-0.17 0.1,-0.11 0.14,-0.26 0.14,-0.44 z"
   id="path1062" />
			<path
   fill="#ffffff"
   d="m 5771.09,620.57 c -0.49,0 -0.88,-0.12 -1.17,-0.35 -0.29,-0.23 -0.44,-0.53 -0.44,-0.91 0,-0.37 0.13,-0.67 0.38,-0.88 h -1.65 v -0.54 h 4.5 v 0.5 l -0.34,0.03 c 0.27,0.22 0.4,0.52 0.4,0.91 0,0.37 -0.15,0.67 -0.45,0.9 -0.3,0.23 -0.69,0.35 -1.18,0.35 h -0.05 z m 0.06,-0.55 c 0.36,0 0.64,-0.07 0.84,-0.22 0.2,-0.15 0.3,-0.35 0.3,-0.62 0,-0.34 -0.15,-0.59 -0.46,-0.75 h -1.46 c -0.3,0.16 -0.45,0.41 -0.45,0.75 0,0.27 0.1,0.47 0.31,0.62 0.21,0.15 0.52,0.22 0.92,0.22 z"
   id="path1064" />
			<path
   fill="#ffffff"
   d="m 5772.76,615.73 c 0,0.43 -0.14,0.78 -0.42,1.05 -0.28,0.27 -0.66,0.4 -1.13,0.4 h -0.1 c -0.31,0 -0.59,-0.06 -0.84,-0.18 -0.25,-0.12 -0.44,-0.29 -0.58,-0.5 -0.14,-0.21 -0.21,-0.45 -0.21,-0.7 0,-0.41 0.14,-0.73 0.41,-0.96 0.27,-0.23 0.66,-0.34 1.17,-0.34 h 0.23 v 2.15 c 0.31,-0.01 0.57,-0.1 0.76,-0.27 0.19,-0.17 0.29,-0.4 0.29,-0.67 0,-0.19 -0.04,-0.35 -0.12,-0.49 -0.08,-0.14 -0.18,-0.25 -0.31,-0.35 l 0.26,-0.33 c 0.38,0.27 0.59,0.66 0.59,1.19 z m -2.84,0.07 c 0,0.22 0.08,0.4 0.24,0.55 0.16,0.15 0.38,0.24 0.67,0.28 v -1.59 h -0.04 c -0.28,0.02 -0.49,0.09 -0.64,0.22 -0.16,0.14 -0.23,0.32 -0.23,0.54 z"
   id="path1066" />
			<path
   fill="#ffffff"
   d="m 5771.86,612.03 c -0.15,0 -0.26,0.06 -0.34,0.17 -0.08,0.11 -0.15,0.3 -0.21,0.58 -0.06,0.28 -0.13,0.49 -0.21,0.65 -0.08,0.16 -0.18,0.28 -0.29,0.36 -0.11,0.08 -0.25,0.12 -0.4,0.12 -0.26,0 -0.48,-0.11 -0.66,-0.33 -0.18,-0.22 -0.27,-0.5 -0.27,-0.84 0,-0.36 0.09,-0.65 0.28,-0.88 0.19,-0.22 0.42,-0.33 0.71,-0.33 v 0.54 c -0.15,0 -0.28,0.06 -0.38,0.19 -0.11,0.13 -0.16,0.29 -0.16,0.48 0,0.2 0.04,0.35 0.13,0.46 0.09,0.11 0.2,0.17 0.34,0.17 0.13,0 0.23,-0.05 0.3,-0.16 0.07,-0.11 0.13,-0.29 0.19,-0.56 0.06,-0.27 0.13,-0.49 0.22,-0.66 0.09,-0.17 0.19,-0.29 0.3,-0.37 0.11,-0.08 0.26,-0.12 0.43,-0.12 0.28,0 0.51,0.11 0.68,0.34 0.17,0.23 0.26,0.52 0.26,0.88 0,0.25 -0.04,0.48 -0.13,0.67 -0.09,0.19 -0.21,0.35 -0.38,0.46 -0.16,0.11 -0.33,0.17 -0.52,0.17 v -0.54 c 0.18,-0.01 0.33,-0.08 0.43,-0.22 0.11,-0.13 0.16,-0.31 0.16,-0.54 0,-0.21 -0.04,-0.37 -0.12,-0.49 -0.11,-0.14 -0.22,-0.2 -0.36,-0.2 z"
   id="path1068" />
			<path
   fill="#ffffff"
   d="m 5769.91,610.24 c -0.29,-0.24 -0.44,-0.55 -0.44,-0.94 0,-0.67 0.38,-1.01 1.13,-1.01 h 2.09 v 0.54 h -2.1 c -0.23,0 -0.4,0.05 -0.51,0.16 -0.11,0.1 -0.16,0.26 -0.16,0.48 0,0.18 0.05,0.33 0.14,0.46 0.09,0.13 0.22,0.24 0.37,0.31 h 2.26 v 0.54 h -4.5 v -0.54 z"
   id="path1070" />
		</g>
	</g>
</g>
<g
   id="g1084"
   transform="translate(3.779685,3.7790551)">
	<g
   id="g1082">
		<g
   id="g1080">
			<path
   fill="#ffffff"
   d="m 5801.2,620.92 c 0.25,0.21 0.37,0.52 0.37,0.93 0,0.34 -0.1,0.6 -0.29,0.77 -0.2,0.18 -0.49,0.27 -0.87,0.27 h -2.06 v -0.54 h 2.05 c 0.48,0 0.72,-0.2 0.72,-0.59 0,-0.41 -0.15,-0.69 -0.46,-0.83 h -2.31 v -0.54 h 3.17 v 0.52 z"
   id="path1078" />
		</g>
	</g>
</g>
<g
   id="g1094"
   transform="translate(3.779685,3.7790551)">
	<g
   id="g1092">
		<g
   id="g1090">
			<path
   fill="#ffffff"
   d="m 5815.92,622.01 c -0.06,0.03 -0.17,0.06 -0.33,0.08 0.26,0.25 0.39,0.55 0.39,0.9 0,0.31 -0.09,0.57 -0.27,0.77 -0.18,0.2 -0.4,0.3 -0.67,0.3 -0.33,0 -0.59,-0.12 -0.77,-0.38 -0.18,-0.25 -0.27,-0.6 -0.27,-1.06 v -0.53 h -0.25 c -0.19,0 -0.34,0.06 -0.45,0.17 -0.11,0.11 -0.17,0.28 -0.17,0.5 0,0.19 0.05,0.36 0.15,0.49 0.1,0.13 0.22,0.2 0.35,0.2 v 0.54 c -0.16,0 -0.31,-0.06 -0.46,-0.17 -0.15,-0.11 -0.26,-0.26 -0.35,-0.46 -0.09,-0.19 -0.13,-0.4 -0.13,-0.63 0,-0.37 0.09,-0.65 0.27,-0.86 0.18,-0.21 0.43,-0.31 0.75,-0.32 h 1.46 c 0.29,0 0.52,-0.04 0.69,-0.11 h 0.05 v 0.57 z m -0.42,0.9 c 0,-0.17 -0.04,-0.33 -0.13,-0.48 -0.09,-0.15 -0.2,-0.26 -0.34,-0.33 h -0.65 v 0.42 c 0,0.66 0.19,1 0.58,1 0.17,0 0.3,-0.06 0.4,-0.17 0.1,-0.11 0.14,-0.27 0.14,-0.44 z"
   id="path1086" />
			<path
   fill="#ffffff"
   d="m 5815.92,620.11 v 0.54 h -4.5 v -0.54 z"
   id="path1088" />
		</g>
	</g>
</g>
<g
   id="g1104"
   transform="translate(3.779685,3.7790551)">
	<g
   id="g1102">
		<g
   id="g1100">
			<path
   fill="#ffffff"
   d="m 5827.65,622.87 c -0.01,0.08 -0.02,0.17 -0.02,0.27 0,0.36 0.15,0.6 0.45,0.72 h 2.25 v 0.54 h -3.17 v -0.53 l 0.37,-0.01 c -0.28,-0.18 -0.42,-0.43 -0.42,-0.76 0,-0.11 0.01,-0.19 0.04,-0.24 h 0.5 z"
   id="path1096" />
			<path
   fill="#ffffff"
   d="m 5827.55,621.83 c -0.29,-0.24 -0.44,-0.55 -0.44,-0.94 0,-0.67 0.38,-1.01 1.13,-1.01 h 2.09 v 0.54 h -2.1 c -0.23,0 -0.4,0.05 -0.51,0.16 -0.11,0.1 -0.16,0.26 -0.16,0.48 0,0.18 0.05,0.33 0.14,0.46 0.09,0.13 0.22,0.24 0.37,0.31 h 2.26 v 0.54 h -4.5 v -0.54 z"
   id="path1098" />
		</g>
	</g>
</g>
<g
   id="g1116"
   transform="translate(3.779685,3.7790551)">
	<g
   id="g1114">
		<g
   id="g1112">
			<path
   fill="#ffffff"
   d="m 5857.54,624.93 c -0.49,0 -0.89,-0.11 -1.18,-0.34 -0.29,-0.23 -0.44,-0.53 -0.44,-0.91 0,-0.39 0.14,-0.69 0.41,-0.91 l -0.35,-0.03 v -0.5 h 3.09 c 0.41,0 0.73,0.12 0.97,0.37 0.24,0.24 0.35,0.57 0.35,0.98 0,0.23 -0.05,0.45 -0.15,0.67 -0.1,0.22 -0.23,0.39 -0.4,0.5 l -0.33,-0.28 c 0.29,-0.23 0.43,-0.52 0.43,-0.85 0,-0.26 -0.07,-0.47 -0.22,-0.62 -0.15,-0.15 -0.36,-0.22 -0.63,-0.22 h -0.27 c 0.25,0.22 0.38,0.51 0.38,0.89 0,0.37 -0.15,0.67 -0.45,0.9 -0.3,0.23 -0.7,0.35 -1.21,0.35 z m 0.06,-0.55 c 0.36,0 0.64,-0.07 0.84,-0.22 0.2,-0.15 0.31,-0.35 0.31,-0.62 0,-0.34 -0.16,-0.59 -0.47,-0.75 h -1.45 c -0.3,0.17 -0.45,0.42 -0.45,0.75 0,0.26 0.1,0.47 0.31,0.62 0.21,0.15 0.51,0.22 0.91,0.22 z"
   id="path1106" />
			<path
   fill="#ffffff"
   d="m 5859.15,619.47 c -0.06,0.03 -0.17,0.06 -0.33,0.08 0.26,0.25 0.39,0.55 0.39,0.9 0,0.31 -0.09,0.57 -0.27,0.77 -0.18,0.2 -0.4,0.3 -0.67,0.3 -0.33,0 -0.59,-0.12 -0.77,-0.38 -0.18,-0.25 -0.27,-0.6 -0.27,-1.06 v -0.53 h -0.25 c -0.19,0 -0.34,0.06 -0.45,0.17 -0.11,0.11 -0.17,0.28 -0.17,0.5 0,0.19 0.05,0.36 0.15,0.49 0.1,0.13 0.22,0.2 0.35,0.2 v 0.54 c -0.16,0 -0.31,-0.06 -0.46,-0.17 -0.15,-0.11 -0.26,-0.26 -0.35,-0.46 -0.09,-0.19 -0.13,-0.4 -0.13,-0.63 0,-0.37 0.09,-0.65 0.27,-0.86 0.18,-0.21 0.43,-0.31 0.75,-0.32 h 1.46 c 0.29,0 0.52,-0.04 0.69,-0.11 h 0.05 v 0.57 z m -0.42,0.9 c 0,-0.17 -0.04,-0.33 -0.13,-0.48 -0.09,-0.15 -0.2,-0.26 -0.34,-0.33 h -0.65 v 0.42 c 0,0.66 0.19,1 0.58,1 0.17,0 0.3,-0.06 0.4,-0.17 0.1,-0.11 0.14,-0.26 0.14,-0.44 z"
   id="path1108" />
			<path
   fill="#ffffff"
   d="m 5859.15,617.58 v 0.54 h -4.5 v -0.54 z"
   id="path1110" />
		</g>
	</g>
</g>
<g
   id="g1136"
   transform="translate(3.779685,3.7790551)">
	<g
   id="g1134">
		<g
   id="g1132">
			<path
   fill="#ffffff"
   d="m 5871.88,622.42 h 1.67 v 0.56 h -4.27 v -1.57 c 0,-0.47 0.12,-0.83 0.36,-1.1 0.24,-0.26 0.55,-0.4 0.95,-0.4 0.41,0 0.73,0.13 0.96,0.39 0.22,0.26 0.34,0.63 0.34,1.11 v 1.01 z m -0.46,0 v -1.01 c 0,-0.3 -0.07,-0.53 -0.21,-0.69 -0.14,-0.16 -0.35,-0.24 -0.61,-0.24 -0.25,0 -0.46,0.08 -0.61,0.24 -0.15,0.16 -0.23,0.38 -0.24,0.66 v 1.04 z"
   id="path1118" />
			<path
   fill="#ffffff"
   d="m 5870.87,617.75 c -0.01,0.08 -0.02,0.17 -0.02,0.27 0,0.36 0.15,0.6 0.45,0.72 h 2.25 v 0.54 h -3.17 v -0.53 l 0.37,-0.01 c -0.28,-0.18 -0.42,-0.43 -0.42,-0.76 0,-0.11 0.01,-0.19 0.04,-0.24 h 0.5 z"
   id="path1120" />
			<path
   fill="#ffffff"
   d="m 5873.55,615.41 c -0.06,0.03 -0.17,0.06 -0.33,0.08 0.26,0.25 0.39,0.55 0.39,0.9 0,0.31 -0.09,0.57 -0.27,0.77 -0.18,0.2 -0.4,0.3 -0.67,0.3 -0.33,0 -0.59,-0.12 -0.77,-0.38 -0.18,-0.25 -0.27,-0.6 -0.27,-1.06 v -0.53 h -0.25 c -0.19,0 -0.34,0.06 -0.45,0.17 -0.11,0.11 -0.17,0.28 -0.17,0.5 0,0.19 0.05,0.36 0.15,0.49 0.1,0.13 0.22,0.2 0.35,0.2 v 0.54 c -0.16,0 -0.31,-0.06 -0.46,-0.17 -0.15,-0.11 -0.26,-0.26 -0.35,-0.46 -0.09,-0.19 -0.13,-0.4 -0.13,-0.63 0,-0.37 0.09,-0.65 0.27,-0.86 0.18,-0.21 0.43,-0.31 0.75,-0.32 h 1.46 c 0.29,0 0.52,-0.04 0.69,-0.11 h 0.05 v 0.57 z m -0.41,0.9 c 0,-0.17 -0.04,-0.33 -0.13,-0.48 -0.09,-0.15 -0.2,-0.26 -0.34,-0.33 h -0.65 v 0.42 c 0,0.66 0.19,1 0.58,1 0.17,0 0.3,-0.06 0.4,-0.17 0.1,-0.11 0.14,-0.26 0.14,-0.44 z"
   id="path1122" />
			<path
   fill="#ffffff"
   d="m 5871.94,614.23 c -0.49,0 -0.88,-0.12 -1.17,-0.35 -0.29,-0.23 -0.44,-0.53 -0.44,-0.91 0,-0.37 0.13,-0.67 0.38,-0.88 h -1.65 v -0.54 h 4.5 v 0.5 l -0.34,0.03 c 0.27,0.22 0.4,0.52 0.4,0.91 0,0.37 -0.15,0.67 -0.45,0.9 -0.3,0.23 -0.69,0.35 -1.18,0.35 h -0.05 z m 0.06,-0.54 c 0.36,0 0.64,-0.07 0.84,-0.22 0.2,-0.15 0.3,-0.35 0.3,-0.62 0,-0.34 -0.15,-0.59 -0.46,-0.75 h -1.46 c -0.3,0.16 -0.45,0.41 -0.45,0.75 0,0.27 0.1,0.47 0.31,0.62 0.21,0.15 0.52,0.22 0.92,0.22 z"
   id="path1124" />
			<path
   fill="#ffffff"
   d="m 5873.61,609.4 c 0,0.43 -0.14,0.78 -0.42,1.05 -0.28,0.27 -0.66,0.4 -1.13,0.4 h -0.1 c -0.31,0 -0.59,-0.06 -0.84,-0.18 -0.25,-0.12 -0.44,-0.29 -0.58,-0.5 -0.14,-0.21 -0.21,-0.45 -0.21,-0.7 0,-0.41 0.14,-0.73 0.41,-0.96 0.27,-0.23 0.66,-0.34 1.17,-0.34 h 0.23 v 2.15 c 0.31,-0.01 0.57,-0.1 0.76,-0.27 0.19,-0.17 0.29,-0.4 0.29,-0.67 0,-0.19 -0.04,-0.35 -0.12,-0.49 -0.08,-0.14 -0.18,-0.25 -0.31,-0.35 l 0.26,-0.33 c 0.39,0.26 0.59,0.66 0.59,1.19 z m -2.84,0.07 c 0,0.22 0.08,0.4 0.24,0.55 0.16,0.15 0.38,0.24 0.67,0.28 v -1.59 h -0.04 c -0.28,0.02 -0.49,0.09 -0.64,0.22 -0.16,0.13 -0.23,0.31 -0.23,0.54 z"
   id="path1126" />
			<path
   fill="#ffffff"
   d="m 5872.71,605.69 c -0.15,0 -0.26,0.06 -0.34,0.17 -0.08,0.11 -0.15,0.3 -0.21,0.58 -0.06,0.28 -0.13,0.49 -0.21,0.65 -0.08,0.16 -0.18,0.28 -0.29,0.36 -0.11,0.08 -0.25,0.12 -0.4,0.12 -0.26,0 -0.48,-0.11 -0.66,-0.33 -0.18,-0.22 -0.27,-0.5 -0.27,-0.84 0,-0.36 0.09,-0.65 0.28,-0.88 0.19,-0.22 0.42,-0.33 0.71,-0.33 v 0.54 c -0.15,0 -0.28,0.06 -0.38,0.19 -0.11,0.13 -0.16,0.29 -0.16,0.48 0,0.2 0.04,0.35 0.13,0.46 0.09,0.11 0.2,0.17 0.34,0.17 0.13,0 0.23,-0.05 0.3,-0.16 0.07,-0.11 0.13,-0.29 0.19,-0.56 0.06,-0.27 0.13,-0.49 0.22,-0.66 0.09,-0.17 0.19,-0.29 0.3,-0.37 0.11,-0.08 0.26,-0.12 0.43,-0.12 0.28,0 0.51,0.11 0.68,0.34 0.17,0.23 0.26,0.52 0.26,0.88 0,0.25 -0.04,0.48 -0.13,0.67 -0.09,0.19 -0.21,0.35 -0.38,0.46 -0.16,0.11 -0.33,0.17 -0.52,0.17 v -0.54 c 0.18,-0.01 0.33,-0.08 0.43,-0.22 0.11,-0.13 0.16,-0.31 0.16,-0.54 0,-0.21 -0.04,-0.37 -0.12,-0.49 -0.11,-0.13 -0.22,-0.2 -0.36,-0.2 z"
   id="path1128" />
			<path
   fill="#ffffff"
   d="m 5870.76,603.9 c -0.29,-0.24 -0.44,-0.55 -0.44,-0.94 0,-0.67 0.38,-1.01 1.13,-1.01 h 2.09 v 0.54 h -2.1 c -0.23,0 -0.4,0.05 -0.51,0.16 -0.11,0.1 -0.16,0.26 -0.16,0.48 0,0.18 0.05,0.33 0.14,0.46 0.09,0.13 0.22,0.24 0.37,0.31 h 2.26 v 0.54 h -4.5 v -0.54 z"
   id="path1130" />
		</g>
	</g>
</g>
<g
   id="g1160"
   transform="translate(3.779685,3.7790551)">
	<g
   id="g1158">
		<g
   id="g1156">
			<path
   fill="#ffffff"
   d="m 5913.6,624.31 0.4,-0.02 c -0.3,-0.24 -0.46,-0.56 -0.46,-0.95 0,-0.67 0.38,-1.01 1.13,-1.01 h 2.09 v 0.54 h -2.1 c -0.23,0 -0.4,0.05 -0.51,0.16 -0.11,0.1 -0.16,0.26 -0.16,0.48 0,0.18 0.05,0.33 0.14,0.46 0.09,0.13 0.22,0.24 0.37,0.31 h 2.26 v 0.54 h -3.17 v -0.51 z"
   id="path1138" />
			<path
   fill="#ffffff"
   d="m 5915.16,621.64 c -0.49,0 -0.88,-0.12 -1.17,-0.35 -0.29,-0.23 -0.44,-0.53 -0.44,-0.91 0,-0.37 0.13,-0.67 0.38,-0.88 h -1.65 v -0.54 h 4.5 v 0.5 l -0.34,0.03 c 0.27,0.22 0.4,0.52 0.4,0.91 0,0.37 -0.15,0.67 -0.45,0.9 -0.3,0.23 -0.69,0.35 -1.18,0.35 h -0.05 z m 0.06,-0.54 c 0.36,0 0.64,-0.07 0.84,-0.22 0.2,-0.15 0.3,-0.35 0.3,-0.62 0,-0.34 -0.15,-0.59 -0.46,-0.75 h -1.46 c -0.3,0.16 -0.45,0.41 -0.45,0.75 0,0.27 0.1,0.47 0.31,0.62 0.21,0.15 0.52,0.22 0.92,0.22 z"
   id="path1140" />
			<path
   fill="#ffffff"
   d="m 5914.79,615.47 0.54,0.52 h 1.44 v 0.56 h -4.27 V 616 h 2.11 l -2.11,-1.9 v -0.68 l 1.88,1.68 2.38,-1.81 v 0.67 z"
   id="path1142" />
			<path
   fill="#ffffff"
   d="m 5916.77,610.92 c -0.06,0.03 -0.17,0.06 -0.33,0.08 0.26,0.25 0.39,0.55 0.39,0.9 0,0.31 -0.09,0.57 -0.27,0.77 -0.18,0.2 -0.4,0.3 -0.67,0.3 -0.33,0 -0.59,-0.12 -0.77,-0.38 -0.18,-0.25 -0.27,-0.6 -0.27,-1.06 V 611 h -0.25 c -0.19,0 -0.34,0.06 -0.45,0.17 -0.11,0.11 -0.17,0.28 -0.17,0.5 0,0.19 0.05,0.36 0.15,0.49 0.1,0.13 0.22,0.2 0.35,0.2 v 0.54 c -0.16,0 -0.31,-0.06 -0.46,-0.17 -0.15,-0.11 -0.26,-0.26 -0.35,-0.46 -0.09,-0.19 -0.13,-0.4 -0.13,-0.63 0,-0.37 0.09,-0.65 0.27,-0.86 0.18,-0.21 0.43,-0.31 0.75,-0.32 h 1.46 c 0.29,0 0.52,-0.04 0.69,-0.11 h 0.05 v 0.57 z m -0.41,0.9 c 0,-0.17 -0.04,-0.33 -0.13,-0.48 -0.09,-0.15 -0.2,-0.26 -0.34,-0.33 h -0.65 v 0.42 c 0,0.66 0.19,1 0.58,1 0.17,0 0.3,-0.06 0.4,-0.17 0.1,-0.11 0.14,-0.26 0.14,-0.44 z"
   id="path1144" />
			<path
   fill="#ffffff"
   d="m 5915.93,607.77 c -0.15,0 -0.26,0.06 -0.34,0.17 -0.08,0.11 -0.15,0.3 -0.21,0.58 -0.06,0.28 -0.13,0.49 -0.21,0.65 -0.08,0.16 -0.18,0.28 -0.29,0.36 -0.11,0.08 -0.25,0.12 -0.4,0.12 -0.26,0 -0.48,-0.11 -0.66,-0.33 -0.18,-0.22 -0.27,-0.5 -0.27,-0.84 0,-0.36 0.09,-0.65 0.28,-0.88 0.19,-0.22 0.42,-0.33 0.71,-0.33 v 0.54 c -0.15,0 -0.28,0.06 -0.38,0.19 -0.11,0.13 -0.16,0.29 -0.16,0.48 0,0.2 0.04,0.35 0.13,0.46 0.09,0.11 0.2,0.17 0.34,0.17 0.13,0 0.23,-0.05 0.3,-0.16 0.07,-0.11 0.13,-0.29 0.19,-0.56 0.06,-0.27 0.13,-0.49 0.22,-0.66 0.09,-0.17 0.19,-0.29 0.3,-0.37 0.11,-0.08 0.26,-0.12 0.43,-0.12 0.28,0 0.51,0.11 0.68,0.34 0.17,0.23 0.26,0.52 0.26,0.88 0,0.25 -0.04,0.48 -0.13,0.67 -0.09,0.19 -0.21,0.35 -0.38,0.46 -0.16,0.11 -0.33,0.17 -0.52,0.17 v -0.54 c 0.18,-0.01 0.33,-0.08 0.43,-0.22 0.11,-0.13 0.16,-0.31 0.16,-0.54 0,-0.21 -0.04,-0.37 -0.12,-0.49 -0.11,-0.14 -0.22,-0.2 -0.36,-0.2 z"
   id="path1146" />
			<path
   fill="#ffffff"
   d="m 5913.99,605.98 c -0.29,-0.24 -0.44,-0.55 -0.44,-0.94 0,-0.67 0.38,-1.01 1.13,-1.01 h 2.09 v 0.54 h -2.1 c -0.23,0 -0.4,0.05 -0.51,0.16 -0.11,0.1 -0.16,0.26 -0.16,0.48 0,0.18 0.05,0.33 0.14,0.46 0.09,0.13 0.22,0.24 0.37,0.31 h 2.26 v 0.54 h -4.5 v -0.54 z"
   id="path1148" />
			<path
   fill="#ffffff"
   d="m 5913.6,602.71 0.35,-0.01 c -0.27,-0.23 -0.41,-0.55 -0.41,-0.94 0,-0.44 0.17,-0.75 0.51,-0.91 -0.15,-0.11 -0.28,-0.24 -0.37,-0.41 -0.09,-0.17 -0.14,-0.37 -0.14,-0.6 0,-0.7 0.37,-1.05 1.1,-1.06 h 2.12 v 0.54 h -2.09 c -0.23,0 -0.4,0.05 -0.51,0.16 -0.11,0.11 -0.17,0.28 -0.17,0.52 0,0.2 0.06,0.37 0.18,0.5 0.12,0.13 0.28,0.21 0.48,0.23 h 2.1 v 0.54 h -2.08 c -0.46,0 -0.69,0.23 -0.69,0.68 0,0.36 0.15,0.6 0.45,0.73 h 2.31 v 0.54 h -3.17 v -0.51 z"
   id="path1150" />
			<path
   fill="#ffffff"
   d="m 5912.76,597.96 c -0.09,0 -0.16,-0.03 -0.22,-0.08 -0.06,-0.05 -0.09,-0.13 -0.09,-0.24 0,-0.11 0.03,-0.19 0.09,-0.24 0.06,-0.05 0.13,-0.08 0.22,-0.08 0.09,0 0.16,0.03 0.22,0.08 0.06,0.05 0.09,0.13 0.09,0.24 0,0.11 -0.03,0.19 -0.09,0.24 -0.06,0.05 -0.13,0.08 -0.22,0.08 z m 4.01,-0.59 v 0.54 h -3.17 v -0.54 z"
   id="path1152" />
			<path
   fill="#ffffff"
   d="m 5914.09,594.97 c -0.01,0.08 -0.02,0.17 -0.02,0.27 0,0.36 0.15,0.6 0.45,0.72 h 2.25 v 0.54 h -3.17 v -0.53 l 0.37,-0.01 c -0.28,-0.18 -0.42,-0.43 -0.42,-0.76 0,-0.11 0.01,-0.19 0.04,-0.24 h 0.5 z"
   id="path1154" />
		</g>
	</g>
</g>
<g
   id="g1172"
   transform="translate(3.779685,3.7790551)">
	<g
   id="g1170">
		<g
   id="g1168">
			<path
   fill="#ffffff"
   d="m 5927.24,622.59 h 0.77 V 622 h 0.42 v 0.59 h 1.97 c 0.13,0 0.22,-0.03 0.29,-0.08 0.07,-0.05 0.1,-0.14 0.1,-0.27 0,-0.06 -0.01,-0.15 -0.04,-0.26 h 0.44 c 0.04,0.14 0.06,0.28 0.06,0.42 0,0.24 -0.07,0.42 -0.22,0.55 -0.15,0.13 -0.35,0.18 -0.62,0.18 h -1.97 v 0.58 h -0.42 v -0.58 h -0.77 v -0.54 z"
   id="path1162" />
			<path
   fill="#ffffff"
   d="m 5928.49,619.83 c -0.01,0.08 -0.02,0.17 -0.02,0.27 0,0.36 0.15,0.6 0.45,0.72 h 2.25 v 0.54 H 5928 v -0.53 l 0.37,-0.01 c -0.28,-0.18 -0.42,-0.43 -0.42,-0.76 0,-0.11 0.01,-0.19 0.04,-0.24 h 0.5 z"
   id="path1164" />
			<path
   fill="#ffffff"
   d="m 5931.18,617.5 c -0.06,0.03 -0.17,0.06 -0.33,0.08 0.26,0.25 0.39,0.55 0.39,0.9 0,0.31 -0.09,0.57 -0.27,0.77 -0.18,0.2 -0.4,0.3 -0.67,0.3 -0.33,0 -0.59,-0.12 -0.77,-0.38 -0.18,-0.25 -0.27,-0.6 -0.27,-1.06 v -0.53 h -0.25 c -0.19,0 -0.34,0.06 -0.45,0.17 -0.11,0.11 -0.17,0.28 -0.17,0.5 0,0.19 0.05,0.36 0.15,0.49 0.1,0.13 0.22,0.2 0.35,0.2 v 0.54 c -0.16,0 -0.31,-0.06 -0.46,-0.17 -0.15,-0.11 -0.26,-0.26 -0.35,-0.46 -0.09,-0.19 -0.13,-0.4 -0.13,-0.63 0,-0.37 0.09,-0.65 0.27,-0.86 0.18,-0.21 0.43,-0.31 0.75,-0.32 h 1.46 c 0.29,0 0.52,-0.04 0.69,-0.11 h 0.05 v 0.57 z m -0.42,0.89 c 0,-0.17 -0.04,-0.33 -0.13,-0.48 -0.09,-0.15 -0.2,-0.26 -0.34,-0.33 h -0.65 V 618 c 0,0.66 0.19,1 0.58,1 0.17,0 0.3,-0.06 0.4,-0.17 0.1,-0.11 0.14,-0.26 0.14,-0.44 z"
   id="path1166" />
		</g>
	</g>
</g>
<g
   id="g1180"
   transform="translate(3.779685,3.7790551)">
	<g
   id="g1178">
		<g
   id="g1176">
			<path
   fill="#ffffff"
   d="m 5972.79,625.27 c -0.49,0 -0.88,-0.12 -1.17,-0.35 -0.29,-0.23 -0.44,-0.53 -0.44,-0.91 0,-0.37 0.13,-0.67 0.38,-0.88 h -1.65 v -0.54 h 4.5 v 0.5 l -0.34,0.03 c 0.27,0.22 0.4,0.52 0.4,0.91 0,0.37 -0.15,0.67 -0.45,0.9 -0.3,0.23 -0.69,0.35 -1.18,0.35 h -0.05 z m 0.06,-0.54 c 0.36,0 0.64,-0.07 0.84,-0.22 0.2,-0.15 0.3,-0.35 0.3,-0.62 0,-0.34 -0.15,-0.59 -0.46,-0.75 h -1.46 c -0.3,0.16 -0.45,0.41 -0.45,0.75 0,0.27 0.1,0.47 0.31,0.62 0.21,0.15 0.52,0.22 0.92,0.22 z"
   id="path1174" />
		</g>
	</g>
</g>
<g
   id="g1374"
   transform="translate(3.779685,3.7790551)">
	<g
   id="g1372">
		<path
   fill="#ffffff"
   d="m 5823.52,228.31 h -2.91 l -0.66,1.8 h -0.57 l 2.42,-6.4 h 0.51 l 2.42,6.4 h -0.56 z m -2.73,-0.46 h 2.57 l -1.28,-3.48 z"
   id="path1182" />
		<path
   fill="#ffffff"
   d="m 5830.99,230.1 h -0.54 l -3.68,-5.48 v 5.48 h -0.54 v -6.4 h 0.54 l 3.68,5.48 v -5.48 h 0.54 z"
   id="path1184" />
		<path
   fill="#ffffff"
   d="m 5836.69,228.31 h -2.91 l -0.66,1.8 h -0.57 l 2.42,-6.4 h 0.51 l 2.42,6.4 h -0.56 z m -2.73,-0.46 h 2.57 l -1.28,-3.48 z"
   id="path1186" />
		<path
   fill="#ffffff"
   d="m 5839.94,229.65 h 3.16 v 0.46 h -3.71 v -6.4 h 0.54 v 5.94 z"
   id="path1188" />
		<path
   fill="#ffffff"
   d="m 5845.51,227.19 1.96,-3.49 h 0.62 l -2.31,3.99 v 2.41 h -0.54 v -2.41 l -2.31,-3.99 h 0.64 z"
   id="path1190" />
		<path
   fill="#ffffff"
   d="m 5853.11,228.53 c 0,-0.35 -0.12,-0.63 -0.37,-0.84 -0.25,-0.21 -0.71,-0.4 -1.37,-0.59 -0.66,-0.19 -1.15,-0.39 -1.45,-0.61 -0.43,-0.31 -0.65,-0.72 -0.65,-1.22 0,-0.49 0.2,-0.89 0.6,-1.19 0.4,-0.31 0.92,-0.46 1.54,-0.46 0.42,0 0.8,0.08 1.14,0.25 0.34,0.16 0.6,0.39 0.78,0.69 0.18,0.3 0.28,0.62 0.28,0.98 h -0.54 c 0,-0.44 -0.15,-0.79 -0.45,-1.06 -0.3,-0.27 -0.7,-0.4 -1.2,-0.4 -0.49,0 -0.88,0.11 -1.17,0.33 -0.29,0.22 -0.43,0.5 -0.43,0.86 0,0.33 0.13,0.59 0.39,0.8 0.26,0.21 0.68,0.39 1.25,0.54 0.57,0.16 1.01,0.32 1.3,0.49 0.29,0.17 0.52,0.37 0.67,0.6 0.15,0.23 0.22,0.51 0.22,0.83 0,0.5 -0.2,0.91 -0.6,1.21 -0.4,0.3 -0.93,0.46 -1.59,0.46 -0.45,0 -0.87,-0.08 -1.24,-0.24 -0.38,-0.16 -0.66,-0.39 -0.86,-0.68 -0.19,-0.29 -0.29,-0.62 -0.29,-1 h 0.54 c 0,0.45 0.17,0.81 0.5,1.07 0.33,0.26 0.79,0.39 1.34,0.39 0.5,0 0.9,-0.11 1.2,-0.33 0.3,-0.22 0.46,-0.52 0.46,-0.88 z"
   id="path1192" />
		<path
   fill="#ffffff"
   d="m 5856.02,230.1 h -0.54 v -6.4 h 0.54 z"
   id="path1194" />
		<path
   fill="#ffffff"
   d="m 5861.92,228.53 c 0,-0.35 -0.12,-0.63 -0.37,-0.84 -0.25,-0.21 -0.71,-0.4 -1.37,-0.59 -0.66,-0.19 -1.15,-0.39 -1.45,-0.61 -0.43,-0.31 -0.65,-0.72 -0.65,-1.22 0,-0.49 0.2,-0.89 0.6,-1.19 0.4,-0.31 0.92,-0.46 1.54,-0.46 0.42,0 0.8,0.08 1.14,0.25 0.34,0.16 0.6,0.39 0.78,0.69 0.18,0.3 0.28,0.62 0.28,0.98 h -0.54 c 0,-0.44 -0.15,-0.79 -0.45,-1.06 -0.3,-0.27 -0.7,-0.4 -1.2,-0.4 -0.49,0 -0.88,0.11 -1.17,0.33 -0.29,0.22 -0.43,0.5 -0.43,0.86 0,0.33 0.13,0.59 0.39,0.8 0.26,0.21 0.68,0.39 1.25,0.54 0.57,0.16 1.01,0.32 1.3,0.49 0.29,0.17 0.52,0.37 0.67,0.6 0.15,0.23 0.22,0.51 0.22,0.83 0,0.5 -0.2,0.91 -0.6,1.21 -0.4,0.3 -0.93,0.46 -1.59,0.46 -0.45,0 -0.87,-0.08 -1.24,-0.24 -0.38,-0.16 -0.66,-0.39 -0.86,-0.68 -0.19,-0.29 -0.29,-0.62 -0.29,-1 h 0.54 c 0,0.45 0.17,0.81 0.5,1.07 0.33,0.26 0.79,0.39 1.34,0.39 0.5,0 0.9,-0.11 1.2,-0.33 0.3,-0.22 0.46,-0.52 0.46,-0.88 z"
   id="path1196" />
		<path
   fill="#ffffff"
   d="m 5871.62,227.25 c 0,0.59 -0.1,1.11 -0.31,1.55 -0.2,0.45 -0.49,0.79 -0.87,1.03 -0.38,0.24 -0.81,0.36 -1.31,0.36 -0.75,0 -1.35,-0.27 -1.81,-0.8 -0.46,-0.53 -0.69,-1.26 -0.69,-2.16 v -0.66 c 0,-0.58 0.1,-1.1 0.31,-1.55 0.21,-0.45 0.5,-0.79 0.88,-1.04 0.38,-0.24 0.81,-0.36 1.3,-0.36 0.49,0 0.93,0.12 1.3,0.36 0.38,0.24 0.67,0.57 0.87,1.01 0.2,0.43 0.31,0.94 0.32,1.51 v 0.75 z m -0.54,-0.69 c 0,-0.77 -0.17,-1.37 -0.52,-1.81 -0.35,-0.44 -0.83,-0.65 -1.43,-0.65 -0.59,0 -1.07,0.22 -1.42,0.66 -0.35,0.44 -0.53,1.05 -0.53,1.83 v 0.67 c 0,0.76 0.18,1.36 0.53,1.8 0.35,0.44 0.83,0.67 1.43,0.67 0.61,0 1.09,-0.22 1.43,-0.66 0.34,-0.44 0.51,-1.05 0.51,-1.83 z"
   id="path1198" />
		<path
   fill="#ffffff"
   d="m 5877.05,227.11 h -2.98 v 2.99 h -0.54 v -6.4 h 3.96 v 0.46 h -3.42 v 2.49 h 2.98 z"
   id="path1200" />
		<path
   fill="#ffffff"
   d="m 5882.51,230.1 h -0.54 v -6.4 h 0.54 z"
   id="path1202" />
		<path
   fill="#ffffff"
   d="m 5889.55,230.1 h -0.54 l -3.68,-5.48 v 5.48 h -0.54 v -6.4 h 0.54 l 3.68,5.48 v -5.48 h 0.54 z"
   id="path1204" />
		<path
   fill="#ffffff"
   d="m 5895.93,224.16 h -2.19 v 5.94 h -0.54 v -5.94 h -2.19 v -0.46 h 4.92 z"
   id="path1206" />
		<path
   fill="#ffffff"
   d="m 5901.04,227.04 h -2.99 v 2.61 h 3.44 v 0.46 h -3.98 v -6.4 h 3.96 v 0.46 h -3.42 v 2.42 h 2.99 z"
   id="path1208" />
		<path
   fill="#ffffff"
   d="m 5905.55,227.44 h -1.86 v 2.67 h -0.54 v -6.4 h 2.08 c 0.68,0 1.22,0.17 1.6,0.5 0.38,0.33 0.58,0.79 0.58,1.39 0,0.41 -0.12,0.77 -0.36,1.08 -0.24,0.31 -0.56,0.53 -0.97,0.65 l 1.6,2.72 v 0.06 h -0.58 z m -1.85,-0.46 h 1.66 c 0.45,0 0.82,-0.13 1.09,-0.39 0.27,-0.26 0.41,-0.59 0.41,-1 0,-0.45 -0.14,-0.8 -0.43,-1.05 -0.29,-0.25 -0.69,-0.37 -1.21,-0.37 h -1.53 v 2.81 z"
   id="path1210" />
		<path
   fill="#ffffff"
   d="m 5910.93,227.5 h -2.11 v -0.44 h 2.11 z"
   id="path1212" />
		<path
   fill="#ffffff"
   d="m 5916.15,228.53 c 0,-0.35 -0.12,-0.63 -0.37,-0.84 -0.25,-0.21 -0.71,-0.4 -1.37,-0.59 -0.66,-0.19 -1.15,-0.39 -1.45,-0.61 -0.43,-0.31 -0.65,-0.72 -0.65,-1.22 0,-0.49 0.2,-0.89 0.6,-1.19 0.4,-0.31 0.92,-0.46 1.54,-0.46 0.42,0 0.8,0.08 1.14,0.25 0.34,0.16 0.6,0.39 0.78,0.69 0.18,0.3 0.28,0.62 0.28,0.98 h -0.54 c 0,-0.44 -0.15,-0.79 -0.45,-1.06 -0.3,-0.27 -0.7,-0.4 -1.2,-0.4 -0.49,0 -0.88,0.11 -1.17,0.33 -0.29,0.22 -0.43,0.5 -0.43,0.86 0,0.33 0.13,0.59 0.39,0.8 0.26,0.21 0.68,0.39 1.25,0.54 0.57,0.16 1.01,0.32 1.3,0.49 0.29,0.17 0.52,0.37 0.67,0.6 0.15,0.23 0.22,0.51 0.22,0.83 0,0.5 -0.2,0.91 -0.6,1.21 -0.4,0.3 -0.93,0.46 -1.59,0.46 -0.45,0 -0.87,-0.08 -1.24,-0.24 -0.38,-0.16 -0.66,-0.39 -0.86,-0.68 -0.19,-0.29 -0.29,-0.62 -0.29,-1 h 0.54 c 0,0.45 0.17,0.81 0.5,1.07 0.33,0.26 0.79,0.39 1.34,0.39 0.5,0 0.9,-0.11 1.2,-0.33 0.3,-0.22 0.46,-0.52 0.46,-0.88 z"
   id="path1214" />
		<path
   fill="#ffffff"
   d="m 5922.75,224.16 h -2.19 v 5.94 h -0.54 v -5.94 h -2.19 v -0.46 h 4.92 z"
   id="path1216" />
		<path
   fill="#ffffff"
   d="m 5927.43,228.31 h -2.91 l -0.66,1.8 h -0.57 l 2.42,-6.4 h 0.51 l 2.42,6.4 h -0.56 z m -2.74,-0.46 h 2.57 l -1.28,-3.48 z"
   id="path1218" />
		<path
   fill="#ffffff"
   d="m 5933.91,224.16 h -2.19 v 5.94 h -0.54 v -5.94 h -2.19 v -0.46 h 4.92 z"
   id="path1220" />
		<path
   fill="#ffffff"
   d="m 5939.01,227.04 h -2.99 v 2.61 h 3.44 v 0.46 h -3.98 v -6.4 h 3.96 v 0.46 h -3.42 v 2.42 h 2.99 z"
   id="path1222" />
		<path
   fill="#ffffff"
   d="m 5945.8,229.31 0.04,0.14 0.04,-0.14 2.01,-5.61 h 0.59 l -2.38,6.4 h -0.52 l -2.38,-6.4 h 0.59 z"
   id="path1224" />
		<path
   fill="#ffffff"
   d="m 5950.62,230.1 h -0.54 v -6.4 h 0.54 z"
   id="path1226" />
		<path
   fill="#ffffff"
   d="m 5955.28,227.44 h -1.86 v 2.67 h -0.54 v -6.4 h 2.08 c 0.68,0 1.22,0.17 1.6,0.5 0.38,0.33 0.58,0.79 0.58,1.39 0,0.41 -0.12,0.77 -0.36,1.08 -0.24,0.31 -0.56,0.53 -0.97,0.65 l 1.6,2.72 v 0.06 h -0.58 z m -1.86,-0.46 h 1.66 c 0.45,0 0.82,-0.13 1.09,-0.39 0.27,-0.26 0.41,-0.59 0.41,-1 0,-0.45 -0.14,-0.8 -0.43,-1.05 -0.29,-0.25 -0.69,-0.37 -1.21,-0.37 h -1.53 v 2.81 z"
   id="path1228" />
		<path
   fill="#ffffff"
   d="m 5963.14,224.16 h -2.19 v 5.94 h -0.54 v -5.94 h -2.19 v -0.46 h 4.92 z"
   id="path1230" />
		<path
   fill="#ffffff"
   d="m 5969.12,223.7 v 4.37 c 0,0.43 -0.1,0.81 -0.29,1.12 -0.19,0.31 -0.45,0.56 -0.79,0.74 -0.34,0.17 -0.73,0.26 -1.18,0.26 -0.67,0 -1.21,-0.18 -1.62,-0.55 -0.41,-0.37 -0.62,-0.88 -0.63,-1.53 v -4.41 h 0.54 v 4.33 c 0,0.54 0.15,0.96 0.46,1.25 0.31,0.3 0.73,0.45 1.25,0.45 0.52,0 0.94,-0.15 1.25,-0.45 0.31,-0.3 0.46,-0.71 0.46,-1.25 v -4.33 z"
   id="path1232" />
		<path
   fill="#ffffff"
   d="m 5974.52,228.31 h -2.91 l -0.66,1.8 h -0.57 l 2.42,-6.4 h 0.51 l 2.42,6.4 h -0.56 z m -2.74,-0.46 h 2.57 l -1.28,-3.48 z"
   id="path1234" />
		<path
   fill="#ffffff"
   d="m 5977.77,229.65 h 3.16 v 0.46 h -3.71 v -6.4 h 0.54 v 5.94 z"
   id="path1236" />
		<path
   fill="#ffffff"
   d="m 5986.42,228.38 0.2,0.99 0.24,-0.95 1.39,-4.72 h 0.49 l 1.37,4.72 0.24,0.96 0.21,-1 1.16,-4.67 h 0.55 l -1.64,6.4 h -0.52 l -1.45,-5.01 -0.16,-0.63 -0.16,0.63 -1.48,5.01 h -0.52 l -1.63,-6.4 h 0.55 z"
   id="path1238" />
		<path
   fill="#ffffff"
   d="m 5997.11,228.31 h -2.91 l -0.66,1.8 h -0.57 l 2.42,-6.4 h 0.51 l 2.42,6.4 h -0.56 z m -2.73,-0.46 h 2.57 l -1.28,-3.48 z"
   id="path1240" />
		<path
   fill="#ffffff"
   d="m 6003.59,224.16 h -2.19 v 5.94 h -0.54 v -5.94 h -2.19 v -0.46 h 4.92 z"
   id="path1242" />
		<path
   fill="#ffffff"
   d="m 6008.7,227.04 h -2.99 v 2.61 h 3.44 v 0.46 h -3.98 v -6.4 h 3.96 v 0.46 h -3.42 v 2.42 h 2.99 z"
   id="path1244" />
		<path
   fill="#ffffff"
   d="m 6013.22,227.44 h -1.86 v 2.67 h -0.54 v -6.4 h 2.08 c 0.68,0 1.22,0.17 1.6,0.5 0.38,0.33 0.58,0.79 0.58,1.39 0,0.41 -0.12,0.77 -0.36,1.08 -0.24,0.31 -0.56,0.53 -0.97,0.65 l 1.6,2.72 v 0.06 h -0.58 z m -1.86,-0.46 h 1.66 c 0.45,0 0.82,-0.13 1.09,-0.39 0.27,-0.26 0.41,-0.59 0.41,-1 0,-0.45 -0.14,-0.8 -0.43,-1.05 -0.29,-0.25 -0.69,-0.37 -1.21,-0.37 h -1.53 v 2.81 z"
   id="path1246" />
		<path
   fill="#ffffff"
   d="m 5811.56,234.93 h -2.19 v 5.94 h -0.54 v -5.94 h -2.19 v -0.46 h 4.92 z"
   id="path1248" />
		<path
   fill="#ffffff"
   d="m 5815.52,238.21 h -1.86 v 2.67 h -0.54 v -6.4 h 2.08 c 0.68,0 1.22,0.17 1.6,0.5 0.38,0.33 0.58,0.79 0.58,1.39 0,0.41 -0.12,0.77 -0.36,1.08 -0.24,0.31 -0.56,0.53 -0.97,0.65 l 1.6,2.72 v 0.06 h -0.58 z m -1.86,-0.46 h 1.66 c 0.45,0 0.82,-0.13 1.09,-0.39 0.27,-0.26 0.41,-0.59 0.41,-1 0,-0.45 -0.14,-0.8 -0.43,-1.05 -0.29,-0.25 -0.69,-0.37 -1.21,-0.37 h -1.53 v 2.81 z"
   id="path1250" />
		<path
   fill="#ffffff"
   d="m 5822.84,239.08 h -2.91 l -0.66,1.8 h -0.57 l 2.42,-6.4 h 0.51 l 2.42,6.4 h -0.56 z m -2.74,-0.46 h 2.57 l -1.28,-3.48 z"
   id="path1252" />
		<path
   fill="#ffffff"
   d="m 5825.55,240.87 v -6.4 h 1.79 c 0.52,0 0.99,0.12 1.41,0.36 0.42,0.24 0.74,0.58 0.97,1.03 0.23,0.45 0.35,0.95 0.35,1.52 v 0.59 c 0,0.57 -0.12,1.08 -0.35,1.52 -0.23,0.44 -0.56,0.78 -0.98,1.02 -0.42,0.24 -0.9,0.36 -1.45,0.36 z m 0.54,-5.94 v 5.48 h 1.21 c 0.67,0 1.21,-0.22 1.62,-0.67 0.41,-0.45 0.61,-1.05 0.61,-1.81 v -0.56 c 0,-0.74 -0.2,-1.33 -0.6,-1.77 -0.4,-0.44 -0.93,-0.67 -1.59,-0.67 z"
   id="path1254" />
		<path
   fill="#ffffff"
   d="m 5835.51,237.81 h -2.99 v 2.61 h 3.44 v 0.46 h -3.98 v -6.4 h 3.96 v 0.46 h -3.42 v 2.42 h 2.99 z"
   id="path1256" />
		<path
   fill="#ffffff"
   d="m 5841.03,240.87 h -0.54 v -6.4 h 0.54 z"
   id="path1258" />
		<path
   fill="#ffffff"
   d="m 5848.07,240.87 h -0.54 l -3.68,-5.48 v 5.48 h -0.54 v -6.4 h 0.54 l 3.68,5.48 v -5.48 h 0.54 z"
   id="path1260" />
		<path
   fill="#ffffff"
   d="m 5857.13,234.93 h -2.19 v 5.94 h -0.54 v -5.94 h -2.19 v -0.46 h 4.92 z"
   id="path1262" />
		<path
   fill="#ffffff"
   d="m 5863.44,240.87 h -0.54 v -3.07 h -3.66 v 3.07 h -0.54 v -6.4 h 0.54 v 2.87 h 3.66 v -2.87 h 0.54 z"
   id="path1264" />
		<path
   fill="#ffffff"
   d="m 5869.14,237.81 h -2.99 v 2.61 h 3.44 v 0.46 h -3.98 v -6.4 h 3.96 v 0.46 h -3.42 v 2.42 h 2.99 z"
   id="path1266" />
		<path
   fill="#ffffff"
   d="m 5878.52,238.88 c -0.07,0.67 -0.31,1.19 -0.72,1.55 -0.41,0.36 -0.95,0.54 -1.63,0.54 -0.47,0 -0.89,-0.12 -1.26,-0.36 -0.36,-0.24 -0.65,-0.57 -0.85,-1.01 -0.2,-0.44 -0.3,-0.93 -0.3,-1.49 v -0.83 c 0,-0.57 0.1,-1.07 0.3,-1.51 0.2,-0.44 0.49,-0.78 0.86,-1.02 0.37,-0.24 0.8,-0.36 1.29,-0.36 0.69,0 1.23,0.18 1.62,0.55 0.4,0.37 0.63,0.88 0.69,1.53 h -0.54 c -0.14,-1.09 -0.73,-1.63 -1.77,-1.63 -0.58,0 -1.04,0.22 -1.39,0.65 -0.34,0.43 -0.52,1.03 -0.52,1.8 v 0.78 c 0,0.74 0.17,1.33 0.5,1.77 0.33,0.44 0.79,0.66 1.36,0.66 0.56,0 0.99,-0.14 1.28,-0.41 0.29,-0.27 0.46,-0.68 0.53,-1.22 h 0.55 z"
   id="path1268" />
		<path
   fill="#ffffff"
   d="m 5885.11,238.02 c 0,0.59 -0.1,1.11 -0.31,1.55 -0.2,0.45 -0.49,0.79 -0.87,1.03 -0.38,0.24 -0.81,0.36 -1.31,0.36 -0.75,0 -1.35,-0.27 -1.81,-0.8 -0.46,-0.53 -0.69,-1.26 -0.69,-2.16 v -0.66 c 0,-0.58 0.1,-1.1 0.31,-1.55 0.21,-0.45 0.5,-0.79 0.88,-1.04 0.38,-0.24 0.81,-0.36 1.3,-0.36 0.49,0 0.93,0.12 1.3,0.36 0.38,0.24 0.67,0.57 0.87,1.01 0.2,0.43 0.31,0.94 0.32,1.51 v 0.75 z m -0.54,-0.69 c 0,-0.77 -0.17,-1.37 -0.52,-1.81 -0.35,-0.44 -0.83,-0.65 -1.43,-0.65 -0.59,0 -1.07,0.22 -1.42,0.66 -0.35,0.44 -0.53,1.05 -0.53,1.83 v 0.67 c 0,0.76 0.18,1.36 0.53,1.8 0.35,0.44 0.83,0.67 1.43,0.67 0.61,0 1.09,-0.22 1.43,-0.66 0.34,-0.44 0.51,-1.05 0.51,-1.83 z"
   id="path1270" />
		<path
   fill="#ffffff"
   d="m 5891.77,240.87 h -0.54 l -3.68,-5.48 v 5.48 h -0.54 v -6.4 h 0.54 l 3.68,5.48 v -5.48 h 0.54 z"
   id="path1272" />
		<path
   fill="#ffffff"
   d="m 5898.15,234.93 h -2.19 v 5.94 h -0.54 v -5.94 h -2.19 v -0.46 h 4.92 z"
   id="path1274" />
		<path
   fill="#ffffff"
   d="m 5903.26,237.81 h -2.99 v 2.61 h 3.44 v 0.46 h -3.98 v -6.4 h 3.96 v 0.46 h -3.42 v 2.42 h 2.99 z"
   id="path1276" />
		<path
   fill="#ffffff"
   d="m 5907.33,237.18 1.8,-2.71 h 0.65 l -2.12,3.16 2.18,3.24 h -0.65 l -1.86,-2.79 -1.87,2.79 h -0.64 l 2.19,-3.24 -2.12,-3.16 h 0.65 z"
   id="path1278" />
		<path
   fill="#ffffff"
   d="m 5915.77,234.93 h -2.19 v 5.94 h -0.54 v -5.94 h -2.19 v -0.46 h 4.92 z"
   id="path1280" />
		<path
   fill="#ffffff"
   d="m 5924.63,238.02 c 0,0.59 -0.1,1.11 -0.31,1.55 -0.2,0.45 -0.49,0.79 -0.87,1.03 -0.38,0.24 -0.81,0.36 -1.31,0.36 -0.75,0 -1.35,-0.27 -1.81,-0.8 -0.46,-0.53 -0.69,-1.26 -0.69,-2.16 v -0.66 c 0,-0.58 0.1,-1.1 0.31,-1.55 0.21,-0.45 0.5,-0.79 0.88,-1.04 0.38,-0.24 0.81,-0.36 1.3,-0.36 0.49,0 0.93,0.12 1.3,0.36 0.38,0.24 0.67,0.57 0.87,1.01 0.2,0.43 0.31,0.94 0.32,1.51 v 0.75 z m -0.54,-0.69 c 0,-0.77 -0.17,-1.37 -0.52,-1.81 -0.35,-0.44 -0.83,-0.65 -1.43,-0.65 -0.59,0 -1.07,0.22 -1.42,0.66 -0.35,0.44 -0.53,1.05 -0.53,1.83 v 0.67 c 0,0.76 0.18,1.36 0.53,1.8 0.35,0.44 0.83,0.67 1.43,0.67 0.61,0 1.09,-0.22 1.43,-0.66 0.34,-0.44 0.51,-1.05 0.51,-1.83 z"
   id="path1282" />
		<path
   fill="#ffffff"
   d="m 5930.05,237.88 h -2.98 v 2.99 h -0.54 v -6.4 h 3.96 v 0.46 h -3.42 v 2.49 h 2.98 z"
   id="path1284" />
		<path
   fill="#ffffff"
   d="m 5935.52,240.87 h -0.54 v -6.4 h 0.54 z"
   id="path1286" />
		<path
   fill="#ffffff"
   d="m 5942.56,240.87 h -0.54 l -3.68,-5.48 v 5.48 h -0.54 v -6.4 h 0.54 l 3.68,5.48 v -5.48 h 0.54 z"
   id="path1288" />
		<path
   fill="#ffffff"
   d="m 5944.73,240.87 v -6.4 h 1.79 c 0.52,0 0.99,0.12 1.41,0.36 0.42,0.24 0.74,0.58 0.97,1.03 0.23,0.45 0.35,0.95 0.35,1.52 v 0.59 c 0,0.57 -0.12,1.08 -0.35,1.52 -0.23,0.44 -0.56,0.78 -0.98,1.02 -0.42,0.24 -0.9,0.36 -1.45,0.36 z m 0.54,-5.94 v 5.48 h 1.21 c 0.67,0 1.21,-0.22 1.62,-0.67 0.41,-0.45 0.61,-1.05 0.61,-1.81 v -0.56 c 0,-0.74 -0.2,-1.33 -0.6,-1.77 -0.4,-0.44 -0.93,-0.67 -1.59,-0.67 z"
   id="path1290" />
		<path
   fill="#ffffff"
   d="m 5951.82,240.87 h -0.54 v -6.4 h 0.54 z"
   id="path1292" />
		<path
   fill="#ffffff"
   d="m 5957.63,239.08 h -2.91 l -0.66,1.8 h -0.57 l 2.42,-6.4 h 0.51 l 2.42,6.4 h -0.56 z m -2.74,-0.46 h 2.57 l -1.28,-3.48 z"
   id="path1294" />
		<path
   fill="#ffffff"
   d="m 5959.58,236.05 -0.31,-0.23 c 0.26,-0.35 0.4,-0.73 0.41,-1.12 v -0.58 h 0.52 v 0.44 c 0,0.62 -0.21,1.11 -0.62,1.49 z"
   id="path1296" />
		<path
   fill="#ffffff"
   d="m 5965.57,239.3 c 0,-0.35 -0.12,-0.63 -0.37,-0.84 -0.25,-0.21 -0.71,-0.4 -1.37,-0.59 -0.66,-0.19 -1.15,-0.39 -1.45,-0.61 -0.43,-0.31 -0.65,-0.72 -0.65,-1.22 0,-0.49 0.2,-0.89 0.6,-1.19 0.4,-0.31 0.92,-0.46 1.54,-0.46 0.42,0 0.8,0.08 1.14,0.25 0.34,0.16 0.6,0.39 0.78,0.69 0.18,0.3 0.28,0.62 0.28,0.98 h -0.54 c 0,-0.44 -0.15,-0.79 -0.45,-1.06 -0.3,-0.27 -0.7,-0.4 -1.2,-0.4 -0.49,0 -0.88,0.11 -1.17,0.33 -0.29,0.22 -0.43,0.5 -0.43,0.86 0,0.33 0.13,0.59 0.39,0.8 0.26,0.21 0.68,0.39 1.25,0.54 0.57,0.16 1.01,0.32 1.3,0.49 0.29,0.17 0.52,0.37 0.67,0.6 0.15,0.23 0.22,0.51 0.22,0.83 0,0.5 -0.2,0.91 -0.6,1.21 -0.4,0.3 -0.93,0.46 -1.59,0.46 -0.45,0 -0.87,-0.08 -1.24,-0.24 -0.38,-0.16 -0.66,-0.39 -0.86,-0.68 -0.19,-0.29 -0.29,-0.62 -0.29,-1 h 0.54 c 0,0.45 0.17,0.81 0.5,1.07 0.33,0.26 0.79,0.39 1.34,0.39 0.5,0 0.9,-0.11 1.2,-0.33 0.3,-0.22 0.46,-0.51 0.46,-0.88 z"
   id="path1298" />
		<path
   fill="#ffffff"
   d="m 5975.31,240.87 h -0.54 l -3.68,-5.48 v 5.48 h -0.54 v -6.4 h 0.54 l 3.68,5.48 v -5.48 h 0.54 z"
   id="path1300" />
		<path
   fill="#ffffff"
   d="m 5981.01,239.08 h -2.91 l -0.66,1.8 h -0.57 l 2.42,-6.4 h 0.51 l 2.42,6.4 h -0.56 z m -2.74,-0.46 h 2.57 l -1.28,-3.48 z"
   id="path1302" />
		<path
   fill="#ffffff"
   d="m 5987.49,234.93 h -2.19 v 5.94 h -0.54 v -5.94 h -2.19 v -0.46 h 4.92 z"
   id="path1304" />
		<path
   fill="#ffffff"
   d="m 5989.72,240.87 h -0.54 v -6.4 h 0.54 z"
   id="path1306" />
		<path
   fill="#ffffff"
   d="m 5996.73,238.02 c 0,0.59 -0.1,1.11 -0.31,1.55 -0.2,0.45 -0.49,0.79 -0.87,1.03 -0.38,0.24 -0.81,0.36 -1.31,0.36 -0.75,0 -1.35,-0.27 -1.81,-0.8 -0.46,-0.53 -0.69,-1.26 -0.69,-2.16 v -0.66 c 0,-0.58 0.1,-1.1 0.31,-1.55 0.21,-0.45 0.5,-0.79 0.88,-1.04 0.38,-0.24 0.81,-0.36 1.3,-0.36 0.49,0 0.93,0.12 1.3,0.36 0.38,0.24 0.67,0.57 0.87,1.01 0.2,0.43 0.31,0.94 0.32,1.51 v 0.75 z m -0.54,-0.69 c 0,-0.77 -0.17,-1.37 -0.52,-1.81 -0.35,-0.44 -0.83,-0.65 -1.43,-0.65 -0.59,0 -1.07,0.22 -1.42,0.66 -0.35,0.44 -0.53,1.05 -0.53,1.83 v 0.67 c 0,0.76 0.18,1.36 0.53,1.8 0.35,0.44 0.83,0.67 1.43,0.67 0.61,0 1.09,-0.22 1.43,-0.66 0.34,-0.44 0.51,-1.05 0.51,-1.83 z"
   id="path1308" />
		<path
   fill="#ffffff"
   d="m 6003.39,240.87 h -0.54 l -3.68,-5.48 v 5.48 h -0.54 v -6.4 h 0.54 l 3.68,5.48 v -5.48 h 0.54 z"
   id="path1310" />
		<path
   fill="#ffffff"
   d="m 6009.09,239.08 h -2.91 l -0.66,1.8 h -0.57 l 2.42,-6.4 h 0.51 l 2.42,6.4 h -0.56 z m -2.74,-0.46 h 2.57 l -1.28,-3.48 z"
   id="path1312" />
		<path
   fill="#ffffff"
   d="m 6012.34,240.42 h 3.16 v 0.46 h -3.71 v -6.4 h 0.54 v 5.94 z"
   id="path1314" />
		<path
   fill="#ffffff"
   d="m 5848.24,248.98 h -1.86 v 2.67 h -0.54 v -6.4 h 2.08 c 0.68,0 1.22,0.17 1.6,0.5 0.38,0.33 0.58,0.79 0.58,1.39 0,0.41 -0.12,0.77 -0.36,1.08 -0.24,0.31 -0.56,0.53 -0.97,0.65 l 1.6,2.72 v 0.06 h -0.58 z m -1.86,-0.46 h 1.66 c 0.45,0 0.82,-0.13 1.09,-0.39 0.27,-0.26 0.41,-0.59 0.41,-1 0,-0.45 -0.14,-0.8 -0.43,-1.05 -0.29,-0.25 -0.69,-0.37 -1.21,-0.37 h -1.53 v 2.81 z"
   id="path1316" />
		<path
   fill="#ffffff"
   d="m 5852.77,251.65 h -0.54 v -6.4 h 0.54 z"
   id="path1318" />
		<path
   fill="#ffffff"
   d="m 5856.97,250.86 0.04,0.14 0.04,-0.14 2.01,-5.61 h 0.59 l -2.38,6.4 h -0.52 l -2.38,-6.4 h 0.59 z"
   id="path1320" />
		<path
   fill="#ffffff"
   d="m 5864.67,248.58 h -2.99 v 2.61 h 3.44 v 0.46 h -3.98 v -6.4 h 3.96 v 0.46 h -3.42 v 2.42 h 2.99 z"
   id="path1322" />
		<path
   fill="#ffffff"
   d="m 5869.18,248.98 h -1.86 v 2.67 h -0.54 v -6.4 h 2.08 c 0.68,0 1.22,0.17 1.6,0.5 0.38,0.33 0.58,0.79 0.58,1.39 0,0.41 -0.12,0.77 -0.36,1.08 -0.24,0.31 -0.56,0.53 -0.97,0.65 l 1.6,2.72 v 0.06 h -0.58 z m -1.86,-0.46 h 1.66 c 0.45,0 0.82,-0.13 1.09,-0.39 0.27,-0.26 0.41,-0.59 0.41,-1 0,-0.45 -0.14,-0.8 -0.43,-1.05 -0.29,-0.25 -0.69,-0.37 -1.21,-0.37 h -1.53 v 2.81 z"
   id="path1324" />
		<path
   fill="#ffffff"
   d="m 5876.32,251.19 h 3.16 v 0.46 h -3.71 v -6.4 h 0.54 v 5.94 z"
   id="path1326" />
		<path
   fill="#ffffff"
   d="m 5881.71,251.65 h -0.54 v -6.4 h 0.54 z"
   id="path1328" />
		<path
   fill="#ffffff"
   d="m 5888.75,251.65 h -0.54 l -3.68,-5.48 v 5.48 h -0.54 v -6.4 h 0.54 l 3.68,5.48 v -5.48 h 0.54 z"
   id="path1330" />
		<path
   fill="#ffffff"
   d="m 5892.36,248.47 -0.9,0.89 v 2.29 h -0.54 v -6.4 h 0.54 v 3.45 l 3.28,-3.45 h 0.68 l -2.68,2.85 2.89,3.55 h -0.66 z"
   id="path1332" />
		<path
   fill="#ffffff"
   d="m 5897.79,251.65 h -0.54 v -6.4 h 0.54 z"
   id="path1334" />
		<path
   fill="#ffffff"
   d="m 5904.83,251.65 h -0.54 l -3.68,-5.48 v 5.48 h -0.54 v -6.4 h 0.54 l 3.68,5.48 v -5.48 h 0.54 z"
   id="path1336" />
		<path
   fill="#ffffff"
   d="m 5911.62,250.89 c -0.19,0.27 -0.48,0.47 -0.88,0.62 -0.4,0.15 -0.85,0.22 -1.34,0.22 -0.5,0 -0.95,-0.12 -1.34,-0.36 -0.39,-0.24 -0.69,-0.58 -0.9,-1.02 -0.21,-0.44 -0.32,-0.94 -0.33,-1.51 v -0.81 c 0,-0.89 0.22,-1.59 0.67,-2.1 0.45,-0.51 1.05,-0.77 1.81,-0.77 0.66,0 1.19,0.17 1.59,0.5 0.4,0.34 0.64,0.8 0.72,1.39 h -0.54 c -0.08,-0.47 -0.27,-0.83 -0.57,-1.07 -0.3,-0.24 -0.7,-0.36 -1.19,-0.36 -0.6,0 -1.07,0.21 -1.42,0.64 -0.35,0.43 -0.52,1.02 -0.52,1.8 v 0.76 c 0,0.49 0.08,0.92 0.25,1.29 0.17,0.37 0.4,0.66 0.71,0.87 0.31,0.21 0.66,0.31 1.07,0.31 0.47,0 0.87,-0.07 1.2,-0.22 0.22,-0.1 0.38,-0.21 0.48,-0.34 v -1.65 h -1.72 v -0.46 h 2.26 v 2.27 z"
   id="path1338" />
		<path
   fill="#ffffff"
   d="m 5916.96,249.04 v 2.61 h -0.54 v -6.4 h 2.18 c 0.67,0 1.19,0.17 1.58,0.51 0.39,0.34 0.58,0.81 0.58,1.4 0,0.6 -0.19,1.06 -0.56,1.39 -0.37,0.33 -0.91,0.49 -1.61,0.49 z m 0,-0.46 h 1.64 c 0.52,0 0.92,-0.12 1.2,-0.37 0.28,-0.25 0.41,-0.6 0.41,-1.04 0,-0.44 -0.14,-0.8 -0.41,-1.06 -0.27,-0.26 -0.66,-0.4 -1.17,-0.4 h -1.67 z"
   id="path1340" />
		<path
   fill="#ffffff"
   d="m 5924.89,248.98 h -1.86 v 2.67 h -0.54 v -6.4 h 2.08 c 0.68,0 1.22,0.17 1.6,0.5 0.38,0.33 0.58,0.79 0.58,1.39 0,0.41 -0.12,0.77 -0.36,1.08 -0.24,0.31 -0.56,0.53 -0.97,0.65 l 1.6,2.72 v 0.06 h -0.58 z m -1.86,-0.46 h 1.66 c 0.45,0 0.82,-0.13 1.09,-0.39 0.27,-0.26 0.41,-0.59 0.41,-1 0,-0.45 -0.14,-0.8 -0.43,-1.05 -0.29,-0.25 -0.69,-0.37 -1.21,-0.37 h -1.53 v 2.81 z"
   id="path1342" />
		<path
   fill="#ffffff"
   d="m 5933.48,248.79 c 0,0.59 -0.1,1.11 -0.31,1.55 -0.2,0.45 -0.49,0.79 -0.87,1.03 -0.38,0.24 -0.81,0.36 -1.31,0.36 -0.75,0 -1.35,-0.27 -1.81,-0.8 -0.46,-0.53 -0.69,-1.26 -0.69,-2.16 v -0.66 c 0,-0.58 0.1,-1.1 0.31,-1.55 0.21,-0.45 0.5,-0.79 0.88,-1.04 0.38,-0.24 0.81,-0.36 1.3,-0.36 0.49,0 0.93,0.12 1.3,0.36 0.38,0.24 0.67,0.57 0.87,1.01 0.2,0.43 0.31,0.94 0.32,1.51 v 0.75 z m -0.54,-0.69 c 0,-0.77 -0.17,-1.37 -0.52,-1.81 -0.35,-0.44 -0.83,-0.65 -1.43,-0.65 -0.59,0 -1.07,0.22 -1.42,0.66 -0.35,0.44 -0.53,1.05 -0.53,1.83 v 0.67 c 0,0.76 0.18,1.36 0.53,1.8 0.35,0.44 0.83,0.67 1.43,0.67 0.61,0 1.09,-0.22 1.43,-0.66 0.34,-0.44 0.51,-1.05 0.51,-1.83 z"
   id="path1344" />
		<path
   fill="#ffffff"
   d="m 5940,250.89 c -0.19,0.27 -0.48,0.47 -0.88,0.62 -0.4,0.15 -0.85,0.22 -1.34,0.22 -0.5,0 -0.95,-0.12 -1.34,-0.36 -0.39,-0.24 -0.69,-0.58 -0.9,-1.02 -0.21,-0.44 -0.32,-0.94 -0.33,-1.51 v -0.81 c 0,-0.89 0.22,-1.59 0.67,-2.1 0.45,-0.51 1.05,-0.77 1.81,-0.77 0.66,0 1.19,0.17 1.59,0.5 0.4,0.34 0.64,0.8 0.72,1.39 h -0.54 c -0.08,-0.47 -0.27,-0.83 -0.57,-1.07 -0.3,-0.24 -0.7,-0.36 -1.19,-0.36 -0.6,0 -1.07,0.21 -1.42,0.64 -0.35,0.43 -0.52,1.02 -0.52,1.8 v 0.76 c 0,0.49 0.08,0.92 0.25,1.29 0.17,0.37 0.4,0.66 0.71,0.87 0.31,0.21 0.66,0.31 1.07,0.31 0.47,0 0.87,-0.07 1.2,-0.22 0.22,-0.1 0.38,-0.21 0.48,-0.34 v -1.65 h -1.72 v -0.46 h 2.26 v 2.27 z"
   id="path1346" />
		<path
   fill="#ffffff"
   d="m 5944.47,248.98 h -1.86 v 2.67 h -0.54 v -6.4 h 2.08 c 0.68,0 1.22,0.17 1.6,0.5 0.38,0.33 0.58,0.79 0.58,1.39 0,0.41 -0.12,0.77 -0.36,1.08 -0.24,0.31 -0.56,0.53 -0.97,0.65 l 1.6,2.72 v 0.06 h -0.58 z m -1.86,-0.46 h 1.66 c 0.45,0 0.82,-0.13 1.09,-0.39 0.27,-0.26 0.41,-0.59 0.41,-1 0,-0.45 -0.14,-0.8 -0.43,-1.05 -0.29,-0.25 -0.69,-0.37 -1.21,-0.37 h -1.53 v 2.81 z"
   id="path1348" />
		<path
   fill="#ffffff"
   d="m 5951.79,249.85 h -2.91 l -0.66,1.8 h -0.57 l 2.42,-6.4 h 0.51 l 2.42,6.4 h -0.56 z m -2.74,-0.46 h 2.57 l -1.28,-3.48 z"
   id="path1350" />
		<path
   fill="#ffffff"
   d="m 5955.21,245.25 2.36,5.65 2.37,-5.65 h 0.72 v 6.4 h -0.54 v -2.79 l 0.04,-2.86 -2.38,5.64 h -0.42 l -2.37,-5.62 0.04,2.82 v 2.8 h -0.54 v -6.4 h 0.72 z"
   id="path1352" />
		<path
   fill="#ffffff"
   d="m 5962.65,251.33 c 0,-0.1 0.03,-0.19 0.1,-0.26 0.07,-0.07 0.16,-0.11 0.27,-0.11 0.11,0 0.21,0.04 0.28,0.11 0.07,0.07 0.1,0.16 0.1,0.26 0,0.1 -0.03,0.19 -0.1,0.25 -0.07,0.07 -0.16,0.1 -0.28,0.1 -0.12,0 -0.21,-0.03 -0.27,-0.1 -0.07,-0.06 -0.1,-0.15 -0.1,-0.25 z"
   id="path1354" />
		<path
   fill="#ffffff"
   d="m 5970.11,248.74 1.96,-3.49 h 0.62 l -2.31,3.99 v 2.41 h -0.54 v -2.41 l -2.31,-3.99 h 0.64 z"
   id="path1356" />
		<path
   fill="#ffffff"
   d="m 5977.7,248.58 h -2.99 v 2.61 h 3.44 v 0.46 h -3.98 v -6.4 h 3.96 v 0.46 h -3.42 v 2.42 h 2.99 z"
   id="path1358" />
		<path
   fill="#ffffff"
   d="m 5983.28,249.85 h -2.91 l -0.66,1.8 h -0.57 l 2.42,-6.4 h 0.51 l 2.42,6.4 h -0.56 z m -2.74,-0.46 h 2.57 l -1.28,-3.48 z"
   id="path1360" />
		<path
   fill="#ffffff"
   d="m 5988.37,248.98 h -1.86 v 2.67 h -0.54 v -6.4 h 2.08 c 0.68,0 1.22,0.17 1.6,0.5 0.38,0.33 0.58,0.79 0.58,1.39 0,0.41 -0.12,0.77 -0.36,1.08 -0.24,0.31 -0.56,0.53 -0.97,0.65 l 1.6,2.72 v 0.06 h -0.58 z m -1.86,-0.46 h 1.66 c 0.45,0 0.82,-0.13 1.09,-0.39 0.27,-0.26 0.41,-0.59 0.41,-1 0,-0.45 -0.14,-0.8 -0.43,-1.05 -0.29,-0.25 -0.69,-0.37 -1.21,-0.37 h -1.53 v 2.81 z"
   id="path1362" />
		<path
   fill="#ffffff"
   d="m 5998.77,251.65 h -4.01 v -0.4 l 2.19,-2.49 c 0.36,-0.42 0.62,-0.76 0.76,-1.04 0.14,-0.28 0.21,-0.54 0.21,-0.8 0,-0.4 -0.12,-0.72 -0.36,-0.96 -0.24,-0.24 -0.56,-0.35 -0.98,-0.35 -0.43,0 -0.78,0.14 -1.04,0.41 -0.26,0.28 -0.4,0.63 -0.4,1.07 h -0.52 c 0,-0.36 0.08,-0.69 0.24,-0.98 0.16,-0.3 0.39,-0.53 0.69,-0.7 0.3,-0.17 0.64,-0.25 1.03,-0.25 0.59,0 1.04,0.15 1.37,0.46 0.33,0.31 0.49,0.73 0.49,1.26 0,0.3 -0.09,0.63 -0.28,0.98 -0.19,0.35 -0.51,0.8 -0.98,1.33 l -1.78,2.02 h 3.36 v 0.44 z"
   id="path1364" />
		<path
   fill="#ffffff"
   d="m 6004.14,248.98 c 0,0.9 -0.17,1.59 -0.5,2.05 -0.33,0.47 -0.82,0.7 -1.46,0.7 -0.63,0 -1.12,-0.23 -1.45,-0.69 -0.33,-0.46 -0.51,-1.13 -0.52,-2 v -1.15 c 0,-0.9 0.17,-1.58 0.5,-2.04 0.33,-0.46 0.82,-0.69 1.46,-0.69 0.63,0 1.12,0.22 1.45,0.67 0.33,0.45 0.51,1.11 0.52,1.98 z m -0.52,-1.15 c 0,-0.73 -0.12,-1.29 -0.36,-1.66 -0.24,-0.38 -0.6,-0.56 -1.08,-0.56 -0.47,0 -0.83,0.18 -1.07,0.55 -0.24,0.37 -0.36,0.91 -0.37,1.62 v 1.26 c 0,0.73 0.12,1.29 0.37,1.67 0.25,0.39 0.61,0.58 1.08,0.58 0.47,0 0.82,-0.19 1.07,-0.57 0.24,-0.38 0.36,-0.93 0.37,-1.66 v -1.23 z"
   id="path1366" />
		<path
   fill="#ffffff"
   d="m 6009.67,248.98 c 0,0.9 -0.17,1.59 -0.5,2.05 -0.33,0.47 -0.82,0.7 -1.46,0.7 -0.63,0 -1.12,-0.23 -1.45,-0.69 -0.33,-0.46 -0.51,-1.13 -0.52,-2 v -1.15 c 0,-0.9 0.17,-1.58 0.5,-2.04 0.33,-0.46 0.82,-0.69 1.46,-0.69 0.63,0 1.12,0.22 1.45,0.67 0.33,0.45 0.51,1.11 0.52,1.98 z m -0.52,-1.15 c 0,-0.73 -0.12,-1.29 -0.36,-1.66 -0.24,-0.38 -0.6,-0.56 -1.08,-0.56 -0.47,0 -0.83,0.18 -1.07,0.55 -0.24,0.37 -0.36,0.91 -0.37,1.62 v 1.26 c 0,0.73 0.12,1.29 0.37,1.67 0.25,0.39 0.61,0.58 1.08,0.58 0.47,0 0.82,-0.19 1.07,-0.57 0.24,-0.38 0.36,-0.93 0.37,-1.66 v -1.23 z"
   id="path1368" />
		<path
   fill="#ffffff"
   d="m 6014.62,248.69 c -0.19,0.28 -0.42,0.49 -0.7,0.64 -0.28,0.15 -0.58,0.23 -0.9,0.23 -0.36,0 -0.68,-0.09 -0.96,-0.28 -0.28,-0.19 -0.49,-0.45 -0.65,-0.78 -0.16,-0.33 -0.23,-0.69 -0.23,-1.09 0,-0.42 0.08,-0.81 0.24,-1.15 0.16,-0.35 0.39,-0.61 0.68,-0.81 0.29,-0.19 0.63,-0.29 1.01,-0.29 0.64,0 1.14,0.23 1.5,0.67 0.36,0.44 0.54,1.09 0.54,1.91 v 0.47 c 0,1.15 -0.25,2.02 -0.74,2.6 -0.49,0.58 -1.24,0.87 -2.25,0.87 h -0.1 v -0.46 h 0.18 c 0.76,-0.01 1.35,-0.23 1.74,-0.65 0.39,-0.42 0.62,-1.04 0.64,-1.88 z m -1.53,0.4 c 0.35,0 0.67,-0.1 0.95,-0.31 0.28,-0.21 0.48,-0.48 0.59,-0.81 v -0.3 c 0,-0.65 -0.13,-1.15 -0.41,-1.51 -0.27,-0.36 -0.64,-0.54 -1.1,-0.54 -0.42,0 -0.76,0.17 -1.02,0.5 -0.26,0.33 -0.4,0.76 -0.4,1.26 0,0.49 0.13,0.9 0.38,1.22 0.26,0.33 0.6,0.49 1.01,0.49 z"
   id="path1370" />
	</g>
</g>
<g
   id="g1462"
   transform="translate(3.779685,3.7790551)">
	<g
   id="g1460">
		<path
   fill="#ffffff"
   d="m 5651.51,243.15 1.3,-2.5 h 0.74 l -1.71,3.12 v 1.86 h -0.66 v -1.86 l -1.72,-3.12 h 0.75 z"
   id="path1376" />
		<path
   fill="#ffffff"
   d="m 5655.24,243.77 h -1.67 v -0.52 h 1.67 z"
   id="path1378" />
		<path
   fill="#ffffff"
   d="m 5658.14,245.63 c -0.04,-0.07 -0.07,-0.2 -0.09,-0.39 -0.29,0.31 -0.64,0.46 -1.05,0.46 -0.36,0 -0.66,-0.1 -0.9,-0.31 -0.23,-0.21 -0.35,-0.47 -0.35,-0.78 0,-0.39 0.15,-0.68 0.44,-0.9 0.29,-0.21 0.71,-0.32 1.24,-0.32 h 0.62 v -0.29 c 0,-0.22 -0.07,-0.4 -0.2,-0.53 -0.13,-0.13 -0.33,-0.2 -0.58,-0.2 -0.23,0 -0.42,0.06 -0.57,0.17 -0.15,0.11 -0.23,0.25 -0.23,0.41 h -0.64 c 0,-0.18 0.07,-0.36 0.2,-0.54 0.13,-0.17 0.31,-0.31 0.53,-0.41 0.22,-0.1 0.47,-0.15 0.74,-0.15 0.43,0 0.76,0.11 1,0.32 0.24,0.21 0.37,0.51 0.38,0.88 v 1.7 c 0,0.34 0.04,0.61 0.13,0.81 v 0.05 h -0.67 z m -1.05,-0.48 c 0.2,0 0.39,-0.05 0.56,-0.15 0.17,-0.1 0.31,-0.24 0.39,-0.4 v -0.76 h -0.5 c -0.77,0 -1.16,0.23 -1.16,0.68 0,0.2 0.07,0.35 0.2,0.46 0.13,0.11 0.3,0.17 0.51,0.17 z"
   id="path1380" />
		<path
   fill="#ffffff"
   d="m 5660.9,243.28 0.82,-1.35 h 0.74 l -1.21,1.83 1.25,1.87 h -0.73 l -0.85,-1.38 -0.85,1.38 h -0.73 l 1.25,-1.87 -1.21,-1.83 h 0.73 z"
   id="path1382" />
		<path
   fill="#ffffff"
   d="m 5663.14,240.95 c 0,-0.1 0.03,-0.19 0.09,-0.26 0.06,-0.07 0.16,-0.11 0.28,-0.11 0.12,0 0.22,0.04 0.28,0.11 0.06,0.07 0.1,0.16 0.1,0.26 0,0.1 -0.03,0.19 -0.1,0.26 -0.07,0.07 -0.16,0.1 -0.28,0.1 -0.12,0 -0.22,-0.03 -0.28,-0.1 -0.06,-0.07 -0.09,-0.16 -0.09,-0.26 z m 0.68,4.68 h -0.63 v -3.7 h 0.63 z"
   id="path1384" />
		<path
   fill="#ffffff"
   d="m 5666.98,244.65 c 0,-0.17 -0.06,-0.3 -0.19,-0.4 -0.13,-0.09 -0.35,-0.18 -0.67,-0.24 -0.32,-0.06 -0.57,-0.15 -0.76,-0.25 -0.19,-0.1 -0.33,-0.21 -0.42,-0.34 -0.09,-0.13 -0.13,-0.29 -0.13,-0.47 0,-0.3 0.13,-0.56 0.38,-0.77 0.26,-0.21 0.58,-0.31 0.98,-0.31 0.42,0 0.76,0.11 1.02,0.32 0.26,0.21 0.39,0.49 0.39,0.83 h -0.64 c 0,-0.17 -0.07,-0.32 -0.22,-0.45 -0.15,-0.13 -0.33,-0.19 -0.56,-0.19 -0.23,0 -0.41,0.05 -0.54,0.15 -0.13,0.1 -0.19,0.23 -0.19,0.39 0,0.15 0.06,0.27 0.18,0.35 0.12,0.08 0.34,0.15 0.65,0.22 0.31,0.07 0.57,0.15 0.77,0.25 0.2,0.1 0.34,0.22 0.44,0.35 0.09,0.14 0.14,0.31 0.14,0.5 0,0.33 -0.13,0.6 -0.4,0.79 -0.26,0.2 -0.61,0.3 -1.03,0.3 -0.3,0 -0.56,-0.05 -0.79,-0.16 -0.23,-0.11 -0.41,-0.25 -0.54,-0.44 -0.13,-0.19 -0.19,-0.39 -0.19,-0.61 h 0.63 c 0.01,0.21 0.1,0.38 0.25,0.5 0.16,0.12 0.37,0.19 0.63,0.19 0.24,0 0.43,-0.05 0.58,-0.15 0.16,-0.07 0.23,-0.2 0.23,-0.36 z"
   id="path1386" />
		<path
   fill="#ffffff"
   d="m 5668.42,245.3 c 0,-0.11 0.03,-0.2 0.1,-0.27 0.06,-0.07 0.16,-0.11 0.29,-0.11 0.13,0 0.23,0.04 0.3,0.11 0.07,0.07 0.1,0.16 0.1,0.27 0,0.1 -0.03,0.19 -0.1,0.26 -0.07,0.07 -0.17,0.11 -0.3,0.11 -0.13,0 -0.23,-0.04 -0.29,-0.11 -0.07,-0.07 -0.1,-0.16 -0.1,-0.26 z m 0,-3.02 c 0,-0.11 0.03,-0.2 0.1,-0.27 0.07,-0.07 0.16,-0.11 0.29,-0.11 0.13,0 0.23,0.04 0.29,0.11 0.06,0.07 0.1,0.16 0.1,0.27 0,0.1 -0.03,0.19 -0.1,0.26 -0.07,0.07 -0.17,0.11 -0.29,0.11 -0.13,0 -0.23,-0.04 -0.29,-0.11 -0.06,-0.07 -0.1,-0.16 -0.1,-0.26 z"
   id="path1388" />
		<path
   fill="#ffffff"
   d="m 5673.61,244.76 1.42,-4.1 h 0.72 l -1.85,4.98 h -0.58 l -1.84,-4.98 h 0.71 z"
   id="path1390" />
		<path
   fill="#ffffff"
   d="m 5676.33,240.95 c 0,-0.1 0.03,-0.19 0.09,-0.26 0.06,-0.07 0.16,-0.11 0.28,-0.11 0.12,0 0.22,0.04 0.28,0.11 0.06,0.07 0.1,0.16 0.1,0.26 0,0.1 -0.03,0.19 -0.1,0.26 -0.07,0.07 -0.16,0.1 -0.28,0.1 -0.12,0 -0.22,-0.03 -0.28,-0.1 -0.06,-0.07 -0.09,-0.16 -0.09,-0.26 z m 0.68,4.68 h -0.63 v -3.7 h 0.63 z"
   id="path1392" />
		<path
   fill="#ffffff"
   d="m 5679.81,242.5 c -0.1,-0.02 -0.2,-0.02 -0.31,-0.02 -0.42,0 -0.7,0.18 -0.84,0.53 v 2.62 h -0.63 v -3.7 h 0.62 l 0.01,0.43 c 0.21,-0.33 0.5,-0.5 0.88,-0.5 0.12,0 0.22,0.02 0.28,0.05 v 0.59 z"
   id="path1394" />
		<path
   fill="#ffffff"
   d="m 5681.42,241.03 v 0.9 h 0.69 v 0.49 h -0.69 v 2.3 c 0,0.15 0.03,0.26 0.09,0.33 0.06,0.07 0.17,0.11 0.31,0.11 0.07,0 0.17,-0.01 0.3,-0.04 v 0.51 c -0.17,0.05 -0.33,0.07 -0.49,0.07 -0.28,0 -0.5,-0.09 -0.64,-0.26 -0.14,-0.17 -0.22,-0.41 -0.22,-0.73 v -2.29 h -0.67 v -0.49 h 0.67 v -0.9 z"
   id="path1396" />
		<path
   fill="#ffffff"
   d="m 5685.13,245.26 c -0.25,0.29 -0.61,0.43 -1.08,0.43 -0.39,0 -0.69,-0.11 -0.9,-0.34 -0.21,-0.23 -0.31,-0.57 -0.31,-1.02 v -2.41 h 0.63 v 2.39 c 0,0.56 0.23,0.84 0.68,0.84 0.48,0 0.8,-0.18 0.96,-0.54 v -2.69 h 0.63 v 3.7 h -0.6 z"
   id="path1398" />
		<path
   fill="#ffffff"
   d="m 5688.99,245.63 c -0.04,-0.07 -0.07,-0.2 -0.09,-0.39 -0.29,0.31 -0.64,0.46 -1.05,0.46 -0.36,0 -0.66,-0.1 -0.9,-0.31 -0.23,-0.21 -0.35,-0.47 -0.35,-0.78 0,-0.39 0.15,-0.68 0.44,-0.9 0.29,-0.21 0.71,-0.32 1.24,-0.32 h 0.62 v -0.29 c 0,-0.22 -0.07,-0.4 -0.2,-0.53 -0.13,-0.13 -0.33,-0.2 -0.58,-0.2 -0.23,0 -0.42,0.06 -0.57,0.17 -0.15,0.11 -0.23,0.25 -0.23,0.41 h -0.64 c 0,-0.18 0.07,-0.36 0.2,-0.54 0.13,-0.17 0.31,-0.31 0.53,-0.41 0.22,-0.1 0.47,-0.15 0.74,-0.15 0.43,0 0.76,0.11 1,0.32 0.24,0.21 0.37,0.51 0.38,0.88 v 1.7 c 0,0.34 0.04,0.61 0.13,0.81 v 0.05 h -0.67 z m -1.05,-0.48 c 0.2,0 0.39,-0.05 0.56,-0.15 0.17,-0.1 0.31,-0.24 0.39,-0.4 v -0.76 h -0.5 c -0.77,0 -1.16,0.23 -1.16,0.68 0,0.2 0.07,0.35 0.2,0.46 0.13,0.11 0.3,0.17 0.51,0.17 z"
   id="path1400" />
		<path
   fill="#ffffff"
   d="m 5691.2,245.63 h -0.63 v -5.25 h 0.63 z"
   id="path1402" />
		<path
   fill="#ffffff"
   d="m 5695.12,244.06 0.1,0.66 0.14,-0.59 0.98,-3.47 h 0.55 l 0.96,3.47 0.14,0.6 0.11,-0.67 0.77,-3.4 h 0.66 l -1.21,4.98 h -0.6 l -1.03,-3.63 -0.08,-0.38 -0.08,0.38 -1.06,3.63 h -0.6 l -1.2,-4.98 h 0.66 z"
   id="path1404" />
		<path
   fill="#ffffff"
   d="m 5702.33,245.63 c -0.04,-0.07 -0.07,-0.2 -0.09,-0.39 -0.29,0.31 -0.64,0.46 -1.05,0.46 -0.36,0 -0.66,-0.1 -0.9,-0.31 -0.23,-0.21 -0.35,-0.47 -0.35,-0.78 0,-0.39 0.15,-0.68 0.44,-0.9 0.29,-0.21 0.71,-0.32 1.24,-0.32 h 0.62 v -0.29 c 0,-0.22 -0.07,-0.4 -0.2,-0.53 -0.13,-0.13 -0.33,-0.2 -0.58,-0.2 -0.23,0 -0.42,0.06 -0.57,0.17 -0.15,0.11 -0.23,0.25 -0.23,0.41 h -0.64 c 0,-0.18 0.07,-0.36 0.2,-0.54 0.13,-0.17 0.31,-0.31 0.53,-0.41 0.22,-0.1 0.47,-0.15 0.74,-0.15 0.43,0 0.76,0.11 1,0.32 0.24,0.21 0.37,0.51 0.38,0.88 v 1.7 c 0,0.34 0.04,0.61 0.13,0.81 v 0.05 h -0.67 z m -1.05,-0.48 c 0.2,0 0.39,-0.05 0.56,-0.15 0.17,-0.1 0.31,-0.24 0.39,-0.4 v -0.76 h -0.5 c -0.77,0 -1.16,0.23 -1.16,0.68 0,0.2 0.07,0.35 0.2,0.46 0.13,0.11 0.3,0.17 0.51,0.17 z"
   id="path1406" />
		<path
   fill="#ffffff"
   d="m 5704.71,241.03 v 0.9 h 0.69 v 0.49 h -0.69 v 2.3 c 0,0.15 0.03,0.26 0.09,0.33 0.06,0.07 0.17,0.11 0.31,0.11 0.07,0 0.17,-0.01 0.3,-0.04 v 0.51 c -0.17,0.05 -0.33,0.07 -0.49,0.07 -0.28,0 -0.5,-0.09 -0.64,-0.26 -0.14,-0.17 -0.22,-0.41 -0.22,-0.73 v -2.29 h -0.67 v -0.49 h 0.67 v -0.9 z"
   id="path1408" />
		<path
   fill="#ffffff"
   d="m 5707.67,245.7 c -0.5,0 -0.91,-0.16 -1.22,-0.49 -0.31,-0.33 -0.47,-0.77 -0.47,-1.32 v -0.12 c 0,-0.37 0.07,-0.69 0.21,-0.98 0.14,-0.29 0.34,-0.51 0.59,-0.68 0.25,-0.16 0.52,-0.24 0.82,-0.24 0.48,0 0.85,0.16 1.12,0.48 0.27,0.32 0.4,0.77 0.4,1.36 v 0.26 h -2.5 c 0.01,0.36 0.12,0.66 0.32,0.88 0.2,0.22 0.46,0.34 0.78,0.34 0.22,0 0.41,-0.05 0.57,-0.14 0.15,-0.09 0.29,-0.21 0.41,-0.36 l 0.39,0.3 c -0.33,0.47 -0.8,0.71 -1.42,0.71 z m -0.08,-3.32 c -0.25,0 -0.47,0.09 -0.64,0.28 -0.17,0.19 -0.28,0.45 -0.32,0.78 h 1.85 v -0.05 c -0.02,-0.32 -0.1,-0.57 -0.26,-0.75 -0.15,-0.17 -0.36,-0.26 -0.63,-0.26 z"
   id="path1410" />
		<path
   fill="#ffffff"
   d="m 5711.63,242.5 c -0.1,-0.02 -0.2,-0.02 -0.31,-0.02 -0.42,0 -0.7,0.18 -0.84,0.53 v 2.62 h -0.63 v -3.7 h 0.62 l 0.01,0.43 c 0.21,-0.33 0.5,-0.5 0.88,-0.5 0.12,0 0.22,0.02 0.28,0.05 v 0.59 z"
   id="path1412" />
		<path
   fill="#ffffff"
   d="m 5716.79,243.43 h -2.09 v 2.2 h -0.66 v -4.98 h 3.08 v 0.54 h -2.43 v 1.71 h 2.09 v 0.53 z"
   id="path1414" />
		<path
   fill="#ffffff"
   d="m 5718.5,245.63 h -0.63 v -5.25 h 0.63 z"
   id="path1416" />
		<path
   fill="#ffffff"
   d="m 5719.35,243.74 c 0,-0.36 0.07,-0.69 0.21,-0.98 0.14,-0.29 0.34,-0.51 0.59,-0.67 0.25,-0.16 0.54,-0.24 0.87,-0.24 0.5,0 0.91,0.17 1.22,0.52 0.31,0.35 0.47,0.81 0.47,1.39 v 0.04 c 0,0.36 -0.07,0.68 -0.21,0.97 -0.14,0.29 -0.33,0.51 -0.59,0.67 -0.26,0.16 -0.55,0.24 -0.88,0.24 -0.5,0 -0.91,-0.17 -1.22,-0.52 -0.31,-0.35 -0.47,-0.81 -0.47,-1.38 v -0.04 z m 0.63,0.08 c 0,0.41 0.09,0.74 0.29,0.99 0.2,0.25 0.44,0.37 0.76,0.37 0.32,0 0.58,-0.13 0.77,-0.38 0.19,-0.25 0.28,-0.6 0.28,-1.06 0,-0.41 -0.1,-0.73 -0.29,-0.99 -0.19,-0.25 -0.45,-0.38 -0.77,-0.38 -0.31,0 -0.56,0.12 -0.75,0.37 -0.19,0.25 -0.29,0.62 -0.29,1.08 z"
   id="path1418" />
		<path
   fill="#ffffff"
   d="m 5726.78,244.76 0.71,-2.83 h 0.63 l -1.08,3.7 h -0.51 l -0.9,-2.8 -0.88,2.8 h -0.51 l -1.07,-3.7 h 0.63 l 0.73,2.77 0.86,-2.77 h 0.51 z"
   id="path1420" />
		<path
   fill="#ffffff"
   d="m 5653.5,249.05 v 3.38 c 0,0.47 -0.15,0.85 -0.44,1.15 -0.29,0.3 -0.69,0.47 -1.19,0.5 l -0.17,0.01 c -0.54,0 -0.98,-0.15 -1.3,-0.44 -0.32,-0.29 -0.49,-0.7 -0.49,-1.21 v -3.39 h 0.65 v 3.37 c 0,0.36 0.1,0.64 0.3,0.84 0.2,0.2 0.48,0.3 0.85,0.3 0.37,0 0.66,-0.1 0.85,-0.3 0.19,-0.2 0.3,-0.48 0.3,-0.84 v -3.37 z"
   id="path1422" />
		<path
   fill="#ffffff"
   d="m 5655.03,250.33 0.02,0.46 c 0.28,-0.36 0.65,-0.53 1.11,-0.53 0.78,0 1.18,0.44 1.18,1.32 v 2.44 h -0.63 v -2.45 c 0,-0.27 -0.06,-0.46 -0.18,-0.59 -0.12,-0.13 -0.31,-0.19 -0.56,-0.19 -0.21,0 -0.39,0.05 -0.54,0.16 -0.15,0.11 -0.28,0.25 -0.36,0.43 v 2.64 h -0.63 v -3.7 h 0.59 z"
   id="path1424" />
		<path
   fill="#ffffff"
   d="m 5658.3,249.35 c 0,-0.1 0.03,-0.19 0.09,-0.26 0.06,-0.07 0.16,-0.11 0.28,-0.11 0.12,0 0.22,0.04 0.28,0.11 0.06,0.07 0.1,0.16 0.1,0.26 0,0.1 -0.03,0.19 -0.1,0.26 -0.07,0.07 -0.16,0.1 -0.28,0.1 -0.12,0 -0.22,-0.03 -0.28,-0.1 -0.06,-0.07 -0.09,-0.16 -0.09,-0.26 z m 0.69,4.68 h -0.63 v -3.7 h 0.63 z"
   id="path1426" />
		<path
   fill="#ffffff"
   d="m 5660.86,249.43 v 0.9 h 0.69 v 0.49 h -0.69 v 2.3 c 0,0.15 0.03,0.26 0.09,0.33 0.06,0.07 0.17,0.11 0.31,0.11 0.07,0 0.17,-0.01 0.3,-0.04 v 0.51 c -0.17,0.05 -0.33,0.07 -0.49,0.07 -0.28,0 -0.5,-0.09 -0.64,-0.26 -0.14,-0.17 -0.22,-0.41 -0.22,-0.73 v -2.29 h -0.67 v -0.49 h 0.67 v -0.9 z"
   id="path1428" />
		<path
   fill="#ffffff"
   d="m 5662.26,253.7 c 0,-0.11 0.03,-0.2 0.1,-0.27 0.06,-0.07 0.16,-0.11 0.29,-0.11 0.13,0 0.23,0.04 0.3,0.11 0.07,0.07 0.1,0.16 0.1,0.27 0,0.1 -0.03,0.19 -0.1,0.26 -0.07,0.07 -0.17,0.11 -0.3,0.11 -0.13,0 -0.23,-0.04 -0.29,-0.11 -0.06,-0.07 -0.1,-0.16 -0.1,-0.26 z m 0.01,-3.02 c 0,-0.11 0.03,-0.2 0.1,-0.27 0.07,-0.07 0.16,-0.11 0.29,-0.11 0.13,0 0.23,0.04 0.29,0.11 0.06,0.07 0.1,0.16 0.1,0.27 0,0.1 -0.03,0.19 -0.1,0.26 -0.07,0.07 -0.17,0.11 -0.29,0.11 -0.13,0 -0.23,-0.04 -0.29,-0.11 -0.07,-0.07 -0.1,-0.16 -0.1,-0.26 z"
   id="path1430" />
		<path
   fill="#ffffff"
   d="m 5667.73,254.03 h -0.64 v -4.21 l -1.27,0.47 v -0.57 l 1.81,-0.68 h 0.1 z"
   id="path1432" />
		<path
   fill="#ffffff"
   d="m 5672.7,251.91 c 0,0.74 -0.13,1.29 -0.38,1.65 -0.25,0.36 -0.65,0.54 -1.19,0.54 -0.53,0 -0.92,-0.18 -1.18,-0.53 -0.25,-0.35 -0.39,-0.88 -0.4,-1.58 v -0.84 c 0,-0.73 0.13,-1.27 0.38,-1.63 0.25,-0.36 0.65,-0.53 1.19,-0.53 0.54,0 0.93,0.17 1.18,0.51 0.25,0.34 0.38,0.87 0.39,1.59 v 0.82 z m -0.63,-0.87 c 0,-0.54 -0.08,-0.93 -0.23,-1.17 -0.15,-0.24 -0.39,-0.37 -0.71,-0.37 -0.32,0 -0.56,0.12 -0.71,0.37 -0.15,0.24 -0.22,0.62 -0.23,1.12 V 252 c 0,0.54 0.08,0.93 0.23,1.19 0.16,0.26 0.39,0.38 0.71,0.38 0.31,0 0.54,-0.12 0.7,-0.36 0.16,-0.24 0.23,-0.62 0.24,-1.14 z"
   id="path1434" />
		<path
   fill="#ffffff"
   d="m 5674.55,249.89 -0.65,1.65 h -0.59 l 1.02,-2.48 h 0.43 l 1.02,2.48 h -0.58 z"
   id="path1436" />
		<path
   fill="#ffffff"
   d="m 5678.86,251.84 c -0.13,0.16 -0.29,0.28 -0.47,0.38 -0.18,0.1 -0.38,0.14 -0.6,0.14 -0.29,0 -0.54,-0.07 -0.75,-0.21 -0.21,-0.14 -0.38,-0.34 -0.49,-0.6 -0.12,-0.26 -0.17,-0.54 -0.17,-0.85 0,-0.33 0.06,-0.63 0.19,-0.9 0.13,-0.27 0.31,-0.47 0.54,-0.61 0.23,-0.14 0.5,-0.21 0.81,-0.21 0.49,0 0.88,0.18 1.16,0.55 0.28,0.37 0.43,0.87 0.43,1.51 v 0.18 c 0,0.97 -0.19,1.68 -0.57,2.12 -0.38,0.45 -0.96,0.67 -1.73,0.69 h -0.12 v -0.54 h 0.13 c 0.52,-0.01 0.92,-0.15 1.2,-0.41 0.28,-0.26 0.41,-0.67 0.44,-1.24 z m -0.98,0 c 0.21,0 0.41,-0.06 0.59,-0.19 0.18,-0.13 0.31,-0.29 0.39,-0.48 v -0.25 c 0,-0.41 -0.09,-0.75 -0.27,-1.01 -0.18,-0.26 -0.41,-0.39 -0.68,-0.39 -0.28,0 -0.5,0.11 -0.67,0.32 -0.17,0.21 -0.25,0.49 -0.25,0.84 0,0.34 0.08,0.62 0.24,0.84 0.16,0.21 0.38,0.32 0.65,0.32 z"
   id="path1438" />
		<path
   fill="#ffffff"
   d="m 5682.76,250.33 0.02,0.41 c 0.27,-0.32 0.64,-0.48 1.1,-0.48 0.52,0 0.87,0.2 1.06,0.59 0.12,-0.18 0.28,-0.32 0.48,-0.43 0.2,-0.11 0.43,-0.16 0.7,-0.16 0.81,0 1.22,0.43 1.24,1.29 v 2.48 h -0.63 v -2.44 c 0,-0.26 -0.06,-0.46 -0.18,-0.59 -0.12,-0.13 -0.32,-0.2 -0.61,-0.2 -0.23,0 -0.43,0.07 -0.58,0.21 -0.16,0.14 -0.25,0.33 -0.27,0.57 v 2.45 h -0.64 v -2.42 c 0,-0.54 -0.26,-0.81 -0.79,-0.81 -0.42,0 -0.7,0.18 -0.85,0.53 v 2.7 h -0.63 v -3.7 z"
   id="path1440" />
		<path
   fill="#ffffff"
   d="m 5689.28,249.89 -0.65,1.65 h -0.59 l 1.02,-2.48 h 0.43 l 1.02,2.48 h -0.58 z"
   id="path1442" />
		<path
   fill="#ffffff"
   d="m 5692.08,251.23 h 0.48 c 0.3,0 0.53,-0.08 0.7,-0.24 0.17,-0.15 0.26,-0.36 0.26,-0.62 0,-0.58 -0.29,-0.88 -0.87,-0.88 -0.27,0 -0.49,0.08 -0.65,0.23 -0.16,0.16 -0.24,0.36 -0.24,0.62 h -0.63 c 0,-0.39 0.14,-0.72 0.43,-0.98 0.29,-0.26 0.66,-0.39 1.1,-0.39 0.47,0 0.84,0.12 1.1,0.37 0.26,0.25 0.4,0.59 0.4,1.04 0,0.22 -0.07,0.43 -0.21,0.63 -0.14,0.2 -0.33,0.35 -0.57,0.45 0.27,0.09 0.48,0.23 0.63,0.43 0.15,0.2 0.22,0.45 0.22,0.73 0,0.45 -0.15,0.8 -0.44,1.06 -0.29,0.26 -0.67,0.39 -1.14,0.39 -0.47,0 -0.85,-0.13 -1.14,-0.38 -0.29,-0.25 -0.44,-0.59 -0.44,-1 h 0.64 c 0,0.26 0.09,0.47 0.26,0.63 0.17,0.16 0.4,0.24 0.69,0.24 0.31,0 0.54,-0.08 0.7,-0.24 0.16,-0.16 0.24,-0.39 0.24,-0.69 0,-0.29 -0.09,-0.51 -0.27,-0.67 -0.18,-0.16 -0.43,-0.23 -0.77,-0.24 h -0.48 z"
   id="path1444" />
		<path
   fill="#ffffff"
   d="m 5700.01,252.22 c 0,0.56 -0.13,1.02 -0.39,1.36 -0.26,0.34 -0.61,0.52 -1.05,0.52 -0.45,0 -0.8,-0.14 -1.06,-0.43 v 1.78 h -0.63 v -5.12 h 0.58 l 0.03,0.41 c 0.26,-0.32 0.62,-0.48 1.07,-0.48 0.44,0 0.8,0.17 1.05,0.5 0.25,0.33 0.39,0.8 0.39,1.4 v 0.06 z m -0.63,-0.07 c 0,-0.42 -0.09,-0.75 -0.27,-0.99 -0.18,-0.24 -0.42,-0.36 -0.73,-0.36 -0.38,0 -0.67,0.17 -0.86,0.51 v 1.77 c 0.19,0.34 0.48,0.51 0.87,0.51 0.3,0 0.54,-0.12 0.72,-0.36 0.18,-0.25 0.27,-0.61 0.27,-1.08 z"
   id="path1446" />
		<path
   fill="#ffffff"
   d="m 5702.35,254.1 c -0.5,0 -0.91,-0.16 -1.22,-0.49 -0.31,-0.33 -0.47,-0.77 -0.47,-1.32 v -0.12 c 0,-0.37 0.07,-0.69 0.21,-0.98 0.14,-0.29 0.34,-0.51 0.59,-0.68 0.25,-0.16 0.52,-0.24 0.82,-0.24 0.48,0 0.85,0.16 1.12,0.48 0.27,0.32 0.4,0.77 0.4,1.36 v 0.26 h -2.5 c 0.01,0.36 0.12,0.66 0.32,0.88 0.2,0.22 0.46,0.34 0.78,0.34 0.22,0 0.41,-0.05 0.57,-0.14 0.15,-0.09 0.29,-0.21 0.41,-0.36 l 0.39,0.3 c -0.34,0.47 -0.8,0.71 -1.42,0.71 z m -0.08,-3.32 c -0.25,0 -0.47,0.09 -0.64,0.28 -0.17,0.19 -0.28,0.45 -0.32,0.78 h 1.85 v -0.05 c -0.02,-0.32 -0.1,-0.57 -0.26,-0.75 -0.16,-0.17 -0.36,-0.26 -0.63,-0.26 z"
   id="path1448" />
		<path
   fill="#ffffff"
   d="m 5706.31,250.9 c -0.1,-0.02 -0.2,-0.02 -0.31,-0.02 -0.42,0 -0.7,0.18 -0.84,0.53 v 2.62 h -0.63 v -3.7 h 0.62 l 0.01,0.43 c 0.21,-0.33 0.5,-0.5 0.88,-0.5 0.12,0 0.22,0.02 0.28,0.05 v 0.59 z"
   id="path1450" />
		<path
   fill="#ffffff"
   d="m 5709.83,253.1 0.86,-2.77 h 0.68 l -1.49,4.27 c -0.23,0.62 -0.6,0.92 -1.1,0.92 l -0.12,-0.01 -0.24,-0.04 v -0.51 l 0.17,0.01 c 0.21,0 0.38,-0.04 0.5,-0.13 0.12,-0.09 0.22,-0.25 0.29,-0.48 l 0.14,-0.38 -1.32,-3.66 h 0.69 z"
   id="path1452" />
		<path
   fill="#ffffff"
   d="m 5713.43,254.1 c -0.5,0 -0.91,-0.16 -1.22,-0.49 -0.31,-0.33 -0.47,-0.77 -0.47,-1.32 v -0.12 c 0,-0.37 0.07,-0.69 0.21,-0.98 0.14,-0.29 0.34,-0.51 0.59,-0.68 0.25,-0.16 0.52,-0.24 0.82,-0.24 0.48,0 0.85,0.16 1.12,0.48 0.27,0.32 0.4,0.77 0.4,1.36 v 0.26 h -2.5 c 0.01,0.36 0.12,0.66 0.32,0.88 0.2,0.22 0.46,0.34 0.78,0.34 0.22,0 0.41,-0.05 0.57,-0.14 0.15,-0.09 0.29,-0.21 0.41,-0.36 l 0.39,0.3 c -0.34,0.47 -0.8,0.71 -1.42,0.71 z m -0.08,-3.32 c -0.25,0 -0.47,0.09 -0.64,0.28 -0.17,0.19 -0.28,0.45 -0.32,0.78 h 1.85 v -0.05 c -0.02,-0.32 -0.1,-0.57 -0.26,-0.75 -0.16,-0.17 -0.37,-0.26 -0.63,-0.26 z"
   id="path1454" />
		<path
   fill="#ffffff"
   d="m 5717.88,254.03 c -0.04,-0.07 -0.07,-0.2 -0.09,-0.39 -0.29,0.31 -0.64,0.46 -1.05,0.46 -0.36,0 -0.66,-0.1 -0.9,-0.31 -0.23,-0.21 -0.35,-0.47 -0.35,-0.78 0,-0.39 0.15,-0.68 0.44,-0.9 0.29,-0.21 0.71,-0.32 1.24,-0.32 h 0.62 v -0.29 c 0,-0.22 -0.07,-0.4 -0.2,-0.53 -0.13,-0.13 -0.33,-0.2 -0.58,-0.2 -0.23,0 -0.42,0.06 -0.57,0.17 -0.15,0.11 -0.23,0.25 -0.23,0.41 h -0.64 c 0,-0.18 0.07,-0.36 0.2,-0.54 0.13,-0.17 0.31,-0.31 0.53,-0.41 0.22,-0.1 0.47,-0.15 0.74,-0.15 0.43,0 0.76,0.11 1,0.32 0.24,0.21 0.37,0.51 0.38,0.88 v 1.7 c 0,0.34 0.04,0.61 0.13,0.81 v 0.05 h -0.67 z m -1.04,-0.48 c 0.2,0 0.39,-0.05 0.56,-0.15 0.17,-0.1 0.31,-0.24 0.39,-0.4 v -0.76 h -0.5 c -0.77,0 -1.16,0.23 -1.16,0.68 0,0.2 0.07,0.35 0.2,0.46 0.13,0.11 0.3,0.17 0.51,0.17 z"
   id="path1456" />
		<path
   fill="#ffffff"
   d="m 5721.2,250.9 c -0.1,-0.02 -0.2,-0.02 -0.31,-0.02 -0.42,0 -0.7,0.18 -0.84,0.53 v 2.62 h -0.63 v -3.7 h 0.62 l 0.01,0.43 c 0.21,-0.33 0.5,-0.5 0.88,-0.5 0.12,0 0.22,0.02 0.28,0.05 v 0.59 z"
   id="path1458" />
	</g>
</g>
</svg>
