<?xml version="1.0" encoding="utf-8"?>
<!-- Generator: Adobe Illustrator 23.0.1, SVG Export Plug-In . SVG Version: 6.00 Build 0)  -->
<svg version="1.1" id="Baseline" xmlns="http://www.w3.org/2000/svg" xmlns:xlink="http://www.w3.org/1999/xlink" x="0px" y="0px"
	 width="9451.5px" height="623.5px" viewBox="0 0 9451.5 623.5" style="enable-background:new 0 0 9451.5 623.5;"
	 xml:space="preserve">
<style type="text/css">
	.st0{opacity:0.01;enable-background:new    ;}
</style>
<g class="st0">
	<path d="M5707.5,605.2V430.6h12.5v174.6H5707.5z M5721.9,604.7v-174h12.5v174H5721.9z M5736.3,552.3V430.6h12.5v121.7H5736.3z
		 M5750.6,524.3v-93.6h12.6v93.6H5750.6z M5765.1,482.2v-51.5h12.5v51.5H5765.1z M5779.5,472.3v-41.7h12.5v41.7H5779.5z
		 M5793.9,455.7v-25.1h12.5v25.1H5793.9z M5808.3,442.8v-12.2h12.5v12.2H5808.3z M5822.6,442.3v-11.6h12.6v11.6H5822.6z"/>
</g>
<g class="st0">
	<rect x="5995.2" y="300" width="12.5" height="129.9"/>
</g>
<g class="st0">
	<rect x="5980.8" y="334.3" width="12.5" height="95.6"/>
</g>
<g class="st0">
	<rect x="5966.4" y="349.8" width="12.5" height="80.2"/>
</g>
<g class="st0">
	<rect x="5952" y="383.5" width="12.5" height="46.4"/>
</g>
<g class="st0">
	<rect x="5937.6" y="384.6" width="12.5" height="45.3"/>
</g>
<g class="st0">
	<rect x="5923.2" y="394.4" width="12.5" height="35.5"/>
</g>
<g class="st0">
	<rect x="5908.8" y="396.5" width="12.5" height="33.5"/>
</g>
<g class="st0">
	<rect x="5894.4" y="398.1" width="12.5" height="31.9"/>
</g>
<g class="st0">
	<rect x="5880" y="403.3" width="12.5" height="26.7"/>
</g>
<g class="st0">
	<rect x="5865.6" y="408.9" width="12.5" height="21"/>
</g>
<g class="st0">
	<rect x="5851.3" y="408.9" width="12.5" height="21"/>
</g>
<g class="st0">
	<rect x="5836.9" y="417.7" width="12.5" height="12.2"/>
</g>
</svg>
