<?xml version="1.0" encoding="utf-8"?>
<!-- Generator: Adobe Illustrator 18.0.0, SVG Export Plug-In . SVG Version: 6.00 Build 0)  -->
<!DOCTYPE svg PUBLIC "-//W3C//DTD SVG 1.1//EN" "http://www.w3.org/Graphics/SVG/1.1/DTD/svg11.dtd">
<svg version="1.1" id="Baseline" xmlns="http://www.w3.org/2000/svg" xmlns:xlink="http://www.w3.org/1999/xlink" x="0px" y="0px"
	 width="9451.45px" height="623.52px" viewBox="0 0 9451.45 623.52" enable-background="new 0 0 9451.45 623.52"
	 xml:space="preserve">
<g>
	
		<line fill="none" stroke="#FFFFFF" stroke-width="0.25" stroke-linecap="round" stroke-linejoin="round" stroke-miterlimit="10" stroke-dasharray="1,2" x1="5471.69" y1="12.12" x2="5672.35" y2="12.12"/>
	
		<line fill="none" stroke="#FFFFFF" stroke-width="0.25" stroke-linecap="round" stroke-linejoin="round" stroke-miterlimit="10" stroke-dasharray="1,2" x1="5471.69" y1="27.5" x2="5672.35" y2="27.5"/>
	
		<line fill="none" stroke="#FFFFFF" stroke-width="0.25" stroke-linecap="round" stroke-linejoin="round" stroke-miterlimit="10" stroke-dasharray="1,2" x1="5471.69" y1="44.76" x2="5672.35" y2="44.76"/>
	
		<line fill="none" stroke="#FFFFFF" stroke-width="0.25" stroke-linecap="round" stroke-linejoin="round" stroke-miterlimit="10" stroke-dasharray="1,2" x1="5471.69" y1="62.19" x2="5672.35" y2="62.19"/>
	
		<line fill="none" stroke="#FFFFFF" stroke-width="0.25" stroke-linecap="round" stroke-linejoin="round" stroke-miterlimit="10" stroke-dasharray="1,2" x1="5471.69" y1="78.32" x2="5672.35" y2="78.32"/>
	
		<line fill="none" stroke="#FFFFFF" stroke-width="0.25" stroke-linecap="round" stroke-linejoin="round" stroke-miterlimit="10" stroke-dasharray="1,2" x1="5471.69" y1="96.33" x2="5672.35" y2="96.33"/>
	
		<line fill="none" stroke="#FFFFFF" stroke-width="0.25" stroke-linecap="round" stroke-linejoin="round" stroke-miterlimit="10" stroke-dasharray="1,2" x1="5471.69" y1="112.03" x2="5672.35" y2="112.03"/>
	
		<line fill="none" stroke="#FFFFFF" stroke-width="0.25" stroke-linecap="round" stroke-linejoin="round" stroke-miterlimit="10" stroke-dasharray="1,2" x1="5471.69" y1="129.94" x2="5672.35" y2="129.94"/>
</g>
<g>
	
		<line fill="none" stroke="#FFFFFF" stroke-width="0.608" stroke-linecap="round" stroke-linejoin="round" stroke-miterlimit="10" x1="5644.36" y1="129.63" x2="5496.27" y2="129.63"/>
	
		<path fill="none" stroke="#FFFFFF" stroke-width="0.608" stroke-linecap="round" stroke-linejoin="round" stroke-miterlimit="10" d="
		M5496.27,125.63c0,0,61.1,0.96,61.62,1.26c0.52,0.3,42.44,0.63,42.81,0.78c0.37,0.15,43.66,0.52,43.66,0.52"/>
	
		<path fill="none" stroke="#FFFFFF" stroke-width="0.608" stroke-linecap="round" stroke-linejoin="round" stroke-miterlimit="10" d="
		M5496.27,121.63c0,0,60.47,1.91,61.51,2.52c1.04,0.61,42.06,1.26,42.8,1.57c0.75,0.31,43.77,1.04,43.77,1.04"/>
	
		<path fill="none" stroke="#FFFFFF" stroke-width="0.608" stroke-linecap="round" stroke-linejoin="round" stroke-miterlimit="10" d="
		M5496.27,117.63c0,0,59.84,2.87,61.4,3.78c1.56,0.91,41.68,1.89,42.8,2.35c1.12,0.46,43.88,1.56,43.88,1.56"/>
	
		<path fill="none" stroke="#FFFFFF" stroke-width="0.608" stroke-linecap="round" stroke-linejoin="round" stroke-miterlimit="10" d="
		M5496.27,113.64c0,0,59.21,3.82,61.3,5.04c2.08,1.21,41.3,2.52,42.8,3.13c1.5,0.61,43.99,2.08,43.99,2.08"/>
	
		<path fill="none" stroke="#FFFFFF" stroke-width="0.608" stroke-linecap="round" stroke-linejoin="round" stroke-miterlimit="10" d="
		M5496.27,109.64c0,0,58.58,4.78,61.19,6.3c2.6,1.52,40.92,3.15,42.79,3.92c1.87,0.76,44.11,2.6,44.11,2.6"/>
	
		<path fill="none" stroke="#FFFFFF" stroke-width="0.608" stroke-linecap="round" stroke-linejoin="round" stroke-miterlimit="10" d="
		M5496.27,105.64c0,0,57.96,5.74,61.08,7.56c3.13,1.82,40.54,3.78,42.79,4.7c2.25,0.92,44.22,3.12,44.22,3.12"/>
	
		<path fill="none" stroke="#FFFFFF" stroke-width="0.608" stroke-linecap="round" stroke-linejoin="round" stroke-miterlimit="10" d="
		M5496.27,101.64c0,0,57.33,6.69,60.97,8.82c3.65,2.12,40.16,4.41,42.78,5.48c2.62,1.07,44.33,3.64,44.33,3.64"/>
	
		<path fill="none" stroke="#FFFFFF" stroke-width="0.608" stroke-linecap="round" stroke-linejoin="round" stroke-miterlimit="10" d="
		M5496.27,97.65c0,0,56.7,7.65,60.87,10.08c4.17,2.43,39.78,5.04,42.78,6.26c3,1.22,44.44,4.16,44.44,4.16"/>
	
		<path fill="none" stroke="#FFFFFF" stroke-width="0.608" stroke-linecap="round" stroke-linejoin="round" stroke-miterlimit="10" d="
		M5496.27,93.65c0,0,56.07,8.6,60.76,11.34c4.69,2.73,39.4,5.67,42.77,7.05c3.37,1.38,44.55,4.68,44.55,4.68"/>
	
		<path fill="none" stroke="#FFFFFF" stroke-width="0.608" stroke-linecap="round" stroke-linejoin="round" stroke-miterlimit="10" d="
		M5496.27,89.65c0,0,55.44,9.56,60.65,12.6c5.21,3.03,39.03,6.3,42.77,7.83c3.74,1.53,44.66,5.2,44.66,5.2"/>
	
		<path fill="none" stroke="#FFFFFF" stroke-width="0.608" stroke-linecap="round" stroke-linejoin="round" stroke-miterlimit="10" d="
		M5496.27,85.66c0,0,54.82,10.52,60.55,13.86c5.73,3.34,38.65,6.93,42.77,8.61c4.12,1.68,44.77,5.72,44.77,5.72"/>
	
		<path fill="none" stroke="#FFFFFF" stroke-width="0.608" stroke-linecap="round" stroke-linejoin="round" stroke-miterlimit="10" d="
		M5496.27,81.66c0,0,54.19,11.47,60.44,15.12c6.25,3.64,38.27,7.56,42.76,9.4c4.49,1.83,44.89,6.24,44.89,6.24"/>
	
		<path fill="none" stroke="#FFFFFF" stroke-width="0.608" stroke-linecap="round" stroke-linejoin="round" stroke-miterlimit="10" d="
		M5496.27,77.66c0,0,53.56,12.43,60.33,16.38c6.77,3.95,37.89,8.19,42.76,10.18c4.87,1.99,45,6.76,45,6.76"/>
	
		<path fill="none" stroke="#FFFFFF" stroke-width="0.608" stroke-linecap="round" stroke-linejoin="round" stroke-miterlimit="10" d="
		M5496.27,73.66c0,0,52.93,13.38,60.23,17.64c7.29,4.25,37.51,8.82,42.75,10.96c5.24,2.14,45.11,7.28,45.11,7.28"/>
	
		<path fill="none" stroke="#FFFFFF" stroke-width="0.608" stroke-linecap="round" stroke-linejoin="round" stroke-miterlimit="10" d="
		M5496.27,69.67c0,0,52.31,14.34,60.12,18.89c7.81,4.55,37.13,9.45,42.75,11.75c5.62,2.29,45.22,7.8,45.22,7.8"/>
	
		<path fill="none" stroke="#FFFFFF" stroke-width="0.608" stroke-linecap="round" stroke-linejoin="round" stroke-miterlimit="10" d="
		M5496.27,65.67c0,0,51.68,15.3,60.01,20.15c8.34,4.86,36.75,10.08,42.74,12.53c5.99,2.44,45.33,8.32,45.33,8.32"/>
	
		<path fill="none" stroke="#FFFFFF" stroke-width="0.608" stroke-linecap="round" stroke-linejoin="round" stroke-miterlimit="10" d="
		M5496.27,61.67c0,0,51.05,16.25,59.91,21.41c8.86,5.16,36.37,10.71,42.74,13.31c6.37,2.6,45.44,8.84,45.44,8.84"/>
	
		<path fill="none" stroke="#FFFFFF" stroke-width="0.608" stroke-linecap="round" stroke-linejoin="round" stroke-miterlimit="10" d="
		M5496.27,57.68c0,0,50.42,17.21,59.8,22.67c9.38,5.46,35.99,11.34,42.74,14.1c6.74,2.75,45.55,9.36,45.55,9.36"/>
	
		<path fill="none" stroke="#FFFFFF" stroke-width="0.608" stroke-linecap="round" stroke-linejoin="round" stroke-miterlimit="10" d="
		M5496.27,53.68c0,0,49.79,18.17,59.69,23.93c9.9,5.77,35.62,11.97,42.73,14.88c7.11,2.9,45.66,9.88,45.66,9.88"/>
	
		<path fill="none" stroke="#FFFFFF" stroke-width="0.608" stroke-linecap="round" stroke-linejoin="round" stroke-miterlimit="10" d="
		M5496.27,49.68c0,0,49.17,19.12,59.58,25.19c10.42,6.07,35.24,12.61,42.73,15.66c7.49,3.06,45.78,10.4,45.78,10.4"/>
	
		<path fill="none" stroke="#FFFFFF" stroke-width="0.608" stroke-linecap="round" stroke-linejoin="round" stroke-miterlimit="10" d="
		M5496.27,45.68c0,0,48.54,20.08,59.48,26.45c10.94,6.37,34.86,13.24,42.72,16.44c7.86,3.21,45.89,10.92,45.89,10.92"/>
	
		<path fill="none" stroke="#FFFFFF" stroke-width="0.608" stroke-linecap="round" stroke-linejoin="round" stroke-miterlimit="10" d="
		M5496.27,41.69c0,0,47.91,21.03,59.37,27.71c11.46,6.68,34.48,13.87,42.72,17.23c8.24,3.36,46,11.44,46,11.44"/>
	
		<path fill="none" stroke="#FFFFFF" stroke-width="0.608" stroke-linecap="round" stroke-linejoin="round" stroke-miterlimit="10" d="
		M5496.27,37.69c0,0,47.28,21.99,59.26,28.97c11.98,6.98,34.1,14.5,42.71,18.01c8.61,3.51,46.11,11.96,46.11,11.96"/>
	
		<path fill="none" stroke="#FFFFFF" stroke-width="0.608" stroke-linecap="round" stroke-linejoin="round" stroke-miterlimit="10" d="
		M5496.27,33.69c0,0,46.66,22.95,59.16,30.23c12.5,7.28,33.72,15.13,42.71,18.79c8.99,3.67,46.22,12.48,46.22,12.48"/>
	
		<path fill="none" stroke="#FFFFFF" stroke-width="0.608" stroke-linecap="round" stroke-linejoin="round" stroke-miterlimit="10" d="
		M5496.27,29.69c0,0,46.03,23.9,59.05,31.49c13.02,7.59,33.34,15.76,42.71,19.58c9.36,3.82,46.33,13,46.33,13"/>
	
		<path fill="none" stroke="#FFFFFF" stroke-width="0.608" stroke-linecap="round" stroke-linejoin="round" stroke-miterlimit="10" d="
		M5496.27,25.7c0,0,45.4,24.86,58.94,32.75c13.55,7.89,32.96,16.39,42.7,20.36c9.73,3.97,46.44,13.52,46.44,13.52"/>
	
		<path fill="none" stroke="#FFFFFF" stroke-width="0.608" stroke-linecap="round" stroke-linejoin="round" stroke-miterlimit="10" d="
		M5496.27,21.7c0,0,44.77,25.81,58.84,34.01c14.07,8.19,32.58,17.02,42.7,21.14c10.11,4.13,46.55,14.04,46.55,14.04"/>
	
		<path fill="none" stroke="#FFFFFF" stroke-width="0.608" stroke-linecap="round" stroke-linejoin="round" stroke-miterlimit="10" d="
		M5496.27,17.7c0,0,44.14,26.77,58.73,35.27c14.59,8.5,32.21,17.65,42.69,21.92c10.48,4.28,46.67,14.56,46.67,14.56"/>
	
		<path fill="none" stroke="#FFFFFF" stroke-width="0.608" stroke-linecap="round" stroke-linejoin="round" stroke-miterlimit="10" d="
		M5496.27,13.71c0,0,43.52,27.73,58.62,36.53c15.11,8.8,31.83,18.28,42.69,22.71c10.86,4.43,46.78,15.08,46.78,15.08"/>
	
		<path fill="none" stroke="#FFFFFF" stroke-width="0.608" stroke-linecap="round" stroke-linejoin="round" stroke-miterlimit="10" d="
		M5496.27,9.71c0,0,42.89,28.68,58.51,37.79c15.63,9.1,31.45,18.91,42.68,23.49c11.23,4.58,46.89,15.6,46.89,15.6"/>
	
		<path fill="none" stroke="#FFFFFF" stroke-width="0.608" stroke-linecap="round" stroke-linejoin="round" stroke-miterlimit="10" d="
		M5496.27,5.71c0,0,42.26,29.64,58.41,39.05c16.15,9.41,31.07,19.54,42.68,24.27c11.61,4.74,47,16.12,47,16.12"/>
</g>
<rect x="5543.38" y="88.07" fill="#B5B6B6" width="17.23" height="41.55"/>
<rect x="5493.29" y="93.49" fill="#B5B6B6" width="17.23" height="36.14"/>
<g>
	<rect x="5487.58" y="110.42" fill="#739AD1" width="11.42" height="2.94"/>
	<rect x="5487.58" y="115.84" fill="#739AD1" width="11.42" height="2.94"/>
	<rect x="5487.58" y="121.27" fill="#739AD1" width="11.42" height="2.94"/>
	<rect x="5487.58" y="126.69" fill="#739AD1" width="11.42" height="2.94"/>
</g>
<g>
	<rect x="5537.67" y="110.42" fill="#739AD1" width="11.42" height="2.94"/>
	<rect x="5537.67" y="115.84" fill="#739AD1" width="11.42" height="2.94"/>
	<rect x="5537.67" y="121.27" fill="#739AD1" width="11.42" height="2.94"/>
	<rect x="5537.67" y="126.69" fill="#739AD1" width="11.42" height="2.94"/>
	<rect x="5537.67" y="88.73" fill="#739AD1" width="11.42" height="2.94"/>
	<rect x="5537.67" y="94.15" fill="#739AD1" width="11.42" height="2.93"/>
	<rect x="5537.67" y="99.57" fill="#739AD1" width="11.42" height="2.94"/>
	<rect x="5537.67" y="72.06" fill="#739AD1" width="11.42" height="2.93"/>
	<rect x="5537.67" y="66.44" fill="#739AD1" width="11.42" height="2.94"/>
	<rect x="5537.67" y="77.48" fill="#739AD1" width="11.42" height="2.94"/>
	<rect x="5537.67" y="82.91" fill="#739AD1" width="11.42" height="2.94"/>
	<rect x="5537.67" y="105" fill="#739AD1" width="11.42" height="2.94"/>
</g>
<rect x="5655.12" y="80.69" fill="#B5B6B6" width="17.23" height="48.93"/>
<g>
	<rect x="5646.04" y="110.57" fill="#739AD1" width="11.42" height="2.93"/>
	<rect x="5646.04" y="115.94" fill="#739AD1" width="11.42" height="2.93"/>
	<rect x="5646.04" y="121.31" fill="#739AD1" width="11.42" height="2.93"/>
	<rect x="5646.04" y="126.69" fill="#739AD1" width="11.42" height="2.94"/>
	<rect x="5646.04" y="89.07" fill="#739AD1" width="11.42" height="2.93"/>
	<rect x="5646.04" y="94.44" fill="#739AD1" width="11.42" height="2.94"/>
	<rect x="5646.04" y="99.82" fill="#739AD1" width="11.42" height="2.93"/>
	<rect x="5646.04" y="105.19" fill="#739AD1" width="11.42" height="2.94"/>
	<rect x="5646.04" y="67.57" fill="#739AD1" width="11.42" height="2.94"/>
	<rect x="5646.04" y="72.94" fill="#739AD1" width="11.42" height="2.94"/>
	<rect x="5646.04" y="78.32" fill="#739AD1" width="11.42" height="2.94"/>
	<rect x="5646.04" y="83.69" fill="#739AD1" width="11.42" height="2.94"/>
	<rect x="5646.04" y="62.19" fill="#739AD1" width="11.42" height="2.94"/>
	<rect x="5646.04" y="51.44" fill="#739AD1" width="11.42" height="2.94"/>
	<rect x="5646.04" y="56.82" fill="#739AD1" width="11.42" height="2.94"/>
	<rect x="5646.04" y="46.07" fill="#739AD1" width="11.42" height="2.93"/>
	<rect x="5646.04" y="35.32" fill="#739AD1" width="11.42" height="2.94"/>
	<rect x="5646.04" y="40.69" fill="#739AD1" width="11.42" height="2.94"/>
	<rect x="5646.04" y="29.94" fill="#739AD1" width="11.42" height="2.94"/>
	<rect x="5646.04" y="24.57" fill="#739AD1" width="11.42" height="2.94"/>
</g>
<rect x="5601.61" y="99.26" fill="#B5B6B6" width="17.23" height="30.69"/>
<g>
	<rect x="5592.71" y="110.78" fill="#739AD1" width="11.42" height="2.93"/>
	<rect x="5592.71" y="116.08" fill="#739AD1" width="11.42" height="2.94"/>
	<rect x="5592.71" y="121.39" fill="#739AD1" width="11.42" height="2.93"/>
	<rect x="5592.71" y="126.69" fill="#739AD1" width="11.42" height="2.94"/>
	<rect x="5592.71" y="89.56" fill="#739AD1" width="11.42" height="2.94"/>
	<rect x="5592.71" y="94.86" fill="#739AD1" width="11.42" height="2.94"/>
	<rect x="5592.71" y="100.17" fill="#739AD1" width="11.42" height="2.93"/>
	<rect x="5592.71" y="105.47" fill="#739AD1" width="11.42" height="2.94"/>
	<rect x="5592.71" y="68.34" fill="#739AD1" width="11.42" height="2.93"/>
	<rect x="5592.71" y="73.65" fill="#739AD1" width="11.42" height="2.94"/>
	<rect x="5592.71" y="78.95" fill="#739AD1" width="11.42" height="2.94"/>
	<rect x="5592.71" y="84.26" fill="#739AD1" width="11.42" height="2.94"/>
	<rect x="5592.71" y="63.04" fill="#739AD1" width="11.42" height="2.94"/>
	<rect x="5592.71" y="52.43" fill="#739AD1" width="11.42" height="2.94"/>
	<rect x="5592.71" y="57.74" fill="#739AD1" width="11.42" height="2.94"/>
	<rect x="5592.71" y="47.13" fill="#739AD1" width="11.42" height="2.94"/>
	<rect x="5592.71" y="36.52" fill="#739AD1" width="11.42" height="2.94"/>
	<rect x="5592.71" y="41.82" fill="#739AD1" width="11.42" height="2.94"/>
</g>
<g>
	<polygon fill="#B87332" points="5537.41,48.28 5528.6,85.75 5546.75,85.75 	"/>
	<polygon fill="#B87332" points="5537.41,86.24 5528.6,100.74 5546.75,100.74 	"/>
	<polygon fill="#B87332" points="5537.41,100.74 5528.6,119.06 5546.75,119.06 	"/>
	<rect x="5536.61" y="119.06" fill="#B87332" width="2.12" height="9.98"/>
</g>
<g>
	<polygon fill="#B87332" points="5487.32,11.53 5478.5,47.07 5496.66,47.07 	"/>
	<polygon fill="#B87332" points="5487.32,76.48 5478.5,88.07 5496.66,88.07 	"/>
	<polygon fill="#B87332" points="5487.32,47.07 5478.5,76.52 5496.66,76.52 	"/>
	<polygon fill="#B87332" points="5487.32,88.07 5478.5,114.97 5496.66,114.97 	"/>
	<rect x="5486.53" y="114.97" fill="#B87332" width="2.12" height="14.65"/>
</g>
<g>
	<polygon fill="#B87332" points="5645.78,82.08 5636.96,92.45 5655.12,92.45 	"/>
	<polygon fill="#B87332" points="5645.78,92.45 5636.96,116.52 5655.12,116.52 	"/>
	<rect x="5644.98" y="116.52" fill="#B87332" width="2.12" height="13.11"/>
</g>
<g>
	<polygon fill="#B87332" points="5592.45,53.54 5583.63,77.02 5601.79,77.02 	"/>
	<polygon fill="#B87332" points="5592.45,77.62 5583.63,95.04 5601.79,95.04 	"/>
	<polygon fill="#B87332" points="5592.45,95.04 5583.63,117.05 5601.79,117.05 	"/>
	<rect x="5591.65" y="117.05" fill="#B87332" width="2.12" height="11.99"/>
</g>
<g>
	<g>
		<path fill="#FFFFFF" d="M5461.74,8.82l-1.47,3.3h-0.47l1.47-3.18h-1.92V8.56h2.4V8.82z"/>
		<path fill="#FFFFFF" d="M5464.48,10.6c0,0.53-0.09,0.92-0.27,1.18c-0.18,0.26-0.46,0.39-0.85,0.39c-0.38,0-0.66-0.13-0.84-0.38
			c-0.18-0.25-0.28-0.63-0.28-1.13v-0.6c0-0.52,0.09-0.91,0.27-1.16s0.46-0.38,0.85-0.38c0.38,0,0.66,0.12,0.84,0.37
			c0.18,0.25,0.27,0.62,0.28,1.13V10.6z M5464.03,9.98c0-0.38-0.05-0.66-0.16-0.84c-0.11-0.18-0.28-0.26-0.51-0.26
			c-0.23,0-0.4,0.09-0.5,0.26c-0.11,0.17-0.16,0.44-0.16,0.8v0.72c0,0.38,0.06,0.67,0.17,0.85c0.11,0.18,0.28,0.27,0.51,0.27
			c0.22,0,0.39-0.09,0.5-0.26s0.17-0.44,0.17-0.82V9.98z"/>
	</g>
</g>
<g>
	<g>
		<path fill="#FFFFFF" d="M5461.22,24.46v0.38h-0.08c-0.35,0.01-0.63,0.11-0.84,0.31c-0.21,0.2-0.33,0.49-0.36,0.85
			c0.19-0.21,0.44-0.32,0.77-0.32c0.31,0,0.56,0.11,0.74,0.33s0.28,0.5,0.28,0.84c0,0.37-0.1,0.66-0.3,0.88s-0.47,0.33-0.8,0.33
			c-0.34,0-0.62-0.13-0.83-0.39c-0.21-0.26-0.32-0.6-0.32-1.01v-0.17c0-0.65,0.14-1.15,0.42-1.5c0.28-0.35,0.69-0.52,1.25-0.53
			H5461.22z M5460.62,26.06c-0.15,0-0.3,0.05-0.43,0.14c-0.13,0.09-0.22,0.21-0.27,0.35v0.17c0,0.29,0.07,0.53,0.2,0.71
			c0.13,0.18,0.3,0.27,0.49,0.27c0.2,0,0.36-0.07,0.48-0.22s0.17-0.35,0.17-0.59c0-0.24-0.06-0.44-0.18-0.59
			C5460.98,26.13,5460.82,26.06,5460.62,26.06z"/>
		<path fill="#FFFFFF" d="M5464.48,26.5c0,0.53-0.09,0.92-0.27,1.18c-0.18,0.26-0.46,0.39-0.85,0.39c-0.38,0-0.66-0.13-0.84-0.38
			c-0.18-0.25-0.28-0.63-0.28-1.13v-0.6c0-0.52,0.09-0.91,0.27-1.16s0.46-0.38,0.85-0.38c0.38,0,0.66,0.12,0.84,0.37
			c0.18,0.25,0.27,0.62,0.28,1.13V26.5z M5464.03,25.88c0-0.38-0.05-0.66-0.16-0.84c-0.11-0.18-0.28-0.26-0.51-0.26
			c-0.23,0-0.4,0.09-0.5,0.26c-0.11,0.17-0.16,0.44-0.16,0.8v0.72c0,0.38,0.06,0.67,0.17,0.85c0.11,0.18,0.28,0.27,0.51,0.27
			c0.22,0,0.39-0.09,0.5-0.26s0.17-0.44,0.17-0.82V25.88z"/>
	</g>
</g>
<g>
	<g>
		<path fill="#FFFFFF" d="M5459.65,43.4l0.18-1.77h1.82v0.42h-1.44l-0.11,0.97c0.17-0.1,0.37-0.15,0.59-0.15
			c0.32,0,0.58,0.11,0.77,0.32c0.19,0.21,0.29,0.5,0.29,0.87c0,0.37-0.1,0.65-0.3,0.87c-0.2,0.21-0.47,0.32-0.83,0.32
			c-0.31,0-0.57-0.09-0.77-0.26c-0.2-0.17-0.31-0.42-0.34-0.72h0.43c0.03,0.2,0.1,0.36,0.22,0.46c0.12,0.1,0.27,0.15,0.46,0.15
			c0.21,0,0.38-0.07,0.49-0.21c0.12-0.14,0.18-0.34,0.18-0.59c0-0.24-0.06-0.43-0.19-0.57c-0.13-0.14-0.3-0.22-0.52-0.22
			c-0.2,0-0.35,0.04-0.46,0.13l-0.12,0.1L5459.65,43.4z"/>
		<path fill="#FFFFFF" d="M5464.48,43.66c0,0.53-0.09,0.92-0.27,1.18c-0.18,0.26-0.46,0.39-0.85,0.39c-0.38,0-0.66-0.13-0.84-0.38
			c-0.18-0.25-0.28-0.63-0.28-1.13v-0.6c0-0.52,0.09-0.91,0.27-1.16s0.46-0.38,0.85-0.38c0.38,0,0.66,0.12,0.84,0.37
			c0.18,0.25,0.27,0.62,0.28,1.13V43.66z M5464.03,43.05c0-0.38-0.05-0.66-0.16-0.84c-0.11-0.18-0.28-0.26-0.51-0.26
			c-0.23,0-0.4,0.09-0.5,0.26c-0.11,0.17-0.16,0.44-0.16,0.8v0.72c0,0.38,0.06,0.67,0.17,0.85c0.11,0.18,0.28,0.27,0.51,0.27
			c0.22,0,0.39-0.09,0.5-0.26s0.17-0.44,0.17-0.82V43.05z"/>
	</g>
</g>
<g>
	<g>
		<path fill="#FFFFFF" d="M5461.35,61.33h0.49v0.37h-0.49v0.83h-0.45V61.7h-1.62v-0.27l1.59-2.46h0.48V61.33z M5459.79,61.33h1.11
			v-1.74l-0.05,0.1L5459.79,61.33z"/>
		<path fill="#FFFFFF" d="M5464.48,61c0,0.53-0.09,0.92-0.27,1.18c-0.18,0.26-0.46,0.39-0.85,0.39c-0.38,0-0.66-0.13-0.84-0.38
			c-0.18-0.25-0.28-0.63-0.28-1.13v-0.6c0-0.52,0.09-0.91,0.27-1.16s0.46-0.38,0.85-0.38c0.38,0,0.66,0.12,0.84,0.37
			c0.18,0.25,0.27,0.62,0.28,1.13V61z M5464.03,60.39c0-0.38-0.05-0.66-0.16-0.84c-0.11-0.18-0.28-0.26-0.51-0.26
			c-0.23,0-0.4,0.09-0.5,0.26c-0.11,0.17-0.16,0.44-0.16,0.8v0.72c0,0.38,0.06,0.67,0.17,0.85c0.11,0.18,0.28,0.27,0.51,0.27
			c0.22,0,0.39-0.09,0.5-0.26s0.17-0.44,0.17-0.82V60.39z"/>
	</g>
</g>
<g>
	<g>
		<path fill="#FFFFFF" d="M5460.1,77.2h0.34c0.21,0,0.38-0.06,0.5-0.17c0.12-0.11,0.18-0.26,0.18-0.44c0-0.42-0.21-0.62-0.62-0.62
			c-0.2,0-0.35,0.06-0.47,0.17c-0.12,0.11-0.17,0.26-0.17,0.44h-0.45c0-0.28,0.1-0.52,0.31-0.7c0.21-0.19,0.47-0.28,0.79-0.28
			c0.33,0,0.6,0.09,0.79,0.27s0.29,0.42,0.29,0.74c0,0.15-0.05,0.3-0.15,0.45c-0.1,0.15-0.24,0.25-0.41,0.32
			c0.2,0.06,0.35,0.16,0.45,0.31s0.16,0.32,0.16,0.52c0,0.32-0.1,0.57-0.31,0.76c-0.21,0.19-0.48,0.28-0.81,0.28
			s-0.61-0.09-0.81-0.27s-0.31-0.42-0.31-0.72h0.45c0,0.19,0.06,0.34,0.18,0.45c0.12,0.11,0.29,0.17,0.49,0.17
			c0.22,0,0.38-0.06,0.5-0.17c0.12-0.11,0.17-0.28,0.17-0.49c0-0.21-0.06-0.37-0.19-0.48s-0.31-0.17-0.55-0.17h-0.34V77.2z"/>
		<path fill="#FFFFFF" d="M5464.48,77.68c0,0.53-0.09,0.92-0.27,1.18c-0.18,0.26-0.46,0.39-0.85,0.39c-0.38,0-0.66-0.13-0.84-0.38
			c-0.18-0.25-0.28-0.63-0.28-1.13v-0.6c0-0.52,0.09-0.91,0.27-1.16s0.46-0.38,0.85-0.38c0.38,0,0.66,0.12,0.84,0.37
			c0.18,0.25,0.27,0.62,0.28,1.13V77.68z M5464.03,77.06c0-0.38-0.05-0.66-0.16-0.84c-0.11-0.18-0.28-0.26-0.51-0.26
			c-0.23,0-0.4,0.09-0.5,0.26c-0.11,0.17-0.16,0.44-0.16,0.8v0.72c0,0.38,0.06,0.67,0.17,0.85c0.11,0.18,0.28,0.27,0.51,0.27
			c0.22,0,0.39-0.09,0.5-0.26s0.17-0.44,0.17-0.82V77.06z"/>
	</g>
</g>
<g>
	<g>
		<path fill="#FFFFFF" d="M5461.78,95.77h-2.33v-0.32l1.23-1.37c0.18-0.21,0.31-0.37,0.38-0.5c0.07-0.13,0.1-0.26,0.1-0.4
			c0-0.19-0.06-0.34-0.17-0.46c-0.11-0.12-0.26-0.18-0.45-0.18c-0.22,0-0.4,0.06-0.52,0.19c-0.12,0.13-0.19,0.31-0.19,0.53h-0.45
			c0-0.33,0.11-0.59,0.32-0.79s0.49-0.3,0.85-0.3c0.33,0,0.59,0.09,0.78,0.26c0.19,0.17,0.29,0.4,0.29,0.69
			c0,0.35-0.22,0.77-0.67,1.25l-0.95,1.03h1.79V95.77z"/>
		<path fill="#FFFFFF" d="M5464.48,94.26c0,0.53-0.09,0.92-0.27,1.18c-0.18,0.26-0.46,0.39-0.85,0.39c-0.38,0-0.66-0.13-0.84-0.38
			c-0.18-0.25-0.28-0.63-0.28-1.13v-0.6c0-0.52,0.09-0.91,0.27-1.16s0.46-0.38,0.85-0.38c0.38,0,0.66,0.12,0.84,0.37
			c0.18,0.25,0.27,0.62,0.28,1.13V94.26z M5464.03,93.64c0-0.38-0.05-0.66-0.16-0.84c-0.11-0.18-0.28-0.26-0.51-0.26
			c-0.23,0-0.4,0.09-0.5,0.26c-0.11,0.17-0.16,0.44-0.16,0.8v0.72c0,0.38,0.06,0.67,0.17,0.85c0.11,0.18,0.28,0.27,0.51,0.27
			c0.22,0,0.39-0.09,0.5-0.26s0.17-0.44,0.17-0.82V93.64z"/>
	</g>
</g>
<g>
	<g>
		<path fill="#FFFFFF" d="M5460.93,112.31h-0.45v-3.01l-0.91,0.33v-0.41l1.29-0.49h0.07V112.31z"/>
		<path fill="#FFFFFF" d="M5464.48,110.8c0,0.53-0.09,0.92-0.27,1.18c-0.18,0.26-0.46,0.39-0.85,0.39c-0.38,0-0.66-0.13-0.84-0.38
			c-0.18-0.25-0.28-0.63-0.28-1.13v-0.6c0-0.52,0.09-0.91,0.27-1.16s0.46-0.38,0.85-0.38c0.38,0,0.66,0.12,0.84,0.37
			c0.18,0.25,0.27,0.62,0.28,1.13V110.8z M5464.03,110.18c0-0.38-0.05-0.66-0.16-0.84c-0.11-0.18-0.28-0.26-0.51-0.26
			c-0.23,0-0.4,0.09-0.5,0.26c-0.11,0.17-0.16,0.44-0.16,0.8v0.72c0,0.38,0.06,0.67,0.17,0.85c0.11,0.18,0.28,0.27,0.51,0.27
			c0.22,0,0.39-0.09,0.5-0.26s0.17-0.44,0.17-0.82V110.18z"/>
	</g>
</g>
<g>
	<g>
		<path fill="#FFFFFF" d="M5461.67,128.4c0,0.53-0.09,0.92-0.27,1.18c-0.18,0.26-0.46,0.39-0.85,0.39c-0.38,0-0.66-0.13-0.84-0.38
			c-0.18-0.25-0.28-0.63-0.28-1.13v-0.6c0-0.52,0.09-0.91,0.27-1.16s0.46-0.38,0.85-0.38c0.38,0,0.66,0.12,0.84,0.37
			c0.18,0.25,0.27,0.62,0.28,1.13V128.4z M5461.22,127.79c0-0.38-0.05-0.66-0.16-0.84c-0.11-0.18-0.28-0.26-0.51-0.26
			c-0.23,0-0.4,0.09-0.5,0.26c-0.11,0.17-0.16,0.44-0.16,0.8v0.72c0,0.38,0.06,0.67,0.17,0.85c0.11,0.18,0.28,0.27,0.51,0.27
			c0.22,0,0.39-0.09,0.5-0.26s0.17-0.44,0.17-0.82V127.79z"/>
	</g>
</g>
<g>
	<g>
		<path fill="#FFFFFF" d="M5677.83,15.26l0.18-1.77h1.82v0.42h-1.44l-0.11,0.97c0.17-0.1,0.37-0.15,0.59-0.15
			c0.32,0,0.58,0.11,0.77,0.32c0.19,0.21,0.29,0.5,0.29,0.87c0,0.37-0.1,0.65-0.3,0.87c-0.2,0.21-0.47,0.32-0.83,0.32
			c-0.31,0-0.57-0.09-0.77-0.26c-0.2-0.17-0.31-0.42-0.34-0.72h0.43c0.03,0.2,0.1,0.36,0.22,0.46c0.12,0.1,0.27,0.15,0.46,0.15
			c0.21,0,0.38-0.07,0.49-0.21c0.12-0.14,0.18-0.34,0.18-0.59c0-0.24-0.06-0.43-0.19-0.57c-0.13-0.14-0.3-0.22-0.52-0.22
			c-0.2,0-0.35,0.04-0.46,0.13l-0.12,0.1L5677.83,15.26z"/>
		<path fill="#FFFFFF" d="M5682.66,15.53c0,0.53-0.09,0.92-0.27,1.18c-0.18,0.26-0.46,0.39-0.85,0.39c-0.38,0-0.66-0.13-0.84-0.38
			c-0.18-0.25-0.28-0.63-0.28-1.13v-0.6c0-0.52,0.09-0.91,0.27-1.16s0.46-0.38,0.85-0.38c0.38,0,0.66,0.12,0.84,0.37
			c0.18,0.25,0.27,0.62,0.28,1.13V15.53z M5682.21,14.91c0-0.38-0.05-0.66-0.16-0.84c-0.11-0.18-0.28-0.26-0.51-0.26
			c-0.23,0-0.4,0.09-0.5,0.26c-0.11,0.17-0.16,0.44-0.16,0.8v0.72c0,0.38,0.06,0.67,0.17,0.85c0.11,0.18,0.28,0.27,0.51,0.27
			c0.22,0,0.39-0.09,0.5-0.26s0.17-0.44,0.17-0.82V14.91z"/>
	</g>
</g>
<g>
	<g>
		<path fill="#FFFFFF" d="M5679.53,38.71h0.49v0.37h-0.49v0.83h-0.45v-0.83h-1.62v-0.27l1.59-2.46h0.48V38.71z M5677.97,38.71h1.11
			v-1.74l-0.05,0.1L5677.97,38.71z"/>
		<path fill="#FFFFFF" d="M5682.66,38.39c0,0.53-0.09,0.92-0.27,1.18c-0.18,0.26-0.46,0.39-0.85,0.39c-0.38,0-0.66-0.13-0.84-0.38
			c-0.18-0.25-0.28-0.63-0.28-1.13v-0.6c0-0.52,0.09-0.91,0.27-1.16s0.46-0.38,0.85-0.38c0.38,0,0.66,0.12,0.84,0.37
			c0.18,0.25,0.27,0.62,0.28,1.13V38.39z M5682.21,37.77c0-0.38-0.05-0.66-0.16-0.84c-0.11-0.18-0.28-0.26-0.51-0.26
			c-0.23,0-0.4,0.09-0.5,0.26c-0.11,0.17-0.16,0.44-0.16,0.8v0.72c0,0.38,0.06,0.67,0.17,0.85c0.11,0.18,0.28,0.27,0.51,0.27
			c0.22,0,0.39-0.09,0.5-0.26s0.17-0.44,0.17-0.82V37.77z"/>
	</g>
</g>
<g>
	<g>
		<path fill="#FFFFFF" d="M5678.28,60.52h0.34c0.21,0,0.38-0.06,0.5-0.17c0.12-0.11,0.18-0.26,0.18-0.44c0-0.42-0.21-0.62-0.62-0.62
			c-0.2,0-0.35,0.06-0.47,0.17c-0.12,0.11-0.17,0.26-0.17,0.44h-0.45c0-0.28,0.1-0.52,0.31-0.7c0.21-0.19,0.47-0.28,0.79-0.28
			c0.33,0,0.6,0.09,0.79,0.27s0.29,0.42,0.29,0.74c0,0.15-0.05,0.3-0.15,0.45c-0.1,0.15-0.24,0.25-0.41,0.32
			c0.2,0.06,0.35,0.16,0.45,0.31s0.16,0.32,0.16,0.52c0,0.32-0.1,0.57-0.31,0.76c-0.21,0.19-0.48,0.28-0.81,0.28
			s-0.61-0.09-0.81-0.27s-0.31-0.42-0.31-0.72h0.45c0,0.19,0.06,0.34,0.18,0.45c0.12,0.11,0.29,0.17,0.49,0.17
			c0.22,0,0.38-0.06,0.5-0.17c0.12-0.11,0.17-0.28,0.17-0.49c0-0.21-0.06-0.37-0.19-0.48s-0.31-0.17-0.55-0.17h-0.34V60.52z"/>
		<path fill="#FFFFFF" d="M5682.66,61c0,0.53-0.09,0.92-0.27,1.18c-0.18,0.26-0.46,0.39-0.85,0.39c-0.38,0-0.66-0.13-0.84-0.38
			c-0.18-0.25-0.28-0.63-0.28-1.13v-0.6c0-0.52,0.09-0.91,0.27-1.16s0.46-0.38,0.85-0.38c0.38,0,0.66,0.12,0.84,0.37
			c0.18,0.25,0.27,0.62,0.28,1.13V61z M5682.21,60.39c0-0.38-0.05-0.66-0.16-0.84c-0.11-0.18-0.28-0.26-0.51-0.26
			c-0.23,0-0.4,0.09-0.5,0.26c-0.11,0.17-0.16,0.44-0.16,0.8v0.72c0,0.38,0.06,0.67,0.17,0.85c0.11,0.18,0.28,0.27,0.51,0.27
			c0.22,0,0.39-0.09,0.5-0.26s0.17-0.44,0.17-0.82V60.39z"/>
	</g>
</g>
<g>
	<g>
		<path fill="#FFFFFF" d="M5679.96,85.37h-2.33v-0.32l1.23-1.37c0.18-0.21,0.31-0.37,0.38-0.5c0.07-0.13,0.1-0.26,0.1-0.4
			c0-0.19-0.06-0.34-0.17-0.46c-0.11-0.12-0.26-0.18-0.45-0.18c-0.22,0-0.4,0.06-0.52,0.19c-0.12,0.13-0.19,0.31-0.19,0.53h-0.45
			c0-0.33,0.11-0.59,0.32-0.79s0.49-0.3,0.85-0.3c0.33,0,0.59,0.09,0.78,0.26c0.19,0.17,0.29,0.4,0.29,0.69
			c0,0.35-0.22,0.77-0.67,1.25l-0.95,1.03h1.79V85.37z"/>
		<path fill="#FFFFFF" d="M5682.66,83.85c0,0.53-0.09,0.92-0.27,1.18c-0.18,0.26-0.46,0.39-0.85,0.39c-0.38,0-0.66-0.13-0.84-0.38
			c-0.18-0.25-0.28-0.63-0.28-1.13v-0.6c0-0.52,0.09-0.91,0.27-1.16s0.46-0.38,0.85-0.38c0.38,0,0.66,0.12,0.84,0.37
			c0.18,0.25,0.27,0.62,0.28,1.13V83.85z M5682.21,83.23c0-0.38-0.05-0.66-0.16-0.84c-0.11-0.18-0.28-0.26-0.51-0.26
			c-0.23,0-0.4,0.09-0.5,0.26c-0.11,0.17-0.16,0.44-0.16,0.8v0.72c0,0.38,0.06,0.67,0.17,0.85c0.11,0.18,0.28,0.27,0.51,0.27
			c0.22,0,0.39-0.09,0.5-0.26s0.17-0.44,0.17-0.82V83.23z"/>
	</g>
</g>
<g>
	<g>
		<path fill="#FFFFFF" d="M5679.11,108.94h-0.45v-3.01l-0.91,0.33v-0.41l1.29-0.49h0.07V108.94z"/>
		<path fill="#FFFFFF" d="M5682.66,107.42c0,0.53-0.09,0.92-0.27,1.18c-0.18,0.26-0.46,0.39-0.85,0.39c-0.38,0-0.66-0.13-0.84-0.38
			c-0.18-0.25-0.28-0.63-0.28-1.13v-0.6c0-0.52,0.09-0.91,0.27-1.16s0.46-0.38,0.85-0.38c0.38,0,0.66,0.12,0.84,0.37
			c0.18,0.25,0.27,0.62,0.28,1.13V107.42z M5682.21,106.8c0-0.38-0.05-0.66-0.16-0.84c-0.11-0.18-0.28-0.26-0.51-0.26
			c-0.23,0-0.4,0.09-0.5,0.26c-0.11,0.17-0.16,0.44-0.16,0.8v0.72c0,0.38,0.06,0.67,0.17,0.85c0.11,0.18,0.28,0.27,0.51,0.27
			c0.22,0,0.39-0.09,0.5-0.26s0.17-0.44,0.17-0.82V106.8z"/>
	</g>
</g>
<g>
	<g>
		<path fill="#FFFFFF" d="M5679.86,128.4c0,0.53-0.09,0.92-0.27,1.18c-0.18,0.26-0.46,0.39-0.85,0.39c-0.38,0-0.66-0.13-0.84-0.38
			c-0.18-0.25-0.28-0.63-0.28-1.13v-0.6c0-0.52,0.09-0.91,0.27-1.16s0.46-0.38,0.85-0.38c0.38,0,0.66,0.12,0.84,0.37
			c0.18,0.25,0.27,0.62,0.28,1.13V128.4z M5679.4,127.79c0-0.38-0.05-0.66-0.16-0.84c-0.11-0.18-0.28-0.26-0.51-0.26
			c-0.23,0-0.4,0.09-0.5,0.26c-0.11,0.17-0.16,0.44-0.16,0.8v0.72c0,0.38,0.06,0.67,0.17,0.85c0.11,0.18,0.28,0.27,0.51,0.27
			c0.22,0,0.39-0.09,0.5-0.26s0.17-0.44,0.17-0.82V127.79z"/>
	</g>
</g>
<g>
	<g>
		<path fill="#FFFFFF" d="M5503.67,146.6h-0.45v-3.01l-0.91,0.33v-0.41l1.29-0.49h0.07V146.6z"/>
		<path fill="#FFFFFF" d="M5506.73,145.04c-0.09,0.11-0.21,0.2-0.34,0.27s-0.27,0.1-0.43,0.1c-0.21,0-0.38-0.05-0.54-0.15
			s-0.27-0.24-0.35-0.43c-0.08-0.18-0.12-0.39-0.12-0.61c0-0.24,0.04-0.45,0.14-0.64c0.09-0.19,0.22-0.34,0.38-0.44
			s0.36-0.15,0.58-0.15c0.35,0,0.63,0.13,0.83,0.39c0.2,0.26,0.3,0.62,0.3,1.08v0.13c0,0.69-0.14,1.2-0.41,1.51
			c-0.27,0.32-0.69,0.48-1.24,0.49h-0.09v-0.38h0.1c0.37-0.01,0.66-0.1,0.86-0.29S5506.71,145.44,5506.73,145.04z M5506.03,145.04
			c0.15,0,0.29-0.05,0.42-0.14s0.22-0.21,0.28-0.34v-0.18c0-0.3-0.06-0.54-0.19-0.72s-0.29-0.28-0.49-0.28
			c-0.2,0-0.36,0.08-0.48,0.23c-0.12,0.15-0.18,0.35-0.18,0.6c0,0.24,0.06,0.44,0.17,0.6
			C5505.68,144.96,5505.83,145.04,5506.03,145.04z"/>
		<path fill="#FFFFFF" d="M5510.1,143.3l-1.47,3.3h-0.47l1.47-3.18h-1.92v-0.37h2.4V143.3z"/>
		<path fill="#FFFFFF" d="M5511.27,144.6h0.34c0.21,0,0.38-0.06,0.5-0.17c0.12-0.11,0.18-0.26,0.18-0.44c0-0.42-0.21-0.62-0.62-0.62
			c-0.2,0-0.35,0.06-0.47,0.17c-0.12,0.11-0.17,0.26-0.17,0.44h-0.45c0-0.28,0.1-0.52,0.31-0.7c0.21-0.19,0.47-0.28,0.79-0.28
			c0.33,0,0.6,0.09,0.79,0.27s0.29,0.42,0.29,0.74c0,0.15-0.05,0.3-0.15,0.45c-0.1,0.15-0.24,0.25-0.41,0.32
			c0.2,0.06,0.35,0.16,0.45,0.31s0.16,0.32,0.16,0.52c0,0.32-0.1,0.57-0.31,0.76c-0.21,0.19-0.48,0.28-0.81,0.28
			s-0.61-0.09-0.81-0.27s-0.31-0.42-0.31-0.72h0.45c0,0.19,0.06,0.34,0.18,0.45c0.12,0.11,0.29,0.17,0.49,0.17
			c0.22,0,0.38-0.06,0.5-0.17c0.12-0.11,0.17-0.28,0.17-0.49c0-0.21-0.06-0.37-0.19-0.48s-0.31-0.17-0.55-0.17h-0.34V144.6z"/>
	</g>
</g>
<g>
	<g>
		<path fill="#FFFFFF" d="M5544.93,146.6h-0.45v-3.01l-0.91,0.33v-0.41l1.29-0.49h0.07V146.6z"/>
		<path fill="#FFFFFF" d="M5547.98,145.04c-0.09,0.11-0.21,0.2-0.34,0.27s-0.27,0.1-0.43,0.1c-0.21,0-0.38-0.05-0.54-0.15
			s-0.27-0.24-0.35-0.43c-0.08-0.18-0.12-0.39-0.12-0.61c0-0.24,0.04-0.45,0.14-0.64c0.09-0.19,0.22-0.34,0.38-0.44
			s0.36-0.15,0.58-0.15c0.35,0,0.63,0.13,0.83,0.39c0.2,0.26,0.3,0.62,0.3,1.08v0.13c0,0.69-0.14,1.2-0.41,1.51
			c-0.27,0.32-0.69,0.48-1.24,0.49h-0.09v-0.38h0.1c0.37-0.01,0.66-0.1,0.86-0.29S5547.97,145.44,5547.98,145.04z M5547.29,145.04
			c0.15,0,0.29-0.05,0.42-0.14s0.22-0.21,0.28-0.34v-0.18c0-0.3-0.06-0.54-0.19-0.72s-0.29-0.28-0.49-0.28
			c-0.2,0-0.36,0.08-0.48,0.23c-0.12,0.15-0.18,0.35-0.18,0.6c0,0.24,0.06,0.44,0.17,0.6
			C5546.94,144.96,5547.09,145.04,5547.29,145.04z"/>
		<path fill="#FFFFFF" d="M5551.36,143.3l-1.47,3.3h-0.47l1.47-3.18h-1.92v-0.37h2.4V143.3z"/>
		<path fill="#FFFFFF" d="M5554.2,146.6h-2.33v-0.32l1.23-1.37c0.18-0.21,0.31-0.37,0.38-0.5c0.07-0.13,0.1-0.26,0.1-0.4
			c0-0.19-0.06-0.34-0.17-0.46c-0.11-0.12-0.26-0.18-0.45-0.18c-0.22,0-0.4,0.06-0.52,0.19c-0.12,0.13-0.19,0.31-0.19,0.53h-0.45
			c0-0.33,0.11-0.59,0.32-0.79s0.49-0.3,0.85-0.3c0.33,0,0.59,0.09,0.78,0.26c0.19,0.17,0.29,0.4,0.29,0.69
			c0,0.35-0.22,0.77-0.67,1.25l-0.95,1.03h1.79V146.6z"/>
	</g>
</g>
<g>
	<g>
		<path fill="#FFFFFF" d="M5658.74,166.74l0.81-2.35h0.41l-1.05,2.84h-0.33l-1.05-2.84h0.41L5658.74,166.74z"/>
		<path fill="#FFFFFF" d="M5661.08,167.28c-0.29,0-0.52-0.09-0.7-0.28s-0.27-0.44-0.27-0.75v-0.07c0-0.21,0.04-0.4,0.12-0.56
			s0.19-0.29,0.34-0.39s0.3-0.14,0.47-0.14c0.27,0,0.49,0.09,0.64,0.27s0.23,0.44,0.23,0.78v0.15h-1.43c0,0.21,0.07,0.38,0.18,0.5
			s0.26,0.19,0.44,0.19c0.13,0,0.24-0.03,0.32-0.08s0.17-0.12,0.23-0.21l0.22,0.17C5661.7,167.14,5661.43,167.28,5661.08,167.28z
			 M5661.03,165.38c-0.15,0-0.27,0.05-0.37,0.16s-0.16,0.25-0.18,0.45h1.06v-0.03c-0.01-0.18-0.06-0.33-0.15-0.43
			S5661.18,165.38,5661.03,165.38z"/>
		<path fill="#FFFFFF" d="M5662.23,166.17c0-0.33,0.08-0.59,0.23-0.79s0.35-0.29,0.61-0.29c0.26,0,0.46,0.09,0.6,0.27l0.02-0.23
			h0.33v2.06c0,0.27-0.08,0.49-0.24,0.65s-0.38,0.24-0.65,0.24c-0.15,0-0.3-0.03-0.45-0.1s-0.26-0.15-0.33-0.27l0.19-0.22
			c0.16,0.19,0.34,0.29,0.57,0.29c0.18,0,0.31-0.05,0.41-0.15s0.15-0.24,0.15-0.42v-0.18c-0.14,0.17-0.34,0.25-0.59,0.25
			c-0.25,0-0.45-0.1-0.6-0.3S5662.23,166.51,5662.23,166.17z M5662.59,166.21c0,0.24,0.05,0.43,0.15,0.56s0.23,0.2,0.41,0.2
			c0.23,0,0.4-0.1,0.5-0.31v-0.96c-0.11-0.2-0.28-0.3-0.5-0.3c-0.18,0-0.31,0.07-0.41,0.21S5662.59,165.94,5662.59,166.21z"/>
		<path fill="#FFFFFF" d="M5665.44,167.28c-0.29,0-0.52-0.09-0.7-0.28s-0.27-0.44-0.27-0.75v-0.07c0-0.21,0.04-0.4,0.12-0.56
			s0.19-0.29,0.34-0.39s0.3-0.14,0.47-0.14c0.27,0,0.49,0.09,0.64,0.27s0.23,0.44,0.23,0.78v0.15h-1.43c0,0.21,0.07,0.38,0.18,0.5
			s0.26,0.19,0.44,0.19c0.13,0,0.24-0.03,0.32-0.08s0.17-0.12,0.23-0.21l0.22,0.17C5666.06,167.14,5665.79,167.28,5665.44,167.28z
			 M5665.39,165.38c-0.15,0-0.27,0.05-0.37,0.16s-0.16,0.25-0.18,0.45h1.06v-0.03c-0.01-0.18-0.06-0.33-0.15-0.43
			S5665.54,165.38,5665.39,165.38z"/>
		<path fill="#FFFFFF" d="M5667.17,164.61v0.51h0.39v0.28h-0.39v1.31c0,0.08,0.02,0.15,0.05,0.19s0.09,0.06,0.18,0.06
			c0.04,0,0.1-0.01,0.17-0.02v0.29c-0.09,0.03-0.19,0.04-0.28,0.04c-0.16,0-0.28-0.05-0.37-0.15s-0.12-0.24-0.12-0.42v-1.31h-0.38
			v-0.28h0.38v-0.51H5667.17z"/>
		<path fill="#FFFFFF" d="M5669.29,167.24c-0.02-0.04-0.04-0.12-0.05-0.22c-0.17,0.17-0.37,0.26-0.6,0.26
			c-0.21,0-0.38-0.06-0.51-0.18s-0.2-0.27-0.2-0.45c0-0.22,0.08-0.39,0.25-0.51s0.4-0.18,0.71-0.18h0.35v-0.17
			c0-0.13-0.04-0.23-0.11-0.3s-0.19-0.11-0.33-0.11c-0.13,0-0.24,0.03-0.32,0.1s-0.13,0.14-0.13,0.24h-0.36
			c0-0.11,0.04-0.21,0.11-0.31s0.18-0.18,0.3-0.23s0.27-0.09,0.42-0.09c0.24,0,0.43,0.06,0.57,0.18s0.21,0.29,0.21,0.5v0.97
			c0,0.19,0.02,0.35,0.07,0.46v0.03H5669.29z M5668.69,166.96c0.11,0,0.22-0.03,0.32-0.09s0.17-0.13,0.22-0.23v-0.43h-0.28
			c-0.44,0-0.66,0.13-0.66,0.39c0,0.11,0.04,0.2,0.11,0.27S5668.57,166.96,5668.69,166.96z"/>
		<path fill="#FFFFFF" d="M5670.65,164.61v0.51h0.39v0.28h-0.39v1.31c0,0.08,0.02,0.15,0.05,0.19s0.09,0.06,0.18,0.06
			c0.04,0,0.1-0.01,0.17-0.02v0.29c-0.09,0.03-0.19,0.04-0.28,0.04c-0.16,0-0.28-0.05-0.37-0.15s-0.12-0.24-0.12-0.42v-1.31h-0.38
			v-0.28h0.38v-0.51H5670.65z"/>
		<path fill="#FFFFFF" d="M5671.47,164.57c0-0.06,0.02-0.11,0.05-0.15s0.09-0.06,0.16-0.06s0.12,0.02,0.16,0.06s0.05,0.09,0.05,0.15
			s-0.02,0.11-0.05,0.15s-0.09,0.06-0.16,0.06s-0.12-0.02-0.16-0.06S5671.47,164.62,5671.47,164.57z M5671.86,167.24h-0.36v-2.11
			h0.36V167.24z"/>
		<path fill="#FFFFFF" d="M5672.34,166.16c0-0.21,0.04-0.39,0.12-0.56s0.19-0.29,0.34-0.38s0.31-0.13,0.5-0.13
			c0.29,0,0.52,0.1,0.7,0.3s0.27,0.46,0.27,0.79v0.03c0,0.21-0.04,0.39-0.12,0.55s-0.19,0.29-0.34,0.38s-0.31,0.14-0.5,0.14
			c-0.29,0-0.52-0.1-0.7-0.3s-0.27-0.46-0.27-0.79V166.16z M5672.71,166.21c0,0.23,0.05,0.42,0.16,0.56s0.25,0.21,0.44,0.21
			c0.18,0,0.33-0.07,0.44-0.22s0.16-0.35,0.16-0.6c0-0.23-0.05-0.42-0.17-0.56s-0.26-0.22-0.44-0.22c-0.18,0-0.32,0.07-0.43,0.21
			S5672.71,165.94,5672.71,166.21z"/>
		<path fill="#FFFFFF" d="M5675.06,165.13l0.01,0.27c0.16-0.2,0.37-0.3,0.63-0.3c0.45,0,0.67,0.25,0.68,0.76v1.4h-0.36v-1.4
			c0-0.15-0.04-0.27-0.1-0.34s-0.17-0.11-0.32-0.11c-0.12,0-0.22,0.03-0.31,0.09s-0.16,0.14-0.21,0.25v1.51h-0.36v-2.11H5675.06z"/>
	</g>
</g>
<g>
	<g>
		<path fill="#FFFFFF" d="M5657.8,182.99v-2.84h0.93c0.31,0,0.54,0.06,0.7,0.19s0.23,0.32,0.23,0.57c0,0.13-0.04,0.25-0.11,0.35
			s-0.18,0.18-0.31,0.24c0.15,0.04,0.28,0.12,0.36,0.25s0.13,0.26,0.13,0.43c0,0.26-0.08,0.46-0.25,0.6s-0.4,0.22-0.7,0.22H5657.8z
			 M5658.17,181.36h0.57c0.16,0,0.29-0.04,0.39-0.12c0.1-0.08,0.15-0.19,0.15-0.33c0-0.16-0.05-0.27-0.14-0.34
			c-0.09-0.07-0.23-0.11-0.42-0.11h-0.55V181.36z M5658.17,181.66v1.02h0.62c0.17,0,0.31-0.05,0.41-0.14s0.15-0.22,0.15-0.37
			c0-0.34-0.19-0.51-0.56-0.51H5658.17z"/>
		<path fill="#FFFFFF" d="M5661.53,182.78c-0.14,0.17-0.35,0.25-0.62,0.25c-0.23,0-0.4-0.07-0.51-0.2s-0.18-0.32-0.18-0.58v-1.38
			h0.36v1.37c0,0.32,0.13,0.48,0.39,0.48c0.28,0,0.46-0.1,0.55-0.31v-1.54h0.36v2.11h-0.34L5661.53,182.78z"/>
		<path fill="#FFFFFF" d="M5662.44,180.32c0-0.06,0.02-0.11,0.05-0.15s0.09-0.06,0.16-0.06s0.12,0.02,0.16,0.06s0.05,0.09,0.05,0.15
			s-0.02,0.11-0.05,0.15s-0.09,0.06-0.16,0.06s-0.12-0.02-0.16-0.06S5662.44,180.38,5662.44,180.32z M5662.83,182.99h-0.36v-2.11
			h0.36V182.99z"/>
		<path fill="#FFFFFF" d="M5663.8,182.99h-0.36v-3h0.36V182.99z"/>
		<path fill="#FFFFFF" d="M5664.87,180.37v0.51h0.39v0.28h-0.39v1.31c0,0.08,0.02,0.15,0.05,0.19s0.09,0.06,0.18,0.06
			c0.04,0,0.1-0.01,0.17-0.02v0.29c-0.09,0.03-0.19,0.04-0.28,0.04c-0.16,0-0.28-0.05-0.37-0.15s-0.12-0.24-0.12-0.42v-1.31h-0.38
			v-0.28h0.38v-0.51H5664.87z"/>
		<path fill="#FFFFFF" d="M5668.73,180.15v1.93c0,0.27-0.09,0.49-0.25,0.66s-0.39,0.27-0.68,0.29l-0.1,0
			c-0.31,0-0.56-0.08-0.74-0.25s-0.28-0.4-0.28-0.69v-1.94h0.37v1.93c0,0.21,0.06,0.37,0.17,0.48s0.27,0.17,0.48,0.17
			c0.21,0,0.38-0.06,0.49-0.17s0.17-0.27,0.17-0.48v-1.93H5668.73z"/>
		<path fill="#FFFFFF" d="M5671.05,181.96c0,0.32-0.07,0.58-0.22,0.78s-0.35,0.29-0.6,0.29c-0.26,0-0.46-0.08-0.61-0.24v1.02h-0.36
			v-2.93h0.33l0.02,0.23c0.15-0.18,0.35-0.27,0.61-0.27c0.25,0,0.46,0.1,0.6,0.29s0.22,0.46,0.22,0.8V181.96z M5670.69,181.92
			c0-0.24-0.05-0.43-0.15-0.56s-0.24-0.21-0.42-0.21c-0.22,0-0.38,0.1-0.49,0.29v1.01c0.11,0.19,0.27,0.29,0.5,0.29
			c0.17,0,0.31-0.07,0.41-0.21S5670.69,182.19,5670.69,181.92z"/>
	</g>
</g>
<g>
	<g>
		<path fill="#FFFFFF" d="M5659.98,194.81c0,0.28-0.05,0.52-0.14,0.73c-0.09,0.21-0.23,0.37-0.4,0.48s-0.37,0.16-0.6,0.16
			c-0.22,0-0.42-0.06-0.6-0.17c-0.17-0.11-0.31-0.27-0.4-0.47c-0.1-0.2-0.14-0.44-0.15-0.71v-0.21c0-0.27,0.05-0.52,0.14-0.72
			c0.09-0.21,0.23-0.37,0.4-0.48s0.37-0.17,0.6-0.17c0.23,0,0.43,0.05,0.6,0.17c0.17,0.11,0.31,0.27,0.4,0.48s0.14,0.45,0.14,0.73
			V194.81z M5659.61,194.62c0-0.34-0.07-0.6-0.2-0.78c-0.14-0.18-0.33-0.27-0.57-0.27c-0.24,0-0.42,0.09-0.56,0.27
			c-0.14,0.18-0.21,0.43-0.21,0.75v0.21c0,0.33,0.07,0.58,0.21,0.77c0.14,0.19,0.33,0.28,0.57,0.28c0.24,0,0.43-0.09,0.56-0.26
			c0.13-0.18,0.2-0.43,0.21-0.76V194.62z"/>
		<path fill="#FFFFFF" d="M5660.98,193.51v0.51h0.39v0.28h-0.39v1.31c0,0.08,0.02,0.15,0.05,0.19c0.04,0.04,0.09,0.06,0.18,0.06
			c0.04,0,0.1-0.01,0.17-0.02v0.29c-0.09,0.03-0.19,0.04-0.28,0.04c-0.16,0-0.28-0.05-0.37-0.15s-0.12-0.24-0.12-0.42v-1.31h-0.38
			v-0.28h0.38v-0.51H5660.98z"/>
		<path fill="#FFFFFF" d="M5662.16,194.28c0.16-0.2,0.37-0.29,0.62-0.29c0.45,0,0.67,0.25,0.68,0.76v1.4h-0.36v-1.4
			c0-0.15-0.04-0.27-0.1-0.34c-0.07-0.07-0.17-0.11-0.32-0.11c-0.12,0-0.22,0.03-0.31,0.09s-0.16,0.14-0.21,0.25v1.51h-0.36v-3h0.36
			V194.28z"/>
		<path fill="#FFFFFF" d="M5664.88,196.18c-0.29,0-0.52-0.09-0.7-0.28c-0.18-0.19-0.27-0.44-0.27-0.75v-0.07
			c0-0.21,0.04-0.4,0.12-0.56c0.08-0.17,0.19-0.29,0.34-0.39c0.14-0.09,0.3-0.14,0.47-0.14c0.27,0,0.49,0.09,0.64,0.27
			c0.15,0.18,0.23,0.44,0.23,0.78v0.15h-1.43c0,0.21,0.07,0.38,0.18,0.5c0.12,0.13,0.26,0.19,0.44,0.19c0.13,0,0.24-0.03,0.32-0.08
			c0.09-0.05,0.17-0.12,0.23-0.21l0.22,0.17C5665.5,196.04,5665.23,196.18,5664.88,196.18z M5664.83,194.28
			c-0.15,0-0.27,0.05-0.37,0.16c-0.1,0.11-0.16,0.25-0.18,0.45h1.06v-0.03c-0.01-0.18-0.06-0.33-0.15-0.43
			C5665.1,194.33,5664.98,194.28,5664.83,194.28z"/>
		<path fill="#FFFFFF" d="M5667.14,194.35c-0.05-0.01-0.11-0.01-0.18-0.01c-0.24,0-0.4,0.1-0.48,0.3v1.5h-0.36v-2.11h0.35l0.01,0.24
			c0.12-0.19,0.29-0.28,0.5-0.28c0.07,0,0.12,0.01,0.16,0.03V194.35z"/>
		<path fill="#FFFFFF" d="M5668.7,195.58c0-0.1-0.04-0.17-0.11-0.23c-0.07-0.05-0.2-0.1-0.38-0.14s-0.33-0.09-0.44-0.14
			s-0.19-0.12-0.24-0.2c-0.05-0.08-0.08-0.17-0.08-0.27c0-0.17,0.07-0.32,0.22-0.44c0.15-0.12,0.33-0.18,0.56-0.18
			c0.24,0,0.43,0.06,0.58,0.19c0.15,0.12,0.22,0.28,0.22,0.47h-0.36c0-0.1-0.04-0.18-0.13-0.26c-0.08-0.07-0.19-0.11-0.32-0.11
			c-0.13,0-0.23,0.03-0.31,0.09c-0.07,0.06-0.11,0.13-0.11,0.22c0,0.09,0.03,0.15,0.1,0.2c0.07,0.04,0.19,0.09,0.37,0.13
			c0.18,0.04,0.33,0.09,0.44,0.14c0.11,0.06,0.2,0.12,0.25,0.2c0.05,0.08,0.08,0.17,0.08,0.29c0,0.19-0.08,0.34-0.23,0.45
			c-0.15,0.11-0.35,0.17-0.59,0.17c-0.17,0-0.32-0.03-0.45-0.09c-0.13-0.06-0.23-0.14-0.31-0.25s-0.11-0.22-0.11-0.35h0.36
			c0.01,0.12,0.05,0.22,0.15,0.29c0.09,0.07,0.21,0.11,0.36,0.11c0.14,0,0.25-0.03,0.33-0.08
			C5668.66,195.74,5668.7,195.67,5668.7,195.58z"/>
	</g>
</g>
<g>
	<g>
		<path fill="#FFFFFF" d="M5658.41,206.86l0.05,0.38l0.08-0.34l0.56-1.98h0.32l0.55,1.98l0.08,0.34l0.06-0.38l0.44-1.95h0.38
			l-0.69,2.84h-0.34l-0.59-2.07l-0.04-0.22l-0.04,0.22l-0.61,2.07h-0.34l-0.69-2.84h0.38L5658.41,206.86z"/>
		<path fill="#FFFFFF" d="M5662.53,207.76c-0.02-0.04-0.04-0.12-0.05-0.22c-0.17,0.17-0.37,0.26-0.6,0.26
			c-0.21,0-0.38-0.06-0.51-0.18s-0.2-0.27-0.2-0.45c0-0.22,0.08-0.39,0.25-0.51s0.4-0.18,0.71-0.18h0.35v-0.17
			c0-0.13-0.04-0.23-0.11-0.3s-0.19-0.11-0.33-0.11c-0.13,0-0.24,0.03-0.32,0.1s-0.13,0.14-0.13,0.24h-0.36
			c0-0.11,0.04-0.21,0.11-0.31s0.18-0.18,0.3-0.23s0.27-0.09,0.42-0.09c0.24,0,0.43,0.06,0.57,0.18s0.21,0.29,0.21,0.5v0.97
			c0,0.19,0.02,0.35,0.07,0.46v0.03H5662.53z M5661.93,207.48c0.11,0,0.22-0.03,0.32-0.09s0.17-0.13,0.22-0.23v-0.43h-0.28
			c-0.44,0-0.66,0.13-0.66,0.39c0,0.11,0.04,0.2,0.11,0.27S5661.81,207.48,5661.93,207.48z"/>
		<path fill="#FFFFFF" d="M5663.89,205.13v0.51h0.39v0.28h-0.39v1.31c0,0.08,0.02,0.15,0.05,0.19s0.09,0.06,0.18,0.06
			c0.04,0,0.1-0.01,0.17-0.02v0.29c-0.09,0.03-0.19,0.04-0.28,0.04c-0.16,0-0.28-0.05-0.37-0.15s-0.12-0.24-0.12-0.42v-1.31h-0.38
			v-0.28h0.38v-0.51H5663.89z"/>
		<path fill="#FFFFFF" d="M5665.58,207.79c-0.29,0-0.52-0.09-0.7-0.28s-0.27-0.44-0.27-0.75v-0.07c0-0.21,0.04-0.4,0.12-0.56
			s0.19-0.29,0.34-0.39s0.3-0.14,0.47-0.14c0.27,0,0.49,0.09,0.64,0.27s0.23,0.44,0.23,0.78v0.15h-1.43c0,0.21,0.07,0.38,0.18,0.5
			s0.26,0.19,0.44,0.19c0.13,0,0.24-0.03,0.32-0.08s0.17-0.12,0.23-0.21l0.22,0.17C5666.2,207.66,5665.94,207.79,5665.58,207.79z
			 M5665.54,205.9c-0.15,0-0.27,0.05-0.37,0.16s-0.16,0.25-0.18,0.45h1.06v-0.03c-0.01-0.18-0.06-0.33-0.15-0.43
			S5665.69,205.9,5665.54,205.9z"/>
		<path fill="#FFFFFF" d="M5667.85,205.97c-0.05-0.01-0.11-0.01-0.18-0.01c-0.24,0-0.4,0.1-0.48,0.3v1.5h-0.36v-2.11h0.35l0.01,0.24
			c0.12-0.19,0.29-0.28,0.5-0.28c0.07,0,0.12,0.01,0.16,0.03V205.97z"/>
		<path fill="#FFFFFF" d="M5669.23,207.76v-2.84h0.93c0.31,0,0.54,0.06,0.7,0.19s0.23,0.32,0.23,0.57c0,0.13-0.04,0.25-0.11,0.35
			s-0.18,0.18-0.31,0.24c0.15,0.04,0.28,0.12,0.36,0.25s0.13,0.26,0.13,0.43c0,0.26-0.08,0.46-0.25,0.6s-0.4,0.22-0.7,0.22H5669.23z
			 M5669.6,206.12h0.57c0.16,0,0.29-0.04,0.39-0.12c0.1-0.08,0.15-0.19,0.15-0.33c0-0.16-0.05-0.27-0.14-0.34
			c-0.09-0.07-0.23-0.11-0.42-0.11h-0.55V206.12z M5669.6,206.43v1.02h0.62c0.17,0,0.31-0.05,0.41-0.14s0.15-0.22,0.15-0.37
			c0-0.34-0.19-0.51-0.56-0.51H5669.6z"/>
		<path fill="#FFFFFF" d="M5671.56,206.68c0-0.21,0.04-0.39,0.12-0.56s0.19-0.29,0.34-0.38s0.31-0.13,0.5-0.13
			c0.29,0,0.52,0.1,0.7,0.3s0.27,0.46,0.27,0.79v0.03c0,0.21-0.04,0.39-0.12,0.55s-0.19,0.29-0.34,0.38s-0.31,0.14-0.5,0.14
			c-0.29,0-0.52-0.1-0.7-0.3s-0.27-0.46-0.27-0.79V206.68z M5671.93,206.72c0,0.23,0.05,0.42,0.16,0.56s0.25,0.21,0.44,0.21
			c0.18,0,0.33-0.07,0.44-0.22s0.16-0.35,0.16-0.6c0-0.23-0.05-0.42-0.17-0.56s-0.26-0.22-0.44-0.22c-0.18,0-0.32,0.07-0.43,0.21
			S5671.93,206.46,5671.93,206.72z"/>
		<path fill="#FFFFFF" d="M5673.85,206.68c0-0.32,0.08-0.58,0.23-0.78s0.35-0.3,0.6-0.3c0.25,0,0.44,0.08,0.59,0.25v-1.1h0.36v3
			h-0.33l-0.02-0.23c-0.14,0.18-0.35,0.27-0.6,0.27c-0.25,0-0.44-0.1-0.6-0.3s-0.23-0.46-0.23-0.79V206.68z M5674.21,206.72
			c0,0.24,0.05,0.43,0.15,0.56s0.24,0.2,0.41,0.2c0.23,0,0.4-0.1,0.5-0.31v-0.97c-0.11-0.2-0.27-0.3-0.5-0.3
			c-0.18,0-0.32,0.07-0.41,0.21S5674.21,206.45,5674.21,206.72z"/>
		<path fill="#FFFFFF" d="M5676.2,205.08c0-0.06,0.02-0.11,0.05-0.15s0.09-0.06,0.16-0.06s0.12,0.02,0.16,0.06s0.05,0.09,0.05,0.15
			s-0.02,0.11-0.05,0.15s-0.09,0.06-0.16,0.06s-0.12-0.02-0.16-0.06S5676.2,205.14,5676.2,205.08z M5676.59,207.76h-0.36v-2.11h0.36
			V207.76z"/>
		<path fill="#FFFFFF" d="M5678.04,207.79c-0.29,0-0.52-0.09-0.7-0.28s-0.27-0.44-0.27-0.75v-0.07c0-0.21,0.04-0.4,0.12-0.56
			s0.19-0.29,0.34-0.39s0.3-0.14,0.47-0.14c0.27,0,0.49,0.09,0.64,0.27s0.23,0.44,0.23,0.78v0.15h-1.43c0,0.21,0.07,0.38,0.18,0.5
			s0.26,0.19,0.44,0.19c0.13,0,0.24-0.03,0.32-0.08s0.17-0.12,0.23-0.21l0.22,0.17C5678.66,207.66,5678.4,207.79,5678.04,207.79z
			 M5678,205.9c-0.15,0-0.27,0.05-0.37,0.16s-0.16,0.25-0.18,0.45h1.06v-0.03c-0.01-0.18-0.06-0.33-0.15-0.43
			S5678.15,205.9,5678,205.9z"/>
		<path fill="#FFFFFF" d="M5680.52,207.2c0-0.1-0.04-0.17-0.11-0.23s-0.2-0.1-0.38-0.14s-0.33-0.09-0.44-0.14s-0.19-0.12-0.24-0.2
			s-0.08-0.17-0.08-0.27c0-0.17,0.07-0.32,0.22-0.44s0.33-0.18,0.56-0.18c0.24,0,0.43,0.06,0.58,0.19s0.22,0.28,0.22,0.47h-0.36
			c0-0.1-0.04-0.18-0.13-0.26s-0.19-0.11-0.32-0.11c-0.13,0-0.23,0.03-0.31,0.09s-0.11,0.13-0.11,0.22c0,0.09,0.03,0.15,0.1,0.2
			s0.19,0.09,0.37,0.13s0.33,0.09,0.44,0.14s0.2,0.12,0.25,0.2s0.08,0.17,0.08,0.29c0,0.19-0.08,0.34-0.23,0.45
			s-0.35,0.17-0.59,0.17c-0.17,0-0.32-0.03-0.45-0.09s-0.23-0.14-0.31-0.25s-0.11-0.22-0.11-0.35h0.36
			c0.01,0.12,0.05,0.22,0.15,0.29s0.21,0.11,0.36,0.11c0.14,0,0.25-0.03,0.33-0.08S5680.52,207.29,5680.52,207.2z"/>
		<path fill="#FFFFFF" d="M5682.33,206.6c0-0.29,0.04-0.58,0.12-0.85s0.2-0.52,0.35-0.74s0.32-0.38,0.49-0.47l0.07,0.24
			c-0.19,0.15-0.35,0.37-0.47,0.67s-0.19,0.63-0.2,1.01l0,0.17c0,0.5,0.09,0.94,0.28,1.31c0.11,0.22,0.24,0.39,0.39,0.52l-0.07,0.22
			c-0.17-0.1-0.34-0.26-0.5-0.48C5682.48,207.75,5682.33,207.22,5682.33,206.6z"/>
		<path fill="#FFFFFF" d="M5685.95,207.76h-0.38l-1.43-2.19v2.19h-0.38v-2.84h0.38l1.44,2.2v-2.2h0.37V207.76z"/>
		<path fill="#FFFFFF" d="M5687.86,207.55c-0.14,0.17-0.35,0.25-0.62,0.25c-0.23,0-0.4-0.07-0.51-0.2s-0.18-0.32-0.18-0.58v-1.38
			h0.36v1.37c0,0.32,0.13,0.48,0.39,0.48c0.28,0,0.46-0.1,0.55-0.31v-1.54h0.36v2.11h-0.34L5687.86,207.55z"/>
		<path fill="#FFFFFF" d="M5689.1,205.64l0.01,0.23c0.16-0.18,0.36-0.27,0.63-0.27c0.3,0,0.5,0.11,0.6,0.34
			c0.07-0.1,0.16-0.18,0.27-0.25s0.25-0.09,0.4-0.09c0.46,0,0.7,0.25,0.71,0.74v1.42h-0.36v-1.39c0-0.15-0.03-0.26-0.1-0.34
			s-0.18-0.11-0.35-0.11c-0.13,0-0.25,0.04-0.33,0.12s-0.14,0.19-0.15,0.32v1.4h-0.36v-1.38c0-0.31-0.15-0.46-0.45-0.46
			c-0.24,0-0.4,0.1-0.49,0.3v1.54h-0.36v-2.11H5689.1z"/>
		<path fill="#FFFFFF" d="M5694.06,206.72c0,0.32-0.07,0.58-0.22,0.78s-0.35,0.29-0.6,0.29c-0.27,0-0.47-0.09-0.62-0.28l-0.02,0.24
			h-0.33v-3h0.36v1.12c0.15-0.18,0.35-0.27,0.6-0.27s0.46,0.1,0.6,0.29s0.22,0.46,0.22,0.8V206.72z M5693.7,206.68
			c0-0.25-0.05-0.44-0.14-0.57s-0.23-0.2-0.41-0.2c-0.24,0-0.41,0.11-0.51,0.33v0.91c0.11,0.22,0.28,0.33,0.52,0.33
			c0.17,0,0.31-0.07,0.4-0.2S5693.7,206.95,5693.7,206.68z"/>
		<path fill="#FFFFFF" d="M5695.39,207.79c-0.29,0-0.52-0.09-0.7-0.28s-0.27-0.44-0.27-0.75v-0.07c0-0.21,0.04-0.4,0.12-0.56
			s0.19-0.29,0.34-0.39s0.3-0.14,0.47-0.14c0.27,0,0.49,0.09,0.64,0.27s0.23,0.44,0.23,0.78v0.15h-1.43c0,0.21,0.07,0.38,0.18,0.5
			s0.26,0.19,0.44,0.19c0.13,0,0.24-0.03,0.32-0.08s0.17-0.12,0.23-0.21l0.22,0.17C5696.01,207.66,5695.74,207.79,5695.39,207.79z
			 M5695.34,205.9c-0.15,0-0.27,0.05-0.37,0.16s-0.16,0.25-0.18,0.45h1.06v-0.03c-0.01-0.18-0.06-0.33-0.15-0.43
			S5695.5,205.9,5695.34,205.9z"/>
		<path fill="#FFFFFF" d="M5697.65,205.97c-0.05-0.01-0.11-0.01-0.18-0.01c-0.24,0-0.4,0.1-0.48,0.3v1.5h-0.36v-2.11h0.35l0.01,0.24
			c0.12-0.19,0.29-0.28,0.5-0.28c0.07,0,0.12,0.01,0.16,0.03V205.97z"/>
		<path fill="#FFFFFF" d="M5698.82,206.62c0,0.29-0.04,0.57-0.11,0.83s-0.19,0.51-0.35,0.74s-0.32,0.39-0.49,0.48l-0.08-0.22
			c0.2-0.15,0.36-0.39,0.48-0.72s0.18-0.68,0.19-1.08v-0.06c0-0.27-0.03-0.53-0.09-0.76s-0.14-0.45-0.24-0.63s-0.22-0.33-0.34-0.44
			l0.08-0.22c0.17,0.1,0.34,0.25,0.49,0.48s0.27,0.47,0.35,0.74S5698.82,206.31,5698.82,206.62z"/>
	</g>
</g>
<g>
	<g>
		<path fill="#FFFFFF" d="M5585.82,146.6h-2.33v-0.32l1.23-1.37c0.18-0.21,0.31-0.37,0.38-0.5c0.07-0.13,0.1-0.26,0.1-0.4
			c0-0.19-0.06-0.34-0.17-0.46c-0.11-0.12-0.26-0.18-0.45-0.18c-0.22,0-0.4,0.06-0.52,0.19c-0.12,0.13-0.19,0.31-0.19,0.53h-0.45
			c0-0.33,0.11-0.59,0.32-0.79s0.49-0.3,0.85-0.3c0.33,0,0.59,0.09,0.78,0.26c0.19,0.17,0.29,0.4,0.29,0.69
			c0,0.35-0.22,0.77-0.67,1.25l-0.95,1.03h1.79V146.6z"/>
		<path fill="#FFFFFF" d="M5588.52,145.08c0,0.53-0.09,0.92-0.27,1.18c-0.18,0.26-0.46,0.39-0.85,0.39c-0.38,0-0.66-0.13-0.84-0.38
			c-0.18-0.25-0.28-0.63-0.28-1.13v-0.6c0-0.52,0.09-0.91,0.27-1.16s0.46-0.38,0.85-0.38c0.38,0,0.66,0.12,0.84,0.37
			c0.18,0.25,0.27,0.62,0.28,1.13V145.08z M5588.07,144.46c0-0.38-0.05-0.66-0.16-0.84c-0.11-0.18-0.28-0.26-0.51-0.26
			c-0.23,0-0.4,0.09-0.5,0.26c-0.11,0.17-0.16,0.44-0.16,0.8v0.72c0,0.38,0.06,0.67,0.17,0.85c0.11,0.18,0.28,0.27,0.51,0.27
			c0.22,0,0.39-0.09,0.5-0.26s0.17-0.44,0.17-0.82V144.46z"/>
		<path fill="#FFFFFF" d="M5591.33,145.08c0,0.53-0.09,0.92-0.27,1.18c-0.18,0.26-0.46,0.39-0.85,0.39c-0.38,0-0.66-0.13-0.84-0.38
			c-0.18-0.25-0.28-0.63-0.28-1.13v-0.6c0-0.52,0.09-0.91,0.27-1.16s0.46-0.38,0.85-0.38c0.38,0,0.66,0.12,0.84,0.37
			c0.18,0.25,0.27,0.62,0.28,1.13V145.08z M5590.88,144.46c0-0.38-0.05-0.66-0.16-0.84c-0.11-0.18-0.28-0.26-0.51-0.26
			c-0.23,0-0.4,0.09-0.5,0.26c-0.11,0.17-0.16,0.44-0.16,0.8v0.72c0,0.38,0.06,0.67,0.17,0.85c0.11,0.18,0.28,0.27,0.51,0.27
			c0.22,0,0.39-0.09,0.5-0.26s0.17-0.44,0.17-0.82V144.46z"/>
		<path fill="#FFFFFF" d="M5594.24,146.6h-2.33v-0.32l1.23-1.37c0.18-0.21,0.31-0.37,0.38-0.5c0.07-0.13,0.1-0.26,0.1-0.4
			c0-0.19-0.06-0.34-0.17-0.46c-0.11-0.12-0.26-0.18-0.45-0.18c-0.22,0-0.4,0.06-0.52,0.19c-0.12,0.13-0.19,0.31-0.19,0.53h-0.45
			c0-0.33,0.11-0.59,0.32-0.79s0.49-0.3,0.85-0.3c0.33,0,0.59,0.09,0.78,0.26c0.19,0.17,0.29,0.4,0.29,0.69
			c0,0.35-0.22,0.77-0.67,1.25l-0.95,1.03h1.79V146.6z"/>
	</g>
</g>
<g>
	<g>
		<path fill="#FFFFFF" d="M5627.91,146.6h-2.33v-0.32l1.23-1.37c0.18-0.21,0.31-0.37,0.38-0.5c0.07-0.13,0.1-0.26,0.1-0.4
			c0-0.19-0.06-0.34-0.17-0.46c-0.11-0.12-0.26-0.18-0.45-0.18c-0.22,0-0.4,0.06-0.52,0.19c-0.12,0.13-0.19,0.31-0.19,0.53h-0.45
			c0-0.33,0.11-0.59,0.32-0.79s0.49-0.3,0.85-0.3c0.33,0,0.59,0.09,0.78,0.26c0.19,0.17,0.29,0.4,0.29,0.69
			c0,0.35-0.22,0.77-0.67,1.25l-0.95,1.03h1.79V146.6z"/>
		<path fill="#FFFFFF" d="M5630.62,145.08c0,0.53-0.09,0.92-0.27,1.18c-0.18,0.26-0.46,0.39-0.85,0.39c-0.38,0-0.66-0.13-0.84-0.38
			c-0.18-0.25-0.28-0.63-0.28-1.13v-0.6c0-0.52,0.09-0.91,0.27-1.16s0.46-0.38,0.85-0.38c0.38,0,0.66,0.12,0.84,0.37
			c0.18,0.25,0.27,0.62,0.28,1.13V145.08z M5630.17,144.46c0-0.38-0.05-0.66-0.16-0.84c-0.11-0.18-0.28-0.26-0.51-0.26
			c-0.23,0-0.4,0.09-0.5,0.26c-0.11,0.17-0.16,0.44-0.16,0.8v0.72c0,0.38,0.06,0.67,0.17,0.85c0.11,0.18,0.28,0.27,0.51,0.27
			c0.22,0,0.39-0.09,0.5-0.26s0.17-0.44,0.17-0.82V144.46z"/>
		<path fill="#FFFFFF" d="M5633.43,145.08c0,0.53-0.09,0.92-0.27,1.18c-0.18,0.26-0.46,0.39-0.85,0.39c-0.38,0-0.66-0.13-0.84-0.38
			c-0.18-0.25-0.28-0.63-0.28-1.13v-0.6c0-0.52,0.09-0.91,0.27-1.16s0.46-0.38,0.85-0.38c0.38,0,0.66,0.12,0.84,0.37
			c0.18,0.25,0.27,0.62,0.28,1.13V145.08z M5632.97,144.46c0-0.38-0.05-0.66-0.16-0.84c-0.11-0.18-0.28-0.26-0.51-0.26
			c-0.23,0-0.4,0.09-0.5,0.26c-0.11,0.17-0.16,0.44-0.16,0.8v0.72c0,0.38,0.06,0.67,0.17,0.85c0.11,0.18,0.28,0.27,0.51,0.27
			c0.22,0,0.39-0.09,0.5-0.26s0.17-0.44,0.17-0.82V144.46z"/>
		<path fill="#FFFFFF" d="M5636.3,143.3l-1.47,3.3h-0.47l1.47-3.18h-1.92v-0.37h2.4V143.3z"/>
	</g>
</g>
<polygon fill="#B87332" points="5646.88,161.07 5643.4,165.65 5650.57,165.65 "/>
<rect x="5644.36" y="192.89" fill="#B5B6B6" width="6.2" height="6.5"/>
<g>
	<rect x="5643.4" y="177.76" fill="#739AD1" width="7.16" height="1.84"/>
	<rect x="5643.4" y="181.15" fill="#739AD1" width="7.16" height="1.84"/>
	<rect x="5643.4" y="184.55" fill="#739AD1" width="7.16" height="1.84"/>
</g>
<rect x="5646.57" y="165.28" fill="#B87332" width="0.84" height="4.74"/>
<g>
	<g>
		<path fill="#FFFFFF" d="M5462.01,165.91h-1.22v3.3h-0.3v-3.3h-1.22v-0.25h2.73V165.91z"/>
		<path fill="#FFFFFF" d="M5464.75,167.5h-1.66v1.45h1.91v0.25h-2.21v-3.55h2.2v0.25h-1.9v1.34h1.66V167.5z"/>
		<path fill="#FFFFFF" d="M5466.23,165.65l1.31,3.14l1.32-3.14h0.4v3.55h-0.3v-1.55l0.02-1.59l-1.32,3.13h-0.23l-1.32-3.12
			l0.03,1.56v1.56h-0.3v-3.55H5466.23z"/>
		<path fill="#FFFFFF" d="M5470.66,167.76v1.45h-0.3v-3.55h1.21c0.37,0,0.66,0.09,0.88,0.28s0.32,0.45,0.32,0.78
			c0,0.33-0.1,0.59-0.31,0.77c-0.21,0.18-0.5,0.27-0.9,0.27H5470.66z M5470.66,167.5h0.91c0.29,0,0.51-0.07,0.67-0.21
			c0.15-0.14,0.23-0.33,0.23-0.58c0-0.25-0.08-0.44-0.23-0.59s-0.37-0.22-0.65-0.22h-0.93V167.5z"/>
		<path fill="#FFFFFF" d="M5476.26,167.62c0,0.33-0.06,0.61-0.17,0.86s-0.27,0.44-0.48,0.57s-0.45,0.2-0.73,0.2
			c-0.42,0-0.75-0.15-1.01-0.45c-0.26-0.3-0.38-0.7-0.38-1.2v-0.37c0-0.32,0.06-0.61,0.17-0.86c0.11-0.25,0.28-0.44,0.49-0.58
			c0.21-0.13,0.45-0.2,0.72-0.2s0.51,0.07,0.72,0.2s0.37,0.32,0.49,0.56c0.11,0.24,0.17,0.52,0.18,0.84V167.62z M5475.96,167.24
			c0-0.43-0.1-0.76-0.29-1.01s-0.46-0.36-0.8-0.36c-0.33,0-0.59,0.12-0.79,0.37c-0.2,0.24-0.29,0.58-0.29,1.02v0.37
			c0,0.42,0.1,0.76,0.29,1c0.2,0.25,0.46,0.37,0.8,0.37c0.34,0,0.61-0.12,0.8-0.36c0.19-0.24,0.29-0.58,0.29-1.02V167.24z"/>
		<path fill="#FFFFFF" d="M5478.54,167.72h-1.03v1.48h-0.3v-3.55h1.16c0.38,0,0.68,0.09,0.89,0.28c0.21,0.18,0.32,0.44,0.32,0.77
			c0,0.23-0.07,0.43-0.2,0.6c-0.13,0.17-0.31,0.29-0.54,0.36l0.89,1.51v0.03h-0.32L5478.54,167.72z M5477.51,167.47h0.92
			c0.25,0,0.46-0.07,0.61-0.22c0.15-0.14,0.23-0.33,0.23-0.56c0-0.25-0.08-0.45-0.24-0.58c-0.16-0.14-0.38-0.21-0.67-0.21h-0.85
			V167.47z"/>
		<path fill="#FFFFFF" d="M5482.51,168.21h-1.61l-0.37,1h-0.32l1.34-3.55h0.29l1.34,3.55h-0.31L5482.51,168.21z M5480.99,167.95
			h1.43l-0.71-1.94L5480.99,167.95z"/>
		<path fill="#FFFFFF" d="M5484.22,168.95h1.76v0.25h-2.06v-3.55h0.3V168.95z"/>
		<path fill="#FFFFFF" d="M5490.68,168.1c-0.04,0.37-0.17,0.66-0.4,0.86c-0.23,0.2-0.53,0.3-0.91,0.3c-0.26,0-0.5-0.07-0.7-0.2
			c-0.2-0.13-0.36-0.32-0.47-0.56c-0.11-0.24-0.17-0.52-0.17-0.83v-0.46c0-0.32,0.05-0.6,0.17-0.84c0.11-0.24,0.27-0.43,0.48-0.56
			c0.21-0.13,0.45-0.2,0.72-0.2c0.38,0,0.68,0.1,0.9,0.31s0.35,0.49,0.38,0.85h-0.3c-0.08-0.6-0.4-0.91-0.98-0.91
			c-0.32,0-0.58,0.12-0.77,0.36c-0.19,0.24-0.29,0.57-0.29,1v0.44c0,0.41,0.09,0.74,0.28,0.98c0.19,0.24,0.44,0.37,0.76,0.37
			c0.31,0,0.55-0.08,0.71-0.23c0.16-0.15,0.26-0.38,0.3-0.68H5490.68z"/>
		<path fill="#FFFFFF" d="M5494.25,169.21h-0.3v-1.7h-2.03v1.7h-0.3v-3.55h0.3v1.6h2.03v-1.6h0.3V169.21z"/>
		<path fill="#FFFFFF" d="M5497.31,168.21h-1.61l-0.37,1h-0.32l1.34-3.55h0.29l1.34,3.55h-0.31L5497.31,168.21z M5495.79,167.95
			h1.43l-0.71-1.94L5495.79,167.95z"/>
		<path fill="#FFFFFF" d="M5501.36,169.21h-0.3l-2.04-3.04v3.04h-0.3v-3.55h0.3l2.05,3.04v-3.04h0.3V169.21z"/>
		<path fill="#FFFFFF" d="M5505.03,168.78c-0.1,0.15-0.27,0.26-0.49,0.35c-0.22,0.08-0.47,0.12-0.75,0.12
			c-0.28,0-0.53-0.07-0.74-0.2c-0.22-0.13-0.38-0.32-0.5-0.57c-0.12-0.24-0.18-0.52-0.18-0.84v-0.45c0-0.49,0.12-0.88,0.37-1.17
			c0.25-0.29,0.58-0.43,1-0.43c0.37,0,0.66,0.09,0.88,0.28c0.22,0.19,0.36,0.44,0.4,0.77h-0.3c-0.04-0.26-0.15-0.46-0.32-0.59
			c-0.17-0.13-0.39-0.2-0.66-0.2c-0.33,0-0.59,0.12-0.79,0.35c-0.19,0.24-0.29,0.57-0.29,1v0.42c0,0.27,0.05,0.51,0.14,0.72
			c0.09,0.21,0.22,0.37,0.4,0.48c0.17,0.11,0.37,0.17,0.59,0.17c0.26,0,0.48-0.04,0.67-0.12c0.12-0.05,0.21-0.12,0.27-0.19v-0.92
			h-0.96v-0.25h1.26V168.78z"/>
		<path fill="#FFFFFF" d="M5508.04,167.5h-1.66v1.45h1.91v0.25h-2.21v-3.55h2.2v0.25h-1.9v1.34h1.66V167.5z"/>
		<path fill="#FFFFFF" d="M5511.14,168.33c0-0.2-0.07-0.35-0.21-0.47c-0.14-0.11-0.39-0.22-0.76-0.33c-0.37-0.1-0.64-0.22-0.81-0.34
			c-0.24-0.17-0.36-0.4-0.36-0.68c0-0.27,0.11-0.49,0.34-0.66c0.22-0.17,0.51-0.25,0.86-0.25c0.24,0,0.45,0.05,0.63,0.14
			s0.33,0.22,0.43,0.38s0.15,0.34,0.15,0.54h-0.3c0-0.24-0.08-0.44-0.25-0.59c-0.17-0.15-0.39-0.22-0.67-0.22
			c-0.27,0-0.49,0.06-0.65,0.18c-0.16,0.12-0.24,0.28-0.24,0.48c0,0.18,0.07,0.33,0.22,0.44c0.14,0.11,0.38,0.21,0.7,0.3
			c0.32,0.09,0.56,0.18,0.72,0.27c0.17,0.09,0.29,0.21,0.37,0.34c0.08,0.13,0.12,0.28,0.12,0.46c0,0.28-0.11,0.5-0.34,0.67
			s-0.52,0.25-0.88,0.25c-0.25,0-0.48-0.04-0.69-0.13s-0.37-0.21-0.48-0.38s-0.16-0.35-0.16-0.55h0.3c0,0.25,0.09,0.45,0.28,0.59
			s0.44,0.22,0.75,0.22c0.28,0,0.5-0.06,0.67-0.18C5511.05,168.7,5511.14,168.53,5511.14,168.33z"/>
		<path fill="#FFFFFF" d="M5514.07,169.21h-0.3v-3.55h0.3V169.21z"/>
		<path fill="#FFFFFF" d="M5517.88,169.21h-0.3l-2.04-3.04v3.04h-0.3v-3.55h0.3l2.05,3.04v-3.04h0.3V169.21z"/>
		<path fill="#FFFFFF" d="M5520.4,169.21v-3.55h0.99c0.29,0,0.55,0.07,0.78,0.2c0.23,0.13,0.41,0.32,0.54,0.57
			c0.13,0.25,0.19,0.53,0.19,0.84v0.33c0,0.32-0.06,0.6-0.19,0.84s-0.31,0.44-0.54,0.57s-0.5,0.2-0.8,0.2H5520.4z M5520.7,165.91
			v3.05h0.67c0.37,0,0.67-0.12,0.9-0.37s0.34-0.58,0.34-1.01v-0.31c0-0.41-0.11-0.74-0.33-0.98c-0.22-0.25-0.52-0.37-0.88-0.37
			H5520.7z"/>
		<path fill="#FFFFFF" d="M5525.84,167.5h-1.66v1.45h1.91v0.25h-2.21v-3.55h2.2v0.25h-1.9v1.34h1.66V167.5z"/>
		<path fill="#FFFFFF" d="M5527.99,168.77l0.02,0.08l0.02-0.08l1.12-3.12h0.33l-1.32,3.55h-0.29l-1.32-3.55h0.33L5527.99,168.77z"/>
		<path fill="#FFFFFF" d="M5532.16,167.5h-1.66v1.45h1.91v0.25h-2.21v-3.55h2.2v0.25h-1.9v1.34h1.66V167.5z"/>
		<path fill="#FFFFFF" d="M5533.55,168.95h1.76v0.25h-2.06v-3.55h0.3V168.95z"/>
		<path fill="#FFFFFF" d="M5538.55,167.62c0,0.33-0.06,0.61-0.17,0.86s-0.27,0.44-0.48,0.57s-0.45,0.2-0.73,0.2
			c-0.42,0-0.75-0.15-1.01-0.45c-0.26-0.3-0.38-0.7-0.38-1.2v-0.37c0-0.32,0.06-0.61,0.17-0.86c0.11-0.25,0.28-0.44,0.49-0.58
			c0.21-0.13,0.45-0.2,0.72-0.2s0.51,0.07,0.72,0.2s0.37,0.32,0.49,0.56c0.11,0.24,0.17,0.52,0.18,0.84V167.62z M5538.25,167.24
			c0-0.43-0.1-0.76-0.29-1.01s-0.46-0.36-0.8-0.36c-0.33,0-0.59,0.12-0.79,0.37c-0.2,0.24-0.29,0.58-0.29,1.02v0.37
			c0,0.42,0.1,0.76,0.29,1c0.2,0.25,0.46,0.37,0.8,0.37c0.34,0,0.61-0.12,0.8-0.36c0.19-0.24,0.29-0.58,0.29-1.02V167.24z"/>
		<path fill="#FFFFFF" d="M5539.81,167.76v1.45h-0.3v-3.55h1.21c0.37,0,0.66,0.09,0.88,0.28s0.32,0.45,0.32,0.78
			c0,0.33-0.1,0.59-0.31,0.77c-0.21,0.18-0.5,0.27-0.9,0.27H5539.81z M5539.81,167.5h0.91c0.29,0,0.51-0.07,0.67-0.21
			c0.15-0.14,0.23-0.33,0.23-0.58c0-0.25-0.08-0.44-0.23-0.59s-0.37-0.22-0.65-0.22h-0.93V167.5z"/>
		<path fill="#FFFFFF" d="M5543.18,165.65l1.31,3.14l1.32-3.14h0.4v3.55h-0.3v-1.55l0.02-1.59l-1.32,3.13h-0.23l-1.32-3.12
			l0.03,1.56v1.56h-0.3v-3.55H5543.18z"/>
		<path fill="#FFFFFF" d="M5549.27,167.5h-1.66v1.45h1.91v0.25h-2.21v-3.55h2.2v0.25h-1.9v1.34h1.66V167.5z"/>
		<path fill="#FFFFFF" d="M5553,169.21h-0.3l-2.04-3.04v3.04h-0.3v-3.55h0.3l2.05,3.04v-3.04h0.3V169.21z"/>
		<path fill="#FFFFFF" d="M5556.45,165.91h-1.22v3.3h-0.3v-3.3h-1.22v-0.25h2.73V165.91z"/>
		<path fill="#FFFFFF" d="M5560.46,168.21h-1.61l-0.37,1h-0.32l1.34-3.55h0.29l1.34,3.55h-0.31L5560.46,168.21z M5558.94,167.95
			h1.43l-0.71-1.94L5558.94,167.95z"/>
		<path fill="#FFFFFF" d="M5564.5,169.21h-0.3l-2.04-3.04v3.04h-0.3v-3.55h0.3l2.05,3.04v-3.04h0.3V169.21z"/>
		<path fill="#FFFFFF" d="M5565.61,169.21v-3.55h0.99c0.29,0,0.55,0.07,0.78,0.2c0.23,0.13,0.41,0.32,0.54,0.57
			c0.13,0.25,0.19,0.53,0.19,0.84v0.33c0,0.32-0.06,0.6-0.19,0.84s-0.31,0.44-0.54,0.57s-0.5,0.2-0.8,0.2H5565.61z M5565.91,165.91
			v3.05h0.67c0.37,0,0.67-0.12,0.9-0.37s0.34-0.58,0.34-1.01v-0.31c0-0.41-0.11-0.74-0.33-0.98c-0.22-0.25-0.52-0.37-0.88-0.37
			H5565.91z"/>
		<path fill="#FFFFFF" d="M5459.97,176.21h-0.3v-3.55h0.3V176.21z"/>
		<path fill="#FFFFFF" d="M5463.47,172.91h-1.22v3.3h-0.3v-3.3h-1.22v-0.25h2.73V172.91z"/>
		<path fill="#FFFFFF" d="M5466.22,175.33c0-0.2-0.07-0.35-0.21-0.47c-0.14-0.11-0.39-0.22-0.76-0.33c-0.37-0.1-0.64-0.22-0.81-0.34
			c-0.24-0.17-0.36-0.4-0.36-0.68c0-0.27,0.11-0.49,0.34-0.66c0.22-0.17,0.51-0.25,0.86-0.25c0.24,0,0.45,0.05,0.63,0.14
			s0.33,0.22,0.43,0.38s0.15,0.34,0.15,0.54h-0.3c0-0.24-0.08-0.44-0.25-0.59c-0.17-0.15-0.39-0.22-0.67-0.22
			c-0.27,0-0.49,0.06-0.65,0.18c-0.16,0.12-0.24,0.28-0.24,0.48c0,0.18,0.07,0.33,0.22,0.44c0.14,0.11,0.38,0.21,0.7,0.3
			c0.32,0.09,0.56,0.18,0.72,0.27c0.17,0.09,0.29,0.21,0.37,0.34c0.08,0.13,0.12,0.28,0.12,0.46c0,0.28-0.11,0.5-0.34,0.67
			s-0.52,0.25-0.88,0.25c-0.25,0-0.48-0.04-0.69-0.13s-0.37-0.21-0.48-0.38s-0.16-0.35-0.16-0.55h0.3c0,0.25,0.09,0.45,0.28,0.59
			s0.44,0.22,0.75,0.22c0.28,0,0.5-0.06,0.67-0.18C5466.14,175.7,5466.22,175.53,5466.22,175.33z"/>
		<path fill="#FFFFFF" d="M5469.15,176.21h-0.3v-3.55h0.3V176.21z"/>
		<path fill="#FFFFFF" d="M5470.71,172.65l1.31,3.14l1.32-3.14h0.4v3.55h-0.3v-1.55l0.02-1.59l-1.32,3.13h-0.23l-1.32-3.12
			l0.03,1.56v1.56h-0.3v-3.55H5470.71z"/>
		<path fill="#FFFFFF" d="M5475.14,174.76v1.45h-0.3v-3.55h1.21c0.37,0,0.66,0.09,0.88,0.28s0.32,0.45,0.32,0.78
			c0,0.33-0.1,0.59-0.31,0.77c-0.21,0.18-0.5,0.27-0.9,0.27H5475.14z M5475.14,174.5h0.91c0.29,0,0.51-0.07,0.67-0.21
			c0.15-0.14,0.23-0.33,0.23-0.58c0-0.25-0.08-0.44-0.23-0.59s-0.37-0.22-0.65-0.22h-0.93V174.5z"/>
		<path fill="#FFFFFF" d="M5479.7,175.21h-1.61l-0.37,1h-0.32l1.34-3.55h0.29l1.34,3.55h-0.31L5479.7,175.21z M5478.18,174.95h1.43
			l-0.71-1.94L5478.18,174.95z"/>
		<path fill="#FFFFFF" d="M5483.6,175.1c-0.04,0.37-0.17,0.66-0.4,0.86c-0.23,0.2-0.53,0.3-0.91,0.3c-0.26,0-0.5-0.07-0.7-0.2
			c-0.2-0.13-0.36-0.32-0.47-0.56c-0.11-0.24-0.17-0.52-0.17-0.83v-0.46c0-0.32,0.05-0.6,0.17-0.84c0.11-0.24,0.27-0.43,0.48-0.56
			c0.21-0.13,0.45-0.2,0.72-0.2c0.38,0,0.68,0.1,0.9,0.31s0.35,0.49,0.38,0.85h-0.3c-0.08-0.6-0.4-0.91-0.98-0.91
			c-0.32,0-0.58,0.12-0.77,0.36c-0.19,0.24-0.29,0.57-0.29,1v0.44c0,0.41,0.09,0.74,0.28,0.98c0.19,0.24,0.44,0.37,0.76,0.37
			c0.31,0,0.55-0.08,0.71-0.23c0.16-0.15,0.26-0.38,0.3-0.68H5483.6z"/>
		<path fill="#FFFFFF" d="M5486.87,172.91h-1.22v3.3h-0.3v-3.3h-1.22v-0.25h2.73V172.91z"/>
		<path fill="#FFFFFF" d="M5491.59,174.62c0,0.33-0.06,0.61-0.17,0.86s-0.27,0.44-0.48,0.57s-0.45,0.2-0.73,0.2
			c-0.42,0-0.75-0.15-1.01-0.45c-0.26-0.3-0.38-0.7-0.38-1.2v-0.37c0-0.32,0.06-0.61,0.17-0.86c0.11-0.25,0.28-0.44,0.49-0.58
			c0.21-0.13,0.45-0.2,0.72-0.2s0.51,0.07,0.72,0.2s0.37,0.32,0.49,0.56c0.11,0.24,0.17,0.52,0.18,0.84V174.62z M5491.29,174.24
			c0-0.43-0.1-0.76-0.29-1.01s-0.46-0.36-0.8-0.36c-0.33,0-0.59,0.12-0.79,0.37c-0.2,0.24-0.29,0.58-0.29,1.02v0.37
			c0,0.42,0.1,0.76,0.29,1c0.2,0.25,0.46,0.37,0.8,0.37c0.34,0,0.61-0.12,0.8-0.36c0.19-0.24,0.29-0.58,0.29-1.02V174.24z"/>
		<path fill="#FFFFFF" d="M5495.19,176.21h-0.3l-2.04-3.04v3.04h-0.3v-3.55h0.3l2.05,3.04v-3.04h0.3V176.21z"/>
		<path fill="#FFFFFF" d="M5498.78,175.77l0.02,0.08l0.02-0.08l1.12-3.12h0.33l-1.32,3.55h-0.29l-1.32-3.55h0.33L5498.78,175.77z"/>
		<path fill="#FFFFFF" d="M5502.95,174.5h-1.66v1.45h1.91v0.25h-2.21v-3.55h2.2v0.25h-1.9v1.34h1.66V174.5z"/>
		<path fill="#FFFFFF" d="M5506.6,175.78c-0.1,0.15-0.27,0.26-0.49,0.35c-0.22,0.08-0.47,0.12-0.75,0.12c-0.28,0-0.53-0.07-0.74-0.2
			c-0.22-0.13-0.38-0.32-0.5-0.57c-0.12-0.24-0.18-0.52-0.18-0.84v-0.45c0-0.49,0.12-0.88,0.37-1.17c0.25-0.29,0.58-0.43,1-0.43
			c0.37,0,0.66,0.09,0.88,0.28c0.22,0.19,0.36,0.44,0.4,0.77h-0.3c-0.04-0.26-0.15-0.46-0.32-0.59c-0.17-0.13-0.39-0.2-0.66-0.2
			c-0.33,0-0.59,0.12-0.79,0.35c-0.19,0.24-0.29,0.57-0.29,1v0.42c0,0.27,0.05,0.51,0.14,0.72c0.09,0.21,0.22,0.37,0.4,0.48
			c0.17,0.11,0.37,0.17,0.59,0.17c0.26,0,0.48-0.04,0.67-0.12c0.12-0.05,0.21-0.12,0.27-0.19v-0.92h-0.96v-0.25h1.26V175.78z"/>
		<path fill="#FFFFFF" d="M5509.62,174.5h-1.66v1.45h1.91v0.25h-2.21v-3.55h2.2v0.25h-1.9v1.34h1.66V174.5z"/>
		<path fill="#FFFFFF" d="M5513.16,172.91h-1.22v3.3h-0.3v-3.3h-1.22v-0.25h2.73V172.91z"/>
		<path fill="#FFFFFF" d="M5515.66,175.21h-1.61l-0.37,1h-0.32l1.34-3.55h0.29l1.34,3.55h-0.31L5515.66,175.21z M5514.14,174.95
			h1.43l-0.71-1.94L5514.14,174.95z"/>
		<path fill="#FFFFFF" d="M5519.16,172.91h-1.22v3.3h-0.3v-3.3h-1.22v-0.25h2.73V172.91z"/>
		<path fill="#FFFFFF" d="M5520.3,176.21h-0.3v-3.55h0.3V176.21z"/>
		<path fill="#FFFFFF" d="M5524.09,174.62c0,0.33-0.06,0.61-0.17,0.86s-0.27,0.44-0.48,0.57s-0.45,0.2-0.73,0.2
			c-0.42,0-0.75-0.15-1.01-0.45c-0.26-0.3-0.38-0.7-0.38-1.2v-0.37c0-0.32,0.06-0.61,0.17-0.86c0.11-0.25,0.28-0.44,0.49-0.58
			c0.21-0.13,0.45-0.2,0.72-0.2s0.51,0.07,0.72,0.2s0.37,0.32,0.49,0.56c0.11,0.24,0.17,0.52,0.18,0.84V174.62z M5523.79,174.24
			c0-0.43-0.1-0.76-0.29-1.01s-0.46-0.36-0.8-0.36c-0.33,0-0.59,0.12-0.79,0.37c-0.2,0.24-0.29,0.58-0.29,1.02v0.37
			c0,0.42,0.1,0.76,0.29,1c0.2,0.25,0.46,0.37,0.8,0.37c0.34,0,0.61-0.12,0.8-0.36c0.19-0.24,0.29-0.58,0.29-1.02V174.24z"/>
		<path fill="#FFFFFF" d="M5527.69,176.21h-0.3l-2.04-3.04v3.04h-0.3v-3.55h0.3l2.05,3.04v-3.04h0.3V176.21z"/>
		<path fill="#FFFFFF" d="M5532.13,175.21h-1.61l-0.37,1h-0.32l1.34-3.55h0.29l1.34,3.55h-0.31L5532.13,175.21z M5530.61,174.95
			h1.43l-0.71-1.94L5530.61,174.95z"/>
		<path fill="#FFFFFF" d="M5536.18,176.21h-0.3l-2.04-3.04v3.04h-0.3v-3.55h0.3l2.05,3.04v-3.04h0.3V176.21z"/>
		<path fill="#FFFFFF" d="M5537.29,176.21v-3.55h0.99c0.29,0,0.55,0.07,0.78,0.2c0.23,0.13,0.41,0.32,0.54,0.57
			c0.13,0.25,0.19,0.53,0.19,0.84v0.33c0,0.32-0.06,0.6-0.19,0.84s-0.31,0.44-0.54,0.57s-0.5,0.2-0.8,0.2H5537.29z M5537.59,172.91
			v3.05h0.67c0.37,0,0.67-0.12,0.9-0.37s0.34-0.58,0.34-1.01v-0.31c0-0.41-0.11-0.74-0.33-0.98c-0.22-0.25-0.52-0.37-0.88-0.37
			H5537.59z"/>
		<path fill="#FFFFFF" d="M5460.26,182.25l0.11,0.55l0.13-0.53l0.77-2.62h0.27l0.76,2.62l0.13,0.53l0.12-0.56l0.64-2.6h0.31
			l-0.91,3.55h-0.29l-0.81-2.78l-0.09-0.35l-0.09,0.35l-0.82,2.78h-0.29l-0.91-3.55h0.31L5460.26,182.25z"/>
		<path fill="#FFFFFF" d="M5466.1,182.21h-1.61l-0.37,1h-0.32l1.34-3.55h0.29l1.34,3.55h-0.31L5466.1,182.21z M5464.58,181.95h1.43
			l-0.71-1.94L5464.58,181.95z"/>
		<path fill="#FFFFFF" d="M5469.6,179.91h-1.22v3.3h-0.3v-3.3h-1.22v-0.25h2.73V179.91z"/>
		<path fill="#FFFFFF" d="M5472.33,181.5h-1.66v1.45h1.91v0.25h-2.21v-3.55h2.2v0.25h-1.9v1.34h1.66V181.5z"/>
		<path fill="#FFFFFF" d="M5474.74,181.72h-1.03v1.48h-0.3v-3.55h1.16c0.38,0,0.68,0.09,0.89,0.28c0.21,0.18,0.32,0.44,0.32,0.77
			c0,0.23-0.07,0.43-0.2,0.6c-0.13,0.17-0.31,0.29-0.54,0.36l0.89,1.51v0.03h-0.32L5474.74,181.72z M5473.71,181.47h0.92
			c0.25,0,0.46-0.07,0.61-0.22c0.15-0.14,0.23-0.33,0.23-0.56c0-0.25-0.08-0.45-0.24-0.58c-0.16-0.14-0.38-0.21-0.67-0.21h-0.85
			V181.47z"/>
		<path fill="#FFFFFF" d="M5478.2,183.21v-3.55h1.05c0.38,0,0.67,0.08,0.87,0.24c0.2,0.16,0.3,0.39,0.3,0.69
			c0,0.18-0.05,0.34-0.15,0.48c-0.1,0.14-0.24,0.23-0.41,0.29c0.21,0.05,0.37,0.15,0.5,0.31s0.19,0.34,0.19,0.55
			c0,0.31-0.1,0.56-0.3,0.74c-0.2,0.18-0.48,0.26-0.85,0.26H5478.2z M5478.5,181.25h0.82c0.25,0,0.44-0.06,0.58-0.18
			s0.21-0.28,0.21-0.5c0-0.23-0.07-0.4-0.21-0.51s-0.36-0.16-0.65-0.16h-0.75V181.25z M5478.5,181.5v1.45h0.9
			c0.26,0,0.46-0.07,0.61-0.2s0.23-0.31,0.23-0.54c0-0.22-0.07-0.39-0.22-0.52c-0.14-0.13-0.34-0.19-0.6-0.19H5478.5z"/>
		<path fill="#FFFFFF" d="M5484.09,181.62c0,0.33-0.06,0.61-0.17,0.86s-0.27,0.44-0.48,0.57s-0.45,0.2-0.73,0.2
			c-0.42,0-0.75-0.15-1.01-0.45c-0.26-0.3-0.38-0.7-0.38-1.2v-0.37c0-0.32,0.06-0.61,0.17-0.86c0.11-0.25,0.28-0.44,0.49-0.58
			c0.21-0.13,0.45-0.2,0.72-0.2s0.51,0.07,0.72,0.2s0.37,0.32,0.49,0.56c0.11,0.24,0.17,0.52,0.18,0.84V181.62z M5483.79,181.24
			c0-0.43-0.1-0.76-0.29-1.01s-0.46-0.36-0.8-0.36c-0.33,0-0.59,0.12-0.79,0.37c-0.2,0.24-0.29,0.58-0.29,1.02v0.37
			c0,0.42,0.1,0.76,0.29,1c0.2,0.25,0.46,0.37,0.8,0.37c0.34,0,0.61-0.12,0.8-0.36c0.19-0.24,0.29-0.58,0.29-1.02V181.24z"/>
		<path fill="#FFFFFF" d="M5485.05,183.21v-3.55h0.99c0.29,0,0.55,0.07,0.78,0.2c0.23,0.13,0.41,0.32,0.54,0.57
			c0.13,0.25,0.19,0.53,0.19,0.84v0.33c0,0.32-0.06,0.6-0.19,0.84s-0.31,0.44-0.54,0.57s-0.5,0.2-0.8,0.2H5485.05z M5485.35,179.91
			v3.05h0.67c0.37,0,0.67-0.12,0.9-0.37s0.34-0.58,0.34-1.01v-0.31c0-0.41-0.11-0.74-0.33-0.98c-0.22-0.25-0.52-0.37-0.88-0.37
			H5485.35z"/>
		<path fill="#FFFFFF" d="M5488.89,183.21h-0.3v-3.55h0.3V183.21z"/>
		<path fill="#FFFFFF" d="M5492.02,181.5h-1.66v1.45h1.91v0.25h-2.21v-3.55h2.2v0.25h-1.9v1.34h1.66V181.5z"/>
		<path fill="#FFFFFF" d="M5495.11,182.33c0-0.2-0.07-0.35-0.21-0.47c-0.14-0.11-0.39-0.22-0.76-0.33c-0.37-0.1-0.64-0.22-0.81-0.34
			c-0.24-0.17-0.36-0.4-0.36-0.68c0-0.27,0.11-0.49,0.34-0.66c0.22-0.17,0.51-0.25,0.86-0.25c0.24,0,0.45,0.05,0.63,0.14
			s0.33,0.22,0.43,0.38s0.15,0.34,0.15,0.54h-0.3c0-0.24-0.08-0.44-0.25-0.59c-0.17-0.15-0.39-0.22-0.67-0.22
			c-0.27,0-0.49,0.06-0.65,0.18c-0.16,0.12-0.24,0.28-0.24,0.48c0,0.18,0.07,0.33,0.22,0.44c0.14,0.11,0.38,0.21,0.7,0.3
			c0.32,0.09,0.56,0.18,0.72,0.27c0.17,0.09,0.29,0.21,0.37,0.34c0.08,0.13,0.12,0.28,0.12,0.46c0,0.28-0.11,0.5-0.34,0.67
			s-0.52,0.25-0.88,0.25c-0.25,0-0.48-0.04-0.69-0.13s-0.37-0.21-0.48-0.38s-0.16-0.35-0.16-0.55h0.3c0,0.25,0.09,0.45,0.28,0.59
			s0.44,0.22,0.75,0.22c0.28,0,0.5-0.06,0.67-0.18C5495.03,182.7,5495.11,182.53,5495.11,182.33z"/>
		<path fill="#FFFFFF" d="M5496.13,183.87l-0.17-0.13c0.15-0.2,0.22-0.4,0.23-0.62v-0.38h0.29v0.31
			C5496.47,183.39,5496.36,183.66,5496.13,183.87z"/>
		<path fill="#FFFFFF" d="M5498.83,183.21v-3.55h1.05c0.38,0,0.67,0.08,0.87,0.24c0.2,0.16,0.3,0.39,0.3,0.69
			c0,0.18-0.05,0.34-0.15,0.48c-0.1,0.14-0.24,0.23-0.41,0.29c0.21,0.05,0.37,0.15,0.5,0.31s0.19,0.34,0.19,0.55
			c0,0.31-0.1,0.56-0.3,0.74c-0.2,0.18-0.48,0.26-0.85,0.26H5498.83z M5499.13,181.25h0.82c0.25,0,0.44-0.06,0.58-0.18
			s0.21-0.28,0.21-0.5c0-0.23-0.07-0.4-0.21-0.51s-0.36-0.16-0.65-0.16h-0.75V181.25z M5499.13,181.5v1.45h0.9
			c0.26,0,0.46-0.07,0.61-0.2s0.23-0.31,0.23-0.54c0-0.22-0.07-0.39-0.22-0.52c-0.14-0.13-0.34-0.19-0.6-0.19H5499.13z"/>
		<path fill="#FFFFFF" d="M5504.02,182.21h-1.61l-0.37,1h-0.32l1.34-3.55h0.29l1.34,3.55h-0.31L5504.02,182.21z M5502.5,181.95h1.43
			l-0.71-1.94L5502.5,181.95z"/>
		<path fill="#FFFFFF" d="M5508.07,183.21h-0.3l-2.04-3.04v3.04h-0.3v-3.55h0.3l2.05,3.04v-3.04h0.3V183.21z"/>
		<path fill="#FFFFFF" d="M5511.74,182.78c-0.1,0.15-0.27,0.26-0.49,0.35c-0.22,0.08-0.47,0.12-0.75,0.12
			c-0.28,0-0.53-0.07-0.74-0.2c-0.22-0.13-0.38-0.32-0.5-0.57c-0.12-0.24-0.18-0.52-0.18-0.84v-0.45c0-0.49,0.12-0.88,0.37-1.17
			c0.25-0.29,0.58-0.43,1-0.43c0.37,0,0.66,0.09,0.88,0.28c0.22,0.19,0.36,0.44,0.4,0.77h-0.3c-0.04-0.26-0.15-0.46-0.32-0.59
			c-0.17-0.13-0.39-0.2-0.66-0.2c-0.33,0-0.59,0.12-0.79,0.35c-0.19,0.24-0.29,0.57-0.29,1v0.42c0,0.27,0.05,0.51,0.14,0.72
			c0.09,0.21,0.22,0.37,0.4,0.48c0.17,0.11,0.37,0.17,0.59,0.17c0.26,0,0.48-0.04,0.67-0.12c0.12-0.05,0.21-0.12,0.27-0.19v-0.92
			h-0.96v-0.25h1.26V182.78z"/>
		<path fill="#FFFFFF" d="M5514.71,182.21h-1.61l-0.37,1h-0.32l1.34-3.55h0.29l1.34,3.55h-0.31L5514.71,182.21z M5513.19,181.95
			h1.43l-0.71-1.94L5513.19,181.95z"/>
		<path fill="#FFFFFF" d="M5516.41,182.95h1.76v0.25h-2.06v-3.55h0.3V182.95z"/>
		<path fill="#FFFFFF" d="M5521.41,181.62c0,0.33-0.06,0.61-0.17,0.86s-0.27,0.44-0.48,0.57s-0.45,0.2-0.73,0.2
			c-0.42,0-0.75-0.15-1.01-0.45c-0.26-0.3-0.38-0.7-0.38-1.2v-0.37c0-0.32,0.06-0.61,0.17-0.86c0.11-0.25,0.28-0.44,0.49-0.58
			c0.21-0.13,0.45-0.2,0.72-0.2s0.51,0.07,0.72,0.2s0.37,0.32,0.49,0.56c0.11,0.24,0.17,0.52,0.18,0.84V181.62z M5521.11,181.24
			c0-0.43-0.1-0.76-0.29-1.01s-0.46-0.36-0.8-0.36c-0.33,0-0.59,0.12-0.79,0.37c-0.2,0.24-0.29,0.58-0.29,1.02v0.37
			c0,0.42,0.1,0.76,0.29,1c0.2,0.25,0.46,0.37,0.8,0.37c0.34,0,0.61-0.12,0.8-0.36c0.19-0.24,0.29-0.58,0.29-1.02V181.24z"/>
		<path fill="#FFFFFF" d="M5523.7,181.72h-1.03v1.48h-0.3v-3.55h1.16c0.38,0,0.68,0.09,0.89,0.28c0.21,0.18,0.32,0.44,0.32,0.77
			c0,0.23-0.07,0.43-0.2,0.6c-0.13,0.17-0.31,0.29-0.54,0.36l0.89,1.51v0.03h-0.32L5523.7,181.72z M5522.66,181.47h0.92
			c0.25,0,0.46-0.07,0.61-0.22c0.15-0.14,0.23-0.33,0.23-0.56c0-0.25-0.08-0.45-0.24-0.58c-0.16-0.14-0.38-0.21-0.67-0.21h-0.85
			V181.47z"/>
		<path fill="#FFFFFF" d="M5527.71,181.5h-1.66v1.45h1.91v0.25h-2.21v-3.55h2.2v0.25h-1.9v1.34h1.66V181.5z"/>
		<path fill="#FFFFFF" d="M5528.69,183.03c0-0.06,0.02-0.11,0.06-0.15c0.04-0.04,0.09-0.06,0.15-0.06s0.12,0.02,0.15,0.06
			c0.04,0.04,0.06,0.09,0.06,0.15s-0.02,0.1-0.06,0.14c-0.04,0.04-0.09,0.05-0.15,0.05s-0.12-0.02-0.15-0.05
			C5528.71,183.13,5528.69,183.09,5528.69,183.03z"/>
		<path fill="#FFFFFF" d="M5532.64,181.59l1.09-1.94h0.35l-1.28,2.22v1.34h-0.3v-1.34l-1.28-2.22h0.36L5532.64,181.59z"/>
		<path fill="#FFFFFF" d="M5536.75,181.5h-1.66v1.45h1.91v0.25h-2.21v-3.55h2.2v0.25h-1.9v1.34h1.66V181.5z"/>
		<path fill="#FFFFFF" d="M5539.75,182.21h-1.61l-0.37,1h-0.32l1.34-3.55h0.29l1.34,3.55h-0.31L5539.75,182.21z M5538.23,181.95
			h1.43l-0.71-1.94L5538.23,181.95z"/>
		<path fill="#FFFFFF" d="M5542.49,181.72h-1.03v1.48h-0.3v-3.55h1.16c0.38,0,0.68,0.09,0.89,0.28c0.21,0.18,0.32,0.44,0.32,0.77
			c0,0.23-0.07,0.43-0.2,0.6c-0.13,0.17-0.31,0.29-0.54,0.36l0.89,1.51v0.03h-0.32L5542.49,181.72z M5541.45,181.47h0.92
			c0.25,0,0.46-0.07,0.61-0.22c0.15-0.14,0.23-0.33,0.23-0.56c0-0.25-0.08-0.45-0.24-0.58c-0.16-0.14-0.38-0.21-0.67-0.21h-0.85
			V181.47z"/>
		<path fill="#FFFFFF" d="M5548.06,183.21h-2.23v-0.22l1.22-1.38c0.2-0.23,0.34-0.42,0.42-0.58s0.12-0.3,0.12-0.44
			c0-0.22-0.07-0.4-0.2-0.53c-0.13-0.13-0.31-0.2-0.54-0.2c-0.24,0-0.43,0.08-0.58,0.23s-0.22,0.35-0.22,0.6h-0.29
			c0-0.2,0.05-0.38,0.14-0.55c0.09-0.16,0.22-0.29,0.39-0.39c0.17-0.09,0.36-0.14,0.57-0.14c0.33,0,0.58,0.09,0.76,0.26
			c0.18,0.17,0.27,0.4,0.27,0.7c0,0.17-0.05,0.35-0.15,0.54s-0.29,0.44-0.55,0.74l-0.99,1.12h1.87V183.21z"/>
		<path fill="#FFFFFF" d="M5550.95,181.72c0,0.5-0.09,0.88-0.28,1.14c-0.18,0.26-0.46,0.39-0.81,0.39c-0.35,0-0.62-0.13-0.81-0.38
			c-0.19-0.25-0.28-0.63-0.29-1.11v-0.64c0-0.5,0.09-0.88,0.28-1.14s0.46-0.39,0.81-0.39c0.35,0,0.62,0.12,0.8,0.37
			c0.19,0.25,0.28,0.61,0.29,1.1V181.72z M5550.65,181.09c0-0.41-0.07-0.71-0.2-0.92s-0.33-0.31-0.6-0.31c-0.26,0-0.46,0.1-0.6,0.31
			c-0.13,0.2-0.2,0.5-0.21,0.9v0.7c0,0.41,0.07,0.72,0.21,0.93s0.34,0.32,0.6,0.32c0.26,0,0.46-0.1,0.59-0.31
			c0.13-0.21,0.2-0.52,0.2-0.92V181.09z"/>
		<path fill="#FFFFFF" d="M5553.92,181.72c0,0.5-0.09,0.88-0.28,1.14c-0.18,0.26-0.46,0.39-0.81,0.39c-0.35,0-0.62-0.13-0.81-0.38
			c-0.19-0.25-0.28-0.63-0.29-1.11v-0.64c0-0.5,0.09-0.88,0.28-1.14s0.46-0.39,0.81-0.39c0.35,0,0.62,0.12,0.8,0.37
			c0.19,0.25,0.28,0.61,0.29,1.1V181.72z M5553.63,181.09c0-0.41-0.07-0.71-0.2-0.92s-0.33-0.31-0.6-0.31c-0.26,0-0.46,0.1-0.6,0.31
			c-0.13,0.2-0.2,0.5-0.21,0.9v0.7c0,0.41,0.07,0.72,0.21,0.93s0.34,0.32,0.6,0.32c0.26,0,0.46-0.1,0.59-0.31
			c0.13-0.21,0.2-0.52,0.2-0.92V181.09z"/>
		<path fill="#FFFFFF" d="M5556.57,181.56c-0.1,0.15-0.23,0.27-0.39,0.36c-0.15,0.08-0.32,0.13-0.5,0.13c-0.2,0-0.38-0.05-0.54-0.16
			s-0.27-0.25-0.36-0.43c-0.08-0.18-0.13-0.38-0.13-0.6c0-0.23,0.05-0.45,0.14-0.64c0.09-0.19,0.22-0.34,0.38-0.45
			c0.16-0.11,0.35-0.16,0.56-0.16c0.36,0,0.63,0.12,0.83,0.38c0.2,0.25,0.3,0.6,0.3,1.06v0.26c0,0.64-0.14,1.12-0.41,1.45
			s-0.69,0.48-1.25,0.48h-0.05l0-0.25h0.1c0.42-0.01,0.75-0.13,0.97-0.36C5556.44,182.38,5556.56,182.03,5556.57,181.56z
			 M5555.71,181.79c0.2,0,0.37-0.06,0.53-0.17c0.16-0.12,0.27-0.27,0.33-0.45v-0.17c0-0.36-0.08-0.64-0.23-0.84s-0.35-0.3-0.61-0.3
			c-0.23,0-0.42,0.09-0.57,0.28s-0.22,0.42-0.22,0.7c0,0.27,0.07,0.5,0.21,0.68S5555.49,181.79,5555.71,181.79z"/>
	</g>
</g>
<line fill="none" stroke="#FFFFFF" stroke-width="0.608" stroke-linecap="round" stroke-linejoin="round" stroke-miterlimit="10" x1="5644.08" y1="207.76" x2="5650.85" y2="207.76"/>
</svg>
