<?xml version="1.0" encoding="UTF-8" standalone="no"?>
<!-- Generator: Adobe Illustrator 18.0.0, SVG Export Plug-In . SVG Version: 6.00 Build 0)  -->

<svg
   version="1.1"
   id="Baseline"
   x="0px"
   y="0px"
   width="9451.45px"
   height="623.52px"
   viewBox="0 0 9451.45 623.52"
   enable-background="new 0 0 9451.45 623.52"
   xml:space="preserve"
   sodipodi:docname="32 Drying cities_Bangalore_legend-01.svg"
   inkscape:version="1.1.1 (c3084ef, 2021-09-22)"
   xmlns:inkscape="http://www.inkscape.org/namespaces/inkscape"
   xmlns:sodipodi="http://sodipodi.sourceforge.net/DTD/sodipodi-0.dtd"
   xmlns="http://www.w3.org/2000/svg"
   xmlns:svg="http://www.w3.org/2000/svg"><defs
   id="defs1521" /><sodipodi:namedview
   id="namedview1519"
   pagecolor="#505050"
   bordercolor="#eeeeee"
   borderopacity="1"
   inkscape:pageshadow="0"
   inkscape:pageopacity="0"
   inkscape:pagecheckerboard="0"
   showgrid="false"
   inkscape:zoom="0.88176256"
   inkscape:cx="5578.0323"
   inkscape:cy="27.218212"
   inkscape:window-width="1312"
   inkscape:window-height="762"
   inkscape:window-x="0"
   inkscape:window-y="25"
   inkscape:window-maximized="0"
   inkscape:current-layer="Baseline" />
<g
   id="g840"
   transform="translate(4.0370866)">
	
		<line
   fill="none"
   stroke="#ffffff"
   stroke-width="0.25"
   stroke-linecap="round"
   stroke-linejoin="round"
   stroke-miterlimit="10"
   stroke-dasharray="1, 2"
   x1="5471.6899"
   y1="12.12"
   x2="5672.3501"
   y2="12.12"
   id="line824" />
	
		<line
   fill="none"
   stroke="#ffffff"
   stroke-width="0.25"
   stroke-linecap="round"
   stroke-linejoin="round"
   stroke-miterlimit="10"
   stroke-dasharray="1, 2"
   x1="5471.6899"
   y1="27.5"
   x2="5672.3501"
   y2="27.5"
   id="line826" />
	
		<line
   fill="none"
   stroke="#ffffff"
   stroke-width="0.25"
   stroke-linecap="round"
   stroke-linejoin="round"
   stroke-miterlimit="10"
   stroke-dasharray="1, 2"
   x1="5471.6899"
   y1="44.759998"
   x2="5672.3501"
   y2="44.759998"
   id="line828" />
	
		<line
   fill="none"
   stroke="#ffffff"
   stroke-width="0.25"
   stroke-linecap="round"
   stroke-linejoin="round"
   stroke-miterlimit="10"
   stroke-dasharray="1, 2"
   x1="5471.6899"
   y1="62.189999"
   x2="5672.3501"
   y2="62.189999"
   id="line830" />
	
		<line
   fill="none"
   stroke="#ffffff"
   stroke-width="0.25"
   stroke-linecap="round"
   stroke-linejoin="round"
   stroke-miterlimit="10"
   stroke-dasharray="1, 2"
   x1="5471.6899"
   y1="78.32"
   x2="5672.3501"
   y2="78.32"
   id="line832" />
	
		<line
   fill="none"
   stroke="#ffffff"
   stroke-width="0.25"
   stroke-linecap="round"
   stroke-linejoin="round"
   stroke-miterlimit="10"
   stroke-dasharray="1, 2"
   x1="5471.6899"
   y1="96.330002"
   x2="5672.3501"
   y2="96.330002"
   id="line834" />
	
		<line
   fill="none"
   stroke="#ffffff"
   stroke-width="0.25"
   stroke-linecap="round"
   stroke-linejoin="round"
   stroke-miterlimit="10"
   stroke-dasharray="1, 2"
   x1="5471.6899"
   y1="112.03"
   x2="5672.3501"
   y2="112.03"
   id="line836" />
	
		<line
   fill="none"
   stroke="#ffffff"
   stroke-width="0.25"
   stroke-linecap="round"
   stroke-linejoin="round"
   stroke-miterlimit="10"
   stroke-dasharray="1, 2"
   x1="5471.6899"
   y1="129.94"
   x2="5672.3501"
   y2="129.94"
   id="line838" />
</g>
<g
   id="g906"
   transform="translate(4.0370866)">
	
		<line
   fill="none"
   stroke="#ffffff"
   stroke-width="0.608"
   stroke-linecap="round"
   stroke-linejoin="round"
   stroke-miterlimit="10"
   x1="5644.3599"
   y1="129.63"
   x2="5496.27"
   y2="129.63"
   id="line842" />
	
		<path
   fill="none"
   stroke="#ffffff"
   stroke-width="0.608"
   stroke-linecap="round"
   stroke-linejoin="round"
   stroke-miterlimit="10"
   d="m 5496.27,125.63 c 0,0 61.1,0.96 61.62,1.26 0.52,0.3 42.44,0.63 42.81,0.78 0.37,0.15 43.66,0.52 43.66,0.52"
   id="path844" />
	
		<path
   fill="none"
   stroke="#ffffff"
   stroke-width="0.608"
   stroke-linecap="round"
   stroke-linejoin="round"
   stroke-miterlimit="10"
   d="m 5496.27,121.63 c 0,0 60.47,1.91 61.51,2.52 1.04,0.61 42.06,1.26 42.8,1.57 0.75,0.31 43.77,1.04 43.77,1.04"
   id="path846" />
	
		<path
   fill="none"
   stroke="#ffffff"
   stroke-width="0.608"
   stroke-linecap="round"
   stroke-linejoin="round"
   stroke-miterlimit="10"
   d="m 5496.27,117.63 c 0,0 59.84,2.87 61.4,3.78 1.56,0.91 41.68,1.89 42.8,2.35 1.12,0.46 43.88,1.56 43.88,1.56"
   id="path848" />
	
		<path
   fill="none"
   stroke="#ffffff"
   stroke-width="0.608"
   stroke-linecap="round"
   stroke-linejoin="round"
   stroke-miterlimit="10"
   d="m 5496.27,113.64 c 0,0 59.21,3.82 61.3,5.04 2.08,1.21 41.3,2.52 42.8,3.13 1.5,0.61 43.99,2.08 43.99,2.08"
   id="path850" />
	
		<path
   fill="none"
   stroke="#ffffff"
   stroke-width="0.608"
   stroke-linecap="round"
   stroke-linejoin="round"
   stroke-miterlimit="10"
   d="m 5496.27,109.64 c 0,0 58.58,4.78 61.19,6.3 2.6,1.52 40.92,3.15 42.79,3.92 1.87,0.76 44.11,2.6 44.11,2.6"
   id="path852" />
	
		<path
   fill="none"
   stroke="#ffffff"
   stroke-width="0.608"
   stroke-linecap="round"
   stroke-linejoin="round"
   stroke-miterlimit="10"
   d="m 5496.27,105.64 c 0,0 57.96,5.74 61.08,7.56 3.13,1.82 40.54,3.78 42.79,4.7 2.25,0.92 44.22,3.12 44.22,3.12"
   id="path854" />
	
		<path
   fill="none"
   stroke="#ffffff"
   stroke-width="0.608"
   stroke-linecap="round"
   stroke-linejoin="round"
   stroke-miterlimit="10"
   d="m 5496.27,101.64 c 0,0 57.33,6.69 60.97,8.82 3.65,2.12 40.16,4.41 42.78,5.48 2.62,1.07 44.33,3.64 44.33,3.64"
   id="path856" />
	
		<path
   fill="none"
   stroke="#ffffff"
   stroke-width="0.608"
   stroke-linecap="round"
   stroke-linejoin="round"
   stroke-miterlimit="10"
   d="m 5496.27,97.65 c 0,0 56.7,7.65 60.87,10.08 4.17,2.43 39.78,5.04 42.78,6.26 3,1.22 44.44,4.16 44.44,4.16"
   id="path858" />
	
		<path
   fill="none"
   stroke="#ffffff"
   stroke-width="0.608"
   stroke-linecap="round"
   stroke-linejoin="round"
   stroke-miterlimit="10"
   d="m 5496.27,93.65 c 0,0 56.07,8.6 60.76,11.34 4.69,2.73 39.4,5.67 42.77,7.05 3.37,1.38 44.55,4.68 44.55,4.68"
   id="path860" />
	
		<path
   fill="none"
   stroke="#ffffff"
   stroke-width="0.608"
   stroke-linecap="round"
   stroke-linejoin="round"
   stroke-miterlimit="10"
   d="m 5496.27,89.65 c 0,0 55.44,9.56 60.65,12.6 5.21,3.03 39.03,6.3 42.77,7.83 3.74,1.53 44.66,5.2 44.66,5.2"
   id="path862" />
	
		<path
   fill="none"
   stroke="#ffffff"
   stroke-width="0.608"
   stroke-linecap="round"
   stroke-linejoin="round"
   stroke-miterlimit="10"
   d="m 5496.27,85.66 c 0,0 54.82,10.52 60.55,13.86 5.73,3.34 38.65,6.93 42.77,8.61 4.12,1.68 44.77,5.72 44.77,5.72"
   id="path864" />
	
		<path
   fill="none"
   stroke="#ffffff"
   stroke-width="0.608"
   stroke-linecap="round"
   stroke-linejoin="round"
   stroke-miterlimit="10"
   d="m 5496.27,81.66 c 0,0 54.19,11.47 60.44,15.12 6.25,3.64 38.27,7.56 42.76,9.4 4.49,1.83 44.89,6.24 44.89,6.24"
   id="path866" />
	
		<path
   fill="none"
   stroke="#ffffff"
   stroke-width="0.608"
   stroke-linecap="round"
   stroke-linejoin="round"
   stroke-miterlimit="10"
   d="m 5496.27,77.66 c 0,0 53.56,12.43 60.33,16.38 6.77,3.95 37.89,8.19 42.76,10.18 4.87,1.99 45,6.76 45,6.76"
   id="path868" />
	
		<path
   fill="none"
   stroke="#ffffff"
   stroke-width="0.608"
   stroke-linecap="round"
   stroke-linejoin="round"
   stroke-miterlimit="10"
   d="m 5496.27,73.66 c 0,0 52.93,13.38 60.23,17.64 7.29,4.25 37.51,8.82 42.75,10.96 5.24,2.14 45.11,7.28 45.11,7.28"
   id="path870" />
	
		<path
   fill="none"
   stroke="#ffffff"
   stroke-width="0.608"
   stroke-linecap="round"
   stroke-linejoin="round"
   stroke-miterlimit="10"
   d="m 5496.27,69.67 c 0,0 52.31,14.34 60.12,18.89 7.81,4.55 37.13,9.45 42.75,11.75 5.62,2.29 45.22,7.8 45.22,7.8"
   id="path872" />
	
		<path
   fill="none"
   stroke="#ffffff"
   stroke-width="0.608"
   stroke-linecap="round"
   stroke-linejoin="round"
   stroke-miterlimit="10"
   d="m 5496.27,65.67 c 0,0 51.68,15.3 60.01,20.15 8.34,4.86 36.75,10.08 42.74,12.53 5.99,2.44 45.33,8.32 45.33,8.32"
   id="path874" />
	
		<path
   fill="none"
   stroke="#ffffff"
   stroke-width="0.608"
   stroke-linecap="round"
   stroke-linejoin="round"
   stroke-miterlimit="10"
   d="m 5496.27,61.67 c 0,0 51.05,16.25 59.91,21.41 8.86,5.16 36.37,10.71 42.74,13.31 6.37,2.6 45.44,8.84 45.44,8.84"
   id="path876" />
	
		<path
   fill="none"
   stroke="#ffffff"
   stroke-width="0.608"
   stroke-linecap="round"
   stroke-linejoin="round"
   stroke-miterlimit="10"
   d="m 5496.27,57.68 c 0,0 50.42,17.21 59.8,22.67 9.38,5.46 35.99,11.34 42.74,14.1 6.74,2.75 45.55,9.36 45.55,9.36"
   id="path878" />
	
		<path
   fill="none"
   stroke="#ffffff"
   stroke-width="0.608"
   stroke-linecap="round"
   stroke-linejoin="round"
   stroke-miterlimit="10"
   d="m 5496.27,53.68 c 0,0 49.79,18.17 59.69,23.93 9.9,5.77 35.62,11.97 42.73,14.88 7.11,2.9 45.66,9.88 45.66,9.88"
   id="path880" />
	
		<path
   fill="none"
   stroke="#ffffff"
   stroke-width="0.608"
   stroke-linecap="round"
   stroke-linejoin="round"
   stroke-miterlimit="10"
   d="m 5496.27,49.68 c 0,0 49.17,19.12 59.58,25.19 10.42,6.07 35.24,12.61 42.73,15.66 7.49,3.06 45.78,10.4 45.78,10.4"
   id="path882" />
	
		<path
   fill="none"
   stroke="#ffffff"
   stroke-width="0.608"
   stroke-linecap="round"
   stroke-linejoin="round"
   stroke-miterlimit="10"
   d="m 5496.27,45.68 c 0,0 48.54,20.08 59.48,26.45 10.94,6.37 34.86,13.24 42.72,16.44 7.86,3.21 45.89,10.92 45.89,10.92"
   id="path884" />
	
		<path
   fill="none"
   stroke="#ffffff"
   stroke-width="0.608"
   stroke-linecap="round"
   stroke-linejoin="round"
   stroke-miterlimit="10"
   d="m 5496.27,41.69 c 0,0 47.91,21.03 59.37,27.71 11.46,6.68 34.48,13.87 42.72,17.23 8.24,3.36 46,11.44 46,11.44"
   id="path886" />
	
		<path
   fill="none"
   stroke="#ffffff"
   stroke-width="0.608"
   stroke-linecap="round"
   stroke-linejoin="round"
   stroke-miterlimit="10"
   d="m 5496.27,37.69 c 0,0 47.28,21.99 59.26,28.97 11.98,6.98 34.1,14.5 42.71,18.01 8.61,3.51 46.11,11.96 46.11,11.96"
   id="path888" />
	
		<path
   fill="none"
   stroke="#ffffff"
   stroke-width="0.608"
   stroke-linecap="round"
   stroke-linejoin="round"
   stroke-miterlimit="10"
   d="m 5496.27,33.69 c 0,0 46.66,22.95 59.16,30.23 12.5,7.28 33.72,15.13 42.71,18.79 8.99,3.67 46.22,12.48 46.22,12.48"
   id="path890" />
	
		<path
   fill="none"
   stroke="#ffffff"
   stroke-width="0.608"
   stroke-linecap="round"
   stroke-linejoin="round"
   stroke-miterlimit="10"
   d="m 5496.27,29.69 c 0,0 46.03,23.9 59.05,31.49 13.02,7.59 33.34,15.76 42.71,19.58 9.36,3.82 46.33,13 46.33,13"
   id="path892" />
	
		<path
   fill="none"
   stroke="#ffffff"
   stroke-width="0.608"
   stroke-linecap="round"
   stroke-linejoin="round"
   stroke-miterlimit="10"
   d="m 5496.27,25.7 c 0,0 45.4,24.86 58.94,32.75 13.55,7.89 32.96,16.39 42.7,20.36 9.73,3.97 46.44,13.52 46.44,13.52"
   id="path894" />
	
		<path
   fill="none"
   stroke="#ffffff"
   stroke-width="0.608"
   stroke-linecap="round"
   stroke-linejoin="round"
   stroke-miterlimit="10"
   d="m 5496.27,21.7 c 0,0 44.77,25.81 58.84,34.01 14.07,8.19 32.58,17.02 42.7,21.14 10.11,4.13 46.55,14.04 46.55,14.04"
   id="path896" />
	
		<path
   fill="none"
   stroke="#ffffff"
   stroke-width="0.608"
   stroke-linecap="round"
   stroke-linejoin="round"
   stroke-miterlimit="10"
   d="m 5496.27,17.7 c 0,0 44.14,26.77 58.73,35.27 14.59,8.5 32.21,17.65 42.69,21.92 10.48,4.28 46.67,14.56 46.67,14.56"
   id="path898" />
	
		<path
   fill="none"
   stroke="#ffffff"
   stroke-width="0.608"
   stroke-linecap="round"
   stroke-linejoin="round"
   stroke-miterlimit="10"
   d="m 5496.27,13.71 c 0,0 43.52,27.73 58.62,36.53 15.11,8.8 31.83,18.28 42.69,22.71 10.86,4.43 46.78,15.08 46.78,15.08"
   id="path900" />
	
		<path
   fill="none"
   stroke="#ffffff"
   stroke-width="0.608"
   stroke-linecap="round"
   stroke-linejoin="round"
   stroke-miterlimit="10"
   d="m 5496.27,9.71 c 0,0 42.89,28.68 58.51,37.79 15.63,9.1 31.45,18.91 42.68,23.49 11.23,4.58 46.89,15.6 46.89,15.6"
   id="path902" />
	
		<path
   fill="none"
   stroke="#ffffff"
   stroke-width="0.608"
   stroke-linecap="round"
   stroke-linejoin="round"
   stroke-miterlimit="10"
   d="m 5496.27,5.71 c 0,0 42.26,29.64 58.41,39.05 16.15,9.41 31.07,19.54 42.68,24.27 11.61,4.74 47,16.12 47,16.12"
   id="path904" />
</g>
<rect
   x="5547.4175"
   y="88.07"
   fill="#b5b6b6"
   width="17.23"
   height="41.549999"
   id="rect908" />
<rect
   x="5497.3276"
   y="93.489998"
   fill="#b5b6b6"
   width="17.23"
   height="36.139999"
   id="rect910" />
<g
   id="g920"
   transform="translate(4.0370866)">
	<rect
   x="5487.5801"
   y="110.42"
   fill="#739ad1"
   width="11.42"
   height="2.9400001"
   id="rect912" />
	<rect
   x="5487.5801"
   y="115.84"
   fill="#739ad1"
   width="11.42"
   height="2.9400001"
   id="rect914" />
	<rect
   x="5487.5801"
   y="121.27"
   fill="#739ad1"
   width="11.42"
   height="2.9400001"
   id="rect916" />
	<rect
   x="5487.5801"
   y="126.69"
   fill="#739ad1"
   width="11.42"
   height="2.9400001"
   id="rect918" />
</g>
<g
   id="g946"
   transform="translate(4.0370866)">
	<rect
   x="5537.6699"
   y="110.42"
   fill="#739ad1"
   width="11.42"
   height="2.9400001"
   id="rect922" />
	<rect
   x="5537.6699"
   y="115.84"
   fill="#739ad1"
   width="11.42"
   height="2.9400001"
   id="rect924" />
	<rect
   x="5537.6699"
   y="121.27"
   fill="#739ad1"
   width="11.42"
   height="2.9400001"
   id="rect926" />
	<rect
   x="5537.6699"
   y="126.69"
   fill="#739ad1"
   width="11.42"
   height="2.9400001"
   id="rect928" />
	<rect
   x="5537.6699"
   y="88.730003"
   fill="#739ad1"
   width="11.42"
   height="2.9400001"
   id="rect930" />
	<rect
   x="5537.6699"
   y="94.150002"
   fill="#739ad1"
   width="11.42"
   height="2.9300001"
   id="rect932" />
	<rect
   x="5537.6699"
   y="99.57"
   fill="#739ad1"
   width="11.42"
   height="2.9400001"
   id="rect934" />
	<rect
   x="5537.6699"
   y="72.059998"
   fill="#739ad1"
   width="11.42"
   height="2.9300001"
   id="rect936" />
	<rect
   x="5537.6699"
   y="66.440002"
   fill="#739ad1"
   width="11.42"
   height="2.9400001"
   id="rect938" />
	<rect
   x="5537.6699"
   y="77.480003"
   fill="#739ad1"
   width="11.42"
   height="2.9400001"
   id="rect940" />
	<rect
   x="5537.6699"
   y="82.910004"
   fill="#739ad1"
   width="11.42"
   height="2.9400001"
   id="rect942" />
	<rect
   x="5537.6699"
   y="105"
   fill="#739ad1"
   width="11.42"
   height="2.9400001"
   id="rect944" />
</g>
<rect
   x="5659.1577"
   y="80.690002"
   fill="#b5b6b6"
   width="17.23"
   height="48.93"
   id="rect948" />
<g
   id="g990"
   transform="translate(4.0370866)">
	<rect
   x="5646.04"
   y="110.57"
   fill="#739ad1"
   width="11.42"
   height="2.9300001"
   id="rect950" />
	<rect
   x="5646.04"
   y="115.94"
   fill="#739ad1"
   width="11.42"
   height="2.9300001"
   id="rect952" />
	<rect
   x="5646.04"
   y="121.31"
   fill="#739ad1"
   width="11.42"
   height="2.9300001"
   id="rect954" />
	<rect
   x="5646.04"
   y="126.69"
   fill="#739ad1"
   width="11.42"
   height="2.9400001"
   id="rect956" />
	<rect
   x="5646.04"
   y="89.07"
   fill="#739ad1"
   width="11.42"
   height="2.9300001"
   id="rect958" />
	<rect
   x="5646.04"
   y="94.440002"
   fill="#739ad1"
   width="11.42"
   height="2.9400001"
   id="rect960" />
	<rect
   x="5646.04"
   y="99.82"
   fill="#739ad1"
   width="11.42"
   height="2.9300001"
   id="rect962" />
	<rect
   x="5646.04"
   y="105.19"
   fill="#739ad1"
   width="11.42"
   height="2.9400001"
   id="rect964" />
	<rect
   x="5646.04"
   y="67.57"
   fill="#739ad1"
   width="11.42"
   height="2.9400001"
   id="rect966" />
	<rect
   x="5646.04"
   y="72.940002"
   fill="#739ad1"
   width="11.42"
   height="2.9400001"
   id="rect968" />
	<rect
   x="5646.04"
   y="78.32"
   fill="#739ad1"
   width="11.42"
   height="2.9400001"
   id="rect970" />
	<rect
   x="5646.04"
   y="83.690002"
   fill="#739ad1"
   width="11.42"
   height="2.9400001"
   id="rect972" />
	<rect
   x="5646.04"
   y="62.189999"
   fill="#739ad1"
   width="11.42"
   height="2.9400001"
   id="rect974" />
	<rect
   x="5646.04"
   y="51.439999"
   fill="#739ad1"
   width="11.42"
   height="2.9400001"
   id="rect976" />
	<rect
   x="5646.04"
   y="56.82"
   fill="#739ad1"
   width="11.42"
   height="2.9400001"
   id="rect978" />
	<rect
   x="5646.04"
   y="46.07"
   fill="#739ad1"
   width="11.42"
   height="2.9300001"
   id="rect980" />
	<rect
   x="5646.04"
   y="35.32"
   fill="#739ad1"
   width="11.42"
   height="2.9400001"
   id="rect982" />
	<rect
   x="5646.04"
   y="40.689999"
   fill="#739ad1"
   width="11.42"
   height="2.9400001"
   id="rect984" />
	<rect
   x="5646.04"
   y="29.940001"
   fill="#739ad1"
   width="11.42"
   height="2.9400001"
   id="rect986" />
	<rect
   x="5646.04"
   y="24.57"
   fill="#739ad1"
   width="11.42"
   height="2.9400001"
   id="rect988" />
</g>
<rect
   x="5605.6475"
   y="99.260002"
   fill="#b5b6b6"
   width="17.23"
   height="30.690001"
   id="rect992" />
<g
   id="g1030"
   transform="translate(4.0370866)">
	<rect
   x="5592.71"
   y="110.78"
   fill="#739ad1"
   width="11.42"
   height="2.9300001"
   id="rect994" />
	<rect
   x="5592.71"
   y="116.08"
   fill="#739ad1"
   width="11.42"
   height="2.9400001"
   id="rect996" />
	<rect
   x="5592.71"
   y="121.39"
   fill="#739ad1"
   width="11.42"
   height="2.9300001"
   id="rect998" />
	<rect
   x="5592.71"
   y="126.69"
   fill="#739ad1"
   width="11.42"
   height="2.9400001"
   id="rect1000" />
	<rect
   x="5592.71"
   y="89.559998"
   fill="#739ad1"
   width="11.42"
   height="2.9400001"
   id="rect1002" />
	<rect
   x="5592.71"
   y="94.860001"
   fill="#739ad1"
   width="11.42"
   height="2.9400001"
   id="rect1004" />
	<rect
   x="5592.71"
   y="100.17"
   fill="#739ad1"
   width="11.42"
   height="2.9300001"
   id="rect1006" />
	<rect
   x="5592.71"
   y="105.47"
   fill="#739ad1"
   width="11.42"
   height="2.9400001"
   id="rect1008" />
	<rect
   x="5592.71"
   y="68.339996"
   fill="#739ad1"
   width="11.42"
   height="2.9300001"
   id="rect1010" />
	<rect
   x="5592.71"
   y="73.650002"
   fill="#739ad1"
   width="11.42"
   height="2.9400001"
   id="rect1012" />
	<rect
   x="5592.71"
   y="78.949997"
   fill="#739ad1"
   width="11.42"
   height="2.9400001"
   id="rect1014" />
	<rect
   x="5592.71"
   y="84.260002"
   fill="#739ad1"
   width="11.42"
   height="2.9400001"
   id="rect1016" />
	<rect
   x="5592.71"
   y="63.040001"
   fill="#739ad1"
   width="11.42"
   height="2.9400001"
   id="rect1018" />
	<rect
   x="5592.71"
   y="52.43"
   fill="#739ad1"
   width="11.42"
   height="2.9400001"
   id="rect1020" />
	<rect
   x="5592.71"
   y="57.740002"
   fill="#739ad1"
   width="11.42"
   height="2.9400001"
   id="rect1022" />
	<rect
   x="5592.71"
   y="47.130001"
   fill="#739ad1"
   width="11.42"
   height="2.9400001"
   id="rect1024" />
	<rect
   x="5592.71"
   y="36.52"
   fill="#739ad1"
   width="11.42"
   height="2.9400001"
   id="rect1026" />
	<rect
   x="5592.71"
   y="41.82"
   fill="#739ad1"
   width="11.42"
   height="2.9400001"
   id="rect1028" />
</g>
<g
   id="g1040"
   transform="translate(4.0370866)">
	<polygon
   fill="#b87332"
   points="5537.41,48.28 5528.6,85.75 5546.75,85.75 "
   id="polygon1032" />
	<polygon
   fill="#b87332"
   points="5537.41,86.24 5528.6,100.74 5546.75,100.74 "
   id="polygon1034" />
	<polygon
   fill="#b87332"
   points="5537.41,100.74 5528.6,119.06 5546.75,119.06 "
   id="polygon1036" />
	<rect
   x="5536.6099"
   y="119.06"
   fill="#b87332"
   width="2.1199999"
   height="9.9799995"
   id="rect1038" />
</g>
<g
   id="g1052"
   transform="translate(4.0370866)">
	<polygon
   fill="#b87332"
   points="5487.32,11.53 5478.5,47.07 5496.66,47.07 "
   id="polygon1042" />
	<polygon
   fill="#b87332"
   points="5487.32,76.48 5478.5,88.07 5496.66,88.07 "
   id="polygon1044" />
	<polygon
   fill="#b87332"
   points="5487.32,47.07 5478.5,76.52 5496.66,76.52 "
   id="polygon1046" />
	<polygon
   fill="#b87332"
   points="5487.32,88.07 5478.5,114.97 5496.66,114.97 "
   id="polygon1048" />
	<rect
   x="5486.5298"
   y="114.97"
   fill="#b87332"
   width="2.1199999"
   height="14.65"
   id="rect1050" />
</g>
<g
   id="g1060"
   transform="translate(4.0370866)">
	<polygon
   fill="#b87332"
   points="5645.78,82.08 5636.96,92.45 5655.12,92.45 "
   id="polygon1054" />
	<polygon
   fill="#b87332"
   points="5645.78,92.45 5636.96,116.52 5655.12,116.52 "
   id="polygon1056" />
	<rect
   x="5644.98"
   y="116.52"
   fill="#b87332"
   width="2.1199999"
   height="13.11"
   id="rect1058" />
</g>
<g
   id="g1070"
   transform="translate(4.0370866)">
	<polygon
   fill="#b87332"
   points="5592.45,53.54 5583.63,77.02 5601.79,77.02 "
   id="polygon1062" />
	<polygon
   fill="#b87332"
   points="5592.45,77.62 5583.63,95.04 5601.79,95.04 "
   id="polygon1064" />
	<polygon
   fill="#b87332"
   points="5592.45,95.04 5583.63,117.05 5601.79,117.05 "
   id="polygon1066" />
	<rect
   x="5591.6499"
   y="117.05"
   fill="#b87332"
   width="2.1199999"
   height="11.99"
   id="rect1068" />
</g>
<g
   id="g1078"
   transform="translate(4.0370866)">
	<g
   id="g1076">
		<path
   fill="#ffffff"
   d="m 5461.74,8.82 -1.47,3.3 h -0.47 l 1.47,-3.18 h -1.92 V 8.56 h 2.4 v 0.26 z"
   id="path1072" />
		<path
   fill="#ffffff"
   d="m 5464.48,10.6 c 0,0.53 -0.09,0.92 -0.27,1.18 -0.18,0.26 -0.46,0.39 -0.85,0.39 -0.38,0 -0.66,-0.13 -0.84,-0.38 -0.18,-0.25 -0.28,-0.63 -0.28,-1.13 v -0.6 c 0,-0.52 0.09,-0.91 0.27,-1.16 0.18,-0.25 0.46,-0.38 0.85,-0.38 0.38,0 0.66,0.12 0.84,0.37 0.18,0.25 0.27,0.62 0.28,1.13 z m -0.45,-0.62 c 0,-0.38 -0.05,-0.66 -0.16,-0.84 -0.11,-0.18 -0.28,-0.26 -0.51,-0.26 -0.23,0 -0.4,0.09 -0.5,0.26 -0.11,0.17 -0.16,0.44 -0.16,0.8 v 0.72 c 0,0.38 0.06,0.67 0.17,0.85 0.11,0.18 0.28,0.27 0.51,0.27 0.22,0 0.39,-0.09 0.5,-0.26 0.11,-0.17 0.17,-0.44 0.17,-0.82 V 9.98 Z"
   id="path1074" />
	</g>
</g>
<g
   id="g1086"
   transform="translate(4.0370866)">
	<g
   id="g1084">
		<path
   fill="#ffffff"
   d="m 5461.22,24.46 v 0.38 h -0.08 c -0.35,0.01 -0.63,0.11 -0.84,0.31 -0.21,0.2 -0.33,0.49 -0.36,0.85 0.19,-0.21 0.44,-0.32 0.77,-0.32 0.31,0 0.56,0.11 0.74,0.33 0.18,0.22 0.28,0.5 0.28,0.84 0,0.37 -0.1,0.66 -0.3,0.88 -0.2,0.22 -0.47,0.33 -0.8,0.33 -0.34,0 -0.62,-0.13 -0.83,-0.39 -0.21,-0.26 -0.32,-0.6 -0.32,-1.01 v -0.17 c 0,-0.65 0.14,-1.15 0.42,-1.5 0.28,-0.35 0.69,-0.52 1.25,-0.53 z m -0.6,1.6 c -0.15,0 -0.3,0.05 -0.43,0.14 -0.13,0.09 -0.22,0.21 -0.27,0.35 v 0.17 c 0,0.29 0.07,0.53 0.2,0.71 0.13,0.18 0.3,0.27 0.49,0.27 0.2,0 0.36,-0.07 0.48,-0.22 0.12,-0.15 0.17,-0.35 0.17,-0.59 0,-0.24 -0.06,-0.44 -0.18,-0.59 -0.1,-0.17 -0.26,-0.24 -0.46,-0.24 z"
   id="path1080" />
		<path
   fill="#ffffff"
   d="m 5464.48,26.5 c 0,0.53 -0.09,0.92 -0.27,1.18 -0.18,0.26 -0.46,0.39 -0.85,0.39 -0.38,0 -0.66,-0.13 -0.84,-0.38 -0.18,-0.25 -0.28,-0.63 -0.28,-1.13 v -0.6 c 0,-0.52 0.09,-0.91 0.27,-1.16 0.18,-0.25 0.46,-0.38 0.85,-0.38 0.38,0 0.66,0.12 0.84,0.37 0.18,0.25 0.27,0.62 0.28,1.13 z m -0.45,-0.62 c 0,-0.38 -0.05,-0.66 -0.16,-0.84 -0.11,-0.18 -0.28,-0.26 -0.51,-0.26 -0.23,0 -0.4,0.09 -0.5,0.26 -0.11,0.17 -0.16,0.44 -0.16,0.8 v 0.72 c 0,0.38 0.06,0.67 0.17,0.85 0.11,0.18 0.28,0.27 0.51,0.27 0.22,0 0.39,-0.09 0.5,-0.26 0.11,-0.17 0.17,-0.44 0.17,-0.82 v -0.72 z"
   id="path1082" />
	</g>
</g>
<g
   id="g1094"
   transform="translate(4.0370866)">
	<g
   id="g1092">
		<path
   fill="#ffffff"
   d="m 5459.65,43.4 0.18,-1.77 h 1.82 v 0.42 h -1.44 l -0.11,0.97 c 0.17,-0.1 0.37,-0.15 0.59,-0.15 0.32,0 0.58,0.11 0.77,0.32 0.19,0.21 0.29,0.5 0.29,0.87 0,0.37 -0.1,0.65 -0.3,0.87 -0.2,0.21 -0.47,0.32 -0.83,0.32 -0.31,0 -0.57,-0.09 -0.77,-0.26 -0.2,-0.17 -0.31,-0.42 -0.34,-0.72 h 0.43 c 0.03,0.2 0.1,0.36 0.22,0.46 0.12,0.1 0.27,0.15 0.46,0.15 0.21,0 0.38,-0.07 0.49,-0.21 0.12,-0.14 0.18,-0.34 0.18,-0.59 0,-0.24 -0.06,-0.43 -0.19,-0.57 -0.13,-0.14 -0.3,-0.22 -0.52,-0.22 -0.2,0 -0.35,0.04 -0.46,0.13 l -0.12,0.1 z"
   id="path1088" />
		<path
   fill="#ffffff"
   d="m 5464.48,43.66 c 0,0.53 -0.09,0.92 -0.27,1.18 -0.18,0.26 -0.46,0.39 -0.85,0.39 -0.38,0 -0.66,-0.13 -0.84,-0.38 -0.18,-0.25 -0.28,-0.63 -0.28,-1.13 v -0.6 c 0,-0.52 0.09,-0.91 0.27,-1.16 0.18,-0.25 0.46,-0.38 0.85,-0.38 0.38,0 0.66,0.12 0.84,0.37 0.18,0.25 0.27,0.62 0.28,1.13 z m -0.45,-0.61 c 0,-0.38 -0.05,-0.66 -0.16,-0.84 -0.11,-0.18 -0.28,-0.26 -0.51,-0.26 -0.23,0 -0.4,0.09 -0.5,0.26 -0.11,0.17 -0.16,0.44 -0.16,0.8 v 0.72 c 0,0.38 0.06,0.67 0.17,0.85 0.11,0.18 0.28,0.27 0.51,0.27 0.22,0 0.39,-0.09 0.5,-0.26 0.11,-0.17 0.17,-0.44 0.17,-0.82 v -0.72 z"
   id="path1090" />
	</g>
</g>
<g
   id="g1102"
   transform="translate(4.0370866)">
	<g
   id="g1100">
		<path
   fill="#ffffff"
   d="m 5461.35,61.33 h 0.49 v 0.37 h -0.49 v 0.83 h -0.45 V 61.7 h -1.62 v -0.27 l 1.59,-2.46 h 0.48 z m -1.56,0 h 1.11 v -1.74 l -0.05,0.1 z"
   id="path1096" />
		<path
   fill="#ffffff"
   d="m 5464.48,61 c 0,0.53 -0.09,0.92 -0.27,1.18 -0.18,0.26 -0.46,0.39 -0.85,0.39 -0.38,0 -0.66,-0.13 -0.84,-0.38 -0.18,-0.25 -0.28,-0.63 -0.28,-1.13 v -0.6 c 0,-0.52 0.09,-0.91 0.27,-1.16 0.18,-0.25 0.46,-0.38 0.85,-0.38 0.38,0 0.66,0.12 0.84,0.37 0.18,0.25 0.27,0.62 0.28,1.13 z m -0.45,-0.61 c 0,-0.38 -0.05,-0.66 -0.16,-0.84 -0.11,-0.18 -0.28,-0.26 -0.51,-0.26 -0.23,0 -0.4,0.09 -0.5,0.26 -0.11,0.17 -0.16,0.44 -0.16,0.8 v 0.72 c 0,0.38 0.06,0.67 0.17,0.85 0.11,0.18 0.28,0.27 0.51,0.27 0.22,0 0.39,-0.09 0.5,-0.26 0.11,-0.17 0.17,-0.44 0.17,-0.82 v -0.72 z"
   id="path1098" />
	</g>
</g>
<g
   id="g1110"
   transform="translate(4.0370866)">
	<g
   id="g1108">
		<path
   fill="#ffffff"
   d="m 5460.1,77.2 h 0.34 c 0.21,0 0.38,-0.06 0.5,-0.17 0.12,-0.11 0.18,-0.26 0.18,-0.44 0,-0.42 -0.21,-0.62 -0.62,-0.62 -0.2,0 -0.35,0.06 -0.47,0.17 -0.12,0.11 -0.17,0.26 -0.17,0.44 h -0.45 c 0,-0.28 0.1,-0.52 0.31,-0.7 0.21,-0.19 0.47,-0.28 0.79,-0.28 0.33,0 0.6,0.09 0.79,0.27 0.19,0.18 0.29,0.42 0.29,0.74 0,0.15 -0.05,0.3 -0.15,0.45 -0.1,0.15 -0.24,0.25 -0.41,0.32 0.2,0.06 0.35,0.16 0.45,0.31 0.1,0.15 0.16,0.32 0.16,0.52 0,0.32 -0.1,0.57 -0.31,0.76 -0.21,0.19 -0.48,0.28 -0.81,0.28 -0.33,0 -0.61,-0.09 -0.81,-0.27 -0.2,-0.18 -0.31,-0.42 -0.31,-0.72 h 0.45 c 0,0.19 0.06,0.34 0.18,0.45 0.12,0.11 0.29,0.17 0.49,0.17 0.22,0 0.38,-0.06 0.5,-0.17 0.12,-0.11 0.17,-0.28 0.17,-0.49 0,-0.21 -0.06,-0.37 -0.19,-0.48 -0.13,-0.11 -0.31,-0.17 -0.55,-0.17 h -0.34 V 77.2 Z"
   id="path1104" />
		<path
   fill="#ffffff"
   d="m 5464.48,77.68 c 0,0.53 -0.09,0.92 -0.27,1.18 -0.18,0.26 -0.46,0.39 -0.85,0.39 -0.38,0 -0.66,-0.13 -0.84,-0.38 -0.18,-0.25 -0.28,-0.63 -0.28,-1.13 v -0.6 c 0,-0.52 0.09,-0.91 0.27,-1.16 0.18,-0.25 0.46,-0.38 0.85,-0.38 0.38,0 0.66,0.12 0.84,0.37 0.18,0.25 0.27,0.62 0.28,1.13 z m -0.45,-0.62 c 0,-0.38 -0.05,-0.66 -0.16,-0.84 -0.11,-0.18 -0.28,-0.26 -0.51,-0.26 -0.23,0 -0.4,0.09 -0.5,0.26 -0.11,0.17 -0.16,0.44 -0.16,0.8 v 0.72 c 0,0.38 0.06,0.67 0.17,0.85 0.11,0.18 0.28,0.27 0.51,0.27 0.22,0 0.39,-0.09 0.5,-0.26 0.11,-0.17 0.17,-0.44 0.17,-0.82 v -0.72 z"
   id="path1106" />
	</g>
</g>
<g
   id="g1118"
   transform="translate(4.0370866)">
	<g
   id="g1116">
		<path
   fill="#ffffff"
   d="m 5461.78,95.77 h -2.33 v -0.32 l 1.23,-1.37 c 0.18,-0.21 0.31,-0.37 0.38,-0.5 0.07,-0.13 0.1,-0.26 0.1,-0.4 0,-0.19 -0.06,-0.34 -0.17,-0.46 -0.11,-0.12 -0.26,-0.18 -0.45,-0.18 -0.22,0 -0.4,0.06 -0.52,0.19 -0.12,0.13 -0.19,0.31 -0.19,0.53 h -0.45 c 0,-0.33 0.11,-0.59 0.32,-0.79 0.21,-0.2 0.49,-0.3 0.85,-0.3 0.33,0 0.59,0.09 0.78,0.26 0.19,0.17 0.29,0.4 0.29,0.69 0,0.35 -0.22,0.77 -0.67,1.25 L 5460,95.4 h 1.79 v 0.37 z"
   id="path1112" />
		<path
   fill="#ffffff"
   d="m 5464.48,94.26 c 0,0.53 -0.09,0.92 -0.27,1.18 -0.18,0.26 -0.46,0.39 -0.85,0.39 -0.38,0 -0.66,-0.13 -0.84,-0.38 -0.18,-0.25 -0.28,-0.63 -0.28,-1.13 v -0.6 c 0,-0.52 0.09,-0.91 0.27,-1.16 0.18,-0.25 0.46,-0.38 0.85,-0.38 0.38,0 0.66,0.12 0.84,0.37 0.18,0.25 0.27,0.62 0.28,1.13 z m -0.45,-0.62 c 0,-0.38 -0.05,-0.66 -0.16,-0.84 -0.11,-0.18 -0.28,-0.26 -0.51,-0.26 -0.23,0 -0.4,0.09 -0.5,0.26 -0.11,0.17 -0.16,0.44 -0.16,0.8 v 0.72 c 0,0.38 0.06,0.67 0.17,0.85 0.11,0.18 0.28,0.27 0.51,0.27 0.22,0 0.39,-0.09 0.5,-0.26 0.11,-0.17 0.17,-0.44 0.17,-0.82 v -0.72 z"
   id="path1114" />
	</g>
</g>
<g
   id="g1126"
   transform="translate(4.0370866)">
	<g
   id="g1124">
		<path
   fill="#ffffff"
   d="m 5460.93,112.31 h -0.45 v -3.01 l -0.91,0.33 v -0.41 l 1.29,-0.49 h 0.07 z"
   id="path1120" />
		<path
   fill="#ffffff"
   d="m 5464.48,110.8 c 0,0.53 -0.09,0.92 -0.27,1.18 -0.18,0.26 -0.46,0.39 -0.85,0.39 -0.38,0 -0.66,-0.13 -0.84,-0.38 -0.18,-0.25 -0.28,-0.63 -0.28,-1.13 v -0.6 c 0,-0.52 0.09,-0.91 0.27,-1.16 0.18,-0.25 0.46,-0.38 0.85,-0.38 0.38,0 0.66,0.12 0.84,0.37 0.18,0.25 0.27,0.62 0.28,1.13 z m -0.45,-0.62 c 0,-0.38 -0.05,-0.66 -0.16,-0.84 -0.11,-0.18 -0.28,-0.26 -0.51,-0.26 -0.23,0 -0.4,0.09 -0.5,0.26 -0.11,0.17 -0.16,0.44 -0.16,0.8 v 0.72 c 0,0.38 0.06,0.67 0.17,0.85 0.11,0.18 0.28,0.27 0.51,0.27 0.22,0 0.39,-0.09 0.5,-0.26 0.11,-0.17 0.17,-0.44 0.17,-0.82 v -0.72 z"
   id="path1122" />
	</g>
</g>
<g
   id="g1132"
   transform="translate(4.0370866)">
	<g
   id="g1130">
		<path
   fill="#ffffff"
   d="m 5461.67,128.4 c 0,0.53 -0.09,0.92 -0.27,1.18 -0.18,0.26 -0.46,0.39 -0.85,0.39 -0.38,0 -0.66,-0.13 -0.84,-0.38 -0.18,-0.25 -0.28,-0.63 -0.28,-1.13 v -0.6 c 0,-0.52 0.09,-0.91 0.27,-1.16 0.18,-0.25 0.46,-0.38 0.85,-0.38 0.38,0 0.66,0.12 0.84,0.37 0.18,0.25 0.27,0.62 0.28,1.13 z m -0.45,-0.61 c 0,-0.38 -0.05,-0.66 -0.16,-0.84 -0.11,-0.18 -0.28,-0.26 -0.51,-0.26 -0.23,0 -0.4,0.09 -0.5,0.26 -0.11,0.17 -0.16,0.44 -0.16,0.8 v 0.72 c 0,0.38 0.06,0.67 0.17,0.85 0.11,0.18 0.28,0.27 0.51,0.27 0.22,0 0.39,-0.09 0.5,-0.26 0.11,-0.17 0.17,-0.44 0.17,-0.82 v -0.72 z"
   id="path1128" />
	</g>
</g>
<g
   id="g1140"
   transform="translate(4.0370866)">
	<g
   id="g1138">
		<path
   fill="#ffffff"
   d="m 5677.83,15.26 0.18,-1.77 h 1.82 v 0.42 h -1.44 l -0.11,0.97 c 0.17,-0.1 0.37,-0.15 0.59,-0.15 0.32,0 0.58,0.11 0.77,0.32 0.19,0.21 0.29,0.5 0.29,0.87 0,0.37 -0.1,0.65 -0.3,0.87 -0.2,0.21 -0.47,0.32 -0.83,0.32 -0.31,0 -0.57,-0.09 -0.77,-0.26 -0.2,-0.17 -0.31,-0.42 -0.34,-0.72 h 0.43 c 0.03,0.2 0.1,0.36 0.22,0.46 0.12,0.1 0.27,0.15 0.46,0.15 0.21,0 0.38,-0.07 0.49,-0.21 0.12,-0.14 0.18,-0.34 0.18,-0.59 0,-0.24 -0.06,-0.43 -0.19,-0.57 -0.13,-0.14 -0.3,-0.22 -0.52,-0.22 -0.2,0 -0.35,0.04 -0.46,0.13 l -0.12,0.1 z"
   id="path1134" />
		<path
   fill="#ffffff"
   d="m 5682.66,15.53 c 0,0.53 -0.09,0.92 -0.27,1.18 -0.18,0.26 -0.46,0.39 -0.85,0.39 -0.38,0 -0.66,-0.13 -0.84,-0.38 -0.18,-0.25 -0.28,-0.63 -0.28,-1.13 v -0.6 c 0,-0.52 0.09,-0.91 0.27,-1.16 0.18,-0.25 0.46,-0.38 0.85,-0.38 0.38,0 0.66,0.12 0.84,0.37 0.18,0.25 0.27,0.62 0.28,1.13 z m -0.45,-0.62 c 0,-0.38 -0.05,-0.66 -0.16,-0.84 -0.11,-0.18 -0.28,-0.26 -0.51,-0.26 -0.23,0 -0.4,0.09 -0.5,0.26 -0.11,0.17 -0.16,0.44 -0.16,0.8 v 0.72 c 0,0.38 0.06,0.67 0.17,0.85 0.11,0.18 0.28,0.27 0.51,0.27 0.22,0 0.39,-0.09 0.5,-0.26 0.11,-0.17 0.17,-0.44 0.17,-0.82 v -0.72 z"
   id="path1136" />
	</g>
</g>
<g
   id="g1148"
   transform="translate(4.0370866)">
	<g
   id="g1146">
		<path
   fill="#ffffff"
   d="m 5679.53,38.71 h 0.49 v 0.37 h -0.49 v 0.83 h -0.45 v -0.83 h -1.62 v -0.27 l 1.59,-2.46 h 0.48 z m -1.56,0 h 1.11 v -1.74 l -0.05,0.1 z"
   id="path1142" />
		<path
   fill="#ffffff"
   d="m 5682.66,38.39 c 0,0.53 -0.09,0.92 -0.27,1.18 -0.18,0.26 -0.46,0.39 -0.85,0.39 -0.38,0 -0.66,-0.13 -0.84,-0.38 -0.18,-0.25 -0.28,-0.63 -0.28,-1.13 v -0.6 c 0,-0.52 0.09,-0.91 0.27,-1.16 0.18,-0.25 0.46,-0.38 0.85,-0.38 0.38,0 0.66,0.12 0.84,0.37 0.18,0.25 0.27,0.62 0.28,1.13 z m -0.45,-0.62 c 0,-0.38 -0.05,-0.66 -0.16,-0.84 -0.11,-0.18 -0.28,-0.26 -0.51,-0.26 -0.23,0 -0.4,0.09 -0.5,0.26 -0.11,0.17 -0.16,0.44 -0.16,0.8 v 0.72 c 0,0.38 0.06,0.67 0.17,0.85 0.11,0.18 0.28,0.27 0.51,0.27 0.22,0 0.39,-0.09 0.5,-0.26 0.11,-0.17 0.17,-0.44 0.17,-0.82 v -0.72 z"
   id="path1144" />
	</g>
</g>
<g
   id="g1156"
   transform="translate(4.0370866)">
	<g
   id="g1154">
		<path
   fill="#ffffff"
   d="m 5678.28,60.52 h 0.34 c 0.21,0 0.38,-0.06 0.5,-0.17 0.12,-0.11 0.18,-0.26 0.18,-0.44 0,-0.42 -0.21,-0.62 -0.62,-0.62 -0.2,0 -0.35,0.06 -0.47,0.17 -0.12,0.11 -0.17,0.26 -0.17,0.44 h -0.45 c 0,-0.28 0.1,-0.52 0.31,-0.7 0.21,-0.19 0.47,-0.28 0.79,-0.28 0.33,0 0.6,0.09 0.79,0.27 0.19,0.18 0.29,0.42 0.29,0.74 0,0.15 -0.05,0.3 -0.15,0.45 -0.1,0.15 -0.24,0.25 -0.41,0.32 0.2,0.06 0.35,0.16 0.45,0.31 0.1,0.15 0.16,0.32 0.16,0.52 0,0.32 -0.1,0.57 -0.31,0.76 -0.21,0.19 -0.48,0.28 -0.81,0.28 -0.33,0 -0.61,-0.09 -0.81,-0.27 -0.2,-0.18 -0.31,-0.42 -0.31,-0.72 h 0.45 c 0,0.19 0.06,0.34 0.18,0.45 0.12,0.11 0.29,0.17 0.49,0.17 0.22,0 0.38,-0.06 0.5,-0.17 0.12,-0.11 0.17,-0.28 0.17,-0.49 0,-0.21 -0.06,-0.37 -0.19,-0.48 -0.13,-0.11 -0.31,-0.17 -0.55,-0.17 h -0.34 v -0.37 z"
   id="path1150" />
		<path
   fill="#ffffff"
   d="m 5682.66,61 c 0,0.53 -0.09,0.92 -0.27,1.18 -0.18,0.26 -0.46,0.39 -0.85,0.39 -0.38,0 -0.66,-0.13 -0.84,-0.38 -0.18,-0.25 -0.28,-0.63 -0.28,-1.13 v -0.6 c 0,-0.52 0.09,-0.91 0.27,-1.16 0.18,-0.25 0.46,-0.38 0.85,-0.38 0.38,0 0.66,0.12 0.84,0.37 0.18,0.25 0.27,0.62 0.28,1.13 z m -0.45,-0.61 c 0,-0.38 -0.05,-0.66 -0.16,-0.84 -0.11,-0.18 -0.28,-0.26 -0.51,-0.26 -0.23,0 -0.4,0.09 -0.5,0.26 -0.11,0.17 -0.16,0.44 -0.16,0.8 v 0.72 c 0,0.38 0.06,0.67 0.17,0.85 0.11,0.18 0.28,0.27 0.51,0.27 0.22,0 0.39,-0.09 0.5,-0.26 0.11,-0.17 0.17,-0.44 0.17,-0.82 v -0.72 z"
   id="path1152" />
	</g>
</g>
<g
   id="g1164"
   transform="translate(4.0370866)">
	<g
   id="g1162">
		<path
   fill="#ffffff"
   d="m 5679.96,85.37 h -2.33 v -0.32 l 1.23,-1.37 c 0.18,-0.21 0.31,-0.37 0.38,-0.5 0.07,-0.13 0.1,-0.26 0.1,-0.4 0,-0.19 -0.06,-0.34 -0.17,-0.46 -0.11,-0.12 -0.26,-0.18 -0.45,-0.18 -0.22,0 -0.4,0.06 -0.52,0.19 -0.12,0.13 -0.19,0.31 -0.19,0.53 h -0.45 c 0,-0.33 0.11,-0.59 0.32,-0.79 0.21,-0.2 0.49,-0.3 0.85,-0.3 0.33,0 0.59,0.09 0.78,0.26 0.19,0.17 0.29,0.4 0.29,0.69 0,0.35 -0.22,0.77 -0.67,1.25 l -0.95,1.03 h 1.79 v 0.37 z"
   id="path1158" />
		<path
   fill="#ffffff"
   d="m 5682.66,83.85 c 0,0.53 -0.09,0.92 -0.27,1.18 -0.18,0.26 -0.46,0.39 -0.85,0.39 -0.38,0 -0.66,-0.13 -0.84,-0.38 -0.18,-0.25 -0.28,-0.63 -0.28,-1.13 v -0.6 c 0,-0.52 0.09,-0.91 0.27,-1.16 0.18,-0.25 0.46,-0.38 0.85,-0.38 0.38,0 0.66,0.12 0.84,0.37 0.18,0.25 0.27,0.62 0.28,1.13 z m -0.45,-0.62 c 0,-0.38 -0.05,-0.66 -0.16,-0.84 -0.11,-0.18 -0.28,-0.26 -0.51,-0.26 -0.23,0 -0.4,0.09 -0.5,0.26 -0.11,0.17 -0.16,0.44 -0.16,0.8 v 0.72 c 0,0.38 0.06,0.67 0.17,0.85 0.11,0.18 0.28,0.27 0.51,0.27 0.22,0 0.39,-0.09 0.5,-0.26 0.11,-0.17 0.17,-0.44 0.17,-0.82 v -0.72 z"
   id="path1160" />
	</g>
</g>
<g
   id="g1172"
   transform="translate(4.0370866)">
	<g
   id="g1170">
		<path
   fill="#ffffff"
   d="m 5679.11,108.94 h -0.45 v -3.01 l -0.91,0.33 v -0.41 l 1.29,-0.49 h 0.07 z"
   id="path1166" />
		<path
   fill="#ffffff"
   d="m 5682.66,107.42 c 0,0.53 -0.09,0.92 -0.27,1.18 -0.18,0.26 -0.46,0.39 -0.85,0.39 -0.38,0 -0.66,-0.13 -0.84,-0.38 -0.18,-0.25 -0.28,-0.63 -0.28,-1.13 v -0.6 c 0,-0.52 0.09,-0.91 0.27,-1.16 0.18,-0.25 0.46,-0.38 0.85,-0.38 0.38,0 0.66,0.12 0.84,0.37 0.18,0.25 0.27,0.62 0.28,1.13 z m -0.45,-0.62 c 0,-0.38 -0.05,-0.66 -0.16,-0.84 -0.11,-0.18 -0.28,-0.26 -0.51,-0.26 -0.23,0 -0.4,0.09 -0.5,0.26 -0.11,0.17 -0.16,0.44 -0.16,0.8 v 0.72 c 0,0.38 0.06,0.67 0.17,0.85 0.11,0.18 0.28,0.27 0.51,0.27 0.22,0 0.39,-0.09 0.5,-0.26 0.11,-0.17 0.17,-0.44 0.17,-0.82 v -0.72 z"
   id="path1168" />
	</g>
</g>
<g
   id="g1178"
   transform="translate(4.0370866)">
	<g
   id="g1176">
		<path
   fill="#ffffff"
   d="m 5679.86,128.4 c 0,0.53 -0.09,0.92 -0.27,1.18 -0.18,0.26 -0.46,0.39 -0.85,0.39 -0.38,0 -0.66,-0.13 -0.84,-0.38 -0.18,-0.25 -0.28,-0.63 -0.28,-1.13 v -0.6 c 0,-0.52 0.09,-0.91 0.27,-1.16 0.18,-0.25 0.46,-0.38 0.85,-0.38 0.38,0 0.66,0.12 0.84,0.37 0.18,0.25 0.27,0.62 0.28,1.13 z m -0.46,-0.61 c 0,-0.38 -0.05,-0.66 -0.16,-0.84 -0.11,-0.18 -0.28,-0.26 -0.51,-0.26 -0.23,0 -0.4,0.09 -0.5,0.26 -0.11,0.17 -0.16,0.44 -0.16,0.8 v 0.72 c 0,0.38 0.06,0.67 0.17,0.85 0.11,0.18 0.28,0.27 0.51,0.27 0.22,0 0.39,-0.09 0.5,-0.26 0.11,-0.17 0.17,-0.44 0.17,-0.82 v -0.72 z"
   id="path1174" />
	</g>
</g>
<g
   id="g1190"
   transform="translate(4.0370866)">
	<g
   id="g1188">
		<path
   fill="#ffffff"
   d="m 5503.67,146.6 h -0.45 v -3.01 l -0.91,0.33 v -0.41 l 1.29,-0.49 h 0.07 z"
   id="path1180" />
		<path
   fill="#ffffff"
   d="m 5506.73,145.04 c -0.09,0.11 -0.21,0.2 -0.34,0.27 -0.13,0.07 -0.27,0.1 -0.43,0.1 -0.21,0 -0.38,-0.05 -0.54,-0.15 -0.16,-0.1 -0.27,-0.24 -0.35,-0.43 -0.08,-0.18 -0.12,-0.39 -0.12,-0.61 0,-0.24 0.04,-0.45 0.14,-0.64 0.09,-0.19 0.22,-0.34 0.38,-0.44 0.16,-0.1 0.36,-0.15 0.58,-0.15 0.35,0 0.63,0.13 0.83,0.39 0.2,0.26 0.3,0.62 0.3,1.08 v 0.13 c 0,0.69 -0.14,1.2 -0.41,1.51 -0.27,0.32 -0.69,0.48 -1.24,0.49 h -0.09 v -0.38 h 0.1 c 0.37,-0.01 0.66,-0.1 0.86,-0.29 0.2,-0.19 0.31,-0.48 0.33,-0.88 z m -0.7,0 c 0.15,0 0.29,-0.05 0.42,-0.14 0.13,-0.09 0.22,-0.21 0.28,-0.34 v -0.18 c 0,-0.3 -0.06,-0.54 -0.19,-0.72 -0.13,-0.18 -0.29,-0.28 -0.49,-0.28 -0.2,0 -0.36,0.08 -0.48,0.23 -0.12,0.15 -0.18,0.35 -0.18,0.6 0,0.24 0.06,0.44 0.17,0.6 0.12,0.15 0.27,0.23 0.47,0.23 z"
   id="path1182" />
		<path
   fill="#ffffff"
   d="m 5510.1,143.3 -1.47,3.3 h -0.47 l 1.47,-3.18 h -1.92 v -0.37 h 2.4 v 0.25 z"
   id="path1184" />
		<path
   fill="#ffffff"
   d="m 5511.27,144.6 h 0.34 c 0.21,0 0.38,-0.06 0.5,-0.17 0.12,-0.11 0.18,-0.26 0.18,-0.44 0,-0.42 -0.21,-0.62 -0.62,-0.62 -0.2,0 -0.35,0.06 -0.47,0.17 -0.12,0.11 -0.17,0.26 -0.17,0.44 h -0.45 c 0,-0.28 0.1,-0.52 0.31,-0.7 0.21,-0.19 0.47,-0.28 0.79,-0.28 0.33,0 0.6,0.09 0.79,0.27 0.19,0.18 0.29,0.42 0.29,0.74 0,0.15 -0.05,0.3 -0.15,0.45 -0.1,0.15 -0.24,0.25 -0.41,0.32 0.2,0.06 0.35,0.16 0.45,0.31 0.1,0.15 0.16,0.32 0.16,0.52 0,0.32 -0.1,0.57 -0.31,0.76 -0.21,0.19 -0.48,0.28 -0.81,0.28 -0.33,0 -0.61,-0.09 -0.81,-0.27 -0.2,-0.18 -0.31,-0.42 -0.31,-0.72 h 0.45 c 0,0.19 0.06,0.34 0.18,0.45 0.12,0.11 0.29,0.17 0.49,0.17 0.22,0 0.38,-0.06 0.5,-0.17 0.12,-0.11 0.17,-0.28 0.17,-0.49 0,-0.21 -0.06,-0.37 -0.19,-0.48 -0.13,-0.11 -0.31,-0.17 -0.55,-0.17 h -0.34 v -0.37 z"
   id="path1186" />
	</g>
</g>
<g
   id="g1202"
   transform="translate(4.0370866)">
	<g
   id="g1200">
		<path
   fill="#ffffff"
   d="m 5544.93,146.6 h -0.45 v -3.01 l -0.91,0.33 v -0.41 l 1.29,-0.49 h 0.07 z"
   id="path1192" />
		<path
   fill="#ffffff"
   d="m 5547.98,145.04 c -0.09,0.11 -0.21,0.2 -0.34,0.27 -0.13,0.07 -0.27,0.1 -0.43,0.1 -0.21,0 -0.38,-0.05 -0.54,-0.15 -0.16,-0.1 -0.27,-0.24 -0.35,-0.43 -0.08,-0.18 -0.12,-0.39 -0.12,-0.61 0,-0.24 0.04,-0.45 0.14,-0.64 0.09,-0.19 0.22,-0.34 0.38,-0.44 0.16,-0.1 0.36,-0.15 0.58,-0.15 0.35,0 0.63,0.13 0.83,0.39 0.2,0.26 0.3,0.62 0.3,1.08 v 0.13 c 0,0.69 -0.14,1.2 -0.41,1.51 -0.27,0.32 -0.69,0.48 -1.24,0.49 h -0.09 v -0.38 h 0.1 c 0.37,-0.01 0.66,-0.1 0.86,-0.29 0.2,-0.19 0.32,-0.48 0.33,-0.88 z m -0.69,0 c 0.15,0 0.29,-0.05 0.42,-0.14 0.13,-0.09 0.22,-0.21 0.28,-0.34 v -0.18 c 0,-0.3 -0.06,-0.54 -0.19,-0.72 -0.13,-0.18 -0.29,-0.28 -0.49,-0.28 -0.2,0 -0.36,0.08 -0.48,0.23 -0.12,0.15 -0.18,0.35 -0.18,0.6 0,0.24 0.06,0.44 0.17,0.6 0.12,0.15 0.27,0.23 0.47,0.23 z"
   id="path1194" />
		<path
   fill="#ffffff"
   d="m 5551.36,143.3 -1.47,3.3 h -0.47 l 1.47,-3.18 h -1.92 v -0.37 h 2.4 v 0.25 z"
   id="path1196" />
		<path
   fill="#ffffff"
   d="m 5554.2,146.6 h -2.33 v -0.32 l 1.23,-1.37 c 0.18,-0.21 0.31,-0.37 0.38,-0.5 0.07,-0.13 0.1,-0.26 0.1,-0.4 0,-0.19 -0.06,-0.34 -0.17,-0.46 -0.11,-0.12 -0.26,-0.18 -0.45,-0.18 -0.22,0 -0.4,0.06 -0.52,0.19 -0.12,0.13 -0.19,0.31 -0.19,0.53 h -0.45 c 0,-0.33 0.11,-0.59 0.32,-0.79 0.21,-0.2 0.49,-0.3 0.85,-0.3 0.33,0 0.59,0.09 0.78,0.26 0.19,0.17 0.29,0.4 0.29,0.69 0,0.35 -0.22,0.77 -0.67,1.25 l -0.95,1.03 h 1.79 v 0.37 z"
   id="path1198" />
	</g>
</g>
<g
   id="g1226"
   transform="translate(4.0370866)">
	<g
   id="g1224">
		<path
   fill="#ffffff"
   d="m 5658.74,166.74 0.81,-2.35 h 0.41 l -1.05,2.84 h -0.33 l -1.05,-2.84 h 0.41 z"
   id="path1204" />
		<path
   fill="#ffffff"
   d="m 5661.08,167.28 c -0.29,0 -0.52,-0.09 -0.7,-0.28 -0.18,-0.19 -0.27,-0.44 -0.27,-0.75 v -0.07 c 0,-0.21 0.04,-0.4 0.12,-0.56 0.08,-0.16 0.19,-0.29 0.34,-0.39 0.15,-0.1 0.3,-0.14 0.47,-0.14 0.27,0 0.49,0.09 0.64,0.27 0.15,0.18 0.23,0.44 0.23,0.78 v 0.15 h -1.43 c 0,0.21 0.07,0.38 0.18,0.5 0.11,0.12 0.26,0.19 0.44,0.19 0.13,0 0.24,-0.03 0.32,-0.08 0.08,-0.05 0.17,-0.12 0.23,-0.21 l 0.22,0.17 c -0.17,0.28 -0.44,0.42 -0.79,0.42 z m -0.05,-1.9 c -0.15,0 -0.27,0.05 -0.37,0.16 -0.1,0.11 -0.16,0.25 -0.18,0.45 h 1.06 v -0.03 c -0.01,-0.18 -0.06,-0.33 -0.15,-0.43 -0.09,-0.1 -0.21,-0.15 -0.36,-0.15 z"
   id="path1206" />
		<path
   fill="#ffffff"
   d="m 5662.23,166.17 c 0,-0.33 0.08,-0.59 0.23,-0.79 0.15,-0.2 0.35,-0.29 0.61,-0.29 0.26,0 0.46,0.09 0.6,0.27 l 0.02,-0.23 h 0.33 v 2.06 c 0,0.27 -0.08,0.49 -0.24,0.65 -0.16,0.16 -0.38,0.24 -0.65,0.24 -0.15,0 -0.3,-0.03 -0.45,-0.1 -0.15,-0.07 -0.26,-0.15 -0.33,-0.27 l 0.19,-0.22 c 0.16,0.19 0.34,0.29 0.57,0.29 0.18,0 0.31,-0.05 0.41,-0.15 0.1,-0.1 0.15,-0.24 0.15,-0.42 v -0.18 c -0.14,0.17 -0.34,0.25 -0.59,0.25 -0.25,0 -0.45,-0.1 -0.6,-0.3 -0.15,-0.2 -0.25,-0.47 -0.25,-0.81 z m 0.36,0.04 c 0,0.24 0.05,0.43 0.15,0.56 0.1,0.13 0.23,0.2 0.41,0.2 0.23,0 0.4,-0.1 0.5,-0.31 v -0.96 c -0.11,-0.2 -0.28,-0.3 -0.5,-0.3 -0.18,0 -0.31,0.07 -0.41,0.21 -0.1,0.14 -0.15,0.33 -0.15,0.6 z"
   id="path1208" />
		<path
   fill="#ffffff"
   d="m 5665.44,167.28 c -0.29,0 -0.52,-0.09 -0.7,-0.28 -0.18,-0.19 -0.27,-0.44 -0.27,-0.75 v -0.07 c 0,-0.21 0.04,-0.4 0.12,-0.56 0.08,-0.16 0.19,-0.29 0.34,-0.39 0.15,-0.1 0.3,-0.14 0.47,-0.14 0.27,0 0.49,0.09 0.64,0.27 0.15,0.18 0.23,0.44 0.23,0.78 v 0.15 h -1.43 c 0,0.21 0.07,0.38 0.18,0.5 0.11,0.12 0.26,0.19 0.44,0.19 0.13,0 0.24,-0.03 0.32,-0.08 0.08,-0.05 0.17,-0.12 0.23,-0.21 l 0.22,0.17 c -0.17,0.28 -0.44,0.42 -0.79,0.42 z m -0.05,-1.9 c -0.15,0 -0.27,0.05 -0.37,0.16 -0.1,0.11 -0.16,0.25 -0.18,0.45 h 1.06 v -0.03 c -0.01,-0.18 -0.06,-0.33 -0.15,-0.43 -0.09,-0.1 -0.21,-0.15 -0.36,-0.15 z"
   id="path1210" />
		<path
   fill="#ffffff"
   d="m 5667.17,164.61 v 0.51 h 0.39 v 0.28 h -0.39 v 1.31 c 0,0.08 0.02,0.15 0.05,0.19 0.03,0.04 0.09,0.06 0.18,0.06 0.04,0 0.1,-0.01 0.17,-0.02 v 0.29 c -0.09,0.03 -0.19,0.04 -0.28,0.04 -0.16,0 -0.28,-0.05 -0.37,-0.15 -0.09,-0.1 -0.12,-0.24 -0.12,-0.42 v -1.31 h -0.38 v -0.28 h 0.38 v -0.51 h 0.37 z"
   id="path1212" />
		<path
   fill="#ffffff"
   d="m 5669.29,167.24 c -0.02,-0.04 -0.04,-0.12 -0.05,-0.22 -0.17,0.17 -0.37,0.26 -0.6,0.26 -0.21,0 -0.38,-0.06 -0.51,-0.18 -0.13,-0.12 -0.2,-0.27 -0.2,-0.45 0,-0.22 0.08,-0.39 0.25,-0.51 0.17,-0.12 0.4,-0.18 0.71,-0.18 h 0.35 v -0.17 c 0,-0.13 -0.04,-0.23 -0.11,-0.3 -0.07,-0.07 -0.19,-0.11 -0.33,-0.11 -0.13,0 -0.24,0.03 -0.32,0.1 -0.08,0.07 -0.13,0.14 -0.13,0.24 h -0.36 c 0,-0.11 0.04,-0.21 0.11,-0.31 0.07,-0.1 0.18,-0.18 0.3,-0.23 0.12,-0.05 0.27,-0.09 0.42,-0.09 0.24,0 0.43,0.06 0.57,0.18 0.14,0.12 0.21,0.29 0.21,0.5 v 0.97 c 0,0.19 0.02,0.35 0.07,0.46 v 0.03 h -0.38 z m -0.6,-0.28 c 0.11,0 0.22,-0.03 0.32,-0.09 0.1,-0.06 0.17,-0.13 0.22,-0.23 v -0.43 h -0.28 c -0.44,0 -0.66,0.13 -0.66,0.39 0,0.11 0.04,0.2 0.11,0.27 0.07,0.07 0.17,0.09 0.29,0.09 z"
   id="path1214" />
		<path
   fill="#ffffff"
   d="m 5670.65,164.61 v 0.51 h 0.39 v 0.28 h -0.39 v 1.31 c 0,0.08 0.02,0.15 0.05,0.19 0.03,0.04 0.09,0.06 0.18,0.06 0.04,0 0.1,-0.01 0.17,-0.02 v 0.29 c -0.09,0.03 -0.19,0.04 -0.28,0.04 -0.16,0 -0.28,-0.05 -0.37,-0.15 -0.09,-0.1 -0.12,-0.24 -0.12,-0.42 v -1.31 h -0.38 v -0.28 h 0.38 v -0.51 h 0.37 z"
   id="path1216" />
		<path
   fill="#ffffff"
   d="m 5671.47,164.57 c 0,-0.06 0.02,-0.11 0.05,-0.15 0.03,-0.04 0.09,-0.06 0.16,-0.06 0.07,0 0.12,0.02 0.16,0.06 0.04,0.04 0.05,0.09 0.05,0.15 0,0.06 -0.02,0.11 -0.05,0.15 -0.03,0.04 -0.09,0.06 -0.16,0.06 -0.07,0 -0.12,-0.02 -0.16,-0.06 -0.04,-0.04 -0.05,-0.1 -0.05,-0.15 z m 0.39,2.67 h -0.36 v -2.11 h 0.36 z"
   id="path1218" />
		<path
   fill="#ffffff"
   d="m 5672.34,166.16 c 0,-0.21 0.04,-0.39 0.12,-0.56 0.08,-0.17 0.19,-0.29 0.34,-0.38 0.15,-0.09 0.31,-0.13 0.5,-0.13 0.29,0 0.52,0.1 0.7,0.3 0.18,0.2 0.27,0.46 0.27,0.79 v 0.03 c 0,0.21 -0.04,0.39 -0.12,0.55 -0.08,0.16 -0.19,0.29 -0.34,0.38 -0.15,0.09 -0.31,0.14 -0.5,0.14 -0.29,0 -0.52,-0.1 -0.7,-0.3 -0.18,-0.2 -0.27,-0.46 -0.27,-0.79 z m 0.37,0.05 c 0,0.23 0.05,0.42 0.16,0.56 0.11,0.14 0.25,0.21 0.44,0.21 0.18,0 0.33,-0.07 0.44,-0.22 0.11,-0.15 0.16,-0.35 0.16,-0.6 0,-0.23 -0.05,-0.42 -0.17,-0.56 -0.12,-0.14 -0.26,-0.22 -0.44,-0.22 -0.18,0 -0.32,0.07 -0.43,0.21 -0.11,0.14 -0.16,0.35 -0.16,0.62 z"
   id="path1220" />
		<path
   fill="#ffffff"
   d="m 5675.06,165.13 0.01,0.27 c 0.16,-0.2 0.37,-0.3 0.63,-0.3 0.45,0 0.67,0.25 0.68,0.76 v 1.4 h -0.36 v -1.4 c 0,-0.15 -0.04,-0.27 -0.1,-0.34 -0.06,-0.07 -0.17,-0.11 -0.32,-0.11 -0.12,0 -0.22,0.03 -0.31,0.09 -0.09,0.06 -0.16,0.14 -0.21,0.25 v 1.51 h -0.36 v -2.11 h 0.34 z"
   id="path1222" />
	</g>
</g>
<g
   id="g1244"
   transform="translate(4.0370866)">
	<g
   id="g1242">
		<path
   fill="#ffffff"
   d="m 5657.8,182.99 v -2.84 h 0.93 c 0.31,0 0.54,0.06 0.7,0.19 0.16,0.13 0.23,0.32 0.23,0.57 0,0.13 -0.04,0.25 -0.11,0.35 -0.07,0.1 -0.18,0.18 -0.31,0.24 0.15,0.04 0.28,0.12 0.36,0.25 0.08,0.13 0.13,0.26 0.13,0.43 0,0.26 -0.08,0.46 -0.25,0.6 -0.17,0.14 -0.4,0.22 -0.7,0.22 h -0.98 z m 0.37,-1.63 h 0.57 c 0.16,0 0.29,-0.04 0.39,-0.12 0.1,-0.08 0.15,-0.19 0.15,-0.33 0,-0.16 -0.05,-0.27 -0.14,-0.34 -0.09,-0.07 -0.23,-0.11 -0.42,-0.11 h -0.55 z m 0,0.3 v 1.02 h 0.62 c 0.17,0 0.31,-0.05 0.41,-0.14 0.1,-0.09 0.15,-0.22 0.15,-0.37 0,-0.34 -0.19,-0.51 -0.56,-0.51 z"
   id="path1228" />
		<path
   fill="#ffffff"
   d="m 5661.53,182.78 c -0.14,0.17 -0.35,0.25 -0.62,0.25 -0.23,0 -0.4,-0.07 -0.51,-0.2 -0.11,-0.13 -0.18,-0.32 -0.18,-0.58 v -1.38 h 0.36 v 1.37 c 0,0.32 0.13,0.48 0.39,0.48 0.28,0 0.46,-0.1 0.55,-0.31 v -1.54 h 0.36 v 2.11 h -0.34 z"
   id="path1230" />
		<path
   fill="#ffffff"
   d="m 5662.44,180.32 c 0,-0.06 0.02,-0.11 0.05,-0.15 0.03,-0.04 0.09,-0.06 0.16,-0.06 0.07,0 0.12,0.02 0.16,0.06 0.04,0.04 0.05,0.09 0.05,0.15 0,0.06 -0.02,0.11 -0.05,0.15 -0.03,0.04 -0.09,0.06 -0.16,0.06 -0.07,0 -0.12,-0.02 -0.16,-0.06 -0.04,-0.04 -0.05,-0.09 -0.05,-0.15 z m 0.39,2.67 h -0.36 v -2.11 h 0.36 z"
   id="path1232" />
		<path
   fill="#ffffff"
   d="m 5663.8,182.99 h -0.36 v -3 h 0.36 z"
   id="path1234" />
		<path
   fill="#ffffff"
   d="m 5664.87,180.37 v 0.51 h 0.39 v 0.28 h -0.39 v 1.31 c 0,0.08 0.02,0.15 0.05,0.19 0.03,0.04 0.09,0.06 0.18,0.06 0.04,0 0.1,-0.01 0.17,-0.02 v 0.29 c -0.09,0.03 -0.19,0.04 -0.28,0.04 -0.16,0 -0.28,-0.05 -0.37,-0.15 -0.09,-0.1 -0.12,-0.24 -0.12,-0.42 v -1.31 h -0.38 v -0.28 h 0.38 v -0.51 h 0.37 z"
   id="path1236" />
		<path
   fill="#ffffff"
   d="m 5668.73,180.15 v 1.93 c 0,0.27 -0.09,0.49 -0.25,0.66 -0.16,0.17 -0.39,0.27 -0.68,0.29 h -0.1 c -0.31,0 -0.56,-0.08 -0.74,-0.25 -0.18,-0.17 -0.28,-0.4 -0.28,-0.69 v -1.94 h 0.37 v 1.93 c 0,0.21 0.06,0.37 0.17,0.48 0.11,0.11 0.27,0.17 0.48,0.17 0.21,0 0.38,-0.06 0.49,-0.17 0.11,-0.11 0.17,-0.27 0.17,-0.48 v -1.93 z"
   id="path1238" />
		<path
   fill="#ffffff"
   d="m 5671.05,181.96 c 0,0.32 -0.07,0.58 -0.22,0.78 -0.15,0.2 -0.35,0.29 -0.6,0.29 -0.26,0 -0.46,-0.08 -0.61,-0.24 v 1.02 h -0.36 v -2.93 h 0.33 l 0.02,0.23 c 0.15,-0.18 0.35,-0.27 0.61,-0.27 0.25,0 0.46,0.1 0.6,0.29 0.14,0.19 0.22,0.46 0.22,0.8 v 0.03 z m -0.36,-0.04 c 0,-0.24 -0.05,-0.43 -0.15,-0.56 -0.1,-0.13 -0.24,-0.21 -0.42,-0.21 -0.22,0 -0.38,0.1 -0.49,0.29 v 1.01 c 0.11,0.19 0.27,0.29 0.5,0.29 0.17,0 0.31,-0.07 0.41,-0.21 0.1,-0.14 0.15,-0.34 0.15,-0.61 z"
   id="path1240" />
	</g>
</g>
<g
   id="g1260"
   transform="translate(4.0370866)">
	<g
   id="g1258">
		<path
   fill="#ffffff"
   d="m 5659.98,194.81 c 0,0.28 -0.05,0.52 -0.14,0.73 -0.09,0.21 -0.23,0.37 -0.4,0.48 -0.17,0.11 -0.37,0.16 -0.6,0.16 -0.22,0 -0.42,-0.06 -0.6,-0.17 -0.17,-0.11 -0.31,-0.27 -0.4,-0.47 -0.1,-0.2 -0.14,-0.44 -0.15,-0.71 v -0.21 c 0,-0.27 0.05,-0.52 0.14,-0.72 0.09,-0.21 0.23,-0.37 0.4,-0.48 0.17,-0.11 0.37,-0.17 0.6,-0.17 0.23,0 0.43,0.05 0.6,0.17 0.17,0.11 0.31,0.27 0.4,0.48 0.09,0.21 0.14,0.45 0.14,0.73 v 0.18 z m -0.37,-0.19 c 0,-0.34 -0.07,-0.6 -0.2,-0.78 -0.14,-0.18 -0.33,-0.27 -0.57,-0.27 -0.24,0 -0.42,0.09 -0.56,0.27 -0.14,0.18 -0.21,0.43 -0.21,0.75 v 0.21 c 0,0.33 0.07,0.58 0.21,0.77 0.14,0.19 0.33,0.28 0.57,0.28 0.24,0 0.43,-0.09 0.56,-0.26 0.13,-0.18 0.2,-0.43 0.21,-0.76 v -0.21 z"
   id="path1246" />
		<path
   fill="#ffffff"
   d="m 5660.98,193.51 v 0.51 h 0.39 v 0.28 h -0.39 v 1.31 c 0,0.08 0.02,0.15 0.05,0.19 0.04,0.04 0.09,0.06 0.18,0.06 0.04,0 0.1,-0.01 0.17,-0.02 v 0.29 c -0.09,0.03 -0.19,0.04 -0.28,0.04 -0.16,0 -0.28,-0.05 -0.37,-0.15 -0.09,-0.1 -0.12,-0.24 -0.12,-0.42 v -1.31 h -0.38 v -0.28 h 0.38 v -0.51 h 0.37 z"
   id="path1248" />
		<path
   fill="#ffffff"
   d="m 5662.16,194.28 c 0.16,-0.2 0.37,-0.29 0.62,-0.29 0.45,0 0.67,0.25 0.68,0.76 v 1.4 h -0.36 v -1.4 c 0,-0.15 -0.04,-0.27 -0.1,-0.34 -0.07,-0.07 -0.17,-0.11 -0.32,-0.11 -0.12,0 -0.22,0.03 -0.31,0.09 -0.09,0.06 -0.16,0.14 -0.21,0.25 v 1.51 h -0.36 v -3 h 0.36 z"
   id="path1250" />
		<path
   fill="#ffffff"
   d="m 5664.88,196.18 c -0.29,0 -0.52,-0.09 -0.7,-0.28 -0.18,-0.19 -0.27,-0.44 -0.27,-0.75 v -0.07 c 0,-0.21 0.04,-0.4 0.12,-0.56 0.08,-0.17 0.19,-0.29 0.34,-0.39 0.14,-0.09 0.3,-0.14 0.47,-0.14 0.27,0 0.49,0.09 0.64,0.27 0.15,0.18 0.23,0.44 0.23,0.78 v 0.15 h -1.43 c 0,0.21 0.07,0.38 0.18,0.5 0.12,0.13 0.26,0.19 0.44,0.19 0.13,0 0.24,-0.03 0.32,-0.08 0.09,-0.05 0.17,-0.12 0.23,-0.21 l 0.22,0.17 c -0.17,0.28 -0.44,0.42 -0.79,0.42 z m -0.05,-1.9 c -0.15,0 -0.27,0.05 -0.37,0.16 -0.1,0.11 -0.16,0.25 -0.18,0.45 h 1.06 v -0.03 c -0.01,-0.18 -0.06,-0.33 -0.15,-0.43 -0.09,-0.1 -0.21,-0.15 -0.36,-0.15 z"
   id="path1252" />
		<path
   fill="#ffffff"
   d="m 5667.14,194.35 c -0.05,-0.01 -0.11,-0.01 -0.18,-0.01 -0.24,0 -0.4,0.1 -0.48,0.3 v 1.5 h -0.36 v -2.11 h 0.35 l 0.01,0.24 c 0.12,-0.19 0.29,-0.28 0.5,-0.28 0.07,0 0.12,0.01 0.16,0.03 z"
   id="path1254" />
		<path
   fill="#ffffff"
   d="m 5668.7,195.58 c 0,-0.1 -0.04,-0.17 -0.11,-0.23 -0.07,-0.05 -0.2,-0.1 -0.38,-0.14 -0.18,-0.04 -0.33,-0.09 -0.44,-0.14 -0.11,-0.05 -0.19,-0.12 -0.24,-0.2 -0.05,-0.08 -0.08,-0.17 -0.08,-0.27 0,-0.17 0.07,-0.32 0.22,-0.44 0.15,-0.12 0.33,-0.18 0.56,-0.18 0.24,0 0.43,0.06 0.58,0.19 0.15,0.12 0.22,0.28 0.22,0.47 h -0.36 c 0,-0.1 -0.04,-0.18 -0.13,-0.26 -0.08,-0.07 -0.19,-0.11 -0.32,-0.11 -0.13,0 -0.23,0.03 -0.31,0.09 -0.07,0.06 -0.11,0.13 -0.11,0.22 0,0.09 0.03,0.15 0.1,0.2 0.07,0.04 0.19,0.09 0.37,0.13 0.18,0.04 0.33,0.09 0.44,0.14 0.11,0.06 0.2,0.12 0.25,0.2 0.05,0.08 0.08,0.17 0.08,0.29 0,0.19 -0.08,0.34 -0.23,0.45 -0.15,0.11 -0.35,0.17 -0.59,0.17 -0.17,0 -0.32,-0.03 -0.45,-0.09 -0.13,-0.06 -0.23,-0.14 -0.31,-0.25 -0.08,-0.11 -0.11,-0.22 -0.11,-0.35 h 0.36 c 0.01,0.12 0.05,0.22 0.15,0.29 0.09,0.07 0.21,0.11 0.36,0.11 0.14,0 0.25,-0.03 0.33,-0.08 0.11,-0.05 0.15,-0.12 0.15,-0.21 z"
   id="path1256" />
	</g>
</g>
<g
   id="g1302"
   transform="translate(4.0370866)">
	<g
   id="g1300">
		<path
   fill="#ffffff"
   d="m 5658.41,206.86 0.05,0.38 0.08,-0.34 0.56,-1.98 h 0.32 l 0.55,1.98 0.08,0.34 0.06,-0.38 0.44,-1.95 h 0.38 l -0.69,2.84 h -0.34 l -0.59,-2.07 -0.04,-0.22 -0.04,0.22 -0.61,2.07 h -0.34 l -0.69,-2.84 h 0.38 z"
   id="path1262" />
		<path
   fill="#ffffff"
   d="m 5662.53,207.76 c -0.02,-0.04 -0.04,-0.12 -0.05,-0.22 -0.17,0.17 -0.37,0.26 -0.6,0.26 -0.21,0 -0.38,-0.06 -0.51,-0.18 -0.13,-0.12 -0.2,-0.27 -0.2,-0.45 0,-0.22 0.08,-0.39 0.25,-0.51 0.17,-0.12 0.4,-0.18 0.71,-0.18 h 0.35 v -0.17 c 0,-0.13 -0.04,-0.23 -0.11,-0.3 -0.07,-0.07 -0.19,-0.11 -0.33,-0.11 -0.13,0 -0.24,0.03 -0.32,0.1 -0.08,0.07 -0.13,0.14 -0.13,0.24 h -0.36 c 0,-0.11 0.04,-0.21 0.11,-0.31 0.07,-0.1 0.18,-0.18 0.3,-0.23 0.12,-0.05 0.27,-0.09 0.42,-0.09 0.24,0 0.43,0.06 0.57,0.18 0.14,0.12 0.21,0.29 0.21,0.5 v 0.97 c 0,0.19 0.02,0.35 0.07,0.46 v 0.03 h -0.38 z m -0.6,-0.28 c 0.11,0 0.22,-0.03 0.32,-0.09 0.1,-0.06 0.17,-0.13 0.22,-0.23 v -0.43 h -0.28 c -0.44,0 -0.66,0.13 -0.66,0.39 0,0.11 0.04,0.2 0.11,0.27 0.07,0.07 0.17,0.09 0.29,0.09 z"
   id="path1264" />
		<path
   fill="#ffffff"
   d="m 5663.89,205.13 v 0.51 h 0.39 v 0.28 h -0.39 v 1.31 c 0,0.08 0.02,0.15 0.05,0.19 0.03,0.04 0.09,0.06 0.18,0.06 0.04,0 0.1,-0.01 0.17,-0.02 v 0.29 c -0.09,0.03 -0.19,0.04 -0.28,0.04 -0.16,0 -0.28,-0.05 -0.37,-0.15 -0.09,-0.1 -0.12,-0.24 -0.12,-0.42 v -1.31 h -0.38 v -0.28 h 0.38 v -0.51 h 0.37 z"
   id="path1266" />
		<path
   fill="#ffffff"
   d="m 5665.58,207.79 c -0.29,0 -0.52,-0.09 -0.7,-0.28 -0.18,-0.19 -0.27,-0.44 -0.27,-0.75 v -0.07 c 0,-0.21 0.04,-0.4 0.12,-0.56 0.08,-0.16 0.19,-0.29 0.34,-0.39 0.15,-0.1 0.3,-0.14 0.47,-0.14 0.27,0 0.49,0.09 0.64,0.27 0.15,0.18 0.23,0.44 0.23,0.78 v 0.15 h -1.43 c 0,0.21 0.07,0.38 0.18,0.5 0.11,0.12 0.26,0.19 0.44,0.19 0.13,0 0.24,-0.03 0.32,-0.08 0.08,-0.05 0.17,-0.12 0.23,-0.21 l 0.22,0.17 c -0.17,0.29 -0.43,0.42 -0.79,0.42 z m -0.04,-1.89 c -0.15,0 -0.27,0.05 -0.37,0.16 -0.1,0.11 -0.16,0.25 -0.18,0.45 h 1.06 v -0.03 c -0.01,-0.18 -0.06,-0.33 -0.15,-0.43 -0.09,-0.1 -0.21,-0.15 -0.36,-0.15 z"
   id="path1268" />
		<path
   fill="#ffffff"
   d="m 5667.85,205.97 c -0.05,-0.01 -0.11,-0.01 -0.18,-0.01 -0.24,0 -0.4,0.1 -0.48,0.3 v 1.5 h -0.36 v -2.11 h 0.35 l 0.01,0.24 c 0.12,-0.19 0.29,-0.28 0.5,-0.28 0.07,0 0.12,0.01 0.16,0.03 z"
   id="path1270" />
		<path
   fill="#ffffff"
   d="m 5669.23,207.76 v -2.84 h 0.93 c 0.31,0 0.54,0.06 0.7,0.19 0.16,0.13 0.23,0.32 0.23,0.57 0,0.13 -0.04,0.25 -0.11,0.35 -0.07,0.1 -0.18,0.18 -0.31,0.24 0.15,0.04 0.28,0.12 0.36,0.25 0.08,0.13 0.13,0.26 0.13,0.43 0,0.26 -0.08,0.46 -0.25,0.6 -0.17,0.14 -0.4,0.22 -0.7,0.22 h -0.98 z m 0.37,-1.64 h 0.57 c 0.16,0 0.29,-0.04 0.39,-0.12 0.1,-0.08 0.15,-0.19 0.15,-0.33 0,-0.16 -0.05,-0.27 -0.14,-0.34 -0.09,-0.07 -0.23,-0.11 -0.42,-0.11 h -0.55 z m 0,0.31 v 1.02 h 0.62 c 0.17,0 0.31,-0.05 0.41,-0.14 0.1,-0.09 0.15,-0.22 0.15,-0.37 0,-0.34 -0.19,-0.51 -0.56,-0.51 z"
   id="path1272" />
		<path
   fill="#ffffff"
   d="m 5671.56,206.68 c 0,-0.21 0.04,-0.39 0.12,-0.56 0.08,-0.17 0.19,-0.29 0.34,-0.38 0.15,-0.09 0.31,-0.13 0.5,-0.13 0.29,0 0.52,0.1 0.7,0.3 0.18,0.2 0.27,0.46 0.27,0.79 v 0.03 c 0,0.21 -0.04,0.39 -0.12,0.55 -0.08,0.16 -0.19,0.29 -0.34,0.38 -0.15,0.09 -0.31,0.14 -0.5,0.14 -0.29,0 -0.52,-0.1 -0.7,-0.3 -0.18,-0.2 -0.27,-0.46 -0.27,-0.79 z m 0.37,0.04 c 0,0.23 0.05,0.42 0.16,0.56 0.11,0.14 0.25,0.21 0.44,0.21 0.18,0 0.33,-0.07 0.44,-0.22 0.11,-0.15 0.16,-0.35 0.16,-0.6 0,-0.23 -0.05,-0.42 -0.17,-0.56 -0.12,-0.14 -0.26,-0.22 -0.44,-0.22 -0.18,0 -0.32,0.07 -0.43,0.21 -0.11,0.14 -0.16,0.36 -0.16,0.62 z"
   id="path1274" />
		<path
   fill="#ffffff"
   d="m 5673.85,206.68 c 0,-0.32 0.08,-0.58 0.23,-0.78 0.15,-0.2 0.35,-0.3 0.6,-0.3 0.25,0 0.44,0.08 0.59,0.25 v -1.1 h 0.36 v 3 h -0.33 l -0.02,-0.23 c -0.14,0.18 -0.35,0.27 -0.6,0.27 -0.25,0 -0.44,-0.1 -0.6,-0.3 -0.16,-0.2 -0.23,-0.46 -0.23,-0.79 z m 0.36,0.04 c 0,0.24 0.05,0.43 0.15,0.56 0.1,0.13 0.24,0.2 0.41,0.2 0.23,0 0.4,-0.1 0.5,-0.31 v -0.97 c -0.11,-0.2 -0.27,-0.3 -0.5,-0.3 -0.18,0 -0.32,0.07 -0.41,0.21 -0.09,0.14 -0.15,0.34 -0.15,0.61 z"
   id="path1276" />
		<path
   fill="#ffffff"
   d="m 5676.2,205.08 c 0,-0.06 0.02,-0.11 0.05,-0.15 0.03,-0.04 0.09,-0.06 0.16,-0.06 0.07,0 0.12,0.02 0.16,0.06 0.04,0.04 0.05,0.09 0.05,0.15 0,0.06 -0.02,0.11 -0.05,0.15 -0.03,0.04 -0.09,0.06 -0.16,0.06 -0.07,0 -0.12,-0.02 -0.16,-0.06 -0.04,-0.04 -0.05,-0.09 -0.05,-0.15 z m 0.39,2.68 h -0.36 v -2.11 h 0.36 z"
   id="path1278" />
		<path
   fill="#ffffff"
   d="m 5678.04,207.79 c -0.29,0 -0.52,-0.09 -0.7,-0.28 -0.18,-0.19 -0.27,-0.44 -0.27,-0.75 v -0.07 c 0,-0.21 0.04,-0.4 0.12,-0.56 0.08,-0.16 0.19,-0.29 0.34,-0.39 0.15,-0.1 0.3,-0.14 0.47,-0.14 0.27,0 0.49,0.09 0.64,0.27 0.15,0.18 0.23,0.44 0.23,0.78 v 0.15 h -1.43 c 0,0.21 0.07,0.38 0.18,0.5 0.11,0.12 0.26,0.19 0.44,0.19 0.13,0 0.24,-0.03 0.32,-0.08 0.08,-0.05 0.17,-0.12 0.23,-0.21 l 0.22,0.17 c -0.17,0.29 -0.43,0.42 -0.79,0.42 z M 5678,205.9 c -0.15,0 -0.27,0.05 -0.37,0.16 -0.1,0.11 -0.16,0.25 -0.18,0.45 h 1.06 v -0.03 c -0.01,-0.18 -0.06,-0.33 -0.15,-0.43 -0.09,-0.1 -0.21,-0.15 -0.36,-0.15 z"
   id="path1280" />
		<path
   fill="#ffffff"
   d="m 5680.52,207.2 c 0,-0.1 -0.04,-0.17 -0.11,-0.23 -0.07,-0.06 -0.2,-0.1 -0.38,-0.14 -0.18,-0.04 -0.33,-0.09 -0.44,-0.14 -0.11,-0.05 -0.19,-0.12 -0.24,-0.2 -0.05,-0.08 -0.08,-0.17 -0.08,-0.27 0,-0.17 0.07,-0.32 0.22,-0.44 0.15,-0.12 0.33,-0.18 0.56,-0.18 0.24,0 0.43,0.06 0.58,0.19 0.15,0.13 0.22,0.28 0.22,0.47 h -0.36 c 0,-0.1 -0.04,-0.18 -0.13,-0.26 -0.09,-0.08 -0.19,-0.11 -0.32,-0.11 -0.13,0 -0.23,0.03 -0.31,0.09 -0.08,0.06 -0.11,0.13 -0.11,0.22 0,0.09 0.03,0.15 0.1,0.2 0.07,0.05 0.19,0.09 0.37,0.13 0.18,0.04 0.33,0.09 0.44,0.14 0.11,0.05 0.2,0.12 0.25,0.2 0.05,0.08 0.08,0.17 0.08,0.29 0,0.19 -0.08,0.34 -0.23,0.45 -0.15,0.11 -0.35,0.17 -0.59,0.17 -0.17,0 -0.32,-0.03 -0.45,-0.09 -0.13,-0.06 -0.23,-0.14 -0.31,-0.25 -0.08,-0.11 -0.11,-0.22 -0.11,-0.35 h 0.36 c 0.01,0.12 0.05,0.22 0.15,0.29 0.1,0.07 0.21,0.11 0.36,0.11 0.14,0 0.25,-0.03 0.33,-0.08 0.08,-0.05 0.15,-0.12 0.15,-0.21 z"
   id="path1282" />
		<path
   fill="#ffffff"
   d="m 5682.33,206.6 c 0,-0.29 0.04,-0.58 0.12,-0.85 0.08,-0.27 0.2,-0.52 0.35,-0.74 0.15,-0.22 0.32,-0.38 0.49,-0.47 l 0.07,0.24 c -0.19,0.15 -0.35,0.37 -0.47,0.67 -0.12,0.3 -0.19,0.63 -0.2,1.01 v 0.17 c 0,0.5 0.09,0.94 0.28,1.31 0.11,0.22 0.24,0.39 0.39,0.52 l -0.07,0.22 c -0.17,-0.1 -0.34,-0.26 -0.5,-0.48 -0.31,-0.45 -0.46,-0.98 -0.46,-1.6 z"
   id="path1284" />
		<path
   fill="#ffffff"
   d="m 5685.95,207.76 h -0.38 l -1.43,-2.19 v 2.19 h -0.38 v -2.84 h 0.38 l 1.44,2.2 v -2.2 h 0.37 z"
   id="path1286" />
		<path
   fill="#ffffff"
   d="m 5687.86,207.55 c -0.14,0.17 -0.35,0.25 -0.62,0.25 -0.23,0 -0.4,-0.07 -0.51,-0.2 -0.11,-0.13 -0.18,-0.32 -0.18,-0.58 v -1.38 h 0.36 v 1.37 c 0,0.32 0.13,0.48 0.39,0.48 0.28,0 0.46,-0.1 0.55,-0.31 v -1.54 h 0.36 v 2.11 h -0.34 z"
   id="path1288" />
		<path
   fill="#ffffff"
   d="m 5689.1,205.64 0.01,0.23 c 0.16,-0.18 0.36,-0.27 0.63,-0.27 0.3,0 0.5,0.11 0.6,0.34 0.07,-0.1 0.16,-0.18 0.27,-0.25 0.11,-0.07 0.25,-0.09 0.4,-0.09 0.46,0 0.7,0.25 0.71,0.74 v 1.42 h -0.36 v -1.39 c 0,-0.15 -0.03,-0.26 -0.1,-0.34 -0.07,-0.08 -0.18,-0.11 -0.35,-0.11 -0.13,0 -0.25,0.04 -0.33,0.12 -0.08,0.08 -0.14,0.19 -0.15,0.32 v 1.4 h -0.36 v -1.38 c 0,-0.31 -0.15,-0.46 -0.45,-0.46 -0.24,0 -0.4,0.1 -0.49,0.3 v 1.54 h -0.36 v -2.11 h 0.33 z"
   id="path1290" />
		<path
   fill="#ffffff"
   d="m 5694.06,206.72 c 0,0.32 -0.07,0.58 -0.22,0.78 -0.15,0.2 -0.35,0.29 -0.6,0.29 -0.27,0 -0.47,-0.09 -0.62,-0.28 l -0.02,0.24 h -0.33 v -3 h 0.36 v 1.12 c 0.15,-0.18 0.35,-0.27 0.6,-0.27 0.25,0 0.46,0.1 0.6,0.29 0.14,0.19 0.22,0.46 0.22,0.8 v 0.03 z m -0.36,-0.04 c 0,-0.25 -0.05,-0.44 -0.14,-0.57 -0.09,-0.13 -0.23,-0.2 -0.41,-0.2 -0.24,0 -0.41,0.11 -0.51,0.33 v 0.91 c 0.11,0.22 0.28,0.33 0.52,0.33 0.17,0 0.31,-0.07 0.4,-0.2 0.09,-0.13 0.14,-0.33 0.14,-0.6 z"
   id="path1292" />
		<path
   fill="#ffffff"
   d="m 5695.39,207.79 c -0.29,0 -0.52,-0.09 -0.7,-0.28 -0.18,-0.19 -0.27,-0.44 -0.27,-0.75 v -0.07 c 0,-0.21 0.04,-0.4 0.12,-0.56 0.08,-0.16 0.19,-0.29 0.34,-0.39 0.15,-0.1 0.3,-0.14 0.47,-0.14 0.27,0 0.49,0.09 0.64,0.27 0.15,0.18 0.23,0.44 0.23,0.78 v 0.15 h -1.43 c 0,0.21 0.07,0.38 0.18,0.5 0.11,0.12 0.26,0.19 0.44,0.19 0.13,0 0.24,-0.03 0.32,-0.08 0.08,-0.05 0.17,-0.12 0.23,-0.21 l 0.22,0.17 c -0.17,0.29 -0.44,0.42 -0.79,0.42 z m -0.05,-1.89 c -0.15,0 -0.27,0.05 -0.37,0.16 -0.1,0.11 -0.16,0.25 -0.18,0.45 h 1.06 v -0.03 c -0.01,-0.18 -0.06,-0.33 -0.15,-0.43 -0.09,-0.1 -0.2,-0.15 -0.36,-0.15 z"
   id="path1294" />
		<path
   fill="#ffffff"
   d="m 5697.65,205.97 c -0.05,-0.01 -0.11,-0.01 -0.18,-0.01 -0.24,0 -0.4,0.1 -0.48,0.3 v 1.5 h -0.36 v -2.11 h 0.35 l 0.01,0.24 c 0.12,-0.19 0.29,-0.28 0.5,-0.28 0.07,0 0.12,0.01 0.16,0.03 z"
   id="path1296" />
		<path
   fill="#ffffff"
   d="m 5698.82,206.62 c 0,0.29 -0.04,0.57 -0.11,0.83 -0.07,0.26 -0.19,0.51 -0.35,0.74 -0.16,0.23 -0.32,0.39 -0.49,0.48 l -0.08,-0.22 c 0.2,-0.15 0.36,-0.39 0.48,-0.72 0.12,-0.33 0.18,-0.68 0.19,-1.08 v -0.06 c 0,-0.27 -0.03,-0.53 -0.09,-0.76 -0.06,-0.23 -0.14,-0.45 -0.24,-0.63 -0.1,-0.18 -0.22,-0.33 -0.34,-0.44 l 0.08,-0.22 c 0.17,0.1 0.34,0.25 0.49,0.48 0.15,0.23 0.27,0.47 0.35,0.74 0.08,0.27 0.11,0.55 0.11,0.86 z"
   id="path1298" />
	</g>
</g>
<g
   id="g1314"
   transform="translate(4.0370866)">
	<g
   id="g1312">
		<path
   fill="#ffffff"
   d="m 5585.82,146.6 h -2.33 v -0.32 l 1.23,-1.37 c 0.18,-0.21 0.31,-0.37 0.38,-0.5 0.07,-0.13 0.1,-0.26 0.1,-0.4 0,-0.19 -0.06,-0.34 -0.17,-0.46 -0.11,-0.12 -0.26,-0.18 -0.45,-0.18 -0.22,0 -0.4,0.06 -0.52,0.19 -0.12,0.13 -0.19,0.31 -0.19,0.53 h -0.45 c 0,-0.33 0.11,-0.59 0.32,-0.79 0.21,-0.2 0.49,-0.3 0.85,-0.3 0.33,0 0.59,0.09 0.78,0.26 0.19,0.17 0.29,0.4 0.29,0.69 0,0.35 -0.22,0.77 -0.67,1.25 l -0.95,1.03 h 1.79 v 0.37 z"
   id="path1304" />
		<path
   fill="#ffffff"
   d="m 5588.52,145.08 c 0,0.53 -0.09,0.92 -0.27,1.18 -0.18,0.26 -0.46,0.39 -0.85,0.39 -0.38,0 -0.66,-0.13 -0.84,-0.38 -0.18,-0.25 -0.28,-0.63 -0.28,-1.13 v -0.6 c 0,-0.52 0.09,-0.91 0.27,-1.16 0.18,-0.25 0.46,-0.38 0.85,-0.38 0.38,0 0.66,0.12 0.84,0.37 0.18,0.25 0.27,0.62 0.28,1.13 z m -0.45,-0.62 c 0,-0.38 -0.05,-0.66 -0.16,-0.84 -0.11,-0.18 -0.28,-0.26 -0.51,-0.26 -0.23,0 -0.4,0.09 -0.5,0.26 -0.11,0.17 -0.16,0.44 -0.16,0.8 v 0.72 c 0,0.38 0.06,0.67 0.17,0.85 0.11,0.18 0.28,0.27 0.51,0.27 0.22,0 0.39,-0.09 0.5,-0.26 0.11,-0.17 0.17,-0.44 0.17,-0.82 v -0.72 z"
   id="path1306" />
		<path
   fill="#ffffff"
   d="m 5591.33,145.08 c 0,0.53 -0.09,0.92 -0.27,1.18 -0.18,0.26 -0.46,0.39 -0.85,0.39 -0.38,0 -0.66,-0.13 -0.84,-0.38 -0.18,-0.25 -0.28,-0.63 -0.28,-1.13 v -0.6 c 0,-0.52 0.09,-0.91 0.27,-1.16 0.18,-0.25 0.46,-0.38 0.85,-0.38 0.38,0 0.66,0.12 0.84,0.37 0.18,0.25 0.27,0.62 0.28,1.13 z m -0.45,-0.62 c 0,-0.38 -0.05,-0.66 -0.16,-0.84 -0.11,-0.18 -0.28,-0.26 -0.51,-0.26 -0.23,0 -0.4,0.09 -0.5,0.26 -0.11,0.17 -0.16,0.44 -0.16,0.8 v 0.72 c 0,0.38 0.06,0.67 0.17,0.85 0.11,0.18 0.28,0.27 0.51,0.27 0.22,0 0.39,-0.09 0.5,-0.26 0.11,-0.17 0.17,-0.44 0.17,-0.82 v -0.72 z"
   id="path1308" />
		<path
   fill="#ffffff"
   d="m 5594.24,146.6 h -2.33 v -0.32 l 1.23,-1.37 c 0.18,-0.21 0.31,-0.37 0.38,-0.5 0.07,-0.13 0.1,-0.26 0.1,-0.4 0,-0.19 -0.06,-0.34 -0.17,-0.46 -0.11,-0.12 -0.26,-0.18 -0.45,-0.18 -0.22,0 -0.4,0.06 -0.52,0.19 -0.12,0.13 -0.19,0.31 -0.19,0.53 h -0.45 c 0,-0.33 0.11,-0.59 0.32,-0.79 0.21,-0.2 0.49,-0.3 0.85,-0.3 0.33,0 0.59,0.09 0.78,0.26 0.19,0.17 0.29,0.4 0.29,0.69 0,0.35 -0.22,0.77 -0.67,1.25 l -0.95,1.03 h 1.79 v 0.37 z"
   id="path1310" />
	</g>
</g>
<g
   id="g1326"
   transform="translate(4.0370866)">
	<g
   id="g1324">
		<path
   fill="#ffffff"
   d="m 5627.91,146.6 h -2.33 v -0.32 l 1.23,-1.37 c 0.18,-0.21 0.31,-0.37 0.38,-0.5 0.07,-0.13 0.1,-0.26 0.1,-0.4 0,-0.19 -0.06,-0.34 -0.17,-0.46 -0.11,-0.12 -0.26,-0.18 -0.45,-0.18 -0.22,0 -0.4,0.06 -0.52,0.19 -0.12,0.13 -0.19,0.31 -0.19,0.53 h -0.45 c 0,-0.33 0.11,-0.59 0.32,-0.79 0.21,-0.2 0.49,-0.3 0.85,-0.3 0.33,0 0.59,0.09 0.78,0.26 0.19,0.17 0.29,0.4 0.29,0.69 0,0.35 -0.22,0.77 -0.67,1.25 l -0.95,1.03 h 1.79 v 0.37 z"
   id="path1316" />
		<path
   fill="#ffffff"
   d="m 5630.62,145.08 c 0,0.53 -0.09,0.92 -0.27,1.18 -0.18,0.26 -0.46,0.39 -0.85,0.39 -0.38,0 -0.66,-0.13 -0.84,-0.38 -0.18,-0.25 -0.28,-0.63 -0.28,-1.13 v -0.6 c 0,-0.52 0.09,-0.91 0.27,-1.16 0.18,-0.25 0.46,-0.38 0.85,-0.38 0.38,0 0.66,0.12 0.84,0.37 0.18,0.25 0.27,0.62 0.28,1.13 z m -0.45,-0.62 c 0,-0.38 -0.05,-0.66 -0.16,-0.84 -0.11,-0.18 -0.28,-0.26 -0.51,-0.26 -0.23,0 -0.4,0.09 -0.5,0.26 -0.11,0.17 -0.16,0.44 -0.16,0.8 v 0.72 c 0,0.38 0.06,0.67 0.17,0.85 0.11,0.18 0.28,0.27 0.51,0.27 0.22,0 0.39,-0.09 0.5,-0.26 0.11,-0.17 0.17,-0.44 0.17,-0.82 v -0.72 z"
   id="path1318" />
		<path
   fill="#ffffff"
   d="m 5633.43,145.08 c 0,0.53 -0.09,0.92 -0.27,1.18 -0.18,0.26 -0.46,0.39 -0.85,0.39 -0.38,0 -0.66,-0.13 -0.84,-0.38 -0.18,-0.25 -0.28,-0.63 -0.28,-1.13 v -0.6 c 0,-0.52 0.09,-0.91 0.27,-1.16 0.18,-0.25 0.46,-0.38 0.85,-0.38 0.38,0 0.66,0.12 0.84,0.37 0.18,0.25 0.27,0.62 0.28,1.13 z m -0.46,-0.62 c 0,-0.38 -0.05,-0.66 -0.16,-0.84 -0.11,-0.18 -0.28,-0.26 -0.51,-0.26 -0.23,0 -0.4,0.09 -0.5,0.26 -0.11,0.17 -0.16,0.44 -0.16,0.8 v 0.72 c 0,0.38 0.06,0.67 0.17,0.85 0.11,0.18 0.28,0.27 0.51,0.27 0.22,0 0.39,-0.09 0.5,-0.26 0.11,-0.17 0.17,-0.44 0.17,-0.82 v -0.72 z"
   id="path1320" />
		<path
   fill="#ffffff"
   d="m 5636.3,143.3 -1.47,3.3 h -0.47 l 1.47,-3.18 h -1.92 v -0.37 h 2.4 v 0.25 z"
   id="path1322" />
	</g>
</g>
<polygon
   fill="#b87332"
   points="5646.88,161.07 5643.4,165.65 5650.57,165.65 "
   id="polygon1328"
   transform="translate(4.0370866)" />
<rect
   x="5648.3975"
   y="192.89"
   fill="#b5b6b6"
   width="6.1999998"
   height="6.5"
   id="rect1330" />
<g
   id="g1338"
   transform="translate(4.0370866)">
	<rect
   x="5643.3999"
   y="177.75999"
   fill="#739ad1"
   width="7.1599998"
   height="1.84"
   id="rect1332" />
	<rect
   x="5643.3999"
   y="181.14999"
   fill="#739ad1"
   width="7.1599998"
   height="1.84"
   id="rect1334" />
	<rect
   x="5643.3999"
   y="184.55"
   fill="#739ad1"
   width="7.1599998"
   height="1.84"
   id="rect1336" />
</g>
<rect
   x="5650.6074"
   y="165.28"
   fill="#b87332"
   width="0.83999997"
   height="4.7399998"
   id="rect1340" />
<g
   id="g1514"
   transform="translate(4.0370866)">
	<g
   id="g1512">
		<path
   fill="#ffffff"
   d="m 5462.01,165.91 h -1.22 v 3.3 h -0.3 v -3.3 h -1.22 v -0.25 h 2.73 v 0.25 z"
   id="path1342" />
		<path
   fill="#ffffff"
   d="m 5464.75,167.5 h -1.66 v 1.45 h 1.91 v 0.25 h -2.21 v -3.55 h 2.2 v 0.25 h -1.9 v 1.34 h 1.66 z"
   id="path1344" />
		<path
   fill="#ffffff"
   d="m 5466.23,165.65 1.31,3.14 1.32,-3.14 h 0.4 v 3.55 h -0.3 v -1.55 l 0.02,-1.59 -1.32,3.13 h -0.23 l -1.32,-3.12 0.03,1.56 v 1.56 h -0.3 v -3.55 h 0.39 z"
   id="path1346" />
		<path
   fill="#ffffff"
   d="m 5470.66,167.76 v 1.45 h -0.3 v -3.55 h 1.21 c 0.37,0 0.66,0.09 0.88,0.28 0.22,0.19 0.32,0.45 0.32,0.78 0,0.33 -0.1,0.59 -0.31,0.77 -0.21,0.18 -0.5,0.27 -0.9,0.27 z m 0,-0.26 h 0.91 c 0.29,0 0.51,-0.07 0.67,-0.21 0.15,-0.14 0.23,-0.33 0.23,-0.58 0,-0.25 -0.08,-0.44 -0.23,-0.59 -0.15,-0.15 -0.37,-0.22 -0.65,-0.22 h -0.93 z"
   id="path1348" />
		<path
   fill="#ffffff"
   d="m 5476.26,167.62 c 0,0.33 -0.06,0.61 -0.17,0.86 -0.11,0.25 -0.27,0.44 -0.48,0.57 -0.21,0.13 -0.45,0.2 -0.73,0.2 -0.42,0 -0.75,-0.15 -1.01,-0.45 -0.26,-0.3 -0.38,-0.7 -0.38,-1.2 v -0.37 c 0,-0.32 0.06,-0.61 0.17,-0.86 0.11,-0.25 0.28,-0.44 0.49,-0.58 0.21,-0.13 0.45,-0.2 0.72,-0.2 0.27,0 0.51,0.07 0.72,0.2 0.21,0.13 0.37,0.32 0.49,0.56 0.11,0.24 0.17,0.52 0.18,0.84 z m -0.3,-0.38 c 0,-0.43 -0.1,-0.76 -0.29,-1.01 -0.19,-0.25 -0.46,-0.36 -0.8,-0.36 -0.33,0 -0.59,0.12 -0.79,0.37 -0.2,0.24 -0.29,0.58 -0.29,1.02 v 0.37 c 0,0.42 0.1,0.76 0.29,1 0.2,0.25 0.46,0.37 0.8,0.37 0.34,0 0.61,-0.12 0.8,-0.36 0.19,-0.24 0.29,-0.58 0.29,-1.02 v -0.38 z"
   id="path1350" />
		<path
   fill="#ffffff"
   d="m 5478.54,167.72 h -1.03 v 1.48 h -0.3 v -3.55 h 1.16 c 0.38,0 0.68,0.09 0.89,0.28 0.21,0.18 0.32,0.44 0.32,0.77 0,0.23 -0.07,0.43 -0.2,0.6 -0.13,0.17 -0.31,0.29 -0.54,0.36 l 0.89,1.51 v 0.03 h -0.32 z m -1.03,-0.25 h 0.92 c 0.25,0 0.46,-0.07 0.61,-0.22 0.15,-0.14 0.23,-0.33 0.23,-0.56 0,-0.25 -0.08,-0.45 -0.24,-0.58 -0.16,-0.14 -0.38,-0.21 -0.67,-0.21 h -0.85 z"
   id="path1352" />
		<path
   fill="#ffffff"
   d="m 5482.51,168.21 h -1.61 l -0.37,1 h -0.32 l 1.34,-3.55 h 0.29 l 1.34,3.55 h -0.31 z m -1.52,-0.26 h 1.43 l -0.71,-1.94 z"
   id="path1354" />
		<path
   fill="#ffffff"
   d="m 5484.22,168.95 h 1.76 v 0.25 h -2.06 v -3.55 h 0.3 z"
   id="path1356" />
		<path
   fill="#ffffff"
   d="m 5490.68,168.1 c -0.04,0.37 -0.17,0.66 -0.4,0.86 -0.23,0.2 -0.53,0.3 -0.91,0.3 -0.26,0 -0.5,-0.07 -0.7,-0.2 -0.2,-0.13 -0.36,-0.32 -0.47,-0.56 -0.11,-0.24 -0.17,-0.52 -0.17,-0.83 v -0.46 c 0,-0.32 0.05,-0.6 0.17,-0.84 0.11,-0.24 0.27,-0.43 0.48,-0.56 0.21,-0.13 0.45,-0.2 0.72,-0.2 0.38,0 0.68,0.1 0.9,0.31 0.22,0.21 0.35,0.49 0.38,0.85 h -0.3 c -0.08,-0.6 -0.4,-0.91 -0.98,-0.91 -0.32,0 -0.58,0.12 -0.77,0.36 -0.19,0.24 -0.29,0.57 -0.29,1 v 0.44 c 0,0.41 0.09,0.74 0.28,0.98 0.19,0.24 0.44,0.37 0.76,0.37 0.31,0 0.55,-0.08 0.71,-0.23 0.16,-0.15 0.26,-0.38 0.3,-0.68 z"
   id="path1358" />
		<path
   fill="#ffffff"
   d="m 5494.25,169.21 h -0.3 v -1.7 h -2.03 v 1.7 h -0.3 v -3.55 h 0.3 v 1.6 h 2.03 v -1.6 h 0.3 z"
   id="path1360" />
		<path
   fill="#ffffff"
   d="m 5497.31,168.21 h -1.61 l -0.37,1 h -0.32 l 1.34,-3.55 h 0.29 l 1.34,3.55 h -0.31 z m -1.52,-0.26 h 1.43 l -0.71,-1.94 z"
   id="path1362" />
		<path
   fill="#ffffff"
   d="m 5501.36,169.21 h -0.3 l -2.04,-3.04 v 3.04 h -0.3 v -3.55 h 0.3 l 2.05,3.04 v -3.04 h 0.3 v 3.55 z"
   id="path1364" />
		<path
   fill="#ffffff"
   d="m 5505.03,168.78 c -0.1,0.15 -0.27,0.26 -0.49,0.35 -0.22,0.08 -0.47,0.12 -0.75,0.12 -0.28,0 -0.53,-0.07 -0.74,-0.2 -0.22,-0.13 -0.38,-0.32 -0.5,-0.57 -0.12,-0.24 -0.18,-0.52 -0.18,-0.84 v -0.45 c 0,-0.49 0.12,-0.88 0.37,-1.17 0.25,-0.29 0.58,-0.43 1,-0.43 0.37,0 0.66,0.09 0.88,0.28 0.22,0.19 0.36,0.44 0.4,0.77 h -0.3 c -0.04,-0.26 -0.15,-0.46 -0.32,-0.59 -0.17,-0.13 -0.39,-0.2 -0.66,-0.2 -0.33,0 -0.59,0.12 -0.79,0.35 -0.19,0.24 -0.29,0.57 -0.29,1 v 0.42 c 0,0.27 0.05,0.51 0.14,0.72 0.09,0.21 0.22,0.37 0.4,0.48 0.17,0.11 0.37,0.17 0.59,0.17 0.26,0 0.48,-0.04 0.67,-0.12 0.12,-0.05 0.21,-0.12 0.27,-0.19 v -0.92 h -0.96 v -0.25 h 1.26 z"
   id="path1366" />
		<path
   fill="#ffffff"
   d="m 5508.04,167.5 h -1.66 v 1.45 h 1.91 v 0.25 h -2.21 v -3.55 h 2.2 v 0.25 h -1.9 v 1.34 h 1.66 z"
   id="path1368" />
		<path
   fill="#ffffff"
   d="m 5511.14,168.33 c 0,-0.2 -0.07,-0.35 -0.21,-0.47 -0.14,-0.11 -0.39,-0.22 -0.76,-0.33 -0.37,-0.1 -0.64,-0.22 -0.81,-0.34 -0.24,-0.17 -0.36,-0.4 -0.36,-0.68 0,-0.27 0.11,-0.49 0.34,-0.66 0.22,-0.17 0.51,-0.25 0.86,-0.25 0.24,0 0.45,0.05 0.63,0.14 0.18,0.09 0.33,0.22 0.43,0.38 0.1,0.16 0.15,0.34 0.15,0.54 h -0.3 c 0,-0.24 -0.08,-0.44 -0.25,-0.59 -0.17,-0.15 -0.39,-0.22 -0.67,-0.22 -0.27,0 -0.49,0.06 -0.65,0.18 -0.16,0.12 -0.24,0.28 -0.24,0.48 0,0.18 0.07,0.33 0.22,0.44 0.14,0.11 0.38,0.21 0.7,0.3 0.32,0.09 0.56,0.18 0.72,0.27 0.17,0.09 0.29,0.21 0.37,0.34 0.08,0.13 0.12,0.28 0.12,0.46 0,0.28 -0.11,0.5 -0.34,0.67 -0.23,0.17 -0.52,0.25 -0.88,0.25 -0.25,0 -0.48,-0.04 -0.69,-0.13 -0.21,-0.09 -0.37,-0.21 -0.48,-0.38 -0.11,-0.17 -0.16,-0.35 -0.16,-0.55 h 0.3 c 0,0.25 0.09,0.45 0.28,0.59 0.19,0.14 0.44,0.22 0.75,0.22 0.28,0 0.5,-0.06 0.67,-0.18 0.17,-0.11 0.26,-0.28 0.26,-0.48 z"
   id="path1370" />
		<path
   fill="#ffffff"
   d="m 5514.07,169.21 h -0.3 v -3.55 h 0.3 z"
   id="path1372" />
		<path
   fill="#ffffff"
   d="m 5517.88,169.21 h -0.3 l -2.04,-3.04 v 3.04 h -0.3 v -3.55 h 0.3 l 2.05,3.04 v -3.04 h 0.3 v 3.55 z"
   id="path1374" />
		<path
   fill="#ffffff"
   d="m 5520.4,169.21 v -3.55 h 0.99 c 0.29,0 0.55,0.07 0.78,0.2 0.23,0.13 0.41,0.32 0.54,0.57 0.13,0.25 0.19,0.53 0.19,0.84 v 0.33 c 0,0.32 -0.06,0.6 -0.19,0.84 -0.13,0.24 -0.31,0.44 -0.54,0.57 -0.23,0.13 -0.5,0.2 -0.8,0.2 z m 0.3,-3.3 v 3.05 h 0.67 c 0.37,0 0.67,-0.12 0.9,-0.37 0.23,-0.25 0.34,-0.58 0.34,-1.01 v -0.31 c 0,-0.41 -0.11,-0.74 -0.33,-0.98 -0.22,-0.25 -0.52,-0.37 -0.88,-0.37 h -0.7 z"
   id="path1376" />
		<path
   fill="#ffffff"
   d="m 5525.84,167.5 h -1.66 v 1.45 h 1.91 v 0.25 h -2.21 v -3.55 h 2.2 v 0.25 h -1.9 v 1.34 h 1.66 z"
   id="path1378" />
		<path
   fill="#ffffff"
   d="m 5527.99,168.77 0.02,0.08 0.02,-0.08 1.12,-3.12 h 0.33 l -1.32,3.55 h -0.29 l -1.32,-3.55 h 0.33 z"
   id="path1380" />
		<path
   fill="#ffffff"
   d="m 5532.16,167.5 h -1.66 v 1.45 h 1.91 v 0.25 h -2.21 v -3.55 h 2.2 v 0.25 h -1.9 v 1.34 h 1.66 z"
   id="path1382" />
		<path
   fill="#ffffff"
   d="m 5533.55,168.95 h 1.76 v 0.25 h -2.06 v -3.55 h 0.3 z"
   id="path1384" />
		<path
   fill="#ffffff"
   d="m 5538.55,167.62 c 0,0.33 -0.06,0.61 -0.17,0.86 -0.11,0.25 -0.27,0.44 -0.48,0.57 -0.21,0.13 -0.45,0.2 -0.73,0.2 -0.42,0 -0.75,-0.15 -1.01,-0.45 -0.26,-0.3 -0.38,-0.7 -0.38,-1.2 v -0.37 c 0,-0.32 0.06,-0.61 0.17,-0.86 0.11,-0.25 0.28,-0.44 0.49,-0.58 0.21,-0.13 0.45,-0.2 0.72,-0.2 0.27,0 0.51,0.07 0.72,0.2 0.21,0.13 0.37,0.32 0.49,0.56 0.11,0.24 0.17,0.52 0.18,0.84 z m -0.3,-0.38 c 0,-0.43 -0.1,-0.76 -0.29,-1.01 -0.19,-0.25 -0.46,-0.36 -0.8,-0.36 -0.33,0 -0.59,0.12 -0.79,0.37 -0.2,0.24 -0.29,0.58 -0.29,1.02 v 0.37 c 0,0.42 0.1,0.76 0.29,1 0.2,0.25 0.46,0.37 0.8,0.37 0.34,0 0.61,-0.12 0.8,-0.36 0.19,-0.24 0.29,-0.58 0.29,-1.02 v -0.38 z"
   id="path1386" />
		<path
   fill="#ffffff"
   d="m 5539.81,167.76 v 1.45 h -0.3 v -3.55 h 1.21 c 0.37,0 0.66,0.09 0.88,0.28 0.22,0.19 0.32,0.45 0.32,0.78 0,0.33 -0.1,0.59 -0.31,0.77 -0.21,0.18 -0.5,0.27 -0.9,0.27 z m 0,-0.26 h 0.91 c 0.29,0 0.51,-0.07 0.67,-0.21 0.15,-0.14 0.23,-0.33 0.23,-0.58 0,-0.25 -0.08,-0.44 -0.23,-0.59 -0.15,-0.15 -0.37,-0.22 -0.65,-0.22 h -0.93 z"
   id="path1388" />
		<path
   fill="#ffffff"
   d="m 5543.18,165.65 1.31,3.14 1.32,-3.14 h 0.4 v 3.55 h -0.3 v -1.55 l 0.02,-1.59 -1.32,3.13 h -0.23 l -1.32,-3.12 0.03,1.56 v 1.56 h -0.3 v -3.55 h 0.39 z"
   id="path1390" />
		<path
   fill="#ffffff"
   d="m 5549.27,167.5 h -1.66 v 1.45 h 1.91 v 0.25 h -2.21 v -3.55 h 2.2 v 0.25 h -1.9 v 1.34 h 1.66 z"
   id="path1392" />
		<path
   fill="#ffffff"
   d="m 5553,169.21 h -0.3 l -2.04,-3.04 v 3.04 h -0.3 v -3.55 h 0.3 l 2.05,3.04 v -3.04 h 0.3 v 3.55 z"
   id="path1394" />
		<path
   fill="#ffffff"
   d="m 5556.45,165.91 h -1.22 v 3.3 h -0.3 v -3.3 h -1.22 v -0.25 h 2.73 v 0.25 z"
   id="path1396" />
		<path
   fill="#ffffff"
   d="m 5560.46,168.21 h -1.61 l -0.37,1 h -0.32 l 1.34,-3.55 h 0.29 l 1.34,3.55 h -0.31 z m -1.52,-0.26 h 1.43 l -0.71,-1.94 z"
   id="path1398" />
		<path
   fill="#ffffff"
   d="m 5564.5,169.21 h -0.3 l -2.04,-3.04 v 3.04 h -0.3 v -3.55 h 0.3 l 2.05,3.04 v -3.04 h 0.3 v 3.55 z"
   id="path1400" />
		<path
   fill="#ffffff"
   d="m 5565.61,169.21 v -3.55 h 0.99 c 0.29,0 0.55,0.07 0.78,0.2 0.23,0.13 0.41,0.32 0.54,0.57 0.13,0.25 0.19,0.53 0.19,0.84 v 0.33 c 0,0.32 -0.06,0.6 -0.19,0.84 -0.13,0.24 -0.31,0.44 -0.54,0.57 -0.23,0.13 -0.5,0.2 -0.8,0.2 z m 0.3,-3.3 v 3.05 h 0.67 c 0.37,0 0.67,-0.12 0.9,-0.37 0.23,-0.25 0.34,-0.58 0.34,-1.01 v -0.31 c 0,-0.41 -0.11,-0.74 -0.33,-0.98 -0.22,-0.25 -0.52,-0.37 -0.88,-0.37 h -0.7 z"
   id="path1402" />
		<path
   fill="#ffffff"
   d="m 5459.97,176.21 h -0.3 v -3.55 h 0.3 z"
   id="path1404" />
		<path
   fill="#ffffff"
   d="m 5463.47,172.91 h -1.22 v 3.3 h -0.3 v -3.3 h -1.22 v -0.25 h 2.73 v 0.25 z"
   id="path1406" />
		<path
   fill="#ffffff"
   d="m 5466.22,175.33 c 0,-0.2 -0.07,-0.35 -0.21,-0.47 -0.14,-0.11 -0.39,-0.22 -0.76,-0.33 -0.37,-0.1 -0.64,-0.22 -0.81,-0.34 -0.24,-0.17 -0.36,-0.4 -0.36,-0.68 0,-0.27 0.11,-0.49 0.34,-0.66 0.22,-0.17 0.51,-0.25 0.86,-0.25 0.24,0 0.45,0.05 0.63,0.14 0.18,0.09 0.33,0.22 0.43,0.38 0.1,0.16 0.15,0.34 0.15,0.54 h -0.3 c 0,-0.24 -0.08,-0.44 -0.25,-0.59 -0.17,-0.15 -0.39,-0.22 -0.67,-0.22 -0.27,0 -0.49,0.06 -0.65,0.18 -0.16,0.12 -0.24,0.28 -0.24,0.48 0,0.18 0.07,0.33 0.22,0.44 0.14,0.11 0.38,0.21 0.7,0.3 0.32,0.09 0.56,0.18 0.72,0.27 0.17,0.09 0.29,0.21 0.37,0.34 0.08,0.13 0.12,0.28 0.12,0.46 0,0.28 -0.11,0.5 -0.34,0.67 -0.23,0.17 -0.52,0.25 -0.88,0.25 -0.25,0 -0.48,-0.04 -0.69,-0.13 -0.21,-0.09 -0.37,-0.21 -0.48,-0.38 -0.11,-0.17 -0.16,-0.35 -0.16,-0.55 h 0.3 c 0,0.25 0.09,0.45 0.28,0.59 0.19,0.14 0.44,0.22 0.75,0.22 0.28,0 0.5,-0.06 0.67,-0.18 0.18,-0.11 0.26,-0.28 0.26,-0.48 z"
   id="path1408" />
		<path
   fill="#ffffff"
   d="m 5469.15,176.21 h -0.3 v -3.55 h 0.3 z"
   id="path1410" />
		<path
   fill="#ffffff"
   d="m 5470.71,172.65 1.31,3.14 1.32,-3.14 h 0.4 v 3.55 h -0.3 v -1.55 l 0.02,-1.59 -1.32,3.13 h -0.23 l -1.32,-3.12 0.03,1.56 v 1.56 h -0.3 v -3.55 h 0.39 z"
   id="path1412" />
		<path
   fill="#ffffff"
   d="m 5475.14,174.76 v 1.45 h -0.3 v -3.55 h 1.21 c 0.37,0 0.66,0.09 0.88,0.28 0.22,0.19 0.32,0.45 0.32,0.78 0,0.33 -0.1,0.59 -0.31,0.77 -0.21,0.18 -0.5,0.27 -0.9,0.27 z m 0,-0.26 h 0.91 c 0.29,0 0.51,-0.07 0.67,-0.21 0.15,-0.14 0.23,-0.33 0.23,-0.58 0,-0.25 -0.08,-0.44 -0.23,-0.59 -0.15,-0.15 -0.37,-0.22 -0.65,-0.22 h -0.93 z"
   id="path1414" />
		<path
   fill="#ffffff"
   d="m 5479.7,175.21 h -1.61 l -0.37,1 h -0.32 l 1.34,-3.55 h 0.29 l 1.34,3.55 h -0.31 z m -1.52,-0.26 h 1.43 l -0.71,-1.94 z"
   id="path1416" />
		<path
   fill="#ffffff"
   d="m 5483.6,175.1 c -0.04,0.37 -0.17,0.66 -0.4,0.86 -0.23,0.2 -0.53,0.3 -0.91,0.3 -0.26,0 -0.5,-0.07 -0.7,-0.2 -0.2,-0.13 -0.36,-0.32 -0.47,-0.56 -0.11,-0.24 -0.17,-0.52 -0.17,-0.83 v -0.46 c 0,-0.32 0.05,-0.6 0.17,-0.84 0.11,-0.24 0.27,-0.43 0.48,-0.56 0.21,-0.13 0.45,-0.2 0.72,-0.2 0.38,0 0.68,0.1 0.9,0.31 0.22,0.21 0.35,0.49 0.38,0.85 h -0.3 c -0.08,-0.6 -0.4,-0.91 -0.98,-0.91 -0.32,0 -0.58,0.12 -0.77,0.36 -0.19,0.24 -0.29,0.57 -0.29,1 v 0.44 c 0,0.41 0.09,0.74 0.28,0.98 0.19,0.24 0.44,0.37 0.76,0.37 0.31,0 0.55,-0.08 0.71,-0.23 0.16,-0.15 0.26,-0.38 0.3,-0.68 z"
   id="path1418" />
		<path
   fill="#ffffff"
   d="m 5486.87,172.91 h -1.22 v 3.3 h -0.3 v -3.3 h -1.22 v -0.25 h 2.73 v 0.25 z"
   id="path1420" />
		<path
   fill="#ffffff"
   d="m 5491.59,174.62 c 0,0.33 -0.06,0.61 -0.17,0.86 -0.11,0.25 -0.27,0.44 -0.48,0.57 -0.21,0.13 -0.45,0.2 -0.73,0.2 -0.42,0 -0.75,-0.15 -1.01,-0.45 -0.26,-0.3 -0.38,-0.7 -0.38,-1.2 v -0.37 c 0,-0.32 0.06,-0.61 0.17,-0.86 0.11,-0.25 0.28,-0.44 0.49,-0.58 0.21,-0.13 0.45,-0.2 0.72,-0.2 0.27,0 0.51,0.07 0.72,0.2 0.21,0.13 0.37,0.32 0.49,0.56 0.11,0.24 0.17,0.52 0.18,0.84 z m -0.3,-0.38 c 0,-0.43 -0.1,-0.76 -0.29,-1.01 -0.19,-0.25 -0.46,-0.36 -0.8,-0.36 -0.33,0 -0.59,0.12 -0.79,0.37 -0.2,0.24 -0.29,0.58 -0.29,1.02 v 0.37 c 0,0.42 0.1,0.76 0.29,1 0.2,0.25 0.46,0.37 0.8,0.37 0.34,0 0.61,-0.12 0.8,-0.36 0.19,-0.24 0.29,-0.58 0.29,-1.02 v -0.38 z"
   id="path1422" />
		<path
   fill="#ffffff"
   d="m 5495.19,176.21 h -0.3 l -2.04,-3.04 v 3.04 h -0.3 v -3.55 h 0.3 l 2.05,3.04 v -3.04 h 0.3 v 3.55 z"
   id="path1424" />
		<path
   fill="#ffffff"
   d="m 5498.78,175.77 0.02,0.08 0.02,-0.08 1.12,-3.12 h 0.33 l -1.32,3.55 h -0.29 l -1.32,-3.55 h 0.33 z"
   id="path1426" />
		<path
   fill="#ffffff"
   d="m 5502.95,174.5 h -1.66 v 1.45 h 1.91 v 0.25 h -2.21 v -3.55 h 2.2 v 0.25 h -1.9 v 1.34 h 1.66 z"
   id="path1428" />
		<path
   fill="#ffffff"
   d="m 5506.6,175.78 c -0.1,0.15 -0.27,0.26 -0.49,0.35 -0.22,0.08 -0.47,0.12 -0.75,0.12 -0.28,0 -0.53,-0.07 -0.74,-0.2 -0.22,-0.13 -0.38,-0.32 -0.5,-0.57 -0.12,-0.24 -0.18,-0.52 -0.18,-0.84 v -0.45 c 0,-0.49 0.12,-0.88 0.37,-1.17 0.25,-0.29 0.58,-0.43 1,-0.43 0.37,0 0.66,0.09 0.88,0.28 0.22,0.19 0.36,0.44 0.4,0.77 h -0.3 c -0.04,-0.26 -0.15,-0.46 -0.32,-0.59 -0.17,-0.13 -0.39,-0.2 -0.66,-0.2 -0.33,0 -0.59,0.12 -0.79,0.35 -0.19,0.24 -0.29,0.57 -0.29,1 v 0.42 c 0,0.27 0.05,0.51 0.14,0.72 0.09,0.21 0.22,0.37 0.4,0.48 0.17,0.11 0.37,0.17 0.59,0.17 0.26,0 0.48,-0.04 0.67,-0.12 0.12,-0.05 0.21,-0.12 0.27,-0.19 v -0.92 h -0.96 v -0.25 h 1.26 z"
   id="path1430" />
		<path
   fill="#ffffff"
   d="m 5509.62,174.5 h -1.66 v 1.45 h 1.91 v 0.25 h -2.21 v -3.55 h 2.2 v 0.25 h -1.9 v 1.34 h 1.66 z"
   id="path1432" />
		<path
   fill="#ffffff"
   d="m 5513.16,172.91 h -1.22 v 3.3 h -0.3 v -3.3 h -1.22 v -0.25 h 2.73 v 0.25 z"
   id="path1434" />
		<path
   fill="#ffffff"
   d="m 5515.66,175.21 h -1.61 l -0.37,1 h -0.32 l 1.34,-3.55 h 0.29 l 1.34,3.55 h -0.31 z m -1.52,-0.26 h 1.43 l -0.71,-1.94 z"
   id="path1436" />
		<path
   fill="#ffffff"
   d="m 5519.16,172.91 h -1.22 v 3.3 h -0.3 v -3.3 h -1.22 v -0.25 h 2.73 v 0.25 z"
   id="path1438" />
		<path
   fill="#ffffff"
   d="m 5520.3,176.21 h -0.3 v -3.55 h 0.3 z"
   id="path1440" />
		<path
   fill="#ffffff"
   d="m 5524.09,174.62 c 0,0.33 -0.06,0.61 -0.17,0.86 -0.11,0.25 -0.27,0.44 -0.48,0.57 -0.21,0.13 -0.45,0.2 -0.73,0.2 -0.42,0 -0.75,-0.15 -1.01,-0.45 -0.26,-0.3 -0.38,-0.7 -0.38,-1.2 v -0.37 c 0,-0.32 0.06,-0.61 0.17,-0.86 0.11,-0.25 0.28,-0.44 0.49,-0.58 0.21,-0.13 0.45,-0.2 0.72,-0.2 0.27,0 0.51,0.07 0.72,0.2 0.21,0.13 0.37,0.32 0.49,0.56 0.11,0.24 0.17,0.52 0.18,0.84 z m -0.3,-0.38 c 0,-0.43 -0.1,-0.76 -0.29,-1.01 -0.19,-0.25 -0.46,-0.36 -0.8,-0.36 -0.33,0 -0.59,0.12 -0.79,0.37 -0.2,0.24 -0.29,0.58 -0.29,1.02 v 0.37 c 0,0.42 0.1,0.76 0.29,1 0.2,0.25 0.46,0.37 0.8,0.37 0.34,0 0.61,-0.12 0.8,-0.36 0.19,-0.24 0.29,-0.58 0.29,-1.02 v -0.38 z"
   id="path1442" />
		<path
   fill="#ffffff"
   d="m 5527.69,176.21 h -0.3 l -2.04,-3.04 v 3.04 h -0.3 v -3.55 h 0.3 l 2.05,3.04 v -3.04 h 0.3 v 3.55 z"
   id="path1444" />
		<path
   fill="#ffffff"
   d="m 5532.13,175.21 h -1.61 l -0.37,1 h -0.32 l 1.34,-3.55 h 0.29 l 1.34,3.55 h -0.31 z m -1.52,-0.26 h 1.43 l -0.71,-1.94 z"
   id="path1446" />
		<path
   fill="#ffffff"
   d="m 5536.18,176.21 h -0.3 l -2.04,-3.04 v 3.04 h -0.3 v -3.55 h 0.3 l 2.05,3.04 v -3.04 h 0.3 v 3.55 z"
   id="path1448" />
		<path
   fill="#ffffff"
   d="m 5537.29,176.21 v -3.55 h 0.99 c 0.29,0 0.55,0.07 0.78,0.2 0.23,0.13 0.41,0.32 0.54,0.57 0.13,0.25 0.19,0.53 0.19,0.84 v 0.33 c 0,0.32 -0.06,0.6 -0.19,0.84 -0.13,0.24 -0.31,0.44 -0.54,0.57 -0.23,0.13 -0.5,0.2 -0.8,0.2 z m 0.3,-3.3 v 3.05 h 0.67 c 0.37,0 0.67,-0.12 0.9,-0.37 0.23,-0.25 0.34,-0.58 0.34,-1.01 v -0.31 c 0,-0.41 -0.11,-0.74 -0.33,-0.98 -0.22,-0.25 -0.52,-0.37 -0.88,-0.37 h -0.7 z"
   id="path1450" />
		<path
   fill="#ffffff"
   d="m 5460.26,182.25 0.11,0.55 0.13,-0.53 0.77,-2.62 h 0.27 l 0.76,2.62 0.13,0.53 0.12,-0.56 0.64,-2.6 h 0.31 l -0.91,3.55 h -0.29 l -0.81,-2.78 -0.09,-0.35 -0.09,0.35 -0.82,2.78 h -0.29 l -0.91,-3.55 h 0.31 z"
   id="path1452" />
		<path
   fill="#ffffff"
   d="m 5466.1,182.21 h -1.61 l -0.37,1 h -0.32 l 1.34,-3.55 h 0.29 l 1.34,3.55 h -0.31 z m -1.52,-0.26 h 1.43 l -0.71,-1.94 z"
   id="path1454" />
		<path
   fill="#ffffff"
   d="m 5469.6,179.91 h -1.22 v 3.3 h -0.3 v -3.3 h -1.22 v -0.25 h 2.73 v 0.25 z"
   id="path1456" />
		<path
   fill="#ffffff"
   d="m 5472.33,181.5 h -1.66 v 1.45 h 1.91 v 0.25 h -2.21 v -3.55 h 2.2 v 0.25 h -1.9 v 1.34 h 1.66 z"
   id="path1458" />
		<path
   fill="#ffffff"
   d="m 5474.74,181.72 h -1.03 v 1.48 h -0.3 v -3.55 h 1.16 c 0.38,0 0.68,0.09 0.89,0.28 0.21,0.18 0.32,0.44 0.32,0.77 0,0.23 -0.07,0.43 -0.2,0.6 -0.13,0.17 -0.31,0.29 -0.54,0.36 l 0.89,1.51 v 0.03 h -0.32 z m -1.03,-0.25 h 0.92 c 0.25,0 0.46,-0.07 0.61,-0.22 0.15,-0.14 0.23,-0.33 0.23,-0.56 0,-0.25 -0.08,-0.45 -0.24,-0.58 -0.16,-0.14 -0.38,-0.21 -0.67,-0.21 h -0.85 z"
   id="path1460" />
		<path
   fill="#ffffff"
   d="m 5478.2,183.21 v -3.55 h 1.05 c 0.38,0 0.67,0.08 0.87,0.24 0.2,0.16 0.3,0.39 0.3,0.69 0,0.18 -0.05,0.34 -0.15,0.48 -0.1,0.14 -0.24,0.23 -0.41,0.29 0.21,0.05 0.37,0.15 0.5,0.31 0.13,0.16 0.19,0.34 0.19,0.55 0,0.31 -0.1,0.56 -0.3,0.74 -0.2,0.18 -0.48,0.26 -0.85,0.26 h -1.2 z m 0.3,-1.96 h 0.82 c 0.25,0 0.44,-0.06 0.58,-0.18 0.14,-0.12 0.21,-0.28 0.21,-0.5 0,-0.23 -0.07,-0.4 -0.21,-0.51 -0.14,-0.11 -0.36,-0.16 -0.65,-0.16 h -0.75 z m 0,0.25 v 1.45 h 0.9 c 0.26,0 0.46,-0.07 0.61,-0.2 0.15,-0.13 0.23,-0.31 0.23,-0.54 0,-0.22 -0.07,-0.39 -0.22,-0.52 -0.14,-0.13 -0.34,-0.19 -0.6,-0.19 z"
   id="path1462" />
		<path
   fill="#ffffff"
   d="m 5484.09,181.62 c 0,0.33 -0.06,0.61 -0.17,0.86 -0.11,0.25 -0.27,0.44 -0.48,0.57 -0.21,0.13 -0.45,0.2 -0.73,0.2 -0.42,0 -0.75,-0.15 -1.01,-0.45 -0.26,-0.3 -0.38,-0.7 -0.38,-1.2 v -0.37 c 0,-0.32 0.06,-0.61 0.17,-0.86 0.11,-0.25 0.28,-0.44 0.49,-0.58 0.21,-0.13 0.45,-0.2 0.72,-0.2 0.27,0 0.51,0.07 0.72,0.2 0.21,0.13 0.37,0.32 0.49,0.56 0.11,0.24 0.17,0.52 0.18,0.84 z m -0.3,-0.38 c 0,-0.43 -0.1,-0.76 -0.29,-1.01 -0.19,-0.25 -0.46,-0.36 -0.8,-0.36 -0.33,0 -0.59,0.12 -0.79,0.37 -0.2,0.24 -0.29,0.58 -0.29,1.02 v 0.37 c 0,0.42 0.1,0.76 0.29,1 0.2,0.25 0.46,0.37 0.8,0.37 0.34,0 0.61,-0.12 0.8,-0.36 0.19,-0.24 0.29,-0.58 0.29,-1.02 v -0.38 z"
   id="path1464" />
		<path
   fill="#ffffff"
   d="m 5485.05,183.21 v -3.55 h 0.99 c 0.29,0 0.55,0.07 0.78,0.2 0.23,0.13 0.41,0.32 0.54,0.57 0.13,0.25 0.19,0.53 0.19,0.84 v 0.33 c 0,0.32 -0.06,0.6 -0.19,0.84 -0.13,0.24 -0.31,0.44 -0.54,0.57 -0.23,0.13 -0.5,0.2 -0.8,0.2 z m 0.3,-3.3 v 3.05 h 0.67 c 0.37,0 0.67,-0.12 0.9,-0.37 0.23,-0.25 0.34,-0.58 0.34,-1.01 v -0.31 c 0,-0.41 -0.11,-0.74 -0.33,-0.98 -0.22,-0.25 -0.52,-0.37 -0.88,-0.37 h -0.7 z"
   id="path1466" />
		<path
   fill="#ffffff"
   d="m 5488.89,183.21 h -0.3 v -3.55 h 0.3 z"
   id="path1468" />
		<path
   fill="#ffffff"
   d="m 5492.02,181.5 h -1.66 v 1.45 h 1.91 v 0.25 h -2.21 v -3.55 h 2.2 v 0.25 h -1.9 v 1.34 h 1.66 z"
   id="path1470" />
		<path
   fill="#ffffff"
   d="m 5495.11,182.33 c 0,-0.2 -0.07,-0.35 -0.21,-0.47 -0.14,-0.11 -0.39,-0.22 -0.76,-0.33 -0.37,-0.1 -0.64,-0.22 -0.81,-0.34 -0.24,-0.17 -0.36,-0.4 -0.36,-0.68 0,-0.27 0.11,-0.49 0.34,-0.66 0.22,-0.17 0.51,-0.25 0.86,-0.25 0.24,0 0.45,0.05 0.63,0.14 0.18,0.09 0.33,0.22 0.43,0.38 0.1,0.16 0.15,0.34 0.15,0.54 h -0.3 c 0,-0.24 -0.08,-0.44 -0.25,-0.59 -0.17,-0.15 -0.39,-0.22 -0.67,-0.22 -0.27,0 -0.49,0.06 -0.65,0.18 -0.16,0.12 -0.24,0.28 -0.24,0.48 0,0.18 0.07,0.33 0.22,0.44 0.14,0.11 0.38,0.21 0.7,0.3 0.32,0.09 0.56,0.18 0.72,0.27 0.17,0.09 0.29,0.21 0.37,0.34 0.08,0.13 0.12,0.28 0.12,0.46 0,0.28 -0.11,0.5 -0.34,0.67 -0.23,0.17 -0.52,0.25 -0.88,0.25 -0.25,0 -0.48,-0.04 -0.69,-0.13 -0.21,-0.09 -0.37,-0.21 -0.48,-0.38 -0.11,-0.17 -0.16,-0.35 -0.16,-0.55 h 0.3 c 0,0.25 0.09,0.45 0.28,0.59 0.19,0.14 0.44,0.22 0.75,0.22 0.28,0 0.5,-0.06 0.67,-0.18 0.18,-0.11 0.26,-0.28 0.26,-0.48 z"
   id="path1472" />
		<path
   fill="#ffffff"
   d="m 5496.13,183.87 -0.17,-0.13 c 0.15,-0.2 0.22,-0.4 0.23,-0.62 v -0.38 h 0.29 v 0.31 c -0.01,0.34 -0.12,0.61 -0.35,0.82 z"
   id="path1474" />
		<path
   fill="#ffffff"
   d="m 5498.83,183.21 v -3.55 h 1.05 c 0.38,0 0.67,0.08 0.87,0.24 0.2,0.16 0.3,0.39 0.3,0.69 0,0.18 -0.05,0.34 -0.15,0.48 -0.1,0.14 -0.24,0.23 -0.41,0.29 0.21,0.05 0.37,0.15 0.5,0.31 0.13,0.16 0.19,0.34 0.19,0.55 0,0.31 -0.1,0.56 -0.3,0.74 -0.2,0.18 -0.48,0.26 -0.85,0.26 h -1.2 z m 0.3,-1.96 h 0.82 c 0.25,0 0.44,-0.06 0.58,-0.18 0.14,-0.12 0.21,-0.28 0.21,-0.5 0,-0.23 -0.07,-0.4 -0.21,-0.51 -0.14,-0.11 -0.36,-0.16 -0.65,-0.16 h -0.75 z m 0,0.25 v 1.45 h 0.9 c 0.26,0 0.46,-0.07 0.61,-0.2 0.15,-0.13 0.23,-0.31 0.23,-0.54 0,-0.22 -0.07,-0.39 -0.22,-0.52 -0.14,-0.13 -0.34,-0.19 -0.6,-0.19 z"
   id="path1476" />
		<path
   fill="#ffffff"
   d="m 5504.02,182.21 h -1.61 l -0.37,1 h -0.32 l 1.34,-3.55 h 0.29 l 1.34,3.55 h -0.31 z m -1.52,-0.26 h 1.43 l -0.71,-1.94 z"
   id="path1478" />
		<path
   fill="#ffffff"
   d="m 5508.07,183.21 h -0.3 l -2.04,-3.04 v 3.04 h -0.3 v -3.55 h 0.3 l 2.05,3.04 v -3.04 h 0.3 v 3.55 z"
   id="path1480" />
		<path
   fill="#ffffff"
   d="m 5511.74,182.78 c -0.1,0.15 -0.27,0.26 -0.49,0.35 -0.22,0.08 -0.47,0.12 -0.75,0.12 -0.28,0 -0.53,-0.07 -0.74,-0.2 -0.22,-0.13 -0.38,-0.32 -0.5,-0.57 -0.12,-0.24 -0.18,-0.52 -0.18,-0.84 v -0.45 c 0,-0.49 0.12,-0.88 0.37,-1.17 0.25,-0.29 0.58,-0.43 1,-0.43 0.37,0 0.66,0.09 0.88,0.28 0.22,0.19 0.36,0.44 0.4,0.77 h -0.3 c -0.04,-0.26 -0.15,-0.46 -0.32,-0.59 -0.17,-0.13 -0.39,-0.2 -0.66,-0.2 -0.33,0 -0.59,0.12 -0.79,0.35 -0.19,0.24 -0.29,0.57 -0.29,1 v 0.42 c 0,0.27 0.05,0.51 0.14,0.72 0.09,0.21 0.22,0.37 0.4,0.48 0.17,0.11 0.37,0.17 0.59,0.17 0.26,0 0.48,-0.04 0.67,-0.12 0.12,-0.05 0.21,-0.12 0.27,-0.19 v -0.92 h -0.96 v -0.25 h 1.26 z"
   id="path1482" />
		<path
   fill="#ffffff"
   d="m 5514.71,182.21 h -1.61 l -0.37,1 h -0.32 l 1.34,-3.55 h 0.29 l 1.34,3.55 h -0.31 z m -1.52,-0.26 h 1.43 l -0.71,-1.94 z"
   id="path1484" />
		<path
   fill="#ffffff"
   d="m 5516.41,182.95 h 1.76 v 0.25 h -2.06 v -3.55 h 0.3 z"
   id="path1486" />
		<path
   fill="#ffffff"
   d="m 5521.41,181.62 c 0,0.33 -0.06,0.61 -0.17,0.86 -0.11,0.25 -0.27,0.44 -0.48,0.57 -0.21,0.13 -0.45,0.2 -0.73,0.2 -0.42,0 -0.75,-0.15 -1.01,-0.45 -0.26,-0.3 -0.38,-0.7 -0.38,-1.2 v -0.37 c 0,-0.32 0.06,-0.61 0.17,-0.86 0.11,-0.25 0.28,-0.44 0.49,-0.58 0.21,-0.13 0.45,-0.2 0.72,-0.2 0.27,0 0.51,0.07 0.72,0.2 0.21,0.13 0.37,0.32 0.49,0.56 0.11,0.24 0.17,0.52 0.18,0.84 z m -0.3,-0.38 c 0,-0.43 -0.1,-0.76 -0.29,-1.01 -0.19,-0.25 -0.46,-0.36 -0.8,-0.36 -0.33,0 -0.59,0.12 -0.79,0.37 -0.2,0.24 -0.29,0.58 -0.29,1.02 v 0.37 c 0,0.42 0.1,0.76 0.29,1 0.2,0.25 0.46,0.37 0.8,0.37 0.34,0 0.61,-0.12 0.8,-0.36 0.19,-0.24 0.29,-0.58 0.29,-1.02 v -0.38 z"
   id="path1488" />
		<path
   fill="#ffffff"
   d="m 5523.7,181.72 h -1.03 v 1.48 h -0.3 v -3.55 h 1.16 c 0.38,0 0.68,0.09 0.89,0.28 0.21,0.18 0.32,0.44 0.32,0.77 0,0.23 -0.07,0.43 -0.2,0.6 -0.13,0.17 -0.31,0.29 -0.54,0.36 l 0.89,1.51 v 0.03 h -0.32 z m -1.04,-0.25 h 0.92 c 0.25,0 0.46,-0.07 0.61,-0.22 0.15,-0.14 0.23,-0.33 0.23,-0.56 0,-0.25 -0.08,-0.45 -0.24,-0.58 -0.16,-0.14 -0.38,-0.21 -0.67,-0.21 h -0.85 z"
   id="path1490" />
		<path
   fill="#ffffff"
   d="m 5527.71,181.5 h -1.66 v 1.45 h 1.91 v 0.25 h -2.21 v -3.55 h 2.2 v 0.25 h -1.9 v 1.34 h 1.66 z"
   id="path1492" />
		<path
   fill="#ffffff"
   d="m 5528.69,183.03 c 0,-0.06 0.02,-0.11 0.06,-0.15 0.04,-0.04 0.09,-0.06 0.15,-0.06 0.06,0 0.12,0.02 0.15,0.06 0.04,0.04 0.06,0.09 0.06,0.15 0,0.06 -0.02,0.1 -0.06,0.14 -0.04,0.04 -0.09,0.05 -0.15,0.05 -0.06,0 -0.12,-0.02 -0.15,-0.05 -0.04,-0.04 -0.06,-0.08 -0.06,-0.14 z"
   id="path1494" />
		<path
   fill="#ffffff"
   d="m 5532.64,181.59 1.09,-1.94 h 0.35 l -1.28,2.22 v 1.34 h -0.3 v -1.34 l -1.28,-2.22 h 0.36 z"
   id="path1496" />
		<path
   fill="#ffffff"
   d="m 5536.75,181.5 h -1.66 v 1.45 h 1.91 v 0.25 h -2.21 v -3.55 h 2.2 v 0.25 h -1.9 v 1.34 h 1.66 z"
   id="path1498" />
		<path
   fill="#ffffff"
   d="m 5539.75,182.21 h -1.61 l -0.37,1 h -0.32 l 1.34,-3.55 h 0.29 l 1.34,3.55 h -0.31 z m -1.52,-0.26 h 1.43 l -0.71,-1.94 z"
   id="path1500" />
		<path
   fill="#ffffff"
   d="m 5542.49,181.72 h -1.03 v 1.48 h -0.3 v -3.55 h 1.16 c 0.38,0 0.68,0.09 0.89,0.28 0.21,0.18 0.32,0.44 0.32,0.77 0,0.23 -0.07,0.43 -0.2,0.6 -0.13,0.17 -0.31,0.29 -0.54,0.36 l 0.89,1.51 v 0.03 h -0.32 z m -1.04,-0.25 h 0.92 c 0.25,0 0.46,-0.07 0.61,-0.22 0.15,-0.14 0.23,-0.33 0.23,-0.56 0,-0.25 -0.08,-0.45 -0.24,-0.58 -0.16,-0.14 -0.38,-0.21 -0.67,-0.21 h -0.85 z"
   id="path1502" />
		<path
   fill="#ffffff"
   d="m 5548.06,183.21 h -2.23 v -0.22 l 1.22,-1.38 c 0.2,-0.23 0.34,-0.42 0.42,-0.58 0.08,-0.16 0.12,-0.3 0.12,-0.44 0,-0.22 -0.07,-0.4 -0.2,-0.53 -0.13,-0.13 -0.31,-0.2 -0.54,-0.2 -0.24,0 -0.43,0.08 -0.58,0.23 -0.15,0.15 -0.22,0.35 -0.22,0.6 h -0.29 c 0,-0.2 0.05,-0.38 0.14,-0.55 0.09,-0.16 0.22,-0.29 0.39,-0.39 0.17,-0.09 0.36,-0.14 0.57,-0.14 0.33,0 0.58,0.09 0.76,0.26 0.18,0.17 0.27,0.4 0.27,0.7 0,0.17 -0.05,0.35 -0.15,0.54 -0.1,0.19 -0.29,0.44 -0.55,0.74 l -0.99,1.12 h 1.87 v 0.24 z"
   id="path1504" />
		<path
   fill="#ffffff"
   d="m 5550.95,181.72 c 0,0.5 -0.09,0.88 -0.28,1.14 -0.18,0.26 -0.46,0.39 -0.81,0.39 -0.35,0 -0.62,-0.13 -0.81,-0.38 -0.19,-0.25 -0.28,-0.63 -0.29,-1.11 v -0.64 c 0,-0.5 0.09,-0.88 0.28,-1.14 0.19,-0.26 0.46,-0.39 0.81,-0.39 0.35,0 0.62,0.12 0.8,0.37 0.19,0.25 0.28,0.61 0.29,1.1 v 0.66 z m -0.3,-0.63 c 0,-0.41 -0.07,-0.71 -0.2,-0.92 -0.13,-0.21 -0.33,-0.31 -0.6,-0.31 -0.26,0 -0.46,0.1 -0.6,0.31 -0.13,0.2 -0.2,0.5 -0.21,0.9 v 0.7 c 0,0.41 0.07,0.72 0.21,0.93 0.14,0.21 0.34,0.32 0.6,0.32 0.26,0 0.46,-0.1 0.59,-0.31 0.13,-0.21 0.2,-0.52 0.2,-0.92 v -0.7 z"
   id="path1506" />
		<path
   fill="#ffffff"
   d="m 5553.92,181.72 c 0,0.5 -0.09,0.88 -0.28,1.14 -0.18,0.26 -0.46,0.39 -0.81,0.39 -0.35,0 -0.62,-0.13 -0.81,-0.38 -0.19,-0.25 -0.28,-0.63 -0.29,-1.11 v -0.64 c 0,-0.5 0.09,-0.88 0.28,-1.14 0.19,-0.26 0.46,-0.39 0.81,-0.39 0.35,0 0.62,0.12 0.8,0.37 0.19,0.25 0.28,0.61 0.29,1.1 v 0.66 z m -0.29,-0.63 c 0,-0.41 -0.07,-0.71 -0.2,-0.92 -0.13,-0.21 -0.33,-0.31 -0.6,-0.31 -0.26,0 -0.46,0.1 -0.6,0.31 -0.13,0.2 -0.2,0.5 -0.21,0.9 v 0.7 c 0,0.41 0.07,0.72 0.21,0.93 0.14,0.21 0.34,0.32 0.6,0.32 0.26,0 0.46,-0.1 0.59,-0.31 0.13,-0.21 0.2,-0.52 0.2,-0.92 v -0.7 z"
   id="path1508" />
		<path
   fill="#ffffff"
   d="m 5556.57,181.56 c -0.1,0.15 -0.23,0.27 -0.39,0.36 -0.15,0.08 -0.32,0.13 -0.5,0.13 -0.2,0 -0.38,-0.05 -0.54,-0.16 -0.16,-0.11 -0.27,-0.25 -0.36,-0.43 -0.08,-0.18 -0.13,-0.38 -0.13,-0.6 0,-0.23 0.05,-0.45 0.14,-0.64 0.09,-0.19 0.22,-0.34 0.38,-0.45 0.16,-0.11 0.35,-0.16 0.56,-0.16 0.36,0 0.63,0.12 0.83,0.38 0.2,0.25 0.3,0.6 0.3,1.06 v 0.26 c 0,0.64 -0.14,1.12 -0.41,1.45 -0.27,0.33 -0.69,0.48 -1.25,0.48 h -0.05 v -0.25 h 0.1 c 0.42,-0.01 0.75,-0.13 0.97,-0.36 0.22,-0.25 0.34,-0.6 0.35,-1.07 z m -0.86,0.23 c 0.2,0 0.37,-0.06 0.53,-0.17 0.16,-0.12 0.27,-0.27 0.33,-0.45 V 181 c 0,-0.36 -0.08,-0.64 -0.23,-0.84 -0.15,-0.2 -0.35,-0.3 -0.61,-0.3 -0.23,0 -0.42,0.09 -0.57,0.28 -0.15,0.19 -0.22,0.42 -0.22,0.7 0,0.27 0.07,0.5 0.21,0.68 0.14,0.18 0.34,0.27 0.56,0.27 z"
   id="path1510" />
	</g>
</g>
<line
   fill="none"
   stroke="#ffffff"
   stroke-width="0.608"
   stroke-linecap="round"
   stroke-linejoin="round"
   stroke-miterlimit="10"
   x1="5648.1177"
   y1="207.75999"
   x2="5654.8877"
   y2="207.75999"
   id="line1516" />
</svg>
