<?xml version="1.0" encoding="utf-8"?>
<!-- Generator: Adobe Illustrator 23.0.1, SVG Export Plug-In . SVG Version: 6.00 Build 0)  -->
<svg version="1.1" id="Baseline" xmlns="http://www.w3.org/2000/svg" xmlns:xlink="http://www.w3.org/1999/xlink" x="0px" y="0px"
	 width="9451.5px" height="623.5px" viewBox="0 0 9451.5 623.5" style="enable-background:new 0 0 9451.5 623.5;"
	 xml:space="preserve">
<style type="text/css">
	.st0{opacity:1.000000e-02;stroke:#010101;stroke-miterlimit:10;enable-background:new    ;}
	.st1{opacity:1.000000e-02;stroke:#010101;stroke-miterlimit:10;}
</style>
<polygon class="st0" points="5400.5,134.2 5400.5,157.7 5402.5,157.7 5402.5,154.1 5405.5,154.2 5405.5,134.2 5409.2,134.2 
	5409.2,139.8 5414.3,139.8 5414.3,134.2 5417.4,134.2 5417.4,148.4 5419.9,148.4 5419.9,187.7 5422.3,187.7 5422.3,134.2 
	5428.3,134.2 5428.3,148.1 5431.6,148.1 5431.6,134.2 5434.8,134.2 5434.8,151.9 5437.3,151.9 5437.4,245.7 5440.5,245.7 
	5440.5,134.2 5443.5,134.2 5443.5,148.7 5445.9,148.7 5445.9,180.2 5448.8,180.2 5448.8,134.2 5452.3,134.2 5452.3,146.2 
	5454.7,146.2 5454.7,182.1 5457.4,182.1 5457.4,134.2 5461.1,134.2 5461.1,154.8 5463.4,154.8 5463.4,159.2 5466.3,159.1 
	5466.3,134.2 5469.7,134.2 5469.7,150.7 5472.6,150.7 5472.6,148.6 5474.9,148.6 5474.9,134.2 5478.4,134.2 5478.4,149.2 
	5481.3,149.2 5481.3,142.5 5483.8,142.4 5483.8,134.2 5487,134.2 5487,147.1 5492.5,147.1 5492.5,134.2 5495.7,134.2 5495.7,139 
	5498.1,138.9 5498.1,150.3 5501.2,150.3 5501.2,134.2 5504.5,134.2 5504.5,146.2 5506.8,146.2 5506.8,187.9 5509.7,187.9 
	5509.7,134.2 5513.3,134.2 5513.3,147.5 5515.6,147.5 5515.6,167.2 5518.6,167.1 5518.6,134.2 5521.7,134.2 5521.7,141.4 
	5524.2,141.4 5524.2,218.2 5526.7,218.2 5527.6,218.2 5527.6,134.2 5530.5,134.2 5530.5,142.2 5532.9,142.2 5532.9,206.7 
	5536.2,206.7 5536.2,134.2 5539,134.2 5539,143.4 5541.7,143.4 5541.7,158.5 5544.8,158.5 5544.8,134.2 5547.8,134.2 5547.8,139.3 
	5550.4,139.3 5550.4,145.6 5553.4,145.6 5553.4,134.2 "/>
<polygon class="st1" points="5555.3,134.2 5555.3,151.8 5559,151.8 5559,156.6 5561.9,156.6 5561.9,134.2 5565.1,134.2 5565.1,144 
	5567.7,144 5567.7,173.4 5570.6,173.4 5570.6,134.2 5574,134.2 5574,138.2 5576.4,138.2 5576.4,174.9 5579.4,174.9 5579.4,134.2 
	5582.6,134.2 5582.6,142.7 5585.1,142.6 5585.1,167.4 5588.4,167.4 5588.4,134.2 5591.2,134.2 5591.2,142.9 5593.8,142.7 
	5593.8,223.1 5596.8,223.1 5596.8,134.2 5602.2,134.2 5602.2,144 5605.9,144 5605.9,134.2 5608.5,134.2 5608.5,149.6 5611.2,149.6 
	5611.2,208.4 5614.2,208.4 5614.2,134.2 5617.2,134.2 5617.2,143.7 5619.9,143.6 5619.9,164.4 5623.2,164.4 5623.2,134.2 
	5625.9,134.2 5625.9,149.6 5629.1,149.6 5629.1,145.6 5632.2,145.5 5632.2,134.2 5634.2,134.2 5634.2,157.9 5638.8,157.9 
	5638.8,150.8 5641.2,150.7 5640.8,134.2 5643.2,134.2 5643.2,154.2 5647,154.2 5647,148.3 5649.6,148.3 5649.6,134.2 5652,134.2 
	5652,144 5654.7,144 5654.7,184.4 5658.1,184.4 5658.1,134.2 "/>
</svg>
