<?xml version="1.0" encoding="utf-8"?>
<!-- Generator: Adobe Illustrator 23.0.1, SVG Export Plug-In . SVG Version: 6.00 Build 0)  -->
<svg version="1.1" id="Baseline" xmlns="http://www.w3.org/2000/svg" xmlns:xlink="http://www.w3.org/1999/xlink" x="0px" y="0px"
	 width="9451.5px" height="623.5px" viewBox="0 0 9451.5 623.5" style="enable-background:new 0 0 9451.5 623.5;"
	 xml:space="preserve">
<style type="text/css">
	.st0{opacity:0.01;}
	.st1{fill:#020202;}
	.st2{fill:none;stroke:#000000;stroke-width:0.75;stroke-linecap:round;stroke-linejoin:round;stroke-miterlimit:10;}
	.st3{fill:none;stroke:#000000;stroke-miterlimit:10;}
	.st4{fill:none;stroke:#000000;stroke-width:0.5;stroke-miterlimit:10;}
</style>
<g class="st0">
	<g>
		<g>
			<polygon class="st1" points="5420.2,66 5414.1,65.1 5412.2,61.9 5411.6,62.1 5409.5,62.2 5405.9,61.4 5403.1,59.1 5400.5,53.4
				5399.5,53.4 5395.8,50.9 5395,48.9 5391.9,53.9 5388.4,58.3 5384.9,64 5379,65 5377.8,64 5376.7,64.8 5371.4,64.3 5368.2,60.9
				5367.6,60.5 5366.1,61.8 5359.6,59.7 5356,44.3 5352.4,27.7 5351.4,24.4 5349.4,29.7 5345.9,51.9 5342.3,55.2 5338.7,55.5
				5338.3,50.7 5338,50.6 5338.2,49.5 5338,47.6 5338.5,47.5 5341.6,28 5341.8,27.2 5345.4,17.6 5346.2,16.3 5349.8,12.4 5356.5,14
				5360.2,25.8 5363.8,42.6 5366.1,52.5 5369.1,52.2 5372.7,54.2 5373.6,55 5374.8,56.3 5375.6,55.7 5380.5,55.9 5382,53.6
				5385.4,49.1 5388.9,43.6 5392.5,37.9 5399.6,38.7 5402.3,45.4 5403.1,45.4 5406.8,47.8 5409.5,54 5410.1,54.1 5412.6,53.3
				5417.3,55 5418.4,56.8 5418.8,56.4 5422.9,53.7 5425.3,52.5 5428.3,46.2 5428.7,45.6 5432.3,40.8 5439.3,42 5442,50.2
				5442.7,50.2 5444.2,50.5 5447.8,51.9 5449.5,53.2 5452,56.5 5453.7,56.6 5453.3,64.6 5449.7,64.4 5446.7,62.8 5443.8,58.9
				5442,58.2 5439.1,58.2 5435.3,55.5 5434.3,52.3 5431.9,57.2 5430.1,59 5426.8,60.7 5423.6,62.9 			"/>
			<polygon class="st2" points="5420.2,66 5414.1,65.1 5412.2,61.9 5411.6,62.1 5409.5,62.2 5405.9,61.4 5403.1,59.1 5400.5,53.4
				5399.5,53.4 5395.8,50.9 5395,48.9 5391.9,53.9 5388.4,58.3 5384.9,64 5379,65 5377.8,64 5376.7,64.8 5371.4,64.3 5368.2,60.9
				5367.6,60.5 5366.1,61.8 5359.6,59.7 5356,44.3 5352.4,27.7 5351.4,24.4 5349.4,29.7 5345.9,51.9 5342.3,55.2 5338.7,55.5
				5338.3,50.7 5338,50.6 5338.2,49.5 5338,47.6 5338.5,47.5 5341.6,28 5341.8,27.2 5345.4,17.6 5346.2,16.3 5349.8,12.4 5356.5,14
				5360.2,25.8 5363.8,42.6 5366.1,52.5 5369.1,52.2 5372.7,54.2 5373.6,55 5374.8,56.3 5375.6,55.7 5380.5,55.9 5382,53.6
				5385.4,49.1 5388.9,43.6 5392.5,37.9 5399.6,38.7 5402.3,45.4 5403.1,45.4 5406.8,47.8 5409.5,54 5410.1,54.1 5412.6,53.3
				5417.3,55 5418.4,56.8 5418.8,56.4 5422.9,53.7 5425.3,52.5 5428.3,46.2 5428.7,45.6 5432.3,40.8 5439.3,42 5442,50.2
				5442.7,50.2 5444.2,50.5 5447.8,51.9 5449.5,53.2 5452,56.5 5453.7,56.6 5453.3,64.6 5449.7,64.4 5446.7,62.8 5443.8,58.9
				5442,58.2 5439.1,58.2 5435.3,55.5 5434.3,52.3 5431.9,57.2 5430.1,59 5426.8,60.7 5423.6,62.9 			"/>
		</g>
		<g>
			<path class="st1" d="M5338.3,56c-2.4,0-4.4-2-4.4-4.4s2-4.4,4.4-4.4c2.4,0,4.4,2,4.4,4.4S5340.8,56,5338.3,56z"/>
			<path class="st3" d="M5338.3,56c-2.4,0-4.4-2-4.4-4.4s2-4.4,4.4-4.4c2.4,0,4.4,2,4.4,4.4S5340.8,56,5338.3,56z"/>
		</g>
		<g>
			<path class="st1" d="M5338.3,56c-2.4,0-4.4-2-4.4-4.4s2-4.4,4.4-4.4c2.4,0,4.4,2,4.4,4.4S5340.8,56,5338.3,56z"/>
			<path class="st4" d="M5338.3,56c-2.4,0-4.4-2-4.4-4.4s2-4.4,4.4-4.4c2.4,0,4.4,2,4.4,4.4S5340.8,56,5338.3,56z"/>
		</g>
		<g>
			<circle class="st1" cx="5341.9" cy="51.3" r="4.4"/>
			<circle class="st3" cx="5341.9" cy="51.3" r="4.4"/>
		</g>
		<g>
			<circle class="st1" cx="5341.9" cy="51.3" r="4.4"/>
			<circle class="st4" cx="5341.9" cy="51.3" r="4.4"/>
		</g>
		<g>
			<path class="st1" d="M5345.5,33.1c-2.4,0-4.4-2-4.4-4.4c0-2.4,2-4.4,4.4-4.4c2.4,0,4.4,2,4.4,4.4
				C5350,31.1,5348,33.1,5345.5,33.1z"/>
			<path class="st3" d="M5345.5,33.1c-2.4,0-4.4-2-4.4-4.4c0-2.4,2-4.4,4.4-4.4c2.4,0,4.4,2,4.4,4.4
				C5350,31.1,5348,33.1,5345.5,33.1z"/>
		</g>
		<g>
			<path class="st1" d="M5345.5,33.1c-2.4,0-4.4-2-4.4-4.4c0-2.4,2-4.4,4.4-4.4c2.4,0,4.4,2,4.4,4.4
				C5350,31.1,5348,33.1,5345.5,33.1z"/>
			<path class="st4" d="M5345.5,33.1c-2.4,0-4.4-2-4.4-4.4c0-2.4,2-4.4,4.4-4.4c2.4,0,4.4,2,4.4,4.4
				C5350,31.1,5348,33.1,5345.5,33.1z"/>
		</g>
		<g>
			<circle class="st1" cx="5349.1" cy="19" r="4.4"/>
			<circle class="st3" cx="5349.1" cy="19" r="4.4"/>
		</g>
		<g>
			<circle class="st1" cx="5349.1" cy="19" r="4.4"/>
			<circle class="st4" cx="5349.1" cy="19" r="4.4"/>
		</g>
		<g>
			<path class="st1" d="M5352.7,19.6c-2.4,0-4.4-2-4.4-4.4c0-2.4,2-4.4,4.4-4.4c2.4,0,4.4,2,4.4,4.4
				C5357.2,17.6,5355.2,19.6,5352.7,19.6z"/>
			<path class="st3" d="M5352.7,19.6c-2.4,0-4.4-2-4.4-4.4c0-2.4,2-4.4,4.4-4.4c2.4,0,4.4,2,4.4,4.4
				C5357.2,17.6,5355.2,19.6,5352.7,19.6z"/>
		</g>
		<g>
			<path class="st1" d="M5352.7,19.6c-2.4,0-4.4-2-4.4-4.4c0-2.4,2-4.4,4.4-4.4c2.4,0,4.4,2,4.4,4.4
				C5357.2,17.6,5355.2,19.6,5352.7,19.6z"/>
			<path class="st4" d="M5352.7,19.6c-2.4,0-4.4-2-4.4-4.4c0-2.4,2-4.4,4.4-4.4c2.4,0,4.4,2,4.4,4.4
				C5357.2,17.6,5355.2,19.6,5352.7,19.6z"/>
		</g>
		<g>
			<path class="st1" d="M5356.3,31.1c-2.4,0-4.4-2-4.4-4.4c0-2.4,2-4.4,4.4-4.4c2.4,0,4.4,2,4.4,4.4
				C5360.8,29.1,5358.8,31.1,5356.3,31.1z"/>
			<path class="st3" d="M5356.3,31.1c-2.4,0-4.4-2-4.4-4.4c0-2.4,2-4.4,4.4-4.4c2.4,0,4.4,2,4.4,4.4
				C5360.8,29.1,5358.8,31.1,5356.3,31.1z"/>
		</g>
		<g>
			<path class="st1" d="M5356.3,31.1c-2.4,0-4.4-2-4.4-4.4c0-2.4,2-4.4,4.4-4.4c2.4,0,4.4,2,4.4,4.4
				C5360.8,29.1,5358.8,31.1,5356.3,31.1z"/>
			<path class="st4" d="M5356.3,31.1c-2.4,0-4.4-2-4.4-4.4c0-2.4,2-4.4,4.4-4.4c2.4,0,4.4,2,4.4,4.4
				C5360.8,29.1,5358.8,31.1,5356.3,31.1z"/>
		</g>
		<g>
			<path class="st1" d="M5359.9,47.8c-2.4,0-4.4-2-4.4-4.4c0-2.4,2-4.4,4.4-4.4s4.4,2,4.4,4.4C5364.4,45.8,5362.4,47.8,5359.9,47.8z
				"/>
			<path class="st3" d="M5359.9,47.8c-2.4,0-4.4-2-4.4-4.4c0-2.4,2-4.4,4.4-4.4s4.4,2,4.4,4.4C5364.4,45.8,5362.4,47.8,5359.9,47.8z
				"/>
		</g>
		<g>
			<path class="st1" d="M5359.9,47.8c-2.4,0-4.4-2-4.4-4.4c0-2.4,2-4.4,4.4-4.4s4.4,2,4.4,4.4C5364.4,45.8,5362.4,47.8,5359.9,47.8z
				"/>
			<path class="st4" d="M5359.9,47.8c-2.4,0-4.4-2-4.4-4.4c0-2.4,2-4.4,4.4-4.4s4.4,2,4.4,4.4C5364.4,45.8,5362.4,47.8,5359.9,47.8z
				"/>
		</g>
		<g>
			<path class="st1" d="M5363.5,63.2c-2.4,0-4.4-2-4.4-4.4c0-2.4,2-4.4,4.4-4.4c2.4,0,4.4,2,4.4,4.4
				C5368,61.2,5366,63.2,5363.5,63.2z"/>
			<path class="st3" d="M5363.5,63.2c-2.4,0-4.4-2-4.4-4.4c0-2.4,2-4.4,4.4-4.4c2.4,0,4.4,2,4.4,4.4
				C5368,61.2,5366,63.2,5363.5,63.2z"/>
		</g>
		<g>
			<path class="st1" d="M5363.5,63.2c-2.4,0-4.4-2-4.4-4.4c0-2.4,2-4.4,4.4-4.4c2.4,0,4.4,2,4.4,4.4
				C5368,61.2,5366,63.2,5363.5,63.2z"/>
			<path class="st4" d="M5363.5,63.2c-2.4,0-4.4-2-4.4-4.4c0-2.4,2-4.4,4.4-4.4c2.4,0,4.4,2,4.4,4.4
				C5368,61.2,5366,63.2,5363.5,63.2z"/>
		</g>
		<g>
			<path class="st1" d="M5367.1,60.1c-2.4,0-4.4-2-4.4-4.4c0-2.4,2-4.4,4.4-4.4s4.4,2,4.4,4.4C5371.5,58.1,5369.6,60.1,5367.1,60.1z
				"/>
			<path class="st3" d="M5367.1,60.1c-2.4,0-4.4-2-4.4-4.4c0-2.4,2-4.4,4.4-4.4s4.4,2,4.4,4.4C5371.5,58.1,5369.6,60.1,5367.1,60.1z
				"/>
		</g>
		<g>
			<path class="st1" d="M5367.1,60.1c-2.4,0-4.4-2-4.4-4.4c0-2.4,2-4.4,4.4-4.4s4.4,2,4.4,4.4C5371.5,58.1,5369.6,60.1,5367.1,60.1z
				"/>
			<path class="st4" d="M5367.1,60.1c-2.4,0-4.4-2-4.4-4.4c0-2.4,2-4.4,4.4-4.4s4.4,2,4.4,4.4C5371.5,58.1,5369.6,60.1,5367.1,60.1z
				"/>
		</g>
		<g>
			<path class="st1" d="M5370.7,62.1c-2.4,0-4.4-2-4.4-4.4s2-4.4,4.4-4.4c2.4,0,4.4,2,4.4,4.4S5373.2,62.1,5370.7,62.1z"/>
			<path class="st3" d="M5370.7,62.1c-2.4,0-4.4-2-4.4-4.4s2-4.4,4.4-4.4c2.4,0,4.4,2,4.4,4.4S5373.2,62.1,5370.7,62.1z"/>
		</g>
		<g>
			<path class="st1" d="M5370.7,62.1c-2.4,0-4.4-2-4.4-4.4s2-4.4,4.4-4.4c2.4,0,4.4,2,4.4,4.4S5373.2,62.1,5370.7,62.1z"/>
			<path class="st4" d="M5370.7,62.1c-2.4,0-4.4-2-4.4-4.4s2-4.4,4.4-4.4c2.4,0,4.4,2,4.4,4.4S5373.2,62.1,5370.7,62.1z"/>
		</g>
		<g>
			<path class="st1" d="M5374.3,66c-2.4,0-4.4-2-4.4-4.4c0-2.4,2-4.4,4.4-4.4c2.4,0,4.4,2,4.4,4.4C5378.8,64,5376.8,66,5374.3,66z"
				/>
			<path class="st3" d="M5374.3,66c-2.4,0-4.4-2-4.4-4.4c0-2.4,2-4.4,4.4-4.4c2.4,0,4.4,2,4.4,4.4C5378.8,64,5376.8,66,5374.3,66z"
				/>
		</g>
		<g>
			<path class="st1" d="M5374.3,66c-2.4,0-4.4-2-4.4-4.4c0-2.4,2-4.4,4.4-4.4c2.4,0,4.4,2,4.4,4.4C5378.8,64,5376.8,66,5374.3,66z"
				/>
			<path class="st4" d="M5374.3,66c-2.4,0-4.4-2-4.4-4.4c0-2.4,2-4.4,4.4-4.4c2.4,0,4.4,2,4.4,4.4C5378.8,64,5376.8,66,5374.3,66z"
				/>
		</g>
		<g>
			<path class="st1" d="M5377.9,63.4c-2.4,0-4.4-2-4.4-4.4c0-2.4,2-4.4,4.4-4.4s4.4,2,4.4,4.4C5382.4,61.4,5380.4,63.4,5377.9,63.4z
				"/>
			<path class="st3" d="M5377.9,63.4c-2.4,0-4.4-2-4.4-4.4c0-2.4,2-4.4,4.4-4.4s4.4,2,4.4,4.4C5382.4,61.4,5380.4,63.4,5377.9,63.4z
				"/>
		</g>
		<g>
			<path class="st1" d="M5377.9,63.4c-2.4,0-4.4-2-4.4-4.4c0-2.4,2-4.4,4.4-4.4s4.4,2,4.4,4.4C5382.4,61.4,5380.4,63.4,5377.9,63.4z
				"/>
			<path class="st4" d="M5377.9,63.4c-2.4,0-4.4-2-4.4-4.4c0-2.4,2-4.4,4.4-4.4s4.4,2,4.4,4.4C5382.4,61.4,5380.4,63.4,5377.9,63.4z
				"/>
		</g>
		<g>
			<path class="st1" d="M5381.5,66.3c-2.4,0-4.4-2-4.4-4.4c0-2.4,2-4.4,4.4-4.4c2.4,0,4.4,2,4.4,4.4
				C5386,64.4,5384,66.3,5381.5,66.3z"/>
			<path class="st3" d="M5381.5,66.3c-2.4,0-4.4-2-4.4-4.4c0-2.4,2-4.4,4.4-4.4c2.4,0,4.4,2,4.4,4.4
				C5386,64.4,5384,66.3,5381.5,66.3z"/>
		</g>
		<g>
			<path class="st1" d="M5381.5,66.3c-2.4,0-4.4-2-4.4-4.4c0-2.4,2-4.4,4.4-4.4c2.4,0,4.4,2,4.4,4.4
				C5386,64.4,5384,66.3,5381.5,66.3z"/>
			<path class="st4" d="M5381.5,66.3c-2.4,0-4.4-2-4.4-4.4c0-2.4,2-4.4,4.4-4.4c2.4,0,4.4,2,4.4,4.4
				C5386,64.4,5384,66.3,5381.5,66.3z"/>
		</g>
		<g>
			<path class="st1" d="M5385.1,60.5c-2.4,0-4.4-2-4.4-4.4c0-2.4,2-4.4,4.4-4.4s4.4,2,4.4,4.4C5389.5,58.5,5387.6,60.5,5385.1,60.5z
				"/>
			<path class="st3" d="M5385.1,60.5c-2.4,0-4.4-2-4.4-4.4c0-2.4,2-4.4,4.4-4.4s4.4,2,4.4,4.4C5389.5,58.5,5387.6,60.5,5385.1,60.5z
				"/>
		</g>
		<g>
			<path class="st1" d="M5385.1,60.5c-2.4,0-4.4-2-4.4-4.4c0-2.4,2-4.4,4.4-4.4s4.4,2,4.4,4.4C5389.5,58.5,5387.6,60.5,5385.1,60.5z
				"/>
			<path class="st4" d="M5385.1,60.5c-2.4,0-4.4-2-4.4-4.4c0-2.4,2-4.4,4.4-4.4s4.4,2,4.4,4.4C5389.5,58.5,5387.6,60.5,5385.1,60.5z
				"/>
		</g>
		<g>
			<path class="st1" d="M5388.7,55.8c-2.4,0-4.4-2-4.4-4.4c0-2.4,2-4.4,4.4-4.4c2.4,0,4.4,2,4.4,4.4
				C5393.2,53.8,5391.2,55.8,5388.7,55.8z"/>
			<path class="st3" d="M5388.7,55.8c-2.4,0-4.4-2-4.4-4.4c0-2.4,2-4.4,4.4-4.4c2.4,0,4.4,2,4.4,4.4
				C5393.2,53.8,5391.2,55.8,5388.7,55.8z"/>
		</g>
		<g>
			<path class="st1" d="M5388.7,55.8c-2.4,0-4.4-2-4.4-4.4c0-2.4,2-4.4,4.4-4.4c2.4,0,4.4,2,4.4,4.4
				C5393.2,53.8,5391.2,55.8,5388.7,55.8z"/>
			<path class="st4" d="M5388.7,55.8c-2.4,0-4.4-2-4.4-4.4c0-2.4,2-4.4,4.4-4.4c2.4,0,4.4,2,4.4,4.4
				C5393.2,53.8,5391.2,55.8,5388.7,55.8z"/>
		</g>
		<g>
			<path class="st1" d="M5392.3,50.1c-2.4,0-4.4-2-4.4-4.4c0-2.4,2-4.4,4.4-4.4c2.4,0,4.4,2,4.4,4.4
				C5396.8,48.1,5394.8,50.1,5392.3,50.1z"/>
			<path class="st3" d="M5392.3,50.1c-2.4,0-4.4-2-4.4-4.4c0-2.4,2-4.4,4.4-4.4c2.4,0,4.4,2,4.4,4.4
				C5396.8,48.1,5394.8,50.1,5392.3,50.1z"/>
		</g>
		<g>
			<path class="st1" d="M5392.3,50.1c-2.4,0-4.4-2-4.4-4.4c0-2.4,2-4.4,4.4-4.4c2.4,0,4.4,2,4.4,4.4
				C5396.8,48.1,5394.8,50.1,5392.3,50.1z"/>
			<path class="st4" d="M5392.3,50.1c-2.4,0-4.4-2-4.4-4.4c0-2.4,2-4.4,4.4-4.4c2.4,0,4.4,2,4.4,4.4
				C5396.8,48.1,5394.8,50.1,5392.3,50.1z"/>
		</g>
		<g>
			<path class="st1" d="M5395.9,44.5c-2.4,0-4.4-2-4.4-4.4c0-2.4,2-4.4,4.4-4.4s4.4,2,4.4,4.4C5400.4,42.6,5398.4,44.5,5395.9,44.5z
				"/>
			<path class="st3" d="M5395.9,44.5c-2.4,0-4.4-2-4.4-4.4c0-2.4,2-4.4,4.4-4.4s4.4,2,4.4,4.4C5400.4,42.6,5398.4,44.5,5395.9,44.5z
				"/>
		</g>
		<g>
			<path class="st1" d="M5395.9,44.5c-2.4,0-4.4-2-4.4-4.4c0-2.4,2-4.4,4.4-4.4s4.4,2,4.4,4.4C5400.4,42.6,5398.4,44.5,5395.9,44.5z
				"/>
			<path class="st4" d="M5395.9,44.5c-2.4,0-4.4-2-4.4-4.4c0-2.4,2-4.4,4.4-4.4s4.4,2,4.4,4.4C5400.4,42.6,5398.4,44.5,5395.9,44.5z
				"/>
		</g>
		<g>
			<path class="st1" d="M5399.5,53.9c-2.4,0-4.4-2-4.4-4.4c0-2.4,2-4.4,4.4-4.4c2.4,0,4.4,2,4.4,4.4
				C5404,51.9,5402,53.9,5399.5,53.9z"/>
			<path class="st3" d="M5399.5,53.9c-2.4,0-4.4-2-4.4-4.4c0-2.4,2-4.4,4.4-4.4c2.4,0,4.4,2,4.4,4.4
				C5404,51.9,5402,53.9,5399.5,53.9z"/>
		</g>
		<g>
			<path class="st1" d="M5399.5,53.9c-2.4,0-4.4-2-4.4-4.4c0-2.4,2-4.4,4.4-4.4c2.4,0,4.4,2,4.4,4.4
				C5404,51.9,5402,53.9,5399.5,53.9z"/>
			<path class="st4" d="M5399.5,53.9c-2.4,0-4.4-2-4.4-4.4c0-2.4,2-4.4,4.4-4.4c2.4,0,4.4,2,4.4,4.4
				C5404,51.9,5402,53.9,5399.5,53.9z"/>
		</g>
		<g>
			<path class="st1" d="M5403.1,53.9c-2.4,0-4.4-2-4.4-4.4c0-2.4,2-4.4,4.4-4.4s4.4,2,4.4,4.4C5407.5,51.9,5405.6,53.9,5403.1,53.9z
				"/>
			<path class="st3" d="M5403.1,53.9c-2.4,0-4.4-2-4.4-4.4c0-2.4,2-4.4,4.4-4.4s4.4,2,4.4,4.4C5407.5,51.9,5405.6,53.9,5403.1,53.9z
				"/>
		</g>
		<g>
			<path class="st1" d="M5403.1,53.9c-2.4,0-4.4-2-4.4-4.4c0-2.4,2-4.4,4.4-4.4s4.4,2,4.4,4.4C5407.5,51.9,5405.6,53.9,5403.1,53.9z
				"/>
			<path class="st4" d="M5403.1,53.9c-2.4,0-4.4-2-4.4-4.4c0-2.4,2-4.4,4.4-4.4s4.4,2,4.4,4.4C5407.5,51.9,5405.6,53.9,5403.1,53.9z
				"/>
		</g>
		<g>
			<path class="st1" d="M5406.7,61.9c-2.4,0-4.4-2-4.4-4.4c0-2.4,2-4.4,4.4-4.4c2.4,0,4.4,2,4.4,4.4
				C5411.2,59.9,5409.2,61.9,5406.7,61.9z"/>
			<path class="st3" d="M5406.7,61.9c-2.4,0-4.4-2-4.4-4.4c0-2.4,2-4.4,4.4-4.4c2.4,0,4.4,2,4.4,4.4
				C5411.2,59.9,5409.2,61.9,5406.7,61.9z"/>
		</g>
		<g>
			<path class="st1" d="M5406.7,61.9c-2.4,0-4.4-2-4.4-4.4c0-2.4,2-4.4,4.4-4.4c2.4,0,4.4,2,4.4,4.4
				C5411.2,59.9,5409.2,61.9,5406.7,61.9z"/>
			<path class="st4" d="M5406.7,61.9c-2.4,0-4.4-2-4.4-4.4c0-2.4,2-4.4,4.4-4.4c2.4,0,4.4,2,4.4,4.4
				C5411.2,59.9,5409.2,61.9,5406.7,61.9z"/>
		</g>
		<g>
			<path class="st1" d="M5410.3,62.7c-2.4,0-4.4-2-4.4-4.4s2-4.4,4.4-4.4c2.4,0,4.4,2,4.4,4.4S5412.8,62.7,5410.3,62.7z"/>
			<path class="st3" d="M5410.3,62.7c-2.4,0-4.4-2-4.4-4.4s2-4.4,4.4-4.4c2.4,0,4.4,2,4.4,4.4S5412.8,62.7,5410.3,62.7z"/>
		</g>
		<g>
			<path class="st1" d="M5410.3,62.7c-2.4,0-4.4-2-4.4-4.4s2-4.4,4.4-4.4c2.4,0,4.4,2,4.4,4.4S5412.8,62.7,5410.3,62.7z"/>
			<path class="st4" d="M5410.3,62.7c-2.4,0-4.4-2-4.4-4.4s2-4.4,4.4-4.4c2.4,0,4.4,2,4.4,4.4S5412.8,62.7,5410.3,62.7z"/>
		</g>
		<g>
			<path class="st1" d="M5413.9,61.5c-2.4,0-4.4-2-4.4-4.4c0-2.4,2-4.4,4.4-4.4s4.4,2,4.4,4.4C5418.4,59.5,5416.4,61.5,5413.9,61.5z
				"/>
			<path class="st3" d="M5413.9,61.5c-2.4,0-4.4-2-4.4-4.4c0-2.4,2-4.4,4.4-4.4s4.4,2,4.4,4.4C5418.4,59.5,5416.4,61.5,5413.9,61.5z
				"/>
		</g>
		<g>
			<path class="st1" d="M5413.9,61.5c-2.4,0-4.4-2-4.4-4.4c0-2.4,2-4.4,4.4-4.4s4.4,2,4.4,4.4C5418.4,59.5,5416.4,61.5,5413.9,61.5z
				"/>
			<path class="st4" d="M5413.9,61.5c-2.4,0-4.4-2-4.4-4.4c0-2.4,2-4.4,4.4-4.4s4.4,2,4.4,4.4C5418.4,59.5,5416.4,61.5,5413.9,61.5z
				"/>
		</g>
		<g>
			<path class="st1" d="M5417.5,67.4c-2.4,0-4.4-2-4.4-4.4s2-4.4,4.4-4.4c2.4,0,4.4,2,4.4,4.4S5420,67.4,5417.5,67.4z"/>
			<path class="st3" d="M5417.5,67.4c-2.4,0-4.4-2-4.4-4.4s2-4.4,4.4-4.4c2.4,0,4.4,2,4.4,4.4S5420,67.4,5417.5,67.4z"/>
		</g>
		<g>
			<path class="st1" d="M5417.5,67.4c-2.4,0-4.4-2-4.4-4.4s2-4.4,4.4-4.4c2.4,0,4.4,2,4.4,4.4S5420,67.4,5417.5,67.4z"/>
			<path class="st4" d="M5417.5,67.4c-2.4,0-4.4-2-4.4-4.4s2-4.4,4.4-4.4c2.4,0,4.4,2,4.4,4.4S5420,67.4,5417.5,67.4z"/>
		</g>
		<g>
			<path class="st1" d="M5421.1,64.2c-2.4,0-4.4-2-4.4-4.4s2-4.4,4.4-4.4c2.4,0,4.4,2,4.4,4.4S5423.6,64.2,5421.1,64.2z"/>
			<path class="st3" d="M5421.1,64.2c-2.4,0-4.4-2-4.4-4.4s2-4.4,4.4-4.4c2.4,0,4.4,2,4.4,4.4S5423.6,64.2,5421.1,64.2z"/>
		</g>
		<g>
			<path class="st1" d="M5421.1,64.2c-2.4,0-4.4-2-4.4-4.4s2-4.4,4.4-4.4c2.4,0,4.4,2,4.4,4.4S5423.6,64.2,5421.1,64.2z"/>
			<path class="st4" d="M5421.1,64.2c-2.4,0-4.4-2-4.4-4.4s2-4.4,4.4-4.4c2.4,0,4.4,2,4.4,4.4S5423.6,64.2,5421.1,64.2z"/>
		</g>
		<g>
			<path class="st1" d="M5424.7,61.7c-2.4,0-4.4-2-4.4-4.4c0-2.4,2-4.4,4.4-4.4s4.4,2,4.4,4.4C5429.1,59.7,5427.2,61.7,5424.7,61.7z
				"/>
			<path class="st3" d="M5424.7,61.7c-2.4,0-4.4-2-4.4-4.4c0-2.4,2-4.4,4.4-4.4s4.4,2,4.4,4.4C5429.1,59.7,5427.2,61.7,5424.7,61.7z
				"/>
		</g>
		<g>
			<path class="st1" d="M5424.7,61.7c-2.4,0-4.4-2-4.4-4.4c0-2.4,2-4.4,4.4-4.4s4.4,2,4.4,4.4C5429.1,59.7,5427.2,61.7,5424.7,61.7z
				"/>
			<path class="st4" d="M5424.7,61.7c-2.4,0-4.4-2-4.4-4.4c0-2.4,2-4.4,4.4-4.4s4.4,2,4.4,4.4C5429.1,59.7,5427.2,61.7,5424.7,61.7z
				"/>
		</g>
		<g>
			<path class="st1" d="M5428.3,59.9c-2.4,0-4.4-2-4.4-4.4c0-2.4,2-4.4,4.4-4.4c2.4,0,4.4,2,4.4,4.4
				C5432.7,57.9,5430.8,59.9,5428.3,59.9z"/>
			<path class="st3" d="M5428.3,59.9c-2.4,0-4.4-2-4.4-4.4c0-2.4,2-4.4,4.4-4.4c2.4,0,4.4,2,4.4,4.4
				C5432.7,57.9,5430.8,59.9,5428.3,59.9z"/>
		</g>
		<g>
			<path class="st1" d="M5428.3,59.9c-2.4,0-4.4-2-4.4-4.4c0-2.4,2-4.4,4.4-4.4c2.4,0,4.4,2,4.4,4.4
				C5432.7,57.9,5430.8,59.9,5428.3,59.9z"/>
			<path class="st4" d="M5428.3,59.9c-2.4,0-4.4-2-4.4-4.4c0-2.4,2-4.4,4.4-4.4c2.4,0,4.4,2,4.4,4.4
				C5432.7,57.9,5430.8,59.9,5428.3,59.9z"/>
		</g>
		<g>
			<circle class="st1" cx="5431.9" cy="48" r="4.4"/>
			<circle class="st3" cx="5431.9" cy="48" r="4.4"/>
		</g>
		<g>
			<circle class="st1" cx="5431.9" cy="48" r="4.4"/>
			<circle class="st4" cx="5431.9" cy="48" r="4.4"/>
		</g>
		<g>
			<circle class="st1" cx="5435.5" cy="43.2" r="4.4"/>
			<circle class="st3" cx="5435.5" cy="43.2" r="4.4"/>
		</g>
		<g>
			<circle class="st1" cx="5435.5" cy="43.2" r="4.4"/>
			<circle class="st4" cx="5435.5" cy="43.2" r="4.4"/>
		</g>
		<g>
			<path class="st1" d="M5439.1,58.6c-2.4,0-4.4-2-4.4-4.4c0-2.4,2-4.4,4.4-4.4c2.4,0,4.4,2,4.4,4.4
				C5443.5,56.7,5441.6,58.6,5439.1,58.6z"/>
			<path class="st3" d="M5439.1,58.6c-2.4,0-4.4-2-4.4-4.4c0-2.4,2-4.4,4.4-4.4c2.4,0,4.4,2,4.4,4.4
				C5443.5,56.7,5441.6,58.6,5439.1,58.6z"/>
		</g>
		<g>
			<path class="st1" d="M5439.1,58.6c-2.4,0-4.4-2-4.4-4.4c0-2.4,2-4.4,4.4-4.4c2.4,0,4.4,2,4.4,4.4
				C5443.5,56.7,5441.6,58.6,5439.1,58.6z"/>
			<path class="st4" d="M5439.1,58.6c-2.4,0-4.4-2-4.4-4.4c0-2.4,2-4.4,4.4-4.4c2.4,0,4.4,2,4.4,4.4
				C5443.5,56.7,5441.6,58.6,5439.1,58.6z"/>
		</g>
		<g>
			<path class="st1" d="M5442.7,58.6c-2.4,0-4.4-2-4.4-4.4c0-2.4,2-4.4,4.4-4.4s4.4,2,4.4,4.4C5447.1,56.7,5445.2,58.6,5442.7,58.6z
				"/>
			<path class="st3" d="M5442.7,58.6c-2.4,0-4.4-2-4.4-4.4c0-2.4,2-4.4,4.4-4.4s4.4,2,4.4,4.4C5447.1,56.7,5445.2,58.6,5442.7,58.6z
				"/>
		</g>
		<g>
			<path class="st1" d="M5442.7,58.6c-2.4,0-4.4-2-4.4-4.4c0-2.4,2-4.4,4.4-4.4s4.4,2,4.4,4.4C5447.1,56.7,5445.2,58.6,5442.7,58.6z
				"/>
			<path class="st4" d="M5442.7,58.6c-2.4,0-4.4-2-4.4-4.4c0-2.4,2-4.4,4.4-4.4s4.4,2,4.4,4.4C5447.1,56.7,5445.2,58.6,5442.7,58.6z
				"/>
		</g>
		<g>
			<path class="st1" d="M5446.3,60c-2.4,0-4.4-2-4.4-4.4c0-2.4,2-4.4,4.4-4.4c2.4,0,4.4,2,4.4,4.4C5450.7,58.1,5448.8,60,5446.3,60z
				"/>
			<path class="st3" d="M5446.3,60c-2.4,0-4.4-2-4.4-4.4c0-2.4,2-4.4,4.4-4.4c2.4,0,4.4,2,4.4,4.4C5450.7,58.1,5448.8,60,5446.3,60z
				"/>
		</g>
		<g>
			<path class="st1" d="M5446.3,60c-2.4,0-4.4-2-4.4-4.4c0-2.4,2-4.4,4.4-4.4c2.4,0,4.4,2,4.4,4.4C5450.7,58.1,5448.8,60,5446.3,60z
				"/>
			<path class="st4" d="M5446.3,60c-2.4,0-4.4-2-4.4-4.4c0-2.4,2-4.4,4.4-4.4c2.4,0,4.4,2,4.4,4.4C5450.7,58.1,5448.8,60,5446.3,60z
				"/>
		</g>
		<g>
			<path class="st1" d="M5449.9,64.9c-2.4,0-4.4-2-4.4-4.4c0-2.4,2-4.4,4.4-4.4s4.4,2,4.4,4.4C5454.4,62.9,5452.4,64.9,5449.9,64.9z
				"/>
			<path class="st3" d="M5449.9,64.9c-2.4,0-4.4-2-4.4-4.4c0-2.4,2-4.4,4.4-4.4s4.4,2,4.4,4.4C5454.4,62.9,5452.4,64.9,5449.9,64.9z
				"/>
		</g>
		<g>
			<path class="st1" d="M5449.9,64.9c-2.4,0-4.4-2-4.4-4.4c0-2.4,2-4.4,4.4-4.4s4.4,2,4.4,4.4C5454.4,62.9,5452.4,64.9,5449.9,64.9z
				"/>
			<path class="st4" d="M5449.9,64.9c-2.4,0-4.4-2-4.4-4.4c0-2.4,2-4.4,4.4-4.4s4.4,2,4.4,4.4C5454.4,62.9,5452.4,64.9,5449.9,64.9z
				"/>
		</g>
		<g>
			<path class="st1" d="M5453.5,65c-2.4,0-4.4-2-4.4-4.4c0-2.4,2-4.4,4.4-4.4s4.4,2,4.4,4.4C5457.9,63.1,5456,65,5453.5,65z"/>
			<path class="st3" d="M5453.5,65c-2.4,0-4.4-2-4.4-4.4c0-2.4,2-4.4,4.4-4.4s4.4,2,4.4,4.4C5457.9,63.1,5456,65,5453.5,65z"/>
		</g>
		<g>
			<path class="st1" d="M5453.5,65c-2.4,0-4.4-2-4.4-4.4c0-2.4,2-4.4,4.4-4.4s4.4,2,4.4,4.4C5457.9,63.1,5456,65,5453.5,65z"/>
			<path class="st4" d="M5453.5,65c-2.4,0-4.4-2-4.4-4.4c0-2.4,2-4.4,4.4-4.4s4.4,2,4.4,4.4C5457.9,63.1,5456,65,5453.5,65z"/>
		</g>
		<g>
			<polygon class="st1" points="5421.8,67.9 5420.4,67.9 5417.1,67.3 5413.7,67.1 5413.1,67 5410.1,66.4 5407.2,66.7 5406.5,66.8
				5402.9,66.6 5400.3,65.5 5396.7,61.9 5394.9,60 5394.2,60.2 5390.4,62.8 5386.9,64.4 5383.3,66.3 5382,66.7 5377.9,67.1
				5374.3,67.1 5372.7,66.8 5369.8,65.5 5367.9,65.4 5365.2,66.7 5360.8,66.1 5357.1,62.7 5353.7,59.3 5351.7,57.8 5351,57.9
				5348.1,60.3 5344.6,63.5 5343.5,64.2 5339.9,65.8 5336.8,58.4 5339.8,57.1 5342.9,54.3 5346.5,51.2 5348.3,50.3 5351.9,49.5
				5355.2,50.3 5359.1,53.4 5362.7,56.9 5364.2,58.3 5365.4,57.8 5367.3,57.4 5370.9,57.6 5372.3,57.9 5375.1,59.1 5377.7,59.1
				5380.3,58.8 5383.4,57.2 5386.7,55.7 5390.1,53.4 5390.9,52.9 5394.5,51.6 5398.8,52.5 5402.4,56.3 5404.8,58.7 5406.5,58.8
				5409.8,58.4 5411.2,58.4 5414.4,59.1 5418.2,59.3 5421.1,59.9 5423.5,59.4 5426.6,58 5428.1,57.6 5430.9,57.5 5433.3,56.4
				5436.5,53.6 5442.2,54.2 5445.1,57.7 5447.2,58.4 5450.7,59 5454.3,59.8 5452.7,67.6 5449.1,66.9 5445.1,66.1 5441.5,65
				5439.6,63.7 5438.6,62.4 5438.1,62.8 5437.2,63.4 5433.6,65.1 5432.1,65.5 5429.3,65.6 5426.4,66.9 5425.4,67.2 			"/>
			<polygon class="st2" points="5421.8,67.9 5420.4,67.9 5417.1,67.3 5413.7,67.1 5413.1,67 5410.1,66.4 5407.2,66.7 5406.5,66.8
				5402.9,66.6 5400.3,65.5 5396.7,61.9 5394.9,60 5394.2,60.2 5390.4,62.8 5386.9,64.4 5383.3,66.3 5382,66.7 5377.9,67.1
				5374.3,67.1 5372.7,66.8 5369.8,65.5 5367.9,65.4 5365.2,66.7 5360.8,66.1 5357.1,62.7 5353.7,59.3 5351.7,57.8 5351,57.9
				5348.1,60.3 5344.6,63.5 5343.5,64.2 5339.9,65.8 5336.8,58.4 5339.8,57.1 5342.9,54.3 5346.5,51.2 5348.3,50.3 5351.9,49.5
				5355.2,50.3 5359.1,53.4 5362.7,56.9 5364.2,58.3 5365.4,57.8 5367.3,57.4 5370.9,57.6 5372.3,57.9 5375.1,59.1 5377.7,59.1
				5380.3,58.8 5383.4,57.2 5386.7,55.7 5390.1,53.4 5390.9,52.9 5394.5,51.6 5398.8,52.5 5402.4,56.3 5404.8,58.7 5406.5,58.8
				5409.8,58.4 5411.2,58.4 5414.4,59.1 5418.2,59.3 5421.1,59.9 5423.5,59.4 5426.6,58 5428.1,57.6 5430.9,57.5 5433.3,56.4
				5436.5,53.6 5442.2,54.2 5445.1,57.7 5447.2,58.4 5450.7,59 5454.3,59.8 5452.7,67.6 5449.1,66.9 5445.1,66.1 5441.5,65
				5439.6,63.7 5438.6,62.4 5438.1,62.8 5437.2,63.4 5433.6,65.1 5432.1,65.5 5429.3,65.6 5426.4,66.9 5425.4,67.2 			"/>
		</g>
		<g>
			<path class="st1" d="M5338.3,66.5c-2.4,0-4.4-2-4.4-4.4c0-2.4,2-4.4,4.4-4.4c2.4,0,4.4,2,4.4,4.4
				C5342.8,64.5,5340.8,66.5,5338.3,66.5z"/>
			<path class="st3" d="M5338.3,66.5c-2.4,0-4.4-2-4.4-4.4c0-2.4,2-4.4,4.4-4.4c2.4,0,4.4,2,4.4,4.4
				C5342.8,64.5,5340.8,66.5,5338.3,66.5z"/>
		</g>
		<g>
			<path class="st1" d="M5338.3,66.5c-2.4,0-4.4-2-4.4-4.4c0-2.4,2-4.4,4.4-4.4c2.4,0,4.4,2,4.4,4.4
				C5342.8,64.5,5340.8,66.5,5338.3,66.5z"/>
			<path class="st4" d="M5338.3,66.5c-2.4,0-4.4-2-4.4-4.4c0-2.4,2-4.4,4.4-4.4c2.4,0,4.4,2,4.4,4.4
				C5342.8,64.5,5340.8,66.5,5338.3,66.5z"/>
		</g>
		<g>
			<path class="st1" d="M5341.9,65c-2.4,0-4.4-2-4.4-4.4c0-2.4,2-4.4,4.4-4.4s4.4,2,4.4,4.4C5346.4,63,5344.4,65,5341.9,65z"/>
			<path class="st3" d="M5341.9,65c-2.4,0-4.4-2-4.4-4.4c0-2.4,2-4.4,4.4-4.4s4.4,2,4.4,4.4C5346.4,63,5344.4,65,5341.9,65z"/>
		</g>
		<g>
			<path class="st1" d="M5341.9,65c-2.4,0-4.4-2-4.4-4.4c0-2.4,2-4.4,4.4-4.4s4.4,2,4.4,4.4C5346.4,63,5344.4,65,5341.9,65z"/>
			<path class="st4" d="M5341.9,65c-2.4,0-4.4-2-4.4-4.4c0-2.4,2-4.4,4.4-4.4s4.4,2,4.4,4.4C5346.4,63,5344.4,65,5341.9,65z"/>
		</g>
		<g>
			<path class="st1" d="M5345.5,61.7c-2.4,0-4.4-2-4.4-4.4c0-2.4,2-4.4,4.4-4.4c2.4,0,4.4,2,4.4,4.4
				C5350,59.7,5348,61.7,5345.5,61.7z"/>
			<path class="st3" d="M5345.5,61.7c-2.4,0-4.4-2-4.4-4.4c0-2.4,2-4.4,4.4-4.4c2.4,0,4.4,2,4.4,4.4
				C5350,59.7,5348,61.7,5345.5,61.7z"/>
		</g>
		<g>
			<path class="st1" d="M5345.5,61.7c-2.4,0-4.4-2-4.4-4.4c0-2.4,2-4.4,4.4-4.4c2.4,0,4.4,2,4.4,4.4
				C5350,59.7,5348,61.7,5345.5,61.7z"/>
			<path class="st4" d="M5345.5,61.7c-2.4,0-4.4-2-4.4-4.4c0-2.4,2-4.4,4.4-4.4c2.4,0,4.4,2,4.4,4.4
				C5350,59.7,5348,61.7,5345.5,61.7z"/>
		</g>
		<g>
			<path class="st1" d="M5349.1,58.6c-2.4,0-4.4-2-4.4-4.4c0-2.4,2-4.4,4.4-4.4s4.4,2,4.4,4.4C5353.5,56.7,5351.6,58.6,5349.1,58.6z
				"/>
			<path class="st3" d="M5349.1,58.6c-2.4,0-4.4-2-4.4-4.4c0-2.4,2-4.4,4.4-4.4s4.4,2,4.4,4.4C5353.5,56.7,5351.6,58.6,5349.1,58.6z
				"/>
		</g>
		<g>
			<path class="st1" d="M5349.1,58.6c-2.4,0-4.4-2-4.4-4.4c0-2.4,2-4.4,4.4-4.4s4.4,2,4.4,4.4C5353.5,56.7,5351.6,58.6,5349.1,58.6z
				"/>
			<path class="st4" d="M5349.1,58.6c-2.4,0-4.4-2-4.4-4.4c0-2.4,2-4.4,4.4-4.4s4.4,2,4.4,4.4C5353.5,56.7,5351.6,58.6,5349.1,58.6z
				"/>
		</g>
		<g>
			<path class="st1" d="M5352.7,57.9c-2.4,0-4.4-2-4.4-4.4c0-2.4,2-4.4,4.4-4.4c2.4,0,4.4,2,4.4,4.4
				C5357.2,55.9,5355.2,57.9,5352.7,57.9z"/>
			<path class="st3" d="M5352.7,57.9c-2.4,0-4.4-2-4.4-4.4c0-2.4,2-4.4,4.4-4.4c2.4,0,4.4,2,4.4,4.4
				C5357.2,55.9,5355.2,57.9,5352.7,57.9z"/>
		</g>
		<g>
			<path class="st1" d="M5352.7,57.9c-2.4,0-4.4-2-4.4-4.4c0-2.4,2-4.4,4.4-4.4c2.4,0,4.4,2,4.4,4.4
				C5357.2,55.9,5355.2,57.9,5352.7,57.9z"/>
			<path class="st4" d="M5352.7,57.9c-2.4,0-4.4-2-4.4-4.4c0-2.4,2-4.4,4.4-4.4c2.4,0,4.4,2,4.4,4.4
				C5357.2,55.9,5355.2,57.9,5352.7,57.9z"/>
		</g>
		<g>
			<path class="st1" d="M5356.3,60.7c-2.4,0-4.4-2-4.4-4.4s2-4.4,4.4-4.4c2.4,0,4.4,2,4.4,4.4S5358.8,60.7,5356.3,60.7z"/>
			<path class="st3" d="M5356.3,60.7c-2.4,0-4.4-2-4.4-4.4s2-4.4,4.4-4.4c2.4,0,4.4,2,4.4,4.4S5358.8,60.7,5356.3,60.7z"/>
		</g>
		<g>
			<path class="st1" d="M5356.3,60.7c-2.4,0-4.4-2-4.4-4.4s2-4.4,4.4-4.4c2.4,0,4.4,2,4.4,4.4S5358.8,60.7,5356.3,60.7z"/>
			<path class="st4" d="M5356.3,60.7c-2.4,0-4.4-2-4.4-4.4s2-4.4,4.4-4.4c2.4,0,4.4,2,4.4,4.4S5358.8,60.7,5356.3,60.7z"/>
		</g>
		<g>
			<path class="st1" d="M5359.9,64.3c-2.4,0-4.4-2-4.4-4.4c0-2.4,2-4.4,4.4-4.4s4.4,2,4.4,4.4C5364.4,62.3,5362.4,64.3,5359.9,64.3z
				"/>
			<path class="st3" d="M5359.9,64.3c-2.4,0-4.4-2-4.4-4.4c0-2.4,2-4.4,4.4-4.4s4.4,2,4.4,4.4C5364.4,62.3,5362.4,64.3,5359.9,64.3z
				"/>
		</g>
		<g>
			<path class="st1" d="M5359.9,64.3c-2.4,0-4.4-2-4.4-4.4c0-2.4,2-4.4,4.4-4.4s4.4,2,4.4,4.4C5364.4,62.3,5362.4,64.3,5359.9,64.3z
				"/>
			<path class="st4" d="M5359.9,64.3c-2.4,0-4.4-2-4.4-4.4c0-2.4,2-4.4,4.4-4.4s4.4,2,4.4,4.4C5364.4,62.3,5362.4,64.3,5359.9,64.3z
				"/>
		</g>
		<g>
			<path class="st1" d="M5363.5,67.5c-2.4,0-4.4-2-4.4-4.4c0-2.4,2-4.4,4.4-4.4c2.4,0,4.4,2,4.4,4.4
				C5368,65.5,5366,67.5,5363.5,67.5z"/>
			<path class="st3" d="M5363.5,67.5c-2.4,0-4.4-2-4.4-4.4c0-2.4,2-4.4,4.4-4.4c2.4,0,4.4,2,4.4,4.4
				C5368,65.5,5366,67.5,5363.5,67.5z"/>
		</g>
		<g>
			<path class="st1" d="M5363.5,67.5c-2.4,0-4.4-2-4.4-4.4c0-2.4,2-4.4,4.4-4.4c2.4,0,4.4,2,4.4,4.4
				C5368,65.5,5366,67.5,5363.5,67.5z"/>
			<path class="st4" d="M5363.5,67.5c-2.4,0-4.4-2-4.4-4.4c0-2.4,2-4.4,4.4-4.4c2.4,0,4.4,2,4.4,4.4
				C5368,65.5,5366,67.5,5363.5,67.5z"/>
		</g>
		<g>
			<path class="st1" d="M5367.1,65.9c-2.4,0-4.4-2-4.4-4.4c0-2.4,2-4.4,4.4-4.4s4.4,2,4.4,4.4C5371.5,63.9,5369.6,65.9,5367.1,65.9z
				"/>
			<path class="st3" d="M5367.1,65.9c-2.4,0-4.4-2-4.4-4.4c0-2.4,2-4.4,4.4-4.4s4.4,2,4.4,4.4C5371.5,63.9,5369.6,65.9,5367.1,65.9z
				"/>
		</g>
		<g>
			<path class="st1" d="M5367.1,65.9c-2.4,0-4.4-2-4.4-4.4c0-2.4,2-4.4,4.4-4.4s4.4,2,4.4,4.4C5371.5,63.9,5369.6,65.9,5367.1,65.9z
				"/>
			<path class="st4" d="M5367.1,65.9c-2.4,0-4.4-2-4.4-4.4c0-2.4,2-4.4,4.4-4.4s4.4,2,4.4,4.4C5371.5,63.9,5369.6,65.9,5367.1,65.9z
				"/>
		</g>
		<g>
			<path class="st1" d="M5370.7,66c-2.4,0-4.4-2-4.4-4.4c0-2.4,2-4.4,4.4-4.4c2.4,0,4.4,2,4.4,4.4C5375.2,64,5373.2,66,5370.7,66z"
				/>
			<path class="st3" d="M5370.7,66c-2.4,0-4.4-2-4.4-4.4c0-2.4,2-4.4,4.4-4.4c2.4,0,4.4,2,4.4,4.4C5375.2,64,5373.2,66,5370.7,66z"
				/>
		</g>
		<g>
			<path class="st1" d="M5370.7,66c-2.4,0-4.4-2-4.4-4.4c0-2.4,2-4.4,4.4-4.4c2.4,0,4.4,2,4.4,4.4C5375.2,64,5373.2,66,5370.7,66z"
				/>
			<path class="st4" d="M5370.7,66c-2.4,0-4.4-2-4.4-4.4c0-2.4,2-4.4,4.4-4.4c2.4,0,4.4,2,4.4,4.4C5375.2,64,5373.2,66,5370.7,66z"
				/>
		</g>
		<g>
			<path class="st1" d="M5374.3,67.5c-2.4,0-4.4-2-4.4-4.4c0-2.4,2-4.4,4.4-4.4c2.4,0,4.4,2,4.4,4.4
				C5378.8,65.6,5376.8,67.5,5374.3,67.5z"/>
			<path class="st3" d="M5374.3,67.5c-2.4,0-4.4-2-4.4-4.4c0-2.4,2-4.4,4.4-4.4c2.4,0,4.4,2,4.4,4.4
				C5378.8,65.6,5376.8,67.5,5374.3,67.5z"/>
		</g>
		<g>
			<path class="st1" d="M5374.3,67.5c-2.4,0-4.4-2-4.4-4.4c0-2.4,2-4.4,4.4-4.4c2.4,0,4.4,2,4.4,4.4
				C5378.8,65.6,5376.8,67.5,5374.3,67.5z"/>
			<path class="st4" d="M5374.3,67.5c-2.4,0-4.4-2-4.4-4.4c0-2.4,2-4.4,4.4-4.4c2.4,0,4.4,2,4.4,4.4
				C5378.8,65.6,5376.8,67.5,5374.3,67.5z"/>
		</g>
		<g>
			<path class="st1" d="M5377.9,67.6c-2.4,0-4.4-2-4.4-4.4c0-2.4,2-4.4,4.4-4.4s4.4,2,4.4,4.4C5382.4,65.6,5380.4,67.6,5377.9,67.6z
				"/>
			<path class="st3" d="M5377.9,67.6c-2.4,0-4.4-2-4.4-4.4c0-2.4,2-4.4,4.4-4.4s4.4,2,4.4,4.4C5382.4,65.6,5380.4,67.6,5377.9,67.6z
				"/>
		</g>
		<g>
			<path class="st1" d="M5377.9,67.6c-2.4,0-4.4-2-4.4-4.4c0-2.4,2-4.4,4.4-4.4s4.4,2,4.4,4.4C5382.4,65.6,5380.4,67.6,5377.9,67.6z
				"/>
			<path class="st4" d="M5377.9,67.6c-2.4,0-4.4-2-4.4-4.4c0-2.4,2-4.4,4.4-4.4s4.4,2,4.4,4.4C5382.4,65.6,5380.4,67.6,5377.9,67.6z
				"/>
		</g>
		<g>
			<path class="st1" d="M5381.5,67.1c-2.4,0-4.4-2-4.4-4.4s2-4.4,4.4-4.4c2.4,0,4.4,2,4.4,4.4S5384,67.1,5381.5,67.1z"/>
			<path class="st3" d="M5381.5,67.1c-2.4,0-4.4-2-4.4-4.4s2-4.4,4.4-4.4c2.4,0,4.4,2,4.4,4.4S5384,67.1,5381.5,67.1z"/>
		</g>
		<g>
			<path class="st1" d="M5381.5,67.1c-2.4,0-4.4-2-4.4-4.4s2-4.4,4.4-4.4c2.4,0,4.4,2,4.4,4.4S5384,67.1,5381.5,67.1z"/>
			<path class="st4" d="M5381.5,67.1c-2.4,0-4.4-2-4.4-4.4s2-4.4,4.4-4.4c2.4,0,4.4,2,4.4,4.4S5384,67.1,5381.5,67.1z"/>
		</g>
		<g>
			<path class="st1" d="M5385.1,65.3c-2.4,0-4.4-2-4.4-4.4c0-2.4,2-4.4,4.4-4.4s4.4,2,4.4,4.4C5389.5,63.3,5387.6,65.3,5385.1,65.3z
				"/>
			<path class="st3" d="M5385.1,65.3c-2.4,0-4.4-2-4.4-4.4c0-2.4,2-4.4,4.4-4.4s4.4,2,4.4,4.4C5389.5,63.3,5387.6,65.3,5385.1,65.3z
				"/>
		</g>
		<g>
			<path class="st1" d="M5385.1,65.3c-2.4,0-4.4-2-4.4-4.4c0-2.4,2-4.4,4.4-4.4s4.4,2,4.4,4.4C5389.5,63.3,5387.6,65.3,5385.1,65.3z
				"/>
			<path class="st4" d="M5385.1,65.3c-2.4,0-4.4-2-4.4-4.4c0-2.4,2-4.4,4.4-4.4s4.4,2,4.4,4.4C5389.5,63.3,5387.6,65.3,5385.1,65.3z
				"/>
		</g>
		<g>
			<path class="st1" d="M5388.7,63.6c-2.4,0-4.4-2-4.4-4.4c0-2.4,2-4.4,4.4-4.4c2.4,0,4.4,2,4.4,4.4
				C5393.2,61.6,5391.2,63.6,5388.7,63.6z"/>
			<path class="st3" d="M5388.7,63.6c-2.4,0-4.4-2-4.4-4.4c0-2.4,2-4.4,4.4-4.4c2.4,0,4.4,2,4.4,4.4
				C5393.2,61.6,5391.2,63.6,5388.7,63.6z"/>
		</g>
		<g>
			<path class="st1" d="M5388.7,63.6c-2.4,0-4.4-2-4.4-4.4c0-2.4,2-4.4,4.4-4.4c2.4,0,4.4,2,4.4,4.4
				C5393.2,61.6,5391.2,63.6,5388.7,63.6z"/>
			<path class="st4" d="M5388.7,63.6c-2.4,0-4.4-2-4.4-4.4c0-2.4,2-4.4,4.4-4.4c2.4,0,4.4,2,4.4,4.4
				C5393.2,61.6,5391.2,63.6,5388.7,63.6z"/>
		</g>
		<g>
			<path class="st1" d="M5392.3,61.1c-2.4,0-4.4-2-4.4-4.4c0-2.4,2-4.4,4.4-4.4c2.4,0,4.4,2,4.4,4.4
				C5396.8,59.1,5394.8,61.1,5392.3,61.1z"/>
			<path class="st3" d="M5392.3,61.1c-2.4,0-4.4-2-4.4-4.4c0-2.4,2-4.4,4.4-4.4c2.4,0,4.4,2,4.4,4.4
				C5396.8,59.1,5394.8,61.1,5392.3,61.1z"/>
		</g>
		<g>
			<path class="st1" d="M5392.3,61.1c-2.4,0-4.4-2-4.4-4.4c0-2.4,2-4.4,4.4-4.4c2.4,0,4.4,2,4.4,4.4
				C5396.8,59.1,5394.8,61.1,5392.3,61.1z"/>
			<path class="st4" d="M5392.3,61.1c-2.4,0-4.4-2-4.4-4.4c0-2.4,2-4.4,4.4-4.4c2.4,0,4.4,2,4.4,4.4
				C5396.8,59.1,5394.8,61.1,5392.3,61.1z"/>
		</g>
		<g>
			<circle class="st1" cx="5395.9" cy="55.3" r="4.4"/>
			<circle class="st3" cx="5395.9" cy="55.3" r="4.4"/>
		</g>
		<g>
			<circle class="st1" cx="5395.9" cy="55.3" r="4.4"/>
			<circle class="st4" cx="5395.9" cy="55.3" r="4.4"/>
		</g>
		<g>
			<path class="st1" d="M5399.5,63.5c-2.4,0-4.4-2-4.4-4.4c0-2.4,2-4.4,4.4-4.4c2.4,0,4.4,2,4.4,4.4
				C5404,61.5,5402,63.5,5399.5,63.5z"/>
			<path class="st3" d="M5399.5,63.5c-2.4,0-4.4-2-4.4-4.4c0-2.4,2-4.4,4.4-4.4c2.4,0,4.4,2,4.4,4.4
				C5404,61.5,5402,63.5,5399.5,63.5z"/>
		</g>
		<g>
			<path class="st1" d="M5399.5,63.5c-2.4,0-4.4-2-4.4-4.4c0-2.4,2-4.4,4.4-4.4c2.4,0,4.4,2,4.4,4.4
				C5404,61.5,5402,63.5,5399.5,63.5z"/>
			<path class="st4" d="M5399.5,63.5c-2.4,0-4.4-2-4.4-4.4c0-2.4,2-4.4,4.4-4.4c2.4,0,4.4,2,4.4,4.4
				C5404,61.5,5402,63.5,5399.5,63.5z"/>
		</g>
		<g>
			<path class="st1" d="M5403.1,67c-2.4,0-4.4-2-4.4-4.4c0-2.4,2-4.4,4.4-4.4s4.4,2,4.4,4.4C5407.5,65.1,5405.6,67,5403.1,67z"/>
			<path class="st3" d="M5403.1,67c-2.4,0-4.4-2-4.4-4.4c0-2.4,2-4.4,4.4-4.4s4.4,2,4.4,4.4C5407.5,65.1,5405.6,67,5403.1,67z"/>
		</g>
		<g>
			<path class="st1" d="M5403.1,67c-2.4,0-4.4-2-4.4-4.4c0-2.4,2-4.4,4.4-4.4s4.4,2,4.4,4.4C5407.5,65.1,5405.6,67,5403.1,67z"/>
			<path class="st4" d="M5403.1,67c-2.4,0-4.4-2-4.4-4.4c0-2.4,2-4.4,4.4-4.4s4.4,2,4.4,4.4C5407.5,65.1,5405.6,67,5403.1,67z"/>
		</g>
		<g>
			<path class="st1" d="M5406.7,67.2c-2.4,0-4.4-2-4.4-4.4s2-4.4,4.4-4.4c2.4,0,4.4,2,4.4,4.4S5409.2,67.2,5406.7,67.2z"/>
			<path class="st3" d="M5406.7,67.2c-2.4,0-4.4-2-4.4-4.4s2-4.4,4.4-4.4c2.4,0,4.4,2,4.4,4.4S5409.2,67.2,5406.7,67.2z"/>
		</g>
		<g>
			<path class="st1" d="M5406.7,67.2c-2.4,0-4.4-2-4.4-4.4s2-4.4,4.4-4.4c2.4,0,4.4,2,4.4,4.4S5409.2,67.2,5406.7,67.2z"/>
			<path class="st4" d="M5406.7,67.2c-2.4,0-4.4-2-4.4-4.4s2-4.4,4.4-4.4c2.4,0,4.4,2,4.4,4.4S5409.2,67.2,5406.7,67.2z"/>
		</g>
		<g>
			<path class="st1" d="M5410.3,66.8c-2.4,0-4.4-2-4.4-4.4c0-2.4,2-4.4,4.4-4.4c2.4,0,4.4,2,4.4,4.4
				C5414.8,64.8,5412.8,66.8,5410.3,66.8z"/>
			<path class="st3" d="M5410.3,66.8c-2.4,0-4.4-2-4.4-4.4c0-2.4,2-4.4,4.4-4.4c2.4,0,4.4,2,4.4,4.4
				C5414.8,64.8,5412.8,66.8,5410.3,66.8z"/>
		</g>
		<g>
			<path class="st1" d="M5410.3,66.8c-2.4,0-4.4-2-4.4-4.4c0-2.4,2-4.4,4.4-4.4c2.4,0,4.4,2,4.4,4.4
				C5414.8,64.8,5412.8,66.8,5410.3,66.8z"/>
			<path class="st4" d="M5410.3,66.8c-2.4,0-4.4-2-4.4-4.4c0-2.4,2-4.4,4.4-4.4c2.4,0,4.4,2,4.4,4.4
				C5414.8,64.8,5412.8,66.8,5410.3,66.8z"/>
		</g>
		<g>
			<path class="st1" d="M5413.9,67.5c-2.4,0-4.4-2-4.4-4.4c0-2.4,2-4.4,4.4-4.4s4.4,2,4.4,4.4C5418.4,65.5,5416.4,67.5,5413.9,67.5z
				"/>
			<path class="st3" d="M5413.9,67.5c-2.4,0-4.4-2-4.4-4.4c0-2.4,2-4.4,4.4-4.4s4.4,2,4.4,4.4C5418.4,65.5,5416.4,67.5,5413.9,67.5z
				"/>
		</g>
		<g>
			<path class="st1" d="M5413.9,67.5c-2.4,0-4.4-2-4.4-4.4c0-2.4,2-4.4,4.4-4.4s4.4,2,4.4,4.4C5418.4,65.5,5416.4,67.5,5413.9,67.5z
				"/>
			<path class="st4" d="M5413.9,67.5c-2.4,0-4.4-2-4.4-4.4c0-2.4,2-4.4,4.4-4.4s4.4,2,4.4,4.4C5418.4,65.5,5416.4,67.5,5413.9,67.5z
				"/>
		</g>
		<g>
			<path class="st1" d="M5417.5,67.7c-2.4,0-4.4-2-4.4-4.4s2-4.4,4.4-4.4c2.4,0,4.4,2,4.4,4.4S5420,67.7,5417.5,67.7z"/>
			<path class="st3" d="M5417.5,67.7c-2.4,0-4.4-2-4.4-4.4s2-4.4,4.4-4.4c2.4,0,4.4,2,4.4,4.4S5420,67.7,5417.5,67.7z"/>
		</g>
		<g>
			<path class="st1" d="M5417.5,67.7c-2.4,0-4.4-2-4.4-4.4s2-4.4,4.4-4.4c2.4,0,4.4,2,4.4,4.4S5420,67.7,5417.5,67.7z"/>
			<path class="st4" d="M5417.5,67.7c-2.4,0-4.4-2-4.4-4.4s2-4.4,4.4-4.4c2.4,0,4.4,2,4.4,4.4S5420,67.7,5417.5,67.7z"/>
		</g>
		<g>
			<path class="st1" d="M5421.1,68.3c-2.4,0-4.4-2-4.4-4.4c0-2.4,2-4.4,4.4-4.4c2.4,0,4.4,2,4.4,4.4
				C5425.5,66.3,5423.6,68.3,5421.1,68.3z"/>
			<path class="st3" d="M5421.1,68.3c-2.4,0-4.4-2-4.4-4.4c0-2.4,2-4.4,4.4-4.4c2.4,0,4.4,2,4.4,4.4
				C5425.5,66.3,5423.6,68.3,5421.1,68.3z"/>
		</g>
		<g>
			<path class="st1" d="M5421.1,68.3c-2.4,0-4.4-2-4.4-4.4c0-2.4,2-4.4,4.4-4.4c2.4,0,4.4,2,4.4,4.4
				C5425.5,66.3,5423.6,68.3,5421.1,68.3z"/>
			<path class="st4" d="M5421.1,68.3c-2.4,0-4.4-2-4.4-4.4c0-2.4,2-4.4,4.4-4.4c2.4,0,4.4,2,4.4,4.4
				C5425.5,66.3,5423.6,68.3,5421.1,68.3z"/>
		</g>
		<g>
			<circle class="st1" cx="5424.7" cy="63.3" r="4.4"/>
			<circle class="st3" cx="5424.7" cy="63.3" r="4.4"/>
		</g>
		<g>
			<circle class="st1" cx="5424.7" cy="63.3" r="4.4"/>
			<circle class="st4" cx="5424.7" cy="63.3" r="4.4"/>
		</g>
		<g>
			<path class="st1" d="M5428.3,66c-2.4,0-4.4-2-4.4-4.4c0-2.4,2-4.4,4.4-4.4c2.4,0,4.4,2,4.4,4.4C5432.7,64,5430.8,66,5428.3,66z"
				/>
			<path class="st3" d="M5428.3,66c-2.4,0-4.4-2-4.4-4.4c0-2.4,2-4.4,4.4-4.4c2.4,0,4.4,2,4.4,4.4C5432.7,64,5430.8,66,5428.3,66z"
				/>
		</g>
		<g>
			<path class="st1" d="M5428.3,66c-2.4,0-4.4-2-4.4-4.4c0-2.4,2-4.4,4.4-4.4c2.4,0,4.4,2,4.4,4.4C5432.7,64,5430.8,66,5428.3,66z"
				/>
			<path class="st4" d="M5428.3,66c-2.4,0-4.4-2-4.4-4.4c0-2.4,2-4.4,4.4-4.4c2.4,0,4.4,2,4.4,4.4C5432.7,64,5430.8,66,5428.3,66z"
				/>
		</g>
		<g>
			<circle class="st1" cx="5431.9" cy="61.5" r="4.4"/>
			<circle class="st3" cx="5431.9" cy="61.5" r="4.4"/>
		</g>
		<g>
			<circle class="st1" cx="5431.9" cy="61.5" r="4.4"/>
			<circle class="st4" cx="5431.9" cy="61.5" r="4.4"/>
		</g>
		<g>
			<circle class="st1" cx="5435.5" cy="59.8" r="4.4"/>
			<circle class="st3" cx="5435.5" cy="59.8" r="4.4"/>
		</g>
		<g>
			<circle class="st1" cx="5435.5" cy="59.8" r="4.4"/>
			<circle class="st4" cx="5435.5" cy="59.8" r="4.4"/>
		</g>
		<g>
			<path class="st1" d="M5439.1,61.1c-2.4,0-4.4-2-4.4-4.4c0-2.4,2-4.4,4.4-4.4c2.4,0,4.4,2,4.4,4.4
				C5443.5,59.1,5441.6,61.1,5439.1,61.1z"/>
			<path class="st3" d="M5439.1,61.1c-2.4,0-4.4-2-4.4-4.4c0-2.4,2-4.4,4.4-4.4c2.4,0,4.4,2,4.4,4.4
				C5443.5,59.1,5441.6,61.1,5439.1,61.1z"/>
		</g>
		<g>
			<path class="st1" d="M5439.1,61.1c-2.4,0-4.4-2-4.4-4.4c0-2.4,2-4.4,4.4-4.4c2.4,0,4.4,2,4.4,4.4
				C5443.5,59.1,5441.6,61.1,5439.1,61.1z"/>
			<path class="st4" d="M5439.1,61.1c-2.4,0-4.4-2-4.4-4.4c0-2.4,2-4.4,4.4-4.4c2.4,0,4.4,2,4.4,4.4
				C5443.5,59.1,5441.6,61.1,5439.1,61.1z"/>
		</g>
		<g>
			<circle class="st1" cx="5442.7" cy="61.2" r="4.4"/>
			<circle class="st3" cx="5442.7" cy="61.2" r="4.4"/>
		</g>
		<g>
			<circle class="st1" cx="5442.7" cy="61.2" r="4.4"/>
			<circle class="st4" cx="5442.7" cy="61.2" r="4.4"/>
		</g>
		<g>
			<path class="st1" d="M5446.3,66.7c-2.4,0-4.4-2-4.4-4.4c0-2.4,2-4.4,4.4-4.4c2.4,0,4.4,2,4.4,4.4
				C5450.7,64.7,5448.8,66.7,5446.3,66.7z"/>
			<path class="st3" d="M5446.3,66.7c-2.4,0-4.4-2-4.4-4.4c0-2.4,2-4.4,4.4-4.4c2.4,0,4.4,2,4.4,4.4
				C5450.7,64.7,5448.8,66.7,5446.3,66.7z"/>
		</g>
		<g>
			<path class="st1" d="M5446.3,66.7c-2.4,0-4.4-2-4.4-4.4c0-2.4,2-4.4,4.4-4.4c2.4,0,4.4,2,4.4,4.4
				C5450.7,64.7,5448.8,66.7,5446.3,66.7z"/>
			<path class="st4" d="M5446.3,66.7c-2.4,0-4.4-2-4.4-4.4c0-2.4,2-4.4,4.4-4.4c2.4,0,4.4,2,4.4,4.4
				C5450.7,64.7,5448.8,66.7,5446.3,66.7z"/>
		</g>
		<g>
			<path class="st1" d="M5449.9,67.4c-2.4,0-4.4-2-4.4-4.4c0-2.4,2-4.4,4.4-4.4s4.4,2,4.4,4.4C5454.4,65.4,5452.4,67.4,5449.9,67.4z
				"/>
			<path class="st3" d="M5449.9,67.4c-2.4,0-4.4-2-4.4-4.4c0-2.4,2-4.4,4.4-4.4s4.4,2,4.4,4.4C5454.4,65.4,5452.4,67.4,5449.9,67.4z
				"/>
		</g>
		<g>
			<path class="st1" d="M5449.9,67.4c-2.4,0-4.4-2-4.4-4.4c0-2.4,2-4.4,4.4-4.4s4.4,2,4.4,4.4C5454.4,65.4,5452.4,67.4,5449.9,67.4z
				"/>
			<path class="st4" d="M5449.9,67.4c-2.4,0-4.4-2-4.4-4.4c0-2.4,2-4.4,4.4-4.4s4.4,2,4.4,4.4C5454.4,65.4,5452.4,67.4,5449.9,67.4z
				"/>
		</g>
		<g>
			<path class="st1" d="M5453.5,68.1c-2.4,0-4.4-2-4.4-4.4c0-2.4,2-4.4,4.4-4.4s4.4,2,4.4,4.4C5457.9,66.1,5456,68.1,5453.5,68.1z"
				/>
			<path class="st3" d="M5453.5,68.1c-2.4,0-4.4-2-4.4-4.4c0-2.4,2-4.4,4.4-4.4s4.4,2,4.4,4.4C5457.9,66.1,5456,68.1,5453.5,68.1z"
				/>
		</g>
		<g>
			<path class="st1" d="M5453.5,68.1c-2.4,0-4.4-2-4.4-4.4c0-2.4,2-4.4,4.4-4.4s4.4,2,4.4,4.4C5457.9,66.1,5456,68.1,5453.5,68.1z"
				/>
			<path class="st4" d="M5453.5,68.1c-2.4,0-4.4-2-4.4-4.4c0-2.4,2-4.4,4.4-4.4s4.4,2,4.4,4.4C5457.9,66.1,5456,68.1,5453.5,68.1z"
				/>
		</g>
	</g>
</g>
</svg>
