<?xml version="1.0" encoding="utf-8"?>
<!-- Generator: Adobe Illustrator 18.0.0, SVG Export Plug-In . SVG Version: 6.00 Build 0)  -->
<!DOCTYPE svg PUBLIC "-//W3C//DTD SVG 1.1//EN" "http://www.w3.org/Graphics/SVG/1.1/DTD/svg11.dtd">
<svg version="1.1" id="Baseline" xmlns="http://www.w3.org/2000/svg" xmlns:xlink="http://www.w3.org/1999/xlink" x="0px" y="0px"
	 width="9451.45px" height="623.52px" viewBox="0 0 9451.45 623.52" enable-background="new 0 0 9451.45 623.52"
	 xml:space="preserve">
<g opacity="0.01">
	
		<polyline fill="none" stroke="#000000" stroke-width="0.75" stroke-linecap="round" stroke-linejoin="round" stroke-miterlimit="10" points="
		5338.33,51.55 5341.93,51.24 5345.53,28.64 5349.13,19.03 5352.73,15.16 5356.31,26.66 5359.91,43.41 5363.51,58.75 5367.11,55.67 
		5370.71,57.7 5374.31,61.59 5377.91,58.96 5381.51,61.92 5385.11,56.04 5388.71,51.41 5392.31,45.69 5395.91,40.11 5399.51,49.43 
		5403.11,49.43 5406.71,57.5 5410.31,58.28 5413.9,57.04 5417.5,62.99 5421.1,59.74 5424.7,57.27 5428.3,55.42 5431.9,47.99 
		5435.5,43.2 5439.1,54.23 5442.7,54.23 5446.3,55.63 5449.9,60.44 5453.5,60.6 	"/>
	<circle fill="#5D9BD3" stroke="#000000" stroke-miterlimit="10" cx="5338.32" cy="51.54" r="0.43"/>
	<circle fill="#5D9BD3" stroke="#000000" stroke-width="0.5" stroke-miterlimit="10" cx="5338.32" cy="51.54" r="0.43"/>
	<circle fill="#5D9BD3" stroke="#000000" stroke-miterlimit="10" cx="5341.92" cy="51.25" r="0.43"/>
	<circle fill="#5D9BD3" stroke="#000000" stroke-width="0.5" stroke-miterlimit="10" cx="5341.92" cy="51.25" r="0.43"/>
	<circle fill="#5D9BD3" stroke="#000000" stroke-miterlimit="10" cx="5345.52" cy="28.63" r="0.43"/>
	<circle fill="#5D9BD3" stroke="#000000" stroke-width="0.5" stroke-miterlimit="10" cx="5345.52" cy="28.63" r="0.43"/>
	<circle fill="#5D9BD3" stroke="#000000" stroke-miterlimit="10" cx="5349.12" cy="19.04" r="0.43"/>
	<circle fill="#5D9BD3" stroke="#000000" stroke-width="0.5" stroke-miterlimit="10" cx="5349.12" cy="19.04" r="0.43"/>
	<circle fill="#5D9BD3" stroke="#000000" stroke-miterlimit="10" cx="5352.72" cy="15.17" r="0.43"/>
	<circle fill="#5D9BD3" stroke="#000000" stroke-width="0.5" stroke-miterlimit="10" cx="5352.72" cy="15.17" r="0.43"/>
	<circle fill="#5D9BD3" stroke="#000000" stroke-miterlimit="10" cx="5356.32" cy="26.65" r="0.43"/>
	<circle fill="#5D9BD3" stroke="#000000" stroke-width="0.5" stroke-miterlimit="10" cx="5356.32" cy="26.65" r="0.43"/>
	<circle fill="#5D9BD3" stroke="#000000" stroke-miterlimit="10" cx="5359.92" cy="43.39" r="0.43"/>
	<circle fill="#5D9BD3" stroke="#000000" stroke-width="0.5" stroke-miterlimit="10" cx="5359.92" cy="43.39" r="0.43"/>
	<circle fill="#5D9BD3" stroke="#000000" stroke-miterlimit="10" cx="5363.52" cy="58.76" r="0.43"/>
	<circle fill="#5D9BD3" stroke="#000000" stroke-width="0.5" stroke-miterlimit="10" cx="5363.52" cy="58.76" r="0.43"/>
	<circle fill="#5D9BD3" stroke="#000000" stroke-miterlimit="10" cx="5367.12" cy="55.68" r="0.43"/>
	<circle fill="#5D9BD3" stroke="#000000" stroke-width="0.5" stroke-miterlimit="10" cx="5367.12" cy="55.68" r="0.43"/>
	<circle fill="#5D9BD3" stroke="#000000" stroke-miterlimit="10" cx="5370.72" cy="57.69" r="0.43"/>
	<circle fill="#5D9BD3" stroke="#000000" stroke-width="0.5" stroke-miterlimit="10" cx="5370.72" cy="57.69" r="0.43"/>
	<circle fill="#5D9BD3" stroke="#000000" stroke-miterlimit="10" cx="5374.32" cy="61.58" r="0.43"/>
	<circle fill="#5D9BD3" stroke="#000000" stroke-width="0.5" stroke-miterlimit="10" cx="5374.32" cy="61.58" r="0.43"/>
	<circle fill="#5D9BD3" stroke="#000000" stroke-miterlimit="10" cx="5377.92" cy="58.97" r="0.43"/>
	<circle fill="#5D9BD3" stroke="#000000" stroke-width="0.5" stroke-miterlimit="10" cx="5377.92" cy="58.97" r="0.43"/>
	<circle fill="#5D9BD3" stroke="#000000" stroke-miterlimit="10" cx="5381.52" cy="61.91" r="0.43"/>
	<circle fill="#5D9BD3" stroke="#000000" stroke-width="0.5" stroke-miterlimit="10" cx="5381.52" cy="61.91" r="0.43"/>
	<circle fill="#5D9BD3" stroke="#000000" stroke-miterlimit="10" cx="5385.12" cy="56.05" r="0.43"/>
	<circle fill="#5D9BD3" stroke="#000000" stroke-width="0.5" stroke-miterlimit="10" cx="5385.12" cy="56.05" r="0.43"/>
	<circle fill="#5D9BD3" stroke="#000000" stroke-miterlimit="10" cx="5388.72" cy="51.4" r="0.43"/>
	<circle fill="#5D9BD3" stroke="#000000" stroke-width="0.5" stroke-miterlimit="10" cx="5388.72" cy="51.4" r="0.43"/>
	<circle fill="#5D9BD3" stroke="#000000" stroke-miterlimit="10" cx="5392.32" cy="45.68" r="0.43"/>
	<circle fill="#5D9BD3" stroke="#000000" stroke-width="0.5" stroke-miterlimit="10" cx="5392.32" cy="45.68" r="0.43"/>
	<circle fill="#5D9BD3" stroke="#000000" stroke-miterlimit="10" cx="5395.92" cy="40.11" r="0.43"/>
	<circle fill="#5D9BD3" stroke="#000000" stroke-width="0.5" stroke-miterlimit="10" cx="5395.92" cy="40.11" r="0.43"/>
	<circle fill="#5D9BD3" stroke="#000000" stroke-miterlimit="10" cx="5399.52" cy="49.42" r="0.43"/>
	<circle fill="#5D9BD3" stroke="#000000" stroke-width="0.5" stroke-miterlimit="10" cx="5399.52" cy="49.42" r="0.43"/>
	<circle fill="#5D9BD3" stroke="#000000" stroke-miterlimit="10" cx="5403.12" cy="49.42" r="0.43"/>
	<circle fill="#5D9BD3" stroke="#000000" stroke-width="0.5" stroke-miterlimit="10" cx="5403.12" cy="49.42" r="0.43"/>
	<circle fill="#5D9BD3" stroke="#000000" stroke-miterlimit="10" cx="5406.72" cy="57.49" r="0.43"/>
	<circle fill="#5D9BD3" stroke="#000000" stroke-width="0.5" stroke-miterlimit="10" cx="5406.72" cy="57.49" r="0.43"/>
	<circle fill="#5D9BD3" stroke="#000000" stroke-miterlimit="10" cx="5410.32" cy="58.29" r="0.43"/>
	<circle fill="#5D9BD3" stroke="#000000" stroke-width="0.5" stroke-miterlimit="10" cx="5410.32" cy="58.29" r="0.43"/>
	<circle fill="#5D9BD3" stroke="#000000" stroke-miterlimit="10" cx="5413.92" cy="57.05" r="0.43"/>
	<circle fill="#5D9BD3" stroke="#000000" stroke-width="0.5" stroke-miterlimit="10" cx="5413.92" cy="57.05" r="0.43"/>
	<circle fill="#5D9BD3" stroke="#000000" stroke-miterlimit="10" cx="5417.52" cy="62.98" r="0.43"/>
	<circle fill="#5D9BD3" stroke="#000000" stroke-width="0.5" stroke-miterlimit="10" cx="5417.52" cy="62.98" r="0.43"/>
	<circle fill="#5D9BD3" stroke="#000000" stroke-miterlimit="10" cx="5421.11" cy="59.73" r="0.43"/>
	<circle fill="#5D9BD3" stroke="#000000" stroke-width="0.5" stroke-miterlimit="10" cx="5421.11" cy="59.73" r="0.43"/>
	<circle fill="#5D9BD3" stroke="#000000" stroke-miterlimit="10" cx="5424.71" cy="57.26" r="0.43"/>
	<circle fill="#5D9BD3" stroke="#000000" stroke-width="0.5" stroke-miterlimit="10" cx="5424.71" cy="57.26" r="0.43"/>
	<circle fill="#5D9BD3" stroke="#000000" stroke-miterlimit="10" cx="5428.31" cy="55.43" r="0.43"/>
	<circle fill="#5D9BD3" stroke="#000000" stroke-width="0.5" stroke-miterlimit="10" cx="5428.31" cy="55.43" r="0.43"/>
	<circle fill="#5D9BD3" stroke="#000000" stroke-miterlimit="10" cx="5431.91" cy="47.98" r="0.43"/>
	<circle fill="#5D9BD3" stroke="#000000" stroke-width="0.5" stroke-miterlimit="10" cx="5431.91" cy="47.98" r="0.43"/>
	<circle fill="#5D9BD3" stroke="#000000" stroke-miterlimit="10" cx="5435.51" cy="43.19" r="0.43"/>
	<circle fill="#5D9BD3" stroke="#000000" stroke-width="0.5" stroke-miterlimit="10" cx="5435.51" cy="43.19" r="0.43"/>
	<circle fill="#5D9BD3" stroke="#000000" stroke-miterlimit="10" cx="5439.11" cy="54.22" r="0.43"/>
	<circle fill="#5D9BD3" stroke="#000000" stroke-width="0.5" stroke-miterlimit="10" cx="5439.11" cy="54.22" r="0.43"/>
	<circle fill="#5D9BD3" stroke="#000000" stroke-miterlimit="10" cx="5442.71" cy="54.22" r="0.43"/>
	<circle fill="#5D9BD3" stroke="#000000" stroke-width="0.5" stroke-miterlimit="10" cx="5442.71" cy="54.22" r="0.43"/>
	<circle fill="#5D9BD3" stroke="#000000" stroke-miterlimit="10" cx="5446.31" cy="55.62" r="0.43"/>
	<circle fill="#5D9BD3" stroke="#000000" stroke-width="0.5" stroke-miterlimit="10" cx="5446.31" cy="55.62" r="0.43"/>
	<path fill="#5D9BD3" stroke="#000000" stroke-miterlimit="10" d="M5450.35,60.45c0,0.24-0.2,0.43-0.43,0.43
		c-0.24,0-0.43-0.19-0.43-0.43s0.19-0.43,0.43-0.43C5450.15,60.02,5450.35,60.21,5450.35,60.45z"/>
	<path fill="#5D9BD3" stroke="#000000" stroke-width="0.5" stroke-miterlimit="10" d="M5450.35,60.45c0,0.24-0.2,0.43-0.43,0.43
		c-0.24,0-0.43-0.19-0.43-0.43s0.19-0.43,0.43-0.43C5450.15,60.02,5450.35,60.21,5450.35,60.45z"/>
	<circle fill="#5D9BD3" stroke="#000000" stroke-miterlimit="10" cx="5453.51" cy="60.61" r="0.43"/>
	<circle fill="#5D9BD3" stroke="#000000" stroke-width="0.5" stroke-miterlimit="10" cx="5453.51" cy="60.61" r="0.43"/>
	
		<polyline fill="none" stroke="#000000" stroke-width="0.75" stroke-linecap="round" stroke-linejoin="round" stroke-miterlimit="10" points="
		5338.33,62.08 5341.93,60.54 5345.53,57.31 5349.13,54.23 5352.73,53.44 5356.31,56.26 5359.91,59.84 5363.51,63.09 5367.11,61.4 
		5370.71,61.57 5374.31,63.13 5377.91,63.15 5381.51,62.7 5385.11,60.85 5388.71,59.14 5392.31,56.68 5395.91,55.3 5399.51,59.04 
		5403.11,62.62 5406.71,62.78 5410.31,62.33 5413.9,63.11 5417.5,63.28 5421.1,63.91 5424.7,63.3 5428.3,61.61 5431.9,61.47 
		5435.5,59.78 5439.1,56.68 5442.7,61.2 5446.3,62.29 5449.9,62.93 5453.5,63.71 	"/>
	<circle fill="#ED7D31" stroke="#000000" stroke-miterlimit="10" cx="5338.32" cy="62.09" r="0.43"/>
	<circle fill="#ED7D31" stroke="#000000" stroke-width="0.5" stroke-miterlimit="10" cx="5338.32" cy="62.09" r="0.43"/>
	<circle fill="#ED7D31" stroke="#000000" stroke-miterlimit="10" cx="5341.92" cy="60.55" r="0.43"/>
	<circle fill="#ED7D31" stroke="#000000" stroke-width="0.5" stroke-miterlimit="10" cx="5341.92" cy="60.55" r="0.43"/>
	<circle fill="#ED7D31" stroke="#000000" stroke-miterlimit="10" cx="5345.52" cy="57.3" r="0.43"/>
	<circle fill="#ED7D31" stroke="#000000" stroke-width="0.5" stroke-miterlimit="10" cx="5345.52" cy="57.3" r="0.43"/>
	<circle fill="#ED7D31" stroke="#000000" stroke-miterlimit="10" cx="5349.12" cy="54.22" r="0.43"/>
	<circle fill="#ED7D31" stroke="#000000" stroke-width="0.5" stroke-miterlimit="10" cx="5349.12" cy="54.22" r="0.43"/>
	<circle fill="#ED7D31" stroke="#000000" stroke-miterlimit="10" cx="5352.72" cy="53.45" r="0.43"/>
	<circle fill="#ED7D31" stroke="#000000" stroke-width="0.5" stroke-miterlimit="10" cx="5352.72" cy="53.45" r="0.43"/>
	<circle fill="#ED7D31" stroke="#000000" stroke-miterlimit="10" cx="5356.32" cy="56.25" r="0.43"/>
	<circle fill="#ED7D31" stroke="#000000" stroke-width="0.5" stroke-miterlimit="10" cx="5356.32" cy="56.25" r="0.43"/>
	<circle fill="#ED7D31" stroke="#000000" stroke-miterlimit="10" cx="5359.92" cy="59.83" r="0.43"/>
	<circle fill="#ED7D31" stroke="#000000" stroke-width="0.5" stroke-miterlimit="10" cx="5359.92" cy="59.83" r="0.43"/>
	<circle fill="#ED7D31" stroke="#000000" stroke-miterlimit="10" cx="5363.52" cy="63.1" r="0.43"/>
	<circle fill="#ED7D31" stroke="#000000" stroke-width="0.5" stroke-miterlimit="10" cx="5363.52" cy="63.1" r="0.43"/>
	<circle fill="#ED7D31" stroke="#000000" stroke-miterlimit="10" cx="5367.12" cy="61.42" r="0.43"/>
	<circle fill="#ED7D31" stroke="#000000" stroke-width="0.5" stroke-miterlimit="10" cx="5367.12" cy="61.42" r="0.43"/>
	<circle fill="#ED7D31" stroke="#000000" stroke-miterlimit="10" cx="5370.72" cy="61.58" r="0.43"/>
	<circle fill="#ED7D31" stroke="#000000" stroke-width="0.5" stroke-miterlimit="10" cx="5370.72" cy="61.58" r="0.43"/>
	<circle fill="#ED7D31" stroke="#000000" stroke-miterlimit="10" cx="5374.32" cy="63.12" r="0.43"/>
	<circle fill="#ED7D31" stroke="#000000" stroke-width="0.5" stroke-miterlimit="10" cx="5374.32" cy="63.12" r="0.43"/>
	<circle fill="#ED7D31" stroke="#000000" stroke-miterlimit="10" cx="5377.92" cy="63.14" r="0.43"/>
	<circle fill="#ED7D31" stroke="#000000" stroke-width="0.5" stroke-miterlimit="10" cx="5377.92" cy="63.14" r="0.43"/>
	<circle fill="#ED7D31" stroke="#000000" stroke-miterlimit="10" cx="5381.52" cy="62.69" r="0.43"/>
	<circle fill="#ED7D31" stroke="#000000" stroke-width="0.5" stroke-miterlimit="10" cx="5381.52" cy="62.69" r="0.43"/>
	<circle fill="#ED7D31" stroke="#000000" stroke-miterlimit="10" cx="5385.12" cy="60.84" r="0.43"/>
	<circle fill="#ED7D31" stroke="#000000" stroke-width="0.5" stroke-miterlimit="10" cx="5385.12" cy="60.84" r="0.43"/>
	<circle fill="#ED7D31" stroke="#000000" stroke-miterlimit="10" cx="5388.72" cy="59.15" r="0.43"/>
	<circle fill="#ED7D31" stroke="#000000" stroke-width="0.5" stroke-miterlimit="10" cx="5388.72" cy="59.15" r="0.43"/>
	<circle fill="#ED7D31" stroke="#000000" stroke-miterlimit="10" cx="5392.32" cy="56.68" r="0.43"/>
	<circle fill="#ED7D31" stroke="#000000" stroke-width="0.5" stroke-miterlimit="10" cx="5392.32" cy="56.68" r="0.43"/>
	<circle fill="#ED7D31" stroke="#000000" stroke-miterlimit="10" cx="5395.92" cy="55.31" r="0.43"/>
	<circle fill="#ED7D31" stroke="#000000" stroke-width="0.5" stroke-miterlimit="10" cx="5395.92" cy="55.31" r="0.43"/>
	<path fill="#ED7D31" stroke="#000000" stroke-miterlimit="10" d="M5399.95,59.03c0,0.24-0.19,0.43-0.43,0.43
		c-0.24,0-0.43-0.19-0.43-0.43c0-0.24,0.19-0.43,0.43-0.43C5399.76,58.6,5399.95,58.79,5399.95,59.03z"/>
	<path fill="#ED7D31" stroke="#000000" stroke-width="0.5" stroke-miterlimit="10" d="M5399.95,59.03c0,0.24-0.19,0.43-0.43,0.43
		c-0.24,0-0.43-0.19-0.43-0.43c0-0.24,0.19-0.43,0.43-0.43C5399.76,58.6,5399.95,58.79,5399.95,59.03z"/>
	<circle fill="#ED7D31" stroke="#000000" stroke-miterlimit="10" cx="5403.12" cy="62.61" r="0.43"/>
	<circle fill="#ED7D31" stroke="#000000" stroke-width="0.5" stroke-miterlimit="10" cx="5403.12" cy="62.61" r="0.43"/>
	<circle fill="#ED7D31" stroke="#000000" stroke-miterlimit="10" cx="5406.72" cy="62.77" r="0.43"/>
	<circle fill="#ED7D31" stroke="#000000" stroke-width="0.5" stroke-miterlimit="10" cx="5406.72" cy="62.77" r="0.43"/>
	<circle fill="#ED7D31" stroke="#000000" stroke-miterlimit="10" cx="5410.32" cy="62.32" r="0.43"/>
	<circle fill="#ED7D31" stroke="#000000" stroke-width="0.5" stroke-miterlimit="10" cx="5410.32" cy="62.32" r="0.43"/>
	<circle fill="#ED7D31" stroke="#000000" stroke-miterlimit="10" cx="5413.92" cy="63.1" r="0.43"/>
	<circle fill="#ED7D31" stroke="#000000" stroke-width="0.5" stroke-miterlimit="10" cx="5413.92" cy="63.1" r="0.43"/>
	<circle fill="#ED7D31" stroke="#000000" stroke-miterlimit="10" cx="5417.52" cy="63.27" r="0.43"/>
	<circle fill="#ED7D31" stroke="#000000" stroke-width="0.5" stroke-miterlimit="10" cx="5417.52" cy="63.27" r="0.43"/>
	<circle fill="#ED7D31" stroke="#000000" stroke-miterlimit="10" cx="5421.11" cy="63.9" r="0.43"/>
	<circle fill="#ED7D31" stroke="#000000" stroke-width="0.5" stroke-miterlimit="10" cx="5421.11" cy="63.9" r="0.43"/>
	<path fill="#ED7D31" stroke="#000000" stroke-miterlimit="10" d="M5425.15,63.31c0,0.24-0.19,0.43-0.43,0.43s-0.43-0.19-0.43-0.43
		c0-0.24,0.19-0.43,0.43-0.43S5425.15,63.07,5425.15,63.31z"/>
	<path fill="#ED7D31" stroke="#000000" stroke-width="0.5" stroke-miterlimit="10" d="M5425.15,63.31c0,0.24-0.19,0.43-0.43,0.43
		s-0.43-0.19-0.43-0.43c0-0.24,0.19-0.43,0.43-0.43S5425.15,63.07,5425.15,63.31z"/>
	<circle fill="#ED7D31" stroke="#000000" stroke-miterlimit="10" cx="5428.31" cy="61.6" r="0.43"/>
	<circle fill="#ED7D31" stroke="#000000" stroke-width="0.5" stroke-miterlimit="10" cx="5428.31" cy="61.6" r="0.43"/>
	<circle fill="#ED7D31" stroke="#000000" stroke-miterlimit="10" cx="5431.91" cy="61.46" r="0.43"/>
	<circle fill="#ED7D31" stroke="#000000" stroke-width="0.5" stroke-miterlimit="10" cx="5431.91" cy="61.46" r="0.43"/>
	<circle fill="#ED7D31" stroke="#000000" stroke-miterlimit="10" cx="5435.51" cy="59.77" r="0.43"/>
	<circle fill="#ED7D31" stroke="#000000" stroke-width="0.5" stroke-miterlimit="10" cx="5435.51" cy="59.77" r="0.43"/>
	<circle fill="#ED7D31" stroke="#000000" stroke-miterlimit="10" cx="5439.11" cy="56.68" r="0.43"/>
	<circle fill="#ED7D31" stroke="#000000" stroke-width="0.5" stroke-miterlimit="10" cx="5439.11" cy="56.68" r="0.43"/>
	<circle fill="#ED7D31" stroke="#000000" stroke-miterlimit="10" cx="5442.71" cy="61.19" r="0.43"/>
	<circle fill="#ED7D31" stroke="#000000" stroke-width="0.5" stroke-miterlimit="10" cx="5442.71" cy="61.19" r="0.43"/>
	<circle fill="#ED7D31" stroke="#000000" stroke-miterlimit="10" cx="5446.31" cy="62.28" r="0.43"/>
	<circle fill="#ED7D31" stroke="#000000" stroke-width="0.5" stroke-miterlimit="10" cx="5446.31" cy="62.28" r="0.43"/>
	<path fill="#ED7D31" stroke="#000000" stroke-miterlimit="10" d="M5450.35,62.92c0,0.24-0.2,0.43-0.43,0.43
		c-0.24,0-0.43-0.19-0.43-0.43c0-0.24,0.19-0.43,0.43-0.43C5450.15,62.49,5450.35,62.68,5450.35,62.92z"/>
	<path fill="#ED7D31" stroke="#000000" stroke-width="0.5" stroke-miterlimit="10" d="M5450.35,62.92c0,0.24-0.2,0.43-0.43,0.43
		c-0.24,0-0.43-0.19-0.43-0.43c0-0.24,0.19-0.43,0.43-0.43C5450.15,62.49,5450.35,62.68,5450.35,62.92z"/>
	<circle fill="#ED7D31" stroke="#000000" stroke-miterlimit="10" cx="5453.51" cy="63.7" r="0.43"/>
	<circle fill="#ED7D31" stroke="#000000" stroke-width="0.5" stroke-miterlimit="10" cx="5453.51" cy="63.7" r="0.43"/>
</g>
</svg>
