<?xml version="1.0" encoding="utf-8"?>
<!-- Generator: Adobe Illustrator 18.0.0, SVG Export Plug-In . SVG Version: 6.00 Build 0)  -->
<!DOCTYPE svg PUBLIC "-//W3C//DTD SVG 1.1//EN" "http://www.w3.org/Graphics/SVG/1.1/DTD/svg11.dtd">
<svg version="1.1" id="background" xmlns="http://www.w3.org/2000/svg" xmlns:xlink="http://www.w3.org/1999/xlink" x="0px" y="0px"
	 width="9451.45px" height="623.52px" viewBox="0 0 9451.45 623.52" enable-background="new 0 0 9451.45 623.52"
	 xml:space="preserve">
<g>
	<g>
		<path fill="none" stroke="#B87332" stroke-width="0.3325" stroke-miterlimit="10" d="M5516.13,352.88c0,0,43.06,1.5,56.33,0.14
			c13.27-1.37,23.31-4.33,27.59-25.05s6.44-38.95,6.44-38.95"/>
		<circle fill="none" stroke="#B87332" stroke-width="0.3325" stroke-miterlimit="10" cx="5581.94" cy="294.16" r="0.96"/>
		<circle fill="none" stroke="#B87332" stroke-width="0.3325" stroke-miterlimit="10" cx="5578.52" cy="326.48" r="0.96"/>
		<circle fill="none" stroke="#B87332" stroke-width="0.3325" stroke-miterlimit="10" cx="5602.9" cy="319.05" r="0.96"/>
		<circle fill="none" stroke="#B87332" stroke-width="0.3325" stroke-miterlimit="10" cx="5606.5" cy="318.65" r="0.96"/>
		<circle fill="none" stroke="#B87332" stroke-width="0.3325" stroke-miterlimit="10" cx="5601.34" cy="332.55" r="0.96"/>
		<circle fill="none" stroke="#B87332" stroke-width="0.3325" stroke-miterlimit="10" cx="5599.2" cy="335.49" r="0.96"/>
		<circle fill="none" stroke="#B87332" stroke-width="0.3325" stroke-miterlimit="10" cx="5596.67" cy="334.69" r="0.96"/>
		<circle fill="none" stroke="#B87332" stroke-width="0.3325" stroke-miterlimit="10" cx="5593.12" cy="334.69" r="0.96"/>
		<circle fill="none" stroke="#B87332" stroke-width="0.3325" stroke-miterlimit="10" cx="5590.98" cy="335.49" r="0.96"/>
		<circle fill="none" stroke="#B87332" stroke-width="0.3325" stroke-miterlimit="10" cx="5595.6" cy="338.63" r="0.96"/>
		<circle fill="none" stroke="#B87332" stroke-width="0.3325" stroke-miterlimit="10" cx="5600.27" cy="339.7" r="0.96"/>
		<circle fill="none" stroke="#B87332" stroke-width="0.3325" stroke-miterlimit="10" cx="5605.9" cy="343" r="0.96"/>
		<circle fill="none" stroke="#B87332" stroke-width="0.3325" stroke-miterlimit="10" cx="5599.2" cy="344.07" r="0.96"/>
		<circle fill="none" stroke="#B87332" stroke-width="0.3325" stroke-miterlimit="10" cx="5594.53" cy="344.62" r="0.96"/>
		<circle fill="none" stroke="#B87332" stroke-width="0.3325" stroke-miterlimit="10" cx="5591.39" cy="342.48" r="0.96"/>
		<circle fill="none" stroke="#B87332" stroke-width="0.3325" stroke-miterlimit="10" cx="5588.84" cy="344.62" r="0.96"/>
		<circle fill="none" stroke="#B87332" stroke-width="0.3325" stroke-miterlimit="10" cx="5591.39" cy="347.42" r="0.96"/>
		<circle fill="none" stroke="#B87332" stroke-width="0.3325" stroke-miterlimit="10" cx="5594.53" cy="350.37" r="0.96"/>
		<path fill="none" stroke="#B87332" stroke-width="0.3325" stroke-miterlimit="10" d="M5589.47,354.66c0-0.53,0.43-0.96,0.96-0.96
			s0.96,0.43,0.96,0.96s-0.43,0.96-0.96,0.96C5589.9,355.63,5589.47,355.2,5589.47,354.66z"/>
		<circle fill="none" stroke="#B87332" stroke-width="0.3325" stroke-miterlimit="10" cx="5599.65" cy="353.59" r="0.96"/>
		<circle fill="none" stroke="#B87332" stroke-width="0.3325" stroke-miterlimit="10" cx="5600.27" cy="351.44" r="0.96"/>
		<circle fill="none" stroke="#B87332" stroke-width="0.3325" stroke-miterlimit="10" cx="5602.41" cy="354.66" r="0.96"/>
		<circle fill="none" stroke="#B87332" stroke-width="0.3325" stroke-miterlimit="10" cx="5604.55" cy="353.74" r="0.96"/>
		<circle fill="none" stroke="#B87332" stroke-width="0.3325" stroke-miterlimit="10" cx="5605.42" cy="353.59" r="0.96"/>
		<circle fill="none" stroke="#B87332" stroke-width="0.3325" stroke-miterlimit="10" cx="5590.32" cy="351.6" r="0.96"/>
		<circle fill="none" stroke="#B87332" stroke-width="0.3325" stroke-miterlimit="10" cx="5592.05" cy="352.66" r="0.96"/>
		<circle fill="none" stroke="#B87332" stroke-width="0.3325" stroke-miterlimit="10" cx="5591.39" cy="351.6" r="0.96"/>
		<circle fill="none" stroke="#B87332" stroke-width="0.3325" stroke-miterlimit="10" cx="5593.57" cy="354.56" r="0.96"/>
		<circle fill="none" stroke="#B87332" stroke-width="0.3325" stroke-miterlimit="10" cx="5587.63" cy="342.72" r="0.96"/>
		<circle fill="none" stroke="#B87332" stroke-width="0.3325" stroke-miterlimit="10" cx="5584.13" cy="340.07" r="0.96"/>
		<circle fill="none" stroke="#B87332" stroke-width="0.3325" stroke-miterlimit="10" cx="5578.27" cy="337.93" r="0.96"/>
		<circle fill="none" stroke="#B87332" stroke-width="0.3325" stroke-miterlimit="10" cx="5577.2" cy="339.7" r="0.96"/>
		<circle fill="none" stroke="#B87332" stroke-width="0.3325" stroke-miterlimit="10" cx="5574.45" cy="347.42" r="0.96"/>
		<circle fill="none" stroke="#B87332" stroke-width="0.3325" stroke-miterlimit="10" cx="5585.2" cy="347.42" r="0.96"/>
		<circle fill="none" stroke="#B87332" stroke-width="0.3325" stroke-miterlimit="10" cx="5582.49" cy="350.37" r="0.96"/>
		<circle fill="none" stroke="#B87332" stroke-width="0.3325" stroke-miterlimit="10" cx="5581.21" cy="349.67" r="0.96"/>
		<circle fill="none" stroke="#B87332" stroke-width="0.3325" stroke-miterlimit="10" cx="5576.37" cy="351.6" r="0.96"/>
		<circle fill="none" stroke="#B87332" stroke-width="0.3325" stroke-miterlimit="10" cx="5574.45" cy="351.7" r="0.96"/>
		<circle fill="none" stroke="#B87332" stroke-width="0.3325" stroke-miterlimit="10" cx="5576.59" cy="353.59" r="0.96"/>
		<circle fill="none" stroke="#B87332" stroke-width="0.3325" stroke-miterlimit="10" cx="5579.24" cy="354.7" r="0.96"/>
		<circle fill="none" stroke="#B87332" stroke-width="0.3325" stroke-miterlimit="10" cx="5581.21" cy="354.7" r="0.96"/>
		<circle fill="none" stroke="#B87332" stroke-width="0.3325" stroke-miterlimit="10" cx="5588.59" cy="353.59" r="0.96"/>
		<path fill="none" stroke="#B87332" stroke-width="0.3325" stroke-miterlimit="10" d="M5585.7,353.36c0-0.53,0.43-0.96,0.96-0.96
			s0.96,0.43,0.96,0.96s-0.43,0.96-0.96,0.96S5585.7,353.89,5585.7,353.36z"/>
		<circle fill="none" stroke="#B87332" stroke-width="0.3325" stroke-miterlimit="10" cx="5587.63" cy="355.29" r="0.96"/>
		<circle fill="none" stroke="#B87332" stroke-width="0.3325" stroke-miterlimit="10" cx="5585.7" cy="355.29" r="0.96"/>
		<circle fill="none" stroke="#B87332" stroke-width="0.3325" stroke-miterlimit="10" cx="5583.45" cy="353.59" r="0.96"/>
		<circle fill="none" stroke="#B87332" stroke-width="0.3325" stroke-miterlimit="10" cx="5584.74" cy="354.33" r="0.96"/>
		<circle fill="none" stroke="#B87332" stroke-width="0.3325" stroke-miterlimit="10" cx="5568.87" cy="352.4" r="0.96"/>
		<circle fill="none" stroke="#B87332" stroke-width="0.3325" stroke-miterlimit="10" cx="5560.35" cy="352.56" r="0.96"/>
		<path fill="none" stroke="#B87332" stroke-width="0.3325" stroke-miterlimit="10" d="M5554.78,350.37c0-0.53,0.43-0.96,0.96-0.96
			s0.96,0.43,0.96,0.96s-0.43,0.96-0.96,0.96S5554.78,350.9,5554.78,350.37z"/>
		<circle fill="none" stroke="#B87332" stroke-width="0.3325" stroke-miterlimit="10" cx="5552.44" cy="352.77" r="0.96"/>
		<circle fill="none" stroke="#B87332" stroke-width="0.3325" stroke-miterlimit="10" cx="5546.94" cy="352.66" r="0.96"/>
		<circle fill="none" stroke="#B87332" stroke-width="0.3325" stroke-miterlimit="10" cx="5547.28" cy="351.15" r="0.96"/>
		<circle fill="none" stroke="#B87332" stroke-width="0.3325" stroke-miterlimit="10" cx="5542.31" cy="352.56" r="0.96"/>
		<circle fill="none" stroke="#B87332" stroke-width="0.3325" stroke-miterlimit="10" cx="5537.59" cy="351.81" r="0.96"/>
		<circle fill="none" stroke="#B87332" stroke-width="0.3325" stroke-miterlimit="10" cx="5533.74" cy="352.77" r="0.96"/>
		<circle fill="none" stroke="#B87332" stroke-width="0.3325" stroke-miterlimit="10" cx="5518.1" cy="354.01" r="0.96"/>
		<circle fill="none" stroke="#B87332" stroke-width="0.3325" stroke-miterlimit="10" cx="5517.14" cy="354.97" r="0.96"/>
		<circle fill="none" stroke="#B87332" stroke-width="0.3325" stroke-miterlimit="10" cx="5519.07" cy="354.97" r="0.96"/>
		<circle fill="none" stroke="#B87332" stroke-width="0.3325" stroke-miterlimit="10" cx="5523.29" cy="354.97" r="0.96"/>
		<circle fill="none" stroke="#B87332" stroke-width="0.3325" stroke-miterlimit="10" cx="5524.7" cy="354.97" r="0.96"/>
		<circle fill="none" stroke="#B87332" stroke-width="0.3325" stroke-miterlimit="10" cx="5526.04" cy="354.97" r="0.96"/>
		<circle fill="none" stroke="#B87332" stroke-width="0.3325" stroke-miterlimit="10" cx="5527.38" cy="354.01" r="0.96"/>
		<circle fill="none" stroke="#B87332" stroke-width="0.3325" stroke-miterlimit="10" cx="5528.95" cy="354.97" r="0.96"/>
		<circle fill="none" stroke="#B87332" stroke-width="0.3325" stroke-miterlimit="10" cx="5531.81" cy="354.97" r="0.96"/>
		<circle fill="none" stroke="#B87332" stroke-width="0.3325" stroke-miterlimit="10" cx="5534.21" cy="354.97" r="0.96"/>
		<circle fill="none" stroke="#B87332" stroke-width="0.3325" stroke-miterlimit="10" cx="5536.14" cy="354.33" r="0.96"/>
		<circle fill="none" stroke="#B87332" stroke-width="0.3325" stroke-miterlimit="10" cx="5538.06" cy="354.97" r="0.96"/>
		<circle fill="none" stroke="#B87332" stroke-width="0.3325" stroke-miterlimit="10" cx="5540.38" cy="354.97" r="0.96"/>
		<circle fill="none" stroke="#B87332" stroke-width="0.3325" stroke-miterlimit="10" cx="5542.78" cy="354.97" r="0.96"/>
		<circle fill="none" stroke="#B87332" stroke-width="0.3325" stroke-miterlimit="10" cx="5544.23" cy="354.97" r="0.96"/>
		<circle fill="none" stroke="#B87332" stroke-width="0.3325" stroke-miterlimit="10" cx="5546.31" cy="354.97" r="0.96"/>
		<circle fill="none" stroke="#B87332" stroke-width="0.3325" stroke-miterlimit="10" cx="5547.63" cy="354.66" r="0.96"/>
		<circle fill="none" stroke="#B87332" stroke-width="0.3325" stroke-miterlimit="10" cx="5545.19" cy="354.7" r="0.96"/>
		<circle fill="none" stroke="#B87332" stroke-width="0.3325" stroke-miterlimit="10" cx="5550.01" cy="354.7" r="0.96"/>
		<circle fill="none" stroke="#B87332" stroke-width="0.3325" stroke-miterlimit="10" cx="5550.97" cy="354.7" r="0.96"/>
		<circle fill="none" stroke="#B87332" stroke-width="0.3325" stroke-miterlimit="10" cx="5553.41" cy="354.7" r="0.96"/>
		<circle fill="none" stroke="#B87332" stroke-width="0.3325" stroke-miterlimit="10" cx="5554.37" cy="354.7" r="0.96"/>
		<circle fill="none" stroke="#B87332" stroke-width="0.3325" stroke-miterlimit="10" cx="5557.08" cy="354.56" r="0.96"/>
		<circle fill="none" stroke="#B87332" stroke-width="0.3325" stroke-miterlimit="10" cx="5558.43" cy="354.97" r="0.96"/>
		<circle fill="none" stroke="#B87332" stroke-width="0.3325" stroke-miterlimit="10" cx="5559.39" cy="354.97" r="0.96"/>
		<circle fill="none" stroke="#B87332" stroke-width="0.3325" stroke-miterlimit="10" cx="5561.32" cy="354.97" r="0.96"/>
		<circle fill="none" stroke="#B87332" stroke-width="0.3325" stroke-miterlimit="10" cx="5563.78" cy="354.01" r="0.96"/>
		<path fill="none" stroke="#B87332" stroke-width="0.3325" stroke-miterlimit="10" d="M5565.58,327.68c0-0.53,0.43-0.96,0.96-0.96
			s0.96,0.43,0.96,0.96s-0.43,0.96-0.96,0.96C5566.01,328.65,5565.58,328.21,5565.58,327.68z"/>
		<circle fill="none" stroke="#B87332" stroke-width="0.3325" stroke-miterlimit="10" cx="5594.19" cy="353.74" r="0.96"/>
		<path fill="none" stroke="#B87332" stroke-width="0.3325" stroke-miterlimit="10" d="M5534.7,353.36c0-0.53,0.43-0.96,0.96-0.96
			s0.96,0.43,0.96,0.96s-0.43,0.96-0.96,0.96S5534.7,353.89,5534.7,353.36z"/>
		<circle fill="none" stroke="#B87332" stroke-width="0.3325" stroke-miterlimit="10" cx="5562.82" cy="354.7" r="0.96"/>
		<circle fill="none" stroke="#B87332" stroke-width="0.3325" stroke-miterlimit="10" cx="5564.74" cy="355.29" r="0.96"/>
		<circle fill="none" stroke="#B87332" stroke-width="0.3325" stroke-miterlimit="10" cx="5567.51" cy="354.97" r="0.96"/>
		<circle fill="none" stroke="#B87332" stroke-width="0.3325" stroke-miterlimit="10" cx="5569.43" cy="354.7" r="0.96"/>
		<circle fill="none" stroke="#B87332" stroke-width="0.3325" stroke-miterlimit="10" cx="5570.79" cy="354.97" r="0.96"/>
		<circle fill="none" stroke="#B87332" stroke-width="0.3325" stroke-miterlimit="10" cx="5572.72" cy="354.66" r="0.96"/>
		<circle fill="none" stroke="#B87332" stroke-width="0.3325" stroke-miterlimit="10" cx="5574.45" cy="354.97" r="0.96"/>
	</g>
	<g>
		<g>
			<g enable-background="new    ">
				<path fill="#FFFFFF" d="M5507.93,299.69h-0.62v-0.09l0.33-0.36c0.05-0.06,0.08-0.1,0.1-0.13c0.02-0.04,0.03-0.07,0.03-0.11
					c0-0.05-0.02-0.09-0.04-0.12c-0.03-0.03-0.07-0.05-0.12-0.05c-0.06,0-0.11,0.02-0.14,0.05s-0.05,0.08-0.05,0.14h-0.12
					c0-0.09,0.03-0.16,0.08-0.21c0.06-0.05,0.13-0.08,0.22-0.08c0.09,0,0.16,0.02,0.21,0.07c0.05,0.05,0.08,0.11,0.08,0.18
					c0,0.09-0.06,0.2-0.18,0.33l-0.25,0.27h0.47V299.69z"/>
				<path fill="#FFFFFF" d="M5508.12,299.21l0.05-0.47h0.48v0.11h-0.38l-0.03,0.26c0.05-0.03,0.1-0.04,0.16-0.04
					c0.09,0,0.15,0.03,0.21,0.09s0.08,0.13,0.08,0.23c0,0.1-0.03,0.17-0.08,0.23c-0.05,0.06-0.13,0.08-0.22,0.08
					c-0.08,0-0.15-0.02-0.2-0.07c-0.05-0.05-0.08-0.11-0.09-0.19h0.11c0.01,0.05,0.03,0.09,0.06,0.12s0.07,0.04,0.12,0.04
					c0.06,0,0.1-0.02,0.13-0.06c0.03-0.04,0.05-0.09,0.05-0.16c0-0.06-0.02-0.11-0.05-0.15c-0.03-0.04-0.08-0.06-0.14-0.06
					c-0.05,0-0.09,0.01-0.12,0.03l-0.03,0.03L5508.12,299.21z"/>
			</g>
		</g>
	</g>
	<g>
		<g>
			<g enable-background="new    ">
				<path fill="#FFFFFF" d="M5507.93,310.86h-0.62v-0.09l0.33-0.36c0.05-0.06,0.08-0.1,0.1-0.13c0.02-0.04,0.03-0.07,0.03-0.11
					c0-0.05-0.02-0.09-0.04-0.12c-0.03-0.03-0.07-0.05-0.12-0.05c-0.06,0-0.11,0.02-0.14,0.05s-0.05,0.08-0.05,0.14h-0.12
					c0-0.09,0.03-0.16,0.08-0.21c0.06-0.05,0.13-0.08,0.22-0.08c0.09,0,0.16,0.02,0.21,0.07c0.05,0.05,0.08,0.11,0.08,0.18
					c0,0.09-0.06,0.2-0.18,0.33l-0.25,0.27h0.47V310.86z"/>
				<path fill="#FFFFFF" d="M5508.65,310.46c0,0.14-0.02,0.25-0.07,0.31c-0.05,0.07-0.12,0.1-0.22,0.1c-0.1,0-0.17-0.03-0.22-0.1
					s-0.07-0.17-0.07-0.3v-0.16c0-0.14,0.02-0.24,0.07-0.31s0.12-0.1,0.23-0.1c0.1,0,0.18,0.03,0.22,0.1
					c0.05,0.07,0.07,0.17,0.07,0.3V310.46z M5508.53,310.29c0-0.1-0.01-0.17-0.04-0.22c-0.03-0.05-0.07-0.07-0.13-0.07
					s-0.11,0.02-0.13,0.07c-0.03,0.05-0.04,0.12-0.04,0.21v0.19c0,0.1,0.01,0.18,0.04,0.23c0.03,0.05,0.07,0.07,0.13,0.07
					s0.1-0.02,0.13-0.07c0.03-0.05,0.04-0.12,0.04-0.22V310.29z"/>
			</g>
		</g>
	</g>
	<g>
		<g>
			<g enable-background="new    ">
				<path fill="#FFFFFF" d="M5507.71,321.97h-0.12v-0.8l-0.24,0.09v-0.11l0.34-0.13h0.02V321.97z"/>
				<path fill="#FFFFFF" d="M5508.12,321.5l0.05-0.47h0.48v0.11h-0.38l-0.03,0.26c0.05-0.03,0.1-0.04,0.16-0.04
					c0.09,0,0.15,0.03,0.21,0.09s0.08,0.13,0.08,0.23c0,0.1-0.03,0.17-0.08,0.23c-0.05,0.06-0.13,0.08-0.22,0.08
					c-0.08,0-0.15-0.02-0.2-0.07c-0.05-0.05-0.08-0.11-0.09-0.19h0.11c0.01,0.05,0.03,0.09,0.06,0.12s0.07,0.04,0.12,0.04
					c0.06,0,0.1-0.02,0.13-0.06c0.03-0.04,0.05-0.09,0.05-0.16c0-0.06-0.02-0.11-0.05-0.15c-0.03-0.04-0.08-0.06-0.14-0.06
					c-0.05,0-0.09,0.01-0.12,0.03l-0.03,0.03L5508.12,321.5z"/>
			</g>
		</g>
	</g>
	<g>
		<g>
			<g enable-background="new    ">
				<path fill="#FFFFFF" d="M5507.71,332.55h-0.12v-0.8l-0.24,0.09v-0.11l0.34-0.13h0.02V332.55z"/>
				<path fill="#FFFFFF" d="M5508.65,332.15c0,0.14-0.02,0.25-0.07,0.31c-0.05,0.07-0.12,0.1-0.22,0.1c-0.1,0-0.17-0.03-0.22-0.1
					s-0.07-0.17-0.07-0.3V332c0-0.14,0.02-0.24,0.07-0.31s0.12-0.1,0.23-0.1c0.1,0,0.18,0.03,0.22,0.1c0.05,0.07,0.07,0.17,0.07,0.3
					V332.15z M5508.53,331.98c0-0.1-0.01-0.17-0.04-0.22c-0.03-0.05-0.07-0.07-0.13-0.07s-0.11,0.02-0.13,0.07
					c-0.03,0.05-0.04,0.12-0.04,0.21v0.19c0,0.1,0.01,0.18,0.04,0.23c0.03,0.05,0.07,0.07,0.13,0.07s0.1-0.02,0.13-0.07
					c0.03-0.05,0.04-0.12,0.04-0.22V331.98z"/>
			</g>
		</g>
	</g>
	<g>
		<g>
			<g enable-background="new    ">
				<path fill="#FFFFFF" d="M5507.91,343.67c0,0.14-0.02,0.25-0.07,0.31c-0.05,0.07-0.12,0.1-0.22,0.1c-0.1,0-0.17-0.03-0.22-0.1
					c-0.05-0.07-0.07-0.17-0.08-0.3v-0.16c0-0.14,0.02-0.24,0.07-0.31c0.05-0.07,0.12-0.1,0.23-0.1c0.1,0,0.18,0.03,0.22,0.1
					c0.05,0.07,0.07,0.17,0.07,0.3V343.67z M5507.79,343.5c0-0.1-0.01-0.17-0.04-0.22c-0.03-0.05-0.07-0.07-0.14-0.07
					s-0.11,0.02-0.13,0.07c-0.03,0.05-0.04,0.12-0.04,0.21v0.19c0,0.1,0.01,0.18,0.04,0.23c0.03,0.05,0.07,0.07,0.13,0.07
					s0.1-0.02,0.13-0.07c0.03-0.05,0.04-0.12,0.04-0.22V343.5z"/>
				<path fill="#FFFFFF" d="M5508.12,343.6l0.05-0.47h0.48v0.11h-0.38l-0.03,0.26c0.05-0.03,0.1-0.04,0.16-0.04
					c0.09,0,0.15,0.03,0.21,0.09s0.08,0.13,0.08,0.23c0,0.1-0.03,0.17-0.08,0.23c-0.05,0.06-0.13,0.08-0.22,0.08
					c-0.08,0-0.15-0.02-0.2-0.07c-0.05-0.05-0.08-0.11-0.09-0.19h0.11c0.01,0.05,0.03,0.09,0.06,0.12s0.07,0.04,0.12,0.04
					c0.06,0,0.1-0.02,0.13-0.06c0.03-0.04,0.05-0.09,0.05-0.16c0-0.06-0.02-0.11-0.05-0.15c-0.03-0.04-0.08-0.06-0.14-0.06
					c-0.05,0-0.09,0.01-0.12,0.03l-0.03,0.03L5508.12,343.6z"/>
			</g>
		</g>
	</g>
	<g>
		<g>
			<g enable-background="new    ">
				<path fill="#FFFFFF" d="M5507.91,357.68c0,0.14-0.02,0.25-0.07,0.31c-0.05,0.07-0.12,0.1-0.22,0.1c-0.1,0-0.17-0.03-0.22-0.1
					c-0.05-0.07-0.07-0.17-0.08-0.3v-0.16c0-0.14,0.02-0.24,0.07-0.31c0.05-0.07,0.12-0.1,0.23-0.1c0.1,0,0.18,0.03,0.22,0.1
					c0.05,0.07,0.07,0.17,0.07,0.3V357.68z M5507.79,357.52c0-0.1-0.01-0.17-0.04-0.22c-0.03-0.05-0.07-0.07-0.14-0.07
					s-0.11,0.02-0.13,0.07c-0.03,0.05-0.04,0.12-0.04,0.21v0.19c0,0.1,0.01,0.18,0.04,0.23c0.03,0.05,0.07,0.07,0.13,0.07
					s0.1-0.02,0.13-0.07c0.03-0.05,0.04-0.12,0.04-0.22V357.52z"/>
			</g>
		</g>
	</g>
	<g>
		<g>
			<g enable-background="new    ">
				<path fill="#FFFFFF" d="M5527.67,361.49c0,0.14-0.02,0.25-0.07,0.31c-0.05,0.07-0.12,0.1-0.22,0.1s-0.18-0.03-0.22-0.1
					c-0.05-0.07-0.07-0.17-0.07-0.3v-0.16c0-0.14,0.02-0.24,0.07-0.31c0.05-0.07,0.12-0.1,0.22-0.1s0.18,0.03,0.22,0.1
					c0.05,0.07,0.07,0.17,0.07,0.3V361.49z M5527.55,361.33c0-0.1-0.01-0.17-0.04-0.22c-0.03-0.05-0.07-0.07-0.13-0.07
					c-0.06,0-0.11,0.02-0.13,0.07s-0.04,0.12-0.04,0.21v0.19c0,0.1,0.02,0.18,0.04,0.23c0.03,0.05,0.07,0.07,0.13,0.07
					c0.06,0,0.1-0.02,0.13-0.07c0.03-0.05,0.04-0.12,0.04-0.22V361.33z"/>
				<path fill="#FFFFFF" d="M5527.88,361.42l0.05-0.47h0.48v0.11h-0.38l-0.03,0.26c0.05-0.03,0.1-0.04,0.16-0.04
					c0.09,0,0.15,0.03,0.2,0.09c0.05,0.06,0.08,0.13,0.08,0.23c0,0.1-0.03,0.17-0.08,0.23c-0.05,0.06-0.12,0.08-0.22,0.08
					c-0.08,0-0.15-0.02-0.2-0.07c-0.05-0.05-0.08-0.11-0.09-0.19h0.11c0.01,0.05,0.03,0.09,0.06,0.12c0.03,0.03,0.07,0.04,0.12,0.04
					c0.06,0,0.1-0.02,0.13-0.06c0.03-0.04,0.05-0.09,0.05-0.16c0-0.06-0.02-0.11-0.05-0.15c-0.04-0.04-0.08-0.06-0.14-0.06
					c-0.05,0-0.09,0.01-0.12,0.03l-0.03,0.03L5527.88,361.42z"/>
			</g>
		</g>
	</g>
	<g>
		<g>
			<g enable-background="new    ">
				<path fill="#FFFFFF" d="M5541.82,361.9h-0.12v-0.8l-0.24,0.09v-0.11l0.34-0.13h0.02V361.9z"/>
				<path fill="#FFFFFF" d="M5542.76,361.49c0,0.14-0.02,0.25-0.07,0.31c-0.05,0.07-0.12,0.1-0.22,0.1c-0.1,0-0.17-0.03-0.22-0.1
					s-0.07-0.17-0.07-0.3v-0.16c0-0.14,0.02-0.24,0.07-0.31s0.12-0.1,0.23-0.1c0.1,0,0.18,0.03,0.22,0.1
					c0.05,0.07,0.07,0.17,0.07,0.3V361.49z M5542.64,361.33c0-0.1-0.01-0.17-0.04-0.22c-0.03-0.05-0.07-0.07-0.13-0.07
					s-0.11,0.02-0.13,0.07c-0.03,0.05-0.04,0.12-0.04,0.21v0.19c0,0.1,0.01,0.18,0.04,0.23c0.03,0.05,0.07,0.07,0.13,0.07
					s0.1-0.02,0.13-0.07c0.03-0.05,0.04-0.12,0.04-0.22V361.33z"/>
			</g>
		</g>
	</g>
	<g>
		<g>
			<g enable-background="new    ">
				<path fill="#FFFFFF" d="M5556.59,361.9h-0.12v-0.8l-0.24,0.09v-0.11l0.34-0.13h0.02V361.9z"/>
				<path fill="#FFFFFF" d="M5557,361.42l0.05-0.47h0.48v0.11h-0.38l-0.03,0.26c0.05-0.03,0.1-0.04,0.16-0.04
					c0.09,0,0.15,0.03,0.2,0.09c0.05,0.06,0.08,0.13,0.08,0.23c0,0.1-0.03,0.17-0.08,0.23c-0.05,0.06-0.12,0.08-0.22,0.08
					c-0.08,0-0.15-0.02-0.2-0.07c-0.05-0.05-0.08-0.11-0.09-0.19h0.11c0.01,0.05,0.03,0.09,0.06,0.12c0.03,0.03,0.07,0.04,0.12,0.04
					c0.06,0,0.1-0.02,0.13-0.06c0.03-0.04,0.05-0.09,0.05-0.16c0-0.06-0.02-0.11-0.05-0.15c-0.04-0.04-0.08-0.06-0.14-0.06
					c-0.05,0-0.09,0.01-0.12,0.03l-0.03,0.03L5557,361.42z"/>
			</g>
		</g>
	</g>
	<g>
		<g>
			<g enable-background="new    ">
				<path fill="#FFFFFF" d="M5571.49,361.9h-0.62v-0.09l0.33-0.36c0.05-0.06,0.08-0.1,0.1-0.13c0.02-0.04,0.03-0.07,0.03-0.11
					c0-0.05-0.01-0.09-0.04-0.12c-0.03-0.03-0.07-0.05-0.12-0.05c-0.06,0-0.11,0.02-0.14,0.05s-0.05,0.08-0.05,0.14h-0.12
					c0-0.09,0.03-0.16,0.08-0.21c0.06-0.05,0.13-0.08,0.22-0.08c0.09,0,0.16,0.02,0.21,0.07s0.08,0.11,0.08,0.18
					c0,0.09-0.06,0.2-0.18,0.33l-0.25,0.27h0.47V361.9z"/>
				<path fill="#FFFFFF" d="M5572.21,361.49c0,0.14-0.02,0.25-0.07,0.31c-0.05,0.07-0.12,0.1-0.22,0.1c-0.1,0-0.18-0.03-0.22-0.1
					s-0.07-0.17-0.08-0.3v-0.16c0-0.14,0.02-0.24,0.07-0.31s0.12-0.1,0.22-0.1s0.18,0.03,0.22,0.1c0.05,0.07,0.07,0.17,0.07,0.3
					V361.49z M5572.09,361.33c0-0.1-0.01-0.17-0.04-0.22c-0.03-0.05-0.07-0.07-0.14-0.07c-0.06,0-0.11,0.02-0.13,0.07
					c-0.03,0.05-0.04,0.12-0.04,0.21v0.19c0,0.1,0.01,0.18,0.04,0.23c0.03,0.05,0.07,0.07,0.13,0.07c0.06,0,0.1-0.02,0.13-0.07
					s0.04-0.12,0.04-0.22V361.33z"/>
			</g>
		</g>
	</g>
	<g>
		<g>
			<g enable-background="new    ">
				<path fill="#FFFFFF" d="M5586.34,361.9h-0.62v-0.09l0.33-0.36c0.05-0.06,0.08-0.1,0.1-0.13c0.02-0.04,0.03-0.07,0.03-0.11
					c0-0.05-0.02-0.09-0.04-0.12c-0.03-0.03-0.07-0.05-0.12-0.05c-0.06,0-0.11,0.02-0.14,0.05s-0.05,0.08-0.05,0.14h-0.12
					c0-0.09,0.03-0.16,0.08-0.21c0.06-0.05,0.13-0.08,0.22-0.08c0.09,0,0.16,0.02,0.21,0.07c0.05,0.05,0.08,0.11,0.08,0.18
					c0,0.09-0.06,0.2-0.18,0.33l-0.25,0.27h0.47V361.9z"/>
				<path fill="#FFFFFF" d="M5586.52,361.42l0.05-0.47h0.48v0.11h-0.38l-0.03,0.26c0.05-0.03,0.1-0.04,0.16-0.04
					c0.09,0,0.15,0.03,0.21,0.09s0.08,0.13,0.08,0.23c0,0.1-0.03,0.17-0.08,0.23c-0.05,0.06-0.13,0.08-0.22,0.08
					c-0.08,0-0.15-0.02-0.2-0.07c-0.05-0.05-0.08-0.11-0.09-0.19h0.11c0.01,0.05,0.03,0.09,0.06,0.12s0.07,0.04,0.12,0.04
					c0.06,0,0.1-0.02,0.13-0.06c0.03-0.04,0.05-0.09,0.05-0.16c0-0.06-0.02-0.11-0.05-0.15c-0.03-0.04-0.08-0.06-0.14-0.06
					c-0.05,0-0.09,0.01-0.12,0.03l-0.03,0.03L5586.52,361.42z"/>
			</g>
		</g>
	</g>
	<g>
		<g>
			<g enable-background="new    ">
				<path fill="#FFFFFF" d="M5600.41,361.37h0.09c0.06,0,0.1-0.02,0.13-0.04c0.03-0.03,0.05-0.07,0.05-0.12
					c0-0.11-0.05-0.17-0.16-0.17c-0.05,0-0.09,0.01-0.12,0.04c-0.03,0.03-0.05,0.07-0.05,0.12h-0.12c0-0.08,0.03-0.14,0.08-0.19
					c0.05-0.05,0.12-0.07,0.21-0.07c0.09,0,0.16,0.02,0.21,0.07c0.05,0.05,0.08,0.11,0.08,0.2c0,0.04-0.01,0.08-0.04,0.12
					c-0.03,0.04-0.06,0.07-0.11,0.09c0.05,0.02,0.09,0.04,0.12,0.08c0.03,0.04,0.04,0.08,0.04,0.14c0,0.08-0.03,0.15-0.08,0.2
					s-0.13,0.07-0.22,0.07c-0.09,0-0.16-0.02-0.22-0.07s-0.08-0.11-0.08-0.19h0.12c0,0.05,0.02,0.09,0.05,0.12
					c0.03,0.03,0.08,0.04,0.13,0.04c0.06,0,0.1-0.01,0.13-0.04s0.05-0.07,0.05-0.13c0-0.05-0.02-0.1-0.05-0.13
					c-0.03-0.03-0.08-0.04-0.15-0.04h-0.09V361.37z"/>
				<path fill="#FFFFFF" d="M5601.57,361.49c0,0.14-0.02,0.25-0.07,0.31c-0.05,0.07-0.12,0.1-0.22,0.1c-0.1,0-0.18-0.03-0.22-0.1
					s-0.07-0.17-0.08-0.3v-0.16c0-0.14,0.02-0.24,0.07-0.31s0.12-0.1,0.22-0.1s0.18,0.03,0.22,0.1c0.05,0.07,0.07,0.17,0.07,0.3
					V361.49z M5601.45,361.33c0-0.1-0.01-0.17-0.04-0.22c-0.03-0.05-0.07-0.07-0.14-0.07c-0.06,0-0.11,0.02-0.13,0.07
					c-0.03,0.05-0.04,0.12-0.04,0.21v0.19c0,0.1,0.01,0.18,0.04,0.23c0.03,0.05,0.07,0.07,0.13,0.07c0.06,0,0.1-0.02,0.13-0.07
					s0.04-0.12,0.04-0.22V361.33z"/>
			</g>
		</g>
	</g>
	<g>
		<g>
			<g enable-background="new    ">
				<path fill="#FFFFFF" d="M5615.14,361.37h0.09c0.06,0,0.1-0.02,0.13-0.04c0.03-0.03,0.05-0.07,0.05-0.12
					c0-0.11-0.06-0.17-0.17-0.17c-0.05,0-0.09,0.01-0.12,0.04c-0.03,0.03-0.05,0.07-0.05,0.12h-0.12c0-0.08,0.03-0.14,0.08-0.19
					c0.05-0.05,0.12-0.07,0.21-0.07c0.09,0,0.16,0.02,0.21,0.07c0.05,0.05,0.08,0.11,0.08,0.2c0,0.04-0.01,0.08-0.04,0.12
					c-0.03,0.04-0.06,0.07-0.11,0.09c0.05,0.02,0.09,0.04,0.12,0.08c0.03,0.04,0.04,0.08,0.04,0.14c0,0.08-0.03,0.15-0.08,0.2
					s-0.13,0.07-0.22,0.07s-0.16-0.02-0.22-0.07s-0.08-0.11-0.08-0.19h0.12c0,0.05,0.02,0.09,0.05,0.12
					c0.03,0.03,0.08,0.04,0.13,0.04c0.06,0,0.1-0.01,0.13-0.04s0.05-0.07,0.05-0.13c0-0.05-0.02-0.1-0.05-0.13
					c-0.03-0.03-0.08-0.04-0.14-0.04h-0.09V361.37z"/>
				<path fill="#FFFFFF" d="M5615.77,361.42l0.05-0.47h0.48v0.11h-0.38l-0.03,0.26c0.05-0.03,0.1-0.04,0.16-0.04
					c0.09,0,0.15,0.03,0.21,0.09s0.08,0.13,0.08,0.23c0,0.1-0.03,0.17-0.08,0.23c-0.05,0.06-0.13,0.08-0.22,0.08
					c-0.08,0-0.15-0.02-0.2-0.07c-0.05-0.05-0.08-0.11-0.09-0.19h0.11c0.01,0.05,0.03,0.09,0.06,0.12s0.07,0.04,0.12,0.04
					c0.06,0,0.1-0.02,0.13-0.06c0.03-0.04,0.05-0.09,0.05-0.16c0-0.06-0.02-0.11-0.05-0.15c-0.03-0.04-0.08-0.06-0.14-0.06
					c-0.05,0-0.09,0.01-0.12,0.03l-0.03,0.03L5615.77,361.42z"/>
			</g>
		</g>
	</g>
	<g>
		<g>
			<g enable-background="new    ">
				<path fill="#FFFFFF" d="M5507.49,288.49h0.09c0.06,0,0.1-0.02,0.13-0.04c0.03-0.03,0.05-0.07,0.05-0.12
					c0-0.11-0.06-0.17-0.17-0.17c-0.05,0-0.09,0.01-0.12,0.04c-0.03,0.03-0.05,0.07-0.05,0.12h-0.12c0-0.08,0.03-0.14,0.08-0.19
					c0.05-0.05,0.12-0.07,0.21-0.07c0.09,0,0.16,0.02,0.21,0.07c0.05,0.05,0.08,0.11,0.08,0.2c0,0.04-0.01,0.08-0.04,0.12
					c-0.03,0.04-0.06,0.07-0.11,0.09c0.05,0.02,0.09,0.04,0.12,0.08c0.03,0.04,0.04,0.08,0.04,0.14c0,0.08-0.03,0.15-0.08,0.2
					s-0.13,0.07-0.22,0.07s-0.16-0.02-0.22-0.07s-0.08-0.11-0.08-0.19h0.12c0,0.05,0.02,0.09,0.05,0.12
					c0.03,0.03,0.08,0.04,0.13,0.04c0.06,0,0.1-0.01,0.13-0.04s0.05-0.07,0.05-0.13c0-0.05-0.02-0.1-0.05-0.13
					c-0.03-0.03-0.08-0.04-0.14-0.04h-0.09V288.49z"/>
				<path fill="#FFFFFF" d="M5508.65,288.62c0,0.14-0.02,0.25-0.07,0.31c-0.05,0.07-0.12,0.1-0.22,0.1c-0.1,0-0.17-0.03-0.22-0.1
					s-0.07-0.17-0.07-0.3v-0.16c0-0.14,0.02-0.24,0.07-0.31s0.12-0.1,0.23-0.1c0.1,0,0.18,0.03,0.22,0.1
					c0.05,0.07,0.07,0.17,0.07,0.3V288.62z M5508.53,288.45c0-0.1-0.01-0.17-0.04-0.22c-0.03-0.05-0.07-0.07-0.13-0.07
					s-0.11,0.02-0.13,0.07c-0.03,0.05-0.04,0.12-0.04,0.21v0.19c0,0.1,0.01,0.18,0.04,0.23c0.03,0.05,0.07,0.07,0.13,0.07
					s0.1-0.02,0.13-0.07c0.03-0.05,0.04-0.12,0.04-0.22V288.45z"/>
			</g>
		</g>
	</g>
	<g>
		<g>
			<g enable-background="new    ">
				<path fill="#FFFFFF" d="M5511.32,288.55l0.25-0.47h0.14l-0.32,0.59v0.35h-0.12v-0.35l-0.32-0.59h0.14L5511.32,288.55z"/>
				<path fill="#FFFFFF" d="M5512.68,288.77h-0.39l-0.09,0.25h-0.13l0.36-0.94h0.11l0.36,0.94h-0.13L5512.68,288.77z
					 M5512.32,288.67h0.32l-0.16-0.44L5512.32,288.67z"/>
				<path fill="#FFFFFF" d="M5513.24,288.58l0.16-0.25h0.14l-0.23,0.35l0.24,0.35h-0.14l-0.16-0.26l-0.16,0.26h-0.14l0.24-0.35
					l-0.23-0.35h0.14L5513.24,288.58z"/>
				<path fill="#FFFFFF" d="M5513.67,288.13c0-0.02,0.01-0.04,0.02-0.05s0.03-0.02,0.05-0.02s0.04,0.01,0.05,0.02
					s0.02,0.03,0.02,0.05s-0.01,0.04-0.02,0.05s-0.03,0.02-0.05,0.02s-0.04-0.01-0.05-0.02S5513.67,288.15,5513.67,288.13z
					 M5513.79,289.02h-0.12v-0.7h0.12V289.02z"/>
				<path fill="#FFFFFF" d="M5514.39,288.84c0-0.03-0.01-0.06-0.04-0.08c-0.02-0.02-0.07-0.03-0.13-0.05s-0.11-0.03-0.14-0.05
					c-0.04-0.02-0.06-0.04-0.08-0.06s-0.03-0.05-0.03-0.09c0-0.06,0.02-0.11,0.07-0.15c0.05-0.04,0.11-0.06,0.19-0.06
					c0.08,0,0.14,0.02,0.19,0.06c0.05,0.04,0.07,0.09,0.07,0.16h-0.12c0-0.03-0.01-0.06-0.04-0.08c-0.03-0.02-0.06-0.04-0.11-0.04
					s-0.08,0.01-0.1,0.03c-0.03,0.02-0.04,0.04-0.04,0.08c0,0.03,0.01,0.05,0.03,0.06c0.02,0.02,0.06,0.03,0.12,0.04
					c0.06,0.01,0.11,0.03,0.14,0.05s0.07,0.04,0.08,0.07c0.02,0.03,0.03,0.06,0.03,0.1c0,0.06-0.02,0.11-0.07,0.15
					c-0.05,0.04-0.12,0.06-0.2,0.06c-0.06,0-0.11-0.01-0.15-0.03c-0.04-0.02-0.08-0.05-0.1-0.08c-0.02-0.04-0.04-0.07-0.04-0.12
					h0.12c0,0.04,0.02,0.07,0.05,0.1c0.03,0.02,0.07,0.04,0.12,0.04c0.04,0,0.08-0.01,0.11-0.03S5514.39,288.87,5514.39,288.84z"/>
				<path fill="#FFFFFF" d="M5514.67,288.96c0-0.02,0.01-0.04,0.02-0.05c0.01-0.01,0.03-0.02,0.06-0.02c0.02,0,0.04,0.01,0.06,0.02
					c0.01,0.01,0.02,0.03,0.02,0.05c0,0.02-0.01,0.04-0.02,0.05c-0.01,0.01-0.03,0.02-0.06,0.02c-0.03,0-0.04-0.01-0.06-0.02
					C5514.67,288.99,5514.67,288.98,5514.67,288.96z M5514.67,288.39c0-0.02,0.01-0.04,0.02-0.05s0.03-0.02,0.05-0.02
					c0.03,0,0.04,0.01,0.06,0.02s0.02,0.03,0.02,0.05s-0.01,0.04-0.02,0.05c-0.01,0.01-0.03,0.02-0.06,0.02
					c-0.02,0-0.04-0.01-0.05-0.02C5514.67,288.42,5514.67,288.41,5514.67,288.39z"/>
				<path fill="#FFFFFF" d="M5515.5,288.08l0.31,0.77l0.31-0.77h0.16v0.94h-0.12v-0.37l0.01-0.4l-0.31,0.76h-0.09l-0.31-0.76
					l0.01,0.39v0.37h-0.12v-0.94H5515.5z"/>
				<path fill="#FFFFFF" d="M5516.48,288.13c0-0.02,0.01-0.04,0.02-0.05s0.03-0.02,0.05-0.02s0.04,0.01,0.05,0.02
					c0.01,0.01,0.02,0.03,0.02,0.05s-0.01,0.04-0.02,0.05c-0.01,0.01-0.03,0.02-0.05,0.02s-0.04-0.01-0.05-0.02
					S5516.48,288.15,5516.48,288.13z M5516.61,289.02h-0.12v-0.7h0.12V289.02z"/>
				<path fill="#FFFFFF" d="M5517.08,288.94c0.04,0,0.08-0.01,0.11-0.04c0.03-0.03,0.05-0.06,0.05-0.1h0.11
					c0,0.04-0.02,0.08-0.04,0.11c-0.03,0.04-0.06,0.07-0.1,0.09s-0.09,0.03-0.14,0.03c-0.09,0-0.17-0.03-0.23-0.1
					c-0.06-0.06-0.08-0.15-0.08-0.26v-0.02c0-0.07,0.01-0.13,0.04-0.18c0.02-0.05,0.06-0.09,0.11-0.12s0.1-0.04,0.17-0.04
					c0.08,0,0.14,0.02,0.2,0.07c0.05,0.05,0.08,0.11,0.08,0.18h-0.11c0-0.04-0.02-0.08-0.05-0.11s-0.07-0.04-0.11-0.04
					c-0.06,0-0.11,0.02-0.14,0.07c-0.03,0.04-0.05,0.11-0.05,0.19v0.02c0,0.08,0.02,0.14,0.05,0.19
					C5516.97,288.91,5517.02,288.94,5517.08,288.94z"/>
				<path fill="#FFFFFF" d="M5517.83,288.43c-0.02,0-0.04,0-0.06,0c-0.08,0-0.13,0.03-0.16,0.1v0.5h-0.12v-0.7h0.12l0,0.08
					c0.04-0.06,0.1-0.09,0.17-0.09c0.02,0,0.04,0,0.05,0.01V288.43z"/>
				<path fill="#FFFFFF" d="M5517.9,288.66c0-0.07,0.01-0.13,0.04-0.19c0.03-0.05,0.06-0.1,0.11-0.13c0.05-0.03,0.1-0.04,0.17-0.04
					c0.09,0,0.17,0.03,0.23,0.1c0.06,0.07,0.09,0.15,0.09,0.26v0.01c0,0.07-0.01,0.13-0.04,0.18c-0.03,0.05-0.06,0.1-0.11,0.13
					s-0.1,0.04-0.17,0.04c-0.09,0-0.17-0.03-0.23-0.1C5517.93,288.87,5517.9,288.78,5517.9,288.66L5517.9,288.66z M5518.02,288.68
					c0,0.08,0.02,0.14,0.05,0.19s0.08,0.07,0.14,0.07s0.11-0.02,0.14-0.07c0.04-0.05,0.05-0.11,0.05-0.2c0-0.08-0.02-0.14-0.05-0.19
					c-0.04-0.05-0.08-0.07-0.15-0.07c-0.06,0-0.11,0.02-0.14,0.07C5518.04,288.52,5518.02,288.59,5518.02,288.68z"/>
				<path fill="#FFFFFF" d="M5518.97,288.94c0.04,0,0.08-0.01,0.11-0.04c0.03-0.03,0.05-0.06,0.05-0.1h0.11
					c0,0.04-0.02,0.08-0.04,0.11s-0.06,0.07-0.1,0.09s-0.09,0.03-0.13,0.03c-0.1,0-0.17-0.03-0.23-0.1
					c-0.06-0.06-0.08-0.15-0.08-0.26v-0.02c0-0.07,0.01-0.13,0.04-0.18c0.03-0.05,0.06-0.09,0.11-0.12s0.1-0.04,0.17-0.04
					c0.08,0,0.14,0.02,0.2,0.07c0.05,0.05,0.08,0.11,0.08,0.18h-0.11c0-0.04-0.02-0.08-0.05-0.11s-0.07-0.04-0.11-0.04
					c-0.06,0-0.11,0.02-0.14,0.07c-0.03,0.04-0.05,0.11-0.05,0.19v0.02c0,0.08,0.02,0.14,0.05,0.19
					C5518.86,288.91,5518.9,288.94,5518.97,288.94z"/>
				<path fill="#FFFFFF" d="M5519.61,288.84l0.16-0.52h0.13l-0.28,0.81c-0.04,0.12-0.11,0.17-0.21,0.17l-0.02,0l-0.04-0.01v-0.1
					l0.03,0c0.04,0,0.07-0.01,0.09-0.02s0.04-0.05,0.06-0.09l0.03-0.07l-0.25-0.69h0.13L5519.61,288.84z"/>
				<path fill="#FFFFFF" d="M5520.42,288.84c0-0.03-0.01-0.06-0.04-0.08c-0.03-0.02-0.07-0.03-0.13-0.05s-0.11-0.03-0.14-0.05
					c-0.04-0.02-0.06-0.04-0.08-0.06s-0.03-0.05-0.03-0.09c0-0.06,0.02-0.11,0.07-0.15c0.05-0.04,0.11-0.06,0.19-0.06
					c0.08,0,0.14,0.02,0.19,0.06s0.07,0.09,0.07,0.16h-0.12c0-0.03-0.01-0.06-0.04-0.08c-0.03-0.02-0.06-0.04-0.11-0.04
					c-0.04,0-0.08,0.01-0.1,0.03c-0.02,0.02-0.04,0.04-0.04,0.08c0,0.03,0.01,0.05,0.04,0.06c0.02,0.02,0.06,0.03,0.12,0.04
					c0.06,0.01,0.11,0.03,0.15,0.05s0.06,0.04,0.08,0.07c0.02,0.03,0.03,0.06,0.03,0.1c0,0.06-0.03,0.11-0.08,0.15
					c-0.05,0.04-0.12,0.06-0.2,0.06c-0.06,0-0.11-0.01-0.15-0.03c-0.04-0.02-0.08-0.05-0.1-0.08c-0.02-0.04-0.04-0.07-0.04-0.12
					h0.12c0,0.04,0.02,0.07,0.05,0.1c0.03,0.02,0.07,0.04,0.12,0.04c0.05,0,0.08-0.01,0.11-0.03S5520.42,288.87,5520.42,288.84z"/>
				<path fill="#FFFFFF" d="M5520.85,288.15v0.17h0.13v0.09h-0.13v0.44c0,0.03,0.01,0.05,0.02,0.06c0.01,0.01,0.03,0.02,0.06,0.02
					c0.01,0,0.03,0,0.06-0.01v0.1c-0.03,0.01-0.06,0.01-0.09,0.01c-0.05,0-0.09-0.02-0.12-0.05c-0.03-0.03-0.04-0.08-0.04-0.14
					v-0.43h-0.13v-0.09h0.13v-0.17H5520.85z"/>
				<path fill="#FFFFFF" d="M5521.12,288.13c0-0.02,0.01-0.04,0.02-0.05s0.03-0.02,0.05-0.02s0.04,0.01,0.05,0.02
					c0.01,0.01,0.02,0.03,0.02,0.05s-0.01,0.04-0.02,0.05c-0.01,0.01-0.03,0.02-0.05,0.02s-0.04-0.01-0.05-0.02
					S5521.12,288.15,5521.12,288.13z M5521.25,289.02h-0.12v-0.7h0.12V289.02z"/>
				<path fill="#FFFFFF" d="M5521.73,288.94c0.04,0,0.08-0.01,0.11-0.04c0.03-0.03,0.05-0.06,0.05-0.1h0.11
					c0,0.04-0.02,0.08-0.04,0.11c-0.03,0.04-0.06,0.07-0.1,0.09s-0.09,0.03-0.14,0.03c-0.09,0-0.17-0.03-0.23-0.1
					c-0.06-0.06-0.08-0.15-0.08-0.26v-0.02c0-0.07,0.01-0.13,0.04-0.18c0.02-0.05,0.06-0.09,0.11-0.12s0.1-0.04,0.17-0.04
					c0.08,0,0.14,0.02,0.2,0.07c0.05,0.05,0.08,0.11,0.08,0.18h-0.11c0-0.04-0.02-0.08-0.05-0.11s-0.07-0.04-0.11-0.04
					c-0.06,0-0.11,0.02-0.14,0.07c-0.03,0.04-0.05,0.11-0.05,0.19v0.02c0,0.08,0.02,0.14,0.05,0.19
					C5521.62,288.91,5521.67,288.94,5521.73,288.94z"/>
				<path fill="#FFFFFF" d="M5522.49,289.02v-0.94h0.31c0.1,0,0.18,0.02,0.23,0.06c0.05,0.04,0.08,0.1,0.08,0.19
					c0,0.04-0.01,0.08-0.04,0.12c-0.03,0.03-0.06,0.06-0.1,0.08c0.05,0.01,0.09,0.04,0.12,0.08s0.04,0.09,0.04,0.14
					c0,0.08-0.03,0.15-0.08,0.2c-0.05,0.05-0.13,0.07-0.23,0.07H5522.49z M5522.61,288.48h0.19c0.05,0,0.1-0.01,0.13-0.04
					c0.03-0.03,0.05-0.06,0.05-0.11c0-0.05-0.02-0.09-0.04-0.11c-0.03-0.02-0.08-0.04-0.14-0.04h-0.18V288.48z M5522.61,288.58v0.34
					h0.21c0.06,0,0.1-0.01,0.14-0.04s0.05-0.07,0.05-0.12c0-0.11-0.06-0.17-0.19-0.17H5522.61z"/>
				<path fill="#FFFFFF" d="M5523.29,288.13c0-0.02,0.01-0.04,0.02-0.05s0.03-0.02,0.05-0.02s0.04,0.01,0.05,0.02
					s0.02,0.03,0.02,0.05s-0.01,0.04-0.02,0.05s-0.03,0.02-0.05,0.02s-0.04-0.01-0.05-0.02S5523.29,288.15,5523.29,288.13z
					 M5523.42,289.02h-0.12v-0.7h0.12V289.02z"/>
				<path fill="#FFFFFF" d="M5523.58,288.66c0-0.07,0.01-0.13,0.04-0.19c0.03-0.05,0.06-0.1,0.11-0.13c0.05-0.03,0.1-0.04,0.17-0.04
					c0.09,0,0.17,0.03,0.23,0.1c0.06,0.07,0.09,0.15,0.09,0.26v0.01c0,0.07-0.01,0.13-0.04,0.18c-0.03,0.05-0.06,0.1-0.11,0.13
					s-0.1,0.04-0.17,0.04c-0.09,0-0.17-0.03-0.23-0.1C5523.61,288.87,5523.58,288.78,5523.58,288.66L5523.58,288.66z M5523.7,288.68
					c0,0.08,0.02,0.14,0.05,0.19c0.04,0.05,0.08,0.07,0.14,0.07c0.06,0,0.11-0.02,0.15-0.07s0.05-0.11,0.05-0.2
					c0-0.08-0.02-0.14-0.05-0.19c-0.04-0.05-0.08-0.07-0.14-0.07c-0.06,0-0.11,0.02-0.14,0.07
					C5523.72,288.52,5523.7,288.59,5523.7,288.68z"/>
				<path fill="#FFFFFF" d="M5524.48,288.32l0,0.08c0.05-0.06,0.12-0.09,0.21-0.09c0.1,0,0.17,0.04,0.2,0.11
					c0.02-0.03,0.05-0.06,0.09-0.08s0.08-0.03,0.13-0.03c0.15,0,0.23,0.08,0.23,0.24v0.47h-0.12v-0.46c0-0.05-0.01-0.09-0.04-0.11
					c-0.02-0.03-0.06-0.04-0.12-0.04c-0.04,0-0.08,0.01-0.11,0.04c-0.03,0.03-0.05,0.06-0.05,0.11v0.46h-0.12v-0.46
					c0-0.1-0.05-0.15-0.15-0.15c-0.08,0-0.13,0.03-0.16,0.1v0.51h-0.12v-0.7H5524.48z"/>
				<path fill="#FFFFFF" d="M5525.97,289.02c-0.01-0.01-0.01-0.04-0.02-0.07c-0.05,0.06-0.12,0.09-0.2,0.09
					c-0.07,0-0.12-0.02-0.17-0.06c-0.04-0.04-0.07-0.09-0.07-0.15c0-0.07,0.03-0.13,0.08-0.17c0.05-0.04,0.13-0.06,0.23-0.06h0.12
					v-0.05c0-0.04-0.01-0.08-0.04-0.1c-0.03-0.02-0.06-0.04-0.11-0.04c-0.04,0-0.08,0.01-0.11,0.03c-0.03,0.02-0.04,0.05-0.04,0.08
					h-0.12c0-0.03,0.01-0.07,0.04-0.1c0.02-0.03,0.06-0.06,0.1-0.08c0.04-0.02,0.09-0.03,0.14-0.03c0.08,0,0.14,0.02,0.19,0.06
					c0.05,0.04,0.07,0.1,0.07,0.17v0.32c0,0.06,0.01,0.12,0.02,0.15v0.01H5525.97z M5525.77,288.93c0.04,0,0.07-0.01,0.11-0.03
					c0.03-0.02,0.06-0.04,0.07-0.08v-0.14h-0.09c-0.15,0-0.22,0.04-0.22,0.13c0,0.04,0.01,0.07,0.04,0.09
					C5525.7,288.92,5525.73,288.93,5525.77,288.93z"/>
				<path fill="#FFFFFF" d="M5526.66,288.84c0-0.03-0.01-0.06-0.04-0.08c-0.02-0.02-0.07-0.03-0.13-0.05s-0.11-0.03-0.14-0.05
					c-0.04-0.02-0.06-0.04-0.08-0.06c-0.02-0.03-0.03-0.05-0.03-0.09c0-0.06,0.03-0.11,0.07-0.15c0.05-0.04,0.11-0.06,0.19-0.06
					c0.08,0,0.14,0.02,0.19,0.06c0.05,0.04,0.07,0.09,0.07,0.16h-0.12c0-0.03-0.01-0.06-0.04-0.08c-0.03-0.02-0.06-0.04-0.11-0.04
					c-0.04,0-0.08,0.01-0.1,0.03c-0.02,0.02-0.04,0.04-0.04,0.08c0,0.03,0.01,0.05,0.03,0.06c0.02,0.02,0.06,0.03,0.12,0.04
					c0.06,0.01,0.11,0.03,0.14,0.05s0.06,0.04,0.08,0.07c0.02,0.03,0.03,0.06,0.03,0.1c0,0.06-0.03,0.11-0.07,0.15
					c-0.05,0.04-0.12,0.06-0.2,0.06c-0.06,0-0.11-0.01-0.15-0.03c-0.04-0.02-0.08-0.05-0.1-0.08c-0.03-0.04-0.04-0.07-0.04-0.12
					h0.12c0,0.04,0.02,0.07,0.05,0.1c0.03,0.02,0.07,0.04,0.12,0.04c0.04,0,0.08-0.01,0.11-0.03S5526.66,288.87,5526.66,288.84z"/>
				<path fill="#FFFFFF" d="M5527.35,288.84c0-0.03-0.01-0.06-0.04-0.08c-0.02-0.02-0.07-0.03-0.13-0.05s-0.11-0.03-0.14-0.05
					c-0.04-0.02-0.06-0.04-0.08-0.06c-0.02-0.03-0.03-0.05-0.03-0.09c0-0.06,0.03-0.11,0.07-0.15c0.05-0.04,0.11-0.06,0.19-0.06
					c0.08,0,0.14,0.02,0.19,0.06c0.05,0.04,0.07,0.09,0.07,0.16h-0.12c0-0.03-0.01-0.06-0.04-0.08c-0.03-0.02-0.06-0.04-0.11-0.04
					c-0.04,0-0.08,0.01-0.1,0.03c-0.02,0.02-0.04,0.04-0.04,0.08c0,0.03,0.01,0.05,0.03,0.06c0.02,0.02,0.06,0.03,0.12,0.04
					c0.06,0.01,0.11,0.03,0.14,0.05s0.06,0.04,0.08,0.07c0.02,0.03,0.03,0.06,0.03,0.1c0,0.06-0.03,0.11-0.07,0.15
					c-0.05,0.04-0.12,0.06-0.2,0.06c-0.06,0-0.11-0.01-0.15-0.03c-0.04-0.02-0.08-0.05-0.1-0.08c-0.03-0.04-0.04-0.07-0.04-0.12
					h0.12c0,0.04,0.02,0.07,0.05,0.1c0.03,0.02,0.07,0.04,0.12,0.04c0.04,0,0.08-0.01,0.11-0.03S5527.35,288.87,5527.35,288.84z"/>
			</g>
			<g enable-background="new    ">
				<path fill="#FFFFFF" d="M5511.7,290.07v0.64c0,0.09-0.03,0.16-0.08,0.22c-0.06,0.06-0.13,0.09-0.23,0.1l-0.03,0
					c-0.1,0-0.19-0.03-0.25-0.08c-0.06-0.06-0.09-0.13-0.09-0.23v-0.64h0.12v0.64c0,0.07,0.02,0.12,0.06,0.16s0.09,0.06,0.16,0.06
					c0.07,0,0.12-0.02,0.16-0.06c0.04-0.04,0.06-0.09,0.06-0.16v-0.64H5511.7z"/>
				<path fill="#FFFFFF" d="M5511.99,290.31l0,0.09c0.05-0.07,0.12-0.1,0.21-0.1c0.15,0,0.22,0.08,0.22,0.25v0.46h-0.12v-0.46
					c0-0.05-0.01-0.09-0.03-0.11c-0.02-0.02-0.06-0.04-0.11-0.04c-0.04,0-0.07,0.01-0.1,0.03s-0.05,0.05-0.07,0.08v0.5h-0.12v-0.7
					H5511.99z"/>
				<path fill="#FFFFFF" d="M5512.61,290.12c0-0.02,0.01-0.04,0.02-0.05c0.01-0.01,0.03-0.02,0.05-0.02c0.02,0,0.04,0.01,0.05,0.02
					s0.02,0.03,0.02,0.05s-0.01,0.04-0.02,0.05s-0.03,0.02-0.05,0.02c-0.02,0-0.04-0.01-0.05-0.02
					C5512.62,290.16,5512.61,290.14,5512.61,290.12z M5512.74,291.01h-0.12v-0.7h0.12V291.01z"/>
				<path fill="#FFFFFF" d="M5513.09,290.14v0.17h0.13v0.09h-0.13v0.44c0,0.03,0.01,0.05,0.02,0.06c0.01,0.01,0.03,0.02,0.06,0.02
					c0.01,0,0.03,0,0.06-0.01v0.1c-0.03,0.01-0.06,0.01-0.09,0.01c-0.05,0-0.09-0.02-0.12-0.05c-0.03-0.03-0.04-0.08-0.04-0.14
					v-0.43h-0.13v-0.09h0.13v-0.17H5513.09z"/>
				<path fill="#FFFFFF" d="M5513.36,290.38c0-0.02,0.01-0.04,0.02-0.05s0.03-0.02,0.06-0.02c0.02,0,0.04,0.01,0.06,0.02
					s0.02,0.03,0.02,0.05s-0.01,0.04-0.02,0.05c-0.01,0.01-0.03,0.02-0.06,0.02c-0.03,0-0.04-0.01-0.06-0.02
					C5513.37,290.41,5513.36,290.4,5513.36,290.38z M5513.36,290.95c0-0.02,0.01-0.04,0.02-0.05c0.01-0.01,0.03-0.02,0.06-0.02
					s0.04,0.01,0.06,0.02c0.01,0.01,0.02,0.03,0.02,0.05c0,0.02-0.01,0.04-0.02,0.05c-0.01,0.01-0.03,0.02-0.06,0.02
					s-0.04-0.01-0.06-0.02C5513.37,290.98,5513.36,290.97,5513.36,290.95z"/>
				<path fill="#FFFFFF" d="M5514.13,290.31l0,0.08c0.05-0.06,0.12-0.09,0.21-0.09c0.1,0,0.16,0.04,0.2,0.11
					c0.02-0.03,0.05-0.06,0.09-0.08s0.08-0.03,0.13-0.03c0.15,0,0.23,0.08,0.23,0.24v0.47h-0.12v-0.46c0-0.05-0.01-0.09-0.03-0.11
					c-0.02-0.03-0.06-0.04-0.12-0.04c-0.04,0-0.08,0.01-0.11,0.04s-0.05,0.06-0.05,0.11v0.46h-0.12v-0.46c0-0.1-0.05-0.15-0.15-0.15
					c-0.08,0-0.13,0.03-0.16,0.1v0.51h-0.12v-0.7H5514.13z"/>
				<path fill="#FFFFFF" d="M5515.15,290.65c0-0.11,0.03-0.2,0.08-0.26c0.05-0.06,0.12-0.1,0.2-0.1c0.09,0,0.15,0.03,0.2,0.09
					l0.01-0.08h0.11v0.68c0,0.09-0.03,0.16-0.08,0.21c-0.05,0.05-0.12,0.08-0.22,0.08c-0.05,0-0.1-0.01-0.15-0.03
					s-0.08-0.05-0.11-0.09l0.06-0.07c0.05,0.06,0.11,0.09,0.19,0.09c0.06,0,0.1-0.02,0.14-0.05c0.03-0.03,0.05-0.08,0.05-0.14v-0.06
					c-0.05,0.06-0.11,0.08-0.2,0.08c-0.08,0-0.15-0.03-0.2-0.1C5515.17,290.86,5515.15,290.77,5515.15,290.65z M5515.27,290.67
					c0,0.08,0.02,0.14,0.05,0.19c0.03,0.04,0.08,0.07,0.14,0.07c0.08,0,0.13-0.03,0.17-0.1v-0.32c-0.04-0.07-0.09-0.1-0.17-0.1
					c-0.06,0-0.1,0.02-0.14,0.07S5515.27,290.58,5515.27,290.67z"/>
				<path fill="#FFFFFF" d="M5516.38,291.01h-0.12v-0.99h0.12V291.01z"/>
			</g>
			<g enable-background="new    ">
				<path fill="#FFFFFF" d="M5517.4,290.36h-0.19v-0.06h0.19V290.36z"/>
				<path fill="#FFFFFF" d="M5517.69,290.57h-0.07v-0.47l-0.14,0.05v-0.06l0.2-0.08h0.01V290.57z"/>
			</g>
		</g>
	</g>
	<g>
		<g>
			<g enable-background="new    ">
				<path fill="#FFFFFF" d="M5511.34,366.06l0.23-0.36h0.15l-0.3,0.47l0.3,0.48h-0.15l-0.23-0.37l-0.23,0.37h-0.15l0.3-0.48
					l-0.3-0.47h0.15L5511.34,366.06z"/>
				<path fill="#FFFFFF" d="M5512.72,366.4h-0.39l-0.09,0.25h-0.13l0.36-0.94h0.11l0.36,0.94h-0.13L5512.72,366.4z M5512.36,366.3
					h0.32l-0.16-0.44L5512.36,366.3z"/>
				<path fill="#FFFFFF" d="M5513.28,366.2l0.16-0.25h0.14l-0.23,0.35l0.24,0.35h-0.14l-0.16-0.26l-0.16,0.26h-0.14l0.24-0.35
					l-0.23-0.35h0.14L5513.28,366.2z"/>
				<path fill="#FFFFFF" d="M5513.7,365.76c0-0.02,0.01-0.04,0.02-0.05s0.03-0.02,0.05-0.02s0.04,0.01,0.05,0.02
					s0.02,0.03,0.02,0.05s-0.01,0.04-0.02,0.05s-0.03,0.02-0.05,0.02s-0.04-0.01-0.05-0.02S5513.7,365.78,5513.7,365.76z
					 M5513.83,366.64h-0.12v-0.7h0.12V366.64z"/>
				<path fill="#FFFFFF" d="M5514.43,366.46c0-0.03-0.01-0.06-0.04-0.08c-0.02-0.02-0.07-0.03-0.13-0.05s-0.11-0.03-0.14-0.05
					c-0.04-0.02-0.06-0.04-0.08-0.06s-0.03-0.05-0.03-0.09c0-0.06,0.02-0.11,0.07-0.15c0.05-0.04,0.11-0.06,0.19-0.06
					c0.08,0,0.14,0.02,0.19,0.06c0.05,0.04,0.07,0.09,0.07,0.16h-0.12c0-0.03-0.01-0.06-0.04-0.08c-0.03-0.02-0.06-0.04-0.11-0.04
					s-0.08,0.01-0.1,0.03c-0.03,0.02-0.04,0.04-0.04,0.08c0,0.03,0.01,0.05,0.03,0.06c0.02,0.02,0.06,0.03,0.12,0.04
					c0.06,0.01,0.11,0.03,0.14,0.05s0.07,0.04,0.08,0.07c0.02,0.03,0.03,0.06,0.03,0.1c0,0.06-0.02,0.11-0.07,0.15
					c-0.05,0.04-0.12,0.06-0.2,0.06c-0.06,0-0.11-0.01-0.15-0.03c-0.04-0.02-0.08-0.05-0.1-0.08c-0.02-0.04-0.04-0.07-0.04-0.12
					h0.12c0,0.04,0.02,0.07,0.05,0.1c0.03,0.02,0.07,0.04,0.12,0.04c0.04,0,0.08-0.01,0.11-0.03S5514.43,366.49,5514.43,366.46z"/>
				<path fill="#FFFFFF" d="M5514.7,366.58c0-0.02,0.01-0.04,0.02-0.05c0.01-0.01,0.03-0.02,0.06-0.02c0.02,0,0.04,0.01,0.06,0.02
					c0.01,0.01,0.02,0.03,0.02,0.05c0,0.02-0.01,0.04-0.02,0.05c-0.01,0.01-0.03,0.02-0.06,0.02c-0.03,0-0.04-0.01-0.06-0.02
					C5514.71,366.62,5514.7,366.6,5514.7,366.58z M5514.7,366.01c0-0.02,0.01-0.04,0.02-0.05s0.03-0.02,0.05-0.02
					c0.03,0,0.04,0.01,0.06,0.02s0.02,0.03,0.02,0.05s-0.01,0.04-0.02,0.05c-0.01,0.01-0.03,0.02-0.06,0.02
					c-0.02,0-0.04-0.01-0.05-0.02C5514.71,366.05,5514.7,366.03,5514.7,366.01z"/>
				<path fill="#FFFFFF" d="M5516,365.8h-0.3v0.84h-0.12v-0.84h-0.3v-0.1h0.73V365.8z"/>
				<path fill="#FFFFFF" d="M5516.35,366.66c-0.09,0-0.17-0.03-0.23-0.09c-0.06-0.06-0.09-0.15-0.09-0.25v-0.02
					c0-0.07,0.01-0.13,0.04-0.19s0.06-0.1,0.11-0.13c0.05-0.03,0.1-0.05,0.16-0.05c0.09,0,0.16,0.03,0.21,0.09
					c0.05,0.06,0.08,0.15,0.08,0.26v0.05h-0.47c0,0.07,0.02,0.12,0.06,0.17c0.04,0.04,0.09,0.06,0.15,0.06
					c0.04,0,0.08-0.01,0.11-0.03c0.03-0.02,0.05-0.04,0.08-0.07l0.07,0.06C5516.55,366.61,5516.46,366.66,5516.35,366.66z
					 M5516.33,366.03c-0.05,0-0.09,0.02-0.12,0.05s-0.05,0.08-0.06,0.15h0.35v-0.01c0-0.06-0.02-0.11-0.05-0.14
					C5516.42,366.05,5516.38,366.03,5516.33,366.03z"/>
				<path fill="#FFFFFF" d="M5516.87,365.94l0,0.08c0.05-0.06,0.12-0.09,0.21-0.09c0.1,0,0.17,0.04,0.2,0.11
					c0.02-0.03,0.05-0.06,0.09-0.08s0.08-0.03,0.13-0.03c0.15,0,0.23,0.08,0.23,0.24v0.47h-0.12v-0.46c0-0.05-0.01-0.09-0.04-0.11
					c-0.02-0.03-0.06-0.04-0.12-0.04c-0.04,0-0.08,0.01-0.11,0.04c-0.03,0.03-0.05,0.06-0.05,0.11v0.46h-0.12v-0.46
					c0-0.1-0.05-0.15-0.15-0.15c-0.08,0-0.13,0.03-0.16,0.1v0.51h-0.12v-0.7H5516.87z"/>
				<path fill="#FFFFFF" d="M5518.51,366.3c0,0.11-0.02,0.19-0.07,0.26s-0.12,0.1-0.2,0.1c-0.08,0-0.15-0.03-0.2-0.08v0.34h-0.12
					v-0.97h0.11l0.01,0.08c0.05-0.06,0.12-0.09,0.2-0.09c0.08,0,0.15,0.03,0.2,0.1s0.07,0.15,0.07,0.26V366.3z M5518.39,366.29
					c0-0.08-0.02-0.14-0.05-0.19c-0.03-0.05-0.08-0.07-0.14-0.07c-0.07,0-0.13,0.03-0.16,0.1v0.33c0.04,0.06,0.09,0.1,0.16,0.1
					c0.06,0,0.1-0.02,0.14-0.07C5518.38,366.45,5518.39,366.38,5518.39,366.29z"/>
				<path fill="#FFFFFF" d="M5518.96,366.66c-0.09,0-0.17-0.03-0.23-0.09c-0.06-0.06-0.09-0.15-0.09-0.25v-0.02
					c0-0.07,0.01-0.13,0.04-0.19c0.03-0.05,0.06-0.1,0.11-0.13c0.05-0.03,0.1-0.05,0.16-0.05c0.09,0,0.16,0.03,0.21,0.09
					c0.05,0.06,0.08,0.15,0.08,0.26v0.05h-0.47c0,0.07,0.02,0.12,0.06,0.17c0.04,0.04,0.09,0.06,0.15,0.06
					c0.04,0,0.08-0.01,0.11-0.03c0.03-0.02,0.06-0.04,0.08-0.07l0.07,0.06C5519.16,366.61,5519.07,366.66,5518.96,366.66z
					 M5518.94,366.03c-0.05,0-0.09,0.02-0.12,0.05c-0.03,0.04-0.05,0.08-0.06,0.15h0.35v-0.01c0-0.06-0.02-0.11-0.05-0.14
					C5519.03,366.05,5518.99,366.03,5518.94,366.03z"/>
				<path fill="#FFFFFF" d="M5519.71,366.05c-0.02,0-0.04,0-0.06,0c-0.08,0-0.13,0.03-0.16,0.1v0.5h-0.12v-0.7h0.12l0,0.08
					c0.04-0.06,0.09-0.09,0.17-0.09c0.02,0,0.04,0,0.05,0.01V366.05z"/>
				<path fill="#FFFFFF" d="M5520.22,366.64c-0.01-0.01-0.01-0.04-0.02-0.07c-0.06,0.06-0.12,0.09-0.2,0.09
					c-0.07,0-0.13-0.02-0.17-0.06c-0.04-0.04-0.07-0.09-0.07-0.15c0-0.07,0.03-0.13,0.08-0.17s0.13-0.06,0.23-0.06h0.12v-0.05
					c0-0.04-0.01-0.08-0.04-0.1c-0.02-0.02-0.06-0.04-0.11-0.04c-0.04,0-0.08,0.01-0.11,0.03s-0.04,0.05-0.04,0.08h-0.12
					c0-0.03,0.01-0.07,0.04-0.1c0.02-0.03,0.06-0.06,0.1-0.08c0.04-0.02,0.09-0.03,0.14-0.03c0.08,0,0.14,0.02,0.19,0.06
					c0.05,0.04,0.07,0.1,0.07,0.17v0.32c0,0.06,0.01,0.12,0.02,0.15v0.01H5520.22z M5520.02,366.55c0.04,0,0.07-0.01,0.11-0.03
					s0.06-0.04,0.07-0.08v-0.14h-0.09c-0.15,0-0.22,0.04-0.22,0.13c0,0.04,0.01,0.07,0.04,0.09S5519.98,366.55,5520.02,366.55z"/>
				<path fill="#FFFFFF" d="M5520.67,365.77v0.17h0.13v0.09h-0.13v0.44c0,0.03,0.01,0.05,0.02,0.06c0.01,0.01,0.03,0.02,0.06,0.02
					c0.01,0,0.03,0,0.06-0.01v0.1c-0.03,0.01-0.06,0.01-0.09,0.01c-0.05,0-0.09-0.02-0.12-0.05c-0.03-0.03-0.04-0.08-0.04-0.14
					v-0.43h-0.13v-0.09h0.13v-0.17H5520.67z"/>
				<path fill="#FFFFFF" d="M5521.38,366.57c-0.05,0.05-0.12,0.08-0.21,0.08c-0.07,0-0.13-0.02-0.17-0.06
					c-0.04-0.04-0.06-0.11-0.06-0.19v-0.46h0.12v0.45c0,0.11,0.04,0.16,0.13,0.16c0.09,0,0.15-0.03,0.18-0.1v-0.51h0.12v0.7h-0.11
					L5521.38,366.57z"/>
				<path fill="#FFFFFF" d="M5522.01,366.05c-0.02,0-0.04,0-0.06,0c-0.08,0-0.13,0.03-0.16,0.1v0.5h-0.12v-0.7h0.12l0,0.08
					c0.04-0.06,0.09-0.09,0.17-0.09c0.02,0,0.04,0,0.05,0.01V366.05z"/>
				<path fill="#FFFFFF" d="M5522.4,366.66c-0.09,0-0.17-0.03-0.23-0.09c-0.06-0.06-0.09-0.15-0.09-0.25v-0.02
					c0-0.07,0.01-0.13,0.04-0.19c0.03-0.05,0.06-0.1,0.11-0.13c0.05-0.03,0.1-0.05,0.16-0.05c0.09,0,0.16,0.03,0.21,0.09
					c0.05,0.06,0.08,0.15,0.08,0.26v0.05h-0.47c0,0.07,0.02,0.12,0.06,0.17c0.04,0.04,0.09,0.06,0.15,0.06
					c0.04,0,0.08-0.01,0.11-0.03c0.03-0.02,0.06-0.04,0.08-0.07l0.07,0.06C5522.61,366.61,5522.52,366.66,5522.4,366.66z
					 M5522.39,366.03c-0.05,0-0.09,0.02-0.12,0.05c-0.03,0.04-0.05,0.08-0.06,0.15h0.35v-0.01c0-0.06-0.02-0.11-0.05-0.14
					C5522.48,366.05,5522.44,366.03,5522.39,366.03z"/>
			</g>
			<g enable-background="new    ">
				<path fill="#FFFFFF" d="M5511.7,367.69v0.64c0,0.09-0.03,0.16-0.08,0.22c-0.06,0.06-0.13,0.09-0.23,0.1l-0.03,0
					c-0.1,0-0.19-0.03-0.25-0.08c-0.06-0.06-0.09-0.13-0.09-0.23v-0.64h0.12v0.64c0,0.07,0.02,0.12,0.06,0.16s0.09,0.06,0.16,0.06
					c0.07,0,0.12-0.02,0.16-0.06c0.04-0.04,0.06-0.09,0.06-0.16v-0.64H5511.7z"/>
				<path fill="#FFFFFF" d="M5511.99,367.93l0,0.09c0.05-0.07,0.12-0.1,0.21-0.1c0.15,0,0.22,0.08,0.22,0.25v0.46h-0.12v-0.46
					c0-0.05-0.01-0.09-0.03-0.11c-0.02-0.02-0.06-0.04-0.11-0.04c-0.04,0-0.07,0.01-0.1,0.03s-0.05,0.05-0.07,0.08v0.5h-0.12v-0.7
					H5511.99z"/>
				<path fill="#FFFFFF" d="M5512.61,367.75c0-0.02,0.01-0.04,0.02-0.05c0.01-0.01,0.03-0.02,0.05-0.02c0.02,0,0.04,0.01,0.05,0.02
					s0.02,0.03,0.02,0.05s-0.01,0.04-0.02,0.05s-0.03,0.02-0.05,0.02c-0.02,0-0.04-0.01-0.05-0.02
					C5512.62,367.78,5512.61,367.77,5512.61,367.75z M5512.74,368.63h-0.12v-0.7h0.12V368.63z"/>
				<path fill="#FFFFFF" d="M5513.09,367.76v0.17h0.13v0.09h-0.13v0.44c0,0.03,0.01,0.05,0.02,0.06c0.01,0.01,0.03,0.02,0.06,0.02
					c0.01,0,0.03,0,0.06-0.01v0.1c-0.03,0.01-0.06,0.01-0.09,0.01c-0.05,0-0.09-0.02-0.12-0.05c-0.03-0.03-0.04-0.08-0.04-0.14
					v-0.43h-0.13v-0.09h0.13v-0.17H5513.09z"/>
				<path fill="#FFFFFF" d="M5513.36,368c0-0.02,0.01-0.04,0.02-0.05s0.03-0.02,0.06-0.02c0.02,0,0.04,0.01,0.06,0.02
					s0.02,0.03,0.02,0.05s-0.01,0.04-0.02,0.05c-0.01,0.01-0.03,0.02-0.06,0.02c-0.03,0-0.04-0.01-0.06-0.02
					C5513.37,368.04,5513.36,368.02,5513.36,368z M5513.36,368.57c0-0.02,0.01-0.04,0.02-0.05c0.01-0.01,0.03-0.02,0.06-0.02
					s0.04,0.01,0.06,0.02c0.01,0.01,0.02,0.03,0.02,0.05c0,0.02-0.01,0.04-0.02,0.05c-0.01,0.01-0.03,0.02-0.06,0.02
					s-0.04-0.01-0.06-0.02C5513.37,368.61,5513.36,368.59,5513.36,368.57z"/>
				<path fill="#FFFFFF" d="M5513.98,368.28c0-0.11,0.03-0.19,0.08-0.26c0.05-0.07,0.12-0.1,0.2-0.1c0.08,0,0.15,0.03,0.19,0.08
					v-0.37h0.12v0.99h-0.11l-0.01-0.08c-0.05,0.06-0.11,0.09-0.2,0.09c-0.08,0-0.15-0.03-0.2-0.1S5513.98,368.39,5513.98,368.28
					L5513.98,368.28z M5514.1,368.29c0,0.08,0.02,0.14,0.05,0.19c0.03,0.04,0.08,0.07,0.14,0.07c0.08,0,0.13-0.03,0.17-0.1v-0.32
					c-0.04-0.07-0.09-0.1-0.17-0.1c-0.06,0-0.1,0.02-0.14,0.07C5514.12,368.13,5514.1,368.2,5514.1,368.29z"/>
				<path fill="#FFFFFF" d="M5515.05,368.65c-0.1,0-0.17-0.03-0.23-0.09c-0.06-0.06-0.09-0.15-0.09-0.25v-0.02
					c0-0.07,0.01-0.13,0.04-0.19c0.03-0.05,0.06-0.1,0.11-0.13c0.05-0.03,0.1-0.05,0.15-0.05c0.09,0,0.16,0.03,0.21,0.09
					c0.05,0.06,0.08,0.15,0.08,0.26v0.05h-0.47c0,0.07,0.02,0.12,0.06,0.17c0.04,0.04,0.09,0.06,0.15,0.06
					c0.04,0,0.08-0.01,0.11-0.03c0.03-0.02,0.05-0.04,0.08-0.07l0.07,0.06C5515.26,368.6,5515.17,368.65,5515.05,368.65z
					 M5515.04,368.02c-0.05,0-0.09,0.02-0.12,0.05c-0.03,0.04-0.05,0.08-0.06,0.15h0.35v-0.01c0-0.06-0.02-0.11-0.05-0.14
					C5515.13,368.03,5515.09,368.02,5515.04,368.02z"/>
				<path fill="#FFFFFF" d="M5515.44,368.28c0-0.11,0.03-0.2,0.08-0.26c0.05-0.06,0.12-0.1,0.2-0.1c0.08,0,0.15,0.03,0.2,0.09
					l0.01-0.08h0.11v0.68c0,0.09-0.03,0.16-0.08,0.21c-0.05,0.05-0.13,0.08-0.22,0.08c-0.05,0-0.1-0.01-0.15-0.03
					s-0.09-0.05-0.11-0.09l0.06-0.07c0.05,0.06,0.11,0.09,0.19,0.09c0.06,0,0.1-0.02,0.14-0.05s0.05-0.08,0.05-0.14v-0.06
					c-0.05,0.06-0.11,0.08-0.2,0.08c-0.08,0-0.15-0.03-0.2-0.1C5515.46,368.48,5515.44,368.39,5515.44,368.28z M5515.56,368.29
					c0,0.08,0.02,0.14,0.05,0.19s0.08,0.07,0.14,0.07c0.08,0,0.13-0.03,0.17-0.1v-0.32c-0.04-0.07-0.09-0.1-0.17-0.1
					c-0.06,0-0.1,0.02-0.14,0.07S5515.56,368.2,5515.56,368.29z"/>
				<path fill="#FFFFFF" d="M5517.25,368.33c-0.01,0.1-0.05,0.18-0.11,0.23c-0.06,0.05-0.14,0.08-0.25,0.08
					c-0.11,0-0.2-0.04-0.27-0.12c-0.07-0.08-0.1-0.19-0.1-0.32v-0.09c0-0.09,0.02-0.17,0.05-0.23s0.08-0.12,0.13-0.15
					c0.06-0.04,0.12-0.05,0.2-0.05c0.1,0,0.18,0.03,0.24,0.08s0.1,0.13,0.11,0.23h-0.12c-0.01-0.08-0.03-0.13-0.07-0.16
					c-0.04-0.03-0.09-0.05-0.15-0.05c-0.08,0-0.14,0.03-0.19,0.09c-0.04,0.06-0.07,0.14-0.07,0.25v0.09c0,0.1,0.02,0.18,0.06,0.24
					c0.04,0.06,0.1,0.09,0.18,0.09c0.07,0,0.12-0.02,0.16-0.05s0.06-0.09,0.07-0.16H5517.25z"/>
				<path fill="#FFFFFF" d="M5517.69,368.65c-0.09,0-0.17-0.03-0.23-0.09c-0.06-0.06-0.09-0.15-0.09-0.25v-0.02
					c0-0.07,0.01-0.13,0.04-0.19s0.06-0.1,0.11-0.13c0.05-0.03,0.1-0.05,0.16-0.05c0.09,0,0.16,0.03,0.21,0.09
					c0.05,0.06,0.08,0.15,0.08,0.26v0.05h-0.47c0,0.07,0.02,0.12,0.06,0.17c0.04,0.04,0.09,0.06,0.15,0.06
					c0.04,0,0.08-0.01,0.11-0.03c0.03-0.02,0.05-0.04,0.08-0.07l0.07,0.06C5517.9,368.6,5517.81,368.65,5517.69,368.65z
					 M5517.68,368.02c-0.05,0-0.09,0.02-0.12,0.05s-0.05,0.08-0.06,0.15h0.35v-0.01c0-0.06-0.02-0.11-0.05-0.14
					C5517.77,368.03,5517.73,368.02,5517.68,368.02z"/>
				<path fill="#FFFFFF" d="M5518.23,368.63h-0.12v-0.99h0.12V368.63z"/>
				<path fill="#FFFFFF" d="M5518.71,368.55c0.04,0,0.08-0.01,0.11-0.04c0.03-0.03,0.05-0.06,0.05-0.1h0.11
					c0,0.04-0.02,0.08-0.04,0.11c-0.03,0.04-0.06,0.07-0.1,0.09c-0.04,0.02-0.09,0.03-0.13,0.03c-0.1,0-0.17-0.03-0.23-0.1
					c-0.06-0.06-0.08-0.15-0.08-0.26v-0.02c0-0.07,0.01-0.13,0.04-0.18s0.06-0.09,0.11-0.12s0.1-0.04,0.17-0.04
					c0.08,0,0.14,0.02,0.2,0.07c0.05,0.05,0.08,0.11,0.08,0.18h-0.11c0-0.04-0.02-0.08-0.05-0.11c-0.03-0.03-0.07-0.04-0.11-0.04
					c-0.06,0-0.11,0.02-0.14,0.07c-0.03,0.04-0.05,0.11-0.05,0.19v0.02c0,0.08,0.02,0.14,0.05,0.19
					C5518.6,368.53,5518.64,368.55,5518.71,368.55z"/>
				<path fill="#FFFFFF" d="M5519.12,367.75c0-0.02,0.01-0.04,0.02-0.05s0.03-0.02,0.05-0.02s0.04,0.01,0.05,0.02
					s0.02,0.03,0.02,0.05s-0.01,0.04-0.02,0.05s-0.03,0.02-0.05,0.02s-0.04-0.01-0.05-0.02S5519.12,367.77,5519.12,367.75z
					 M5519.25,368.63h-0.12v-0.7h0.12V368.63z"/>
				<path fill="#FFFFFF" d="M5519.87,368.56c-0.05,0.05-0.11,0.08-0.21,0.08c-0.08,0-0.13-0.02-0.17-0.06
					c-0.04-0.04-0.06-0.11-0.06-0.19v-0.46h0.12v0.45c0,0.11,0.04,0.16,0.13,0.16c0.09,0,0.15-0.03,0.18-0.1v-0.51h0.12v0.7h-0.11
					L5519.87,368.56z"/>
				<path fill="#FFFFFF" d="M5520.58,368.45c0-0.03-0.01-0.06-0.04-0.08c-0.02-0.02-0.07-0.03-0.13-0.05s-0.11-0.03-0.14-0.05
					c-0.04-0.02-0.06-0.04-0.08-0.06c-0.02-0.03-0.03-0.05-0.03-0.09c0-0.06,0.02-0.11,0.07-0.15c0.05-0.04,0.11-0.06,0.19-0.06
					c0.08,0,0.14,0.02,0.19,0.06c0.05,0.04,0.07,0.09,0.07,0.16h-0.12c0-0.03-0.01-0.06-0.04-0.08c-0.03-0.02-0.06-0.04-0.11-0.04
					s-0.08,0.01-0.1,0.03c-0.02,0.02-0.04,0.04-0.04,0.08c0,0.03,0.01,0.05,0.04,0.06c0.02,0.02,0.06,0.03,0.12,0.04
					c0.06,0.01,0.11,0.03,0.15,0.05s0.07,0.04,0.08,0.07c0.02,0.03,0.03,0.06,0.03,0.1c0,0.06-0.02,0.11-0.08,0.15
					c-0.05,0.04-0.12,0.06-0.2,0.06c-0.05,0-0.11-0.01-0.15-0.03c-0.04-0.02-0.08-0.05-0.1-0.08c-0.02-0.04-0.04-0.07-0.04-0.12
					h0.12c0,0.04,0.02,0.07,0.05,0.1s0.07,0.04,0.12,0.04c0.05,0,0.08-0.01,0.11-0.03S5520.58,368.48,5520.58,368.45z"/>
			</g>
		</g>
	</g>
	
		<path fill="none" stroke="#F2F2F2" stroke-width="0.221" stroke-linejoin="round" stroke-miterlimit="10" stroke-dasharray="0.221,0.442" d="
		M5510.92,299.69h105.46 M5510.92,310.86h105.46 M5510.92,321.97h105.46 M5510.92,332.6h105.46 M5510.92,344.62h105.46
		 M5510.92,357.69h105.46"/>
	<g>
		<g>
			<g enable-background="new    ">
				<path fill="#FFFFFF" d="M5508.42,259.5c-0.02,0.15-0.07,0.26-0.16,0.34c-0.09,0.08-0.21,0.12-0.36,0.12
					c-0.11,0-0.2-0.03-0.28-0.08c-0.08-0.05-0.14-0.13-0.19-0.22c-0.04-0.1-0.07-0.21-0.07-0.33v-0.18c0-0.12,0.02-0.24,0.07-0.33
					c0.04-0.1,0.11-0.17,0.19-0.22s0.18-0.08,0.29-0.08c0.15,0,0.27,0.04,0.36,0.12c0.09,0.08,0.14,0.2,0.15,0.34h-0.12
					c-0.03-0.24-0.16-0.36-0.39-0.36c-0.13,0-0.23,0.05-0.31,0.14s-0.11,0.23-0.11,0.4v0.17c0,0.16,0.04,0.29,0.11,0.39
					c0.07,0.1,0.17,0.15,0.3,0.15c0.12,0,0.22-0.03,0.28-0.09c0.06-0.06,0.1-0.15,0.12-0.27H5508.42z"/>
				<path fill="#FFFFFF" d="M5509.75,259.31c0,0.13-0.02,0.24-0.07,0.34c-0.04,0.1-0.11,0.17-0.19,0.23
					c-0.08,0.05-0.18,0.08-0.29,0.08c-0.17,0-0.3-0.06-0.4-0.18s-0.15-0.28-0.15-0.48v-0.15c0-0.13,0.02-0.24,0.07-0.34
					c0.04-0.1,0.11-0.18,0.19-0.23c0.08-0.05,0.18-0.08,0.29-0.08c0.11,0,0.21,0.03,0.29,0.08c0.08,0.05,0.15,0.13,0.19,0.22
					s0.07,0.21,0.07,0.33V259.31z M5509.63,259.16c0-0.17-0.04-0.3-0.12-0.4c-0.08-0.1-0.18-0.15-0.32-0.15
					c-0.13,0-0.24,0.05-0.31,0.15s-0.12,0.23-0.12,0.41v0.15c0,0.17,0.04,0.3,0.12,0.4c0.08,0.1,0.18,0.15,0.32,0.15
					c0.13,0,0.24-0.05,0.32-0.14s0.11-0.23,0.11-0.4V259.16z"/>
				<path fill="#FFFFFF" d="M5510.58,259.35h-0.41v0.59h-0.12v-1.41h0.46c0.15,0,0.27,0.04,0.35,0.11c0.09,0.07,0.13,0.18,0.13,0.31
					c0,0.09-0.03,0.17-0.08,0.24c-0.05,0.07-0.12,0.12-0.21,0.14l0.35,0.6v0.01h-0.13L5510.58,259.35z M5510.17,259.25h0.37
					c0.1,0,0.18-0.03,0.24-0.09c0.06-0.06,0.09-0.13,0.09-0.22c0-0.1-0.03-0.18-0.1-0.23s-0.15-0.08-0.27-0.08h-0.34V259.25z"/>
				<path fill="#FFFFFF" d="M5511.85,259.35h-0.41v0.59h-0.12v-1.41h0.46c0.15,0,0.27,0.04,0.35,0.11c0.08,0.07,0.13,0.18,0.13,0.31
					c0,0.09-0.03,0.17-0.08,0.24c-0.05,0.07-0.12,0.12-0.21,0.14l0.35,0.6v0.01h-0.13L5511.85,259.35z M5511.44,259.25h0.37
					c0.1,0,0.18-0.03,0.24-0.09c0.06-0.06,0.09-0.13,0.09-0.22c0-0.1-0.03-0.18-0.09-0.23s-0.15-0.08-0.27-0.08h-0.34V259.25z"/>
				<path fill="#FFFFFF" d="M5513.36,259.27h-0.66v0.58h0.76v0.1h-0.88v-1.41h0.88v0.1h-0.75v0.53h0.66V259.27z"/>
				<path fill="#FFFFFF" d="M5513.83,259.84h0.7v0.1h-0.82v-1.41h0.12V259.84z"/>
				<path fill="#FFFFFF" d="M5515.54,259.55h-0.64l-0.15,0.4h-0.12l0.54-1.41h0.11l0.54,1.41h-0.12L5515.54,259.55z M5514.94,259.45
					h0.57l-0.28-0.77L5514.94,259.45z"/>
				<path fill="#FFFFFF" d="M5516.86,258.63h-0.48v1.31h-0.12v-1.31h-0.48v-0.1h1.09V258.63z"/>
				<path fill="#FFFFFF" d="M5517.23,259.94h-0.12v-1.41h0.12V259.94z"/>
				<path fill="#FFFFFF" d="M5518.66,259.31c0,0.13-0.02,0.24-0.07,0.34c-0.04,0.1-0.11,0.17-0.19,0.23
					c-0.08,0.05-0.18,0.08-0.29,0.08c-0.17,0-0.3-0.06-0.4-0.18s-0.15-0.28-0.15-0.48v-0.15c0-0.13,0.02-0.24,0.07-0.34
					s0.11-0.18,0.19-0.23c0.08-0.05,0.18-0.08,0.29-0.08s0.2,0.03,0.29,0.08c0.08,0.05,0.15,0.13,0.19,0.22s0.07,0.21,0.07,0.33
					V259.31z M5518.54,259.16c0-0.17-0.04-0.3-0.12-0.4c-0.08-0.1-0.18-0.15-0.32-0.15c-0.13,0-0.24,0.05-0.31,0.15
					s-0.12,0.23-0.12,0.41v0.15c0,0.17,0.04,0.3,0.12,0.4c0.08,0.1,0.18,0.15,0.32,0.15c0.14,0,0.24-0.05,0.32-0.14
					s0.11-0.23,0.11-0.4V259.16z"/>
				<path fill="#FFFFFF" d="M5520.01,259.94h-0.12l-0.81-1.21v1.21h-0.12v-1.41h0.12l0.81,1.21v-1.21h0.12V259.94z"/>
				<path fill="#FFFFFF" d="M5520.86,259.94v-1.41h0.42c0.15,0,0.27,0.03,0.34,0.09s0.12,0.15,0.12,0.28c0,0.07-0.02,0.14-0.06,0.19
					c-0.04,0.05-0.09,0.09-0.16,0.12c0.08,0.02,0.15,0.06,0.2,0.12c0.05,0.06,0.07,0.13,0.07,0.22c0,0.12-0.04,0.22-0.12,0.29
					c-0.08,0.07-0.19,0.11-0.34,0.11H5520.86z M5520.97,259.16h0.33c0.1,0,0.18-0.03,0.23-0.07c0.06-0.04,0.08-0.11,0.08-0.2
					c0-0.09-0.03-0.16-0.09-0.2c-0.06-0.04-0.14-0.07-0.26-0.07h-0.3V259.16z M5520.97,259.26v0.58h0.36c0.1,0,0.18-0.03,0.24-0.08
					c0.06-0.05,0.09-0.12,0.09-0.22c0-0.09-0.03-0.16-0.09-0.21s-0.14-0.08-0.24-0.08H5520.97z"/>
				<path fill="#FFFFFF" d="M5522.86,259.27h-0.66v0.58h0.76v0.1h-0.88v-1.41h0.88v0.1h-0.76v0.53h0.66V259.27z"/>
				<path fill="#FFFFFF" d="M5524.18,258.63h-0.48v1.31h-0.12v-1.31h-0.48v-0.1h1.09V258.63z"/>
				<path fill="#FFFFFF" d="M5524.69,259.56l0.04,0.22l0.05-0.21l0.31-1.04h0.11l0.3,1.04l0.05,0.21l0.05-0.22l0.25-1.03h0.12
					l-0.36,1.41h-0.12l-0.32-1.11l-0.04-0.14l-0.04,0.14l-0.33,1.11h-0.11l-0.36-1.41h0.12L5524.69,259.56z"/>
				<path fill="#FFFFFF" d="M5526.99,259.27h-0.66v0.58h0.76v0.1h-0.88v-1.41h0.88v0.1h-0.76v0.53h0.66V259.27z"/>
				<path fill="#FFFFFF" d="M5528.12,259.27h-0.66v0.58h0.76v0.1h-0.88v-1.41h0.88v0.1h-0.75v0.53h0.66V259.27z"/>
				<path fill="#FFFFFF" d="M5529.53,259.94h-0.12l-0.81-1.21v1.21h-0.12v-1.41h0.12l0.81,1.21v-1.21h0.12V259.94z"/>
				<path fill="#FFFFFF" d="M5530.63,259.56l0.04,0.22l0.05-0.21l0.31-1.04h0.11l0.3,1.04l0.05,0.21l0.05-0.22l0.26-1.03h0.12
					l-0.36,1.41h-0.12l-0.32-1.11l-0.04-0.14l-0.04,0.14l-0.33,1.11h-0.12l-0.36-1.41h0.12L5530.63,259.56z"/>
				<path fill="#FFFFFF" d="M5532.88,259.55h-0.64l-0.15,0.4h-0.12l0.54-1.41h0.11l0.54,1.41h-0.12L5532.88,259.55z M5532.27,259.45
					h0.57l-0.28-0.77L5532.27,259.45z"/>
				<path fill="#FFFFFF" d="M5534.19,258.63h-0.48v1.31h-0.12v-1.31h-0.48v-0.1h1.09V258.63z"/>
				<path fill="#FFFFFF" d="M5535.2,259.27h-0.66v0.58h0.76v0.1h-0.88v-1.41h0.88v0.1h-0.76v0.53h0.66V259.27z"/>
				<path fill="#FFFFFF" d="M5536.08,259.35h-0.41v0.59h-0.12v-1.41h0.46c0.15,0,0.27,0.04,0.35,0.11c0.09,0.07,0.13,0.18,0.13,0.31
					c0,0.09-0.03,0.17-0.08,0.24c-0.05,0.07-0.12,0.12-0.21,0.14l0.35,0.6v0.01h-0.13L5536.08,259.35z M5535.67,259.25h0.37
					c0.1,0,0.18-0.03,0.24-0.09c0.06-0.06,0.09-0.13,0.09-0.22c0-0.1-0.03-0.18-0.1-0.23s-0.15-0.08-0.27-0.08h-0.34V259.25z"/>
				<path fill="#FFFFFF" d="M5538.21,258.63h-0.48v1.31h-0.12v-1.31h-0.48v-0.1h1.09V258.63z"/>
				<path fill="#FFFFFF" d="M5539.22,259.27h-0.66v0.58h0.76v0.1h-0.88v-1.41h0.88v0.1h-0.76v0.53h0.66V259.27z"/>
				<path fill="#FFFFFF" d="M5539.73,258.53l0.52,1.25l0.52-1.25h0.16v1.41h-0.12v-0.62l0.01-0.63l-0.53,1.25h-0.09l-0.52-1.24
					l0.01,0.62v0.62h-0.12v-1.41H5539.73z"/>
				<path fill="#FFFFFF" d="M5541.42,259.37v0.58h-0.12v-1.41h0.48c0.15,0,0.26,0.04,0.35,0.11s0.13,0.18,0.13,0.31
					s-0.04,0.23-0.12,0.31s-0.2,0.11-0.36,0.11H5541.42z M5541.42,259.27h0.36c0.12,0,0.21-0.03,0.27-0.08
					c0.06-0.05,0.09-0.13,0.09-0.23c0-0.1-0.03-0.18-0.09-0.23c-0.06-0.06-0.15-0.09-0.26-0.09h-0.37V259.27z"/>
				<path fill="#FFFFFF" d="M5543.3,259.27h-0.66v0.58h0.76v0.1h-0.88v-1.41h0.88v0.1h-0.75v0.53h0.66V259.27z"/>
				<path fill="#FFFFFF" d="M5544.18,259.35h-0.41v0.59h-0.12v-1.41h0.46c0.15,0,0.27,0.04,0.35,0.11c0.08,0.07,0.13,0.18,0.13,0.31
					c0,0.09-0.03,0.17-0.08,0.24c-0.05,0.07-0.12,0.12-0.21,0.14l0.35,0.6v0.01h-0.13L5544.18,259.35z M5543.77,259.25h0.37
					c0.1,0,0.18-0.03,0.24-0.09c0.06-0.06,0.09-0.13,0.09-0.22c0-0.1-0.03-0.18-0.09-0.23s-0.15-0.08-0.27-0.08h-0.34V259.25z"/>
				<path fill="#FFFFFF" d="M5545.68,259.55h-0.64l-0.15,0.4h-0.12l0.54-1.41h0.11l0.54,1.41h-0.12L5545.68,259.55z M5545.07,259.45
					h0.57l-0.28-0.77L5545.07,259.45z"/>
				<path fill="#FFFFFF" d="M5546.99,258.63h-0.48v1.31h-0.12v-1.31h-0.48v-0.1h1.09V258.63z"/>
				<path fill="#FFFFFF" d="M5548.19,258.53v0.96c0,0.1-0.02,0.18-0.06,0.25s-0.1,0.12-0.18,0.16c-0.08,0.04-0.16,0.06-0.26,0.06
					c-0.15,0-0.27-0.04-0.36-0.12s-0.14-0.19-0.14-0.34v-0.97h0.12v0.96c0,0.12,0.04,0.21,0.1,0.28c0.07,0.07,0.16,0.1,0.28,0.1
					c0.12,0,0.21-0.03,0.28-0.1c0.07-0.07,0.1-0.16,0.1-0.28v-0.96H5548.19z"/>
				<path fill="#FFFFFF" d="M5549.05,259.35h-0.41v0.59h-0.12v-1.41h0.46c0.15,0,0.27,0.04,0.35,0.11s0.13,0.18,0.13,0.31
					c0,0.09-0.03,0.17-0.08,0.24c-0.05,0.07-0.12,0.12-0.21,0.14l0.35,0.6v0.01h-0.13L5549.05,259.35z M5548.64,259.25h0.37
					c0.1,0,0.18-0.03,0.24-0.09c0.06-0.06,0.09-0.13,0.09-0.22c0-0.1-0.03-0.18-0.1-0.23c-0.06-0.05-0.15-0.08-0.27-0.08h-0.34
					V259.25z"/>
				<path fill="#FFFFFF" d="M5550.57,259.27h-0.66v0.58h0.76v0.1h-0.88v-1.41h0.88v0.1h-0.75v0.53h0.66V259.27z"/>
			</g>
			<g enable-background="new    ">
				<path fill="#FFFFFF" d="M5508.18,262.14h-0.64l-0.15,0.4h-0.12l0.54-1.41h0.11l0.54,1.41h-0.12L5508.18,262.14z M5507.58,262.04
					h0.57l-0.28-0.77L5507.58,262.04z"/>
				<path fill="#FFFFFF" d="M5509.71,262.53h-0.12l-0.81-1.21v1.21h-0.12v-1.41h0.12l0.81,1.21v-1.21h0.12V262.53z"/>
				<path fill="#FFFFFF" d="M5510.07,262.53v-1.41h0.39c0.12,0,0.22,0.03,0.31,0.08s0.16,0.13,0.21,0.23
					c0.05,0.1,0.08,0.21,0.08,0.34v0.13c0,0.13-0.03,0.24-0.08,0.34s-0.12,0.17-0.22,0.23c-0.09,0.05-0.2,0.08-0.32,0.08H5510.07z
					 M5510.19,261.22v1.21h0.27c0.15,0,0.27-0.05,0.36-0.15c0.09-0.1,0.13-0.23,0.13-0.4v-0.12c0-0.16-0.04-0.29-0.13-0.39
					c-0.09-0.1-0.21-0.15-0.35-0.15H5510.19z"/>
				<path fill="#FFFFFF" d="M5512.02,261.12l0.52,1.25l0.52-1.25h0.16v1.41h-0.12v-0.62l0.01-0.63l-0.53,1.25h-0.09l-0.52-1.24
					l0.01,0.62v0.62h-0.12v-1.41H5512.02z"/>
				<path fill="#FFFFFF" d="M5513.72,262.53h-0.12v-1.41h0.12V262.53z"/>
				<path fill="#FFFFFF" d="M5515.11,262.09c-0.02,0.15-0.07,0.26-0.16,0.34c-0.09,0.08-0.21,0.12-0.36,0.12
					c-0.11,0-0.2-0.03-0.28-0.08c-0.08-0.05-0.14-0.13-0.19-0.22c-0.04-0.1-0.07-0.21-0.07-0.33v-0.18c0-0.12,0.02-0.24,0.07-0.33
					c0.04-0.1,0.11-0.17,0.19-0.22c0.08-0.05,0.18-0.08,0.29-0.08c0.15,0,0.27,0.04,0.36,0.12c0.09,0.08,0.14,0.2,0.15,0.34h-0.12
					c-0.03-0.24-0.16-0.36-0.39-0.36c-0.13,0-0.23,0.05-0.31,0.14s-0.11,0.23-0.11,0.4v0.17c0,0.16,0.04,0.29,0.11,0.39
					c0.07,0.1,0.17,0.15,0.3,0.15c0.12,0,0.22-0.03,0.28-0.09c0.06-0.06,0.1-0.15,0.12-0.27H5515.11z"/>
				<path fill="#FFFFFF" d="M5515.93,261.94h-0.41v0.59h-0.12v-1.41h0.46c0.15,0,0.27,0.04,0.35,0.11c0.08,0.07,0.13,0.18,0.13,0.31
					c0,0.09-0.03,0.17-0.08,0.24c-0.05,0.07-0.12,0.12-0.21,0.14l0.35,0.6v0.01h-0.13L5515.93,261.94z M5515.52,261.84h0.37
					c0.1,0,0.18-0.03,0.24-0.09c0.06-0.06,0.09-0.13,0.09-0.22c0-0.1-0.03-0.18-0.09-0.23s-0.15-0.08-0.27-0.08h-0.34V261.84z"/>
				<path fill="#FFFFFF" d="M5517.71,261.9c0,0.13-0.02,0.24-0.07,0.34c-0.04,0.1-0.11,0.17-0.19,0.23
					c-0.08,0.05-0.18,0.08-0.29,0.08c-0.17,0-0.3-0.06-0.4-0.18s-0.15-0.28-0.15-0.48v-0.15c0-0.13,0.02-0.24,0.07-0.34
					c0.05-0.1,0.11-0.18,0.19-0.23s0.18-0.08,0.29-0.08c0.11,0,0.21,0.03,0.29,0.08c0.08,0.05,0.15,0.13,0.19,0.22
					c0.05,0.1,0.07,0.21,0.07,0.33V261.9z M5517.59,261.75c0-0.17-0.04-0.3-0.12-0.4c-0.08-0.1-0.18-0.15-0.32-0.15
					c-0.13,0-0.24,0.05-0.31,0.15s-0.12,0.23-0.12,0.41v0.15c0,0.17,0.04,0.3,0.12,0.4c0.08,0.1,0.18,0.15,0.32,0.15
					c0.14,0,0.24-0.05,0.32-0.14c0.08-0.1,0.11-0.23,0.11-0.4V261.75z"/>
				<path fill="#FFFFFF" d="M5519.01,262.09c-0.02,0.15-0.07,0.26-0.16,0.34c-0.09,0.08-0.21,0.12-0.36,0.12
					c-0.11,0-0.2-0.03-0.28-0.08c-0.08-0.05-0.14-0.13-0.19-0.22c-0.04-0.1-0.07-0.21-0.07-0.33v-0.18c0-0.12,0.02-0.24,0.07-0.33
					c0.04-0.1,0.11-0.17,0.19-0.22s0.18-0.08,0.29-0.08c0.15,0,0.27,0.04,0.36,0.12c0.09,0.08,0.14,0.2,0.15,0.34h-0.12
					c-0.03-0.24-0.16-0.36-0.39-0.36c-0.13,0-0.23,0.05-0.31,0.14s-0.11,0.23-0.11,0.4v0.17c0,0.16,0.04,0.29,0.11,0.39
					c0.07,0.1,0.17,0.15,0.3,0.15c0.12,0,0.22-0.03,0.28-0.09c0.06-0.06,0.1-0.15,0.12-0.27H5519.01z"/>
				<path fill="#FFFFFF" d="M5519.72,261.89l0.43-0.77h0.14l-0.51,0.88v0.53h-0.12V262l-0.51-0.88h0.14L5519.72,261.89z"/>
				<path fill="#FFFFFF" d="M5521.28,262.19c0-0.08-0.03-0.14-0.08-0.19c-0.06-0.04-0.16-0.09-0.3-0.13s-0.25-0.09-0.32-0.13
					c-0.1-0.07-0.14-0.16-0.14-0.27c0-0.11,0.04-0.2,0.13-0.26s0.2-0.1,0.34-0.1c0.09,0,0.18,0.02,0.25,0.05
					c0.07,0.04,0.13,0.09,0.17,0.15c0.04,0.06,0.06,0.14,0.06,0.22h-0.12c0-0.1-0.03-0.17-0.1-0.23c-0.07-0.06-0.16-0.09-0.27-0.09
					c-0.11,0-0.19,0.02-0.26,0.07c-0.06,0.05-0.1,0.11-0.1,0.19c0,0.07,0.03,0.13,0.09,0.18c0.06,0.04,0.15,0.08,0.28,0.12
					c0.13,0.03,0.22,0.07,0.29,0.11s0.11,0.08,0.15,0.13s0.05,0.11,0.05,0.18c0,0.11-0.04,0.2-0.13,0.27
					c-0.09,0.07-0.21,0.1-0.35,0.1c-0.1,0-0.19-0.02-0.28-0.05c-0.08-0.04-0.15-0.08-0.19-0.15c-0.04-0.06-0.06-0.14-0.06-0.22h0.12
					c0,0.1,0.04,0.18,0.11,0.24c0.08,0.06,0.17,0.09,0.3,0.09c0.11,0,0.2-0.02,0.26-0.07
					C5521.24,262.33,5521.28,262.27,5521.28,262.19z"/>
				<path fill="#FFFFFF" d="M5522.61,261.22h-0.48v1.31h-0.12v-1.31h-0.48v-0.1h1.09V261.22z"/>
				<path fill="#FFFFFF" d="M5522.99,262.53h-0.12v-1.41h0.12V262.53z"/>
				<path fill="#FFFFFF" d="M5524.17,262.19c0-0.08-0.03-0.14-0.08-0.19c-0.06-0.04-0.16-0.09-0.3-0.13s-0.25-0.09-0.32-0.13
					c-0.1-0.07-0.14-0.16-0.14-0.27c0-0.11,0.04-0.2,0.13-0.26c0.09-0.07,0.2-0.1,0.34-0.1c0.09,0,0.18,0.02,0.25,0.05
					c0.07,0.04,0.13,0.09,0.17,0.15s0.06,0.14,0.06,0.22h-0.12c0-0.1-0.03-0.17-0.1-0.23s-0.16-0.09-0.27-0.09
					c-0.11,0-0.19,0.02-0.26,0.07c-0.06,0.05-0.1,0.11-0.1,0.19c0,0.07,0.03,0.13,0.09,0.18c0.06,0.04,0.15,0.08,0.28,0.12
					c0.13,0.03,0.22,0.07,0.29,0.11c0.06,0.04,0.11,0.08,0.15,0.13c0.03,0.05,0.05,0.11,0.05,0.18c0,0.11-0.04,0.2-0.13,0.27
					c-0.09,0.07-0.21,0.1-0.35,0.1c-0.1,0-0.19-0.02-0.27-0.05c-0.08-0.04-0.15-0.08-0.19-0.15c-0.04-0.06-0.06-0.14-0.06-0.22h0.12
					c0,0.1,0.04,0.18,0.11,0.24s0.17,0.09,0.3,0.09c0.11,0,0.2-0.02,0.27-0.07S5524.17,262.27,5524.17,262.19z"/>
				<path fill="#FFFFFF" d="M5525.03,262.53v-1.41h0.42c0.15,0,0.27,0.03,0.35,0.09c0.08,0.06,0.12,0.15,0.12,0.28
					c0,0.07-0.02,0.14-0.06,0.19c-0.04,0.05-0.09,0.09-0.16,0.12c0.08,0.02,0.15,0.06,0.2,0.12c0.05,0.06,0.08,0.13,0.08,0.22
					c0,0.12-0.04,0.22-0.12,0.29c-0.08,0.07-0.19,0.11-0.34,0.11H5525.03z M5525.15,261.75h0.33c0.1,0,0.18-0.03,0.23-0.07
					s0.08-0.11,0.08-0.2c0-0.09-0.03-0.16-0.08-0.2c-0.06-0.04-0.14-0.07-0.26-0.07h-0.3V261.75z M5525.15,261.86v0.58h0.36
					c0.1,0,0.18-0.03,0.24-0.08c0.06-0.05,0.09-0.12,0.09-0.22c0-0.09-0.03-0.16-0.09-0.21s-0.14-0.08-0.24-0.08H5525.15z"/>
				<path fill="#FFFFFF" d="M5526.4,262.53h-0.12v-1.41h0.12V262.53z"/>
				<path fill="#FFFFFF" d="M5527.83,261.9c0,0.13-0.02,0.24-0.07,0.34c-0.04,0.1-0.11,0.17-0.19,0.23
					c-0.08,0.05-0.18,0.08-0.29,0.08c-0.17,0-0.3-0.06-0.4-0.18s-0.15-0.28-0.15-0.48v-0.15c0-0.13,0.02-0.24,0.07-0.34
					c0.04-0.1,0.11-0.18,0.19-0.23c0.08-0.05,0.18-0.08,0.29-0.08c0.11,0,0.21,0.03,0.29,0.08c0.08,0.05,0.15,0.13,0.19,0.22
					s0.07,0.21,0.07,0.33V261.9z M5527.71,261.75c0-0.17-0.04-0.3-0.12-0.4c-0.08-0.1-0.18-0.15-0.32-0.15
					c-0.13,0-0.24,0.05-0.31,0.15s-0.12,0.23-0.12,0.41v0.15c0,0.17,0.04,0.3,0.12,0.4c0.08,0.1,0.18,0.15,0.32,0.15
					c0.13,0,0.24-0.05,0.32-0.14s0.11-0.23,0.11-0.4V261.75z"/>
				<path fill="#FFFFFF" d="M5528.29,261.12l0.52,1.25l0.52-1.25h0.16v1.41h-0.12v-0.62l0.01-0.63l-0.53,1.25h-0.09l-0.52-1.24
					l0.01,0.62v0.62h-0.12v-1.41H5528.29z"/>
				<path fill="#FFFFFF" d="M5530.63,262.14h-0.64l-0.15,0.4h-0.12l0.54-1.41h0.11l0.54,1.41h-0.12L5530.63,262.14z M5530.03,262.04
					h0.57l-0.28-0.77L5530.03,262.04z"/>
				<path fill="#FFFFFF" d="M5531.91,262.19c0-0.08-0.03-0.14-0.08-0.19c-0.05-0.04-0.16-0.09-0.3-0.13
					c-0.15-0.04-0.25-0.09-0.32-0.13c-0.1-0.07-0.14-0.16-0.14-0.27c0-0.11,0.04-0.2,0.13-0.26c0.09-0.07,0.2-0.1,0.34-0.1
					c0.09,0,0.18,0.02,0.25,0.05s0.13,0.09,0.17,0.15c0.04,0.06,0.06,0.14,0.06,0.22h-0.12c0-0.1-0.03-0.17-0.1-0.23
					c-0.07-0.06-0.15-0.09-0.27-0.09c-0.11,0-0.19,0.02-0.26,0.07c-0.06,0.05-0.1,0.11-0.1,0.19c0,0.07,0.03,0.13,0.09,0.18
					c0.06,0.04,0.15,0.08,0.28,0.12c0.13,0.03,0.22,0.07,0.29,0.11c0.07,0.04,0.12,0.08,0.15,0.13s0.05,0.11,0.05,0.18
					c0,0.11-0.04,0.2-0.13,0.27c-0.09,0.07-0.21,0.1-0.35,0.1c-0.1,0-0.19-0.02-0.27-0.05c-0.08-0.04-0.15-0.08-0.19-0.15
					s-0.06-0.14-0.06-0.22h0.12c0,0.1,0.04,0.18,0.11,0.24c0.08,0.06,0.17,0.09,0.3,0.09c0.11,0,0.2-0.02,0.26-0.07
					C5531.88,262.33,5531.91,262.27,5531.91,262.19z"/>
				<path fill="#FFFFFF" d="M5533.09,262.19c0-0.08-0.03-0.14-0.08-0.19c-0.06-0.04-0.16-0.09-0.3-0.13s-0.25-0.09-0.32-0.13
					c-0.1-0.07-0.14-0.16-0.14-0.27c0-0.11,0.04-0.2,0.13-0.26s0.2-0.1,0.34-0.1c0.09,0,0.18,0.02,0.25,0.05
					c0.07,0.04,0.13,0.09,0.17,0.15c0.04,0.06,0.06,0.14,0.06,0.22h-0.12c0-0.1-0.03-0.17-0.1-0.23c-0.07-0.06-0.16-0.09-0.27-0.09
					c-0.11,0-0.19,0.02-0.26,0.07c-0.06,0.05-0.1,0.11-0.1,0.19c0,0.07,0.03,0.13,0.09,0.18c0.06,0.04,0.15,0.08,0.28,0.12
					c0.13,0.03,0.22,0.07,0.29,0.11s0.11,0.08,0.15,0.13s0.05,0.11,0.05,0.18c0,0.11-0.04,0.2-0.13,0.27
					c-0.09,0.07-0.21,0.1-0.35,0.1c-0.1,0-0.19-0.02-0.28-0.05c-0.08-0.04-0.15-0.08-0.19-0.15c-0.04-0.06-0.06-0.14-0.06-0.22h0.12
					c0,0.1,0.04,0.18,0.11,0.24c0.08,0.06,0.17,0.09,0.3,0.09c0.11,0,0.2-0.02,0.26-0.07
					C5533.05,262.33,5533.09,262.27,5533.09,262.19z"/>
			</g>
		</g>
	</g>
</g>
</svg>
