<?xml version="1.0" encoding="utf-8"?>
<!-- Generator: Adobe Illustrator 18.0.0, SVG Export Plug-In . SVG Version: 6.00 Build 0)  -->
<!DOCTYPE svg PUBLIC "-//W3C//DTD SVG 1.1//EN" "http://www.w3.org/Graphics/SVG/1.1/DTD/svg11.dtd">
<svg version="1.1" id="AR_x5F_LAYER" xmlns="http://www.w3.org/2000/svg" xmlns:xlink="http://www.w3.org/1999/xlink" x="0px"
	 y="0px" width="9451.45px" height="623.52px" viewBox="0 0 9451.45 623.52" enable-background="new 0 0 9451.45 623.52"
	 xml:space="preserve">
<g opacity="0.01">
	<path fill="#FFFFFF" d="M4538.77,432.68c0,0,7.29-0.03,20.96-0.08c13.67-0.01,33.73,0.07,59.25,0.26
		c25.52,0.11,56.51,0.3,92.01-0.97c17.74-0.72,36.66-1.59,56.61-1.95c19.95-0.42,40.96-0.31,62.84,0.38
		c21.86,0.59,44.63,1.23,68.14,0.71c5.88-0.11,11.8-0.35,17.77-0.63c2.98-0.18,5.98-0.31,8.98-0.54c1.51-0.1,3.02-0.21,4.54-0.31
		c1.52-0.09,3.01-0.22,4.57-0.27c12.34-0.6,24.76,0.14,37.25,0.71c6.25,0.27,12.51,0.49,18.81,0.46c6.35-0.02,12.74-0.04,19.17-0.07
		c12.86-0.05,25.88-0.09,39.04-0.14c26.32-0.06,53.21-0.12,80.55-0.18c27.34-0.05,55.14-0.1,83.28-0.15
		c14.23-0.03,28.37,1.2,42.43,1.15c14.22-0.13,28.51-0.27,42.86-0.4c28.71-0.26,57.65-0.53,86.7-0.79c3.63-0.03,7.26-0.07,10.9-0.1
		c3.69-0.04,7.29-0.02,10.94-0.03c7.28,0,14.56-0.01,21.84-0.01c14.57-0.01,29.15-0.02,43.74-0.03
		c58.33,0.03,116.66,0.07,174.08,0.1c14.36-0.01,28.65-0.01,42.88-0.02c7.1-0.07,14.19-0.13,21.26-0.2l5.31-0.05
		c1.83-0.01,3.64,0.03,5.45,0.11c3.61,0.16,7.18,0.49,10.71,0.88l2.64,0.3l1.31,0.15l0.59,0.06l0.66,0.06
		c0.88,0.08,1.76,0.18,2.55,0.2c0.81,0.04,1.62,0.09,2.48,0.08c3.37,0.05,6.78-0.15,10.21-0.44c6.87-0.58,13.87-1.54,21.06-1.57
		c0.9-0.02,1.8,0.02,2.7,0.04l0.68,0.02l0.68,0.05l1.3,0.1l5.18,0.38c3.52,0.26,6.84,0.45,10.19,0.45c1.66-0.01,3.31-0.06,4.94-0.2
		l1.21-0.12l1.29-0.14c0.98-0.09,1.94-0.13,2.86-0.13c3.73,0.02,7.07,0.54,10.27,0.52c13.67-0.03,27.23-0.07,40.66-0.1
		c6.71-0.02,13.4-0.03,20.05-0.05c6.65,0.02,13.26,0.04,19.84,0.05c3.29,0.01,6.57,0.02,9.84,0.03c3.24,0.01,6.6,0,9.89,0.18
		c6.58,0.31,13,0.95,19.31,1.06c1.57,0.03,3.15,0.03,4.69-0.02c1.53-0.05,3.05-0.18,4.61-0.35c3.13-0.33,6.22-0.87,9.59-1.12
		c1.58-0.09,3.17-0.19,4.75-0.28l2.37-0.14l2.44-0.09c3.16-0.11,6.34-0.19,9.53-0.15c3.19,0.05,6.4,0.21,9.6,0.64
		c0.78,0.09,1.65,0.25,2.34,0.35c0.41,0.07,0.68,0.09,1.05,0.13c0.36,0.03,0.71,0.06,1.08,0.09c1.45,0.09,2.95,0.09,4.47,0.06
		c1.52-0.03,3.07-0.08,4.67-0.08c1.54,0,3.08,0.01,4.61,0.01c3.07,0.01,6.12,0.02,9.17,0.03c12.18,0.04,24.17,0.08,35.96,0.12
		c11.79,0.05,23.38,0.1,34.76,0.14c2.85,0.01,5.67,0.04,8.47,0.01c2.81-0.02,5.63-0.06,8.46-0.01c5.7,0.1,11.18,0.76,16.5,0.67
		c10.83-0.17,21.54-1.32,32.15-1.07c5.4,0.2,10.49,1.02,15.48,1.14c1.24,0.03,2.47,0.01,3.69-0.06l1.85-0.16
		c0.63-0.06,1.26-0.12,1.92-0.15c2.58-0.17,5.12-0.22,7.63-0.21c5.03,0.03,9.95,0.28,14.77,0.34c4.85,0.03,9.64,0.06,14.35,0.09
		c9.44,0.06,18.62,0.13,27.51,0.19c8.89,0.12,17.47,0.27,25.73-0.1c8.29-0.35,16.35-0.67,24.09-0.03c1.93,0.14,3.87,0.45,5.66,0.55
		c1.84,0.1,3.68,0.06,5.52,0.01c3.7-0.15,7.33-0.05,10.84-0.05c7.05,0.04,13.77,0.08,20.15,0.12c51.04,0.37,80.21,0.58,80.21,0.58
		s-29.17,0.21-80.21,0.58c-6.38,0.04-13.1,0.08-20.15,0.12c-3.54,0.04-7.12-0.02-10.79,0.17c-1.85,0.07-3.73,0.14-5.65,0.05
		c-1.97-0.09-3.79-0.38-5.71-0.49c-7.61-0.54-15.58-0.13-23.87,0.31c-8.32,0.47-16.96,0.42-25.84,0.4
		c-8.88,0.04-18.05,0.09-27.49,0.13c-4.72,0.03-9.52,0.05-14.37,0.08c-4.89-0.01-9.81-0.2-14.75-0.17c-2.47,0.01-4.95,0.09-7.4,0.29
		c-0.6,0.04-1.23,0.1-1.86,0.17l-1.94,0.18c-1.32,0.08-2.64,0.12-3.95,0.1c-5.24-0.09-10.42-0.87-15.48-1.01
		c-10.34-0.16-20.98,1.07-32.02,1.34c-5.63,0.13-11.15-0.49-16.62-0.53c-2.75-0.03-5.54,0.03-8.36,0.08
		c-2.84,0.05-5.68,0.05-8.52,0.06c-11.38,0.05-22.97,0.1-34.76,0.14c-11.79,0.04-23.78,0.08-35.96,0.12
		c-3.04,0.01-6.1,0.02-9.17,0.03c-1.53,0-3.07,0.01-4.6,0.01c-1.49,0.01-3.02,0.07-4.58,0.1c-1.57,0.04-3.17,0.05-4.81-0.04
		c-0.41-0.02-0.83-0.05-1.24-0.09c-0.41-0.04-0.91-0.09-1.27-0.15c-0.85-0.12-1.5-0.23-2.27-0.32c-2.97-0.39-6.01-0.52-9.08-0.55
		c-3.07-0.02-6.18,0.08-9.32,0.2l-2.29,0.1l-2.37,0.16c-1.58,0.1-3.16,0.21-4.74,0.31c-2.96,0.23-6.16,0.79-9.38,1.15
		c-1.62,0.19-3.28,0.35-4.96,0.41c-1.67,0.06-3.29,0.07-4.94,0.05c-6.56-0.08-13.03-0.68-19.45-0.95c-3.21-0.15-6.38-0.13-9.68-0.12
		c-3.27,0.01-6.55,0.02-9.84,0.03c-26.32,0.05-53.21,0.3-80.55,0.44c-3.65,0.02-7.11-0.5-10.25-0.48c-0.8,0-1.55,0.04-2.28,0.11
		l-1.27,0.15c-0.45,0.06-0.9,0.1-1.36,0.14c-1.81,0.16-3.6,0.22-5.38,0.24c-3.54,0.01-7.12-0.19-10.5-0.43l-5.18-0.36l-1.3-0.09
		l-0.61-0.04l-0.62-0.01c-0.83-0.01-1.66-0.05-2.5-0.03c-6.71,0.04-13.55,1-20.61,1.63c-3.53,0.31-7.12,0.54-10.76,0.5
		c-1.78-0.01-3.8-0.12-5.48-0.29l-0.66-0.06l-0.72-0.08l-1.3-0.15l-2.6-0.29c-3.47-0.37-6.91-0.67-10.35-0.81
		c-1.72-0.07-3.44-0.1-5.14-0.09l-5.3,0.07c-7.08,0.09-14.19,0.18-21.31,0.27c-14.23,0.02-28.53,0.05-42.88,0.07
		c-57.42,0.03-115.76,0.07-174.1,0.11c-14.58-0.01-29.17-0.02-43.74-0.03c-7.28,0-14.57-0.01-21.84-0.01
		c-3.62,0.01-7.3-0.02-10.88,0.01c-3.63,0.03-7.27,0.06-10.9,0.09c-29.05,0.23-57.99,0.46-86.7,0.69
		c-14.36,0.11-28.67,0.23-42.9,0.34c-14.41,0-28.52-1.29-42.44-1.3c-28.14-0.05-55.94-0.1-83.28-0.15
		c-27.34-0.06-54.23-0.12-80.55-0.18c-13.16-0.05-26.18-0.09-39.04-0.14c-6.43-0.02-12.82-0.04-19.17-0.07
		c-6.4-0.02-12.75-0.28-19.02-0.6c-12.53-0.66-24.83-1.47-36.84-0.97c-1.48,0.04-3.02,0.16-4.53,0.23
		c-1.51,0.09-3.02,0.19-4.52,0.28c-3.03,0.21-6.04,0.32-9.05,0.48c-6.01,0.24-11.97,0.44-17.88,0.51
		c-23.65,0.36-46.46-0.45-68.32-1.19c-43.68-1.73-83.74-0.72-119.28,0.44c-35.57,0.86-66.57,0.31-92.09-0.09
		c-25.52-0.47-45.57-0.84-59.24-1.09C4546.06,432.76,4538.77,432.68,4538.77,432.68z"/>
</g>
<g opacity="0.01">
	<path fill="#FFFFFF" d="M6862.95,433.92c0,0,33.38-0.21,91.81-0.58c3.65-0.02,7.4-0.03,11.25-0.05c3.87,0,7.8,0.17,11.82,0.16
		c2.01-0.01,4.03-0.05,6.06-0.21c2.03-0.16,4.07-0.45,6.15-0.78c4.14-0.67,8.41-1.53,12.91-1.72c8.96-0.15,18.05,1.28,27.47,2.27
		c4.71,0.49,9.5,0.89,14.36,0.81c1.21,0,2.43-0.08,3.64-0.15c1.21-0.09,2.43-0.22,3.7-0.34c2.52-0.22,5.06-0.36,7.62-0.43
		c40.74-0.36,86.6-0.49,136.69-0.64c25.04-0.08,51.12-0.16,78.11-0.24c13.5-0.04,27.22-0.08,41.16-0.13
		c13.95-0.1,28.1,0.21,42.3-0.64c1.77-0.11,3.55-0.23,5.33-0.38c1.79-0.16,3.59-0.33,5.39-0.49l1.35-0.11l1.45-0.05
		c0.98-0.05,1.9-0.01,2.85-0.01c1.87,0.06,3.74,0.16,5.59,0.34c7.37,0.69,14.56,2.07,21.54,1.89c7.1-0.17,14.24-2.02,22.09-2.4
		c3.93-0.17,7.84,0.31,11.53,0.76c1.86,0.23,3.68,0.44,5.48,0.57c1.81,0.14,3.52,0.14,5.45,0.13c15.06-0.04,30.29-0.07,45.66-0.11
		l2.86-0.01c0.98,0,1.89-0.04,2.82-0.06c1.89-0.07,3.8-0.17,5.72-0.28c3.85-0.22,7.77-0.46,11.77-0.43c2,0,4.01,0.11,6.03,0.28
		c2.02,0.17,4.06,0.49,6.01,0.85c1.95,0.35,3.83,0.73,5.68,1.01l0.64,0.09l0.73,0.09l1.46,0.17c0.93,0.08,1.82,0.15,2.75,0.2
		c7.52,0.38,15.2-0.56,23.01-1.56c3.91-0.5,7.87-1,11.88-1.34c3.99-0.34,8.02-0.59,12.08-0.63c4.06-0.04,8.16,0.1,12.26,0.59
		c2.11,0.26,3.95,0.54,5.85,0.68c1.92,0.16,3.86,0.24,5.82,0.28c3.91,0.08,7.89-0.03,11.93-0.1c4.07-0.07,8.08-0.03,12.13,0.01
		c16.16,0.18,32.32,0.83,48.45,0.23c4.03-0.14,8.06-0.4,12.07-0.7c4.02-0.33,8.06-0.8,12.19-1.17c2.06-0.18,4.15-0.33,6.25-0.43
		l1.63-0.06c0.53,0,0.98-0.02,1.58,0c1.17,0.01,2.21,0.08,3.3,0.17c4.31,0.38,8.37,1.21,12.26,1.62c0.49,0.05,0.97,0.1,1.45,0.13
		l0.71,0.05l0.77,0.04c1.04,0.06,2.01,0.1,3.01,0.14c2.01,0.07,4.03,0.08,6.06,0.07c4.05-0.02,8.14-0.18,12.26-0.33
		c4.14-0.13,8.2-0.4,12.57-0.27c4.26,0.12,8.47,0.53,12.61,1.02c4.1,0.51,8.2,1.02,12.31,1.54l3.03,0.32l3.07,0.28
		c2.01,0.17,4.06,0.3,6.1,0.41c8.17,0.43,16.39,0.35,24.61-0.05c2.06-0.1,4.11-0.22,6.17-0.36c1-0.08,2.11-0.14,3.03-0.23
		c0.56-0.05,0.91-0.11,1.38-0.17c0.46-0.07,0.93-0.16,1.41-0.25c1.9-0.38,3.88-0.93,6.02-1.41c1.07-0.24,2.17-0.46,3.32-0.61
		c1.13-0.16,2.41-0.22,3.38-0.26c4.28-0.17,8.48-0.12,12.66-0.06c4.19,0.08,8.27,0.11,12.46,0.09c16.68-0.01,33.37-0.02,50.06-0.03
		l25.04,0.01l12.51,0.01c4.17,0.01,8.32-0.02,12.56,0.06c8.39,0.14,16.68,0.51,24.87,0.3c8.31-0.3,16.62-0.61,24.91-0.91
		c4.15-0.15,8.31-0.31,12.46-0.46c4.14-0.15,8.31-0.33,12.54-0.35c2.11,0,4.22-0.01,6.46,0.16c2.22,0.18,4.34,0.51,6.38,0.82
		c2.05,0.32,4.02,0.61,5.93,0.76c0.91,0.06,1.98,0.1,2.99,0.13c0.99,0.03,2,0.04,3.02,0.05c8.12,0.05,16.38-0.51,24.75-0.49
		c8.25,0,16.48,0.01,24.69,0.01c8.22,0,16.42,0.01,24.6,0.01c4.09,0,8.18,0,12.26,0.01l6.15,0.03c2.1,0.03,4.14,0.11,6.2,0.19
		c8.2,0.36,16.23,0.99,24.15,0.78c7.86-0.22,15.9-1.34,24.13-1.66c2.06-0.09,4.13-0.09,6.22-0.05c2.13,0.07,4.06,0.2,6.07,0.28
		c3.99,0.18,7.97,0.32,11.95,0.41c7.96,0.2,15.91,0.16,23.86,0.18c15.89,0.03,31.67,0.05,47.32,0.07
		c7.82,0.01,15.62,0.02,23.37,0.04c7.76,0.01,15.48,0.05,23.14-0.03c15.32-0.15,30.55-0.61,45.48-1.45
		c3.69-0.25,7.56-0.67,11.59-0.39c1.01,0.08,2.02,0.18,3.04,0.37c1.04,0.18,1.97,0.43,2.83,0.6c1.69,0.35,3.47,0.61,5.24,0.77
		c3.56,0.33,7.2,0.32,10.92,0.34c3.71,0.02,7.43,0.08,11.11,0.16c7.37,0.16,14.67,0.37,21.91,0.43c1.81,0,3.61,0,5.41,0.01
		l1.35-0.01l0.64-0.01l0.68-0.02c0.91-0.02,1.81-0.05,2.66-0.11c3.47-0.2,7.01-0.63,10.52-1.14c7.03-1.01,14.11-2.34,21.36-2.79
		l2.72-0.12l2.74-0.03c1.75,0.02,3.54,0.07,5.33,0.14c3.55,0.15,7.07,0.4,10.57,0.72c7,0.64,13.89,1.54,20.7,2.52
		c1.7,0.24,3.43,0.53,4.99,0.67c1.61,0.15,3.27,0.21,4.93,0.23c3.32,0.04,6.69-0.12,10.09-0.21c3.44-0.1,6.8-0.02,10.14-0.03
		c3.34,0.01,6.68,0.02,9.99,0.04c6.63,0.02,13.21,0.05,19.72,0.07c13.02,0.05,25.8,0.09,38.32,0.14
		c12.55,0.05,24.79,0.39,36.72,0.17c5.98-0.11,11.83-0.34,17.65-0.8c5.82-0.44,11.67-0.91,17.5-0.58c0.72,0.04,1.47,0.09,2.25,0.2
		c0.75,0.11,1.48,0.25,2.2,0.41c1.42,0.31,2.76,0.66,4.06,0.86c2.59,0.4,5.34,0.29,8.11,0.2c1.38-0.05,2.82-0.09,4.21-0.07
		c1.38,0.01,2.75,0.01,4.12,0.02c2.74,0.01,5.46,0.03,8.16,0.04c10.81,0.05,21.3,0.11,31.48,0.16c20.34,0.1,39.38,0.2,56.99,0.29
		c8.81,0.03,17.24,0.15,25.3,0c8.06-0.12,15.75-0.36,23.05-0.55c3.65-0.09,7.21-0.19,10.67-0.2c3.47,0,6.82,0.09,10.08,0.22
		c6.51,0.26,12.59,0.66,18.25,0.86c5.66,0.23,10.91,0.19,15.72,0.24c4.81,0.03,9.18,0.06,13.09,0.09
		c15.65,0.11,23.99,0.16,23.99,0.16s-8.35,0.06-23.99,0.16c-3.91,0.03-8.28,0.06-13.09,0.09c-4.81,0.02-10.06,0.13-15.74-0.03
		c-11.36-0.27-24.35-1.23-38.94-0.43c-7.3,0.26-14.99,0.57-23.06,0.78c-8.08,0.23-16.53,0.19-25.33,0.25
		c-17.6,0.09-36.64,0.18-56.99,0.29c-10.17,0.05-20.67,0.1-31.48,0.16c-2.7,0.01-5.42,0.03-8.16,0.04
		c-1.37,0.01-2.75,0.01-4.12,0.02c-1.37,0-2.7,0.05-4.1,0.11c-2.77,0.12-5.65,0.28-8.64-0.14c-1.48-0.22-2.88-0.57-4.23-0.85
		c-1.38-0.29-2.6-0.47-4-0.5c-5.58-0.26-11.28,0.26-17.12,0.73c-5.84,0.5-11.82,0.79-17.82,0.94c-12.03,0.3-24.3,0.05-36.79,0.1
		c-12.52,0.05-25.3,0.09-38.32,0.14c-6.51,0.02-13.09,0.05-19.72,0.07c-3.32,0.01-6.65,0.02-9.99,0.04
		c-3.35,0.03-6.71-0.02-10.02,0.1c-3.34,0.11-6.75,0.3-10.23,0.28c-1.74-0.01-3.49-0.06-5.28-0.22c-1.84-0.16-3.49-0.44-5.19-0.67
		c-6.77-0.95-13.6-1.8-20.49-2.39c-3.44-0.29-6.9-0.52-10.37-0.65c-1.72-0.06-3.44-0.1-5.22-0.11l-2.55,0.04l-2.57,0.13
		c-6.88,0.46-13.83,1.79-20.99,2.87c-3.59,0.54-7.19,1-10.93,1.24c-0.95,0.07-1.86,0.1-2.75,0.13l-0.68,0.02l-0.72,0.02l-1.37,0.02
		c-1.82,0.01-3.64,0.01-5.47,0.02c-7.3-0.02-14.63-0.2-21.97-0.31c-3.68-0.06-7.34-0.1-11.04-0.1c-3.68,0-7.48,0.04-11.34-0.3
		c-1.94-0.17-3.85-0.43-5.83-0.83c-0.97-0.2-1.85-0.42-2.65-0.55c-0.82-0.15-1.68-0.23-2.53-0.3c-3.46-0.23-7.09,0.16-10.91,0.45
		c-15.13,0.94-30.35,1.46-45.77,1.65c-7.71,0.1-15.44,0.08-23.19,0.1c-7.76,0.01-15.55,0.02-23.37,0.04
		c-15.65,0.02-31.43,0.05-47.32,0.07c-7.94,0.01-15.94,0.07-23.98-0.11c-4.02-0.08-8.05-0.2-12.08-0.37
		c-2.01-0.08-4.08-0.21-5.97-0.26c-1.94-0.04-3.88-0.02-5.85,0.06c-7.87,0.32-15.87,1.47-24.2,1.74
		c-8.29,0.25-16.48-0.38-24.54-0.71c-2.01-0.08-4.04-0.15-6.02-0.18l-6.09-0.02c-4.08,0-8.17,0-12.26,0.01
		c-8.18,0-16.38,0.01-24.6,0.01c-8.22,0-16.45,0.01-24.69,0.01c-8.12-0.02-16.36,0.56-24.79,0.52c-1.05-0.01-2.11-0.02-3.19-0.05
		c-1.05-0.03-2.06-0.06-3.21-0.14c-2.22-0.17-4.35-0.49-6.39-0.8c-2.05-0.32-4.03-0.61-5.95-0.77c-1.89-0.14-3.94-0.14-5.97-0.13
		c-4.07,0.02-8.19,0.21-12.35,0.36c-4.15,0.16-8.3,0.32-12.45,0.47c-8.32,0.31-16.65,0.62-24.98,0.94
		c-8.46,0.23-16.84-0.14-25.12-0.27c-4.1-0.07-8.29-0.04-12.46-0.04l-12.51,0.01l-25.04,0.01c-16.69-0.01-33.38-0.02-50.06-0.03
		c-8.37,0.09-16.79-0.36-24.87-0.06c-1.11,0.04-1.91,0.08-2.84,0.21c-0.92,0.12-1.86,0.31-2.82,0.52c-1.93,0.43-3.96,0.99-6.14,1.43
		c-0.55,0.11-1.1,0.21-1.66,0.3c-0.56,0.08-1.25,0.18-1.72,0.21c-1.15,0.11-2.12,0.16-3.19,0.24c-2.09,0.14-4.19,0.26-6.28,0.36
		c-8.38,0.4-16.8,0.47-25.2,0.02c-2.1-0.11-4.19-0.25-6.31-0.43l-3.12-0.29l-3.14-0.34c-4.11-0.52-8.22-1.03-12.33-1.55
		c-4.07-0.49-8.1-0.88-12.09-1c-3.9-0.13-8.08,0.12-12.18,0.25c-8.27,0.3-16.56,0.63-25.09-0.16c-4.28-0.47-8.28-1.3-12.14-1.63
		c-3.7-0.36-7.76-0.01-11.77,0.31c-4.02,0.35-8.09,0.82-12.21,1.16c-4.13,0.32-8.24,0.57-12.35,0.7
		c-16.43,0.55-32.68-0.15-48.72-0.38c-4-0.05-8.03-0.1-11.99-0.04c-3.99,0.05-8.03,0.15-12.12,0.06c-2.04-0.05-4.1-0.14-6.16-0.32
		c-2.08-0.16-4.19-0.48-6.03-0.72c-3.82-0.46-7.69-0.61-11.58-0.59c-3.88,0.03-7.78,0.25-11.68,0.57c-3.88,0.32-7.76,0.8-11.68,1.28
		c-7.82,0.97-15.82,1.95-23.96,1.52c-1.02-0.06-2.08-0.15-3.1-0.24l-1.45-0.18l-0.73-0.09l-0.81-0.12
		c-2.01-0.31-3.95-0.71-5.83-1.06c-1.89-0.35-3.69-0.64-5.55-0.8c-1.85-0.17-3.71-0.27-5.6-0.28c-3.76-0.04-7.57,0.17-11.43,0.38
		c-1.93,0.1-3.88,0.2-5.83,0.27c-0.99,0.02-2,0.06-2.95,0.06l-2.91,0c-15.37-0.04-30.6-0.07-45.66-0.11c-1.83,0-3.89-0.01-5.82-0.18
		c-1.95-0.15-3.85-0.39-5.71-0.63c-3.73-0.48-7.27-0.93-10.79-0.8c-7.05,0.27-14.42,2.09-22.06,2.27
		c-7.78,0.13-15.05-1.35-22.13-2.04c-1.77-0.19-3.53-0.29-5.27-0.36c-0.86,0-1.76-0.04-2.58,0l-1.26,0.03l-1.35,0.1l-0.62,0.05
		l-0.68,0.06l-1.36,0.12l-2.72,0.23c-1.81,0.15-3.62,0.26-5.43,0.35c-14.46,0.78-28.63,0.38-42.54,0.39
		c-13.94-0.04-27.66-0.08-41.16-0.13c-26.99-0.08-53.07-0.16-78.11-0.24c-50.06-0.18-95.96-0.35-136.63-0.5
		c-2.53,0.05-5.03,0.16-7.49,0.35c-1.22,0.1-2.48,0.22-3.74,0.3c-1.26,0.06-2.52,0.13-3.76,0.12c-4.99,0.03-9.85-0.43-14.59-0.97
		c-4.74-0.54-9.36-1.2-13.89-1.7c-2.25-0.25-4.52-0.45-6.74-0.62c-2.23-0.17-4.42-0.28-6.57-0.21c-4.32,0.13-8.54,0.94-12.73,1.57
		c-2.09,0.32-4.19,0.6-6.28,0.74c-2.09,0.14-4.14,0.17-6.17,0.16c-4.06-0.03-7.99-0.23-11.82-0.28c-3.84-0.02-7.59-0.04-11.24-0.06
		C6896.33,434.13,6862.95,433.92,6862.95,433.92z"/>
</g>
<g opacity="0.01">
	<path d="M454.81,315.96c-1.9,0-3.44,1.54-3.44,3.44c0,0,0,0,0,0.01c0,0,0,0,0,0c0,1.9,1.54,3.44,3.44,3.44s3.44-1.54,3.44-3.44
		c0,0,0,0,0,0c0,0,0,0,0,0C458.24,317.5,456.7,315.96,454.81,315.96z M454.81,322.48c-1.7,0-3.08-1.38-3.09-3.08
		c0-1.7,1.38-3.09,3.09-3.09s3.08,1.38,3.09,3.08C457.89,321.1,456.51,322.48,454.81,322.48z"/>
	<path d="M454.81,332.77c-1.43,0-2.59,1.16-2.59,2.59c0,0.45,0.12,0.86,0.33,1.23c-0.13,0.3-0.21,0.64-0.21,0.99
		c0,0.54,0.18,1.04,0.48,1.45c-0.21,0.35-0.34,0.76-0.34,1.19c0,1.28,1.04,2.33,2.33,2.33s2.33-1.04,2.33-2.33
		c0-0.44-0.13-0.84-0.34-1.19c0.3-0.41,0.48-0.91,0.48-1.45c0-0.35-0.08-0.68-0.21-0.99c0.2-0.37,0.33-0.78,0.33-1.23
		C457.39,333.93,456.23,332.77,454.81,332.77z M452.57,335.36c0-1.24,1-2.24,2.24-2.24s2.24,1,2.24,2.24c0,0.31-0.06,0.6-0.17,0.87
		c-0.26-0.39-0.63-0.71-1.06-0.9c-0.02-0.54-0.46-0.98-1-0.98c-0.55,0-0.99,0.44-1,0.98c-0.43,0.19-0.8,0.51-1.06,0.9
		C452.63,335.96,452.57,335.66,452.57,335.36z M455.82,337.34c-0.11-0.47-0.51-0.83-1.02-0.83c-0.51,0-0.91,0.36-1.02,0.83
		c-0.34-0.18-0.63-0.43-0.85-0.75c0.21-0.39,0.53-0.7,0.92-0.9c0.14,0.39,0.5,0.68,0.94,0.68c0.44,0,0.81-0.29,0.94-0.68
		c0.39,0.2,0.71,0.51,0.92,0.9C456.46,336.91,456.17,337.16,455.82,337.34z M454.81,339.3c-0.26,0-0.49,0.11-0.66,0.28
		c-0.35-0.11-0.65-0.31-0.9-0.57c0.22-0.28,0.52-0.51,0.86-0.63c0.19,0.16,0.43,0.27,0.69,0.27c0.27,0,0.51-0.11,0.69-0.27
		c0.34,0.13,0.64,0.35,0.86,0.63c-0.24,0.26-0.55,0.46-0.9,0.57C455.3,339.41,455.06,339.3,454.81,339.3z M452.69,337.58
		c0-0.22,0.04-0.42,0.1-0.62c0.26,0.33,0.59,0.59,0.98,0.77c0.02,0.13,0.05,0.25,0.11,0.36c-0.33,0.14-0.62,0.37-0.85,0.65
		C452.81,338.4,452.69,338,452.69,337.58z M456.78,340.22c0,1.09-0.89,1.98-1.98,1.98s-1.98-0.89-1.98-1.98
		c0-0.33,0.09-0.63,0.23-0.9c0.25,0.25,0.56,0.44,0.9,0.57c-0.04,0.1-0.07,0.22-0.07,0.33c0,0.51,0.41,0.92,0.92,0.92
		c0.51,0,0.92-0.41,0.92-0.92c0-0.12-0.03-0.23-0.07-0.33c0.34-0.13,0.65-0.32,0.9-0.57C456.7,339.59,456.78,339.89,456.78,340.22z
		 M456.92,337.58c0,0.43-0.13,0.82-0.34,1.15c-0.23-0.27-0.52-0.5-0.85-0.65c0.06-0.11,0.1-0.23,0.11-0.36
		c0.39-0.17,0.72-0.44,0.98-0.77C456.88,337.16,456.92,337.36,456.92,337.58z"/>
	<circle cx="454.81" cy="319.4" r="2.19"/>
	<path d="M454.81,299.72c-2.35,0-4.26,1.91-4.26,4.26s1.91,4.26,4.26,4.26c2.35,0,4.26-1.91,4.26-4.26S457.15,299.72,454.81,299.72z
		 M454.81,307.88c-2.16,0-3.91-1.75-3.91-3.91c0-2.16,1.75-3.91,3.91-3.91s3.91,1.75,3.91,3.91
		C458.71,306.14,456.96,307.88,454.81,307.88z"/>
	<circle cx="454.81" cy="303.98" r="2.85"/>
	<path d="M454.81,286.98c-2.7,0-4.9,2.2-4.9,4.9c0,2.7,2.2,4.9,4.9,4.9c2.7,0,4.9-2.2,4.9-4.9
		C459.71,289.18,457.51,286.98,454.81,286.98z M454.81,296.43c-2.51,0-4.55-2.04-4.55-4.55c0-2.51,2.04-4.55,4.55-4.55
		s4.55,2.04,4.55,4.55C459.35,294.4,457.32,296.43,454.81,296.43z"/>
	<circle cx="454.81" cy="291.88" r="3.46"/>
	<path d="M454.81,175.34c-5.81,0-10.54,4.73-10.54,10.54s4.73,10.54,10.54,10.54s10.54-4.73,10.54-10.54
		S460.62,175.34,454.81,175.34z M454.81,196.07c-5.63,0-10.19-4.56-10.19-10.19c0-5.63,4.56-10.19,10.19-10.19
		s10.19,4.56,10.19,10.19C464.99,191.51,460.43,196.07,454.81,196.07z"/>
	<path d="M454.81,175.82c-5.56,0-10.06,4.5-10.06,10.06c0,5.56,4.5,10.06,10.06,10.06c5.56,0,10.06-4.5,10.06-10.06
		C464.87,180.33,460.36,175.82,454.81,175.82z M454.81,188.47c-1.42,0-2.58-1.16-2.58-2.58c0-1.42,1.16-2.58,2.58-2.58
		c1.42,0,2.58,1.16,2.58,2.58C457.39,187.31,456.23,188.47,454.81,188.47z"/>
	<circle cx="498.3" cy="325.74" r="1.57"/>
	<path d="M498.3,333.79c-1.39,0-2.52,1.13-2.52,2.52c0,0.33,0.07,0.64,0.18,0.92c-0.06,0.21-0.1,0.42-0.1,0.64
		c0,0.79,0.39,1.49,0.97,1.93c-0.47,0.41-0.78,1.01-0.78,1.69c0,1.24,1.01,2.25,2.25,2.25s2.25-1.01,2.25-2.25
		c0-0.67-0.31-1.27-0.78-1.69c0.59-0.45,0.97-1.14,0.97-1.93c0-0.22-0.04-0.44-0.1-0.64c0.11-0.29,0.18-0.6,0.18-0.92
		C500.82,334.92,499.69,333.79,498.3,333.79z M496.13,336.31c0-1.2,0.97-2.17,2.17-2.17s2.17,0.97,2.17,2.17
		c0,0.14-0.02,0.27-0.04,0.4c-0.33-0.61-0.91-1.06-1.6-1.21c-0.16-0.1-0.33-0.18-0.53-0.18c-0.2,0-0.38,0.07-0.53,0.18
		c-0.69,0.15-1.27,0.61-1.6,1.21C496.14,336.58,496.13,336.45,496.13,336.31z M497.67,337.05c-0.25,0.19-0.42,0.48-0.42,0.82
		c0,0.13,0.03,0.25,0.07,0.36c-0.43-0.22-0.78-0.58-0.99-1.02c0.18-0.52,0.55-0.95,1.04-1.2c-0.03,0.09-0.06,0.19-0.06,0.3
		C497.31,336.61,497.46,336.87,497.67,337.05z M498.93,337.05c0.21-0.18,0.36-0.44,0.36-0.74c0-0.1-0.03-0.2-0.06-0.3
		c0.49,0.24,0.87,0.67,1.04,1.2c-0.2,0.44-0.55,0.8-0.99,1.02c0.04-0.11,0.07-0.23,0.07-0.36
		C499.36,337.53,499.18,337.24,498.93,337.05z M500.2,341.5c0,1.05-0.85,1.9-1.9,1.9c-1.05,0-1.9-0.85-1.9-1.9
		c0-0.61,0.29-1.14,0.74-1.49c0.35,0.19,0.74,0.31,1.16,0.31s0.81-0.12,1.16-0.31C499.9,340.35,500.2,340.89,500.2,341.5z
		 M497.48,339.79c0.25-0.12,0.53-0.19,0.82-0.19s0.57,0.07,0.82,0.19c-0.25,0.11-0.53,0.17-0.82,0.17S497.73,339.9,497.48,339.79z
		 M500.39,337.87c0,0.71-0.36,1.34-0.91,1.72c-0.34-0.21-0.75-0.34-1.18-0.34s-0.84,0.13-1.18,0.34c-0.55-0.38-0.91-1.01-0.91-1.72
		c0-0.05,0.01-0.09,0.01-0.14c0.36,0.52,0.91,0.9,1.56,1.04c0.15,0.09,0.32,0.15,0.52,0.15s0.36-0.06,0.52-0.15
		c0.64-0.13,1.2-0.52,1.56-1.04C500.38,337.78,500.39,337.83,500.39,337.87z"/>
	<circle cx="498.3" cy="341.5" r="0.88"/>
	<path d="M501.73,319.29c0-1.89-1.54-3.43-3.43-3.43c-1.89,0-3.43,1.54-3.43,3.43c0,1.78,1.37,3.23,3.11,3.4
		c-1.55,0.16-2.77,1.46-2.77,3.05c0,1.7,1.38,3.08,3.08,3.08c1.7,0,3.08-1.38,3.08-3.08c0-1.59-1.22-2.89-2.77-3.05
		C500.35,322.53,501.73,321.07,501.73,319.29z M501.03,325.74c0,1.51-1.22,2.73-2.73,2.73s-2.73-1.22-2.73-2.73
		c0-1.51,1.22-2.73,2.73-2.73S501.03,324.23,501.03,325.74z M498.3,322.37c-1.7,0-3.08-1.38-3.08-3.08c0-1.7,1.38-3.08,3.08-3.08
		s3.08,1.38,3.08,3.08C501.38,320.99,500,322.37,498.3,322.37z"/>
	<circle cx="498.3" cy="319.29" r="2.23"/>
	<path d="M498.3,300.13c-2.33,0-4.22,1.89-4.22,4.22c0,2.33,1.89,4.22,4.22,4.22c2.33,0,4.22-1.89,4.22-4.22
		C502.52,302.02,500.63,300.13,498.3,300.13z M498.3,308.22c-2.14,0-3.87-1.73-3.87-3.87c0-2.14,1.73-3.87,3.87-3.87
		s3.87,1.73,3.87,3.87C502.17,306.49,500.44,308.22,498.3,308.22z"/>
	<circle cx="498.3" cy="304.35" r="2.89"/>
	<path d="M498.3,287.55c-2.68,0-4.86,2.18-4.86,4.86c0,2.68,2.18,4.86,4.86,4.86s4.86-2.18,4.86-4.86
		C503.16,289.73,500.98,287.55,498.3,287.55z M498.3,296.91c-2.49,0-4.51-2.02-4.51-4.51c0-2.49,2.02-4.51,4.51-4.51
		c2.49,0,4.51,2.02,4.51,4.51C502.81,294.9,500.79,296.91,498.3,296.91z"/>
	<circle cx="498.3" cy="292.41" r="3.51"/>
	<path d="M498.3,171.94c-5.9,0-10.7,4.8-10.7,10.7c0,5.9,4.8,10.7,10.7,10.7s10.7-4.8,10.7-10.7
		C509,176.74,504.2,171.94,498.3,171.94z M498.3,192.99c-5.71,0-10.35-4.63-10.35-10.35c0-5.71,4.63-10.35,10.35-10.35
		c5.71,0,10.35,4.63,10.35,10.35C508.65,188.35,504.01,192.99,498.3,192.99z"/>
	<path d="M498.3,172.46c-5.62,0-10.18,4.56-10.18,10.18c0,5.62,4.56,10.18,10.18,10.18s10.18-4.56,10.18-10.18
		C508.48,177.02,503.92,172.46,498.3,172.46z M498.3,185.35c-1.5,0-2.71-1.22-2.71-2.71s1.22-2.71,2.71-2.71s2.71,1.22,2.71,2.71
		S499.8,185.35,498.3,185.35z"/>
	<circle cx="541.91" cy="324.35" r="1.6"/>
	<path d="M541.91,334.7c-1.37,0-2.48,1.11-2.48,2.48c0,0.23,0.04,0.46,0.1,0.67c-0.03,0.14-0.04,0.29-0.04,0.44
		c0,0.83,0.43,1.57,1.07,2.01c-0.53,0.41-0.87,1.04-0.87,1.75c0,1.22,0.99,2.22,2.22,2.22s2.22-0.99,2.22-2.22
		c0-0.71-0.34-1.34-0.87-1.75c0.64-0.43,1.07-1.17,1.07-2.01c0-0.15-0.02-0.3-0.04-0.44c0.06-0.21,0.1-0.44,0.1-0.67
		C544.38,335.81,543.27,334.7,541.91,334.7z M540.92,337.18c0,0.18,0.06,0.34,0.15,0.49c-0.13,0.18-0.22,0.38-0.22,0.62
		c0,0.43,0.26,0.8,0.64,0.97c-0.75-0.15-1.35-0.71-1.58-1.43c0.18-0.81,0.84-1.43,1.66-1.57
		C541.18,336.4,540.92,336.76,540.92,337.18z M542.97,338.29c0-0.24-0.09-0.44-0.22-0.62c0.09-0.15,0.15-0.31,0.15-0.49
		c0-0.42-0.27-0.78-0.64-0.92c0.82,0.14,1.48,0.77,1.66,1.57c-0.23,0.72-0.83,1.27-1.58,1.43
		C542.71,339.09,542.97,338.72,542.97,338.29z M541.91,335.05c1.17,0,2.11,0.94,2.12,2.11c-0.41-0.76-1.2-1.29-2.12-1.29
		s-1.72,0.53-2.12,1.29C539.79,335.99,540.74,335.05,541.91,335.05z M543.77,342.04c0,1.03-0.84,1.87-1.87,1.87
		s-1.87-0.84-1.87-1.87c0-0.66,0.34-1.23,0.86-1.57c0.31,0.14,0.65,0.23,1.01,0.23s0.7-0.09,1.01-0.23
		C543.43,340.81,543.77,341.39,543.77,342.04z M541.35,340.27c0.18-0.06,0.36-0.09,0.56-0.09s0.38,0.04,0.56,0.09
		c-0.18,0.05-0.36,0.09-0.56,0.09S541.53,340.32,541.35,340.27z M542.92,340.08c-0.3-0.16-0.65-0.26-1.01-0.26
		c-0.37,0-0.71,0.1-1.01,0.26c-0.55-0.31-0.93-0.85-1.03-1.5c0.45,0.65,1.19,1.07,2.04,1.07s1.59-0.43,2.04-1.07
		C543.85,339.23,543.46,339.77,542.92,340.08z"/>
	<circle cx="541.91" cy="342.04" r="0.88"/>
	<path d="M545.36,318.88c0-1.9-1.55-3.45-3.45-3.45c-1.9,0-3.45,1.55-3.45,3.45c0,1.23,0.65,2.3,1.62,2.91
		c-0.8,0.57-1.32,1.51-1.32,2.56c0,1.74,1.42,3.16,3.16,3.16c1.74,0,3.16-1.42,3.16-3.16c0-1.06-0.53-1.99-1.32-2.56
		C544.71,321.18,545.36,320.11,545.36,318.88z M544.71,324.35c0,1.55-1.26,2.81-2.81,2.81c-1.55,0-2.81-1.26-2.81-2.81
		c0-1,0.53-1.88,1.32-2.37c0.45,0.22,0.95,0.35,1.49,0.35s1.04-0.13,1.49-0.35C544.18,322.48,544.71,323.35,544.71,324.35z
		 M540.81,321.77c0.34-0.14,0.71-0.22,1.1-0.22s0.76,0.08,1.1,0.22c-0.34,0.13-0.71,0.21-1.1,0.21S541.15,321.9,540.81,321.77z
		 M543.39,321.58c-0.45-0.24-0.95-0.39-1.49-0.39s-1.04,0.15-1.49,0.39c-0.96-0.53-1.61-1.53-1.61-2.7c0-1.71,1.39-3.1,3.1-3.1
		s3.1,1.39,3.1,3.1C545.01,320.05,544.35,321.06,543.39,321.58z"/>
	<circle cx="541.91" cy="318.88" r="2.3"/>
	<path d="M541.91,299.42c-2.35,0-4.26,1.91-4.26,4.26s1.91,4.26,4.26,4.26s4.26-1.91,4.26-4.26S544.25,299.42,541.91,299.42z
		 M541.91,307.59c-2.16,0-3.91-1.75-3.91-3.91c0-2.16,1.75-3.91,3.91-3.91c2.16,0,3.91,1.75,3.91,3.91
		C545.81,305.84,544.06,307.59,541.91,307.59z"/>
	<circle cx="541.91" cy="303.68" r="2.99"/>
	<path d="M541.91,286.46c-2.71,0-4.91,2.2-4.91,4.91c0,2.71,2.2,4.91,4.91,4.91c2.71,0,4.91-2.2,4.91-4.91
		C546.82,288.66,544.62,286.46,541.91,286.46z M541.91,295.93c-2.52,0-4.56-2.04-4.56-4.56c0-2.52,2.04-4.56,4.56-4.56
		s4.56,2.04,4.56,4.56C546.47,293.89,544.43,295.93,541.91,295.93z"/>
	<circle cx="541.91" cy="291.37" r="3.64"/>
	<path d="M541.91,167.23c-6.03,0-10.93,4.91-10.93,10.93s4.91,10.93,10.93,10.93s10.93-4.91,10.93-10.93
		S547.94,167.23,541.91,167.23z M541.91,188.75c-5.85,0-10.58-4.74-10.58-10.58c0-5.85,4.74-10.58,10.58-10.58
		c5.85,0,10.58,4.74,10.58,10.58C552.49,184.01,547.75,188.75,541.91,188.75z"/>
	<path d="M541.91,167.74c-5.76,0-10.43,4.67-10.43,10.43c0,5.76,4.67,10.43,10.43,10.43s10.43-4.67,10.43-10.43
		C552.33,172.4,547.66,167.74,541.91,167.74z M541.91,181.12c-1.63,0-2.96-1.33-2.96-2.96c0-1.63,1.33-2.96,2.96-2.96
		s2.96,1.33,2.96,2.96C544.86,179.79,543.54,181.12,541.91,181.12z"/>
	<circle cx="585.51" cy="322.99" r="1.66"/>
	<path d="M585.51,333.77c-1.39,0-2.52,1.13-2.52,2.52c0,0.21,0.03,0.41,0.08,0.61c-0.01,0.11-0.03,0.21-0.03,0.32
		c0,0.94,0.53,1.74,1.3,2.16c-0.65,0.4-1.08,1.11-1.08,1.92c0,1.24,1.01,2.26,2.26,2.26s2.26-1.01,2.26-2.26
		c0-0.81-0.44-1.52-1.08-1.92c0.77-0.42,1.3-1.23,1.3-2.16c0-0.11-0.02-0.21-0.03-0.32c0.05-0.19,0.08-0.4,0.08-0.6
		C588.04,334.9,586.9,333.77,585.51,333.77z M585.51,334.12c1.1,0,2,0.82,2.14,1.89c-0.43-0.75-1.22-1.26-2.14-1.26
		s-1.72,0.51-2.14,1.26C583.51,334.94,584.41,334.12,585.51,334.12z M587.6,336.86c-0.25,0.92-1.09,1.6-2.09,1.6
		c-1,0-1.84-0.68-2.09-1.6c0.17-1,1.04-1.77,2.09-1.77C586.56,335.09,587.43,335.86,587.6,336.86z M587.42,341.3
		c0,1.05-0.85,1.91-1.91,1.91s-1.91-0.85-1.91-1.91c0-0.78,0.47-1.45,1.14-1.74c0.24,0.08,0.5,0.14,0.77,0.14s0.53-0.05,0.77-0.14
		C586.95,339.85,587.42,340.52,587.42,341.3z M586.29,339.19c-0.24-0.09-0.51-0.15-0.78-0.15s-0.54,0.06-0.78,0.15
		c-0.62-0.25-1.09-0.78-1.26-1.43c0.46,0.64,1.2,1.06,2.05,1.06c0.84,0,1.59-0.42,2.05-1.06
		C587.39,338.41,586.91,338.94,586.29,339.19z"/>
	<path d="M586.56,336.29c0-0.58-0.47-1.05-1.05-1.05c-0.58,0-1.05,0.47-1.05,1.05c0,0.14,0.03,0.27,0.08,0.39
		c-0.09,0.16-0.16,0.34-0.16,0.54c0,0.62,0.5,1.12,1.12,1.12c0.62,0,1.12-0.5,1.12-1.12c0-0.2-0.07-0.38-0.16-0.54
		C586.53,336.56,586.56,336.43,586.56,336.29z"/>
	<circle cx="585.51" cy="341.3" r="0.93"/>
	<path d="M589.07,316.84c0-1.96-1.6-3.56-3.56-3.56s-3.56,1.6-3.56,3.56c0,1.46,0.88,2.71,2.14,3.26c-1.07,0.53-1.81,1.62-1.81,2.89
		c0,1.78,1.45,3.23,3.23,3.23c1.78,0,3.23-1.45,3.23-3.23c0-1.27-0.74-2.36-1.81-2.89C588.19,319.55,589.07,318.3,589.07,316.84z
		 M588.39,322.99c0,1.59-1.29,2.88-2.88,2.88s-2.88-1.29-2.88-2.88c0-1.27,0.83-2.34,1.97-2.72c0.29,0.08,0.59,0.13,0.91,0.13
		s0.62-0.05,0.91-0.13C587.56,320.65,588.39,321.72,588.39,322.99z M586.42,319.9c-0.29-0.09-0.59-0.15-0.91-0.15
		c-0.32,0-0.62,0.06-0.91,0.15c-1.32-0.39-2.3-1.61-2.3-3.06c0-1.77,1.44-3.21,3.21-3.21c1.77,0,3.21,1.44,3.21,3.21
		C588.72,318.29,587.75,319.51,586.42,319.9z"/>
	<circle cx="585.51" cy="316.84" r="2.44"/>
	<path d="M585.51,297.19c-2.41,0-4.37,1.96-4.37,4.37c0,2.41,1.96,4.37,4.37,4.37c2.41,0,4.37-1.96,4.37-4.37
		C589.88,299.15,587.92,297.19,585.51,297.19z M585.51,305.58c-2.22,0-4.02-1.8-4.02-4.02s1.8-4.02,4.02-4.02s4.02,1.8,4.02,4.02
		S587.73,305.58,585.51,305.58z"/>
	<circle cx="585.51" cy="301.56" r="3.15"/>
	<path d="M585.51,283.9c-2.78,0-5.04,2.26-5.04,5.04s2.26,5.04,5.04,5.04s5.04-2.26,5.04-5.04S588.29,283.9,585.51,283.9z
		 M585.51,293.64c-2.59,0-4.69-2.1-4.69-4.69c0-2.59,2.1-4.69,4.69-4.69c2.59,0,4.69,2.1,4.69,4.69
		C590.2,291.54,588.1,293.64,585.51,293.64z"/>
	<circle cx="585.51" cy="288.95" r="3.83"/>
	<path d="M585.51,160.22c-6.22,0-11.29,5.06-11.29,11.29c0,6.22,5.06,11.29,11.29,11.29c6.22,0,11.29-5.06,11.29-11.29
		C596.8,165.29,591.74,160.22,585.51,160.22z M585.51,182.45c-6.04,0-10.94-4.9-10.94-10.94c0-6.04,4.9-10.94,10.94-10.94
		s10.94,4.9,10.94,10.94C596.45,177.55,591.55,182.45,585.51,182.45z"/>
	<path d="M585.51,160.72c-5.96,0-10.79,4.83-10.79,10.79c0,5.96,4.83,10.79,10.79,10.79c5.96,0,10.79-4.83,10.79-10.79
		C596.3,165.55,591.47,160.72,585.51,160.72z M585.51,174.83c-1.83,0-3.32-1.49-3.32-3.32s1.49-3.32,3.32-3.32s3.32,1.49,3.32,3.32
		S587.34,174.83,585.51,174.83z"/>
	<path d="M629.12,333.26c-1.41,0-2.55,1.14-2.55,2.55c0,0.16,0.02,0.32,0.05,0.47c0,0.05-0.02,0.1-0.02,0.15
		c0,1.2,0.85,2.21,1.98,2.45c-0.99,0.24-1.73,1.13-1.73,2.2c0,1.25,1.02,2.27,2.27,2.27c1.25,0,2.27-1.02,2.27-2.27
		c0-1.06-0.74-1.95-1.73-2.2c1.13-0.25,1.98-1.25,1.98-2.45c0-0.05-0.01-0.1-0.01-0.15c0.03-0.15,0.05-0.31,0.05-0.47
		C631.67,334.41,630.53,333.26,629.12,333.26z M629.12,333.61c0.91,0,1.69,0.55,2.02,1.33c-0.46-0.62-1.19-1.03-2.02-1.03
		c-0.83,0-1.56,0.41-2.02,1.03C627.43,334.16,628.21,333.61,629.12,333.61z M631.27,336.27c-0.21,0.99-1.09,1.74-2.15,1.74
		c-1.06,0-1.94-0.75-2.15-1.74c0.08-1.12,1.01-2,2.15-2S631.18,335.15,631.27,336.27z M631.04,341.08c0,1.06-0.86,1.92-1.92,1.92
		s-1.92-0.86-1.92-1.92c0-1.06,0.86-1.92,1.92-1.92S631.04,340.02,631.04,341.08z M629.12,338.6c-0.77,0-1.45-0.41-1.83-1.02
		c0.46,0.48,1.11,0.78,1.83,0.78c0.72,0,1.37-0.3,1.83-0.78C630.57,338.19,629.89,338.6,629.12,338.6z"/>
	<path d="M630.22,335.81c0-0.61-0.49-1.1-1.1-1.1s-1.1,0.49-1.1,1.1c0,0.05,0.02,0.09,0.03,0.14c-0.07,0.15-0.11,0.31-0.11,0.48
		c0,0.65,0.53,1.18,1.18,1.18c0.65,0,1.18-0.53,1.18-1.18c0-0.17-0.04-0.33-0.11-0.48C630.2,335.9,630.22,335.86,630.22,335.81z"/>
	<circle cx="629.12" cy="341.08" r="0.97"/>
	<path d="M629.12,312.93c-1.97,0-3.58,1.6-3.58,3.58c0,0.42,0.09,0.82,0.22,1.2c-0.07,0.27-0.11,0.54-0.11,0.83
		c0,1.91,1.56,3.47,3.47,3.47s3.47-1.56,3.47-3.47c0-0.29-0.05-0.57-0.11-0.83c0.13-0.38,0.22-0.77,0.22-1.2
		C632.7,314.54,631.09,312.93,629.12,312.93z M625.89,316.51c0-1.78,1.44-3.23,3.23-3.23c1.78,0,3.23,1.44,3.23,3.23
		c0,0.21-0.02,0.42-0.06,0.62c-0.17-0.39-0.41-0.74-0.7-1.03c-0.2-1.18-1.22-2.09-2.46-2.09c-1.24,0-2.26,0.9-2.46,2.09
		c-0.29,0.3-0.53,0.65-0.7,1.03C625.92,316.93,625.89,316.72,625.89,316.51z M626.64,316.67c0.04,0.61,0.29,1.15,0.69,1.57
		c-0.02,0.1-0.03,0.2-0.03,0.3c0,0.25,0.05,0.49,0.14,0.71c-0.58-0.36-1.05-0.9-1.3-1.54C626.24,317.33,626.41,316.98,626.64,316.67
		z M630.95,318.54c0-0.1-0.01-0.2-0.03-0.3c0.4-0.41,0.65-0.96,0.69-1.57c0.23,0.31,0.4,0.65,0.51,1.03
		c-0.26,0.65-0.72,1.18-1.3,1.54C630.9,319.03,630.95,318.79,630.95,318.54z M632.24,318.54c0,1.72-1.4,3.12-3.12,3.12
		c-1.72,0-3.12-1.4-3.12-3.12c0-0.09,0.02-0.18,0.03-0.26c0.41,0.71,1.04,1.26,1.8,1.56c0.33,0.33,0.79,0.53,1.29,0.53
		c0.5,0,0.96-0.2,1.29-0.53c0.77-0.3,1.4-0.85,1.8-1.56C632.22,318.36,632.24,318.45,632.24,318.54z"/>
	<path d="M629.12,295.71c-2.45,0-4.45,1.99-4.45,4.45c0,2.45,1.99,4.45,4.45,4.45s4.45-1.99,4.45-4.45
		C633.57,297.7,631.57,295.71,629.12,295.71z M629.12,304.25c-2.26,0-4.1-1.83-4.1-4.1s1.83-4.1,4.1-4.1s4.09,1.83,4.09,4.1
		S631.38,304.25,629.12,304.25z"/>
	<circle cx="629.12" cy="300.16" r="3.27"/>
	<path d="M629.12,281.42c-2.85,0-5.17,2.32-5.17,5.17s2.32,5.17,5.17,5.17c2.85,0,5.17-2.32,5.17-5.17S631.97,281.42,629.12,281.42z
		 M629.12,291.4c-2.66,0-4.82-2.16-4.82-4.82s2.16-4.82,4.82-4.82s4.82,2.16,4.82,4.82S631.78,291.4,629.12,291.4z"/>
	<circle cx="629.12" cy="286.58" r="4.02"/>
	<path d="M629.12,151.78c-6.46,0-11.72,5.26-11.72,11.72c0,6.46,5.26,11.72,11.72,11.72s11.72-5.26,11.72-11.72
		C640.83,157.03,635.58,151.78,629.12,151.78z M629.12,174.86c-6.28,0-11.36-5.09-11.36-11.36s5.09-11.36,11.36-11.36
		c6.28,0,11.36,5.09,11.36,11.36S635.4,174.86,629.12,174.86z"/>
	<path d="M629.12,152.27c-6.2,0-11.22,5.02-11.22,11.22c0,6.2,5.02,11.22,11.22,11.22c6.2,0,11.22-5.02,11.22-11.22
		C640.34,157.3,635.32,152.27,629.12,152.27z M629.12,167.24c-2.07,0-3.75-1.68-3.75-3.75c0-2.07,1.68-3.75,3.75-3.75
		c2.07,0,3.75,1.68,3.75,3.75C632.87,165.56,631.19,167.24,629.12,167.24z"/>
	<path d="M672.73,332.78c-1.41,0-2.56,1.15-2.56,2.56c0,0.03,0.01,0.05,0.01,0.08c0,0.01,0,0.02,0,0.02c0,1.41,1.15,2.55,2.55,2.55
		c1.41,0,2.55-1.15,2.55-2.55c0-0.01,0-0.02,0-0.02c0-0.03,0.01-0.05,0.01-0.08C675.29,333.93,674.14,332.78,672.73,332.78z
		 M672.73,337.55c-1.19,0-2.16-0.95-2.2-2.13c0.01-1.21,0.99-2.18,2.2-2.18c1.21,0,2.19,0.97,2.2,2.18
		C674.88,336.6,673.92,337.55,672.73,337.55z"/>
	<path d="M672.73,334.1c-0.69,0-1.24,0.56-1.24,1.24c0,0.52,0.33,0.97,0.78,1.15c0.14,0.06,0.29,0.1,0.46,0.1
		c0.16,0,0.32-0.04,0.46-0.1c0.46-0.18,0.78-0.63,0.78-1.15C673.97,334.65,673.41,334.1,672.73,334.1z"/>
	<path d="M672.73,338.51c-1.25,0-2.27,1.02-2.27,2.27c0,1.25,1.02,2.27,2.27,2.27s2.27-1.02,2.27-2.27
		C675,339.53,673.98,338.51,672.73,338.51z M672.73,342.7c-1.06,0-1.92-0.86-1.92-1.92c0-1.06,0.86-1.92,1.92-1.92
		c1.06,0,1.92,0.86,1.92,1.92C674.65,341.84,673.79,342.7,672.73,342.7z"/>
	<circle cx="672.73" cy="340.78" r="1"/>
	<path d="M672.73,310.92c-2.02,0-3.66,1.64-3.66,3.66c0,0.44,0.09,0.86,0.24,1.25c-0.07,0.28-0.12,0.57-0.12,0.87
		c0,1.96,1.59,3.55,3.55,3.55c1.96,0,3.55-1.59,3.55-3.55c0-0.3-0.05-0.59-0.12-0.87c0.14-0.39,0.24-0.81,0.24-1.25
		C676.39,312.57,674.75,310.92,672.73,310.92z M669.41,314.59c0-1.83,1.48-3.31,3.31-3.31c1.83,0,3.31,1.48,3.31,3.31
		c0,0.24-0.03,0.47-0.07,0.69c-0.16-0.36-0.38-0.68-0.65-0.97c-0.14-1.31-1.24-2.34-2.59-2.34c-1.35,0-2.45,1.03-2.59,2.34
		c-0.26,0.28-0.49,0.61-0.65,0.97C669.44,315.05,669.41,314.82,669.41,314.59z M670.13,314.85c0.06,0.6,0.32,1.15,0.72,1.56
		c-0.02,0.1-0.03,0.2-0.03,0.3c0,0.23,0.05,0.45,0.12,0.66c-0.57-0.37-1.02-0.9-1.28-1.53
		C669.77,315.48,669.92,315.15,670.13,314.85z M674.63,316.72c0-0.1-0.01-0.2-0.03-0.3c0.4-0.41,0.66-0.96,0.72-1.56
		c0.21,0.29,0.37,0.63,0.47,0.99c-0.26,0.63-0.71,1.16-1.28,1.53C674.58,317.17,674.63,316.95,674.63,316.72z M675.93,316.72
		c0,1.77-1.43,3.2-3.2,3.2c-1.77,0-3.2-1.43-3.2-3.2c0-0.11,0.02-0.21,0.03-0.32c0.4,0.69,1,1.25,1.73,1.56
		c0.35,0.4,0.86,0.67,1.44,0.67c0.58,0,1.09-0.26,1.43-0.66c0.74-0.31,1.34-0.87,1.73-1.56C675.9,316.5,675.93,316.6,675.93,316.72z
		"/>
	<path d="M672.73,292.81c-2.52,0-4.58,2.05-4.58,4.58c0,2.52,2.05,4.58,4.58,4.58c2.52,0,4.58-2.05,4.58-4.58
		C677.3,294.86,675.25,292.81,672.73,292.81z M672.73,301.61c-2.33,0-4.23-1.89-4.23-4.23s1.89-4.23,4.23-4.23
		c2.33,0,4.23,1.89,4.23,4.23S675.06,301.61,672.73,301.61z"/>
	<circle cx="672.73" cy="297.39" r="3.45"/>
	<path d="M672.73,277.6c-2.95,0-5.35,2.4-5.35,5.35c0,2.95,2.4,5.35,5.35,5.35s5.35-2.4,5.35-5.35
		C678.07,279.99,675.67,277.6,672.73,277.6z M672.73,287.94c-2.76,0-5-2.24-5-5c0-2.76,2.24-5,5-5s5,2.24,5,5
		C677.72,285.7,675.49,287.94,672.73,287.94z"/>
	<circle cx="672.73" cy="282.94" r="4.25"/>
	<path d="M672.73,139.38c-6.8,0-12.33,5.53-12.33,12.33c0,6.8,5.53,12.33,12.33,12.33c6.8,0,12.33-5.53,12.33-12.33
		C685.05,144.9,679.52,139.38,672.73,139.38z M672.73,163.68c-6.61,0-11.98-5.36-11.98-11.98c0-6.61,5.36-11.98,11.98-11.98
		c6.61,0,11.98,5.36,11.98,11.98C684.7,158.32,679.34,163.68,672.73,163.68z"/>
	<path d="M672.73,139.86c-6.54,0-11.84,5.3-11.84,11.84c0,6.54,5.3,11.84,11.84,11.84c6.54,0,11.84-5.3,11.84-11.84
		C684.57,145.16,679.26,139.86,672.73,139.86z M672.73,156.08c-2.41,0-4.38-1.96-4.38-4.38c0-2.41,1.96-4.38,4.38-4.38
		c2.41,0,4.38,1.96,4.38,4.38C677.1,154.12,675.14,156.08,672.73,156.08z"/>
	<path d="M716.33,332.1c-1.44,0-2.6,1.17-2.6,2.6c0,0.13,0.02,0.26,0.04,0.39c0,0.04-0.01,0.08-0.01,0.12
		c0,1.42,1.16,2.58,2.58,2.58s2.58-1.16,2.58-2.58c0-0.04-0.01-0.08-0.01-0.12c0.02-0.13,0.04-0.26,0.04-0.39
		C718.93,333.27,717.77,332.1,716.33,332.1z M716.33,332.45c0.78,0,1.47,0.4,1.88,1.01c-0.47-0.5-1.14-0.82-1.88-0.82
		c-0.74,0-1.41,0.32-1.88,0.82C714.86,332.86,715.55,332.45,716.33,332.45z M718.54,335.1c-0.19,1.06-1.1,1.86-2.21,1.86
		c-1.11,0-2.03-0.81-2.21-1.86c0.06-1.17,1.03-2.11,2.21-2.11S718.48,333.92,718.54,335.1z M716.33,337.44
		c-0.65,0-1.23-0.28-1.64-0.73c0.45,0.37,1.01,0.59,1.64,0.59s1.19-0.23,1.64-0.59C717.56,337.16,716.98,337.44,716.33,337.44z"/>
	<path d="M716.33,333.41c-0.72,0-1.3,0.58-1.3,1.3c0,0.19,0.04,0.36,0.11,0.52c0.01,0.65,0.54,1.18,1.19,1.18s1.18-0.53,1.19-1.18
		c0.07-0.16,0.11-0.34,0.11-0.52C717.63,333.99,717.05,333.41,716.33,333.41z"/>
	<path d="M716.33,338.45c-1.26,0-2.28,1.02-2.28,2.28s1.02,2.28,2.28,2.28c1.26,0,2.28-1.02,2.28-2.28S717.59,338.45,716.33,338.45z
		 M716.33,342.66c-1.07,0-1.93-0.87-1.93-1.93c0-1.07,0.87-1.93,1.93-1.93s1.93,0.87,1.93,1.93
		C718.26,341.8,717.4,342.66,716.33,342.66z"/>
	<circle cx="716.33" cy="340.73" r="1.04"/>
	<path d="M716.33,309.62c-2.06,0-3.74,1.68-3.74,3.74c0,0.87,0.31,1.66,0.81,2.3c-0.37,0.56-0.59,1.22-0.59,1.94
		c0,1.94,1.58,3.51,3.51,3.51c1.94,0,3.51-1.58,3.51-3.51c0-0.72-0.22-1.38-0.59-1.94c0.5-0.64,0.81-1.43,0.81-2.3
		C720.07,311.29,718.39,309.62,716.33,309.62z M719.49,317.6c0,1.75-1.42,3.16-3.16,3.16c-1.75,0-3.16-1.42-3.16-3.16
		c0-0.61,0.18-1.17,0.48-1.65c0.29,0.3,0.64,0.55,1.02,0.74c-0.15,0.27-0.24,0.58-0.24,0.91c0,1.05,0.85,1.9,1.9,1.9
		s1.9-0.85,1.9-1.9c0-0.33-0.09-0.64-0.24-0.91c0.38-0.19,0.73-0.44,1.02-0.74C719.31,316.43,719.49,316.99,719.49,317.6z
		 M714.31,315.18c0.3,0.34,0.69,0.59,1.13,0.75c-0.22,0.12-0.42,0.28-0.57,0.47c-0.38-0.19-0.73-0.44-1.01-0.75
		C713.99,315.48,714.14,315.32,714.31,315.18z M718.81,315.65c-0.29,0.31-0.63,0.56-1.01,0.75c-0.16-0.19-0.35-0.35-0.57-0.47
		c0.44-0.15,0.82-0.41,1.13-0.75C718.52,315.32,718.67,315.48,718.81,315.65z M718.57,314.91c0.31-0.44,0.49-0.98,0.49-1.56
		c0-1.51-1.22-2.73-2.73-2.73s-2.73,1.22-2.73,2.73c0,0.58,0.18,1.11,0.49,1.56c-0.17,0.14-0.32,0.3-0.46,0.47
		c-0.42-0.57-0.69-1.26-0.69-2.02c0-1.87,1.52-3.39,3.39-3.39c1.87,0,3.39,1.52,3.39,3.39c0,0.76-0.26,1.46-0.69,2.02
		C718.89,315.21,718.74,315.05,718.57,314.91z"/>
	<path d="M716.33,290.67c-2.59,0-4.7,2.11-4.7,4.7s2.11,4.7,4.7,4.7c2.59,0,4.7-2.11,4.7-4.7S718.92,290.67,716.33,290.67z
		 M716.33,299.71c-2.4,0-4.35-1.95-4.35-4.35c0-2.4,1.95-4.35,4.35-4.35s4.35,1.95,4.35,4.35
		C720.68,297.76,718.73,299.71,716.33,299.71z"/>
	<circle cx="716.33" cy="295.36" r="3.61"/>
	<path d="M716.33,274.54c-3.04,0-5.51,2.47-5.51,5.51c0,3.04,2.47,5.51,5.51,5.51s5.51-2.47,5.51-5.51
		C721.84,277.01,719.37,274.54,716.33,274.54z M716.33,285.21c-2.85,0-5.16-2.31-5.16-5.16c0-2.85,2.31-5.16,5.16-5.16
		s5.16,2.31,5.16,5.16C721.49,282.9,719.18,285.21,716.33,285.21z"/>
	<circle cx="716.33" cy="280.05" r="4.48"/>
	<path d="M716.33,135.56c-6.91,0-12.53,5.62-12.53,12.53c0,6.91,5.62,12.53,12.53,12.53s12.53-5.62,12.53-12.53
		C728.86,141.18,723.24,135.56,716.33,135.56z M716.33,160.27c-6.73,0-12.18-5.45-12.18-12.18c0-6.73,5.45-12.18,12.18-12.18
		c6.73,0,12.18,5.45,12.18,12.18C728.51,154.82,723.06,160.27,716.33,160.27z"/>
	<path d="M716.33,136.04c-6.66,0-12.06,5.4-12.06,12.06c0,6.66,5.4,12.06,12.06,12.06c6.66,0,12.06-5.4,12.06-12.06
		C728.39,141.43,722.99,136.04,716.33,136.04z M716.33,152.69c-2.53,0-4.59-2.06-4.59-4.59c0-2.53,2.06-4.59,4.59-4.59
		s4.59,2.06,4.59,4.59C720.93,150.63,718.86,152.69,716.33,152.69z"/>
	<path d="M759.94,330.55c-1.48,0-2.69,1.21-2.69,2.69c0,0.25,0.04,0.48,0.11,0.71c-0.03,0.15-0.05,0.3-0.05,0.45
		c0,1.45,1.18,2.63,2.63,2.63s2.63-1.18,2.63-2.63c0-0.15-0.02-0.3-0.05-0.45c0.06-0.23,0.11-0.46,0.11-0.71
		C762.63,331.75,761.42,330.55,759.94,330.55z M758.77,333.97c-0.05,0.13-0.09,0.27-0.09,0.43c0,0.48,0.27,0.87,0.66,1.09
		c-0.78-0.21-1.39-0.8-1.63-1.57c0.14-0.64,0.54-1.17,1.09-1.48c-0.16,0.23-0.26,0.5-0.26,0.8
		C758.55,333.51,758.63,333.76,758.77,333.97z M761.2,334.4c0-0.15-0.04-0.29-0.09-0.43c0.14-0.21,0.22-0.47,0.22-0.74
		c0-0.3-0.1-0.57-0.26-0.8c0.55,0.32,0.96,0.85,1.09,1.48c-0.24,0.77-0.85,1.36-1.63,1.57C760.92,335.27,761.2,334.87,761.2,334.4z
		 M759.94,330.9c1.29,0,2.33,1.04,2.33,2.32c-0.43-0.86-1.31-1.45-2.33-1.45s-1.9,0.59-2.33,1.45
		C757.61,331.94,758.65,330.9,759.94,330.9z M759.94,336.67c-1.15,0-2.09-0.86-2.24-1.96c0.48,0.73,1.31,1.21,2.24,1.21
		s1.76-0.48,2.24-1.21C762.03,335.82,761.09,336.67,759.94,336.67z"/>
	<circle cx="759.94" cy="316.56" r="1.96"/>
	<path d="M759.94,337.84c-1.28,0-2.32,1.04-2.32,2.32c0,1.28,1.04,2.32,2.32,2.32s2.32-1.04,2.32-2.32
		C762.26,338.88,761.22,337.84,759.94,337.84z M759.94,342.13c-1.09,0-1.97-0.88-1.97-1.97c0-1.09,0.88-1.97,1.97-1.97
		s1.97,0.88,1.97,1.97C761.91,341.25,761.03,342.13,759.94,342.13z"/>
	<circle cx="759.94" cy="340.16" r="1.1"/>
	<path d="M763.87,309.91c0-2.17-1.76-3.93-3.93-3.93s-3.93,1.76-3.93,3.93c0,1.55,0.92,2.89,2.23,3.53
		c-1.11,0.61-1.88,1.77-1.88,3.13c0,1.97,1.6,3.57,3.57,3.57s3.57-1.6,3.57-3.57c0-1.35-0.76-2.52-1.88-3.13
		C762.95,312.8,763.87,311.46,763.87,309.91z M763.16,316.56c0,1.78-1.44,3.22-3.22,3.22s-3.22-1.44-3.22-3.22
		c0-1.32,0.8-2.46,1.94-2.96c0.4,0.14,0.83,0.23,1.28,0.23s0.88-0.09,1.28-0.23C762.36,314.1,763.16,315.24,763.16,316.56z
		 M759.25,313.42c0.22-0.05,0.46-0.08,0.69-0.08s0.47,0.03,0.69,0.08c-0.22,0.04-0.46,0.07-0.69,0.07S759.47,313.46,759.25,313.42z
		 M761.23,313.24c-0.4-0.16-0.83-0.25-1.29-0.25s-0.89,0.09-1.29,0.25c-1.34-0.52-2.29-1.81-2.29-3.33c0-1.98,1.6-3.58,3.58-3.58
		s3.58,1.6,3.58,3.58C763.52,311.43,762.57,312.72,761.23,313.24z"/>
	<circle cx="759.94" cy="309.91" r="2.94"/>
	<path d="M759.94,285.74c-2.73,0-4.95,2.22-4.95,4.95c0,2.73,2.22,4.95,4.95,4.95s4.95-2.22,4.95-4.95
		C764.89,287.96,762.67,285.74,759.94,285.74z M759.94,295.29c-2.54,0-4.6-2.06-4.6-4.6s2.06-4.6,4.6-4.6c2.54,0,4.6,2.06,4.6,4.6
		S762.48,295.29,759.94,295.29z"/>
	<circle cx="759.94" cy="290.69" r="3.89"/>
	<path d="M759.94,268.24c-3.22,0-5.83,2.62-5.83,5.83c0,3.22,2.62,5.83,5.83,5.83s5.83-2.62,5.83-5.83
		C765.77,270.86,763.16,268.24,759.94,268.24z M759.94,279.56c-3.03,0-5.48-2.45-5.48-5.48c0-3.03,2.45-5.48,5.48-5.48
		s5.48,2.45,5.48,5.48C765.42,277.11,762.97,279.56,759.94,279.56z"/>
	<circle cx="759.94" cy="274.08" r="4.85"/>
	<path d="M759.94,124.13c-7.23,0-13.11,5.88-13.11,13.11c0,7.23,5.88,13.11,13.11,13.11s13.11-5.88,13.11-13.11
		C773.05,130.02,767.17,124.13,759.94,124.13z M759.94,150.01c-7.05,0-12.76-5.71-12.76-12.76c0-7.05,5.71-12.76,12.76-12.76
		s12.76,5.71,12.76,12.76C772.7,144.29,766.99,150.01,759.94,150.01z"/>
	<path d="M759.94,124.6c-6.99,0-12.65,5.66-12.65,12.65c0,6.99,5.66,12.65,12.65,12.65s12.65-5.66,12.65-12.65
		C772.59,130.26,766.93,124.6,759.94,124.6z M759.94,142.42c-2.85,0-5.17-2.32-5.17-5.17c0-2.85,2.32-5.17,5.17-5.17
		s5.17,2.32,5.17,5.17C765.12,140.1,762.79,142.42,759.94,142.42z"/>
	<path d="M803.55,328.19c-1.55,0-2.82,1.26-2.82,2.82c0,0.44,0.11,0.85,0.29,1.22c-0.11,0.29-0.18,0.61-0.18,0.94
		c0,1.49,1.21,2.7,2.7,2.7s2.7-1.21,2.7-2.7c0-0.33-0.07-0.64-0.18-0.94c0.18-0.37,0.29-0.78,0.29-1.22
		C806.36,329.46,805.1,328.19,803.55,328.19z M801.08,331.01c0-1.36,1.1-2.47,2.47-2.47c1.36,0,2.47,1.1,2.47,2.47
		c0,0.28-0.06,0.55-0.14,0.8c-0.21-0.35-0.49-0.66-0.83-0.89c-0.05-0.79-0.69-1.41-1.49-1.41c-0.8,0-1.45,0.63-1.49,1.41
		c-0.34,0.23-0.62,0.53-0.83,0.89C801.14,331.56,801.08,331.29,801.08,331.01z M804.87,333.08c-0.02-0.35-0.17-0.66-0.41-0.89
		c0.27-0.21,0.47-0.51,0.55-0.85c0.29,0.23,0.53,0.52,0.68,0.87C805.49,332.56,805.21,332.87,804.87,333.08z M801.4,332.21
		c0.15-0.34,0.39-0.63,0.68-0.87c0.08,0.35,0.28,0.64,0.55,0.85c-0.24,0.23-0.39,0.54-0.41,0.89
		C801.88,332.87,801.6,332.56,801.4,332.21z M805.9,333.17c0,1.3-1.05,2.35-2.35,2.35s-2.35-1.05-2.35-2.35
		c0-0.18,0.03-0.36,0.06-0.53c0.26,0.37,0.61,0.66,1.01,0.87c0.15,0.57,0.65,1,1.27,1c0.62,0,1.12-0.43,1.27-1
		c0.4-0.21,0.75-0.5,1.01-0.87C805.87,332.81,805.9,332.99,805.9,333.17z"/>
	<circle cx="803.55" cy="314.11" r="2.08"/>
	<path d="M803.55,336.88c-1.31,0-2.38,1.07-2.38,2.38c0,1.31,1.07,2.38,2.38,2.38c1.31,0,2.38-1.07,2.38-2.38
		C805.92,337.95,804.86,336.88,803.55,336.88z M803.55,341.29c-1.12,0-2.03-0.91-2.03-2.03c0-1.12,0.91-2.03,2.03-2.03
		s2.03,0.91,2.03,2.03C805.57,340.38,804.67,341.29,803.55,341.29z"/>
	<circle cx="803.55" cy="339.26" r="1.16"/>
	<path d="M807.68,306.32c0-2.28-1.85-4.13-4.13-4.13c-2.28,0-4.13,1.85-4.13,4.13c0,2.18,1.7,3.95,3.84,4.1
		c-1.91,0.15-3.42,1.74-3.42,3.69c0,2.05,1.67,3.72,3.72,3.72s3.72-1.67,3.72-3.72c0-1.95-1.51-3.53-3.42-3.69
		C805.98,310.27,807.68,308.5,807.68,306.32z M806.91,314.11c0,1.86-1.51,3.36-3.36,3.36s-3.36-1.51-3.36-3.36
		c0-1.86,1.51-3.36,3.36-3.36S806.91,312.25,806.91,314.11z M803.55,310.1c-2.09,0-3.78-1.69-3.78-3.78s1.69-3.78,3.78-3.78
		s3.78,1.69,3.78,3.78S805.63,310.1,803.55,310.1z"/>
	<circle cx="803.55" cy="306.32" r="3.16"/>
	<path d="M803.55,279.95c-2.9,0-5.25,2.36-5.25,5.25s2.36,5.25,5.25,5.25s5.25-2.36,5.25-5.25S806.44,279.95,803.55,279.95z
		 M803.55,290.11c-2.71,0-4.9-2.19-4.9-4.9c0-2.71,2.19-4.9,4.9-4.9c2.71,0,4.9,2.19,4.9,4.9
		C808.45,287.91,806.25,290.11,803.55,290.11z"/>
	<circle cx="803.55" cy="285.21" r="4.22"/>
	<path d="M803.55,260.54c-3.44,0-6.23,2.8-6.23,6.23s2.8,6.23,6.23,6.23c3.44,0,6.23-2.8,6.23-6.23S806.98,260.54,803.55,260.54z
		 M803.55,272.65c-3.25,0-5.88-2.63-5.88-5.88s2.63-5.88,5.88-5.88c3.25,0,5.88,2.63,5.88,5.88S806.79,272.65,803.55,272.65z"/>
	<circle cx="803.55" cy="266.77" r="5.29"/>
	<path d="M803.55,110.29c-7.62,0-13.82,6.2-13.82,13.82c0,7.62,6.2,13.82,13.82,13.82s13.82-6.2,13.82-13.82
		C817.37,116.49,811.17,110.29,803.55,110.29z M803.55,137.58c-7.44,0-13.47-6.03-13.47-13.47c0-7.44,6.03-13.47,13.47-13.47
		s13.47,6.03,13.47,13.47C817.02,131.55,810.99,137.58,803.55,137.58z"/>
	<path d="M803.55,110.75c-7.38,0-13.37,5.99-13.37,13.37c0,7.38,5.99,13.37,13.37,13.37s13.37-5.99,13.37-13.37
		C816.91,116.73,810.93,110.75,803.55,110.75z M803.55,130c-3.25,0-5.89-2.64-5.89-5.89c0-3.25,2.64-5.89,5.89-5.89
		c3.25,0,5.89,2.64,5.89,5.89C809.43,127.36,806.79,130,803.55,130z"/>
	<circle cx="847.15" cy="337.9" r="1.24"/>
	<path d="M847.15,325.37c-1.62,0-2.95,1.32-2.95,2.95c0,0.65,0.22,1.24,0.57,1.73c-0.25,0.42-0.41,0.9-0.41,1.43
		c0,1.53,1.25,2.78,2.78,2.78c1.53,0,2.78-1.25,2.78-2.78c0-0.52-0.15-1.01-0.41-1.43c0.36-0.49,0.57-1.08,0.57-1.73
		C850.1,326.69,848.78,325.37,847.15,325.37z M849.58,331.47c0,1.34-1.09,2.43-2.43,2.43s-2.43-1.09-2.43-2.43
		c0-0.41,0.11-0.8,0.29-1.14c0.23,0.25,0.51,0.44,0.81,0.6c-0.07,0.17-0.11,0.35-0.11,0.54c0,0.79,0.64,1.43,1.43,1.43
		c0.79,0,1.43-0.64,1.43-1.43c0-0.19-0.04-0.37-0.11-0.54c0.3-0.15,0.58-0.35,0.81-0.6C849.47,330.68,849.58,331.06,849.58,331.47z
		 M847.15,329.94c0.49,0,0.92-0.22,1.21-0.56c0.28,0.17,0.53,0.38,0.73,0.64c-0.22,0.25-0.49,0.46-0.79,0.61
		c-0.26-0.35-0.68-0.59-1.15-0.59c-0.47,0-0.89,0.23-1.15,0.59c-0.3-0.15-0.57-0.36-0.79-0.61c0.2-0.26,0.44-0.48,0.72-0.64
		C846.24,329.72,846.67,329.94,847.15,329.94z M848.57,329.1c0.13-0.23,0.21-0.5,0.21-0.78c0-0.9-0.73-1.62-1.62-1.62
		s-1.62,0.73-1.62,1.62c0,0.28,0.08,0.55,0.21,0.78c-0.29,0.17-0.54,0.39-0.75,0.65c-0.27-0.41-0.43-0.9-0.43-1.43
		c0-1.43,1.16-2.6,2.6-2.6s2.6,1.16,2.6,2.6c0,0.53-0.16,1.02-0.43,1.43C849.11,329.49,848.86,329.27,848.57,329.1z"/>
	<path d="M847.15,308.19c-2.1,0-3.81,1.71-3.81,3.81s1.71,3.81,3.81,3.81s3.81-1.71,3.81-3.81S849.26,308.19,847.15,308.19z
		 M847.15,315.47c-1.91,0-3.46-1.55-3.46-3.46s1.55-3.46,3.46-3.46c1.91,0,3.46,1.55,3.46,3.46S849.07,315.47,847.15,315.47z"/>
	<circle cx="847.15" cy="312.01" r="2.17"/>
	<path d="M847.15,335.46c-1.34,0-2.44,1.09-2.44,2.44c0,1.34,1.09,2.44,2.44,2.44s2.44-1.09,2.44-2.44
		C849.59,336.55,848.5,335.46,847.15,335.46z M847.15,339.98c-1.15,0-2.09-0.93-2.09-2.09s0.93-2.09,2.09-2.09s2.09,0.93,2.09,2.09
		S848.31,339.98,847.15,339.98z"/>
	<path d="M847.15,298.56c-2.37,0-4.3,1.93-4.3,4.3s1.93,4.3,4.3,4.3s4.3-1.93,4.3-4.3S849.52,298.56,847.15,298.56z M847.15,306.82
		c-2.18,0-3.95-1.77-3.95-3.95s1.77-3.95,3.95-3.95s3.95,1.77,3.95,3.95S849.33,306.82,847.15,306.82z"/>
	<circle cx="847.15" cy="302.87" r="3.35"/>
	<path d="M847.15,274.04c-3.05,0-5.54,2.48-5.54,5.54s2.48,5.54,5.54,5.54s5.54-2.48,5.54-5.54S850.21,274.04,847.15,274.04z
		 M847.15,284.77c-2.87,0-5.19-2.32-5.19-5.19c0-2.87,2.32-5.19,5.19-5.19c2.87,0,5.19,2.32,5.19,5.19
		C852.34,282.45,850.02,284.77,847.15,284.77z"/>
	<circle cx="847.15" cy="279.58" r="4.54"/>
	<path d="M847.15,252.47c-3.66,0-6.63,2.97-6.63,6.63s2.97,6.63,6.63,6.63s6.63-2.97,6.63-6.63S850.81,252.47,847.15,252.47z
		 M847.15,265.38c-3.47,0-6.28-2.81-6.28-6.28c0-3.47,2.81-6.28,6.28-6.28s6.28,2.81,6.28,6.28
		C853.43,262.57,850.62,265.38,847.15,265.38z"/>
	<circle cx="847.15" cy="259.1" r="5.74"/>
	<path d="M847.15,104.82c-7.77,0-14.09,6.32-14.09,14.09c0,7.77,6.32,14.09,14.09,14.09s14.09-6.32,14.09-14.09
		C861.24,111.14,854.92,104.82,847.15,104.82z M847.15,132.65c-7.59,0-13.73-6.15-13.73-13.73c0-7.59,6.15-13.73,13.73-13.73
		c7.59,0,13.73,6.15,13.73,13.73C860.89,126.5,854.74,132.65,847.15,132.65z"/>
	<path d="M847.15,105.27c-7.53,0-13.64,6.11-13.64,13.64c0,7.53,6.11,13.64,13.64,13.64s13.64-6.11,13.64-13.64
		C860.79,111.38,854.69,105.27,847.15,105.27z M847.15,125.08c-3.4,0-6.17-2.77-6.17-6.17s2.77-6.17,6.17-6.17s6.17,2.77,6.17,6.17
		S850.56,125.08,847.15,125.08z"/>
	<path d="M890.76,323.65c-1.67,0-3.03,1.36-3.03,3.03c0,0.79,0.31,1.49,0.8,2.03c-0.37,0.48-0.6,1.07-0.6,1.72
		c0,1.56,1.27,2.83,2.83,2.83s2.83-1.27,2.83-2.83c0-0.65-0.23-1.24-0.6-1.72c0.49-0.54,0.8-1.25,0.8-2.03
		C893.79,325.01,892.43,323.65,890.76,323.65z M890.76,332.92c-1.37,0-2.48-1.11-2.48-2.48c0-0.56,0.19-1.07,0.5-1.48
		c0.25,0.21,0.52,0.4,0.83,0.52c-0.22,0.26-0.35,0.59-0.35,0.95c0,0.83,0.67,1.5,1.5,1.5s1.5-0.67,1.5-1.5
		c0-0.36-0.13-0.69-0.35-0.95c0.31-0.13,0.58-0.31,0.83-0.52c0.31,0.41,0.5,0.92,0.5,1.48
		C893.24,331.81,892.13,332.92,890.76,332.92z M889.85,328.13c0.26,0.17,0.58,0.27,0.91,0.27s0.65-0.1,0.91-0.27
		c0.32,0.13,0.61,0.31,0.85,0.56c-0.26,0.23-0.56,0.4-0.9,0.52c-0.24-0.17-0.54-0.28-0.86-0.28s-0.62,0.1-0.86,0.28
		c-0.33-0.11-0.64-0.29-0.9-0.52C889.24,328.45,889.53,328.26,889.85,328.13z M891.98,327.89c0.31-0.31,0.5-0.74,0.5-1.21
		c0-0.95-0.77-1.72-1.72-1.72s-1.72,0.77-1.72,1.72c0,0.47,0.19,0.9,0.5,1.21c-0.29,0.14-0.56,0.32-0.79,0.55
		c-0.41-0.47-0.67-1.08-0.67-1.76c0-1.48,1.2-2.68,2.68-2.68s2.68,1.2,2.68,2.68c0,0.68-0.26,1.29-0.67,1.76
		C892.54,328.21,892.27,328.03,891.98,327.89z"/>
	<path d="M890.76,306.11c-2.16,0-3.92,1.76-3.92,3.92c0,2.16,1.76,3.92,3.92,3.92s3.92-1.76,3.92-3.92
		C894.68,307.86,892.92,306.11,890.76,306.11z M890.76,313.59c-1.97,0-3.57-1.6-3.57-3.57c0-1.97,1.6-3.57,3.57-3.57
		c1.97,0,3.57,1.6,3.57,3.57C894.33,311.99,892.73,313.59,890.76,313.59z"/>
	<circle cx="890.76" cy="310.02" r="2.27"/>
	<path d="M890.76,334.09c-1.38,0-2.5,1.12-2.5,2.5s1.12,2.5,2.5,2.5s2.5-1.12,2.5-2.5S892.14,334.09,890.76,334.09z M890.76,338.75
		c-1.19,0-2.15-0.96-2.15-2.15c0-1.19,0.96-2.15,2.15-2.15s2.15,0.96,2.15,2.15C892.91,337.78,891.95,338.75,890.76,338.75z"/>
	<circle cx="890.76" cy="336.59" r="1.31"/>
	<path d="M890.76,294.92c-2.47,0-4.48,2.01-4.48,4.48c0,2.47,2.01,4.48,4.48,4.48c2.47,0,4.48-2.01,4.48-4.48
		C895.24,296.93,893.23,294.92,890.76,294.92z M890.76,303.54c-2.28,0-4.13-1.85-4.13-4.13c0-2.28,1.85-4.13,4.13-4.13
		s4.13,1.85,4.13,4.13C894.89,301.69,893.04,303.54,890.76,303.54z"/>
	<circle cx="890.76" cy="299.41" r="3.56"/>
	<path d="M890.76,269.96c-3.17,0-5.74,2.58-5.74,5.74s2.58,5.74,5.74,5.74s5.74-2.58,5.74-5.74S893.93,269.96,890.76,269.96z
		 M890.76,281.1c-2.98,0-5.39-2.41-5.39-5.39s2.41-5.39,5.39-5.39s5.39,2.41,5.39,5.39S893.74,281.1,890.76,281.1z"/>
	<circle cx="890.76" cy="275.7" r="4.79"/>
	<path d="M890.76,247.57c-3.79,0-6.87,3.08-6.87,6.87s3.08,6.87,6.87,6.87s6.87-3.08,6.87-6.87S894.55,247.57,890.76,247.57z
		 M890.76,260.96c-3.6,0-6.52-2.92-6.52-6.52c0-3.6,2.92-6.52,6.52-6.52c3.6,0,6.52,2.92,6.52,6.52
		C897.28,258.04,894.36,260.96,890.76,260.96z"/>
	<circle cx="890.76" cy="254.44" r="6.05"/>
	<path d="M890.76,110.57c-7.61,0-13.79,6.19-13.79,13.79c0,7.61,6.19,13.79,13.79,13.79s13.79-6.19,13.79-13.79
		C904.55,116.76,898.37,110.57,890.76,110.57z M890.76,137.81c-7.42,0-13.44-6.02-13.44-13.44c0-7.42,6.02-13.44,13.44-13.44
		s13.44,6.02,13.44,13.44C904.2,131.79,898.18,137.81,890.76,137.81z"/>
	<path d="M890.76,111c-7.38,0-13.36,5.98-13.36,13.36c0,7.38,5.98,13.36,13.36,13.36s13.36-5.98,13.36-13.36
		C904.12,116.99,898.14,111,890.76,111z M890.76,130.26c-3.25,0-5.9-2.64-5.9-5.9c0-3.25,2.64-5.9,5.9-5.9s5.9,2.64,5.9,5.9
		C896.66,127.61,894.01,130.26,890.76,130.26z"/>
	<path d="M934.49,322.62c-1.7,0-3.09,1.38-3.09,3.09c0,0.73,0.27,1.4,0.69,1.93c-0.32,0.47-0.51,1.03-0.51,1.63
		c0,1.6,1.3,2.9,2.9,2.9s2.9-1.3,2.9-2.9c0-0.6-0.19-1.17-0.51-1.63c0.43-0.53,0.7-1.19,0.7-1.93
		C937.58,324,936.19,322.62,934.49,322.62z M934.49,331.81c-1.41,0-2.55-1.14-2.55-2.55c0-0.5,0.15-0.96,0.4-1.35
		c0.23,0.22,0.49,0.4,0.77,0.54c-0.14,0.24-0.23,0.51-0.23,0.81c0,0.89,0.72,1.61,1.61,1.61c0.89,0,1.61-0.72,1.61-1.61
		c0-0.3-0.09-0.57-0.23-0.81c0.28-0.14,0.55-0.32,0.77-0.54c0.25,0.39,0.4,0.85,0.4,1.35C937.04,330.67,935.9,331.81,934.49,331.81z
		 M933.27,327.04c0.32,0.29,0.75,0.48,1.22,0.48s0.89-0.18,1.22-0.48c0.28,0.15,0.52,0.35,0.72,0.59c-0.22,0.22-0.48,0.4-0.77,0.54
		c-0.29-0.31-0.71-0.51-1.17-0.51s-0.88,0.2-1.17,0.51c-0.29-0.14-0.55-0.31-0.77-0.54C932.75,327.39,933,327.19,933.27,327.04z
		 M935.95,326.77c0.22-0.3,0.35-0.67,0.35-1.07c0-1-0.81-1.81-1.81-1.81s-1.81,0.81-1.81,1.81c0,0.4,0.13,0.77,0.35,1.07
		c-0.27,0.16-0.51,0.35-0.71,0.59c-0.35-0.46-0.57-1.03-0.57-1.65c0-1.51,1.23-2.74,2.74-2.74c1.51,0,2.74,1.23,2.74,2.74
		c0,0.62-0.22,1.19-0.57,1.65C936.45,327.13,936.22,326.93,935.95,326.77z"/>
	<path d="M934.49,307.25c-2.13,0-3.86,1.73-3.86,3.86c0,2.13,1.73,3.86,3.86,3.86s3.86-1.73,3.86-3.86
		C938.35,308.98,936.62,307.25,934.49,307.25z M934.49,314.63c-1.94,0-3.51-1.57-3.51-3.51c0-1.94,1.57-3.51,3.51-3.51
		s3.51,1.57,3.51,3.51C938,313.05,936.43,314.63,934.49,314.63z"/>
	<circle cx="934.49" cy="311.11" r="2.3"/>
	<path d="M934.49,333.18c-1.41,0-2.55,1.15-2.55,2.55c0,1.41,1.15,2.55,2.55,2.55c1.41,0,2.55-1.15,2.55-2.55
		C937.04,334.32,935.9,333.18,934.49,333.18z M934.49,337.93c-1.22,0-2.2-0.99-2.2-2.2s0.99-2.2,2.2-2.2c1.22,0,2.2,0.99,2.2,2.2
		S935.71,337.93,934.49,337.93z"/>
	<circle cx="934.49" cy="335.73" r="1.4"/>
	<path d="M934.49,291.88c-2.56,0-4.64,2.08-4.64,4.64c0,2.56,2.08,4.64,4.64,4.64s4.64-2.08,4.64-4.64
		C939.13,293.96,937.05,291.88,934.49,291.88z M934.49,300.81c-2.37,0-4.29-1.92-4.29-4.29c0-2.37,1.92-4.29,4.29-4.29
		s4.29,1.92,4.29,4.29C938.78,298.89,936.86,300.81,934.49,300.81z"/>
	<circle cx="934.49" cy="296.52" r="3.76"/>
	<path d="M934.49,265.25c-3.3,0-5.98,2.68-5.98,5.98s2.68,5.98,5.98,5.98c3.3,0,5.98-2.68,5.98-5.98S937.79,265.25,934.49,265.25z
		 M934.49,276.87c-3.11,0-5.63-2.52-5.63-5.63c0-3.11,2.52-5.63,5.63-5.63c3.11,0,5.63,2.52,5.63,5.63
		C940.12,274.35,937.6,276.87,934.49,276.87z"/>
	<circle cx="934.49" cy="271.24" r="5.08"/>
	<path d="M934.49,241.13c-3.97,0-7.2,3.23-7.2,7.2s3.23,7.2,7.2,7.2c3.97,0,7.2-3.23,7.2-7.2S938.46,241.13,934.49,241.13z
		 M934.49,255.19c-3.78,0-6.85-3.07-6.85-6.85c0-3.78,3.07-6.85,6.85-6.85c3.78,0,6.85,3.07,6.85,6.85
		C941.34,252.12,938.27,255.19,934.49,255.19z"/>
	<circle cx="934.49" cy="248.34" r="6.44"/>
	<path d="M934.49,101.63c-7.86,0-14.25,6.39-14.25,14.25c0,7.86,6.39,14.25,14.25,14.25c7.86,0,14.25-6.39,14.25-14.25
		C948.74,108.02,942.35,101.63,934.49,101.63z M934.49,129.78c-7.68,0-13.9-6.22-13.9-13.9s6.22-13.9,13.9-13.9
		c7.68,0,13.9,6.22,13.9,13.9S942.17,129.78,934.49,129.78z"/>
	<path d="M934.49,102.06c-7.63,0-13.82,6.19-13.82,13.82c0,7.63,6.19,13.82,13.82,13.82c7.63,0,13.82-6.19,13.82-13.82
		C948.31,108.25,942.12,102.06,934.49,102.06z M934.49,122.22c-3.5,0-6.34-2.84-6.34-6.34c0-3.5,2.84-6.34,6.34-6.34
		s6.34,2.84,6.34,6.34C940.83,119.37,937.99,122.22,934.49,122.22z"/>
	<path d="M978.09,320.91c-1.76,0-3.18,1.43-3.18,3.18c0,0.83,0.33,1.59,0.86,2.16c-0.4,0.51-0.64,1.13-0.64,1.82
		c0,1.64,1.33,2.97,2.97,2.97s2.97-1.33,2.97-2.97c0-0.69-0.25-1.32-0.64-1.82c0.53-0.57,0.86-1.32,0.86-2.16
		C981.27,322.34,979.84,320.91,978.09,320.91z M978.09,330.69c-1.45,0-2.62-1.17-2.62-2.62c0-0.6,0.21-1.14,0.55-1.59
		c0.23,0.2,0.49,0.38,0.77,0.5c-0.25,0.29-0.4,0.67-0.4,1.08c0,0.94,0.76,1.7,1.7,1.7c0.94,0,1.7-0.76,1.7-1.7
		c0-0.41-0.15-0.79-0.4-1.08c0.28-0.13,0.54-0.3,0.77-0.5c0.34,0.44,0.55,0.99,0.55,1.59C980.71,329.52,979.54,330.69,978.09,330.69
		z M977.01,325.69c0.31,0.21,0.68,0.33,1.08,0.33s0.77-0.12,1.08-0.33c0.29,0.13,0.55,0.31,0.78,0.53
		c-0.24,0.21-0.52,0.39-0.83,0.51c-0.29-0.22-0.64-0.35-1.02-0.35s-0.74,0.13-1.02,0.35c-0.31-0.12-0.58-0.29-0.83-0.51
		C976.46,326,976.72,325.82,977.01,325.69z M979.45,325.45c0.35-0.35,0.56-0.83,0.56-1.36c0-1.06-0.86-1.92-1.93-1.92
		c-1.06,0-1.92,0.86-1.92,1.92c0,0.53,0.21,1.01,0.56,1.36c-0.27,0.14-0.52,0.31-0.74,0.53c-0.45-0.5-0.73-1.16-0.73-1.88
		c0-1.56,1.27-2.83,2.83-2.83c1.56,0,2.83,1.27,2.83,2.83c0,0.73-0.28,1.38-0.73,1.88C979.98,325.76,979.72,325.59,979.45,325.45z"
		/>
	<path d="M978.09,305.81c-2.18,0-3.95,1.77-3.95,3.95c0,2.18,1.77,3.95,3.95,3.95s3.95-1.77,3.95-3.95
		C982.03,307.58,980.26,305.81,978.09,305.81z M978.09,313.35c-1.99,0-3.59-1.61-3.59-3.59c0-1.99,1.61-3.59,3.59-3.59
		s3.59,1.61,3.59,3.59C981.68,311.74,980.07,313.35,978.09,313.35z"/>
	<circle cx="978.09" cy="309.76" r="2.39"/>
	<path d="M978.09,331.95c-1.45,0-2.63,1.18-2.63,2.63c0,1.45,1.18,2.63,2.63,2.63s2.63-1.18,2.63-2.63
		C980.71,333.13,979.54,331.95,978.09,331.95z M978.09,336.85c-1.26,0-2.27-1.02-2.27-2.27c0-1.26,1.02-2.27,2.27-2.27
		s2.27,1.02,2.27,2.27C980.36,335.83,979.34,336.85,978.09,336.85z"/>
	<circle cx="978.09" cy="334.58" r="1.48"/>
	<path d="M978.09,288.48c-2.66,0-4.82,2.16-4.82,4.82c0,2.66,2.16,4.82,4.82,4.82s4.82-2.16,4.82-4.82
		C982.91,290.64,980.75,288.48,978.09,288.48z M978.09,297.77c-2.47,0-4.47-2-4.47-4.47c0-2.47,2-4.47,4.47-4.47
		c2.47,0,4.47,2,4.47,4.47C982.56,295.77,980.56,297.77,978.09,297.77z"/>
	<circle cx="978.09" cy="293.3" r="3.97"/>
	<path d="M978.09,261.02c-3.42,0-6.21,2.79-6.21,6.21s2.79,6.21,6.21,6.21s6.21-2.79,6.21-6.21S981.51,261.02,978.09,261.02z
		 M978.09,273.08c-3.23,0-5.86-2.62-5.86-5.86c0-3.23,2.62-5.86,5.86-5.86s5.86,2.62,5.86,5.86
		C983.95,270.46,981.32,273.08,978.09,273.08z"/>
	<circle cx="978.09" cy="267.23" r="5.37"/>
	<path d="M978.09,235.78c-4.13,0-7.48,3.36-7.48,7.48c0,4.13,3.36,7.48,7.48,7.48s7.48-3.36,7.48-7.48
		C985.57,239.14,982.22,235.78,978.09,235.78z M978.09,250.4c-3.94,0-7.13-3.19-7.13-7.13c0-3.94,3.19-7.13,7.13-7.13
		s7.13,3.19,7.13,7.13C985.22,247.21,982.03,250.4,978.09,250.4z"/>
	<circle cx="978.09" cy="243.27" r="6.78"/>
	<path d="M978.09,91.99c-8.13,0-14.75,6.61-14.75,14.75c0,8.13,6.61,14.75,14.75,14.75s14.75-6.61,14.75-14.75
		C992.83,98.6,986.22,91.99,978.09,91.99z M978.09,121.13c-7.95,0-14.39-6.44-14.39-14.39c0-7.95,6.44-14.39,14.39-14.39
		s14.39,6.44,14.39,14.39C992.48,114.68,986.04,121.13,978.09,121.13z"/>
	<path d="M978.09,92.41c-7.91,0-14.33,6.41-14.33,14.33c0,7.91,6.41,14.33,14.33,14.33s14.33-6.41,14.33-14.33
		C992.42,98.82,986,92.41,978.09,92.41z M978.09,113.58c-3.77,0-6.84-3.07-6.84-6.84c0-3.77,3.07-6.84,6.84-6.84
		s6.84,3.07,6.84,6.84C984.93,110.51,981.86,113.58,978.09,113.58z"/>
</g>
</svg>
