<?xml version="1.0" encoding="UTF-8" standalone="no"?>
<!-- Created with Inkscape (http://www.inkscape.org/) -->

<svg
   version="1.1"
   id="svg824"
   xml:space="preserve"
   width="12601.933"
   height="831.35999"
   viewBox="0 0 12601.933 831.35999"
   xmlns="http://www.w3.org/2000/svg"
   xmlns:svg="http://www.w3.org/2000/svg"><defs
     id="defs828"><clipPath
       clipPathUnits="userSpaceOnUse"
       id="clipPath840"><path
         d="M 0,623.52 H 9451.445 V 0 H 0 Z"
         id="path838" /></clipPath><clipPath
       clipPathUnits="userSpaceOnUse"
       id="clipPath856"><path
         d="m 5721.152,388.493 v -27.814 h 41.885 v 83.44 l -10.473,-11.124 -10.47,-11.125 -10.47,27.812 z"
         id="path854" /></clipPath><clipPath
       clipPathUnits="userSpaceOnUse"
       id="clipPath984"><path
         d="M 0,623.52 H 9451.445 V 0 H 0 Z"
         id="path982" /></clipPath><clipPath
       clipPathUnits="userSpaceOnUse"
       id="clipPath992"><path
         d="m 5720.97,388.698 h 42.3 v -28.224 h -42.3 z"
         id="path990" /></clipPath><clipPath
       clipPathUnits="userSpaceOnUse"
       id="clipPath1100"><path
         d="M 0,623.52 H 9451.445 V 0 H 0 Z"
         id="path1098" /></clipPath><clipPath
       clipPathUnits="userSpaceOnUse"
       id="clipPath1108"><path
         d="m 5731.63,367.558 h 1.2 v -7.017 h -1.2 z"
         id="path1106" /></clipPath><clipPath
       clipPathUnits="userSpaceOnUse"
       id="clipPath1122"><path
         d="m 5742.12,369.293 h 1.2 v -8.795 h -1.2 z"
         id="path1120" /></clipPath><clipPath
       clipPathUnits="userSpaceOnUse"
       id="clipPath1136"><path
         d="m 5752.59,363.975 h 1.21 v -3.455 h -1.21 z"
         id="path1134" /></clipPath><clipPath
       clipPathUnits="userSpaceOnUse"
       id="clipPath1150"><path
         d="m 5763.06,369.293 h 1.21 v -8.795 h -1.21 z"
         id="path1148" /></clipPath><clipPath
       clipPathUnits="userSpaceOnUse"
       id="clipPath1164"><path
         d="M 0,623.52 H 9451.445 V 0 H 0 Z"
         id="path1162" /></clipPath><clipPath
       clipPathUnits="userSpaceOnUse"
       id="clipPath1172"><path
         d="m 5719.87,369.336 h 1.21 v -8.842 h -1.21 z"
         id="path1170" /></clipPath><clipPath
       clipPathUnits="userSpaceOnUse"
       id="clipPath1236"><path
         d="m 5777.899,438.26 h 1.931 v 2.147 h -1.931 z"
         id="path1234" /></clipPath></defs><g
     id="g830"
     transform="matrix(1.3333333,0,0,-1.3333333,0,831.36)"><g
       id="g850"><g
         id="g852"
         clip-path="url(#clipPath856)"><g
           id="g858"
           transform="translate(5728.6265,451.2979)"><path
             d="M 0,0 H 40.759 V -93.137"
             style="fill:none;stroke:#4d4d4d;stroke-width:0.586;stroke-linecap:round;stroke-linejoin:round;stroke-miterlimit:10;stroke-dasharray:none;stroke-opacity:1"
             id="path860" /></g><g
           id="g862"
           transform="translate(5726.98,449.5693)"><path
             d="M 0,0 H 40.76 V -91.408"
             style="fill:none;stroke:#4d4d4d;stroke-width:0.586;stroke-linecap:round;stroke-linejoin:round;stroke-miterlimit:10;stroke-dasharray:none;stroke-opacity:1"
             id="path864" /></g><g
           id="g866"
           transform="translate(5725.3354,447.8408)"><path
             d="M 0,0 H 40.76 V -89.68"
             style="fill:none;stroke:#4d4d4d;stroke-width:0.586;stroke-linecap:round;stroke-linejoin:round;stroke-miterlimit:10;stroke-dasharray:none;stroke-opacity:1"
             id="path868" /></g><g
           id="g870"
           transform="translate(5723.689,446.1133)"><path
             d="M 0,0 H 40.76 V -87.952"
             style="fill:none;stroke:#4d4d4d;stroke-width:0.586;stroke-linecap:round;stroke-linejoin:round;stroke-miterlimit:10;stroke-dasharray:none;stroke-opacity:1"
             id="path872" /></g><g
           id="g874"
           transform="translate(5722.0444,444.3848)"><path
             d="M 0,0 H 40.76 V -86.224"
             style="fill:none;stroke:#4d4d4d;stroke-width:0.586;stroke-linecap:round;stroke-linejoin:round;stroke-miterlimit:10;stroke-dasharray:none;stroke-opacity:1"
             id="path876" /></g><g
           id="g878"
           transform="translate(5720.3979,442.6563)"><path
             d="M 0,0 H 40.76 V -84.495"
             style="fill:none;stroke:#4d4d4d;stroke-width:0.586;stroke-linecap:round;stroke-linejoin:round;stroke-miterlimit:10;stroke-dasharray:none;stroke-opacity:1"
             id="path880" /></g><g
           id="g882"
           transform="translate(5718.7534,440.9287)"><path
             d="M 0,0 H 40.76 V -82.768"
             style="fill:none;stroke:#4d4d4d;stroke-width:0.586;stroke-linecap:round;stroke-linejoin:round;stroke-miterlimit:10;stroke-dasharray:none;stroke-opacity:1"
             id="path884" /></g><g
           id="g886"
           transform="translate(5717.1079,439.1992)"><path
             d="M 0,0 H 40.76 V -81.038"
             style="fill:none;stroke:#4d4d4d;stroke-width:0.586;stroke-linecap:round;stroke-linejoin:round;stroke-miterlimit:10;stroke-dasharray:none;stroke-opacity:1"
             id="path888" /></g><g
           id="g890"
           transform="translate(5715.4614,437.4727)"><path
             d="M 0,0 H 40.76 V -79.312"
             style="fill:none;stroke:#4d4d4d;stroke-width:0.586;stroke-linecap:round;stroke-linejoin:round;stroke-miterlimit:10;stroke-dasharray:none;stroke-opacity:1"
             id="path892" /></g><g
           id="g894"
           transform="translate(5713.8169,435.7442)"><path
             d="M 0,0 H 40.76 V -77.583"
             style="fill:none;stroke:#4d4d4d;stroke-width:0.586;stroke-linecap:round;stroke-linejoin:round;stroke-miterlimit:10;stroke-dasharray:none;stroke-opacity:1"
             id="path896" /></g><g
           id="g898"
           transform="translate(5712.1714,434.0156)"><path
             d="M 0,0 H 40.759 V -75.854"
             style="fill:none;stroke:#4d4d4d;stroke-width:0.586;stroke-linecap:round;stroke-linejoin:round;stroke-miterlimit:10;stroke-dasharray:none;stroke-opacity:1"
             id="path900" /></g><g
           id="g902"
           transform="translate(5710.5249,432.2871)"><path
             d="M 0,0 H 40.76 V -74.126"
             style="fill:none;stroke:#4d4d4d;stroke-width:0.586;stroke-linecap:round;stroke-linejoin:round;stroke-miterlimit:10;stroke-dasharray:none;stroke-opacity:1"
             id="path904" /></g><g
           id="g906"
           transform="translate(5708.8794,430.5606)"><path
             d="M 0,0 H 40.761 V -72.4"
             style="fill:none;stroke:#4d4d4d;stroke-width:0.586;stroke-linecap:round;stroke-linejoin:round;stroke-miterlimit:10;stroke-dasharray:none;stroke-opacity:1"
             id="path908" /></g><g
           id="g910"
           transform="translate(5707.2339,428.832)"><path
             d="M 0,0 H 40.76 V -70.671"
             style="fill:none;stroke:#4d4d4d;stroke-width:0.586;stroke-linecap:round;stroke-linejoin:round;stroke-miterlimit:10;stroke-dasharray:none;stroke-opacity:1"
             id="path912" /></g><g
           id="g914"
           transform="translate(5705.5894,427.1035)"><path
             d="M 0,0 H 40.758 V -68.942"
             style="fill:none;stroke:#4d4d4d;stroke-width:0.586;stroke-linecap:round;stroke-linejoin:round;stroke-miterlimit:10;stroke-dasharray:none;stroke-opacity:1"
             id="path916" /></g><g
           id="g918"
           transform="translate(5703.9429,425.375)"><path
             d="M 0,0 H 40.761 V -67.214"
             style="fill:none;stroke:#4d4d4d;stroke-width:0.586;stroke-linecap:round;stroke-linejoin:round;stroke-miterlimit:10;stroke-dasharray:none;stroke-opacity:1"
             id="path920" /></g><g
           id="g922"
           transform="translate(5702.2983,423.6465)"><path
             d="M 0,0 H 40.76 V -65.485"
             style="fill:none;stroke:#4d4d4d;stroke-width:0.586;stroke-linecap:round;stroke-linejoin:round;stroke-miterlimit:10;stroke-dasharray:none;stroke-opacity:1"
             id="path924" /></g><g
           id="g926"
           transform="translate(5700.6528,421.9199)"><path
             d="M 0,0 H 40.759 V -63.759"
             style="fill:none;stroke:#4d4d4d;stroke-width:0.586;stroke-linecap:round;stroke-linejoin:round;stroke-miterlimit:10;stroke-dasharray:none;stroke-opacity:1"
             id="path928" /></g><g
           id="g930"
           transform="translate(5699.0063,420.1904)"><path
             d="M 0,0 H 40.76 V -62.029"
             style="fill:none;stroke:#4d4d4d;stroke-width:0.586;stroke-linecap:round;stroke-linejoin:round;stroke-miterlimit:10;stroke-dasharray:none;stroke-opacity:1"
             id="path932" /></g><g
           id="g934"
           transform="translate(5697.2632,418.3731)"><path
             d="M 0,0 H 40.76 V -93.137"
             style="fill:none;stroke:#4d4d4d;stroke-width:0.586;stroke-linecap:round;stroke-linejoin:round;stroke-miterlimit:10;stroke-dasharray:none;stroke-opacity:1"
             id="path936" /></g><g
           id="g938"
           transform="translate(5695.6187,416.6445)"><path
             d="M 0,0 H 40.76 V -91.408"
             style="fill:none;stroke:#4d4d4d;stroke-width:0.586;stroke-linecap:round;stroke-linejoin:round;stroke-miterlimit:10;stroke-dasharray:none;stroke-opacity:1"
             id="path940" /></g><g
           id="g942"
           transform="translate(5693.9722,414.916)"><path
             d="M 0,0 H 40.76 V -89.68"
             style="fill:none;stroke:#4d4d4d;stroke-width:0.586;stroke-linecap:round;stroke-linejoin:round;stroke-miterlimit:10;stroke-dasharray:none;stroke-opacity:1"
             id="path944" /></g><g
           id="g946"
           transform="translate(5692.3267,413.1885)"><path
             d="M 0,0 H 40.76 V -87.952"
             style="fill:none;stroke:#4d4d4d;stroke-width:0.586;stroke-linecap:round;stroke-linejoin:round;stroke-miterlimit:10;stroke-dasharray:none;stroke-opacity:1"
             id="path948" /></g><g
           id="g950"
           transform="translate(5690.6821,411.459)"><path
             d="M 0,0 H 40.759 V -86.223"
             style="fill:none;stroke:#4d4d4d;stroke-width:0.586;stroke-linecap:round;stroke-linejoin:round;stroke-miterlimit:10;stroke-dasharray:none;stroke-opacity:1"
             id="path952" /></g><g
           id="g954"
           transform="translate(5689.0356,409.7324)"><path
             d="M 0,0 H 40.76 V -84.496"
             style="fill:none;stroke:#4d4d4d;stroke-width:0.586;stroke-linecap:round;stroke-linejoin:round;stroke-miterlimit:10;stroke-dasharray:none;stroke-opacity:1"
             id="path956" /></g><g
           id="g958"
           transform="translate(5687.3901,408.0039)"><path
             d="M 0,0 H 40.76 V -82.768"
             style="fill:none;stroke:#4d4d4d;stroke-width:0.586;stroke-linecap:round;stroke-linejoin:round;stroke-miterlimit:10;stroke-dasharray:none;stroke-opacity:1"
             id="path960" /></g><g
           id="g962"
           transform="translate(5685.7446,406.2754)"><path
             d="M 0,0 H 40.76 V -81.039"
             style="fill:none;stroke:#4d4d4d;stroke-width:0.586;stroke-linecap:round;stroke-linejoin:round;stroke-miterlimit:10;stroke-dasharray:none;stroke-opacity:1"
             id="path964" /></g><g
           id="g966"
           transform="translate(5684.0991,404.5469)"><path
             d="M 0,0 H 40.76 V -79.311"
             style="fill:none;stroke:#4d4d4d;stroke-width:0.586;stroke-linecap:round;stroke-linejoin:round;stroke-miterlimit:10;stroke-dasharray:none;stroke-opacity:1"
             id="path968" /></g><g
           id="g970"
           transform="translate(5682.4546,402.8184)"><path
             d="M 0,0 H 40.758 V -77.582"
             style="fill:none;stroke:#4d4d4d;stroke-width:0.586;stroke-linecap:round;stroke-linejoin:round;stroke-miterlimit:10;stroke-dasharray:none;stroke-opacity:1"
             id="path972" /></g><g
           id="g974"
           transform="translate(5680.8081,401.0918)"><path
             d="M 0,0 H 40.76 V -75.855"
             style="fill:none;stroke:#4d4d4d;stroke-width:0.586;stroke-linecap:round;stroke-linejoin:round;stroke-miterlimit:10;stroke-dasharray:none;stroke-opacity:1"
             id="path976" /></g></g></g><g
       id="g978"><g
         id="g980"
         clip-path="url(#clipPath984)"><g
           id="g986"><g
             id="g988" /><g
             id="g1084"><g
               clip-path="url(#clipPath992)"
               id="g1082"><g
                 transform="translate(5763.0625,360.6787)"
                 id="g996"><path
                   d="M 0,0 H -41.886"
                   style="fill:none;stroke:#ffffff;stroke-width:0.41;stroke-linecap:round;stroke-linejoin:round;stroke-miterlimit:10;stroke-dasharray:none;stroke-opacity:1"
                   id="path994" /></g><g
                 transform="translate(5721.1768,361.7383)"
                 id="g1000"><path
                   d="M 0,0 H 6.882 L 15.316,0.265 28.601,-0.53 41.886,0.265"
                   style="fill:none;stroke:#ffffff;stroke-width:0.41;stroke-linecap:round;stroke-linejoin:round;stroke-miterlimit:10;stroke-dasharray:none;stroke-opacity:1"
                   id="path998" /></g><g
                 transform="translate(5721.1768,362.7979)"
                 id="g1004"><path
                   d="m 0,0 h 7.062 l 8.535,0.53 13.145,-1.59 13.144,1.59"
                   style="fill:none;stroke:#ffffff;stroke-width:0.41;stroke-linecap:round;stroke-linejoin:round;stroke-miterlimit:10;stroke-dasharray:none;stroke-opacity:1"
                   id="path1002" /></g><g
                 transform="translate(5721.1768,363.8576)"
                 id="g1008"><path
                   d="M 0,0 H 7.241 L 15.878,0.795 28.882,-1.59 41.886,0.795"
                   style="fill:none;stroke:#ffffff;stroke-width:0.41;stroke-linecap:round;stroke-linejoin:round;stroke-miterlimit:10;stroke-dasharray:none;stroke-opacity:1"
                   id="path1006" /></g><g
                 transform="translate(5721.1768,364.9172)"
                 id="g1012"><path
                   d="M 0,0 H 7.421 L 16.16,1.06 29.023,-2.119 41.886,1.06"
                   style="fill:none;stroke:#ffffff;stroke-width:0.41;stroke-linecap:round;stroke-linejoin:round;stroke-miterlimit:10;stroke-dasharray:none;stroke-opacity:1"
                   id="path1010" /></g><g
                 transform="translate(5721.1768,365.9768)"
                 id="g1016"><path
                   d="m 0,0 h 7.601 l 8.84,1.324 12.723,-3.973 12.722,3.973"
                   style="fill:none;stroke:#ffffff;stroke-width:0.41;stroke-linecap:round;stroke-linejoin:round;stroke-miterlimit:10;stroke-dasharray:none;stroke-opacity:1"
                   id="path1014" /></g><g
                 transform="translate(5721.1768,367.0364)"
                 id="g1020"><path
                   d="m 0,0 h 7.78 l 8.943,1.589 12.581,-4.768 12.582,4.768"
                   style="fill:none;stroke:#ffffff;stroke-width:0.41;stroke-linecap:round;stroke-linejoin:round;stroke-miterlimit:10;stroke-dasharray:none;stroke-opacity:1"
                   id="path1018" /></g><g
                 transform="translate(5721.1768,368.096)"
                 id="g1024"><path
                   d="m 0,0 h 7.959 l 9.045,1.854 12.441,-5.563 12.441,5.563"
                   style="fill:none;stroke:#ffffff;stroke-width:0.41;stroke-linecap:round;stroke-linejoin:round;stroke-miterlimit:10;stroke-dasharray:none;stroke-opacity:1"
                   id="path1022" /></g><g
                 transform="translate(5721.1768,369.1557)"
                 id="g1028"><path
                   d="m 0,0 h 8.139 l 9.146,2.119 12.3,-6.357 12.301,6.357"
                   style="fill:none;stroke:#ffffff;stroke-width:0.41;stroke-linecap:round;stroke-linejoin:round;stroke-miterlimit:10;stroke-dasharray:none;stroke-opacity:1"
                   id="path1026" /></g><g
                 transform="translate(5721.1768,370.2153)"
                 id="g1032"><path
                   d="m 0,0 h 8.318 l 9.248,2.384 12.16,-7.152 12.16,7.152"
                   style="fill:none;stroke:#ffffff;stroke-width:0.41;stroke-linecap:round;stroke-linejoin:round;stroke-miterlimit:10;stroke-dasharray:none;stroke-opacity:1"
                   id="path1030" /></g><g
                 transform="translate(5721.1768,371.2749)"
                 id="g1036"><path
                   d="m 0,0 h 8.498 l 9.35,2.649 12.019,-7.947 12.019,7.947"
                   style="fill:none;stroke:#ffffff;stroke-width:0.41;stroke-linecap:round;stroke-linejoin:round;stroke-miterlimit:10;stroke-dasharray:none;stroke-opacity:1"
                   id="path1034" /></g><g
                 transform="translate(5721.1768,372.3345)"
                 id="g1040"><path
                   d="m 0,0 h 8.678 l 9.451,2.914 11.878,-8.742 11.879,8.742"
                   style="fill:none;stroke:#ffffff;stroke-width:0.41;stroke-linecap:round;stroke-linejoin:round;stroke-miterlimit:10;stroke-dasharray:none;stroke-opacity:1"
                   id="path1038" /></g><g
                 transform="translate(5721.1768,373.3941)"
                 id="g1044"><path
                   d="m 0,0 h 8.857 l 9.554,3.179 11.737,-9.537 11.738,9.537"
                   style="fill:none;stroke:#ffffff;stroke-width:0.41;stroke-linecap:round;stroke-linejoin:round;stroke-miterlimit:10;stroke-dasharray:none;stroke-opacity:1"
                   id="path1042" /></g><g
                 transform="translate(5721.1768,374.4537)"
                 id="g1048"><path
                   d="M 0,0 H 9.037 L 18.692,3.443 30.289,-6.888 41.886,3.443"
                   style="fill:none;stroke:#ffffff;stroke-width:0.41;stroke-linecap:round;stroke-linejoin:round;stroke-miterlimit:10;stroke-dasharray:none;stroke-opacity:1"
                   id="path1046" /></g><g
                 transform="translate(5721.1768,375.5134)"
                 id="g1052"><path
                   d="M 0,0 H 9.216 L 18.973,3.708 30.43,-7.417 41.886,3.708"
                   style="fill:none;stroke:#ffffff;stroke-width:0.41;stroke-linecap:round;stroke-linejoin:round;stroke-miterlimit:10;stroke-dasharray:none;stroke-opacity:1"
                   id="path1050" /></g><g
                 transform="translate(5721.1768,376.573)"
                 id="g1056"><path
                   d="M 0,0 H 9.396 L 19.254,3.973 30.57,-7.947 41.886,3.973"
                   style="fill:none;stroke:#ffffff;stroke-width:0.41;stroke-linecap:round;stroke-linejoin:round;stroke-miterlimit:10;stroke-dasharray:none;stroke-opacity:1"
                   id="path1054" /></g><g
                 transform="translate(5721.1768,377.6326)"
                 id="g1060"><path
                   d="M 0,0 H 9.575 L 19.536,4.238 30.711,-8.477 41.886,4.238"
                   style="fill:none;stroke:#ffffff;stroke-width:0.41;stroke-linecap:round;stroke-linejoin:round;stroke-miterlimit:10;stroke-dasharray:none;stroke-opacity:1"
                   id="path1058" /></g><g
                 transform="translate(5721.1768,378.6922)"
                 id="g1064"><path
                   d="M 0,0 H 9.755 L 19.817,4.503 30.852,-9.007 41.886,4.503"
                   style="fill:none;stroke:#ffffff;stroke-width:0.41;stroke-linecap:round;stroke-linejoin:round;stroke-miterlimit:10;stroke-dasharray:none;stroke-opacity:1"
                   id="path1062" /></g><g
                 transform="translate(5721.1768,379.7518)"
                 id="g1068"><path
                   d="M 0,0 H 9.934 L 20.099,4.768 30.992,-9.536 41.886,4.768"
                   style="fill:none;stroke:#ffffff;stroke-width:0.41;stroke-linecap:round;stroke-linejoin:round;stroke-miterlimit:10;stroke-dasharray:none;stroke-opacity:1"
                   id="path1066" /></g><g
                 transform="translate(5721.1768,380.8115)"
                 id="g1072"><path
                   d="M 0,0 H 10.114 L 20.38,5.033 31.133,-10.066 41.886,5.033"
                   style="fill:none;stroke:#ffffff;stroke-width:0.41;stroke-linecap:round;stroke-linejoin:round;stroke-miterlimit:10;stroke-dasharray:none;stroke-opacity:1"
                   id="path1070" /></g><g
                 transform="translate(5721.1768,381.8711)"
                 id="g1076"><path
                   d="M 0,0 H 10.293 L 20.661,5.298 31.273,-10.596 41.886,5.298"
                   style="fill:none;stroke:#ffffff;stroke-width:0.41;stroke-linecap:round;stroke-linejoin:round;stroke-miterlimit:10;stroke-dasharray:none;stroke-opacity:1"
                   id="path1074" /></g><g
                 transform="translate(5721.1768,382.9307)"
                 id="g1080"><path
                   d="M 0,0 H 10.473 L 20.942,5.562 31.414,-11.126 41.886,5.562"
                   style="fill:none;stroke:#ffffff;stroke-width:0.41;stroke-linecap:round;stroke-linejoin:round;stroke-miterlimit:10;stroke-dasharray:none;stroke-opacity:1"
                   id="path1078" /></g></g></g></g></g></g><path
       d="m 5730.426,360.541 h 1.205 v 28.377 h -1.205 z"
       style="fill:#f6b918;fill-opacity:1;fill-rule:nonzero;stroke:none"
       id="path1086" /><path
       d="m 5740.915,360.498 h 1.204 v 19.475 h -1.204 z"
       style="fill:#f6b918;fill-opacity:1;fill-rule:nonzero;stroke:none"
       id="path1088" /><path
       d="m 5751.388,360.52 h 1.203 v 23.036 h -1.203 z"
       style="fill:#f6b918;fill-opacity:1;fill-rule:nonzero;stroke:none"
       id="path1090" /><path
       d="m 5721.177,360.541 h 1.206 v 7.017 h -1.206 z"
       style="fill:#b87433;fill-opacity:1;fill-rule:nonzero;stroke:none"
       id="path1092" /><g
       id="g1094"><g
         id="g1096"
         clip-path="url(#clipPath1100)"><g
           id="g1102"><g
             id="g1104" /><g
             id="g1114"><g
               clip-path="url(#clipPath1108)"
               id="g1112"><path
                 d="m 5731.631,360.541 h 1.203 v 7.017 h -1.203 z"
                 style="fill:#b87433;fill-opacity:1;fill-rule:nonzero;stroke:none"
                 id="path1110" /></g></g></g><g
           id="g1116"><g
             id="g1118" /><g
             id="g1128"><g
               clip-path="url(#clipPath1122)"
               id="g1126"><path
                 d="m 5742.119,360.498 h 1.205 v 8.795 h -1.205 z"
                 style="fill:#b87433;fill-opacity:1;fill-rule:nonzero;stroke:none"
                 id="path1124" /></g></g></g><g
           id="g1130"><g
             id="g1132" /><g
             id="g1142"><g
               clip-path="url(#clipPath1136)"
               id="g1140"><path
                 d="m 5752.591,360.52 h 1.206 v 3.455 h -1.206 z"
                 style="fill:#b87433;fill-opacity:1;fill-rule:nonzero;stroke:none"
                 id="path1138" /></g></g></g><g
           id="g1144"><g
             id="g1146" /><g
             id="g1156"><g
               clip-path="url(#clipPath1150)"
               id="g1154"><path
                 d="m 5763.064,360.498 h 1.204 v 8.795 h -1.204 z"
                 style="fill:#b87433;fill-opacity:1;fill-rule:nonzero;stroke:none"
                 id="path1152" /></g></g></g></g></g><g
       id="g1158"><g
         id="g1160"
         clip-path="url(#clipPath1164)"><g
           id="g1166"><g
             id="g1168" /><g
             id="g1178"><g
               clip-path="url(#clipPath1172)"
               id="g1176"><path
                 d="m 5719.874,360.494 h 1.211 v 8.842 h -1.211 z"
                 style="fill:#f6b918;fill-opacity:1;fill-rule:nonzero;stroke:none"
                 id="path1174" /></g></g></g></g></g><text
       transform="matrix(1,0,0,-1,5768.0796,377.8369)"
       style="font-variant:normal;font-weight:normal;font-stretch:normal;font-size:2.2168px;font-family:Roboto;-inkscape-font-specification:Roboto-Regular;writing-mode:lr-tb;fill:#ffffff;fill-opacity:1;fill-rule:nonzero;stroke:none"
       id="text1212"><tspan
         x="0 1.3329618"
         y="0"
         id="tspan1180">32</tspan><tspan
         x="0 1.3329618"
         y="-18.027018"
         id="tspan1182">64</tspan><tspan
         x="0 1.3329618"
         y="-36.054035"
         id="tspan1184">96</tspan><tspan
         x="-0.5298152 0.80314666 2.1376603"
         y="-54.081055"
         id="tspan1186">128</tspan><tspan
         x="-0.5298152 0.80314666 2.1376603"
         y="-72.10807"
         id="tspan1188">160</tspan><tspan
         x="-53.260838 0"
         y="18.029234"
         id="tspan1190">00</tspan><tspan
         x="-53.897057 -52.564098"
         y="7.8756556e-15"
         id="tspan1192">10</tspan><tspan
         x="-53.897057 -52.564098"
         y="-18.027018"
         id="tspan1194">20</tspan><tspan
         x="-53.897057 -52.564098"
         y="-36.054035"
         id="tspan1196">30</tspan><tspan
         x="-53.897057 -52.564098"
         y="-54.081055"
         id="tspan1198">40</tspan><tspan
         x="-53.897057 -52.564098"
         y="-72.10807"
         id="tspan1200">50</tspan><tspan
         x="-48.776249 -47.373016 -46.745663 -45.933205 -44.669628 -43.96912"
         y="21.633751"
         id="tspan1202">Site-1</tspan><tspan
         x="10.786949 12.207917 12.846356 14.380382 15.568586 16.19594 17.428482 18.053619 18.690285 20.222094 21.574341 22.886686 24.134745 25.398321 26.710667 27.524233 28.320063 29.614674 30.42824 31.054264 32.407841 33.720188 34.358627 35.710876"
         y="10.277085"
         id="tspan1204">Y Axis: Concentration of</tspan><tspan
         x="10.786949 12.4562 13.719775 14.90798 16.186409 17.332937 18.627548 19.254904 20.518478 21.830824 22.64439 23.282829 24.814638 26.124765 26.942101 28.294348 30.324938 30.952291 32.262421"
         y="12.493885"
         id="tspan1206">Hexavalent Chromium</tspan><tspan
         x="10.786949 12.313437 13.625783 14.253138 15.066703 15.69184 16.330278 18.36264 19.694939 20.696932"
         y="16.927485"
         id="tspan1208">Unit: mg/L</tspan><tspan
         x="-38.171078 -36.767845 -36.140491 -35.328033 -34.064457 -33.363949 -27.565908 -26.162674 -25.535318 -24.722862 -23.459286 -22.758778 -16.960737 -15.557503 -14.930148 -14.117691 -12.854115 -12.153606 -6.3577824 -4.9545479 -4.3271937 -3.5147364 -2.2511604 -1.5506516"
         y="21.633751"
         id="tspan1210">Site-2Site-3Site-4Site-5</tspan></text><path
       d="m 5777.901,451.083 h 1.931 v 1.931 h -1.931 z"
       style="fill:#f6b918;fill-opacity:1;fill-rule:nonzero;stroke:none"
       id="path1214" /><text
       transform="matrix(1,0,0,-1,5781.333,451.2969)"
       style="font-variant:normal;font-weight:normal;font-stretch:normal;font-size:2.2168px;font-family:Roboto;-inkscape-font-specification:Roboto-Regular;writing-mode:lr-tb;fill:#ffffff;fill-opacity:1;fill-rule:nonzero;stroke:none"
       id="text1218"><tspan
         x="0 1.4874728 2.3056936 3.5692697 4.2697783 6.3003674 7.6539454 8.9662914 10.197723 11.551301 12.903549 14.215895 15.448436 16.743048 17.370401 18.008841 19.318968 20.582544 21.77075 23.048956 24.194599 25.48921 26.116564 27.38014 28.692486 29.506052 30.144489 31.392548 32.702679 33.520012 34.872257 36.904621 37.530647 38.842106 40.872692 41.511131 42.75919 44.111439 45.423782 46.23735 47.500927 48.813271 49.625729 50.858269 51.495155 52.122509 53.434856 54.073296 56.103882 57.43618 58.438171"
         y="0"
         id="tspan1216">Pre-monsoonsal hexavalent chromium contents in mg/L</tspan></text><path
       d="m 5777.901,446.848 h 1.931 v 1.931 h -1.931 z"
       style="fill:#b87433;fill-opacity:1;fill-rule:nonzero;stroke:none"
       id="path1220" /><path
       d="m 5777.901,442.685 h 1.931 v 1.93 h -1.931 z"
       style="fill:#ffffff;fill-opacity:1;fill-rule:nonzero;stroke:none"
       id="path1222" /><text
       transform="matrix(1,0,0,-1,5781.333,447.1392)"
       style="font-variant:normal;font-weight:normal;font-stretch:normal;font-size:2.2168px;font-family:Roboto;-inkscape-font-specification:Roboto-Regular;writing-mode:lr-tb;fill:#ffffff;fill-opacity:1;fill-rule:nonzero;stroke:none"
       id="text1228"><tspan
         x="0 1.4726202 2.8261983 4.0576305 4.8711963 5.5717053 7.6040673 8.956315 10.268661 11.501202 12.85345 14.205698 15.518044 16.812654 17.440008 18.078447 19.388577 20.652153 21.840357 23.118565 24.264206 25.558817 26.186172 27.498518 28.762093 29.575659 30.212324 31.460382 32.770512 33.587845 34.940094 36.972233 37.598259 38.909939 40.940529 41.578964 42.827023 44.179272 45.491619 46.305183 47.56876 48.881104 49.694672 50.926102 51.562988 52.190346 53.502689 54.141129 56.171719 57.504013 58.506008"
         y="0"
         id="tspan1224">Post-monsoonal hexavalnet chromium contents in mg/L</tspan><tspan
         x="0 1.6692504 2.9793792 5.0117416 6.344038 7.607614 8.4455643 9.0840034 10.436251 11.294152 11.932591 12.746157 13.373511 15.404099 16.667675 17.899109 18.537546 19.847675 20.4737 21.805996 23.116125 24.379702 25.217651 25.856091 26.668547 27.978676 29.273287 30.585632 31.224072 32.55637 33.819942 34.657894 36.690037 37.316059 38.548599 39.781139 40.407166 41.739464 42.365265 43.628841 44.265507 44.89286 45.520214 47.550804 48.178158 48.990616"
         y="4.1476326"
         id="tspan1226">Number of times higher than permissible limits</tspan></text><g
       id="g1230"><g
         id="g1232"
         clip-path="url(#clipPath1236)"><path
           d="m 5777.901,438.261 h 1.931 v 2.145 h -1.931 z"
           style="fill:none;stroke:#4d4d4d;stroke-width:0.589;stroke-linecap:round;stroke-linejoin:round;stroke-miterlimit:10;stroke-dasharray:none;stroke-opacity:1"
           id="path1238" /></g></g><text
       transform="matrix(1,0,0,-1,5781.333,438.4741)"
       style="font-variant:normal;font-weight:normal;font-stretch:normal;font-size:2.2168px;font-family:Roboto;-inkscape-font-specification:Roboto-Regular;writing-mode:lr-tb;fill:#ffffff;fill-opacity:1;fill-rule:nonzero;stroke:none"
       id="text1242"><tspan
         x="0 1.6692504 2.9793792 5.0117416 6.344038 7.607614 8.4455643 9.0840034 10.436251 11.294152 11.932591 12.746157 13.373511 15.404099 16.667675 17.899109 18.537546 19.847675 20.4737 21.805996 23.116125 24.379702 25.217651 25.856091 26.668547 27.978676 29.273287 30.585632 31.224072 32.55637 33.819942 34.657894 36.690037 37.316059 38.548599 39.781139 40.407166 41.739464 42.365265 43.628841 44.265507 44.89286 45.520214 47.550804 48.178158 48.990616"
         y="0"
         id="tspan1240">Number of times higher than permissible limits</tspan></text><path
       d="m 5763.125,360.494 h -1.275 v 26.819 h 1.275 z"
       style="fill:#f6b918;fill-opacity:1;fill-rule:nonzero;stroke:none"
       id="path1244" /><g
       id="g1246"
       transform="translate(5717.3394,360.3635)"><path
         d="M 0,0 H 50.476"
         style="fill:none;stroke:#ffffff;stroke-width:0.136;stroke-linecap:butt;stroke-linejoin:round;stroke-miterlimit:10;stroke-dasharray:0.286, 0.571;stroke-dashoffset:0;stroke-opacity:1"
         id="path1248" /></g><text
       transform="matrix(1,0,0,-1,5777.9009,466.6743)"
       style="font-variant:normal;font-weight:300;font-stretch:normal;font-size:3.1668px;font-family:'Roboto Light';-inkscape-font-specification:Roboto-Light;writing-mode:lr-tb;fill:#ffffff;fill-opacity:1;fill-rule:nonzero;stroke:none"
       id="text1256"><tspan
         x="0 2.0140848 4.0883389 5.9535842 6.7864523 8.8274546 11.139219 13.276809 14.109677 16.123762 18.331022 20.269104 22.161583 22.994452 25.79707 28.00433 30.316093 32.254173 34.461433 36.668694 38.980457 39.813328 41.854328 44.193329 46.234329 47.595421 49.529068 51.467152 52.372856 54.310936 55.143806 57.351063 59.194775 60.027645 62.331173 64.196419 66.197838 68.104881 70.00528 72.045334 73.777573 75.642815 77.909615 79.80304"
         y="0"
         id="tspan1250">PRE AND POST MONSOON ANALYSIS OF HEXAVALENT </tspan><tspan
         x="0 2.1185892 4.4221196 6.4963737 8.7036333 11.506251 12.411956 14.55588 17.358498 18.191366 19.097071 21.408834 22.241703 25.077572 26.919384 28.873299 30.738544 32.812798 33.645668 35.852924 37.697586 38.530457 40.633842 42.674847 45.477467 47.415546 49.456551 51.217289 53.259876 54.092743 56.432377 58.473377 60.23317 62.274174 63.10704 64.951698 66.582603 68.789864 71.690651 72.596359 74.908119 77.13755"
         y="3.7146564"
         id="tspan1252">CHROMIUM IN WATER OF DAMSALA NALA FLOWING </tspan><tspan
         x="0 1.9539156 4.2574458 6.3316998 8.5389595 10.682883 12.912311 15.21584 16.04871 17.98679 20.130714 22.192301 23.098005 25.409769 27.514425 29.555428 30.388296 33.190914 34.096619 36.408382 38.273628 40.211708 40.879906 41.712772 43.920033 45.992069 46.897774 48.835857 50.773937 52.814941 53.635143 54.46801 56.426041 58.291286 60.332291 62.406544 63.239414 65.057159 66.874901 68.692642"
         y="7.4293127"
         id="tspan1254">THROUGH SUKINDA MINES, ORISSA. YEAR 2007</tspan></text><g
       id="g1258"
       transform="translate(5766.1567,360.1602)"><path
         d="M 0,0 -0.287,107.992"
         style="fill:none;stroke:#ffffff;stroke-width:0.136;stroke-linecap:butt;stroke-linejoin:round;stroke-miterlimit:10;stroke-dasharray:0.286, 0.571;stroke-dashoffset:0;stroke-opacity:1"
         id="path1260" /></g><g
       id="g1262"
       transform="translate(5719.7051,360.1602)"><path
         d="M 0,0 V 103.237"
         style="fill:none;stroke:#ffffff;stroke-width:0.136;stroke-linecap:butt;stroke-linejoin:round;stroke-miterlimit:10;stroke-dasharray:0.286, 0.571;stroke-dashoffset:0;stroke-opacity:1"
         id="path1264" /></g></g></svg>
