<?xml version="1.0" encoding="utf-8"?>
<!-- Generator: Adobe Illustrator 23.0.1, SVG Export Plug-In . SVG Version: 6.00 Build 0)  -->
<svg version="1.1" id="Layer_1" xmlns="http://www.w3.org/2000/svg" xmlns:xlink="http://www.w3.org/1999/xlink" x="0px" y="0px"
	 width="9451.5px" height="623.5px" viewBox="0 0 9451.5 623.5" style="enable-background:new 0 0 9451.5 623.5;"
	 xml:space="preserve">
<style type="text/css">
	.st0{opacity:0.01;}
</style>
<g class="st0">
	<g>
		<g>
			<path d="M5794.4,110.7c-2.9,0-5.2-2.4-5.2-5.2c0-2.4,1.6-4.4,3.8-5l15.3-18c0.2-2.7,2.5-4.8,5.2-4.8c0.2,0,0.5,0,0.7,0.1
				l13.7-7.5c0.9-1.6,2.6-2.8,4.6-2.8c2.2,0,4.1,1.4,4.9,3.4l14.2,9.8c0,0,0,0,0,0c0.9,0,1.7,0.2,2.5,0.6l13.2-1.3
				c0.8-0.6,1.7-1,2.7-1.1l14.6-12c0.7-2.1,2.7-3.7,5-3.7c2.7,0,5,2.1,5.2,4.7l15.2,18.4c0.6,0.1,1.1,0.4,1.6,0.7l12.8-0.9
				c0.5-0.4,1-0.7,1.5-0.9c0,0,15.7-23.2,15.7-23.2c0-2.9,2.4-5.2,5.2-5.2s5.2,2.4,5.2,5.2c0,2.2-1.4,4.1-3.3,4.9l-15.7,23.3
				c0,2.9-2.4,5.2-5.2,5.2c-0.8,0-1.7-0.2-2.4-0.6l-13.5,0.9c-0.9,0.6-1.9,1-3.1,1c-2.6,0-4.8-1.9-5.2-4.4l-14.6-17.7l-13.4,11
				c-0.6,2.2-2.6,3.8-5,3.8c-0.9,0-1.8-0.2-2.6-0.7l-13.1,1.3c-0.9,0.7-2.1,1.2-3.3,1.2c-2.2,0-4.1-1.4-4.9-3.3l-14.3-9.9
				c-0.2,0-0.3,0-0.5,0l-14,7.7c-0.7,1.1-1.7,2-3,2.4l-15.5,18.2C5799.3,108.6,5797.1,110.7,5794.4,110.7z"/>
		</g>
		<g>
			<path d="M5813.4,147c-1.8,0-3.3-0.9-4.3-2.2l-10.9-4.2c-1,1.1-2.4,1.8-3.9,1.8c-2.9,0-5.2-2.4-5.2-5.2c0-0.5,0.1-0.9,0.2-1.4
				c-0.1-0.4-0.2-0.9-0.2-1.3c0-1,0.3-1.8,0.7-2.6c-0.4-0.8-0.7-1.7-0.7-2.6c0-1.2,0.4-2.2,1-3.1c-0.6-0.9-1-1.9-1-3.1
				c0-0.1,0-0.3,0-0.4c0-0.1,0-0.3,0-0.4c0-0.3,0-0.5,0.1-0.8c0-0.3-0.1-0.5-0.1-0.8c0-1,0.3-1.9,0.7-2.6c-0.4-0.8-0.7-1.7-0.7-2.6
				c0-2.7,2-4.9,4.6-5.2l13-12.9l1.6-2.9c0-0.2,0-0.3,0-0.5c0-2.9,2.4-5.2,5.2-5.2c0.4,0,0.7,0,1.1,0.1l13.6-5.5
				c0.9-1.4,2.5-2.3,4.3-2.3c2.2,0,4,1.3,4.8,3.2l13.9,8.9c0.1,0,0.2,0,0.4,0c1.1,0,2.1,0.3,3,0.9l12.6-0.4c0.6-0.5,1.3-0.9,2.1-1.1
				l15.2-19.3c0.2-2.7,2.5-4.8,5.2-4.8c2.7,0,5,2.1,5.2,4.8l15.3,18.9c0.5,0.1,0.9,0.3,1.3,0.6l13-0.7c0.4-0.3,0.9-0.6,1.4-0.8
				l15.7-22.8c0-2.9,2.4-5.2,5.2-5.2c2.9,0,5.2,2.4,5.2,5.2c0,1.4-0.5,2.6-1.4,3.6c0.9,0.9,1.4,2.2,1.4,3.6c0,1.9-1,3.5-2.4,4.4l0,0
				l0.1,1.1c1.4,0.9,2.3,2.5,2.3,4.3c0,0.7-0.1,1.4-0.4,2c0.3,0.6,0.4,1.3,0.4,2.1c0,1-0.3,2-0.8,2.8c0.5,0.8,0.8,1.8,0.8,2.8
				c0,2.2-1.4,4.2-3.4,4.9l-15.6,22c0,0,0,0.1,0,0.1c0,2.9-2.4,5.2-5.2,5.2c-1.5,0-2.8-0.6-3.8-1.6l-12.8-1.8
				c-0.7,0.4-1.6,0.6-2.4,0.6c-2.7,0-4.9-2-5.2-4.6l-14.8-17l-10.7,6.5l-2.3,2.5c-0.4,2.5-2.6,4.4-5.2,4.4c-1.1,0-2.1-0.3-2.9-0.9
				h-13.2c-0.8,0.6-1.8,0.9-2.9,0.9c-1.2,0-2.3-0.4-3.1-1.1l-13.5-0.9c-0.7,0.4-1.6,0.6-2.4,0.6c-1.7,0-3.2-0.8-4.1-2.1l-2.3-0.9
				l-9.2,12.4l-5.6,0.8l-0.5-0.4l-0.8-5.6l7.7-10.4l-2.4-0.9l-13.4,24.7l10.5,4c0.2-0.1,0.5-0.1,0.7-0.1l14.6-11.7
				c0.7-2.1,2.7-3.6,5-3.6c2.9,0,5.2,2.3,5.2,5.2c0,2.7-2.1,5-4.8,5.2l-14.5,11.7C5817.8,145.5,5815.8,147,5813.4,147z
				 M5925.4,111.1c0.1-0.1,0.2-0.1,0.3-0.1l1.4-2.2l-6.8,1.7L5925.4,111.1z M5838.8,106l-5.3-3.9l-1.9,2.6c0.3-0.1,0.6-0.1,0.9-0.1
				c1.3,0,2.4,0.5,3.4,1.2L5838.8,106z"/>
		</g>
	</g>
</g>
</svg>
