<?xml version="1.0" encoding="utf-8"?>
<!-- Generator: Adobe Illustrator 23.0.1, SVG Export Plug-In . SVG Version: 6.00 Build 0)  -->
<svg version="1.1" id="AR_x5F_layer" xmlns="http://www.w3.org/2000/svg" xmlns:xlink="http://www.w3.org/1999/xlink" x="0px"
	 y="0px" width="9451.5px" height="623.5px" viewBox="0 0 9451.5 623.5" style="enable-background:new 0 0 9451.5 623.5;"
	 xml:space="preserve">
<style type="text/css">
	.st0{opacity:0.01;}
	.st1{fill:none;stroke:#000000;stroke-width:11;stroke-linecap:round;stroke-linejoin:round;stroke-miterlimit:10;}
</style>
<g class="st0">
	<polyline class="st1" points="5831,207 5848.7,214.6 5866.4,214.6 5884.2,211.8 5902,213.9 5919.8,205.1 5935.2,171.3
		5937.5,167.1 5950.4,139.8 5955.2,129.9 5973,141.9 5990.8,154.7 6008.5,133.1 6026.3,104.3 6039.6,94.1 6044.1,90.9 	"/>
	<circle class="st1" cx="5830.9" cy="207" r="1"/>
	<circle class="st1" cx="5848.7" cy="214.6" r="1"/>
	<circle class="st1" cx="5866.5" cy="214.6" r="1"/>
	<circle class="st1" cx="5884.2" cy="211.8" r="1"/>
	<circle class="st1" cx="5902" cy="213.9" r="1"/>
	<circle class="st1" cx="5919.7" cy="205" r="1"/>
	<circle class="st1" cx="5935.2" cy="171.4" r="1"/>
	<circle class="st1" cx="5937.5" cy="167.1" r="1"/>
	<circle class="st1" cx="5950.5" cy="139.8" r="1"/>
	<circle class="st1" cx="5955.3" cy="129.9" r="1"/>
	<circle class="st1" cx="5973" cy="141.9" r="1"/>
	<circle class="st1" cx="5990.8" cy="154.7" r="1"/>
	<circle class="st1" cx="6008.5" cy="133.1" r="1"/>
	<circle class="st1" cx="6026.3" cy="104.4" r="1"/>
	<circle class="st1" cx="6039.6" cy="94.1" r="1"/>
	<circle class="st1" cx="6044.1" cy="90.9" r="1"/>
</g>
</svg>
