<?xml version="1.0" encoding="UTF-8" standalone="no"?>
<!-- Created with Inkscape (http://www.inkscape.org/) -->

<svg
   version="1.1"
   id="svg824"
   xml:space="preserve"
   width="12601.933"
   height="831.35999"
   viewBox="0 0 12601.933 831.35999"
   xmlns="http://www.w3.org/2000/svg"
   xmlns:svg="http://www.w3.org/2000/svg"><defs
     id="defs828"><clipPath
       clipPathUnits="userSpaceOnUse"
       id="clipPath840"><path
         d="M 0,623.52 H 9451.446 V 0 H 0 Z"
         id="path838" /></clipPath></defs><g
     id="g830"
     transform="matrix(1.3333333,0,0,-1.3333333,0,831.36)"><path
       d="m 6140.613,156.767 h -2.314 v 29.244 h 2.314 z m -7.333,28.277 h -2.271 v 0.967 h 2.271 z m -7.339,-10.761 h -2.266 v 11.728 h 2.266 z m -7.285,-7.528 h -2.317 v 19.256 h 2.317 z m -7.333,11.342 h -2.271 v 7.914 h 2.271 z m -7.292,7.718 h -2.313 v 0.195 h 2.313 z m -7.331,-0.771 h -2.272 v 0.967 h 2.272 z m -7.289,0.289 h -2.315 v 0.678 h 2.315 z m -7.335,0.05 h -2.267 v 0.628 h 2.267 z m -7.336,-0.05 h -2.268 v 0.678 h 2.268 z m -7.288,-19.542 h -2.316 v 20.22 h 2.316 z m -7.336,19.834 h -2.268 v 0.386 h 2.268 z m -7.286,-4.586 h -2.316 v 4.972 h 2.316 z m -7.334,-8.251 h -2.271 v 13.223 h 2.271 z m -7.288,12.064 h -2.314 v 1.159 h 2.314 z m -7.333,-5.551 h -2.269 v 6.71 h 2.269 z m -7.289,6.514 h -2.314 v 0.195 h 2.314 z m -7.334,-0.047 h -2.319 v 0.243 h 2.319 z m -7.335,-0.774 h -2.267 v 1.017 h 2.267 z m -7.289,-27.988 h -2.315 v 29.005 h 2.315 z m -7.335,19.062 h -2.269 v 9.942 h 2.269 z m -7.285,9.171 h -2.319 v 0.771 h 2.319 z m -7.335,-3.09 h -2.272 v 3.861 h 2.272 z m -7.29,-5.066 h -2.316 v 8.928 h 2.316 z m -7.336,-17.664 h -2.316 v 26.592 h 2.316 z m -7.334,8.64 h -2.27 v 17.952 h 2.27 z m -7.287,17.853 h -2.32 v 0.099 h 2.32 z m -7.334,-22.534 h -2.27 v 22.633 h 2.27 z m -7.289,-34.651 h -2.316 v 57.284 h 2.316 z m -7.334,57.088 h -2.271 v 0.195 h 2.271 z m -7.289,-39.231 h -2.315 v 39.427 h 2.315 z m -7.332,27.65 h -2.32 v 11.776 h 2.32 z m -7.337,10.664 h -2.27 v 1.112 h 2.27 z m -7.287,-49.029 h -2.315 v 50.142 h 2.315 z m -7.338,46.618 h -2.265 v 3.523 h 2.265 z m -7.285,-29.342 h -2.317 v 32.866 h 2.317 z"
       style="fill:#8ea7ce;fill-opacity:1;fill-rule:nonzero;stroke:none"
       id="path870" /><g
       id="g872"
       transform="translate(6139.4316,167.0195)"><path
         d="m 0,0 -7.29,18.484 -7.329,-8.254 -7.291,2.655 -7.332,3.379 -7.291,2.702 h -7.333 -7.335 l -7.288,-0.049 -7.336,0.049 -7.288,-1.737 -7.332,1.737 h -7.291 l -7.333,-0.868 -7.336,-1.352 -7.289,2.22 h -7.335 -7.288 l -7.332,-0.529 -7.287,-20.996 -7.337,15.542 -7.335,5.16 -7.286,-1.008 -7.336,1.008 -7.287,-8.347 -7.337,8.107 -7.287,1.063 -7.334,-3.377 -7.337,-32.913 -7.286,36.095 -7.335,-12.45 -7.286,7.822 -7.338,4.823 -7.287,-18.628 -7.333,17.565 -7.337,-1.879"
         style="fill:none;stroke:#ffffff;stroke-width:1.049;stroke-linecap:round;stroke-linejoin:round;stroke-miterlimit:10;stroke-dasharray:none;stroke-opacity:1"
         id="path874" /></g><g
       id="g876"
       transform="translate(6139.4316,163.835)"><path
         d="m 0,0 -7.29,18.341 -7.329,-50.624 -7.291,13.897 -7.332,10.811 -7.291,24.658 -7.333,5.067 -7.335,-0.628 h -7.288 l -7.336,0.628 -7.288,-7.577 -7.332,7.577 -7.291,-3.136 -7.333,-0.673 -7.336,0.673 -7.289,-19.642 -7.335,22.778 h -7.288 l -7.332,-4.44 -7.287,-28.471 -7.337,6.948 -7.335,-17.082 -7.286,27.216 -7.336,0.63 -7.287,-20.898 -7.337,29.776 -7.287,6.321 -7.334,-49.368 -7.337,38.606 -7.286,3.814 -7.335,-39.283 -7.286,34.844 -7.338,10.132 -7.287,-44.976 -7.333,31.032 -7.337,-2.51"
         style="fill:none;stroke:#b87433;stroke-width:1.172;stroke-linecap:round;stroke-linejoin:round;stroke-miterlimit:10;stroke-dasharray:none;stroke-opacity:1"
         id="path878" /></g><g
       id="g880"
       transform="translate(6141.6006,123.3604)"><path
         d="M 0,0 H -0.35"
         style="fill:none;stroke:#dcddde;stroke-width:0.35;stroke-linecap:butt;stroke-linejoin:round;stroke-miterlimit:4;stroke-dasharray:none;stroke-opacity:1"
         id="path882" /></g><g
       id="g884"
       transform="translate(6139.8545,123.3604)"><path
         d="M 0,0 H -258.956"
         style="fill:none;stroke:#dcddde;stroke-width:0.35;stroke-linecap:butt;stroke-linejoin:round;stroke-miterlimit:4;stroke-dasharray:0.698, 1.396;stroke-dashoffset:0;stroke-opacity:1"
         id="path886" /></g><g
       id="g888"
       transform="translate(5880.2002,123.3604)"><path
         d="M 0,0 H -0.35"
         style="fill:none;stroke:#dcddde;stroke-width:0.35;stroke-linecap:butt;stroke-linejoin:round;stroke-miterlimit:4;stroke-dasharray:none;stroke-opacity:1"
         id="path890" /></g><g
       id="g892"
       transform="translate(6141.6006,129.6436)"><path
         d="M 0,0 H -0.35"
         style="fill:none;stroke:#dcddde;stroke-width:0.35;stroke-linecap:butt;stroke-linejoin:round;stroke-miterlimit:4;stroke-dasharray:none;stroke-opacity:1"
         id="path894" /></g><g
       id="g896"
       transform="translate(6139.8545,129.6436)"><path
         d="M 0,0 H -258.956"
         style="fill:none;stroke:#dcddde;stroke-width:0.35;stroke-linecap:butt;stroke-linejoin:round;stroke-miterlimit:4;stroke-dasharray:0.698, 1.396;stroke-dashoffset:0;stroke-opacity:1"
         id="path898" /></g><g
       id="g900"
       transform="translate(5880.2002,129.6436)"><path
         d="M 0,0 H -0.35"
         style="fill:none;stroke:#dcddde;stroke-width:0.35;stroke-linecap:butt;stroke-linejoin:round;stroke-miterlimit:4;stroke-dasharray:none;stroke-opacity:1"
         id="path902" /></g><g
       id="g904"
       transform="translate(6141.6006,135.9268)"><path
         d="M 0,0 H -0.35"
         style="fill:none;stroke:#dcddde;stroke-width:0.35;stroke-linecap:butt;stroke-linejoin:round;stroke-miterlimit:4;stroke-dasharray:none;stroke-opacity:1"
         id="path906" /></g><g
       id="g908"
       transform="translate(6139.8545,135.9268)"><path
         d="M 0,0 H -258.956"
         style="fill:none;stroke:#dcddde;stroke-width:0.35;stroke-linecap:butt;stroke-linejoin:round;stroke-miterlimit:4;stroke-dasharray:0.698, 1.396;stroke-dashoffset:0;stroke-opacity:1"
         id="path910" /></g><g
       id="g912"
       transform="translate(5880.2002,135.9268)"><path
         d="M 0,0 H -0.35"
         style="fill:none;stroke:#dcddde;stroke-width:0.35;stroke-linecap:butt;stroke-linejoin:round;stroke-miterlimit:4;stroke-dasharray:none;stroke-opacity:1"
         id="path914" /></g><g
       id="g916"
       transform="translate(6141.6006,142.2109)"><path
         d="M 0,0 H -0.35"
         style="fill:none;stroke:#dcddde;stroke-width:0.35;stroke-linecap:butt;stroke-linejoin:round;stroke-miterlimit:4;stroke-dasharray:none;stroke-opacity:1"
         id="path918" /></g><g
       id="g920"
       transform="translate(6139.8545,142.2109)"><path
         d="M 0,0 H -258.956"
         style="fill:none;stroke:#dcddde;stroke-width:0.35;stroke-linecap:butt;stroke-linejoin:round;stroke-miterlimit:4;stroke-dasharray:0.698, 1.396;stroke-dashoffset:0;stroke-opacity:1"
         id="path922" /></g><g
       id="g924"
       transform="translate(5880.2002,142.2109)"><path
         d="M 0,0 H -0.35"
         style="fill:none;stroke:#dcddde;stroke-width:0.35;stroke-linecap:butt;stroke-linejoin:round;stroke-miterlimit:4;stroke-dasharray:none;stroke-opacity:1"
         id="path926" /></g><g
       id="g928"
       transform="translate(6141.6006,148.4941)"><path
         d="M 0,0 H -0.35"
         style="fill:none;stroke:#dcddde;stroke-width:0.35;stroke-linecap:butt;stroke-linejoin:round;stroke-miterlimit:4;stroke-dasharray:none;stroke-opacity:1"
         id="path930" /></g><g
       id="g932"
       transform="translate(6139.8545,148.4941)"><path
         d="M 0,0 H -258.956"
         style="fill:none;stroke:#dcddde;stroke-width:0.35;stroke-linecap:butt;stroke-linejoin:round;stroke-miterlimit:4;stroke-dasharray:0.698, 1.396;stroke-dashoffset:0;stroke-opacity:1"
         id="path934" /></g><g
       id="g936"
       transform="translate(5880.2002,148.4941)"><path
         d="M 0,0 H -0.35"
         style="fill:none;stroke:#dcddde;stroke-width:0.35;stroke-linecap:butt;stroke-linejoin:round;stroke-miterlimit:4;stroke-dasharray:none;stroke-opacity:1"
         id="path938" /></g><g
       id="g940"
       transform="translate(6141.6006,154.8252)"><path
         d="M 0,0 H -0.35"
         style="fill:none;stroke:#dcddde;stroke-width:0.35;stroke-linecap:butt;stroke-linejoin:round;stroke-miterlimit:4;stroke-dasharray:none;stroke-opacity:1"
         id="path942" /></g><g
       id="g944"
       transform="translate(6139.8545,154.8252)"><path
         d="M 0,0 H -258.956"
         style="fill:none;stroke:#dcddde;stroke-width:0.35;stroke-linecap:butt;stroke-linejoin:round;stroke-miterlimit:4;stroke-dasharray:0.698, 1.396;stroke-dashoffset:0;stroke-opacity:1"
         id="path946" /></g><g
       id="g948"
       transform="translate(5880.2002,154.8252)"><path
         d="M 0,0 H -0.35"
         style="fill:none;stroke:#dcddde;stroke-width:0.35;stroke-linecap:butt;stroke-linejoin:round;stroke-miterlimit:4;stroke-dasharray:none;stroke-opacity:1"
         id="path950" /></g><g
       id="g952"
       transform="translate(6141.6006,161.1094)"><path
         d="M 0,0 H -0.35"
         style="fill:none;stroke:#dcddde;stroke-width:0.35;stroke-linecap:butt;stroke-linejoin:round;stroke-miterlimit:4;stroke-dasharray:none;stroke-opacity:1"
         id="path954" /></g><g
       id="g956"
       transform="translate(6139.8545,161.1094)"><path
         d="M 0,0 H -258.956"
         style="fill:none;stroke:#dcddde;stroke-width:0.35;stroke-linecap:butt;stroke-linejoin:round;stroke-miterlimit:4;stroke-dasharray:0.698, 1.396;stroke-dashoffset:0;stroke-opacity:1"
         id="path958" /></g><g
       id="g960"
       transform="translate(5880.2002,161.1094)"><path
         d="M 0,0 H -0.35"
         style="fill:none;stroke:#dcddde;stroke-width:0.35;stroke-linecap:butt;stroke-linejoin:round;stroke-miterlimit:4;stroke-dasharray:none;stroke-opacity:1"
         id="path962" /></g><g
       id="g964"
       transform="translate(6141.6006,167.3926)"><path
         d="M 0,0 H -0.35"
         style="fill:none;stroke:#dcddde;stroke-width:0.35;stroke-linecap:butt;stroke-linejoin:round;stroke-miterlimit:4;stroke-dasharray:none;stroke-opacity:1"
         id="path966" /></g><g
       id="g968"
       transform="translate(6139.8545,167.3926)"><path
         d="M 0,0 H -258.956"
         style="fill:none;stroke:#dcddde;stroke-width:0.35;stroke-linecap:butt;stroke-linejoin:round;stroke-miterlimit:4;stroke-dasharray:0.698, 1.396;stroke-dashoffset:0;stroke-opacity:1"
         id="path970" /></g><g
       id="g972"
       transform="translate(5880.2002,167.3926)"><path
         d="M 0,0 H -0.35"
         style="fill:none;stroke:#dcddde;stroke-width:0.35;stroke-linecap:butt;stroke-linejoin:round;stroke-miterlimit:4;stroke-dasharray:none;stroke-opacity:1"
         id="path974" /></g><g
       id="g976"
       transform="translate(6141.6006,173.6758)"><path
         d="M 0,0 H -0.35"
         style="fill:none;stroke:#dcddde;stroke-width:0.35;stroke-linecap:butt;stroke-linejoin:round;stroke-miterlimit:4;stroke-dasharray:none;stroke-opacity:1"
         id="path978" /></g><g
       id="g980"
       transform="translate(6139.8545,173.6758)"><path
         d="M 0,0 H -258.956"
         style="fill:none;stroke:#dcddde;stroke-width:0.35;stroke-linecap:butt;stroke-linejoin:round;stroke-miterlimit:4;stroke-dasharray:0.698, 1.396;stroke-dashoffset:0;stroke-opacity:1"
         id="path982" /></g><g
       id="g984"
       transform="translate(5880.2002,173.6758)"><path
         d="M 0,0 H -0.35"
         style="fill:none;stroke:#dcddde;stroke-width:0.35;stroke-linecap:butt;stroke-linejoin:round;stroke-miterlimit:4;stroke-dasharray:none;stroke-opacity:1"
         id="path986" /></g><g
       id="g988"
       transform="translate(6141.6006,179.96)"><path
         d="M 0,0 H -0.35"
         style="fill:none;stroke:#dcddde;stroke-width:0.35;stroke-linecap:butt;stroke-linejoin:round;stroke-miterlimit:4;stroke-dasharray:none;stroke-opacity:1"
         id="path990" /></g><g
       id="g992"
       transform="translate(6139.8545,179.96)"><path
         d="M 0,0 H -258.956"
         style="fill:none;stroke:#dcddde;stroke-width:0.35;stroke-linecap:butt;stroke-linejoin:round;stroke-miterlimit:4;stroke-dasharray:0.698, 1.396;stroke-dashoffset:0;stroke-opacity:1"
         id="path994" /></g><g
       id="g996"
       transform="translate(5880.2002,179.96)"><path
         d="M 0,0 H -0.35"
         style="fill:none;stroke:#dcddde;stroke-width:0.35;stroke-linecap:butt;stroke-linejoin:round;stroke-miterlimit:4;stroke-dasharray:none;stroke-opacity:1"
         id="path998" /></g><g
       id="g1000"
       transform="translate(6141.6006,186.291)"><path
         d="M 0,0 H -0.35"
         style="fill:none;stroke:#dcddde;stroke-width:0.288;stroke-linecap:butt;stroke-linejoin:round;stroke-miterlimit:4;stroke-dasharray:none;stroke-opacity:1"
         id="path1002" /></g><g
       id="g1004"
       transform="translate(6139.8555,186.291)"><path
         d="M 0,0 H -258.957"
         style="fill:none;stroke:#dcddde;stroke-width:0.288;stroke-linecap:butt;stroke-linejoin:round;stroke-miterlimit:4;stroke-dasharray:0.698, 1.396;stroke-dashoffset:0;stroke-opacity:1"
         id="path1006" /></g><g
       id="g1008"
       transform="translate(5880.2002,186.291)"><path
         d="M 0,0 H -0.35"
         style="fill:none;stroke:#dcddde;stroke-width:0.288;stroke-linecap:butt;stroke-linejoin:round;stroke-miterlimit:4;stroke-dasharray:none;stroke-opacity:1"
         id="path1010" /></g><text
       transform="matrix(1,0,0,-1,5871.873,185.04)"
       style="font-variant:normal;font-weight:normal;font-stretch:normal;font-size:4.8977px;font-family:Roboto;-inkscape-font-specification:Roboto-Regular;writing-mode:lr-tb;fill:#ffffff;fill-opacity:1;fill-rule:nonzero;stroke:none"
       id="text1054"><tspan
         x="0"
         y="0"
         id="tspan1012">0</tspan><tspan
         x="-8.2477264 -5.4976683 -2.7476096 0.0048977002"
         y="6.989018"
         id="tspan1014">1000</tspan><tspan
         x="-8.2477264 -5.4976683 -2.7476096 0.0048977002"
         y="13.987831"
         id="tspan1016">2000</tspan><tspan
         x="-8.2477264 -5.4976683 -2.7476096 0.0048977002"
         y="20.981747"
         id="tspan1018">3000</tspan><tspan
         x="-8.2477264 -5.4976683 -2.7476096 0.0048977002"
         y="27.975662"
         id="tspan1020">4000</tspan><tspan
         x="-8.2477264 -5.4976683 -2.7476096 0.0048977002"
         y="34.969578"
         id="tspan1022">5000</tspan><tspan
         x="-8.2477264 -5.4976683 -2.7476096 0.0048977002"
         y="41.963493"
         id="tspan1024">6000</tspan><tspan
         x="-8.2477264 -5.4976683 -2.7476096 0.0048977002"
         y="48.952511"
         id="tspan1026">7000</tspan><tspan
         x="-8.2477264 -5.4976683 -2.7476096 0.0048977002"
         y="55.946426"
         id="tspan1028">8000</tspan><tspan
         x="-8.2477264 -5.4976683 -2.7476096 0.0048977002"
         y="62.940342"
         id="tspan1030">9000</tspan><tspan
         x="274.98627"
         y="-0.0097954003"
         id="tspan1032">0</tspan><tspan
         x="275.06464 277.8147"
         y="6.2935443"
         id="tspan1034">10</tspan><tspan
         x="275.06464 277.8147"
         y="12.582191"
         id="tspan1036">20</tspan><tspan
         x="275.06464 277.8147"
         y="18.875736"
         id="tspan1038">30</tspan><tspan
         x="275.06464 277.8147"
         y="25.169279"
         id="tspan1040">40</tspan><tspan
         x="275.06464 277.8147"
         y="31.457928"
         id="tspan1042">50</tspan><tspan
         x="275.06464 277.8147"
         y="37.756371"
         id="tspan1044">60</tspan><tspan
         x="275.06464 277.8147"
         y="44.049915"
         id="tspan1046">70</tspan><tspan
         x="275.06464 277.8147"
         y="50.353252"
         id="tspan1048">80</tspan><tspan
         x="275.06464 277.8147"
         y="56.641899"
         id="tspan1050">90</tspan><tspan
         x="275.15768 277.90775 280.65781 283.41031 284.62201"
         y="62.935444"
         id="tspan1052">100 %</tspan></text><text
       transform="matrix(0,1,1,0,6139.5957,202.5898)"
       style="font-variant:normal;font-weight:normal;font-stretch:normal;font-size:4.8977px;font-family:Roboto;-inkscape-font-specification:Roboto-Regular;writing-mode:lr-tb;fill:#ffffff;fill-opacity:1;fill-rule:nonzero;stroke:none"
       id="text1128"><tspan
         x="0 3.2128911 5.8086724 6.9988132 9.6974459"
         y="0"
         id="tspan1056">Delhi</tspan><tspan
         x="0 3.0904486 5.7890816 8.551384 11.250017 13.811514 16.510147 19.105928 20.761351 22.461342"
         y="-7.2681866"
         id="tspan1058">Puducherry</tspan><tspan
         x="0 3.0904486 5.7890816 8.4926119 9.6631622 12.327511"
         y="-14.536374"
         id="tspan1060">Punjab</tspan><tspan
         x="0 3.0169833 5.6813321 6.8518825 9.5162315 12.043445 13.644992 16.343624 19.007975"
         y="-21.814356"
         id="tspan1062">Rajasthan</tspan><tspan
         x="0 3.3671687 6.1294718 7.3196125 9.8468256 12.545459"
         y="-29.082542"
         id="tspan1064">Odisha</tspan><tspan
         x="0 3.1933005 5.896831 8.6591339 11.323483 15.613868 18.278217 20.981747 22.196377 25.240297 26.454927 29.946987 31.137127 33.698624 36.490314 39.237923 41.902271 43.557693 44.772324 46.1045 48.631714 49.821854 52.486202 55.189732 57.952034"
         y="-36.355625"
         id="tspan1066">Andaman &amp; Nicobar Islands</tspan><tspan
         x="0 4.275692 6.9400411 9.6435709 10.833713 13.581322 16.279955"
         y="-43.628712"
         id="tspan1068">Manipur</tspan><tspan
         x="0 4.275692 6.8714733 9.6190825 12.317716 14.982064 16.172205 18.800312 21.081659"
         y="-50.901794"
         id="tspan1070">Meghalaya</tspan><tspan
         x="0 4.275692 5.4658332 7.8544416 10.646131 12.207518 14.871866"
         y="-58.174881"
         id="tspan1072">Mizoram</tspan><tspan
         x="0 3.4920602 6.1564088 8.9040184 11.568367 12.758509 15.422857 18.126389"
         y="-65.443069"
         id="tspan1074">Nagaland</tspan><tspan
         x="0 3.1933005 5.896831 8.6591339 11.357766 12.919642 15.583992 16.795683 19.886131 21.447517 24.111866 26.87417 29.46995 31.997164"
         y="-72.716148"
         id="tspan1076">Andhra Pradesh</tspan><tspan
         x="0 3.1933005 4.8487229 7.5473557 10.250886 12.915235 15.476732 18.175365 20.839714 22.029854 23.244484 26.334932 27.89632 30.560669 33.322971 35.918751 38.445965"
         y="-79.984337"
         id="tspan1078">Arunachal Pradesh</tspan><tspan
         x="0 3.1933005 5.7205138 8.2477264 10.912076"
         y="-87.252525"
         id="tspan1080">Assam</tspan><tspan
         x="0 3.0488183 4.2389593 6.937592 9.6019411"
         y="-94.525612"
         id="tspan1082">Bihar</tspan><tspan
         x="0 3.1884027 5.8870354 8.551384 11.254914 14.017218 15.207358 17.954967 20.619316 22.27474"
         y="-101.79869"
         id="tspan1084">Chandigarh</tspan><tspan
         x="0 3.1884027 5.8870354 8.5856686 11.250017 12.851564 14.453113 15.643253 18.170467 20.918077 23.582426 25.237848"
         y="-109.06688"
         id="tspan1086">Chhattisgarh</tspan><tspan
         x="-0.0048977002 3.2079935 5.8723421 8.6346455 10.196522 12.86087 14.0755 17.119421 18.334051 21.826111 24.490459 27.23807 29.902418 31.55784 32.772469 36.26453 38.892635 41.234226 43.830006 45.020149"
         y="-116.33507"
         id="tspan1088">Dadra &amp; Nagar Haveli</tspan><tspan
         x="0 3.2128911 5.8772402 10.167625 12.831974 15.535504 16.747684 19.794054 21.005745 24.218637 25.408777"
         y="-123.60325"
         id="tspan1090">Daman &amp; Diu</tspan><tspan
         x="0 3.3353336 6.1270227"
         y="-130.88124"
         id="tspan1092">Goa</tspan><tspan
         x="0 3.3353336 6.0339665 7.2045169 9.868866 11.430252 14.094601"
         y="-138.14941"
         id="tspan1094">Gujarat</tspan><tspan
         x="0 3.4920602 6.1564088 7.8564005 10.138729 12.803078 15.506608"
         y="-145.4176"
         id="tspan1096">Haryana</tspan><tspan
         x="0 3.4920602 4.6822014 8.9725866 11.636935 14.198432 16.897064 19.561415 20.751554 21.963245 25.053694 26.615082 29.27943 32.041733 34.637512 37.164726"
         y="-152.68581"
         id="tspan1098">Himachal Pradesh</tspan><tspan
         x="0 2.7035303 5.3678794 9.6582642 13.948649 16.647282 17.861912 20.905832 22.120462 25.19132 27.855669 30.382881 33.081516 37.371899 38.562042"
         y="-159.95398"
         id="tspan1100">Jammu &amp; Kashmir</tspan><tspan
         x="0 2.7035303 5.402163 8.0665121 9.7219343 12.205069 14.903701 17.56805 20.27158"
         y="-167.21727"
         id="tspan1102">Jharkhand</tspan><tspan
         x="0 3.070858 5.7352066 7.3906293 10.09416 12.758509 14.360056 17.024405 19.50754"
         y="-174.49036"
         id="tspan1104">Karnataka</tspan><tspan
         x="0 3.0086572 5.6044383 7.1658249 9.8301735 11.020315"
         y="-181.76834"
         id="tspan1106">Kerala</tspan><tspan
         x="0 2.6349626 5.2993116 7.7824454 10.309658 13.008291 15.67264 18.434942 22.113115 24.708897 27.304678"
         y="-189.04143"
         id="tspan1108">Lakshadweep</tspan><tspan
         x="0 4.275692 6.9400411 9.7023439 12.400976 14.683305 17.347654 18.559345 21.649794 23.21118 25.875528 28.637831 31.233612 33.760826"
         y="-196.30962"
         id="tspan1110">Madhya Pradesh</tspan><tspan
         x="0 4.275692 6.9400411 9.6386738 12.303022 13.864899 16.529247 19.056461 21.755095 23.356642 24.918518"
         y="-203.5778"
         id="tspan1112">Maharashtra</tspan><tspan
         x="0 2.9043362 4.0944772 6.577611 9.0607452 10.250886"
         y="-210.84599"
         id="tspan1114">Sikkim</tspan><tspan
         x="0 2.6525943 5.3169432 9.6073284 10.797469 11.987611 13.199791 16.691851 19.356199 22.118504"
         y="-218.11906"
         id="tspan1116">Tamil Nadu</tspan><tspan
         x="0 2.6854088 5.2811899 6.4713311 9.1356802 11.839211 14.58682 17.251169 19.954699"
         y="-225.39215"
         id="tspan1118">Telangana</tspan><tspan
         x="0 2.7432017 4.3986244 5.5887656 8.3363752 11.035007 12.597864"
         y="-232.66034"
         id="tspan1120">Tripura</tspan><tspan
         x="0 3.1737096 4.7752576 6.3768053 9.0411539 10.696577 11.908757 14.999207 16.560593 19.224941 21.987246 24.583025 27.110239"
         y="-239.93343"
         id="tspan1122">Uttar Pradesh</tspan><tspan
         x="-0.0048977002 3.1688118 4.77036 6.3719077 9.0362568 10.597643 13.261992 15.745126 18.443758 21.108107 23.811638"
         y="-247.20161"
         id="tspan1124">Uttarakhand</tspan><tspan
         x="-0.0048977002 4.2663865 6.8621674 9.3893805 10.98848 12.200661 15.251927 17.847708 20.551239 23.298849 25.963198"
         y="-254.4747"
         id="tspan1126">West Bengal</tspan></text><path
       d="m 5862.951,287.962 h 7.675 v 3.07 h -7.675 z"
       style="fill:#8ea7ce;fill-opacity:1;fill-rule:evenodd;stroke:none"
       id="path1130" /><text
       transform="matrix(1,0,0,-1,5873.6562,287.8652)"
       style="font-variant:normal;font-weight:normal;font-stretch:normal;font-size:4.8977px;font-family:Roboto;-inkscape-font-specification:Roboto-Regular;writing-mode:lr-tb;fill:#ffffff;fill-opacity:1;fill-rule:nonzero;stroke:none"
       id="text1136"><tspan
         x="0 2.9043362 5.5001173 9.1782894 11.842639 14.590248"
         y="0"
         id="tspan1132">Sewage</tspan><tspan
         x="0 3.3353336 5.9311147 8.6346455 11.230426 12.791813 15.456161 17.057709 18.24785 21.039539"
         y="4.8976998"
         id="tspan1134">Generation</tspan></text><g
       id="g1138"
       transform="translate(5920.582,289.5205)"><path
         d="M 0,0 H 7.675"
         style="fill:none;stroke:#b87433;stroke-width:1.173;stroke-linecap:round;stroke-linejoin:round;stroke-miterlimit:10;stroke-dasharray:none;stroke-opacity:1"
         id="path1140" /></g><text
       transform="matrix(1,0,0,-1,5932.8682,287.8652)"
       style="font-variant:normal;font-weight:normal;font-stretch:normal;font-size:4.8977px;font-family:Roboto;-inkscape-font-specification:Roboto-Regular;writing-mode:lr-tb;fill:#ffffff;fill-opacity:1;fill-rule:nonzero;stroke:none"
       id="text1146"><tspan
         x="0 3.4920602 6.1906929 10.484016 13.231627 15.827407 17.485769 18.69746 21.489149 23.18865 24.40328 27.307615 29.903397 33.58157 36.245918 38.993526"
         y="0"
         id="tspan1142">Number of Sewage</tspan><tspan
         x="0 1.601548 3.2138708 5.8096519 8.4740009 10.075548 14.368873 16.964653 19.668184 21.269732 22.484362 25.231972 26.422112 29.08646 31.789991 33.391541 35.918751 37.133381 38.808395 42.393513"
         y="4.8976998"
         id="tspan1144">treatment plants (%)</tspan></text><g
       id="g1148"
       transform="translate(5996.209,289.5205)"><path
         d="M 0,0 H 7.675"
         style="fill:none;stroke:#ffffff;stroke-width:1.05;stroke-linecap:round;stroke-linejoin:round;stroke-miterlimit:10;stroke-dasharray:none;stroke-opacity:1"
         id="path1150" /></g><text
       transform="matrix(1,0,0,-1,6008.1836,287.8652)"
       style="font-variant:normal;font-weight:normal;font-stretch:normal;font-size:4.8977px;font-family:Roboto;-inkscape-font-specification:Roboto-Regular;writing-mode:lr-tb;fill:#ffffff;fill-opacity:1;fill-rule:nonzero;stroke:none"
       id="text1156"><tspan
         x="0 1.3321744 4.0357046 6.5629182 8.1644659 10.828815 12.018956 13.209097 15.804878"
         y="0"
         id="tspan1152">Installed</tspan><tspan
         x="0 1.601548 3.2138708 5.8096519 8.4740009 10.075548 14.368873 16.964653 19.668184 21.269732 22.484362 25.045858 27.710207 30.457817 33.122166 35.683662 36.873802 38.475353"
         y="4.8976998"
         id="tspan1154">treatment capacity</tspan></text><text
       transform="matrix(1,0,0,-1,5862.8506,327.2769)"
       style="font-variant:normal;font-weight:300;font-stretch:normal;font-size:6.9929px;font-family:'Roboto Light';-inkscape-font-specification:Roboto-Light;writing-mode:lr-tb;fill:#fafafa;fill-opacity:1;fill-rule:nonzero;stroke:none"
       id="text1164"><tspan
         x="0 4.4195127 8.6061621 12.812391 17.266869 21.525545 28.0709 30.210726 34.630238 38.888916 40.867905 45.287418 49.546097 55.947395 60.556416 65.619278 69.877953 71.856941 76.9198 81.178474 86.423157 90.681831 95.402039 99.608963 104.06345 106.20327 111.21718 116.46185 118.44084 123.08762 128.33231 133.19237 135.03639 139.49088 144.21107 148.46976 152.67598 157.13046 163.45903 167.71771 172.86308 177.1826"
         y="0"
         id="tspan1158">STATEWISE SEWAGE GENERATION AND TREATMENT </tspan><tspan
         x="0 4.8181081 9.4683867 13.58231 18.192728 23.010838 25.053463 29.563883 34.032345 36.011337 41.025246 45.241966 47.220955 51.640469 55.899143 62.299747 66.910164 71.969528 76.228203 78.070831 82.525314 87.245522 91.504196 95.711121 100.1656 106.49417 110.75285 115.89963 120.21774 122.19673 126.78407 130.81268 135.46297 140.60834 145.00967 149.42918 151.40817 153.548 158.79268 160.77167 162.9115 168.15617 173.01624 175.21829 179.86858"
         y="9.6012516"
         id="tspan1160">CAPACITY OF SEWAGE TREATMENT PLANTS IN INDIA </tspan><tspan
         x="0 4.4684629 8.7271395 13.373921 18.09413 20.07312 24.226902 28.380684 32.534466"
         y="19.202503"
         id="tspan1162">YEAR 2016</tspan></text><text
       transform="matrix(1,0,0,-1,5864.7461,109.0137)"
       style="font-variant:normal;font-weight:normal;font-stretch:normal;font-size:4.8977px;font-family:Roboto;-inkscape-font-specification:Roboto-Regular;writing-mode:lr-tb;fill:#ffffff;fill-opacity:1;fill-rule:nonzero;stroke:none"
       id="text1172"><tspan
         x="0 2.9435177 4.1581473 6.8224959 9.2517557 10.441896 12.96911 14.154353 15.368982 16.701157 19.404688 21.9319 23.533449 26.197798 27.387938 28.578079 31.173861 33.936165 35.053329 37.795551 39.407875 42.003654 44.668003 46.26955 50.559937 53.155716 55.859249 57.460796"
         y="0"
         id="tspan1166">Y axis: Installed Treatment </tspan><tspan
         x="0 3.1884027 5.8527517 8.6003609 11.26471 13.826207 15.016348 16.617897 18.679338 19.639288 20.853916 23.758253 26.354034 30.032207 32.696556 35.444164 38.039948 39.254578 42.589909 45.185692 47.889221 50.485001 52.046879 54.711227 56.312775 57.502914 60.294605"
         y="4.8976998"
         id="tspan1168">Capacity, Sewage Generation</tspan><tspan
         x="0 3.1737096 5.8772402 7.0673809 8.6689291 9.8541727 11.068802 15.359187 16.549328 17.73947 18.929611 20.119751 22.91144 25.614971 26.829601 28.019741 29.209883 30.81143 32.422775 35.018555 37.545769 38.760399 40.778252 43.540554 46.16964"
         y="14.6931"
         id="tspan1170">Unit: million litres /day</tspan></text></g></svg>
