<?xml version="1.0" encoding="utf-8"?>
<!-- Generator: Adobe Illustrator 23.0.1, SVG Export Plug-In . SVG Version: 6.00 Build 0)  -->
<svg version="1.1" id="AR_x5F_layer" xmlns="http://www.w3.org/2000/svg" xmlns:xlink="http://www.w3.org/1999/xlink" x="0px"
	 y="0px" width="9451.5px" height="623.5px" viewBox="0 0 9451.5 623.5" style="enable-background:new 0 0 9451.5 623.5;"
	 xml:space="preserve">
<style type="text/css">
	.st0{opacity:1.000000e-02;}
	.st1{stroke:#000000;stroke-width:1.1723;stroke-linecap:round;stroke-linejoin:round;stroke-miterlimit:10;}
</style>
<g class="st0">
	<g>
		<polygon class="st1" points="6139.4,467.3 6132.1,441.9 6124.8,492.5 6117.5,478.6 6110.2,467.8 6102.9,443.2 6095.6,438.1 
			6088.2,438.7 6080.9,438.7 6073.6,438.1 6066.3,460.7 6059,438.1 6051.7,444 6044.4,454.5 6037,441.2 6029.7,460.9 6022.4,438.1 
			6015.1,438.1 6007.8,442.5 6000.5,471 5993.1,464.1 5985.8,481.1 5978.5,453.9 5971.2,453.3 5963.9,474.2 5956.6,456 
			5949.3,438.1 5934.6,495.3 5927.3,445 5927.3,445 5920,484.3 5912.7,449.5 5905.4,439.3 5898.1,484.3 5890.7,453.3 5883.4,455.8 
			5883.4,438.1 6139.4,437 		"/>
	</g>
</g>
</svg>
