<?xml version="1.0" encoding="utf-8"?>
<!-- Generator: Adobe Illustrator 18.0.0, SVG Export Plug-In . SVG Version: 6.00 Build 0)  -->
<!DOCTYPE svg PUBLIC "-//W3C//DTD SVG 1.1//EN" "http://www.w3.org/Graphics/SVG/1.1/DTD/svg11.dtd">
<svg version="1.1" id="AR_x5F_layer" xmlns="http://www.w3.org/2000/svg" xmlns:xlink="http://www.w3.org/1999/xlink" x="0px"
	 y="0px" width="9451.45px" height="623.52px" viewBox="0 0 9451.45 623.52" enable-background="new 0 0 9451.45 623.52"
	 xml:space="preserve">
<path opacity="0.01" d="M5884.6,470.38h-2.32v-32.87h2.32V470.38z M5891.89,441.03h-2.27v-3.52h2.27V441.03z M5899.22,487.65h-2.32
	v-50.14h2.32V487.65z M5906.51,438.62h-2.27v-1.11h2.27V438.62z M5913.85,449.29h-2.32v-11.78h2.32V449.29z M5921.18,476.94h-2.32
	v-39.43h2.32V476.94z M5928.47,437.7h-2.27v-0.2h2.27V437.7z M5935.8,494.79h-2.32v-57.28h2.32V494.79z M5943.09,460.14h-2.27
	v-22.63h2.27V460.14z M5950.43,437.61h-2.32v-0.1h2.32V437.61z M5957.71,455.46h-2.27v-17.95h2.27V455.46z M5965.05,464.1h-2.32
	v-26.59h2.32V464.1z M5972.38,446.44h-2.32v-8.93h2.32V446.44z M5979.67,441.37h-2.27v-3.86h2.27V441.37z M5987.01,438.28h-2.32
	v-0.77h2.32V438.28z M5994.29,447.45h-2.27v-9.94h2.27V447.45z M6001.63,466.51h-2.32v-29h2.32V466.51z M6008.92,438.53h-2.27v-1.02
	h2.27V438.53z M6016.25,437.75h-2.32v-0.24h2.32V437.75z M6023.59,437.7h-2.31v-0.2h2.31V437.7z M6030.88,444.22h-2.27v-6.71h2.27
	V444.22z M6038.21,438.67h-2.31v-1.16h2.31V438.67z M6045.5,450.73h-2.27v-13.22h2.27V450.73z M6052.83,442.48h-2.32v-4.97h2.32
	V442.48z M6060.12,437.89h-2.27v-0.39h2.27V437.89z M6067.45,457.73h-2.32v-20.22h2.32V457.73z M6074.74,438.19h-2.27v-0.68h2.27
	V438.19z M6082.08,438.14h-2.27v-0.63h2.27V438.14z M6089.41,438.19h-2.32v-0.68h2.32V438.19z M6096.7,438.48h-2.27v-0.97h2.27
	V438.48z M6104.03,437.7h-2.31v-0.2h2.31V437.7z M6111.32,445.42h-2.27v-7.91h2.27V445.42z M6118.66,456.77h-2.32v-19.26h2.32
	V456.77z M6125.94,449.24h-2.27v-11.73h2.27V449.24z M6133.28,438.48h-2.27v-0.97h2.27V438.48z M6140.61,466.75h-2.31v-29.24h2.31
	V466.75z"/>
<g opacity="0.01">
	
		<polyline fill="none" stroke="#000000" stroke-width="1.049" stroke-linecap="round" stroke-linejoin="round" stroke-miterlimit="10" points="
		6139.43,456.5 6132.14,438.02 6124.81,446.27 6117.52,443.62 6110.19,440.24 6102.9,437.53 6095.57,437.53 6088.23,437.53 
		6080.94,437.58 6073.61,437.53 6066.32,439.27 6058.99,437.53 6051.7,437.53 6044.36,438.4 6037.03,439.75 6029.74,437.53 
		6022.4,437.53 6015.11,437.53 6007.78,438.06 6000.5,459.06 5993.16,443.52 5985.82,438.36 5978.54,439.37 5971.2,438.36 
		5963.92,446.7 5956.58,438.6 5949.29,437.53 5941.96,440.91 5934.62,473.82 5927.33,437.73 5920,450.18 5912.71,442.36 
		5905.38,437.53 5898.09,456.16 5890.75,438.6 5883.42,440.48 	"/>
</g>
<g opacity="0.01">
	<g>
		
			<polyline fill="none" stroke="#000000" stroke-width="1.1723" stroke-linecap="round" stroke-linejoin="round" stroke-miterlimit="10" points="
			6139.43,459.68 6132.14,441.34 6124.81,491.97 6117.52,478.07 6110.19,467.26 6102.9,442.6 6095.57,437.53 6088.23,438.16 
			6080.94,438.16 6073.61,437.53 6066.32,445.11 6058.99,437.53 6051.7,440.67 6044.36,441.34 6037.03,440.67 6029.74,460.31 
			6022.4,437.53 6015.11,437.53 6007.78,441.98 6000.5,470.45 5993.16,463.5 5985.82,480.58 5978.54,453.36 5971.2,452.73 
			5963.92,473.63 5956.58,443.86 5949.29,437.53 5941.96,486.9 5934.62,448.3 5927.33,444.48 5920,483.77 5912.71,448.92 
			5905.38,438.79 5898.09,483.77 5890.75,452.73 5883.42,455.24 		"/>
	</g>
</g>
</svg>
