<?xml version="1.0" encoding="utf-8"?>
<!-- Generator: Adobe Illustrator 18.0.0, SVG Export Plug-In . SVG Version: 6.00 Build 0)  -->
<!DOCTYPE svg PUBLIC "-//W3C//DTD SVG 1.1//EN" "http://www.w3.org/Graphics/SVG/1.1/DTD/svg11.dtd">
<svg version="1.1" xmlns="http://www.w3.org/2000/svg" xmlns:xlink="http://www.w3.org/1999/xlink" x="0px" y="0px"
	 viewBox="0 0 9451.4 623.5" enable-background="new 0 0 9451.4 623.5" xml:space="preserve">
<g id="background" display="none">
	<rect x="0" y="0" display="inline" fill="#B7D1D8" width="9451.4" height="623.5"/>
	<g display="inline">
		<g>
			<g>
				<g>
					
						<line fill="none" stroke="#FFFFFF" stroke-width="0.5" stroke-linecap="round" stroke-miterlimit="10" x1="812.7" y1="267.6" x2="812.7" y2="311.5"/>
				</g>
				<g transform="translate(10,10)">
					<g>
						<g>
							<polyline fill="#B87332" points="802.7,282.1 837.6,257.6 837.6,270.2 							"/>
						</g>
					</g>
				</g>
				<g transform="translate(10,10)">
					
						<line fill="none" stroke="#FFFFFF" stroke-width="0.5" stroke-linecap="round" stroke-miterlimit="10" x1="837.6" y1="257.6" x2="837.6" y2="301.5"/>
					
						<line fill="none" stroke="#FFFFFF" stroke-width="0.5" stroke-linecap="round" stroke-miterlimit="10" x1="802.7" y1="314.4" x2="802.7" y2="358.3"/>
					<path fill="#B87332" d="M802.7,338.9l34.9-24.5v4.8"/>
				</g>
				<g transform="translate(10,230)">
					<path fill="#FFFFFF" d="M802.7,113.8l34.9-19.4v3.8"/>
				</g>
				<g transform="translate(10,230)">
					
						<line fill="none" stroke="#FFFFFF" stroke-width="0.5" stroke-linecap="round" stroke-miterlimit="10" x1="837.6" y1="94.4" x2="837.6" y2="138.3"/>
					
						<line fill="none" stroke="#FFFFFF" stroke-width="0.5" stroke-linecap="round" stroke-miterlimit="10" x1="802.7" y1="151.2" x2="802.7" y2="195.1"/>
					<path fill="#B87332" d="M802.7,175.8l34.9-24.5v3"/>
				</g>
				<g transform="translate(10,450)">
					<path fill="#FFFFFF" d="M802.7-49.4l34.9-19.4v0.8"/>
				</g>
				<g transform="translate(10,450)">
					
						<line fill="none" stroke="#FFFFFF" stroke-width="0.5" stroke-linecap="round" stroke-miterlimit="10" x1="837.6" y1="-68.8" x2="837.6" y2="-24.9"/>
					
						<line fill="none" stroke="#FFFFFF" stroke-width="0.5" stroke-linecap="round" stroke-miterlimit="10" x1="802.7" y1="-12" x2="802.7" y2="32"/>
					<path fill="#B87332" d="M802.7,12.6L837.6-12v0.2"/>
				</g>
				<polyline fill="#FFFFFF" points="812.7,286.9 847.6,277.3 847.6,267.6 812.7,286.9 				"/>
			</g>
			
				<line fill="none" stroke="#FFFFFF" stroke-width="0.5" stroke-linecap="round" stroke-miterlimit="10" x1="847.6" y1="438" x2="847.6" y2="482"/>
		</g>
		<g>
			
				<line fill="none" stroke="#FFFFFF" stroke-width="0.5" stroke-linecap="round" stroke-miterlimit="10" x1="866" y1="267.6" x2="866" y2="311.5"/>
			<path fill="#B87332" d="M866,292.1l34.9-24.5v15.2"/>
			<g transform="translate(175,10)">
				<path fill="#FFFFFF" d="M691,276.9l34.9-19.4v12.1"/>
			</g>
			<g transform="translate(175,10)">
				
					<line fill="none" stroke="#FFFFFF" stroke-width="0.5" stroke-linecap="round" stroke-miterlimit="10" x1="725.9" y1="257.6" x2="725.9" y2="301.5"/>
				
					<line fill="none" stroke="#FFFFFF" stroke-width="0.5" stroke-linecap="round" stroke-miterlimit="10" x1="691" y1="314.4" x2="691" y2="358.3"/>
				<path fill="#B87332" d="M691,338.9l34.9-24.5v2.2"/>
			</g>
			<g transform="translate(175,230)">
				<path fill="#FFFFFF" d="M691,113.8l34.9-19.4v3.7"/>
			</g>
			<g transform="translate(175,230)">
				
					<line fill="none" stroke="#FFFFFF" stroke-width="0.5" stroke-linecap="round" stroke-miterlimit="10" x1="725.9" y1="94.4" x2="725.9" y2="138.3"/>
				
					<line fill="none" stroke="#FFFFFF" stroke-width="0.5" stroke-linecap="round" stroke-miterlimit="10" x1="691" y1="151.2" x2="691" y2="195.1"/>
				<path fill="#B87332" d="M691,175.8l34.9-24.5v4.1"/>
			</g>
			<g transform="translate(175,450)">
				<path fill="#FFFFFF" d="M691-49.4l34.9-19.4v2.9"/>
			</g>
			<g transform="translate(175,450)">
				
					<line fill="none" stroke="#FFFFFF" stroke-width="0.5" stroke-linecap="round" stroke-miterlimit="10" x1="725.9" y1="-68.8" x2="725.9" y2="-24.9"/>
				
					<line fill="none" stroke="#FFFFFF" stroke-width="0.5" stroke-linecap="round" stroke-miterlimit="10" x1="691" y1="-12" x2="691" y2="32"/>
				<path fill="#B87332" d="M691,12.6L725.9-12v0.9"/>
			</g>
			
				<line fill="none" stroke="#FFFFFF" stroke-width="0.5" stroke-linecap="round" stroke-miterlimit="10" x1="900.9" y1="438" x2="900.9" y2="482"/>
		</g>
		<g>
			
				<line fill="none" stroke="#FFFFFF" stroke-width="0.5" stroke-linecap="round" stroke-miterlimit="10" x1="919.4" y1="267.6" x2="919.4" y2="311.5"/>
			<path fill="#B87332" d="M919.4,292.1l34.9-24.5v18"/>
			<g transform="translate(340,10)">
				<path fill="#FFFFFF" d="M579.4,276.9l34.9-19.4V273"/>
			</g>
			<g transform="translate(340,10)">
				
					<line fill="none" stroke="#FFFFFF" stroke-width="0.5" stroke-linecap="round" stroke-miterlimit="10" x1="614.2" y1="257.6" x2="614.2" y2="301.5"/>
				
					<line fill="none" stroke="#FFFFFF" stroke-width="0.5" stroke-linecap="round" stroke-miterlimit="10" x1="579.4" y1="314.4" x2="579.4" y2="358.3"/>
				<path fill="#B87332" d="M579.4,338.9l34.9-24.5v8"/>
			</g>
			<g transform="translate(340,230)">
				<path fill="#FFFFFF" d="M579.4,113.8l34.9-19.4v0.8"/>
			</g>
			<g transform="translate(340,230)">
				
					<line fill="none" stroke="#FFFFFF" stroke-width="0.5" stroke-linecap="round" stroke-miterlimit="10" x1="614.2" y1="94.4" x2="614.2" y2="138.3"/>
				
					<line fill="none" stroke="#FFFFFF" stroke-width="0.5" stroke-linecap="round" stroke-miterlimit="10" x1="579.4" y1="151.2" x2="579.4" y2="195.1"/>
				<path fill="#B87332" d="M579.4,175.8l34.9-24.5v5"/>
			</g>
			<g transform="translate(340,450)">
				<path fill="#FFFFFF" d="M579.4-49.4l34.9-19.4v2.7"/>
			</g>
			<g transform="translate(340,450)">
				
					<line fill="none" stroke="#FFFFFF" stroke-width="0.5" stroke-linecap="round" stroke-miterlimit="10" x1="614.2" y1="-68.8" x2="614.2" y2="-24.9"/>
				
					<line fill="none" stroke="#FFFFFF" stroke-width="0.5" stroke-linecap="round" stroke-miterlimit="10" x1="579.4" y1="-12" x2="579.4" y2="32"/>
				<path fill="#B87332" d="M579.4,12.6L614.2-12v1.3"/>
			</g>
			
				<line fill="none" stroke="#FFFFFF" stroke-width="0.5" stroke-linecap="round" stroke-miterlimit="10" x1="954.2" y1="438" x2="954.2" y2="482"/>
		</g>
		<g>
			
				<line fill="none" stroke="#FFFFFF" stroke-width="0.5" stroke-linecap="round" stroke-miterlimit="10" x1="972.7" y1="267.6" x2="972.7" y2="311.5"/>
			<path fill="#B87332" d="M972.7,292.1l34.9-24.5v24"/>
			<g transform="translate(505,10)">
				<path fill="#FFFFFF" d="M467.7,276.9l34.9-19.4v20"/>
			</g>
			<g transform="translate(505,10)">
				
					<line fill="none" stroke="#FFFFFF" stroke-width="0.5" stroke-linecap="round" stroke-miterlimit="10" x1="502.6" y1="257.6" x2="502.6" y2="301.5"/>
				
					<line fill="none" stroke="#FFFFFF" stroke-width="0.5" stroke-linecap="round" stroke-miterlimit="10" x1="467.7" y1="314.4" x2="467.7" y2="358.3"/>
				<path fill="#B87332" d="M467.7,338.9l34.9-24.5v14"/>
			</g>
			<g transform="translate(505,230)">
				<path fill="#FFFFFF" d="M467.7,113.8l34.9-19.4v3.4"/>
			</g>
			<g transform="translate(505,230)">
				
					<line fill="none" stroke="#FFFFFF" stroke-width="0.5" stroke-linecap="round" stroke-miterlimit="10" x1="502.6" y1="94.4" x2="502.6" y2="138.3"/>
				
					<line fill="none" stroke="#FFFFFF" stroke-width="0.5" stroke-linecap="round" stroke-miterlimit="10" x1="467.7" y1="151.2" x2="467.7" y2="195.1"/>
				<path fill="#B87332" d="M467.7,175.8l34.9-24.5v7.3"/>
			</g>
			<g transform="translate(505,450)">
				<path fill="#FFFFFF" d="M467.7-49.4l34.9-19.4v1.6"/>
			</g>
			<g transform="translate(505,450)">
				
					<line fill="none" stroke="#FFFFFF" stroke-width="0.5" stroke-linecap="round" stroke-miterlimit="10" x1="502.6" y1="-68.8" x2="502.6" y2="-24.9"/>
				
					<line fill="none" stroke="#FFFFFF" stroke-width="0.5" stroke-linecap="round" stroke-miterlimit="10" x1="467.7" y1="-12" x2="467.7" y2="32"/>
				<path fill="#B87332" d="M467.7,12.6L502.6-12v4.8"/>
			</g>
			
				<line fill="none" stroke="#FFFFFF" stroke-width="0.5" stroke-linecap="round" stroke-miterlimit="10" x1="1007.6" y1="438" x2="1007.6" y2="482"/>
		</g>
		<g>
			
				<line fill="none" stroke="#FFFFFF" stroke-width="0.5" stroke-linecap="round" stroke-miterlimit="10" x1="1026" y1="267.6" x2="1026" y2="311.5"/>
			<path fill="#B87332" d="M1026,292.1l34.9-24.5v30.3"/>
			<g transform="translate(670,10)">
				<path fill="#FFFFFF" d="M356,276.9l34.9-19.4v23.3"/>
			</g>
			<g transform="translate(670,10)">
				
					<line fill="none" stroke="#FFFFFF" stroke-width="0.5" stroke-linecap="round" stroke-miterlimit="10" x1="390.9" y1="257.6" x2="390.9" y2="301.5"/>
				
					<line fill="none" stroke="#FFFFFF" stroke-width="0.5" stroke-linecap="round" stroke-miterlimit="10" x1="356" y1="314.4" x2="356" y2="358.3"/>
				<path fill="#B87332" d="M356,338.9l34.9-24.5v15.1"/>
			</g>
			<g transform="translate(670,230)">
				<path fill="#FFFFFF" d="M356,113.8l34.9-19.4v4.4"/>
			</g>
			<g transform="translate(670,230)">
				
					<line fill="none" stroke="#FFFFFF" stroke-width="0.5" stroke-linecap="round" stroke-miterlimit="10" x1="390.9" y1="94.4" x2="390.9" y2="138.3"/>
				
					<line fill="none" stroke="#FFFFFF" stroke-width="0.5" stroke-linecap="round" stroke-miterlimit="10" x1="356" y1="151.2" x2="356" y2="195.1"/>
				<path fill="#B87332" d="M356,175.8l34.9-24.5v10.4"/>
			</g>
			<g transform="translate(670,450)">
				<path fill="#FFFFFF" d="M356-49.4l34.9-19.4v3.2"/>
			</g>
			<g transform="translate(670,450)">
				
					<line fill="none" stroke="#FFFFFF" stroke-width="0.5" stroke-linecap="round" stroke-miterlimit="10" x1="390.9" y1="-68.8" x2="390.9" y2="-24.9"/>
				
					<line fill="none" stroke="#FFFFFF" stroke-width="0.5" stroke-linecap="round" stroke-miterlimit="10" x1="356" y1="-12" x2="356" y2="32"/>
				<path fill="#B87332" d="M356,12.6L390.9-12v7.2"/>
			</g>
			
				<line fill="none" stroke="#FFFFFF" stroke-width="0.5" stroke-linecap="round" stroke-miterlimit="10" x1="1060.9" y1="438" x2="1060.9" y2="482"/>
		</g>
		<g>
			
				<line fill="none" stroke="#FFFFFF" stroke-width="0.5" stroke-linecap="round" stroke-miterlimit="10" x1="1079.4" y1="267.6" x2="1079.4" y2="311.5"/>
			<path fill="#B87332" d="M1079.4,292.1l34.9-24.5v39.3"/>
			<g transform="translate(835,10)">
				<path fill="#FFFFFF" d="M244.4,276.9l34.9-19.4v26.5"/>
			</g>
			<g transform="translate(835,10)">
				
					<line fill="none" stroke="#FFFFFF" stroke-width="0.5" stroke-linecap="round" stroke-miterlimit="10" x1="279.2" y1="257.6" x2="279.2" y2="301.5"/>
				
					<line fill="none" stroke="#FFFFFF" stroke-width="0.5" stroke-linecap="round" stroke-miterlimit="10" x1="244.4" y1="314.4" x2="244.4" y2="358.3"/>
				<path fill="#B87332" d="M244.4,338.9l34.9-24.5v18.5"/>
			</g>
			<g transform="translate(835,230)">
				<path fill="#FFFFFF" d="M244.4,113.8l34.9-19.4v5.2"/>
			</g>
			<g transform="translate(835,230)">
				
					<line fill="none" stroke="#FFFFFF" stroke-width="0.5" stroke-linecap="round" stroke-miterlimit="10" x1="279.2" y1="94.4" x2="279.2" y2="138.3"/>
				
					<line fill="none" stroke="#FFFFFF" stroke-width="0.5" stroke-linecap="round" stroke-miterlimit="10" x1="244.4" y1="151.2" x2="244.4" y2="195.1"/>
				<path fill="#B87332" d="M244.4,175.8l34.9-24.5v12.9"/>
			</g>
			<g transform="translate(835,450)">
				<path fill="#FFFFFF" d="M244.4-49.4l34.9-19.4v3.7"/>
			</g>
			<g transform="translate(835,450)">
				
					<line fill="none" stroke="#FFFFFF" stroke-width="0.5" stroke-linecap="round" stroke-miterlimit="10" x1="279.2" y1="-68.8" x2="279.2" y2="-24.9"/>
				
					<line fill="none" stroke="#FFFFFF" stroke-width="0.5" stroke-linecap="round" stroke-miterlimit="10" x1="244.4" y1="-12" x2="244.4" y2="32"/>
				<path fill="#B87332" d="M244.4,12.6L279.2-12v8.8"/>
			</g>
			<g transform="translate(835,670)">
				
					<line fill="none" stroke="#FFFFFF" stroke-width="0.5" stroke-linecap="round" stroke-miterlimit="10" x1="279.2" y1="-232" x2="279.2" y2="-188"/>
			</g>
		</g>
	</g>
</g>
<g id="baseline" display="none">
	<g display="inline">
		<g>
			<path fill="#FFFFFF" d="M1027.6,427.9c0,0-1.8,0.1-5.3,0.3c-3.4,0.2-8.5,0.4-14.9,0.4c-6.4,0-14.2-0.1-23.2-0.2
				c-8.9-0.1-19-0.1-30,0.4c-5.5,0.2-11.2,0.4-17.2,0.7c-1.5,0.1-3,0.1-4.5,0.1c-1.6,0-3.1,0-4.6-0.1c-3.1-0.1-6.2-0.3-9.3-0.5
				c-1.6-0.1-3.1-0.1-4.7-0.1c-1.6,0-3.2,0.1-4.8,0.1c-3.2,0.1-6.5,0.1-9.8,0.2c-6.6,0.1-13.4,0.2-20.3,0.3c-3.4,0-6.9,0.1-10.4,0.1
				c-3.5,0.1-7,0.2-10.5,0.3c-7.1,0.2-14.3,0.3-21.6,0c-1.8-0.1-3.7-0.2-5.5-0.3c-1.8-0.1-3.6-0.2-5.4-0.2c-3.6-0.1-7.2,0-10.9,0.1
				c-3.6,0.1-7.3,0.2-11,0.2c-3.6,0-7.2,0.2-10.9,0.5c-3.7,0.2-7.4,0.5-11.1,0.5c-0.9,0-1.9,0-2.8,0l-2.7,0c-1.8,0-3.6,0-5.4,0.1
				c-3.6,0.1-7.3,0.3-11,0.4c-3.8,0-7.3-0.2-10.9-0.2c-7.2-0.1-14.3,0-21.4,0.2c-7.1,0.1-14.1,0.2-21,0.1
				c-6.9-0.1-13.7-0.2-20.3-0.4c-6.6-0.2-13.1-0.2-19.5-0.7c-3.2-0.3-6.2-0.6-9.3-0.8c-3-0.2-6-0.3-9-0.3c-2.9,0-5.8,0-8.7,0.1
				c-2.9,0.1-5.7,0.3-8.4,0.4c-1.4,0.1-2.7,0.1-4.1,0.2c-1.4,0-2.7,0-4.1,0c-2.7-0.1-5.3-0.3-7.8-0.6c-2.5-0.3-5-0.8-7.3-1.1
				c-2.2-0.3-4.5-0.4-6.7-0.3c-2.2,0-4.4,0.2-6.5,0.2c-2.1,0-4.1,0.1-6,0.1c-3.9,0.1-7.4,0.2-10.6,0.2c-6.4,0.2-11.5,0.2-14.9,0.3
				c-3.4,0.1-5.3,0.1-5.3,0.1s1.8-0.1,5.3-0.3c3.4-0.2,8.5-0.6,14.9-0.9c3.2-0.2,6.8-0.4,10.6-0.6c1.9-0.1,3.9-0.2,6-0.3
				c2.1-0.1,4.2-0.3,6.5-0.4c2.3-0.1,4.6-0.2,7.1,0.1c2.4,0.3,4.7,0.7,7.2,0.9c2.5,0.2,5,0.3,7.6,0.3c1.3,0,2.6,0,3.9-0.1
				c1.3-0.1,2.7-0.2,4.1-0.3c2.7-0.2,5.5-0.4,8.4-0.6c2.9-0.2,5.8-0.3,8.8-0.4c3,0,6,0,9.1,0.2c3.1,0.1,6.3,0.4,9.3,0.6
				c6.2,0.4,12.7,0.2,19.3,0.3c6.6,0.1,13.4,0.2,20.2,0.2c6.9,0,13.8-0.1,20.9-0.3c3.5-0.1,7.1-0.3,10.7-0.3c3.6-0.1,7.2-0.1,10.8,0
				c3.6,0,7.3,0.2,10.8,0.1c3.6,0,7.2-0.3,10.9-0.4c1.8-0.1,3.7-0.1,5.6-0.1l2.8,0c0.9,0,1.8,0,2.7,0c3.6,0,7.2-0.3,10.9-0.5
				c3.6-0.2,7.4-0.4,11.1-0.4c3.6,0,7.3-0.1,11-0.2c3.7-0.1,7.3-0.1,11,0c1.8,0,3.7,0.1,5.5,0.2c1.8,0.1,3.6,0.2,5.4,0.3
				c14.3,0.6,28.5-0.1,42.3,0c6.9,0,13.7,0,20.3,0c3.3,0,6.6,0,9.8,0c1.6,0,3.2,0,4.8,0c1.6,0,3.3,0.1,4.8,0.2
				c3.1,0.2,6.3,0.4,9.3,0.6c1.5,0.1,3,0.1,4.5,0.2c1.5,0,3,0,4.5,0c5.9-0.1,11.7-0.2,17.2-0.3c11-0.3,21.2,0.1,30.1,0.5
				c8.9,0.4,16.7,0.8,23.1,1c6.4,0.2,11.5,0.3,14.9,0.2C1025.7,428,1027.6,427.9,1027.6,427.9z"/>
		</g>
		<g>
			<path fill="#FFFFFF" d="M1324.3,427.9c0,0-1.3,0.1-3.7,0.3c-2.4,0.2-5.9,0.4-10.4,0.6c-9,0.4-21.8,0.7-37.2,0.7
				c-7.7,0-16,0-24.8,0.1c-4.4,0.1-8.9,0.1-13.5,0.3c-2.3,0.1-4.6,0.2-7.1,0.2c-2.4,0-4.8-0.2-7.2-0.3c-2.4-0.1-4.8-0.3-7.2-0.3
				c-1.2,0-2.4,0-3.6,0c-1.2,0-2.5,0-3.7,0.1c-4.9,0.1-10,0.1-15,0.2c-5.1,0.1-10.1,0.1-15.3,0.2c-5.1,0-10.2,0-15.4,0.1
				c-10.3,0-20.5,0-30.6,0c-10.1,0-20-0.1-29.6-0.1c-9.6,0-18.9-0.1-27.7-0.1c-8.8,0-17.1,0-24.8,0c-7.6,0.1-14.7,0.4-21,0.3
				c-3.1,0-6.1-0.1-8.8-0.4c-2.7-0.2-5.1-0.5-7.4-0.5c-2.2,0-4.2,0-6,0.1c-1.7,0-3.3,0-4.4-0.2c-2.4-0.3-3.7-0.3-3.7-0.3
				s1.3,0,3.7,0.1c1.2,0.1,2.7,0,4.4-0.1c1.7-0.1,3.7-0.3,6-0.4c2.3-0.2,4.8,0,7.5,0.1c2.7,0.1,5.6,0.1,8.7,0
				c6.2-0.2,13.2-0.8,21-1.2c7.7-0.3,16-0.5,24.8-0.8c8.8-0.3,18.1-0.4,27.7-0.5c9.6-0.1,19.6-0.3,29.6-0.3
				c10.1,0,20.3-0.1,30.6-0.1c5.1,0,10.3,0,15.4,0c5.1,0,10.2-0.1,15.2-0.1c5,0,10.1,0,15-0.1c1.2,0,2.5,0,3.7,0
				c1.2,0,2.5,0,3.8,0.1c2.5,0.1,4.9,0.3,7.3,0.4c2.4,0.2,4.7,0.3,7,0.4c2.2,0.1,4.6,0,6.9,0c4.6,0,9.2,0,13.6,0
				c8.8,0.1,17.2,0.4,24.8,0.6c7.7,0.3,14.7,0.5,21,0.7c6.2,0.2,11.7,0.3,16.2,0.3c4.5,0,8,0.1,10.4,0
				C1323,427.9,1324.3,427.9,1324.3,427.9z"/>
		</g>
		<g>
			<path fill="#FFFFFF" d="M1553.6,427.9c0,0-1.3,0.1-3.7,0.3c-2.4,0.1-5.9,0.4-10.4,0.5c-4.5,0.1-9.9,0.2-16.2,0.2
				c-6.2,0-13.3-0.1-21-0.1c-7.7,0-15.9,0.2-24.8,0.6c-4.4,0.2-8.9,0.4-13.6,0.5c-2.3,0.1-4.6,0.2-7.1,0.2c-2.4,0-4.8-0.2-7.2-0.3
				c-2.4-0.1-4.8-0.3-7.2-0.3c-2.4-0.1-4.8,0-7.3,0.1c-4.9,0.1-10,0.1-15,0.2c-5,0-10.1,0.1-15.2,0.2c-5.1,0-10.2,0.1-15.3,0.2
				c-10.2,0.2-20.6,0.4-30.8-0.2c-9.9-0.7-19.8-0.2-29.5-0.2c-4.7,0-9.4,0.4-14.1,0.5c-2.3,0.1-4.6,0.2-6.9,0.2
				c-1.1,0-2.3,0-3.4-0.1c-1.1,0-2.2-0.1-3.3-0.1c-4.3,0-8.6,0.2-12.8,0.3c-2.1,0-4.2,0-6.2-0.1c-2-0.1-4-0.1-5.9-0.2
				c-7.7-0.2-14.7-0.4-20.9-0.2c-6.3,0.1-11.7,0.2-16.2,0.2c-2.3,0-4.3-0.3-6-0.5c-1.7-0.2-3.2-0.4-4.4-0.6
				c-2.4-0.3-3.7-0.3-3.7-0.3s1.3-0.1,3.7,0.1c1.2,0.1,2.7,0.2,4.4,0.3c1.7,0.1,3.7,0.2,5.9,0.2c4.5-0.3,9.9-0.7,16.2-1.1
				c6.2-0.4,13.3-0.6,21-0.6c1.9,0,3.9,0,5.9,0c2,0,4-0.1,6-0.1c4.1-0.2,8.4-0.5,12.9-0.6c1.1,0,2.3,0,3.4,0c1.1,0,2.2,0,3.3,0
				c2.2-0.1,4.5-0.2,6.8-0.3c4.6-0.3,9.3-0.7,14.2-0.8c9.5-0.1,19.5-0.9,29.8-0.2c10,0.6,20.2,0.3,30.4,0.1
				c5.1-0.1,10.3-0.1,15.4-0.1c5.1,0,10.2,0,15.2-0.1c5,0,10.1,0,15,0c2.5,0,4.9,0,7.4,0.1c2.5,0.1,4.9,0.3,7.3,0.4
				c2.4,0.2,4.7,0.3,7.1,0.4c2.2,0.1,4.6,0,6.9,0c4.6-0.1,9.2-0.1,13.6-0.2c4.4-0.1,8.7-0.2,12.9-0.1c4.2,0,8.2,0.2,12,0.3
				c7.7,0.3,14.7,0.7,21,1c6.2,0.3,11.7,0.5,16.2,0.6c4.5,0.1,8,0.2,10.4,0.2C1552.3,427.9,1553.6,427.9,1553.6,427.9z"/>
		</g>
		<g>
			<path fill="#FFFFFF" d="M1850.3,427.9c0,0-1.3,0.1-3.7,0.3c-2.4,0.2-5.9,0.4-10.4,0.6c-9,0.4-21.8,0.7-37.2,0.7
				c-7.7,0-16,0-24.8,0.1c-4.4,0.1-8.9,0.1-13.5,0.3c-2.3,0.1-4.6,0.2-7.1,0.2c-2.4,0-4.8-0.2-7.2-0.3c-2.4-0.1-4.8-0.3-7.2-0.3
				c-1.2,0-2.4,0-3.6,0c-1.2,0-2.5,0-3.7,0.1c-4.9,0.1-10,0.1-15,0.2c-5.1,0.1-10.1,0.1-15.3,0.2c-5.1,0-10.2,0-15.4,0.1
				c-10.3,0-20.5,0-30.6,0c-10.1,0-20-0.1-29.6-0.1c-9.6,0-18.9-0.1-27.7-0.1c-8.8,0-17.1,0-24.8,0c-7.6,0.1-14.7,0.4-21,0.3
				c-3.1,0-6.1-0.1-8.8-0.4c-2.7-0.2-5.1-0.5-7.4-0.5c-2.2,0-4.2,0-6,0.1c-1.7,0-3.3,0-4.4-0.2c-2.4-0.3-3.7-0.3-3.7-0.3
				s1.3,0,3.7,0.1c1.2,0.1,2.7,0,4.4-0.1c1.7-0.1,3.7-0.3,6-0.4c2.3-0.2,4.8,0,7.5,0.1c2.7,0.1,5.6,0.1,8.7,0
				c6.2-0.2,13.2-0.8,21-1.2c7.7-0.3,16-0.5,24.8-0.8c8.8-0.3,18.1-0.4,27.7-0.5c9.6-0.1,19.6-0.3,29.6-0.3
				c10.1,0,20.3-0.1,30.6-0.1c5.1,0,10.3,0,15.4,0c5.1,0,10.2-0.1,15.2-0.1c5,0,10.1,0,15-0.1c1.2,0,2.5,0,3.7,0
				c1.2,0,2.5,0,3.8,0.1c2.5,0.1,4.9,0.3,7.3,0.4c2.4,0.2,4.7,0.3,7,0.4c2.2,0.1,4.6,0,6.9,0c4.6,0,9.2,0,13.6,0
				c8.8,0.1,17.2,0.4,24.8,0.6c7.7,0.3,14.7,0.5,21,0.7c6.2,0.2,11.7,0.3,16.2,0.3c4.5,0,8,0.1,10.4,0
				C1849,427.9,1850.3,427.9,1850.3,427.9z"/>
		</g>
		<g>
			<path fill="#FFFFFF" d="M2097.7,427.9c0,0-1.3,0.1-3.7,0.3c-2.4,0.1-5.9,0.4-10.4,0.5c-4.5,0.1-9.9,0.2-16.2,0.2
				c-6.2,0-13.3-0.1-21-0.1c-7.7,0-15.9,0.2-24.8,0.6c-4.4,0.2-8.9,0.4-13.6,0.5c-2.3,0.1-4.6,0.2-7.1,0.2c-2.4,0-4.8-0.2-7.2-0.3
				c-2.4-0.1-4.8-0.3-7.2-0.3c-2.4-0.1-4.8,0-7.3,0.1c-4.9,0.1-10,0.1-15,0.2c-5,0-10.1,0.1-15.2,0.2c-5.1,0-10.2,0.1-15.3,0.2
				c-10.2,0.2-20.6,0.4-30.8-0.2c-9.9-0.7-19.8-0.2-29.5-0.2c-4.7,0-9.4,0.4-14.1,0.5c-2.3,0.1-4.6,0.2-6.9,0.2
				c-1.1,0-2.3,0-3.4-0.1c-1.1,0-2.2-0.1-3.3-0.1c-4.3,0-8.6,0.2-12.8,0.3c-2.1,0-4.2,0-6.2-0.1c-2-0.1-4-0.1-5.9-0.2
				c-7.7-0.2-14.7-0.4-20.9-0.2c-6.3,0.1-11.7,0.2-16.2,0.2c-2.3,0-4.3-0.3-6-0.5c-1.7-0.2-3.2-0.4-4.4-0.6
				c-2.4-0.3-3.7-0.3-3.7-0.3s1.3-0.1,3.7,0.1c1.2,0.1,2.7,0.2,4.4,0.3c1.7,0.1,3.7,0.2,5.9,0.2c4.5-0.3,9.9-0.7,16.2-1.1
				c6.2-0.4,13.3-0.6,21-0.6c1.9,0,3.9,0,5.9,0c2,0,4-0.1,6-0.1c4.1-0.2,8.4-0.5,12.9-0.6c1.1,0,2.3,0,3.4,0c1.1,0,2.2,0,3.3,0
				c2.2-0.1,4.5-0.2,6.8-0.3c4.6-0.3,9.3-0.7,14.2-0.8c9.5-0.1,19.5-0.9,29.8-0.2c10,0.6,20.2,0.3,30.4,0.1
				c5.1-0.1,10.3-0.1,15.4-0.1c5.1,0,10.2,0,15.2-0.1c5,0,10.1,0,15,0c2.5,0,4.9,0,7.4,0.1c2.5,0.1,4.9,0.3,7.3,0.4
				c2.4,0.2,4.7,0.3,7.1,0.4c2.2,0.1,4.6,0,6.9,0c4.6-0.1,9.2-0.1,13.6-0.2c4.4-0.1,8.7-0.2,12.9-0.1c4.2,0,8.2,0.2,12,0.3
				c7.7,0.3,14.7,0.7,21,1c6.2,0.3,11.7,0.5,16.2,0.6c4.5,0.1,8,0.2,10.4,0.2C2096.4,427.9,2097.7,427.9,2097.7,427.9z"/>
		</g>
	</g>
	<g display="inline">
		<path fill="#FFFFFF" d="M4538.8,432.7c0,0,7.3,0,21-0.1c13.7,0,33.7,0.1,59.2,0.3c25.5,0.1,56.5,0.3,92-1
			c17.7-0.7,36.7-1.6,56.6-2c19.9-0.4,41-0.3,62.8,0.4c21.9,0.6,44.6,1.2,68.1,0.7c5.9-0.1,11.8-0.4,17.8-0.6c3-0.2,6-0.3,9-0.5
			c1.5-0.1,3-0.2,4.5-0.3c1.5-0.1,3-0.2,4.6-0.3c12.3-0.6,24.8,0.1,37.3,0.7c6.2,0.3,12.5,0.5,18.8,0.5c6.3,0,12.7,0,19.2-0.1
			c12.9,0,25.9-0.1,39-0.1c26.3-0.1,53.2-0.1,80.6-0.2c27.3,0,55.1-0.1,83.3-0.1c14.2,0,28.4,1.2,42.4,1.2
			c14.2-0.1,28.5-0.3,42.9-0.4c28.7-0.3,57.6-0.5,86.7-0.8c3.6,0,7.3-0.1,10.9-0.1c3.7,0,7.3,0,10.9,0c7.3,0,14.6,0,21.8,0
			c14.6,0,29.2,0,43.7,0c58.3,0,116.7,0.1,174.1,0.1c14.4,0,28.7,0,42.9,0c7.1-0.1,14.2-0.1,21.3-0.2l5.3-0.1c1.8,0,3.6,0,5.4,0.1
			c3.6,0.2,7.2,0.5,10.7,0.9l2.6,0.3l1.3,0.2l0.6,0.1l0.7,0.1c0.9,0.1,1.8,0.2,2.6,0.2c0.8,0,1.6,0.1,2.5,0.1
			c3.4,0.1,6.8-0.1,10.2-0.4c6.9-0.6,13.9-1.5,21.1-1.6c0.9,0,1.8,0,2.7,0l0.7,0l0.7,0l1.3,0.1l5.2,0.4c3.5,0.3,6.8,0.5,10.2,0.5
			c1.7,0,3.3-0.1,4.9-0.2l1.2-0.1l1.3-0.1c1-0.1,1.9-0.1,2.9-0.1c3.7,0,7.1,0.5,10.3,0.5c13.7,0,27.2-0.1,40.7-0.1
			c6.7,0,13.4,0,20-0.1c6.6,0,13.3,0,19.8,0.1c3.3,0,6.6,0,9.8,0c3.2,0,6.6,0,9.9,0.2c6.6,0.3,13,0.9,19.3,1.1c1.6,0,3.2,0,4.7,0
			c1.5,0,3.1-0.2,4.6-0.4c3.1-0.3,6.2-0.9,9.6-1.1c1.6-0.1,3.2-0.2,4.7-0.3l2.4-0.1l2.4-0.1c3.2-0.1,6.3-0.2,9.5-0.1
			c3.2,0.1,6.4,0.2,9.6,0.6c0.8,0.1,1.6,0.2,2.3,0.3c0.4,0.1,0.7,0.1,1,0.1c0.4,0,0.7,0.1,1.1,0.1c1.5,0.1,2.9,0.1,4.5,0.1
			c1.5,0,3.1-0.1,4.7-0.1c1.5,0,3.1,0,4.6,0c3.1,0,6.1,0,9.2,0c12.2,0,24.2,0.1,36,0.1c11.8,0,23.4,0.1,34.8,0.1c2.9,0,5.7,0,8.5,0
			c2.8,0,5.6-0.1,8.5,0c5.7,0.1,11.2,0.8,16.5,0.7c10.8-0.2,21.5-1.3,32.1-1.1c5.4,0.2,10.5,1,15.5,1.1c1.2,0,2.5,0,3.7-0.1l1.9-0.2
			c0.6-0.1,1.3-0.1,1.9-0.2c2.6-0.2,5.1-0.2,7.6-0.2c5,0,9.9,0.3,14.8,0.3c4.9,0,9.6,0.1,14.4,0.1c9.4,0.1,18.6,0.1,27.5,0.2
			c8.9,0.1,17.5,0.3,25.7-0.1c8.3-0.3,16.3-0.7,24.1,0c1.9,0.1,3.9,0.5,5.7,0.6c1.8,0.1,3.7,0.1,5.5,0c3.7-0.1,7.3,0,10.8,0
			c7,0,13.8,0.1,20.2,0.1c51,0.4,80.2,0.6,80.2,0.6s-29.2,0.2-80.2,0.6c-6.4,0-13.1,0.1-20.2,0.1c-3.5,0-7.1,0-10.8,0.2
			c-1.8,0.1-3.7,0.1-5.7,0.1c-2-0.1-3.8-0.4-5.7-0.5c-7.6-0.5-15.6-0.1-23.9,0.3c-8.3,0.5-17,0.4-25.8,0.4c-8.9,0-18.1,0.1-27.5,0.1
			c-4.7,0-9.5,0.1-14.4,0.1c-4.9,0-9.8-0.2-14.7-0.2c-2.5,0-5,0.1-7.4,0.3c-0.6,0-1.2,0.1-1.9,0.2l-1.9,0.2c-1.3,0.1-2.6,0.1-4,0.1
			c-5.2-0.1-10.4-0.9-15.5-1c-10.3-0.2-21,1.1-32,1.3c-5.6,0.1-11.2-0.5-16.6-0.5c-2.8,0-5.5,0-8.4,0.1c-2.8,0.1-5.7,0-8.5,0.1
			c-11.4,0-23,0.1-34.8,0.1c-11.8,0-23.8,0.1-36,0.1c-3,0-6.1,0-9.2,0c-1.5,0-3.1,0-4.6,0c-1.5,0-3,0.1-4.6,0.1
			c-1.6,0-3.2,0.1-4.8,0c-0.4,0-0.8-0.1-1.2-0.1c-0.4,0-0.9-0.1-1.3-0.1c-0.8-0.1-1.5-0.2-2.3-0.3c-3-0.4-6-0.5-9.1-0.6
			c-3.1,0-6.2,0.1-9.3,0.2l-2.3,0.1l-2.4,0.2c-1.6,0.1-3.2,0.2-4.7,0.3c-3,0.2-6.2,0.8-9.4,1.2c-1.6,0.2-3.3,0.3-5,0.4
			c-1.7,0.1-3.3,0.1-4.9,0c-6.6-0.1-13-0.7-19.4-0.9c-3.2-0.2-6.4-0.1-9.7-0.1c-3.3,0-6.6,0-9.8,0c-26.3,0-53.2,0.3-80.6,0.4
			c-3.7,0-7.1-0.5-10.3-0.5c-0.8,0-1.5,0-2.3,0.1l-1.3,0.1c-0.5,0.1-0.9,0.1-1.4,0.1c-1.8,0.2-3.6,0.2-5.4,0.2
			c-3.5,0-7.1-0.2-10.5-0.4l-5.2-0.4l-1.3-0.1l-0.6,0l-0.6,0c-0.8,0-1.7-0.1-2.5,0c-6.7,0-13.6,1-20.6,1.6
			c-3.5,0.3-7.1,0.5-10.8,0.5c-1.8,0-3.8-0.1-5.5-0.3l-0.7-0.1l-0.7-0.1l-1.3-0.1l-2.6-0.3c-3.5-0.4-6.9-0.7-10.4-0.8
			c-1.7-0.1-3.4-0.1-5.1-0.1l-5.3,0.1c-7.1,0.1-14.2,0.2-21.3,0.3c-14.2,0-28.5,0-42.9,0.1c-57.4,0-115.8,0.1-174.1,0.1
			c-14.6,0-29.2,0-43.7,0c-7.3,0-14.6,0-21.8,0c-3.6,0-7.3,0-10.9,0c-3.6,0-7.3,0.1-10.9,0.1c-29.1,0.2-58,0.5-86.7,0.7
			c-14.4,0.1-28.7,0.2-42.9,0.3c-14.4,0-28.5-1.3-42.4-1.3c-28.1-0.1-55.9-0.1-83.3-0.1c-27.3-0.1-54.2-0.1-80.6-0.2
			c-13.2,0-26.2-0.1-39-0.1c-6.4,0-12.8,0-19.2-0.1c-6.4,0-12.7-0.3-19-0.6c-12.5-0.7-24.8-1.5-36.8-1c-1.5,0-3,0.2-4.5,0.2
			c-1.5,0.1-3,0.2-4.5,0.3c-3,0.2-6,0.3-9,0.5c-6,0.2-12,0.4-17.9,0.5c-23.6,0.4-46.5-0.4-68.3-1.2c-43.7-1.7-83.7-0.7-119.3,0.4
			c-35.6,0.9-66.6,0.3-92.1-0.1c-25.5-0.5-45.6-0.8-59.2-1.1C4546.1,432.8,4538.8,432.7,4538.8,432.7z"/>
	</g>
	<g display="inline">
		<path fill="#FFFFFF" d="M6862.9,433.9c0,0,33.4-0.2,91.8-0.6c3.7,0,7.4,0,11.2-0.1c3.9,0,7.8,0.2,11.8,0.2c2,0,4-0.1,6.1-0.2
			c2-0.2,4.1-0.4,6.1-0.8c4.1-0.7,8.4-1.5,12.9-1.7c9-0.2,18,1.3,27.5,2.3c4.7,0.5,9.5,0.9,14.4,0.8c1.2,0,2.4-0.1,3.6-0.2
			c1.2-0.1,2.4-0.2,3.7-0.3c2.5-0.2,5.1-0.4,7.6-0.4c40.7-0.4,86.6-0.5,136.7-0.6c25-0.1,51.1-0.2,78.1-0.2
			c13.5,0,27.2-0.1,41.2-0.1c14-0.1,28.1,0.2,42.3-0.6c1.8-0.1,3.6-0.2,5.3-0.4c1.8-0.2,3.6-0.3,5.4-0.5l1.4-0.1l1.4-0.1
			c1-0.1,1.9,0,2.8,0c1.9,0.1,3.7,0.2,5.6,0.3c7.4,0.7,14.6,2.1,21.5,1.9c7.1-0.2,14.2-2,22.1-2.4c3.9-0.2,7.8,0.3,11.5,0.8
			c1.9,0.2,3.7,0.4,5.5,0.6c1.8,0.1,3.5,0.1,5.5,0.1c15.1,0,30.3-0.1,45.7-0.1l2.9,0c1,0,1.9,0,2.8-0.1c1.9-0.1,3.8-0.2,5.7-0.3
			c3.8-0.2,7.8-0.5,11.8-0.4c2,0,4,0.1,6,0.3c2,0.2,4.1,0.5,6,0.8c1.9,0.4,3.8,0.7,5.7,1l0.6,0.1l0.7,0.1l1.5,0.2
			c0.9,0.1,1.8,0.2,2.8,0.2c7.5,0.4,15.2-0.6,23-1.6c3.9-0.5,7.9-1,11.9-1.3c4-0.3,8-0.6,12.1-0.6c4.1,0,8.2,0.1,12.3,0.6
			c2.1,0.3,4,0.5,5.9,0.7c1.9,0.2,3.9,0.2,5.8,0.3c3.9,0.1,7.9,0,11.9-0.1c4.1-0.1,8.1,0,12.1,0c16.2,0.2,32.3,0.8,48.4,0.2
			c4-0.1,8.1-0.4,12.1-0.7c4-0.3,8.1-0.8,12.2-1.2c2.1-0.2,4.1-0.3,6.3-0.4l1.6-0.1c0.5,0,1,0,1.6,0c1.2,0,2.2,0.1,3.3,0.2
			c4.3,0.4,8.4,1.2,12.3,1.6c0.5,0,1,0.1,1.5,0.1l0.7,0.1l0.8,0c1,0.1,2,0.1,3,0.1c2,0.1,4,0.1,6.1,0.1c4.1,0,8.1-0.2,12.3-0.3
			c4.1-0.1,8.2-0.4,12.6-0.3c4.3,0.1,8.5,0.5,12.6,1c4.1,0.5,8.2,1,12.3,1.5l3,0.3l3.1,0.3c2,0.2,4.1,0.3,6.1,0.4
			c8.2,0.4,16.4,0.4,24.6,0c2.1-0.1,4.1-0.2,6.2-0.4c1-0.1,2.1-0.1,3-0.2c0.6,0,0.9-0.1,1.4-0.2c0.5-0.1,0.9-0.2,1.4-0.3
			c1.9-0.4,3.9-0.9,6-1.4c1.1-0.2,2.2-0.5,3.3-0.6c1.1-0.2,2.4-0.2,3.4-0.3c4.3-0.2,8.5-0.1,12.7-0.1c4.2,0.1,8.3,0.1,12.5,0.1
			c16.7,0,33.4,0,50.1,0l25,0l12.5,0c4.2,0,8.3,0,12.6,0.1c8.4,0.1,16.7,0.5,24.9,0.3c8.3-0.3,16.6-0.6,24.9-0.9
			c4.2-0.2,8.3-0.3,12.5-0.5c4.1-0.1,8.3-0.3,12.5-0.4c2.1,0,4.2,0,6.5,0.2c2.2,0.2,4.3,0.5,6.4,0.8c2,0.3,4,0.6,5.9,0.8
			c0.9,0.1,2,0.1,3,0.1c1,0,2,0,3,0.1c8.1,0.1,16.4-0.5,24.8-0.5c8.2,0,16.5,0,24.7,0c8.2,0,16.4,0,24.6,0c4.1,0,8.2,0,12.3,0l6.1,0
			c2.1,0,4.1,0.1,6.2,0.2c8.2,0.4,16.2,1,24.2,0.8c7.9-0.2,15.9-1.3,24.1-1.7c2.1-0.1,4.1-0.1,6.2,0c2.1,0.1,4.1,0.2,6.1,0.3
			c4,0.2,8,0.3,12,0.4c8,0.2,15.9,0.2,23.9,0.2c15.9,0,31.7,0.1,47.3,0.1c7.8,0,15.6,0,23.4,0c7.8,0,15.5,0.1,23.1,0
			c15.3-0.2,30.5-0.6,45.5-1.5c3.7-0.3,7.6-0.7,11.6-0.4c1,0.1,2,0.2,3,0.4c1,0.2,2,0.4,2.8,0.6c1.7,0.4,3.5,0.6,5.2,0.8
			c3.6,0.3,7.2,0.3,10.9,0.3c3.7,0,7.4,0.1,11.1,0.2c7.4,0.2,14.7,0.4,21.9,0.4c1.8,0,3.6,0,5.4,0l1.3,0l0.6,0l0.7,0
			c0.9,0,1.8,0,2.7-0.1c3.5-0.2,7-0.6,10.5-1.1c7-1,14.1-2.3,21.4-2.8l2.7-0.1l2.7,0c1.7,0,3.5,0.1,5.3,0.1
			c3.5,0.1,7.1,0.4,10.6,0.7c7,0.6,13.9,1.5,20.7,2.5c1.7,0.2,3.4,0.5,5,0.7c1.6,0.1,3.3,0.2,4.9,0.2c3.3,0,6.7-0.1,10.1-0.2
			c3.4-0.1,6.8,0,10.1,0c3.3,0,6.7,0,10,0c6.6,0,13.2,0,19.7,0.1c13,0,25.8,0.1,38.3,0.1c12.5,0,24.8,0.4,36.7,0.2
			c6-0.1,11.8-0.3,17.7-0.8c5.8-0.4,11.7-0.9,17.5-0.6c0.7,0,1.5,0.1,2.2,0.2c0.8,0.1,1.5,0.3,2.2,0.4c1.4,0.3,2.8,0.7,4.1,0.9
			c2.6,0.4,5.3,0.3,8.1,0.2c1.4,0,2.8-0.1,4.2-0.1c1.4,0,2.8,0,4.1,0c2.7,0,5.5,0,8.2,0c10.8,0.1,21.3,0.1,31.5,0.2
			c20.3,0.1,39.4,0.2,57,0.3c8.8,0,17.2,0.1,25.3,0c8.1-0.1,15.8-0.4,23.1-0.5c3.6-0.1,7.2-0.2,10.7-0.2c3.5,0,6.8,0.1,10.1,0.2
			c6.5,0.3,12.6,0.7,18.3,0.9c5.7,0.2,10.9,0.2,15.7,0.2c4.8,0,9.2,0.1,13.1,0.1c15.6,0.1,24,0.2,24,0.2s-8.3,0.1-24,0.2
			c-3.9,0-8.3,0.1-13.1,0.1c-4.8,0-10.1,0.1-15.7,0c-11.4-0.3-24.4-1.2-38.9-0.4c-7.3,0.3-15,0.6-23.1,0.8
			c-8.1,0.2-16.5,0.2-25.3,0.3c-17.6,0.1-36.6,0.2-57,0.3c-10.2,0.1-20.7,0.1-31.5,0.2c-2.7,0-5.4,0-8.2,0c-1.4,0-2.7,0-4.1,0
			c-1.4,0-2.7,0-4.1,0.1c-2.8,0.1-5.7,0.3-8.6-0.1c-1.5-0.2-2.9-0.6-4.2-0.8c-1.4-0.3-2.6-0.5-4-0.5c-5.6-0.3-11.3,0.3-17.1,0.7
			c-5.8,0.5-11.8,0.8-17.8,0.9c-12,0.3-24.3,0.1-36.8,0.1c-12.5,0-25.3,0.1-38.3,0.1c-6.5,0-13.1,0-19.7,0.1c-3.3,0-6.6,0-10,0
			c-3.4,0-6.7,0-10,0.1c-3.3,0.1-6.8,0.3-10.2,0.3c-1.7,0-3.5-0.1-5.3-0.2c-1.8-0.2-3.5-0.4-5.2-0.7c-6.8-0.9-13.6-1.8-20.5-2.4
			c-3.4-0.3-6.9-0.5-10.4-0.6c-1.7-0.1-3.4-0.1-5.2-0.1l-2.5,0l-2.6,0.1c-6.9,0.5-13.8,1.8-21,2.9c-3.6,0.5-7.2,1-10.9,1.2
			c-1,0.1-1.9,0.1-2.8,0.1l-0.7,0l-0.7,0l-1.4,0c-1.8,0-3.6,0-5.5,0c-7.3,0-14.6-0.2-22-0.3c-3.7-0.1-7.3-0.1-11-0.1
			c-3.7,0-7.5,0-11.3-0.3c-1.9-0.2-3.9-0.4-5.8-0.8c-1-0.2-1.9-0.4-2.7-0.6c-0.8-0.2-1.7-0.2-2.5-0.3c-3.5-0.2-7.1,0.2-10.9,0.4
			c-15.1,0.9-30.3,1.5-45.8,1.7c-7.7,0.1-15.4,0.1-23.2,0.1c-7.8,0-15.5,0-23.4,0c-15.6,0-31.4,0-47.3,0.1c-7.9,0-15.9,0.1-24-0.1
			c-4-0.1-8-0.2-12.1-0.4c-2-0.1-4.1-0.2-6-0.3c-1.9,0-3.9,0-5.8,0.1c-7.9,0.3-15.9,1.5-24.2,1.7c-8.3,0.2-16.5-0.4-24.5-0.7
			c-2-0.1-4-0.2-6-0.2l-6.1,0c-4.1,0-8.2,0-12.3,0c-8.2,0-16.4,0-24.6,0c-8.2,0-16.4,0-24.7,0c-8.1,0-16.4,0.6-24.8,0.5
			c-1,0-2.1,0-3.2-0.1c-1.1,0-2.1-0.1-3.2-0.1c-2.2-0.2-4.3-0.5-6.4-0.8c-2-0.3-4-0.6-5.9-0.8c-1.9-0.1-3.9-0.1-6-0.1
			c-4.1,0-8.2,0.2-12.4,0.4c-4.1,0.2-8.3,0.3-12.5,0.5c-8.3,0.3-16.6,0.6-25,0.9c-8.5,0.2-16.8-0.1-25.1-0.3c-4.1-0.1-8.3,0-12.5,0
			l-12.5,0l-25,0c-16.7,0-33.4,0-50.1,0c-8.4,0.1-16.8-0.4-24.9-0.1c-1.1,0-1.9,0.1-2.8,0.2c-0.9,0.1-1.9,0.3-2.8,0.5
			c-1.9,0.4-4,1-6.1,1.4c-0.5,0.1-1.1,0.2-1.7,0.3c-0.6,0.1-1.2,0.2-1.7,0.2c-1.2,0.1-2.1,0.2-3.2,0.2c-2.1,0.1-4.2,0.3-6.3,0.4
			c-8.4,0.4-16.8,0.5-25.2,0c-2.1-0.1-4.2-0.2-6.3-0.4l-3.1-0.3l-3.1-0.3c-4.1-0.5-8.2-1-12.3-1.6c-4.1-0.5-8.1-0.9-12.1-1
			c-3.9-0.1-8.1,0.1-12.2,0.3c-8.3,0.3-16.6,0.6-25.1-0.2c-4.3-0.5-8.3-1.3-12.1-1.6c-3.7-0.4-7.8,0-11.8,0.3
			c-4,0.4-8.1,0.8-12.2,1.2c-4.1,0.3-8.2,0.6-12.3,0.7c-16.4,0.6-32.7-0.1-48.7-0.4c-4,0-8-0.1-12,0c-4,0-8,0.1-12.1,0.1
			c-2,0-4.1-0.1-6.2-0.3c-2.1-0.2-4.2-0.5-6-0.7c-3.8-0.5-7.7-0.6-11.6-0.6c-3.9,0-7.8,0.2-11.7,0.6c-3.9,0.3-7.8,0.8-11.7,1.3
			c-7.8,1-15.8,2-24,1.5c-1-0.1-2.1-0.2-3.1-0.2l-1.5-0.2l-0.7-0.1l-0.8-0.1c-2-0.3-3.9-0.7-5.8-1.1c-1.9-0.3-3.7-0.6-5.5-0.8
			c-1.9-0.2-3.7-0.3-5.6-0.3c-3.8,0-7.6,0.2-11.4,0.4c-1.9,0.1-3.9,0.2-5.8,0.3c-1,0-2,0.1-2.9,0.1l-2.9,0
			c-15.4,0-30.6-0.1-45.7-0.1c-1.8,0-3.9,0-5.8-0.2c-1.9-0.2-3.8-0.4-5.7-0.6c-3.7-0.5-7.3-0.9-10.8-0.8c-7,0.3-14.4,2.1-22.1,2.3
			c-7.8,0.1-15-1.3-22.1-2c-1.8-0.2-3.5-0.3-5.3-0.4c-0.9,0-1.8,0-2.6,0l-1.3,0l-1.4,0.1l-0.6,0l-0.7,0.1l-1.4,0.1l-2.7,0.2
			c-1.8,0.1-3.6,0.3-5.4,0.4c-14.5,0.8-28.6,0.4-42.5,0.4c-13.9,0-27.7-0.1-41.2-0.1c-27-0.1-53.1-0.2-78.1-0.2
			c-50.1-0.2-96-0.3-136.6-0.5c-2.5,0.1-5,0.2-7.5,0.4c-1.2,0.1-2.5,0.2-3.7,0.3c-1.3,0.1-2.5,0.1-3.8,0.1c-5,0-9.9-0.4-14.6-1
			c-4.7-0.5-9.4-1.2-13.9-1.7c-2.3-0.3-4.5-0.5-6.7-0.6c-2.2-0.2-4.4-0.3-6.6-0.2c-4.3,0.1-8.5,0.9-12.7,1.6
			c-2.1,0.3-4.2,0.6-6.3,0.7c-2.1,0.1-4.1,0.2-6.2,0.2c-4.1,0-8-0.2-11.8-0.3c-3.8,0-7.6,0-11.2-0.1
			C6896.3,434.1,6862.9,433.9,6862.9,433.9z"/>
	</g>
</g>
<g id="_x31_L_x5F_Copper_x5F_Front" display="none">
	<g transform="translate(10,10)" display="inline">
		<g>
			<g>
				<polyline fill="#B87332" points="802.7,282.1 837.6,257.6 837.6,270.2 				"/>
			</g>
		</g>
	</g>
	<path display="inline" fill="#B87332" d="M812.7,348.9l34.9-24.5v4.8"/>
	<path display="inline" fill="#B87332" d="M812.7,405.8l34.9-24.5v3"/>
	<path display="inline" fill="#B87332" d="M812.7,462.6l34.9-24.5v0.2"/>
	<path display="inline" fill="#B87332" d="M866,292.1l34.9-24.5v15.2"/>
	<path display="inline" fill="#B87332" d="M866,348.9l34.9-24.5v2.2"/>
	<path display="inline" fill="#B87332" d="M866,405.8l34.9-24.5v4.1"/>
	<path display="inline" fill="#B87332" d="M866,462.6l34.9-24.5v0.9"/>
	<path display="inline" fill="#B87332" d="M919.4,292.1l34.9-24.5v18"/>
	<path display="inline" fill="#B87332" d="M919.4,348.9l34.9-24.5v8"/>
	<path display="inline" fill="#B87332" d="M919.4,405.8l34.9-24.5v5"/>
	<path display="inline" fill="#B87332" d="M919.4,462.6l34.9-24.5v1.3"/>
	<path display="inline" fill="#B87332" d="M972.7,292.1l34.9-24.5v24"/>
	<path display="inline" fill="#B87332" d="M972.7,348.9l34.9-24.5v14"/>
	<path display="inline" fill="#B87332" d="M972.7,405.8l34.9-24.5v7.3"/>
	<path display="inline" fill="#B87332" d="M972.7,462.6l34.9-24.5v4.8"/>
	<path display="inline" fill="#B87332" d="M1026,292.1l34.9-24.5v30.3"/>
	<path display="inline" fill="#B87332" d="M1026,348.9l34.9-24.5v15.1"/>
	<path display="inline" fill="#B87332" d="M1026,405.8l34.9-24.5v10.4"/>
	<path display="inline" fill="#B87332" d="M1026,462.6l34.9-24.5v7.2"/>
	<path display="inline" fill="#B87332" d="M1079.4,292.1l34.9-24.5v39.3"/>
	<path display="inline" fill="#B87332" d="M1079.4,348.9l34.9-24.5v18.5"/>
	<path display="inline" fill="#B87332" d="M1079.4,405.8l34.9-24.5v12.9"/>
	<path display="inline" fill="#B87332" d="M1079.4,462.6l34.9-24.5v8.8"/>
</g>
<g id="_x31_L_x5F_Print_x5F_Back" display="none">
	<g display="inline">
		<g>
			<g>
				<g>
					
						<line fill="none" stroke="#FFFFFF" stroke-width="0.5" stroke-linecap="round" stroke-miterlimit="10" x1="812.7" y1="267.6" x2="812.7" y2="311.5"/>
				</g>
				<g transform="translate(10,10)">
					
						<line fill="none" stroke="#FFFFFF" stroke-width="0.5" stroke-linecap="round" stroke-miterlimit="10" x1="837.6" y1="257.6" x2="837.6" y2="301.5"/>
					
						<line fill="none" stroke="#FFFFFF" stroke-width="0.5" stroke-linecap="round" stroke-miterlimit="10" x1="802.7" y1="314.4" x2="802.7" y2="358.3"/>
				</g>
				<g transform="translate(10,230)">
					<path fill="#FFFFFF" d="M802.7,113.8l34.9-19.4v3.8"/>
				</g>
				<g transform="translate(10,230)">
					
						<line fill="none" stroke="#FFFFFF" stroke-width="0.5" stroke-linecap="round" stroke-miterlimit="10" x1="837.6" y1="94.4" x2="837.6" y2="138.3"/>
					
						<line fill="none" stroke="#FFFFFF" stroke-width="0.5" stroke-linecap="round" stroke-miterlimit="10" x1="802.7" y1="151.2" x2="802.7" y2="195.1"/>
				</g>
				<g transform="translate(10,450)">
					<path fill="#FFFFFF" d="M802.7-49.4l34.9-19.4v0.8"/>
				</g>
				<g transform="translate(10,450)">
					
						<line fill="none" stroke="#FFFFFF" stroke-width="0.5" stroke-linecap="round" stroke-miterlimit="10" x1="837.6" y1="-68.8" x2="837.6" y2="-24.9"/>
					
						<line fill="none" stroke="#FFFFFF" stroke-width="0.5" stroke-linecap="round" stroke-miterlimit="10" x1="802.7" y1="-12" x2="802.7" y2="32"/>
				</g>
				<polyline fill="#FFFFFF" points="812.7,286.9 847.6,277.3 847.6,267.6 812.7,286.9 				"/>
			</g>
			
				<line fill="none" stroke="#FFFFFF" stroke-width="0.5" stroke-linecap="round" stroke-miterlimit="10" x1="847.6" y1="438" x2="847.6" y2="482"/>
		</g>
		<g>
			
				<line fill="none" stroke="#FFFFFF" stroke-width="0.5" stroke-linecap="round" stroke-miterlimit="10" x1="866" y1="267.6" x2="866" y2="311.5"/>
			<g transform="translate(175,10)">
				<path fill="#FFFFFF" d="M691,276.9l34.9-19.4v12.1"/>
			</g>
			<g transform="translate(175,10)">
				
					<line fill="none" stroke="#FFFFFF" stroke-width="0.5" stroke-linecap="round" stroke-miterlimit="10" x1="725.9" y1="257.6" x2="725.9" y2="301.5"/>
				
					<line fill="none" stroke="#FFFFFF" stroke-width="0.5" stroke-linecap="round" stroke-miterlimit="10" x1="691" y1="314.4" x2="691" y2="358.3"/>
			</g>
			<g transform="translate(175,230)">
				<path fill="#FFFFFF" d="M691,113.8l34.9-19.4v3.7"/>
			</g>
			<g transform="translate(175,230)">
				
					<line fill="none" stroke="#FFFFFF" stroke-width="0.5" stroke-linecap="round" stroke-miterlimit="10" x1="725.9" y1="94.4" x2="725.9" y2="138.3"/>
				
					<line fill="none" stroke="#FFFFFF" stroke-width="0.5" stroke-linecap="round" stroke-miterlimit="10" x1="691" y1="151.2" x2="691" y2="195.1"/>
			</g>
			<g transform="translate(175,450)">
				<path fill="#FFFFFF" d="M691-49.4l34.9-19.4v2.9"/>
			</g>
			<g transform="translate(175,450)">
				
					<line fill="none" stroke="#FFFFFF" stroke-width="0.5" stroke-linecap="round" stroke-miterlimit="10" x1="725.9" y1="-68.8" x2="725.9" y2="-24.9"/>
				
					<line fill="none" stroke="#FFFFFF" stroke-width="0.5" stroke-linecap="round" stroke-miterlimit="10" x1="691" y1="-12" x2="691" y2="32"/>
			</g>
			
				<line fill="none" stroke="#FFFFFF" stroke-width="0.5" stroke-linecap="round" stroke-miterlimit="10" x1="900.9" y1="438" x2="900.9" y2="482"/>
		</g>
		<g>
			
				<line fill="none" stroke="#FFFFFF" stroke-width="0.5" stroke-linecap="round" stroke-miterlimit="10" x1="919.4" y1="267.6" x2="919.4" y2="311.5"/>
			<g transform="translate(340,10)">
				<path fill="#FFFFFF" d="M579.4,276.9l34.9-19.4V273"/>
			</g>
			<g transform="translate(340,10)">
				
					<line fill="none" stroke="#FFFFFF" stroke-width="0.5" stroke-linecap="round" stroke-miterlimit="10" x1="614.2" y1="257.6" x2="614.2" y2="301.5"/>
				
					<line fill="none" stroke="#FFFFFF" stroke-width="0.5" stroke-linecap="round" stroke-miterlimit="10" x1="579.4" y1="314.4" x2="579.4" y2="358.3"/>
			</g>
			<g transform="translate(340,230)">
				<path fill="#FFFFFF" d="M579.4,113.8l34.9-19.4v0.8"/>
			</g>
			<g transform="translate(340,230)">
				
					<line fill="none" stroke="#FFFFFF" stroke-width="0.5" stroke-linecap="round" stroke-miterlimit="10" x1="614.2" y1="94.4" x2="614.2" y2="138.3"/>
				
					<line fill="none" stroke="#FFFFFF" stroke-width="0.5" stroke-linecap="round" stroke-miterlimit="10" x1="579.4" y1="151.2" x2="579.4" y2="195.1"/>
			</g>
			<g transform="translate(340,450)">
				<path fill="#FFFFFF" d="M579.4-49.4l34.9-19.4v2.7"/>
			</g>
			<g transform="translate(340,450)">
				
					<line fill="none" stroke="#FFFFFF" stroke-width="0.5" stroke-linecap="round" stroke-miterlimit="10" x1="614.2" y1="-68.8" x2="614.2" y2="-24.9"/>
				
					<line fill="none" stroke="#FFFFFF" stroke-width="0.5" stroke-linecap="round" stroke-miterlimit="10" x1="579.4" y1="-12" x2="579.4" y2="32"/>
			</g>
			
				<line fill="none" stroke="#FFFFFF" stroke-width="0.5" stroke-linecap="round" stroke-miterlimit="10" x1="954.2" y1="438" x2="954.2" y2="482"/>
		</g>
		<g>
			
				<line fill="none" stroke="#FFFFFF" stroke-width="0.5" stroke-linecap="round" stroke-miterlimit="10" x1="972.7" y1="267.6" x2="972.7" y2="311.5"/>
			<g transform="translate(505,10)">
				<path fill="#FFFFFF" d="M467.7,276.9l34.9-19.4v20"/>
			</g>
			<g transform="translate(505,10)">
				
					<line fill="none" stroke="#FFFFFF" stroke-width="0.5" stroke-linecap="round" stroke-miterlimit="10" x1="502.6" y1="257.6" x2="502.6" y2="301.5"/>
				
					<line fill="none" stroke="#FFFFFF" stroke-width="0.5" stroke-linecap="round" stroke-miterlimit="10" x1="467.7" y1="314.4" x2="467.7" y2="358.3"/>
			</g>
			<g transform="translate(505,230)">
				<path fill="#FFFFFF" d="M467.7,113.8l34.9-19.4v3.4"/>
			</g>
			<g transform="translate(505,230)">
				
					<line fill="none" stroke="#FFFFFF" stroke-width="0.5" stroke-linecap="round" stroke-miterlimit="10" x1="502.6" y1="94.4" x2="502.6" y2="138.3"/>
				
					<line fill="none" stroke="#FFFFFF" stroke-width="0.5" stroke-linecap="round" stroke-miterlimit="10" x1="467.7" y1="151.2" x2="467.7" y2="195.1"/>
			</g>
			<g transform="translate(505,450)">
				<path fill="#FFFFFF" d="M467.7-49.4l34.9-19.4v1.6"/>
			</g>
			<g transform="translate(505,450)">
				
					<line fill="none" stroke="#FFFFFF" stroke-width="0.5" stroke-linecap="round" stroke-miterlimit="10" x1="502.6" y1="-68.8" x2="502.6" y2="-24.9"/>
				
					<line fill="none" stroke="#FFFFFF" stroke-width="0.5" stroke-linecap="round" stroke-miterlimit="10" x1="467.7" y1="-12" x2="467.7" y2="32"/>
			</g>
			
				<line fill="none" stroke="#FFFFFF" stroke-width="0.5" stroke-linecap="round" stroke-miterlimit="10" x1="1007.6" y1="438" x2="1007.6" y2="482"/>
		</g>
		<g>
			
				<line fill="none" stroke="#FFFFFF" stroke-width="0.5" stroke-linecap="round" stroke-miterlimit="10" x1="1026" y1="267.6" x2="1026" y2="311.5"/>
			<g transform="translate(670,10)">
				<path fill="#FFFFFF" d="M356,276.9l34.9-19.4v23.3"/>
			</g>
			<g transform="translate(670,10)">
				
					<line fill="none" stroke="#FFFFFF" stroke-width="0.5" stroke-linecap="round" stroke-miterlimit="10" x1="390.9" y1="257.6" x2="390.9" y2="301.5"/>
				
					<line fill="none" stroke="#FFFFFF" stroke-width="0.5" stroke-linecap="round" stroke-miterlimit="10" x1="356" y1="314.4" x2="356" y2="358.3"/>
			</g>
			<g transform="translate(670,230)">
				<path fill="#FFFFFF" d="M356,113.8l34.9-19.4v4.4"/>
			</g>
			<g transform="translate(670,230)">
				
					<line fill="none" stroke="#FFFFFF" stroke-width="0.5" stroke-linecap="round" stroke-miterlimit="10" x1="390.9" y1="94.4" x2="390.9" y2="138.3"/>
				
					<line fill="none" stroke="#FFFFFF" stroke-width="0.5" stroke-linecap="round" stroke-miterlimit="10" x1="356" y1="151.2" x2="356" y2="195.1"/>
			</g>
			<g transform="translate(670,450)">
				<path fill="#FFFFFF" d="M356-49.4l34.9-19.4v3.2"/>
			</g>
			<g transform="translate(670,450)">
				
					<line fill="none" stroke="#FFFFFF" stroke-width="0.5" stroke-linecap="round" stroke-miterlimit="10" x1="390.9" y1="-68.8" x2="390.9" y2="-24.9"/>
				
					<line fill="none" stroke="#FFFFFF" stroke-width="0.5" stroke-linecap="round" stroke-miterlimit="10" x1="356" y1="-12" x2="356" y2="32"/>
			</g>
			
				<line fill="none" stroke="#FFFFFF" stroke-width="0.5" stroke-linecap="round" stroke-miterlimit="10" x1="1060.9" y1="438" x2="1060.9" y2="482"/>
		</g>
		<g>
			
				<line fill="none" stroke="#FFFFFF" stroke-width="0.5" stroke-linecap="round" stroke-miterlimit="10" x1="1079.4" y1="267.6" x2="1079.4" y2="311.5"/>
			<g transform="translate(835,10)">
				<path fill="#FFFFFF" d="M244.4,276.9l34.9-19.4v26.5"/>
			</g>
			<g transform="translate(835,10)">
				
					<line fill="none" stroke="#FFFFFF" stroke-width="0.5" stroke-linecap="round" stroke-miterlimit="10" x1="279.2" y1="257.6" x2="279.2" y2="301.5"/>
				
					<line fill="none" stroke="#FFFFFF" stroke-width="0.5" stroke-linecap="round" stroke-miterlimit="10" x1="244.4" y1="314.4" x2="244.4" y2="358.3"/>
			</g>
			<g transform="translate(835,230)">
				<path fill="#FFFFFF" d="M244.4,113.8l34.9-19.4v5.2"/>
			</g>
			<g transform="translate(835,230)">
				
					<line fill="none" stroke="#FFFFFF" stroke-width="0.5" stroke-linecap="round" stroke-miterlimit="10" x1="279.2" y1="94.4" x2="279.2" y2="138.3"/>
				
					<line fill="none" stroke="#FFFFFF" stroke-width="0.5" stroke-linecap="round" stroke-miterlimit="10" x1="244.4" y1="151.2" x2="244.4" y2="195.1"/>
			</g>
			<g transform="translate(835,450)">
				<path fill="#FFFFFF" d="M244.4-49.4l34.9-19.4v3.7"/>
			</g>
			<g transform="translate(835,450)">
				
					<line fill="none" stroke="#FFFFFF" stroke-width="0.5" stroke-linecap="round" stroke-miterlimit="10" x1="279.2" y1="-68.8" x2="279.2" y2="-24.9"/>
				
					<line fill="none" stroke="#FFFFFF" stroke-width="0.5" stroke-linecap="round" stroke-miterlimit="10" x1="244.4" y1="-12" x2="244.4" y2="32"/>
			</g>
			<g transform="translate(835,670)">
				
					<line fill="none" stroke="#FFFFFF" stroke-width="0.5" stroke-linecap="round" stroke-miterlimit="10" x1="279.2" y1="-232" x2="279.2" y2="-188"/>
			</g>
		</g>
	</g>
</g>
<g id="AR_x5F_layer">
	<rect x="812.5" y="212.9" fill="none" width="146.6" height="40.5"/>
	<text transform="matrix(1 0 0 1 812.5319 218.9039)"><tspan x="0" y="0" fill="#404040" font-family="'Roboto-Light'" font-size="8">E</tspan><tspan x="4.7" y="0" fill="#404040" font-family="'Roboto-Light'" font-size="8">V</tspan><tspan x="9.8" y="0" fill="#404040" font-family="'Roboto-Light'" font-size="8">O</tspan><tspan x="15.3" y="0" fill="#404040" font-family="'Roboto-Light'" font-size="8">L</tspan><tspan x="19.5" y="0" fill="#404040" font-family="'Roboto-Light'" font-size="8">UTION OF G</tspan><tspan x="63.6" y="0" fill="#404040" font-family="'Roboto-Light'" font-size="8">L</tspan><tspan x="67.7" y="0" fill="#404040" font-family="'Roboto-Light'" font-size="8">OBAL </tspan><tspan x="90" y="0" fill="#404040" font-family="'Roboto-Light'" font-size="8">W</tspan><tspan x="97.2" y="0" fill="#404040" font-family="'Roboto-Light'" font-size="8">A</tspan><tspan x="101.8" y="0" fill="#404040" font-family="'Roboto-Light'" font-size="8">TER USE: </tspan><tspan x="0" y="10.3" fill="#404040" font-family="'Roboto-Light'" font-size="8">W</tspan><tspan x="7.3" y="10.3" fill="#404040" font-family="'Roboto-Light'" font-size="8">I</tspan><tspan x="9.5" y="10.3" fill="#404040" font-family="'Roboto-Light'" font-size="8">THDR</tspan><tspan x="30.9" y="10.3" fill="#404040" font-family="'Roboto-Light'" font-size="8">A</tspan><tspan x="35.8" y="10.3" fill="#404040" font-family="'Roboto-Light'" font-size="8">W</tspan><tspan x="43" y="10.3" fill="#404040" font-family="'Roboto-Light'" font-size="8">AL AND CONSUMPTION </tspan><tspan x="133.1" y="10.3" fill="#404040" font-family="'Roboto-Light'" font-size="8">B</tspan><tspan x="137.9" y="10.3" fill="#404040" font-family="'Roboto-Light'" font-size="8">Y </tspan><tspan x="0" y="20.7" fill="#404040" font-family="'Roboto-Light'" font-size="8">SE</tspan><tspan x="9.6" y="20.7" fill="#404040" font-family="'Roboto-Light'" font-size="8">CT</tspan><tspan x="19.7" y="20.7" fill="#404040" font-family="'Roboto-Light'" font-size="8">OR. YEAR 1900 - 2025</tspan></text>
	
		<line fill="none" stroke="#FFFFFF" stroke-width="0.2707" stroke-linecap="round" stroke-miterlimit="10" stroke-dasharray="0.5415,1.083" x1="813.9" y1="515.2" x2="1118.6" y2="513.7"/>
	<g>
		<text transform="matrix(1 0 0 1 813.8722 510.0385)" fill="#FFFFFF" font-family="'Roboto-Regular'" font-size="5">1900</text>
	</g>
	<g>
		<text transform="matrix(1 0 0 1 812.5319 318.4009)" fill="#B87332" font-family="'Roboto-Regular'" font-size="4">530.550</text>
	</g>
	<g>
		<text transform="matrix(1 0 0 1 832.0673 318.4009)" fill="#FFFFFF" font-family="'Roboto-Regular'" font-size="4"> 290.019</text>
	</g>
	<g>
		<text transform="matrix(1 0 0 1 812.5318 374.4604)" fill="#B87332" font-family="'Roboto-Regular'" font-size="4">76.053</text>
	</g>
	<g>
		<text transform="matrix(1 0 0 1 835.3282 374.4604)" fill="#FFFFFF" font-family="'Roboto-Regular'" font-size="4"> 47.211</text>
	</g>
	<g>
		<text transform="matrix(1 0 0 1 812.5317 489.7682)" fill="#B87332" font-family="'Roboto-Regular'" font-size="4">0.152</text>
	</g>
	<g>
		<text transform="matrix(1 0 0 1 836.5594 489.7692)" fill="#FFFFFF" font-family="'Roboto-Regular'" font-size="4"> 0.000</text>
	</g>
	<g>
		<text transform="matrix(1 0 0 1 866.0459 510.0385)" fill="#FFFFFF" font-family="'Roboto-Regular'" font-size="5">1925</text>
	</g>
	<g transform="translate(175,10)">
		<g>
			<text transform="matrix(1 0 0 1 691.0807 308.4009)" fill="#B87332" font-family="'Roboto-Regular'" font-size="4">767.818</text>
		</g>
		<g>
			<text transform="matrix(1 0 0 1 711.2194 308.4009)" fill="#FFFFFF" font-family="'Roboto-Regular'" font-size="4"> 484.858</text>
		</g>
	</g>
	<g transform="translate(175,230)">
		<g>
			<text transform="matrix(1 0 0 1 691.0807 144.4602)" fill="#B87332" font-family="'Roboto-Regular'" font-size="4">15.674</text>
		</g>
		<g>
			<text transform="matrix(1 0 0 1 712.6408 144.4592)" fill="#FFFFFF" font-family="'Roboto-Regular'" font-size="4"> 44.478</text>
		</g>
	</g>
	<g transform="translate(175,450)">
		<g>
			<text transform="matrix(1 0 0 1 692.8854 -25.036)" fill="#B87332" font-family="'Roboto-Regular'" font-size="4">56.546</text>
		</g>
		<g>
			<text transform="matrix(1 0 0 1 710.8707 -25.037)" fill="#FFFFFF" font-family="'Roboto-Regular'" font-size="4"> 27.552</text>
		</g>
	</g>
	<g transform="translate(175,450)">
		<g>
			<text transform="matrix(1 0 0 1 639.5239 -25.036)" fill="#B87332" font-family="'Roboto-Regular'" font-size="4">30.892</text>
		</g>
		<g>
			<text transform="matrix(1 0 0 1 660.7454 -25.037)" fill="#FFFFFF" font-family="'Roboto-Regular'" font-size="4">2.049</text>
		</g>
	</g>
	<g>
		<text transform="matrix(1 0 0 1 866.046 489.7682)" fill="#B87332" font-family="'Roboto-Regular'" font-size="4">2.732</text>
	</g>
	<g>
		<text transform="matrix(1 0 0 1 889.8867 490.6509)" fill="#FFFFFF" font-family="'Roboto-Regular'" font-size="4"> 0.000</text>
	</g>
	<g>
		<text transform="matrix(1 0 0 1 919.3721 510.0385)" fill="#FFFFFF" font-family="'Roboto-Regular'" font-size="5">1950</text>
	</g>
	<g>
		<g transform="translate(340,10)">
			<g>
				<text transform="matrix(1 0 0 1 579.4825 308.4009)" fill="#B87332" font-family="'Roboto-Regular'" font-size="4">1075.750</text>
			</g>
			<g>
				<text transform="matrix(1 0 0 1 599.749 308.4009)" fill="#FFFFFF" font-family="'Roboto-Regular'" font-size="4"> 792.789</text>
			</g>
		</g>
		<g transform="translate(340,230)">
			<g>
				<text transform="matrix(1 0 0 1 579.4827 144.4592)" fill="#B87332" font-family="'Roboto-Regular'" font-size="4">211.917</text>
			</g>
			<g>
				<text transform="matrix(1 0 0 1 604.1239 144.4604)" fill="#FFFFFF" font-family="'Roboto-Regular'" font-size="4"> 1.898</text>
			</g>
		</g>
		<g transform="translate(340,450)">
			<g>
				<text transform="matrix(1 0 0 1 581.0569 -25.037)" fill="#B87332" font-family="'Roboto-Regular'" font-size="4">81.973</text>
			</g>
			<g>
				<text transform="matrix(1 0 0 1 600.6658 -24.7946)" fill="#FFFFFF" font-family="'Roboto-Regular'" font-size="4"> 24.896</text>
			</g>
		</g>
		<g>
			<text transform="matrix(1 0 0 1 921.0572 490.6509)" fill="#B87332" font-family="'Roboto-Regular'" font-size="4">5.465</text>
		</g>
		<g>
			<text transform="matrix(1 0 0 1 944.1241 490.6509)" fill="#FFFFFF" font-family="'Roboto-Regular'" font-size="4"> 0.000</text>
		</g>
	</g>
	<g>
		<text transform="matrix(1 0 0 1 972.6988 510.0385)" fill="#FFFFFF" font-family="'Roboto-Regular'" font-size="5">1975</text>
	</g>
	<g>
		<g transform="translate(505,10)">
			<g>
				<text transform="matrix(1 0 0 1 467.6988 308.4009)" fill="#B87332" font-family="'Roboto-Regular'" font-size="4">1877.875</text>
			</g>
			<g>
				<text transform="matrix(1 0 0 1 484.8019 308.4009)" fill="#FFFFFF" font-family="'Roboto-Regular'" font-size="4"> 1326.755</text>
			</g>
		</g>
		<g transform="translate(505,230)">
			<g>
				<text transform="matrix(1 0 0 1 467.6988 144.4592)" fill="#B87332" font-family="'Roboto-Regular'" font-size="4">646.831</text>
			</g>
			<g>
				<text transform="matrix(1 0 0 1 490.1866 144.4591)" fill="#FFFFFF" font-family="'Roboto-Regular'" font-size="4"> 39.241</text>
			</g>
		</g>
		<g transform="translate(505,450)">
			<g>
				<text transform="matrix(1 0 0 1 468.9508 -25.037)" fill="#B87332" font-family="'Roboto-Regular'" font-size="4">178.216</text>
			</g>
			<g>
				<text transform="matrix(1 0 0 1 490.0463 -25.036)" fill="#FFFFFF" font-family="'Roboto-Regular'" font-size="4"> 8.273</text>
			</g>
		</g>
		<g>
			<text transform="matrix(1 0 0 1 972.6988 490.6509)" fill="#B87332" font-family="'Roboto-Regular'" font-size="4">76.584</text>
		</g>
		<g>
			<text transform="matrix(1 0 0 1 996.5402 490.6508)" fill="#FFFFFF" font-family="'Roboto-Regular'" font-size="4"> 0.000</text>
		</g>
	</g>
	<g>
		<text transform="matrix(1 0 0 1 1026.0249 510.0385)" fill="#FFFFFF" font-family="'Roboto-Regular'" font-size="5">2000</text>
	</g>
	<g>
		<g transform="translate(670,10)">
			<g>
				<text transform="matrix(1 0 0 1 356.0249 308.4009)" fill="#B87332" font-family="'Roboto-Regular'" font-size="4">2581.025</text>
			</g>
			<g>
				<text transform="matrix(1 0 0 1 374.0169 308.2505)" fill="#FFFFFF" font-family="'Roboto-Regular'" font-size="4"> 1789.829</text>
			</g>
		</g>
		<g transform="translate(670,230)">
			<g>
				<text transform="matrix(1 0 0 1 356.0249 144.4591)" fill="#B87332" font-family="'Roboto-Regular'" font-size="4">757.116</text>
			</g>
			<g>
				<text transform="matrix(1 0 0 1 377.6222 144.4591)" fill="#FFFFFF" font-family="'Roboto-Regular'" font-size="4"> 64.744</text>
			</g>
		</g>
		<g transform="translate(670,450)">
			<g>
				<text transform="matrix(1 0 0 1 358.0692 -25.0371)" fill="#B87332" font-family="'Roboto-Regular'" font-size="4">359.013</text>
			</g>
			<g>
				<text transform="matrix(1 0 0 1 376.5205 -24.8667)" fill="#FFFFFF" font-family="'Roboto-Regular'" font-size="4"> 33.700</text>
			</g>
		</g>
		<g>
			<text transform="matrix(1 0 0 1 1026.0249 489.7692)" fill="#B87332" font-family="'Roboto-Regular'" font-size="4">172.827</text>
		</g>
		<g>
			<text transform="matrix(1 0 0 1 1049.8683 489.7682)" fill="#FFFFFF" font-family="'Roboto-Regular'" font-size="4"> 0.000</text>
		</g>
	</g>
	<g>
		<text transform="matrix(1 0 0 1 1079.3521 510.0385)" fill="#FFFFFF" font-family="'Roboto-Regular'" font-size="5">2025</text>
	</g>
	<g>
		<g transform="translate(835,10)">
			<g>
				<text transform="matrix(1 0 0 1 244.4537 308.4009)" fill="#B87332" font-family="'Roboto-Regular'" font-size="4">3128.956</text>
			</g>
			<g>
				<text transform="matrix(1 0 0 1 261.4557 308.6294)" fill="#FFFFFF" font-family="'Roboto-Regular'" font-size="4"> 2196.660</text>
			</g>
		</g>
		<g transform="translate(835,230)">
			<g>
				<text transform="matrix(1 0 0 1 244.3521 144.4604)" fill="#B87332" font-family="'Roboto-Regular'" font-size="4">1135.560</text>
			</g>
			<g>
				<text transform="matrix(1 0 0 1 265.9478 144.459)" fill="#FFFFFF" font-family="'Roboto-Regular'" font-size="4"> 90.247</text>
			</g>
		</g>
		<g transform="translate(835,450)">
			<g>
				<text transform="matrix(1 0 0 1 245.3393 -25.0371)" fill="#B87332" font-family="'Roboto-Regular'" font-size="4">554.004</text>
			</g>
			<g>
				<text transform="matrix(1 0 0 1 265.0434 -25.0371)" fill="#FFFFFF" font-family="'Roboto-Regular'" font-size="4"> 45.161</text>
			</g>
		</g>
		<g transform="translate(835,670)">
			<g>
				<text transform="matrix(1 0 0 1 244.3521 -180.2319)" fill="#B87332" font-family="'Roboto-Regular'" font-size="4">254.877</text>
			</g>
			<g>
				<text transform="matrix(1 0 0 1 268.1938 -180.2319)" fill="#FFFFFF" font-family="'Roboto-Regular'" font-size="4"> 0.000</text>
			</g>
		</g>
	</g>
	<circle fill="#B87332" cx="1028.3" cy="228.6" r="2.8"/>
	<circle fill="#FFFFFF" cx="1082.2" cy="228.6" r="2.8"/>
	<g>
		<rect x="804" y="264.7" fill="none" width="8.5" height="46.8"/>
		<text transform="matrix(0 -1 1 0 808.3144 311.4861)"><tspan x="0" y="0" fill="#FFFFFF" font-family="'Roboto-Regular'" font-size="5">Agricultu</tspan><tspan x="19.9" y="0" fill="#FFFFFF" font-family="'Roboto-Regular'" font-size="5">r</tspan><tspan x="21.5" y="0" fill="#FFFFFF" font-family="'Roboto-Regular'" font-size="5">al</tspan></text>
	</g>
	<g>
		<rect x="804" y="321.5" fill="none" width="8.5" height="46.8"/>
		<text transform="matrix(0 -1 1 0 808.3144 368.3062)" fill="#FFFFFF" font-family="'Roboto-Regular'" font-size="5">Domestic</text>
	</g>
	<g>
		<rect x="804" y="378.4" fill="none" width="8.5" height="46.8"/>
		<text transform="matrix(0 -1 1 0 808.3144 425.205)" fill="#FFFFFF" font-family="'Roboto-Regular'" font-size="5">Industrial</text>
	</g>
	<g>
		<rect x="799.4" y="435.1" fill="none" width="12.3" height="46.8"/>
		<text transform="matrix(0 -1 1 0 803.6284 481.9569)"><tspan x="0" y="0" fill="#FFFFFF" font-family="'Roboto-Regular'" font-size="5">Rese</tspan><tspan x="11" y="0" fill="#FFFFFF" font-family="'Roboto-Regular'" font-size="5">r</tspan><tspan x="12.7" y="0" fill="#FFFFFF" font-family="'Roboto-Regular'" font-size="5">v</tspan><tspan x="15.1" y="0" fill="#FFFFFF" font-family="'Roboto-Regular'" font-size="5">oirs </tspan><tspan x="0" y="4.9" fill="#FFFFFF" font-family="'Roboto-Regular'" font-size="5">E</tspan><tspan x="2.8" y="4.9" fill="#FFFFFF" font-family="'Roboto-Regular'" font-size="5">v</tspan><tspan x="5.2" y="4.9" fill="#FFFFFF" font-family="'Roboto-Regular'" font-size="5">apo</tspan><tspan x="13.5" y="4.9" fill="#FFFFFF" font-family="'Roboto-Regular'" font-size="5">r</tspan><tspan x="15.1" y="4.9" fill="#FFFFFF" font-family="'Roboto-Regular'" font-size="5">ation</tspan></text>
	</g>
	<g>
		<rect x="982.8" y="227.2" fill="none" width="46.8" height="8.5"/>
		<text transform="matrix(1 0 0 1 982.7505 231.4297)"><tspan x="0" y="0" fill="#FFFFFF" font-family="'Roboto-Regular'" font-size="5">Unit: </tspan><tspan x="11.3" y="0" fill="#FFFFFF" font-family="'Roboto-Regular'" font-size="5">K</tspan><tspan x="14.4" y="0" fill="#FFFFFF" font-family="'Roboto-Regular'" font-size="5">m^3</tspan></text>
	</g>
	<g>
		<rect x="1087.6" y="226.4" fill="none" width="46.8" height="8.5"/>
		<text transform="matrix(1 0 0 1 1087.5776 230.6553)"><tspan x="0" y="0" fill="#FFFFFF" font-family="'Roboto-Regular'" font-size="5">W</tspan><tspan x="4.4" y="0" fill="#FFFFFF" font-family="'Roboto-Regular'" font-size="5">ater withd</tspan><tspan x="26.5" y="0" fill="#FFFFFF" font-family="'Roboto-Regular'" font-size="5">r</tspan><tspan x="28.1" y="0" fill="#FFFFFF" font-family="'Roboto-Regular'" font-size="5">awal</tspan></text>
	</g>
	<g>
		<rect x="1033.8" y="225.8" fill="none" width="39" height="14.7"/>
		<text transform="matrix(1 0 0 1 1033.7539 230.1201)"><tspan x="0" y="0" fill="#FFFFFF" font-family="'Roboto-Regular'" font-size="5">W</tspan><tspan x="4.4" y="0" fill="#FFFFFF" font-family="'Roboto-Regular'" font-size="5">ater </tspan><tspan x="0" y="4.9" fill="#FFFFFF" font-family="'Roboto-Regular'" font-size="5">Consumption</tspan></text>
	</g>
	<g transform="translate(10,10)">
		<g>
			<g>
				<polyline fill="#B87332" points="802.7,282.1 837.6,257.6 837.6,270.2 				"/>
			</g>
		</g>
	</g>
	<path fill="#B87332" d="M812.7,348.9l34.9-24.5v4.8"/>
	<path fill="#B87332" d="M812.7,405.8l34.9-24.5v3"/>
	<path fill="#B87332" d="M812.7,462.6l34.9-24.5v0.2"/>
	<path fill="#B87332" d="M866,292.1l34.9-24.5v15.2"/>
	<path fill="#B87332" d="M866,348.9l34.9-24.5v2.2"/>
	<path fill="#B87332" d="M866,405.8l34.9-24.5v4.1"/>
	<path fill="#B87332" d="M866,462.6l34.9-24.5v0.9"/>
	<path fill="#B87332" d="M919.4,292.1l34.9-24.5v18"/>
	<path fill="#B87332" d="M919.4,348.9l34.9-24.5v8"/>
	<path fill="#B87332" d="M919.4,405.8l34.9-24.5v5"/>
	<path fill="#B87332" d="M919.4,462.6l34.9-24.5v1.3"/>
	<path fill="#B87332" d="M972.7,292.1l34.9-24.5v24"/>
	<path fill="#B87332" d="M972.7,348.9l34.9-24.5v14"/>
	<path fill="#B87332" d="M972.7,405.8l34.9-24.5v7.3"/>
	<path fill="#B87332" d="M972.7,462.6l34.9-24.5v4.8"/>
	<path fill="#B87332" d="M1026,292.1l34.9-24.5v30.3"/>
	<path fill="#B87332" d="M1026,348.9l34.9-24.5v15.1"/>
	<path fill="#B87332" d="M1026,405.8l34.9-24.5v10.4"/>
	<path fill="#B87332" d="M1026,462.6l34.9-24.5v7.2"/>
	<path fill="#B87332" d="M1079.4,292.1l34.9-24.5v39.3"/>
	<path fill="#B87332" d="M1079.4,348.9l34.9-24.5v18.5"/>
	<path fill="#B87332" d="M1079.4,405.8l34.9-24.5v12.9"/>
	<path fill="#B87332" d="M1079.4,462.6l34.9-24.5v8.8"/>
	<g>
		<g>
			<g>
				<g>
					
						<line fill="none" stroke="#FFFFFF" stroke-width="0.5" stroke-linecap="round" stroke-miterlimit="10" x1="812.7" y1="267.6" x2="812.7" y2="311.5"/>
				</g>
				<g transform="translate(10,10)">
					
						<line fill="none" stroke="#FFFFFF" stroke-width="0.5" stroke-linecap="round" stroke-miterlimit="10" x1="837.6" y1="257.6" x2="837.6" y2="301.5"/>
					
						<line fill="none" stroke="#FFFFFF" stroke-width="0.5" stroke-linecap="round" stroke-miterlimit="10" x1="802.7" y1="314.4" x2="802.7" y2="358.3"/>
				</g>
				<g transform="translate(10,230)">
					<path fill="#FFFFFF" d="M802.7,113.8l34.9-19.4v3.8"/>
				</g>
				<g transform="translate(10,230)">
					
						<line fill="none" stroke="#FFFFFF" stroke-width="0.5" stroke-linecap="round" stroke-miterlimit="10" x1="837.6" y1="94.4" x2="837.6" y2="138.3"/>
					
						<line fill="none" stroke="#FFFFFF" stroke-width="0.5" stroke-linecap="round" stroke-miterlimit="10" x1="802.7" y1="151.2" x2="802.7" y2="195.1"/>
				</g>
				<g transform="translate(10,450)">
					<path fill="#FFFFFF" d="M802.7-49.4l34.9-19.4v0.8"/>
				</g>
				<g transform="translate(10,450)">
					
						<line fill="none" stroke="#FFFFFF" stroke-width="0.5" stroke-linecap="round" stroke-miterlimit="10" x1="837.6" y1="-68.8" x2="837.6" y2="-24.9"/>
					
						<line fill="none" stroke="#FFFFFF" stroke-width="0.5" stroke-linecap="round" stroke-miterlimit="10" x1="802.7" y1="-12" x2="802.7" y2="32"/>
				</g>
				<polyline fill="#FFFFFF" points="812.7,286.9 847.6,277.3 847.6,267.6 812.7,286.9 				"/>
			</g>
			
				<line fill="none" stroke="#FFFFFF" stroke-width="0.5" stroke-linecap="round" stroke-miterlimit="10" x1="847.6" y1="438" x2="847.6" y2="482"/>
		</g>
		<g>
			
				<line fill="none" stroke="#FFFFFF" stroke-width="0.5" stroke-linecap="round" stroke-miterlimit="10" x1="866" y1="267.6" x2="866" y2="311.5"/>
			<g transform="translate(175,10)">
				<path fill="#FFFFFF" d="M691,276.9l34.9-19.4v12.1"/>
			</g>
			<g transform="translate(175,10)">
				
					<line fill="none" stroke="#FFFFFF" stroke-width="0.5" stroke-linecap="round" stroke-miterlimit="10" x1="725.9" y1="257.6" x2="725.9" y2="301.5"/>
				
					<line fill="none" stroke="#FFFFFF" stroke-width="0.5" stroke-linecap="round" stroke-miterlimit="10" x1="691" y1="314.4" x2="691" y2="358.3"/>
			</g>
			<g transform="translate(175,230)">
				<path fill="#FFFFFF" d="M691,113.8l34.9-19.4v3.7"/>
			</g>
			<g transform="translate(175,230)">
				
					<line fill="none" stroke="#FFFFFF" stroke-width="0.5" stroke-linecap="round" stroke-miterlimit="10" x1="725.9" y1="94.4" x2="725.9" y2="138.3"/>
				
					<line fill="none" stroke="#FFFFFF" stroke-width="0.5" stroke-linecap="round" stroke-miterlimit="10" x1="691" y1="151.2" x2="691" y2="195.1"/>
			</g>
			<g transform="translate(175,450)">
				<path fill="#FFFFFF" d="M691-49.4l34.9-19.4v2.9"/>
			</g>
			<g transform="translate(175,450)">
				
					<line fill="none" stroke="#FFFFFF" stroke-width="0.5" stroke-linecap="round" stroke-miterlimit="10" x1="725.9" y1="-68.8" x2="725.9" y2="-24.9"/>
				
					<line fill="none" stroke="#FFFFFF" stroke-width="0.5" stroke-linecap="round" stroke-miterlimit="10" x1="691" y1="-12" x2="691" y2="32"/>
			</g>
			
				<line fill="none" stroke="#FFFFFF" stroke-width="0.5" stroke-linecap="round" stroke-miterlimit="10" x1="900.9" y1="438" x2="900.9" y2="482"/>
		</g>
		<g>
			
				<line fill="none" stroke="#FFFFFF" stroke-width="0.5" stroke-linecap="round" stroke-miterlimit="10" x1="919.4" y1="267.6" x2="919.4" y2="311.5"/>
			<g transform="translate(340,10)">
				<path fill="#FFFFFF" d="M579.4,276.9l34.9-19.4V273"/>
			</g>
			<g transform="translate(340,10)">
				
					<line fill="none" stroke="#FFFFFF" stroke-width="0.5" stroke-linecap="round" stroke-miterlimit="10" x1="614.2" y1="257.6" x2="614.2" y2="301.5"/>
				
					<line fill="none" stroke="#FFFFFF" stroke-width="0.5" stroke-linecap="round" stroke-miterlimit="10" x1="579.4" y1="314.4" x2="579.4" y2="358.3"/>
			</g>
			<g transform="translate(340,230)">
				<path fill="#FFFFFF" d="M579.4,113.8l34.9-19.4v0.8"/>
			</g>
			<g transform="translate(340,230)">
				
					<line fill="none" stroke="#FFFFFF" stroke-width="0.5" stroke-linecap="round" stroke-miterlimit="10" x1="614.2" y1="94.4" x2="614.2" y2="138.3"/>
				
					<line fill="none" stroke="#FFFFFF" stroke-width="0.5" stroke-linecap="round" stroke-miterlimit="10" x1="579.4" y1="151.2" x2="579.4" y2="195.1"/>
			</g>
			<g transform="translate(340,450)">
				<path fill="#FFFFFF" d="M579.4-49.4l34.9-19.4v2.7"/>
			</g>
			<g transform="translate(340,450)">
				
					<line fill="none" stroke="#FFFFFF" stroke-width="0.5" stroke-linecap="round" stroke-miterlimit="10" x1="614.2" y1="-68.8" x2="614.2" y2="-24.9"/>
				
					<line fill="none" stroke="#FFFFFF" stroke-width="0.5" stroke-linecap="round" stroke-miterlimit="10" x1="579.4" y1="-12" x2="579.4" y2="32"/>
			</g>
			
				<line fill="none" stroke="#FFFFFF" stroke-width="0.5" stroke-linecap="round" stroke-miterlimit="10" x1="954.2" y1="438" x2="954.2" y2="482"/>
		</g>
		<g>
			
				<line fill="none" stroke="#FFFFFF" stroke-width="0.5" stroke-linecap="round" stroke-miterlimit="10" x1="972.7" y1="267.6" x2="972.7" y2="311.5"/>
			<g transform="translate(505,10)">
				<path fill="#FFFFFF" d="M467.7,276.9l34.9-19.4v20"/>
			</g>
			<g transform="translate(505,10)">
				
					<line fill="none" stroke="#FFFFFF" stroke-width="0.5" stroke-linecap="round" stroke-miterlimit="10" x1="502.6" y1="257.6" x2="502.6" y2="301.5"/>
				
					<line fill="none" stroke="#FFFFFF" stroke-width="0.5" stroke-linecap="round" stroke-miterlimit="10" x1="467.7" y1="314.4" x2="467.7" y2="358.3"/>
			</g>
			<g transform="translate(505,230)">
				<path fill="#FFFFFF" d="M467.7,113.8l34.9-19.4v3.4"/>
			</g>
			<g transform="translate(505,230)">
				
					<line fill="none" stroke="#FFFFFF" stroke-width="0.5" stroke-linecap="round" stroke-miterlimit="10" x1="502.6" y1="94.4" x2="502.6" y2="138.3"/>
				
					<line fill="none" stroke="#FFFFFF" stroke-width="0.5" stroke-linecap="round" stroke-miterlimit="10" x1="467.7" y1="151.2" x2="467.7" y2="195.1"/>
			</g>
			<g transform="translate(505,450)">
				<path fill="#FFFFFF" d="M467.7-49.4l34.9-19.4v1.6"/>
			</g>
			<g transform="translate(505,450)">
				
					<line fill="none" stroke="#FFFFFF" stroke-width="0.5" stroke-linecap="round" stroke-miterlimit="10" x1="502.6" y1="-68.8" x2="502.6" y2="-24.9"/>
				
					<line fill="none" stroke="#FFFFFF" stroke-width="0.5" stroke-linecap="round" stroke-miterlimit="10" x1="467.7" y1="-12" x2="467.7" y2="32"/>
			</g>
			
				<line fill="none" stroke="#FFFFFF" stroke-width="0.5" stroke-linecap="round" stroke-miterlimit="10" x1="1007.6" y1="438" x2="1007.6" y2="482"/>
		</g>
		<g>
			
				<line fill="none" stroke="#FFFFFF" stroke-width="0.5" stroke-linecap="round" stroke-miterlimit="10" x1="1026" y1="267.6" x2="1026" y2="311.5"/>
			<g transform="translate(670,10)">
				<path fill="#FFFFFF" d="M356,276.9l34.9-19.4v23.3"/>
			</g>
			<g transform="translate(670,10)">
				
					<line fill="none" stroke="#FFFFFF" stroke-width="0.5" stroke-linecap="round" stroke-miterlimit="10" x1="390.9" y1="257.6" x2="390.9" y2="301.5"/>
				
					<line fill="none" stroke="#FFFFFF" stroke-width="0.5" stroke-linecap="round" stroke-miterlimit="10" x1="356" y1="314.4" x2="356" y2="358.3"/>
			</g>
			<g transform="translate(670,230)">
				<path fill="#FFFFFF" d="M356,113.8l34.9-19.4v4.4"/>
			</g>
			<g transform="translate(670,230)">
				
					<line fill="none" stroke="#FFFFFF" stroke-width="0.5" stroke-linecap="round" stroke-miterlimit="10" x1="390.9" y1="94.4" x2="390.9" y2="138.3"/>
				
					<line fill="none" stroke="#FFFFFF" stroke-width="0.5" stroke-linecap="round" stroke-miterlimit="10" x1="356" y1="151.2" x2="356" y2="195.1"/>
			</g>
			<g transform="translate(670,450)">
				<path fill="#FFFFFF" d="M356-49.4l34.9-19.4v3.2"/>
			</g>
			<g transform="translate(670,450)">
				
					<line fill="none" stroke="#FFFFFF" stroke-width="0.5" stroke-linecap="round" stroke-miterlimit="10" x1="390.9" y1="-68.8" x2="390.9" y2="-24.9"/>
				
					<line fill="none" stroke="#FFFFFF" stroke-width="0.5" stroke-linecap="round" stroke-miterlimit="10" x1="356" y1="-12" x2="356" y2="32"/>
			</g>
			
				<line fill="none" stroke="#FFFFFF" stroke-width="0.5" stroke-linecap="round" stroke-miterlimit="10" x1="1060.9" y1="438" x2="1060.9" y2="482"/>
		</g>
		<g>
			
				<line fill="none" stroke="#FFFFFF" stroke-width="0.5" stroke-linecap="round" stroke-miterlimit="10" x1="1079.4" y1="267.6" x2="1079.4" y2="311.5"/>
			<g transform="translate(835,10)">
				<path fill="#FFFFFF" d="M244.4,276.9l34.9-19.4v26.5"/>
			</g>
			<g transform="translate(835,10)">
				
					<line fill="none" stroke="#FFFFFF" stroke-width="0.5" stroke-linecap="round" stroke-miterlimit="10" x1="279.2" y1="257.6" x2="279.2" y2="301.5"/>
				
					<line fill="none" stroke="#FFFFFF" stroke-width="0.5" stroke-linecap="round" stroke-miterlimit="10" x1="244.4" y1="314.4" x2="244.4" y2="358.3"/>
			</g>
			<g transform="translate(835,230)">
				<path fill="#FFFFFF" d="M244.4,113.8l34.9-19.4v5.2"/>
			</g>
			<g transform="translate(835,230)">
				
					<line fill="none" stroke="#FFFFFF" stroke-width="0.5" stroke-linecap="round" stroke-miterlimit="10" x1="279.2" y1="94.4" x2="279.2" y2="138.3"/>
				
					<line fill="none" stroke="#FFFFFF" stroke-width="0.5" stroke-linecap="round" stroke-miterlimit="10" x1="244.4" y1="151.2" x2="244.4" y2="195.1"/>
			</g>
			<g transform="translate(835,450)">
				<path fill="#FFFFFF" d="M244.4-49.4l34.9-19.4v3.7"/>
			</g>
			<g transform="translate(835,450)">
				
					<line fill="none" stroke="#FFFFFF" stroke-width="0.5" stroke-linecap="round" stroke-miterlimit="10" x1="279.2" y1="-68.8" x2="279.2" y2="-24.9"/>
				
					<line fill="none" stroke="#FFFFFF" stroke-width="0.5" stroke-linecap="round" stroke-miterlimit="10" x1="244.4" y1="-12" x2="244.4" y2="32"/>
			</g>
			<g transform="translate(835,670)">
				
					<line fill="none" stroke="#FFFFFF" stroke-width="0.5" stroke-linecap="round" stroke-miterlimit="10" x1="279.2" y1="-232" x2="279.2" y2="-188"/>
			</g>
		</g>
	</g>
</g>
</svg>
