<?xml version="1.0" encoding="utf-8"?>
<!-- Generator: Adobe Illustrator 18.0.0, SVG Export Plug-In . SVG Version: 6.00 Build 0)  -->
<!DOCTYPE svg PUBLIC "-//W3C//DTD SVG 1.1//EN" "http://www.w3.org/Graphics/SVG/1.1/DTD/svg11.dtd">
<svg version="1.1" id="Layer_1" xmlns="http://www.w3.org/2000/svg" xmlns:xlink="http://www.w3.org/1999/xlink" x="0px" y="0px"
	 viewBox="0 0 595.3 841.9" enable-background="new 0 0 595.3 841.9" xml:space="preserve">
<g id="background" display="none">
	<rect y="401.3" display="inline" fill="#B7D1D8" width="595.3" height="39.3"/>
</g>
<g id="baseline" display="none">
	<g display="inline">
		<g>
			<path fill="#FFFFFF" d="M64.7,428.3c0,0-0.1,0-0.3,0c-0.2,0-0.5,0-0.9,0c-0.4,0-0.9,0-1.5,0c-0.6,0-1.2,0-1.9,0
				c-0.3,0-0.7,0-1.1,0c-0.1,0-0.2,0-0.3,0c-0.1,0-0.2,0-0.3,0c-0.2,0-0.4,0-0.6,0c-0.1,0-0.2,0-0.3,0s-0.2,0-0.3,0
				c-0.2,0-0.4,0-0.6,0c-0.4,0-0.8,0-1.3,0c-0.2,0-0.4,0-0.7,0c-0.2,0-0.4,0-0.7,0c-0.4,0-0.9,0-1.4,0c-0.1,0-0.2,0-0.3,0
				c-0.1,0-0.2,0-0.3,0c-0.2,0-0.5,0-0.7,0c-0.2,0-0.5,0-0.7,0c-0.2,0-0.5,0-0.7,0c-0.2,0-0.5,0-0.7,0c-0.1,0-0.1,0-0.2,0h-0.2
				c-0.1,0-0.2,0-0.3,0c-0.2,0-0.5,0-0.7,0s-0.5,0-0.7,0c-0.5,0-0.9,0-1.3,0c-0.4,0-0.9,0-1.3,0s-0.9,0-1.3,0c-0.4,0-0.8,0-1.2,0
				c-0.2,0-0.4,0-0.6-0.1c-0.2,0-0.4,0-0.6,0c-0.2,0-0.4,0-0.5,0c-0.2,0-0.4,0-0.5,0c-0.1,0-0.2,0-0.3,0s-0.2,0-0.3,0
				c-0.2,0-0.3,0-0.5,0s-0.3-0.1-0.5-0.1c-0.1,0-0.3,0-0.4,0c-0.1,0-0.3,0-0.4,0c-0.1,0-0.3,0-0.4,0c-0.2,0-0.5,0-0.7,0
				c-0.4,0-0.7,0-0.9,0s-0.3,0-0.3,0s0.1,0,0.3,0s0.5,0,0.9-0.1c0.2,0,0.4,0,0.7,0c0.1,0,0.2,0,0.4,0c0.1,0,0.3,0,0.4,0
				c0.1,0,0.3,0,0.4,0c0.2,0,0.3,0,0.5,0.1c0.2,0,0.3,0,0.5,0c0.1,0,0.2,0,0.2,0c0.1,0,0.2,0,0.3,0c0.2,0,0.3,0,0.5,0s0.4,0,0.6,0
				s0.4,0,0.6,0c0.2,0,0.4,0,0.6,0c0.4,0,0.8,0,1.2,0c0.4,0,0.8,0,1.3,0c0.4,0,0.9,0,1.3,0c0.2,0,0.4,0,0.7,0c0.2,0,0.5,0,0.7,0
				c0.2,0,0.5,0,0.7,0c0.2,0,0.5,0,0.7,0c0.1,0,0.2,0,0.4,0h0.2c0.1,0,0.1,0,0.2,0c0.2,0,0.5,0,0.7,0s0.5,0,0.7,0s0.5,0,0.7,0
				c0.2,0,0.5,0,0.7,0c0.1,0,0.2,0,0.3,0s0.2,0,0.3,0c0.9,0,1.8,0,2.7,0c0.4,0,0.9,0,1.3,0c0.2,0,0.4,0,0.6,0c0.1,0,0.2,0,0.3,0
				s0.2,0,0.3,0c0.2,0,0.4,0,0.6,0c0.1,0,0.2,0,0.3,0s0.2,0,0.3,0c0.4,0,0.7,0,1.1,0c0.7,0,1.3,0,1.9,0c0.6,0,1.1,0.1,1.5,0.1
				c0.4,0,0.7,0,0.9,0C64.6,428.3,64.7,428.3,64.7,428.3z"/>
		</g>
		<g>
			<path fill="#FFFFFF" d="M83.4,428.3c0,0-0.1,0-0.2,0c-0.2,0-0.4,0-0.7,0c-0.6,0-1.4,0-2.3,0c-0.5,0-1,0-1.6,0c-0.3,0-0.6,0-0.9,0
				c-0.1,0-0.3,0-0.4,0c-0.2,0-0.3,0-0.5,0s-0.3,0-0.5,0c-0.1,0-0.2,0-0.2,0h-0.2c-0.3,0-0.6,0-0.9,0c-0.3,0-0.6,0-1,0
				c-0.3,0-0.6,0-1,0c-0.6,0-1.3,0-1.9,0c-0.6,0-1.3,0-1.9,0c-0.6,0-1.2,0-1.7,0c-0.5,0-1.1,0-1.6,0c-0.5,0-0.9,0-1.3,0
				c-0.2,0-0.4,0-0.6,0c-0.2,0-0.3,0-0.5,0c-0.1,0-0.3,0-0.4,0c-0.1,0-0.2,0-0.3,0c-0.2,0-0.2,0-0.2,0s0.1,0,0.2,0
				c0.1,0,0.2,0,0.3,0s0.2,0,0.4,0c0.1,0,0.3,0,0.5,0c0.2,0,0.4,0,0.5,0c0.4,0,0.8-0.1,1.3-0.1s1,0,1.6-0.1c0.6,0,1.1,0,1.7,0
				c0.6,0,1.2,0,1.9,0c0.6,0,1.3,0,1.9,0c0.3,0,0.6,0,1,0c0.4,0,0.6,0,1,0c0.3,0,0.6,0,0.9,0c0.1,0,0.2,0,0.2,0h0.2
				c0.2,0,0.3,0,0.5,0s0.3,0,0.4,0c0.1,0,0.3,0,0.4,0c0.3,0,0.6,0,0.9,0c0.6,0,1.1,0,1.6,0s0.9,0,1.3,0s0.7,0,1,0c0.3,0,0.5,0,0.7,0
				C83.3,428.3,83.4,428.3,83.4,428.3z"/>
		</g>
		<g>
			<path fill="#FFFFFF" d="M97.9,428.3c0,0-0.1,0-0.2,0c-0.2,0-0.4,0-0.7,0c-0.3,0-0.6,0-1,0c-0.4,0-0.8,0-1.3,0s-1,0-1.6,0
				c-0.3,0-0.6,0-0.9,0c-0.1,0-0.3,0-0.4,0c-0.2,0-0.3,0-0.5,0s-0.3,0-0.5,0s-0.3,0-0.5,0c-0.3,0-0.6,0-0.9,0c-0.3,0-0.6,0-1,0
				c-0.3,0-0.6,0-1,0c-0.6,0-1.3,0-1.9,0c-0.6,0-1.2,0-1.9,0c-0.3,0-0.6,0-0.9,0c-0.1,0-0.3,0-0.4,0c-0.1,0-0.1,0-0.2,0
				c-0.1,0-0.1,0-0.2,0c-0.3,0-0.5,0-0.8,0c-0.1,0-0.3,0-0.4,0c-0.1,0-0.3,0-0.4,0c-0.5,0-0.9,0-1.3,0s-0.7,0-1,0
				c-0.1,0-0.3,0-0.4,0c-0.1,0-0.2,0-0.3,0c-0.2,0-0.2,0-0.2,0s0.1,0,0.2,0c0.1,0,0.2,0,0.3,0s0.2,0,0.4,0c0.3,0,0.6,0,1-0.1
				c0.4,0,0.8,0,1.3,0c0.1,0,0.2,0,0.4,0c0.1,0,0.3,0,0.4,0c0.3,0,0.5,0,0.8,0c0.1,0,0.1,0,0.2,0c0.1,0,0.1,0,0.2,0
				c0.1,0,0.3,0,0.4,0c0.3,0,0.6,0,0.9-0.1c0.6,0,1.2-0.1,1.9,0c0.6,0,1.3,0,1.9,0c0.3,0,0.6,0,1,0s0.6,0,1,0c0.3,0,0.6,0,0.9,0
				c0.2,0,0.3,0,0.5,0s0.3,0,0.5,0s0.3,0,0.4,0c0.1,0,0.3,0,0.4,0c0.3,0,0.6,0,0.9,0c0.3,0,0.5,0,0.8,0s0.5,0,0.8,0
				c0.5,0,0.9,0,1.3,0.1c0.4,0,0.7,0,1,0c0.3,0,0.5,0,0.7,0C97.8,428.3,97.9,428.3,97.9,428.3z"/>
		</g>
		<g>
			<path fill="#FFFFFF" d="M116.5,428.3c0,0-0.1,0-0.2,0c-0.2,0-0.4,0-0.7,0c-0.6,0-1.4,0-2.3,0c-0.5,0-1,0-1.6,0
				c-0.3,0-0.6,0-0.9,0c-0.1,0-0.3,0-0.4,0c-0.2,0-0.3,0-0.5,0c-0.2,0-0.3,0-0.5,0c-0.1,0-0.2,0-0.2,0H109c-0.3,0-0.6,0-0.9,0
				c-0.3,0-0.6,0-1,0c-0.3,0-0.6,0-1,0c-0.6,0-1.3,0-1.9,0c-0.6,0-1.3,0-1.9,0c-0.6,0-1.2,0-1.7,0s-1.1,0-1.6,0c-0.5,0-0.9,0-1.3,0
				c-0.2,0-0.4,0-0.6,0s-0.3,0-0.5,0c-0.1,0-0.3,0-0.4,0c-0.1,0-0.2,0-0.3,0c-0.2,0-0.2,0-0.2,0s0.1,0,0.2,0c0.1,0,0.2,0,0.3,0
				c0.1,0,0.2,0,0.4,0c0.1,0,0.3,0,0.5,0s0.4,0,0.5,0c0.4,0,0.8-0.1,1.3-0.1s1,0,1.6-0.1c0.6,0,1.1,0,1.7,0c0.6,0,1.2,0,1.9,0
				c0.6,0,1.3,0,1.9,0c0.3,0,0.6,0,1,0s0.6,0,1,0s0.6,0,0.9,0c0.1,0,0.2,0,0.2,0h0.2c0.2,0,0.3,0,0.5,0s0.3,0,0.4,0
				c0.1,0,0.3,0,0.4,0c0.3,0,0.6,0,0.9,0c0.6,0,1.1,0,1.6,0c0.5,0,0.9,0,1.3,0c0.4,0,0.7,0,1,0c0.3,0,0.5,0,0.7,0
				C116.5,428.3,116.5,428.3,116.5,428.3z"/>
		</g>
		<g>
			<path fill="#FFFFFF" d="M132.1,428.3c0,0-0.1,0-0.2,0c-0.2,0-0.4,0-0.7,0s-0.6,0-1,0s-0.8,0-1.3,0s-1,0-1.6,0c-0.3,0-0.6,0-0.9,0
				c-0.1,0-0.3,0-0.4,0c-0.2,0-0.3,0-0.5,0s-0.3,0-0.5,0s-0.3,0-0.5,0c-0.3,0-0.6,0-0.9,0c-0.3,0-0.6,0-1,0c-0.3,0-0.6,0-1,0
				c-0.6,0-1.3,0-1.9,0c-0.6,0-1.2,0-1.9,0c-0.3,0-0.6,0-0.9,0c-0.1,0-0.3,0-0.4,0c-0.1,0-0.1,0-0.2,0c-0.1,0-0.1,0-0.2,0
				c-0.3,0-0.5,0-0.8,0c-0.1,0-0.3,0-0.4,0c-0.1,0-0.3,0-0.4,0c-0.5,0-0.9,0-1.3,0s-0.7,0-1,0c-0.1,0-0.3,0-0.4,0
				c-0.1,0-0.2,0-0.3,0c-0.2,0-0.2,0-0.2,0s0.1,0,0.2,0c0.1,0,0.2,0,0.3,0s0.2,0,0.4,0c0.3,0,0.6,0,1-0.1c0.4,0,0.8,0,1.3,0
				c0.1,0,0.2,0,0.4,0c0.1,0,0.3,0,0.4,0c0.3,0,0.5,0,0.8,0c0.1,0,0.1,0,0.2,0c0.1,0,0.1,0,0.2,0c0.1,0,0.3,0,0.4,0
				c0.3,0,0.6,0,0.9-0.1c0.6,0,1.2-0.1,1.9,0c0.6,0,1.3,0,1.9,0c0.3,0,0.6,0,1,0c0.4,0,0.6,0,1,0c0.3,0,0.6,0,0.9,0
				c0.2,0,0.3,0,0.5,0s0.3,0,0.5,0s0.3,0,0.4,0c0.1,0,0.3,0,0.4,0c0.3,0,0.6,0,0.9,0c0.3,0,0.5,0,0.8,0c0.3,0,0.5,0,0.8,0
				c0.5,0,0.9,0,1.3,0.1c0.4,0,0.7,0,1,0c0.3,0,0.5,0,0.7,0C132,428.3,132.1,428.3,132.1,428.3z"/>
		</g>
	</g>
	<g display="inline">
		<path fill="#FFFFFF" d="M285.9,428.6c0,0,0.5,0,1.3,0c0.9,0,2.1,0,3.7,0c1.6,0,3.6,0,5.8-0.1c1.1,0,2.3-0.1,3.6-0.1s2.6,0,4,0
			s2.8,0.1,4.3,0c0.4,0,0.7,0,1.1,0c0.2,0,0.4,0,0.6,0c0.1,0,0.2,0,0.3,0c0.1,0,0.2,0,0.3,0c0.8,0,1.6,0,2.3,0c0.4,0,0.8,0,1.2,0
			c0.4,0,0.8,0,1.2,0c0.8,0,1.6,0,2.5,0c1.7,0,3.4,0,5.1,0s3.5,0,5.2,0c0.9,0,1.8,0.1,2.7,0.1c0.9,0,1.8,0,2.7,0
			c1.8,0,3.6,0,5.5-0.1c0.2,0,0.5,0,0.7,0s0.5,0,0.7,0c0.5,0,0.9,0,1.4,0c0.9,0,1.8,0,2.8,0c3.7,0,7.4,0,11,0c0.9,0,1.8,0,2.7,0
			c0.4,0,0.9,0,1.3,0h0.3c0.1,0,0.2,0,0.3,0c0.2,0,0.5,0,0.7,0.1h0.2h0.1l0,0l0,0c0.1,0,0.1,0,0.2,0s0.1,0,0.2,0c0.2,0,0.4,0,0.6,0
			c0.4,0,0.9-0.1,1.3-0.1c0.1,0,0.1,0,0.2,0l0,0l0,0h0.1h0.3c0.2,0,0.4,0,0.6,0c0.1,0,0.2,0,0.3,0h0.1h0.1c0.1,0,0.1,0,0.2,0
			c0.2,0,0.4,0,0.6,0c0.9,0,1.7,0,2.6,0c0.4,0,0.8,0,1.3,0c0.4,0,0.8,0,1.2,0c0.2,0,0.4,0,0.6,0c0.2,0,0.4,0,0.6,0
			c0.4,0,0.8,0.1,1.2,0.1c0.1,0,0.2,0,0.3,0c0.1,0,0.2,0,0.3,0c0.2,0,0.4-0.1,0.6-0.1c0.1,0,0.2,0,0.3,0h0.2h0.2c0.2,0,0.4,0,0.6,0
			s0.4,0,0.6,0c0.1,0,0.1,0,0.1,0s0,0,0.1,0c0,0,0,0,0.1,0s0.2,0,0.3,0c0.1,0,0.2,0,0.3,0c0.1,0,0.2,0,0.3,0c0.2,0,0.4,0,0.6,0
			c0.8,0,1.5,0,2.3,0s1.5,0,2.2,0c0.2,0,0.4,0,0.5,0s0.4,0,0.5,0c0.4,0,0.7,0.1,1,0c0.7,0,1.4-0.1,2-0.1c0.3,0,0.7,0.1,1,0.1
			c0.1,0,0.2,0,0.2,0h0.1h0.1c0.2,0,0.3,0,0.5,0c0.3,0,0.6,0,0.9,0s0.6,0,0.9,0c0.6,0,1.2,0,1.7,0c0.6,0,1.1,0,1.6,0
			c0.5,0,1,0,1.5,0c0.1,0,0.2,0,0.4,0c0.1,0,0.2,0,0.3,0c0.2,0,0.5,0,0.7,0c0.4,0,0.9,0,1.3,0c3.2,0,5.1,0,5.1,0s-1.8,0-5.1,0
			c-0.4,0-0.8,0-1.3,0c-0.2,0-0.4,0-0.7,0c-0.1,0-0.2,0-0.4,0c-0.1,0-0.2,0-0.4,0c-0.5,0-1,0-1.5,0c-0.5,0-1.1,0-1.6,0
			c-0.6,0-1.1,0-1.7,0c-0.3,0-0.6,0-0.9,0s-0.6,0-0.9,0c-0.2,0-0.3,0-0.5,0h-0.1h-0.1c-0.1,0-0.2,0-0.3,0c-0.3,0-0.7-0.1-1-0.1
			c-0.6,0-1.3,0.1-2,0.1c-0.4,0-0.7,0-1,0c-0.2,0-0.3,0-0.5,0s-0.4,0-0.5,0c-0.7,0-1.4,0-2.2,0s-1.5,0-2.3,0c-0.2,0-0.4,0-0.6,0
			c-0.1,0-0.2,0-0.3,0c-0.1,0-0.2,0-0.3,0s-0.2,0-0.3,0h-0.1h-0.1c-0.1,0-0.1,0-0.1,0c-0.2,0-0.4,0-0.6,0s-0.4,0-0.6,0h-0.1h-0.2
			c-0.1,0-0.2,0-0.3,0c-0.2,0-0.4,0.1-0.6,0.1c-0.1,0-0.2,0-0.3,0s-0.2,0-0.3,0c-0.4,0-0.8,0-1.2-0.1c-0.2,0-0.4,0-0.6,0
			s-0.4,0-0.6,0c-1.7,0-3.4,0-5.1,0c-0.2,0-0.4,0-0.6,0c-0.1,0-0.1,0-0.1,0h-0.1h-0.1c-0.1,0-0.2,0-0.3,0c-0.2,0-0.4,0-0.7,0H364
			h-0.1l0,0l0,0c-0.1,0-0.1,0-0.2,0c-0.4,0-0.9,0.1-1.3,0.1c-0.2,0-0.4,0-0.7,0c-0.1,0-0.2,0-0.3,0l0,0l0,0h-0.1h-0.2
			c-0.2,0-0.4,0-0.7-0.1c-0.1,0-0.2,0-0.3,0h-0.3c-0.4,0-0.9,0-1.3,0c-0.9,0-1.8,0-2.7,0c-3.6,0-7.3,0-11,0c-0.9,0-1.8,0-2.8,0
			c-0.5,0-0.9,0-1.4,0c-0.2,0-0.5,0-0.7,0s-0.5,0-0.7,0c-1.8,0-3.7,0-5.5,0c-0.9,0-1.8,0-2.7,0c-0.9,0-1.8-0.1-2.7-0.1
			c-1.8,0-3.5,0-5.2,0s-3.4,0-5.1,0c-0.8,0-1.7,0-2.5,0c-0.4,0-0.8,0-1.2,0c-0.4,0-0.8,0-1.2,0c-0.8,0-1.6-0.1-2.3-0.1
			c-0.1,0-0.2,0-0.3,0c-0.1,0-0.2,0-0.3,0c-0.2,0-0.4,0-0.6,0c-0.4,0-0.8,0-1.1,0c-1.5,0-2.9,0-4.3-0.1c-2.8-0.1-5.3,0-7.5,0
			c-2.2,0.1-4.2,0-5.8,0c-1.6,0-2.9-0.1-3.7-0.1C286.3,428.6,285.9,428.6,285.9,428.6z"/>
	</g>
	<g display="inline">
		<path fill="#FFFFFF" d="M432.2,428.6c0,0,2.1,0,5.8,0c0.2,0,0.5,0,0.7,0c0.2,0,0.5,0,0.7,0c0.1,0,0.3,0,0.4,0s0.3,0,0.4-0.1
			c0.3,0,0.5-0.1,0.8-0.1c0.6,0,1.1,0.1,1.7,0.1c0.3,0,0.6,0.1,0.9,0.1c0.1,0,0.2,0,0.2,0h0.2c0.2,0,0.3,0,0.5,0c2.6,0,5.5,0,8.6,0
			c1.6,0,3.2,0,4.9,0c0.9,0,1.7,0,2.6,0s1.8,0,2.7,0c0.1,0,0.2,0,0.3,0c0.1,0,0.2,0,0.3,0h0.1h0.1c0.1,0,0.1,0,0.2,0s0.2,0,0.4,0
			c0.5,0,0.9,0.1,1.4,0.1c0.4,0,0.9-0.1,1.4-0.2c0.2,0,0.5,0,0.7,0.1c0.1,0,0.2,0,0.3,0c0.1,0,0.2,0,0.3,0c1,0,1.9,0,2.9,0h0.2
			c0.1,0,0.1,0,0.2,0s0.2,0,0.4,0c0.2,0,0.5,0,0.7,0c0.1,0,0.3,0,0.4,0s0.3,0,0.4,0.1c0.1,0,0.2,0,0.4,0.1l0,0l0,0h0.1
			c0.1,0,0.1,0,0.2,0c0.5,0,1,0,1.4-0.1c0.2,0,0.5-0.1,0.7-0.1c0.2,0,0.5,0,0.8,0c0.3,0,0.5,0,0.8,0c0.1,0,0.3,0,0.4,0
			c0.1,0,0.2,0,0.4,0c0.2,0,0.5,0,0.7,0c0.3,0,0.5,0,0.8,0c1,0,2,0.1,3,0c0.3,0,0.5,0,0.8,0c0.3,0,0.5-0.1,0.8-0.1
			c0.1,0,0.3,0,0.4,0h0.1h0.1c0.1,0,0.1,0,0.2,0c0.3,0,0.5,0.1,0.8,0.1h0.1l0,0h0.1c0.1,0,0.1,0,0.2,0s0.3,0,0.4,0
			c0.3,0,0.5,0,0.8,0c0.3,0,0.5,0,0.8,0s0.5,0,0.8,0.1c0.3,0.1,0.5,0.1,0.8,0.1h0.2h0.2c0.1,0,0.3,0,0.4,0c0.5,0,1,0,1.5,0
			c0.1,0,0.3,0,0.4,0s0.1,0,0.2,0h0.1h0.1c0.1,0,0.2-0.1,0.4-0.1c0.1,0,0.1,0,0.2,0s0.2,0,0.2,0c0.3,0,0.5,0,0.8,0s0.5,0,0.8,0
			c1.1,0,2.1,0,3.2,0h1.6h0.8c0.3,0,0.5,0,0.8,0c0.5,0,1.1,0,1.6,0c0.5,0,1,0,1.6-0.1c0.3,0,0.5,0,0.8,0c0.3,0,0.5,0,0.8,0
			c0.1,0,0.3,0,0.4,0c0.1,0,0.3,0,0.4,0.1c0.1,0,0.3,0,0.4,0.1c0.1,0,0.1,0,0.2,0s0.1,0,0.2,0c0.5,0,1,0,1.6,0c0.5,0,1,0,1.6,0
			c0.6,0,1,0,1.5,0c0.3,0,0.5,0,0.8,0h0.4c0.1,0,0.3,0,0.4,0c0.5,0,1,0.1,1.5,0.1c0.5,0,1-0.1,1.5-0.1c0.1,0,0.3,0,0.4,0
			c0.1,0,0.3,0,0.4,0c0.3,0,0.5,0,0.8,0c0.5,0,1,0,1.5,0c1,0,2,0,3,0c0.5,0,1,0,1.5,0c0.5,0,1,0,1.5,0c1,0,1.9,0,2.9-0.1
			c0.2,0,0.5,0,0.7,0c0.1,0,0.1,0,0.2,0c0.1,0,0.1,0,0.2,0c0.1,0,0.2,0,0.3,0.1c0.2,0,0.5,0,0.7,0s0.5,0,0.7,0c0.5,0,0.9,0,1.4,0
			c0.1,0,0.2,0,0.3,0h0.1l0,0l0,0c0.1,0,0.1,0,0.2,0c0.2,0,0.4,0,0.7-0.1c0.4-0.1,0.9-0.1,1.3-0.2h0.2h0.2c0.1,0,0.2,0,0.3,0
			c0.2,0,0.4,0,0.7,0c0.4,0,0.9,0.1,1.3,0.2c0.1,0,0.2,0,0.3,0c0.1,0,0.2,0,0.3,0c0.2,0,0.4,0,0.6,0c0.2,0,0.4,0,0.6,0s0.4,0,0.6,0
			c0.4,0,0.8,0,1.2,0c0.8,0,1.6,0,2.4,0c0.8,0,1.6,0,2.3,0c0.4,0,0.7,0,1.1-0.1c0.4,0,0.7-0.1,1.1,0h0.1c0.1,0,0.1,0,0.1,0
			c0.1,0,0.2,0,0.3,0.1c0.2,0,0.3,0,0.5,0c0.1,0,0.2,0,0.3,0s0.2,0,0.3,0c0.2,0,0.3,0,0.5,0c0.7,0,1.3,0,2,0c1.3,0,2.5,0,3.6,0
			c0.6,0,1.1,0,1.6,0c0.5,0,1,0,1.5,0c0.2,0,0.5,0,0.7,0c0.2,0,0.4,0,0.6,0c0.4,0,0.8,0,1.2,0.1c0.4,0,0.7,0,1,0s0.6,0,0.8,0
			c1,0,1.5,0,1.5,0s-0.5,0-1.5,0c-0.2,0-0.5,0-0.8,0s-0.6,0-1,0c-0.7,0-1.5-0.1-2.5,0c-0.5,0-0.9,0-1.5,0.1c-0.5,0-1,0-1.6,0
			c-1.1,0-2.3,0-3.6,0c-0.6,0-1.3,0-2,0c-0.2,0-0.3,0-0.5,0c-0.1,0-0.2,0-0.3,0s-0.2,0-0.3,0c-0.2,0-0.4,0-0.5,0s-0.2,0-0.3-0.1
			c-0.1,0-0.2,0-0.3,0c-0.4,0-0.7,0-1.1,0c-0.4,0-0.7,0.1-1.1,0.1c-0.8,0-1.5,0-2.3,0c-0.8,0-1.6,0-2.4,0c-0.4,0-0.8,0-1.2,0
			c-0.2,0-0.4,0-0.6,0s-0.4,0-0.6,0c-0.2,0-0.4,0-0.6,0c-0.1,0-0.2,0-0.3,0c-0.1,0-0.2,0-0.3,0c-0.4-0.1-0.9-0.1-1.3-0.2
			c-0.2,0-0.4,0-0.7,0c-0.1,0-0.2,0-0.3,0H537h-0.2c-0.4,0-0.9,0.1-1.3,0.2c-0.2,0-0.5,0.1-0.7,0.1c-0.1,0-0.1,0-0.2,0l0,0l0,0h-0.1
			c-0.1,0-0.2,0-0.3,0c-0.5,0-0.9,0-1.4,0c-0.2,0-0.5,0-0.7,0s-0.5,0-0.7,0c-0.1,0-0.2,0-0.4-0.1c-0.1,0-0.1,0-0.2,0
			c-0.1,0-0.1,0-0.2,0c-0.2,0-0.4,0-0.7,0c-1,0.1-1.9,0.1-2.9,0.1c-0.5,0-1,0-1.5,0c-0.5,0-1,0-1.5,0c-1,0-2,0-3,0c-0.5,0-1,0-1.5,0
			c-0.3,0-0.5,0-0.8,0c-0.1,0-0.3,0-0.4,0s-0.2,0-0.4,0c-0.5,0-1,0.1-1.5,0.1c-0.5,0-1,0-1.5,0c-0.1,0-0.3,0-0.4,0h-0.4
			c-0.3,0-0.5,0-0.8,0c-0.5,0-1,0-1.5,0c-0.5,0-1,0-1.6,0c-0.5,0-1,0-1.6,0c-0.1,0-0.1,0-0.2,0s-0.1,0-0.2,0s-0.3,0-0.4-0.1
			c-0.1,0-0.3,0-0.4-0.1c-0.1,0-0.2,0-0.4,0c-0.3,0-0.5,0-0.8,0c-0.3,0-0.5,0-0.8,0c-0.5,0-1,0-1.6,0.1c-0.5,0-1.1,0-1.6,0
			c-0.3,0-0.5,0-0.8,0H501h-1.6c-1.1,0-2.1,0-3.2,0c-0.5,0-1.1,0-1.6,0c-0.1,0-0.1,0-0.2,0s-0.1,0-0.2,0c-0.1,0-0.3,0.1-0.4,0.1
			h-0.1h-0.1c-0.1,0-0.1,0-0.2,0c-0.1,0-0.3,0-0.4,0c-0.5,0-1.1,0-1.6,0c-0.1,0-0.3,0-0.4,0h-0.2h-0.2c-0.3,0-0.5-0.1-0.8-0.1
			c-0.3,0-0.5-0.1-0.8-0.1c-0.2,0-0.5,0-0.8,0c-0.5,0-1,0-1.6,0c-0.3,0-0.5-0.1-0.8-0.1c-0.2,0-0.5,0-0.7,0c-0.3,0-0.5,0.1-0.8,0.1
			c-0.3,0-0.5,0-0.8,0c-1,0-2.1,0-3.1,0c-0.3,0-0.5,0-0.8,0c-0.3,0-0.5,0-0.8,0c-0.1,0-0.3,0-0.4,0s-0.3,0-0.4,0c-0.2,0-0.5,0-0.7,0
			s-0.5,0-0.7,0s-0.5,0.1-0.7,0.1c-0.5,0.1-1,0.1-1.5,0.1c-0.1,0-0.1,0-0.2,0h-0.1l0,0H474c-0.1,0-0.2,0-0.4-0.1
			c-0.1,0-0.2,0-0.3-0.1c-0.1,0-0.2,0-0.4,0c-0.2,0-0.5,0-0.7,0c-0.1,0-0.2,0-0.4,0c-0.1,0-0.1,0-0.2,0h-0.2c-1,0-1.9,0-2.9,0
			c-0.1,0-0.2,0-0.4,0c-0.1,0-0.2,0-0.4,0c-0.2,0-0.5-0.1-0.7-0.1c-0.4,0-0.9,0.1-1.4,0.1c-0.5,0-0.9-0.1-1.4-0.1
			c-0.1,0-0.2,0-0.3,0c-0.1,0-0.1,0-0.2,0h-0.1h-0.1l0,0l0,0h-0.1h-0.2c-0.1,0-0.2,0-0.3,0c-0.9,0.1-1.8,0-2.7,0s-1.7,0-2.6,0
			c-1.7,0-3.3,0-4.9,0c-3.2,0-6,0-8.6,0c-0.2,0-0.3,0-0.5,0c-0.1,0-0.2,0-0.2,0c-0.1,0-0.2,0-0.2,0c-0.3,0-0.6,0-0.9-0.1
			c-0.3,0-0.6-0.1-0.9-0.1c-0.1,0-0.3,0-0.4,0s-0.3,0-0.4,0c-0.3,0-0.5,0.1-0.8,0.1c-0.1,0-0.3,0-0.4,0s-0.3,0-0.4,0
			c-0.3,0-0.5,0-0.7,0s-0.5,0-0.7,0C434.4,428.7,432.2,428.6,432.2,428.6z"/>
	</g>
</g>
<g id="_x31_L_x5F_Copper_x5F_Front" display="none">
	<g transform="translate(10,10)" display="inline">
		<g>
			<g>
				<polyline fill="#B87332" points="41.2,409.7 43.4,408.2 43.4,409 				"/>
			</g>
		</g>
	</g>
	<path display="inline" fill="#B87332" d="M51.2,423.3l2.2-1.5v0.3"/>
	<path display="inline" fill="#B87332" d="M51.2,426.9l2.2-1.5v0.2"/>
	<path display="inline" fill="#B87332" d="M51.2,430.4l2.2-1.5l0,0"/>
	<path display="inline" fill="#B87332" d="M54.5,419.7l2.2-1.5v1"/>
	<path display="inline" fill="#B87332" d="M54.5,423.3l2.2-1.5v0.1"/>
	<path display="inline" fill="#B87332" d="M54.5,426.9l2.2-1.5v0.3"/>
	<path display="inline" fill="#B87332" d="M54.5,430.4l2.2-1.5v0.1"/>
	<path display="inline" fill="#B87332" d="M57.9,419.7l2.2-1.5v1.1"/>
	<path display="inline" fill="#B87332" d="M57.9,423.3l2.2-1.5v0.5"/>
	<path display="inline" fill="#B87332" d="M57.9,426.9l2.2-1.5v0.3"/>
	<path display="inline" fill="#B87332" d="M57.9,430.4l2.2-1.5v0.1"/>
	<path display="inline" fill="#B87332" d="M61.3,419.7l2.2-1.5v1.5"/>
	<path display="inline" fill="#B87332" d="M61.3,423.3l2.2-1.5v0.9"/>
	<path display="inline" fill="#B87332" d="M61.3,426.9l2.2-1.5v0.5"/>
	<path display="inline" fill="#B87332" d="M61.3,430.4l2.2-1.5v0.3"/>
	<path display="inline" fill="#B87332" d="M64.6,419.7l2.2-1.5v1.9"/>
	<path display="inline" fill="#B87332" d="M64.6,423.3l2.2-1.5v1"/>
	<path display="inline" fill="#B87332" d="M64.6,426.9l2.2-1.5v0.7"/>
	<path display="inline" fill="#B87332" d="M64.6,430.4l2.2-1.5v0.5"/>
	<path display="inline" fill="#B87332" d="M68,419.7l2.2-1.5v2.5"/>
	<path display="inline" fill="#B87332" d="M68,423.3l2.2-1.5v1.2"/>
	<path display="inline" fill="#B87332" d="M68,426.9l2.2-1.5v0.8"/>
	<path display="inline" fill="#B87332" d="M68,430.4l2.2-1.5v0.6"/>
</g>
<g id="_x31_L_x5F_Print_x5F_Back" display="none">
	<g display="inline">
		<g>
			<g>
				<g>
					
						<line fill="none" stroke="#FFFFFF" stroke-width="0.5" stroke-linecap="round" stroke-miterlimit="10" x1="51.2" y1="418.2" x2="51.2" y2="420.9"/>
				</g>
				<g transform="translate(10,10)">
					
						<line fill="none" stroke="#FFFFFF" stroke-width="0.5" stroke-linecap="round" stroke-miterlimit="10" x1="43.4" y1="408.2" x2="43.4" y2="410.9"/>
					
						<line fill="none" stroke="#FFFFFF" stroke-width="0.5" stroke-linecap="round" stroke-miterlimit="10" x1="41.2" y1="411.7" x2="41.2" y2="414.5"/>
				</g>
				<g transform="translate(10,230)">
					<path fill="#FFFFFF" d="M41.2,193l2.2-1.2v0.2"/>
				</g>
				<g transform="translate(10,230)">
					
						<line fill="none" stroke="#FFFFFF" stroke-width="0.5" stroke-linecap="round" stroke-miterlimit="10" x1="43.4" y1="191.7" x2="43.4" y2="194.5"/>
					
						<line fill="none" stroke="#FFFFFF" stroke-width="0.5" stroke-linecap="round" stroke-miterlimit="10" x1="41.2" y1="195.3" x2="41.2" y2="198.1"/>
				</g>
				<g transform="translate(10,450)">
					<path fill="#FFFFFF" d="M41.2-23.5l2.2-1.2v0.1"/>
				</g>
				<g transform="translate(10,450)">
					
						<line fill="none" stroke="#FFFFFF" stroke-width="0.5" stroke-linecap="round" stroke-miterlimit="10" x1="43.4" y1="-24.7" x2="43.4" y2="-21.9"/>
					
						<line fill="none" stroke="#FFFFFF" stroke-width="0.5" stroke-linecap="round" stroke-miterlimit="10" x1="41.2" y1="-21.1" x2="41.2" y2="-18.3"/>
				</g>
				<polyline fill="#FFFFFF" points="51.2,419.4 53.4,418.8 53.4,418.2 51.2,419.4 				"/>
			</g>
			
				<line fill="none" stroke="#FFFFFF" stroke-width="0.5" stroke-linecap="round" stroke-miterlimit="10" x1="53.4" y1="428.9" x2="53.4" y2="431.7"/>
		</g>
		<g>
			
				<line fill="none" stroke="#FFFFFF" stroke-width="0.5" stroke-linecap="round" stroke-miterlimit="10" x1="54.5" y1="418.2" x2="54.5" y2="420.9"/>
			<g transform="translate(175,10)">
				<path fill="#FFFFFF" d="M-120.5,409.4l2.2-1.2v0.8"/>
			</g>
			<g transform="translate(175,10)">
				
					<line fill="none" stroke="#FFFFFF" stroke-width="0.5" stroke-linecap="round" stroke-miterlimit="10" x1="-118.3" y1="408.2" x2="-118.3" y2="410.9"/>
				
					<line fill="none" stroke="#FFFFFF" stroke-width="0.5" stroke-linecap="round" stroke-miterlimit="10" x1="-120.5" y1="411.7" x2="-120.5" y2="414.5"/>
			</g>
			<g transform="translate(175,230)">
				<path fill="#FFFFFF" d="M-120.5,193l2.2-1.2v0.2"/>
			</g>
			<g transform="translate(175,230)">
				
					<line fill="none" stroke="#FFFFFF" stroke-width="0.5" stroke-linecap="round" stroke-miterlimit="10" x1="-118.3" y1="191.7" x2="-118.3" y2="194.5"/>
				
					<line fill="none" stroke="#FFFFFF" stroke-width="0.5" stroke-linecap="round" stroke-miterlimit="10" x1="-120.5" y1="195.3" x2="-120.5" y2="198.1"/>
			</g>
			<g transform="translate(175,450)">
				<path fill="#FFFFFF" d="M-120.5-23.5l2.2-1.2v0.2"/>
			</g>
			<g transform="translate(175,450)">
				
					<line fill="none" stroke="#FFFFFF" stroke-width="0.5" stroke-linecap="round" stroke-miterlimit="10" x1="-118.3" y1="-24.7" x2="-118.3" y2="-21.9"/>
				
					<line fill="none" stroke="#FFFFFF" stroke-width="0.5" stroke-linecap="round" stroke-miterlimit="10" x1="-120.5" y1="-21.1" x2="-120.5" y2="-18.3"/>
			</g>
			
				<line fill="none" stroke="#FFFFFF" stroke-width="0.5" stroke-linecap="round" stroke-miterlimit="10" x1="56.7" y1="428.9" x2="56.7" y2="431.7"/>
		</g>
		<g>
			
				<line fill="none" stroke="#FFFFFF" stroke-width="0.5" stroke-linecap="round" stroke-miterlimit="10" x1="57.9" y1="418.2" x2="57.9" y2="420.9"/>
			<g transform="translate(340,10)">
				<path fill="#FFFFFF" d="M-282.1,409.4l2.2-1.2v1"/>
			</g>
			<g transform="translate(340,10)">
				
					<line fill="none" stroke="#FFFFFF" stroke-width="0.5" stroke-linecap="round" stroke-miterlimit="10" x1="-279.9" y1="408.2" x2="-279.9" y2="410.9"/>
				
					<line fill="none" stroke="#FFFFFF" stroke-width="0.5" stroke-linecap="round" stroke-miterlimit="10" x1="-282.1" y1="411.7" x2="-282.1" y2="414.5"/>
			</g>
			<g transform="translate(340,230)">
				<path fill="#FFFFFF" d="M-282.1,193l2.2-1.2v0.1"/>
			</g>
			<g transform="translate(340,230)">
				
					<line fill="none" stroke="#FFFFFF" stroke-width="0.5" stroke-linecap="round" stroke-miterlimit="10" x1="-279.9" y1="191.7" x2="-279.9" y2="194.5"/>
				
					<line fill="none" stroke="#FFFFFF" stroke-width="0.5" stroke-linecap="round" stroke-miterlimit="10" x1="-282.1" y1="195.3" x2="-282.1" y2="198.1"/>
			</g>
			<g transform="translate(340,450)">
				<path fill="#FFFFFF" d="M-282.1-23.5l2.2-1.2v0.2"/>
			</g>
			<g transform="translate(340,450)">
				
					<line fill="none" stroke="#FFFFFF" stroke-width="0.5" stroke-linecap="round" stroke-miterlimit="10" x1="-279.9" y1="-24.7" x2="-279.9" y2="-21.9"/>
				
					<line fill="none" stroke="#FFFFFF" stroke-width="0.5" stroke-linecap="round" stroke-miterlimit="10" x1="-282.1" y1="-21.1" x2="-282.1" y2="-18.3"/>
			</g>
			
				<line fill="none" stroke="#FFFFFF" stroke-width="0.5" stroke-linecap="round" stroke-miterlimit="10" x1="60.1" y1="428.9" x2="60.1" y2="431.7"/>
		</g>
		<g>
			
				<line fill="none" stroke="#FFFFFF" stroke-width="0.5" stroke-linecap="round" stroke-miterlimit="10" x1="61.3" y1="418.2" x2="61.3" y2="420.9"/>
			<g transform="translate(505,10)">
				<path fill="#FFFFFF" d="M-443.7,409.4l2.2-1.2v1.3"/>
			</g>
			<g transform="translate(505,10)">
				
					<line fill="none" stroke="#FFFFFF" stroke-width="0.5" stroke-linecap="round" stroke-miterlimit="10" x1="-441.5" y1="408.2" x2="-441.5" y2="410.9"/>
				
					<line fill="none" stroke="#FFFFFF" stroke-width="0.5" stroke-linecap="round" stroke-miterlimit="10" x1="-443.7" y1="411.7" x2="-443.7" y2="414.5"/>
			</g>
			<g transform="translate(505,230)">
				<path fill="#FFFFFF" d="M-443.7,193l2.2-1.2v0.2"/>
			</g>
			<g transform="translate(505,230)">
				
					<line fill="none" stroke="#FFFFFF" stroke-width="0.5" stroke-linecap="round" stroke-miterlimit="10" x1="-441.5" y1="191.7" x2="-441.5" y2="194.5"/>
				
					<line fill="none" stroke="#FFFFFF" stroke-width="0.5" stroke-linecap="round" stroke-miterlimit="10" x1="-443.7" y1="195.3" x2="-443.7" y2="198.1"/>
			</g>
			<g transform="translate(505,450)">
				<path fill="#FFFFFF" d="M-443.7-23.5l2.2-1.2v0.1"/>
			</g>
			<g transform="translate(505,450)">
				
					<line fill="none" stroke="#FFFFFF" stroke-width="0.5" stroke-linecap="round" stroke-miterlimit="10" x1="-441.5" y1="-24.7" x2="-441.5" y2="-21.9"/>
				
					<line fill="none" stroke="#FFFFFF" stroke-width="0.5" stroke-linecap="round" stroke-miterlimit="10" x1="-443.7" y1="-21.1" x2="-443.7" y2="-18.3"/>
			</g>
			
				<line fill="none" stroke="#FFFFFF" stroke-width="0.5" stroke-linecap="round" stroke-miterlimit="10" x1="63.5" y1="428.9" x2="63.5" y2="431.7"/>
		</g>
		<g>
			
				<line fill="none" stroke="#FFFFFF" stroke-width="0.5" stroke-linecap="round" stroke-miterlimit="10" x1="64.6" y1="418.2" x2="64.6" y2="420.9"/>
			<g transform="translate(670,10)">
				<path fill="#FFFFFF" d="M-605.4,409.4l2.2-1.2v1.5"/>
			</g>
			<g transform="translate(670,10)">
				
					<line fill="none" stroke="#FFFFFF" stroke-width="0.5" stroke-linecap="round" stroke-miterlimit="10" x1="-603.2" y1="408.2" x2="-603.2" y2="410.9"/>
				
					<line fill="none" stroke="#FFFFFF" stroke-width="0.5" stroke-linecap="round" stroke-miterlimit="10" x1="-605.4" y1="411.7" x2="-605.4" y2="414.5"/>
			</g>
			<g transform="translate(670,230)">
				<path fill="#FFFFFF" d="M-605.4,193l2.2-1.2v0.3"/>
			</g>
			<g transform="translate(670,230)">
				
					<line fill="none" stroke="#FFFFFF" stroke-width="0.5" stroke-linecap="round" stroke-miterlimit="10" x1="-603.2" y1="191.7" x2="-603.2" y2="194.5"/>
				
					<line fill="none" stroke="#FFFFFF" stroke-width="0.5" stroke-linecap="round" stroke-miterlimit="10" x1="-605.4" y1="195.3" x2="-605.4" y2="198.1"/>
			</g>
			<g transform="translate(670,450)">
				<path fill="#FFFFFF" d="M-605.4-23.5l2.2-1.2v0.2"/>
			</g>
			<g transform="translate(670,450)">
				
					<line fill="none" stroke="#FFFFFF" stroke-width="0.5" stroke-linecap="round" stroke-miterlimit="10" x1="-603.2" y1="-24.7" x2="-603.2" y2="-21.9"/>
				
					<line fill="none" stroke="#FFFFFF" stroke-width="0.5" stroke-linecap="round" stroke-miterlimit="10" x1="-605.4" y1="-21.1" x2="-605.4" y2="-18.3"/>
			</g>
			
				<line fill="none" stroke="#FFFFFF" stroke-width="0.5" stroke-linecap="round" stroke-miterlimit="10" x1="66.8" y1="428.9" x2="66.8" y2="431.7"/>
		</g>
		<g>
			
				<line fill="none" stroke="#FFFFFF" stroke-width="0.5" stroke-linecap="round" stroke-miterlimit="10" x1="68" y1="418.2" x2="68" y2="420.9"/>
			<g transform="translate(835,10)">
				<path fill="#FFFFFF" d="M-767,409.4l2.2-1.2v1.7"/>
			</g>
			<g transform="translate(835,10)">
				
					<line fill="none" stroke="#FFFFFF" stroke-width="0.5" stroke-linecap="round" stroke-miterlimit="10" x1="-764.8" y1="408.2" x2="-764.8" y2="410.9"/>
				
					<line fill="none" stroke="#FFFFFF" stroke-width="0.5" stroke-linecap="round" stroke-miterlimit="10" x1="-767" y1="411.7" x2="-767" y2="414.5"/>
			</g>
			<g transform="translate(835,230)">
				<path fill="#FFFFFF" d="M-767,193l2.2-1.2v0.3"/>
			</g>
			<g transform="translate(835,230)">
				
					<line fill="none" stroke="#FFFFFF" stroke-width="0.5" stroke-linecap="round" stroke-miterlimit="10" x1="-764.8" y1="191.7" x2="-764.8" y2="194.5"/>
				
					<line fill="none" stroke="#FFFFFF" stroke-width="0.5" stroke-linecap="round" stroke-miterlimit="10" x1="-767" y1="195.3" x2="-767" y2="198.1"/>
			</g>
			<g transform="translate(835,450)">
				<path fill="#FFFFFF" d="M-767-23.5l2.2-1.2v0.2"/>
			</g>
			<g transform="translate(835,450)">
				
					<line fill="none" stroke="#FFFFFF" stroke-width="0.5" stroke-linecap="round" stroke-miterlimit="10" x1="-764.8" y1="-24.7" x2="-764.8" y2="-21.9"/>
				
					<line fill="none" stroke="#FFFFFF" stroke-width="0.5" stroke-linecap="round" stroke-miterlimit="10" x1="-767" y1="-21.1" x2="-767" y2="-18.3"/>
			</g>
			<g transform="translate(835,670)">
				
					<line fill="none" stroke="#FFFFFF" stroke-width="0.5" stroke-linecap="round" stroke-miterlimit="10" x1="-764.8" y1="-241.1" x2="-764.8" y2="-238.3"/>
			</g>
		</g>
	</g>
</g>
<g id="AR_x5F_layer" opacity="5.000000e-02">
	<g>
		<polygon fill="#B77432" points="53.6,417.8 53.3,418 51.4,419.1 51.4,418.2 51,418.2 51,420.9 51.4,420.9 51.4,419.8 51.7,419.5 
			53.2,419 53.2,420.9 53.6,420.9 53.6,419 53.6,418.9 53.6,418.9 53.6,417.9 53.6,417.9 		"/>
		<polygon fill="#B77432" points="51.4,422.7 51.4,421.7 51,421.7 51,424.5 51.4,424.5 51.4,423.4 52.6,422.5 53.2,422.2 
			53.2,424.5 53.6,424.5 53.6,422 53.6,422 53.6,421.7 53.6,421.4 53.6,421.4 53.3,421.6 		"/>
		<polygon fill="#B77432" points="51.4,426.2 51.4,425.3 51,425.3 51,428.1 51.4,428.1 51.4,427 53.2,425.7 53.2,428.1 53.6,428.1 
			53.6,425.5 53.6,425.4 53.6,425.3 53.6,425 53.6,425 53.3,425.2 		"/>
		<polygon fill="#B77432" points="51.4,428.9 51,428.9 51,431.7 51.4,431.7 51.4,430.5 53.5,429 53.4,428.9 53.4,428.9 53.4,428.9 
			53.6,428.9 53.6,428.6 51.4,430.1 		"/>
		<polygon fill="#B77432" points="54.7,419.1 54.7,418.2 54.4,418.2 54.4,420.9 54.7,420.9 54.7,419.8 55,419.6 56.6,419.2 
			56.6,420.9 56.9,420.9 56.9,419.1 56.9,418.9 56.9,418.2 56.9,417.9 56.9,417.8 56.6,418 		"/>
		<polygon fill="#B77432" points="54.7,422.7 54.7,421.7 54.4,421.7 54.4,424.5 54.7,424.5 54.7,423.4 56.6,422.1 56.6,424.5 
			56.9,424.5 56.9,422 56.9,421.9 56.9,421.7 56.9,421.4 56.9,421.4 56.6,421.6 		"/>
		<polygon fill="#B77432" points="54.7,426.2 54.7,425.3 54.4,425.3 54.4,428.1 54.7,428.1 54.7,427 56.2,425.9 56.6,425.7 
			56.6,428.1 56.9,428.1 56.9,425.6 56.9,425.5 56.9,425.3 56.9,425 56.9,425 56.6,425.2 		"/>
		<polygon fill="#B77432" points="54.7,428.9 54.4,428.9 54.4,431.7 54.7,431.7 54.7,430.5 56.6,429.2 56.6,431.7 56.9,431.7 
			56.9,429 56.9,428.9 56.9,428.6 54.7,430.1 		"/>
		<polygon fill="#B77432" points="58.1,419.1 58.1,418.2 57.7,418.2 57.7,420.9 58.1,420.9 58.1,419.8 58.3,419.7 59.9,419.3 
			59.9,420.9 60.3,420.9 60.3,419.3 60.3,419.1 60.3,418.2 60.3,417.9 60.3,417.8 60,418 		"/>
		<polygon fill="#B77432" points="58.1,422.7 58.1,421.7 57.7,421.7 57.7,424.5 58.1,424.5 58.1,423.4 58.8,422.9 59.9,422.3 
			59.9,424.5 60.3,424.5 60.3,422.2 60.3,421.8 60.3,421.7 60.3,421.4 60.3,421.4 60,421.6 		"/>
		<polygon fill="#B77432" points="58.1,426.2 58.1,425.3 57.7,425.3 57.7,428.1 58.1,428.1 58.1,427 59.3,426.1 59.9,425.8 
			59.9,428.1 60.3,428.1 60.3,425.6 60.3,425.5 60.3,425.3 60.3,425 60.3,425 60,425.2 		"/>
		<polygon fill="#B77432" points="58.1,428.9 57.7,428.9 57.7,431.7 58.1,431.7 58.1,430.5 59.9,429.2 59.9,431.7 60.3,431.7 
			60.3,429 60.3,428.9 60.3,428.6 58.1,430.1 		"/>
		<polygon fill="#B77432" points="61.4,419.1 61.4,418.2 61.1,418.2 61.1,420.9 61.4,420.9 61.4,419.8 61.6,419.7 63.3,419.7 
			63.3,420.9 63.6,420.9 63.6,419.7 63.6,419.4 63.6,418.2 63.6,417.9 63.6,417.8 63.4,418 		"/>
		<polygon fill="#B77432" points="61.4,422.7 61.4,421.7 61.1,421.7 61.1,424.5 61.4,424.5 61.4,423.4 61.8,423.2 63.3,422.7 
			63.3,424.5 63.6,424.5 63.6,422.6 63.6,422 63.6,421.7 63.6,421.4 63.6,421.4 63.4,421.6 		"/>
		<polygon fill="#B77432" points="61.4,426.2 61.4,425.3 61.1,425.3 61.1,428.1 61.4,428.1 61.4,427 62.2,426.4 63.3,425.9 
			63.3,428.1 63.6,428.1 63.6,425.8 63.6,425.4 63.6,425.3 63.6,425 63.6,425 63.4,425.2 		"/>
		<polygon fill="#B77432" points="61.4,428.9 61.1,428.9 61.1,431.7 61.4,431.7 61.4,430.5 62.7,429.6 63.3,429.3 63.3,431.7 
			63.6,431.7 63.6,429.2 63.6,428.9 63.6,428.6 61.4,430.1 		"/>
		<polygon fill="#B77432" points="64.8,419.1 64.8,418.2 64.4,418.2 64.4,420.9 64.8,420.9 64.8,419.8 64.9,419.8 66.6,420.1 
			66.6,420.1 66.6,420.9 67,420.9 67,420.1 67,419.6 67,418.2 67,417.9 67,417.8 66.7,418 		"/>
		<polygon fill="#B77432" points="64.8,422.7 64.8,421.7 64.4,421.7 64.4,424.5 64.8,424.5 64.8,423.4 65.1,423.2 66.6,422.8 
			66.6,424.5 67,424.5 67,422.7 67,422 67,421.7 67,421.4 67,421.4 66.7,421.6 		"/>
		<polygon fill="#B77432" points="64.8,426.2 64.8,425.3 64.4,425.3 64.4,428.1 64.8,428.1 64.8,427 65.3,426.6 66.6,426.1 
			66.6,428.1 67,428.1 67,426 67,425.5 67,425.3 67,425 67,425 66.7,425.2 		"/>
		<polygon fill="#B77432" points="64.8,428.9 64.4,428.9 64.4,431.7 64.8,431.7 64.8,430.5 65.6,430 66.6,429.5 66.6,431.7 
			67,431.7 67,429.4 67,428.9 67,428.6 64.8,430.1 		"/>
		<polygon fill="#B77432" points="70.1,418 68.2,419.1 68.2,418.2 67.8,418.2 67.8,420.9 68.2,420.9 68.2,419.8 68.2,419.8 
			70,420.6 70,420.6 70,420.9 70.4,420.9 70.4,420.6 70.4,419.8 70.4,418.2 70.4,417.9 70.4,417.8 		"/>
		<polygon fill="#B77432" points="68.2,422.7 68.2,421.7 67.8,421.7 67.8,424.5 68.2,424.5 68.2,423.4 68.4,423.2 70,423 70,424.5 
			70.4,424.5 70.4,422.9 70.4,422.1 70.4,421.7 70.4,421.4 70.4,421.4 70.1,421.6 		"/>
		<polygon fill="#B77432" points="68.2,426.2 68.2,425.3 67.8,425.3 67.8,428.1 68.2,428.1 68.2,427 68.5,426.7 70,426.2 70,428.1 
			70.4,428.1 70.4,426.1 70.4,425.6 70.4,425.3 70.4,425 70.4,425 70.1,425.2 		"/>
		<polygon fill="#B77432" points="68.2,428.9 67.8,428.9 67.8,431.7 68.2,431.7 68.2,430.5 68.8,430.1 70,429.6 70,431.7 
			70.4,431.7 70.4,429.5 70.4,428.9 70.4,428.6 68.2,430.1 		"/>
	</g>
</g>
</svg>
