<?xml version="1.0" encoding="utf-8"?>
<!-- Generator: Adobe Illustrator 18.0.0, SVG Export Plug-In . SVG Version: 6.00 Build 0)  -->
<!DOCTYPE svg PUBLIC "-//W3C//DTD SVG 1.1//EN" "http://www.w3.org/Graphics/SVG/1.1/DTD/svg11.dtd">
<svg version="1.1" id="AR_x5F_layer" xmlns="http://www.w3.org/2000/svg" xmlns:xlink="http://www.w3.org/1999/xlink" x="0px"
	 y="0px" width="9451.45px" height="623.52px" viewBox="0 0 9451.45 623.52" enable-background="new 0 0 9451.45 623.52"
	 xml:space="preserve">
<path opacity="0.01" d="M7243.06,523.9c-0.37-2.32-2.54-3.91-4.87-3.53L7149,534.56l-85.62,4.61c-0.09,0-0.19,0.01-0.28,0.02
	l-94.18,11.37c-0.07,0.01-0.15,0.02-0.22,0.03l-71.23,12.44l-96.29-14.35c-0.37-0.05-0.75-0.06-1.12-0.02l-91.48,10.76l-87.48,4.96
	c-0.11,0.01-0.22,0.02-0.33,0.03l-78.85,10.68l-99.02-2.18l-56.49-8.78l23.42-9.22l89.42-23.38l83.33-5.62l0.41-0.03l89.06-23.66
	l0.32-0.08l91.74-40.17l0.36-0.16l88.41-59.78l21.77-8.62l18.4,0.53l87.4,3.04l88.89,27.8c0.38,0.12,0.78,0.18,1.19,0.19l89.41,1.75
	c0.03,0,0.06,0,0.08,0c2.31,0,4.2-1.85,4.25-4.17c0.05-2.35-1.82-4.29-4.17-4.33l-88.8-1.74l-88.86-27.79
	c-0.36-0.11-0.74-0.18-1.12-0.19l-86.65-3.01l44.64-17.66l91.46-35.41l85.4-149.46l85.69-40.88l-3.66-7.68l-88.09,42.02
	l-85.22,149.15l-88.67,34.33l-63.06,24.95l-69.97-2.02l-81.41-32.5c-0.53-0.21-1.11-0.32-1.66-0.3l-90.65,1.74l-85.63-21.72
	c-0.46-0.12-0.93-0.16-1.4-0.12l-87.47,7.39l-89.84-13.83l-35.87-15.95l40.39-13.52l86.17-17.75l95.79,1.88l77.08,5.17
	c0.61,0.04,1.21-0.05,1.78-0.26l90.28-33.92c0.05-0.02,0.1-0.04,0.16-0.06l91.04-38.37l83.04-8.52l88.41-6.48
	c0.72-0.05,1.41-0.29,2.01-0.68l89.1-58.08l85.76-4.83c2.34-0.13,4.14-2.14,4.01-4.48c-0.13-2.34-2.13-4.15-4.48-4.01l-86.89,4.89
	c-0.74,0.04-1.46,0.28-2.08,0.68l-89.13,58.1l-87.38,6.4c-0.04,0-0.08,0.01-0.12,0.01l-83.73,8.59c-0.42,0.04-0.83,0.15-1.22,0.31
	l-91.55,38.59l-89.34,33.57l-76.26-5.12c-0.07,0-0.13-0.01-0.2-0.01l-96.37-1.89c-0.32-0.01-0.63,0.02-0.94,0.09l-86.89,17.9
	c-0.17,0.03-0.33,0.08-0.49,0.13l-49.43,16.55l-38.62-17.17c-0.49-0.22-1.01-0.34-1.54-0.36l-87.97-3.93l-86.37-3.93
	c-2.33-0.11-4.33,1.71-4.44,4.05c-0.11,2.35,1.71,4.33,4.05,4.44l86.38,3.93l87.17,3.89l29.4,13.07l-28.08,9.4l-86.2,2.33h-88.47
	c-2.35,0-4.25,1.9-4.25,4.25s1.9,4.25,4.25,4.25h88.53c0.04,0,0.08,0,0.12,0l86.89-2.35c0.42-0.01,0.84-0.08,1.23-0.22l37.48-12.55
	l44.87,19.95c0.34,0.15,0.71,0.26,1.08,0.32l90.9,13.99c0.33,0.05,0.67,0.06,1,0.04l87.26-7.37l85.5,21.68
	c0.37,0.09,0.75,0.14,1.13,0.13l90.36-1.73l81.31,32.46c0.46,0.18,0.96,0.29,1.45,0.3l50.94,1.47l-4.23,1.67l-88.53,59.86
	l-90.79,39.75l-87.95,23.36l-83.32,5.62l-0.4,0.03l-90.44,23.65l-0.25,0.06l-37.42,14.74l-8.85-1.38c-0.41-0.06-0.82-0.07-1.22-0.01
	l-88.62,11.96l-88.6,12.06c-2.33,0.32-3.96,2.46-3.64,4.79c0.29,2.13,2.11,3.68,4.21,3.68c0.19,0,0.38-0.01,0.58-0.04l88.6-12.06
	l75.03-10.13l-23.6,9.29l-91.13,15.46l-90.04,12.23l1.14,8.43l90.11-12.24l91.77-15.57l0.44-0.07l44.81-17.65l71.13,11.06
	c0.19,0.03,0.37,0.05,0.56,0.05l99.64,2.19c0.23,0.01,0.44-0.01,0.66-0.04l79.02-10.7l87.44-4.96c0.08,0,0.17-0.01,0.26-0.02
	l91.05-10.71l96.41,14.37c0.45,0.07,0.91,0.06,1.36-0.02l71.8-12.54l93.93-11.34l85.7-4.61c0.15-0.01,0.29-0.02,0.44-0.05
	l89.41-14.22C7241.85,528.4,7243.43,526.22,7243.06,523.9z"/>
</svg>
