<?xml version="1.0" encoding="utf-8"?>
<!-- Generator: Adobe Illustrator 23.0.1, SVG Export Plug-In . SVG Version: 6.00 Build 0)  -->
<svg version="1.1" id="AR_x5F_layer" xmlns="http://www.w3.org/2000/svg" xmlns:xlink="http://www.w3.org/1999/xlink" x="0px"
	 y="0px" width="9451.5px" height="623.5px" viewBox="0 0 9451.5 623.5" style="enable-background:new 0 0 9451.5 623.5;"
	 xml:space="preserve">
<style type="text/css">
	.st0{opacity:1.000000e-02;enable-background:new    ;}
	.st1{opacity:1.000000e-02;}
</style>
<path class="st0" d="M6329.3,307.5l40.4-13.5l86.2-17.8l95.8,1.9l77.1,5.2c0.6,0,1.2,0,1.8-0.3l90.3-33.9c0,0,0.1,0,0.2-0.1l91-38.4
	l83-8.5l88.4-6.5c0.7-0.1,1.4-0.3,2-0.7l89.1-58.1l85.8-4.8c2.3-0.1,4.1-2.1,4-4.5c-0.1-2.3-2.1-4.2-4.5-4l-86.9,4.9
	c-0.7,0-1.5,0.3-2.1,0.7l-89.1,58.1l-87.4,6.4c0,0-0.1,0-0.1,0l-83.7,8.6c-0.4,0-0.8,0.1-1.2,0.3l-91.5,38.6l-89.3,33.6l-76.3-5.1
	c-0.1,0-0.1,0-0.2,0l-96.4-1.9c-0.3,0-0.6,0-0.9,0.1l-86.9,17.9c-0.2,0-0.3,0.1-0.5,0.1l-49.4,16.5l-38.6-17.2
	c-0.5-0.2-1-0.3-1.5-0.4l-88-3.9l-86.4-3.9c-2.3-0.1-4.3,1.7-4.4,4c-0.1,2.4,1.7,4.3,4,4.4l86.4,3.9l87.2,3.9l29.4,13.1"/>
<polygon class="st1" points="6098.8,285.5 6272.4,293.3 6316.8,311.8 6365.6,294 6451.8,276.3 6624.6,283.3 6807.9,210.7 
	6979.3,195.7 7070.5,137 7156.2,132.1 7160.2,623.5 6098.8,623.5 "/>
</svg>
