<?xml version="1.0" encoding="utf-8"?>
<!-- Generator: Adobe Illustrator 18.0.0, SVG Export Plug-In . SVG Version: 6.00 Build 0)  -->
<!DOCTYPE svg PUBLIC "-//W3C//DTD SVG 1.1//EN" "http://www.w3.org/Graphics/SVG/1.1/DTD/svg11.dtd">
<svg version="1.1" id="Layer_1" xmlns="http://www.w3.org/2000/svg" xmlns:xlink="http://www.w3.org/1999/xlink" x="0px" y="0px"
	 width="1980px" height="2000px" viewBox="0 0 1980 2000" enable-background="new 0 0 1980 2000" xml:space="preserve">
<g id="background">
</g>
<g id="_x30_6L_x5F_Print_x5F_Back">
</g>
<g id="_x30_6L_x5F_Copper_x5F_Front">
</g>
<g id="_x30_5L_x5F_Print_x5F_Back">
</g>
<g id="_x30_5L_x5F_Copper_x5F_Front">
</g>
<g id="_x30_8L_x5F_Print_x5F_Back">
</g>
<g id="_x30_8L_x5F_Copper_x5F_Front">
</g>
<g id="_x30_4L_x5F_Print_x5F_Back">
</g>
<g id="_x30_4L_x5F_Copper_x5F_Front">
</g>
<g id="_x30_3L_x5F_Print_x5F_Back">
</g>
<g id="_x30_3L_x5F_Copper_x5F_Front">
</g>
<g id="_x30_2L_x5F_Print_x5F_Back">
</g>
<g id="_x30_2L_x5F_Copper_x5F_Front">
</g>
<g id="_x30_7_x5F_Print_Back">
</g>
<g id="_x30_7L_x5F_Copper_x5F_Front">
</g>
<g id="_x30_1L_x5F_Print_x5F_Back">
</g>
<g id="_x30_1L_x5F_Copper_x5F_Front">
</g>
<g id="AR_x5F_layer">
	<circle fill="#B87332" fill-opacity="0" cx="507.77" cy="1056.18" r="5.61"/>
	<circle fill="#B87332" fill-opacity="0" cx="507.77" cy="1056.18" r="5.61"/>
	<circle fill="#B87332" fill-opacity="0" cx="507.77" cy="1056.18" r="5.61"/>
	<circle fill="#B87332" fill-opacity="0" cx="484.65" cy="1054.11" r="5.61"/>
	<circle fill="#B87332" fill-opacity="0" cx="484.65" cy="1054.11" r="5.61"/>
	<circle fill="#B87332" fill-opacity="0" cx="484.65" cy="1054.11" r="5.61"/>
	<circle fill="#B87332" fill-opacity="0" cx="484.65" cy="1054.11" r="5.61"/>
	<circle fill="#B87332" fill-opacity="0" cx="507.77" cy="1056.18" r="5.61"/>
	<circle fill="#B87332" fill-opacity="0" cx="411.78" cy="1041" r="5.61"/>
	<circle fill="#B87332" fill-opacity="0" cx="411.78" cy="1041" r="5.61"/>
	<circle fill="#B87332" fill-opacity="0" cx="411.78" cy="1041" r="5.61"/>
	<circle fill="#B87332" fill-opacity="0" cx="411.78" cy="1041" r="5.61"/>
	<circle fill="#B87332" fill-opacity="0" cx="358.21" cy="1034.09" r="5.61"/>
	<circle fill="#B87332" fill-opacity="0" cx="358.21" cy="1034.09" r="5.61"/>
	<circle fill="#B87332" fill-opacity="0" cx="451.76" cy="1045.1" r="5.61"/>
	<circle fill="#B87332" fill-opacity="0" cx="391.78" cy="1045.61" r="5.61"/>
	<circle fill="#B87332" fill-opacity="0" cx="324.59" cy="999.51" r="5.61"/>
	<circle fill="#B87332" fill-opacity="0" cx="295.53" cy="1011.38" r="5.61"/>
	<circle fill="#B87332" fill-opacity="0" cx="324.59" cy="999.51" r="5.61"/>
	<circle fill="#B87332" fill-opacity="0" cx="295.53" cy="1011.38" r="5.61"/>
	<circle fill="#B87332" fill-opacity="0" cx="324.59" cy="999.51" r="5.61"/>
	<circle fill="#B87332" fill-opacity="0" cx="295.53" cy="1011.38" r="5.61"/>
	<circle fill="#B87332" fill-opacity="0" cx="324.59" cy="999.51" r="5.61"/>
	<circle fill="#B87332" fill-opacity="0" cx="295.53" cy="1011.38" r="5.61"/>
	<circle fill="#B87332" fill-opacity="0" cx="264.11" cy="1005.69" r="5.61"/>
	<circle fill="#B87332" fill-opacity="0" cx="245.82" cy="994.47" r="5.61"/>
	<circle fill="#B87332" fill-opacity="0" cx="264.11" cy="1005.69" r="5.61"/>
	<circle fill="#B87332" fill-opacity="0" cx="245.82" cy="994.47" r="5.61"/>
	<circle fill="#B87332" fill-opacity="0" cx="264.11" cy="1005.69" r="5.61"/>
	<circle fill="#B87332" fill-opacity="0" cx="245.82" cy="994.47" r="5.61"/>
	<circle fill="#B87332" fill-opacity="0" cx="264.11" cy="1005.69" r="5.61"/>
	<circle fill="#B87332" fill-opacity="0" cx="245.82" cy="994.47" r="5.61"/>
	<circle fill="#B87332" fill-opacity="0" cx="187.94" cy="1016.21" r="5.61"/>
	<circle fill="#B87332" fill-opacity="0" cx="217.88" cy="1032.67" r="5.61"/>
	<circle fill="#B87332" fill-opacity="0" cx="187.94" cy="1016.21" r="5.61"/>
	<circle fill="#B87332" fill-opacity="0" cx="217.88" cy="1032.67" r="5.61"/>
	<circle fill="#B87332" fill-opacity="0" cx="187.94" cy="1016.21" r="5.61"/>
	<circle fill="#B87332" fill-opacity="0" cx="217.88" cy="1032.67" r="5.61"/>
	<circle fill="#B87332" fill-opacity="0" cx="187.94" cy="1016.21" r="5.61"/>
	<circle fill="#B87332" fill-opacity="0" cx="217.88" cy="1032.67" r="5.61"/>
	<circle fill="#B87332" fill-opacity="0" cx="239.86" cy="1021.06" r="5.61"/>
	<circle fill="#B87332" fill-opacity="0" cx="199.75" cy="1036.84" r="5.61"/>
	<circle fill="#B87332" fill-opacity="0" cx="142.32" cy="1010.34" r="5.61"/>
	<circle fill="#B87332" fill-opacity="0" cx="163.46" cy="1003.94" r="5.61"/>
	<circle fill="#B87332" fill-opacity="0" cx="142.32" cy="1010.34" r="5.61"/>
	<circle fill="#B87332" fill-opacity="0" cx="163.46" cy="1003.94" r="5.61"/>
	<circle fill="#B87332" fill-opacity="0" cx="142.32" cy="1010.34" r="5.61"/>
	<circle fill="#B87332" fill-opacity="0" cx="163.46" cy="1003.94" r="5.61"/>
	<circle fill="#B87332" fill-opacity="0" cx="142.32" cy="1010.34" r="5.61"/>
	<circle fill="#B87332" fill-opacity="0" cx="163.46" cy="1003.94" r="5.61"/>
	<circle fill="#B87332" fill-opacity="0" cx="507.77" cy="1056.18" r="5.61"/>
	<circle fill="#B87332" fill-opacity="0" cx="507.77" cy="1056.18" r="5.61"/>
	<circle fill="#B87332" fill-opacity="0" cx="507.77" cy="1056.18" r="5.61"/>
	<circle fill="#B87332" fill-opacity="0" cx="484.65" cy="1054.11" r="5.61"/>
	<circle fill="#B87332" fill-opacity="0" cx="484.65" cy="1054.11" r="5.61"/>
	<circle fill="#B87332" fill-opacity="0" cx="484.65" cy="1054.11" r="5.61"/>
	<circle fill="#B87332" fill-opacity="0" cx="411.78" cy="1041" r="5.61"/>
	<circle fill="#B87332" fill-opacity="0" cx="411.78" cy="1041" r="5.61"/>
	<circle fill="#B87332" fill-opacity="0" cx="411.78" cy="1041" r="5.61"/>
	<circle fill="#B87332" fill-opacity="0" cx="358.21" cy="1034.09" r="5.61"/>
	<circle fill="#B87332" fill-opacity="0" cx="324.59" cy="999.51" r="5.61"/>
	<circle fill="#B87332" fill-opacity="0" cx="324.59" cy="999.51" r="5.61"/>
	<circle fill="#B87332" fill-opacity="0" cx="324.59" cy="999.51" r="5.61"/>
	<circle fill="#B87332" fill-opacity="0" cx="264.11" cy="1005.69" r="5.61"/>
	<circle fill="#B87332" fill-opacity="0" cx="245.82" cy="994.47" r="5.61"/>
	<circle fill="#B87332" fill-opacity="0" cx="264.11" cy="1005.69" r="5.61"/>
	<circle fill="#B87332" fill-opacity="0" cx="245.82" cy="994.47" r="5.61"/>
	<circle fill="#B87332" fill-opacity="0" cx="264.11" cy="1005.69" r="5.61"/>
	<circle fill="#B87332" fill-opacity="0" cx="245.82" cy="994.47" r="5.61"/>
	<circle fill="#B87332" fill-opacity="0" cx="187.94" cy="1016.21" r="5.61"/>
	<circle fill="#B87332" fill-opacity="0" cx="217.88" cy="1032.67" r="5.61"/>
	<circle fill="#B87332" fill-opacity="0" cx="187.94" cy="1016.21" r="5.61"/>
	<circle fill="#B87332" fill-opacity="0" cx="217.88" cy="1032.67" r="5.61"/>
	<circle fill="#B87332" fill-opacity="0" cx="187.94" cy="1016.21" r="5.61"/>
	<circle fill="#B87332" fill-opacity="0" cx="217.88" cy="1032.67" r="5.61"/>
	<circle fill="#B87332" fill-opacity="0" cx="142.32" cy="1010.34" r="5.61"/>
	<circle fill="#B87332" fill-opacity="0" cx="163.46" cy="1003.94" r="5.61"/>
	<circle fill="#B87332" fill-opacity="0" cx="142.32" cy="1010.34" r="5.61"/>
	<circle fill="#B87332" fill-opacity="0" cx="163.46" cy="1003.94" r="5.61"/>
	<circle fill="#B87332" fill-opacity="0" cx="142.32" cy="1010.34" r="5.61"/>
	<circle fill="#B87332" fill-opacity="0" cx="163.46" cy="1003.94" r="5.61"/>
</g>
</svg>
