<?xml version="1.0" encoding="utf-8"?>
<!-- Generator: Adobe Illustrator 18.0.0, SVG Export Plug-In . SVG Version: 6.00 Build 0)  -->
<!DOCTYPE svg PUBLIC "-//W3C//DTD SVG 1.1//EN" "http://www.w3.org/Graphics/SVG/1.1/DTD/svg11.dtd">
<svg version="1.1" id="Layer_18" xmlns="http://www.w3.org/2000/svg" xmlns:xlink="http://www.w3.org/1999/xlink" x="0px" y="0px"
	 viewBox="0 0 9451.45 623.52" enable-background="new 0 0 9451.45 623.52" xml:space="preserve">
<g>
	<path fill="#FFFFFF" d="M4538.77,432.68c0,0,7.29-0.03,20.96-0.08c13.67-0.01,33.73,0.07,59.25,0.26
		c25.52,0.11,56.51,0.3,92.01-0.97c17.74-0.72,36.66-1.59,56.61-1.95c19.95-0.42,40.96-0.31,62.84,0.38
		c21.86,0.59,44.63,1.23,68.14,0.71c5.88-0.11,11.8-0.35,17.77-0.63c2.98-0.18,5.98-0.31,8.98-0.54c1.51-0.1,3.02-0.21,4.54-0.31
		c1.52-0.09,3.01-0.22,4.57-0.27c12.34-0.6,24.76,0.14,37.25,0.71c6.25,0.27,12.51,0.49,18.81,0.46c6.35-0.02,12.74-0.04,19.17-0.07
		c12.86-0.05,25.88-0.09,39.04-0.14c26.32-0.06,53.21-0.12,80.55-0.18c27.34-0.05,55.14-0.1,83.29-0.15
		c14.23-0.03,28.37,1.2,42.43,1.15c14.22-0.13,28.51-0.27,42.86-0.4c28.71-0.26,57.65-0.53,86.7-0.79c3.63-0.03,7.26-0.07,10.9-0.1
		c3.69-0.04,7.29-0.02,10.94-0.03c7.28,0,14.56-0.01,21.84-0.01c14.57-0.01,29.15-0.02,43.74-0.03
		c58.33,0.03,116.66,0.07,174.08,0.1c14.36-0.01,28.65-0.01,42.88-0.02c7.1-0.07,14.19-0.13,21.26-0.2l5.31-0.05
		c1.83-0.01,3.64,0.03,5.45,0.11c3.61,0.16,7.18,0.49,10.71,0.88l2.64,0.3l1.31,0.15l0.59,0.06l0.66,0.06
		c0.88,0.08,1.76,0.18,2.55,0.2c0.81,0.04,1.62,0.09,2.48,0.08c3.37,0.05,6.78-0.15,10.21-0.44c6.87-0.58,13.87-1.54,21.06-1.57
		c0.89-0.02,1.8,0.02,2.7,0.04l0.68,0.02l0.69,0.05l1.3,0.1l5.18,0.38c3.52,0.26,6.84,0.45,10.19,0.45c1.66-0.01,3.31-0.06,4.94-0.2
		l1.21-0.12l1.29-0.14c0.98-0.09,1.94-0.13,2.86-0.13c3.73,0.02,7.07,0.54,10.27,0.52c13.67-0.03,27.23-0.07,40.66-0.1
		c6.71-0.02,13.4-0.03,20.05-0.05c6.65,0.02,13.26,0.04,19.84,0.05c3.29,0.01,6.57,0.02,9.84,0.03c3.24,0.01,6.6,0,9.89,0.18
		c6.58,0.31,13,0.95,19.31,1.06c1.57,0.03,3.15,0.03,4.69-0.02c1.53-0.05,3.05-0.18,4.61-0.35c3.13-0.33,6.22-0.87,9.59-1.12
		c1.58-0.09,3.17-0.19,4.75-0.28l2.37-0.14l2.44-0.09c3.16-0.11,6.34-0.19,9.53-0.15c3.19,0.05,6.4,0.21,9.6,0.64
		c0.78,0.09,1.65,0.25,2.34,0.35c0.41,0.07,0.68,0.09,1.05,0.13c0.36,0.03,0.71,0.06,1.08,0.09c1.45,0.09,2.95,0.09,4.47,0.06
		c1.52-0.03,3.08-0.08,4.67-0.08c1.54,0,3.08,0.01,4.61,0.01c3.07,0.01,6.12,0.02,9.17,0.03c12.18,0.04,24.17,0.08,35.96,0.12
		c11.79,0.05,23.38,0.1,34.76,0.14c2.85,0.01,5.67,0.04,8.47,0.01c2.81-0.02,5.63-0.06,8.46-0.01c5.7,0.1,11.18,0.76,16.5,0.67
		c10.83-0.17,21.54-1.32,32.15-1.07c5.4,0.2,10.49,1.02,15.48,1.14c1.24,0.03,2.47,0.01,3.69-0.06l1.85-0.16
		c0.63-0.06,1.26-0.12,1.92-0.15c2.58-0.17,5.12-0.22,7.63-0.21c5.03,0.03,9.95,0.28,14.77,0.34c4.85,0.03,9.64,0.06,14.35,0.09
		c9.45,0.06,18.62,0.13,27.51,0.19c8.89,0.12,17.47,0.27,25.73-0.1c8.29-0.35,16.35-0.67,24.09-0.03c1.92,0.14,3.87,0.45,5.66,0.55
		c1.84,0.1,3.68,0.06,5.52,0.01c3.7-0.14,7.33-0.05,10.84-0.05c7.05,0.04,13.77,0.08,20.15,0.12c51.04,0.37,80.21,0.58,80.21,0.58
		s-29.17,0.21-80.21,0.58c-6.38,0.04-13.1,0.08-20.15,0.12c-3.54,0.04-7.12-0.02-10.79,0.17c-1.85,0.07-3.73,0.14-5.65,0.05
		c-1.97-0.09-3.79-0.38-5.71-0.49c-7.61-0.54-15.58-0.13-23.87,0.31c-8.32,0.47-16.96,0.42-25.84,0.4
		c-8.88,0.04-18.05,0.09-27.49,0.13c-4.72,0.03-9.52,0.05-14.37,0.08c-4.89-0.01-9.81-0.2-14.75-0.17c-2.47,0.01-4.95,0.09-7.4,0.29
		c-0.6,0.04-1.23,0.1-1.86,0.17l-1.94,0.18c-1.32,0.08-2.64,0.12-3.95,0.1c-5.24-0.09-10.42-0.87-15.48-1.01
		c-10.34-0.16-20.98,1.07-32.02,1.34c-5.63,0.13-11.15-0.49-16.62-0.53c-2.75-0.03-5.54,0.03-8.36,0.08
		c-2.84,0.05-5.68,0.05-8.52,0.06c-11.38,0.05-22.97,0.1-34.76,0.14c-11.79,0.04-23.78,0.08-35.96,0.12
		c-3.04,0.01-6.1,0.02-9.17,0.03c-1.53,0-3.07,0.01-4.61,0.01c-1.49,0.01-3.02,0.07-4.58,0.1c-1.57,0.04-3.17,0.05-4.81-0.04
		c-0.41-0.02-0.83-0.05-1.24-0.09c-0.41-0.04-0.91-0.09-1.27-0.15c-0.85-0.12-1.5-0.23-2.27-0.32c-2.97-0.39-6.01-0.52-9.08-0.55
		c-3.07-0.02-6.18,0.08-9.32,0.2l-2.29,0.1l-2.37,0.16c-1.58,0.1-3.16,0.21-4.74,0.31c-2.96,0.23-6.16,0.79-9.38,1.15
		c-1.62,0.19-3.28,0.35-4.96,0.41c-1.67,0.06-3.29,0.07-4.94,0.05c-6.56-0.08-13.03-0.68-19.45-0.95c-3.21-0.15-6.38-0.13-9.68-0.12
		c-3.27,0.01-6.55,0.02-9.84,0.03c-26.32,0.05-53.21,0.3-80.55,0.44c-3.65,0.02-7.11-0.5-10.25-0.48c-0.8,0-1.55,0.04-2.28,0.11
		l-1.27,0.15c-0.45,0.06-0.9,0.1-1.36,0.14c-1.81,0.16-3.6,0.22-5.38,0.24c-3.54,0.01-7.12-0.19-10.5-0.43l-5.18-0.36l-1.3-0.09
		l-0.61-0.04l-0.62-0.01c-0.83-0.01-1.66-0.05-2.5-0.03c-6.71,0.04-13.55,1-20.61,1.63c-3.53,0.31-7.12,0.54-10.76,0.5
		c-1.79-0.01-3.8-0.12-5.48-0.29l-0.66-0.06l-0.72-0.08l-1.3-0.15l-2.6-0.29c-3.47-0.37-6.91-0.67-10.35-0.81
		c-1.72-0.07-3.44-0.1-5.14-0.09l-5.3,0.07c-7.08,0.09-14.19,0.18-21.31,0.27c-14.23,0.02-28.53,0.05-42.88,0.07
		c-57.42,0.03-115.76,0.07-174.1,0.11c-14.58-0.01-29.17-0.02-43.74-0.03c-7.28,0-14.57-0.01-21.84-0.01
		c-3.62,0.01-7.3-0.02-10.88,0.01c-3.63,0.03-7.27,0.06-10.9,0.09c-29.05,0.23-57.99,0.46-86.7,0.69
		c-14.36,0.11-28.67,0.23-42.9,0.34c-14.41,0-28.52-1.29-42.44-1.3c-28.14-0.05-55.94-0.1-83.29-0.15
		c-27.34-0.06-54.23-0.12-80.55-0.18c-13.16-0.05-26.18-0.09-39.04-0.14c-6.43-0.02-12.82-0.04-19.17-0.07
		c-6.4-0.02-12.75-0.28-19.02-0.6c-12.53-0.66-24.83-1.47-36.84-0.97c-1.48,0.04-3.02,0.16-4.53,0.23
		c-1.51,0.09-3.02,0.19-4.52,0.28c-3.03,0.21-6.04,0.32-9.05,0.48c-6.01,0.24-11.97,0.44-17.88,0.51
		c-23.65,0.36-46.46-0.45-68.32-1.19c-43.68-1.73-83.74-0.72-119.28,0.44c-35.57,0.86-66.57,0.31-92.09-0.09
		c-25.52-0.47-45.57-0.84-59.24-1.09C4546.06,432.76,4538.77,432.68,4538.77,432.68z"/>
</g>
<g>
	<path fill="#FFFFFF" d="M6862.95,433.92c0,0,33.38-0.21,91.8-0.58c3.65-0.02,7.4-0.03,11.25-0.05c3.86,0,7.8,0.17,11.82,0.16
		c2-0.01,4.03-0.05,6.06-0.21c2.03-0.16,4.07-0.45,6.15-0.78c4.14-0.67,8.41-1.53,12.91-1.72c8.96-0.15,18.05,1.28,27.47,2.27
		c4.71,0.49,9.5,0.89,14.36,0.81c1.21,0,2.43-0.08,3.64-0.15c1.21-0.09,2.43-0.22,3.7-0.34c2.52-0.22,5.06-0.36,7.62-0.43
		c40.74-0.36,86.6-0.49,136.69-0.64c25.04-0.08,51.12-0.16,78.11-0.24c13.5-0.04,27.22-0.08,41.16-0.13
		c13.95-0.1,28.1,0.21,42.3-0.64c1.77-0.11,3.55-0.23,5.33-0.38c1.79-0.16,3.59-0.33,5.39-0.49l1.35-0.11l1.45-0.05
		c0.98-0.05,1.9-0.01,2.85-0.01c1.87,0.06,3.74,0.16,5.59,0.34c7.37,0.69,14.56,2.07,21.54,1.89c7.1-0.17,14.24-2.02,22.09-2.4
		c3.93-0.17,7.84,0.31,11.53,0.76c1.86,0.23,3.68,0.44,5.48,0.57c1.81,0.14,3.52,0.14,5.45,0.13c15.06-0.04,30.29-0.07,45.66-0.11
		l2.86-0.01c0.98,0,1.89-0.04,2.82-0.06c1.89-0.07,3.8-0.17,5.72-0.28c3.85-0.22,7.77-0.46,11.77-0.43c2,0,4.01,0.11,6.03,0.28
		c2.02,0.17,4.06,0.49,6,0.85c1.95,0.35,3.84,0.73,5.68,1.01l0.64,0.09l0.73,0.09l1.45,0.17c0.93,0.08,1.82,0.15,2.75,0.2
		c7.52,0.38,15.2-0.56,23.01-1.56c3.91-0.5,7.87-1,11.88-1.34c3.99-0.35,8.02-0.59,12.08-0.63c4.06-0.04,8.16,0.1,12.26,0.59
		c2.11,0.26,3.95,0.54,5.85,0.68c1.92,0.16,3.86,0.24,5.82,0.28c3.91,0.08,7.89-0.03,11.93-0.1c4.07-0.07,8.08-0.03,12.13,0.01
		c16.16,0.18,32.32,0.83,48.45,0.23c4.03-0.14,8.06-0.4,12.07-0.7c4.02-0.33,8.06-0.8,12.19-1.17c2.06-0.18,4.15-0.33,6.25-0.43
		l1.63-0.06c0.53,0,0.98-0.02,1.58,0c1.17,0.01,2.21,0.08,3.3,0.17c4.31,0.38,8.37,1.21,12.26,1.62c0.49,0.05,0.97,0.1,1.45,0.13
		l0.71,0.05l0.77,0.04c1.04,0.06,2.01,0.1,3.01,0.14c2.01,0.07,4.03,0.08,6.06,0.07c4.05-0.02,8.14-0.18,12.26-0.33
		c4.14-0.13,8.2-0.4,12.57-0.27c4.26,0.12,8.47,0.53,12.61,1.02c4.1,0.51,8.2,1.02,12.31,1.54l3.04,0.32l3.07,0.28
		c2.01,0.17,4.06,0.3,6.1,0.41c8.17,0.43,16.39,0.35,24.61-0.05c2.06-0.1,4.11-0.22,6.17-0.36c1-0.08,2.11-0.14,3.03-0.23
		c0.56-0.05,0.91-0.11,1.38-0.17c0.46-0.07,0.93-0.16,1.41-0.25c1.9-0.38,3.88-0.93,6.02-1.41c1.07-0.24,2.17-0.46,3.32-0.61
		c1.13-0.16,2.41-0.22,3.38-0.26c4.28-0.17,8.48-0.12,12.66-0.06c4.19,0.08,8.27,0.11,12.46,0.09c16.68-0.01,33.37-0.02,50.06-0.03
		l25.04,0.01l12.51,0.01c4.17,0.01,8.32-0.02,12.56,0.06c8.39,0.14,16.68,0.51,24.87,0.3c8.31-0.3,16.62-0.61,24.91-0.91
		c4.15-0.15,8.31-0.31,12.46-0.46c4.14-0.15,8.31-0.33,12.54-0.35c2.11,0,4.22-0.01,6.46,0.16c2.22,0.18,4.33,0.51,6.38,0.82
		c2.05,0.32,4.02,0.61,5.93,0.76c0.91,0.06,1.98,0.1,2.99,0.13c0.99,0.03,2,0.04,3.02,0.05c8.12,0.05,16.38-0.51,24.75-0.49
		c8.25,0,16.48,0.01,24.69,0.01c8.22,0,16.41,0.01,24.6,0.01c4.09,0,8.18,0,12.26,0.01l6.15,0.03c2.1,0.03,4.14,0.11,6.2,0.19
		c8.2,0.36,16.23,0.99,24.15,0.78c7.86-0.22,15.9-1.34,24.13-1.66c2.06-0.09,4.14-0.09,6.22-0.05c2.13,0.07,4.06,0.2,6.07,0.28
		c3.99,0.18,7.97,0.32,11.95,0.41c7.96,0.2,15.91,0.16,23.86,0.18c15.89,0.03,31.67,0.05,47.32,0.08
		c7.82,0.01,15.62,0.02,23.37,0.04c7.76,0.01,15.48,0.05,23.14-0.03c15.32-0.15,30.55-0.61,45.48-1.45
		c3.69-0.25,7.56-0.67,11.59-0.39c1.01,0.08,2.02,0.18,3.04,0.37c1.04,0.18,1.97,0.43,2.83,0.6c1.69,0.35,3.47,0.61,5.24,0.77
		c3.56,0.33,7.2,0.32,10.92,0.34c3.71,0.02,7.43,0.08,11.11,0.16c7.37,0.16,14.67,0.37,21.91,0.43c1.81,0,3.61,0,5.41,0.01
		l1.35-0.01l0.64-0.01l0.68-0.02c0.91-0.02,1.81-0.05,2.66-0.11c3.46-0.2,7.01-0.63,10.52-1.14c7.03-1.01,14.11-2.34,21.36-2.79
		l2.72-0.12l2.74-0.03c1.75,0.02,3.54,0.07,5.33,0.14c3.55,0.15,7.07,0.4,10.57,0.72c7,0.64,13.89,1.54,20.7,2.52
		c1.7,0.24,3.43,0.53,4.99,0.67c1.61,0.15,3.27,0.21,4.93,0.23c3.32,0.04,6.69-0.12,10.09-0.21c3.43-0.1,6.8-0.02,10.14-0.03
		c3.34,0.01,6.68,0.02,9.99,0.04c6.63,0.02,13.21,0.05,19.72,0.07c13.02,0.05,25.8,0.09,38.32,0.14
		c12.55,0.05,24.79,0.39,36.72,0.17c5.98-0.11,11.83-0.34,17.65-0.8c5.82-0.44,11.67-0.9,17.5-0.58c0.72,0.04,1.47,0.09,2.25,0.2
		c0.75,0.11,1.48,0.25,2.2,0.41c1.42,0.31,2.76,0.66,4.06,0.86c2.59,0.4,5.34,0.29,8.11,0.2c1.38-0.05,2.82-0.09,4.21-0.07
		c1.38,0.01,2.75,0.01,4.12,0.02c2.74,0.01,5.46,0.03,8.16,0.04c10.81,0.05,21.3,0.11,31.48,0.16c20.34,0.1,39.38,0.2,56.99,0.29
		c8.81,0.03,17.24,0.15,25.3,0c8.06-0.12,15.75-0.36,23.05-0.55c3.65-0.09,7.21-0.19,10.67-0.2c3.47,0,6.82,0.09,10.08,0.22
		c6.51,0.26,12.59,0.66,18.25,0.86c5.66,0.23,10.91,0.19,15.72,0.24c4.81,0.03,9.18,0.06,13.09,0.09
		c15.65,0.11,23.99,0.16,23.99,0.16s-8.35,0.06-23.99,0.16c-3.91,0.03-8.28,0.06-13.09,0.09c-4.81,0.02-10.06,0.13-15.74-0.03
		c-11.36-0.27-24.35-1.23-38.94-0.43c-7.3,0.26-14.99,0.57-23.06,0.78c-8.08,0.23-16.53,0.19-25.33,0.25
		c-17.6,0.09-36.64,0.18-56.99,0.29c-10.17,0.05-20.67,0.1-31.48,0.16c-2.7,0.01-5.42,0.03-8.16,0.04
		c-1.37,0.01-2.75,0.01-4.12,0.02c-1.37,0-2.7,0.05-4.1,0.11c-2.77,0.12-5.65,0.28-8.64-0.14c-1.48-0.22-2.88-0.57-4.23-0.85
		c-1.38-0.29-2.6-0.47-4-0.5c-5.58-0.26-11.28,0.26-17.12,0.73c-5.84,0.5-11.82,0.79-17.82,0.94c-12.03,0.3-24.3,0.05-36.79,0.1
		c-12.52,0.05-25.3,0.09-38.32,0.14c-6.51,0.02-13.08,0.05-19.72,0.07c-3.32,0.01-6.65,0.02-9.99,0.04
		c-3.35,0.03-6.71-0.02-10.02,0.1c-3.34,0.11-6.75,0.29-10.23,0.28c-1.74-0.01-3.49-0.06-5.28-0.22c-1.84-0.16-3.49-0.44-5.19-0.67
		c-6.77-0.95-13.6-1.8-20.49-2.39c-3.44-0.29-6.9-0.52-10.37-0.65c-1.72-0.06-3.44-0.1-5.22-0.11l-2.55,0.04l-2.57,0.13
		c-6.88,0.46-13.83,1.79-20.99,2.87c-3.59,0.54-7.19,1-10.93,1.24c-0.95,0.07-1.86,0.1-2.75,0.13l-0.68,0.02l-0.72,0.02l-1.37,0.02
		c-1.82,0.01-3.64,0.01-5.47,0.02c-7.3-0.02-14.63-0.2-21.97-0.31c-3.68-0.06-7.34-0.1-11.04-0.1c-3.68,0-7.48,0.04-11.34-0.3
		c-1.94-0.17-3.85-0.43-5.83-0.83c-0.97-0.2-1.85-0.42-2.65-0.55c-0.82-0.15-1.68-0.23-2.53-0.3c-3.46-0.23-7.09,0.16-10.91,0.45
		c-15.14,0.94-30.35,1.46-45.77,1.65c-7.71,0.1-15.44,0.08-23.19,0.1c-7.76,0.01-15.55,0.02-23.37,0.04
		c-15.65,0.02-31.43,0.05-47.32,0.07c-7.94,0.01-15.94,0.07-23.98-0.11c-4.02-0.08-8.05-0.2-12.08-0.37
		c-2.01-0.08-4.08-0.21-5.97-0.26c-1.94-0.04-3.88-0.02-5.85,0.06c-7.87,0.32-15.87,1.47-24.2,1.74
		c-8.29,0.24-16.48-0.38-24.54-0.71c-2.01-0.08-4.04-0.15-6.02-0.18l-6.09-0.02c-4.08,0-8.17,0-12.26,0.01
		c-8.18,0-16.38,0.01-24.6,0.01c-8.22,0-16.45,0.01-24.69,0.01c-8.12-0.02-16.36,0.56-24.79,0.52c-1.05-0.01-2.11-0.02-3.19-0.05
		c-1.05-0.03-2.06-0.06-3.21-0.14c-2.22-0.17-4.35-0.49-6.39-0.8c-2.05-0.32-4.03-0.61-5.95-0.77c-1.89-0.14-3.94-0.14-5.97-0.13
		c-4.07,0.02-8.19,0.21-12.35,0.36c-4.15,0.16-8.3,0.31-12.45,0.47c-8.32,0.31-16.65,0.62-24.98,0.94
		c-8.46,0.23-16.84-0.14-25.12-0.27c-4.1-0.07-8.29-0.04-12.46-0.04l-12.51,0.01l-25.04,0.01c-16.69-0.01-33.38-0.02-50.06-0.03
		c-8.37,0.09-16.79-0.36-24.87-0.06c-1.11,0.04-1.91,0.08-2.84,0.21c-0.92,0.12-1.86,0.31-2.82,0.52c-1.92,0.43-3.96,0.99-6.14,1.43
		c-0.54,0.11-1.1,0.21-1.66,0.3c-0.56,0.08-1.25,0.18-1.72,0.21c-1.15,0.11-2.12,0.16-3.19,0.24c-2.09,0.14-4.19,0.26-6.28,0.36
		c-8.38,0.4-16.8,0.47-25.2,0.02c-2.1-0.11-4.19-0.25-6.31-0.43l-3.12-0.29l-3.14-0.34c-4.11-0.52-8.22-1.03-12.33-1.55
		c-4.07-0.49-8.1-0.88-12.09-1c-3.9-0.13-8.08,0.12-12.18,0.25c-8.27,0.3-16.56,0.63-25.09-0.16c-4.28-0.47-8.28-1.3-12.14-1.63
		c-3.69-0.36-7.76-0.01-11.77,0.31c-4.02,0.35-8.09,0.82-12.21,1.16c-4.13,0.32-8.24,0.57-12.35,0.7
		c-16.43,0.55-32.68-0.15-48.72-0.38c-4-0.05-8.03-0.1-11.99-0.04c-3.99,0.05-8.03,0.15-12.12,0.06c-2.04-0.05-4.1-0.14-6.16-0.32
		c-2.08-0.16-4.19-0.48-6.03-0.72c-3.82-0.46-7.69-0.61-11.58-0.59c-3.88,0.03-7.78,0.25-11.68,0.57c-3.88,0.32-7.76,0.8-11.68,1.28
		c-7.82,0.97-15.82,1.95-23.96,1.52c-1.02-0.06-2.08-0.15-3.1-0.24l-1.45-0.18l-0.73-0.09l-0.81-0.12
		c-2.01-0.31-3.95-0.71-5.83-1.06c-1.89-0.35-3.69-0.64-5.55-0.8c-1.85-0.17-3.71-0.27-5.6-0.28c-3.76-0.04-7.57,0.17-11.43,0.38
		c-1.93,0.1-3.88,0.2-5.83,0.27c-0.99,0.02-2,0.06-2.95,0.06l-2.91,0c-15.37-0.04-30.6-0.07-45.66-0.11c-1.83,0-3.89-0.01-5.82-0.18
		c-1.95-0.15-3.85-0.39-5.71-0.63c-3.73-0.48-7.27-0.93-10.79-0.8c-7.05,0.27-14.42,2.09-22.06,2.27
		c-7.78,0.13-15.05-1.35-22.13-2.04c-1.77-0.19-3.53-0.29-5.27-0.36c-0.86,0-1.76-0.04-2.58,0l-1.26,0.03l-1.35,0.1l-0.62,0.05
		l-0.68,0.06l-1.36,0.12l-2.72,0.23c-1.81,0.15-3.62,0.26-5.43,0.35c-14.46,0.78-28.63,0.38-42.54,0.39
		c-13.94-0.04-27.66-0.08-41.16-0.13c-26.99-0.08-53.07-0.16-78.11-0.24c-50.06-0.18-95.96-0.35-136.64-0.5
		c-2.53,0.05-5.03,0.16-7.49,0.35c-1.22,0.1-2.48,0.22-3.74,0.3c-1.26,0.06-2.52,0.13-3.76,0.12c-4.99,0.03-9.85-0.43-14.59-0.97
		c-4.74-0.54-9.36-1.2-13.89-1.7c-2.25-0.25-4.52-0.45-6.74-0.62c-2.23-0.17-4.42-0.28-6.57-0.21c-4.32,0.13-8.54,0.94-12.73,1.57
		c-2.09,0.32-4.19,0.6-6.28,0.74c-2.09,0.14-4.14,0.17-6.17,0.16c-4.06-0.03-7.99-0.23-11.82-0.28c-3.84-0.02-7.59-0.04-11.24-0.06
		C6896.33,434.13,6862.95,433.92,6862.95,433.92z"/>
</g>
<g opacity="0.01">
	<path d="M1701.36-45.73c0.31-0.5,0.5-1.08,0.5-1.71c0-1.77-1.44-3.21-3.21-3.21h-5.9c-1.77,0-3.21,1.44-3.21,3.21
		c0,0.63,0.19,1.21,0.5,1.71c-0.31,0.5-0.5,1.08-0.5,1.71c0,0.53,0.14,1.03,0.38,1.48c-0.23,0.44-0.38,0.94-0.38,1.48
		c0,0.53,0.14,1.03,0.38,1.48c-0.23,0.44-0.38,0.94-0.38,1.48c0,0.53,0.14,1.03,0.38,1.48c-0.23,0.44-0.38,0.94-0.38,1.48
		c0,0.16,0.02,0.31,0.05,0.46h-3.33c-1.77,0-3.21,1.44-3.21,3.21c0,0.93,0.4,1.76,1.03,2.34c-0.63,0.59-1.03,1.42-1.03,2.34
		c0,0.53,0.14,1.03,0.38,1.48c-0.23,0.44-0.38,0.94-0.38,1.48c0,0.53,0.14,1.03,0.38,1.48c-0.23,0.44-0.38,0.94-0.38,1.48
		c0,0.53,0.14,1.03,0.38,1.48c-0.23,0.44-0.38,0.94-0.38,1.48c0,0.53,0.14,1.03,0.38,1.48c-0.23,0.44-0.38,0.94-0.38,1.48
		c0,0.53,0.14,1.03,0.38,1.48c-0.23,0.44-0.38,0.94-0.38,1.48s0.14,1.03,0.38,1.48c-0.23,0.44-0.38,0.94-0.38,1.48
		c0,0.53,0.14,1.03,0.38,1.48c-0.23,0.44-0.38,0.94-0.38,1.48s0.14,1.03,0.38,1.48c-0.23,0.44-0.38,0.94-0.38,1.48
		c0,0.53,0.14,1.03,0.38,1.48c-0.23,0.44-0.38,0.94-0.38,1.48s0.14,1.03,0.38,1.48c-0.23,0.44-0.38,0.94-0.38,1.48
		c0,0.53,0.14,1.03,0.38,1.48c-0.23,0.44-0.38,0.94-0.38,1.48c0,0.53,0.14,1.03,0.38,1.48c-0.11,0.21-0.2,0.43-0.26,0.66h-3.4
		c-1.77,0-3.21,1.44-3.21,3.21c0,0.79,0.3,1.51,0.78,2.07c-0.48,0.56-0.78,1.28-0.78,2.07c0,0.53,0.14,1.03,0.38,1.48
		c-0.23,0.44-0.38,0.94-0.38,1.48c0,0.53,0.14,1.03,0.38,1.48c-0.23,0.44-0.38,0.94-0.38,1.48c0,0.53,0.14,1.03,0.38,1.48
		c-0.23,0.44-0.38,0.94-0.38,1.48c0,0.53,0.14,1.03,0.38,1.48c-0.23,0.44-0.38,0.94-0.38,1.48c0,0.53,0.14,1.03,0.38,1.48
		c-0.23,0.44-0.38,0.94-0.38,1.48c0,0.53,0.14,1.03,0.38,1.48c-0.23,0.44-0.38,0.94-0.38,1.48c0,0.53,0.14,1.03,0.38,1.48
		c-0.23,0.44-0.38,0.94-0.38,1.48c0,0.11,0.02,0.22,0.03,0.32h-3.31c-1.77,0-3.21,1.44-3.21,3.21c0,0.86,0.35,1.64,0.9,2.22
		c-0.56,0.58-0.9,1.36-0.9,2.22c0,0.53,0.14,1.03,0.38,1.48c-0.23,0.44-0.38,0.94-0.38,1.48c0,0.53,0.14,1.03,0.38,1.48
		c-0.23,0.44-0.38,0.94-0.38,1.48c0,0.53,0.14,1.03,0.38,1.48c-0.23,0.44-0.38,0.94-0.38,1.48c0,0.53,0.14,1.03,0.38,1.48
		c-0.23,0.44-0.38,0.94-0.38,1.48c0,0.53,0.14,1.03,0.38,1.48c-0.05,0.1-0.11,0.21-0.15,0.32h-3.51c-1.77,0-3.21,1.44-3.21,3.21
		c0,0.78,0.29,1.49,0.76,2.05c-0.47,0.56-0.76,1.27-0.76,2.05c0,0.53,0.14,1.03,0.38,1.48c-0.11,0.21-0.2,0.43-0.26,0.66h-3.4
		c-1.77,0-3.21,1.44-3.21,3.21c0,0.69,0.22,1.32,0.59,1.85c-0.37,0.52-0.59,1.16-0.59,1.85c0,0.53,0.14,1.03,0.38,1.48
		c-0.23,0.44-0.38,0.94-0.38,1.48c0,0.53,0.14,1.03,0.38,1.48c-0.23,0.44-0.38,0.94-0.38,1.48c0,0.53,0.14,1.03,0.38,1.48
		c-0.23,0.44-0.38,0.94-0.38,1.48c0,0.53,0.14,1.03,0.38,1.48c-0.23,0.44-0.38,0.94-0.38,1.48c0,0.53,0.14,1.03,0.38,1.48
		c-0.23,0.44-0.38,0.94-0.38,1.48c0,0.53,0.14,1.03,0.38,1.48c-0.17,0.33-0.29,0.68-0.33,1.06h-3.32c-1.77,0-3.21,1.44-3.21,3.21
		c0,0.45,0.09,0.88,0.26,1.27c-0.17,0.39-0.26,0.82-0.26,1.27c0,0.53,0.14,1.03,0.38,1.48c-0.23,0.44-0.38,0.94-0.38,1.48
		c0,0.53,0.14,1.03,0.38,1.48c-0.23,0.44-0.38,0.94-0.38,1.48c0,0.53,0.14,1.03,0.38,1.48c-0.23,0.44-0.38,0.94-0.38,1.48
		c0,0.53,0.14,1.03,0.38,1.48c-0.23,0.44-0.38,0.94-0.38,1.48s0.14,1.03,0.38,1.48c-0.23,0.44-0.38,0.94-0.38,1.48
		c0,0.53,0.14,1.03,0.38,1.48c-0.23,0.44-0.38,0.94-0.38,1.48c0,0.53,0.14,1.03,0.38,1.48c-0.23,0.44-0.38,0.94-0.38,1.48
		c0,0.53,0.14,1.03,0.38,1.48c-0.17,0.32-0.28,0.67-0.33,1.04h-3.33c-1.77,0-3.21,1.44-3.21,3.21c0,1.32,0.8,2.46,1.95,2.95
		c-0.48,0.2-0.88,0.53-1.21,0.92h-4.03c-1.77,0-3.21,1.44-3.21,3.21c0,0.55,0.15,1.06,0.4,1.51h-3.68c-1.47,0-2.71,1-3.08,2.36
		h-0.82c-0.13-1.65-1.5-2.95-3.18-2.95h-5.9c-0.1,0-0.2,0-0.3,0.01c-0.1-0.01-0.2-0.01-0.29-0.01h-5.9c-1.77,0-3.21,1.44-3.21,3.21
		c0,0.59,0.17,1.13,0.45,1.61c-0.28,0.47-0.45,1.02-0.45,1.61c0,0.53,0.14,1.03,0.38,1.48c-0.06,0.12-0.12,0.24-0.17,0.37h-3.49
		c-1.47,0-2.71,1-3.08,2.36h-1.54c-0.59-0.71-1.47-1.18-2.47-1.18h-5.9c-1.77,0-3.21,1.44-3.21,3.21c0,0.76,0.28,1.45,0.72,2
		c-0.45,0.55-0.72,1.24-0.72,2c0,0.53,0.14,1.03,0.38,1.48c-0.12,0.24-0.22,0.48-0.29,0.75h-3.37c-1.77,0-3.21,1.44-3.21,3.21
		c0,0.53,0.14,1.02,0.37,1.46c-0.23,0.44-0.37,0.93-0.37,1.46c0,0.53,0.14,1.03,0.38,1.48c-0.2,0.38-0.32,0.8-0.35,1.25
		c-1.59,0-3.3,0-3.3,0c-1.68,0-3.05,1.3-3.18,2.95h-3.31c-1.77,0-3.21,1.44-3.21,3.21c0,0.11,0.02,0.22,0.03,0.33h-3.32
		c-1.77,0-3.21,1.44-3.21,3.21c0,0.81,0.31,1.54,0.8,2.1h-4.09c-1.47,0-2.71,1-3.08,2.36h-2.16c-0.52-0.37-1.16-0.59-1.84-0.59
		h-3.41c-0.37-1.36-1.61-2.36-3.08-2.36h-5.9c-1.47,0-2.71,1-3.08,2.36h-3.41c-1.77,0-3.21,1.44-3.21,3.21
		c0,0.68,0.22,1.31,0.58,1.83c-0.36,0.52-0.58,1.15-0.58,1.83c0,0.53,0.14,1.03,0.38,1.48c-0.23,0.44-0.38,0.94-0.38,1.48
		c0,0.28,0.05,0.55,0.12,0.81h-3.4c-1.77,0-3.21,1.44-3.21,3.21c0,1.11,0.57,2.09,1.43,2.67c-0.62,0.42-1.08,1.05-1.29,1.79h-0.93
		c-0.38-1.36-1.61-2.36-3.08-2.36h-5.9c-1,0-1.88,0.47-2.47,1.18h-4.03c-1.77,0-3.21,1.44-3.21,3.21c0,1.18,0.64,2.2,1.59,2.75
		c-0.95,0.56-1.59,1.58-1.59,2.75c0,0.53,0.14,1.03,0.38,1.48c-0.07,0.14-0.13,0.28-0.19,0.43h-2.22c-0.52-0.37-1.16-0.59-1.84-0.59
		h-3.29c-0.01-0.52-0.15-1-0.37-1.44c0.23-0.44,0.38-0.94,0.38-1.48c0-0.53-0.14-1.03-0.38-1.48c0.23-0.44,0.38-0.94,0.38-1.48
		c0-0.49-0.12-0.95-0.32-1.37c0.2-0.42,0.32-0.88,0.32-1.37c0-1.77-1.44-3.21-3.21-3.21h-3.43c0.09-0.29,0.15-0.6,0.15-0.92
		c0-1.77-1.44-3.21-3.21-3.21h-3.46c0.1-0.32,0.18-0.65,0.18-1c0-0.53-0.14-1.03-0.38-1.48c0.23-0.44,0.38-0.94,0.38-1.48
		c0-0.64-0.19-1.23-0.52-1.73c0.32-0.5,0.52-1.09,0.52-1.73c0-1.77-1.44-3.21-3.21-3.21h-5.9c-1.25,0-2.32,0.73-2.85,1.77h-3.64
		c-0.1,0-0.2,0-0.3,0.01c-0.1-0.01-0.2-0.01-0.29-0.01h-5.9c-1.77,0-3.21,1.44-3.21,3.21c0,1.17,0.64,2.19,1.58,2.75
		c-0.94,0.56-1.58,1.58-1.58,2.75c0,0.47,0.11,0.92,0.3,1.33h-3.58c-1.77,0-3.21,1.44-3.21,3.21c0,0.76,0.28,1.46,0.72,2.01
		c-0.45,0.55-0.72,1.24-0.72,2.01c0,0.53,0.14,1.03,0.38,1.48c-0.23,0.44-0.38,0.94-0.38,1.48c0,0.53,0.14,1.03,0.38,1.48
		c-0.23,0.44-0.38,0.94-0.38,1.48c0,0.53,0.14,1.03,0.38,1.48c-0.12,0.23-0.22,0.48-0.28,0.74h-0.77c-0.02-0.49-0.15-0.95-0.36-1.37
		c0.23-0.44,0.38-0.94,0.38-1.48c0-0.89-0.37-1.7-0.96-2.29c0.59-0.58,0.96-1.39,0.96-2.29c0-1.77-1.44-3.21-3.21-3.21h-3.33
		c0.02-0.15,0.05-0.3,0.05-0.46c0-0.9-0.38-1.71-0.98-2.3c0.6-0.58,0.98-1.4,0.98-2.3c0-1.77-1.44-3.21-3.21-3.21h-5.9
		c-1.77,0-3.21,1.44-3.21,3.21c0,0.9,0.38,1.71,0.98,2.3c-0.6,0.58-0.98,1.4-0.98,2.3c0,0.53,0.14,1.03,0.38,1.48
		c-0.03,0.05-0.06,0.11-0.09,0.16h-3.57c-1.77,0-3.21,1.44-3.21,3.21c0,0.51,0.13,0.99,0.35,1.42c-0.22,0.43-0.35,0.91-0.35,1.42
		c0,0.53,0.14,1.03,0.38,1.48c-0.23,0.44-0.38,0.94-0.38,1.48c0,0.53,0.14,1.03,0.38,1.48c-0.21,0.4-0.34,0.85-0.36,1.32h-3.3
		c-0.69,0-1.32,0.22-1.84,0.59h-4.65c-1.77,0-3.21,1.44-3.21,3.21s1.44,3.21,3.21,3.21h3.34c0,0.01,0,0.01,0,0.02h-3.35
		c-1.77,0-3.21,1.44-3.21,3.21c0,0.53,0.14,1.03,0.38,1.48c-0.23,0.44-0.38,0.94-0.38,1.48c0,0.53,0.14,1.03,0.38,1.48
		c-0.23,0.44-0.38,0.94-0.38,1.48c0,0.34,0.07,0.66,0.17,0.97h-3.45c-1.77,0-3.21,1.44-3.21,3.21c0,0.66,0.2,1.28,0.55,1.79
		c-0.35,0.51-0.55,1.13-0.55,1.79c0,0.53,0.14,1.03,0.38,1.48c-0.23,0.44-0.38,0.94-0.38,1.48c0,0.1,0.02,0.19,0.03,0.29h-3.31
		c-1.77,0-3.21,1.44-3.21,3.21c0,0.42,0.09,0.82,0.24,1.19c-0.15,0.37-0.24,0.77-0.24,1.19c0,0.53,0.14,1.03,0.38,1.48
		c0,0,0,0.01-0.01,0.01h-3.65c-1.77,0-3.21,1.44-3.21,3.21c0,0.74,0.26,1.41,0.68,1.95c-0.18,0.23-0.33,0.47-0.44,0.74h-3.52
		c-1.77,0-3.21,1.44-3.21,3.21c0,0.8,0.31,1.53,0.8,2.09c-0.49,0.56-0.8,1.29-0.8,2.09c0,0.53,0.14,1.02,0.37,1.46h-3.65
		c-1.77,0-3.21,1.44-3.21,3.21c0,0.81,0.31,1.55,0.81,2.11c-0.16,0.18-0.29,0.37-0.41,0.58h-3.69c-1.77,0-3.21,1.44-3.21,3.21
		c0,1.12,0.58,2.11,1.46,2.68c-0.63,0.41-1.09,1.04-1.31,1.78h-3.43c-1.77,0-3.21,1.44-3.21,3.21c0,0.43,0.09,0.84,0.24,1.22
		c-0.16,0.38-0.24,0.79-0.24,1.22c0,0.29,0.05,0.57,0.13,0.84h-3.41c-1.77,0-3.21,1.44-3.21,3.21c0,1.05,0.51,1.97,1.29,2.56
		c-0.06,0.04-0.11,0.09-0.17,0.14h-4.41c-0.1,0-0.2,0-0.29,0.01c-0.1-0.01-0.2-0.01-0.3-0.01h-5.9c-1.47,0-2.71,1-3.08,2.36h-3.41
		c-1.77,0-3.21,1.44-3.21,3.21c0,0.81,0.31,1.54,0.8,2.1h-1.5c0.01-0.11,0.03-0.22,0.03-0.33c0-1.77-1.44-3.21-3.21-3.21h-3.41
		c-0.37-1.36-1.61-2.36-3.08-2.36h-5.9c-1.77,0-3.21,1.44-3.21,3.21c0,0.65,0.2,1.26,0.54,1.77c-0.29,0.44-0.47,0.96-0.51,1.51
		h-3.31c-1.77,0-3.21,1.44-3.21,3.21c0,0.53,0.14,1.02,0.37,1.46c-0.23,0.44-0.37,0.93-0.37,1.46c0,0.53,0.14,1.03,0.38,1.48
		c-0.23,0.44-0.38,0.94-0.38,1.48c0,0.53,0.14,1.03,0.38,1.48c-0.23,0.44-0.38,0.94-0.38,1.48c0,0.12,0.02,0.24,0.04,0.35h-0.73
		c0.01-0.1,0.03-0.2,0.03-0.31c0-0.54-0.15-1.04-0.38-1.49c0.24-0.45,0.38-0.95,0.38-1.49c0-1.77-1.44-3.21-3.21-3.21h-5.9
		c-1.68,0-3.05,1.3-3.18,2.95h-0.84c0.09-0.29,0.15-0.6,0.15-0.92c0-1.77-1.44-3.21-3.21-3.21h-5.9c-1.77,0-3.21,1.44-3.21,3.21
		c0,0.81,0.31,1.54,0.8,2.1h-4.09c-1.77,0-3.21,1.44-3.21,3.21c0,0.78,0.29,1.48,0.75,2.04c-0.46,0.56-0.75,1.26-0.75,2.04
		c0,0.53,0.14,1.03,0.38,1.48c-0.23,0.44-0.38,0.94-0.38,1.48c0,0.53,0.14,1.03,0.38,1.48c-0.23,0.44-0.38,0.94-0.38,1.48
		s0.14,1.03,0.38,1.48c-0.23,0.44-0.38,0.94-0.38,1.48c0,0.13,0.02,0.26,0.04,0.39h-0.71c0-0.01,0-0.02,0-0.03
		c0-0.53-0.14-1.03-0.38-1.48c0.23-0.44,0.38-0.94,0.38-1.48s-0.14-1.03-0.38-1.48c0.23-0.44,0.38-0.94,0.38-1.48
		c0-0.53-0.14-1.03-0.38-1.48c0.23-0.44,0.38-0.94,0.38-1.48c0-0.53-0.14-1.03-0.38-1.48c0.23-0.44,0.38-0.94,0.38-1.48
		c0-0.53-0.14-1.03-0.38-1.48c0.23-0.44,0.38-0.94,0.38-1.48c0-0.48-0.11-0.92-0.3-1.33c0.19-0.41,0.3-0.85,0.3-1.33
		c0-1.77-1.44-3.21-3.21-3.21h-5.9c-1.77,0-3.21,1.44-3.21,3.21c0,0.48,0.11,0.92,0.3,1.33c-0.03,0.06-0.05,0.12-0.08,0.18h-3.5
		c-1.77,0-3.21,1.44-3.21,3.21c0,0.72,0.25,1.38,0.65,1.91c-0.4,0.54-0.65,1.19-0.65,1.91c0,0.53,0.14,1.03,0.38,1.48
		c-0.23,0.44-0.38,0.94-0.38,1.48c0,0.44,0.09,0.85,0.25,1.23h-2.38c0.88-0.57,1.47-1.56,1.47-2.69c0-1.77-1.44-3.21-3.21-3.21
		h-3.32c0.01-0.11,0.03-0.22,0.03-0.33c0-1.77-1.44-3.21-3.21-3.21h-5.9c-1.77,0-3.21,1.44-3.21,3.21c0,1.07,0.53,2.02,1.35,2.6
		c-0.77,0.55-1.28,1.44-1.33,2.45h-3.3c-1.77,0-3.21,1.44-3.21,3.21c0,0.11,0.02,0.22,0.03,0.33h-3.32c-1.77,0-3.21,1.44-3.21,3.21
		c0,1.47,1,2.71,2.36,3.08c-1.19,0.33-2.1,1.32-2.31,2.56h-3.33c-1.77,0-3.21,1.44-3.21,3.21c0,0.36,0.07,0.69,0.18,1.01
		c-0.11,0.32-0.18,0.66-0.18,1.01c0,0.53,0.14,1.03,0.38,1.48c-0.23,0.44-0.38,0.94-0.38,1.48c0,0.03,0.01,0.05,0.01,0.08h-3.29
		c-1.77,0-3.21,1.44-3.21,3.21c0,0.56,0.16,1.08,0.41,1.54c-0.25,0.46-0.41,0.98-0.41,1.54c0,0.53,0.14,1.03,0.38,1.48
		c-0.23,0.44-0.38,0.94-0.38,1.48s0.14,1.03,0.38,1.48c-0.08,0.16-0.15,0.32-0.21,0.5h-3.45c-1.77,0-3.21,1.44-3.21,3.21
		c0,0.49,0.12,0.96,0.32,1.37c-0.2,0.42-0.32,0.88-0.32,1.37c0,0.4,0.08,0.77,0.21,1.12h-0.94c-0.06-0.3-0.17-0.58-0.31-0.85
		c0.23-0.44,0.38-0.94,0.38-1.48s-0.14-1.03-0.38-1.48c0.23-0.44,0.38-0.94,0.38-1.48c0-1.77-1.44-3.21-3.21-3.21h-3.76
		c-0.1-0.16-0.21-0.3-0.32-0.44h4.09c1.77,0,3.21-1.44,3.21-3.21s-1.44-3.21-3.21-3.21h-5.9c-1.77,0-3.21,1.44-3.21,3.21
		c0,0.81,0.31,1.54,0.8,2.1h-4.09c-1.77,0-3.21,1.44-3.21,3.21c0,0.61,0.18,1.18,0.48,1.67c-0.3,0.49-0.48,1.06-0.48,1.67
		c0,0.53,0.14,1.03,0.38,1.48c-0.23,0.44-0.38,0.94-0.38,1.48c0,0.4,0.08,0.77,0.21,1.12h-3.5c-1.68,0-3.05,1.3-3.18,2.95h-3.31
		c-1.77,0-3.21,1.44-3.21,3.21c0,0.81,0.31,1.54,0.8,2.1h-4.09c-1.77,0-3.21,1.44-3.21,3.21c0,0.11,0.02,0.22,0.03,0.33h-0.84
		c0.08-0.29,0.14-0.59,0.14-0.9c0-0.53-0.14-1.03-0.38-1.48c0.23-0.44,0.38-0.94,0.38-1.48c0-0.8-0.3-1.52-0.78-2.08
		c0.48-0.56,0.78-1.28,0.78-2.08c0-1.77-1.44-3.21-3.21-3.21h-3.32c0.01-0.11,0.03-0.21,0.03-0.32c0-0.53-0.14-1.03-0.38-1.48
		c0.23-0.44,0.38-0.94,0.38-1.48c0-1.77-1.44-3.21-3.21-3.21h-3.6c-0.02-0.03-0.04-0.07-0.06-0.1c0.19-0.35,0.3-0.74,0.34-1.16h3.31
		c1.77,0,3.21-1.44,3.21-3.21s-1.44-3.21-3.21-3.21h-3.3c-0.03-0.46-0.15-0.89-0.36-1.27c0.23-0.44,0.38-0.94,0.38-1.48
		c0-0.64-0.19-1.24-0.52-1.74c0.33-0.5,0.52-1.1,0.52-1.74c0-1.77-1.44-3.21-3.21-3.21h-5.9c-1.77,0-3.21,1.44-3.21,3.21
		c0,0.64,0.19,1.24,0.52,1.74c-0.29,0.45-0.46,0.98-0.5,1.54h-2.05c-0.52-0.37-1.16-0.59-1.84-0.59h-3.41
		c-0.37-1.36-1.61-2.36-3.08-2.36h-5.9c-1.77,0-3.21,1.44-3.21,3.21c0,0.61,0.18,1.17,0.47,1.65c-0.29,0.48-0.47,1.04-0.47,1.65
		c0,0.2,0.02,0.39,0.06,0.57h-3.34c-1.25,0-2.32,0.73-2.85,1.77h-1.04c-0.03-0.44-0.16-0.86-0.35-1.23
		c0.23-0.44,0.38-0.94,0.38-1.48c0-0.53-0.14-1.03-0.37-1.47c0.23-0.44,0.37-0.94,0.37-1.47c0-1.77-1.44-3.21-3.21-3.21h-5.9
		c-1.77,0-3.21,1.44-3.21,3.21c0,0.53,0.14,1.03,0.37,1.47c-0.23,0.44-0.37,0.94-0.37,1.47c0,0.53,0.14,1.03,0.38,1.48
		c-0.23,0.44-0.38,0.94-0.38,1.48c0,0.53,0.14,1.03,0.38,1.48c-0.23,0.44-0.38,0.94-0.38,1.48s0.14,1.03,0.38,1.48
		c-0.23,0.44-0.38,0.94-0.38,1.48s0.14,1.03,0.38,1.48c-0.23,0.44-0.38,0.94-0.38,1.48c0,0.53,0.14,1.03,0.38,1.48
		c-0.23,0.44-0.38,0.94-0.38,1.48c0,0.53,0.14,1.03,0.38,1.48c-0.23,0.44-0.38,0.94-0.38,1.48c0,0.33,0.06,0.64,0.15,0.93h-1.17
		c-0.53-1.05-1.6-1.77-2.85-1.77h-3.33c0.03-0.17,0.05-0.34,0.05-0.51c0-0.53-0.14-1.03-0.38-1.48c0.23-0.44,0.38-0.94,0.38-1.48
		s-0.14-1.03-0.38-1.48c0.23-0.44,0.38-0.94,0.38-1.48c0-1.77-1.44-3.21-3.21-3.21h-5.9c-1.77,0-3.21,1.44-3.21,3.21
		c0,0.53,0.14,1.03,0.38,1.48c-0.23,0.44-0.38,0.94-0.38,1.48c0,0.18,0.02,0.34,0.05,0.51h-0.95c-0.04-0.1-0.09-0.2-0.15-0.3
		c0.23-0.44,0.38-0.94,0.38-1.48s-0.14-1.03-0.38-1.48c0.23-0.44,0.38-0.94,0.38-1.48c0-1.03-0.5-1.94-1.25-2.52
		c0.76-0.59,1.25-1.5,1.25-2.52c0-1.77-1.44-3.21-3.21-3.21h-5.9c-1.77,0-3.21,1.44-3.21,3.21c0,0.32,0.06,0.63,0.15,0.92h-3.43
		c-1.77,0-3.21,1.44-3.21,3.21c0,0.63,0.19,1.21,0.5,1.7c-0.29,0.46-0.46,1-0.49,1.58h-3.3c-1.77,0-3.21,1.44-3.21,3.21
		c0,0.87,0.35,1.66,0.92,2.24c-0.43,0.44-0.74,1-0.86,1.63h-3.34c-1.77,0-3.21,1.44-3.21,3.21c0,0.32,0.06,0.63,0.15,0.92h-1.01
		c-0.15-0.41-0.37-0.79-0.67-1.1c0.53-0.57,0.87-1.34,0.87-2.18c0-1.77-1.44-3.21-3.21-3.21h-5.9c-1.77,0-3.21,1.44-3.21,3.21
		c0,0.81,0.31,1.54,0.8,2.1h-4.09c-1.77,0-3.21,1.44-3.21,3.21c0,0.11,0.02,0.22,0.03,0.33h-2.06c-0.52-0.37-1.16-0.59-1.84-0.59
		h-5.9c-1.77,0-3.21,1.44-3.21,3.21c0,0.81,0.31,1.54,0.8,2.1h-4.09c-1.77,0-3.21,1.44-3.21,3.21c0,1.13,0.59,2.12,1.47,2.69h-2.22
		c-0.17-0.77-0.62-1.43-1.23-1.89c0.79-0.59,1.31-1.52,1.31-2.58c0-1.77-1.44-3.21-3.21-3.21h-5.9c-1.77,0-3.21,1.44-3.21,3.21
		c0,1.06,0.52,1.99,1.31,2.58c-0.79,0.59-1.31,1.52-1.31,2.58c0,0.38,0.08,0.74,0.2,1.08h-3.48c-1,0-1.88,0.47-2.47,1.18h-4.03
		c-1.77,0-3.21,1.44-3.21,3.21c0,1.13,0.59,2.12,1.47,2.69h-2.88c-0.59-0.71-1.47-1.18-2.47-1.18h-5.9c-1.77,0-3.21,1.44-3.21,3.21
		c0,0.84,0.33,1.6,0.87,2.18c-0.43,0.46-0.72,1.04-0.82,1.69h-3.33c-1.47,0-2.71,1-3.08,2.36h-3.41c-1.47,0-2.71,1-3.08,2.36h-3.41
		c-1.47,0-2.71,1-3.08,2.36h-3.41c-1.77,0-3.21,1.44-3.21,3.21c0,0.11,0.02,0.22,0.03,0.33h-3.32c-1.47,0-2.71,1-3.08,2.36h-3.41
		c-1.25,0-2.32,0.73-2.85,1.77h-2.39c-0.52-0.37-1.16-0.59-1.84-0.59h-5.9c-1.25,0-2.32,0.73-2.85,1.77h-3.64
		c-0.69,0-1.32,0.22-1.84,0.59h-2.77c-0.59-0.71-1.47-1.18-2.47-1.18h-5.9c-1,0-1.88,0.47-2.47,1.18h-4.03c-1.47,0-2.71,1-3.08,2.36
		h-3.41c-1.25,0-2.32,0.73-2.85,1.77h-3.64c-0.69,0-1.32,0.22-1.84,0.59h-4.62l-0.38-0.45l-0.45,0.57
		c-0.67,0.17-1.24,0.55-1.67,1.07h-4.03c-0.69,0-1.32,0.22-1.84,0.59h-3.4c-0.52-0.37-1.16-0.59-1.84-0.59h-5.9
		c-0.1,0-0.2,0-0.29,0.01c-0.1-0.01-0.2-0.01-0.3-0.01h-5.9c-0.1,0-0.2,0-0.29,0.01c-0.1-0.01-0.2-0.01-0.3-0.01h-5.9
		c-0.69,0-1.32,0.22-1.84,0.59h-4.65c-0.1,0-0.2,0-0.3,0.01c-0.1-0.01-0.19-0.01-0.29-0.01h-5.9c-0.69,0-1.32,0.22-1.84,0.59h-4.65
		c-0.69,0-1.32,0.22-1.84,0.59h-4.65c-1,0-1.88,0.47-2.47,1.18h-4.03c-0.1,0-0.2,0-0.3,0.01c-0.1-0.01-0.19-0.01-0.29-0.01h-5.9
		c-0.1,0-0.2,0-0.3,0.01c-0.1-0.01-0.19-0.01-0.29-0.01h-4.03c-0.59-0.71-1.47-1.18-2.47-1.18h-5.9c-1.47,0-2.71,1-3.08,2.36h-1.54
		c-0.59-0.71-1.47-1.18-2.47-1.18h-5.9c-0.69,0-1.32,0.22-1.84,0.59h-4.65c-0.69,0-1.32,0.22-1.84,0.59h-4.65
		c-1.25,0-2.32,0.73-2.85,1.77h-1.76c-0.59-0.71-1.47-1.18-2.47-1.18h-5.9c-1,0-1.88,0.47-2.47,1.18h-2.77
		c-0.52-0.37-1.16-0.59-1.84-0.59h-5.9c-0.1,0-0.2,0-0.29,0.01c-0.1-0.01-0.2-0.01-0.29-0.01h-5.9c-1,0-1.88,0.47-2.47,1.18h-2.77
		c-0.52-0.37-1.16-0.59-1.84-0.59h-5.9c-1,0-1.88,0.47-2.47,1.18h-4.03c-0.1,0-0.2,0-0.3,0.01c-0.1-0.01-0.19-0.01-0.29-0.01h-5.9
		c-0.69,0-1.32,0.22-1.84,0.59h-3.4c-0.52-0.37-1.16-0.59-1.84-0.59h-5.9c-1.47,0-2.71,1-3.08,2.36h-2.16
		c-0.52-0.37-1.16-0.59-1.84-0.59h-5.9c-0.1,0-0.2,0-0.3,0.01c-0.1-0.01-0.19-0.01-0.29-0.01h-4.65c-0.52-0.37-1.16-0.59-1.84-0.59
		H680c-1,0-1.88,0.47-2.47,1.18h-2.77c-0.52-0.37-1.16-0.59-1.84-0.59h-5.9c-1.47,0-2.71,1-3.08,2.36h-1.54
		c-0.59-0.71-1.47-1.18-2.47-1.18h-5.9c-1.77,0-3.21,1.44-3.21,3.21c0,0.57,0.16,1.09,0.42,1.55c-0.26,0.46-0.42,0.99-0.42,1.55
		c0,0.18,0.02,0.35,0.05,0.52c-0.03,0.17-0.05,0.34-0.05,0.52v1.54v0.38v11.05h321.01l0.12,0.42l0.11-0.42h356.65l0.2,0.77
		l0.19-0.77h155.3l0.17,0.72l0.2-0.72h25.65l0.17,0.67l0.17-0.67h191.08v-9.47v-0.39v-0.46c0,0,0-0.64,0-0.68v-0.33v-0.38v-0.02
		v-0.03v0v-0.41v-0.24v-0.39v-0.15h0l0-0.2l-0.01-0.05l0.02-0.06c0,0,0-0.63,0-0.68c0,0,0,0,0,0v0l0-0.14l0,0v-0.19v-0.21v-0.16
		c0,0,0,0,0,0l0-0.05l0,0v-0.41c0,0,0-0.01,0-0.01l0-0.22l0-0.01v-0.4c0,0,0-0.01,0-0.01l0-0.34l-0.01-0.05l0.02-0.06
		c0,0,0-0.64,0-0.68c0,0,0,0,0,0v0l0-0.24c0-0.01,0-0.01,0-0.02l0-0.06l0,0v-0.38c0-0.01,0-0.01,0-0.02l0-0.01v-0.05v0v-0.39
		c0,0,0-0.01,0-0.01l0-0.21l0-0.01v-0.41c0,0,0-0.01,0-0.01l0-0.33l-0.02-0.06l0.02-0.07c0,0,0-0.63,0-0.68c0,0,0,0,0,0v0l0-0.24
		c0-0.01,0-0.01,0-0.02l0-0.06l0,0v-0.38c0-0.01,0-0.01,0-0.02l0-0.01v-0.05v0v-0.39c0,0,0-0.01,0-0.01l0-0.21l0-0.01v-0.41
		c0,0,0-0.01,0-0.01l0-0.33l-0.02-0.05l0.02-0.07c0,0,0-0.64,0-0.68l0-0.24c0-0.01,0-0.01,0-0.02l0-0.06l0,0v-0.38c0,0,0,0,0,0
		v-0.03v0v-0.03v0v-0.39c0,0,0-0.01,0-0.01l0-0.22l0-0.01v-0.4c0,0,0-0.01,0-0.01l0-0.34l-0.01-0.05l0.02-0.06c0,0,0-0.63,0-0.68
		c0,0,0,0,0,0v0l0-0.1l0,0v-0.23v-0.17v-0.22c0-0.01,0-0.01,0-0.02l0-0.01v-0.05v0v-0.39c0,0,0-0.01,0-0.01l0-0.35l-0.01-0.05
		c0-0.05,0.02-0.1,0.02-0.14c0-0.04-0.01-0.08-0.01-0.11c0-0.04,0.01-0.08,0.01-0.12c0-0.08-0.01-0.16-0.02-0.24l0.02-0.06
		c0,0,0-0.65,0-0.7c0-0.01,0-0.01,0-0.02l0-0.08l-0.01-0.03c0-0.04,0.01-0.09,0.01-0.13c0-0.02,0-0.03,0-0.05l0-0.01v-0.38
		c0-0.01,0-0.01,0-0.02l0-0.01v-0.4c0-0.04-0.01-0.08-0.01-0.12c0-0.04,0.01-0.08,0.01-0.12c0-0.06-0.02-0.12-0.02-0.18
		c0-0.06,0.02-0.12,0.02-0.18c0-0.14-0.02-0.27-0.04-0.41c0,0,0,0,0,0l0.04-0.16c0,0,0-0.6,0-0.65c0-0.04-0.01-0.09-0.01-0.13
		c0-0.04,0.01-0.09,0.01-0.13c0-0.03-0.01-0.05-0.01-0.08l0.01-0.03v-0.18v-0.17v-0.06v-0.15v-0.19c0,0,0,0,0-0.01l0-0.23
		c0,0,0,0,0-0.01c0,0,0,0,0-0.01l0-0.16l-0.02-0.05c0-0.05,0.02-0.09,0.02-0.14c0-0.14-0.02-0.27-0.04-0.41c0,0,0,0,0,0l0.04-0.16
		c0,0,0-0.32,0-0.51c0-0.07,0-0.12,0-0.14v-0.26c0,0,0,0,0-0.01l0-0.25c0-0.01,0-0.02,0-0.03c0-0.02,0-0.03,0-0.05v0l0,0
		c0-0.02,0-0.04,0-0.06l0.01-0.03v-0.43c0,0,0,0,0,0l0-0.41l-0.02-0.05c0-0.05,0.02-0.09,0.02-0.14c0-0.16-0.02-0.32-0.05-0.47
		c0.02-0.16,0.05-0.31,0.05-0.47c0-0.05,0-0.23,0-0.28c0-0.04-0.01-0.09-0.01-0.13c0-0.04,0.01-0.09,0.01-0.13
		c0-0.07-0.02-0.14-0.02-0.21l0.02-0.08v-0.14v-0.24v-0.19c0,0,0,0,0,0l0-0.41l-0.02-0.05c0-0.05,0.02-0.09,0.02-0.14
		c0-0.16-0.02-0.32-0.05-0.47c0.02-0.16,0.05-0.31,0.05-0.47c0-0.05,0-0.23,0-0.28c0-0.04-0.01-0.09-0.01-0.13
		c0-0.04,0.01-0.09,0.01-0.13c0-0.09-0.02-0.17-0.02-0.26c0-0.06,0.02-0.12,0.02-0.18l0.01-0.03v-0.39c0-0.03-0.01-0.05-0.01-0.08
		l0-0.01l0-0.01c0-0.07-0.02-0.13-0.02-0.2c0.01-0.1,0.04-0.2,0.04-0.3c0-0.16-0.02-0.32-0.05-0.47c0.02-0.16,0.05-0.31,0.05-0.47
		c0-0.05,0-0.23,0-0.28c0-0.04-0.01-0.09-0.01-0.13c0-0.04,0.01-0.09,0.01-0.13c0-0.12-0.01-0.24-0.02-0.35
		c0-0.03,0.01-0.05,0.02-0.08l0.01-0.03v-0.39c0-0.1-0.03-0.2-0.04-0.3c0.01-0.1,0.04-0.2,0.04-0.3c0-0.16-0.02-0.32-0.05-0.47
		c0.02-0.16,0.05-0.31,0.05-0.47c0-0.05,0-0.23,0-0.28c0-0.04-0.01-0.09-0.01-0.13c0-0.04,0.01-0.09,0.01-0.13
		c0-0.12-0.01-0.24-0.02-0.35c0-0.03,0.01-0.05,0.02-0.08l0.01-0.03v-0.4c0-0.1-0.03-0.2-0.04-0.3c0.01-0.1,0.04-0.2,0.04-0.3
		c0-0.16-0.02-0.32-0.05-0.47c0.02-0.16,0.05-0.31,0.05-0.47c0-0.05,0-0.23,0-0.28c0-0.15-0.01-0.3-0.03-0.45
		c0.01-0.08,0.02-0.16,0.02-0.25l0.01-0.03v-0.39c0-0.03-0.01-0.05-0.01-0.08l0-0.01l0-0.01c0-0.07-0.02-0.14-0.03-0.21
		c0.01-0.1,0.04-0.2,0.04-0.3c0-0.16-0.02-0.32-0.05-0.47c0.02-0.16,0.05-0.31,0.05-0.47c0-0.05,0-0.23,0-0.28
		c0-0.16-0.01-0.31-0.03-0.46c0.01-0.08,0.02-0.15,0.03-0.23l0.01-0.03v-0.4c0-0.1-0.03-0.2-0.04-0.3c0.01-0.1,0.04-0.2,0.04-0.3
		c0-0.16-0.02-0.32-0.05-0.47c0.02-0.16,0.05-0.31,0.05-0.47c0-0.05,0-0.23,0-0.28c0-0.16-0.01-0.31-0.03-0.46
		c0.01-0.07,0.02-0.14,0.02-0.22l0.01-0.04v-0.41c0-0.1-0.03-0.2-0.04-0.3c0.01-0.1,0.04-0.2,0.04-0.3c0-0.16-0.02-0.32-0.05-0.47
		c0.02-0.16,0.05-0.31,0.05-0.47c0-0.05,0-0.23,0-0.28c0-0.16-0.01-0.31-0.03-0.46c0.01-0.08,0.02-0.15,0.03-0.23l0.01-0.03v-0.4
		c0-0.1-0.03-0.2-0.04-0.3c0.01-0.1,0.04-0.2,0.04-0.3c0-0.16-0.02-0.32-0.05-0.47c0.02-0.16,0.05-0.31,0.05-0.47
		c0-0.05,0-0.23,0-0.28c0-0.16-0.01-0.31-0.03-0.46c0.01-0.08,0.02-0.16,0.03-0.23l0.01-0.03v-0.39c0-0.1-0.03-0.2-0.04-0.3
		c0.01-0.1,0.04-0.2,0.04-0.3c0-0.16-0.02-0.32-0.05-0.47c0.02-0.16,0.05-0.31,0.05-0.47c0-0.05,0-0.23,0-0.28
		c0-0.16-0.01-0.31-0.03-0.46c0.01-0.08,0.02-0.16,0.03-0.23l0.01-0.03v-0.39c0-0.1-0.03-0.2-0.04-0.3c0.01-0.1,0.04-0.2,0.04-0.3
		c0-0.16-0.02-0.32-0.05-0.47c0.02-0.16,0.05-0.31,0.05-0.47c0-0.05,0-0.23,0-0.28c0-0.16-0.01-0.31-0.03-0.47
		c0.01-0.08,0.02-0.15,0.03-0.23l0.01-0.03v-0.4c0-0.1-0.03-0.2-0.04-0.3c0.01-0.1,0.04-0.2,0.04-0.3c0-0.16-0.02-0.32-0.05-0.47
		c0.02-0.16,0.05-0.31,0.05-0.47c0-0.05,0-0.23,0-0.28c0-0.16-0.01-0.31-0.03-0.46c0.01-0.08,0.02-0.16,0.03-0.23l0.01-0.03v-0.39
		c0-0.1-0.03-0.2-0.04-0.3c0.01-0.1,0.04-0.2,0.04-0.3c0-0.16-0.02-0.32-0.05-0.47c0.02-0.16,0.05-0.31,0.05-0.47
		c0-0.02,0-0.46,0-0.46c0-0.12-0.01-0.25-0.02-0.37c0.01-0.12,0.02-0.25,0.02-0.37c0-0.14-0.02-0.27-0.04-0.4
		c0.02-0.13,0.04-0.26,0.04-0.4c0-0.16-0.02-0.32-0.05-0.47c0.02-0.16,0.05-0.31,0.05-0.47c0-0.05,0-0.23,0-0.28
		c0-0.16-0.01-0.31-0.03-0.47c0.02-0.15,0.03-0.31,0.03-0.46c0-0.14-0.02-0.27-0.04-0.4c0.02-0.13,0.04-0.26,0.04-0.4
		c0-0.16-0.02-0.32-0.05-0.47c0.02-0.16,0.05-0.31,0.05-0.47c0-0.05,0-0.23,0-0.28c0-0.16-0.01-0.31-0.03-0.47
		c0.02-0.15,0.03-0.31,0.03-0.46c0-0.14-0.02-0.27-0.04-0.4c0.02-0.13,0.04-0.26,0.04-0.4c0-0.16-0.02-0.32-0.05-0.47
		c0.02-0.16,0.05-0.31,0.05-0.47c0-0.05,0-0.23,0-0.28c0-0.16-0.01-0.31-0.03-0.46c0.02-0.15,0.03-0.31,0.03-0.47
		c0-0.14-0.02-0.27-0.04-0.4c0.02-0.13,0.04-0.26,0.04-0.4c0-0.16-0.02-0.32-0.05-0.47c0.02-0.16,0.05-0.31,0.05-0.47
		c0-0.05,0-0.23,0-0.28c0-0.16-0.01-0.31-0.03-0.46c0.02-0.15,0.03-0.31,0.03-0.47c0-0.14-0.02-0.27-0.04-0.4
		c0.02-0.13,0.04-0.26,0.04-0.4c0-0.16-0.02-0.32-0.05-0.47c0.02-0.16,0.05-0.31,0.05-0.47c0-0.05,0-0.23,0-0.28
		c0-0.16-0.01-0.31-0.03-0.47c0.02-0.15,0.03-0.31,0.03-0.47c0-0.14-0.02-0.27-0.04-0.4c0.02-0.13,0.04-0.26,0.04-0.4
		c0-0.16-0.02-0.32-0.05-0.47c0.02-0.16,0.05-0.31,0.05-0.47c0-0.05,0-0.23,0-0.28c0-0.16-0.01-0.31-0.03-0.47
		c0.02-0.15,0.03-0.31,0.03-0.46c0-0.14-0.02-0.27-0.04-0.4c0.02-0.13,0.04-0.26,0.04-0.4c0-0.16-0.02-0.32-0.05-0.47
		c0.02-0.16,0.05-0.31,0.05-0.47c0-0.05,0-0.23,0-0.28c0-0.16-0.01-0.31-0.03-0.46c0.02-0.15,0.03-0.31,0.03-0.47
		c0-0.14-0.02-0.27-0.04-0.4c0.02-0.13,0.04-0.26,0.04-0.4c0-0.16-0.02-0.32-0.05-0.47c0.02-0.16,0.05-0.31,0.05-0.47
		c0-0.05,0-0.23,0-0.28c0-0.13-0.01-0.26-0.02-0.39c0.02-0.13,0.02-0.26,0.02-0.39c0-0.16-0.02-0.32-0.05-0.48
		c0.02-0.16,0.05-0.31,0.05-0.48c0-0.16-0.02-0.32-0.05-0.47c0.02-0.16,0.05-0.31,0.05-0.47c0-0.05,0-0.23,0-0.28
		c0-0.3-0.06-0.59-0.13-0.86c0.08-0.28,0.13-0.56,0.13-0.86c0-0.16-0.02-0.32-0.05-0.47c0.02-0.16,0.05-0.31,0.05-0.47
		c0-0.05,0-0.23,0-0.28c0-0.3-0.06-0.59-0.13-0.86c0.08-0.28,0.13-0.56,0.13-0.86c0-0.16-0.02-0.32-0.05-0.47
		c0.02-0.16,0.05-0.31,0.05-0.47c0-0.05,0-0.23,0-0.28c0-0.3-0.06-0.59-0.13-0.86c0.08-0.28,0.13-0.56,0.13-0.86
		c0-0.16-0.02-0.32-0.05-0.47c0.02-0.16,0.05-0.31,0.05-0.47c0-0.05,0-0.23,0-0.28c0-0.3-0.06-0.59-0.13-0.86
		c0.08-0.28,0.13-0.56,0.13-0.86c0-0.16-0.02-0.32-0.05-0.47c0.02-0.16,0.05-0.31,0.05-0.47c0-0.05,0-0.23,0-0.28
		c0-0.48-0.11-0.93-0.3-1.34c0.19-0.41,0.3-0.86,0.3-1.34c0-0.05,0-0.23,0-0.28c0-0.48-0.11-0.93-0.3-1.34
		c0.19-0.41,0.3-0.86,0.3-1.34c0-0.01,0-0.05,0-0.07v-0.2v-0.19c0-0.04-0.01-0.08-0.01-0.13l-0.01-0.15l-0.01-0.05
		c-0.03-0.32-0.1-0.63-0.22-0.91c0.16-0.38,0.25-0.8,0.25-1.24c0-0.05,0-0.23,0-0.28c0-0.48-0.11-0.93-0.3-1.34
		c0.19-0.41,0.3-0.86,0.3-1.34c0-0.05,0-0.23,0-0.28c0-0.48-0.11-0.93-0.3-1.34c0.19-0.41,0.3-0.86,0.3-1.34c0-0.05,0-0.23,0-0.28
		c0-0.48-0.11-0.93-0.3-1.34c0.19-0.41,0.3-0.86,0.3-1.34c0-0.05,0-0.23,0-0.28c0-0.48-0.11-0.93-0.3-1.34
		c0.19-0.41,0.3-0.86,0.3-1.34c0-0.05,0-0.23,0-0.28c0-0.48-0.11-0.93-0.3-1.34c0.19-0.41,0.3-0.86,0.3-1.34c0-0.05,0-0.23,0-0.28
		c0-0.48-0.11-0.93-0.3-1.34c0.19-0.41,0.3-0.86,0.3-1.34c0-0.05,0-0.23,0-0.28c0-0.48-0.11-0.93-0.3-1.34
		c0.19-0.41,0.3-0.86,0.3-1.34c0-0.05,0-0.23,0-0.28c0-0.48-0.11-0.93-0.3-1.34c0.19-0.41,0.3-0.86,0.3-1.34c0-0.05,0-0.23,0-0.28
		c0-0.48-0.11-0.93-0.3-1.34c0.19-0.41,0.3-0.86,0.3-1.34c0-0.05,0-0.23,0-0.28c0-0.48-0.11-0.93-0.3-1.34
		c0.19-0.41,0.3-0.86,0.3-1.34c0-0.05,0-0.23,0-0.28c0-0.48-0.11-0.93-0.3-1.34c0.19-0.41,0.3-0.86,0.3-1.34c0-0.05,0-0.23,0-0.28
		c0-0.48-0.11-0.93-0.3-1.34c0.19-0.41,0.3-0.86,0.3-1.34c0-0.05,0-0.23,0-0.28c0-0.48-0.11-0.93-0.3-1.34
		c0.19-0.41,0.3-0.86,0.3-1.34c0-0.05,0-0.23,0-0.28c0-0.48-0.11-0.93-0.3-1.34c0.19-0.41,0.3-0.86,0.3-1.34c0-0.05,0-0.23,0-0.28
		c0-0.48-0.11-0.93-0.3-1.34c0.19-0.41,0.3-0.86,0.3-1.34c0-0.05,0-0.23,0-0.28c0-0.48-0.11-0.93-0.3-1.34
		c0.19-0.41,0.3-0.86,0.3-1.34c0-0.05,0-0.23,0-0.28c0-0.48-0.11-0.93-0.3-1.34c0.19-0.41,0.3-0.86,0.3-1.34c0-0.05,0-0.23,0-0.28
		c0-0.48-0.11-0.93-0.3-1.34c0.19-0.41,0.3-0.86,0.3-1.34c0-0.05,0-0.23,0-0.28c0-0.48-0.11-0.93-0.3-1.34
		c0.19-0.41,0.3-0.86,0.3-1.34c0-0.05,0-0.23,0-0.28c0-0.48-0.11-0.93-0.3-1.34c0.19-0.41,0.3-0.86,0.3-1.34c0-0.05,0-0.23,0-0.28
		c0-0.48-0.11-0.93-0.3-1.34c0.19-0.41,0.3-0.86,0.3-1.34c0-0.05,0-0.23,0-0.28c0-0.48-0.11-0.93-0.3-1.34
		c0.19-0.41,0.3-0.86,0.3-1.34c0-0.05,0-0.23,0-0.28c0-0.48-0.11-0.93-0.3-1.34c0.19-0.41,0.3-0.86,0.3-1.34c0-0.05,0-0.23,0-0.28
		c0-0.48-0.11-0.93-0.3-1.34c0.19-0.41,0.3-0.86,0.3-1.34c0-0.05,0-0.23,0-0.28c0-0.48-0.11-0.93-0.3-1.34
		c0.19-0.41,0.3-0.86,0.3-1.34c0-0.05,0-0.23,0-0.28c0-0.48-0.11-0.93-0.3-1.34c0.19-0.41,0.3-0.86,0.3-1.34c0-0.05,0-0.23,0-0.28
		c0-0.48-0.11-0.93-0.3-1.34c0.19-0.41,0.3-0.86,0.3-1.34c0-0.05,0-0.23,0-0.28c0-0.48-0.11-0.93-0.3-1.34
		c0.19-0.41,0.3-0.86,0.3-1.34c0-0.05,0-0.23,0-0.28c0-0.48-0.11-0.93-0.3-1.34c0.19-0.41,0.3-0.86,0.3-1.34c0-0.05,0-0.23,0-0.28
		c0-0.48-0.11-0.93-0.3-1.34c0.19-0.41,0.3-0.86,0.3-1.34c0-0.05,0-0.23,0-0.28c0-0.48-0.11-0.93-0.3-1.34
		c0.19-0.41,0.3-0.86,0.3-1.34c0-0.05,0-0.23,0-0.28c0-0.48-0.11-0.93-0.3-1.34c0.19-0.41,0.3-0.86,0.3-1.34c0-0.05,0-0.23,0-0.28
		c0-0.48-0.11-0.93-0.3-1.34c0.19-0.41,0.3-0.86,0.3-1.34c0-0.05,0-0.23,0-0.28c0-0.48-0.11-0.93-0.3-1.34
		c0.19-0.41,0.3-0.86,0.3-1.34c0-0.05,0-0.23,0-0.28c0-0.48-0.11-0.93-0.3-1.34c0.19-0.41,0.3-0.86,0.3-1.34c0-0.05,0-0.23,0-0.28
		c0-0.48-0.11-0.93-0.3-1.34c0.19-0.41,0.3-0.86,0.3-1.34c0-0.05,0-0.23,0-0.28c0-0.48-0.11-0.93-0.3-1.34
		c0.19-0.41,0.3-0.86,0.3-1.34c0-0.05,0-0.23,0-0.28c0-0.48-0.11-0.93-0.3-1.34c0.19-0.41,0.3-0.86,0.3-1.34c0-0.05,0-0.23,0-0.28
		c0-0.48-0.11-0.93-0.3-1.34c0.19-0.41,0.3-0.86,0.3-1.34c0-0.05,0-0.23,0-0.28c0-0.48-0.11-0.93-0.3-1.34
		c0.19-0.41,0.3-0.86,0.3-1.34c0-0.05,0-0.23,0-0.28c0-0.48-0.11-0.93-0.3-1.34c0.19-0.41,0.3-0.86,0.3-1.34c0-0.05,0-0.23,0-0.28
		c0-0.48-0.11-0.93-0.3-1.34c0.19-0.41,0.3-0.86,0.3-1.34c0-0.05,0-0.23,0-0.28c0-0.48-0.11-0.93-0.3-1.34
		c0.19-0.41,0.3-0.86,0.3-1.34c0-0.05,0-0.23,0-0.28c0-0.48-0.11-0.93-0.3-1.34c0.19-0.41,0.3-0.86,0.3-1.34c0-0.05,0-0.23,0-0.28
		c0-0.48-0.11-0.93-0.3-1.34c0.19-0.41,0.3-0.86,0.3-1.34c0-0.05,0-0.23,0-0.28c0-0.48-0.11-0.93-0.3-1.34
		c0.19-0.41,0.3-0.86,0.3-1.34c0-0.05,0-0.23,0-0.28c0-0.48-0.11-0.93-0.3-1.34c0.19-0.41,0.3-0.86,0.3-1.34c0-0.05,0-0.23,0-0.28
		c0-0.48-0.11-0.93-0.3-1.34c0.19-0.41,0.3-0.86,0.3-1.34c0-0.05,0-0.23,0-0.28c0-0.48-0.11-0.93-0.3-1.34
		c0.19-0.41,0.3-0.86,0.3-1.34c0-0.05,0-0.23,0-0.28c0-0.48-0.11-0.93-0.3-1.34c0.19-0.41,0.3-0.86,0.3-1.34c0-0.05,0-0.23,0-0.28
		c0-0.48-0.11-0.93-0.3-1.34c0.19-0.41,0.3-0.86,0.3-1.34c0-0.08,0-0.16-0.01-0.23c0.01-0.08,0.01-0.16,0.01-0.23
		c0-0.44-0.09-0.86-0.25-1.24c0.16-0.38,0.25-0.8,0.25-1.24c0-0.53-0.14-1.03-0.38-1.48c0.23-0.44,0.38-0.94,0.38-1.48
		c0-0.53-0.14-1.03-0.38-1.48c0.23-0.44,0.38-0.94,0.38-1.48s-0.14-1.03-0.38-1.48c0.23-0.44,0.38-0.94,0.38-1.48
		c0-0.53-0.14-1.03-0.38-1.48c0.23-0.44,0.38-0.94,0.38-1.48c0-0.53-0.14-1.03-0.38-1.48c0.23-0.44,0.38-0.94,0.38-1.48
		c0-0.53-0.14-1.03-0.38-1.48c0.23-0.44,0.38-0.94,0.38-1.48c0-0.53-0.14-1.03-0.38-1.48c0.23-0.44,0.38-0.94,0.38-1.48
		c0-0.53-0.14-1.03-0.38-1.48c0.23-0.44,0.38-0.94,0.38-1.48c0-0.53-0.14-1.03-0.38-1.48c0.23-0.44,0.38-0.94,0.38-1.48
		c0-0.53-0.14-1.03-0.38-1.48c0.23-0.44,0.38-0.94,0.38-1.48c0-0.53-0.14-1.03-0.38-1.48c0.23-0.44,0.38-0.94,0.38-1.48
		s-0.14-1.03-0.38-1.48c0.23-0.44,0.38-0.94,0.38-1.48c0-0.53-0.14-1.03-0.38-1.48c0.23-0.44,0.38-0.94,0.38-1.48
		c0-0.53-0.14-1.03-0.38-1.48c0.23-0.44,0.38-0.94,0.38-1.48c0-0.53-0.14-1.03-0.38-1.48c0.23-0.44,0.38-0.94,0.38-1.48
		c0-0.53-0.14-1.03-0.38-1.48c0.23-0.44,0.38-0.94,0.38-1.48c0-0.53-0.14-1.03-0.38-1.48c0.23-0.44,0.38-0.94,0.38-1.48
		c0-0.53-0.14-1.03-0.38-1.48c0.23-0.44,0.38-0.94,0.38-1.48c0-0.53-0.14-1.03-0.38-1.48c0.23-0.44,0.38-0.94,0.38-1.48
		c0-0.53-0.14-1.03-0.38-1.48c0.23-0.44,0.38-0.94,0.38-1.48s-0.14-1.03-0.38-1.48c0.23-0.44,0.38-0.94,0.38-1.48
		c0-0.53-0.14-1.03-0.38-1.48c0.23-0.44,0.38-0.94,0.38-1.48c0-0.53-0.14-1.03-0.38-1.48c0.23-0.44,0.38-0.94,0.38-1.48
		c0-0.53-0.14-1.03-0.38-1.48c0.23-0.44,0.38-0.94,0.38-1.48c0-0.53-0.14-1.03-0.38-1.48c0.23-0.44,0.38-0.94,0.38-1.48
		c0-0.53-0.14-1.03-0.38-1.48c0.23-0.44,0.38-0.94,0.38-1.48c0-0.53-0.14-1.03-0.38-1.48c0.23-0.44,0.38-0.94,0.38-1.48
		c0-0.53-0.14-1.03-0.38-1.48c0.23-0.44,0.38-0.94,0.38-1.48c0-0.53-0.14-1.03-0.38-1.48c0.23-0.44,0.38-0.94,0.38-1.48
		s-0.14-1.03-0.38-1.48c0.23-0.44,0.38-0.94,0.38-1.48c0-0.53-0.14-1.03-0.38-1.48c0.23-0.44,0.38-0.94,0.38-1.48
		c0-0.53-0.14-1.03-0.38-1.48c0.23-0.44,0.38-0.94,0.38-1.48c0-0.53-0.14-1.03-0.38-1.48c0.23-0.44,0.38-0.94,0.38-1.48
		c0-0.53-0.14-1.03-0.38-1.48c0.23-0.44,0.38-0.94,0.38-1.48c0-0.53-0.14-1.03-0.38-1.48c0.23-0.44,0.38-0.94,0.38-1.48
		c0-0.53-0.14-1.03-0.38-1.48c0.23-0.44,0.38-0.94,0.38-1.48c0-0.53-0.14-1.03-0.38-1.48c0.23-0.44,0.38-0.94,0.38-1.48
		c0-0.53-0.14-1.03-0.38-1.48c0.23-0.44,0.38-0.94,0.38-1.48s-0.14-1.03-0.38-1.48c0.23-0.44,0.38-0.94,0.38-1.48
		c0-0.53-0.14-1.03-0.38-1.48c0.23-0.44,0.38-0.94,0.38-1.48c0-0.53-0.14-1.03-0.38-1.48c0.23-0.44,0.38-0.94,0.38-1.48
		c0-0.53-0.14-1.03-0.38-1.48c0.23-0.44,0.38-0.94,0.38-1.48c0-0.53-0.14-1.03-0.38-1.48c0.23-0.44,0.38-0.94,0.38-1.48
		c0-0.53-0.14-1.03-0.38-1.48c0.23-0.44,0.38-0.94,0.38-1.48c0-0.53-0.14-1.03-0.38-1.48c0.23-0.44,0.38-0.94,0.38-1.48
		c0-0.53-0.14-1.03-0.38-1.48c0.23-0.44,0.38-0.94,0.38-1.48c0-0.53-0.14-1.03-0.38-1.48c0.23-0.44,0.38-0.94,0.38-1.48
		s-0.14-1.03-0.38-1.48c0.23-0.44,0.38-0.94,0.38-1.48c0-0.53-0.14-1.03-0.38-1.48c0.23-0.44,0.38-0.94,0.38-1.48
		c0-0.53-0.14-1.03-0.38-1.48c0.23-0.44,0.38-0.94,0.38-1.48c0-0.53-0.14-1.03-0.38-1.48c0.23-0.44,0.38-0.94,0.38-1.48
		c0-0.53-0.14-1.03-0.38-1.48c0.23-0.44,0.38-0.94,0.38-1.48c0-0.53-0.14-1.03-0.38-1.48c0.23-0.44,0.38-0.94,0.38-1.48
		c0-0.53-0.14-1.03-0.38-1.48c0.23-0.44,0.38-0.94,0.38-1.48c0-0.53-0.14-1.03-0.38-1.48c0.23-0.44,0.38-0.94,0.38-1.48
		c0-0.53-0.14-1.03-0.38-1.48c0.23-0.44,0.38-0.94,0.38-1.48s-0.14-1.03-0.38-1.48c0.23-0.44,0.38-0.94,0.38-1.48
		c0-0.53-0.14-1.03-0.38-1.48c0.23-0.44,0.38-0.94,0.38-1.48c0-0.53-0.14-1.03-0.38-1.48c0.23-0.44,0.38-0.94,0.38-1.48
		c0-0.53-0.14-1.03-0.38-1.48c0.23-0.44,0.38-0.94,0.38-1.48c0-0.53-0.14-1.03-0.38-1.48c0.23-0.44,0.38-0.94,0.38-1.48
		c0-0.53-0.14-1.03-0.38-1.48c0.23-0.44,0.38-0.94,0.38-1.48c0-0.53-0.14-1.03-0.38-1.48c0.23-0.44,0.38-0.94,0.38-1.48
		c0-0.53-0.14-1.03-0.38-1.48c0.23-0.44,0.38-0.94,0.38-1.48c0-0.53-0.14-1.03-0.38-1.48c0.23-0.44,0.38-0.94,0.38-1.48
		s-0.14-1.03-0.38-1.48c0.23-0.44,0.38-0.94,0.38-1.48c0-0.53-0.14-1.03-0.38-1.48c0.23-0.44,0.38-0.94,0.38-1.48
		c0-0.53-0.14-1.03-0.38-1.48c0.23-0.44,0.38-0.94,0.38-1.48c0-0.53-0.14-1.03-0.38-1.48c0.23-0.44,0.38-0.94,0.38-1.48
		c0-0.53-0.14-1.03-0.38-1.48c0.23-0.44,0.38-0.94,0.38-1.48C1701.86-44.65,1701.67-45.23,1701.36-45.73z M721.5,419.13
		c0-0.02,0.01-0.05,0.01-0.07h0.73c0,0.02,0.01,0.05,0.01,0.07H721.5z M999.26,377.75h2.37c0.01,0.01,0.01,0.03,0.01,0.04h-2.31
		C999.3,377.78,999.28,377.77,999.26,377.75z M1350.49,286.27h1.53c0.01,0.03,0.02,0.06,0.02,0.1h-1.47
		C1350.54,286.34,1350.52,286.3,1350.49,286.27z M1519.2,194.97c0.05-0.06,0.1-0.12,0.15-0.18h1.54c0.02,0.06,0.04,0.12,0.05,0.18
		H1519.2z M1558.98,179.45h0.91c-0.12,0.33-0.19,0.68-0.19,1.06c0,0.09,0.02,0.18,0.03,0.27h-0.79c0.06-0.24,0.1-0.49,0.1-0.76
		C1559.04,179.82,1559.01,179.64,1558.98,179.45z M1565.34,177.3c0.02-0.07,0.05-0.14,0.06-0.21h0.82c0.01,0.07,0.01,0.14,0.02,0.21
		H1565.34z"/>
	<path d="M1095.49,339.39h5.9c1.77,0,3.21-1.44,3.21-3.21s-1.44-3.21-3.21-3.21h-5.9c-1.77,0-3.21,1.44-3.21,3.21
		S1093.72,339.39,1095.49,339.39z"/>
</g>
</svg>
