<?xml version="1.0" encoding="utf-8"?>
<!-- Generator: Adobe Illustrator 18.0.0, SVG Export Plug-In . SVG Version: 6.00 Build 0)  -->
<!DOCTYPE svg PUBLIC "-//W3C//DTD SVG 1.1//EN" "http://www.w3.org/Graphics/SVG/1.1/DTD/svg11.dtd">
<svg version="1.1" id="Layer_5" xmlns="http://www.w3.org/2000/svg" xmlns:xlink="http://www.w3.org/1999/xlink"  x="0px" y="0px" width="9451.45px" height="623.52px"
	 viewBox="0 0 9451.45 623.52" enable-background="new 0 0 9451.45 623.52" xml:space="preserve">
<g opacity="0.01">
	<rect x="2091.55" y="312.67" width="2.76" height="113.75"/>
	<rect x="2081.42" y="261.67" width="2.76" height="164.75"/>
	<rect x="2076.07" y="320.67" width="2.96" height="105.75"/>
	<rect x="2040.53" y="242.67" width="2.76" height="183.75"/>
	<rect x="2035.46" y="406.67" width="2.76" height="19.75"/>
	<rect x="2030.4" y="359.67" width="2.76" height="66.75"/>
	<rect x="1984.45" y="363.67" width="2.76" height="62.75"/>
	<rect x="1964.18" y="344.67" width="2.76" height="81.75"/>
	<rect x="1959.12" y="341.67" width="2.75" height="84.75"/>
	<rect x="1954.05" y="362.67" width="2.76" height="63.75"/>
	<rect x="1948.71" y="410.67" width="2.96" height="15.75"/>
	<rect x="1943.56" y="354.67" width="2.76" height="71.75"/>
	<rect x="1938.49" y="360.67" width="2.76" height="65.75"/>
	<rect x="1923.3" y="385.67" width="2.76" height="40.75"/>
	<rect x="1918.23" y="353.67" width="2.76" height="72.75"/>
	<rect x="1913.17" y="363.67" width="2.76" height="62.75"/>
	<rect x="1892.9" y="361.67" width="2.76" height="64.75"/>
	<rect x="1887.84" y="403.67" width="2.76" height="22.75"/>
	<rect x="1882.41" y="293.67" width="2.76" height="132.75"/>
	<rect x="1877.35" y="275.67" width="2.76" height="150.75"/>
	<rect x="1872.28" y="289.67" width="2.76" height="136.75"/>
	<rect x="1867.21" y="384.67" width="2.76" height="41.75"/>
	<rect x="1857.08" y="387.67" width="2.76" height="38.75"/>
	<rect x="1852.02" y="342.67" width="2.76" height="83.75"/>
	<rect x="1846.95" y="340.67" width="2.76" height="85.75"/>
	<rect x="1841.89" y="317.67" width="2.76" height="108.75"/>
	<rect x="1816.2" y="317.67" width="2.76" height="108.75"/>
	<rect x="1811.13" y="373.67" width="2.76" height="52.75"/>
	<rect x="1806.07" y="386.67" width="2.76" height="39.75"/>
	<rect x="1801" y="421.67" width="2.76" height="4.75"/>
	<rect x="1795.93" y="351.67" width="2.76" height="74.75"/>
	<rect x="1785.8" y="337.67" width="2.76" height="88.75"/>
	<rect x="1780.74" y="342.67" width="2.76" height="83.75"/>
	<rect x="1760.48" y="370.67" width="2.76" height="55.75"/>
	<rect x="1744.92" y="409.67" width="2.76" height="16.75"/>
	<rect x="1979.32" y="434.74" width="2.76" height="2.75"/>
	<rect x="1969.19" y="434.74" width="2.76" height="2.75"/>
	<rect x="2137.07" y="434.74" width="2.76" height="10.75"/>
	<rect x="2132.01" y="434.74" width="2.76" height="11.75"/>
	<rect x="2126.94" y="434.74" width="2.76" height="12.75"/>
	<rect x="2121.88" y="434.74" width="2.76" height="13.75"/>
	<rect x="2116.81" y="434.74" width="2.76" height="14.75"/>
	<rect x="2111.75" y="434.74" width="2.76" height="15.75"/>
	<rect x="2106.68" y="434.74" width="2.76" height="16.75"/>
	<rect x="2101.61" y="434.74" width="2.76" height="17.75"/>
	<rect x="2096.55" y="434.74" width="2.76" height="18.75"/>
	<rect x="2086.42" y="434.74" width="2.76" height="19.75"/>
	<rect x="2070.86" y="434.74" width="2.76" height="22.75"/>
	<rect x="2065.79" y="434.74" width="2.76" height="23.75"/>
	<rect x="2060.73" y="434.74" width="2.76" height="23.75"/>
	<rect x="2055.66" y="434.74" width="2.76" height="25.75"/>
	<rect x="2050.6" y="434.74" width="2.76" height="26.75"/>
	<rect x="2045.53" y="434.74" width="2.76" height="26.75"/>
	<rect x="2025.27" y="434.74" width="2.76" height="30.75"/>
	<rect x="2020.2" y="434.74" width="2.76" height="31.75"/>
	<rect x="2014.86" y="434.74" width="2.96" height="32.75"/>
	<rect x="2009.71" y="434.74" width="2.76" height="34.75"/>
	<rect x="2004.65" y="434.74" width="2.76" height="35.75"/>
	<rect x="1999.58" y="434.74" width="2.76" height="37.75"/>
	<rect x="1994.51" y="434.74" width="2.76" height="38.75"/>
	<rect x="1989.45" y="434.74" width="2.76" height="38.75"/>
	<rect x="1974.25" y="434.74" width="2.76" height="33.75"/>
	<rect x="1933.37" y="434.74" width="2.76" height="6.75"/>
	<rect x="1928.3" y="434.74" width="2.76" height="107.75"/>
	<rect x="1908.04" y="434.74" width="2.76" height="18.75"/>
	<rect x="1902.97" y="434.74" width="2.76" height="44.75"/>
	<rect x="1897.91" y="434.74" width="2.76" height="38.75"/>
	<rect x="1862.09" y="434.74" width="2.76" height="27.75"/>
	<rect x="1836.76" y="434.74" width="2.76" height="28.75"/>
	<rect x="1831.69" y="434.74" width="2.76" height="49.75"/>
	<rect x="1826.63" y="434.74" width="2.76" height="70.75"/>
	<rect x="1821.28" y="434.74" width="2.96" height="9.75"/>
	<rect x="1790.81" y="434.74" width="2.76" height="68.75"/>
	<rect x="1775.61" y="434.74" width="2.76" height="92.75"/>
	<rect x="1770.54" y="434.74" width="2.76" height="42.75"/>
	<rect x="1765.48" y="434.74" width="2.76" height="32.75"/>
	<rect x="1754.99" y="434.74" width="2.76" height="123.75"/>
	<rect x="1749.92" y="434.74" width="2.76" height="4.75"/>
	<rect x="1739.79" y="434.74" width="2.76" height="5.75"/>
	<rect x="1734.72" y="434.74" width="2.76" height="39.75"/>
	<rect x="1729.66" y="434.74" width="2.76" height="73.75"/>
	<rect x="1724.59" y="434.74" width="2.76" height="17.75"/>
	<rect x="1719.53" y="434.74" width="2.76" height="104.75"/>
	<rect x="1714.46" y="434.74" width="2.76" height="37.75"/>
	<rect x="1709.4" y="434.74" width="2.76" height="6.75"/>
	<rect x="1704.33" y="434.74" width="2.76" height="65.75"/>
	<g>
		<rect x="2088.71" y="309.84" width="8.42" height="119.42"/>
		<polygon points="2087.01,258.84 2078.58,258.84 2078.58,317.84 2073.23,317.84 2073.23,429.26 2078.58,429.26 2081.86,429.26
			2087.01,429.26 		"/>
		<polygon points="2046.12,239.84 2037.69,239.84 2037.69,403.84 2035.99,403.84 2035.99,356.84 2027.56,356.84 2027.56,429.26
			2032.63,429.26 2035.99,429.26 2037.69,429.26 2041.05,429.26 2046.12,429.26 		"/>
		<rect x="1981.61" y="360.84" width="8.42" height="68.42"/>
		<polygon points="1969.77,341.84 1964.71,341.84 1964.71,338.84 1956.28,338.84 1956.28,359.84 1951.22,359.84 1951.22,407.84
			1949.15,407.84 1949.15,351.84 1940.73,351.84 1940.73,357.84 1935.66,357.84 1935.66,429.26 1940.73,429.26 1944.08,429.26
			1945.87,429.26 1949.15,429.26 1951.22,429.26 1954.5,429.26 1956.28,429.26 1959.64,429.26 1961.35,429.26 1964.71,429.26
			1969.77,429.26 		"/>
		<polygon points="1928.89,382.84 1923.82,382.84 1923.82,350.84 1915.4,350.84 1915.4,360.84 1910.33,360.84 1910.33,429.26
			1915.4,429.26 1918.76,429.26 1920.46,429.26 1923.82,429.26 1928.89,429.26 		"/>
		<polygon points="1898.49,358.84 1890.07,358.84 1890.07,400.84 1888,400.84 1888,290.84 1882.94,290.84 1882.94,272.84
			1874.51,272.84 1874.51,286.84 1869.45,286.84 1869.45,381.84 1864.38,381.84 1864.38,429.26 1869.45,429.26 1872.8,429.26
			1874.51,429.26 1877.87,429.26 1879.58,429.26 1882.94,429.26 1885,429.26 1888,429.26 1890.07,429.26 1893.43,429.26
			1898.49,429.26 		"/>
		<polygon points="1862.67,384.84 1857.61,384.84 1857.61,339.84 1852.54,339.84 1852.54,337.84 1847.48,337.84 1847.48,314.84
			1839.05,314.84 1839.05,429.26 1844.12,429.26 1847.48,429.26 1849.18,429.26 1852.54,429.26 1854.25,429.26 1857.61,429.26
			1862.67,429.26 		"/>
		<polygon points="1821.79,314.84 1813.36,314.84 1813.36,370.84 1808.3,370.84 1808.3,383.84 1803.23,383.84 1803.23,418.84
			1801.53,418.84 1801.53,348.84 1793.1,348.84 1793.1,429.26 1798.17,429.26 1801.53,429.26 1803.23,429.26 1806.59,429.26
			1808.3,429.26 1811.66,429.26 1813.36,429.26 1816.72,429.26 1821.79,429.26 		"/>
		<polygon points="1791.39,334.84 1782.97,334.84 1782.97,339.84 1777.9,339.84 1777.9,429.26 1782.97,429.26 1786.33,429.26
			1791.39,429.26 		"/>
		<rect x="1757.64" y="367.84" width="8.42" height="61.42"/>
		<rect x="1742.08" y="406.84" width="8.43" height="22.42"/>
		<polygon points="2142.66,431.9 2137.6,431.9 2134.24,431.9 2132.53,431.9 2129.17,431.9 2127.47,431.9 2124.11,431.9
			2122.4,431.9 2119.04,431.9 2117.34,431.9 2113.98,431.9 2112.27,431.9 2108.91,431.9 2107.21,431.9 2103.85,431.9 2102.14,431.9
			2098.78,431.9 2093.71,431.9 2093.71,456.32 2102.14,456.32 2102.14,455.32 2107.21,455.32 2107.21,454.32 2112.27,454.32
			2112.27,453.32 2117.34,453.32 2117.34,452.32 2122.4,452.32 2122.4,451.32 2127.47,451.32 2127.47,450.32 2132.53,450.32
			2132.53,449.32 2137.6,449.32 2137.6,448.32 2142.66,448.32 		"/>
		<rect x="2083.58" y="431.9" width="8.42" height="25.42"/>
		<polygon points="2068.02,431.9 2066.32,431.9 2062.96,431.9 2061.25,431.9 2057.89,431.9 2056.19,431.9 2052.83,431.9
			2051.12,431.9 2047.76,431.9 2042.7,431.9 2042.7,464.32 2047.76,464.32 2051.12,464.32 2056.19,464.32 2056.19,463.32
			2061.25,463.32 2061.25,461.32 2062.96,461.32 2066.32,461.32 2071.38,461.32 2071.38,460.32 2076.45,460.32 2076.45,431.9
			2071.38,431.9 		"/>
		<polygon points="2022.44,431.9 2020.65,431.9 2017.37,431.9 2015.3,431.9 2012.02,431.9 2010.24,431.9 2006.88,431.9
			2005.17,431.9 2001.81,431.9 2000.1,431.9 1996.75,431.9 1995.04,431.9 1991.68,431.9 1986.61,431.9 1986.61,476.32
			1991.68,476.32 1995.04,476.32 2000.1,476.32 2000.1,475.32 2005.17,475.32 2005.17,473.32 2010.24,473.32 2010.24,472.32
			2015.3,472.32 2015.3,470.32 2020.65,470.32 2020.65,469.32 2025.79,469.32 2025.79,468.32 2030.86,468.32 2030.86,431.9
			2025.79,431.9 		"/>
		<polygon points="1976.48,431.9 1974.78,431.9 1971.42,431.9 1966.35,431.9 1966.35,440.32 1971.42,440.32 1971.42,471.32
			1979.84,471.32 1979.84,440.32 1984.91,440.32 1984.91,431.9 1979.84,431.9 		"/>
		<polygon points="1930.53,431.9 1925.47,431.9 1925.47,545.32 1933.89,545.32 1933.89,444.32 1938.96,444.32 1938.96,431.9
			1933.89,431.9 		"/>
		<polygon points="1905.2,431.9 1903.5,431.9 1900.14,431.9 1895.07,431.9 1895.07,476.32 1900.14,476.32 1900.14,482.32
			1908.56,482.32 1908.56,456.32 1913.63,456.32 1913.63,431.9 1908.56,431.9 		"/>
		<rect x="1859.25" y="431.9" width="8.43" height="33.42"/>
		<polygon points="1833.92,431.9 1832.22,431.9 1828.86,431.9 1827.07,431.9 1823.79,431.9 1818.45,431.9 1818.45,447.32
			1823.79,447.32 1823.79,508.32 1832.22,508.32 1832.22,487.32 1837.28,487.32 1837.28,466.32 1842.35,466.32 1842.35,431.9
			1837.28,431.9 		"/>
		<rect x="1787.97" y="431.9" width="8.42" height="74.42"/>
		<polygon points="1772.78,431.9 1771.07,431.9 1767.71,431.9 1762.64,431.9 1762.64,470.32 1767.71,470.32 1767.71,480.32
			1772.78,480.32 1772.78,530.32 1781.2,530.32 1781.2,431.9 1776.13,431.9 		"/>
		<polygon points="1752.15,431.9 1747.09,431.9 1747.09,442.32 1752.15,442.32 1752.15,561.32 1760.58,561.32 1760.58,431.9
			1755.51,431.9 		"/>
		<polygon points="1736.96,431.9 1735.25,431.9 1731.89,431.9 1730.18,431.9 1726.82,431.9 1725.12,431.9 1721.76,431.9
			1720.05,431.9 1716.69,431.9 1714.99,431.9 1711.63,431.9 1709.92,431.9 1706.56,431.9 1704.85,431.9 1701.5,431.9 1696.43,431.9
			1696.43,527.32 1704.85,527.32 1704.85,503.32 1709.92,503.32 1709.92,444.32 1711.63,444.32 1711.63,475.32 1716.69,475.32
			1716.69,542.32 1725.12,542.32 1725.12,455.32 1726.82,455.32 1726.82,511.32 1735.25,511.32 1735.25,477.32 1740.31,477.32
			1740.31,443.32 1745.38,443.32 1745.38,431.9 1740.31,431.9 		"/>
	</g>
	<rect x="1699.26" y="434.74" width="2.76" height="89.75"/>
</g>
</svg>
